<?xml version="1.0" encoding="utf-8"?>
<!-- Generator: Adobe Illustrator 22.0.1, SVG Export Plug-In . SVG Version: 6.00 Build 0)  -->
<svg version="1.1" id="Layer_1" xmlns="http://www.w3.org/2000/svg" xmlns:xlink="http://www.w3.org/1999/xlink" x="0px" y="0px"
	 width="20px" height="20px" viewBox="0 0 20 20" style="enable-background:new 0 0 20 20;" xml:space="preserve">
<style type="text/css">
	.st0{fill:#E3E5E5;}
</style>
<path class="st0" d="M17,9H4.414l6.293-6.293c0.391-0.391,0.391-1.023,0-1.414s-1.023-0.391-1.414,0l-8,8c0,0,0,0-0.001,0.001
	L0.586,10l0.707,0.707c0,0,0,0,0.001,0.001l8,8C9.488,18.902,9.744,19,10,19s0.512-0.098,0.707-0.293
	c0.391-0.391,0.391-1.023,0-1.414L4.414,11H17c0.552,0,1-0.448,1-1S17.552,9,17,9z"/>
</svg>
