<?xml version="1.0" encoding="utf-8"?>
<!-- Generator: Adobe Illustrator 22.0.1, SVG Export Plug-In . SVG Version: 6.00 Build 0)  -->
<svg version="1.1" id="Layer_1" xmlns="http://www.w3.org/2000/svg" xmlns:xlink="http://www.w3.org/1999/xlink" x="0px" y="0px"
	 width="20px" height="20px" viewBox="0 0 20 20" style="enable-background:new 0 0 20 20;" xml:space="preserve">
<style type="text/css">
	.st0{fill:#E3E5E5;}
</style>
<path class="st0" d="M18.708,10.706L19.414,10l-0.706-0.706c-0.001-0.001-0.001-0.001-0.002-0.002l-7.999-7.999
	c-0.391-0.391-1.023-0.391-1.414,0s-0.391,1.023,0,1.414L15.586,9H3c-0.553,0-1,0.448-1,1s0.447,1,1,1h12.586l-6.293,6.293
	c-0.391,0.391-0.391,1.023,0,1.414C9.488,18.902,9.744,19,10,19s0.512-0.098,0.707-0.293l7.999-7.999
	C18.707,10.707,18.707,10.707,18.708,10.706z"/>
</svg>
