<?xml version="1.0" encoding="utf-8"?>
<!-- Generator: Adobe Illustrator 20.1.0, SVG Export Plug-In . SVG Version: 6.00 Build 0)  -->
<!DOCTYPE svg PUBLIC "-//W3C//DTD SVG 1.1//EN" "http://www.w3.org/Graphics/SVG/1.1/DTD/svg11.dtd">
<svg version="1.1" id="icons" xmlns="http://www.w3.org/2000/svg" xmlns:xlink="http://www.w3.org/1999/xlink" x="0px" y="0px"
	 width="32px" height="32px" viewBox="0 0 32 32" style="enable-background:new 0 0 32 32;" xml:space="preserve">
<style type="text/css">
	.white{fill:#FFFFFF;}
	.grey_01{fill:#F7F7F7;}
	.grey_16{fill:#373F3F;}
	.grey_17{fill:#2B3332;}
	.aloe_02{fill:#84ED82;}
	.aloe_03{fill:#78DF7C;}
	.aloe_04{fill:#6CD275;}
	.aloe_05{fill:#60C46F;}
	.cerulean_01{fill:#5BD3D5;}
	.cerulean_02{fill:#56C7CD;}
	.cerulean_03{fill:#51BAC5;}
	.cerulean_04{fill:#4CAEBC;}
	.cerulean_05{fill:#47A1B4;}
	.cerulean_06{fill:#4295AC;}
	.tulip_02{fill:#FF6B8B;}
	.tulip_03{fill:#FF5F7E;}
	.tulip_04{fill:#F3586F;}
	.tulip_05{fill:#E85160;}
	.tulip_06{fill:#D84459;}
	.st0{fill:#54B668;}
	.st1{fill:#7A63AD;}
	.st2{fill:#866EBA;}
	.st3{fill:#D2E6F3;}
	.st4{fill:#C1DDEE;}
	.st5{fill:#E0C193;}
	.st6{fill:#DBBA8C;}
	.st7{fill:#7FB8E0;}
	.st8{fill:#8EC0E0;}
	.st9{fill:#71B1E1;}
	.st10{fill:#9FC9E4;}
	.st11{fill:#FFEAA7;}
	.st12{fill:#FFE28A;}
	.st13{fill:#FF6B8B;}
	.st14{fill:#F4A984;}
	.st15{fill:#EA9C7A;}
	.st16{fill:#FEF1C6;}
	.st17{fill:#E55D53;}
	.st18{fill:#FFD400;}
	.st19{fill:#FF8F00;}
	.st20{fill:#FF4A00;}
	.st21{fill:#F7D684;}
	.st22{fill:#FAE09F;}
	.st23{fill:#FDEBBB;}
	.st24{fill:#FFF3D9;}
	.st25{fill:#FFD96C;}
	.st26{fill:#9ACC2E;}
	.st27{fill:#AADB3D;}
	.st28{fill:#A2D336;}
	.st29{fill:#93C427;}
	.st30{fill:#F79654;}
	.st31{fill:#FFD04D;}
	.st32{fill:#FCA15E;}
	.st33{fill:#A9E260;}
	.st34{fill:#97DB4A;}
	.st35{fill:#B1E346;}
	.st36{fill:#FCD8DE;}
	.st37{fill:#CDA073;}
	.st38{fill:#C09265;}
	.st39{fill:#A7794C;}
	.st40{fill:#96643B;}
	.st41{fill:#845331;}
	.st42{fill:#B38658;}
	.st43{fill:#9E6E43;}
	.st44{fill:#8D5B36;}
	.st45{fill:#FBCFD6;}
	.st46{fill:#FAC4D1;}
	.st47{fill:#FAB8CD;}
	.st48{fill:#F9ADC8;}
	.st49{fill:#F8A1C4;}
	.st50{fill:#F297BE;}
	.st51{fill:#EA8BB4;}
	.st52{fill:#E8BA36;}
	.st53{fill:#E0B12E;}
	.st54{fill:#FFC172;}
	.st55{fill:#FFAD68;}
	.st56{fill:#FFB76D;}
	.st57{fill:#6E57A0;}
	.st58{fill:#675099;}
	.st59{fill:#604893;}
	.st60{fill:#CBEB6B;}
	.st61{fill:#4EAC5D;}
	.st62{fill:#BEE758;}
	.st63{fill:#48A353;}
	.st64{fill:#D9F07D;}
	.st65{fill:#E6F490;}
	.st66{fill:#4896C8;}
	.st67{fill:#4390BF;}
	.st68{fill:#5CA3D5;}
	.st69{fill:#529CCF;}
	.st70{fill:#F7C845;}
	.st71{fill:#ECCD50;}
	.st72{fill:#FF8D6E;}
	.st73{fill:#FF805D;}
	.st74{fill:#EDEEEE;}
	.st75{fill:#65A9DC;}
	.st76{fill:#8BC07A;}
	.st77{fill:#F0C13E;}
	.st78{fill:#9A3644;}
	.st79{fill:#8A323F;}
	.st80{fill:#945BA0;}
	.st81{fill:#A366AD;}
	.st82{fill:#B370B9;}
	.st83{fill:#C27BC6;}
	.st84{fill:#F6B392;}
	.st85{fill:#D285D2;}
	.st86{fill:#DBA728;}
	.st87{fill:#505957;}
	.st88{fill:#434C4B;}
	.st89{fill:#687271;}
	.st90{fill:#5C6664;}
	.st91{fill:#D64F45;}
	.st92{fill:#D1D4D4;}
	.st93{fill:#E3E5E5;}
	.st94{fill:#DADDDC;}
	.st95{fill:#845194;}
	.st96{fill:#46B080;}
	.st97{fill:#53BF8C;}
	.st98{fill:#6EDCA2;}
	.st99{fill:#7AEBAC;}
	.st100{fill:#60CD96;}
	.st101{fill:#E8803A;}
	.st102{fill:#0A6F8E;}
	.st103{fill:#0F769B;}
	.st104{fill:#EF8C48;}
	.st105{fill:#838C8A;}
	.st106{fill:#757F7E;}
	.st107{fill:#D1473D;}
	.st108{fill:#56C7CD;}
	.st109{fill:#9179C6;}
	.st110{fill:#906DBB;}
	.st111{fill:#A78EDD;}
	.st112{fill:#9D85D3;}
	.st113{fill:#E2EFF7;}
	.st114{fill:#B0D3EA;}
	.st115{fill:#F7BC48;}
	.st116{fill:#FFC550;}
	.st117{fill:#FFCF6E;}
	.st118{fill:#E85160;}
	.st119{fill:#D84459;}
	.st120{fill:#FDE2E6;}
	.st121{fill:#FFF5D8;}
	.st122{fill:#99533D;}
	.st123{fill:#914C39;}
	.st124{fill:#D4C9EF;}
	.st125{fill:#E3DBF4;}
	.st126{fill:#F1EDFA;}
	.st127{fill:#C6B7E9;}
	.st128{fill:#B8A5E4;}
	.st129{fill:#F0C877;}
	.st130{fill:#E8BA67;}
	.st131{fill:#DDAA5F;}
	.st132{fill:#D4994F;}
	.st133{fill:#C98B44;}
	.st134{fill:#BF7D3C;}
	.st135{fill:#909997;}
	.st136{fill:#724D31;}
	.st137{fill:#93C2CA;}
	.st138{fill:#99C7CE;}
	.st139{fill:#9FCCD3;}
	.st140{fill:#ACD7DD;}
	.st141{fill:#B9E2E7;}
	.st142{fill:#A5D1D8;}
	.st143{fill:#88B9C3;}
	.st144{fill:#7EB1BD;}
	.st145{fill:#60C46F;}
	.st146{fill:#C8CCCB;}
	.st147{fill:none;}
	.st148{fill:#4F4032;}
	.st149{fill:#604631;}
	.st150{fill:#F9BDA0;}
	.st151{fill:#E7685F;}
	.st152{fill:#C84054;}
	.st153{fill:#ABB2B1;}
	.st154{fill:#9DA5A4;}
	.st155{fill:#F74000;}
	.st156{fill:#F97C00;}
	.st157{fill:#F9C900;}
	.st158{fill:#EFD4A7;}
	.st159{fill:#EACEA1;}
	.st160{fill:#FCE8CC;}
	.st161{fill:#F5DEB9;}
	.st162{fill:#CFAB81;}
	.st163{fill:#D5B387;}
	.st164{fill:#3A4274;}
	.st165{fill:#707EB7;}
	.st166{fill:#424B7E;}
	.st167{fill:#7C8AC4;}
	.st168{fill:#FFD98D;}
	.st169{fill:#8694D1;}
	.st170{fill:#9AA6D6;}
	.st171{fill:#ABB4DD;}
	.st172{fill:#FDECEF;}
	.st173{fill:#137FA0;}
	.st174{fill:#EB6B48;}
	.st175{fill:#F57552;}
	.st176{fill:#515E91;}
	.st177{fill:#5C699E;}
	.st178{fill:#6673AA;}
	.st179{fill:#504484;}
	.st180{fill:#EBCEEB;}
	.st181{fill:#E5BDE5;}
	.st182{fill:#E0ABDF;}
	.st183{fill:#D799D6;}
	.st184{fill:#3B8FA3;}
	.st185{fill:#348B99;}
	.st186{fill:#F7F7F7;}
	.st187{fill:#3AA176;}
	.st188{fill:#EFEAEA;}
	.st189{fill:#FF9A7E;}
	.st190{fill:#FCD2BE;}
	.st191{fill:#FCDDCF;}
	.st192{fill:#C683C8;}
	.st193{fill:#A55F49;}
	.st194{fill:#FEF5F7;}
</style>
<g>
	<polygon class="tulip_05" points="14,1 13,2 13,1 	"/>
	<polygon class="tulip_06" points="18,1 19,2 19,1 	"/>
	<g>
		<g>
			<path class="aloe_05" d="M31.963,18.091c-0.156-0.591-3.498-4.37-8.561-4.684h-0.746c-0.133,0.155-0.29,0.333-0.49,0.552
				c-0.066,0.072-0.169,0.099-0.262,0.069l-1.343-0.434l0.47,1.321c0.033,0.093,0.009,0.197-0.063,0.265
				c-0.104,0.098-0.213,0.197-0.322,0.296l3.391,0.326c0.072,0.007,0.143-0.018,0.196-0.067l0.511-0.484l0.605,0.975
				c0.033,0.053,0.085,0.092,0.146,0.109l0.54,0.15c0.12,0.033,0.246-0.027,0.296-0.141l0.267-0.614l0.507,0.994
				c0.029,0.057,0.079,0.101,0.14,0.122l0.72,0.254c0.135,0.048,0.282-0.027,0.323-0.165l0.123-0.415l0.63,0.969
				c0.03,0.046,0.074,0.081,0.126,0.099c0.252,0.087,1.063,0.391,1.765,0.911C31.776,19.125,32.12,18.682,31.963,18.091z"/>
		</g>
		<g>
			<path class="aloe_04" d="M11.032,15.18c-0.072-0.068-0.096-0.172-0.063-0.265l0.47-1.321l-1.343,0.434
				c-0.093,0.03-0.196,0.003-0.262-0.069c-0.2-0.218-0.357-0.397-0.49-0.552H8.598c-5.064,0.313-8.405,4.093-8.561,4.684
				s0.188,1.034,1.031,0.409c0.702-0.52,1.513-0.824,1.765-0.911c0.052-0.018,0.096-0.053,0.126-0.099l0.63-0.969l0.123,0.415
				C3.753,17.073,3.9,17.148,4.035,17.1l0.72-0.254c0.06-0.021,0.11-0.065,0.14-0.122l0.507-0.994l0.267,0.614
				c0.05,0.114,0.176,0.174,0.296,0.141l0.54-0.15c0.061-0.017,0.113-0.056,0.146-0.109l0.605-0.975l0.511,0.484
				c0.052,0.05,0.124,0.074,0.196,0.067l3.391-0.326C11.244,15.377,11.136,15.278,11.032,15.18z"/>
		</g>
	</g>
	<path class="tulip_04" d="M16,14L16,14c3.314,0,6-2.686,6-6V7.999c0-1.92-0.763-3.762-2.121-5.119l-2.733-2.733
		C17.053,0.053,16.926,0,16.793,0L16,0V14z"/>
	<path class="cerulean_05" d="M19.662,29.604l0.278,1.966c0.035,0.247,0.246,0.43,0.495,0.43h3.134c0.248,0,0.458-0.176,0.494-0.422
		C24.28,30.067,25,24.868,25,22c0-4.418-3.477-8-9-8v16C17.424,30,18.623,29.852,19.662,29.604z"/>
	<path class="cerulean_02" d="M25,21c0-1.053-0.307-2.048-0.843-2.943l0.487-2.921c0.14-0.841-0.77-1.461-1.501-1.022l-1.954,1.173
		C19.722,14.479,17.934,14,16,14v14C22.878,28,25,24.866,25,21z"/>
	<path class="cerulean_04" d="M16,14c-5.523,0-9,3.582-9,8c0,2.868,0.72,8.067,0.938,9.578C7.974,31.824,8.184,32,8.432,32h3.134
		c0.249,0,0.46-0.183,0.495-0.43l0.275-1.95C13.369,29.862,14.574,30,16,30V14z"/>
	<path class="cerulean_01" d="M16,14c-1.934,0-3.722,0.479-5.189,1.287l-1.954-1.173c-0.731-0.439-1.641,0.181-1.501,1.022
		l0.487,2.921C7.307,18.952,7,19.947,7,21c0,3.866,2,7,9,7V14z"/>
	<path class="cerulean_03" d="M16,26v2c5.76,0,8.177-2.201,8.813-5.186c-1.41,1.125-3.59,2.399-6.814,2.621
		C17.373,25.478,16.707,26,16,26z"/>
	<path class="cerulean_02" d="M16,28v-2c-0.708,0-1.374-0.522-2-0.563c-3.242-0.216-5.413-1.472-6.813-2.576
		C7.813,25.822,10.168,28,16,28z"/>
	<polygon class="cerulean_04" points="8.337,14.971 9.92,15.921 8.695,17.12 	"/>
	<polygon class="cerulean_05" points="23.663,14.971 22.08,15.921 23.305,17.12 	"/>
	<path class="grey_01" d="M17.954,22.278c0.478-0.919,1.534-2.473,3.46-3.2c0.153-0.058,0.328-0.036,0.46,0.061
		c0.26,0.19,0.675,0.619,0.967,1.528c0.3,0.934,0.114,1.65-0.048,2.03C22.714,22.883,22.533,23,22.331,23h-3.93
		C18.03,23,17.782,22.607,17.954,22.278z"/>
	<path class="white" d="M14.046,22.278c-0.478-0.919-1.534-2.473-3.46-3.2c-0.153-0.058-0.328-0.036-0.46,0.061
		c-0.26,0.19-0.675,0.619-0.967,1.528c-0.3,0.934-0.114,1.65,0.048,2.03C9.286,22.883,9.467,23,9.669,23h3.93
		C13.97,23,14.218,22.607,14.046,22.278z"/>
	<path class="tulip_06" d="M21.793,22.697c0.162-0.38,0.348-1.097,0.048-2.03c-0.246-0.766-0.574-1.179-0.828-1.407
		c-1.667,0.779-2.616,2.167-3.059,3.018C17.782,22.607,18.03,23,18.401,23h2.93C21.533,23,21.714,22.883,21.793,22.697z"/>
	<path class="tulip_05" d="M14.046,22.278c-0.443-0.851-1.391-2.239-3.059-3.018c-0.254,0.229-0.582,0.642-0.828,1.407
		c-0.3,0.934-0.114,1.65,0.048,2.03C10.286,22.883,10.467,23,10.669,23h2.93C13.97,23,14.218,22.607,14.046,22.278z"/>
	<path class="grey_16" d="M12.895,22.697c0.156-0.368,0.327-1.056,0.066-1.946c-0.358-0.393-0.775-0.783-1.297-1.116
		c-0.175,0.243-0.354,0.566-0.504,1.032c-0.3,0.934-0.114,1.65,0.048,2.03C11.286,22.883,11.467,23,11.669,23h0.764
		C12.635,23,12.815,22.883,12.895,22.697z"/>
	<path class="grey_17" d="M20.793,22.697c0.162-0.38,0.348-1.097,0.048-2.03c-0.149-0.465-0.329-0.789-0.504-1.032
		c-0.523,0.333-0.94,0.723-1.297,1.116c-0.261,0.89-0.091,1.578,0.066,1.946C19.185,22.883,19.365,23,19.567,23h0.764
		C20.533,23,20.714,22.883,20.793,22.697z"/>
	<path class="tulip_03" d="M16,14L16,14c-3.314,0-6-2.686-6-6V7.999c0-1.92,0.763-3.762,2.121-5.119l2.733-2.733
		C14.947,0.053,15.074,0,15.207,0H16V14z"/>
	<path class="tulip_05" d="M16,14h1c3.314,0,6-2.686,6-6v0c0-1.947-0.632-3.842-1.8-5.4l-1.05-1.4C20.056,1.074,19.907,1,19.75,1H19
		v4C19,8.246,17.947,11.404,16,14L16,14z"/>
	<path class="tulip_02" d="M16,14h-1c-3.314,0-6-2.686-6-6v0c0-1.947,0.632-3.842,1.8-5.4l1.05-1.4c0.094-0.126,0.243-0.2,0.4-0.2
		H13v4C13,8.246,14.053,11.404,16,14L16,14z"/>
	<path class="aloe_02" d="M9.182,13.219c0.144,0.17,0.368,0.43,0.653,0.74c0.066,0.072,0.169,0.099,0.262,0.069l1.343-0.434
		l-0.47,1.321c-0.033,0.093-0.009,0.197,0.063,0.265c0.133,0.125,0.27,0.251,0.411,0.378c0.079,0.071,0.195,0.084,0.288,0.033
		l1.315-0.721l-0.371,1.506c-0.024,0.099,0.013,0.204,0.095,0.263c0.21,0.153,0.424,0.3,0.639,0.435
		c0.097,0.061,0.225,0.046,0.307-0.034L14.788,16l0.024,1.597c0.002,0.107,0.07,0.203,0.172,0.235C15.33,17.939,15.671,18,16,18v-7
		c0,0-3.793,0-6.762,1.847C9.11,12.926,9.084,13.103,9.182,13.219z"/>
	<path class="aloe_03" d="M22.818,13.219c-0.144,0.17-0.368,0.429-0.652,0.74c-0.066,0.072-0.169,0.099-0.262,0.069l-1.343-0.434
		l0.47,1.321c0.033,0.093,0.009,0.197-0.063,0.265c-0.133,0.125-0.27,0.251-0.411,0.378c-0.079,0.071-0.195,0.084-0.288,0.033
		l-1.315-0.721l0.371,1.506c0.024,0.099-0.013,0.204-0.095,0.263c-0.21,0.153-0.424,0.3-0.639,0.435
		c-0.097,0.061-0.225,0.046-0.307-0.034L17.212,16l-0.024,1.597c-0.002,0.107-0.07,0.203-0.172,0.235C16.67,17.939,16.329,18,16,18
		v-7c0,0,3.792,0,6.761,1.846C22.89,12.926,22.916,13.104,22.818,13.219z"/>
	<path class="cerulean_05" d="M12.336,29.62L12.141,31h0.468c0.229,0,0.429-0.156,0.485-0.379l0.205-0.819
		C12.964,29.75,12.64,29.691,12.336,29.62z"/>
	<path class="cerulean_06" d="M19.662,29.604c-0.305,0.073-0.629,0.134-0.964,0.189l0.207,0.829C18.961,30.844,19.161,31,19.39,31
		h0.468L19.662,29.604z"/>
</g>
</svg>
