<?xml version="1.0" encoding="utf-8"?>
<!-- Generator: Adobe Illustrator 20.1.0, SVG Export Plug-In . SVG Version: 6.00 Build 0)  -->
<!DOCTYPE svg PUBLIC "-//W3C//DTD SVG 1.1//EN" "http://www.w3.org/Graphics/SVG/1.1/DTD/svg11.dtd">
<svg version="1.1" id="icons" xmlns="http://www.w3.org/2000/svg" xmlns:xlink="http://www.w3.org/1999/xlink" x="0px" y="0px"
	 width="32px" height="32px" viewBox="0 0 32 32" style="enable-background:new 0 0 32 32;" xml:space="preserve">
<style type="text/css">
	.white{fill:#FFFFFF;}
	.grey_01{fill:#F7F7F7;}
	.grey_16{fill:#373F3F;}
	.grey_17{fill:#2B3332;}
	.sapphire_02{fill:#0F769B;}
	.sapphire_03{fill:#0A6F8E;}
	.tangerine_04{fill:#FCA15E;}
	.tangerine_05{fill:#F79654;}
	.tangerine_06{fill:#EF8C48;}
	.tangerine_07{fill:#E8803A;}
	.sand_02{fill:#FDEBBB;}
	.sand_03{fill:#FAE09F;}
	.flamered_01{fill:#FF4A00;}
	.flameorange_01{fill:#FF8F00;}
	.flameyellow_01{fill:#FFD400;}
	.st0{fill:#78DF7C;}
	.st1{fill:#54B668;}
	.st2{fill:#7A63AD;}
	.st3{fill:#866EBA;}
	.st4{fill:#D2E6F3;}
	.st5{fill:#C1DDEE;}
	.st6{fill:#E0C193;}
	.st7{fill:#DBBA8C;}
	.st8{fill:#7FB8E0;}
	.st9{fill:#8EC0E0;}
	.st10{fill:#71B1E1;}
	.st11{fill:#9FC9E4;}
	.st12{fill:#FFEAA7;}
	.st13{fill:#FFE28A;}
	.st14{fill:#FF6B8B;}
	.st15{fill:#F4A984;}
	.st16{fill:#EA9C7A;}
	.st17{fill:#FEF1C6;}
	.st18{fill:#E85160;}
	.st19{fill:#D84459;}
	.st20{fill:#E55D53;}
	.st21{fill:#F7D684;}
	.st22{fill:#FFF3D9;}
	.st23{fill:#FFD96C;}
	.st24{fill:#9ACC2E;}
	.st25{fill:#AADB3D;}
	.st26{fill:#A2D336;}
	.st27{fill:#93C427;}
	.st28{fill:#FFD04D;}
	.st29{fill:#A9E260;}
	.st30{fill:#97DB4A;}
	.st31{fill:#B1E346;}
	.st32{fill:#FCD8DE;}
	.st33{fill:#CDA073;}
	.st34{fill:#C09265;}
	.st35{fill:#A7794C;}
	.st36{fill:#96643B;}
	.st37{fill:#845331;}
	.st38{fill:#B38658;}
	.st39{fill:#9E6E43;}
	.st40{fill:#8D5B36;}
	.st41{fill:#FBCFD6;}
	.st42{fill:#FAC4D1;}
	.st43{fill:#FAB8CD;}
	.st44{fill:#F9ADC8;}
	.st45{fill:#F8A1C4;}
	.st46{fill:#F297BE;}
	.st47{fill:#EA8BB4;}
	.st48{fill:#E8BA36;}
	.st49{fill:#E0B12E;}
	.st50{fill:#FFC172;}
	.st51{fill:#FFAD68;}
	.st52{fill:#FFB76D;}
	.st53{fill:#6E57A0;}
	.st54{fill:#675099;}
	.st55{fill:#F3586F;}
	.st56{fill:#604893;}
	.st57{fill:#CBEB6B;}
	.st58{fill:#4EAC5D;}
	.st59{fill:#BEE758;}
	.st60{fill:#6CD275;}
	.st61{fill:#48A353;}
	.st62{fill:#60C46F;}
	.st63{fill:#D9F07D;}
	.st64{fill:#E6F490;}
	.st65{fill:#4896C8;}
	.st66{fill:#4390BF;}
	.st67{fill:#5CA3D5;}
	.st68{fill:#529CCF;}
	.st69{fill:#F7C845;}
	.st70{fill:#ECCD50;}
	.st71{fill:#FF8D6E;}
	.st72{fill:#FF805D;}
	.st73{fill:#EDEEEE;}
	.st74{fill:#65A9DC;}
	.st75{fill:#8BC07A;}
	.st76{fill:#F0C13E;}
	.st77{fill:#9A3644;}
	.st78{fill:#8A323F;}
	.st79{fill:#945BA0;}
	.st80{fill:#A366AD;}
	.st81{fill:#B370B9;}
	.st82{fill:#C27BC6;}
	.st83{fill:#F6B392;}
	.st84{fill:#D285D2;}
	.st85{fill:#FDEBBB;}
	.st86{fill:#FAE09F;}
	.st87{fill:#DBA728;}
	.st88{fill:#505957;}
	.st89{fill:#56C7CD;}
	.st90{fill:#434C4B;}
	.st91{fill:#687271;}
	.st92{fill:#5C6664;}
	.st93{fill:#51BAC5;}
	.st94{fill:#D64F45;}
	.st95{fill:#D1D4D4;}
	.st96{fill:#E3E5E5;}
	.st97{fill:#DADDDC;}
	.st98{fill:#845194;}
	.st99{fill:#5BD3D5;}
	.st100{fill:#46B080;}
	.st101{fill:#53BF8C;}
	.st102{fill:#6EDCA2;}
	.st103{fill:#7AEBAC;}
	.st104{fill:#60CD96;}
	.st105{fill:#838C8A;}
	.st106{fill:#757F7E;}
	.st107{fill:#D1473D;}
	.st108{fill:#9179C6;}
	.st109{fill:#906DBB;}
	.st110{fill:#A78EDD;}
	.st111{fill:#9D85D3;}
	.st112{fill:#E2EFF7;}
	.st113{fill:#B0D3EA;}
	.st114{fill:#F7BC48;}
	.st115{fill:#FFC550;}
	.st116{fill:#FFCF6E;}
	.st117{fill:#4CAEBC;}
	.st118{fill:#47A1B4;}
	.st119{fill:#4295AC;}
	.st120{fill:#FDE2E6;}
	.st121{fill:#FFF5D8;}
	.st122{fill:#99533D;}
	.st123{fill:#914C39;}
	.st124{fill:#D4C9EF;}
	.st125{fill:#E3DBF4;}
	.st126{fill:#F1EDFA;}
	.st127{fill:#C6B7E9;}
	.st128{fill:#B8A5E4;}
	.st129{fill:#F0C877;}
	.st130{fill:#E8BA67;}
	.st131{fill:#DDAA5F;}
	.st132{fill:#D4994F;}
	.st133{fill:#C98B44;}
	.st134{fill:#BF7D3C;}
	.st135{fill:#909997;}
	.st136{fill:#724D31;}
	.st137{fill:#93C2CA;}
	.st138{fill:#99C7CE;}
	.st139{fill:#9FCCD3;}
	.st140{fill:#ACD7DD;}
	.st141{fill:#B9E2E7;}
	.st142{fill:#A5D1D8;}
	.st143{fill:#88B9C3;}
	.st144{fill:#7EB1BD;}
	.st145{fill:#C8CCCB;}
	.st146{fill:none;}
	.st147{fill:#4F4032;}
	.st148{fill:#604631;}
	.st149{fill:#F9BDA0;}
	.st150{fill:#E7685F;}
	.st151{fill:#C84054;}
	.st152{fill:#ABB2B1;}
	.st153{fill:#9DA5A4;}
	.st154{fill:#F74000;}
	.st155{fill:#F97C00;}
	.st156{fill:#F9C900;}
	.st157{fill:#EFD4A7;}
	.st158{fill:#EACEA1;}
	.st159{fill:#FCE8CC;}
	.st160{fill:#F5DEB9;}
	.st161{fill:#CFAB81;}
	.st162{fill:#D5B387;}
	.st163{fill:#3A4274;}
	.st164{fill:#707EB7;}
	.st165{fill:#424B7E;}
	.st166{fill:#7C8AC4;}
	.st167{fill:#FFD98D;}
	.st168{fill:#8694D1;}
	.st169{fill:#9AA6D6;}
	.st170{fill:#ABB4DD;}
	.st171{fill:#FDECEF;}
	.st172{fill:#0F769B;}
	.st173{fill:#137FA0;}
	.st174{fill:#EB6B48;}
	.st175{fill:#F57552;}
	.st176{fill:#515E91;}
	.st177{fill:#5C699E;}
	.st178{fill:#6673AA;}
	.st179{fill:#504484;}
	.st180{fill:#FF5F7E;}
	.st181{fill:#EBCEEB;}
	.st182{fill:#E5BDE5;}
	.st183{fill:#E0ABDF;}
	.st184{fill:#D799D6;}
	.st185{fill:#3B8FA3;}
	.st186{fill:#348B99;}
	.st187{fill:#F7F7F7;}
	.st188{fill:#3AA176;}
	.st189{fill:#84ED82;}
	.st190{fill:#EFEAEA;}
	.st191{fill:#FF9A7E;}
	.st192{fill:#FCD2BE;}
	.st193{fill:#FCDDCF;}
	.st194{fill:#C683C8;}
	.st195{fill:#A55F49;}
	.st196{fill:#FEF5F7;}
</style>
<g>
	<path class="tangerine_07" d="M16,25c0,0,7,3,12,0l1,1c0,0-5,6-13,4V25z"/>
	<path class="sapphire_03" d="M19,14.002c0,0,4.601-0.92,5.859-6.292c0.104-0.445,0.039-0.914-0.166-1.322l-0.4-0.8
		c-0.175-0.35-0.106-0.772,0.17-1.048l0,0c0.325-0.325,0.839-0.355,1.203-0.074c1.717,1.328,6.175,5.668,6.33,15.032
		c0.005,0.278-0.222,0.505-0.5,0.505h-0.004c-0.292,0-0.56-0.153-0.715-0.4c-0.603-0.96-2.443-3.2-5.776-1.6c0,0-3-1.833-5,0
		L19,14.002"/>
	<path class="tangerine_07" d="M19,14.002c0,0,4.601-0.92,5.859-6.292c0.104-0.445,0.039-0.914-0.166-1.322l-0.4-0.8
		c-0.175-0.35-0.106-0.772,0.17-1.048v0c0.325-0.325,0.839-0.355,1.203-0.074c1.717,1.328,6.172,5.665,6.33,15.024
		c0.005,0.282-0.226,0.512-0.508,0.512h0c-0.269,0-0.491-0.208-0.506-0.476c-0.097-1.699-0.703-7.548-4.482-11.024
		c0,0-1.458,6.32-7.251,6.496L19,14.002"/>
	<path class="sapphire_02" d="M13.006,14.002c0,0-4.601-0.92-5.859-6.292C7.043,7.265,7.109,6.797,7.313,6.388l0.4-0.8
		c0.175-0.35,0.106-0.772-0.17-1.048l0,0C7.218,4.214,6.704,4.185,6.34,4.466c-1.717,1.328-6.175,5.668-6.33,15.032
		c-0.005,0.278,0.222,0.505,0.5,0.505h0.004c0.292,0,0.56-0.153,0.715-0.4c0.603-0.96,2.443-3.2,5.776-1.6c0,0,3-1.833,5,0
		L13.006,14.002"/>
	<path class="tangerine_06" d="M13.006,14.002c0,0-4.601-0.92-5.859-6.292C7.043,7.265,7.109,6.797,7.313,6.388l0.4-0.8
		c0.175-0.35,0.106-0.772-0.17-1.048l0,0C7.218,4.214,6.704,4.185,6.34,4.466C4.624,5.793,0.168,10.131,0.01,19.49
		c-0.005,0.282,0.226,0.512,0.508,0.512h0c0.269,0,0.491-0.208,0.506-0.476c0.097-1.699,0.703-7.548,4.482-11.024
		c0,0,1.458,6.32,7.251,6.496L13.006,14.002"/>
	<path class="tangerine_06" d="M27.063,19.594l-1.159-1.739c-1.234-1.85-3.049-3.237-5.158-3.94l-2.185-0.728
		C18.199,12.169,18,11.092,18,10v0h-2v20c1.094,0,2.117-0.257,3-0.763v1.348c0,0.265,0.105,0.52,0.293,0.707l0.414,0.414
		C19.895,31.895,20.149,32,20.414,32h4.98c0.359,0,0.611-0.372,0.46-0.698C25.254,30,23,30,23,30s1-1,1-4
		c0-1.854-1.145-2.943-2.021-3.505c-0.089-2.237-0.755-4.556-1.796-6.344c1.281,0.78,2.335,1.885,3.009,3.234l0.951,1.903
		c0.455,0.909,1.603,1.214,2.449,0.65l0.001-0.001C27.37,21.42,27.58,20.37,27.063,19.594z"/>
	<path class="tangerine_05" d="M19.863,7.451l-0.62-2.481c-0.159-0.637-0.159-1.303,0-1.94l0.447-1.788
		C19.847,0.611,19.37,0,18.72,0c-0.43,0-0.812,0.275-0.948,0.683l-0.544,1.633C17.092,2.725,16.71,3,16.279,3H16v10h0.438
		c0.918,0,1.718-0.625,1.94-1.515l0.554-2.216c0.044-0.176,0.135-0.336,0.263-0.465L19.6,8.4
		C19.848,8.152,19.948,7.792,19.863,7.451z"/>
	<path class="tangerine_05" d="M16,10h-2v0c0,1.091-0.199,2.168-0.56,3.186l-2.185,0.728c-2.11,0.703-3.925,2.09-5.158,3.94
		l-1.159,1.739C4.42,20.37,4.63,21.42,5.406,21.937l0.001,0.001c0.846,0.564,1.994,0.259,2.449-0.65l0.951-1.903
		c0.674-1.349,1.729-2.454,3.009-3.234c-1.1,1.888-1.787,4.37-1.812,6.721C9.003,23.497,8,24.497,8,26c0,3,1,4,1,4
		s-2.254,0-2.854,1.302C5.995,31.628,6.247,32,6.606,32h4.98c0.265,0,0.52-0.105,0.707-0.293l0.414-0.414
		C12.895,31.105,13,30.851,13,30.586v-1.348C13.883,29.743,14.906,30,16,30V10z"/>
	<path class="tangerine_04" d="M16,3h-0.279c-0.43,0-0.813-0.275-0.949-0.684l-0.544-1.633C14.092,0.275,13.71,0,13.28,0
		c-0.65,0-1.127,0.611-0.969,1.242l0.447,1.788c0.159,0.637,0.159,1.303,0,1.94l-0.62,2.481C12.052,7.792,12.152,8.152,12.4,8.4
		l0.404,0.404c0.128,0.128,0.219,0.289,0.263,0.465l0.554,2.216c0.223,0.89,1.023,1.515,1.94,1.515H16V3z"/>
	<path class="sand_03" d="M18.917,29.291c0.284-0.156,0.507-0.417,0.615-0.722C19.885,27.571,20,26.339,20,25c0-3.314-0.686-6-4-6
		v11C17.059,30,18.053,29.764,18.917,29.291z"/>
	<path class="sand_02" d="M12,25c0,1.339,0.115,2.571,0.468,3.569c0.108,0.305,0.331,0.566,0.615,0.722
		C13.947,29.764,14.941,30,16,30V19C12.686,19,12,21.686,12,25z"/>
	<g>
		<path class="white" d="M14.978,7.717c-0.187-0.36-0.601-0.969-1.356-1.254c-0.06-0.023-0.129-0.014-0.18,0.024
			c-0.102,0.075-0.265,0.243-0.379,0.599c-0.118,0.366-0.045,0.647,0.019,0.796C13.112,7.954,13.183,8,13.262,8h1.541
			C14.948,8,15.045,7.846,14.978,7.717z"/>
		<path class="sapphire_02" d="M14.978,7.717c-0.174-0.334-0.545-0.878-1.199-1.183c-0.1,0.09-0.228,0.252-0.325,0.552
			c-0.118,0.366-0.045,0.647,0.019,0.796C13.504,7.954,13.575,8,13.654,8h1.149C14.948,8,15.045,7.846,14.978,7.717z"/>
		<path class="grey_16" d="M14.527,7.881c0.061-0.144,0.128-0.414,0.026-0.763c-0.14-0.154-0.304-0.307-0.509-0.437
			c-0.069,0.095-0.139,0.222-0.197,0.404c-0.118,0.366-0.045,0.647,0.019,0.796C13.896,7.954,13.967,8,14.046,8h0.3
			C14.425,8,14.496,7.954,14.527,7.881z"/>
	</g>
	<g>
		<path class="grey_01" d="M17.022,7.717c0.187-0.36,0.601-0.969,1.356-1.254c0.06-0.023,0.129-0.014,0.18,0.024
			c0.102,0.075,0.265,0.243,0.379,0.599c0.118,0.366,0.045,0.647-0.019,0.796C18.888,7.954,18.817,8,18.738,8h-1.541
			C17.052,8,16.955,7.846,17.022,7.717z"/>
		<path class="sapphire_03" d="M18.527,7.881c0.063-0.149,0.136-0.43,0.019-0.796c-0.096-0.3-0.225-0.462-0.325-0.552
			c-0.654,0.305-1.025,0.85-1.199,1.183C16.955,7.846,17.052,8,17.197,8h1.149C18.425,8,18.496,7.954,18.527,7.881z"/>
		<path class="grey_17" d="M18.135,7.881c0.063-0.149,0.136-0.43,0.019-0.796c-0.059-0.182-0.129-0.309-0.197-0.404
			c-0.205,0.13-0.368,0.283-0.509,0.437c-0.102,0.349-0.036,0.619,0.026,0.763C17.504,7.954,17.575,8,17.654,8h0.3
			C18.033,8,18.104,7.954,18.135,7.881z"/>
	</g>
	<path class="flamered_01" d="M28,25v-0.001c0-1.175,0.799-2.199,1.939-2.484l1.252-0.313c0.366-0.092,0.698,0.24,0.606,0.606
		l-0.313,1.252C31.2,25.201,30.176,26,29.001,26H29L28,25z"/>
	<path class="flameorange_01" d="M28.106,24.789L28,25l1,1l0.211-0.106c1.009-0.505,1.676-1.494,1.776-2.605
		c0.014-0.159-0.118-0.291-0.277-0.277C29.6,23.113,28.61,23.78,28.106,24.789z"/>
	<path class="flameyellow_01" d="M28,25l1,1c0,0,0.804-0.785,0.97-1.672c0.033-0.178-0.12-0.332-0.298-0.298
		C28.793,24.198,28,25,28,25z"/>
</g>
</svg>
