<?xml version="1.0" encoding="utf-8"?>
<!-- Generator: Adobe Illustrator 20.1.0, SVG Export Plug-In . SVG Version: 6.00 Build 0)  -->
<!DOCTYPE svg PUBLIC "-//W3C//DTD SVG 1.1//EN" "http://www.w3.org/Graphics/SVG/1.1/DTD/svg11.dtd">
<svg version="1.1" id="icons" xmlns="http://www.w3.org/2000/svg" xmlns:xlink="http://www.w3.org/1999/xlink" x="0px" y="0px"
	 width="32px" height="32px" viewBox="0 0 32 32" style="enable-background:new 0 0 32 32;" xml:space="preserve">
<style type="text/css">
	.white{fill:#FFFFFF;}
	.grey_01{fill:#F7F7F7;}
	.grey_16{fill:#373F3F;}
	.grey_17{fill:#2B3332;}
	.periwinkle_08{fill:#71B1E1;}
	.periwinkle_09{fill:#65A9DC;}
	.periwinkle_10{fill:#5CA3D5;}
	.lemon_02{fill:#FEF1C6;}
	.lemon_03{fill:#FFEAA7;}
	.lemon_05{fill:#FFD96C;}
	.lemon_06{fill:#FFD04D;}
	.lemon_07{fill:#F7C845;}
	.lemon_08{fill:#F0C13E;}
	.dirt_15{fill:#96643B;}
	.dirt_16{fill:#8D5B36;}
	.st0{fill:#78DF7C;}
	.st1{fill:#54B668;}
	.st2{fill:#7A63AD;}
	.st3{fill:#866EBA;}
	.st4{fill:#D2E6F3;}
	.st5{fill:#C1DDEE;}
	.st6{fill:#E0C193;}
	.st7{fill:#DBBA8C;}
	.st8{fill:#7FB8E0;}
	.st9{fill:#8EC0E0;}
	.st10{fill:#9FC9E4;}
	.st11{fill:#FFE28A;}
	.st12{fill:#FF6B8B;}
	.st13{fill:#F4A984;}
	.st14{fill:#EA9C7A;}
	.st15{fill:#E85160;}
	.st16{fill:#D84459;}
	.st17{fill:#E55D53;}
	.st18{fill:#FFD400;}
	.st19{fill:#FF8F00;}
	.st20{fill:#FF4A00;}
	.st21{fill:#F7D684;}
	.st22{fill:#FAE09F;}
	.st23{fill:#FDEBBB;}
	.st24{fill:#FFF3D9;}
	.st25{fill:#9ACC2E;}
	.st26{fill:#AADB3D;}
	.st27{fill:#A2D336;}
	.st28{fill:#93C427;}
	.st29{fill:#F79654;}
	.st30{fill:#FCA15E;}
	.st31{fill:#A9E260;}
	.st32{fill:#97DB4A;}
	.st33{fill:#B1E346;}
	.st34{fill:#FCD8DE;}
	.st35{fill:#CDA073;}
	.st36{fill:#C09265;}
	.st37{fill:#A7794C;}
	.st38{fill:#845331;}
	.st39{fill:#B38658;}
	.st40{fill:#9E6E43;}
	.st41{fill:#FBCFD6;}
	.st42{fill:#FAC4D1;}
	.st43{fill:#FAB8CD;}
	.st44{fill:#F9ADC8;}
	.st45{fill:#F8A1C4;}
	.st46{fill:#F297BE;}
	.st47{fill:#EA8BB4;}
	.st48{fill:#E8BA36;}
	.st49{fill:#E0B12E;}
	.st50{fill:#FFC172;}
	.st51{fill:#FFAD68;}
	.st52{fill:#FFB76D;}
	.st53{fill:#6E57A0;}
	.st54{fill:#675099;}
	.st55{fill:#F3586F;}
	.st56{fill:#604893;}
	.st57{fill:#CBEB6B;}
	.st58{fill:#4EAC5D;}
	.st59{fill:#BEE758;}
	.st60{fill:#6CD275;}
	.st61{fill:#48A353;}
	.st62{fill:#60C46F;}
	.st63{fill:#D9F07D;}
	.st64{fill:#E6F490;}
	.st65{fill:#4896C8;}
	.st66{fill:#4390BF;}
	.st67{fill:#529CCF;}
	.st68{fill:#ECCD50;}
	.st69{fill:#FF8D6E;}
	.st70{fill:#FF805D;}
	.st71{fill:#EDEEEE;}
	.st72{fill:#8BC07A;}
	.st73{fill:#9A3644;}
	.st74{fill:#8A323F;}
	.st75{fill:#945BA0;}
	.st76{fill:#A366AD;}
	.st77{fill:#B370B9;}
	.st78{fill:#C27BC6;}
	.st79{fill:#F6B392;}
	.st80{fill:#D285D2;}
	.st81{fill:#DBA728;}
	.st82{fill:#505957;}
	.st83{fill:#56C7CD;}
	.st84{fill:#434C4B;}
	.st85{fill:#687271;}
	.st86{fill:#5C6664;}
	.st87{fill:#51BAC5;}
	.st88{fill:#D64F45;}
	.st89{fill:#D1D4D4;}
	.st90{fill:#E3E5E5;}
	.st91{fill:#DADDDC;}
	.st92{fill:#845194;}
	.st93{fill:#5BD3D5;}
	.st94{fill:#46B080;}
	.st95{fill:#53BF8C;}
	.st96{fill:#6EDCA2;}
	.st97{fill:#7AEBAC;}
	.st98{fill:#60CD96;}
	.st99{fill:#E8803A;}
	.st100{fill:#0A6F8E;}
	.st101{fill:#0F769B;}
	.st102{fill:#EF8C48;}
	.st103{fill:#838C8A;}
	.st104{fill:#757F7E;}
	.st105{fill:#D1473D;}
	.st106{fill:#9179C6;}
	.st107{fill:#906DBB;}
	.st108{fill:#A78EDD;}
	.st109{fill:#9D85D3;}
	.st110{fill:#E2EFF7;}
	.st111{fill:#B0D3EA;}
	.st112{fill:#F7BC48;}
	.st113{fill:#FFC550;}
	.st114{fill:#FFCF6E;}
	.st115{fill:#F0C13E;}
	.st116{fill:#4CAEBC;}
	.st117{fill:#47A1B4;}
	.st118{fill:#4295AC;}
	.st119{fill:#FDE2E6;}
	.st120{fill:#FEF1C6;}
	.st121{fill:#FFF5D8;}
	.st122{fill:#99533D;}
	.st123{fill:#914C39;}
	.st124{fill:#D4C9EF;}
	.st125{fill:#E3DBF4;}
	.st126{fill:#F1EDFA;}
	.st127{fill:#C6B7E9;}
	.st128{fill:#B8A5E4;}
	.st129{fill:#F0C877;}
	.st130{fill:#E8BA67;}
	.st131{fill:#DDAA5F;}
	.st132{fill:#D4994F;}
	.st133{fill:#C98B44;}
	.st134{fill:#BF7D3C;}
	.st135{fill:#909997;}
	.st136{fill:#724D31;}
	.st137{fill:#93C2CA;}
	.st138{fill:#99C7CE;}
	.st139{fill:#9FCCD3;}
	.st140{fill:#ACD7DD;}
	.st141{fill:#B9E2E7;}
	.st142{fill:#A5D1D8;}
	.st143{fill:#88B9C3;}
	.st144{fill:#7EB1BD;}
	.st145{fill:#C8CCCB;}
	.st146{fill:none;}
	.st147{fill:#4F4032;}
	.st148{fill:#604631;}
	.st149{fill:#F9BDA0;}
	.st150{fill:#E7685F;}
	.st151{fill:#C84054;}
	.st152{fill:#ABB2B1;}
	.st153{fill:#9DA5A4;}
	.st154{fill:#FFD96C;}
	.st155{fill:#FFD04D;}
	.st156{fill:#F74000;}
	.st157{fill:#F97C00;}
	.st158{fill:#F9C900;}
	.st159{fill:#EFD4A7;}
	.st160{fill:#EACEA1;}
	.st161{fill:#FCE8CC;}
	.st162{fill:#F5DEB9;}
	.st163{fill:#CFAB81;}
	.st164{fill:#D5B387;}
	.st165{fill:#3A4274;}
	.st166{fill:#707EB7;}
	.st167{fill:#424B7E;}
	.st168{fill:#7C8AC4;}
	.st169{fill:#FFD98D;}
	.st170{fill:#8694D1;}
	.st171{fill:#9AA6D6;}
	.st172{fill:#ABB4DD;}
	.st173{fill:#FDECEF;}
	.st174{fill:#137FA0;}
	.st175{fill:#EB6B48;}
	.st176{fill:#F57552;}
	.st177{fill:#515E91;}
	.st178{fill:#5C699E;}
	.st179{fill:#6673AA;}
	.st180{fill:#504484;}
	.st181{fill:#FF5F7E;}
	.st182{fill:#EBCEEB;}
	.st183{fill:#E5BDE5;}
	.st184{fill:#E0ABDF;}
	.st185{fill:#D799D6;}
	.st186{fill:#3B8FA3;}
	.st187{fill:#348B99;}
	.st188{fill:#F7F7F7;}
	.st189{fill:#3AA176;}
	.st190{fill:#84ED82;}
	.st191{fill:#EFEAEA;}
	.st192{fill:#FF9A7E;}
	.st193{fill:#FCD2BE;}
	.st194{fill:#FCDDCF;}
	.st195{fill:#C683C8;}
	.st196{fill:#A55F49;}
	.st197{fill:#FEF5F7;}
</style>
<g>
	<path class="periwinkle_09" d="M3.164,1.982c0,0-1.496-0.564-1.097-1.552s3.689-0.282,5.484,2.21s3.54,5.596,1.595,6.866
		S5.695,9.365,6,7.907c0,0-2.188-1.49-2.885-2.907S2.317,2.593,3.164,1.982z"/>
	<path class="periwinkle_10" d="M28.836,1.982c0,0,1.496-0.564,1.097-1.552c-0.399-0.988-3.689-0.282-5.484,2.21
		s-3.54,5.596-1.595,6.866S26.305,9.365,26,7.907c0,0,2.188-1.49,2.885-2.907S29.683,2.593,28.836,1.982z"/>
	<path class="lemon_03" d="M26,20c0-5.523-4.477-10-10-10v20C21.523,30,26,25.523,26,20z"/>
	<path class="lemon_02" d="M16,10c-5.523,0-10,4.477-10,10c0,5.523,4.477,10,10,10V10z"/>
	<path class="lemon_05" d="M16,11c-4.971,0-9,4.029-9,9c0,4.971,4.029,9,9,9V11z"/>
	<path class="lemon_06" d="M25,20c0-4.971-4.029-9-9-9v18C20.971,29,25,24.971,25,20z"/>
	<path class="periwinkle_09" d="M7,20c0-1.937,0.618-3.727,1.659-5.196l-7.561,4.537c-0.558,0.335-0.653,1.105-0.193,1.565
		l0.43,0.43c1.027,1.027,2.531,1.417,3.927,1.018l1.919-0.548C7.063,21.222,7,20.618,7,20z"/>
	<path class="lemon_06" d="M16,29v-9H7C7,24.971,11.029,29,16,29z"/>
	<path class="lemon_07" d="M16,29c4.971,0,9-4.029,9-9h-9V29z"/>
	<path class="lemon_07" d="M16,29v-5l-5.361,3.217C12.137,28.332,13.988,29,16,29z"/>
	<path class="lemon_08" d="M21.361,27.217L16,24v5C18.012,29,19.863,28.332,21.361,27.217z"/>
	<path class="periwinkle_10" d="M24,9c0-4.418-3.512-8-8-8v14C20.488,15,24,13.418,24,9z"/>
	<path class="periwinkle_09" d="M16,1c-4.488,0-8,3.582-8,8c0,4.418,3.512,6,8,6V1z"/>
	<path class="periwinkle_09" d="M16,1c0,0,0.037,11.195,0.056,11.195c0.584,0,1.159-0.727,1.722-0.805
		c2.229-0.305,4.267,0.257,5.952-0.483C23.9,10.339,24,9.71,24,9C24,4.582,20.488,1,16,1z"/>
	<path class="periwinkle_08" d="M8,9c0,0.679,0.092,1.283,0.249,1.833c1.682,0.762,3.729,0.214,5.973,0.542
		c0.581,0.085,1.174,0.772,1.778,0.813V1C11.512,1,8,4.582,8,9z"/>
	<path class="white" d="M13.198,6.45l-2.25-0.375c-0.26-0.043-0.511,0.122-0.569,0.38C10.153,7.453,9.864,9.75,12,9.75
		c2.213,0,1.823-2.137,1.597-2.945C13.545,6.619,13.389,6.481,13.198,6.45z"/>
	<path class="dirt_15" d="M11.453,6.159c-0.182,0.659-0.922,3.345,1.059,3.542c1.629-0.313,1.291-2.154,1.085-2.894
		c-0.052-0.187-0.208-0.326-0.399-0.358L11.453,6.159z"/>
	<path class="grey_16" d="M12.502,9.095c-0.263,0-0.419-0.112-0.548-0.322c-0.296-0.484-0.207-1.807-0.061-2.54l1.141,0.19
		c0.136,0.488,0.358,1.837,0.075,2.34C12.988,8.979,12.765,9.095,12.502,9.095z"/>
	<circle class="white" cx="12" cy="7" r="0.5"/>
	<path class="grey_01" d="M18.802,6.45l2.25-0.375c0.26-0.043,0.511,0.122,0.569,0.38C21.847,7.453,22.136,9.75,20,9.75
		c-2.213,0-1.823-2.137-1.597-2.945C18.455,6.619,18.611,6.481,18.802,6.45z"/>
	<path class="dirt_16" d="M20.547,6.159c0.182,0.659,0.922,3.345-1.059,3.542c-1.629-0.313-1.291-2.154-1.085-2.894
		c0.052-0.187,0.208-0.326,0.399-0.358L20.547,6.159z"/>
	<path class="grey_17" d="M19.498,9.095c0.263,0,0.419-0.112,0.548-0.322c0.296-0.484,0.207-1.807,0.061-2.54l-1.141,0.19
		c-0.136,0.488-0.358,1.837-0.075,2.34C19.012,8.979,19.235,9.095,19.498,9.095z"/>
	<circle class="grey_01" cx="20" cy="7" r="0.5"/>
	<path class="periwinkle_10" d="M30.902,19.341l-7.561-4.537C24.382,16.273,25,18.063,25,20c0,0.618-0.063,1.222-0.182,1.805
		l1.919,0.548c1.397,0.399,2.9,0.01,3.927-1.018l0.43-0.43C31.554,20.446,31.46,19.676,30.902,19.341z"/>
	<path class="periwinkle_10" d="M26.5,30H26c0,0-0.002-2.968-1.97-5.952c-0.946,1.872-2.52,3.37-4.452,4.208
		c0.2,0.694,0.383,1.728,0.417,3.244c0.006,0.273,0.224,0.5,0.498,0.5H27.5c0.276,0,0.5-0.224,0.5-0.5C28,30.672,27.328,30,26.5,30z
		"/>
	<path class="periwinkle_09" d="M7.97,24.048C6.002,27.032,6,30,6,30H5.5C4.672,30,4,30.672,4,31.5C4,31.776,4.224,32,4.5,32h7.008
		c0.273,0,0.492-0.227,0.498-0.5c0.033-1.516,0.216-2.55,0.417-3.244C10.49,27.418,8.915,25.92,7.97,24.048z"/>
</g>
</svg>
