<?xml version="1.0" encoding="utf-8"?>
<!-- Generator: Adobe Illustrator 20.1.0, SVG Export Plug-In . SVG Version: 6.00 Build 0)  -->
<!DOCTYPE svg PUBLIC "-//W3C//DTD SVG 1.1//EN" "http://www.w3.org/Graphics/SVG/1.1/DTD/svg11.dtd">
<svg version="1.1" id="icons" xmlns="http://www.w3.org/2000/svg" xmlns:xlink="http://www.w3.org/1999/xlink" x="0px" y="0px"
	 width="32px" height="32px" viewBox="0 0 32 32" style="enable-background:new 0 0 32 32;" xml:space="preserve">
<style type="text/css">
	.grey_17{fill:#2B3332;}
	.lime_06{fill:#AADB3D;}
	.lime_07{fill:#A2D336;}
	.lime_08{fill:#9ACC2E;}
	.lime_09{fill:#93C427;}
	.tangerine_04{fill:#FCA15E;}
	.tangerine_05{fill:#F79654;}
	.lemon_03{fill:#FFEAA7;}
	.lemon_04{fill:#FFE28A;}
	.lemon_05{fill:#FFD96C;}
	.lemon_06{fill:#FFD04D;}
	.st0{fill:#78DF7C;}
	.st1{fill:#54B668;}
	.st2{fill:#7A63AD;}
	.st3{fill:#866EBA;}
	.st4{fill:#D2E6F3;}
	.st5{fill:#C1DDEE;}
	.st6{fill:#E0C193;}
	.st7{fill:#DBBA8C;}
	.st8{fill:#7FB8E0;}
	.st9{fill:#8EC0E0;}
	.st10{fill:#71B1E1;}
	.st11{fill:#9FC9E4;}
	.st12{fill:#FF6B8B;}
	.st13{fill:#F4A984;}
	.st14{fill:#EA9C7A;}
	.st15{fill:#FEF1C6;}
	.st16{fill:#E85160;}
	.st17{fill:#D84459;}
	.st18{fill:#F7F7F7;}
	.st19{fill:#FFFFFF;}
	.st20{fill:#E55D53;}
	.st21{fill:#FFD400;}
	.st22{fill:#FF8F00;}
	.st23{fill:#FF4A00;}
	.st24{fill:#F7D684;}
	.st25{fill:#FAE09F;}
	.st26{fill:#373F3F;}
	.st27{fill:#FDEBBB;}
	.st28{fill:#FFF3D9;}
	.st29{fill:#A9E260;}
	.st30{fill:#97DB4A;}
	.st31{fill:#B1E346;}
	.st32{fill:#FCD8DE;}
	.st33{fill:#CDA073;}
	.st34{fill:#C09265;}
	.st35{fill:#A7794C;}
	.st36{fill:#96643B;}
	.st37{fill:#845331;}
	.st38{fill:#B38658;}
	.st39{fill:#9E6E43;}
	.st40{fill:#8D5B36;}
	.st41{fill:#FBCFD6;}
	.st42{fill:#FAC4D1;}
	.st43{fill:#FAB8CD;}
	.st44{fill:#F9ADC8;}
	.st45{fill:#F8A1C4;}
	.st46{fill:#F297BE;}
	.st47{fill:#EA8BB4;}
	.st48{fill:#E8BA36;}
	.st49{fill:#E0B12E;}
	.st50{fill:#FFC172;}
	.st51{fill:#FFAD68;}
	.st52{fill:#FFB76D;}
	.st53{fill:#6E57A0;}
	.st54{fill:#675099;}
	.st55{fill:#F3586F;}
	.st56{fill:#604893;}
	.st57{fill:#CBEB6B;}
	.st58{fill:#4EAC5D;}
	.st59{fill:#BEE758;}
	.st60{fill:#6CD275;}
	.st61{fill:#48A353;}
	.st62{fill:#60C46F;}
	.st63{fill:#D9F07D;}
	.st64{fill:#E6F490;}
	.st65{fill:#4896C8;}
	.st66{fill:#4390BF;}
	.st67{fill:#5CA3D5;}
	.st68{fill:#529CCF;}
	.st69{fill:#F7C845;}
	.st70{fill:#ECCD50;}
	.st71{fill:#FF8D6E;}
	.st72{fill:#FF805D;}
	.st73{fill:#EDEEEE;}
	.st74{fill:#65A9DC;}
	.st75{fill:#8BC07A;}
	.st76{fill:#F0C13E;}
	.st77{fill:#9A3644;}
	.st78{fill:#8A323F;}
	.st79{fill:#945BA0;}
	.st80{fill:#A366AD;}
	.st81{fill:#B370B9;}
	.st82{fill:#C27BC6;}
	.st83{fill:#F6B392;}
	.st84{fill:#D285D2;}
	.st85{fill:#DBA728;}
	.st86{fill:#505957;}
	.st87{fill:#56C7CD;}
	.st88{fill:#434C4B;}
	.st89{fill:#687271;}
	.st90{fill:#5C6664;}
	.st91{fill:#51BAC5;}
	.st92{fill:#D64F45;}
	.st93{fill:#D1D4D4;}
	.st94{fill:#E3E5E5;}
	.st95{fill:#DADDDC;}
	.st96{fill:#845194;}
	.st97{fill:#5BD3D5;}
	.st98{fill:#46B080;}
	.st99{fill:#53BF8C;}
	.st100{fill:#6EDCA2;}
	.st101{fill:#7AEBAC;}
	.st102{fill:#60CD96;}
	.st103{fill:#E8803A;}
	.st104{fill:#0A6F8E;}
	.st105{fill:#0F769B;}
	.st106{fill:#EF8C48;}
	.st107{fill:#838C8A;}
	.st108{fill:#757F7E;}
	.st109{fill:#D1473D;}
	.st110{fill:#FFE28A;}
	.st111{fill:#9179C6;}
	.st112{fill:#906DBB;}
	.st113{fill:#A78EDD;}
	.st114{fill:#9D85D3;}
	.st115{fill:#E2EFF7;}
	.st116{fill:#B0D3EA;}
	.st117{fill:#F7BC48;}
	.st118{fill:#FFC550;}
	.st119{fill:#FFCF6E;}
	.st120{fill:#4CAEBC;}
	.st121{fill:#47A1B4;}
	.st122{fill:#4295AC;}
	.st123{fill:#FDE2E6;}
	.st124{fill:#FFF5D8;}
	.st125{fill:#99533D;}
	.st126{fill:#914C39;}
	.st127{fill:#D4C9EF;}
	.st128{fill:#E3DBF4;}
	.st129{fill:#F1EDFA;}
	.st130{fill:#C6B7E9;}
	.st131{fill:#B8A5E4;}
	.st132{fill:#F0C877;}
	.st133{fill:#E8BA67;}
	.st134{fill:#DDAA5F;}
	.st135{fill:#D4994F;}
	.st136{fill:#C98B44;}
	.st137{fill:#BF7D3C;}
	.st138{fill:#909997;}
	.st139{fill:#724D31;}
	.st140{fill:#93C2CA;}
	.st141{fill:#99C7CE;}
	.st142{fill:#9FCCD3;}
	.st143{fill:#ACD7DD;}
	.st144{fill:#B9E2E7;}
	.st145{fill:#A5D1D8;}
	.st146{fill:#88B9C3;}
	.st147{fill:#7EB1BD;}
	.st148{fill:#C8CCCB;}
	.st149{fill:none;}
	.st150{fill:#4F4032;}
	.st151{fill:#604631;}
	.st152{fill:#F9BDA0;}
	.st153{fill:#E7685F;}
	.st154{fill:#C84054;}
	.st155{fill:#ABB2B1;}
	.st156{fill:#9DA5A4;}
	.st157{fill:#FFD96C;}
	.st158{fill:#FFD04D;}
	.st159{fill:#F74000;}
	.st160{fill:#F97C00;}
	.st161{fill:#F9C900;}
	.st162{fill:#EFD4A7;}
	.st163{fill:#EACEA1;}
	.st164{fill:#FCE8CC;}
	.st165{fill:#F5DEB9;}
	.st166{fill:#CFAB81;}
	.st167{fill:#D5B387;}
	.st168{fill:#3A4274;}
	.st169{fill:#707EB7;}
	.st170{fill:#424B7E;}
	.st171{fill:#7C8AC4;}
	.st172{fill:#FFD98D;}
	.st173{fill:#8694D1;}
	.st174{fill:#9AA6D6;}
	.st175{fill:#ABB4DD;}
	.st176{fill:#FDECEF;}
	.st177{fill:#137FA0;}
	.st178{fill:#EB6B48;}
	.st179{fill:#F57552;}
	.st180{fill:#515E91;}
	.st181{fill:#5C699E;}
	.st182{fill:#6673AA;}
	.st183{fill:#504484;}
	.st184{fill:#FF5F7E;}
	.st185{fill:#EBCEEB;}
	.st186{fill:#E5BDE5;}
	.st187{fill:#E0ABDF;}
	.st188{fill:#D799D6;}
	.st189{fill:#3B8FA3;}
	.st190{fill:#348B99;}
	.st191{fill:#3AA176;}
	.st192{fill:#84ED82;}
	.st193{fill:#EFEAEA;}
	.st194{fill:#FF9A7E;}
	.st195{fill:#FCD2BE;}
	.st196{fill:#FCDDCF;}
	.st197{fill:#C683C8;}
	.st198{fill:#A55F49;}
	.st199{fill:#FEF5F7;}
</style>
<g>
	<path class="lemon_05" d="M15.5,26.5c-2.209,0-4-1.791-4-4c0-0.533,0.109-1.04,0.298-1.505l-1.418,0.956
		c-0.177,0.451-0.282,0.939-0.282,1.453c0,2.209,1.791,4,4,4c0.722,0,1.389-0.206,1.974-0.541l0.335-0.476
		C16.115,26.455,15.813,26.5,15.5,26.5z"/>
	<path class="lemon_03" d="M6.868,14.864L7.5,14.5c-0.638,0-1.242-0.131-1.803-0.349C6.269,14.897,6.868,14.864,6.868,14.864z"/>
	<path class="lemon_04" d="M11.842,20.966C11.727,20.974,11.617,21,11.5,21C9.015,21,7,18.985,7,16.5
		c0-0.712,0.18-1.376,0.474-1.974L7.5,14.5l-0.632,0.364C6.328,15.606,6,16.512,6,17.5c0,2.429,1.928,4.395,4.335,4.483
		L11.842,20.966z"/>
	<path class="lime_08" d="M19.456,22.063c-0.221-2-1.897-3.563-3.956-3.563l-3.702,2.495C11.609,21.46,11.5,21.967,11.5,22.5
		c0,2.209,1.791,4,4,4c0.313,0,0.615-0.045,0.908-0.113L19.456,22.063z"/>
	<path class="lime_06" d="M7.5,14.5l4.289-2.468c0.652-1.101,0.93-2.451,0.514-3.908c-0.513-1.797-2.03-3.206-3.869-3.539
		C5.262,4.01,2.5,6.433,2.5,9.5c0,0.638,0.131,1.242,0.349,1.803l-0.687,1.375c-0.096,0.192-0.059,0.425,0.094,0.577l1.49,1.49
		c0.152,0.152,0.385,0.19,0.577,0.094l1.375-0.687C6.258,14.369,6.862,14.5,7.5,14.5z"/>
	<circle class="lemon_03" cx="7.5" cy="9.5" r="3"/>
	<circle class="grey_17" cx="7.5" cy="9.5" r="2"/>
	<path class="lime_07" d="M11.5,21c0.117,0,0.227-0.026,0.342-0.034L15.5,18.5l0.016-0.008C15.816,17.889,16,17.219,16,16.5
		c0-2.385-1.861-4.317-4.207-4.47L7.5,14.5l-0.026,0.026C7.18,15.124,7,15.788,7,16.5C7,18.985,9.015,21,11.5,21z"/>
	<path class="lemon_04" d="M11.5,15c0.827,0,1.5,0.673,1.5,1.5c0,0.827-0.673,1.5-1.5,1.5S10,17.327,10,16.5
		C10,15.673,10.673,15,11.5,15 M11.5,14C10.119,14,9,15.119,9,16.5s1.119,2.5,2.5,2.5s2.5-1.119,2.5-2.5S12.881,14,11.5,14L11.5,14z
		"/>
	<path class="lime_09" d="M20.332,28.639l3.682-0.307c2.29-0.191,4.043-2.134,3.985-4.444C27.972,22.828,27.06,22,26,22
		l-6.544,0.063l-3.05,4.327C17.103,27.827,18.624,28.781,20.332,28.639z"/>
	<path class="tangerine_05" d="M2.5,9.5c0-0.597,0.108-1.169,0.3-1.7L2.586,7.586C2.211,7.211,2,6.702,2,6.172V5
		c0-0.552-0.448-1-1-1S0,4.448,0,5v1.343c0,1.061,0.421,2.078,1.172,2.828L2.66,10.66C2.567,10.286,2.5,9.903,2.5,9.5z"/>
	<g>
		<path class="lemon_06" d="M24.014,28.332l-3.682,0.307c-1.708,0.142-3.229-0.812-3.926-2.25l-0.315,0.447
			c0.502,1.624,2.057,2.774,3.848,2.641l3.472-0.299c2.395-0.206,4.251-2.082,4.518-4.413C27.59,26.672,26.007,28.166,24.014,28.332
			z"/>
		<path class="lemon_06" d="M27.973,24.245c0-0.038,0.01-0.074,0.009-0.112c0-0.002-0.001-0.005-0.001-0.007
			C27.98,24.166,27.975,24.205,27.973,24.245z"/>
	</g>
	<path class="lemon_06" d="M24,24c-0.552,0-1,0.448-1,1s0.448,1,1,1s1-0.448,1-1S24.552,24,24,24L24,24z"/>
	<path class="lemon_05" d="M15.5,21.5c0.551,0,1,0.449,1,1s-0.449,1-1,1s-1-0.449-1-1S14.949,21.5,15.5,21.5 M15.5,20.5
		c-1.105,0-2,0.895-2,2s0.895,2,2,2s2-0.895,2-2S16.605,20.5,15.5,20.5L15.5,20.5z"/>
	<path class="lemon_06" d="M20,24.5c0.276,0,0.5,0.224,0.5,0.5s-0.224,0.5-0.5,0.5s-0.5-0.224-0.5-0.5S19.724,24.5,20,24.5 M20,23.5
		c-0.828,0-1.5,0.672-1.5,1.5s0.672,1.5,1.5,1.5s1.5-0.672,1.5-1.5S20.828,23.5,20,23.5L20,23.5z"/>
	<path class="lemon_06" d="M31.373,16.198c-0.957-0.552-1.567,0.129-2.12,1.086c-0.361,0.625-1.115,2.389-1.284,3.723
		C27.432,21.024,27,21.459,27,22c0,0.552,0.448,1,1,1s1-0.448,1-1c0-0.158-0.044-0.302-0.109-0.435
		c1.076-0.809,2.239-2.36,2.602-2.989C32.045,17.62,32.329,16.75,31.373,16.198z"/>
	<circle class="tangerine_04" cx="2" cy="6" r="1"/>
</g>
</svg>
