<?xml version="1.0" encoding="utf-8"?>
<!-- Generator: Adobe Illustrator 20.1.0, SVG Export Plug-In . SVG Version: 6.00 Build 0)  -->
<!DOCTYPE svg PUBLIC "-//W3C//DTD SVG 1.1//EN" "http://www.w3.org/Graphics/SVG/1.1/DTD/svg11.dtd">
<svg version="1.1" id="icons" xmlns="http://www.w3.org/2000/svg" xmlns:xlink="http://www.w3.org/1999/xlink" x="0px" y="0px"
	 width="32px" height="32px" viewBox="0 0 32 32" style="enable-background:new 0 0 32 32;" xml:space="preserve">
<style type="text/css">
	.white{fill:#FFFFFF;}
	.grey_17{fill:#2B3332;}
	.lime_05{fill:#B1E346;}
	.lime_06{fill:#AADB3D;}
	.lime_07{fill:#A2D336;}
	.lime_08{fill:#9ACC2E;}
	.lime_09{fill:#93C427;}
	.st0{fill:#78DF7C;}
	.st1{fill:#54B668;}
	.st2{fill:#7A63AD;}
	.st3{fill:#866EBA;}
	.st4{fill:#D2E6F3;}
	.st5{fill:#C1DDEE;}
	.st6{fill:#E0C193;}
	.st7{fill:#DBBA8C;}
	.st8{fill:#7FB8E0;}
	.st9{fill:#8EC0E0;}
	.st10{fill:#71B1E1;}
	.st11{fill:#9FC9E4;}
	.st12{fill:#FFEAA7;}
	.st13{fill:#FFE28A;}
	.st14{fill:#FF6B8B;}
	.st15{fill:#F4A984;}
	.st16{fill:#EA9C7A;}
	.st17{fill:#FEF1C6;}
	.st18{fill:#E85160;}
	.st19{fill:#D84459;}
	.st20{fill:#F7F7F7;}
	.st21{fill:#E55D53;}
	.st22{fill:#FFD400;}
	.st23{fill:#FF8F00;}
	.st24{fill:#FF4A00;}
	.st25{fill:#F7D684;}
	.st26{fill:#FAE09F;}
	.st27{fill:#373F3F;}
	.st28{fill:#FDEBBB;}
	.st29{fill:#FFF3D9;}
	.st30{fill:#FFD96C;}
	.st31{fill:#F79654;}
	.st32{fill:#FFD04D;}
	.st33{fill:#FCA15E;}
	.st34{fill:#A9E260;}
	.st35{fill:#97DB4A;}
	.st36{fill:#FCD8DE;}
	.st37{fill:#CDA073;}
	.st38{fill:#C09265;}
	.st39{fill:#A7794C;}
	.st40{fill:#96643B;}
	.st41{fill:#845331;}
	.st42{fill:#B38658;}
	.st43{fill:#9E6E43;}
	.st44{fill:#8D5B36;}
	.st45{fill:#FBCFD6;}
	.st46{fill:#FAC4D1;}
	.st47{fill:#FAB8CD;}
	.st48{fill:#F9ADC8;}
	.st49{fill:#F8A1C4;}
	.st50{fill:#F297BE;}
	.st51{fill:#EA8BB4;}
	.st52{fill:#E8BA36;}
	.st53{fill:#E0B12E;}
	.st54{fill:#FFC172;}
	.st55{fill:#FFAD68;}
	.st56{fill:#FFB76D;}
	.st57{fill:#6E57A0;}
	.st58{fill:#675099;}
	.st59{fill:#F3586F;}
	.st60{fill:#604893;}
	.st61{fill:#CBEB6B;}
	.st62{fill:#4EAC5D;}
	.st63{fill:#BEE758;}
	.st64{fill:#6CD275;}
	.st65{fill:#48A353;}
	.st66{fill:#60C46F;}
	.st67{fill:#D9F07D;}
	.st68{fill:#E6F490;}
	.st69{fill:#4896C8;}
	.st70{fill:#4390BF;}
	.st71{fill:#5CA3D5;}
	.st72{fill:#529CCF;}
	.st73{fill:#F7C845;}
	.st74{fill:#ECCD50;}
	.st75{fill:#FF8D6E;}
	.st76{fill:#FF805D;}
	.st77{fill:#EDEEEE;}
	.st78{fill:#65A9DC;}
	.st79{fill:#8BC07A;}
	.st80{fill:#F0C13E;}
	.st81{fill:#9A3644;}
	.st82{fill:#8A323F;}
	.st83{fill:#945BA0;}
	.st84{fill:#A366AD;}
	.st85{fill:#B370B9;}
	.st86{fill:#C27BC6;}
	.st87{fill:#F6B392;}
	.st88{fill:#D285D2;}
	.st89{fill:#DBA728;}
	.st90{fill:#505957;}
	.st91{fill:#56C7CD;}
	.st92{fill:#434C4B;}
	.st93{fill:#687271;}
	.st94{fill:#5C6664;}
	.st95{fill:#51BAC5;}
	.st96{fill:#D64F45;}
	.st97{fill:#D1D4D4;}
	.st98{fill:#E3E5E5;}
	.st99{fill:#DADDDC;}
	.st100{fill:#845194;}
	.st101{fill:#5BD3D5;}
	.st102{fill:#46B080;}
	.st103{fill:#53BF8C;}
	.st104{fill:#6EDCA2;}
	.st105{fill:#7AEBAC;}
	.st106{fill:#60CD96;}
	.st107{fill:#E8803A;}
	.st108{fill:#0A6F8E;}
	.st109{fill:#0F769B;}
	.st110{fill:#EF8C48;}
	.st111{fill:#838C8A;}
	.st112{fill:#757F7E;}
	.st113{fill:#D1473D;}
	.st114{fill:#9179C6;}
	.st115{fill:#906DBB;}
	.st116{fill:#A78EDD;}
	.st117{fill:#9D85D3;}
	.st118{fill:#E2EFF7;}
	.st119{fill:#B0D3EA;}
	.st120{fill:#F7BC48;}
	.st121{fill:#FFC550;}
	.st122{fill:#FFCF6E;}
	.st123{fill:#4CAEBC;}
	.st124{fill:#47A1B4;}
	.st125{fill:#4295AC;}
	.st126{fill:#FDE2E6;}
	.st127{fill:#FFF5D8;}
	.st128{fill:#99533D;}
	.st129{fill:#914C39;}
	.st130{fill:#D4C9EF;}
	.st131{fill:#E3DBF4;}
	.st132{fill:#F1EDFA;}
	.st133{fill:#C6B7E9;}
	.st134{fill:#B8A5E4;}
	.st135{fill:#B1E346;}
	.st136{fill:#F0C877;}
	.st137{fill:#E8BA67;}
	.st138{fill:#DDAA5F;}
	.st139{fill:#D4994F;}
	.st140{fill:#C98B44;}
	.st141{fill:#BF7D3C;}
	.st142{fill:#909997;}
	.st143{fill:#724D31;}
	.st144{fill:#93C2CA;}
	.st145{fill:#99C7CE;}
	.st146{fill:#9FCCD3;}
	.st147{fill:#ACD7DD;}
	.st148{fill:#B9E2E7;}
	.st149{fill:#A5D1D8;}
	.st150{fill:#88B9C3;}
	.st151{fill:#7EB1BD;}
	.st152{fill:#C8CCCB;}
	.st153{fill:none;}
	.st154{fill:#4F4032;}
	.st155{fill:#604631;}
	.st156{fill:#F9BDA0;}
	.st157{fill:#E7685F;}
	.st158{fill:#C84054;}
	.st159{fill:#ABB2B1;}
	.st160{fill:#9DA5A4;}
	.st161{fill:#F74000;}
	.st162{fill:#F97C00;}
	.st163{fill:#F9C900;}
	.st164{fill:#EFD4A7;}
	.st165{fill:#EACEA1;}
	.st166{fill:#FCE8CC;}
	.st167{fill:#F5DEB9;}
	.st168{fill:#CFAB81;}
	.st169{fill:#D5B387;}
	.st170{fill:#3A4274;}
	.st171{fill:#707EB7;}
	.st172{fill:#424B7E;}
	.st173{fill:#7C8AC4;}
	.st174{fill:#FFD98D;}
	.st175{fill:#8694D1;}
	.st176{fill:#9AA6D6;}
	.st177{fill:#ABB4DD;}
	.st178{fill:#FDECEF;}
	.st179{fill:#137FA0;}
	.st180{fill:#EB6B48;}
	.st181{fill:#F57552;}
	.st182{fill:#515E91;}
	.st183{fill:#5C699E;}
	.st184{fill:#6673AA;}
	.st185{fill:#504484;}
	.st186{fill:#FF5F7E;}
	.st187{fill:#EBCEEB;}
	.st188{fill:#E5BDE5;}
	.st189{fill:#E0ABDF;}
	.st190{fill:#D799D6;}
	.st191{fill:#3B8FA3;}
	.st192{fill:#348B99;}
	.st193{fill:#3AA176;}
	.st194{fill:#84ED82;}
	.st195{fill:#EFEAEA;}
	.st196{fill:#FF9A7E;}
	.st197{fill:#FCD2BE;}
	.st198{fill:#FCDDCF;}
	.st199{fill:#C683C8;}
	.st200{fill:#A55F49;}
	.st201{fill:#FEF5F7;}
</style>
<g>
	<path class="st34" d="M30.587,27.334l-3.012,0.858V23.66l3.087,1.075c0.547,0.19,0.913,0.706,0.913,1.284v0.007
		C31.575,26.633,31.172,27.167,30.587,27.334z"/>
	<path class="st35" d="M27.575,28.192l-3.666,1.044c-0.111,0.032-0.223,0.054-0.334,0.084v-7.052l4,1.393V28.192z"/>
	<path class="lime_08" d="M23.575,29.319c-1.322,0.352-2.661,0.562-4,0.639V19.666c0.928,1.084,2.123,1.948,3.534,2.439l0.466,0.162
		V29.319z"/>
	<path class="lime_09" d="M1.336,12.691l2.111-8.97c0.079-0.338,0.328-0.61,0.657-0.72L5.55,2.519
		C6.103,2.335,6.695,2.66,6.837,3.225l0.738,2.952c1.055,4.218,5.184,6.858,9.401,6.127c0.311-0.054,0.599,0.169,0.599,0.485v1.528
		c0,2.014,0.75,3.888,2,5.348v10.292c-5.104,0.292-10.192-1.373-14.158-4.773l-0.002-0.002C1.827,22.108,0.254,17.29,1.336,12.691z"
		/>
	<path class="white" d="M5.161,11.586c-0.781,0.781-0.781,2.047,0,2.828c0.781,0.781,2.047,0.781,2.828,0
		c0.781-0.781-0.707-2.121-0.707-2.121S5.942,10.805,5.161,11.586z"/>
	<ellipse transform="matrix(0.7071 -0.7071 0.7071 0.7071 -7.2667 8.4567)" class="grey_17" cx="6.575" cy="13" rx="1" ry="1"/>
	<path class="lime_08" d="M5.417,25.185l-0.002-0.002C4.043,24.007,2.969,22.576,2.222,21h4.353c3,8,13,8.958,13,8.958
		C14.471,30.25,9.383,28.584,5.417,25.185z"/>
	<path class="lime_07" d="M4.575,17l1.707,1.707c0.188,0.188,0.293,0.442,0.293,0.707V21H2.222l0,0c-0.597-1.26-0.985-2.611-1.142-4
		H4.575z"/>
	<path class="lime_06" d="M1.336,12.691l0.885-3.763C2.222,14.857,4.575,17,4.575,17H1.08C0.92,15.582,0.999,14.126,1.336,12.691z"
		/>
	<path class="lime_05" d="M30.587,27.334l-3.012,0.858V23.66l3.087,1.075c0.547,0.19,0.913,0.706,0.913,1.284v0.007
		C31.575,26.633,31.172,27.167,30.587,27.334z"/>
	<path class="lime_07" d="M27.575,28.192l-3.666,1.044c-0.111,0.032-0.223,0.054-0.334,0.084v-7.052l4,1.393V28.192z"/>
	<path class="lime_07" d="M19.575,26v-6.334c0.928,1.084,2.123,1.948,3.534,2.439l0.466,0.162V26H19.575z"/>
	<polygon class="lime_06" points="23.575,26 23.575,22.267 27.575,23.66 27.575,26 	"/>
</g>
</svg>
