<?xml version="1.0" encoding="utf-8"?>
<!-- Generator: Adobe Illustrator 20.1.0, SVG Export Plug-In . SVG Version: 6.00 Build 0)  -->
<!DOCTYPE svg PUBLIC "-//W3C//DTD SVG 1.1//EN" "http://www.w3.org/Graphics/SVG/1.1/DTD/svg11.dtd">
<svg version="1.1" id="icons" xmlns="http://www.w3.org/2000/svg" xmlns:xlink="http://www.w3.org/1999/xlink" x="0px" y="0px"
	 width="32px" height="32px" viewBox="0 0 32 32" style="enable-background:new 0 0 32 32;" xml:space="preserve">
<style type="text/css">
	.white{fill:#FFFFFF;}
	.grey_01{fill:#F7F7F7;}
	.grey_16{fill:#373F3F;}
	.grey_17{fill:#2B3332;}
	.poppy_02{fill:#E55D53;}
	.poppy_03{fill:#D64F45;}
	.poppy_04{fill:#D1473D;}
	.salmon_05{fill:#F6B392;}
	.salmon_06{fill:#F4A984;}
	.salmon_07{fill:#EA9C7A;}
	.lemon_04{fill:#FFE28A;}
	.lemon_05{fill:#FFD96C;}
	.lemon_06{fill:#FFD04D;}
	.lemon_09{fill:#E8BA36;}
	.lemon_10{fill:#E0B12E;}
	.lemon_11{fill:#DBA728;}
	.st0{fill:#78DF7C;}
	.st1{fill:#54B668;}
	.st2{fill:#7A63AD;}
	.st3{fill:#866EBA;}
	.st4{fill:#D2E6F3;}
	.st5{fill:#C1DDEE;}
	.st6{fill:#E0C193;}
	.st7{fill:#DBBA8C;}
	.st8{fill:#7FB8E0;}
	.st9{fill:#8EC0E0;}
	.st10{fill:#71B1E1;}
	.st11{fill:#9FC9E4;}
	.st12{fill:#FFEAA7;}
	.st13{fill:#FF6B8B;}
	.st14{fill:#FEF1C6;}
	.st15{fill:#E85160;}
	.st16{fill:#D84459;}
	.st17{fill:#FFD400;}
	.st18{fill:#FF8F00;}
	.st19{fill:#FF4A00;}
	.st20{fill:#F7D684;}
	.st21{fill:#FAE09F;}
	.st22{fill:#FDEBBB;}
	.st23{fill:#FFF3D9;}
	.st24{fill:#9ACC2E;}
	.st25{fill:#AADB3D;}
	.st26{fill:#A2D336;}
	.st27{fill:#93C427;}
	.st28{fill:#F79654;}
	.st29{fill:#FCA15E;}
	.st30{fill:#A9E260;}
	.st31{fill:#97DB4A;}
	.st32{fill:#B1E346;}
	.st33{fill:#FCD8DE;}
	.st34{fill:#CDA073;}
	.st35{fill:#C09265;}
	.st36{fill:#A7794C;}
	.st37{fill:#96643B;}
	.st38{fill:#845331;}
	.st39{fill:#B38658;}
	.st40{fill:#9E6E43;}
	.st41{fill:#8D5B36;}
	.st42{fill:#FBCFD6;}
	.st43{fill:#FAC4D1;}
	.st44{fill:#FAB8CD;}
	.st45{fill:#F9ADC8;}
	.st46{fill:#F8A1C4;}
	.st47{fill:#F297BE;}
	.st48{fill:#EA8BB4;}
	.st49{fill:#FFC172;}
	.st50{fill:#FFAD68;}
	.st51{fill:#FFB76D;}
	.st52{fill:#6E57A0;}
	.st53{fill:#675099;}
	.st54{fill:#F3586F;}
	.st55{fill:#604893;}
	.st56{fill:#CBEB6B;}
	.st57{fill:#4EAC5D;}
	.st58{fill:#BEE758;}
	.st59{fill:#6CD275;}
	.st60{fill:#48A353;}
	.st61{fill:#60C46F;}
	.st62{fill:#D9F07D;}
	.st63{fill:#E6F490;}
	.st64{fill:#4896C8;}
	.st65{fill:#4390BF;}
	.st66{fill:#5CA3D5;}
	.st67{fill:#529CCF;}
	.st68{fill:#F7C845;}
	.st69{fill:#ECCD50;}
	.st70{fill:#FF8D6E;}
	.st71{fill:#FF805D;}
	.st72{fill:#EDEEEE;}
	.st73{fill:#65A9DC;}
	.st74{fill:#8BC07A;}
	.st75{fill:#F0C13E;}
	.st76{fill:#9A3644;}
	.st77{fill:#8A323F;}
	.st78{fill:#945BA0;}
	.st79{fill:#A366AD;}
	.st80{fill:#B370B9;}
	.st81{fill:#C27BC6;}
	.st82{fill:#D285D2;}
	.st83{fill:#505957;}
	.st84{fill:#56C7CD;}
	.st85{fill:#434C4B;}
	.st86{fill:#687271;}
	.st87{fill:#5C6664;}
	.st88{fill:#51BAC5;}
	.st89{fill:#D1D4D4;}
	.st90{fill:#E3E5E5;}
	.st91{fill:#DADDDC;}
	.st92{fill:#845194;}
	.st93{fill:#5BD3D5;}
	.st94{fill:#46B080;}
	.st95{fill:#53BF8C;}
	.st96{fill:#6EDCA2;}
	.st97{fill:#7AEBAC;}
	.st98{fill:#60CD96;}
	.st99{fill:#E8803A;}
	.st100{fill:#0A6F8E;}
	.st101{fill:#0F769B;}
	.st102{fill:#EF8C48;}
	.st103{fill:#838C8A;}
	.st104{fill:#757F7E;}
	.st105{fill:#FFE28A;}
	.st106{fill:#9179C6;}
	.st107{fill:#906DBB;}
	.st108{fill:#A78EDD;}
	.st109{fill:#9D85D3;}
	.st110{fill:#E2EFF7;}
	.st111{fill:#B0D3EA;}
	.st112{fill:#F7BC48;}
	.st113{fill:#FFC550;}
	.st114{fill:#FFCF6E;}
	.st115{fill:#4CAEBC;}
	.st116{fill:#47A1B4;}
	.st117{fill:#4295AC;}
	.st118{fill:#FDE2E6;}
	.st119{fill:#FFF5D8;}
	.st120{fill:#99533D;}
	.st121{fill:#914C39;}
	.st122{fill:#D4C9EF;}
	.st123{fill:#E3DBF4;}
	.st124{fill:#F1EDFA;}
	.st125{fill:#C6B7E9;}
	.st126{fill:#B8A5E4;}
	.st127{fill:#F0C877;}
	.st128{fill:#E8BA67;}
	.st129{fill:#DDAA5F;}
	.st130{fill:#D4994F;}
	.st131{fill:#C98B44;}
	.st132{fill:#BF7D3C;}
	.st133{fill:#909997;}
	.st134{fill:#724D31;}
	.st135{fill:#93C2CA;}
	.st136{fill:#99C7CE;}
	.st137{fill:#9FCCD3;}
	.st138{fill:#ACD7DD;}
	.st139{fill:#B9E2E7;}
	.st140{fill:#A5D1D8;}
	.st141{fill:#88B9C3;}
	.st142{fill:#7EB1BD;}
	.st143{fill:#C8CCCB;}
	.st144{fill:none;}
	.st145{fill:#4F4032;}
	.st146{fill:#604631;}
	.st147{fill:#F9BDA0;}
	.st148{fill:#E7685F;}
	.st149{fill:#C84054;}
	.st150{fill:#ABB2B1;}
	.st151{fill:#9DA5A4;}
	.st152{fill:#FFD96C;}
	.st153{fill:#FFD04D;}
	.st154{fill:#F74000;}
	.st155{fill:#F97C00;}
	.st156{fill:#F9C900;}
	.st157{fill:#EFD4A7;}
	.st158{fill:#EACEA1;}
	.st159{fill:#FCE8CC;}
	.st160{fill:#F5DEB9;}
	.st161{fill:#CFAB81;}
	.st162{fill:#D5B387;}
	.st163{fill:#3A4274;}
	.st164{fill:#707EB7;}
	.st165{fill:#424B7E;}
	.st166{fill:#7C8AC4;}
	.st167{fill:#FFD98D;}
	.st168{fill:#8694D1;}
	.st169{fill:#9AA6D6;}
	.st170{fill:#ABB4DD;}
	.st171{fill:#FDECEF;}
	.st172{fill:#137FA0;}
	.st173{fill:#EB6B48;}
	.st174{fill:#F57552;}
	.st175{fill:#515E91;}
	.st176{fill:#5C699E;}
	.st177{fill:#6673AA;}
	.st178{fill:#504484;}
	.st179{fill:#FF5F7E;}
	.st180{fill:#EBCEEB;}
	.st181{fill:#E5BDE5;}
	.st182{fill:#E0ABDF;}
	.st183{fill:#D799D6;}
	.st184{fill:#3B8FA3;}
	.st185{fill:#348B99;}
	.st186{fill:#F7F7F7;}
	.st187{fill:#3AA176;}
	.st188{fill:#84ED82;}
	.st189{fill:#EFEAEA;}
	.st190{fill:#FF9A7E;}
	.st191{fill:#FCD2BE;}
	.st192{fill:#FCDDCF;}
	.st193{fill:#E0B12E;}
	.st194{fill:#C683C8;}
	.st195{fill:#A55F49;}
	.st196{fill:#FEF5F7;}
</style>
<g>
	<path class="lemon_05" d="M9.952,13.555l-3.563,0.713c-0.949,0.19-1.852,0.561-2.66,1.094L0,17.823v8.472
		c0,0.211,0.245,0.327,0.408,0.194l0.444-0.363c0.095-0.078,0.158-0.188,0.177-0.309l0.47-2.993l0.415,1.962
		c0.039,0.183,0.258,0.26,0.403,0.142l0.535-0.438c0.095-0.078,0.158-0.188,0.177-0.309L3.5,21.19l0.414,1.959
		c0.039,0.183,0.258,0.26,0.403,0.142l0.535-0.438c0.095-0.078,0.158-0.188,0.177-0.309l0.47-2.991l0.415,1.96
		c0.039,0.183,0.258,0.26,0.403,0.142l0.538-0.44c0.095-0.078,0.158-0.188,0.177-0.309L7.5,17.933l0.412,1.946
		c0.039,0.183,0.258,0.26,0.403,0.142L11,17.823v-4.268H9.952z"/>
	<path class="lemon_06" d="M25.611,14.267l-3.563-0.713H21v4.268l2.686,2.197c0.145,0.119,0.364,0.042,0.403-0.142l0.412-1.946
		l0.467,2.971c0.019,0.121,0.082,0.232,0.177,0.309l0.538,0.44c0.145,0.119,0.364,0.042,0.403-0.142l0.415-1.96l0.47,2.991
		c0.019,0.121,0.082,0.232,0.177,0.309l0.535,0.438c0.145,0.119,0.364,0.042,0.403-0.142L28.5,21.19l0.47,2.989
		c0.019,0.121,0.082,0.232,0.177,0.309l0.535,0.438c0.145,0.119,0.364,0.042,0.403-0.142l0.415-1.962l0.47,2.993
		c0.019,0.121,0.082,0.232,0.177,0.309l0.444,0.363C31.755,26.622,32,26.506,32,26.295v-8.472l-3.729-2.461
		C27.463,14.829,26.56,14.457,25.611,14.267z"/>
	<path class="poppy_03" d="M15.992,22.823c-0.016,0-1.992,0-1.992,0v8l1.553,0.776c0.138,0.069,0.289,0.103,0.439,0.105V22.823z"/>
	<path class="poppy_04" d="M15.992,22.823v8.881c0.156,0.001,0.312-0.033,0.455-0.105L18,30.823v-8h-2H15.992z"/>
	<path class="lemon_10" d="M13,9.823l-6.881,2.58c-0.741,0.278-1.434,0.671-2.052,1.166l-3.692,2.953C0.138,16.712,0,17,0,17.304
		v0.519l3.728-2.461c0.808-0.533,1.711-0.905,2.66-1.095l3.563-0.713h3L13,9.823z"/>
	<path class="poppy_02" d="M10,21.823l-3.637,9.092c-0.151,0.379,0.19,0.77,0.586,0.671L10,30.823l2-8L10,21.823z"/>
	<path class="lemon_04" d="M12,22.823l-2,8l1.553,0.776c0.282,0.141,0.613,0.141,0.894,0L14,30.823v-8H12z"/>
	<path class="poppy_03" d="M22,21.823l3.637,9.092c0.151,0.379-0.19,0.77-0.586,0.671L22,30.823l-2-8L22,21.823z"/>
	<path class="lemon_05" d="M20,22.823l2,8l-1.553,0.776c-0.282,0.141-0.613,0.141-0.894,0L18,30.823v-8H20z"/>
	<path class="lemon_11" d="M19,9.823l6.881,2.58c0.741,0.278,1.434,0.671,2.052,1.166l3.692,2.953C31.862,16.712,32,17,32,17.304
		v0.519l-3.728-2.461c-0.808-0.533-1.711-0.905-2.66-1.095l-3.563-0.713h-3L19,9.823z"/>
	<path class="lemon_04" d="M16,9.823c-4.418,0-7,3.582-7,8s2.582,8,7,8V9.823z"/>
	<path class="lemon_05" d="M23,17.823c0-4.418-2.582-8-7-8v16C20.418,25.823,23,22.241,23,17.823z"/>
	<path class="lemon_09" d="M15.087,9.88c-0.152,0.018-0.299,0.044-0.446,0.071c-0.101,0.017-0.202,0.037-0.302,0.058
		c-2.007,0.461-3.503,1.766-4.395,3.546l6.048,2.268v-6C15.685,9.823,15.384,9.846,15.087,9.88z"/>
	<path class="lemon_10" d="M17.653,10.008c-0.1-0.021-0.2-0.04-0.302-0.058c-0.147-0.027-0.294-0.053-0.446-0.071
		C16.608,9.846,16.307,9.823,16,9.823v6l6.061-2.264C21.169,11.779,19.66,10.469,17.653,10.008z"/>
	<path class="lemon_04" d="M16,7.823h-1l-4.5-3l-0.372,1.116c-0.082,0.246-0.065,0.515,0.047,0.749l2.035,4.24L16,12.823V7.823z"/>
	<path class="lemon_05" d="M17,7.823h-1v5l3.796-1.898l2.029-4.237c0.112-0.234,0.129-0.502,0.047-0.748L21.5,4.823L17,7.823z"/>
	<path class="grey_16" d="M10.175,6.688c-0.112-0.234-0.129-0.503-0.047-0.749L10.5,4.823l3,2l1.5,1l-3.886,0.819L10.175,6.688z"/>
	<path class="grey_17" d="M21.825,6.688c0.112-0.234,0.129-0.503,0.047-0.749L21.5,4.823l-3,2l-1.5,1l3.886,0.819L21.825,6.688z"/>
	<path class="lemon_10" d="M21.921,6.334l-3.42,0.488l3-2l0.372,1.116C21.915,6.068,21.931,6.202,21.921,6.334z"/>
	<path class="white" d="M13.501,6.823L14,7.156v0.877L12.499,8.35l0,0C12.184,8.101,12,7.721,12,7.319v-0.71L13.501,6.823z"/>
	<path class="grey_16" d="M13.5,6.823v1.316l-0.095,0.02C12.938,8.257,12.5,7.902,12.5,7.425V6.68L13.5,6.823z"/>
	<path class="poppy_02" d="M16-0.07c-1.919,0-3.839,0.732-5.303,2.197L9.431,3.392c-0.223,0.223-0.186,0.595,0.076,0.77L15,7.823h1
		V-0.07z"/>
	<path class="poppy_03" d="M17,7.823l5.493-3.662c0.263-0.175,0.299-0.546,0.076-0.77l-1.265-1.265
		C19.839,0.662,17.919-0.07,16-0.07v7.893H17z"/>
	<path class="grey_01" d="M18.499,6.823L18,7.156v0.877l1.5,0.316v0C19.816,8.101,20,7.72,20,7.318v-0.71L18.499,6.823z"/>
	<path class="grey_17" d="M18.5,6.823v1.316l0.095,0.02C19.062,8.257,19.5,7.902,19.5,7.425V6.68L18.5,6.823z"/>
	<path class="salmon_05" d="M10.363,24.46L10.363,24.46c-0.239,0.239-0.419,0.53-0.525,0.85l-0.618,1.855
		c-0.108,0.324,0.133,0.658,0.474,0.658h0.039c0.167,0,0.323-0.084,0.416-0.223L11,26.323l0.474,1.186
		c0.076,0.19,0.26,0.314,0.464,0.314h0.301c0.215,0,0.406-0.138,0.474-0.342l0.386-1.158l0.754,1.257
		c0.09,0.151,0.253,0.243,0.429,0.243h0.023c0.341,0,0.582-0.334,0.474-0.658l-0.618-1.855c-0.107-0.32-0.287-0.611-0.525-0.85h0
		c-0.408-0.408-0.961-0.637-1.538-0.637h-0.198C11.324,23.823,10.771,24.052,10.363,24.46z"/>
	<path class="salmon_06" d="M18.363,24.46L18.363,24.46c-0.239,0.239-0.419,0.53-0.525,0.85l-0.618,1.855
		c-0.108,0.324,0.133,0.658,0.474,0.658h0.039c0.167,0,0.323-0.084,0.416-0.223L19,26.323l0.474,1.186
		c0.076,0.19,0.26,0.314,0.464,0.314h0.301c0.215,0,0.406-0.138,0.474-0.342l0.386-1.158l0.754,1.257
		c0.09,0.151,0.253,0.243,0.429,0.243h0.023c0.341,0,0.582-0.334,0.474-0.658l-0.618-1.855c-0.107-0.32-0.287-0.611-0.525-0.85h0
		c-0.408-0.408-0.961-0.637-1.538-0.637h-0.198C19.324,23.823,18.771,24.052,18.363,24.46z"/>
	<path class="salmon_06" d="M15.992,7.823H15L14.187,9.45c-0.108,0.216-0.046,0.479,0.147,0.624l1.366,1.025
		c0.087,0.065,0.189,0.097,0.292,0.099V7.823z"/>
	<path class="salmon_07" d="M17,7.823h-1h-0.008v3.374c0.108,0.002,0.217-0.03,0.308-0.099l1.366-1.025
		c0.193-0.145,0.255-0.407,0.147-0.624L17,7.823z"/>
	<path class="lemon_09" d="M10.08,6.333l3.42,0.49l-3-2l-0.372,1.116C10.085,6.068,10.069,6.2,10.08,6.333z"/>
</g>
</svg>
