<?xml version="1.0" encoding="utf-8"?>
<!-- Generator: Adobe Illustrator 20.1.0, SVG Export Plug-In . SVG Version: 6.00 Build 0)  -->
<!DOCTYPE svg PUBLIC "-//W3C//DTD SVG 1.1//EN" "http://www.w3.org/Graphics/SVG/1.1/DTD/svg11.dtd">
<svg version="1.1" id="icons" xmlns="http://www.w3.org/2000/svg" xmlns:xlink="http://www.w3.org/1999/xlink" x="0px" y="0px"
	 width="32px" height="32px" viewBox="0 0 32 32" style="enable-background:new 0 0 32 32;" xml:space="preserve">
<style type="text/css">
	.white{fill:#FFFFFF;}
	.grey_01{fill:#F7F7F7;}
	.cerulean_01{fill:#5BD3D5;}
	.cerulean_02{fill:#56C7CD;}
	.cerulean_03{fill:#51BAC5;}
	.periwinkle_01{fill:#E2EFF7;}
	.periwinkle_02{fill:#D2E6F3;}
	.periwinkle_03{fill:#C1DDEE;}
	.periwinkle_04{fill:#B0D3EA;}
	.periwinkle_05{fill:#9FC9E4;}
	.periwinkle_06{fill:#8EC0E0;}
	.periwinkle_07{fill:#7FB8E0;}
	.periwinkle_08{fill:#71B1E1;}
	.periwinkle_11{fill:#529CCF;}
	.periwinkle_12{fill:#4896C8;}
	.periwinkle_13{fill:#4390BF;}
	.tulip_05{fill:#E85160;}
	.tulip_06{fill:#D84459;}
	.st0{fill:#78DF7C;}
	.st1{fill:#54B668;}
	.st2{fill:#7A63AD;}
	.st3{fill:#866EBA;}
	.st4{fill:#E0C193;}
	.st5{fill:#DBBA8C;}
	.st6{fill:#FFEAA7;}
	.st7{fill:#FFE28A;}
	.st8{fill:#FF6B8B;}
	.st9{fill:#F4A984;}
	.st10{fill:#EA9C7A;}
	.st11{fill:#FEF1C6;}
	.st12{fill:#E55D53;}
	.st13{fill:#FFD400;}
	.st14{fill:#FF8F00;}
	.st15{fill:#FF4A00;}
	.st16{fill:#F7D684;}
	.st17{fill:#2B3332;}
	.st18{fill:#FAE09F;}
	.st19{fill:#373F3F;}
	.st20{fill:#FDEBBB;}
	.st21{fill:#FFF3D9;}
	.st22{fill:#FFD96C;}
	.st23{fill:#9ACC2E;}
	.st24{fill:#AADB3D;}
	.st25{fill:#A2D336;}
	.st26{fill:#93C427;}
	.st27{fill:#F79654;}
	.st28{fill:#FFD04D;}
	.st29{fill:#FCA15E;}
	.st30{fill:#A9E260;}
	.st31{fill:#97DB4A;}
	.st32{fill:#B1E346;}
	.st33{fill:#FCD8DE;}
	.st34{fill:#CDA073;}
	.st35{fill:#C09265;}
	.st36{fill:#A7794C;}
	.st37{fill:#96643B;}
	.st38{fill:#845331;}
	.st39{fill:#B38658;}
	.st40{fill:#9E6E43;}
	.st41{fill:#8D5B36;}
	.st42{fill:#FBCFD6;}
	.st43{fill:#FAC4D1;}
	.st44{fill:#FAB8CD;}
	.st45{fill:#F9ADC8;}
	.st46{fill:#F8A1C4;}
	.st47{fill:#F297BE;}
	.st48{fill:#EA8BB4;}
	.st49{fill:#E8BA36;}
	.st50{fill:#E0B12E;}
	.st51{fill:#FFC172;}
	.st52{fill:#FFAD68;}
	.st53{fill:#FFB76D;}
	.st54{fill:#6E57A0;}
	.st55{fill:#675099;}
	.st56{fill:#F3586F;}
	.st57{fill:#604893;}
	.st58{fill:#CBEB6B;}
	.st59{fill:#4EAC5D;}
	.st60{fill:#BEE758;}
	.st61{fill:#6CD275;}
	.st62{fill:#48A353;}
	.st63{fill:#60C46F;}
	.st64{fill:#D9F07D;}
	.st65{fill:#E6F490;}
	.st66{fill:#5CA3D5;}
	.st67{fill:#F7C845;}
	.st68{fill:#ECCD50;}
	.st69{fill:#FF8D6E;}
	.st70{fill:#FF805D;}
	.st71{fill:#EDEEEE;}
	.st72{fill:#65A9DC;}
	.st73{fill:#8BC07A;}
	.st74{fill:#F0C13E;}
	.st75{fill:#9A3644;}
	.st76{fill:#8A323F;}
	.st77{fill:#945BA0;}
	.st78{fill:#A366AD;}
	.st79{fill:#B370B9;}
	.st80{fill:#C27BC6;}
	.st81{fill:#F6B392;}
	.st82{fill:#D285D2;}
	.st83{fill:#DBA728;}
	.st84{fill:#505957;}
	.st85{fill:#434C4B;}
	.st86{fill:#687271;}
	.st87{fill:#5C6664;}
	.st88{fill:#D64F45;}
	.st89{fill:#D1D4D4;}
	.st90{fill:#E3E5E5;}
	.st91{fill:#DADDDC;}
	.st92{fill:#845194;}
	.st93{fill:#46B080;}
	.st94{fill:#53BF8C;}
	.st95{fill:#6EDCA2;}
	.st96{fill:#7AEBAC;}
	.st97{fill:#60CD96;}
	.st98{fill:#E8803A;}
	.st99{fill:#0A6F8E;}
	.st100{fill:#0F769B;}
	.st101{fill:#EF8C48;}
	.st102{fill:#838C8A;}
	.st103{fill:#757F7E;}
	.st104{fill:#D1473D;}
	.st105{fill:#56C7CD;}
	.st106{fill:#9179C6;}
	.st107{fill:#906DBB;}
	.st108{fill:#A78EDD;}
	.st109{fill:#9D85D3;}
	.st110{fill:#F7BC48;}
	.st111{fill:#FFC550;}
	.st112{fill:#FFCF6E;}
	.st113{fill:#4CAEBC;}
	.st114{fill:#47A1B4;}
	.st115{fill:#4295AC;}
	.st116{fill:#E85160;}
	.st117{fill:#D84459;}
	.st118{fill:#FDE2E6;}
	.st119{fill:#FFF5D8;}
	.st120{fill:#99533D;}
	.st121{fill:#914C39;}
	.st122{fill:#D4C9EF;}
	.st123{fill:#E3DBF4;}
	.st124{fill:#F1EDFA;}
	.st125{fill:#C6B7E9;}
	.st126{fill:#B8A5E4;}
	.st127{fill:#F0C877;}
	.st128{fill:#E8BA67;}
	.st129{fill:#DDAA5F;}
	.st130{fill:#D4994F;}
	.st131{fill:#C98B44;}
	.st132{fill:#BF7D3C;}
	.st133{fill:#909997;}
	.st134{fill:#724D31;}
	.st135{fill:#93C2CA;}
	.st136{fill:#99C7CE;}
	.st137{fill:#9FCCD3;}
	.st138{fill:#ACD7DD;}
	.st139{fill:#B9E2E7;}
	.st140{fill:#A5D1D8;}
	.st141{fill:#88B9C3;}
	.st142{fill:#7EB1BD;}
	.st143{fill:#C8CCCB;}
	.st144{fill:none;}
	.st145{fill:#4F4032;}
	.st146{fill:#604631;}
	.st147{fill:#F9BDA0;}
	.st148{fill:#E7685F;}
	.st149{fill:#C84054;}
	.st150{fill:#ABB2B1;}
	.st151{fill:#9DA5A4;}
	.st152{fill:#F74000;}
	.st153{fill:#F97C00;}
	.st154{fill:#F9C900;}
	.st155{fill:#B0D3EA;}
	.st156{fill:#EFD4A7;}
	.st157{fill:#EACEA1;}
	.st158{fill:#FCE8CC;}
	.st159{fill:#F5DEB9;}
	.st160{fill:#CFAB81;}
	.st161{fill:#D5B387;}
	.st162{fill:#3A4274;}
	.st163{fill:#707EB7;}
	.st164{fill:#424B7E;}
	.st165{fill:#7C8AC4;}
	.st166{fill:#FFD98D;}
	.st167{fill:#8694D1;}
	.st168{fill:#9AA6D6;}
	.st169{fill:#ABB4DD;}
	.st170{fill:#FDECEF;}
	.st171{fill:#137FA0;}
	.st172{fill:#EB6B48;}
	.st173{fill:#F57552;}
	.st174{fill:#515E91;}
	.st175{fill:#5C699E;}
	.st176{fill:#6673AA;}
	.st177{fill:#504484;}
	.st178{fill:#FF5F7E;}
	.st179{fill:#EBCEEB;}
	.st180{fill:#E5BDE5;}
	.st181{fill:#E0ABDF;}
	.st182{fill:#D799D6;}
	.st183{fill:#3B8FA3;}
	.st184{fill:#348B99;}
	.st185{fill:#F7F7F7;}
	.st186{fill:#3AA176;}
	.st187{fill:#84ED82;}
	.st188{fill:#EFEAEA;}
	.st189{fill:#FF9A7E;}
	.st190{fill:#FCD2BE;}
	.st191{fill:#FCDDCF;}
	.st192{fill:#C683C8;}
	.st193{fill:#A55F49;}
	.st194{fill:#FEF5F7;}
</style>
<g>
	<path class="periwinkle_08" d="M22,21c0,0,3,0,3,5s-3,6-3,6s-1.635,0-3,0s-1-11-1-11H22z"/>
	<path class="periwinkle_07" d="M10,21c0,0-3,0-3,5s3,6,3,6s1.635,0,3,0s1-11,1-11H10z"/>
	<path class="periwinkle_01" d="M16,16c-3.866,0-7,3.134-7,7c0,3.866,3.134,7,7,7V16z"/>
	<path class="periwinkle_02" d="M23,23c0-3.866-3.134-7-7-7v14C19.866,30,23,26.866,23,23z"/>
	<path class="periwinkle_02" d="M9.035,23.698C9.386,27.236,12.37,30,16,30v-3C13.192,27,10.686,25.713,9.035,23.698z"/>
	<path class="periwinkle_03" d="M16,27v3c3.63,0,6.614-2.764,6.965-6.302C21.314,25.713,18.808,27,16,27z"/>
	<path class="periwinkle_07" d="M23,14c0,0,4.932,2.816,3.235,10.996c-0.114,0.547-0.648,0.901-1.191,0.765l-2.496-0.624
		c-0.33-0.082-0.587-0.333-0.692-0.656C21.441,23.201,20.001,20,16,20v-6H23z"/>
	<path class="periwinkle_04" d="M31.666,0.639L31.247,0.22C31.106,0.079,30.916,0,30.717,0h-1.689c-1.477,0-2.705,0.34-3.73,0.871
		c0.015-0.029,0.029-0.056,0.044-0.082c0.099-0.18,0.072-0.403-0.073-0.548l-0.01-0.01c-0.144-0.144-0.367-0.177-0.545-0.077
		c-2.102,1.179-3.218,4.814-3.492,5.818C19.891,4.741,18.125,4,16,4v15c2,0,8-1.029,8-6c0-0.73-0.073-1.435-0.2-2.115
		c2.295-0.414,4.02-1.429,5.123-3.038c0.67-0.977,1.019-2.049,1.188-3.058c0.601-0.472,1.232-0.717,1.599-0.831
		c0.19-0.059,0.317-0.235,0.317-0.433V3.281c0-0.172-0.097-0.33-0.251-0.407L31.027,2.5c0.153-0.614,0.422-0.997,0.643-1.222
		C31.844,1.099,31.843,0.815,31.666,0.639z"/>
	<path class="periwinkle_06" d="M9,14c0,0-4.932,2.816-3.235,10.996c0.114,0.547,0.648,0.901,1.191,0.765l2.496-0.624
		c0.33-0.082,0.587-0.333,0.692-0.656C10.559,23.201,11.999,20,16,20v-6H9z"/>
	<path class="periwinkle_12" d="M22.057,6.854c0.184-0.857,1.429-5.585,6.531-5.843c0.254-0.013,0.481,0.164,0.523,0.415
		c0.27,1.621,0.766,7.368-5.516,8.484C23.265,8.764,22.747,7.728,22.057,6.854z"/>
	<path class="periwinkle_03" d="M10.801,5.953c-0.281-1.027-1.396-4.627-3.487-5.799c-0.178-0.1-0.401-0.067-0.545,0.077
		L6.761,0.239c-0.147,0.147-0.174,0.37-0.075,0.55C6.7,0.815,6.715,0.842,6.73,0.871C5.705,0.34,4.477,0,3,0H1.311
		c-0.199,0-0.39,0.079-0.53,0.22L0.361,0.639c-0.176,0.176-0.178,0.46-0.004,0.639C0.578,1.503,0.847,1.886,1,2.5L0.251,2.874
		C0.097,2.951,0,3.109,0,3.281v0.244C0,3.724,0.127,3.9,0.317,3.959c0.367,0.113,0.998,0.358,1.599,0.831
		C2.085,5.798,2.435,6.87,3.104,7.847c1.098,1.603,2.815,2.617,5.096,3.034C8.073,11.561,8,12.269,8,13c0,4.971,6,6,8,6V4
		C13.887,4,12.129,4.734,10.801,5.953z"/>
	<path class="periwinkle_04" d="M8.087,13.964C8.809,18.103,14.137,19,16,19v-4.207c-0.128,0-0.256-0.049-0.354-0.146l-0.793-0.793
		c-0.195-0.195-0.512-0.195-0.707,0L13.29,14.71c-0.169,0.169-0.433,0.195-0.631,0.062l-0.8-0.533
		C10.735,13.49,9.305,13.391,8.087,13.964z"/>
	<path class="periwinkle_05" d="M23.913,13.964c-1.218-0.573-2.649-0.473-3.772,0.276l-0.8,0.533
		c-0.198,0.132-0.462,0.106-0.631-0.062l-0.857-0.857c-0.195-0.195-0.512-0.195-0.707,0l-0.793,0.793
		c-0.098,0.098-0.226,0.146-0.354,0.146V19C17.863,19,23.191,18.103,23.913,13.964z"/>
	<g>
		<path class="white" d="M11.312,9.062c-0.739,0.674-1.232,1.612-1.303,2.672C9.999,11.877,10.121,12,10.265,12h3.215
			c0.21,0,0.326-0.242,0.195-0.406l-1.998-2.497C11.588,8.984,11.418,8.965,11.312,9.062z"/>
		<path class="tulip_05" d="M12.134,9.668C11.448,10.218,11,11.052,11,12h2.48c0.21,0,0.326-0.242,0.195-0.406L12.134,9.668z"/>
	</g>
	<g>
		<path class="grey_01" d="M20.697,9.062c0.739,0.674,1.232,1.612,1.303,2.672C22.009,11.877,21.887,12,21.743,12h-3.215
			c-0.21,0-0.326-0.242-0.195-0.406l1.998-2.497C20.421,8.984,20.591,8.965,20.697,9.062z"/>
		<path class="tulip_06" d="M19.874,9.668c0.686,0.55,1.134,1.385,1.134,2.332h-2.48c-0.21,0-0.326-0.242-0.195-0.406L19.874,9.668z
			"/>
	</g>
	<path class="periwinkle_11" d="M9.97,6.854C9.785,5.997,8.541,1.269,3.439,1.011C3.185,0.998,2.958,1.175,2.916,1.426
		C2.646,3.047,2.15,8.794,8.432,9.91C8.763,8.764,9.281,7.728,9.97,6.854z"/>
	<path class="white" d="M10.834,13.764c-0.55-0.165-1.128-0.205-1.695-0.117C9.339,14.528,9.715,16,10,16
		C10.272,16,10.629,14.653,10.834,13.764z"/>
	<path class="grey_01" d="M21.166,13.764C21.371,14.653,21.728,16,22,16c0.285,0,0.661-1.472,0.861-2.353
		C22.294,13.559,21.716,13.599,21.166,13.764z"/>
	<path class="periwinkle_13" d="M29.243,3.016c-0.006-0.666-0.075-1.227-0.134-1.587c-0.041-0.252-0.268-0.431-0.523-0.418
		c-5.1,0.259-6.344,4.986-6.529,5.843c0.278,0.353,0.521,0.739,0.742,1.141C23.366,6.332,25.01,3.158,29.243,3.016z"/>
	<path class="periwinkle_12" d="M9.228,7.995C9.449,7.592,9.692,7.207,9.97,6.854C9.785,5.997,8.541,1.27,3.441,1.011
		C3.186,0.998,2.959,1.177,2.918,1.429C2.86,1.789,2.791,2.35,2.784,3.016C7.017,3.158,8.661,6.332,9.228,7.995z"/>
	<path class="cerulean_01" d="M9.97,6.854C10,7,8,4,7,4S5,6,5,7c0,0.778,2.417,2.159,3.491,2.734
		C8.823,8.659,9.317,7.682,9.97,6.854z"/>
	<path class="cerulean_02" d="M22.058,6.854C22.028,7,24.028,4,25.028,4s2,2,2,3c0,0.778-2.417,2.159-3.491,2.734
		C23.204,8.659,22.711,7.682,22.058,6.854z"/>
	<path class="cerulean_03" d="M25.533,4.176C25.367,4.074,25.198,4,25.028,4c-1,0-3,3-2.97,2.854
		c0.278,0.353,0.522,0.738,0.742,1.141C23.157,6.946,23.94,5.29,25.533,4.176z"/>
	<path class="cerulean_02" d="M9.228,7.995c0.22-0.403,0.464-0.789,0.742-1.142C10,7,8,4,7,4C6.829,4,6.661,4.074,6.495,4.176
		C8.088,5.291,8.871,6.946,9.228,7.995z"/>
</g>
</svg>
