<?xml version="1.0" encoding="utf-8"?>
<!-- Generator: Adobe Illustrator 20.1.0, SVG Export Plug-In . SVG Version: 6.00 Build 0)  -->
<!DOCTYPE svg PUBLIC "-//W3C//DTD SVG 1.1//EN" "http://www.w3.org/Graphics/SVG/1.1/DTD/svg11.dtd">
<svg version="1.1" id="icons" xmlns="http://www.w3.org/2000/svg" xmlns:xlink="http://www.w3.org/1999/xlink" x="0px" y="0px"
	 width="32px" height="32px" viewBox="0 0 32 32" style="enable-background:new 0 0 32 32;" xml:space="preserve">
<style type="text/css">
	.white{fill:#FFFFFF;}
	.grey_15{fill:#434C4B;}
	.grey_16{fill:#373F3F;}
	.grey_17{fill:#2B3332;}
	.periwinkle_01{fill:#E2EFF7;}
	.periwinkle_02{fill:#D2E6F3;}
	.periwinkle_03{fill:#C1DDEE;}
	.periwinkle_04{fill:#B0D3EA;}
	.periwinkle_05{fill:#9FC9E4;}
	.periwinkle_06{fill:#8EC0E0;}
	.periwinkle_07{fill:#7FB8E0;}
	.periwinkle_08{fill:#71B1E1;}
	.periwinkle_11{fill:#529CCF;}
	.periwinkle_12{fill:#4896C8;}
	.periwinkle_13{fill:#4390BF;}
	.st0{fill:#78DF7C;}
	.st1{fill:#54B668;}
	.st2{fill:#7A63AD;}
	.st3{fill:#866EBA;}
	.st4{fill:#E0C193;}
	.st5{fill:#DBBA8C;}
	.st6{fill:#FFEAA7;}
	.st7{fill:#FFE28A;}
	.st8{fill:#FF6B8B;}
	.st9{fill:#F4A984;}
	.st10{fill:#EA9C7A;}
	.st11{fill:#FEF1C6;}
	.st12{fill:#E85160;}
	.st13{fill:#D84459;}
	.st14{fill:#F7F7F7;}
	.st15{fill:#E55D53;}
	.st16{fill:#FFD400;}
	.st17{fill:#FF8F00;}
	.st18{fill:#FF4A00;}
	.st19{fill:#F7D684;}
	.st20{fill:#FAE09F;}
	.st21{fill:#FDEBBB;}
	.st22{fill:#FFF3D9;}
	.st23{fill:#FFD96C;}
	.st24{fill:#9ACC2E;}
	.st25{fill:#AADB3D;}
	.st26{fill:#A2D336;}
	.st27{fill:#93C427;}
	.st28{fill:#F79654;}
	.st29{fill:#FFD04D;}
	.st30{fill:#FCA15E;}
	.st31{fill:#A9E260;}
	.st32{fill:#97DB4A;}
	.st33{fill:#B1E346;}
	.st34{fill:#FCD8DE;}
	.st35{fill:#CDA073;}
	.st36{fill:#C09265;}
	.st37{fill:#A7794C;}
	.st38{fill:#96643B;}
	.st39{fill:#845331;}
	.st40{fill:#B38658;}
	.st41{fill:#9E6E43;}
	.st42{fill:#8D5B36;}
	.st43{fill:#FBCFD6;}
	.st44{fill:#FAC4D1;}
	.st45{fill:#FAB8CD;}
	.st46{fill:#F9ADC8;}
	.st47{fill:#F8A1C4;}
	.st48{fill:#F297BE;}
	.st49{fill:#EA8BB4;}
	.st50{fill:#E8BA36;}
	.st51{fill:#E0B12E;}
	.st52{fill:#FFC172;}
	.st53{fill:#FFAD68;}
	.st54{fill:#FFB76D;}
	.st55{fill:#6E57A0;}
	.st56{fill:#675099;}
	.st57{fill:#F3586F;}
	.st58{fill:#604893;}
	.st59{fill:#CBEB6B;}
	.st60{fill:#4EAC5D;}
	.st61{fill:#BEE758;}
	.st62{fill:#6CD275;}
	.st63{fill:#48A353;}
	.st64{fill:#60C46F;}
	.st65{fill:#D9F07D;}
	.st66{fill:#E6F490;}
	.st67{fill:#5CA3D5;}
	.st68{fill:#F7C845;}
	.st69{fill:#ECCD50;}
	.st70{fill:#FF8D6E;}
	.st71{fill:#FF805D;}
	.st72{fill:#EDEEEE;}
	.st73{fill:#65A9DC;}
	.st74{fill:#8BC07A;}
	.st75{fill:#F0C13E;}
	.st76{fill:#9A3644;}
	.st77{fill:#8A323F;}
	.st78{fill:#945BA0;}
	.st79{fill:#A366AD;}
	.st80{fill:#B370B9;}
	.st81{fill:#C27BC6;}
	.st82{fill:#F6B392;}
	.st83{fill:#D285D2;}
	.st84{fill:#DBA728;}
	.st85{fill:#505957;}
	.st86{fill:#56C7CD;}
	.st87{fill:#687271;}
	.st88{fill:#5C6664;}
	.st89{fill:#51BAC5;}
	.st90{fill:#D64F45;}
	.st91{fill:#D1D4D4;}
	.st92{fill:#E3E5E5;}
	.st93{fill:#DADDDC;}
	.st94{fill:#845194;}
	.st95{fill:#5BD3D5;}
	.st96{fill:#46B080;}
	.st97{fill:#53BF8C;}
	.st98{fill:#6EDCA2;}
	.st99{fill:#7AEBAC;}
	.st100{fill:#60CD96;}
	.st101{fill:#E8803A;}
	.st102{fill:#0A6F8E;}
	.st103{fill:#0F769B;}
	.st104{fill:#EF8C48;}
	.st105{fill:#838C8A;}
	.st106{fill:#757F7E;}
	.st107{fill:#D1473D;}
	.st108{fill:#9179C6;}
	.st109{fill:#906DBB;}
	.st110{fill:#A78EDD;}
	.st111{fill:#9D85D3;}
	.st112{fill:#F7BC48;}
	.st113{fill:#FFC550;}
	.st114{fill:#FFCF6E;}
	.st115{fill:#4CAEBC;}
	.st116{fill:#47A1B4;}
	.st117{fill:#4295AC;}
	.st118{fill:#FDE2E6;}
	.st119{fill:#FFF5D8;}
	.st120{fill:#99533D;}
	.st121{fill:#914C39;}
	.st122{fill:#D4C9EF;}
	.st123{fill:#E3DBF4;}
	.st124{fill:#F1EDFA;}
	.st125{fill:#C6B7E9;}
	.st126{fill:#B8A5E4;}
	.st127{fill:#F0C877;}
	.st128{fill:#E8BA67;}
	.st129{fill:#DDAA5F;}
	.st130{fill:#D4994F;}
	.st131{fill:#C98B44;}
	.st132{fill:#BF7D3C;}
	.st133{fill:#909997;}
	.st134{fill:#724D31;}
	.st135{fill:#93C2CA;}
	.st136{fill:#99C7CE;}
	.st137{fill:#9FCCD3;}
	.st138{fill:#ACD7DD;}
	.st139{fill:#B9E2E7;}
	.st140{fill:#A5D1D8;}
	.st141{fill:#88B9C3;}
	.st142{fill:#7EB1BD;}
	.st143{fill:#C8CCCB;}
	.st144{fill:none;}
	.st145{fill:#4F4032;}
	.st146{fill:#604631;}
	.st147{fill:#F9BDA0;}
	.st148{fill:#E7685F;}
	.st149{fill:#C84054;}
	.st150{fill:#ABB2B1;}
	.st151{fill:#9DA5A4;}
	.st152{fill:#F74000;}
	.st153{fill:#F97C00;}
	.st154{fill:#F9C900;}
	.st155{fill:#B0D3EA;}
	.st156{fill:#EFD4A7;}
	.st157{fill:#EACEA1;}
	.st158{fill:#FCE8CC;}
	.st159{fill:#F5DEB9;}
	.st160{fill:#CFAB81;}
	.st161{fill:#D5B387;}
	.st162{fill:#3A4274;}
	.st163{fill:#707EB7;}
	.st164{fill:#424B7E;}
	.st165{fill:#7C8AC4;}
	.st166{fill:#FFD98D;}
	.st167{fill:#8694D1;}
	.st168{fill:#9AA6D6;}
	.st169{fill:#ABB4DD;}
	.st170{fill:#FDECEF;}
	.st171{fill:#137FA0;}
	.st172{fill:#EB6B48;}
	.st173{fill:#F57552;}
	.st174{fill:#515E91;}
	.st175{fill:#5C699E;}
	.st176{fill:#6673AA;}
	.st177{fill:#504484;}
	.st178{fill:#FF5F7E;}
	.st179{fill:#EBCEEB;}
	.st180{fill:#E5BDE5;}
	.st181{fill:#E0ABDF;}
	.st182{fill:#D799D6;}
	.st183{fill:#3B8FA3;}
	.st184{fill:#348B99;}
	.st185{fill:#3AA176;}
	.st186{fill:#84ED82;}
	.st187{fill:#EFEAEA;}
	.st188{fill:#FF9A7E;}
	.st189{fill:#FCD2BE;}
	.st190{fill:#FCDDCF;}
	.st191{fill:#C683C8;}
	.st192{fill:#A55F49;}
	.st193{fill:#FEF5F7;}
</style>
<g>
	<path class="periwinkle_08" d="M23.859,30.394C24.471,29.483,26,28.097,26,26c0-5-4-5-4-5h-4c0,0-0.365,11,1,11h5.392
		c0.366,0,0.612-0.383,0.454-0.713C24.646,30.867,24.271,30.585,23.859,30.394z"/>
	<path class="periwinkle_07" d="M8.097,30.394C7.484,29.483,5.956,28.097,5.956,26c0-5,4-5,4-5h4c0,0,0.365,11-1,11H7.563
		c-0.366,0-0.612-0.383-0.454-0.713C7.31,30.867,7.684,30.585,8.097,30.394z"/>
	<path class="periwinkle_07" d="M16,12c-4.971,0-8,4.029-8,9c0,4.971,3.029,9,8,9V12z"/>
	<path class="periwinkle_08" d="M24,21c0-4.971-3.029-9-8-9v18C20.971,30,24,25.971,24,21z"/>
	<path class="periwinkle_03" d="M8.034,21.883C8.372,26.439,11.328,30,16,30v-5C12.862,25,10.038,23.799,8.034,21.883z"/>
	<path class="periwinkle_04" d="M16,25v5c4.672,0,7.628-3.561,7.966-8.117C21.962,23.799,19.138,25,16,25z"/>
	<path class="periwinkle_04" d="M8.653,24.767C9.792,27.854,12.376,30,16,30v-2C13.091,28,10.48,26.75,8.653,24.767z"/>
	<path class="periwinkle_05" d="M16,28v2c3.624,0,6.208-2.146,7.347-5.233C21.52,26.75,18.909,28,16,28z"/>
	<path class="periwinkle_03" d="M17,20.522C17,21.466,18.343,22,20,22s3-0.831,3-2.464c0-1.633-1.625-2.853-3-2.464
		C18.625,17.462,17,18.889,17,20.522z"/>
	<path class="periwinkle_02" d="M15,20.522C15,21.466,13.657,22,12,22s-3-0.831-3-2.464c0-1.633,1.625-2.853,3-2.464
		C13.375,17.462,15,18.889,15,20.522z"/>
	<path class="periwinkle_06" d="M16,0.544c-0.172,0-0.344,0.087-0.439,0.261l-1.008,1.849c-1.205,0.256-2.238,0.833-3.078,1.647
		c-0.81-1.502-2.525-3.557-6.005-4.241C5.274,0.02,5.073,0.108,4.962,0.274L4.907,0.356C4.76,0.577,4.811,0.875,5.023,1.034
		L5.645,1.5c0,0-4.5,1.5-3.5,5.5c0.749,2.997,4.866,3.187,6.884,3.094C9.011,10.359,9,10.628,9,10.9c0,4.639,5.25,5.6,7,5.6V0.544z"
		/>
	<path class="periwinkle_07" d="M23,10.9c0-0.272-0.011-0.541-0.029-0.806c2.018,0.093,6.135-0.097,6.884-3.094c1-4-3.5-5.5-3.5-5.5
		l0.622-0.466c0.212-0.159,0.263-0.457,0.116-0.677l-0.055-0.082c-0.111-0.166-0.312-0.254-0.508-0.215
		c-3.48,0.684-5.195,2.739-6.005,4.241c-0.839-0.814-1.873-1.391-3.078-1.647l-1.008-1.849C16.344,0.631,16.172,0.544,16,0.544V16.5
		C17.75,16.5,23,15.539,23,10.9z"/>
	<path class="grey_16" d="M23.707,9.111c1.714,0,4.666-0.306,5.178-2.354c0.767-3.066-2.698-4.259-2.846-4.309l0,0
		c-1.249-0.416-2.66-0.128-3.564,0.83c-0.968,1.025-1.394,2.097-1.556,2.613l1.585,3.171C22.807,9.087,23.226,9.111,23.707,9.111
		L23.707,9.111z"/>
	<path class="periwinkle_12" d="M27.385,7.257c0.767-3.066-2.698-4.259-2.846-4.309c-0.468-0.156-0.959-0.213-1.437-0.173
		c0.86-0.537,1.948-0.657,2.937-0.327c0.148,0.049,3.613,1.242,2.846,4.309c-0.32,1.279-1.592,1.879-2.92,2.149
		C26.653,8.552,27.192,8.028,27.385,7.257z"/>
	<path class="periwinkle_13" d="M27.039,4.449c-0.115-0.039-0.233-0.065-0.351-0.091c-0.846-0.956-2.062-1.38-2.149-1.409
		c-0.468-0.156-0.959-0.213-1.437-0.173c0.86-0.537,1.948-0.657,2.937-0.327c0.128,0.043,2.751,0.949,2.942,3.191
		C28.156,4.837,27.118,4.475,27.039,4.449z"/>
	<path class="grey_17" d="M22.474,3.278c0.245-0.259,0.529-0.465,0.835-0.625c-0.07,0.041-0.142,0.082-0.208,0.123
		c0.478-0.04,0.969,0.017,1.437,0.173c0.086,0.029,1.303,0.453,2.149,1.409c-1.156-0.26-2.393,0.052-3.213,0.921
		c-0.968,1.025-1.394,2.096-1.556,2.613l-1-2C21.081,5.375,21.507,4.303,22.474,3.278z"/>
	<path class="grey_15" d="M8.293,9.111c-1.714,0-4.666-0.306-5.178-2.354C2.349,3.691,5.813,2.498,5.961,2.449l0,0
		c1.249-0.416,2.66-0.128,3.564,0.83c0.968,1.025,1.394,2.097,1.556,2.613L9.496,9.062C9.193,9.087,8.774,9.111,8.293,9.111
		L8.293,9.111z"/>
	<path class="periwinkle_11" d="M4.615,7.257C3.849,4.191,7.313,2.998,7.461,2.949C7.93,2.793,8.42,2.736,8.899,2.776
		c-0.86-0.537-1.948-0.657-2.937-0.327C5.813,2.498,2.349,3.691,3.115,6.757c0.32,1.279,1.592,1.879,2.92,2.149
		C5.347,8.552,4.808,8.028,4.615,7.257z"/>
	<path class="periwinkle_12" d="M4.961,4.449C5.077,4.41,5.195,4.384,5.312,4.358c0.846-0.956,2.062-1.38,2.149-1.409
		C7.93,2.793,8.42,2.736,8.899,2.776c-0.86-0.537-1.948-0.657-2.937-0.327C5.833,2.492,3.211,3.398,3.019,5.64
		C3.844,4.837,4.882,4.475,4.961,4.449z"/>
	<path class="grey_16" d="M9.526,3.278C9.281,3.019,8.997,2.813,8.691,2.653c0.07,0.041,0.142,0.082,0.208,0.123
		C8.42,2.736,7.93,2.793,7.461,2.949C7.375,2.978,6.158,3.401,5.312,4.358c1.156-0.26,2.393,0.052,3.213,0.921
		c0.968,1.025,1.394,2.096,1.556,2.613l1-2C10.919,5.375,10.493,4.303,9.526,3.278z"/>
	<path class="st14" d="M20.996,8.39c0.785,0.578,0.858,1.86,0.512,2.61l-3.5,0C18.008,10.25,19.484,8.718,20.996,8.39z"/>
	<path class="periwinkle_06" d="M10.379,14.345L9.068,15.14c-1.832,1.112-2.753,3.267-2.288,5.36l0.777,3.496
		c0.244,1.098,1.346,1.779,2.437,1.506l0.242-0.06c1.001-0.25,1.648-1.221,1.492-2.242L10.379,14.345z"/>
	<path class="periwinkle_07" d="M21.621,14.345l1.311,0.795c1.832,1.112,2.753,3.267,2.288,5.36l-0.777,3.496
		c-0.244,1.098-1.346,1.779-2.437,1.506l-0.242-0.06c-1.001-0.25-1.648-1.221-1.492-2.242L21.621,14.345z"/>
	<path class="periwinkle_02" d="M16,16.5V13c0.701,0,1.791,0.62,3,0.398c1.252-0.23,2.643-0.613,3.848-1.217
		C22.064,15.663,17.574,16.5,16,16.5z"/>
	<path class="periwinkle_01" d="M16,16.5V13c-0.701,0-1.791,0.62-3,0.398c-1.252-0.23-2.643-0.613-3.848-1.217
		C9.936,15.663,14.426,16.5,16,16.5z"/>
	<path class="white" d="M11.074,8.39c-0.785,0.578-0.858,1.86-0.512,2.61l3.5,0C14.062,10.25,12.587,8.718,11.074,8.39z"/>
	<path class="grey_17" d="M20.265,8.648c-1.222,0.56-2.256,1.724-2.256,2.352c1.035,0,2.5,0,2.5,0
		C20.809,10.347,20.792,9.292,20.265,8.648z"/>
	<path class="grey_16" d="M11.806,8.648c-0.527,0.644-0.545,1.699-0.244,2.352c0,0,1.465,0,2.5,0
		C14.062,10.373,13.028,9.208,11.806,8.648z"/>
	<path class="periwinkle_05" d="M16,2.401c-0.159,0-0.317,0.074-0.416,0.223L14,5c0,0,1,1,2,1V2.401z"/>
	<path class="periwinkle_06" d="M18,5l-1.584-2.376C16.317,2.476,16.159,2.401,16,2.401V6C17,6,18,5,18,5z"/>
</g>
</svg>
