<?xml version="1.0" encoding="utf-8"?>
<!-- Generator: Adobe Illustrator 20.1.0, SVG Export Plug-In . SVG Version: 6.00 Build 0)  -->
<!DOCTYPE svg PUBLIC "-//W3C//DTD SVG 1.1//EN" "http://www.w3.org/Graphics/SVG/1.1/DTD/svg11.dtd">
<svg version="1.1" id="icons" xmlns="http://www.w3.org/2000/svg" xmlns:xlink="http://www.w3.org/1999/xlink" x="0px" y="0px"
	 width="32px" height="32px" viewBox="0 0 32 32" style="enable-background:new 0 0 32 32;" xml:space="preserve">
<style type="text/css">
	.white{fill:#FFFFFF;}
	.grey_01{fill:#F7F7F7;}
	.grey_16{fill:#373F3F;}
	.grey_17{fill:#2B3332;}
	.rose_03{fill:#FDE2E6;}
	.rose_04{fill:#FCD8DE;}
	.rose_05{fill:#FBCFD6;}
	.rose_06{fill:#FAC4D1;}
	.rose_07{fill:#FAB8CD;}
	.rose_08{fill:#F9ADC8;}
	.rose_09{fill:#F8A1C4;}
	.dirt_15{fill:#96643B;}
	.dirt_16{fill:#8D5B36;}
	.st0{fill:#78DF7C;}
	.st1{fill:#54B668;}
	.st2{fill:#7A63AD;}
	.st3{fill:#866EBA;}
	.st4{fill:#D2E6F3;}
	.st5{fill:#C1DDEE;}
	.st6{fill:#E0C193;}
	.st7{fill:#DBBA8C;}
	.st8{fill:#7FB8E0;}
	.st9{fill:#8EC0E0;}
	.st10{fill:#71B1E1;}
	.st11{fill:#9FC9E4;}
	.st12{fill:#FFEAA7;}
	.st13{fill:#FFE28A;}
	.st14{fill:#FF6B8B;}
	.st15{fill:#F4A984;}
	.st16{fill:#EA9C7A;}
	.st17{fill:#FEF1C6;}
	.st18{fill:#E85160;}
	.st19{fill:#D84459;}
	.st20{fill:#E55D53;}
	.st21{fill:#FFD400;}
	.st22{fill:#FF8F00;}
	.st23{fill:#FF4A00;}
	.st24{fill:#F7D684;}
	.st25{fill:#FAE09F;}
	.st26{fill:#FDEBBB;}
	.st27{fill:#FFF3D9;}
	.st28{fill:#FFD96C;}
	.st29{fill:#9ACC2E;}
	.st30{fill:#AADB3D;}
	.st31{fill:#A2D336;}
	.st32{fill:#93C427;}
	.st33{fill:#F79654;}
	.st34{fill:#FFD04D;}
	.st35{fill:#FCA15E;}
	.st36{fill:#A9E260;}
	.st37{fill:#97DB4A;}
	.st38{fill:#B1E346;}
	.st39{fill:#CDA073;}
	.st40{fill:#C09265;}
	.st41{fill:#A7794C;}
	.st42{fill:#845331;}
	.st43{fill:#B38658;}
	.st44{fill:#9E6E43;}
	.st45{fill:#F297BE;}
	.st46{fill:#EA8BB4;}
	.st47{fill:#E8BA36;}
	.st48{fill:#E0B12E;}
	.st49{fill:#FFC172;}
	.st50{fill:#FFAD68;}
	.st51{fill:#FFB76D;}
	.st52{fill:#6E57A0;}
	.st53{fill:#675099;}
	.st54{fill:#F3586F;}
	.st55{fill:#604893;}
	.st56{fill:#CBEB6B;}
	.st57{fill:#4EAC5D;}
	.st58{fill:#BEE758;}
	.st59{fill:#6CD275;}
	.st60{fill:#48A353;}
	.st61{fill:#60C46F;}
	.st62{fill:#D9F07D;}
	.st63{fill:#E6F490;}
	.st64{fill:#4896C8;}
	.st65{fill:#4390BF;}
	.st66{fill:#5CA3D5;}
	.st67{fill:#529CCF;}
	.st68{fill:#F7C845;}
	.st69{fill:#ECCD50;}
	.st70{fill:#FF8D6E;}
	.st71{fill:#FF805D;}
	.st72{fill:#EDEEEE;}
	.st73{fill:#65A9DC;}
	.st74{fill:#FCD8DE;}
	.st75{fill:#FBCFD6;}
	.st76{fill:#8BC07A;}
	.st77{fill:#F0C13E;}
	.st78{fill:#9A3644;}
	.st79{fill:#8A323F;}
	.st80{fill:#945BA0;}
	.st81{fill:#A366AD;}
	.st82{fill:#B370B9;}
	.st83{fill:#C27BC6;}
	.st84{fill:#F6B392;}
	.st85{fill:#D285D2;}
	.st86{fill:#DBA728;}
	.st87{fill:#505957;}
	.st88{fill:#56C7CD;}
	.st89{fill:#434C4B;}
	.st90{fill:#687271;}
	.st91{fill:#5C6664;}
	.st92{fill:#51BAC5;}
	.st93{fill:#D64F45;}
	.st94{fill:#D1D4D4;}
	.st95{fill:#E3E5E5;}
	.st96{fill:#DADDDC;}
	.st97{fill:#845194;}
	.st98{fill:#5BD3D5;}
	.st99{fill:#46B080;}
	.st100{fill:#53BF8C;}
	.st101{fill:#6EDCA2;}
	.st102{fill:#7AEBAC;}
	.st103{fill:#60CD96;}
	.st104{fill:#E8803A;}
	.st105{fill:#0A6F8E;}
	.st106{fill:#0F769B;}
	.st107{fill:#EF8C48;}
	.st108{fill:#838C8A;}
	.st109{fill:#757F7E;}
	.st110{fill:#D1473D;}
	.st111{fill:#9179C6;}
	.st112{fill:#906DBB;}
	.st113{fill:#A78EDD;}
	.st114{fill:#9D85D3;}
	.st115{fill:#E2EFF7;}
	.st116{fill:#B0D3EA;}
	.st117{fill:#F7BC48;}
	.st118{fill:#FFC550;}
	.st119{fill:#FFCF6E;}
	.st120{fill:#4CAEBC;}
	.st121{fill:#47A1B4;}
	.st122{fill:#4295AC;}
	.st123{fill:#FFF5D8;}
	.st124{fill:#99533D;}
	.st125{fill:#914C39;}
	.st126{fill:#D4C9EF;}
	.st127{fill:#E3DBF4;}
	.st128{fill:#F1EDFA;}
	.st129{fill:#C6B7E9;}
	.st130{fill:#B8A5E4;}
	.st131{fill:#F0C877;}
	.st132{fill:#E8BA67;}
	.st133{fill:#DDAA5F;}
	.st134{fill:#D4994F;}
	.st135{fill:#C98B44;}
	.st136{fill:#BF7D3C;}
	.st137{fill:#909997;}
	.st138{fill:#724D31;}
	.st139{fill:#93C2CA;}
	.st140{fill:#99C7CE;}
	.st141{fill:#9FCCD3;}
	.st142{fill:#ACD7DD;}
	.st143{fill:#B9E2E7;}
	.st144{fill:#A5D1D8;}
	.st145{fill:#88B9C3;}
	.st146{fill:#7EB1BD;}
	.st147{fill:#C8CCCB;}
	.st148{fill:none;}
	.st149{fill:#4F4032;}
	.st150{fill:#604631;}
	.st151{fill:#F9BDA0;}
	.st152{fill:#E7685F;}
	.st153{fill:#C84054;}
	.st154{fill:#ABB2B1;}
	.st155{fill:#9DA5A4;}
	.st156{fill:#F74000;}
	.st157{fill:#F97C00;}
	.st158{fill:#F9C900;}
	.st159{fill:#EFD4A7;}
	.st160{fill:#EACEA1;}
	.st161{fill:#FCE8CC;}
	.st162{fill:#F5DEB9;}
	.st163{fill:#CFAB81;}
	.st164{fill:#D5B387;}
	.st165{fill:#3A4274;}
	.st166{fill:#707EB7;}
	.st167{fill:#424B7E;}
	.st168{fill:#7C8AC4;}
	.st169{fill:#FFD98D;}
	.st170{fill:#8694D1;}
	.st171{fill:#9AA6D6;}
	.st172{fill:#ABB4DD;}
	.st173{fill:#FDECEF;}
	.st174{fill:#137FA0;}
	.st175{fill:#EB6B48;}
	.st176{fill:#F57552;}
	.st177{fill:#515E91;}
	.st178{fill:#5C699E;}
	.st179{fill:#6673AA;}
	.st180{fill:#504484;}
	.st181{fill:#FF5F7E;}
	.st182{fill:#EBCEEB;}
	.st183{fill:#E5BDE5;}
	.st184{fill:#E0ABDF;}
	.st185{fill:#D799D6;}
	.st186{fill:#3B8FA3;}
	.st187{fill:#348B99;}
	.st188{fill:#F7F7F7;}
	.st189{fill:#3AA176;}
	.st190{fill:#84ED82;}
	.st191{fill:#EFEAEA;}
	.st192{fill:#FF9A7E;}
	.st193{fill:#FCD2BE;}
	.st194{fill:#FCDDCF;}
	.st195{fill:#C683C8;}
	.st196{fill:#A55F49;}
	.st197{fill:#FEF5F7;}
</style>
<g>
	<path class="rose_05" d="M16,1c-2.701,0-5.209,1.108-7.288,2.871c0,0-7.712-1.084-8.212-0.371s3.615,6.907,3.615,6.907
		C3.403,12.216,3,13.128,3,15c0,0,0.007,0.417,0.052,1.128l-2.18,1.635c-0.926,0.694-1.148,1.991-0.506,2.953l0.004,0.006
		c0.511,0.767,1.449,1.129,2.343,0.906l0.997-0.249c0.623,3.33,1.792,7.307,3.984,10.227c0.188,0.251,0.49,0.392,0.804,0.392H10
		h1.502c0.314,0,0.617-0.142,0.803-0.394c0.636-0.864,1.144-1.821,1.55-2.826C14.554,28.912,15.267,29,16,29V1z"/>
	<path class="rose_06" d="M31.132,17.766l-2.184-1.638C28.993,15.417,29,15,29,15c0-1.872-0.403-2.784-1.115-4.593
		c0,0,4.115-6.194,3.615-6.907c-0.5-0.713-8.212,0.371-8.212,0.371c-0.852-0.723-1.779-1.327-2.759-1.798C19.429,0.805,17.81,0,16,0
		v1v11v17c0.733,0,1.446-0.088,2.146-0.223c0.406,1.005,0.914,1.962,1.55,2.826c0.186,0.253,0.489,0.394,0.803,0.394H22h1.501
		c0.314,0,0.616-0.141,0.804-0.392c2.192-2.92,3.361-6.896,3.984-10.227l0.992,0.248c0.895,0.224,1.834-0.138,2.348-0.904
		l0.004-0.006C32.277,19.756,32.057,18.459,31.132,17.766z"/>
	<path class="rose_04" d="M11,5c0-2.761,2.239-5,5-5v10C13.239,10,11,7.761,11,5z"/>
	<path class="rose_03" d="M16,2c-1.657,0-3,1.343-3,3s1.343,3,3,3V2z"/>
	<path class="rose_05" d="M20,6c0-2.209-1.791-4-4-4v8C18.209,10,20,8.209,20,6z"/>
	<path class="rose_04" d="M16,8c1.105,0,2-0.895,2-2s-0.895-2-2-2V8z"/>
	<ellipse class="rose_08" cx="8.5" cy="16" rx="1.5" ry="1"/>
	<ellipse class="rose_09" cx="23.5" cy="16" rx="1.5" ry="1"/>
	<ellipse class="grey_16" cx="12" cy="13.5" rx="1" ry="1.5"/>
	<ellipse class="grey_17" cx="20" cy="13.5" rx="1" ry="1.5"/>
	<circle class="white" cx="12" cy="13" r="0.5"/>
	<circle class="grey_01" cx="20" cy="13" r="0.5"/>
	<path class="grey_16" d="M16,16.25c-0.3,0-0.477,0.126-0.632,0.237C15.187,16.616,15,16.75,14.5,16.75
		c-0.271,0-0.528-0.09-0.764-0.267c-0.109-0.082-0.267-0.06-0.35,0.05c-0.083,0.11-0.06,0.267,0.05,0.35
		c0.324,0.243,0.682,0.366,1.064,0.366c0.66,0,0.948-0.206,1.159-0.356c0.13-0.093,0.201-0.144,0.341-0.144V16.25z"/>
	<path class="grey_17" d="M16,16.25c0.3,0,0.477,0.126,0.632,0.237C16.813,16.616,17,16.75,17.5,16.75
		c0.271,0,0.528-0.09,0.764-0.267c0.109-0.082,0.267-0.06,0.35,0.05c0.083,0.11,0.06,0.267-0.05,0.35
		c-0.324,0.243-0.682,0.366-1.064,0.366c-0.66,0-0.948-0.206-1.159-0.356C16.211,16.801,16.14,16.75,16,16.75V16.25z"/>
	<g>
		<g>
			<path class="rose_06" d="M4.412,24.414c0.696,2.524,1.73,5.122,3.282,7.191c0.188,0.251,0.49,0.392,0.803,0.392H10h1.502
				c0.314,0,0.617-0.142,0.802-0.394c0.621-0.844,1.119-1.778,1.52-2.757C10.205,28.382,6.949,26.783,4.412,24.414z"/>
		</g>
		<g>
			<path class="rose_06" d="M4.412,24.414c0.696,2.524,1.73,5.122,3.282,7.191c0.188,0.251,0.49,0.392,0.803,0.392H10h1.502
				c0.314,0,0.617-0.142,0.802-0.394c0.621-0.844,1.119-1.778,1.52-2.757C10.205,28.382,6.949,26.783,4.412,24.414z"/>
		</g>
	</g>
	<g>
		<g>
			<path class="rose_07" d="M18.176,28.845c0.401,0.979,0.899,1.913,1.52,2.757c0.186,0.253,0.489,0.394,0.802,0.394H22h1.502
				c0.314,0,0.615-0.141,0.803-0.392c1.553-2.069,2.587-4.667,3.282-7.191C25.051,26.783,21.795,28.382,18.176,28.845z"/>
		</g>
		<g>
			<path class="rose_07" d="M18.176,28.845c0.401,0.979,0.899,1.913,1.52,2.757c0.186,0.253,0.489,0.394,0.802,0.394H22h1.502
				c0.314,0,0.615-0.141,0.803-0.392c1.553-2.069,2.587-4.667,3.282-7.191C25.051,26.783,21.795,28.382,18.176,28.845z"/>
		</g>
	</g>
	<path class="dirt_15" d="M0.5,3.5C0.163,3.981,1.923,6.952,3.107,8.838C5.075,8.166,6.5,6.321,6.5,4.125
		c0-0.184-0.035-0.358-0.054-0.536C4.128,3.327,0.822,3.041,0.5,3.5z"/>
	<path class="dirt_16" d="M25.554,3.589C25.535,3.767,25.5,3.941,25.5,4.125c0,2.196,1.425,4.041,3.393,4.713
		C30.077,6.952,31.837,3.981,31.5,3.5C31.178,3.041,27.872,3.327,25.554,3.589z"/>
</g>
</svg>
