<?xml version="1.0" encoding="utf-8"?>
<!-- Generator: Adobe Illustrator 20.1.0, SVG Export Plug-In . SVG Version: 6.00 Build 0)  -->
<!DOCTYPE svg PUBLIC "-//W3C//DTD SVG 1.1//EN" "http://www.w3.org/Graphics/SVG/1.1/DTD/svg11.dtd">
<svg version="1.1" id="icons" xmlns="http://www.w3.org/2000/svg" xmlns:xlink="http://www.w3.org/1999/xlink" x="0px" y="0px"
	 width="32px" height="32px" viewBox="0 0 32 32" style="enable-background:new 0 0 32 32;" xml:space="preserve">
<style type="text/css">
	.white{fill:#FFFFFF;}
	.grey_01{fill:#F7F7F7;}
	.lime_01{fill:#E6F490;}
	.lime_02{fill:#D9F07D;}
	.lime_03{fill:#CBEB6B;}
	.lime_04{fill:#BEE758;}
	.lime_05{fill:#B1E346;}
	.aloe_04{fill:#6CD275;}
	.aloe_05{fill:#60C46F;}
	.aloe_06{fill:#54B668;}
	.aloe_07{fill:#4EAC5D;}
	.aloe_08{fill:#48A353;}
	.periwinkle_10{fill:#5CA3D5;}
	.periwinkle_11{fill:#529CCF;}
	.periwinkle_12{fill:#4896C8;}
	.periwinkle_13{fill:#4390BF;}
	.tulip_05{fill:#E85160;}
	.tulip_06{fill:#D84459;}
	.st0{fill:#78DF7C;}
	.st1{fill:#7A63AD;}
	.st2{fill:#866EBA;}
	.st3{fill:#D2E6F3;}
	.st4{fill:#C1DDEE;}
	.st5{fill:#E0C193;}
	.st6{fill:#DBBA8C;}
	.st7{fill:#7FB8E0;}
	.st8{fill:#8EC0E0;}
	.st9{fill:#71B1E1;}
	.st10{fill:#9FC9E4;}
	.st11{fill:#FFEAA7;}
	.st12{fill:#FFE28A;}
	.st13{fill:#FF6B8B;}
	.st14{fill:#F4A984;}
	.st15{fill:#EA9C7A;}
	.st16{fill:#FEF1C6;}
	.st17{fill:#E55D53;}
	.st18{fill:#FFD400;}
	.st19{fill:#FF8F00;}
	.st20{fill:#FF4A00;}
	.st21{fill:#F7D684;}
	.st22{fill:#2B3332;}
	.st23{fill:#FAE09F;}
	.st24{fill:#373F3F;}
	.st25{fill:#FDEBBB;}
	.st26{fill:#FFF3D9;}
	.st27{fill:#FFD96C;}
	.st28{fill:#9ACC2E;}
	.st29{fill:#AADB3D;}
	.st30{fill:#A2D336;}
	.st31{fill:#93C427;}
	.st32{fill:#F79654;}
	.st33{fill:#FFD04D;}
	.st34{fill:#FCA15E;}
	.st35{fill:#A9E260;}
	.st36{fill:#97DB4A;}
	.st37{fill:#FCD8DE;}
	.st38{fill:#CDA073;}
	.st39{fill:#C09265;}
	.st40{fill:#A7794C;}
	.st41{fill:#96643B;}
	.st42{fill:#845331;}
	.st43{fill:#B38658;}
	.st44{fill:#9E6E43;}
	.st45{fill:#8D5B36;}
	.st46{fill:#FBCFD6;}
	.st47{fill:#FAC4D1;}
	.st48{fill:#FAB8CD;}
	.st49{fill:#F9ADC8;}
	.st50{fill:#F8A1C4;}
	.st51{fill:#F297BE;}
	.st52{fill:#EA8BB4;}
	.st53{fill:#E8BA36;}
	.st54{fill:#E0B12E;}
	.st55{fill:#FFC172;}
	.st56{fill:#FFAD68;}
	.st57{fill:#FFB76D;}
	.st58{fill:#6E57A0;}
	.st59{fill:#675099;}
	.st60{fill:#F3586F;}
	.st61{fill:#604893;}
	.st62{fill:#F7C845;}
	.st63{fill:#ECCD50;}
	.st64{fill:#FF8D6E;}
	.st65{fill:#FF805D;}
	.st66{fill:#EDEEEE;}
	.st67{fill:#65A9DC;}
	.st68{fill:#8BC07A;}
	.st69{fill:#F0C13E;}
	.st70{fill:#9A3644;}
	.st71{fill:#8A323F;}
	.st72{fill:#945BA0;}
	.st73{fill:#A366AD;}
	.st74{fill:#B370B9;}
	.st75{fill:#C27BC6;}
	.st76{fill:#F6B392;}
	.st77{fill:#D285D2;}
	.st78{fill:#DBA728;}
	.st79{fill:#505957;}
	.st80{fill:#56C7CD;}
	.st81{fill:#434C4B;}
	.st82{fill:#687271;}
	.st83{fill:#5C6664;}
	.st84{fill:#51BAC5;}
	.st85{fill:#D64F45;}
	.st86{fill:#D1D4D4;}
	.st87{fill:#E3E5E5;}
	.st88{fill:#DADDDC;}
	.st89{fill:#845194;}
	.st90{fill:#5BD3D5;}
	.st91{fill:#46B080;}
	.st92{fill:#53BF8C;}
	.st93{fill:#6EDCA2;}
	.st94{fill:#7AEBAC;}
	.st95{fill:#60CD96;}
	.st96{fill:#E8803A;}
	.st97{fill:#0A6F8E;}
	.st98{fill:#0F769B;}
	.st99{fill:#EF8C48;}
	.st100{fill:#838C8A;}
	.st101{fill:#757F7E;}
	.st102{fill:#D1473D;}
	.st103{fill:#9179C6;}
	.st104{fill:#906DBB;}
	.st105{fill:#A78EDD;}
	.st106{fill:#9D85D3;}
	.st107{fill:#E2EFF7;}
	.st108{fill:#B0D3EA;}
	.st109{fill:#F7BC48;}
	.st110{fill:#FFC550;}
	.st111{fill:#FFCF6E;}
	.st112{fill:#4CAEBC;}
	.st113{fill:#47A1B4;}
	.st114{fill:#4295AC;}
	.st115{fill:#E85160;}
	.st116{fill:#D84459;}
	.st117{fill:#FDE2E6;}
	.st118{fill:#FFF5D8;}
	.st119{fill:#99533D;}
	.st120{fill:#914C39;}
	.st121{fill:#D4C9EF;}
	.st122{fill:#E3DBF4;}
	.st123{fill:#F1EDFA;}
	.st124{fill:#C6B7E9;}
	.st125{fill:#B8A5E4;}
	.st126{fill:#B1E346;}
	.st127{fill:#F0C877;}
	.st128{fill:#E8BA67;}
	.st129{fill:#DDAA5F;}
	.st130{fill:#D4994F;}
	.st131{fill:#C98B44;}
	.st132{fill:#BF7D3C;}
	.st133{fill:#909997;}
	.st134{fill:#724D31;}
	.st135{fill:#93C2CA;}
	.st136{fill:#99C7CE;}
	.st137{fill:#9FCCD3;}
	.st138{fill:#ACD7DD;}
	.st139{fill:#B9E2E7;}
	.st140{fill:#A5D1D8;}
	.st141{fill:#88B9C3;}
	.st142{fill:#7EB1BD;}
	.st143{fill:#60C46F;}
	.st144{fill:#C8CCCB;}
	.st145{fill:none;}
	.st146{fill:#4F4032;}
	.st147{fill:#604631;}
	.st148{fill:#F9BDA0;}
	.st149{fill:#E7685F;}
	.st150{fill:#C84054;}
	.st151{fill:#ABB2B1;}
	.st152{fill:#9DA5A4;}
	.st153{fill:#F74000;}
	.st154{fill:#F97C00;}
	.st155{fill:#F9C900;}
	.st156{fill:#EFD4A7;}
	.st157{fill:#EACEA1;}
	.st158{fill:#FCE8CC;}
	.st159{fill:#F5DEB9;}
	.st160{fill:#CFAB81;}
	.st161{fill:#D5B387;}
	.st162{fill:#3A4274;}
	.st163{fill:#707EB7;}
	.st164{fill:#424B7E;}
	.st165{fill:#7C8AC4;}
	.st166{fill:#FFD98D;}
	.st167{fill:#8694D1;}
	.st168{fill:#9AA6D6;}
	.st169{fill:#ABB4DD;}
	.st170{fill:#FDECEF;}
	.st171{fill:#137FA0;}
	.st172{fill:#EB6B48;}
	.st173{fill:#F57552;}
	.st174{fill:#515E91;}
	.st175{fill:#5C699E;}
	.st176{fill:#6673AA;}
	.st177{fill:#504484;}
	.st178{fill:#FF5F7E;}
	.st179{fill:#EBCEEB;}
	.st180{fill:#E5BDE5;}
	.st181{fill:#E0ABDF;}
	.st182{fill:#D799D6;}
	.st183{fill:#3B8FA3;}
	.st184{fill:#348B99;}
	.st185{fill:#F7F7F7;}
	.st186{fill:#3AA176;}
	.st187{fill:#84ED82;}
	.st188{fill:#EFEAEA;}
	.st189{fill:#FF9A7E;}
	.st190{fill:#FCD2BE;}
	.st191{fill:#FCDDCF;}
	.st192{fill:#C683C8;}
	.st193{fill:#A55F49;}
	.st194{fill:#FEF5F7;}
</style>
<g>
	<path class="aloe_06" d="M13.029,10.775c-0.517-1.897-1.585-3.582-3.043-4.866C9.491,6.841,8.755,7.624,7.864,8.182L14,18h1
		L13.029,10.775z"/>
	<path class="lime_03" d="M9.987,5.909C9.58,5.55,9.147,5.217,8.682,4.926l-2.93-1.831C5.396,2.873,4.991,2.906,4.687,3.099
		l3.177,5.083C8.755,7.624,9.491,6.841,9.987,5.909z"/>
	<path class="aloe_07" d="M7.864,8.182C7.004,8.721,5.999,9.045,4.92,9.087c0.459,1.652,1.335,3.168,2.56,4.393L12,18h2L7.864,8.182
		z"/>
	<path class="lime_04" d="M7.864,8.182L4.687,3.099C4.385,3.29,4.182,3.639,4.228,4.053l0.384,3.46
		c0.059,0.535,0.165,1.06,0.307,1.573C5.999,9.045,7.004,8.721,7.864,8.182z"/>
	<path class="aloe_07" d="M26.248,3.095l-2.93,1.831c-2.133,1.333-3.686,3.422-4.348,5.849L17,18h1l9.313-14.901
		C27.009,2.906,26.604,2.873,26.248,3.095z"/>
	<path class="aloe_04" d="M10.05,14.05C8.737,12.737,6.957,12,5.101,12H1.943c-0.409,0-0.731,0.232-0.891,0.547L12.5,18.5L14,18
		L10.05,14.05z"/>
	<g>
		<g>
			<path class="aloe_08" d="M27.313,3.099L18,18h2l4.52-4.52c1.606-1.606,2.617-3.71,2.868-5.967l0.384-3.46
				C27.818,3.639,27.615,3.29,27.313,3.099z"/>
		</g>
		<g>
			<path class="aloe_08" d="M27.313,3.099L18,18h2l4.52-4.52c1.606-1.606,2.617-3.71,2.868-5.967l0.384-3.46
				C27.818,3.639,27.615,3.29,27.313,3.099z"/>
		</g>
	</g>
	<path class="aloe_05" d="M1.129,13.581l1.777,2.487C4.22,17.908,6.342,19,8.602,19H11l1.5-0.5L1.052,12.547
		C0.894,12.859,0.894,13.252,1.129,13.581z"/>
	<path class="aloe_05" d="M16,6v12h2l0-0.001c1.622-4.032,1.852-8.473,0.702-12.647C17.889,5.763,16.973,6,16,6z"/>
	<path class="lime_02" d="M18.457,4.472L17.225,0.69C17.091,0.279,16.707,0,16.274,0H16v6c0.973,0,1.889-0.237,2.702-0.648
		C18.621,5.058,18.552,4.762,18.457,4.472z"/>
	<path class="aloe_04" d="M14,17.999L14,18h2V6c-0.973,0-1.889-0.237-2.702-0.648C12.148,9.526,12.377,13.967,14,17.999z"/>
	<path class="lime_01" d="M15.726,0c-0.433,0-0.817,0.279-0.951,0.69l-1.232,3.781c-0.095,0.291-0.164,0.587-0.245,0.88
		C14.111,5.763,15.027,6,16,6V0H15.726z"/>
	<path class="lime_04" d="M22.013,5.909c0.407-0.359,0.839-0.692,1.305-0.983l2.93-1.831c0.356-0.222,0.761-0.189,1.065,0.004
		l-3.177,5.083C23.245,7.624,22.509,6.841,22.013,5.909z"/>
	<path class="lime_05" d="M24.136,8.182l3.177-5.083c0.302,0.192,0.505,0.541,0.459,0.955l-0.384,3.46
		c-0.059,0.535-0.165,1.06-0.307,1.573C26.001,9.045,24.996,8.721,24.136,8.182z"/>
	<path class="aloe_06" d="M26.531,14.844L19.5,18.5L21,19h2.398c1.917,0,3.729-0.792,5.039-2.153
		C27.625,16.372,26.967,15.68,26.531,14.844z"/>
	<path class="lime_03" d="M30.948,12.547l-4.417,2.297c0.436,0.836,1.094,1.528,1.905,2.003c0.234-0.244,0.458-0.499,0.658-0.779
		l1.777-2.487C31.106,13.252,31.106,12.859,30.948,12.547z"/>
	<path class="aloe_05" d="M25.948,12.547c0-0.165,0.033-0.321,0.049-0.481c-1.523,0.198-2.949,0.887-4.046,1.984L18,18l1.5,0.5
		l7.031-3.656C26.171,14.153,25.948,13.38,25.948,12.547z"/>
	<path class="lime_02" d="M30.057,12h-3.157c-0.304,0-0.605,0.027-0.903,0.066c-0.016,0.161-0.049,0.316-0.049,0.481
		c0,0.833,0.223,1.606,0.583,2.297l4.417-2.297C30.788,12.232,30.465,12,30.057,12z"/>
	<path class="lime_02" d="M1.052,12.547l4.417,2.297c-0.436,0.836-1.094,1.528-1.905,2.003c-0.234-0.244-0.458-0.499-0.658-0.779
		l-1.777-2.487C0.894,13.252,0.894,12.859,1.052,12.547z"/>
	<path class="lime_01" d="M1.943,12h3.157c0.304,0,0.605,0.027,0.903,0.066c0.016,0.161,0.049,0.316,0.049,0.481
		c0,0.833-0.223,1.606-0.583,2.297l-4.417-2.297C1.212,12.232,1.535,12,1.943,12z"/>
	<rect x="12" y="27" class="periwinkle_12" width="2" height="4"/>
	<rect x="18" y="27" class="periwinkle_13" width="2" height="4"/>
	<path class="periwinkle_10" d="M16,17c-3.866,0-7,3.07-7,6.857c0,0.198,0.013,0.386,0.03,0.572C9.335,27.779,12.337,29,16,29V17z"
		/>
	<path class="periwinkle_11" d="M22.97,24.429c0.017-0.185,0.03-0.373,0.03-0.572C23,20.07,19.866,17,16,17v12
		C19.663,29,22.665,27.779,22.97,24.429z"/>
	<path class="periwinkle_12" d="M22.97,24.429C21.598,26.27,18.993,27,16,27v2C19.663,29,22.665,27.779,22.97,24.429z"/>
	<path class="periwinkle_11" d="M16,27c-2.993,0-5.598-0.73-6.97-2.571C9.335,27.779,12.337,29,16,29V27z"/>
	<circle class="tulip_05" cx="13" cy="23" r="1"/>
	<circle class="tulip_06" cx="19" cy="23" r="1"/>
	<path class="periwinkle_11" d="M15,30.5c0,1.105-0.895,1.5-2,1.5s-2-0.395-2-1.5s0.895-1.5,2-1.5S15,29.395,15,30.5z"/>
	<path class="periwinkle_12" d="M21,30.5c0,1.105-0.895,1.5-2,1.5s-2-0.395-2-1.5s0.895-1.5,2-1.5S21,29.395,21,30.5z"/>
	<circle class="white" cx="13" cy="23" r="0.5"/>
	<circle class="grey_01" cx="19" cy="23" r="0.5"/>
</g>
</svg>
