<?xml version="1.0" encoding="utf-8"?>
<!-- Generator: Adobe Illustrator 20.1.0, SVG Export Plug-In . SVG Version: 6.00 Build 0)  -->
<!DOCTYPE svg PUBLIC "-//W3C//DTD SVG 1.1//EN" "http://www.w3.org/Graphics/SVG/1.1/DTD/svg11.dtd">
<svg version="1.1" id="icons" xmlns="http://www.w3.org/2000/svg" xmlns:xlink="http://www.w3.org/1999/xlink" x="0px" y="0px"
	 width="32px" height="32px" viewBox="0 0 32 32" style="enable-background:new 0 0 32 32;" xml:space="preserve">
<style type="text/css">
	.white{fill:#FFFFFF;}
	.grey_01{fill:#F7F7F7;}
	.orchid_11{fill:#6E57A0;}
	.orchid_12{fill:#675099;}
	.orchid_13{fill:#604893;}
	.rose_04{fill:#FCD8DE;}
	.rose_05{fill:#FBCFD6;}
	.rose_06{fill:#FAC4D1;}
	.rose_09{fill:#F8A1C4;}
	.rose_10{fill:#F297BE;}
	.tulip_04{fill:#F3586F;}
	.tulip_05{fill:#E85160;}
	.st0{fill:#78DF7C;}
	.st1{fill:#54B668;}
	.st2{fill:#7A63AD;}
	.st3{fill:#866EBA;}
	.st4{fill:#D2E6F3;}
	.st5{fill:#C1DDEE;}
	.st6{fill:#E0C193;}
	.st7{fill:#DBBA8C;}
	.st8{fill:#7FB8E0;}
	.st9{fill:#8EC0E0;}
	.st10{fill:#71B1E1;}
	.st11{fill:#9FC9E4;}
	.st12{fill:#FFEAA7;}
	.st13{fill:#FFE28A;}
	.st14{fill:#FF6B8B;}
	.st15{fill:#F4A984;}
	.st16{fill:#EA9C7A;}
	.st17{fill:#FEF1C6;}
	.st18{fill:#D84459;}
	.st19{fill:#E55D53;}
	.st20{fill:#FFD400;}
	.st21{fill:#FF8F00;}
	.st22{fill:#FF4A00;}
	.st23{fill:#F7D684;}
	.st24{fill:#2B3332;}
	.st25{fill:#FAE09F;}
	.st26{fill:#373F3F;}
	.st27{fill:#FDEBBB;}
	.st28{fill:#FFF3D9;}
	.st29{fill:#FFD96C;}
	.st30{fill:#9ACC2E;}
	.st31{fill:#AADB3D;}
	.st32{fill:#A2D336;}
	.st33{fill:#93C427;}
	.st34{fill:#F79654;}
	.st35{fill:#FFD04D;}
	.st36{fill:#FCA15E;}
	.st37{fill:#A9E260;}
	.st38{fill:#97DB4A;}
	.st39{fill:#B1E346;}
	.st40{fill:#CDA073;}
	.st41{fill:#C09265;}
	.st42{fill:#A7794C;}
	.st43{fill:#96643B;}
	.st44{fill:#845331;}
	.st45{fill:#B38658;}
	.st46{fill:#9E6E43;}
	.st47{fill:#8D5B36;}
	.st48{fill:#FAB8CD;}
	.st49{fill:#F9ADC8;}
	.st50{fill:#EA8BB4;}
	.st51{fill:#E8BA36;}
	.st52{fill:#E0B12E;}
	.st53{fill:#FFC172;}
	.st54{fill:#FFAD68;}
	.st55{fill:#FFB76D;}
	.st56{fill:#CBEB6B;}
	.st57{fill:#4EAC5D;}
	.st58{fill:#BEE758;}
	.st59{fill:#6CD275;}
	.st60{fill:#48A353;}
	.st61{fill:#60C46F;}
	.st62{fill:#D9F07D;}
	.st63{fill:#E6F490;}
	.st64{fill:#4896C8;}
	.st65{fill:#4390BF;}
	.st66{fill:#5CA3D5;}
	.st67{fill:#529CCF;}
	.st68{fill:#F7C845;}
	.st69{fill:#ECCD50;}
	.st70{fill:#FF8D6E;}
	.st71{fill:#FF805D;}
	.st72{fill:#EDEEEE;}
	.st73{fill:#65A9DC;}
	.st74{fill:#FCD8DE;}
	.st75{fill:#FBCFD6;}
	.st76{fill:#8BC07A;}
	.st77{fill:#F0C13E;}
	.st78{fill:#9A3644;}
	.st79{fill:#8A323F;}
	.st80{fill:#945BA0;}
	.st81{fill:#A366AD;}
	.st82{fill:#B370B9;}
	.st83{fill:#C27BC6;}
	.st84{fill:#F6B392;}
	.st85{fill:#D285D2;}
	.st86{fill:#DBA728;}
	.st87{fill:#505957;}
	.st88{fill:#56C7CD;}
	.st89{fill:#434C4B;}
	.st90{fill:#687271;}
	.st91{fill:#5C6664;}
	.st92{fill:#51BAC5;}
	.st93{fill:#D64F45;}
	.st94{fill:#D1D4D4;}
	.st95{fill:#E3E5E5;}
	.st96{fill:#DADDDC;}
	.st97{fill:#845194;}
	.st98{fill:#5BD3D5;}
	.st99{fill:#46B080;}
	.st100{fill:#53BF8C;}
	.st101{fill:#6EDCA2;}
	.st102{fill:#7AEBAC;}
	.st103{fill:#60CD96;}
	.st104{fill:#E8803A;}
	.st105{fill:#0A6F8E;}
	.st106{fill:#0F769B;}
	.st107{fill:#EF8C48;}
	.st108{fill:#838C8A;}
	.st109{fill:#757F7E;}
	.st110{fill:#D1473D;}
	.st111{fill:#9179C6;}
	.st112{fill:#906DBB;}
	.st113{fill:#A78EDD;}
	.st114{fill:#9D85D3;}
	.st115{fill:#E2EFF7;}
	.st116{fill:#B0D3EA;}
	.st117{fill:#F7BC48;}
	.st118{fill:#FFC550;}
	.st119{fill:#FFCF6E;}
	.st120{fill:#4CAEBC;}
	.st121{fill:#47A1B4;}
	.st122{fill:#4295AC;}
	.st123{fill:#E85160;}
	.st124{fill:#FDE2E6;}
	.st125{fill:#FFF5D8;}
	.st126{fill:#99533D;}
	.st127{fill:#914C39;}
	.st128{fill:#D4C9EF;}
	.st129{fill:#E3DBF4;}
	.st130{fill:#F1EDFA;}
	.st131{fill:#C6B7E9;}
	.st132{fill:#B8A5E4;}
	.st133{fill:#F0C877;}
	.st134{fill:#E8BA67;}
	.st135{fill:#DDAA5F;}
	.st136{fill:#D4994F;}
	.st137{fill:#C98B44;}
	.st138{fill:#BF7D3C;}
	.st139{fill:#909997;}
	.st140{fill:#724D31;}
	.st141{fill:#93C2CA;}
	.st142{fill:#99C7CE;}
	.st143{fill:#9FCCD3;}
	.st144{fill:#ACD7DD;}
	.st145{fill:#B9E2E7;}
	.st146{fill:#A5D1D8;}
	.st147{fill:#88B9C3;}
	.st148{fill:#7EB1BD;}
	.st149{fill:#F297BE;}
	.st150{fill:#C8CCCB;}
	.st151{fill:none;}
	.st152{fill:#4F4032;}
	.st153{fill:#604631;}
	.st154{fill:#F9BDA0;}
	.st155{fill:#6E57A0;}
	.st156{fill:#E7685F;}
	.st157{fill:#C84054;}
	.st158{fill:#ABB2B1;}
	.st159{fill:#9DA5A4;}
	.st160{fill:#F74000;}
	.st161{fill:#F97C00;}
	.st162{fill:#F9C900;}
	.st163{fill:#EFD4A7;}
	.st164{fill:#EACEA1;}
	.st165{fill:#FCE8CC;}
	.st166{fill:#F5DEB9;}
	.st167{fill:#CFAB81;}
	.st168{fill:#D5B387;}
	.st169{fill:#3A4274;}
	.st170{fill:#707EB7;}
	.st171{fill:#424B7E;}
	.st172{fill:#7C8AC4;}
	.st173{fill:#FFD98D;}
	.st174{fill:#8694D1;}
	.st175{fill:#9AA6D6;}
	.st176{fill:#ABB4DD;}
	.st177{fill:#FDECEF;}
	.st178{fill:#137FA0;}
	.st179{fill:#EB6B48;}
	.st180{fill:#F57552;}
	.st181{fill:#515E91;}
	.st182{fill:#5C699E;}
	.st183{fill:#6673AA;}
	.st184{fill:#504484;}
	.st185{fill:#FF5F7E;}
	.st186{fill:#EBCEEB;}
	.st187{fill:#E5BDE5;}
	.st188{fill:#E0ABDF;}
	.st189{fill:#D799D6;}
	.st190{fill:#3B8FA3;}
	.st191{fill:#348B99;}
	.st192{fill:#F7F7F7;}
	.st193{fill:#3AA176;}
	.st194{fill:#84ED82;}
	.st195{fill:#EFEAEA;}
	.st196{fill:#FF9A7E;}
	.st197{fill:#FCD2BE;}
	.st198{fill:#FCDDCF;}
	.st199{fill:#C683C8;}
	.st200{fill:#A55F49;}
	.st201{fill:#FEF5F7;}
</style>
<g>
	<path class="rose_06" d="M24.428,31.429c-1.3,1.299-3.3,0.229-5.193-1.664c-1.893-1.894-2.963-3.894-1.663-5.193
		c1.3-1.299,3.3-0.229,5.193,1.664C24.658,28.129,25.728,30.129,24.428,31.429z"/>
	<path class="rose_05" d="M14.428,24.572c1.3,1.299,0.23,3.299-1.663,5.193c-1.893,1.894-3.893,2.963-5.193,1.664
		s-0.23-3.299,1.663-5.193C11.128,24.342,13.128,23.272,14.428,24.572z"/>
	<path class="orchid_11" d="M16,5l-2.223-1.482C13.445,3.297,13,3.535,13,3.934V5L9.857,5.786C9.48,5.88,9.35,6.35,9.624,6.624L10,7
		L5.704,8.718C5.371,8.852,5.282,9.282,5.536,9.536L6,10l-2.74,3.653c-0.149,0.199-0.13,0.478,0.046,0.654L4,15l-0.903,3.611
		c-0.057,0.227,0.052,0.464,0.261,0.568L5,20v3.5C5,23.776,5.224,24,5.5,24H7l0.886,2.658C7.954,26.862,8.145,27,8.36,27H10
		l0.776,1.553C10.9,28.8,11.2,28.9,11.447,28.776L13,28l2.842,0.947c0.051,0.017,0.105,0.026,0.158,0.026V5z"/>
	<path class="orchid_12" d="M16.158,28.947L19,28l1.553,0.776C20.8,28.9,21.1,28.8,21.224,28.553L22,27h1.64
		c0.215,0,0.406-0.138,0.474-0.342L25,24h1.5c0.276,0,0.5-0.224,0.5-0.5V20l1.641-0.821c0.21-0.105,0.318-0.341,0.261-0.568L28,15
		l0.693-0.693c0.176-0.176,0.196-0.454,0.046-0.654L26,10l0.464-0.464c0.254-0.254,0.165-0.684-0.168-0.818L22,7l0.376-0.376
		C22.65,6.35,22.52,5.88,22.143,5.786L19,5V3.934c0-0.399-0.445-0.638-0.777-0.416L16,5v23.973
		C16.053,28.973,16.107,28.964,16.158,28.947z"/>
	<path class="tulip_05" d="M23.899,12.717c0.494,1.884-0.387,3.761-1.968,4.194c-1.581,0.433-3.263-0.744-3.757-2.627
		s0.387-3.761,1.968-4.194C21.723,9.657,23.405,10.833,23.899,12.717z"/>
	<path class="tulip_04" d="M13.899,14.283c-0.494,1.884-2.176,3.06-3.757,2.627c-1.581-0.433-2.462-2.31-1.968-4.194
		s2.176-3.06,3.757-2.627C13.513,10.522,14.394,12.4,13.899,14.283z"/>
	<path class="white" d="M15,17c0,0-1,0.115-1,0.853c0,0.569,0.241,0.947,0.624,1.181C14.788,19.135,15,19.01,15,18.817V17z"/>
	<path class="grey_01" d="M17,17c0,0,1,0.115,1,0.853c0,0.569-0.241,0.947-0.624,1.181C17.212,19.135,17,19.01,17,18.817V17z"/>
	<path class="rose_09" d="M16,16.5c-0.828,0-1.5,0.264-1.5,1s0.672,1,1.5,1V16.5z"/>
	<path class="rose_10" d="M17.5,17.5c0-0.736-0.672-1-1.5-1v2C16.828,18.5,17.5,18.236,17.5,17.5z"/>
	<path class="rose_04" d="M12.894,7.406c-0.377-1.263-0.961-2.368-1.531-3.259c0.384-0.576,0.306-1.623-0.261-2.605
		c-0.69-1.196-1.832-1.829-2.549-1.415C7.835,0.541,7.813,1.846,8.504,3.042c0.518,0.897,1.289,1.477,1.945,1.537
		c0.552,0.845,1.128,1.909,1.489,3.118c0.076,0.254,0.338,0.403,0.595,0.34h0C12.811,7.969,12.976,7.68,12.894,7.406z"/>
	<path class="rose_05" d="M23.447,0.127c-0.717-0.414-1.859,0.219-2.549,1.415c-0.567,0.982-0.645,2.029-0.261,2.605
		c-0.57,0.891-1.154,1.996-1.531,3.259c-0.082,0.275,0.083,0.563,0.361,0.631l0,0c0.257,0.063,0.519-0.086,0.595-0.34
		c0.361-1.207,0.938-2.272,1.491-3.118c0.656-0.06,1.426-0.641,1.943-1.536C24.187,1.846,24.165,0.541,23.447,0.127z"/>
	<path class="orchid_12" d="M16,25.941c-0.077,0-0.153-0.018-0.224-0.053l-1.553-0.776c-0.141-0.07-0.306-0.07-0.447,0l-1.382,0.691
		c-0.226,0.113-0.5,0.04-0.64-0.17l-0.56-0.84c-0.117-0.176-0.332-0.259-0.537-0.208l-1.209,0.302
		c-0.253,0.063-0.513-0.079-0.596-0.327l-0.74-2.219C8.046,22.138,7.855,22,7.64,22H5v1.5C5,23.776,5.224,24,5.5,24H7l0.886,2.658
		C7.954,26.862,8.145,27,8.36,27H10l0.776,1.553C10.9,28.8,11.2,28.9,11.447,28.776L13,28l2.842,0.947
		c0.051,0.017,0.105,0.026,0.158,0.026V25.941z"/>
	<path class="orchid_13" d="M16.158,28.947L19,28l1.553,0.776C20.8,28.9,21.1,28.8,21.224,28.553L22,27h1.64
		c0.215,0,0.406-0.138,0.474-0.342L25,24h1.5c0.276,0,0.5-0.224,0.5-0.5V22h-2.64c-0.215,0-0.406,0.138-0.474,0.342l-0.74,2.219
		c-0.083,0.248-0.342,0.39-0.596,0.327l-1.209-0.302c-0.205-0.051-0.42,0.032-0.537,0.208l-0.56,0.84
		c-0.14,0.21-0.414,0.283-0.64,0.17l-1.382-0.691c-0.141-0.07-0.306-0.07-0.447,0l-1.553,0.776c-0.07,0.035-0.147,0.053-0.224,0.053
		v3.032C16.053,28.973,16.107,28.964,16.158,28.947z"/>
</g>
</svg>
