<?xml version="1.0" encoding="utf-8"?>
<!-- Generator: Adobe Illustrator 20.1.0, SVG Export Plug-In . SVG Version: 6.00 Build 0)  -->
<!DOCTYPE svg PUBLIC "-//W3C//DTD SVG 1.1//EN" "http://www.w3.org/Graphics/SVG/1.1/DTD/svg11.dtd">
<svg version="1.1" id="icons" xmlns="http://www.w3.org/2000/svg" xmlns:xlink="http://www.w3.org/1999/xlink" x="0px" y="0px"
	 width="32px" height="32px" viewBox="0 0 32 32" style="enable-background:new 0 0 32 32;" xml:space="preserve">
<style type="text/css">
	.grey_14{fill:#505957;}
	.grey_15{fill:#434C4B;}
	.grey_16{fill:#373F3F;}
	.grey_17{fill:#2B3332;}
	.rose_06{fill:#FAC4D1;}
	.rose_07{fill:#FAB8CD;}
	.dirt_14{fill:#9E6E43;}
	.dirt_15{fill:#96643B;}
	.dirt_16{fill:#8D5B36;}
	.dirt_17{fill:#845331;}
	.st0{fill:#78DF7C;}
	.st1{fill:#54B668;}
	.st2{fill:#7A63AD;}
	.st3{fill:#866EBA;}
	.st4{fill:#D2E6F3;}
	.st5{fill:#C1DDEE;}
	.st6{fill:#E0C193;}
	.st7{fill:#DBBA8C;}
	.st8{fill:#7FB8E0;}
	.st9{fill:#8EC0E0;}
	.st10{fill:#71B1E1;}
	.st11{fill:#9FC9E4;}
	.st12{fill:#FFEAA7;}
	.st13{fill:#FFE28A;}
	.st14{fill:#FF6B8B;}
	.st15{fill:#F4A984;}
	.st16{fill:#EA9C7A;}
	.st17{fill:#FEF1C6;}
	.st18{fill:#E85160;}
	.st19{fill:#D84459;}
	.st20{fill:#F7F7F7;}
	.st21{fill:#FFFFFF;}
	.st22{fill:#E55D53;}
	.st23{fill:#FFD400;}
	.st24{fill:#FF8F00;}
	.st25{fill:#FF4A00;}
	.st26{fill:#F7D684;}
	.st27{fill:#FAE09F;}
	.st28{fill:#FDEBBB;}
	.st29{fill:#FFF3D9;}
	.st30{fill:#FFD96C;}
	.st31{fill:#9ACC2E;}
	.st32{fill:#AADB3D;}
	.st33{fill:#A2D336;}
	.st34{fill:#93C427;}
	.st35{fill:#F79654;}
	.st36{fill:#FFD04D;}
	.st37{fill:#FCA15E;}
	.st38{fill:#A9E260;}
	.st39{fill:#97DB4A;}
	.st40{fill:#B1E346;}
	.st41{fill:#FCD8DE;}
	.st42{fill:#CDA073;}
	.st43{fill:#C09265;}
	.st44{fill:#A7794C;}
	.st45{fill:#B38658;}
	.st46{fill:#FBCFD6;}
	.st47{fill:#F9ADC8;}
	.st48{fill:#F8A1C4;}
	.st49{fill:#F297BE;}
	.st50{fill:#EA8BB4;}
	.st51{fill:#E8BA36;}
	.st52{fill:#E0B12E;}
	.st53{fill:#FFC172;}
	.st54{fill:#FFAD68;}
	.st55{fill:#FFB76D;}
	.st56{fill:#6E57A0;}
	.st57{fill:#675099;}
	.st58{fill:#F3586F;}
	.st59{fill:#604893;}
	.st60{fill:#CBEB6B;}
	.st61{fill:#4EAC5D;}
	.st62{fill:#BEE758;}
	.st63{fill:#6CD275;}
	.st64{fill:#48A353;}
	.st65{fill:#60C46F;}
	.st66{fill:#D9F07D;}
	.st67{fill:#E6F490;}
	.st68{fill:#4896C8;}
	.st69{fill:#4390BF;}
	.st70{fill:#5CA3D5;}
	.st71{fill:#529CCF;}
	.st72{fill:#F7C845;}
	.st73{fill:#ECCD50;}
	.st74{fill:#FF8D6E;}
	.st75{fill:#FF805D;}
	.st76{fill:#EDEEEE;}
	.st77{fill:#65A9DC;}
	.st78{fill:#8BC07A;}
	.st79{fill:#F0C13E;}
	.st80{fill:#9A3644;}
	.st81{fill:#8A323F;}
	.st82{fill:#945BA0;}
	.st83{fill:#A366AD;}
	.st84{fill:#B370B9;}
	.st85{fill:#C27BC6;}
	.st86{fill:#F6B392;}
	.st87{fill:#D285D2;}
	.st88{fill:#DBA728;}
	.st89{fill:#56C7CD;}
	.st90{fill:#687271;}
	.st91{fill:#5C6664;}
	.st92{fill:#51BAC5;}
	.st93{fill:#D64F45;}
	.st94{fill:#D1D4D4;}
	.st95{fill:#E3E5E5;}
	.st96{fill:#DADDDC;}
	.st97{fill:#845194;}
	.st98{fill:#5BD3D5;}
	.st99{fill:#46B080;}
	.st100{fill:#53BF8C;}
	.st101{fill:#6EDCA2;}
	.st102{fill:#7AEBAC;}
	.st103{fill:#60CD96;}
	.st104{fill:#E8803A;}
	.st105{fill:#0A6F8E;}
	.st106{fill:#0F769B;}
	.st107{fill:#EF8C48;}
	.st108{fill:#838C8A;}
	.st109{fill:#757F7E;}
	.st110{fill:#D1473D;}
	.st111{fill:#9179C6;}
	.st112{fill:#906DBB;}
	.st113{fill:#A78EDD;}
	.st114{fill:#9D85D3;}
	.st115{fill:#E2EFF7;}
	.st116{fill:#B0D3EA;}
	.st117{fill:#F7BC48;}
	.st118{fill:#FFC550;}
	.st119{fill:#FFCF6E;}
	.st120{fill:#4CAEBC;}
	.st121{fill:#47A1B4;}
	.st122{fill:#4295AC;}
	.st123{fill:#FDE2E6;}
	.st124{fill:#FFF5D8;}
	.st125{fill:#99533D;}
	.st126{fill:#914C39;}
	.st127{fill:#D4C9EF;}
	.st128{fill:#E3DBF4;}
	.st129{fill:#F1EDFA;}
	.st130{fill:#C6B7E9;}
	.st131{fill:#B8A5E4;}
	.st132{fill:#F0C877;}
	.st133{fill:#E8BA67;}
	.st134{fill:#DDAA5F;}
	.st135{fill:#D4994F;}
	.st136{fill:#C98B44;}
	.st137{fill:#BF7D3C;}
	.st138{fill:#909997;}
	.st139{fill:#724D31;}
	.st140{fill:#93C2CA;}
	.st141{fill:#99C7CE;}
	.st142{fill:#9FCCD3;}
	.st143{fill:#ACD7DD;}
	.st144{fill:#B9E2E7;}
	.st145{fill:#A5D1D8;}
	.st146{fill:#88B9C3;}
	.st147{fill:#7EB1BD;}
	.st148{fill:#C8CCCB;}
	.st149{fill:none;}
	.st150{fill:#4F4032;}
	.st151{fill:#604631;}
	.st152{fill:#9E6E43;}
	.st153{fill:#F9BDA0;}
	.st154{fill:#E7685F;}
	.st155{fill:#C84054;}
	.st156{fill:#ABB2B1;}
	.st157{fill:#9DA5A4;}
	.st158{fill:#F74000;}
	.st159{fill:#F97C00;}
	.st160{fill:#F9C900;}
	.st161{fill:#EFD4A7;}
	.st162{fill:#EACEA1;}
	.st163{fill:#FCE8CC;}
	.st164{fill:#F5DEB9;}
	.st165{fill:#CFAB81;}
	.st166{fill:#D5B387;}
	.st167{fill:#3A4274;}
	.st168{fill:#707EB7;}
	.st169{fill:#424B7E;}
	.st170{fill:#7C8AC4;}
	.st171{fill:#FFD98D;}
	.st172{fill:#8694D1;}
	.st173{fill:#9AA6D6;}
	.st174{fill:#ABB4DD;}
	.st175{fill:#FDECEF;}
	.st176{fill:#137FA0;}
	.st177{fill:#EB6B48;}
	.st178{fill:#F57552;}
	.st179{fill:#515E91;}
	.st180{fill:#5C699E;}
	.st181{fill:#6673AA;}
	.st182{fill:#504484;}
	.st183{fill:#FF5F7E;}
	.st184{fill:#EBCEEB;}
	.st185{fill:#E5BDE5;}
	.st186{fill:#E0ABDF;}
	.st187{fill:#D799D6;}
	.st188{fill:#3B8FA3;}
	.st189{fill:#348B99;}
	.st190{fill:#3AA176;}
	.st191{fill:#84ED82;}
	.st192{fill:#EFEAEA;}
	.st193{fill:#FF9A7E;}
	.st194{fill:#FCD2BE;}
	.st195{fill:#FCDDCF;}
	.st196{fill:#C683C8;}
	.st197{fill:#A55F49;}
	.st198{fill:#FEF5F7;}
</style>
<g>
	<path class="dirt_16" d="M16,0L16,0c-3.866,0-7,3.134-7,7v23h7V0z"/>
	<path class="dirt_17" d="M16,30h7V7c0-3.866-3.134-7-7-7h0V30z"/>
	<g>
		<path class="grey_16" d="M14.001,5c0,0.552,0.052,1-0.5,1c-0.552,0-0.5-0.448-0.5-1s-0.052-1,0.5-1
			C14.054,4,14.001,4.448,14.001,5z"/>
	</g>
	<g>
		<g>
			<path class="grey_17" d="M19.001,5c0,0.552,0.052,1-0.5,1c-0.552,0-0.5-0.448-0.5-1s-0.052-1,0.5-1
				C19.054,4,19.001,4.448,19.001,5z"/>
		</g>
		<g>
			<path class="grey_17" d="M19.001,5c0,0.552,0.052,1-0.5,1c-0.552,0-0.5-0.448-0.5-1s-0.052-1,0.5-1
				C19.054,4,19.001,4.448,19.001,5z"/>
		</g>
	</g>
	<path class="rose_06" d="M14,8.5c0,0.828,0.343,1.5,2,1.5V7C14.343,7,14,7.672,14,8.5z"/>
	<path class="rose_07" d="M16,7v3c1.657,0,2-0.672,2-1.5S17.657,7,16,7z"/>
	<path class="dirt_16" d="M23,16c-3.866,0-7,3.134-7,7v7h7V16z"/>
	<path class="dirt_17" d="M30,30v-7c0-3.866-3.134-7-7-7v14H30z"/>
	<path class="dirt_14" d="M9,11c-3.866,0-7,3.134-7,7v12h7V11z"/>
	<path class="dirt_15" d="M16,30V18c0-3.866-3.134-7-7-7v19H16z"/>
	<g>
		<path class="grey_15" d="M16,28h-0.586c-0.265,0-0.52,0.105-0.707,0.293l-1.414,1.414C13.105,29.895,13,30.149,13,30.414V31.5
			c0,0.276,0.224,0.5,0.5,0.5H16V28z"/>
		<path class="grey_16" d="M16,28v4h2.5c0.276,0,0.5-0.224,0.5-0.5v-1.086c0-0.265-0.105-0.52-0.293-0.707l-1.414-1.414
			C17.105,28.105,16.851,28,16.586,28H16z"/>
		<path class="grey_15" d="M6,31.5v-1.086c0-0.265,0.105-0.52,0.293-0.707l1.414-1.414C7.895,28.105,8.149,28,8.414,28h1.172
			c0.265,0,0.52,0.105,0.707,0.293l1.414,1.414C11.895,29.895,12,30.149,12,30.414V31.5c0,0.276-0.224,0.5-0.5,0.5h-5
			C6.224,32,6,31.776,6,31.5z"/>
		<path class="grey_15" d="M0,31.5v-2.086c0-0.265,0.105-0.52,0.293-0.707l0.414-0.414C0.895,28.105,1.149,28,1.414,28h1.172
			c0.265,0,0.52,0.105,0.707,0.293l1.414,1.414C4.895,29.895,5,30.149,5,30.414V31.5C5,31.776,4.776,32,4.5,32h-4
			C0.224,32,0,31.776,0,31.5z"/>
		<path class="grey_16" d="M20,31.5v-1.086c0-0.265,0.105-0.52,0.293-0.707l1.414-1.414C21.895,28.105,22.149,28,22.414,28h1.172
			c0.265,0,0.52,0.105,0.707,0.293l1.414,1.414C25.895,29.895,26,30.149,26,30.414V31.5c0,0.276-0.224,0.5-0.5,0.5h-5
			C20.224,32,20,31.776,20,31.5z"/>
		<path class="grey_16" d="M27,31.5v-1.086c0-0.265,0.105-0.52,0.293-0.707l1.414-1.414C28.895,28.105,29.149,28,29.414,28h1.172
			c0.265,0,0.52,0.105,0.707,0.293l0.414,0.414C31.895,28.895,32,29.149,32,29.414V31.5c0,0.276-0.224,0.5-0.5,0.5h-4
			C27.224,32,27,31.776,27,31.5z"/>
		<path class="grey_14" d="M10,31.5v-1.086c0-0.265,0.105-0.52,0.293-0.707l0.414-0.414C10.895,29.105,11.149,29,11.414,29h2.172
			c0.265,0,0.52,0.105,0.707,0.293l0.414,0.414C14.895,29.895,15,30.149,15,30.414V31.5c0,0.276-0.224,0.5-0.5,0.5h-4
			C10.224,32,10,31.776,10,31.5z"/>
		<path class="grey_15" d="M17,31.5v-1.086c0-0.265,0.105-0.52,0.293-0.707l0.414-0.414C17.895,29.105,18.149,29,18.414,29h2.172
			c0.265,0,0.52,0.105,0.707,0.293l0.414,0.414C21.895,29.895,22,30.149,22,30.414V31.5c0,0.276-0.224,0.5-0.5,0.5h-4
			C17.224,32,17,31.776,17,31.5z"/>
		<path class="grey_15" d="M24,31.5v-1.086c0-0.265,0.105-0.52,0.293-0.707l0.414-0.414C24.895,29.105,25.149,29,25.414,29h2.172
			c0.265,0,0.52,0.105,0.707,0.293l0.414,0.414C28.895,29.895,29,30.149,29,30.414V31.5c0,0.276-0.224,0.5-0.5,0.5h-4
			C24.224,32,24,31.776,24,31.5z"/>
		<path class="grey_14" d="M3,31.5v-1.086c0-0.265,0.105-0.52,0.293-0.707l0.414-0.414C3.895,29.105,4.149,29,4.414,29h2.172
			c0.265,0,0.52,0.105,0.707,0.293l0.414,0.414C7.895,29.895,8,30.149,8,30.414V31.5C8,31.776,7.776,32,7.5,32h-4
			C3.224,32,3,31.776,3,31.5z"/>
	</g>
	<g>
		<g>
			<path class="grey_16" d="M7.001,17c0,0.552,0.052,1-0.5,1s-0.5-0.448-0.5-1s-0.052-1,0.5-1S7.001,16.448,7.001,17z"/>
		</g>
		<g>
			<path class="grey_16" d="M7.001,17c0,0.552,0.052,1-0.5,1s-0.5-0.448-0.5-1s-0.052-1,0.5-1S7.001,16.448,7.001,17z"/>
		</g>
	</g>
	<g>
		<g>
			<path class="grey_17" d="M12.001,17c0,0.552,0.052,1-0.5,1c-0.552,0-0.5-0.448-0.5-1s-0.052-1,0.5-1
				C12.054,16,12.001,16.448,12.001,17z"/>
		</g>
		<g>
			<path class="grey_17" d="M12.001,17c0,0.552,0.052,1-0.5,1c-0.552,0-0.5-0.448-0.5-1s-0.052-1,0.5-1
				C12.054,16,12.001,16.448,12.001,17z"/>
		</g>
	</g>
	<path class="rose_06" d="M7,20.5C7,21.328,7.343,22,9,22v-3C7.343,19,7,19.672,7,20.5z"/>
	<path class="rose_07" d="M9,19v3c1.657,0,2-0.672,2-1.5S10.657,19,9,19z"/>
	<g>
		<path class="grey_16" d="M21.001,21c0,0.552,0.052,1-0.5,1c-0.552,0-0.5-0.448-0.5-1s-0.052-1,0.5-1
			C21.054,20,21.001,20.448,21.001,21z"/>
	</g>
	<g>
		<path class="grey_17" d="M26.001,21c0,0.552,0.052,1-0.5,1c-0.552,0-0.5-0.448-0.5-1s-0.052-1,0.5-1
			C26.054,20,26.001,20.448,26.001,21z"/>
	</g>
	<path class="rose_06" d="M21,24.5c0,0.828,0.343,1.5,2,1.5v-3C21.343,23,21,23.672,21,24.5z"/>
	<path class="rose_07" d="M23,23v3c1.657,0,2-0.672,2-1.5S24.657,23,23,23z"/>
</g>
</svg>
