<?xml version="1.0" encoding="utf-8"?>
<!-- Generator: Adobe Illustrator 20.1.0, SVG Export Plug-In . SVG Version: 6.00 Build 0)  -->
<!DOCTYPE svg PUBLIC "-//W3C//DTD SVG 1.1//EN" "http://www.w3.org/Graphics/SVG/1.1/DTD/svg11.dtd">
<svg version="1.1" id="icons" xmlns="http://www.w3.org/2000/svg" xmlns:xlink="http://www.w3.org/1999/xlink" x="0px" y="0px"
	 width="32px" height="32px" viewBox="0 0 32 32" style="enable-background:new 0 0 32 32;" xml:space="preserve">
<style type="text/css">
	.white{fill:#FFFFFF;}
	.grey_01{fill:#F7F7F7;}
	.grey_16{fill:#373F3F;}
	.grey_17{fill:#2B3332;}
	.sand_01{fill:#FFF3D9;}
	.sand_02{fill:#FDEBBB;}
	.sand_03{fill:#FAE09F;}
	.sand_04{fill:#F7D684;}
	.sand_05{fill:#F0C877;}
	.sand_06{fill:#E8BA67;}
	.sand_07{fill:#DDAA5F;}
	.sand_08{fill:#D4994F;}
	.sand_09{fill:#C98B44;}
	.st0{fill:#78DF7C;}
	.st1{fill:#54B668;}
	.st2{fill:#7A63AD;}
	.st3{fill:#866EBA;}
	.st4{fill:#D2E6F3;}
	.st5{fill:#C1DDEE;}
	.st6{fill:#E0C193;}
	.st7{fill:#DBBA8C;}
	.st8{fill:#7FB8E0;}
	.st9{fill:#8EC0E0;}
	.st10{fill:#71B1E1;}
	.st11{fill:#9FC9E4;}
	.st12{fill:#FFEAA7;}
	.st13{fill:#FFE28A;}
	.st14{fill:#FF6B8B;}
	.st15{fill:#F4A984;}
	.st16{fill:#EA9C7A;}
	.st17{fill:#FEF1C6;}
	.st18{fill:#E85160;}
	.st19{fill:#D84459;}
	.st20{fill:#E55D53;}
	.st21{fill:#FFD400;}
	.st22{fill:#FF8F00;}
	.st23{fill:#FF4A00;}
	.st24{fill:#FFD96C;}
	.st25{fill:#9ACC2E;}
	.st26{fill:#AADB3D;}
	.st27{fill:#A2D336;}
	.st28{fill:#93C427;}
	.st29{fill:#F79654;}
	.st30{fill:#FFD04D;}
	.st31{fill:#FCA15E;}
	.st32{fill:#A9E260;}
	.st33{fill:#97DB4A;}
	.st34{fill:#B1E346;}
	.st35{fill:#FCD8DE;}
	.st36{fill:#CDA073;}
	.st37{fill:#C09265;}
	.st38{fill:#A7794C;}
	.st39{fill:#96643B;}
	.st40{fill:#845331;}
	.st41{fill:#B38658;}
	.st42{fill:#9E6E43;}
	.st43{fill:#8D5B36;}
	.st44{fill:#FBCFD6;}
	.st45{fill:#FAC4D1;}
	.st46{fill:#FAB8CD;}
	.st47{fill:#F9ADC8;}
	.st48{fill:#F8A1C4;}
	.st49{fill:#F297BE;}
	.st50{fill:#EA8BB4;}
	.st51{fill:#E8BA36;}
	.st52{fill:#E0B12E;}
	.st53{fill:#FFC172;}
	.st54{fill:#FFAD68;}
	.st55{fill:#FFB76D;}
	.st56{fill:#6E57A0;}
	.st57{fill:#675099;}
	.st58{fill:#F3586F;}
	.st59{fill:#604893;}
	.st60{fill:#CBEB6B;}
	.st61{fill:#4EAC5D;}
	.st62{fill:#BEE758;}
	.st63{fill:#6CD275;}
	.st64{fill:#48A353;}
	.st65{fill:#60C46F;}
	.st66{fill:#D9F07D;}
	.st67{fill:#E6F490;}
	.st68{fill:#4896C8;}
	.st69{fill:#4390BF;}
	.st70{fill:#5CA3D5;}
	.st71{fill:#529CCF;}
	.st72{fill:#F7C845;}
	.st73{fill:#ECCD50;}
	.st74{fill:#FF8D6E;}
	.st75{fill:#FF805D;}
	.st76{fill:#EDEEEE;}
	.st77{fill:#65A9DC;}
	.st78{fill:#8BC07A;}
	.st79{fill:#F0C13E;}
	.st80{fill:#9A3644;}
	.st81{fill:#8A323F;}
	.st82{fill:#945BA0;}
	.st83{fill:#A366AD;}
	.st84{fill:#B370B9;}
	.st85{fill:#C27BC6;}
	.st86{fill:#F6B392;}
	.st87{fill:#D285D2;}
	.st88{fill:#FDEBBB;}
	.st89{fill:#FAE09F;}
	.st90{fill:#DBA728;}
	.st91{fill:#505957;}
	.st92{fill:#56C7CD;}
	.st93{fill:#434C4B;}
	.st94{fill:#687271;}
	.st95{fill:#5C6664;}
	.st96{fill:#51BAC5;}
	.st97{fill:#D64F45;}
	.st98{fill:#D1D4D4;}
	.st99{fill:#E3E5E5;}
	.st100{fill:#DADDDC;}
	.st101{fill:#845194;}
	.st102{fill:#5BD3D5;}
	.st103{fill:#46B080;}
	.st104{fill:#53BF8C;}
	.st105{fill:#6EDCA2;}
	.st106{fill:#7AEBAC;}
	.st107{fill:#60CD96;}
	.st108{fill:#E8803A;}
	.st109{fill:#0A6F8E;}
	.st110{fill:#0F769B;}
	.st111{fill:#EF8C48;}
	.st112{fill:#838C8A;}
	.st113{fill:#757F7E;}
	.st114{fill:#D1473D;}
	.st115{fill:#9179C6;}
	.st116{fill:#906DBB;}
	.st117{fill:#A78EDD;}
	.st118{fill:#9D85D3;}
	.st119{fill:#E2EFF7;}
	.st120{fill:#B0D3EA;}
	.st121{fill:#F7BC48;}
	.st122{fill:#FFC550;}
	.st123{fill:#FFCF6E;}
	.st124{fill:#4CAEBC;}
	.st125{fill:#47A1B4;}
	.st126{fill:#4295AC;}
	.st127{fill:#FDE2E6;}
	.st128{fill:#FFF5D8;}
	.st129{fill:#99533D;}
	.st130{fill:#914C39;}
	.st131{fill:#D4C9EF;}
	.st132{fill:#E3DBF4;}
	.st133{fill:#F1EDFA;}
	.st134{fill:#C6B7E9;}
	.st135{fill:#B8A5E4;}
	.st136{fill:#F7D684;}
	.st137{fill:#BF7D3C;}
	.st138{fill:#909997;}
	.st139{fill:#724D31;}
	.st140{fill:#93C2CA;}
	.st141{fill:#99C7CE;}
	.st142{fill:#9FCCD3;}
	.st143{fill:#ACD7DD;}
	.st144{fill:#B9E2E7;}
	.st145{fill:#A5D1D8;}
	.st146{fill:#88B9C3;}
	.st147{fill:#7EB1BD;}
	.st148{fill:#C8CCCB;}
	.st149{fill:none;}
	.st150{fill:#4F4032;}
	.st151{fill:#604631;}
	.st152{fill:#F9BDA0;}
	.st153{fill:#E7685F;}
	.st154{fill:#C84054;}
	.st155{fill:#ABB2B1;}
	.st156{fill:#9DA5A4;}
	.st157{fill:#F74000;}
	.st158{fill:#F97C00;}
	.st159{fill:#F9C900;}
	.st160{fill:#EFD4A7;}
	.st161{fill:#EACEA1;}
	.st162{fill:#FCE8CC;}
	.st163{fill:#F5DEB9;}
	.st164{fill:#CFAB81;}
	.st165{fill:#D5B387;}
	.st166{fill:#3A4274;}
	.st167{fill:#707EB7;}
	.st168{fill:#424B7E;}
	.st169{fill:#7C8AC4;}
	.st170{fill:#FFD98D;}
	.st171{fill:#8694D1;}
	.st172{fill:#9AA6D6;}
	.st173{fill:#ABB4DD;}
	.st174{fill:#FDECEF;}
	.st175{fill:#137FA0;}
	.st176{fill:#EB6B48;}
	.st177{fill:#F57552;}
	.st178{fill:#515E91;}
	.st179{fill:#5C699E;}
	.st180{fill:#6673AA;}
	.st181{fill:#504484;}
	.st182{fill:#FF5F7E;}
	.st183{fill:#EBCEEB;}
	.st184{fill:#E5BDE5;}
	.st185{fill:#E0ABDF;}
	.st186{fill:#D799D6;}
	.st187{fill:#3B8FA3;}
	.st188{fill:#348B99;}
	.st189{fill:#F7F7F7;}
	.st190{fill:#3AA176;}
	.st191{fill:#84ED82;}
	.st192{fill:#EFEAEA;}
	.st193{fill:#FF9A7E;}
	.st194{fill:#FCD2BE;}
	.st195{fill:#FCDDCF;}
	.st196{fill:#C683C8;}
	.st197{fill:#A55F49;}
	.st198{fill:#FEF5F7;}
</style>
<g>
	<path class="grey_16" d="M14.617,4.067c-1.263-1.126-5.247-4.562-6.21-4.006C7.559,0.55,8.22,4.612,8.625,6.709
		C10.002,5.213,12.142,4.309,14.617,4.067z"/>
	<path class="grey_17" d="M23.375,6.709c0.405-2.097,1.066-6.159,0.218-6.649c-0.963-0.556-4.946,2.88-6.21,4.006
		C19.858,4.309,21.998,5.213,23.375,6.709z"/>
	<path class="sand_02" d="M14.683,29.367c-0.378-0.757-0.482-1.617-0.303-2.436c-0.895-0.085-1.706-0.258-2.38-0.568v0.21
		c0,0.938,0.219,1.864,0.638,2.703C12.804,29.609,12.563,30,12.191,30H11c-0.552,0-1,0.448-1,1c0,0.552,0.448,1,1,1h2.71
		c0.712,0,1.29-0.578,1.29-1.29v-0.002C15,30.242,14.892,29.783,14.683,29.367L14.683,29.367z"/>
	<path class="sand_03" d="M21,30h-1.191c-0.372,0-0.613-0.391-0.447-0.724C19.781,28.437,20,27.511,20,26.573v-0.21
		c-0.674,0.31-1.485,0.483-2.38,0.568c0.179,0.819,0.075,1.679-0.303,2.436h0C17.108,29.783,17,30.242,17,30.708v0.002
		c0,0.712,0.578,1.29,1.29,1.29H21c0.552,0,1-0.448,1-1C22,30.448,21.552,30,21,30z"/>
	<path class="sand_03" d="M16,25c12,0,12-5,12-5l3-1c0,0,1,8-15,8V25z"/>
	<path class="sand_09" d="M31,19c0-1.657-1.343-3-3-3v4c0,0-0.003,0.636-0.546,1.454l1.804,1.804C31.267,21.176,31,19,31,19z"/>
	<path class="sand_08" d="M28,16c-1.105,0-2,0.895-2,2s0.895,2,2,2V16z"/>
	<path class="sand_07" d="M28,20c0.552,0,1-0.448,1-1s-0.448-1-1-1V20z"/>
	<path class="sand_02" d="M25,11c0-4.51-4.029-7-9-7v14C20.971,18,25,15.51,25,11z"/>
	<path class="sand_01" d="M16,4c-4.971,0-9,2.49-9,7c0,4.51,4.029,7,9,7V4z"/>
	<path class="sand_06" d="M24.271,10.144l0-0.001c-0.071-0.266,0.086-0.54,0.353-0.61c1.692-0.443,7.265-1.87,7.374-1.46
		c0.11,0.41-5.429,1.96-7.117,2.423C24.616,10.569,24.343,10.411,24.271,10.144z"/>
	<path class="sand_05" d="M7.729,10.144l0-0.001c0.071-0.266-0.086-0.54-0.353-0.61c-1.692-0.443-7.265-1.87-7.374-1.46
		c-0.11,0.41,5.429,1.96,7.117,2.423C7.384,10.569,7.657,10.411,7.729,10.144z"/>
	<path class="sand_06" d="M24.271,12.856l0,0.001c-0.071,0.266,0.086,0.54,0.353,0.61c1.692,0.443,7.265,1.87,7.374,1.46
		c0.11-0.41-5.429-1.96-7.117-2.423C24.616,12.431,24.343,12.589,24.271,12.856z"/>
	<path class="sand_05" d="M7.729,12.856l0,0.001c0.071,0.266-0.086,0.54-0.353,0.61c-1.692,0.443-7.265,1.87-7.374,1.46
		c-0.11-0.41,5.429-1.96,7.117-2.423C7.384,12.431,7.657,12.589,7.729,12.856z"/>
	<g>
		<path class="grey_01" d="M18,10.286C18,11.548,19.119,12,20.5,12s2.5-0.452,2.5-1.714S21.881,8,20.5,8S18,9.023,18,10.286z"/>
		<path class="grey_17" d="M20.502,12c0.552,0,0.5-1.12,0.5-2.5c0-0.545,0.007-1.045-0.017-1.455C20.827,8.016,20.666,8,20.5,8
			c-0.165,0-0.325,0.017-0.481,0.044c-0.024,0.411-0.017,0.911-0.017,1.456C20.001,10.88,19.949,12,20.502,12
			C20.501,12,20.501,12,20.502,12z"/>
	</g>
	<g>
		<path class="white" d="M14,10.286C14,11.548,12.881,12,11.5,12S9,11.548,9,10.286S10.119,8,11.5,8S14,9.023,14,10.286z"/>
		<path class="grey_16" d="M11.498,12c-0.552,0-0.5-1.12-0.5-2.5c0-0.545-0.007-1.045,0.017-1.455C11.173,8.016,11.334,8,11.5,8
			c0.165,0,0.325,0.017,0.481,0.044c0.024,0.411,0.017,0.911,0.017,1.456C11.999,10.88,12.051,12,11.498,12
			C11.499,12,11.499,12,11.498,12z"/>
	</g>
	<g>
		<path class="sand_04" d="M16,2c-1.657,0-2,1.343-2,3s0.343,3,2,3V2z"/>
		<path class="sand_05" d="M18,5c0-1.657-0.343-3-2-3v6C17.657,8,18,6.657,18,5z"/>
		<g>
			<g>
				<path class="sand_05" d="M14.061,6c0.15,1.163,0.634,2,1.939,2V6H14.061z"/>
			</g>
			<g>
				<path class="sand_05" d="M14.061,6c0.15,1.163,0.634,2,1.939,2V6H14.061z"/>
			</g>
		</g>
		<path class="sand_06" d="M17.939,6C17.789,7.163,17.304,8,16,8V6H17.939z"/>
		<path class="sand_03" d="M16,4V2c-1.304,0-1.789,0.837-1.939,2H16z"/>
		<path class="sand_04" d="M17.939,4C17.789,2.837,17.304,2,16,2v2H17.939z"/>
	</g>
	<path class="sand_01" d="M12,17c0,0-4.073,2.444-7.072,6.596C4.319,24.439,4,25.46,4,26.499V26.5C4,27.328,4.672,28,5.5,28
		S7,27.328,7,26.5v0c0-1.314,0.322-2.618,0.997-3.745c0.568-0.948,1.426-2.039,2.679-2.949C10.246,20.885,10,22.004,10,23
		c0,3.314,2.686,4,6,4V15C14.461,15,12,17,12,17z"/>
	<path class="sand_02" d="M27.072,23.596C24.073,19.444,20,17,20,17s-2.461-2-4-2v12c3.314,0,6-0.686,6-4
		c0-0.996-0.246-2.115-0.676-3.194c1.253,0.909,2.11,2.001,2.678,2.949C24.678,23.882,25,25.186,25,26.5v0
		c0,0.828,0.672,1.5,1.5,1.5s1.5-0.672,1.5-1.5v-0.001C28,25.46,27.681,24.439,27.072,23.596z"/>
	<path class="sand_03" d="M16,14v4c3.971,0,7.334-1.593,8.529-4.531C22.354,14.157,19.337,14,16,14z"/>
	<path class="sand_02" d="M7.471,13.469C8.666,16.407,12.029,18,16,18v-4C12.663,14,9.646,14.157,7.471,13.469z"/>
	<path class="sand_07" d="M12.638,29.276L12.638,29.276C12.804,29.609,12.563,30,12.191,30H11c-0.552,0-1,0.448-1,1v0
		c0,0.552,0.448,1,1,1h2.71c0.712,0,1.29-0.578,1.29-1.29v-0.002c0-0.466-0.108-0.925-0.317-1.342l0,0c0,0-0.539-0.367-1.065-0.367
		S12.638,29.276,12.638,29.276z"/>
	<path class="sand_08" d="M19.362,29.276L19.362,29.276C19.196,29.609,19.437,30,19.809,30H21c0.552,0,1,0.448,1,1v0
		c0,0.552-0.448,1-1,1h-2.71C17.578,32,17,31.422,17,30.71v-0.002c0-0.466,0.108-0.925,0.317-1.342v0c0,0,0.539-0.367,1.065-0.367
		C18.907,29,19.362,29.276,19.362,29.276z"/>
	<path class="grey_01" d="M20.073,14.004C20.181,14.369,20.384,15,20.5,15c0.118,0,0.328-0.659,0.434-1.019
		C20.653,13.992,20.365,13.999,20.073,14.004z"/>
	<path class="white" d="M11.927,14.004c-0.292-0.005-0.58-0.012-0.861-0.024C11.172,14.341,11.382,15,11.5,15
		C11.616,15,11.819,14.369,11.927,14.004z"/>
	<path class="sand_08" d="M22.511,5.921c0.33-1.816,0.517-3.469,0.5-4.425c-0.003-0.189-0.205-0.305-0.371-0.214
		c-0.912,0.506-2.429,1.642-3.968,2.976l0,0C20.152,4.559,21.467,5.12,22.511,5.921z"/>
	<path class="sand_07" d="M13.327,4.259L13.327,4.259c-1.541-1.336-3.059-2.473-3.967-2.978C9.195,1.189,8.993,1.306,8.989,1.495
		c-0.017,0.955,0.169,2.609,0.5,4.426C10.533,5.12,11.847,4.559,13.327,4.259z"/>
</g>
</svg>
