<?xml version="1.0" encoding="utf-8"?>
<!-- Generator: Adobe Illustrator 20.1.0, SVG Export Plug-In . SVG Version: 6.00 Build 0)  -->
<!DOCTYPE svg PUBLIC "-//W3C//DTD SVG 1.1//EN" "http://www.w3.org/Graphics/SVG/1.1/DTD/svg11.dtd">
<svg version="1.1" id="icons" xmlns="http://www.w3.org/2000/svg" xmlns:xlink="http://www.w3.org/1999/xlink" x="0px" y="0px"
	 width="32px" height="32px" viewBox="0 0 32 32" style="enable-background:new 0 0 32 32;" xml:space="preserve">
<style type="text/css">
	.white{fill:#FFFFFF;}
	.grey_01{fill:#F7F7F7;}
	.grey_16{fill:#373F3F;}
	.grey_17{fill:#2B3332;}
	.tangerine_04{fill:#FCA15E;}
	.tangerine_05{fill:#F79654;}
	.tangerine_06{fill:#EF8C48;}
	.sand_01{fill:#FFF3D9;}
	.sand_02{fill:#FDEBBB;}
	.sand_03{fill:#FAE09F;}
	.sand_04{fill:#F7D684;}
	.st0{fill:#78DF7C;}
	.st1{fill:#54B668;}
	.st2{fill:#7A63AD;}
	.st3{fill:#866EBA;}
	.st4{fill:#D2E6F3;}
	.st5{fill:#C1DDEE;}
	.st6{fill:#E0C193;}
	.st7{fill:#DBBA8C;}
	.st8{fill:#7FB8E0;}
	.st9{fill:#8EC0E0;}
	.st10{fill:#71B1E1;}
	.st11{fill:#9FC9E4;}
	.st12{fill:#FFEAA7;}
	.st13{fill:#FFE28A;}
	.st14{fill:#FF6B8B;}
	.st15{fill:#F4A984;}
	.st16{fill:#EA9C7A;}
	.st17{fill:#FEF1C6;}
	.st18{fill:#E85160;}
	.st19{fill:#D84459;}
	.st20{fill:#E55D53;}
	.st21{fill:#FFD400;}
	.st22{fill:#FF8F00;}
	.st23{fill:#FF4A00;}
	.st24{fill:#FFD96C;}
	.st25{fill:#9ACC2E;}
	.st26{fill:#AADB3D;}
	.st27{fill:#A2D336;}
	.st28{fill:#93C427;}
	.st29{fill:#FFD04D;}
	.st30{fill:#A9E260;}
	.st31{fill:#97DB4A;}
	.st32{fill:#B1E346;}
	.st33{fill:#FCD8DE;}
	.st34{fill:#CDA073;}
	.st35{fill:#C09265;}
	.st36{fill:#A7794C;}
	.st37{fill:#96643B;}
	.st38{fill:#845331;}
	.st39{fill:#B38658;}
	.st40{fill:#9E6E43;}
	.st41{fill:#8D5B36;}
	.st42{fill:#FBCFD6;}
	.st43{fill:#FAC4D1;}
	.st44{fill:#FAB8CD;}
	.st45{fill:#F9ADC8;}
	.st46{fill:#F8A1C4;}
	.st47{fill:#F297BE;}
	.st48{fill:#EA8BB4;}
	.st49{fill:#E8BA36;}
	.st50{fill:#E0B12E;}
	.st51{fill:#FFC172;}
	.st52{fill:#FFAD68;}
	.st53{fill:#FFB76D;}
	.st54{fill:#6E57A0;}
	.st55{fill:#675099;}
	.st56{fill:#F3586F;}
	.st57{fill:#604893;}
	.st58{fill:#CBEB6B;}
	.st59{fill:#4EAC5D;}
	.st60{fill:#BEE758;}
	.st61{fill:#6CD275;}
	.st62{fill:#48A353;}
	.st63{fill:#60C46F;}
	.st64{fill:#D9F07D;}
	.st65{fill:#E6F490;}
	.st66{fill:#4896C8;}
	.st67{fill:#4390BF;}
	.st68{fill:#5CA3D5;}
	.st69{fill:#529CCF;}
	.st70{fill:#F7C845;}
	.st71{fill:#ECCD50;}
	.st72{fill:#FF8D6E;}
	.st73{fill:#FF805D;}
	.st74{fill:#EDEEEE;}
	.st75{fill:#65A9DC;}
	.st76{fill:#8BC07A;}
	.st77{fill:#F0C13E;}
	.st78{fill:#9A3644;}
	.st79{fill:#8A323F;}
	.st80{fill:#945BA0;}
	.st81{fill:#A366AD;}
	.st82{fill:#B370B9;}
	.st83{fill:#C27BC6;}
	.st84{fill:#F6B392;}
	.st85{fill:#D285D2;}
	.st86{fill:#FDEBBB;}
	.st87{fill:#FAE09F;}
	.st88{fill:#DBA728;}
	.st89{fill:#505957;}
	.st90{fill:#56C7CD;}
	.st91{fill:#434C4B;}
	.st92{fill:#687271;}
	.st93{fill:#5C6664;}
	.st94{fill:#51BAC5;}
	.st95{fill:#D64F45;}
	.st96{fill:#D1D4D4;}
	.st97{fill:#E3E5E5;}
	.st98{fill:#DADDDC;}
	.st99{fill:#845194;}
	.st100{fill:#5BD3D5;}
	.st101{fill:#46B080;}
	.st102{fill:#53BF8C;}
	.st103{fill:#6EDCA2;}
	.st104{fill:#7AEBAC;}
	.st105{fill:#60CD96;}
	.st106{fill:#E8803A;}
	.st107{fill:#0A6F8E;}
	.st108{fill:#0F769B;}
	.st109{fill:#838C8A;}
	.st110{fill:#757F7E;}
	.st111{fill:#D1473D;}
	.st112{fill:#9179C6;}
	.st113{fill:#906DBB;}
	.st114{fill:#A78EDD;}
	.st115{fill:#9D85D3;}
	.st116{fill:#E2EFF7;}
	.st117{fill:#B0D3EA;}
	.st118{fill:#F7BC48;}
	.st119{fill:#FFC550;}
	.st120{fill:#FFCF6E;}
	.st121{fill:#4CAEBC;}
	.st122{fill:#47A1B4;}
	.st123{fill:#4295AC;}
	.st124{fill:#FDE2E6;}
	.st125{fill:#FFF5D8;}
	.st126{fill:#99533D;}
	.st127{fill:#914C39;}
	.st128{fill:#D4C9EF;}
	.st129{fill:#E3DBF4;}
	.st130{fill:#F1EDFA;}
	.st131{fill:#C6B7E9;}
	.st132{fill:#B8A5E4;}
	.st133{fill:#F0C877;}
	.st134{fill:#E8BA67;}
	.st135{fill:#DDAA5F;}
	.st136{fill:#D4994F;}
	.st137{fill:#C98B44;}
	.st138{fill:#F7D684;}
	.st139{fill:#BF7D3C;}
	.st140{fill:#909997;}
	.st141{fill:#724D31;}
	.st142{fill:#93C2CA;}
	.st143{fill:#99C7CE;}
	.st144{fill:#9FCCD3;}
	.st145{fill:#ACD7DD;}
	.st146{fill:#B9E2E7;}
	.st147{fill:#A5D1D8;}
	.st148{fill:#88B9C3;}
	.st149{fill:#7EB1BD;}
	.st150{fill:#C8CCCB;}
	.st151{fill:none;}
	.st152{fill:#4F4032;}
	.st153{fill:#604631;}
	.st154{fill:#F9BDA0;}
	.st155{fill:#E7685F;}
	.st156{fill:#C84054;}
	.st157{fill:#ABB2B1;}
	.st158{fill:#9DA5A4;}
	.st159{fill:#F74000;}
	.st160{fill:#F97C00;}
	.st161{fill:#F9C900;}
	.st162{fill:#EFD4A7;}
	.st163{fill:#EACEA1;}
	.st164{fill:#FCE8CC;}
	.st165{fill:#F5DEB9;}
	.st166{fill:#CFAB81;}
	.st167{fill:#D5B387;}
	.st168{fill:#3A4274;}
	.st169{fill:#707EB7;}
	.st170{fill:#424B7E;}
	.st171{fill:#7C8AC4;}
	.st172{fill:#FFD98D;}
	.st173{fill:#8694D1;}
	.st174{fill:#9AA6D6;}
	.st175{fill:#ABB4DD;}
	.st176{fill:#FDECEF;}
	.st177{fill:#137FA0;}
	.st178{fill:#EB6B48;}
	.st179{fill:#F57552;}
	.st180{fill:#515E91;}
	.st181{fill:#5C699E;}
	.st182{fill:#6673AA;}
	.st183{fill:#504484;}
	.st184{fill:#FF5F7E;}
	.st185{fill:#EBCEEB;}
	.st186{fill:#E5BDE5;}
	.st187{fill:#E0ABDF;}
	.st188{fill:#D799D6;}
	.st189{fill:#3B8FA3;}
	.st190{fill:#348B99;}
	.st191{fill:#F7F7F7;}
	.st192{fill:#3AA176;}
	.st193{fill:#84ED82;}
	.st194{fill:#EFEAEA;}
	.st195{fill:#FF9A7E;}
	.st196{fill:#FCD2BE;}
	.st197{fill:#FCDDCF;}
	.st198{fill:#C683C8;}
	.st199{fill:#A55F49;}
	.st200{fill:#FEF5F7;}
</style>
<g>
	<path class="sand_04" d="M18.875,20l-7-7c0,0-2-13,10-13c10.647,0,10.273,11.808,10.053,14.471
		c-0.018,0.213-0.275,0.307-0.426,0.156L28.875,12v2.396c0,0.223-0.269,0.334-0.427,0.177L25.875,12C25.875,12,26.875,20,18.875,20z
		"/>
	<path class="tangerine_05" d="M23.058,25c0-3-1-6-1-6l-1,0.5l0.803,1.205c0.096,0.144,0.02,0.339-0.147,0.381L20.058,21.5
		l0.741,1.111C20.909,22.777,20.79,23,20.59,23h-1.533v1.653c0,0.171-0.167,0.291-0.329,0.237l-0.661-0.22
		c0.103,3.97,1.101,6.037,1.644,6.873c0.186,0.286,0.5,0.457,0.841,0.457h3.505c0.552,0,1-0.448,1-1C25.058,29,23.058,28,23.058,25z
		"/>
	<path class="tangerine_04" d="M13.387,24.89c-0.162,0.054-0.329-0.067-0.329-0.237V23h-1.533c-0.2,0-0.319-0.223-0.208-0.389
		l0.741-1.111l-1.656-0.414c-0.168-0.042-0.243-0.237-0.147-0.381l0.803-1.205l-1-0.5c0,0-1,3-1,6s-2,4-2,6c0,0.552,0.448,1,1,1
		h3.505c0.341,0,0.656-0.171,0.841-0.457c0.543-0.835,1.541-2.903,1.644-6.873L13.387,24.89z"/>
	<path class="sand_02" d="M16.058,14h-6l0.5,1.5L9.37,16.292c-0.148,0.099-0.148,0.317,0,0.416l1.188,0.792l-1.142,0.761
		c-0.16,0.106-0.145,0.346,0.027,0.432l1.615,0.807l-0.803,1.205c-0.096,0.144-0.02,0.339,0.147,0.381l1.656,0.414l-0.741,1.111
		C11.206,22.777,11.325,23,11.525,23h1.533v1.653c0,0.171,0.167,0.291,0.329,0.237l1.171-0.39l1.146,1.146
		c0.098,0.098,0.226,0.146,0.354,0.146V14z"/>
	<path class="sand_03" d="M16.411,25.646l1.146-1.146l1.171,0.39c0.162,0.054,0.329-0.067,0.329-0.237V23h1.533
		c0.2,0,0.319-0.223,0.208-0.389L20.058,21.5l1.656-0.414c0.168-0.042,0.243-0.237,0.147-0.381L21.058,19.5l1.615-0.807
		c0.172-0.086,0.187-0.325,0.027-0.432L21.558,17.5l1.188-0.792c0.148-0.099,0.148-0.317,0-0.416L21.558,15.5l0.5-1.5h-6v11.793
		C16.186,25.793,16.314,25.744,16.411,25.646z"/>
	<path class="grey_17" d="M22.058,19l-1,0.5l0.803,1.205c0.096,0.144,0.02,0.339-0.147,0.381l-0.062,0.015l1.093,0.698
		C22.451,20.18,22.058,19,22.058,19L22.058,19z"/>
	<path class="sand_01" d="M16.058,0.167c-0.075,0-0.15,0.033-0.2,0.1L14.558,2l-1.638-0.819c-0.166-0.083-0.362,0.038-0.362,0.224V3
		l-1.111-0.741c-0.166-0.111-0.389,0.008-0.389,0.208V4L9.626,3.642C9.412,3.589,9.239,3.817,9.348,4.009l0.959,1.679l-1,2
		L7.519,8.035C7.323,8.073,7.248,8.316,7.39,8.457l0.668,0.668L7.273,9.909c-0.112,0.112-0.093,0.297,0.038,0.385l1.246,0.831
		l-0.757,1.514c-0.096,0.191,0.077,0.406,0.284,0.354l1.473-0.368v2.033c0,0.2,0.223,0.319,0.389,0.208l1.111-0.741l0.393,1.572
		c0.047,0.189,0.282,0.254,0.419,0.116l0.688-0.688l0.845,1.69c0.076,0.153,0.28,0.186,0.4,0.065l0.755-0.755l1.3,1.733
		c0.05,0.067,0.125,0.1,0.2,0.1V0.167z"/>
	<path class="sand_02" d="M16.258,17.858l1.3-1.733l0.755,0.755c0.121,0.121,0.324,0.088,0.4-0.065l0.845-1.69l0.688,0.688
		c0.137,0.137,0.372,0.072,0.419-0.116l0.393-1.572l1.111,0.741c0.166,0.111,0.389-0.008,0.389-0.208v-2.033l1.473,0.368
		c0.207,0.052,0.38-0.163,0.284-0.354l-0.757-1.514l1.246-0.831c0.131-0.088,0.15-0.273,0.038-0.385l-0.784-0.784l0.668-0.668
		c0.142-0.142,0.068-0.384-0.129-0.422l-1.788-0.348l-1-2l0.959-1.679c0.109-0.191-0.064-0.42-0.278-0.367L21.058,4V2.467
		c0-0.2-0.223-0.319-0.389-0.208L19.558,3V1.405c0-0.186-0.196-0.307-0.362-0.224L17.558,2l-1.3-1.733
		c-0.05-0.067-0.125-0.1-0.2-0.1v17.792C16.133,17.958,16.208,17.925,16.258,17.858z"/>
	<path class="grey_17" d="M23.058,25c0-0.197-0.005-0.394-0.013-0.59L21.058,26l-2.002-1.334c-0.008,0.164-0.17,0.277-0.328,0.225
		l-0.661-0.22c0.025,0.926,0.101,1.744,0.206,2.474L21.058,29l2.384-1.907C23.218,26.504,23.058,25.834,23.058,25z"/>
	<path class="tangerine_06" d="M18.068,24.67l0.661,0.22l-1.171-0.39l-0.477,0.477c0.051,2.496,0.205,3.91,0.631,4.566
		c0.186,0.286,0.5,0.457,0.841,0.457h0.411C18.536,28.842,18.131,27.119,18.068,24.67z"/>
	<path class="tangerine_05" d="M14.558,24.5l-0.51,0.17c-0.063,2.449-0.467,4.173-0.895,5.33h0.41c0.341,0,0.656-0.171,0.841-0.457
		c0.426-0.656,0.58-2.07,0.631-4.566L14.558,24.5z"/>
	<path class="grey_16" d="M13.387,24.89c-0.158,0.053-0.319-0.061-0.328-0.225L11.058,26L9.07,24.41
		C9.062,24.606,9.058,24.803,9.058,25c0,0.834-0.161,1.504-0.384,2.093L11.058,29l2.784-1.856c0.105-0.729,0.18-1.547,0.206-2.474
		L13.387,24.89z"/>
	<path class="grey_16" d="M10.402,21.086c-0.168-0.042-0.243-0.237-0.147-0.381l0.803-1.205l-1-0.5c0,0-0.393,1.18-0.686,2.8
		l1.093-0.698L10.402,21.086z"/>
	<path class="tangerine_04" d="M13.058,7c-0.552,0-1.053,0.224-1.415,0.586c-0.047-0.598-0.216-1.338-0.723-1.845
		C10.245,5.066,9.15,4.986,8.539,5.002c-0.264,0.007-0.473,0.216-0.48,0.48c-0.015,0.61,0.064,1.705,0.74,2.381
		c0.65,0.65,1.678,0.746,2.299,0.739C11.072,8.73,11.058,8.863,11.058,9c0,1.105,0.895,2,2,2s3-2,3-2S14.162,7,13.058,7z"/>
	<path class="tangerine_05" d="M23.576,5.002c-0.61-0.015-1.705,0.064-2.381,0.739c-0.507,0.507-0.676,1.248-0.723,1.845
		C20.11,7.224,19.61,7,19.058,7c-1.105,0-3,2-3,2s1.895,2,3,2s2-0.895,2-2c0-0.137-0.014-0.27-0.04-0.399
		c0.621,0.007,1.649-0.089,2.299-0.739c0.676-0.676,0.755-1.771,0.74-2.381C24.049,5.218,23.84,5.008,23.576,5.002z"/>
	<g>
		<path class="sand_02" d="M16.058,9c-0.729,0-1.412,0.646-2,0.901c-1.195,0.519-2,0.488-2,1.599c0,1.657,1.791,2.5,4,2.5V9z"/>
		<path class="sand_03" d="M20.058,11.5c0-1.11-0.804-1.079-1.999-1.598C17.47,9.646,16.787,9,16.058,9v5
			C18.267,14,20.058,13.157,20.058,11.5z"/>
	</g>
	<path class="white" d="M15.058,8.498V8.072C14.431,7.549,13.637,7,13.058,7l-0.003,0.003c-0.33,0.33-0.463,0.784-0.396,1.213
		c0.072,0.464,0.515,0.781,0.985,0.782l0.914,0.001C14.833,8.999,15.058,8.775,15.058,8.498z"/>
	<path class="grey_16" d="M14.558,7.68c-0.331-0.241-0.679-0.451-1-0.572v1.391c0,0.276,0.224,0.5,0.501,0.5h0
		c0.276,0,0.499-0.224,0.499-0.5L14.558,7.68z"/>
	<path class="grey_01" d="M17.058,8.498V8.072C17.684,7.549,18.479,7,19.058,7l0.003,0.003c0.33,0.33,0.463,0.784,0.396,1.213
		c-0.072,0.464-0.515,0.781-0.985,0.782l-0.914,0.001C17.282,8.999,17.058,8.775,17.058,8.498z"/>
	<path class="grey_17" d="M17.558,7.68c0.331-0.241,0.679-0.451,1-0.572v1.391c0,0.276-0.224,0.5-0.501,0.5h0
		c-0.276,0-0.499-0.224-0.499-0.5L17.558,7.68z"/>
	<path class="sand_03" d="M16.058,14v-2c-1.194,0-2.669,0.324-3.809,0.322C12.748,13.429,14.255,14,16.058,14z"/>
	<path class="sand_04" d="M19.867,12.322C18.726,12.324,17.252,12,16.058,12v2C17.861,14,19.367,13.429,19.867,12.322z"/>
	<path class="sand_03" d="M23.323,5.495c-2.241,0-2.4,1.728-2.381,2.371c0.004,0.138,0.121,0.242,0.258,0.24
		c2.258-0.024,2.403-1.739,2.379-2.373C23.574,5.598,23.459,5.495,23.323,5.495z"/>
	<path class="sand_02" d="M8.792,5.495c-0.136,0-0.25,0.103-0.256,0.238c-0.024,0.634,0.121,2.348,2.379,2.373
		c0.138,0.002,0.254-0.103,0.258-0.24C11.192,7.223,11.033,5.495,8.792,5.495z"/>
	<path class="grey_16" d="M16.058,10c-0.552,0-1-0.052-1,0.5c0,0.341,0.382,0.738,0.674,0.991c0.094,0.081,0.21,0.122,0.326,0.122
		V10z"/>
	<path class="grey_17" d="M16.384,11.491c0.292-0.253,0.674-0.65,0.674-0.991c0-0.552-0.448-0.5-1-0.5v1.613
		C16.174,11.613,16.29,11.573,16.384,11.491z"/>
</g>
</svg>
