<?xml version="1.0" encoding="utf-8"?>
<!-- Generator: Adobe Illustrator 20.1.0, SVG Export Plug-In . SVG Version: 6.00 Build 0)  -->
<!DOCTYPE svg PUBLIC "-//W3C//DTD SVG 1.1//EN" "http://www.w3.org/Graphics/SVG/1.1/DTD/svg11.dtd">
<svg version="1.1" xmlns="http://www.w3.org/2000/svg" xmlns:xlink="http://www.w3.org/1999/xlink" x="0px" y="0px" width="32px"
	 height="32px" viewBox="0 0 32 32" enable-background="new 0 0 32 32" xml:space="preserve">
<g id="labels">
</g>
<g id="icons">
	<g>
		<g>
			<path fill="#F7F7F7" d="M31.534,13.011c-1.661,5.267-10.286,17.727-15.553,16.065c-5.267-1.661-5.182-16.815-3.521-22.082
				s7.278-8.19,12.545-6.529S33.196,7.744,31.534,13.011z"/>
			<path fill="#EDEEEE" d="M31.534,13.011c-1.661,5.267-10.286,17.727-15.553,16.065l9.024-28.61
				C30.273,2.127,33.196,7.744,31.534,13.011z"/>
		</g>
		<path fill="#529CCF" d="M20.28,27.191c-0.756,1.322,0.072,3.203,1.851,4.202c1.778,0.999,3.833,0.738,4.589-0.584
			c0.756-1.322-0.072-3.203-1.851-4.202C23.091,25.608,21.036,25.869,20.28,27.191z"/>
		<path fill="#5CA3D5" d="M11.72,27.191c0.756,1.322-0.072,3.203-1.851,4.202c-1.778,0.999-3.833,0.738-4.589-0.584
			c-0.756-1.322,0.072-3.203,1.851-4.202C8.909,25.608,10.964,25.869,11.72,27.191z"/>
		<path fill="#65A9DC" d="M16,3v27c7.732,0,14-4.994,14-12.521S23.732,3,16,3z"/>
		<path fill="#71B1E1" d="M2,17.479C2,25.006,8.268,30,16,30V3C8.268,3,2,9.952,2,17.479z"/>
		<g>
			<path fill="#F7F7F7" d="M16,15c4.418,0,8,3.134,8,7c0,3.866-3.582,7-8,7V15z"/>
			<path fill="#FFFFFF" d="M8,22c0-3.866,3.582-7,8-7v14C11.582,29,8,25.866,8,22z"/>
			<g>
				<path fill="#2B3332" d="M18.512,22c0,0.827-1.077,1.45-2.512,1.463v-0.75c1.06-0.012,1.762-0.433,1.762-0.714
					S17.06,21.299,16,21.286v-0.75C17.434,20.55,18.512,21.173,18.512,22z"/>
				<path fill="#2B3332" d="M20.693,22c0,1.999-2.102,3.624-4.693,3.644v-0.75c2.178-0.018,3.943-1.308,3.943-2.894
					c0-1.587-1.766-2.877-3.943-2.895v-0.75C18.592,18.375,20.693,20,20.693,22z"/>
				<path fill="#2B3332" d="M16,27.077c3.381-0.021,6.125-2.289,6.125-5.077S19.381,16.942,16,16.922v-0.75
					c3.795,0.021,6.875,2.626,6.875,5.828c0,3.201-3.08,5.806-6.875,5.827V27.077z"/>
			</g>
			<g>
				<path fill="#373F3F" d="M15.579,20.909c0-0.207,0.168-0.375,0.375-0.375c0.016,0,0.03,0.002,0.046,0.003v0.75
					c-0.016,0-0.03-0.002-0.046-0.002C15.747,21.284,15.579,21.116,15.579,20.909z"/>
				<path fill="#373F3F" d="M12.307,20.909c0-1.435,1.603-2.558,3.647-2.558c0.016,0,0.03,0.003,0.046,0.004v0.75
					c-0.016,0-0.03-0.003-0.046-0.003c-1.57,0-2.897,0.828-2.897,1.808s1.327,1.807,2.897,1.807c0.016,0,0.03-0.002,0.046-0.002
					v0.75c-0.016,0-0.03,0.003-0.046,0.003C13.909,23.466,12.307,22.343,12.307,20.909z"/>
				<path fill="#373F3F" d="M15.579,27.454c0-0.207,0.168-0.375,0.375-0.375c0.016,0,0.03-0.002,0.046-0.002v0.75
					c-0.015,0-0.03,0.002-0.046,0.002C15.747,27.829,15.579,27.661,15.579,27.454z"/>
				<path fill="#373F3F" d="M15.954,16.17c0.016,0,0.03,0.002,0.046,0.002v0.75c-0.015,0-0.03-0.002-0.046-0.002
					c-2.801,0-5.079,1.79-5.079,3.989s2.278,3.988,5.079,3.988c0.016,0,0.03-0.003,0.046-0.003v0.75
					c-0.016,0-0.03,0.004-0.046,0.004c-3.214,0-5.829-2.126-5.829-4.738C10.125,18.296,12.74,16.17,15.954,16.17z"/>
			</g>
		</g>
		<g>
			<path fill="#FCD8DE" d="M16,13c-1.657,0-3,1.119-3,2.5c0,1.381,1.343,2.5,3,2.5V13z"/>
			<path fill="#FBCFD6" d="M19,15.5c0-1.381-1.343-2.5-3-2.5v5C17.657,18,19,16.881,19,15.5z"/>
			<path fill="#373F3F" d="M16,14c-0.828,0-1.5,0.448-1.5,1c0,0.552,0.672,1,1.5,1V14z"/>
			<path fill="#2B3332" d="M17.5,15c0-0.552-0.672-1-1.5-1v2C16.828,16,17.5,15.552,17.5,15z"/>
		</g>
		<g>
			<path fill="#F7F7F7" d="M19.579,12.078c1.064,1.725,3.235,2.417,4.848,1.545c1.613-0.871,2.058-2.976,0.994-4.701
				s-3.235-2.417-4.848-1.545C18.959,8.248,18.514,10.353,19.579,12.078z"/>
			<path fill="#2B3332" d="M19.579,12.078c0,0,1.691,1.689,4.126,0.374s1.716-3.53,1.716-3.53c-1.064-1.725-3.235-2.417-4.848-1.545
				C18.959,8.248,18.514,10.353,19.579,12.078z"/>
		</g>
		<g>
			<g>
				<path fill="#FFFFFF" d="M12.421,12.078c-1.064,1.725-3.235,2.417-4.848,1.545s-2.058-2.976-0.994-4.701s3.235-2.417,4.848-1.545
					S13.486,10.353,12.421,12.078z"/>
				<path fill="#373F3F" d="M12.421,12.078c0,0-1.691,1.689-4.126,0.374s-1.716-3.53-1.716-3.53
					c1.064-1.725,3.235-2.417,4.848-1.545S13.486,10.353,12.421,12.078z"/>
			</g>
		</g>
		<circle fill="#F7F7F7" cx="22" cy="9" r="1"/>
		<circle fill="#FFFFFF" cx="10" cy="9" r="1"/>
	</g>
</g>
</svg>
