<?xml version="1.0" encoding="utf-8"?>
<!-- Generator: Adobe Illustrator 20.1.0, SVG Export Plug-In . SVG Version: 6.00 Build 0)  -->
<!DOCTYPE svg PUBLIC "-//W3C//DTD SVG 1.1//EN" "http://www.w3.org/Graphics/SVG/1.1/DTD/svg11.dtd">
<svg version="1.1" id="icons" xmlns="http://www.w3.org/2000/svg" xmlns:xlink="http://www.w3.org/1999/xlink" x="0px" y="0px"
	 width="32px" height="32px" viewBox="0 0 32 32" style="enable-background:new 0 0 32 32;" xml:space="preserve">
<style type="text/css">
	.white{fill:#FFFFFF;}
	.grey_01{fill:#F7F7F7;}
	.grey_02{fill:#EDEEEE;}
	.grey_16{fill:#373F3F;}
	.grey_17{fill:#2B3332;}
	.periwinkle_08{fill:#71B1E1;}
	.periwinkle_09{fill:#65A9DC;}
	.periwinkle_10{fill:#5CA3D5;}
	.periwinkle_11{fill:#529CCF;}
	.st0{fill:#78DF7C;}
	.st1{fill:#54B668;}
	.st2{fill:#7A63AD;}
	.st3{fill:#866EBA;}
	.st4{fill:#D2E6F3;}
	.st5{fill:#C1DDEE;}
	.st6{fill:#E0C193;}
	.st7{fill:#DBBA8C;}
	.st8{fill:#7FB8E0;}
	.st9{fill:#8EC0E0;}
	.st10{fill:#9FC9E4;}
	.st11{fill:#FFEAA7;}
	.st12{fill:#FFE28A;}
	.st13{fill:#FF6B8B;}
	.st14{fill:#F4A984;}
	.st15{fill:#EA9C7A;}
	.st16{fill:#FEF1C6;}
	.st17{fill:#E85160;}
	.st18{fill:#D84459;}
	.st19{fill:#E55D53;}
	.st20{fill:#FFD400;}
	.st21{fill:#FF8F00;}
	.st22{fill:#FF4A00;}
	.st23{fill:#F7D684;}
	.st24{fill:#FAE09F;}
	.st25{fill:#FDEBBB;}
	.st26{fill:#FFF3D9;}
	.st27{fill:#FFD96C;}
	.st28{fill:#9ACC2E;}
	.st29{fill:#AADB3D;}
	.st30{fill:#A2D336;}
	.st31{fill:#93C427;}
	.st32{fill:#F79654;}
	.st33{fill:#FFD04D;}
	.st34{fill:#FCA15E;}
	.st35{fill:#A9E260;}
	.st36{fill:#97DB4A;}
	.st37{fill:#B1E346;}
	.st38{fill:#FCD8DE;}
	.st39{fill:#CDA073;}
	.st40{fill:#C09265;}
	.st41{fill:#A7794C;}
	.st42{fill:#96643B;}
	.st43{fill:#845331;}
	.st44{fill:#B38658;}
	.st45{fill:#9E6E43;}
	.st46{fill:#8D5B36;}
	.st47{fill:#FBCFD6;}
	.st48{fill:#FAC4D1;}
	.st49{fill:#FAB8CD;}
	.st50{fill:#F9ADC8;}
	.st51{fill:#F8A1C4;}
	.st52{fill:#F297BE;}
	.st53{fill:#EA8BB4;}
	.st54{fill:#E8BA36;}
	.st55{fill:#E0B12E;}
	.st56{fill:#FFC172;}
	.st57{fill:#FFAD68;}
	.st58{fill:#FFB76D;}
	.st59{fill:#6E57A0;}
	.st60{fill:#675099;}
	.st61{fill:#F3586F;}
	.st62{fill:#604893;}
	.st63{fill:#CBEB6B;}
	.st64{fill:#4EAC5D;}
	.st65{fill:#BEE758;}
	.st66{fill:#6CD275;}
	.st67{fill:#48A353;}
	.st68{fill:#60C46F;}
	.st69{fill:#D9F07D;}
	.st70{fill:#E6F490;}
	.st71{fill:#4896C8;}
	.st72{fill:#4390BF;}
	.st73{fill:#F7C845;}
	.st74{fill:#ECCD50;}
	.st75{fill:#FF8D6E;}
	.st76{fill:#FF805D;}
	.st77{fill:#8BC07A;}
	.st78{fill:#F0C13E;}
	.st79{fill:#9A3644;}
	.st80{fill:#8A323F;}
	.st81{fill:#945BA0;}
	.st82{fill:#A366AD;}
	.st83{fill:#B370B9;}
	.st84{fill:#C27BC6;}
	.st85{fill:#F6B392;}
	.st86{fill:#D285D2;}
	.st87{fill:#DBA728;}
	.st88{fill:#505957;}
	.st89{fill:#56C7CD;}
	.st90{fill:#434C4B;}
	.st91{fill:#687271;}
	.st92{fill:#5C6664;}
	.st93{fill:#51BAC5;}
	.st94{fill:#D64F45;}
	.st95{fill:#D1D4D4;}
	.st96{fill:#E3E5E5;}
	.st97{fill:#DADDDC;}
	.st98{fill:#845194;}
	.st99{fill:#5BD3D5;}
	.st100{fill:#46B080;}
	.st101{fill:#53BF8C;}
	.st102{fill:#6EDCA2;}
	.st103{fill:#7AEBAC;}
	.st104{fill:#60CD96;}
	.st105{fill:#E8803A;}
	.st106{fill:#0A6F8E;}
	.st107{fill:#0F769B;}
	.st108{fill:#EF8C48;}
	.st109{fill:#838C8A;}
	.st110{fill:#757F7E;}
	.st111{fill:#D1473D;}
	.st112{fill:#9179C6;}
	.st113{fill:#906DBB;}
	.st114{fill:#A78EDD;}
	.st115{fill:#9D85D3;}
	.st116{fill:#E2EFF7;}
	.st117{fill:#B0D3EA;}
	.st118{fill:#F7BC48;}
	.st119{fill:#FFC550;}
	.st120{fill:#FFCF6E;}
	.st121{fill:#4CAEBC;}
	.st122{fill:#47A1B4;}
	.st123{fill:#4295AC;}
	.st124{fill:#FDE2E6;}
	.st125{fill:#FFF5D8;}
	.st126{fill:#99533D;}
	.st127{fill:#914C39;}
	.st128{fill:#D4C9EF;}
	.st129{fill:#E3DBF4;}
	.st130{fill:#F1EDFA;}
	.st131{fill:#C6B7E9;}
	.st132{fill:#B8A5E4;}
	.st133{fill:#F0C877;}
	.st134{fill:#E8BA67;}
	.st135{fill:#DDAA5F;}
	.st136{fill:#D4994F;}
	.st137{fill:#C98B44;}
	.st138{fill:#BF7D3C;}
	.st139{fill:#909997;}
	.st140{fill:#724D31;}
	.st141{fill:#93C2CA;}
	.st142{fill:#99C7CE;}
	.st143{fill:#9FCCD3;}
	.st144{fill:#ACD7DD;}
	.st145{fill:#B9E2E7;}
	.st146{fill:#A5D1D8;}
	.st147{fill:#88B9C3;}
	.st148{fill:#7EB1BD;}
	.st149{fill:#C8CCCB;}
	.st150{fill:none;}
	.st151{fill:#4F4032;}
	.st152{fill:#604631;}
	.st153{fill:#F9BDA0;}
	.st154{fill:#E7685F;}
	.st155{fill:#C84054;}
	.st156{fill:#ABB2B1;}
	.st157{fill:#9DA5A4;}
	.st158{fill:#F74000;}
	.st159{fill:#F97C00;}
	.st160{fill:#F9C900;}
	.st161{fill:#EFD4A7;}
	.st162{fill:#EACEA1;}
	.st163{fill:#FCE8CC;}
	.st164{fill:#F5DEB9;}
	.st165{fill:#CFAB81;}
	.st166{fill:#D5B387;}
	.st167{fill:#3A4274;}
	.st168{fill:#707EB7;}
	.st169{fill:#424B7E;}
	.st170{fill:#7C8AC4;}
	.st171{fill:#FFD98D;}
	.st172{fill:#8694D1;}
	.st173{fill:#9AA6D6;}
	.st174{fill:#ABB4DD;}
	.st175{fill:#FDECEF;}
	.st176{fill:#137FA0;}
	.st177{fill:#EB6B48;}
	.st178{fill:#F57552;}
	.st179{fill:#515E91;}
	.st180{fill:#5C699E;}
	.st181{fill:#6673AA;}
	.st182{fill:#504484;}
	.st183{fill:#FF5F7E;}
	.st184{fill:#EBCEEB;}
	.st185{fill:#E5BDE5;}
	.st186{fill:#E0ABDF;}
	.st187{fill:#D799D6;}
	.st188{fill:#3B8FA3;}
	.st189{fill:#348B99;}
	.st190{fill:#F7F7F7;}
	.st191{fill:#3AA176;}
	.st192{fill:#84ED82;}
	.st193{fill:#EFEAEA;}
	.st194{fill:#FF9A7E;}
	.st195{fill:#FCD2BE;}
	.st196{fill:#FCDDCF;}
	.st197{fill:#C683C8;}
	.st198{fill:#A55F49;}
	.st199{fill:#FEF5F7;}
</style>
<g>
	<polygon class="periwinkle_11" points="18,30 21,30 20,23 18,23 	"/>
	<path class="periwinkle_10" d="M17,30.667C17,32,18.567,32,20.5,32s3.5,0,3.5-1.333C24,28.458,22.433,28,20.5,28
		S17,28.458,17,30.667z"/>
	<polygon class="periwinkle_10" points="14,30 11,30 12,23 14,23 	"/>
	<path class="periwinkle_09" d="M15,30.667C15,32,13.433,32,11.5,32S8,32,8,30.667C8,28.458,9.567,28,11.5,28S15,28.458,15,30.667z"
		/>
	<path class="periwinkle_08" d="M10.916,1.285c-0.921-1-2.336-1.531-3.872-1.173C5.699,0.425,4.587,1.466,4.185,2.788
		C3.858,3.861,3.985,4.874,4.403,5.722c0.274,0.557,0.233,1.214-0.065,1.759C3.485,9.037,3,10.879,3,13c0,7.41,5.82,11.5,13,11.5
		v-23c-1.146,0-2.255,0.11-3.312,0.319C12.044,1.946,11.361,1.768,10.916,1.285z"/>
	<path class="periwinkle_09" d="M27.597,5.722c0.417-0.848,0.544-1.861,0.218-2.934c-0.402-1.321-1.514-2.363-2.859-2.676
		c-1.536-0.358-2.951,0.174-3.872,1.173c-0.445,0.483-1.129,0.661-1.772,0.534C18.255,1.61,17.146,1.5,16,1.5v23
		c7.18,0,13-4.09,13-11.5c0-2.121-0.485-3.963-1.337-5.519C27.365,6.936,27.324,6.279,27.597,5.722z"/>
	<circle class="grey_01" cx="24" cy="4" r="3"/>
	<circle class="white" cx="8" cy="4" r="3"/>
	<circle class="grey_16" cx="8" cy="4" r="2"/>
	<circle class="grey_17" cx="24" cy="4" r="2"/>
	<circle class="grey_01" cx="23.5" cy="3.5" r="0.5"/>
	<circle class="white" cx="8.5" cy="3.5" r="0.5"/>
	<g>
		<path class="grey_01" d="M16,8c4.418,0,8,3.134,8,7c0,3.866-3.582,7-8,7V8z"/>
		<path class="white" d="M8,15c0-3.866,3.582-7,8-7v14C11.582,22,8,18.866,8,15z"/>
		<g>
			<path class="grey_17" d="M18.512,15c0,0.827-1.077,1.45-2.512,1.463v-0.75c1.06-0.012,1.762-0.433,1.762-0.714
				S17.06,14.299,16,14.286v-0.75C17.434,13.55,18.512,14.173,18.512,15z"/>
			<path class="grey_17" d="M20.693,15c0,1.999-2.102,3.624-4.693,3.644v-0.75c2.178-0.018,3.943-1.308,3.943-2.894
				c0-1.587-1.766-2.877-3.943-2.895v-0.75C18.592,11.375,20.693,13,20.693,15z"/>
			<path class="grey_17" d="M16,20.077c3.381-0.021,6.125-2.289,6.125-5.077S19.381,9.942,16,9.922v-0.75
				c3.795,0.021,6.875,2.626,6.875,5.828c0,3.201-3.08,5.806-6.875,5.827V20.077z"/>
		</g>
		<g>
			<path class="grey_16" d="M15.579,13.909c0-0.207,0.168-0.375,0.375-0.375c0.016,0,0.03,0.002,0.046,0.003v0.75
				c-0.016,0-0.03-0.002-0.046-0.002C15.747,14.284,15.579,14.116,15.579,13.909z"/>
			<path class="grey_16" d="M12.307,13.909c0-1.435,1.603-2.558,3.647-2.558c0.016,0,0.03,0.003,0.046,0.004v0.75
				c-0.016,0-0.03-0.003-0.046-0.003c-1.57,0-2.897,0.828-2.897,1.808s1.327,1.807,2.897,1.807c0.016,0,0.03-0.002,0.046-0.002v0.75
				c-0.016,0-0.03,0.003-0.046,0.003C13.909,16.466,12.307,15.343,12.307,13.909z"/>
			<path class="grey_16" d="M15.579,20.454c0-0.207,0.168-0.375,0.375-0.375c0.016,0,0.03-0.002,0.046-0.002v0.75
				c-0.015,0-0.03,0.002-0.046,0.002C15.747,20.829,15.579,20.661,15.579,20.454z"/>
			<path class="grey_16" d="M15.954,9.17c0.016,0,0.03,0.002,0.046,0.002v0.75c-0.015,0-0.03-0.002-0.046-0.002
				c-2.801,0-5.079,1.79-5.079,3.989s2.278,3.988,5.079,3.988c0.016,0,0.03-0.003,0.046-0.003v0.75c-0.016,0-0.03,0.004-0.046,0.004
				c-3.214,0-5.829-2.126-5.829-4.738C10.125,11.296,12.74,9.17,15.954,9.17z"/>
		</g>
	</g>
	<path class="grey_01" d="M1,20l3-3l1,1h2.382c0.379,0,0.725,0.214,0.894,0.553l0.401,0.803c0.192,0.385,0.117,0.85-0.187,1.154
		L8,21l0.586,0.586c0.781,0.781,0.781,2.047,0,2.828l-1.172,1.172c-0.781,0.781-2.047,0.781-2.828,0l-3-3
		C1.211,22.211,1,21.702,1,21.172V20z"/>
	<path class="periwinkle_09" d="M1,20v-2.729c0-2.087,0.653-4.121,1.867-5.818l0.279-0.39c0,0-0.271,4.312,0.854,5.938L1,20z"/>
	<path class="grey_02" d="M31,20l-3-3l-1,1h-2.382c-0.379,0-0.725,0.214-0.894,0.553l-0.401,0.803
		c-0.192,0.385-0.117,0.85,0.187,1.154L24,21l-0.586,0.586c-0.781,0.781-0.781,2.047,0,2.828l1.172,1.172
		c0.781,0.781,2.047,0.781,2.828,0l3-3C30.789,22.211,31,21.702,31,21.172V20z"/>
	<path class="periwinkle_10" d="M31,20v-2.729c0-2.087-0.653-4.121-1.867-5.818l-0.279-0.39c0,0,0.271,4.312-0.854,5.938L31,20z"/>
	<circle class="grey_16" cx="14.5" cy="6.5" r="0.5"/>
	<circle class="grey_17" cx="17.5" cy="6.5" r="0.5"/>
</g>
</svg>
