<?xml version="1.0" encoding="utf-8"?>
<!-- Generator: Adobe Illustrator 20.1.0, SVG Export Plug-In . SVG Version: 6.00 Build 0)  -->
<!DOCTYPE svg PUBLIC "-//W3C//DTD SVG 1.1//EN" "http://www.w3.org/Graphics/SVG/1.1/DTD/svg11.dtd">
<svg version="1.1" id="icons" xmlns="http://www.w3.org/2000/svg" xmlns:xlink="http://www.w3.org/1999/xlink" x="0px" y="0px"
	 width="32px" height="32px" viewBox="0 0 32 32" style="enable-background:new 0 0 32 32;" xml:space="preserve">
<style type="text/css">
	.white{fill:#FFFFFF;}
	.grey_01{fill:#F7F7F7;}
	.grey_09{fill:#909997;}
	.grey_16{fill:#373F3F;}
	.grey_17{fill:#2B3332;}
	.lemon_02{fill:#FEF1C6;}
	.lemon_03{fill:#FFEAA7;}
	.lemon_05{fill:#FFD96C;}
	.lemon_06{fill:#FFD04D;}
	.lemon_07{fill:#F7C845;}
	.lemon_08{fill:#F0C13E;}
	.lemon_09{fill:#E8BA36;}
	.sand_06{fill:#E8BA67;}
	.sand_07{fill:#DDAA5F;}
	.dirt_14{fill:#9E6E43;}
	.dirt_15{fill:#96643B;}
	.dirt_16{fill:#8D5B36;}
	.dirt_17{fill:#845331;}
	.st0{fill:#78DF7C;}
	.st1{fill:#54B668;}
	.st2{fill:#7A63AD;}
	.st3{fill:#866EBA;}
	.st4{fill:#D2E6F3;}
	.st5{fill:#C1DDEE;}
	.st6{fill:#E0C193;}
	.st7{fill:#DBBA8C;}
	.st8{fill:#7FB8E0;}
	.st9{fill:#8EC0E0;}
	.st10{fill:#71B1E1;}
	.st11{fill:#9FC9E4;}
	.st12{fill:#FFE28A;}
	.st13{fill:#FF6B8B;}
	.st14{fill:#F4A984;}
	.st15{fill:#EA9C7A;}
	.st16{fill:#E85160;}
	.st17{fill:#D84459;}
	.st18{fill:#E55D53;}
	.st19{fill:#FFD400;}
	.st20{fill:#FF8F00;}
	.st21{fill:#FF4A00;}
	.st22{fill:#F7D684;}
	.st23{fill:#FAE09F;}
	.st24{fill:#FDEBBB;}
	.st25{fill:#FFF3D9;}
	.st26{fill:#9ACC2E;}
	.st27{fill:#AADB3D;}
	.st28{fill:#A2D336;}
	.st29{fill:#93C427;}
	.st30{fill:#F79654;}
	.st31{fill:#FCA15E;}
	.st32{fill:#A9E260;}
	.st33{fill:#97DB4A;}
	.st34{fill:#B1E346;}
	.st35{fill:#FCD8DE;}
	.st36{fill:#CDA073;}
	.st37{fill:#C09265;}
	.st38{fill:#A7794C;}
	.st39{fill:#B38658;}
	.st40{fill:#FBCFD6;}
	.st41{fill:#FAC4D1;}
	.st42{fill:#FAB8CD;}
	.st43{fill:#F9ADC8;}
	.st44{fill:#F8A1C4;}
	.st45{fill:#F297BE;}
	.st46{fill:#EA8BB4;}
	.st47{fill:#E0B12E;}
	.st48{fill:#FFC172;}
	.st49{fill:#FFAD68;}
	.st50{fill:#FFB76D;}
	.st51{fill:#6E57A0;}
	.st52{fill:#675099;}
	.st53{fill:#F3586F;}
	.st54{fill:#604893;}
	.st55{fill:#CBEB6B;}
	.st56{fill:#4EAC5D;}
	.st57{fill:#BEE758;}
	.st58{fill:#6CD275;}
	.st59{fill:#48A353;}
	.st60{fill:#60C46F;}
	.st61{fill:#D9F07D;}
	.st62{fill:#E6F490;}
	.st63{fill:#4896C8;}
	.st64{fill:#4390BF;}
	.st65{fill:#5CA3D5;}
	.st66{fill:#529CCF;}
	.st67{fill:#ECCD50;}
	.st68{fill:#FF8D6E;}
	.st69{fill:#FF805D;}
	.st70{fill:#EDEEEE;}
	.st71{fill:#65A9DC;}
	.st72{fill:#8BC07A;}
	.st73{fill:#9A3644;}
	.st74{fill:#8A323F;}
	.st75{fill:#945BA0;}
	.st76{fill:#A366AD;}
	.st77{fill:#B370B9;}
	.st78{fill:#C27BC6;}
	.st79{fill:#F6B392;}
	.st80{fill:#D285D2;}
	.st81{fill:#DBA728;}
	.st82{fill:#505957;}
	.st83{fill:#56C7CD;}
	.st84{fill:#434C4B;}
	.st85{fill:#687271;}
	.st86{fill:#5C6664;}
	.st87{fill:#51BAC5;}
	.st88{fill:#D64F45;}
	.st89{fill:#D1D4D4;}
	.st90{fill:#E3E5E5;}
	.st91{fill:#DADDDC;}
	.st92{fill:#845194;}
	.st93{fill:#5BD3D5;}
	.st94{fill:#46B080;}
	.st95{fill:#53BF8C;}
	.st96{fill:#6EDCA2;}
	.st97{fill:#7AEBAC;}
	.st98{fill:#60CD96;}
	.st99{fill:#E8803A;}
	.st100{fill:#0A6F8E;}
	.st101{fill:#0F769B;}
	.st102{fill:#EF8C48;}
	.st103{fill:#838C8A;}
	.st104{fill:#757F7E;}
	.st105{fill:#D1473D;}
	.st106{fill:#9179C6;}
	.st107{fill:#906DBB;}
	.st108{fill:#A78EDD;}
	.st109{fill:#9D85D3;}
	.st110{fill:#E2EFF7;}
	.st111{fill:#B0D3EA;}
	.st112{fill:#F7BC48;}
	.st113{fill:#FFC550;}
	.st114{fill:#FFCF6E;}
	.st115{fill:#F0C13E;}
	.st116{fill:#4CAEBC;}
	.st117{fill:#47A1B4;}
	.st118{fill:#4295AC;}
	.st119{fill:#FDE2E6;}
	.st120{fill:#FEF1C6;}
	.st121{fill:#FFF5D8;}
	.st122{fill:#99533D;}
	.st123{fill:#914C39;}
	.st124{fill:#D4C9EF;}
	.st125{fill:#E3DBF4;}
	.st126{fill:#F1EDFA;}
	.st127{fill:#C6B7E9;}
	.st128{fill:#B8A5E4;}
	.st129{fill:#F0C877;}
	.st130{fill:#D4994F;}
	.st131{fill:#C98B44;}
	.st132{fill:#BF7D3C;}
	.st133{fill:#724D31;}
	.st134{fill:#93C2CA;}
	.st135{fill:#99C7CE;}
	.st136{fill:#9FCCD3;}
	.st137{fill:#ACD7DD;}
	.st138{fill:#B9E2E7;}
	.st139{fill:#A5D1D8;}
	.st140{fill:#88B9C3;}
	.st141{fill:#7EB1BD;}
	.st142{fill:#C8CCCB;}
	.st143{fill:none;}
	.st144{fill:#4F4032;}
	.st145{fill:#604631;}
	.st146{fill:#9E6E43;}
	.st147{fill:#F9BDA0;}
	.st148{fill:#E7685F;}
	.st149{fill:#C84054;}
	.st150{fill:#ABB2B1;}
	.st151{fill:#9DA5A4;}
	.st152{fill:#FFD96C;}
	.st153{fill:#FFD04D;}
	.st154{fill:#F74000;}
	.st155{fill:#F97C00;}
	.st156{fill:#F9C900;}
	.st157{fill:#EFD4A7;}
	.st158{fill:#EACEA1;}
	.st159{fill:#FCE8CC;}
	.st160{fill:#F5DEB9;}
	.st161{fill:#CFAB81;}
	.st162{fill:#D5B387;}
	.st163{fill:#3A4274;}
	.st164{fill:#707EB7;}
	.st165{fill:#424B7E;}
	.st166{fill:#7C8AC4;}
	.st167{fill:#FFD98D;}
	.st168{fill:#8694D1;}
	.st169{fill:#9AA6D6;}
	.st170{fill:#ABB4DD;}
	.st171{fill:#FDECEF;}
	.st172{fill:#137FA0;}
	.st173{fill:#EB6B48;}
	.st174{fill:#F57552;}
	.st175{fill:#515E91;}
	.st176{fill:#5C699E;}
	.st177{fill:#6673AA;}
	.st178{fill:#504484;}
	.st179{fill:#FF5F7E;}
	.st180{fill:#EBCEEB;}
	.st181{fill:#E5BDE5;}
	.st182{fill:#E0ABDF;}
	.st183{fill:#D799D6;}
	.st184{fill:#3B8FA3;}
	.st185{fill:#348B99;}
	.st186{fill:#F7F7F7;}
	.st187{fill:#3AA176;}
	.st188{fill:#84ED82;}
	.st189{fill:#EFEAEA;}
	.st190{fill:#FF9A7E;}
	.st191{fill:#FCD2BE;}
	.st192{fill:#FCDDCF;}
	.st193{fill:#C683C8;}
	.st194{fill:#A55F49;}
	.st195{fill:#FEF5F7;}
</style>
<g>
	<path class="lemon_09" d="M14,23c0,0,1.997,4,6,4c6,0,5.933-5,9-5h2.474c0.297,0,0.525-0.254,0.498-0.55
		C31.852,20.151,31.228,17,28,17c-4.067,0-6,5-10,2L14,23z"/>
	<path class="dirt_17" d="M29,22c0.38,0,0.71,0,1,0v-4.455C29.479,17.214,28.829,17,28,17v5.208C28.298,22.077,28.625,22,29,22z"/>
	<path class="dirt_17" d="M24.187,18.373c-0.658,0.411-1.29,0.827-1.934,1.132l2.787,5.575c0.62-0.601,1.113-1.243,1.606-1.789
		L24.187,18.373z"/>
	<path class="lemon_07" d="M22.276,23.362l-2.829,1.415C19.2,24.9,19.1,25.2,19.224,25.447L21,29l-0.726,0.726
		C20.098,29.902,20,30.139,20,30.387V31.5c0,0.276,0.224,0.5,0.5,0.5h5c0.276,0,0.5-0.224,0.5-0.5v0
		c0-0.312-0.156-0.604-0.416-0.777L23,29v-5.191C23,23.437,22.609,23.196,22.276,23.362z"/>
	<path class="dirt_16" d="M21,12l-0.822,4.109c-0.116,0.581-0.402,1.114-0.82,1.533L19,18h-3v-6H21z"/>
	<path class="dirt_15" d="M11,12l0.822,4.109c0.116,0.581,0.402,1.114,0.82,1.533L13,18h3v-6H11z"/>
	<path class="dirt_14" d="M12,8H7C6.448,8,6,8.448,6,9v0.519C6,9.823,6.138,10.11,6.375,10.3L11,14l3-3L12,8z"/>
	<path class="dirt_15" d="M20,8h5c0.552,0,1,0.448,1,1v0.519c0,0.304-0.138,0.591-0.375,0.781L21,14l-3-3L20,8z"/>
	<path class="lemon_06" d="M7.822,11.391L6.083,14l-2.008-1.004l-0.992-1.983V9.256c0-0.135-0.108-0.246-0.243-0.25H2.839
		C2.324,8.992,1.902,9.412,1.914,9.927l0.052,2.189l0.035,1.468l0.011,0.464l0.706-0.007l3.097,1.971
		c0.435,0.277,1.01,0.177,1.326-0.23l2.366-3.042L7.822,11.391z"/>
	<path class="lemon_07" d="M31.505,13.555l-1.681-0.21l1.31-1.685c0.175-0.225,0.155-0.545-0.046-0.746l-0.002-0.002
		c-0.201-0.201-0.521-0.221-0.746-0.046l-1.685,1.31l-0.21-1.681C28.409,10.212,28.169,10,27.884,10h-0.002
		c-0.285,0-0.525,0.212-0.561,0.495l-0.373,3.031L26,14l-1.739-2.609l-1.686,1.348l2.366,3.042c0.317,0.407,0.891,0.507,1.326,0.23
		l1.271-0.809h0l3.967-0.524C31.788,14.644,32,14.403,32,14.118v-0.002C32,13.831,31.788,13.591,31.505,13.555z"/>
	<path class="lemon_05" d="M14,3l-2.832-2.852c-0.35-0.35-0.941-0.033-0.844,0.452L11,4L9.395,7.21c-0.226,0.451-0.08,1,0.34,1.279
		l1.268,0.845c0.66,0.44,1.241,0.989,1.717,1.624L14.7,13.6c0.189,0.252,0.485,0.4,0.8,0.4H16V3H14z"/>
	<path class="lemon_06" d="M18,3l2.832-2.852c0.35-0.35,0.941-0.033,0.844,0.452L21,4l1.605,3.21c0.226,0.451,0.08,1-0.34,1.279
		l-1.268,0.845c-0.66,0.44-1.241,0.989-1.717,1.624L17.3,13.6c-0.189,0.252-0.485,0.4-0.8,0.4H16V3H18z"/>
	<path class="lemon_02" d="M14.613,10.613L14.33,10.33c-0.189-0.189-0.491-0.196-0.689-0.017c-1.468,1.325-6.776,6.576-3.139,10.241
		c0.163,0.165,0.444,0.038,0.428-0.194c-0.109-1.593-0.006-5.838,3.657-9.018C14.805,11.152,14.817,10.817,14.613,10.613z"/>
	<path class="lemon_03" d="M17.387,10.613l0.282-0.282c0.189-0.189,0.491-0.196,0.689-0.017c1.468,1.325,6.776,6.576,3.139,10.241
		c-0.163,0.165-0.444,0.038-0.428-0.194c0.109-1.593,0.006-5.838-3.657-9.018C17.195,11.152,17.183,10.817,17.387,10.613z"/>
	<path class="grey_09" d="M3,6.5C3,5.119,2.605,4,1.5,4S0,5.119,0,6.5c0,1.241,0.324,2.263,1.191,2.459l-0.185,7.785
		C1.003,16.884,1.116,17,1.256,17h0.488c0.14,0,0.253-0.116,0.25-0.256L1.809,8.959C2.676,8.763,3,7.741,3,6.5z"/>
	<path class="lemon_05" d="M3.505,15.062l-2.513,0.314C0.465,15.442,0,15.031,0,14.5v0c0-0.531,0.465-0.942,0.992-0.876l2.513,0.314
		C3.788,13.973,4,14.214,4,14.499v0.002C4,14.786,3.788,15.027,3.505,15.062z"/>
	<path class="lemon_05" d="M3.505,13.062l-2.513,0.314C0.465,13.442,0,13.031,0,12.5v0c0-0.531,0.465-0.942,0.992-0.876l2.513,0.314
		C3.788,11.973,4,12.214,4,12.499v0.002C4,12.786,3.788,13.027,3.505,13.062z"/>
	<path class="lemon_06" d="M9.724,23.362l2.829,1.415C12.8,24.9,12.9,25.2,12.776,25.447L11,29l0.726,0.726
		C11.902,29.902,12,30.139,12,30.387V31.5c0,0.276-0.224,0.5-0.5,0.5h-5C6.224,32,6,31.776,6,31.5v0
		c0-0.312,0.156-0.604,0.416-0.777L9,29v-5.191C9,23.437,9.391,23.196,9.724,23.362z"/>
	<polygon class="lemon_06" points="13,18 14,23 16,23 16,18 	"/>
	<polygon class="lemon_07" points="19,18 18,23 16,23 16,18 	"/>
	<polygon class="lemon_07" points="10.333,23.667 12.333,24.667 14,23 13.5,20.5 	"/>
	<polygon class="lemon_08" points="18.5,20.5 18,23 19.667,24.667 21.667,23.667 	"/>
	<path class="sand_06" d="M15.997,4.001c-0.068-0.005-0.137,0.028-0.163,0.106l-0.298,0.917h-0.964
		c-0.153,0-0.217,0.196-0.093,0.286l0.78,0.566l-0.298,0.917c-0.047,0.146,0.119,0.267,0.244,0.177l0.78-0.567l0.012,0.009V4.001z"
		/>
	<path class="sand_07" d="M17.396,5.023h-0.964l-0.298-0.917c-0.022-0.068-0.079-0.101-0.138-0.106v2.411l0.767,0.558
		c0.124,0.09,0.291-0.031,0.244-0.177L16.71,5.876l0.78-0.566C17.613,5.219,17.55,5.023,17.396,5.023z"/>
	<path class="grey_01" d="M17.138,8.431l1.753-0.877c0.187-0.094,0.4,0.071,0.356,0.275l-0.164,0.774
		C19.035,8.835,18.831,9,18.595,9H17.25C17.112,9,17,8.888,17,8.75V8.655C17,8.56,17.054,8.473,17.138,8.431z"/>
	<path class="white" d="M14.862,8.431l-1.753-0.877c-0.187-0.094-0.4,0.071-0.356,0.275l0.164,0.774C12.965,8.835,13.169,9,13.405,9
		h1.345C14.888,9,15,8.888,15,8.75V8.655C15,8.56,14.946,8.473,14.862,8.431z"/>
	<path class="grey_17" d="M17.5,8.25l1-0.5v1C18.5,8.888,18.388,9,18.25,9h-0.5c-0.138,0-0.25-0.112-0.25-0.25V8.25z"/>
	<path class="grey_16" d="M14.5,8.25l-1-0.5v1C13.5,8.888,13.612,9,13.75,9h0.5c0.138,0,0.25-0.112,0.25-0.25V8.25z"/>
</g>
</svg>
