<?xml version="1.0" encoding="utf-8"?>
<!-- Generator: Adobe Illustrator 20.1.0, SVG Export Plug-In . SVG Version: 6.00 Build 0)  -->
<!DOCTYPE svg PUBLIC "-//W3C//DTD SVG 1.1//EN" "http://www.w3.org/Graphics/SVG/1.1/DTD/svg11.dtd">
<svg version="1.1" id="icons" xmlns="http://www.w3.org/2000/svg" xmlns:xlink="http://www.w3.org/1999/xlink" x="0px" y="0px"
	 width="32px" height="32px" viewBox="0 0 32 32" style="enable-background:new 0 0 32 32;" xml:space="preserve">
<style type="text/css">
	.grey_16{fill:#373F3F;}
	.grey_17{fill:#2B3332;}
	.aloe_04{fill:#6CD275;}
	.aloe_05{fill:#60C46F;}
	.aloe_06{fill:#54B668;}
	.rose_09{fill:#F8A1C4;}
	.rose_10{fill:#F297BE;}
	.lemon_03{fill:#FFEAA7;}
	.lemon_04{fill:#FFE28A;}
	.lemon_05{fill:#FFD96C;}
	.dirt_16{fill:#8D5B36;}
	.dirt_17{fill:#845331;}
	.st0{fill:#78DF7C;}
	.st1{fill:#7A63AD;}
	.st2{fill:#866EBA;}
	.st3{fill:#D2E6F3;}
	.st4{fill:#C1DDEE;}
	.st5{fill:#E0C193;}
	.st6{fill:#DBBA8C;}
	.st7{fill:#7FB8E0;}
	.st8{fill:#8EC0E0;}
	.st9{fill:#71B1E1;}
	.st10{fill:#9FC9E4;}
	.st11{fill:#FF6B8B;}
	.st12{fill:#F4A984;}
	.st13{fill:#EA9C7A;}
	.st14{fill:#FEF1C6;}
	.st15{fill:#E85160;}
	.st16{fill:#D84459;}
	.st17{fill:#F7F7F7;}
	.st18{fill:#FFFFFF;}
	.st19{fill:#E55D53;}
	.st20{fill:#FFD400;}
	.st21{fill:#FF8F00;}
	.st22{fill:#FF4A00;}
	.st23{fill:#F7D684;}
	.st24{fill:#FAE09F;}
	.st25{fill:#FDEBBB;}
	.st26{fill:#FFF3D9;}
	.st27{fill:#9ACC2E;}
	.st28{fill:#AADB3D;}
	.st29{fill:#A2D336;}
	.st30{fill:#93C427;}
	.st31{fill:#F79654;}
	.st32{fill:#FFD04D;}
	.st33{fill:#FCA15E;}
	.st34{fill:#A9E260;}
	.st35{fill:#97DB4A;}
	.st36{fill:#B1E346;}
	.st37{fill:#FCD8DE;}
	.st38{fill:#CDA073;}
	.st39{fill:#C09265;}
	.st40{fill:#A7794C;}
	.st41{fill:#96643B;}
	.st42{fill:#B38658;}
	.st43{fill:#9E6E43;}
	.st44{fill:#FBCFD6;}
	.st45{fill:#FAC4D1;}
	.st46{fill:#FAB8CD;}
	.st47{fill:#F9ADC8;}
	.st48{fill:#EA8BB4;}
	.st49{fill:#E8BA36;}
	.st50{fill:#E0B12E;}
	.st51{fill:#FFC172;}
	.st52{fill:#FFAD68;}
	.st53{fill:#FFB76D;}
	.st54{fill:#6E57A0;}
	.st55{fill:#675099;}
	.st56{fill:#F3586F;}
	.st57{fill:#604893;}
	.st58{fill:#CBEB6B;}
	.st59{fill:#4EAC5D;}
	.st60{fill:#BEE758;}
	.st61{fill:#48A353;}
	.st62{fill:#D9F07D;}
	.st63{fill:#E6F490;}
	.st64{fill:#4896C8;}
	.st65{fill:#4390BF;}
	.st66{fill:#5CA3D5;}
	.st67{fill:#529CCF;}
	.st68{fill:#F7C845;}
	.st69{fill:#ECCD50;}
	.st70{fill:#FF8D6E;}
	.st71{fill:#FF805D;}
	.st72{fill:#EDEEEE;}
	.st73{fill:#65A9DC;}
	.st74{fill:#8BC07A;}
	.st75{fill:#F0C13E;}
	.st76{fill:#9A3644;}
	.st77{fill:#8A323F;}
	.st78{fill:#945BA0;}
	.st79{fill:#A366AD;}
	.st80{fill:#B370B9;}
	.st81{fill:#C27BC6;}
	.st82{fill:#F6B392;}
	.st83{fill:#D285D2;}
	.st84{fill:#DBA728;}
	.st85{fill:#505957;}
	.st86{fill:#56C7CD;}
	.st87{fill:#434C4B;}
	.st88{fill:#687271;}
	.st89{fill:#5C6664;}
	.st90{fill:#51BAC5;}
	.st91{fill:#D64F45;}
	.st92{fill:#D1D4D4;}
	.st93{fill:#E3E5E5;}
	.st94{fill:#DADDDC;}
	.st95{fill:#845194;}
	.st96{fill:#5BD3D5;}
	.st97{fill:#46B080;}
	.st98{fill:#53BF8C;}
	.st99{fill:#6EDCA2;}
	.st100{fill:#7AEBAC;}
	.st101{fill:#60CD96;}
	.st102{fill:#E8803A;}
	.st103{fill:#0A6F8E;}
	.st104{fill:#0F769B;}
	.st105{fill:#EF8C48;}
	.st106{fill:#838C8A;}
	.st107{fill:#757F7E;}
	.st108{fill:#D1473D;}
	.st109{fill:#FFE28A;}
	.st110{fill:#9179C6;}
	.st111{fill:#906DBB;}
	.st112{fill:#A78EDD;}
	.st113{fill:#9D85D3;}
	.st114{fill:#E2EFF7;}
	.st115{fill:#B0D3EA;}
	.st116{fill:#F7BC48;}
	.st117{fill:#FFC550;}
	.st118{fill:#FFCF6E;}
	.st119{fill:#4CAEBC;}
	.st120{fill:#47A1B4;}
	.st121{fill:#4295AC;}
	.st122{fill:#FDE2E6;}
	.st123{fill:#FFF5D8;}
	.st124{fill:#99533D;}
	.st125{fill:#914C39;}
	.st126{fill:#D4C9EF;}
	.st127{fill:#E3DBF4;}
	.st128{fill:#F1EDFA;}
	.st129{fill:#C6B7E9;}
	.st130{fill:#B8A5E4;}
	.st131{fill:#F0C877;}
	.st132{fill:#E8BA67;}
	.st133{fill:#DDAA5F;}
	.st134{fill:#D4994F;}
	.st135{fill:#C98B44;}
	.st136{fill:#BF7D3C;}
	.st137{fill:#909997;}
	.st138{fill:#724D31;}
	.st139{fill:#93C2CA;}
	.st140{fill:#99C7CE;}
	.st141{fill:#9FCCD3;}
	.st142{fill:#ACD7DD;}
	.st143{fill:#B9E2E7;}
	.st144{fill:#A5D1D8;}
	.st145{fill:#88B9C3;}
	.st146{fill:#7EB1BD;}
	.st147{fill:#F297BE;}
	.st148{fill:#60C46F;}
	.st149{fill:#C8CCCB;}
	.st150{fill:none;}
	.st151{fill:#4F4032;}
	.st152{fill:#604631;}
	.st153{fill:#F9BDA0;}
	.st154{fill:#E7685F;}
	.st155{fill:#C84054;}
	.st156{fill:#ABB2B1;}
	.st157{fill:#9DA5A4;}
	.st158{fill:#FFD96C;}
	.st159{fill:#F74000;}
	.st160{fill:#F97C00;}
	.st161{fill:#F9C900;}
	.st162{fill:#EFD4A7;}
	.st163{fill:#EACEA1;}
	.st164{fill:#FCE8CC;}
	.st165{fill:#F5DEB9;}
	.st166{fill:#CFAB81;}
	.st167{fill:#D5B387;}
	.st168{fill:#3A4274;}
	.st169{fill:#707EB7;}
	.st170{fill:#424B7E;}
	.st171{fill:#7C8AC4;}
	.st172{fill:#FFD98D;}
	.st173{fill:#8694D1;}
	.st174{fill:#9AA6D6;}
	.st175{fill:#ABB4DD;}
	.st176{fill:#FDECEF;}
	.st177{fill:#137FA0;}
	.st178{fill:#EB6B48;}
	.st179{fill:#F57552;}
	.st180{fill:#515E91;}
	.st181{fill:#5C699E;}
	.st182{fill:#6673AA;}
	.st183{fill:#504484;}
	.st184{fill:#FF5F7E;}
	.st185{fill:#EBCEEB;}
	.st186{fill:#E5BDE5;}
	.st187{fill:#E0ABDF;}
	.st188{fill:#D799D6;}
	.st189{fill:#3B8FA3;}
	.st190{fill:#348B99;}
	.st191{fill:#3AA176;}
	.st192{fill:#84ED82;}
	.st193{fill:#EFEAEA;}
	.st194{fill:#FF9A7E;}
	.st195{fill:#FCD2BE;}
	.st196{fill:#FCDDCF;}
	.st197{fill:#C683C8;}
	.st198{fill:#A55F49;}
	.st199{fill:#FEF5F7;}
</style>
<g>
	<path class="dirt_17" d="M18.071,29.071C16.261,30.881,13.761,32,11,32H9.652c-1.087,0-2.159-0.253-3.13-0.739l-0.051-0.025
		c-0.297-0.148-0.646-0.148-0.942,0l-1.082,0.541C4.153,31.923,3.829,32,3.5,32h0C3.224,32,3,31.776,3,31.5l0,0
		C3,31.224,3.224,31,3.5,31h0.001c0.32,0,0.626-0.127,0.852-0.353l0.901-0.901C5.7,29.3,6.38,29.19,6.943,29.472h0
		c0.69,0.345,1.464,0.483,2.231,0.398l0.709-0.079c2.348-0.261,4.364-1.52,5.645-3.327L18.071,29.071z"/>
	<path class="dirt_16" d="M13,16v6c0,5.523,4.477,10,10,10h1.348c1.087,0,2.159-0.253,3.13-0.739l0.051-0.025
		c0.297-0.148,0.646-0.148,0.942,0l1.082,0.541C29.847,31.923,30.171,32,30.5,32l0,0c0.276,0,0.5-0.224,0.5-0.5l0,0
		c0-0.276-0.224-0.5-0.5-0.5h-0.001c-0.32,0-0.626-0.127-0.852-0.353l-0.901-0.901C28.3,29.3,27.62,29.19,27.057,29.472h0
		c-0.69,0.345-1.464,0.483-2.231,0.398l-0.709-0.079C20.065,29.341,17,25.916,17,21.84V16H13z"/>
	<path class="aloe_06" d="M28.771,17.675c-0.664,1.801-2.806,6.625-6.876,7.256c-2.307,0.358-4.592-1.125-4.866-3.444
		C16.742,19.061,18.63,17,21,17h7.302C28.652,17,28.892,17.348,28.771,17.675z"/>
	<path class="lemon_04" d="M15,13V0.003c-0.239,0-0.481,0.011-0.726,0.04C11.653,0.35,9.481,2.431,9.075,5.038
		c-0.322,2.073,0.42,3.983,1.762,5.275C11.57,11.02,12,11.981,12,12.999V13H15z"/>
	<path class="lemon_05" d="M15,0.003V13h3v-0.001c0-0.987,0.379-1.95,1.1-2.625C20.268,9.281,21,7.727,21,6
		C21,2.686,18.313,0.003,15,0.003z"/>
	<circle class="grey_16" cx="13" cy="7" r="1"/>
	<circle class="grey_17" cx="17" cy="7" r="1"/>
	<path class="grey_16" d="M15,13c-1.657,0-3,0.895-3,2c0,1.105,1.343,2,3,2V13z"/>
	<path class="grey_17" d="M18,15c0-1.105-1.343-2-3-2v4C16.657,17,18,16.105,18,15z"/>
	<path class="rose_09" d="M15,16c-1.221,0-2-0.592-2-1s0.779-1,2-1v-2c-2.243,0-4,1.317-4,3s1.757,3,4,3V16z"/>
	<path class="dirt_17" d="M28.675,30.265l0.972,0.382l-0.901-0.901C28.3,29.3,27.62,29.19,27.057,29.472l0,0
		c-0.69,0.345-1.464,0.483-2.231,0.398l-0.709-0.079C20.065,29.341,17,25.916,17,21.84V16h-2v6c0,4.971,4.029,9,9,9h0
		c0.662,0,1.32-0.107,1.948-0.316l1.363-0.454C27.756,30.081,28.239,30.094,28.675,30.265z"/>
	<path class="rose_10" d="M17,15c0,0.408-0.779,1-2,1v2c2.243,0,4-1.317,4-3s-1.757-3-4-3v2C16.221,14,17,14.592,17,15z"/>
	<path class="aloe_05" d="M17,21c0,0.179,0.03,0.351,0.053,0.524c0.24,0.008,6.955,0.185,11.674-4.274
		C28.641,17.105,28.491,17,28.302,17c-1.6,0-5.56,0-7.302,0C18.791,17,17,18.791,17,21z"/>
	<path class="aloe_04" d="M1.229,25.325c0.664-1.801,2.806-6.625,6.876-7.256c2.307-0.358,4.592,1.125,4.866,3.444
		C13.258,23.939,11.37,26,9,26H1.698C1.348,26,1.108,25.652,1.229,25.325z"/>
	<path class="aloe_05" d="M13,22c0-0.179-0.03-0.351-0.053-0.524c-0.24-0.008-6.955-0.185-11.674,4.274
		C1.359,25.895,1.509,26,1.698,26c1.6,0,5.56,0,7.302,0C11.209,26,13,24.209,13,22z"/>
	<path class="lemon_04" d="M20.805,4.506C20.14,1.917,17.797,0.003,15,0.003V2C17.288,2,19.347,2.966,20.805,4.506z"/>
	<path class="lemon_03" d="M15,2V0.003c-0.239,0-0.481,0.011-0.726,0.04c-2.432,0.285-4.459,2.105-5.065,4.448
		C10.666,2.959,12.719,2,15,2z"/>
</g>
</svg>
