<?xml version="1.0" encoding="utf-8"?>
<!-- Generator: Adobe Illustrator 20.1.0, SVG Export Plug-In . SVG Version: 6.00 Build 0)  -->
<!DOCTYPE svg PUBLIC "-//W3C//DTD SVG 1.1//EN" "http://www.w3.org/Graphics/SVG/1.1/DTD/svg11.dtd">
<svg version="1.1" id="icons" xmlns="http://www.w3.org/2000/svg" xmlns:xlink="http://www.w3.org/1999/xlink" x="0px" y="0px"
	 width="32px" height="32px" viewBox="0 0 32 32" style="enable-background:new 0 0 32 32;" xml:space="preserve">
<style type="text/css">
	.white{fill:#FFFFFF;}
	.grey_01{fill:#F7F7F7;}
	.grey_16{fill:#373F3F;}
	.grey_17{fill:#2B3332;}
	.aloe_04{fill:#6CD275;}
	.aloe_05{fill:#60C46F;}
	.aloe_06{fill:#54B668;}
	.lemon_05{fill:#FFD96C;}
	.lemon_06{fill:#FFD04D;}
	.dirt_14{fill:#9E6E43;}
	.dirt_15{fill:#96643B;}
	.st0{fill:#78DF7C;}
	.st1{fill:#7A63AD;}
	.st2{fill:#866EBA;}
	.st3{fill:#D2E6F3;}
	.st4{fill:#C1DDEE;}
	.st5{fill:#E0C193;}
	.st6{fill:#DBBA8C;}
	.st7{fill:#7FB8E0;}
	.st8{fill:#8EC0E0;}
	.st9{fill:#71B1E1;}
	.st10{fill:#9FC9E4;}
	.st11{fill:#FFEAA7;}
	.st12{fill:#FFE28A;}
	.st13{fill:#FF6B8B;}
	.st14{fill:#F4A984;}
	.st15{fill:#EA9C7A;}
	.st16{fill:#FEF1C6;}
	.st17{fill:#E85160;}
	.st18{fill:#D84459;}
	.st19{fill:#E55D53;}
	.st20{fill:#FFD400;}
	.st21{fill:#FF8F00;}
	.st22{fill:#FF4A00;}
	.st23{fill:#F7D684;}
	.st24{fill:#FAE09F;}
	.st25{fill:#FDEBBB;}
	.st26{fill:#FFF3D9;}
	.st27{fill:#9ACC2E;}
	.st28{fill:#AADB3D;}
	.st29{fill:#A2D336;}
	.st30{fill:#93C427;}
	.st31{fill:#F79654;}
	.st32{fill:#FCA15E;}
	.st33{fill:#A9E260;}
	.st34{fill:#97DB4A;}
	.st35{fill:#B1E346;}
	.st36{fill:#FCD8DE;}
	.st37{fill:#CDA073;}
	.st38{fill:#C09265;}
	.st39{fill:#A7794C;}
	.st40{fill:#845331;}
	.st41{fill:#B38658;}
	.st42{fill:#8D5B36;}
	.st43{fill:#FBCFD6;}
	.st44{fill:#FAC4D1;}
	.st45{fill:#FAB8CD;}
	.st46{fill:#F9ADC8;}
	.st47{fill:#F8A1C4;}
	.st48{fill:#F297BE;}
	.st49{fill:#EA8BB4;}
	.st50{fill:#E8BA36;}
	.st51{fill:#E0B12E;}
	.st52{fill:#FFC172;}
	.st53{fill:#FFAD68;}
	.st54{fill:#FFB76D;}
	.st55{fill:#6E57A0;}
	.st56{fill:#675099;}
	.st57{fill:#F3586F;}
	.st58{fill:#604893;}
	.st59{fill:#CBEB6B;}
	.st60{fill:#4EAC5D;}
	.st61{fill:#BEE758;}
	.st62{fill:#48A353;}
	.st63{fill:#D9F07D;}
	.st64{fill:#E6F490;}
	.st65{fill:#4896C8;}
	.st66{fill:#4390BF;}
	.st67{fill:#5CA3D5;}
	.st68{fill:#529CCF;}
	.st69{fill:#F7C845;}
	.st70{fill:#ECCD50;}
	.st71{fill:#FF8D6E;}
	.st72{fill:#FF805D;}
	.st73{fill:#EDEEEE;}
	.st74{fill:#65A9DC;}
	.st75{fill:#8BC07A;}
	.st76{fill:#F0C13E;}
	.st77{fill:#9A3644;}
	.st78{fill:#8A323F;}
	.st79{fill:#945BA0;}
	.st80{fill:#A366AD;}
	.st81{fill:#B370B9;}
	.st82{fill:#C27BC6;}
	.st83{fill:#F6B392;}
	.st84{fill:#D285D2;}
	.st85{fill:#DBA728;}
	.st86{fill:#505957;}
	.st87{fill:#56C7CD;}
	.st88{fill:#434C4B;}
	.st89{fill:#687271;}
	.st90{fill:#5C6664;}
	.st91{fill:#51BAC5;}
	.st92{fill:#D64F45;}
	.st93{fill:#D1D4D4;}
	.st94{fill:#E3E5E5;}
	.st95{fill:#DADDDC;}
	.st96{fill:#845194;}
	.st97{fill:#5BD3D5;}
	.st98{fill:#46B080;}
	.st99{fill:#53BF8C;}
	.st100{fill:#6EDCA2;}
	.st101{fill:#7AEBAC;}
	.st102{fill:#60CD96;}
	.st103{fill:#E8803A;}
	.st104{fill:#0A6F8E;}
	.st105{fill:#0F769B;}
	.st106{fill:#EF8C48;}
	.st107{fill:#838C8A;}
	.st108{fill:#757F7E;}
	.st109{fill:#D1473D;}
	.st110{fill:#9179C6;}
	.st111{fill:#906DBB;}
	.st112{fill:#A78EDD;}
	.st113{fill:#9D85D3;}
	.st114{fill:#E2EFF7;}
	.st115{fill:#B0D3EA;}
	.st116{fill:#F7BC48;}
	.st117{fill:#FFC550;}
	.st118{fill:#FFCF6E;}
	.st119{fill:#4CAEBC;}
	.st120{fill:#47A1B4;}
	.st121{fill:#4295AC;}
	.st122{fill:#FDE2E6;}
	.st123{fill:#FFF5D8;}
	.st124{fill:#99533D;}
	.st125{fill:#914C39;}
	.st126{fill:#D4C9EF;}
	.st127{fill:#E3DBF4;}
	.st128{fill:#F1EDFA;}
	.st129{fill:#C6B7E9;}
	.st130{fill:#B8A5E4;}
	.st131{fill:#F0C877;}
	.st132{fill:#E8BA67;}
	.st133{fill:#DDAA5F;}
	.st134{fill:#D4994F;}
	.st135{fill:#C98B44;}
	.st136{fill:#BF7D3C;}
	.st137{fill:#909997;}
	.st138{fill:#724D31;}
	.st139{fill:#93C2CA;}
	.st140{fill:#99C7CE;}
	.st141{fill:#9FCCD3;}
	.st142{fill:#ACD7DD;}
	.st143{fill:#B9E2E7;}
	.st144{fill:#A5D1D8;}
	.st145{fill:#88B9C3;}
	.st146{fill:#7EB1BD;}
	.st147{fill:#60C46F;}
	.st148{fill:#C8CCCB;}
	.st149{fill:none;}
	.st150{fill:#4F4032;}
	.st151{fill:#604631;}
	.st152{fill:#9E6E43;}
	.st153{fill:#F9BDA0;}
	.st154{fill:#E7685F;}
	.st155{fill:#C84054;}
	.st156{fill:#ABB2B1;}
	.st157{fill:#9DA5A4;}
	.st158{fill:#FFD96C;}
	.st159{fill:#FFD04D;}
	.st160{fill:#F74000;}
	.st161{fill:#F97C00;}
	.st162{fill:#F9C900;}
	.st163{fill:#EFD4A7;}
	.st164{fill:#EACEA1;}
	.st165{fill:#FCE8CC;}
	.st166{fill:#F5DEB9;}
	.st167{fill:#CFAB81;}
	.st168{fill:#D5B387;}
	.st169{fill:#3A4274;}
	.st170{fill:#707EB7;}
	.st171{fill:#424B7E;}
	.st172{fill:#7C8AC4;}
	.st173{fill:#FFD98D;}
	.st174{fill:#8694D1;}
	.st175{fill:#9AA6D6;}
	.st176{fill:#ABB4DD;}
	.st177{fill:#FDECEF;}
	.st178{fill:#137FA0;}
	.st179{fill:#EB6B48;}
	.st180{fill:#F57552;}
	.st181{fill:#515E91;}
	.st182{fill:#5C699E;}
	.st183{fill:#6673AA;}
	.st184{fill:#504484;}
	.st185{fill:#FF5F7E;}
	.st186{fill:#EBCEEB;}
	.st187{fill:#E5BDE5;}
	.st188{fill:#E0ABDF;}
	.st189{fill:#D799D6;}
	.st190{fill:#3B8FA3;}
	.st191{fill:#348B99;}
	.st192{fill:#F7F7F7;}
	.st193{fill:#3AA176;}
	.st194{fill:#84ED82;}
	.st195{fill:#EFEAEA;}
	.st196{fill:#FF9A7E;}
	.st197{fill:#FCD2BE;}
	.st198{fill:#FCDDCF;}
	.st199{fill:#C683C8;}
	.st200{fill:#A55F49;}
	.st201{fill:#FEF5F7;}
</style>
<g>
	<path class="aloe_05" d="M0.229,17.675c0.664,1.801,2.806,6.625,6.876,7.256c2.307,0.358,4.592-1.125,4.866-3.444
		C12.258,19.061,10.37,17,8,17H0.698C0.348,17,0.108,17.348,0.229,17.675z"/>
	<path class="aloe_06" d="M31.771,17.675c-0.664,1.801-2.806,6.625-6.876,7.256c-2.307,0.358-4.592-1.125-4.866-3.444
		C19.742,19.061,21.63,17,24,17h7.302C31.652,17,31.892,17.348,31.771,17.675z"/>
	<path class="dirt_15" d="M13.991,29.828c-2.551,1.328-6.65-1.439-6.65-1.439l-0.953,1c0,0,6.018,5.627,11.612,0.367L13.991,29.828z
		"/>
	<path class="dirt_14" d="M16,29.998c0,0-4.542,2.794-9-0.998l0.341-0.612c0,0,4.099,2.767,6.65,1.439L16,29.998z"/>
	<path class="aloe_04" d="M0.274,17.249c4.719,4.46,11.434,4.282,11.674,4.274C11.97,21.351,12,21.179,12,21c0-2.209-1.791-4-4-4
		c-1.742,0-5.702,0-7.302,0C0.509,17,0.359,17.105,0.274,17.249z"/>
	<path class="aloe_05" d="M20.003,20.972c0,0.013-0.002,0.026-0.002,0.039c0.001,0.175,0.029,0.343,0.052,0.513
		c0.24,0.008,6.955,0.185,11.674-4.274C31.641,17.105,31.491,17,31.302,17c-1.6,0-5.56,0-7.302,0
		C21.8,17,20.018,18.776,20.003,20.972z"/>
	<path class="lemon_05" d="M9.32,12H9l0.345,1.609c0.48,2.239,0.099,4.528-0.803,6.632c-0.33,0.768-0.519,1.632-0.54,2.585
		c-0.075,3.479,2.558,6.419,5.989,7.001c0.682,0.116,1.355,0.17,2.009,0.17V16C13.138,16,10.258,14.745,9.32,12z"/>
	<path class="lemon_06" d="M23.371,20.047c-0.942-2.005-1.181-4.266-0.717-6.432L23,12h-0.32c-0.938,2.745-3.817,4-6.68,4v13.998
		c4.418,0,8-2.58,8-6.998C24,21.897,23.776,20.909,23.371,20.047z"/>
	<g>
		<g>
			<path class="white" d="M10.382,15.186C10.144,15.568,10,16.016,10,16.5c0,1.381,1.119,2.5,2.5,2.5
				c1.229,0,2.245-0.888,2.455-2.056C13.183,16.774,11.592,16.173,10.382,15.186z"/>
		</g>
		<g>
			<path class="white" d="M10.382,15.186C10.144,15.568,10,16.016,10,16.5c0,1.381,1.119,2.5,2.5,2.5
				c1.229,0,2.245-0.888,2.455-2.056C13.183,16.774,11.592,16.173,10.382,15.186z"/>
		</g>
	</g>
	<path class="grey_16" d="M11.648,16.008C11.562,16.155,11.5,16.317,11.5,16.5c0,0.552,0.448,1,1,1c0.486,0,0.871-0.353,0.962-0.812
		C12.817,16.524,12.208,16.297,11.648,16.008z"/>
	<g>
		<g>
			<path class="grey_01" d="M21.618,15.186C21.856,15.568,22,16.016,22,16.5c0,1.381-1.119,2.5-2.5,2.5
				c-1.229,0-2.245-0.888-2.455-2.056C18.817,16.774,20.408,16.173,21.618,15.186z"/>
		</g>
		<g>
			<path class="grey_01" d="M21.618,15.186C21.856,15.568,22,16.016,22,16.5c0,1.381-1.119,2.5-2.5,2.5
				c-1.229,0-2.245-0.888-2.455-2.056C18.817,16.774,20.408,16.173,21.618,15.186z"/>
		</g>
	</g>
	<path class="grey_17" d="M20.352,16.008c0.086,0.147,0.148,0.309,0.148,0.492c0,0.552-0.448,1-1,1
		c-0.486,0-0.871-0.353-0.962-0.812C19.183,16.524,19.792,16.297,20.352,16.008z"/>
	<path class="grey_16" d="M16,4c-3.484,0-7,1.855-7,6s3.516,6,7,6V4z"/>
	<path class="grey_17" d="M23,10c0-4.145-3.516-6-7-6v12C19.484,16,23,14.145,23,10z"/>
	<path class="st48" d="M16,15c-2.768,0-6-1.31-6-5c0-3.691,3.232-5,6-5V3c-4.418,0-8,2.582-8,7s3.582,7,8,7V15z"/>
	<path class="st49" d="M22,10c0,3.69-3.232,5-6,5v2c4.418,0,8-2.582,8-7s-3.582-7-8-7v2C18.768,5,22,6.309,22,10z"/>
	<path class="dirt_14" d="M16,2V0c-0.552,0-1,0.448-1,1v1H16z"/>
	<path class="dirt_15" d="M16,2V0c0.552,0,1,0.448,1,1v1H16z"/>
	<path class="white" d="M14,14.761v-2.294c0-0.2-0.223-0.319-0.389-0.208l-2.016,1.344C12.276,14.17,13.117,14.544,14,14.761z"/>
	<path class="grey_01" d="M18,14.761v-2.294c0-0.2,0.223-0.319,0.389-0.208l2.016,1.344C19.724,14.17,18.883,14.544,18,14.761z"/>
	<path class="lemon_06" d="M3.714,25.128c-0.349-0.072-0.658,0.237-0.586,0.586C3.477,27.419,4.587,31.413,7,29
		S5.419,25.477,3.714,25.128z"/>
	<path class="lemon_05" d="M3.712,25.128c-0.174-0.035-0.338,0.024-0.449,0.135L7,29c0.25-0.25,0.447-0.533,0.61-0.824
		C8.473,26.327,5.208,25.433,3.712,25.128z"/>
	<path class="aloe_04" d="M16,2c0,0-1-1-4-1C9.884,1,8.732,1.995,8.237,2.581C8.047,2.805,8.08,3.135,8.313,3.313
		C9.125,3.932,11.118,5.158,13,4c-1.029,2.599,1.508,3.791,2.611,5.283c0.096,0.13,0.242,0.194,0.389,0.194V2z"/>
	<path class="st147" d="M16.389,9.283C17.492,7.791,20.029,6.599,19,4c1.882,1.158,3.875-0.068,4.687-0.687
		c0.233-0.178,0.266-0.507,0.077-0.732C23.268,1.995,22.116,1,20,1c-3,0-4,1-4,1v7.477C16.147,9.477,16.294,9.412,16.389,9.283z"/>
</g>
</svg>
