<?xml version="1.0" encoding="utf-8"?>
<!-- Generator: Adobe Illustrator 20.1.0, SVG Export Plug-In . SVG Version: 6.00 Build 0)  -->
<!DOCTYPE svg PUBLIC "-//W3C//DTD SVG 1.1//EN" "http://www.w3.org/Graphics/SVG/1.1/DTD/svg11.dtd">
<svg version="1.1" id="icons" xmlns="http://www.w3.org/2000/svg" xmlns:xlink="http://www.w3.org/1999/xlink" x="0px" y="0px"
	 width="32px" height="32px" viewBox="0 0 32 32" style="enable-background:new 0 0 32 32;" xml:space="preserve">
<style type="text/css">
	.white{fill:#FFFFFF;}
	.grey_01{fill:#F7F7F7;}
	.grey_10{fill:#838C8A;}
	.grey_11{fill:#757F7E;}
	.grey_12{fill:#687271;}
	.grey_13{fill:#5C6664;}
	.grey_16{fill:#373F3F;}
	.grey_17{fill:#2B3332;}
	.salmon_05{fill:#F6B392;}
	.salmon_06{fill:#F4A984;}
	.st0{fill:#78DF7C;}
	.st1{fill:#54B668;}
	.st2{fill:#7A63AD;}
	.st3{fill:#866EBA;}
	.st4{fill:#D2E6F3;}
	.st5{fill:#C1DDEE;}
	.st6{fill:#E0C193;}
	.st7{fill:#DBBA8C;}
	.st8{fill:#7FB8E0;}
	.st9{fill:#8EC0E0;}
	.st10{fill:#71B1E1;}
	.st11{fill:#9FC9E4;}
	.st12{fill:#FFEAA7;}
	.st13{fill:#FFE28A;}
	.st14{fill:#FF6B8B;}
	.st15{fill:#EA9C7A;}
	.st16{fill:#FEF1C6;}
	.st17{fill:#E85160;}
	.st18{fill:#D84459;}
	.st19{fill:#E55D53;}
	.st20{fill:#FFD400;}
	.st21{fill:#FF8F00;}
	.st22{fill:#FF4A00;}
	.st23{fill:#F7D684;}
	.st24{fill:#FAE09F;}
	.st25{fill:#FDEBBB;}
	.st26{fill:#FFF3D9;}
	.st27{fill:#FFD96C;}
	.st28{fill:#9ACC2E;}
	.st29{fill:#AADB3D;}
	.st30{fill:#A2D336;}
	.st31{fill:#93C427;}
	.st32{fill:#F79654;}
	.st33{fill:#FFD04D;}
	.st34{fill:#FCA15E;}
	.st35{fill:#A9E260;}
	.st36{fill:#97DB4A;}
	.st37{fill:#B1E346;}
	.st38{fill:#FCD8DE;}
	.st39{fill:#CDA073;}
	.st40{fill:#C09265;}
	.st41{fill:#A7794C;}
	.st42{fill:#96643B;}
	.st43{fill:#845331;}
	.st44{fill:#B38658;}
	.st45{fill:#9E6E43;}
	.st46{fill:#8D5B36;}
	.st47{fill:#FBCFD6;}
	.st48{fill:#FAC4D1;}
	.st49{fill:#FAB8CD;}
	.st50{fill:#F9ADC8;}
	.st51{fill:#F8A1C4;}
	.st52{fill:#F297BE;}
	.st53{fill:#EA8BB4;}
	.st54{fill:#E8BA36;}
	.st55{fill:#E0B12E;}
	.st56{fill:#FFC172;}
	.st57{fill:#FFAD68;}
	.st58{fill:#FFB76D;}
	.st59{fill:#6E57A0;}
	.st60{fill:#675099;}
	.st61{fill:#F3586F;}
	.st62{fill:#604893;}
	.st63{fill:#CBEB6B;}
	.st64{fill:#4EAC5D;}
	.st65{fill:#BEE758;}
	.st66{fill:#6CD275;}
	.st67{fill:#48A353;}
	.st68{fill:#60C46F;}
	.st69{fill:#D9F07D;}
	.st70{fill:#E6F490;}
	.st71{fill:#4896C8;}
	.st72{fill:#4390BF;}
	.st73{fill:#5CA3D5;}
	.st74{fill:#529CCF;}
	.st75{fill:#F7C845;}
	.st76{fill:#ECCD50;}
	.st77{fill:#FF8D6E;}
	.st78{fill:#FF805D;}
	.st79{fill:#EDEEEE;}
	.st80{fill:#65A9DC;}
	.st81{fill:#8BC07A;}
	.st82{fill:#F0C13E;}
	.st83{fill:#9A3644;}
	.st84{fill:#8A323F;}
	.st85{fill:#945BA0;}
	.st86{fill:#A366AD;}
	.st87{fill:#B370B9;}
	.st88{fill:#C27BC6;}
	.st89{fill:#D285D2;}
	.st90{fill:#DBA728;}
	.st91{fill:#505957;}
	.st92{fill:#56C7CD;}
	.st93{fill:#434C4B;}
	.st94{fill:#51BAC5;}
	.st95{fill:#D64F45;}
	.st96{fill:#D1D4D4;}
	.st97{fill:#E3E5E5;}
	.st98{fill:#DADDDC;}
	.st99{fill:#845194;}
	.st100{fill:#5BD3D5;}
	.st101{fill:#46B080;}
	.st102{fill:#53BF8C;}
	.st103{fill:#6EDCA2;}
	.st104{fill:#7AEBAC;}
	.st105{fill:#60CD96;}
	.st106{fill:#E8803A;}
	.st107{fill:#0A6F8E;}
	.st108{fill:#0F769B;}
	.st109{fill:#EF8C48;}
	.st110{fill:#D1473D;}
	.st111{fill:#9179C6;}
	.st112{fill:#906DBB;}
	.st113{fill:#A78EDD;}
	.st114{fill:#9D85D3;}
	.st115{fill:#E2EFF7;}
	.st116{fill:#B0D3EA;}
	.st117{fill:#F7BC48;}
	.st118{fill:#FFC550;}
	.st119{fill:#FFCF6E;}
	.st120{fill:#4CAEBC;}
	.st121{fill:#47A1B4;}
	.st122{fill:#4295AC;}
	.st123{fill:#FDE2E6;}
	.st124{fill:#FFF5D8;}
	.st125{fill:#99533D;}
	.st126{fill:#914C39;}
	.st127{fill:#D4C9EF;}
	.st128{fill:#E3DBF4;}
	.st129{fill:#F1EDFA;}
	.st130{fill:#C6B7E9;}
	.st131{fill:#B8A5E4;}
	.st132{fill:#F0C877;}
	.st133{fill:#E8BA67;}
	.st134{fill:#DDAA5F;}
	.st135{fill:#D4994F;}
	.st136{fill:#C98B44;}
	.st137{fill:#BF7D3C;}
	.st138{fill:#909997;}
	.st139{fill:#757F7E;}
	.st140{fill:#838C8A;}
	.st141{fill:#724D31;}
	.st142{fill:#93C2CA;}
	.st143{fill:#99C7CE;}
	.st144{fill:#9FCCD3;}
	.st145{fill:#ACD7DD;}
	.st146{fill:#B9E2E7;}
	.st147{fill:#A5D1D8;}
	.st148{fill:#88B9C3;}
	.st149{fill:#7EB1BD;}
	.st150{fill:#C8CCCB;}
	.st151{fill:none;}
	.st152{fill:#4F4032;}
	.st153{fill:#604631;}
	.st154{fill:#F9BDA0;}
	.st155{fill:#E7685F;}
	.st156{fill:#C84054;}
	.st157{fill:#ABB2B1;}
	.st158{fill:#9DA5A4;}
	.st159{fill:#F74000;}
	.st160{fill:#F97C00;}
	.st161{fill:#F9C900;}
	.st162{fill:#EFD4A7;}
	.st163{fill:#EACEA1;}
	.st164{fill:#FCE8CC;}
	.st165{fill:#F5DEB9;}
	.st166{fill:#CFAB81;}
	.st167{fill:#D5B387;}
	.st168{fill:#3A4274;}
	.st169{fill:#707EB7;}
	.st170{fill:#424B7E;}
	.st171{fill:#7C8AC4;}
	.st172{fill:#FFD98D;}
	.st173{fill:#8694D1;}
	.st174{fill:#9AA6D6;}
	.st175{fill:#ABB4DD;}
	.st176{fill:#FDECEF;}
	.st177{fill:#137FA0;}
	.st178{fill:#EB6B48;}
	.st179{fill:#F57552;}
	.st180{fill:#515E91;}
	.st181{fill:#5C699E;}
	.st182{fill:#6673AA;}
	.st183{fill:#504484;}
	.st184{fill:#FF5F7E;}
	.st185{fill:#EBCEEB;}
	.st186{fill:#E5BDE5;}
	.st187{fill:#E0ABDF;}
	.st188{fill:#D799D6;}
	.st189{fill:#3B8FA3;}
	.st190{fill:#348B99;}
	.st191{fill:#F7F7F7;}
	.st192{fill:#3AA176;}
	.st193{fill:#84ED82;}
	.st194{fill:#EFEAEA;}
	.st195{fill:#FF9A7E;}
	.st196{fill:#FCD2BE;}
	.st197{fill:#FCDDCF;}
	.st198{fill:#C683C8;}
	.st199{fill:#A55F49;}
	.st200{fill:#FEF5F7;}
</style>
<g>
	<path class="grey_12" d="M24.854,10.854l-3.707-3.707C21.053,7.053,20.926,7,20.793,7H20l-0.854-0.854
		C19.053,6.053,18.926,6,18.793,6H16v20h3l1-1h1l3.854-3.854C24.947,21.053,25,20.926,25,20.793V20l0.854-0.854
		C25.947,19.053,26,18.926,26,18.793V13l-1-1v-0.793C25,11.074,24.947,10.947,24.854,10.854z"/>
	<path class="grey_11" d="M16,6h-2.793c-0.133,0-0.26,0.053-0.354,0.146L12,7h-0.793c-0.133,0-0.26,0.053-0.354,0.146l-3.707,3.707
		C7.053,10.947,7,11.074,7,11.207V12l-1,1v5.793c0,0.133,0.053,0.26,0.146,0.354L7,20v0.793c0,0.133,0.053,0.26,0.146,0.354L11,25h1
		l1,1h3V6z"/>
	<path class="grey_12" d="M10,24v2.586c0,0.265-0.105,0.52-0.293,0.707l-0.414,0.414C9.105,27.895,9,28.149,9,28.414V28.5
		C9,28.776,9.224,29,9.5,29h5c0.276,0,0.5-0.224,0.5-0.5v-0.086c0-0.265-0.105-0.52-0.293-0.707l-0.414-0.414
		C14.105,27.105,14,26.851,14,26.586V24H10z"/>
	<path class="grey_13" d="M18,24v2.586c0,0.265-0.105,0.52-0.293,0.707l-0.414,0.414C17.105,27.895,17,28.149,17,28.414V28.5
		c0,0.276,0.224,0.5,0.5,0.5h5c0.276,0,0.5-0.224,0.5-0.5v-0.086c0-0.265-0.105-0.52-0.293-0.707l-0.414-0.414
		C22.105,27.105,22,26.851,22,26.586V24H18z"/>
	<g>
		<path class="grey_01" d="M18,16.5l3-1.25v1.25c0,0.276-0.224,0.5-0.5,0.5H18V16.5z"/>
		<path class="grey_17" d="M19,16.083V16.5c0,0.138,0.112,0.25,0.25,0.25l0,0c0.138,0,0.25-0.112,0.25-0.25v-0.625L19,16.083z"/>
		<path class="white" d="M14,16.5l-3-1.25v1.25c0,0.276,0.224,0.5,0.5,0.5H14V16.5z"/>
		<path class="grey_16" d="M13,16.083V16.5c0,0.138-0.112,0.25-0.25,0.25l0,0c-0.138,0-0.25-0.112-0.25-0.25v-0.625L13,16.083z"/>
	</g>
	<path class="grey_10" d="M7.146,21.146l4.268,4.268C11.789,25.789,12.298,26,12.828,26H14.5c0.276,0,0.5-0.224,0.5-0.5v-2.05
		c0-0.276-0.224-0.5-0.5-0.5h-0.75c-0.138,0-0.25-0.112-0.25-0.25v-0.07c0-0.108,0.069-0.203,0.171-0.237l0.987-0.329
		C14.862,21.996,15,21.805,15,21.589v-0.154c0-0.271-0.215-0.492-0.486-0.5l-1.53-0.038c-2.067-0.059-4.065-0.757-5.719-1.998
		L6,17.95v0.843c0,0.133,0.053,0.26,0.146,0.354L7,20v0.793C7,20.926,7.053,21.053,7.146,21.146z"/>
	<path class="grey_11" d="M24.854,21.146l-4.268,4.268C20.211,25.789,19.702,26,19.172,26H17.5c-0.276,0-0.5-0.224-0.5-0.5v-2.05
		c0-0.276,0.224-0.5,0.5-0.5h0.75c0.138,0,0.25-0.112,0.25-0.25v-0.07c0-0.108-0.069-0.203-0.171-0.237l-0.987-0.329
		C17.138,21.996,17,21.805,17,21.589v-0.154c0-0.271,0.215-0.492,0.486-0.5l1.53-0.038c2.067-0.059,4.065-0.757,5.719-1.998
		L26,17.95v0.843c0,0.133-0.053,0.26-0.146,0.354L25,20v0.793C25,20.926,24.947,21.053,24.854,21.146z"/>
	<path class="grey_12" d="M6,13l-4.828,4.828C0.421,18.579,0,19.596,0,20.657V23.5C0,23.776,0.224,24,0.5,24H2
		c0.276,0,0.5-0.224,0.5-0.5v-1.22C2.5,22.125,2.625,22,2.78,22h0.001c0.128,0,0.24,0.087,0.272,0.212l0.352,1.409
		C3.461,23.844,3.661,24,3.89,24H4.5C4.776,24,5,23.776,5,23.5v-4.55L6,18V13z"/>
	<path class="grey_13" d="M26,13l4.828,4.828c0.75,0.75,1.172,1.768,1.172,2.828V23.5c0,0.276-0.224,0.5-0.5,0.5H30
		c-0.276,0-0.5-0.224-0.5-0.5v-1.22c0-0.155-0.125-0.28-0.28-0.28h-0.001c-0.128,0-0.24,0.087-0.272,0.212l-0.352,1.409
		C28.539,23.844,28.339,24,28.11,24H27.5c-0.276,0-0.5-0.224-0.5-0.5v-4.55L26,18V13z"/>
	<path class="salmon_05" d="M16,18.5c-1.01,0-2.019,0.127-2.771,0.254c-0.277,0.047-0.277,0.446,0,0.493
		C13.981,19.373,14.99,19.5,16,19.5V18.5z"/>
	<path class="salmon_06" d="M18.771,18.754C18.019,18.627,17.01,18.5,16,18.5v1c1.01,0,2.019-0.127,2.771-0.254
		C19.049,19.2,19.049,18.8,18.771,18.754z"/>
	<path class="grey_10" d="M16,17.333v-6.532l-0.231-1.309c-0.048-0.272-0.307-0.454-0.579-0.406L14.205,9.26
		C13.933,9.308,13.752,9.568,13.8,9.84l0.231,1.309l-0.664-1.151c-0.138-0.239-0.444-0.321-0.683-0.183l-0.866,0.5
		c-0.239,0.138-0.321,0.444-0.183,0.683l0.664,1.151l-1.018-0.854c-0.212-0.177-0.527-0.15-0.704,0.062l-0.752,0.896
		c-0.129,0.153-0.153,0.368-0.063,0.547L11,15.25l3.002,1.251L14,17L16,17.333z"/>
	<path class="grey_11" d="M16,17.333L18,17l0-0.5l3-1.25l1.239-2.451c0.09-0.179,0.065-0.394-0.063-0.547l-0.752-0.896
		c-0.177-0.212-0.493-0.239-0.704-0.062l-1.018,0.854l0.664-1.151c0.138-0.239,0.056-0.545-0.183-0.683l-0.866-0.5
		c-0.239-0.138-0.545-0.056-0.683,0.183l-0.664,1.151L18.2,9.84c0.048-0.272-0.134-0.531-0.406-0.579L16.81,9.087
		c-0.272-0.048-0.531,0.134-0.579,0.406L16,10.801V17.333z"/>
</g>
</svg>
