<?xml version="1.0" encoding="utf-8"?>
<!-- Generator: Adobe Illustrator 20.1.0, SVG Export Plug-In . SVG Version: 6.00 Build 0)  -->
<!DOCTYPE svg PUBLIC "-//W3C//DTD SVG 1.1//EN" "http://www.w3.org/Graphics/SVG/1.1/DTD/svg11.dtd">
<svg version="1.1" id="icons" xmlns="http://www.w3.org/2000/svg" xmlns:xlink="http://www.w3.org/1999/xlink" x="0px" y="0px"
	 width="32px" height="32px" viewBox="0 0 32 32" style="enable-background:new 0 0 32 32;" xml:space="preserve">
<style type="text/css">
	.grey_15{fill:#434C4B;}
	.grey_16{fill:#373F3F;}
	.grey_17{fill:#2B3332;}
	.sand_01{fill:#FFF3D9;}
	.sand_02{fill:#FDEBBB;}
	.sand_03{fill:#FAE09F;}
	.sand_04{fill:#F7D684;}
	.sand_06{fill:#E8BA67;}
	.sand_07{fill:#DDAA5F;}
	.flamered_01{fill:#FF4A00;}
	.flamered_02{fill:#F74000;}
	.flameorange_01{fill:#FF8F00;}
	.flameorange_02{fill:#F97C00;}
	.flameyellow_01{fill:#FFD400;}
	.flameyellow_02{fill:#F9C900;}
	.st0{fill:#78DF7C;}
	.st1{fill:#54B668;}
	.st2{fill:#7A63AD;}
	.st3{fill:#866EBA;}
	.st4{fill:#D2E6F3;}
	.st5{fill:#C1DDEE;}
	.st6{fill:#E0C193;}
	.st7{fill:#DBBA8C;}
	.st8{fill:#7FB8E0;}
	.st9{fill:#8EC0E0;}
	.st10{fill:#71B1E1;}
	.st11{fill:#9FC9E4;}
	.st12{fill:#FFEAA7;}
	.st13{fill:#FFE28A;}
	.st14{fill:#FF6B8B;}
	.st15{fill:#F4A984;}
	.st16{fill:#EA9C7A;}
	.st17{fill:#FEF1C6;}
	.st18{fill:#E85160;}
	.st19{fill:#D84459;}
	.st20{fill:#F7F7F7;}
	.st21{fill:#FFFFFF;}
	.st22{fill:#E55D53;}
	.st23{fill:#FFD96C;}
	.st24{fill:#9ACC2E;}
	.st25{fill:#AADB3D;}
	.st26{fill:#A2D336;}
	.st27{fill:#93C427;}
	.st28{fill:#F79654;}
	.st29{fill:#FFD04D;}
	.st30{fill:#FCA15E;}
	.st31{fill:#A9E260;}
	.st32{fill:#97DB4A;}
	.st33{fill:#B1E346;}
	.st34{fill:#FCD8DE;}
	.st35{fill:#CDA073;}
	.st36{fill:#C09265;}
	.st37{fill:#A7794C;}
	.st38{fill:#96643B;}
	.st39{fill:#845331;}
	.st40{fill:#B38658;}
	.st41{fill:#9E6E43;}
	.st42{fill:#8D5B36;}
	.st43{fill:#FBCFD6;}
	.st44{fill:#FAC4D1;}
	.st45{fill:#FAB8CD;}
	.st46{fill:#F9ADC8;}
	.st47{fill:#F8A1C4;}
	.st48{fill:#F297BE;}
	.st49{fill:#EA8BB4;}
	.st50{fill:#E8BA36;}
	.st51{fill:#E0B12E;}
	.st52{fill:#FFC172;}
	.st53{fill:#FFAD68;}
	.st54{fill:#FFB76D;}
	.st55{fill:#6E57A0;}
	.st56{fill:#675099;}
	.st57{fill:#F3586F;}
	.st58{fill:#604893;}
	.st59{fill:#CBEB6B;}
	.st60{fill:#4EAC5D;}
	.st61{fill:#BEE758;}
	.st62{fill:#6CD275;}
	.st63{fill:#48A353;}
	.st64{fill:#60C46F;}
	.st65{fill:#D9F07D;}
	.st66{fill:#E6F490;}
	.st67{fill:#4896C8;}
	.st68{fill:#4390BF;}
	.st69{fill:#5CA3D5;}
	.st70{fill:#529CCF;}
	.st71{fill:#F7C845;}
	.st72{fill:#ECCD50;}
	.st73{fill:#FF8D6E;}
	.st74{fill:#FF805D;}
	.st75{fill:#EDEEEE;}
	.st76{fill:#65A9DC;}
	.st77{fill:#8BC07A;}
	.st78{fill:#F0C13E;}
	.st79{fill:#9A3644;}
	.st80{fill:#8A323F;}
	.st81{fill:#945BA0;}
	.st82{fill:#A366AD;}
	.st83{fill:#B370B9;}
	.st84{fill:#C27BC6;}
	.st85{fill:#F6B392;}
	.st86{fill:#D285D2;}
	.st87{fill:#FDEBBB;}
	.st88{fill:#FAE09F;}
	.st89{fill:#DBA728;}
	.st90{fill:#505957;}
	.st91{fill:#56C7CD;}
	.st92{fill:#687271;}
	.st93{fill:#5C6664;}
	.st94{fill:#51BAC5;}
	.st95{fill:#D64F45;}
	.st96{fill:#D1D4D4;}
	.st97{fill:#E3E5E5;}
	.st98{fill:#DADDDC;}
	.st99{fill:#845194;}
	.st100{fill:#5BD3D5;}
	.st101{fill:#46B080;}
	.st102{fill:#53BF8C;}
	.st103{fill:#6EDCA2;}
	.st104{fill:#7AEBAC;}
	.st105{fill:#60CD96;}
	.st106{fill:#E8803A;}
	.st107{fill:#0A6F8E;}
	.st108{fill:#0F769B;}
	.st109{fill:#EF8C48;}
	.st110{fill:#838C8A;}
	.st111{fill:#757F7E;}
	.st112{fill:#D1473D;}
	.st113{fill:#9179C6;}
	.st114{fill:#906DBB;}
	.st115{fill:#A78EDD;}
	.st116{fill:#9D85D3;}
	.st117{fill:#E2EFF7;}
	.st118{fill:#B0D3EA;}
	.st119{fill:#F7BC48;}
	.st120{fill:#FFC550;}
	.st121{fill:#FFCF6E;}
	.st122{fill:#4CAEBC;}
	.st123{fill:#47A1B4;}
	.st124{fill:#4295AC;}
	.st125{fill:#FDE2E6;}
	.st126{fill:#FFF5D8;}
	.st127{fill:#99533D;}
	.st128{fill:#914C39;}
	.st129{fill:#D4C9EF;}
	.st130{fill:#E3DBF4;}
	.st131{fill:#F1EDFA;}
	.st132{fill:#C6B7E9;}
	.st133{fill:#B8A5E4;}
	.st134{fill:#F0C877;}
	.st135{fill:#D4994F;}
	.st136{fill:#C98B44;}
	.st137{fill:#F7D684;}
	.st138{fill:#BF7D3C;}
	.st139{fill:#909997;}
	.st140{fill:#724D31;}
	.st141{fill:#93C2CA;}
	.st142{fill:#99C7CE;}
	.st143{fill:#9FCCD3;}
	.st144{fill:#ACD7DD;}
	.st145{fill:#B9E2E7;}
	.st146{fill:#A5D1D8;}
	.st147{fill:#88B9C3;}
	.st148{fill:#7EB1BD;}
	.st149{fill:#C8CCCB;}
	.st150{fill:none;}
	.st151{fill:#4F4032;}
	.st152{fill:#604631;}
	.st153{fill:#F9BDA0;}
	.st154{fill:#E7685F;}
	.st155{fill:#C84054;}
	.st156{fill:#ABB2B1;}
	.st157{fill:#9DA5A4;}
	.st158{fill:#EFD4A7;}
	.st159{fill:#EACEA1;}
	.st160{fill:#FCE8CC;}
	.st161{fill:#F5DEB9;}
	.st162{fill:#CFAB81;}
	.st163{fill:#D5B387;}
	.st164{fill:#3A4274;}
	.st165{fill:#707EB7;}
	.st166{fill:#424B7E;}
	.st167{fill:#7C8AC4;}
	.st168{fill:#FFD98D;}
	.st169{fill:#8694D1;}
	.st170{fill:#9AA6D6;}
	.st171{fill:#ABB4DD;}
	.st172{fill:#FDECEF;}
	.st173{fill:#137FA0;}
	.st174{fill:#EB6B48;}
	.st175{fill:#F57552;}
	.st176{fill:#515E91;}
	.st177{fill:#5C699E;}
	.st178{fill:#6673AA;}
	.st179{fill:#504484;}
	.st180{fill:#FF5F7E;}
	.st181{fill:#EBCEEB;}
	.st182{fill:#E5BDE5;}
	.st183{fill:#E0ABDF;}
	.st184{fill:#D799D6;}
	.st185{fill:#3B8FA3;}
	.st186{fill:#348B99;}
	.st187{fill:#3AA176;}
	.st188{fill:#84ED82;}
	.st189{fill:#EFEAEA;}
	.st190{fill:#FF9A7E;}
	.st191{fill:#FCD2BE;}
	.st192{fill:#FCDDCF;}
	.st193{fill:#C683C8;}
	.st194{fill:#A55F49;}
	.st195{fill:#FEF5F7;}
</style>
<g>
	<path class="flamered_01" d="M16,0c-0.113,0-0.226,0.05-0.283,0.151c-0.508,0.9-1.699,2.111-3.574,4.467
		c-1.322,1.661-1.624,3.603-1.606,5.1c0.003,0.266-0.353,0.352-0.473,0.115c-0.015-0.03-0.03-0.06-0.045-0.089
		c-0.118-0.231-0.51-0.21-0.602,0.03C8.862,11.222,7,12.041,7,17.539C7,24,16,24,16,24V0z"/>
	<path class="flamered_02" d="M25,17.539c0-5.498-1.862-6.317-2.417-7.766c-0.092-0.239-0.484-0.261-0.602-0.03
		c-0.015,0.029-0.03,0.059-0.045,0.089c-0.12,0.237-0.476,0.151-0.473-0.115c0.018-1.496-0.284-3.438-1.606-5.1
		c-1.875-2.356-3.067-3.566-3.574-4.467C16.226,0.05,16.113,0,16,0v24C16,24,25,24,25,17.539z"/>
	<path class="flameorange_01" d="M16.002,4.039C16.001,4.038,16.001,4.037,16,4.037c-0.254,0.313-0.547,0.662-0.888,1.064
		c-0.526,0.623-1.16,1.375-1.903,2.309c-1.284,1.612-1.459,3.573-1.369,4.967c0.026,0.403-0.448,0.691-0.888,0.537l-0.556-0.196
		c-0.304-0.107-0.655-0.004-0.812,0.241c-0.641,0.996-1.298,2.415-1.298,5.672c0,5.276,7.39,5.369,7.716,5.37V4.039z"/>
	<path class="flameorange_02" d="M21.604,12.717l-0.556,0.196c-0.439,0.155-0.914-0.134-0.888-0.537
		c0.09-1.394-0.085-3.354-1.368-4.967c-0.745-0.933-1.379-1.685-1.905-2.309c-0.34-0.402-0.633-0.75-0.886-1.062V24
		c0,0,0.001,0,0.001,0c0.348,0,7.712-0.074,7.712-5.37c0-3.256-0.657-4.675-1.298-5.672C22.258,12.713,21.908,12.61,21.604,12.717z"
		/>
	<path class="flameyellow_01" d="M16,7.014c-0.488,0.578-1.063,1.265-1.726,2.098c-1.091,1.37-1.228,3.092-1.149,4.298
		c0.028,0.455-0.159,0.887-0.527,1.217c-0.363,0.325-0.873,0.511-1.397,0.511c-0.071,0-0.16-0.01-0.252-0.024
		c-0.306-0.048-0.607,0.1-0.714,0.348c-0.379,0.877-0.662,2.128-0.662,4.26c0,4.127,5.743,4.277,6.429,4.279V7.014z"/>
	<path class="flameyellow_02" d="M16.004,24c0.667,0,6.425-0.124,6.425-4.279c0-2.133-0.283-3.383-0.662-4.26
		c-0.107-0.247-0.409-0.396-0.714-0.348c-0.092,0.014-0.182,0.024-0.252,0.024c-0.525,0-1.035-0.186-1.397-0.511
		c-0.368-0.329-0.555-0.762-0.526-1.219c0.078-1.204-0.059-2.925-1.149-4.295C17.063,8.28,16.488,7.593,16,7.014V24
		C16.001,24,16.003,24,16.004,24z"/>
	<path class="grey_17" d="M18.5,31h0.86c0.325,0,0.564-0.306,0.485-0.621L19.5,29H18v1.5C18,30.776,18.224,31,18.5,31z"/>
	<path class="grey_16" d="M13.5,31h-0.86c-0.325,0-0.564-0.306-0.485-0.621L12.5,29H14v1.5C14,30.776,13.776,31,13.5,31z"/>
	<polygon class="sand_03" points="14,22 14,29 12.5,29 12.205,21.129 	"/>
	<path class="sand_02" d="M14.5,14l-0.803,3.21c-0.13,0.521-0.363,1.011-0.686,1.441l0,0c-0.647,0.863-0.921,1.949-0.761,3.016
		L13.5,30H15v-6h1V14H14.5z"/>
	<path class="grey_16" d="M17.14,32h1.219c0.325,0,0.564-0.306,0.485-0.621L18.5,30H17l-0.345,1.379
		C16.576,31.694,16.815,32,17.14,32z"/>
	<path class="grey_15" d="M14.86,32H13.64c-0.325,0-0.564-0.306-0.485-0.621L13.5,30H15l0.345,1.379
		C15.424,31.694,15.185,32,14.86,32z"/>
	<polygon class="sand_04" points="18,22 18,29 19.5,29 19.795,21.129 	"/>
	<path class="sand_03" d="M17.5,14l0.803,3.21c0.13,0.521,0.363,1.011,0.686,1.441l0,0c0.647,0.863,0.921,1.949,0.761,3.016L18.5,30
		H17v-6h-1V14H17.5z"/>
	<path class="sand_01" d="M16.002,6.001C15.896,6,15.789,6.062,15.757,6.189l-0.693,2.77l-2.111-2.041
		c-0.169-0.164-0.45-0.024-0.422,0.21L13,11.012v1.952c0,0.663,0.263,1.299,0.732,1.768l0.51,0.51
		c0.165,0.165,0.258,0.389,0.258,0.622v0.001c0,0.379,0.242,0.715,0.602,0.835l0.108,0.036c0.257,0.086,0.524,0.128,0.791,0.128
		v-5.646h0.002V6.001z"/>
	<path class="sand_02" d="M19.468,7.128c0.028-0.234-0.253-0.373-0.422-0.21l-2.111,2.041l-0.693-2.77
		c-0.031-0.125-0.136-0.188-0.241-0.189V9H16v7.865c0.267,0,0.534-0.043,0.791-0.128l0.108-0.036
		c0.359-0.12,0.602-0.456,0.602-0.835v-0.001c0-0.233,0.093-0.457,0.258-0.622l0.51-0.51C18.737,14.263,19,13.628,19,12.964v-1.952
		L19.468,7.128z"/>
	<path class="sand_06" d="M13.5,9.5c0.251-0.251,0.573-0.412,0.918-0.471l-1.304-1.262l0.231,1.923
		C13.393,9.625,13.442,9.558,13.5,9.5z"/>
	<path class="sand_07" d="M18.5,9.5c0.058,0.058,0.107,0.125,0.156,0.19l0.231-1.923l-1.304,1.262
		C17.927,9.088,18.249,9.249,18.5,9.5z"/>
	<path class="flamered_01" d="M14.491,12.902c-0.056-0.177-0.236-0.642-0.677-1.093c-0.089-0.091-0.216-0.073-0.238,0.034
		c-0.074,0.35-0.172,1.035,0.129,1.252c0.442,0.32,0.687,0.066,0.772-0.059C14.501,13,14.507,12.952,14.491,12.902z"/>
	<path class="flamered_02" d="M17.509,12.902c0.056-0.177,0.236-0.642,0.677-1.093c0.089-0.091,0.216-0.073,0.238,0.034
		c0.074,0.35,0.172,1.035-0.129,1.252c-0.442,0.32-0.687,0.066-0.772-0.059C17.499,13,17.493,12.952,17.509,12.902z"/>
</g>
</svg>
