<?xml version="1.0" encoding="utf-8"?>
<!-- Generator: Adobe Illustrator 20.1.0, SVG Export Plug-In . SVG Version: 6.00 Build 0)  -->
<!DOCTYPE svg PUBLIC "-//W3C//DTD SVG 1.1//EN" "http://www.w3.org/Graphics/SVG/1.1/DTD/svg11.dtd">
<svg version="1.1" id="icons" xmlns="http://www.w3.org/2000/svg" xmlns:xlink="http://www.w3.org/1999/xlink" x="0px" y="0px"
	 width="32px" height="32px" viewBox="0 0 32 32" style="enable-background:new 0 0 32 32;" xml:space="preserve">
<style type="text/css">
	.white{fill:#FFFFFF;}
	.grey_01{fill:#F7F7F7;}
	.grey_16{fill:#373F3F;}
	.grey_17{fill:#2B3332;}
	.aloe_04{fill:#6CD275;}
	.aloe_05{fill:#60C46F;}
	.lemon_06{fill:#FFD04D;}
	.lemon_07{fill:#F7C845;}
	.dirt_01{fill:#FCE8CC;}
	.dirt_02{fill:#F5DEB9;}
	.dirt_03{fill:#EFD4A7;}
	.dirt_04{fill:#EACEA1;}
	.dirt_06{fill:#E0C193;}
	.dirt_07{fill:#DBBA8C;}
	.dirt_08{fill:#D5B387;}
	.dirt_09{fill:#CFAB81;}
	.dirt_19{fill:#604631;}
	.dirt_20{fill:#4F4032;}
	.st0{fill:#78DF7C;}
	.st1{fill:#54B668;}
	.st2{fill:#7A63AD;}
	.st3{fill:#866EBA;}
	.st4{fill:#D2E6F3;}
	.st5{fill:#C1DDEE;}
	.st6{fill:#7FB8E0;}
	.st7{fill:#8EC0E0;}
	.st8{fill:#71B1E1;}
	.st9{fill:#9FC9E4;}
	.st10{fill:#FFEAA7;}
	.st11{fill:#FFE28A;}
	.st12{fill:#FF6B8B;}
	.st13{fill:#F4A984;}
	.st14{fill:#EA9C7A;}
	.st15{fill:#FEF1C6;}
	.st16{fill:#E85160;}
	.st17{fill:#D84459;}
	.st18{fill:#E55D53;}
	.st19{fill:#FFD400;}
	.st20{fill:#FF8F00;}
	.st21{fill:#FF4A00;}
	.st22{fill:#F7D684;}
	.st23{fill:#FAE09F;}
	.st24{fill:#FDEBBB;}
	.st25{fill:#FFF3D9;}
	.st26{fill:#FFD96C;}
	.st27{fill:#9ACC2E;}
	.st28{fill:#AADB3D;}
	.st29{fill:#A2D336;}
	.st30{fill:#93C427;}
	.st31{fill:#F79654;}
	.st32{fill:#FCA15E;}
	.st33{fill:#A9E260;}
	.st34{fill:#97DB4A;}
	.st35{fill:#B1E346;}
	.st36{fill:#FCD8DE;}
	.st37{fill:#CDA073;}
	.st38{fill:#C09265;}
	.st39{fill:#A7794C;}
	.st40{fill:#96643B;}
	.st41{fill:#845331;}
	.st42{fill:#B38658;}
	.st43{fill:#9E6E43;}
	.st44{fill:#8D5B36;}
	.st45{fill:#FBCFD6;}
	.st46{fill:#FAC4D1;}
	.st47{fill:#FAB8CD;}
	.st48{fill:#F9ADC8;}
	.st49{fill:#F8A1C4;}
	.st50{fill:#F297BE;}
	.st51{fill:#EA8BB4;}
	.st52{fill:#E8BA36;}
	.st53{fill:#E0B12E;}
	.st54{fill:#FFC172;}
	.st55{fill:#FFAD68;}
	.st56{fill:#FFB76D;}
	.st57{fill:#6E57A0;}
	.st58{fill:#675099;}
	.st59{fill:#F3586F;}
	.st60{fill:#604893;}
	.st61{fill:#CBEB6B;}
	.st62{fill:#4EAC5D;}
	.st63{fill:#BEE758;}
	.st64{fill:#48A353;}
	.st65{fill:#D9F07D;}
	.st66{fill:#E6F490;}
	.st67{fill:#4896C8;}
	.st68{fill:#4390BF;}
	.st69{fill:#5CA3D5;}
	.st70{fill:#529CCF;}
	.st71{fill:#ECCD50;}
	.st72{fill:#FF8D6E;}
	.st73{fill:#FF805D;}
	.st74{fill:#EDEEEE;}
	.st75{fill:#65A9DC;}
	.st76{fill:#8BC07A;}
	.st77{fill:#F0C13E;}
	.st78{fill:#9A3644;}
	.st79{fill:#8A323F;}
	.st80{fill:#945BA0;}
	.st81{fill:#A366AD;}
	.st82{fill:#B370B9;}
	.st83{fill:#C27BC6;}
	.st84{fill:#F6B392;}
	.st85{fill:#D285D2;}
	.st86{fill:#DBA728;}
	.st87{fill:#505957;}
	.st88{fill:#56C7CD;}
	.st89{fill:#434C4B;}
	.st90{fill:#687271;}
	.st91{fill:#5C6664;}
	.st92{fill:#51BAC5;}
	.st93{fill:#D64F45;}
	.st94{fill:#D1D4D4;}
	.st95{fill:#E3E5E5;}
	.st96{fill:#DADDDC;}
	.st97{fill:#845194;}
	.st98{fill:#5BD3D5;}
	.st99{fill:#46B080;}
	.st100{fill:#53BF8C;}
	.st101{fill:#6EDCA2;}
	.st102{fill:#7AEBAC;}
	.st103{fill:#60CD96;}
	.st104{fill:#E8803A;}
	.st105{fill:#0A6F8E;}
	.st106{fill:#0F769B;}
	.st107{fill:#EF8C48;}
	.st108{fill:#838C8A;}
	.st109{fill:#757F7E;}
	.st110{fill:#D1473D;}
	.st111{fill:#9179C6;}
	.st112{fill:#906DBB;}
	.st113{fill:#A78EDD;}
	.st114{fill:#9D85D3;}
	.st115{fill:#E2EFF7;}
	.st116{fill:#B0D3EA;}
	.st117{fill:#F7BC48;}
	.st118{fill:#FFC550;}
	.st119{fill:#FFCF6E;}
	.st120{fill:#4CAEBC;}
	.st121{fill:#47A1B4;}
	.st122{fill:#4295AC;}
	.st123{fill:#FDE2E6;}
	.st124{fill:#FFF5D8;}
	.st125{fill:#99533D;}
	.st126{fill:#914C39;}
	.st127{fill:#D4C9EF;}
	.st128{fill:#E3DBF4;}
	.st129{fill:#F1EDFA;}
	.st130{fill:#C6B7E9;}
	.st131{fill:#B8A5E4;}
	.st132{fill:#F0C877;}
	.st133{fill:#E8BA67;}
	.st134{fill:#DDAA5F;}
	.st135{fill:#D4994F;}
	.st136{fill:#C98B44;}
	.st137{fill:#BF7D3C;}
	.st138{fill:#909997;}
	.st139{fill:#724D31;}
	.st140{fill:#93C2CA;}
	.st141{fill:#99C7CE;}
	.st142{fill:#9FCCD3;}
	.st143{fill:#ACD7DD;}
	.st144{fill:#B9E2E7;}
	.st145{fill:#A5D1D8;}
	.st146{fill:#88B9C3;}
	.st147{fill:#7EB1BD;}
	.st148{fill:#60C46F;}
	.st149{fill:#C8CCCB;}
	.st150{fill:none;}
	.st151{fill:#F9BDA0;}
	.st152{fill:#E7685F;}
	.st153{fill:#C84054;}
	.st154{fill:#ABB2B1;}
	.st155{fill:#9DA5A4;}
	.st156{fill:#FFD04D;}
	.st157{fill:#F74000;}
	.st158{fill:#F97C00;}
	.st159{fill:#F9C900;}
	.st160{fill:#3A4274;}
	.st161{fill:#707EB7;}
	.st162{fill:#424B7E;}
	.st163{fill:#7C8AC4;}
	.st164{fill:#FFD98D;}
	.st165{fill:#8694D1;}
	.st166{fill:#9AA6D6;}
	.st167{fill:#ABB4DD;}
	.st168{fill:#FDECEF;}
	.st169{fill:#137FA0;}
	.st170{fill:#EB6B48;}
	.st171{fill:#F57552;}
	.st172{fill:#515E91;}
	.st173{fill:#5C699E;}
	.st174{fill:#6673AA;}
	.st175{fill:#504484;}
	.st176{fill:#FF5F7E;}
	.st177{fill:#EBCEEB;}
	.st178{fill:#E5BDE5;}
	.st179{fill:#E0ABDF;}
	.st180{fill:#D799D6;}
	.st181{fill:#3B8FA3;}
	.st182{fill:#348B99;}
	.st183{fill:#F7F7F7;}
	.st184{fill:#3AA176;}
	.st185{fill:#84ED82;}
	.st186{fill:#EFEAEA;}
	.st187{fill:#FF9A7E;}
	.st188{fill:#FCD2BE;}
	.st189{fill:#FCDDCF;}
	.st190{fill:#C683C8;}
	.st191{fill:#A55F49;}
	.st192{fill:#FEF5F7;}
</style>
<path class="dirt_06" d="M16,10.001c-0.375,0-0.755,0.02-1.138,0.062c-4.648,0.513-8.396,4.344-8.819,9.001
	c-0.248,2.723,0.598,5.247,2.147,7.182c0.371,0.464,1.07,0.495,1.49,0.075L16,20V10.001z"/>
<path class="dirt_07" d="M16,10.001c0.375,0,0.755,0.02,1.138,0.062c4.648,0.513,8.396,4.344,8.819,9.001
	c0.248,2.723-0.598,5.247-2.147,7.182c-0.371,0.464-1.07,0.495-1.49,0.075L16,20V10.001z"/>
<path class="dirt_03" d="M15.208,0c-0.627,0-1.1,0.571-0.982,1.187l0.379,1.989c-0.121,0.029-0.242,0.056-0.36,0.092l-0.799-2.097
	c-0.229-0.6-0.955-0.832-1.489-0.476L10.975,1.35c-0.512,0.341-0.597,1.059-0.18,1.51l1.394,1.51C10.852,5.47,10,7.134,10,9
	c0,0.899,0.2,1.75,0.556,2.515c0.317,0.681,0.137,1.465-0.379,2.011c-1.681,1.783-2.555,4.333-2.021,7.077
	c0.607,3.12,3.119,5.635,6.239,6.241c0.544,0.106,1.079,0.145,1.604,0.145V0H15.208z"/>
<path class="dirt_04" d="M21.869,13.575c-0.538-0.58-0.723-1.401-0.397-2.121c0.503-1.112,0.677-2.403,0.39-3.756
	c-0.281-1.322-1.031-2.485-2.049-3.327l1.394-1.51c0.417-0.452,0.331-1.169-0.18-1.51l-0.982-0.655
	c-0.534-0.356-1.261-0.124-1.489,0.476l-0.799,2.097c-0.119-0.036-0.236-0.074-0.358-0.102l0.377-1.979
	C17.891,0.571,17.419,0,16.792,0H16v26.989c4.417-0.001,8-3.571,8-7.989C24,16.903,23.19,15,21.869,13.575z"/>
<path class="lemon_07" d="M17.91,26l-0.903,5.418C16.956,31.723,17.191,32,17.5,32h5.91c0.276,0,0.5-0.224,0.5-0.5v-0.001
	c0-0.881-0.6-1.649-1.454-1.863L19.91,29v-4L17.91,26z"/>
<path class="lemon_06" d="M14,26l0.903,5.418C14.954,31.723,14.719,32,14.41,32H8.5C8.224,32,8,31.776,8,31.5v-0.001
	c0-0.881,0.6-1.649,1.454-1.863L12,29v-4L14,26z"/>
<path class="white" d="M15.5,11l-3.141-3.589c-0.207-0.237-0.576-0.229-0.771,0.018C11.313,7.779,11,8.324,11,9
	c0,0.908,0.565,1.581,0.846,1.859C11.94,10.953,12.063,11,12.195,11H15.5z"/>
<path class="dirt_01" d="M16,15c-3.866,0-7,3.134-7,7c0,0.347,0.034,0.685,0.082,1.018c1.13,1.942,3.056,3.387,5.313,3.826
	c0.544,0.106,1.08,0.15,1.604,0.149V15z"/>
<path class="dirt_02" d="M22.921,22.996C22.968,22.67,23,22.339,23,22c0-3.866-3.134-7-7-7v11.993
	C18.958,26.992,21.538,25.386,22.921,22.996z"/>
<path class="grey_01" d="M16.5,11l3.141-3.589c0.207-0.237,0.576-0.229,0.771,0.018C20.687,7.779,21,8.324,21,9
	c0,0.908-0.565,1.581-0.846,1.859C20.06,10.953,19.937,11,19.805,11H16.5z"/>
<path class="white" d="M17.716,18.1l-5.47,4.254c-0.475,0.369-0.518,1.071-0.093,1.496l1.934,1.934
	c0.425,0.425,1.127,0.382,1.496-0.093l4.254-5.47L17.716,18.1z"/>
<path class="dirt_09" d="M25.162,24H21.5c-0.276,0-0.5,0.224-0.5,0.5v2c0,0.276,0.224,0.5,0.5,0.5h0.732
	c0.613,0,1.193-0.28,1.576-0.758C24.352,25.562,24.809,24.809,25.162,24z"/>
<path class="aloe_05" d="M22.737,13.078L24.651,15l4.803-4.426c0.209-0.193,0.216-0.52,0.015-0.721L28.07,8.453
	c-0.195-0.195-0.512-0.195-0.707,0L22.737,13.078z"/>
<path class="aloe_04" d="M30.681,11.785L29.918,9.66c-0.105-0.293-0.449-0.419-0.719-0.265L22.716,13.1l-5,5l2.121,2.121L24.651,15
	l5.764-2.589C30.654,12.303,30.769,12.031,30.681,11.785z"/>
<path class="dirt_08" d="M25.95,21H19.5c-0.276,0-0.5,0.224-0.5,0.5v2c0,0.276,0.224,0.5,0.5,0.5h5.662
	C25.571,23.065,25.844,22.058,25.95,21z"/>
<path class="dirt_07" d="M18.5,18c-0.276,0-0.5,0.224-0.5,0.5v2c0,0.276,0.224,0.5,0.5,0.5h7.45c0.033-0.329,0.05-0.662,0.05-1
	c0-0.685-0.07-1.354-0.201-2H18.5z"/>
<path class="dirt_06" d="M24.651,15H19.5c-0.276,0-0.5,0.224-0.5,0.5v2c0,0.276,0.224,0.5,0.5,0.5h6.299
	C25.581,16.926,25.184,15.919,24.651,15z"/>
<path class="dirt_19" d="M16,7.993l-3.259-1.955c-0.253-0.152-0.514,0.183-0.305,0.391L16,9.993V7.993z"/>
<path class="dirt_20" d="M19.564,6.429c0.208-0.208-0.053-0.543-0.305-0.391L16,7.993v2L19.564,6.429z"/>
<path class="lemon_06" d="M16,10.236c-0.306,0-0.613,0.07-0.894,0.211l-2.211,1.106C12.4,11.8,12.2,12.4,12.447,12.894l2.106,4.211
	C14.827,17.654,15.387,18,16,18V10.236z"/>
<path class="lemon_07" d="M17.447,17.106l2.106-4.211C19.8,12.4,19.6,11.8,19.106,11.553l-2.211-1.106
	c-0.281-0.141-0.588-0.211-0.894-0.211V18C16.613,18,17.173,17.654,17.447,17.106z"/>
<path class="grey_16" d="M13.986,9.27l-1.604-1.833C12.151,7.804,12,8.364,12,9c0,1.105,0.448,2,1,2
	C13.506,11,13.92,10.246,13.986,9.27z"/>
<path class="grey_17" d="M20,9c0-0.636-0.151-1.196-0.383-1.563L18.014,9.27C18.08,10.246,18.494,11,19,11C19.552,11,20,10.105,20,9
	z"/>
</svg>
