<?xml version="1.0" encoding="utf-8"?>
<!-- Generator: Adobe Illustrator 20.1.0, SVG Export Plug-In . SVG Version: 6.00 Build 0)  -->
<!DOCTYPE svg PUBLIC "-//W3C//DTD SVG 1.1//EN" "http://www.w3.org/Graphics/SVG/1.1/DTD/svg11.dtd">
<svg version="1.1" id="icons" xmlns="http://www.w3.org/2000/svg" xmlns:xlink="http://www.w3.org/1999/xlink" x="0px" y="0px"
	 width="32px" height="32px" viewBox="0 0 32 32" style="enable-background:new 0 0 32 32;" xml:space="preserve">
<style type="text/css">
	.white{fill:#FFFFFF;}
	.grey_01{fill:#F7F7F7;}
	.grey_16{fill:#373F3F;}
	.grey_17{fill:#2B3332;}
	.sand_02{fill:#FDEBBB;}
	.sand_03{fill:#FAE09F;}
	.sand_04{fill:#F7D684;}
	.dirt_12{fill:#B38658;}
	.dirt_13{fill:#A7794C;}
	.dirt_14{fill:#9E6E43;}
	.dirt_15{fill:#96643B;}
	.dirt_19{fill:#604631;}
	.dirt_20{fill:#4F4032;}
	.st0{fill:#78DF7C;}
	.st1{fill:#54B668;}
	.st2{fill:#7A63AD;}
	.st3{fill:#866EBA;}
	.st4{fill:#D2E6F3;}
	.st5{fill:#C1DDEE;}
	.st6{fill:#E0C193;}
	.st7{fill:#DBBA8C;}
	.st8{fill:#7FB8E0;}
	.st9{fill:#8EC0E0;}
	.st10{fill:#71B1E1;}
	.st11{fill:#9FC9E4;}
	.st12{fill:#FFEAA7;}
	.st13{fill:#FFE28A;}
	.st14{fill:#FF6B8B;}
	.st15{fill:#F4A984;}
	.st16{fill:#EA9C7A;}
	.st17{fill:#FEF1C6;}
	.st18{fill:#E85160;}
	.st19{fill:#D84459;}
	.st20{fill:#E55D53;}
	.st21{fill:#FFD400;}
	.st22{fill:#FF8F00;}
	.st23{fill:#FF4A00;}
	.st24{fill:#FFF3D9;}
	.st25{fill:#FFD96C;}
	.st26{fill:#9ACC2E;}
	.st27{fill:#AADB3D;}
	.st28{fill:#A2D336;}
	.st29{fill:#93C427;}
	.st30{fill:#F79654;}
	.st31{fill:#FFD04D;}
	.st32{fill:#FCA15E;}
	.st33{fill:#A9E260;}
	.st34{fill:#97DB4A;}
	.st35{fill:#B1E346;}
	.st36{fill:#FCD8DE;}
	.st37{fill:#CDA073;}
	.st38{fill:#C09265;}
	.st39{fill:#845331;}
	.st40{fill:#8D5B36;}
	.st41{fill:#FBCFD6;}
	.st42{fill:#FAC4D1;}
	.st43{fill:#FAB8CD;}
	.st44{fill:#F9ADC8;}
	.st45{fill:#F8A1C4;}
	.st46{fill:#F297BE;}
	.st47{fill:#EA8BB4;}
	.st48{fill:#E8BA36;}
	.st49{fill:#E0B12E;}
	.st50{fill:#FFC172;}
	.st51{fill:#FFAD68;}
	.st52{fill:#FFB76D;}
	.st53{fill:#6E57A0;}
	.st54{fill:#675099;}
	.st55{fill:#F3586F;}
	.st56{fill:#604893;}
	.st57{fill:#CBEB6B;}
	.st58{fill:#4EAC5D;}
	.st59{fill:#BEE758;}
	.st60{fill:#6CD275;}
	.st61{fill:#48A353;}
	.st62{fill:#60C46F;}
	.st63{fill:#D9F07D;}
	.st64{fill:#E6F490;}
	.st65{fill:#4896C8;}
	.st66{fill:#4390BF;}
	.st67{fill:#5CA3D5;}
	.st68{fill:#529CCF;}
	.st69{fill:#F7C845;}
	.st70{fill:#ECCD50;}
	.st71{fill:#FF8D6E;}
	.st72{fill:#FF805D;}
	.st73{fill:#EDEEEE;}
	.st74{fill:#65A9DC;}
	.st75{fill:#8BC07A;}
	.st76{fill:#F0C13E;}
	.st77{fill:#9A3644;}
	.st78{fill:#8A323F;}
	.st79{fill:#945BA0;}
	.st80{fill:#A366AD;}
	.st81{fill:#B370B9;}
	.st82{fill:#C27BC6;}
	.st83{fill:#F6B392;}
	.st84{fill:#D285D2;}
	.st85{fill:#FDEBBB;}
	.st86{fill:#FAE09F;}
	.st87{fill:#DBA728;}
	.st88{fill:#505957;}
	.st89{fill:#56C7CD;}
	.st90{fill:#434C4B;}
	.st91{fill:#687271;}
	.st92{fill:#5C6664;}
	.st93{fill:#51BAC5;}
	.st94{fill:#D64F45;}
	.st95{fill:#D1D4D4;}
	.st96{fill:#E3E5E5;}
	.st97{fill:#DADDDC;}
	.st98{fill:#845194;}
	.st99{fill:#5BD3D5;}
	.st100{fill:#46B080;}
	.st101{fill:#53BF8C;}
	.st102{fill:#6EDCA2;}
	.st103{fill:#7AEBAC;}
	.st104{fill:#60CD96;}
	.st105{fill:#E8803A;}
	.st106{fill:#0A6F8E;}
	.st107{fill:#0F769B;}
	.st108{fill:#EF8C48;}
	.st109{fill:#838C8A;}
	.st110{fill:#757F7E;}
	.st111{fill:#D1473D;}
	.st112{fill:#B38658;}
	.st113{fill:#A7794C;}
	.st114{fill:#9179C6;}
	.st115{fill:#906DBB;}
	.st116{fill:#A78EDD;}
	.st117{fill:#9D85D3;}
	.st118{fill:#E2EFF7;}
	.st119{fill:#B0D3EA;}
	.st120{fill:#F7BC48;}
	.st121{fill:#FFC550;}
	.st122{fill:#FFCF6E;}
	.st123{fill:#4CAEBC;}
	.st124{fill:#47A1B4;}
	.st125{fill:#4295AC;}
	.st126{fill:#FDE2E6;}
	.st127{fill:#FFF5D8;}
	.st128{fill:#99533D;}
	.st129{fill:#914C39;}
	.st130{fill:#D4C9EF;}
	.st131{fill:#E3DBF4;}
	.st132{fill:#F1EDFA;}
	.st133{fill:#C6B7E9;}
	.st134{fill:#B8A5E4;}
	.st135{fill:#F0C877;}
	.st136{fill:#E8BA67;}
	.st137{fill:#DDAA5F;}
	.st138{fill:#D4994F;}
	.st139{fill:#C98B44;}
	.st140{fill:#F7D684;}
	.st141{fill:#BF7D3C;}
	.st142{fill:#909997;}
	.st143{fill:#724D31;}
	.st144{fill:#93C2CA;}
	.st145{fill:#99C7CE;}
	.st146{fill:#9FCCD3;}
	.st147{fill:#ACD7DD;}
	.st148{fill:#B9E2E7;}
	.st149{fill:#A5D1D8;}
	.st150{fill:#88B9C3;}
	.st151{fill:#7EB1BD;}
	.st152{fill:#C8CCCB;}
	.st153{fill:none;}
	.st154{fill:#9E6E43;}
	.st155{fill:#F9BDA0;}
	.st156{fill:#E7685F;}
	.st157{fill:#C84054;}
	.st158{fill:#ABB2B1;}
	.st159{fill:#9DA5A4;}
	.st160{fill:#F74000;}
	.st161{fill:#F97C00;}
	.st162{fill:#F9C900;}
	.st163{fill:#EFD4A7;}
	.st164{fill:#EACEA1;}
	.st165{fill:#FCE8CC;}
	.st166{fill:#F5DEB9;}
	.st167{fill:#CFAB81;}
	.st168{fill:#D5B387;}
	.st169{fill:#3A4274;}
	.st170{fill:#707EB7;}
	.st171{fill:#424B7E;}
	.st172{fill:#7C8AC4;}
	.st173{fill:#FFD98D;}
	.st174{fill:#8694D1;}
	.st175{fill:#9AA6D6;}
	.st176{fill:#ABB4DD;}
	.st177{fill:#FDECEF;}
	.st178{fill:#137FA0;}
	.st179{fill:#EB6B48;}
	.st180{fill:#F57552;}
	.st181{fill:#515E91;}
	.st182{fill:#5C699E;}
	.st183{fill:#6673AA;}
	.st184{fill:#504484;}
	.st185{fill:#FF5F7E;}
	.st186{fill:#EBCEEB;}
	.st187{fill:#E5BDE5;}
	.st188{fill:#E0ABDF;}
	.st189{fill:#D799D6;}
	.st190{fill:#3B8FA3;}
	.st191{fill:#348B99;}
	.st192{fill:#F7F7F7;}
	.st193{fill:#3AA176;}
	.st194{fill:#84ED82;}
	.st195{fill:#EFEAEA;}
	.st196{fill:#FF9A7E;}
	.st197{fill:#FCD2BE;}
	.st198{fill:#FCDDCF;}
	.st199{fill:#C683C8;}
	.st200{fill:#A55F49;}
	.st201{fill:#FEF5F7;}
</style>
<g>
	<path class="dirt_20" d="M16.837,16.869l-0.674-0.738C20.65,12.04,20.502,4.588,20.5,4.514l1-0.027
		C21.509,4.811,21.659,12.474,16.837,16.869z"/>
	<path class="dirt_19" d="M15.163,16.869C10.341,12.474,10.491,4.811,10.5,4.486l1,0.027c-0.002,0.074-0.143,7.533,4.337,11.617
		L15.163,16.869z"/>
	<polygon class="sand_04" points="19,20 20,30.5 23,31 23,32 18,32 18,31 19,30.5 17,21 	"/>
	<polygon class="sand_03" points="13,20 12,30.5 9,31 9,32 14,32 14,31 13,30.5 15,21 	"/>
	<path class="dirt_13" d="M16,11.133c-0.07,0-0.139,0.029-0.189,0.087l-0.496,0.575l-0.628-0.427
		c-0.126-0.086-0.299-0.04-0.366,0.098l-0.33,0.684l-0.717-0.25c-0.144-0.05-0.299,0.039-0.328,0.189l-0.142,0.746l-0.757-0.056
		c-0.152-0.011-0.279,0.115-0.268,0.268l0.056,0.757l-0.746,0.142c-0.15,0.029-0.24,0.184-0.189,0.328l0.25,0.717l-0.684,0.33
		c-0.138,0.066-0.184,0.24-0.098,0.366l0.427,0.628l-0.575,0.496c-0.116,0.1-0.116,0.279,0,0.379l0.575,0.496l-0.427,0.628
		c-0.086,0.126-0.04,0.299,0.098,0.366l0.684,0.33l-0.25,0.717c-0.05,0.144,0.039,0.299,0.189,0.328l0.746,0.142l-0.056,0.757
		c-0.011,0.152,0.115,0.279,0.268,0.268l0.757-0.056l0.142,0.746c0.029,0.15,0.184,0.24,0.328,0.189l0.717-0.25l0.33,0.684
		c0.066,0.138,0.24,0.184,0.366,0.098l0.628-0.427l0.496,0.575c0.05,0.058,0.12,0.087,0.189,0.087V11.133z"/>
	<path class="st154" d="M16.189,22.78l0.496-0.575l0.628,0.427c0.126,0.086,0.299,0.04,0.366-0.098l0.33-0.684l0.717,0.25
		c0.144,0.05,0.299-0.039,0.328-0.189l0.142-0.746l0.757,0.056c0.152,0.011,0.279-0.115,0.268-0.268l-0.056-0.757l0.746-0.142
		c0.15-0.029,0.24-0.184,0.189-0.328l-0.25-0.717l0.684-0.33c0.138-0.066,0.184-0.24,0.098-0.366l-0.427-0.628l0.575-0.496
		c0.116-0.1,0.116-0.279,0-0.379l-0.575-0.496l0.427-0.628c0.086-0.126,0.04-0.299-0.098-0.366l-0.684-0.33l0.25-0.717
		c0.05-0.144-0.039-0.299-0.189-0.328l-0.746-0.142l0.056-0.757c0.011-0.152-0.115-0.279-0.268-0.268l-0.757,0.056l-0.142-0.746
		c-0.029-0.15-0.184-0.24-0.328-0.189l-0.717,0.25l-0.33-0.684c-0.066-0.138-0.24-0.184-0.366-0.098l-0.628,0.427l-0.496-0.575
		c-0.05-0.058-0.12-0.087-0.189-0.087v11.734C16.07,22.867,16.139,22.838,16.189,22.78z"/>
	<path class="st154" d="M16,21l-0.663-0.659c-0.08-0.08-0.204-0.096-0.302-0.039l-0.846,0.494l-0.434-0.771
		c-0.057-0.102-0.178-0.15-0.289-0.117L12.5,20.196l-0.182-0.822c-0.027-0.12-0.137-0.203-0.26-0.195l-0.989,0.063l-0.169,0.485
		c-0.05,0.144,0.039,0.299,0.189,0.328l0.746,0.142l-0.056,0.757c-0.011,0.152,0.115,0.279,0.268,0.268l0.757-0.056l0.142,0.746
		c0.029,0.15,0.184,0.24,0.328,0.189l0.717-0.25l0.33,0.684c0.066,0.138,0.24,0.184,0.366,0.098l0.628-0.427l0.496,0.575
		c0.05,0.058,0.12,0.087,0.189,0.087V21z"/>
	<path class="dirt_15" d="M16.189,22.78l0.496-0.575l0.628,0.427c0.126,0.086,0.299,0.04,0.366-0.098l0.33-0.684l0.717,0.25
		c0.144,0.05,0.299-0.039,0.328-0.189l0.142-0.746l0.757,0.056c0.152,0.011,0.279-0.115,0.268-0.268l-0.056-0.757l0.746-0.142
		c0.15-0.029,0.24-0.184,0.189-0.328l-0.169-0.485l-0.989-0.063c-0.123-0.008-0.233,0.075-0.26,0.195L19.5,20.196l-0.965-0.289
		c-0.112-0.033-0.232,0.015-0.289,0.117l-0.434,0.771l-0.846-0.494c-0.098-0.057-0.222-0.041-0.302,0.039L16,21v1.867
		C16.07,22.867,16.139,22.838,16.189,22.78z"/>
	<path class="dirt_12" d="M11,0.133c-0.07,0-0.139,0.029-0.189,0.087l-0.268,0.31l-0.339-0.23c-0.126-0.086-0.299-0.04-0.366,0.098
		L9.661,0.766L9.274,0.631C9.13,0.581,8.974,0.671,8.946,0.821L8.869,1.223l-0.409-0.03C8.308,1.182,8.182,1.308,8.193,1.461
		l0.03,0.409L7.821,1.946c-0.15,0.029-0.24,0.184-0.189,0.328l0.135,0.387L7.397,2.839C7.26,2.905,7.214,3.078,7.299,3.204
		l0.23,0.339L7.22,3.811c-0.116,0.1-0.116,0.279,0,0.379l0.31,0.268l-0.23,0.339C7.214,4.922,7.26,5.095,7.397,5.161l0.369,0.178
		L7.631,5.726C7.581,5.87,7.671,6.026,7.821,6.054l0.402,0.077l-0.03,0.409C8.182,6.692,8.308,6.818,8.461,6.807l0.409-0.03
		l0.077,0.402c0.029,0.15,0.184,0.24,0.328,0.189l0.387-0.135l0.178,0.369c0.066,0.138,0.24,0.184,0.366,0.098l0.339-0.23
		l0.267,0.31c0.05,0.058,0.12,0.087,0.189,0.087V0.133z"/>
	<path class="dirt_13" d="M11,0.133c0.07,0,0.139,0.029,0.189,0.087l0.268,0.31l0.339-0.23c0.126-0.086,0.299-0.04,0.366,0.098
		l0.178,0.369l0.387-0.135c0.144-0.05,0.299,0.039,0.328,0.189l0.077,0.402l0.409-0.03c0.152-0.011,0.279,0.115,0.268,0.268
		l-0.03,0.409l0.402,0.077c0.15,0.029,0.24,0.184,0.189,0.328l-0.135,0.387l0.369,0.178c0.138,0.066,0.184,0.24,0.098,0.366
		l-0.23,0.339l0.31,0.267c0.116,0.1,0.116,0.279,0,0.379l-0.31,0.268l0.23,0.339c0.086,0.126,0.04,0.299-0.098,0.366l-0.369,0.178
		l0.135,0.387c0.05,0.144-0.039,0.299-0.189,0.328l-0.402,0.077l0.03,0.409c0.011,0.152-0.115,0.279-0.268,0.268l-0.409-0.03
		l-0.077,0.402c-0.029,0.15-0.184,0.24-0.328,0.189l-0.387-0.135l-0.178,0.369c-0.066,0.138-0.24,0.184-0.366,0.098l-0.339-0.23
		l-0.267,0.31C11.139,7.838,11.07,7.867,11,7.867V0.133z"/>
	<path class="dirt_14" d="M21,0.133c-0.07,0-0.139,0.029-0.189,0.087l-0.268,0.31l-0.339-0.23c-0.126-0.086-0.299-0.04-0.366,0.098
		l-0.178,0.369l-0.387-0.135c-0.144-0.05-0.299,0.039-0.328,0.189l-0.077,0.402l-0.409-0.03c-0.152-0.011-0.279,0.115-0.268,0.268
		l0.03,0.409l-0.402,0.077c-0.15,0.029-0.24,0.184-0.189,0.328l0.135,0.387l-0.369,0.178c-0.138,0.066-0.184,0.24-0.098,0.366
		l0.23,0.339l-0.31,0.267c-0.116,0.1-0.116,0.279,0,0.379l0.31,0.268l-0.23,0.339c-0.086,0.126-0.04,0.299,0.098,0.366l0.369,0.178
		l-0.135,0.387c-0.05,0.144,0.039,0.299,0.189,0.328l0.402,0.077l-0.03,0.409c-0.011,0.152,0.115,0.279,0.268,0.268l0.409-0.03
		l0.077,0.402c0.029,0.15,0.184,0.24,0.328,0.189l0.387-0.135l0.178,0.369c0.066,0.138,0.24,0.184,0.366,0.098l0.339-0.23
		l0.267,0.31c0.05,0.058,0.12,0.087,0.189,0.087V0.133z"/>
	<path class="dirt_15" d="M21,0.133c0.07,0,0.139,0.029,0.189,0.087l0.268,0.31l0.339-0.23c0.126-0.086,0.299-0.04,0.366,0.098
		l0.178,0.369l0.387-0.135c0.144-0.05,0.299,0.039,0.328,0.189l0.077,0.402l0.409-0.03c0.152-0.011,0.279,0.115,0.268,0.268
		l-0.03,0.409l0.402,0.077c0.15,0.029,0.24,0.184,0.189,0.328l-0.135,0.387l0.369,0.178c0.138,0.066,0.184,0.24,0.098,0.366
		l-0.23,0.339l0.31,0.267c0.116,0.1,0.116,0.279,0,0.379l-0.31,0.268l0.23,0.339c0.086,0.126,0.04,0.299-0.098,0.366l-0.369,0.178
		l0.135,0.387c0.05,0.144-0.039,0.299-0.189,0.328l-0.402,0.077l0.03,0.409c0.011,0.152-0.115,0.279-0.268,0.268l-0.409-0.03
		l-0.077,0.402c-0.029,0.15-0.184,0.24-0.328,0.189l-0.387-0.135l-0.178,0.369c-0.066,0.138-0.24,0.184-0.366,0.098l-0.339-0.23
		l-0.267,0.31C21.139,7.838,21.07,7.867,21,7.867V0.133z"/>
	<g>
		<ellipse class="grey_16" cx="9.75" cy="4" rx="0.75" ry="1"/>
		<ellipse class="grey_17" cx="12.25" cy="4" rx="0.75" ry="1"/>
		<circle class="white" cx="9.75" cy="3.75" r="0.25"/>
		<circle class="grey_01" cx="12.25" cy="3.75" r="0.25"/>
	</g>
	<ellipse class="grey_16" cx="19.75" cy="4" rx="0.75" ry="1"/>
	<ellipse class="grey_17" cx="22.25" cy="4" rx="0.75" ry="1"/>
	<circle class="white" cx="19.75" cy="3.75" r="0.25"/>
	<circle class="grey_01" cx="22.25" cy="3.75" r="0.25"/>
	<path class="sand_02" d="M9,31l-1.263,0.421C7.596,31.468,7.5,31.601,7.5,31.75l0,0C7.5,31.888,7.612,32,7.75,32H9V31z"/>
	<path class="st86" d="M18,31l-1.263,0.421c-0.142,0.047-0.237,0.18-0.237,0.329l0,0c0,0.138,0.112,0.25,0.25,0.25H18V31z"/>
	<path class="sand_03" d="M23,31l1.263,0.421c0.142,0.047,0.237,0.18,0.237,0.329l0,0c0,0.138-0.112,0.25-0.25,0.25H23V31z"/>
	<path class="sand_02" d="M14,31l1.263,0.421c0.142,0.047,0.237,0.18,0.237,0.329l0,0c0,0.138-0.112,0.25-0.25,0.25H14V31z"/>
	<path class="sand_03" d="M21,5.414c-0.256,0-0.512,0.098-0.707,0.293l-0.002,0.002c-0.183,0.183-0.266,0.442-0.223,0.697
		l0.686,4.114c0.023,0.139,0.135,0.209,0.247,0.209V5.414z"/>
	<path class="sand_04" d="M21.247,10.52l0.686-4.114c0.042-0.255-0.041-0.515-0.223-0.697l-0.002-0.002
		C21.512,5.512,21.256,5.414,21,5.414v5.315C21.112,10.729,21.223,10.66,21.247,10.52z"/>
	<path class="sand_02" d="M11,5.414c-0.256,0-0.512,0.098-0.707,0.293l-0.002,0.002c-0.183,0.183-0.266,0.442-0.223,0.697
		l0.686,4.114c0.023,0.139,0.135,0.209,0.247,0.209V5.414z"/>
	<path class="sand_03" d="M11.247,10.52l0.686-4.114c0.042-0.255-0.041-0.515-0.223-0.697l-0.002-0.002
		C11.512,5.512,11.256,5.414,11,5.414v5.315C11.112,10.729,11.223,10.66,11.247,10.52z"/>
</g>
</svg>
