<?xml version="1.0" encoding="utf-8"?>
<!-- Generator: Adobe Illustrator 20.1.0, SVG Export Plug-In . SVG Version: 6.00 Build 0)  -->
<!DOCTYPE svg PUBLIC "-//W3C//DTD SVG 1.1//EN" "http://www.w3.org/Graphics/SVG/1.1/DTD/svg11.dtd">
<svg version="1.1" id="icons" xmlns="http://www.w3.org/2000/svg" xmlns:xlink="http://www.w3.org/1999/xlink" x="0px" y="0px"
	 width="32px" height="32px" viewBox="0 0 32 32" style="enable-background:new 0 0 32 32;" xml:space="preserve">
<style type="text/css">
	.white{fill:#FFFFFF;}
	.grey_01{fill:#F7F7F7;}
	.grey_16{fill:#373F3F;}
	.grey_17{fill:#2B3332;}
	.sand_02{fill:#FDEBBB;}
	.sand_03{fill:#FAE09F;}
	.sand_04{fill:#F7D684;}
	.sand_05{fill:#F0C877;}
	.dirt_14{fill:#9E6E43;}
	.dirt_15{fill:#96643B;}
	.dirt_16{fill:#8D5B36;}
	.dirt_17{fill:#845331;}
	.dirt_18{fill:#724D31;}
	.dirt_19{fill:#604631;}
	.dirt_20{fill:#4F4032;}
	.st0{fill:#78DF7C;}
	.st1{fill:#54B668;}
	.st2{fill:#7A63AD;}
	.st3{fill:#866EBA;}
	.st4{fill:#D2E6F3;}
	.st5{fill:#C1DDEE;}
	.st6{fill:#E0C193;}
	.st7{fill:#DBBA8C;}
	.st8{fill:#7FB8E0;}
	.st9{fill:#8EC0E0;}
	.st10{fill:#71B1E1;}
	.st11{fill:#9FC9E4;}
	.st12{fill:#FFEAA7;}
	.st13{fill:#FFE28A;}
	.st14{fill:#FF6B8B;}
	.st15{fill:#F4A984;}
	.st16{fill:#EA9C7A;}
	.st17{fill:#FEF1C6;}
	.st18{fill:#E85160;}
	.st19{fill:#D84459;}
	.st20{fill:#E55D53;}
	.st21{fill:#FFD400;}
	.st22{fill:#FF8F00;}
	.st23{fill:#FF4A00;}
	.st24{fill:#FFF3D9;}
	.st25{fill:#FFD96C;}
	.st26{fill:#9ACC2E;}
	.st27{fill:#AADB3D;}
	.st28{fill:#A2D336;}
	.st29{fill:#93C427;}
	.st30{fill:#F79654;}
	.st31{fill:#FFD04D;}
	.st32{fill:#FCA15E;}
	.st33{fill:#A9E260;}
	.st34{fill:#97DB4A;}
	.st35{fill:#B1E346;}
	.st36{fill:#FCD8DE;}
	.st37{fill:#CDA073;}
	.st38{fill:#C09265;}
	.st39{fill:#A7794C;}
	.st40{fill:#B38658;}
	.st41{fill:#FBCFD6;}
	.st42{fill:#FAC4D1;}
	.st43{fill:#FAB8CD;}
	.st44{fill:#F9ADC8;}
	.st45{fill:#F8A1C4;}
	.st46{fill:#F297BE;}
	.st47{fill:#EA8BB4;}
	.st48{fill:#E8BA36;}
	.st49{fill:#E0B12E;}
	.st50{fill:#FFC172;}
	.st51{fill:#FFAD68;}
	.st52{fill:#FFB76D;}
	.st53{fill:#6E57A0;}
	.st54{fill:#675099;}
	.st55{fill:#F3586F;}
	.st56{fill:#604893;}
	.st57{fill:#CBEB6B;}
	.st58{fill:#4EAC5D;}
	.st59{fill:#BEE758;}
	.st60{fill:#6CD275;}
	.st61{fill:#48A353;}
	.st62{fill:#60C46F;}
	.st63{fill:#D9F07D;}
	.st64{fill:#E6F490;}
	.st65{fill:#4896C8;}
	.st66{fill:#4390BF;}
	.st67{fill:#5CA3D5;}
	.st68{fill:#529CCF;}
	.st69{fill:#F7C845;}
	.st70{fill:#ECCD50;}
	.st71{fill:#FF8D6E;}
	.st72{fill:#FF805D;}
	.st73{fill:#EDEEEE;}
	.st74{fill:#65A9DC;}
	.st75{fill:#8BC07A;}
	.st76{fill:#F0C13E;}
	.st77{fill:#9A3644;}
	.st78{fill:#8A323F;}
	.st79{fill:#945BA0;}
	.st80{fill:#A366AD;}
	.st81{fill:#B370B9;}
	.st82{fill:#C27BC6;}
	.st83{fill:#F6B392;}
	.st84{fill:#D285D2;}
	.st85{fill:#FDEBBB;}
	.st86{fill:#FAE09F;}
	.st87{fill:#DBA728;}
	.st88{fill:#505957;}
	.st89{fill:#56C7CD;}
	.st90{fill:#434C4B;}
	.st91{fill:#687271;}
	.st92{fill:#5C6664;}
	.st93{fill:#51BAC5;}
	.st94{fill:#D64F45;}
	.st95{fill:#D1D4D4;}
	.st96{fill:#E3E5E5;}
	.st97{fill:#DADDDC;}
	.st98{fill:#845194;}
	.st99{fill:#5BD3D5;}
	.st100{fill:#46B080;}
	.st101{fill:#53BF8C;}
	.st102{fill:#6EDCA2;}
	.st103{fill:#7AEBAC;}
	.st104{fill:#60CD96;}
	.st105{fill:#E8803A;}
	.st106{fill:#0A6F8E;}
	.st107{fill:#0F769B;}
	.st108{fill:#EF8C48;}
	.st109{fill:#838C8A;}
	.st110{fill:#757F7E;}
	.st111{fill:#D1473D;}
	.st112{fill:#9179C6;}
	.st113{fill:#906DBB;}
	.st114{fill:#A78EDD;}
	.st115{fill:#9D85D3;}
	.st116{fill:#E2EFF7;}
	.st117{fill:#B0D3EA;}
	.st118{fill:#F7BC48;}
	.st119{fill:#FFC550;}
	.st120{fill:#FFCF6E;}
	.st121{fill:#4CAEBC;}
	.st122{fill:#47A1B4;}
	.st123{fill:#4295AC;}
	.st124{fill:#FDE2E6;}
	.st125{fill:#FFF5D8;}
	.st126{fill:#99533D;}
	.st127{fill:#914C39;}
	.st128{fill:#D4C9EF;}
	.st129{fill:#E3DBF4;}
	.st130{fill:#F1EDFA;}
	.st131{fill:#C6B7E9;}
	.st132{fill:#B8A5E4;}
	.st133{fill:#E8BA67;}
	.st134{fill:#DDAA5F;}
	.st135{fill:#D4994F;}
	.st136{fill:#C98B44;}
	.st137{fill:#F7D684;}
	.st138{fill:#BF7D3C;}
	.st139{fill:#909997;}
	.st140{fill:#93C2CA;}
	.st141{fill:#99C7CE;}
	.st142{fill:#9FCCD3;}
	.st143{fill:#ACD7DD;}
	.st144{fill:#B9E2E7;}
	.st145{fill:#A5D1D8;}
	.st146{fill:#88B9C3;}
	.st147{fill:#7EB1BD;}
	.st148{fill:#C8CCCB;}
	.st149{fill:none;}
	.st150{fill:#9E6E43;}
	.st151{fill:#F9BDA0;}
	.st152{fill:#E7685F;}
	.st153{fill:#C84054;}
	.st154{fill:#ABB2B1;}
	.st155{fill:#9DA5A4;}
	.st156{fill:#F74000;}
	.st157{fill:#F97C00;}
	.st158{fill:#F9C900;}
	.st159{fill:#EFD4A7;}
	.st160{fill:#EACEA1;}
	.st161{fill:#FCE8CC;}
	.st162{fill:#F5DEB9;}
	.st163{fill:#CFAB81;}
	.st164{fill:#D5B387;}
	.st165{fill:#3A4274;}
	.st166{fill:#707EB7;}
	.st167{fill:#424B7E;}
	.st168{fill:#7C8AC4;}
	.st169{fill:#FFD98D;}
	.st170{fill:#8694D1;}
	.st171{fill:#9AA6D6;}
	.st172{fill:#ABB4DD;}
	.st173{fill:#FDECEF;}
	.st174{fill:#137FA0;}
	.st175{fill:#EB6B48;}
	.st176{fill:#F57552;}
	.st177{fill:#515E91;}
	.st178{fill:#5C699E;}
	.st179{fill:#6673AA;}
	.st180{fill:#504484;}
	.st181{fill:#FF5F7E;}
	.st182{fill:#EBCEEB;}
	.st183{fill:#E5BDE5;}
	.st184{fill:#E0ABDF;}
	.st185{fill:#D799D6;}
	.st186{fill:#3B8FA3;}
	.st187{fill:#348B99;}
	.st188{fill:#F7F7F7;}
	.st189{fill:#3AA176;}
	.st190{fill:#84ED82;}
	.st191{fill:#EFEAEA;}
	.st192{fill:#FF9A7E;}
	.st193{fill:#FCD2BE;}
	.st194{fill:#FCDDCF;}
	.st195{fill:#C683C8;}
	.st196{fill:#A55F49;}
	.st197{fill:#FEF5F7;}
</style>
<g>
	<path class="dirt_17" d="M5.502,4.408L4.872,4.229L3.874,1.835C3.818,1.7,4,1.595,4.089,1.711l1.574,2.061L5.502,4.408z"/>
	<path class="dirt_18" d="M8.498,4.408l0.631-0.179l0.998-2.394c0.056-0.135-0.126-0.24-0.215-0.124L8.338,3.772L8.498,4.408z"/>
	<path class="dirt_17" d="M7,0.849c-0.057,0-0.115,0.036-0.124,0.109L6.543,3.53L7,4V0.849z"/>
	<path class="dirt_18" d="M7.457,3.53L7.124,0.958C7.115,0.885,7.057,0.849,7,0.849V4L7.457,3.53z"/>
	<polygon class="sand_04" points="19,23 20,30.5 23,31 23,32 18,32 18,31 19,30.5 17,23 	"/>
	<polygon class="sand_03" points="13,23 12,30.5 9,31 9,32 14,32 14,31 13,30.5 15,23 	"/>
	<g>
		<path class="dirt_14" d="M16,12.133c-0.07,0-0.139,0.029-0.189,0.087l-0.35,0.406c-0.083,0.096-0.225,0.115-0.33,0.043
			l-0.444-0.302c-0.126-0.086-0.299-0.04-0.366,0.098l-0.233,0.483c-0.055,0.114-0.188,0.169-0.308,0.127l-0.507-0.177
			c-0.144-0.05-0.299,0.039-0.328,0.189l-0.1,0.527c-0.024,0.125-0.137,0.212-0.264,0.203l-0.535-0.04
			c-0.152-0.011-0.279,0.115-0.268,0.268l0.04,0.535c0.009,0.127-0.078,0.24-0.203,0.264l-0.527,0.1
			c-0.15,0.029-0.24,0.184-0.189,0.328l0.177,0.507c0.042,0.12-0.013,0.252-0.127,0.308l-0.483,0.233
			c-0.138,0.066-0.184,0.24-0.098,0.366l0.302,0.443c0.071,0.105,0.053,0.247-0.043,0.33l-0.422,0.364
			c-0.11,0.095-0.116,0.263-0.014,0.366L12,20h1.5l0.362,0.724C13.947,20.893,14.12,21,14.309,21H16V12.133z"/>
		<path class="dirt_15" d="M16,12.133c0.07,0,0.139,0.029,0.189,0.087l0.35,0.406c0.083,0.096,0.225,0.115,0.33,0.043l0.444-0.302
			c0.126-0.086,0.299-0.04,0.366,0.098l0.233,0.483c0.055,0.114,0.188,0.169,0.308,0.127l0.507-0.177
			c0.144-0.05,0.299,0.039,0.328,0.189l0.1,0.527c0.024,0.125,0.137,0.212,0.264,0.203l0.535-0.04
			c0.152-0.011,0.279,0.115,0.268,0.268l-0.04,0.535c-0.009,0.127,0.078,0.24,0.203,0.264l0.527,0.1
			c0.15,0.029,0.24,0.184,0.189,0.328l-0.177,0.507c-0.042,0.12,0.013,0.252,0.127,0.308l0.483,0.233
			c0.138,0.066,0.184,0.24,0.098,0.366l-0.302,0.443c-0.071,0.105-0.053,0.247,0.043,0.33l0.422,0.364
			c0.11,0.095,0.116,0.263,0.014,0.366L20,20h-1.5l-0.362,0.724C18.053,20.893,17.88,21,17.691,21H16V12.133z"/>
		<path class="dirt_20" d="M20,20l-0.43,2.582C19.529,22.823,19.321,23,19.076,23H16.89c-0.229,0-0.429-0.156-0.485-0.379L16,21
			h1.691c0.189,0,0.363-0.107,0.447-0.276L18.5,20H20z"/>
		<path class="dirt_19" d="M12,20l0.43,2.582C12.471,22.823,12.679,23,12.924,23h2.186c0.229,0,0.429-0.156,0.485-0.379L16,21
			h-1.691c-0.189,0-0.363-0.107-0.447-0.276L13.5,20H12z"/>
	</g>
	<circle class="dirt_17" cx="18.5" cy="16.5" r="1"/>
	<path class="dirt_20" d="M18.5,17c-0.194,0-0.379-0.114-0.46-0.304c-0.108-0.254,0.01-0.548,0.264-0.656
		c6.125-2.61,6.196-7.576,6.196-7.626c0-0.276,0.224-0.5,0.5-0.5s0.5,0.224,0.5,0.5c0,0.23-0.077,5.679-6.804,8.546
		C18.632,16.987,18.565,17,18.5,17z"/>
	<circle class="dirt_16" cx="13.5" cy="16.5" r="1"/>
	<path class="dirt_19" d="M13.5,17c-0.065,0-0.132-0.013-0.196-0.04C6.577,14.093,6.5,8.645,6.5,8.414
		c0-0.275,0.223-0.498,0.499-0.499H7c0.275,0,0.499,0.223,0.5,0.497c0.001,0.205,0.1,5.029,6.196,7.628
		c0.254,0.108,0.372,0.402,0.264,0.656C13.879,16.886,13.694,17,13.5,17z"/>
	<path class="dirt_16" d="M16,15.5c-0.552,0-1,0.448-1,1c0,0.552,0.448,1,1,1V15.5z"/>
	<path class="dirt_17" d="M17,16.5c0-0.552-0.448-1-1-1v2C16.552,17.5,17,17.052,17,16.5z"/>
	<path class="dirt_19" d="M16,8.914c-0.276,0-0.5,0.224-0.5,0.5V16.5c0,0.276,0.224,0.5,0.5,0.5V8.914z"/>
	<path class="dirt_20" d="M16.5,16.5V9.414c0-0.276-0.224-0.5-0.5-0.5V17C16.276,17,16.5,16.776,16.5,16.5z"/>
	<path class="dirt_19" d="M23.502,4.408l-0.631-0.179l-0.998-2.394C21.818,1.7,22,1.595,22.089,1.711l1.574,2.061L23.502,4.408z"/>
	<path class="dirt_20" d="M26.498,4.408l0.631-0.179l0.998-2.394c0.056-0.135-0.126-0.24-0.215-0.124l-1.574,2.061L26.498,4.408z"/>
	<path class="dirt_20" d="M25.124,0.958C25.115,0.885,25.057,0.849,25,0.849V4l0.457-0.47L25.124,0.958z"/>
	<path class="dirt_19" d="M24.876,0.958L24.543,3.53L25,4V0.849C24.943,0.849,24.885,0.885,24.876,0.958z"/>
	<path class="dirt_18" d="M14.502,5.408l-0.631-0.179l-0.998-2.394C12.818,2.7,13,2.595,13.089,2.711l1.574,2.061L14.502,5.408z"/>
	<path class="dirt_19" d="M17.498,5.408l0.631-0.179l0.998-2.394c0.056-0.135-0.126-0.24-0.215-0.124l-1.574,2.061L17.498,5.408z"/>
	<path class="dirt_18" d="M16,1.849c-0.057,0-0.115,0.036-0.124,0.109L15.543,4.53L16,5V1.849z"/>
	<path class="dirt_14" d="M7,3.133c-0.07,0-0.139,0.029-0.189,0.087L6.689,3.361c-0.083,0.096-0.225,0.115-0.33,0.043L6.204,3.299
		C6.078,3.214,5.905,3.26,5.839,3.397L5.758,3.566C5.702,3.68,5.57,3.735,5.45,3.693L5.274,3.631
		C5.13,3.581,4.974,3.671,4.946,3.821L4.911,4.004C4.887,4.129,4.774,4.216,4.647,4.207L4.461,4.193
		C4.308,4.182,4.182,4.308,4.193,4.461l0.014,0.186c0.009,0.127-0.078,0.24-0.203,0.264L3.821,4.946
		c-0.15,0.029-0.24,0.184-0.189,0.328L3.693,5.45C3.735,5.57,3.68,5.702,3.566,5.758L3.397,5.839
		C3.26,5.905,3.214,6.078,3.299,6.204l0.105,0.154c0.072,0.105,0.053,0.247-0.043,0.33L3.22,6.811c-0.116,0.1-0.116,0.279,0,0.379
		l0.141,0.122c0.096,0.083,0.115,0.225,0.043,0.33L3.299,7.796C3.214,7.922,3.26,8.095,3.397,8.161l0.168,0.081
		C3.68,8.298,3.735,8.43,3.693,8.55L3.631,8.726C3.581,8.87,3.671,9.026,3.821,9.054l0.183,0.035
		c0.125,0.024,0.212,0.137,0.203,0.264L4.193,9.539C4.182,9.692,4.308,9.818,4.461,9.807l0.186-0.014
		c0.127-0.009,0.24,0.078,0.264,0.203l0.035,0.183c0.029,0.15,0.184,0.24,0.328,0.189l0.176-0.061
		c0.12-0.042,0.252,0.013,0.308,0.127l0.081,0.168c0.066,0.138,0.24,0.184,0.366,0.098l0.154-0.105
		c0.105-0.072,0.247-0.053,0.33,0.043l0.122,0.141c0.05,0.058,0.12,0.087,0.189,0.087V3.133z"/>
	<path class="dirt_15" d="M7.189,10.78l0.122-0.141c0.083-0.096,0.225-0.115,0.33-0.043l0.154,0.105
		c0.126,0.086,0.299,0.04,0.366-0.098l0.081-0.168c0.055-0.114,0.188-0.169,0.308-0.127l0.176,0.061
		c0.144,0.05,0.299-0.039,0.328-0.189l0.035-0.183c0.024-0.125,0.137-0.212,0.264-0.203l0.186,0.014
		c0.152,0.011,0.279-0.115,0.268-0.268L9.793,9.353c-0.009-0.127,0.078-0.24,0.203-0.264l0.183-0.035
		c0.15-0.029,0.24-0.184,0.189-0.328L10.307,8.55c-0.042-0.12,0.013-0.252,0.127-0.308l0.168-0.081
		c0.138-0.066,0.184-0.24,0.098-0.366l-0.105-0.154c-0.072-0.105-0.053-0.247,0.043-0.33l0.141-0.122c0.116-0.1,0.116-0.279,0-0.379
		l-0.141-0.122c-0.096-0.083-0.115-0.225-0.043-0.33l0.105-0.154c0.086-0.126,0.04-0.299-0.098-0.366l-0.168-0.081
		C10.32,5.702,10.265,5.57,10.307,5.45l0.061-0.176c0.05-0.144-0.039-0.299-0.189-0.328L9.996,4.911
		C9.871,4.887,9.784,4.774,9.793,4.647l0.014-0.186c0.011-0.152-0.115-0.279-0.268-0.268L9.353,4.207
		c-0.127,0.009-0.24-0.078-0.264-0.203L9.054,3.821c-0.029-0.15-0.184-0.24-0.328-0.189L8.55,3.693
		C8.43,3.735,8.298,3.68,8.242,3.566L8.161,3.397C8.095,3.26,7.922,3.214,7.796,3.299L7.641,3.404
		c-0.105,0.071-0.247,0.053-0.33-0.043L7.189,3.22C7.139,3.162,7.07,3.133,7,3.133v7.734C7.07,10.867,7.139,10.838,7.189,10.78z"/>
	<path class="dirt_19" d="M16.457,4.53l-0.333-2.572C16.115,1.885,16.057,1.849,16,1.849V5L16.457,4.53z"/>
	<path class="sand_02" d="M9,31l-1.302,0.434C7.58,31.473,7.5,31.584,7.5,31.709v0.001C7.5,31.87,7.63,32,7.79,32H9V31z"/>
	<path class="dirt_15" d="M16,4.133c-0.07,0-0.139,0.029-0.189,0.087l-0.122,0.141c-0.083,0.096-0.225,0.115-0.33,0.043
		l-0.154-0.105c-0.126-0.086-0.299-0.04-0.366,0.098l-0.081,0.168C14.702,4.68,14.57,4.735,14.45,4.693l-0.176-0.061
		c-0.144-0.05-0.299,0.039-0.328,0.189l-0.035,0.183c-0.024,0.125-0.137,0.212-0.264,0.203l-0.186-0.014
		c-0.152-0.011-0.279,0.115-0.268,0.268l0.014,0.186c0.009,0.127-0.078,0.24-0.203,0.264l-0.183,0.035
		c-0.15,0.029-0.24,0.184-0.189,0.328l0.061,0.176c0.042,0.12-0.013,0.252-0.127,0.308l-0.168,0.081
		c-0.138,0.066-0.184,0.24-0.098,0.366l0.105,0.154c0.072,0.105,0.053,0.247-0.043,0.33L12.22,7.811c-0.116,0.1-0.116,0.279,0,0.379
		l0.141,0.122c0.096,0.083,0.115,0.225,0.043,0.33l-0.105,0.154c-0.086,0.126-0.04,0.299,0.098,0.366l0.168,0.081
		c0.114,0.055,0.169,0.188,0.127,0.308l-0.061,0.176c-0.05,0.144,0.039,0.299,0.189,0.328l0.183,0.035
		c0.125,0.024,0.212,0.137,0.203,0.264l-0.014,0.186c-0.011,0.152,0.115,0.279,0.268,0.268l0.186-0.014
		c0.127-0.009,0.24,0.078,0.264,0.203l0.035,0.183c0.029,0.15,0.184,0.24,0.328,0.189l0.176-0.061
		c0.12-0.042,0.252,0.013,0.308,0.127l0.081,0.168c0.066,0.138,0.24,0.184,0.366,0.098l0.154-0.105
		c0.105-0.072,0.247-0.053,0.33,0.043L16,12V4.133z"/>
	<path class="dirt_16" d="M16.001,11.998l0.31-0.359c0.083-0.096,0.225-0.115,0.33-0.043l0.154,0.105
		c0.126,0.086,0.299,0.04,0.366-0.098l0.081-0.168c0.055-0.114,0.188-0.169,0.308-0.127l0.176,0.061
		c0.144,0.05,0.299-0.039,0.328-0.189l0.035-0.183c0.024-0.125,0.137-0.212,0.264-0.203l0.186,0.014
		c0.152,0.011,0.279-0.115,0.268-0.268l-0.014-0.186c-0.009-0.127,0.078-0.24,0.203-0.264l0.183-0.035
		c0.15-0.029,0.24-0.184,0.189-0.328L19.307,9.55c-0.042-0.12,0.013-0.252,0.127-0.308l0.168-0.081
		c0.138-0.066,0.184-0.24,0.098-0.366l-0.105-0.154c-0.072-0.105-0.053-0.247,0.043-0.33l0.141-0.122c0.116-0.1,0.116-0.279,0-0.379
		l-0.141-0.122c-0.096-0.083-0.115-0.225-0.043-0.33l0.105-0.154c0.086-0.126,0.04-0.299-0.098-0.366l-0.168-0.081
		C19.32,6.702,19.265,6.57,19.307,6.45l0.061-0.176c0.05-0.144-0.039-0.299-0.189-0.328l-0.183-0.035
		c-0.125-0.024-0.212-0.137-0.203-0.264l0.014-0.186c0.011-0.152-0.115-0.279-0.268-0.268l-0.186,0.014
		c-0.127,0.009-0.24-0.078-0.264-0.203l-0.035-0.183c-0.029-0.15-0.184-0.24-0.328-0.189L17.55,4.693
		c-0.12,0.042-0.252-0.013-0.308-0.127l-0.081-0.168c-0.066-0.138-0.24-0.184-0.366-0.098l-0.154,0.105
		c-0.105,0.071-0.247,0.053-0.33-0.043L16.189,4.22C16.139,4.162,16.07,4.133,16,4.133V12L16.001,11.998z"/>
	<path class="sand_03" d="M18,31l-1.302,0.434c-0.118,0.039-0.198,0.15-0.198,0.275v0.001c0,0.16,0.13,0.29,0.29,0.29H18V31z"/>
	<path class="sand_03" d="M23,31l1.302,0.434c0.118,0.039,0.198,0.15,0.198,0.275v0.001c0,0.16-0.13,0.29-0.29,0.29H23V31z"/>
	<path class="sand_02" d="M14,31l1.302,0.434c0.118,0.039,0.198,0.15,0.198,0.275v0.001c0,0.16-0.13,0.29-0.29,0.29H14V31z"/>
	<g>
		<ellipse class="grey_16" cx="5.75" cy="7" rx="0.75" ry="1"/>
		<ellipse class="grey_17" cx="8.25" cy="7" rx="0.75" ry="1"/>
		<circle class="white" cx="5.75" cy="6.75" r="0.25"/>
		<circle class="grey_01" cx="8.25" cy="6.75" r="0.25"/>
	</g>
	<path class="dirt_16" d="M25,3.134c-0.069,0-0.138,0.029-0.188,0.086l-0.123,0.142c-0.083,0.096-0.225,0.114-0.329,0.043
		l-0.155-0.105c-0.126-0.086-0.299-0.04-0.366,0.098l-0.081,0.168C23.702,3.68,23.57,3.735,23.45,3.693l-0.176-0.061
		c-0.144-0.05-0.299,0.039-0.328,0.189l-0.035,0.183c-0.024,0.125-0.137,0.212-0.264,0.203l-0.186-0.014
		c-0.152-0.011-0.279,0.115-0.268,0.268l0.014,0.186c0.009,0.127-0.078,0.24-0.203,0.264l-0.183,0.035
		c-0.15,0.029-0.24,0.184-0.189,0.328l0.061,0.176c0.042,0.12-0.013,0.252-0.127,0.308l-0.168,0.081
		c-0.138,0.066-0.184,0.24-0.098,0.366l0.105,0.154c0.072,0.105,0.053,0.247-0.043,0.33L21.22,6.811c-0.116,0.1-0.116,0.279,0,0.379
		l0.141,0.122c0.096,0.083,0.115,0.225,0.043,0.33l-0.105,0.154c-0.086,0.126-0.04,0.299,0.098,0.366l0.168,0.081
		c0.114,0.055,0.169,0.188,0.127,0.308l-0.061,0.176c-0.05,0.144,0.039,0.299,0.189,0.328l0.183,0.035
		c0.125,0.024,0.212,0.137,0.203,0.264l-0.014,0.186c-0.011,0.152,0.115,0.279,0.268,0.268l0.186-0.014
		c0.127-0.009,0.24,0.078,0.264,0.203l0.035,0.183c0.029,0.15,0.184,0.24,0.328,0.189l0.176-0.061
		c0.12-0.042,0.252,0.013,0.308,0.127l0.081,0.168c0.066,0.138,0.24,0.184,0.366,0.098l0.154-0.105
		c0.105-0.072,0.247-0.053,0.33,0.043L25,11V3.134z"/>
	<path class="dirt_17" d="M28.639,6.689c-0.096-0.083-0.115-0.225-0.043-0.33l0.105-0.154c0.086-0.126,0.04-0.299-0.098-0.366
		l-0.168-0.081C28.32,5.702,28.265,5.57,28.307,5.45l0.061-0.176c0.05-0.144-0.039-0.299-0.189-0.328l-0.183-0.035
		c-0.125-0.024-0.212-0.137-0.203-0.264l0.014-0.186c0.011-0.152-0.115-0.279-0.268-0.268l-0.186,0.014
		c-0.127,0.009-0.24-0.078-0.264-0.203l-0.035-0.183c-0.029-0.15-0.184-0.24-0.328-0.189L26.55,3.693
		c-0.12,0.042-0.252-0.013-0.308-0.127l-0.081-0.168c-0.066-0.138-0.24-0.184-0.366-0.098l-0.154,0.105
		c-0.105,0.071-0.247,0.053-0.33-0.043l-0.121-0.14C25.14,3.163,25.07,3.134,25,3.134V11l0.001-0.002l0.31-0.359
		c0.083-0.096,0.225-0.115,0.33-0.043l0.154,0.105c0.126,0.086,0.299,0.04,0.366-0.098l0.081-0.168
		c0.055-0.114,0.188-0.169,0.308-0.127l0.176,0.061c0.144,0.05,0.299-0.039,0.328-0.189l0.035-0.183
		c0.024-0.125,0.137-0.212,0.264-0.203l0.186,0.014c0.152,0.011,0.279-0.115,0.268-0.268l-0.014-0.186
		c-0.009-0.127,0.078-0.24,0.203-0.264l0.183-0.035c0.15-0.029,0.24-0.184,0.189-0.328L28.307,8.55
		c-0.042-0.12,0.013-0.252,0.127-0.308l0.168-0.081c0.138-0.066,0.184-0.24,0.098-0.366l-0.105-0.154
		c-0.072-0.105-0.053-0.247,0.043-0.33l0.141-0.122c0.116-0.1,0.116-0.279,0-0.379L28.639,6.689z"/>
	<ellipse class="grey_16" cx="23.75" cy="7" rx="0.75" ry="1"/>
	<ellipse class="grey_17" cx="26.25" cy="7" rx="0.75" ry="1"/>
	<circle class="white" cx="23.75" cy="6.75" r="0.25"/>
	<circle class="grey_01" cx="26.25" cy="6.75" r="0.25"/>
	<path class="sand_04" d="M25,8.414c-0.256,0-0.512,0.098-0.707,0.293l-0.002,0.002c-0.183,0.183-0.266,0.442-0.223,0.697
		l0.686,4.114c0.023,0.139,0.135,0.209,0.247,0.209V8.414z"/>
	<path class="sand_05" d="M25.247,13.52l0.686-4.114c0.042-0.255-0.041-0.515-0.223-0.697l-0.002-0.002
		C25.512,8.512,25.256,8.414,25,8.414v5.315C25.112,13.729,25.223,13.66,25.247,13.52z"/>
	<path class="sand_02" d="M7,8.414c-0.256,0-0.512,0.098-0.707,0.293L6.291,8.709C6.108,8.892,6.025,9.151,6.068,9.406l0.686,4.114
		C6.777,13.66,6.888,13.729,7,13.729V8.414z"/>
	<path class="sand_03" d="M7.247,13.52l0.686-4.114c0.042-0.255-0.041-0.515-0.223-0.697L7.707,8.707
		C7.512,8.512,7.256,8.414,7,8.414v5.315C7.112,13.729,7.223,13.66,7.247,13.52z"/>
	<ellipse class="grey_16" cx="14.75" cy="8" rx="0.75" ry="1"/>
	<ellipse class="grey_17" cx="17.25" cy="8" rx="0.75" ry="1"/>
	<circle class="white" cx="14.75" cy="7.75" r="0.25"/>
	<circle class="grey_01" cx="17.25" cy="7.75" r="0.25"/>
	<path class="sand_03" d="M16,9.414c-0.256,0-0.512,0.098-0.707,0.293l-0.002,0.002c-0.183,0.183-0.266,0.442-0.223,0.697
		l0.686,4.114c0.023,0.139,0.135,0.209,0.247,0.209V9.414z"/>
	<path class="sand_04" d="M16.247,14.52l0.686-4.114c0.042-0.255-0.041-0.515-0.223-0.697l-0.002-0.002
		C16.512,9.512,16.256,9.414,16,9.414v5.315C16.112,14.729,16.223,14.66,16.247,14.52z"/>
</g>
</svg>
