<?xml version="1.0" encoding="utf-8"?>
<!-- Generator: Adobe Illustrator 20.1.0, SVG Export Plug-In . SVG Version: 6.00 Build 0)  -->
<!DOCTYPE svg PUBLIC "-//W3C//DTD SVG 1.1//EN" "http://www.w3.org/Graphics/SVG/1.1/DTD/svg11.dtd">
<svg version="1.1" id="icons" xmlns="http://www.w3.org/2000/svg" xmlns:xlink="http://www.w3.org/1999/xlink" x="0px" y="0px"
	 width="32px" height="32px" viewBox="0 0 32 32" style="enable-background:new 0 0 32 32;" xml:space="preserve">
<style type="text/css">
	.white{fill:#FFFFFF;}
	.grey_01{fill:#F7F7F7;}
	.grey_16{fill:#373F3F;}
	.grey_17{fill:#2B3332;}
	.cerulean_01{fill:#5BD3D5;}
	.cerulean_02{fill:#56C7CD;}
	.periwinkle_01{fill:#E2EFF7;}
	.periwinkle_02{fill:#D2E6F3;}
	.periwinkle_03{fill:#C1DDEE;}
	.periwinkle_04{fill:#B0D3EA;}
	.rose_08{fill:#F9ADC8;}
	.rose_09{fill:#F8A1C4;}
	.sand_01{fill:#FFF3D9;}
	.sand_02{fill:#FDEBBB;}
	.st0{fill:#78DF7C;}
	.st1{fill:#54B668;}
	.st2{fill:#7A63AD;}
	.st3{fill:#866EBA;}
	.st4{fill:#E0C193;}
	.st5{fill:#DBBA8C;}
	.st6{fill:#7FB8E0;}
	.st7{fill:#8EC0E0;}
	.st8{fill:#71B1E1;}
	.st9{fill:#9FC9E4;}
	.st10{fill:#FFEAA7;}
	.st11{fill:#FFE28A;}
	.st12{fill:#FF6B8B;}
	.st13{fill:#F4A984;}
	.st14{fill:#EA9C7A;}
	.st15{fill:#FEF1C6;}
	.st16{fill:#E85160;}
	.st17{fill:#D84459;}
	.st18{fill:#E55D53;}
	.st19{fill:#FFD400;}
	.st20{fill:#FF8F00;}
	.st21{fill:#FF4A00;}
	.st22{fill:#F7D684;}
	.st23{fill:#FAE09F;}
	.st24{fill:#FFD96C;}
	.st25{fill:#9ACC2E;}
	.st26{fill:#AADB3D;}
	.st27{fill:#A2D336;}
	.st28{fill:#93C427;}
	.st29{fill:#F79654;}
	.st30{fill:#FFD04D;}
	.st31{fill:#FCA15E;}
	.st32{fill:#A9E260;}
	.st33{fill:#97DB4A;}
	.st34{fill:#B1E346;}
	.st35{fill:#FCD8DE;}
	.st36{fill:#CDA073;}
	.st37{fill:#C09265;}
	.st38{fill:#A7794C;}
	.st39{fill:#96643B;}
	.st40{fill:#845331;}
	.st41{fill:#B38658;}
	.st42{fill:#9E6E43;}
	.st43{fill:#8D5B36;}
	.st44{fill:#FBCFD6;}
	.st45{fill:#FAC4D1;}
	.st46{fill:#FAB8CD;}
	.st47{fill:#F297BE;}
	.st48{fill:#EA8BB4;}
	.st49{fill:#E8BA36;}
	.st50{fill:#E0B12E;}
	.st51{fill:#FFC172;}
	.st52{fill:#FFAD68;}
	.st53{fill:#FFB76D;}
	.st54{fill:#6E57A0;}
	.st55{fill:#675099;}
	.st56{fill:#F3586F;}
	.st57{fill:#604893;}
	.st58{fill:#CBEB6B;}
	.st59{fill:#4EAC5D;}
	.st60{fill:#BEE758;}
	.st61{fill:#6CD275;}
	.st62{fill:#48A353;}
	.st63{fill:#60C46F;}
	.st64{fill:#D9F07D;}
	.st65{fill:#E6F490;}
	.st66{fill:#4896C8;}
	.st67{fill:#4390BF;}
	.st68{fill:#5CA3D5;}
	.st69{fill:#529CCF;}
	.st70{fill:#F7C845;}
	.st71{fill:#ECCD50;}
	.st72{fill:#FF8D6E;}
	.st73{fill:#FF805D;}
	.st74{fill:#EDEEEE;}
	.st75{fill:#65A9DC;}
	.st76{fill:#8BC07A;}
	.st77{fill:#F0C13E;}
	.st78{fill:#9A3644;}
	.st79{fill:#8A323F;}
	.st80{fill:#945BA0;}
	.st81{fill:#A366AD;}
	.st82{fill:#B370B9;}
	.st83{fill:#C27BC6;}
	.st84{fill:#F6B392;}
	.st85{fill:#D285D2;}
	.st86{fill:#FDEBBB;}
	.st87{fill:#DBA728;}
	.st88{fill:#505957;}
	.st89{fill:#434C4B;}
	.st90{fill:#687271;}
	.st91{fill:#5C6664;}
	.st92{fill:#51BAC5;}
	.st93{fill:#D64F45;}
	.st94{fill:#D1D4D4;}
	.st95{fill:#E3E5E5;}
	.st96{fill:#DADDDC;}
	.st97{fill:#845194;}
	.st98{fill:#46B080;}
	.st99{fill:#53BF8C;}
	.st100{fill:#6EDCA2;}
	.st101{fill:#7AEBAC;}
	.st102{fill:#60CD96;}
	.st103{fill:#E8803A;}
	.st104{fill:#0A6F8E;}
	.st105{fill:#0F769B;}
	.st106{fill:#EF8C48;}
	.st107{fill:#838C8A;}
	.st108{fill:#757F7E;}
	.st109{fill:#D1473D;}
	.st110{fill:#56C7CD;}
	.st111{fill:#9179C6;}
	.st112{fill:#906DBB;}
	.st113{fill:#A78EDD;}
	.st114{fill:#9D85D3;}
	.st115{fill:#F7BC48;}
	.st116{fill:#FFC550;}
	.st117{fill:#FFCF6E;}
	.st118{fill:#4CAEBC;}
	.st119{fill:#47A1B4;}
	.st120{fill:#4295AC;}
	.st121{fill:#FDE2E6;}
	.st122{fill:#FFF5D8;}
	.st123{fill:#99533D;}
	.st124{fill:#914C39;}
	.st125{fill:#D4C9EF;}
	.st126{fill:#E3DBF4;}
	.st127{fill:#F1EDFA;}
	.st128{fill:#C6B7E9;}
	.st129{fill:#B8A5E4;}
	.st130{fill:#F0C877;}
	.st131{fill:#E8BA67;}
	.st132{fill:#DDAA5F;}
	.st133{fill:#D4994F;}
	.st134{fill:#C98B44;}
	.st135{fill:#BF7D3C;}
	.st136{fill:#909997;}
	.st137{fill:#724D31;}
	.st138{fill:#93C2CA;}
	.st139{fill:#99C7CE;}
	.st140{fill:#9FCCD3;}
	.st141{fill:#ACD7DD;}
	.st142{fill:#B9E2E7;}
	.st143{fill:#A5D1D8;}
	.st144{fill:#88B9C3;}
	.st145{fill:#7EB1BD;}
	.st146{fill:#C8CCCB;}
	.st147{fill:none;}
	.st148{fill:#4F4032;}
	.st149{fill:#604631;}
	.st150{fill:#F9BDA0;}
	.st151{fill:#E7685F;}
	.st152{fill:#C84054;}
	.st153{fill:#ABB2B1;}
	.st154{fill:#9DA5A4;}
	.st155{fill:#F74000;}
	.st156{fill:#F97C00;}
	.st157{fill:#F9C900;}
	.st158{fill:#B0D3EA;}
	.st159{fill:#EFD4A7;}
	.st160{fill:#EACEA1;}
	.st161{fill:#FCE8CC;}
	.st162{fill:#F5DEB9;}
	.st163{fill:#CFAB81;}
	.st164{fill:#D5B387;}
	.st165{fill:#3A4274;}
	.st166{fill:#707EB7;}
	.st167{fill:#424B7E;}
	.st168{fill:#7C8AC4;}
	.st169{fill:#FFD98D;}
	.st170{fill:#8694D1;}
	.st171{fill:#9AA6D6;}
	.st172{fill:#ABB4DD;}
	.st173{fill:#FDECEF;}
	.st174{fill:#137FA0;}
	.st175{fill:#EB6B48;}
	.st176{fill:#F57552;}
	.st177{fill:#515E91;}
	.st178{fill:#5C699E;}
	.st179{fill:#6673AA;}
	.st180{fill:#504484;}
	.st181{fill:#FF5F7E;}
	.st182{fill:#EBCEEB;}
	.st183{fill:#E5BDE5;}
	.st184{fill:#E0ABDF;}
	.st185{fill:#D799D6;}
	.st186{fill:#3B8FA3;}
	.st187{fill:#348B99;}
	.st188{fill:#F7F7F7;}
	.st189{fill:#3AA176;}
	.st190{fill:#84ED82;}
	.st191{fill:#EFEAEA;}
	.st192{fill:#FF9A7E;}
	.st193{fill:#FCD2BE;}
	.st194{fill:#FCDDCF;}
	.st195{fill:#C683C8;}
	.st196{fill:#A55F49;}
	.st197{fill:#FEF5F7;}
</style>
<path class="periwinkle_02" d="M8,20c0,0.407,0.035,0.794,0.087,1.17C6.573,22.953,4.355,24,2,24c-1.105,0-2,0.895-2,2
	c0,1.105,0.895,2,2,2h0.001c2.912,0,5.632-1.37,7.392-3.661C10.744,26.041,13.019,27,16,27V13C11.029,13,8,15.651,8,20z"/>
<path class="periwinkle_03" d="M30,24c-2.355,0-4.573-1.047-6.087-2.83C23.965,20.794,24,20.407,24,20c0-4.349-3.029-7-8-7v14
	c2.981,0,5.256-0.959,6.606-2.661C24.367,26.63,27.086,28,29.999,28H30c1.105,0,2-0.895,2-2C32,24.895,31.105,24,30,24z"/>
<path class="periwinkle_04" d="M20.855,5.962c0.724-1.99,3.196-2.585,4.763-1.233c0.258-0.121,0.543-0.194,0.847-0.194
	c1.105,0,2,0.895,2,2c0,0.304-0.073,0.589-0.194,0.847c1.352,1.568,0.757,4.04-1.233,4.763l-6.573,2.39l-2-2L20.855,5.962z"/>
<path class="periwinkle_03" d="M11.145,5.962c-0.724-1.99-3.196-2.585-4.763-1.233C6.124,4.608,5.839,4.535,5.535,4.535
	c-1.105,0-2,0.895-2,2c0,0.304,0.073,0.589,0.194,0.847c-1.352,1.568-0.757,4.04,1.233,4.763l6.573,2.39l2-2L11.145,5.962z"/>
<path class="periwinkle_01" d="M15.553,3.894L13.855,7.29C11.365,7.974,10,9.93,10,13c0,3.866,2.134,6,6,6V3.618
	C15.822,3.618,15.645,3.71,15.553,3.894z"/>
<path class="periwinkle_02" d="M18.145,7.29l-1.698-3.396C16.355,3.71,16.177,3.618,16,3.618V19c3.866,0,6-2.134,6-6
	C22,9.93,20.635,7.974,18.145,7.29z"/>
<g>
	<ellipse class="cerulean_01" cx="13" cy="11.5" rx="1" ry="1.5"/>
	<path class="grey_16" d="M14,11.5c0,0.828-0.448,1-1,1s-1-0.172-1-1s0.448-1.5,1-1.5S14,10.672,14,11.5z"/>
	<circle class="white" cx="13" cy="11" r="0.5"/>
</g>
<g>
	<ellipse class="cerulean_02" cx="19" cy="11.5" rx="1" ry="1.5"/>
	<path class="grey_17" d="M20,11.5c0,0.828-0.448,1-1,1s-1-0.172-1-1s0.448-1.5,1-1.5S20,10.672,20,11.5z"/>
	<circle class="grey_01" cx="19" cy="11" r="0.5"/>
</g>
<path class="sand_01" d="M16,14.8c-0.635-0.523-1.519-0.8-2.5-0.8c-1.933,0-3.5,1.067-3.5,3s1.567,3,3.5,3
	c0.981,0,1.865-0.277,2.5-0.8V14.8z"/>
<path class="sand_02" d="M18.5,20c1.933,0,3.5-1.067,3.5-3s-1.567-3-3.5-3c-0.981,0-1.865,0.277-2.5,0.8v4.4
	C16.635,19.723,17.519,20,18.5,20z"/>
<path class="grey_01" d="M18,18.602h1.113c0.683,0,1.165-0.669,0.949-1.316l-0.37-1.111c-0.07-0.211-0.361-0.232-0.461-0.033
	L18,18.602z"/>
<path class="rose_09" d="M18.5,18.806v-0.29c0-0.495-0.318-0.947-0.822-1.168l-0.001,0C17.149,17.116,16.575,17,16,17v4
	C17.381,21,18.5,20.018,18.5,18.806z"/>
<path class="grey_16" d="M16,14.001c-0.552,0-1-0.032-1,0.25c0,0.414,0.448,0.75,1,0.75V14.001z"/>
<path class="grey_17" d="M17,14.251c0-0.282-0.448-0.25-1-0.25v1C16.552,15.001,17,14.665,17,14.251z"/>
<path class="white" d="M14,18.602h-1.113c-0.683,0-1.165-0.669-0.949-1.316l0.37-1.111c0.07-0.211,0.361-0.232,0.461-0.033
	L14,18.602z"/>
<path class="rose_08" d="M16,17c-0.575,0-1.149,0.116-1.677,0.347l-0.001,0c-0.504,0.221-0.822,0.673-0.822,1.168v0.29
	C13.5,20.018,14.619,21,16,21V17z"/>
<path class="periwinkle_03" d="M10.411,22.884l-0.638,0.957c-0.112,0.168-0.242,0.32-0.364,0.479C10.757,26.025,13.016,27,16,27v-3
	C14.012,24,12.045,23.605,10.411,22.884z"/>
<path class="periwinkle_04" d="M22.227,23.841l-0.638-0.957C19.955,23.605,17.988,24,16,24v3c2.984,0,5.243-0.975,6.592-2.68
	C22.47,24.16,22.339,24.009,22.227,23.841z"/>
</svg>
