<?xml version="1.0" encoding="utf-8"?>
<!-- Generator: Adobe Illustrator 20.1.0, SVG Export Plug-In . SVG Version: 6.00 Build 0)  -->
<!DOCTYPE svg PUBLIC "-//W3C//DTD SVG 1.1//EN" "http://www.w3.org/Graphics/SVG/1.1/DTD/svg11.dtd">
<svg version="1.1" id="icons" xmlns="http://www.w3.org/2000/svg" xmlns:xlink="http://www.w3.org/1999/xlink" x="0px" y="0px"
	 width="32px" height="32px" viewBox="0 0 32 32" style="enable-background:new 0 0 32 32;" xml:space="preserve">
<style type="text/css">
	.white{fill:#FFFFFF;}
	.grey_01{fill:#F7F7F7;}
	.grey_16{fill:#373F3F;}
	.grey_17{fill:#2B3332;}
	.orchid_07{fill:#9D85D3;}
	.orchid_08{fill:#9179C6;}
	.orchid_09{fill:#866EBA;}
	.orchid_10{fill:#7A63AD;}
	.orchid_11{fill:#6E57A0;}
	.st0{fill:#78DF7C;}
	.st1{fill:#54B668;}
	.st2{fill:#D2E6F3;}
	.st3{fill:#C1DDEE;}
	.st4{fill:#E0C193;}
	.st5{fill:#DBBA8C;}
	.st6{fill:#7FB8E0;}
	.st7{fill:#8EC0E0;}
	.st8{fill:#71B1E1;}
	.st9{fill:#9FC9E4;}
	.st10{fill:#FFEAA7;}
	.st11{fill:#FFE28A;}
	.st12{fill:#FF6B8B;}
	.st13{fill:#F4A984;}
	.st14{fill:#EA9C7A;}
	.st15{fill:#FEF1C6;}
	.st16{fill:#E85160;}
	.st17{fill:#D84459;}
	.st18{fill:#E55D53;}
	.st19{fill:#FFD400;}
	.st20{fill:#FF8F00;}
	.st21{fill:#FF4A00;}
	.st22{fill:#F7D684;}
	.st23{fill:#FAE09F;}
	.st24{fill:#FDEBBB;}
	.st25{fill:#FFF3D9;}
	.st26{fill:#FFD96C;}
	.st27{fill:#9ACC2E;}
	.st28{fill:#AADB3D;}
	.st29{fill:#A2D336;}
	.st30{fill:#93C427;}
	.st31{fill:#F79654;}
	.st32{fill:#FFD04D;}
	.st33{fill:#FCA15E;}
	.st34{fill:#A9E260;}
	.st35{fill:#97DB4A;}
	.st36{fill:#B1E346;}
	.st37{fill:#FCD8DE;}
	.st38{fill:#CDA073;}
	.st39{fill:#C09265;}
	.st40{fill:#A7794C;}
	.st41{fill:#96643B;}
	.st42{fill:#845331;}
	.st43{fill:#B38658;}
	.st44{fill:#9E6E43;}
	.st45{fill:#8D5B36;}
	.st46{fill:#FBCFD6;}
	.st47{fill:#FAC4D1;}
	.st48{fill:#FAB8CD;}
	.st49{fill:#F9ADC8;}
	.st50{fill:#F8A1C4;}
	.st51{fill:#F297BE;}
	.st52{fill:#EA8BB4;}
	.st53{fill:#E8BA36;}
	.st54{fill:#E0B12E;}
	.st55{fill:#FFC172;}
	.st56{fill:#FFAD68;}
	.st57{fill:#FFB76D;}
	.st58{fill:#675099;}
	.st59{fill:#F3586F;}
	.st60{fill:#604893;}
	.st61{fill:#CBEB6B;}
	.st62{fill:#4EAC5D;}
	.st63{fill:#BEE758;}
	.st64{fill:#6CD275;}
	.st65{fill:#48A353;}
	.st66{fill:#60C46F;}
	.st67{fill:#D9F07D;}
	.st68{fill:#E6F490;}
	.st69{fill:#4896C8;}
	.st70{fill:#4390BF;}
	.st71{fill:#5CA3D5;}
	.st72{fill:#529CCF;}
	.st73{fill:#F7C845;}
	.st74{fill:#ECCD50;}
	.st75{fill:#FF8D6E;}
	.st76{fill:#FF805D;}
	.st77{fill:#EDEEEE;}
	.st78{fill:#65A9DC;}
	.st79{fill:#8BC07A;}
	.st80{fill:#F0C13E;}
	.st81{fill:#9A3644;}
	.st82{fill:#8A323F;}
	.st83{fill:#945BA0;}
	.st84{fill:#A366AD;}
	.st85{fill:#B370B9;}
	.st86{fill:#C27BC6;}
	.st87{fill:#F6B392;}
	.st88{fill:#D285D2;}
	.st89{fill:#DBA728;}
	.st90{fill:#505957;}
	.st91{fill:#56C7CD;}
	.st92{fill:#434C4B;}
	.st93{fill:#687271;}
	.st94{fill:#5C6664;}
	.st95{fill:#51BAC5;}
	.st96{fill:#D64F45;}
	.st97{fill:#D1D4D4;}
	.st98{fill:#E3E5E5;}
	.st99{fill:#DADDDC;}
	.st100{fill:#845194;}
	.st101{fill:#5BD3D5;}
	.st102{fill:#46B080;}
	.st103{fill:#53BF8C;}
	.st104{fill:#6EDCA2;}
	.st105{fill:#7AEBAC;}
	.st106{fill:#60CD96;}
	.st107{fill:#E8803A;}
	.st108{fill:#0A6F8E;}
	.st109{fill:#0F769B;}
	.st110{fill:#EF8C48;}
	.st111{fill:#838C8A;}
	.st112{fill:#757F7E;}
	.st113{fill:#D1473D;}
	.st114{fill:#906DBB;}
	.st115{fill:#A78EDD;}
	.st116{fill:#E2EFF7;}
	.st117{fill:#B0D3EA;}
	.st118{fill:#F7BC48;}
	.st119{fill:#FFC550;}
	.st120{fill:#FFCF6E;}
	.st121{fill:#4CAEBC;}
	.st122{fill:#47A1B4;}
	.st123{fill:#4295AC;}
	.st124{fill:#FDE2E6;}
	.st125{fill:#FFF5D8;}
	.st126{fill:#99533D;}
	.st127{fill:#914C39;}
	.st128{fill:#D4C9EF;}
	.st129{fill:#E3DBF4;}
	.st130{fill:#F1EDFA;}
	.st131{fill:#C6B7E9;}
	.st132{fill:#B8A5E4;}
	.st133{fill:#F0C877;}
	.st134{fill:#E8BA67;}
	.st135{fill:#DDAA5F;}
	.st136{fill:#D4994F;}
	.st137{fill:#C98B44;}
	.st138{fill:#BF7D3C;}
	.st139{fill:#909997;}
	.st140{fill:#724D31;}
	.st141{fill:#93C2CA;}
	.st142{fill:#99C7CE;}
	.st143{fill:#9FCCD3;}
	.st144{fill:#ACD7DD;}
	.st145{fill:#B9E2E7;}
	.st146{fill:#A5D1D8;}
	.st147{fill:#88B9C3;}
	.st148{fill:#7EB1BD;}
	.st149{fill:#C8CCCB;}
	.st150{fill:none;}
	.st151{fill:#4F4032;}
	.st152{fill:#604631;}
	.st153{fill:#F9BDA0;}
	.st154{fill:#7A63AD;}
	.st155{fill:#6E57A0;}
	.st156{fill:#E7685F;}
	.st157{fill:#C84054;}
	.st158{fill:#ABB2B1;}
	.st159{fill:#9DA5A4;}
	.st160{fill:#F74000;}
	.st161{fill:#F97C00;}
	.st162{fill:#F9C900;}
	.st163{fill:#EFD4A7;}
	.st164{fill:#EACEA1;}
	.st165{fill:#FCE8CC;}
	.st166{fill:#F5DEB9;}
	.st167{fill:#CFAB81;}
	.st168{fill:#D5B387;}
	.st169{fill:#3A4274;}
	.st170{fill:#707EB7;}
	.st171{fill:#424B7E;}
	.st172{fill:#7C8AC4;}
	.st173{fill:#FFD98D;}
	.st174{fill:#8694D1;}
	.st175{fill:#9AA6D6;}
	.st176{fill:#ABB4DD;}
	.st177{fill:#FDECEF;}
	.st178{fill:#137FA0;}
	.st179{fill:#EB6B48;}
	.st180{fill:#F57552;}
	.st181{fill:#515E91;}
	.st182{fill:#5C699E;}
	.st183{fill:#6673AA;}
	.st184{fill:#504484;}
	.st185{fill:#FF5F7E;}
	.st186{fill:#EBCEEB;}
	.st187{fill:#E5BDE5;}
	.st188{fill:#E0ABDF;}
	.st189{fill:#D799D6;}
	.st190{fill:#3B8FA3;}
	.st191{fill:#348B99;}
	.st192{fill:#F7F7F7;}
	.st193{fill:#3AA176;}
	.st194{fill:#84ED82;}
	.st195{fill:#EFEAEA;}
	.st196{fill:#FF9A7E;}
	.st197{fill:#FCD2BE;}
	.st198{fill:#FCDDCF;}
	.st199{fill:#C683C8;}
	.st200{fill:#A55F49;}
	.st201{fill:#FEF5F7;}
</style>
<g>
	<path class="orchid_08" d="M15.997,8.167c-2.643,0-5.12,1.39-6.997,3.389V8H6L5.395,18.258c-0.004,0.038-0.005,0.074-0.007,0.112
		l-0.011,0.183l0.021-0.003c0.015,0.534,0.209,1.056,0.602,1.449L6,20h10V8.167H15.997z"/>
	<path class="orchid_09" d="M26.623,18.554l-0.011-0.184c-0.002-0.038-0.002-0.074-0.007-0.111L26,8h-3v3.555
		c-1.876-1.999-4.354-3.389-6.997-3.389H16V20h10L26,19.999c0.393-0.393,0.587-0.915,0.602-1.449L26.623,18.554z"/>
	<path class="orchid_09" d="M6,20l-1.142,0.761c-1.062,0.708-1.43,2.095-0.86,3.237L4,24h12v-4H6z"/>
	<path class="orchid_10" d="M26,20l1.142,0.761c1.062,0.708,1.43,2.095,0.86,3.237L28,24H16v-4H26z"/>
	<path class="orchid_10" d="M4,24l-3.317,1.658C0.265,25.868,0,26.296,0,26.764v0C0,27.447,0.553,28,1.236,28H16l0-4H4z"/>
	<path class="orchid_11" d="M28,24l3.317,1.658C31.735,25.868,32,26.296,32,26.764v0C32,27.447,31.447,28,30.764,28H16l0-4H28z"/>
	<path class="white" d="M14.48,12.768c0.151-0.12,0.113-0.358-0.067-0.427C14.032,12.194,13.41,12,12.787,12
		s-1.245,0.194-1.627,0.34c-0.18,0.069-0.218,0.307-0.067,0.427c0.372,0.296,1.033,0.732,1.693,0.732S14.108,13.064,14.48,12.768z"
		/>
	<path class="grey_16" d="M12.787,12.25c0,0.414,0.224,0.75,0.5,0.75s0.5-0.336,0.5-0.75c0-0.04-0.011-0.074-0.015-0.112
		c-0.293-0.075-0.62-0.132-0.952-0.135C12.802,12.081,12.787,12.162,12.787,12.25z"/>
	<path class="grey_01" d="M17.52,12.768c-0.151-0.12-0.113-0.358,0.067-0.427C17.968,12.194,18.59,12,19.213,12
		s1.245,0.194,1.627,0.34c0.18,0.069,0.218,0.307,0.067,0.427c-0.372,0.296-1.033,0.732-1.693,0.732
		C18.552,13.5,17.892,13.064,17.52,12.768z"/>
	<path class="grey_16" d="M16,14.724c-1.1,0-2.199-0.091-3.288-0.272l-1.997-0.333c-0.345-0.057-0.641,0.248-0.572,0.591
		l0.536,2.682C10.865,18.327,11.686,19,12.64,19H16V14.724z"/>
	<path class="orchid_10" d="M16,17L16,17c-2.031,0-3.879,0.191-5.289,0.502C10.939,18.378,11.725,19,12.64,19H16V17z"/>
	<path class="grey_17" d="M19.213,12.25c0,0.414-0.224,0.75-0.5,0.75s-0.5-0.336-0.5-0.75c0-0.04,0.011-0.074,0.015-0.112
		c0.293-0.075,0.62-0.132,0.952-0.135C19.198,12.081,19.213,12.162,19.213,12.25z"/>
	<path class="orchid_07" d="M9.5,5.549L9.5,5.549c0,0.272,0.072,0.539,0.208,0.775l0.909,1.574c0.276,0.478,0.112,1.09-0.366,1.366
		h0C9.772,9.539,9.16,9.375,8.884,8.897L8.883,8.895C8.778,8.713,8.5,8.787,8.5,8.997V9c0,0.552-0.448,1-1,1s-1-0.448-1-1V8.997
		c0-0.21-0.278-0.284-0.383-0.102L6.116,8.897C5.84,9.375,5.228,9.539,4.75,9.263C4.272,8.987,4.108,8.375,4.384,7.897l0.908-1.574
		C5.428,6.088,5.5,5.821,5.5,5.549v0C5.5,4.694,6.193,4,7.049,4h0.902C8.806,4,9.5,4.694,9.5,5.549z"/>
	<path class="orchid_08" d="M22.5,5.549L22.5,5.549c0,0.272-0.072,0.539-0.208,0.775l-0.909,1.574
		c-0.276,0.478-0.112,1.09,0.366,1.366h0c0.478,0.276,1.09,0.112,1.366-0.366l0.001-0.003C23.222,8.713,23.5,8.787,23.5,8.997V9
		c0,0.552,0.448,1,1,1s1-0.448,1-1V8.997c0-0.21,0.278-0.284,0.383-0.102l0.001,0.003c0.276,0.478,0.888,0.642,1.366,0.366
		c0.478-0.276,0.642-0.888,0.366-1.366l-0.908-1.574C26.572,6.088,26.5,5.821,26.5,5.549v0C26.5,4.694,25.807,4,24.951,4h-0.902
		C23.194,4,22.5,4.694,22.5,5.549z"/>
</g>
<g>
	<path class="grey_17" d="M19.007,15.53l-0.253-1.011c-0.914,0.127-1.834,0.206-2.755,0.206V19h2.625l0.382-1.53
		C19.167,16.833,19.167,16.167,19.007,15.53z"/>
	<path class="grey_17" d="M21.285,14.119l-0.981,0.164l-0.312,1.247c-0.159,0.637-0.159,1.303,0,1.94l0.321,1.285
		c0.507-0.276,0.888-0.764,1.008-1.363l0.536-2.682C21.927,14.367,21.631,14.062,21.285,14.119z"/>
</g>
<g>
	<g>
		<path class="orchid_11" d="M19.065,17.158C18.12,17.058,17.09,17,16,17v2h2.625l0.382-1.53
			C19.033,17.367,19.048,17.262,19.065,17.158z"/>
		<path class="orchid_11" d="M19.955,17.268c0.013,0.067,0.021,0.136,0.038,0.202l0.321,1.286c0.473-0.259,0.833-0.707,0.975-1.254
			C20.882,17.412,20.429,17.336,19.955,17.268z"/>
	</g>
	<g>
		<path class="orchid_11" d="M19.065,17.158C18.12,17.058,17.09,17,16,17v2h2.625l0.382-1.53
			C19.033,17.367,19.048,17.262,19.065,17.158z"/>
		<path class="orchid_11" d="M19.955,17.268c0.013,0.067,0.021,0.136,0.038,0.202l0.321,1.286c0.473-0.259,0.833-0.707,0.975-1.254
			C20.882,17.412,20.429,17.336,19.955,17.268z"/>
	</g>
</g>
</svg>
