<?xml version="1.0" encoding="utf-8"?>
<!-- Generator: Adobe Illustrator 20.1.0, SVG Export Plug-In . SVG Version: 6.00 Build 0)  -->
<!DOCTYPE svg PUBLIC "-//W3C//DTD SVG 1.1//EN" "http://www.w3.org/Graphics/SVG/1.1/DTD/svg11.dtd">
<svg version="1.1" xmlns="http://www.w3.org/2000/svg" xmlns:xlink="http://www.w3.org/1999/xlink" x="0px" y="0px" width="32px"
	 height="32px" viewBox="0 0 32 32" enable-background="new 0 0 32 32" xml:space="preserve">
<g id="labels">
</g>
<g id="icons">
	<g>
		<g>
			<g>
				<circle fill="#675099" cx="2.5" cy="29.5" r="1.5"/>
				<path fill="#675099" d="M16,1.396C15.267,0.552,14.206,0,13,0c-2.209,0-4,1.791-4,4c-4.971,0-9,4.029-9,9
					c0,2.661,1.161,5.044,2.997,6.692C2.368,20.64,2,21.777,2,23c0,3.314,2.686,6,6,6c1.6,0,3.05-0.63,4.126-1.651
					c0.698,0.238,1.424,0.411,2.174,0.517c0.33,1.008,0.93,1.887,1.7,2.582V1.396z"/>
			</g>
			<g>
				<circle fill="#7A63AD" cx="2.5" cy="29.5" r="1.5"/>
				<path fill="#7A63AD" d="M16,1.396C15.267,0.552,14.206,0,13,0c-2.209,0-4,1.791-4,4c-4.971,0-9,4.029-9,9
					c0,2.661,1.161,5.044,2.997,6.692C2.368,20.64,2,21.777,2,23c0,3.314,2.686,6,6,6c1.6,0,3.05-0.63,4.126-1.651
					c0.698,0.238,1.424,0.411,2.174,0.517c0.33,1.008,0.93,1.887,1.7,2.582V1.396z"/>
			</g>
		</g>
		<g>
			<g>
				<path fill="#675099" d="M32,13c0-3.996-2.607-7.379-6.211-8.554C25.104,1.887,22.775,0,20,0c-1.503,0-2.873,0.556-3.926,1.469
					C16.052,1.443,16.023,1.423,16,1.396v29.051C17.062,31.405,18.457,32,20,32c1.891,0,3.574-0.876,4.674-2.243
					C25.091,29.905,25.533,30,26,30c2.209,0,4-1.791,4-4c0-2.086-1.603-3.779-3.641-3.964c0.173-0.296,0.331-0.6,0.479-0.912
					C29.887,19.685,32,16.595,32,13z"/>
				<circle fill="#675099" cx="28.5" cy="3.5" r="1.5"/>
			</g>
			<g>
				<path fill="#6E57A0" d="M32,13c0-3.996-2.607-7.379-6.211-8.554C25.104,1.887,22.775,0,20,0c-1.503,0-2.873,0.556-3.926,1.469
					C16.052,1.443,16.023,1.423,16,1.396v29.051C17.062,31.405,18.457,32,20,32c1.891,0,3.574-0.876,4.674-2.243
					C25.091,29.905,25.533,30,26,30c2.209,0,4-1.791,4-4c0-2.086-1.603-3.779-3.641-3.964c0.173-0.296,0.331-0.6,0.479-0.912
					C29.887,19.685,32,16.595,32,13z"/>
				<circle fill="#6E57A0" cx="28.5" cy="3.5" r="1.5"/>
			</g>
		</g>
		<path fill="#373F3F" d="M16,4C9.373,4,4,9.373,4,16c0,6.627,5.373,12,12,12V4z"/>
		<path fill="#2B3332" d="M28,16c0-6.627-5.373-12-12-12v24C22.627,28,28,22.627,28,16z"/>
		<path fill="#FFFFFF" d="M7.434,20.851c2.624,0.497,5.078-0.288,6.843-1.839c0.213-0.187,0.212-0.523,0.012-0.723L3.711,7.711
			C3.51,7.51,3.175,7.509,2.988,7.723c-1.551,1.765-2.336,4.219-1.839,6.843C1.745,17.715,4.285,20.255,7.434,20.851z"/>
		<path fill="#F7F7F7" d="M24.566,20.851c-2.624,0.497-5.078-0.288-6.843-1.839c-0.213-0.187-0.212-0.523-0.012-0.723L28.289,7.711
			c0.201-0.201,0.536-0.202,0.723,0.012c1.551,1.765,2.336,4.219,1.839,6.843C30.255,17.715,27.715,20.255,24.566,20.851z"/>
		<path fill="#F4A984" d="M16,23H9.53c-0.219,0-0.334,0.258-0.185,0.419C10.106,24.245,12.175,26,16,26V23z"/>
		<path fill="#EA9C7A" d="M16,26c3.825,0,5.894-1.755,6.656-2.581C22.804,23.258,22.69,23,22.47,23H16V26z"/>
		<path fill="#FFFFFF" d="M11,23h2l-0.776,1.553c-0.092,0.184-0.355,0.184-0.447,0L11,23z"/>
		<path fill="#F7F7F7" d="M19,23h2l-0.776,1.553c-0.092,0.184-0.355,0.184-0.447,0L19,23z"/>
		<ellipse fill="#2B3332" cx="22.5" cy="16" rx="0.5" ry="1"/>
		<ellipse fill="#373F3F" cx="9.5" cy="16" rx="0.5" ry="1"/>
	</g>
</g>
</svg>
