<?xml version="1.0" encoding="utf-8"?>
<!-- Generator: Adobe Illustrator 20.1.0, SVG Export Plug-In . SVG Version: 6.00 Build 0)  -->
<!DOCTYPE svg PUBLIC "-//W3C//DTD SVG 1.1//EN" "http://www.w3.org/Graphics/SVG/1.1/DTD/svg11.dtd">
<svg version="1.1" id="icons" xmlns="http://www.w3.org/2000/svg" xmlns:xlink="http://www.w3.org/1999/xlink" x="0px" y="0px"
	 width="32px" height="32px" viewBox="0 0 32 32" style="enable-background:new 0 0 32 32;" xml:space="preserve">
<style type="text/css">
	.white{fill:#FFFFFF;}
	.grey_01{fill:#F7F7F7;}
	.grey_16{fill:#373F3F;}
	.grey_17{fill:#2B3332;}
	.orchid_09{fill:#866EBA;}
	.orchid_10{fill:#7A63AD;}
	.orchid_11{fill:#6E57A0;}
	.salmon_05{fill:#F6B392;}
	.salmon_06{fill:#F4A984;}
	.st0{fill:#78DF7C;}
	.st1{fill:#54B668;}
	.st2{fill:#D2E6F3;}
	.st3{fill:#C1DDEE;}
	.st4{fill:#E0C193;}
	.st5{fill:#DBBA8C;}
	.st6{fill:#7FB8E0;}
	.st7{fill:#8EC0E0;}
	.st8{fill:#71B1E1;}
	.st9{fill:#9FC9E4;}
	.st10{fill:#FFEAA7;}
	.st11{fill:#FFE28A;}
	.st12{fill:#FF6B8B;}
	.st13{fill:#EA9C7A;}
	.st14{fill:#FEF1C6;}
	.st15{fill:#E85160;}
	.st16{fill:#D84459;}
	.st17{fill:#E55D53;}
	.st18{fill:#FFD400;}
	.st19{fill:#FF8F00;}
	.st20{fill:#FF4A00;}
	.st21{fill:#F7D684;}
	.st22{fill:#FAE09F;}
	.st23{fill:#FDEBBB;}
	.st24{fill:#FFF3D9;}
	.st25{fill:#FFD96C;}
	.st26{fill:#9ACC2E;}
	.st27{fill:#AADB3D;}
	.st28{fill:#A2D336;}
	.st29{fill:#93C427;}
	.st30{fill:#F79654;}
	.st31{fill:#FFD04D;}
	.st32{fill:#FCA15E;}
	.st33{fill:#A9E260;}
	.st34{fill:#97DB4A;}
	.st35{fill:#B1E346;}
	.st36{fill:#FCD8DE;}
	.st37{fill:#CDA073;}
	.st38{fill:#C09265;}
	.st39{fill:#A7794C;}
	.st40{fill:#96643B;}
	.st41{fill:#845331;}
	.st42{fill:#B38658;}
	.st43{fill:#9E6E43;}
	.st44{fill:#8D5B36;}
	.st45{fill:#FBCFD6;}
	.st46{fill:#FAC4D1;}
	.st47{fill:#FAB8CD;}
	.st48{fill:#F9ADC8;}
	.st49{fill:#F8A1C4;}
	.st50{fill:#F297BE;}
	.st51{fill:#EA8BB4;}
	.st52{fill:#E8BA36;}
	.st53{fill:#E0B12E;}
	.st54{fill:#FFC172;}
	.st55{fill:#FFAD68;}
	.st56{fill:#FFB76D;}
	.st57{fill:#675099;}
	.st58{fill:#F3586F;}
	.st59{fill:#604893;}
	.st60{fill:#CBEB6B;}
	.st61{fill:#4EAC5D;}
	.st62{fill:#BEE758;}
	.st63{fill:#6CD275;}
	.st64{fill:#48A353;}
	.st65{fill:#60C46F;}
	.st66{fill:#D9F07D;}
	.st67{fill:#E6F490;}
	.st68{fill:#4896C8;}
	.st69{fill:#4390BF;}
	.st70{fill:#5CA3D5;}
	.st71{fill:#529CCF;}
	.st72{fill:#F7C845;}
	.st73{fill:#ECCD50;}
	.st74{fill:#FF8D6E;}
	.st75{fill:#FF805D;}
	.st76{fill:#EDEEEE;}
	.st77{fill:#65A9DC;}
	.st78{fill:#8BC07A;}
	.st79{fill:#F0C13E;}
	.st80{fill:#9A3644;}
	.st81{fill:#8A323F;}
	.st82{fill:#945BA0;}
	.st83{fill:#A366AD;}
	.st84{fill:#B370B9;}
	.st85{fill:#C27BC6;}
	.st86{fill:#D285D2;}
	.st87{fill:#DBA728;}
	.st88{fill:#505957;}
	.st89{fill:#56C7CD;}
	.st90{fill:#434C4B;}
	.st91{fill:#687271;}
	.st92{fill:#5C6664;}
	.st93{fill:#51BAC5;}
	.st94{fill:#D64F45;}
	.st95{fill:#D1D4D4;}
	.st96{fill:#E3E5E5;}
	.st97{fill:#DADDDC;}
	.st98{fill:#845194;}
	.st99{fill:#5BD3D5;}
	.st100{fill:#46B080;}
	.st101{fill:#53BF8C;}
	.st102{fill:#6EDCA2;}
	.st103{fill:#7AEBAC;}
	.st104{fill:#60CD96;}
	.st105{fill:#E8803A;}
	.st106{fill:#0A6F8E;}
	.st107{fill:#0F769B;}
	.st108{fill:#EF8C48;}
	.st109{fill:#838C8A;}
	.st110{fill:#757F7E;}
	.st111{fill:#D1473D;}
	.st112{fill:#9179C6;}
	.st113{fill:#906DBB;}
	.st114{fill:#A78EDD;}
	.st115{fill:#9D85D3;}
	.st116{fill:#E2EFF7;}
	.st117{fill:#B0D3EA;}
	.st118{fill:#F7BC48;}
	.st119{fill:#FFC550;}
	.st120{fill:#FFCF6E;}
	.st121{fill:#4CAEBC;}
	.st122{fill:#47A1B4;}
	.st123{fill:#4295AC;}
	.st124{fill:#FDE2E6;}
	.st125{fill:#FFF5D8;}
	.st126{fill:#99533D;}
	.st127{fill:#914C39;}
	.st128{fill:#D4C9EF;}
	.st129{fill:#E3DBF4;}
	.st130{fill:#F1EDFA;}
	.st131{fill:#C6B7E9;}
	.st132{fill:#B8A5E4;}
	.st133{fill:#F0C877;}
	.st134{fill:#E8BA67;}
	.st135{fill:#DDAA5F;}
	.st136{fill:#D4994F;}
	.st137{fill:#C98B44;}
	.st138{fill:#BF7D3C;}
	.st139{fill:#909997;}
	.st140{fill:#724D31;}
	.st141{fill:#93C2CA;}
	.st142{fill:#99C7CE;}
	.st143{fill:#9FCCD3;}
	.st144{fill:#ACD7DD;}
	.st145{fill:#B9E2E7;}
	.st146{fill:#A5D1D8;}
	.st147{fill:#88B9C3;}
	.st148{fill:#7EB1BD;}
	.st149{fill:#C8CCCB;}
	.st150{fill:none;}
	.st151{fill:#4F4032;}
	.st152{fill:#604631;}
	.st153{fill:#F9BDA0;}
	.st154{fill:#7A63AD;}
	.st155{fill:#6E57A0;}
	.st156{fill:#E7685F;}
	.st157{fill:#C84054;}
	.st158{fill:#ABB2B1;}
	.st159{fill:#9DA5A4;}
	.st160{fill:#F74000;}
	.st161{fill:#F97C00;}
	.st162{fill:#F9C900;}
	.st163{fill:#EFD4A7;}
	.st164{fill:#EACEA1;}
	.st165{fill:#FCE8CC;}
	.st166{fill:#F5DEB9;}
	.st167{fill:#CFAB81;}
	.st168{fill:#D5B387;}
	.st169{fill:#3A4274;}
	.st170{fill:#707EB7;}
	.st171{fill:#424B7E;}
	.st172{fill:#7C8AC4;}
	.st173{fill:#FFD98D;}
	.st174{fill:#8694D1;}
	.st175{fill:#9AA6D6;}
	.st176{fill:#ABB4DD;}
	.st177{fill:#FDECEF;}
	.st178{fill:#137FA0;}
	.st179{fill:#EB6B48;}
	.st180{fill:#F57552;}
	.st181{fill:#515E91;}
	.st182{fill:#5C699E;}
	.st183{fill:#6673AA;}
	.st184{fill:#504484;}
	.st185{fill:#FF5F7E;}
	.st186{fill:#EBCEEB;}
	.st187{fill:#E5BDE5;}
	.st188{fill:#E0ABDF;}
	.st189{fill:#D799D6;}
	.st190{fill:#3B8FA3;}
	.st191{fill:#348B99;}
	.st192{fill:#F7F7F7;}
	.st193{fill:#3AA176;}
	.st194{fill:#84ED82;}
	.st195{fill:#EFEAEA;}
	.st196{fill:#FF9A7E;}
	.st197{fill:#FCD2BE;}
	.st198{fill:#FCDDCF;}
	.st199{fill:#C683C8;}
	.st200{fill:#A55F49;}
	.st201{fill:#FEF5F7;}
</style>
<g>
	<path class="orchid_09" d="M0.581,8.955l3.66,0.587L0.065,2.026c-0.233-0.42,0.202-0.895,0.64-0.7l6.572,2.921
		C9.466,2.187,12.559,1,16,1v26c-3.872,0-7.307-2.865-9.501-6.563L1.18,15.934c-0.396-0.334-0.085-0.976,0.423-0.872l2.598,0.534
		L0.092,9.735C-0.162,9.374,0.144,8.885,0.581,8.955z"/>
	<path class="orchid_10" d="M31.419,8.955l-3.66,0.587l4.175-7.516c0.233-0.42-0.202-0.895-0.64-0.7l-6.572,2.921
		C22.534,2.187,19.441,1,16,1v26c3.872,0,7.307-2.865,9.501-6.563l5.319-4.503c0.396-0.334,0.085-0.976-0.423-0.872l-2.598,0.534
		l4.109-5.861C32.162,9.374,31.856,8.885,31.419,8.955z"/>
	<g>
		<path class="grey_01" d="M18.453,17.456l4.02-4.824c0.265-0.318,0.78-0.201,0.872,0.202C23.432,13.213,23.5,13.75,23.5,14.5
			c0,1.313-0.21,1.974-0.358,2.277c-0.068,0.14-0.197,0.234-0.35,0.265l-4.098,0.82C18.463,17.907,18.302,17.637,18.453,17.456z"/>
		<path class="grey_17" d="M20.5,17c0.276,0,0.5-0.672,0.5-1.5c0-0.366-0.045-0.698-0.118-0.958l-0.879,1.054
			C20.02,16.379,20.235,17,20.5,17z"/>
	</g>
	<g>
		<path class="white" d="M13.547,17.456l-4.02-4.824c-0.265-0.318-0.78-0.201-0.872,0.202C8.568,13.213,8.5,13.75,8.5,14.5
			c0,1.313,0.21,1.974,0.358,2.277c0.068,0.14,0.197,0.234,0.35,0.265l4.098,0.82C13.537,17.907,13.698,17.637,13.547,17.456z"/>
		<path class="grey_16" d="M11.5,17c-0.276,0-0.5-0.672-0.5-1.5c0-0.366,0.045-0.698,0.118-0.958l0.879,1.054
			C11.98,16.379,11.765,17,11.5,17z"/>
	</g>
	<path class="salmon_05" d="M15.504,18.993l-0.78,1.56c-0.092,0.184-0.355,0.184-0.447,0l-0.838-1.675
		c-0.366-0.033-0.725-0.071-1.071-0.112l-0.644,1.287c-0.092,0.184-0.355,0.184-0.447,0l-0.777-1.555
		c-0.869-0.145-1.57-0.289-2.007-0.385c-0.203-0.044-0.37,0.17-0.279,0.356C10.561,23.247,16,23,16,23v-4
		C15.834,19,15.669,18.996,15.504,18.993z"/>
	<path class="salmon_06" d="M16.5,18.993l0.78,1.56c0.092,0.184,0.355,0.184,0.447,0l0.838-1.675
		c0.366-0.033,0.725-0.071,1.071-0.112l0.644,1.287c0.092,0.184,0.355,0.184,0.447,0l0.777-1.555
		c0.869-0.145,1.57-0.289,2.007-0.385c0.203-0.044,0.37,0.17,0.279,0.356C21.442,23.247,16.003,23,16.003,23v-4
		C16.169,19,16.334,18.996,16.5,18.993z"/>
	<g>
		<path class="orchid_11" d="M30.99,24h-5.009c-0.53,0-1.039,0.211-1.414,0.586l-1.778,1.778c-0.351,0.351-0.351,0.921,0,1.273
			l0.003,0.003c0.224,0.224,0.548,0.313,0.855,0.237L27.153,27h4.546l0.28-1.85C32.07,24.545,31.602,24,30.99,24z"/>
		<path class="orchid_10" d="M31,24h-1.847h-1h-1.847c-0.609,0-1.076,0.539-0.99,1.141l0.696,4.871
			C26.093,30.579,26.578,31,27.15,31h0.005c0.572,0,1.057-0.421,1.138-0.987l0.359-2.513l0.359,2.513
			C29.093,30.579,29.578,31,30.15,31h0.005c0.572,0,1.057-0.421,1.138-0.987l0.696-4.871C32.076,24.539,31.608,24,31,24z"/>
	</g>
	<g>
		<path class="orchid_10" d="M1.01,24h5.009c0.53,0,1.039,0.211,1.414,0.586l1.778,1.778c0.351,0.351,0.351,0.921,0,1.273
			L9.207,27.64c-0.224,0.224-0.548,0.313-0.855,0.237L4.847,27H0.302l-0.28-1.85C-0.07,24.545,0.398,24,1.01,24z"/>
		<path class="orchid_09" d="M1,24h1.847h1h1.847c0.609,0,1.076,0.539,0.99,1.141l-0.696,4.871C5.907,30.579,5.422,31,4.85,31H4.845
			c-0.572,0-1.057-0.421-1.138-0.987L3.347,27.5l-0.359,2.513C2.907,30.579,2.422,31,1.85,31H1.845
			c-0.572,0-1.057-0.421-1.138-0.987L0.01,25.141C-0.076,24.539,0.392,24,1,24z"/>
	</g>
</g>
</svg>
