<?xml version="1.0" encoding="utf-8"?>
<!-- Generator: Adobe Illustrator 20.1.0, SVG Export Plug-In . SVG Version: 6.00 Build 0)  -->
<!DOCTYPE svg PUBLIC "-//W3C//DTD SVG 1.1//EN" "http://www.w3.org/Graphics/SVG/1.1/DTD/svg11.dtd">
<svg version="1.1" id="icons" xmlns="http://www.w3.org/2000/svg" xmlns:xlink="http://www.w3.org/1999/xlink" x="0px" y="0px"
	 width="32px" height="32px" viewBox="0 0 32 32" style="enable-background:new 0 0 32 32;" xml:space="preserve">
<style type="text/css">
	.white{fill:#FFFFFF;}
	.grey_01{fill:#F7F7F7;}
	.grey_02{fill:#EDEEEE;}
	.grey_03{fill:#E3E5E5;}
	.grey_04{fill:#DADDDC;}
	.grey_05{fill:#D1D4D4;}
	.grey_16{fill:#373F3F;}
	.grey_17{fill:#2B3332;}
	.orchid_07{fill:#9D85D3;}
	.orchid_08{fill:#9179C6;}
	.orchid_09{fill:#866EBA;}
	.orchid_10{fill:#7A63AD;}
	.salmon_04{fill:#F9BDA0;}
	.salmon_05{fill:#F6B392;}
	.st0{fill:#78DF7C;}
	.st1{fill:#54B668;}
	.st2{fill:#D2E6F3;}
	.st3{fill:#C1DDEE;}
	.st4{fill:#E0C193;}
	.st5{fill:#DBBA8C;}
	.st6{fill:#7FB8E0;}
	.st7{fill:#8EC0E0;}
	.st8{fill:#71B1E1;}
	.st9{fill:#9FC9E4;}
	.st10{fill:#FFEAA7;}
	.st11{fill:#FFE28A;}
	.st12{fill:#FF6B8B;}
	.st13{fill:#F4A984;}
	.st14{fill:#EA9C7A;}
	.st15{fill:#FEF1C6;}
	.st16{fill:#E85160;}
	.st17{fill:#D84459;}
	.st18{fill:#E55D53;}
	.st19{fill:#FFD400;}
	.st20{fill:#FF8F00;}
	.st21{fill:#FF4A00;}
	.st22{fill:#F7D684;}
	.st23{fill:#FAE09F;}
	.st24{fill:#FDEBBB;}
	.st25{fill:#FFF3D9;}
	.st26{fill:#FFD96C;}
	.st27{fill:#9ACC2E;}
	.st28{fill:#AADB3D;}
	.st29{fill:#A2D336;}
	.st30{fill:#93C427;}
	.st31{fill:#F79654;}
	.st32{fill:#FFD04D;}
	.st33{fill:#FCA15E;}
	.st34{fill:#A9E260;}
	.st35{fill:#97DB4A;}
	.st36{fill:#B1E346;}
	.st37{fill:#FCD8DE;}
	.st38{fill:#CDA073;}
	.st39{fill:#C09265;}
	.st40{fill:#A7794C;}
	.st41{fill:#96643B;}
	.st42{fill:#845331;}
	.st43{fill:#B38658;}
	.st44{fill:#9E6E43;}
	.st45{fill:#8D5B36;}
	.st46{fill:#FBCFD6;}
	.st47{fill:#FAC4D1;}
	.st48{fill:#FAB8CD;}
	.st49{fill:#F9ADC8;}
	.st50{fill:#F8A1C4;}
	.st51{fill:#F297BE;}
	.st52{fill:#EA8BB4;}
	.st53{fill:#E8BA36;}
	.st54{fill:#E0B12E;}
	.st55{fill:#FFC172;}
	.st56{fill:#FFAD68;}
	.st57{fill:#FFB76D;}
	.st58{fill:#6E57A0;}
	.st59{fill:#675099;}
	.st60{fill:#F3586F;}
	.st61{fill:#604893;}
	.st62{fill:#CBEB6B;}
	.st63{fill:#4EAC5D;}
	.st64{fill:#BEE758;}
	.st65{fill:#6CD275;}
	.st66{fill:#48A353;}
	.st67{fill:#60C46F;}
	.st68{fill:#D9F07D;}
	.st69{fill:#E6F490;}
	.st70{fill:#4896C8;}
	.st71{fill:#4390BF;}
	.st72{fill:#5CA3D5;}
	.st73{fill:#529CCF;}
	.st74{fill:#F7C845;}
	.st75{fill:#ECCD50;}
	.st76{fill:#FF8D6E;}
	.st77{fill:#FF805D;}
	.st78{fill:#65A9DC;}
	.st79{fill:#8BC07A;}
	.st80{fill:#F0C13E;}
	.st81{fill:#9A3644;}
	.st82{fill:#8A323F;}
	.st83{fill:#945BA0;}
	.st84{fill:#A366AD;}
	.st85{fill:#B370B9;}
	.st86{fill:#C27BC6;}
	.st87{fill:#D285D2;}
	.st88{fill:#DBA728;}
	.st89{fill:#505957;}
	.st90{fill:#56C7CD;}
	.st91{fill:#434C4B;}
	.st92{fill:#687271;}
	.st93{fill:#5C6664;}
	.st94{fill:#51BAC5;}
	.st95{fill:#D64F45;}
	.st96{fill:#845194;}
	.st97{fill:#5BD3D5;}
	.st98{fill:#46B080;}
	.st99{fill:#53BF8C;}
	.st100{fill:#6EDCA2;}
	.st101{fill:#7AEBAC;}
	.st102{fill:#60CD96;}
	.st103{fill:#E8803A;}
	.st104{fill:#0A6F8E;}
	.st105{fill:#0F769B;}
	.st106{fill:#EF8C48;}
	.st107{fill:#838C8A;}
	.st108{fill:#757F7E;}
	.st109{fill:#D1473D;}
	.st110{fill:#906DBB;}
	.st111{fill:#A78EDD;}
	.st112{fill:#E2EFF7;}
	.st113{fill:#B0D3EA;}
	.st114{fill:#F7BC48;}
	.st115{fill:#FFC550;}
	.st116{fill:#FFCF6E;}
	.st117{fill:#4CAEBC;}
	.st118{fill:#47A1B4;}
	.st119{fill:#4295AC;}
	.st120{fill:#FDE2E6;}
	.st121{fill:#FFF5D8;}
	.st122{fill:#99533D;}
	.st123{fill:#914C39;}
	.st124{fill:#D4C9EF;}
	.st125{fill:#E3DBF4;}
	.st126{fill:#F1EDFA;}
	.st127{fill:#C6B7E9;}
	.st128{fill:#B8A5E4;}
	.st129{fill:#F0C877;}
	.st130{fill:#E8BA67;}
	.st131{fill:#DDAA5F;}
	.st132{fill:#D4994F;}
	.st133{fill:#C98B44;}
	.st134{fill:#BF7D3C;}
	.st135{fill:#909997;}
	.st136{fill:#724D31;}
	.st137{fill:#93C2CA;}
	.st138{fill:#99C7CE;}
	.st139{fill:#9FCCD3;}
	.st140{fill:#ACD7DD;}
	.st141{fill:#B9E2E7;}
	.st142{fill:#A5D1D8;}
	.st143{fill:#88B9C3;}
	.st144{fill:#7EB1BD;}
	.st145{fill:#C8CCCB;}
	.st146{fill:none;}
	.st147{fill:#4F4032;}
	.st148{fill:#604631;}
	.st149{fill:#7A63AD;}
	.st150{fill:#E7685F;}
	.st151{fill:#C84054;}
	.st152{fill:#ABB2B1;}
	.st153{fill:#9DA5A4;}
	.st154{fill:#F74000;}
	.st155{fill:#F97C00;}
	.st156{fill:#F9C900;}
	.st157{fill:#EFD4A7;}
	.st158{fill:#EACEA1;}
	.st159{fill:#FCE8CC;}
	.st160{fill:#F5DEB9;}
	.st161{fill:#CFAB81;}
	.st162{fill:#D5B387;}
	.st163{fill:#3A4274;}
	.st164{fill:#707EB7;}
	.st165{fill:#424B7E;}
	.st166{fill:#7C8AC4;}
	.st167{fill:#FFD98D;}
	.st168{fill:#8694D1;}
	.st169{fill:#9AA6D6;}
	.st170{fill:#ABB4DD;}
	.st171{fill:#FDECEF;}
	.st172{fill:#137FA0;}
	.st173{fill:#EB6B48;}
	.st174{fill:#F57552;}
	.st175{fill:#515E91;}
	.st176{fill:#5C699E;}
	.st177{fill:#6673AA;}
	.st178{fill:#504484;}
	.st179{fill:#FF5F7E;}
	.st180{fill:#EBCEEB;}
	.st181{fill:#E5BDE5;}
	.st182{fill:#E0ABDF;}
	.st183{fill:#D799D6;}
	.st184{fill:#3B8FA3;}
	.st185{fill:#348B99;}
	.st186{fill:#F7F7F7;}
	.st187{fill:#3AA176;}
	.st188{fill:#84ED82;}
	.st189{fill:#EFEAEA;}
	.st190{fill:#FF9A7E;}
	.st191{fill:#FCD2BE;}
	.st192{fill:#FCDDCF;}
	.st193{fill:#C683C8;}
	.st194{fill:#A55F49;}
	.st195{fill:#FEF5F7;}
</style>
<path class="orchid_10" d="M24,23c0,0,3.033,2.587,3.279,6.16c0.043,0.625,0.226,1.233,0.506,1.793l0.162,0.323
	C28.113,31.609,27.871,32,27.499,32h-5.044c-0.25,0-0.458-0.181-0.494-0.429C21.836,30.705,21.298,28.766,19,28L24,23z"/>
<path class="orchid_09" d="M8,23c0,0-3.033,2.587-3.279,6.16c-0.043,0.625-0.226,1.233-0.506,1.793l-0.162,0.323
	C3.887,31.609,4.129,32,4.501,32h5.044c0.25,0,0.458-0.181,0.494-0.429C10.164,30.705,10.702,28.766,13,28L8,23z"/>
<path class="orchid_07" d="M15.789,0.335L14,3.169L12.434,1.47C12.279,1.303,12,1.412,12,1.64v2.079l-1.638-0.819
	C10.196,2.816,10,2.937,10,3.123v1.632L3.664,1.356C3.452,1.242,3.217,1.465,3.319,1.682l3.24,6.92
	c-0.544,1.006-0.943,2.116-1.207,3.292c-2.197,1.402-5.01,3.94-5.323,7.902c-0.028,0.353,0.322,0.617,0.657,0.505L1.5,20.03
	l0.209,0.628c0.122,0.365,0.591,0.461,0.848,0.174c0.526-0.588,1.407-1.4,2.538-1.887C5.473,24.893,7.314,29,16,29h0V0.218
	C15.919,0.218,15.838,0.257,15.789,0.335z"/>
<path class="orchid_08" d="M26.648,11.895c-0.264-1.176-0.663-2.287-1.207-3.292l3.24-6.92c0.102-0.218-0.133-0.44-0.345-0.326
	L22,4.755V3.123c0-0.186-0.196-0.307-0.362-0.224L20,3.718V1.64c0-0.228-0.279-0.337-0.434-0.169L18,3.169l-1.789-2.834
	C16.162,0.257,16.081,0.218,16,0.218V29c8.686,0,10.527-4.108,10.905-10.055c1.131,0.486,2.013,1.299,2.538,1.887
	c0.257,0.287,0.726,0.191,0.848-0.174L30.5,20.03l0.814,0.271c0.336,0.112,0.685-0.152,0.657-0.505
	C31.657,15.835,28.845,13.297,26.648,11.895z"/>
<path class="salmon_05" d="M22.407,11.134c0.126-0.073,0.298-0.026,0.358,0.107c0.558,1.233,0.097,2.71-1.105,3.401
	c-1.203,0.691-2.719,0.349-3.513-0.75c-0.085-0.118-0.04-0.288,0.086-0.36L22.407,11.134z"/>
<path class="grey_17" d="M20.5,14c0.276,0,0.5-0.672,0.5-1.5c0-0.19-0.013-0.37-0.034-0.538l-0.965,0.554
	C20.004,13.337,20.226,14,20.5,14z"/>
<path class="salmon_04" d="M9.593,11.134c-0.126-0.073-0.298-0.026-0.358,0.107c-0.558,1.233-0.097,2.71,1.105,3.401
	c1.203,0.691,2.719,0.349,3.513-0.75c0.085-0.118,0.04-0.288-0.086-0.36L9.593,11.134z"/>
<path class="grey_16" d="M11.5,14c-0.276,0-0.5-0.672-0.5-1.5c0-0.19,0.013-0.37,0.034-0.538l0.965,0.554
	C11.996,13.337,11.774,14,11.5,14z"/>
<path class="grey_05" d="M22.59,16.326C21.78,16.893,19.72,18,16,18v4c0,0,6.568,0,6.98-5.453
	C22.995,16.343,22.758,16.209,22.59,16.326z"/>
<path class="white" d="M9.41,16.326C10.22,16.893,12.28,18,16,18v4c0,0-6.568,0-6.98-5.453C9.005,16.343,9.242,16.209,9.41,16.326z"
	/>
<path class="orchid_08" d="M16,29v-4c-5.155,0-8.411-1.018-10.473-2.786C6.459,26.344,9.017,29,16,29z"/>
<path class="orchid_09" d="M16,25v4c6.983,0,9.541-2.656,10.473-6.786C24.411,23.982,21.155,25,16,25z"/>
<path class="grey_01" d="M10,19.325c0.787,1.086,1.922,1.733,3,2.115v-3.715c-1.369-0.266-2.352-0.679-3-1.036V19.325z"/>
<path class="grey_02" d="M13,21.44c1.568,0.555,3,0.56,3,0.56v-4c-1.159,0-2.151-0.11-3-0.275V21.44z"/>
<path class="grey_04" d="M22,19.325c-0.787,1.086-1.922,1.733-3,2.115v-3.715c1.369-0.266,2.352-0.679,3-1.036V19.325z"/>
<path class="grey_03" d="M19,21.44C17.432,21.994,16,22,16,22v-4c1.159,0,2.151-0.11,3-0.275V21.44z"/>
</svg>
