<?xml version="1.0" encoding="utf-8"?>
<!-- Generator: Adobe Illustrator 20.1.0, SVG Export Plug-In . SVG Version: 6.00 Build 0)  -->
<!DOCTYPE svg PUBLIC "-//W3C//DTD SVG 1.1//EN" "http://www.w3.org/Graphics/SVG/1.1/DTD/svg11.dtd">
<svg version="1.1" id="icons" xmlns="http://www.w3.org/2000/svg" xmlns:xlink="http://www.w3.org/1999/xlink" x="0px" y="0px"
	 width="32px" height="32px" viewBox="0 0 32 32" style="enable-background:new 0 0 32 32;" xml:space="preserve">
<style type="text/css">
	.white{fill:#FFFFFF;}
	.grey_01{fill:#F7F7F7;}
	.grey_16{fill:#373F3F;}
	.grey_17{fill:#2B3332;}
	.lemon_04{fill:#FFE28A;}
	.lemon_05{fill:#FFD96C;}
	.lemon_06{fill:#FFD04D;}
	.dirt_19{fill:#604631;}
	.dirt_20{fill:#4F4032;}
	.st0{fill:#78DF7C;}
	.st1{fill:#54B668;}
	.st2{fill:#7A63AD;}
	.st3{fill:#866EBA;}
	.st4{fill:#D2E6F3;}
	.st5{fill:#C1DDEE;}
	.st6{fill:#E0C193;}
	.st7{fill:#DBBA8C;}
	.st8{fill:#7FB8E0;}
	.st9{fill:#8EC0E0;}
	.st10{fill:#71B1E1;}
	.st11{fill:#9FC9E4;}
	.st12{fill:#FFEAA7;}
	.st13{fill:#FF6B8B;}
	.st14{fill:#F4A984;}
	.st15{fill:#EA9C7A;}
	.st16{fill:#FEF1C6;}
	.st17{fill:#E85160;}
	.st18{fill:#D84459;}
	.st19{fill:#E55D53;}
	.st20{fill:#FFD400;}
	.st21{fill:#FF8F00;}
	.st22{fill:#FF4A00;}
	.st23{fill:#F7D684;}
	.st24{fill:#FAE09F;}
	.st25{fill:#FDEBBB;}
	.st26{fill:#FFF3D9;}
	.st27{fill:#9ACC2E;}
	.st28{fill:#AADB3D;}
	.st29{fill:#A2D336;}
	.st30{fill:#93C427;}
	.st31{fill:#F79654;}
	.st32{fill:#FCA15E;}
	.st33{fill:#A9E260;}
	.st34{fill:#97DB4A;}
	.st35{fill:#B1E346;}
	.st36{fill:#FCD8DE;}
	.st37{fill:#CDA073;}
	.st38{fill:#C09265;}
	.st39{fill:#A7794C;}
	.st40{fill:#96643B;}
	.st41{fill:#845331;}
	.st42{fill:#B38658;}
	.st43{fill:#9E6E43;}
	.st44{fill:#8D5B36;}
	.st45{fill:#FBCFD6;}
	.st46{fill:#FAC4D1;}
	.st47{fill:#FAB8CD;}
	.st48{fill:#F9ADC8;}
	.st49{fill:#F8A1C4;}
	.st50{fill:#F297BE;}
	.st51{fill:#EA8BB4;}
	.st52{fill:#E8BA36;}
	.st53{fill:#E0B12E;}
	.st54{fill:#FFC172;}
	.st55{fill:#FFAD68;}
	.st56{fill:#FFB76D;}
	.st57{fill:#6E57A0;}
	.st58{fill:#675099;}
	.st59{fill:#F3586F;}
	.st60{fill:#604893;}
	.st61{fill:#CBEB6B;}
	.st62{fill:#4EAC5D;}
	.st63{fill:#BEE758;}
	.st64{fill:#6CD275;}
	.st65{fill:#48A353;}
	.st66{fill:#60C46F;}
	.st67{fill:#D9F07D;}
	.st68{fill:#E6F490;}
	.st69{fill:#4896C8;}
	.st70{fill:#4390BF;}
	.st71{fill:#5CA3D5;}
	.st72{fill:#529CCF;}
	.st73{fill:#F7C845;}
	.st74{fill:#ECCD50;}
	.st75{fill:#FF8D6E;}
	.st76{fill:#FF805D;}
	.st77{fill:#EDEEEE;}
	.st78{fill:#65A9DC;}
	.st79{fill:#8BC07A;}
	.st80{fill:#F0C13E;}
	.st81{fill:#9A3644;}
	.st82{fill:#8A323F;}
	.st83{fill:#945BA0;}
	.st84{fill:#A366AD;}
	.st85{fill:#B370B9;}
	.st86{fill:#C27BC6;}
	.st87{fill:#F6B392;}
	.st88{fill:#D285D2;}
	.st89{fill:#DBA728;}
	.st90{fill:#505957;}
	.st91{fill:#56C7CD;}
	.st92{fill:#434C4B;}
	.st93{fill:#687271;}
	.st94{fill:#5C6664;}
	.st95{fill:#51BAC5;}
	.st96{fill:#D64F45;}
	.st97{fill:#D1D4D4;}
	.st98{fill:#E3E5E5;}
	.st99{fill:#DADDDC;}
	.st100{fill:#845194;}
	.st101{fill:#5BD3D5;}
	.st102{fill:#46B080;}
	.st103{fill:#53BF8C;}
	.st104{fill:#6EDCA2;}
	.st105{fill:#7AEBAC;}
	.st106{fill:#60CD96;}
	.st107{fill:#E8803A;}
	.st108{fill:#0A6F8E;}
	.st109{fill:#0F769B;}
	.st110{fill:#EF8C48;}
	.st111{fill:#838C8A;}
	.st112{fill:#757F7E;}
	.st113{fill:#D1473D;}
	.st114{fill:#FFE28A;}
	.st115{fill:#9179C6;}
	.st116{fill:#906DBB;}
	.st117{fill:#A78EDD;}
	.st118{fill:#9D85D3;}
	.st119{fill:#E2EFF7;}
	.st120{fill:#B0D3EA;}
	.st121{fill:#F7BC48;}
	.st122{fill:#FFC550;}
	.st123{fill:#FFCF6E;}
	.st124{fill:#4CAEBC;}
	.st125{fill:#47A1B4;}
	.st126{fill:#4295AC;}
	.st127{fill:#FDE2E6;}
	.st128{fill:#FFF5D8;}
	.st129{fill:#99533D;}
	.st130{fill:#914C39;}
	.st131{fill:#D4C9EF;}
	.st132{fill:#E3DBF4;}
	.st133{fill:#F1EDFA;}
	.st134{fill:#C6B7E9;}
	.st135{fill:#B8A5E4;}
	.st136{fill:#F0C877;}
	.st137{fill:#E8BA67;}
	.st138{fill:#DDAA5F;}
	.st139{fill:#D4994F;}
	.st140{fill:#C98B44;}
	.st141{fill:#BF7D3C;}
	.st142{fill:#909997;}
	.st143{fill:#724D31;}
	.st144{fill:#93C2CA;}
	.st145{fill:#99C7CE;}
	.st146{fill:#9FCCD3;}
	.st147{fill:#ACD7DD;}
	.st148{fill:#B9E2E7;}
	.st149{fill:#A5D1D8;}
	.st150{fill:#88B9C3;}
	.st151{fill:#7EB1BD;}
	.st152{fill:#C8CCCB;}
	.st153{fill:none;}
	.st154{fill:#F9BDA0;}
	.st155{fill:#E7685F;}
	.st156{fill:#C84054;}
	.st157{fill:#ABB2B1;}
	.st158{fill:#9DA5A4;}
	.st159{fill:#FFD96C;}
	.st160{fill:#FFD04D;}
	.st161{fill:#F74000;}
	.st162{fill:#F97C00;}
	.st163{fill:#F9C900;}
	.st164{fill:#EFD4A7;}
	.st165{fill:#EACEA1;}
	.st166{fill:#FCE8CC;}
	.st167{fill:#F5DEB9;}
	.st168{fill:#CFAB81;}
	.st169{fill:#D5B387;}
	.st170{fill:#3A4274;}
	.st171{fill:#707EB7;}
	.st172{fill:#424B7E;}
	.st173{fill:#7C8AC4;}
	.st174{fill:#FFD98D;}
	.st175{fill:#8694D1;}
	.st176{fill:#9AA6D6;}
	.st177{fill:#ABB4DD;}
	.st178{fill:#FDECEF;}
	.st179{fill:#137FA0;}
	.st180{fill:#EB6B48;}
	.st181{fill:#F57552;}
	.st182{fill:#515E91;}
	.st183{fill:#5C699E;}
	.st184{fill:#6673AA;}
	.st185{fill:#504484;}
	.st186{fill:#FF5F7E;}
	.st187{fill:#EBCEEB;}
	.st188{fill:#E5BDE5;}
	.st189{fill:#E0ABDF;}
	.st190{fill:#D799D6;}
	.st191{fill:#3B8FA3;}
	.st192{fill:#348B99;}
	.st193{fill:#F7F7F7;}
	.st194{fill:#3AA176;}
	.st195{fill:#84ED82;}
	.st196{fill:#EFEAEA;}
	.st197{fill:#FF9A7E;}
	.st198{fill:#FCD2BE;}
	.st199{fill:#FCDDCF;}
	.st200{fill:#C683C8;}
	.st201{fill:#A55F49;}
	.st202{fill:#FEF5F7;}
</style>
<g>
	<path class="lemon_06" d="M29.686,13.552c-1.276-1.22-3.177-2.327-5.892-2.513c-0.01-0.617,0.027-1.237,0.119-1.852
		c0.135-0.908,0.118-1.867-0.081-2.849c-0.625-3.095-3.129-5.58-6.229-6.181C17.059,0.05,16.525,0.011,16,0.011v29.973
		c5.521-0.002,10-4.463,10-9.985c0-1.227-0.227-2.399-0.632-3.483c1.106,0.563,1.986,1.545,2.398,2.78l0.12,0.361
		C27.954,19.862,28.145,20,28.36,20h0.14c0.276,0,0.5-0.224,0.5-0.5v-1l0.386,1.158C29.454,19.862,29.645,20,29.86,20H30
		c0.276,0,0.5-0.224,0.5-0.5v-1l0.386,1.158C30.954,19.862,31.145,20,31.36,20h0.14c0.276,0,0.5-0.224,0.5-0.5v-0.277
		C32,17.102,31.219,15.016,29.686,13.552z"/>
	<path class="lemon_06" d="M24,30h1.5c0.828,0,1.5,0.672,1.5,1.5c0,0.276-0.224,0.5-0.5,0.5h-6c-0.276,0-0.5-0.224-0.5-0.5V30H24z"
		/>
	<path class="lemon_05" d="M14.397,0.156c-3.1,0.602-5.604,3.086-6.229,6.181C7.97,7.319,7.952,8.278,8.088,9.186
		c0.092,0.615,0.128,1.235,0.119,1.852c-2.715,0.186-4.616,1.294-5.892,2.513C0.781,15.016,0,17.102,0,19.223V19.5
		C0,19.776,0.224,20,0.5,20h0.14c0.215,0,0.406-0.138,0.474-0.342L1.5,18.5v1C1.5,19.776,1.724,20,2,20h0.14
		c0.215,0,0.406-0.138,0.474-0.342L3,18.5v1C3,19.776,3.224,20,3.5,20h0.14c0.215,0,0.406-0.138,0.474-0.342l0.12-0.361
		c0.412-1.235,1.292-2.217,2.398-2.78C6.227,17.601,6,18.773,6,20c0,5.522,4.479,9.983,10,9.985V0.011
		C15.475,0.011,14.941,0.05,14.397,0.156z"/>
	<path class="lemon_05" d="M8,30H6.5C5.672,30,5,30.672,5,31.5C5,31.776,5.224,32,5.5,32h6c0.276,0,0.5-0.224,0.5-0.5V30H8z"/>
	<path class="lemon_04" d="M15.763,0.016c-0.171,0.004-0.341,0.008-0.514,0.023c-0.282,0.026-0.566,0.061-0.853,0.116
		c-1.282,0.249-2.451,0.833-3.438,1.636l-3.052-0.61c-0.389-0.078-0.71,0.307-0.562,0.676l1.248,3.121
		c-0.178,0.438-0.329,0.889-0.425,1.36C7.979,7.266,7.958,8.172,8.07,9.036c0.72,0.814,1.811,1.574,2.782,2.009
		c1.584,0.71,2.677,0.201,2.893,1.923l0.145,1.156c0.063,0.5,0.488,0.876,0.992,0.876h1.117V0.011
		C15.92,0.011,15.841,0.014,15.763,0.016z"/>
	<path class="lemon_05" d="M24.095,1.181l-3.054,0.611c-0.987-0.803-2.156-1.387-3.438-1.636C17.316,0.1,17.032,0.065,16.75,0.039
		c-0.173-0.015-0.343-0.019-0.514-0.023C16.157,0.014,16.078,0.011,16,0.011V15h1.117c0.504,0,0.93-0.376,0.992-0.876l0.145-1.156
		c0.215-1.722,1.309-1.214,2.893-1.923c0.97-0.435,2.062-1.195,2.782-2.009c0.112-0.864,0.091-1.77-0.096-2.699
		c-0.095-0.47-0.246-0.92-0.424-1.358l1.249-3.122C24.805,1.488,24.484,1.103,24.095,1.181z"/>
	<g>
		<path class="white" d="M12.682,7.85l-2.416-0.647c-0.148-0.04-0.232-0.205-0.165-0.342c0.313-0.646,1.049-1,1.768-0.808
			c0.719,0.193,1.18,0.868,1.127,1.584C12.985,7.789,12.83,7.89,12.682,7.85z"/>
		<path class="grey_16" d="M12.18,7.384V6.176c-0.097-0.051-0.201-0.094-0.311-0.123c-0.066-0.018-0.132-0.023-0.197-0.032v1.364
			c0,0.115,0.077,0.215,0.188,0.245l0.001,0C12.022,7.673,12.18,7.551,12.18,7.384z"/>
	</g>
	<g>
		<path class="grey_01" d="M19.318,7.85l2.416-0.647c0.148-0.04,0.232-0.205,0.165-0.342c-0.313-0.646-1.049-1-1.768-0.808
			c-0.719,0.193-1.18,0.868-1.127,1.584C19.015,7.789,19.17,7.89,19.318,7.85z"/>
		<path class="grey_17" d="M19.82,7.384V6.176c0.097-0.051,0.201-0.094,0.311-0.123c0.066-0.018,0.132-0.023,0.197-0.032v1.364
			c0,0.115-0.077,0.215-0.188,0.245l-0.001,0C19.978,7.673,19.82,7.551,19.82,7.384z"/>
	</g>
	<path class="dirt_19" d="M8.878,4.348c0.321-0.626,0.727-1.199,1.197-1.718L8.478,2.307C8.283,2.268,8.122,2.46,8.196,2.645
		L8.878,4.348z"/>
	<path class="dirt_20" d="M23.123,4.353l0.684-1.708c0.074-0.185-0.087-0.377-0.282-0.338l-1.6,0.324
		C22.396,3.151,22.802,3.725,23.123,4.353z"/>
	<path class="dirt_20" d="M20,30h4c0,0,3,0,3-5c0-1.766-0.502-2.774-1.148-3.351c0.038-0.23,0.077-0.46,0.099-0.695
		C25.467,20.47,24.969,20,24,20c-2,0-2,2-4,2s-2-2-4-2v9.985c1.424,0,2.774-0.307,4-0.842V30z"/>
	<path class="dirt_19" d="M12,22c-2,0-2-2-4-2c-0.969,0-1.467,0.47-1.952,0.954c0.022,0.235,0.061,0.465,0.099,0.695
		C5.502,22.226,5,23.234,5,25c0,4.299,2.213,4.9,2.835,4.985H12v-0.842c1.226,0.536,2.576,0.842,4,0.842V20C14,20,14,22,12,22z"/>
</g>
</svg>
