<?xml version="1.0" encoding="utf-8"?>
<!-- Generator: Adobe Illustrator 20.1.0, SVG Export Plug-In . SVG Version: 6.00 Build 0)  -->
<!DOCTYPE svg PUBLIC "-//W3C//DTD SVG 1.1//EN" "http://www.w3.org/Graphics/SVG/1.1/DTD/svg11.dtd">
<svg version="1.1" id="icons" xmlns="http://www.w3.org/2000/svg" xmlns:xlink="http://www.w3.org/1999/xlink" x="0px" y="0px"
	 width="32px" height="32px" viewBox="0 0 32 32" style="enable-background:new 0 0 32 32;" xml:space="preserve">
<style type="text/css">
	.white{fill:#FFFFFF;}
	.grey_01{fill:#F7F7F7;}
	.grey_02{fill:#EDEEEE;}
	.grey_05{fill:#D1D4D4;}
	.grey_16{fill:#373F3F;}
	.grey_17{fill:#2B3332;}
	.lemon_04{fill:#FFE28A;}
	.lemon_05{fill:#FFD96C;}
	.lemon_06{fill:#FFD04D;}
	.lemon_07{fill:#F7C845;}
	.dirt_19{fill:#604631;}
	.dirt_20{fill:#4F4032;}
	.st0{fill:#78DF7C;}
	.st1{fill:#54B668;}
	.st2{fill:#7A63AD;}
	.st3{fill:#866EBA;}
	.st4{fill:#D2E6F3;}
	.st5{fill:#C1DDEE;}
	.st6{fill:#E0C193;}
	.st7{fill:#DBBA8C;}
	.st8{fill:#7FB8E0;}
	.st9{fill:#8EC0E0;}
	.st10{fill:#71B1E1;}
	.st11{fill:#9FC9E4;}
	.st12{fill:#FFEAA7;}
	.st13{fill:#FF6B8B;}
	.st14{fill:#F4A984;}
	.st15{fill:#EA9C7A;}
	.st16{fill:#FEF1C6;}
	.st17{fill:#E85160;}
	.st18{fill:#D84459;}
	.st19{fill:#E55D53;}
	.st20{fill:#FFD400;}
	.st21{fill:#FF8F00;}
	.st22{fill:#FF4A00;}
	.st23{fill:#F7D684;}
	.st24{fill:#FAE09F;}
	.st25{fill:#FDEBBB;}
	.st26{fill:#FFF3D9;}
	.st27{fill:#9ACC2E;}
	.st28{fill:#AADB3D;}
	.st29{fill:#A2D336;}
	.st30{fill:#93C427;}
	.st31{fill:#F79654;}
	.st32{fill:#FCA15E;}
	.st33{fill:#A9E260;}
	.st34{fill:#97DB4A;}
	.st35{fill:#B1E346;}
	.st36{fill:#FCD8DE;}
	.st37{fill:#CDA073;}
	.st38{fill:#C09265;}
	.st39{fill:#A7794C;}
	.st40{fill:#96643B;}
	.st41{fill:#845331;}
	.st42{fill:#B38658;}
	.st43{fill:#9E6E43;}
	.st44{fill:#8D5B36;}
	.st45{fill:#FBCFD6;}
	.st46{fill:#FAC4D1;}
	.st47{fill:#FAB8CD;}
	.st48{fill:#F9ADC8;}
	.st49{fill:#F8A1C4;}
	.st50{fill:#F297BE;}
	.st51{fill:#EA8BB4;}
	.st52{fill:#E8BA36;}
	.st53{fill:#E0B12E;}
	.st54{fill:#FFC172;}
	.st55{fill:#FFAD68;}
	.st56{fill:#FFB76D;}
	.st57{fill:#6E57A0;}
	.st58{fill:#675099;}
	.st59{fill:#F3586F;}
	.st60{fill:#604893;}
	.st61{fill:#CBEB6B;}
	.st62{fill:#4EAC5D;}
	.st63{fill:#BEE758;}
	.st64{fill:#6CD275;}
	.st65{fill:#48A353;}
	.st66{fill:#60C46F;}
	.st67{fill:#D9F07D;}
	.st68{fill:#E6F490;}
	.st69{fill:#4896C8;}
	.st70{fill:#4390BF;}
	.st71{fill:#5CA3D5;}
	.st72{fill:#529CCF;}
	.st73{fill:#ECCD50;}
	.st74{fill:#FF8D6E;}
	.st75{fill:#FF805D;}
	.st76{fill:#65A9DC;}
	.st77{fill:#8BC07A;}
	.st78{fill:#F0C13E;}
	.st79{fill:#9A3644;}
	.st80{fill:#8A323F;}
	.st81{fill:#945BA0;}
	.st82{fill:#A366AD;}
	.st83{fill:#B370B9;}
	.st84{fill:#C27BC6;}
	.st85{fill:#F6B392;}
	.st86{fill:#D285D2;}
	.st87{fill:#DBA728;}
	.st88{fill:#505957;}
	.st89{fill:#56C7CD;}
	.st90{fill:#434C4B;}
	.st91{fill:#687271;}
	.st92{fill:#5C6664;}
	.st93{fill:#51BAC5;}
	.st94{fill:#D64F45;}
	.st95{fill:#E3E5E5;}
	.st96{fill:#DADDDC;}
	.st97{fill:#845194;}
	.st98{fill:#5BD3D5;}
	.st99{fill:#46B080;}
	.st100{fill:#53BF8C;}
	.st101{fill:#6EDCA2;}
	.st102{fill:#7AEBAC;}
	.st103{fill:#60CD96;}
	.st104{fill:#E8803A;}
	.st105{fill:#0A6F8E;}
	.st106{fill:#0F769B;}
	.st107{fill:#EF8C48;}
	.st108{fill:#838C8A;}
	.st109{fill:#757F7E;}
	.st110{fill:#D1473D;}
	.st111{fill:#FFE28A;}
	.st112{fill:#9179C6;}
	.st113{fill:#906DBB;}
	.st114{fill:#A78EDD;}
	.st115{fill:#9D85D3;}
	.st116{fill:#E2EFF7;}
	.st117{fill:#B0D3EA;}
	.st118{fill:#F7BC48;}
	.st119{fill:#FFC550;}
	.st120{fill:#FFCF6E;}
	.st121{fill:#4CAEBC;}
	.st122{fill:#47A1B4;}
	.st123{fill:#4295AC;}
	.st124{fill:#FDE2E6;}
	.st125{fill:#FFF5D8;}
	.st126{fill:#99533D;}
	.st127{fill:#914C39;}
	.st128{fill:#D4C9EF;}
	.st129{fill:#E3DBF4;}
	.st130{fill:#F1EDFA;}
	.st131{fill:#C6B7E9;}
	.st132{fill:#B8A5E4;}
	.st133{fill:#F0C877;}
	.st134{fill:#E8BA67;}
	.st135{fill:#DDAA5F;}
	.st136{fill:#D4994F;}
	.st137{fill:#C98B44;}
	.st138{fill:#BF7D3C;}
	.st139{fill:#909997;}
	.st140{fill:#724D31;}
	.st141{fill:#93C2CA;}
	.st142{fill:#99C7CE;}
	.st143{fill:#9FCCD3;}
	.st144{fill:#ACD7DD;}
	.st145{fill:#B9E2E7;}
	.st146{fill:#A5D1D8;}
	.st147{fill:#88B9C3;}
	.st148{fill:#7EB1BD;}
	.st149{fill:#C8CCCB;}
	.st150{fill:none;}
	.st151{fill:#F9BDA0;}
	.st152{fill:#E7685F;}
	.st153{fill:#C84054;}
	.st154{fill:#ABB2B1;}
	.st155{fill:#9DA5A4;}
	.st156{fill:#FFD96C;}
	.st157{fill:#FFD04D;}
	.st158{fill:#F74000;}
	.st159{fill:#F97C00;}
	.st160{fill:#F9C900;}
	.st161{fill:#EFD4A7;}
	.st162{fill:#EACEA1;}
	.st163{fill:#FCE8CC;}
	.st164{fill:#F5DEB9;}
	.st165{fill:#CFAB81;}
	.st166{fill:#D5B387;}
	.st167{fill:#3A4274;}
	.st168{fill:#707EB7;}
	.st169{fill:#424B7E;}
	.st170{fill:#7C8AC4;}
	.st171{fill:#FFD98D;}
	.st172{fill:#8694D1;}
	.st173{fill:#9AA6D6;}
	.st174{fill:#ABB4DD;}
	.st175{fill:#FDECEF;}
	.st176{fill:#137FA0;}
	.st177{fill:#EB6B48;}
	.st178{fill:#F57552;}
	.st179{fill:#515E91;}
	.st180{fill:#5C699E;}
	.st181{fill:#6673AA;}
	.st182{fill:#504484;}
	.st183{fill:#FF5F7E;}
	.st184{fill:#EBCEEB;}
	.st185{fill:#E5BDE5;}
	.st186{fill:#E0ABDF;}
	.st187{fill:#D799D6;}
	.st188{fill:#3B8FA3;}
	.st189{fill:#348B99;}
	.st190{fill:#F7F7F7;}
	.st191{fill:#3AA176;}
	.st192{fill:#84ED82;}
	.st193{fill:#EFEAEA;}
	.st194{fill:#FF9A7E;}
	.st195{fill:#FCD2BE;}
	.st196{fill:#FCDDCF;}
	.st197{fill:#C683C8;}
	.st198{fill:#A55F49;}
	.st199{fill:#FEF5F7;}
</style>
<g>
	<path class="lemon_07" d="M24.894,29.447L24,29l-0.328-1.313c-0.44-1.758-1.349-3.364-2.63-4.646L20.17,22.17
		C20.719,21.005,21,19.565,21,18c0-3.866-1.686-7-5-7l-0.001,0v14L16,25c0.503,0,0.964-0.08,1.392-0.216l1.397,2.794
		C18.928,27.855,19,28.162,19,28.472V31.5c0,0.276,0.224,0.5,0.5,0.5h6c0.276,0,0.5-0.224,0.5-0.5v-0.264
		C26,30.479,25.572,29.786,24.894,29.447z"/>
	<path class="lemon_06" d="M15.999,11C12.686,11.001,11,14.134,11,18c0,1.565,0.281,3.005,0.83,4.17l-0.871,0.871
		c-1.282,1.282-2.191,2.887-2.63,4.646L8,29l-0.894,0.447C6.428,29.786,6,30.479,6,31.236V31.5C6,31.776,6.224,32,6.5,32h6
		c0.276,0,0.5-0.224,0.5-0.5v-3.028c0-0.31,0.072-0.617,0.211-0.894l1.397-2.794C15.036,24.92,15.496,25,15.999,25V11z"/>
	<path class="grey_05" d="M29.5,20c-1.381,0-2.5,1.119-2.5,2.5c0,1.381,1.119,2.5,2.5,2.5s2.5-1.119,2.5-2.5
		C32,21.119,30.881,20,29.5,20z M29.5,23.5c-0.552,0-1-0.448-1-1c0-0.552,0.448-1,1-1s1,0.448,1,1
		C30.5,23.052,30.052,23.5,29.5,23.5z"/>
	<path class="dirt_20" d="M29.5,22c-0.276,0-0.5-0.224-0.5-0.5v-6.208c0-0.276,0.224-0.5,0.5-0.5s0.5,0.224,0.5,0.5V21.5
		C30,21.776,29.776,22,29.5,22z"/>
	<path class="lemon_07" d="M21,13l3.434,2.575c0.339,0.254,0.802,0.267,1.155,0.032l2.189-1.459C27.916,14.056,28,13.9,28,13.732
		v-1.115C28,12.276,28.276,12,28.618,12h0.001c0.234,0,0.448,0.132,0.552,0.341L30,14h1v3l-5.127,1.709
		c-0.554,0.185-1.161,0.118-1.661-0.182L20,16L21,13z"/>
	<path class="lemon_06" d="M32,15.75c0-0.414-0.336-0.75-0.75-0.75c0.414,0,0.75-0.336,0.75-0.75c0-0.414-0.336-0.75-0.75-0.75h-2
		c-0.414,0-0.75,0.336-0.75,0.75c0,0.414,0.336,0.75,0.75,0.75c-0.414,0-0.75,0.336-0.75,0.75c0,0.414,0.336,0.75,0.75,0.75
		c-0.414,0-0.75,0.336-0.75,0.75c0,0.414,0.336,0.75,0.75,0.75h2c0.414,0,0.75-0.336,0.75-0.75c0-0.414-0.336-0.75-0.75-0.75
		C31.664,16.5,32,16.164,32,15.75z"/>
	<path class="lemon_06" d="M11,13l-3.434,2.575c-0.339,0.254-0.802,0.267-1.155,0.032l-2.189-1.459C4.084,14.056,4,13.9,4,13.732
		v-1.115C4,12.276,3.724,12,3.382,12H3.382c-0.234,0-0.448,0.132-0.552,0.341L2,14H1v3l5.127,1.709
		c0.554,0.185,1.161,0.118,1.661-0.182L12,16L11,13z"/>
	<path class="grey_02" d="M19.999,10c0,0,2,1,3,4c0,0,0,2-2,2c0,0,0,2-2,2c0,0-1,1-3,1v-8L19.999,10z"/>
	<path class="grey_01" d="M12,10c0,0-2,1-3,4c0,0,0,2,2,2c0,0,0,2,2,2c0,0,1,1,3,1v-8L12,10z"/>
	<path class="st156" d="M14.912,3.559l-2.97-2.97c-0.337-0.337-0.909-0.057-0.85,0.416l0.819,6.554L14.912,3.559z"/>
	<path class="st157" d="M17,3.559l2.97-2.97c0.337-0.337,0.909-0.057,0.85,0.416L20,7.559L17,3.559z"/>
	<path class="lemon_05" d="M16,3c-3.314,0-5,1.686-5,5s1.686,5,5,5V3z"/>
	<path class="lemon_06" d="M21,8c0-3.314-1.686-5-5-5v10C19.314,13,21,11.314,21,8z"/>
	<path class="lemon_04" d="M16,8.154c-0.252,0-0.504,0.048-0.743,0.143l-0.5,0.2C13.998,8.801,13.5,9.536,13.5,10.354
		c0,1.076,0.302,2.13,0.872,3.042l0.78,1.247c0.196,0.313,0.522,0.47,0.848,0.47V8.154z"/>
	<path class="lemon_05" d="M16.848,14.643l0.78-1.247c0.57-0.912,0.872-1.966,0.872-3.042c0-0.818-0.498-1.553-1.257-1.857l-0.5-0.2
		C16.504,8.202,16.252,8.154,16,8.154v6.959C16.326,15.113,16.652,14.956,16.848,14.643z"/>
	<path class="white" d="M13.676,8.482l-2.03-0.841c-0.182-0.075-0.195-0.326-0.023-0.422c0.322-0.178,0.833-0.341,1.426-0.092
		c0.591,0.247,0.838,0.72,0.941,1.072C14.046,8.388,13.858,8.557,13.676,8.482z"/>
	<path class="grey_01" d="M18.324,8.482l2.03-0.841c0.182-0.075,0.195-0.326,0.023-0.422c-0.322-0.178-0.833-0.341-1.426-0.092
		c-0.591,0.247-0.838,0.72-0.941,1.072C17.954,8.388,18.142,8.557,18.324,8.482z"/>
	<path class="grey_16" d="M13.049,7.127c-0.194-0.081-0.375-0.108-0.548-0.115C12.505,7.558,12.726,8,13,8
		c0.209,0,0.387-0.256,0.462-0.62C13.346,7.284,13.214,7.196,13.049,7.127z"/>
	<path class="grey_17" d="M18.951,7.127c0.194-0.081,0.375-0.108,0.548-0.115C19.495,7.558,19.274,8,19,8
		c-0.209,0-0.387-0.256-0.462-0.62C18.654,7.284,18.786,7.196,18.951,7.127z"/>
	<path class="lemon_05" d="M3.5,15.75C3.5,15.336,3.164,15,2.75,15c0.414,0,0.75-0.336,0.75-0.75c0-0.414-0.336-0.75-0.75-0.75h-2
		C0.336,13.5,0,13.836,0,14.25C0,14.664,0.336,15,0.75,15C0.336,15,0,15.336,0,15.75c0,0.414,0.336,0.75,0.75,0.75
		C0.336,16.5,0,16.836,0,17.25C0,17.664,0.336,18,0.75,18h2c0.414,0,0.75-0.336,0.75-0.75c0-0.414-0.336-0.75-0.75-0.75
		C3.164,16.5,3.5,16.164,3.5,15.75z"/>
</g>
<path class="dirt_19" d="M13.935,3.289l-1.831-1.83C11.936,1.29,11.65,1.43,11.679,1.666l0.359,2.872
	C12.511,3.962,13.137,3.537,13.935,3.289z"/>
<path class="dirt_20" d="M19.885,4.441l0.346-2.774c0.029-0.236-0.257-0.376-0.425-0.208l-1.813,1.813
	C18.779,3.505,19.408,3.897,19.885,4.441z"/>
</svg>
