<?xml version="1.0" encoding="utf-8"?>
<!-- Generator: Adobe Illustrator 20.1.0, SVG Export Plug-In . SVG Version: 6.00 Build 0)  -->
<!DOCTYPE svg PUBLIC "-//W3C//DTD SVG 1.1//EN" "http://www.w3.org/Graphics/SVG/1.1/DTD/svg11.dtd">
<svg version="1.1" id="icons" xmlns="http://www.w3.org/2000/svg" xmlns:xlink="http://www.w3.org/1999/xlink" x="0px" y="0px"
	 width="32px" height="32px" viewBox="0 0 32 32" style="enable-background:new 0 0 32 32;" xml:space="preserve">
<style type="text/css">
	.white{fill:#FFFFFF;}
	.grey_01{fill:#F7F7F7;}
	.grey_16{fill:#373F3F;}
	.grey_17{fill:#2B3332;}
	.tangerine_04{fill:#FCA15E;}
	.tangerine_05{fill:#F79654;}
	.tangerine_06{fill:#EF8C48;}
	.tangerine_07{fill:#E8803A;}
	.sand_03{fill:#FAE09F;}
	.sand_04{fill:#F7D684;}
	.sand_05{fill:#F0C877;}
	.st0{fill:#78DF7C;}
	.st1{fill:#54B668;}
	.st2{fill:#7A63AD;}
	.st3{fill:#866EBA;}
	.st4{fill:#D2E6F3;}
	.st5{fill:#C1DDEE;}
	.st6{fill:#E0C193;}
	.st7{fill:#DBBA8C;}
	.st8{fill:#7FB8E0;}
	.st9{fill:#8EC0E0;}
	.st10{fill:#71B1E1;}
	.st11{fill:#9FC9E4;}
	.st12{fill:#FFEAA7;}
	.st13{fill:#FFE28A;}
	.st14{fill:#FF6B8B;}
	.st15{fill:#F4A984;}
	.st16{fill:#EA9C7A;}
	.st17{fill:#FEF1C6;}
	.st18{fill:#E85160;}
	.st19{fill:#D84459;}
	.st20{fill:#E55D53;}
	.st21{fill:#FFD400;}
	.st22{fill:#FF8F00;}
	.st23{fill:#FF4A00;}
	.st24{fill:#FDEBBB;}
	.st25{fill:#FFF3D9;}
	.st26{fill:#FFD96C;}
	.st27{fill:#9ACC2E;}
	.st28{fill:#AADB3D;}
	.st29{fill:#A2D336;}
	.st30{fill:#93C427;}
	.st31{fill:#FFD04D;}
	.st32{fill:#A9E260;}
	.st33{fill:#97DB4A;}
	.st34{fill:#B1E346;}
	.st35{fill:#FCD8DE;}
	.st36{fill:#CDA073;}
	.st37{fill:#C09265;}
	.st38{fill:#A7794C;}
	.st39{fill:#96643B;}
	.st40{fill:#845331;}
	.st41{fill:#B38658;}
	.st42{fill:#9E6E43;}
	.st43{fill:#8D5B36;}
	.st44{fill:#FBCFD6;}
	.st45{fill:#FAC4D1;}
	.st46{fill:#FAB8CD;}
	.st47{fill:#F9ADC8;}
	.st48{fill:#F8A1C4;}
	.st49{fill:#F297BE;}
	.st50{fill:#EA8BB4;}
	.st51{fill:#E8BA36;}
	.st52{fill:#E0B12E;}
	.st53{fill:#FFC172;}
	.st54{fill:#FFAD68;}
	.st55{fill:#FFB76D;}
	.st56{fill:#6E57A0;}
	.st57{fill:#675099;}
	.st58{fill:#F3586F;}
	.st59{fill:#604893;}
	.st60{fill:#CBEB6B;}
	.st61{fill:#4EAC5D;}
	.st62{fill:#BEE758;}
	.st63{fill:#6CD275;}
	.st64{fill:#48A353;}
	.st65{fill:#60C46F;}
	.st66{fill:#D9F07D;}
	.st67{fill:#E6F490;}
	.st68{fill:#4896C8;}
	.st69{fill:#4390BF;}
	.st70{fill:#5CA3D5;}
	.st71{fill:#529CCF;}
	.st72{fill:#F7C845;}
	.st73{fill:#ECCD50;}
	.st74{fill:#FF8D6E;}
	.st75{fill:#FF805D;}
	.st76{fill:#EDEEEE;}
	.st77{fill:#65A9DC;}
	.st78{fill:#8BC07A;}
	.st79{fill:#F0C13E;}
	.st80{fill:#9A3644;}
	.st81{fill:#8A323F;}
	.st82{fill:#945BA0;}
	.st83{fill:#A366AD;}
	.st84{fill:#B370B9;}
	.st85{fill:#C27BC6;}
	.st86{fill:#F6B392;}
	.st87{fill:#D285D2;}
	.st88{fill:#FAE09F;}
	.st89{fill:#DBA728;}
	.st90{fill:#505957;}
	.st91{fill:#56C7CD;}
	.st92{fill:#434C4B;}
	.st93{fill:#687271;}
	.st94{fill:#5C6664;}
	.st95{fill:#51BAC5;}
	.st96{fill:#D64F45;}
	.st97{fill:#D1D4D4;}
	.st98{fill:#E3E5E5;}
	.st99{fill:#DADDDC;}
	.st100{fill:#845194;}
	.st101{fill:#5BD3D5;}
	.st102{fill:#46B080;}
	.st103{fill:#53BF8C;}
	.st104{fill:#6EDCA2;}
	.st105{fill:#7AEBAC;}
	.st106{fill:#60CD96;}
	.st107{fill:#0A6F8E;}
	.st108{fill:#0F769B;}
	.st109{fill:#838C8A;}
	.st110{fill:#757F7E;}
	.st111{fill:#D1473D;}
	.st112{fill:#9179C6;}
	.st113{fill:#906DBB;}
	.st114{fill:#A78EDD;}
	.st115{fill:#9D85D3;}
	.st116{fill:#E2EFF7;}
	.st117{fill:#B0D3EA;}
	.st118{fill:#F7BC48;}
	.st119{fill:#FFC550;}
	.st120{fill:#FFCF6E;}
	.st121{fill:#4CAEBC;}
	.st122{fill:#47A1B4;}
	.st123{fill:#4295AC;}
	.st124{fill:#FDE2E6;}
	.st125{fill:#FFF5D8;}
	.st126{fill:#99533D;}
	.st127{fill:#914C39;}
	.st128{fill:#D4C9EF;}
	.st129{fill:#E3DBF4;}
	.st130{fill:#F1EDFA;}
	.st131{fill:#C6B7E9;}
	.st132{fill:#B8A5E4;}
	.st133{fill:#E8BA67;}
	.st134{fill:#DDAA5F;}
	.st135{fill:#D4994F;}
	.st136{fill:#C98B44;}
	.st137{fill:#F7D684;}
	.st138{fill:#BF7D3C;}
	.st139{fill:#909997;}
	.st140{fill:#724D31;}
	.st141{fill:#93C2CA;}
	.st142{fill:#99C7CE;}
	.st143{fill:#9FCCD3;}
	.st144{fill:#ACD7DD;}
	.st145{fill:#B9E2E7;}
	.st146{fill:#A5D1D8;}
	.st147{fill:#88B9C3;}
	.st148{fill:#7EB1BD;}
	.st149{fill:#C8CCCB;}
	.st150{fill:none;}
	.st151{fill:#4F4032;}
	.st152{fill:#604631;}
	.st153{fill:#F9BDA0;}
	.st154{fill:#E7685F;}
	.st155{fill:#C84054;}
	.st156{fill:#ABB2B1;}
	.st157{fill:#9DA5A4;}
	.st158{fill:#F74000;}
	.st159{fill:#F97C00;}
	.st160{fill:#F9C900;}
	.st161{fill:#EFD4A7;}
	.st162{fill:#EACEA1;}
	.st163{fill:#FCE8CC;}
	.st164{fill:#F5DEB9;}
	.st165{fill:#CFAB81;}
	.st166{fill:#D5B387;}
	.st167{fill:#3A4274;}
	.st168{fill:#707EB7;}
	.st169{fill:#424B7E;}
	.st170{fill:#7C8AC4;}
	.st171{fill:#FFD98D;}
	.st172{fill:#8694D1;}
	.st173{fill:#9AA6D6;}
	.st174{fill:#ABB4DD;}
	.st175{fill:#FDECEF;}
	.st176{fill:#137FA0;}
	.st177{fill:#EB6B48;}
	.st178{fill:#F57552;}
	.st179{fill:#515E91;}
	.st180{fill:#5C699E;}
	.st181{fill:#6673AA;}
	.st182{fill:#504484;}
	.st183{fill:#FF5F7E;}
	.st184{fill:#EBCEEB;}
	.st185{fill:#E5BDE5;}
	.st186{fill:#E0ABDF;}
	.st187{fill:#D799D6;}
	.st188{fill:#3B8FA3;}
	.st189{fill:#348B99;}
	.st190{fill:#F7F7F7;}
	.st191{fill:#3AA176;}
	.st192{fill:#84ED82;}
	.st193{fill:#EFEAEA;}
	.st194{fill:#FF9A7E;}
	.st195{fill:#FCD2BE;}
	.st196{fill:#FCDDCF;}
	.st197{fill:#C683C8;}
	.st198{fill:#A55F49;}
	.st199{fill:#FEF5F7;}
</style>
<g>
	<path class="sand_03" d="M4,17v1.246c0,0.667,0.448,1.26,1.088,1.441l3.578,1.019l0.275-0.961l-3.579-1.02
		C5.149,18.665,5,18.468,5,18.246V17c0.552,0,1-0.448,1-1v-1H3v1C3,16.552,3.448,17,4,17z"/>
	<path class="sand_05" d="M27.5,27h-1.087c-0.781,0-1.423-0.586-1.494-1.364l-0.312-3.428c-0.014-0.147-0.087-0.276-0.208-0.362
		c-0.12-0.086-0.269-0.113-0.411-0.077l-2.867,0.717c-0.267,0.063-0.54-0.096-0.606-0.364c-0.066-0.268,0.096-0.539,0.364-0.606
		l2.867-0.717c0.425-0.103,0.876-0.021,1.232,0.232c0.357,0.255,0.585,0.65,0.625,1.088l0.312,3.428
		C25.938,25.801,26.157,26,26.413,26H27.5c0.276,0,0.5,0.224,0.5,0.5S27.776,27,27.5,27z"/>
	<path class="sand_04" d="M5.587,27H4.5C4.224,27,4,26.776,4,26.5S4.224,26,4.5,26h1.087c0.256,0,0.475-0.199,0.498-0.454
		l0.312-3.428c0.04-0.438,0.268-0.833,0.625-1.088c0.359-0.254,0.81-0.336,1.232-0.232l2.867,0.717
		c0.269,0.067,0.431,0.339,0.364,0.606c-0.067,0.269-0.335,0.429-0.606,0.364l-2.867-0.717c-0.143-0.038-0.289-0.01-0.411,0.077
		c-0.121,0.086-0.194,0.215-0.208,0.362l-0.312,3.428C7.01,26.414,6.368,27,5.587,27z"/>
	<path class="sand_04" d="M26,15v1c0,0.552,0.448,1,1,1v1.246c0,0.222-0.149,0.419-0.362,0.479l-3.579,1.02l0.275,0.961l3.578-1.019
		C27.552,19.506,28,18.913,28,18.246V17c0.552,0,1-0.448,1-1v-1H26z"/>
	<path class="tangerine_07" d="M23.258,18.426l-0.001-0.002c-0.5-1.062-1.441-1.85-2.574-2.156l-0.244-0.066
		c-0.522-0.141-1.051-0.248-1.582-0.338l-0.362-2.894c-0.073-0.584-0.919-0.584-0.992,0l-0.336,2.688
		c-0.417-0.028-0.835-0.045-1.253-0.043V25H16h3.292c1.636,0,3.106-0.996,3.714-2.514l0.348-0.87
		C23.766,20.585,23.731,19.43,23.258,18.426z"/>
	<path class="tangerine_06" d="M14.829,15.63l-0.333-2.661c-0.073-0.584-0.919-0.584-0.992,0l-0.355,2.839
		c-0.427,0.086-0.909,0.209-1.588,0.392l-0.244,0.066c-1.133,0.306-2.074,1.095-2.574,2.156l-0.001,0.002
		c-0.473,1.004-0.508,2.16-0.095,3.19l0.348,0.87C9.602,24.004,11.073,25,12.708,25h3.207v-9.386
		C15.484,15.616,15.139,15.621,14.829,15.63z"/>
	<path class="white" d="M13.909,19.588C13.74,19.73,13.322,19.992,12.538,20C11.707,20.008,11,19.328,11,18.498
		c0-1.103,0.396-1.498,1.5-1.498c1.313,0,1.477,1.914,1.497,2.393C14,19.471,13.969,19.538,13.909,19.588z"/>
	<path class="grey_01" d="M18.091,19.588c0.169,0.141,0.587,0.403,1.371,0.412C20.293,20.008,21,19.328,21,18.498
		c0-1.103-0.396-1.498-1.5-1.498c-1.313,0-1.477,1.914-1.497,2.393C18,19.471,18.031,19.538,18.091,19.588z"/>
	<circle class="grey_16" cx="12.5" cy="18.5" r="0.5"/>
	<circle class="grey_17" cx="19.5" cy="18.5" r="0.5"/>
	<path class="sand_04" d="M31.5,28h-1.204c-0.234,0-0.435-0.159-0.487-0.388l-1.093-4.731c-0.091-0.396-0.331-0.73-0.677-0.942
		s-0.752-0.275-1.148-0.177l-4.023,1.006c0.046-0.094,0.099-0.184,0.138-0.282l0.053-0.132c-0.357-0.223-0.731-0.405-1.114-0.561
		l-0.197-1.573c-0.036-0.292-0.46-0.292-0.496,0l-0.16,1.28c-1.248-0.339-2.571-0.346-3.832,0.012
		c-0.443,0.126-0.894,0.179-1.345,0.171V25H16h3.292c0.966,0,1.869-0.354,2.576-0.951l5.265-1.316
		c0.131-0.036,0.268-0.013,0.383,0.059c0.115,0.07,0.195,0.182,0.226,0.313l1.093,4.732C28.991,28.521,29.593,29,30.296,29H31.5
		c0.276,0,0.5-0.224,0.5-0.5S31.776,28,31.5,28z"/>
	<path class="sand_03" d="M14.74,21.511c-1.261-0.358-2.583-0.351-3.832-0.012l-0.16-1.28c-0.036-0.292-0.46-0.292-0.496,0
		l-0.197,1.573c-0.383,0.157-0.757,0.339-1.114,0.561l0.053,0.132c0.039,0.098,0.092,0.188,0.138,0.282l-4.023-1.006
		c-0.396-0.099-0.803-0.035-1.148,0.177s-0.586,0.547-0.677,0.941l-1.093,4.732C2.139,27.841,1.938,28,1.704,28H0.5
		C0.224,28,0,28.224,0,28.5S0.224,29,0.5,29h1.204c0.703,0,1.305-0.479,1.462-1.163l1.093-4.733c0.03-0.131,0.11-0.242,0.226-0.312
		s0.25-0.094,0.383-0.059l5.265,1.316C10.839,24.646,11.742,25,12.708,25h3.207v-3.318C15.521,21.674,15.127,21.621,14.74,21.511z"
		/>
	<path class="tangerine_04" d="M4.573,14.999c0.639-0.639,0.999-1.507,0.999-2.411v-0.844c0-0.484,0.151-0.955,0.432-1.348l0-0.001
		C6.596,9.566,7.659,9.22,8.626,9.542L9.671,9.89C9.833,9.944,10,9.824,10,9.653V8.322c0-0.842-0.354-1.646-0.976-2.214l-0.066-0.06
		C8.221,5.374,7.259,5,6.26,5L4.328,5C3.175,5,2.066,5.483,1.319,6.361C0.634,7.166,0,8.355,0,10c0,3.58,3,5,3,5h1.572L4.573,14.999
		z"/>
	<path class="tangerine_05" d="M4.572,15l0.001-0.001c0.639-0.639,0.999-1.507,0.999-2.411v-0.644l3.055-1.732
		C8.793,10.117,9,10.238,9,10.429v0.409C9,12.726,7.792,14.403,6,15l0,0L4.572,15z"/>
	<path class="tangerine_05" d="M27.427,14.999c-0.639-0.639-0.999-1.507-0.999-2.411v-0.844c0-0.484-0.151-0.955-0.432-1.348
		l0-0.001c-0.592-0.829-1.655-1.175-2.622-0.853L22.329,9.89C22.167,9.944,22,9.824,22,9.653V8.322c0-0.842,0.354-1.646,0.976-2.214
		l0.066-0.06C23.779,5.374,24.741,5,25.74,5l1.932,0c1.153,0,2.262,0.483,3.009,1.361C31.366,7.166,32,8.355,32,10c0,3.58-3,5-3,5
		h-1.572L27.427,14.999z"/>
	<path class="tangerine_06" d="M27.428,15l-0.001-0.001c-0.639-0.639-0.999-1.507-0.999-2.411v-0.644l-3.055-1.732
		C23.207,10.117,23,10.238,23,10.429v0.409c0,1.888,1.208,3.565,3,4.162l0,0L27.428,15z"/>
</g>
</svg>
