<?xml version="1.0" encoding="utf-8"?>
<!-- Generator: Adobe Illustrator 20.1.0, SVG Export Plug-In . SVG Version: 6.00 Build 0)  -->
<!DOCTYPE svg PUBLIC "-//W3C//DTD SVG 1.1//EN" "http://www.w3.org/Graphics/SVG/1.1/DTD/svg11.dtd">
<svg version="1.1" id="icons" xmlns="http://www.w3.org/2000/svg" xmlns:xlink="http://www.w3.org/1999/xlink" x="0px" y="0px"
	 width="32px" height="32px" viewBox="0 0 32 32" style="enable-background:new 0 0 32 32;" xml:space="preserve">
<style type="text/css">
	.white{fill:#FFFFFF;}
	.grey_01{fill:#F7F7F7;}
	.aloe_03{fill:#78DF7C;}
	.aloe_04{fill:#6CD275;}
	.aloe_05{fill:#60C46F;}
	.aloe_06{fill:#54B668;}
	.aqua_01{fill:#7AEBAC;}
	.aqua_02{fill:#6EDCA2;}
	.aqua_03{fill:#60CD96;}
	.aqua_04{fill:#53BF8C;}
	.aqua_05{fill:#46B080;}
	.aqua_06{fill:#3AA176;}
	.tulip_05{fill:#E85160;}
	.tulip_06{fill:#D84459;}
	.st0{fill:#7A63AD;}
	.st1{fill:#866EBA;}
	.st2{fill:#D2E6F3;}
	.st3{fill:#C1DDEE;}
	.st4{fill:#E0C193;}
	.st5{fill:#DBBA8C;}
	.st6{fill:#7FB8E0;}
	.st7{fill:#8EC0E0;}
	.st8{fill:#71B1E1;}
	.st9{fill:#9FC9E4;}
	.st10{fill:#FFEAA7;}
	.st11{fill:#FFE28A;}
	.st12{fill:#FF6B8B;}
	.st13{fill:#F4A984;}
	.st14{fill:#EA9C7A;}
	.st15{fill:#FEF1C6;}
	.st16{fill:#E55D53;}
	.st17{fill:#FFD400;}
	.st18{fill:#FF8F00;}
	.st19{fill:#FF4A00;}
	.st20{fill:#F7D684;}
	.st21{fill:#2B3332;}
	.st22{fill:#FAE09F;}
	.st23{fill:#373F3F;}
	.st24{fill:#FDEBBB;}
	.st25{fill:#FFF3D9;}
	.st26{fill:#FFD96C;}
	.st27{fill:#9ACC2E;}
	.st28{fill:#AADB3D;}
	.st29{fill:#A2D336;}
	.st30{fill:#93C427;}
	.st31{fill:#F79654;}
	.st32{fill:#FFD04D;}
	.st33{fill:#FCA15E;}
	.st34{fill:#A9E260;}
	.st35{fill:#97DB4A;}
	.st36{fill:#B1E346;}
	.st37{fill:#FCD8DE;}
	.st38{fill:#CDA073;}
	.st39{fill:#C09265;}
	.st40{fill:#A7794C;}
	.st41{fill:#96643B;}
	.st42{fill:#845331;}
	.st43{fill:#B38658;}
	.st44{fill:#9E6E43;}
	.st45{fill:#8D5B36;}
	.st46{fill:#FBCFD6;}
	.st47{fill:#FAC4D1;}
	.st48{fill:#FAB8CD;}
	.st49{fill:#F9ADC8;}
	.st50{fill:#F8A1C4;}
	.st51{fill:#F297BE;}
	.st52{fill:#EA8BB4;}
	.st53{fill:#E8BA36;}
	.st54{fill:#E0B12E;}
	.st55{fill:#FFC172;}
	.st56{fill:#FFAD68;}
	.st57{fill:#FFB76D;}
	.st58{fill:#6E57A0;}
	.st59{fill:#675099;}
	.st60{fill:#F3586F;}
	.st61{fill:#604893;}
	.st62{fill:#CBEB6B;}
	.st63{fill:#4EAC5D;}
	.st64{fill:#BEE758;}
	.st65{fill:#48A353;}
	.st66{fill:#D9F07D;}
	.st67{fill:#E6F490;}
	.st68{fill:#4896C8;}
	.st69{fill:#4390BF;}
	.st70{fill:#5CA3D5;}
	.st71{fill:#529CCF;}
	.st72{fill:#F7C845;}
	.st73{fill:#ECCD50;}
	.st74{fill:#FF8D6E;}
	.st75{fill:#FF805D;}
	.st76{fill:#EDEEEE;}
	.st77{fill:#65A9DC;}
	.st78{fill:#8BC07A;}
	.st79{fill:#F0C13E;}
	.st80{fill:#9A3644;}
	.st81{fill:#8A323F;}
	.st82{fill:#945BA0;}
	.st83{fill:#A366AD;}
	.st84{fill:#B370B9;}
	.st85{fill:#C27BC6;}
	.st86{fill:#F6B392;}
	.st87{fill:#D285D2;}
	.st88{fill:#DBA728;}
	.st89{fill:#505957;}
	.st90{fill:#56C7CD;}
	.st91{fill:#434C4B;}
	.st92{fill:#687271;}
	.st93{fill:#5C6664;}
	.st94{fill:#51BAC5;}
	.st95{fill:#D64F45;}
	.st96{fill:#D1D4D4;}
	.st97{fill:#E3E5E5;}
	.st98{fill:#DADDDC;}
	.st99{fill:#845194;}
	.st100{fill:#5BD3D5;}
	.st101{fill:#E8803A;}
	.st102{fill:#0A6F8E;}
	.st103{fill:#0F769B;}
	.st104{fill:#EF8C48;}
	.st105{fill:#838C8A;}
	.st106{fill:#757F7E;}
	.st107{fill:#D1473D;}
	.st108{fill:#9179C6;}
	.st109{fill:#906DBB;}
	.st110{fill:#A78EDD;}
	.st111{fill:#9D85D3;}
	.st112{fill:#E2EFF7;}
	.st113{fill:#B0D3EA;}
	.st114{fill:#F7BC48;}
	.st115{fill:#FFC550;}
	.st116{fill:#FFCF6E;}
	.st117{fill:#4CAEBC;}
	.st118{fill:#47A1B4;}
	.st119{fill:#4295AC;}
	.st120{fill:#E85160;}
	.st121{fill:#D84459;}
	.st122{fill:#FDE2E6;}
	.st123{fill:#FFF5D8;}
	.st124{fill:#99533D;}
	.st125{fill:#914C39;}
	.st126{fill:#D4C9EF;}
	.st127{fill:#E3DBF4;}
	.st128{fill:#F1EDFA;}
	.st129{fill:#C6B7E9;}
	.st130{fill:#B8A5E4;}
	.st131{fill:#F0C877;}
	.st132{fill:#E8BA67;}
	.st133{fill:#DDAA5F;}
	.st134{fill:#D4994F;}
	.st135{fill:#C98B44;}
	.st136{fill:#BF7D3C;}
	.st137{fill:#909997;}
	.st138{fill:#724D31;}
	.st139{fill:#93C2CA;}
	.st140{fill:#99C7CE;}
	.st141{fill:#9FCCD3;}
	.st142{fill:#ACD7DD;}
	.st143{fill:#B9E2E7;}
	.st144{fill:#A5D1D8;}
	.st145{fill:#88B9C3;}
	.st146{fill:#7EB1BD;}
	.st147{fill:#60C46F;}
	.st148{fill:#C8CCCB;}
	.st149{fill:none;}
	.st150{fill:#4F4032;}
	.st151{fill:#604631;}
	.st152{fill:#F9BDA0;}
	.st153{fill:#E7685F;}
	.st154{fill:#C84054;}
	.st155{fill:#ABB2B1;}
	.st156{fill:#9DA5A4;}
	.st157{fill:#F74000;}
	.st158{fill:#F97C00;}
	.st159{fill:#F9C900;}
	.st160{fill:#EFD4A7;}
	.st161{fill:#EACEA1;}
	.st162{fill:#FCE8CC;}
	.st163{fill:#F5DEB9;}
	.st164{fill:#CFAB81;}
	.st165{fill:#D5B387;}
	.st166{fill:#3A4274;}
	.st167{fill:#707EB7;}
	.st168{fill:#424B7E;}
	.st169{fill:#7C8AC4;}
	.st170{fill:#FFD98D;}
	.st171{fill:#8694D1;}
	.st172{fill:#9AA6D6;}
	.st173{fill:#ABB4DD;}
	.st174{fill:#FDECEF;}
	.st175{fill:#137FA0;}
	.st176{fill:#EB6B48;}
	.st177{fill:#F57552;}
	.st178{fill:#515E91;}
	.st179{fill:#5C699E;}
	.st180{fill:#6673AA;}
	.st181{fill:#504484;}
	.st182{fill:#FF5F7E;}
	.st183{fill:#EBCEEB;}
	.st184{fill:#E5BDE5;}
	.st185{fill:#E0ABDF;}
	.st186{fill:#D799D6;}
	.st187{fill:#3B8FA3;}
	.st188{fill:#348B99;}
	.st189{fill:#F7F7F7;}
	.st190{fill:#84ED82;}
	.st191{fill:#EFEAEA;}
	.st192{fill:#FF9A7E;}
	.st193{fill:#FCD2BE;}
	.st194{fill:#FCDDCF;}
	.st195{fill:#C683C8;}
	.st196{fill:#A55F49;}
	.st197{fill:#FEF5F7;}
</style>
<path class="aloe_03" d="M7.356,15.136c-0.14-0.841,0.77-1.461,1.501-1.022l1.954,1.173C12.278,14.479,14.066,14,16,14V0
	l-1.778,0.003c-0.257,0-0.467,0.196-0.495,0.451c-0.182,1.663-1.359,3.069-2.973,3.427c-4.239,0.941-6.82,3.259-6.82,7.369
	c0,2.976,1.362,4.689,3.716,5.647L7.356,15.136z"/>
<path class="aloe_06" d="M21.113,3.881c-1.614-0.358-2.792-1.764-2.973-3.427c-0.028-0.255-0.238-0.45-0.495-0.451L16,0v14
	c1.934,0,3.722,0.479,5.189,1.287l1.954-1.173c0.731-0.439,1.641,0.181,1.501,1.022l-0.284,1.701
	c2.266-0.969,3.573-2.672,3.573-5.587C27.933,7.14,25.352,4.821,21.113,3.881z"/>
<g>
	<path class="aqua_05" d="M19.617,29.285l0.323,2.285c0.035,0.247,0.246,0.43,0.495,0.43h3.134c0.248,0,0.458-0.176,0.494-0.422
		C24.28,30.067,25,24.868,25,22c0-4.418-3.477-8-9-8v16C17.469,30,18.36,29.74,19.617,29.285z"/>
	<path class="aqua_04" d="M16,14c-5.523,0-9,3.582-9,8c0,2.868,0.72,8.067,0.938,9.578C7.974,31.824,8.184,32,8.432,32h3.134
		c0.249,0,0.46-0.183,0.495-0.43l0.323-2.285C13.64,29.74,14.531,30,16,30V14z"/>
	<path class="aqua_02" d="M25,21c0-1.053-0.307-2.048-0.843-2.943l0.487-2.921c0.14-0.841-0.77-1.461-1.501-1.022l-1.954,1.173
		C19.722,14.479,17.934,14,16,14v14C20.971,28,25,24.866,25,21z"/>
	<path class="aqua_01" d="M16,14c-1.934,0-3.722,0.479-5.189,1.287l-1.954-1.173c-0.731-0.439-1.641,0.181-1.501,1.022l0.487,2.921
		C7.307,18.952,7,19.947,7,21c0,3.866,4.029,7,9,7V14z"/>
	<g>
		<g>
			<g>
				<g>
					<path class="white" d="M12.874,24h-1.767c-0.996,0-1.92-0.681-2.08-1.664C8.824,21.083,9.785,20,11,20
						c1.907,0,2.602,1.617,2.855,2.795C13.989,23.416,13.51,24,12.874,24z"/>
				</g>
				<g>
					<path class="white" d="M12.874,24h-1.767c-0.996,0-1.92-0.681-2.08-1.664C8.824,21.083,9.785,20,11,20
						c1.907,0,2.602,1.617,2.855,2.795C13.989,23.416,13.51,24,12.874,24z"/>
				</g>
			</g>
			<path class="tulip_05" d="M11,20c-0.084,0-0.163,0.017-0.244,0.027C10.291,20.555,10,21.241,10,22c0,0.758,0.29,1.442,0.754,1.97
				C10.87,23.989,10.988,24,11.107,24h1.767c0.636,0,1.114-0.584,0.981-1.205C13.602,21.617,12.907,20,11,20z"/>
		</g>
		<circle class="white" cx="11.5" cy="21.5" r="0.5"/>
	</g>
	<g>
		<g>
			<g>
				<g>
					<path class="grey_01" d="M19.003,24h1.767c0.996,0,1.92-0.681,2.08-1.664C23.054,21.083,22.092,20,20.878,20
						c-1.907,0-2.602,1.617-2.855,2.795C17.889,23.416,18.367,24,19.003,24z"/>
				</g>
				<g>
					<path class="grey_01" d="M19.003,24h1.767c0.996,0,1.92-0.681,2.08-1.664C23.054,21.083,22.092,20,20.878,20
						c-1.907,0-2.602,1.617-2.855,2.795C17.889,23.416,18.367,24,19.003,24z"/>
				</g>
			</g>
			<path class="tulip_06" d="M20.878,20c0.084,0,0.163,0.017,0.244,0.027c0.465,0.528,0.756,1.214,0.756,1.973
				c0,0.758-0.29,1.442-0.754,1.97C21.008,23.989,20.89,24,20.771,24h-1.767c-0.636,0-1.114-0.584-0.981-1.205
				C18.276,21.617,18.97,20,20.878,20z"/>
		</g>
		<circle class="grey_01" cx="20.5" cy="21.5" r="0.5"/>
	</g>
	<path class="aqua_03" d="M16,26.5V28c3.032,0,5.708-1.17,7.339-2.957c0,0-2.995,0.55-5.339,0.957
		C17.214,26.136,16.502,26.505,16,26.5z"/>
	<path class="aqua_02" d="M16,26.5V28c-3.032,0-5.708-1.17-7.339-2.957c0,0,2.995,0.55,5.339,0.957
		C14.786,26.136,15.498,26.505,16,26.5z"/>
</g>
<path class="aloe_04" d="M10.827,15.271c1.467-0.808,3.255-1.287,5.189-1.287v-14h-1.317v0.003c0,1.855-1.756,3.877-1.756,3.877
	s-3.928,3.259-3.928,7.369c0,1.609,0.584,2.84,1.405,3.793L10.827,15.271z"/>
<path class="aloe_05" d="M21.595,15.043C22.416,14.09,23,12.859,23,11.25c0-4.11-3.928-7.369-3.928-7.369s-1.756-2.023-1.756-3.877
	V0H16v14c1.934,0,3.722,0.479,5.189,1.287L21.595,15.043z"/>
<path class="aqua_05" d="M12.383,29.285L12.141,31h0.468c0.229,0,0.429-0.156,0.485-0.379l0.253-1.012
	C13.041,29.515,12.726,29.409,12.383,29.285z"/>
<path class="aqua_06" d="M19.617,29.285c-0.342,0.124-0.657,0.23-0.964,0.324l0.253,1.012C18.961,30.844,19.161,31,19.39,31h0.468
	L19.617,29.285z"/>
</svg>
