<?xml version="1.0" encoding="utf-8"?>
<!-- Generator: Adobe Illustrator 20.1.0, SVG Export Plug-In . SVG Version: 6.00 Build 0)  -->
<!DOCTYPE svg PUBLIC "-//W3C//DTD SVG 1.1//EN" "http://www.w3.org/Graphics/SVG/1.1/DTD/svg11.dtd">
<svg version="1.1" id="icons" xmlns="http://www.w3.org/2000/svg" xmlns:xlink="http://www.w3.org/1999/xlink" x="0px" y="0px"
	 width="32px" height="32px" viewBox="0 0 32 32" style="enable-background:new 0 0 32 32;" xml:space="preserve">
<style type="text/css">
	.white{fill:#FFFFFF;}
	.grey_01{fill:#F7F7F7;}
	.grey_02{fill:#EDEEEE;}
	.grey_16{fill:#373F3F;}
	.grey_17{fill:#2B3332;}
	.tulip_06{fill:#D84459;}
	.tulip_07{fill:#C84054;}
	.st0{fill:#78DF7C;}
	.st1{fill:#54B668;}
	.st2{fill:#7A63AD;}
	.st3{fill:#866EBA;}
	.st4{fill:#D2E6F3;}
	.st5{fill:#C1DDEE;}
	.st6{fill:#E0C193;}
	.st7{fill:#DBBA8C;}
	.st8{fill:#7FB8E0;}
	.st9{fill:#8EC0E0;}
	.st10{fill:#71B1E1;}
	.st11{fill:#9FC9E4;}
	.st12{fill:#FFEAA7;}
	.st13{fill:#FFE28A;}
	.st14{fill:#FF6B8B;}
	.st15{fill:#F4A984;}
	.st16{fill:#EA9C7A;}
	.st17{fill:#FEF1C6;}
	.st18{fill:#E85160;}
	.st19{fill:#E55D53;}
	.st20{fill:#FFD400;}
	.st21{fill:#FF8F00;}
	.st22{fill:#FF4A00;}
	.st23{fill:#F7D684;}
	.st24{fill:#FAE09F;}
	.st25{fill:#FDEBBB;}
	.st26{fill:#FFF3D9;}
	.st27{fill:#FFD96C;}
	.st28{fill:#9ACC2E;}
	.st29{fill:#AADB3D;}
	.st30{fill:#A2D336;}
	.st31{fill:#93C427;}
	.st32{fill:#F79654;}
	.st33{fill:#FFD04D;}
	.st34{fill:#FCA15E;}
	.st35{fill:#A9E260;}
	.st36{fill:#97DB4A;}
	.st37{fill:#B1E346;}
	.st38{fill:#FCD8DE;}
	.st39{fill:#CDA073;}
	.st40{fill:#C09265;}
	.st41{fill:#A7794C;}
	.st42{fill:#96643B;}
	.st43{fill:#845331;}
	.st44{fill:#B38658;}
	.st45{fill:#9E6E43;}
	.st46{fill:#8D5B36;}
	.st47{fill:#FBCFD6;}
	.st48{fill:#FAC4D1;}
	.st49{fill:#FAB8CD;}
	.st50{fill:#F9ADC8;}
	.st51{fill:#F8A1C4;}
	.st52{fill:#F297BE;}
	.st53{fill:#EA8BB4;}
	.st54{fill:#E8BA36;}
	.st55{fill:#E0B12E;}
	.st56{fill:#FFC172;}
	.st57{fill:#FFAD68;}
	.st58{fill:#FFB76D;}
	.st59{fill:#6E57A0;}
	.st60{fill:#675099;}
	.st61{fill:#F3586F;}
	.st62{fill:#604893;}
	.st63{fill:#CBEB6B;}
	.st64{fill:#4EAC5D;}
	.st65{fill:#BEE758;}
	.st66{fill:#6CD275;}
	.st67{fill:#48A353;}
	.st68{fill:#60C46F;}
	.st69{fill:#D9F07D;}
	.st70{fill:#E6F490;}
	.st71{fill:#4896C8;}
	.st72{fill:#4390BF;}
	.st73{fill:#5CA3D5;}
	.st74{fill:#529CCF;}
	.st75{fill:#F7C845;}
	.st76{fill:#ECCD50;}
	.st77{fill:#FF8D6E;}
	.st78{fill:#FF805D;}
	.st79{fill:#65A9DC;}
	.st80{fill:#8BC07A;}
	.st81{fill:#F0C13E;}
	.st82{fill:#9A3644;}
	.st83{fill:#8A323F;}
	.st84{fill:#945BA0;}
	.st85{fill:#A366AD;}
	.st86{fill:#B370B9;}
	.st87{fill:#C27BC6;}
	.st88{fill:#F6B392;}
	.st89{fill:#D285D2;}
	.st90{fill:#DBA728;}
	.st91{fill:#505957;}
	.st92{fill:#56C7CD;}
	.st93{fill:#434C4B;}
	.st94{fill:#687271;}
	.st95{fill:#5C6664;}
	.st96{fill:#51BAC5;}
	.st97{fill:#D64F45;}
	.st98{fill:#D1D4D4;}
	.st99{fill:#E3E5E5;}
	.st100{fill:#DADDDC;}
	.st101{fill:#845194;}
	.st102{fill:#5BD3D5;}
	.st103{fill:#46B080;}
	.st104{fill:#53BF8C;}
	.st105{fill:#6EDCA2;}
	.st106{fill:#7AEBAC;}
	.st107{fill:#60CD96;}
	.st108{fill:#E8803A;}
	.st109{fill:#0A6F8E;}
	.st110{fill:#0F769B;}
	.st111{fill:#EF8C48;}
	.st112{fill:#838C8A;}
	.st113{fill:#757F7E;}
	.st114{fill:#D1473D;}
	.st115{fill:#9179C6;}
	.st116{fill:#906DBB;}
	.st117{fill:#A78EDD;}
	.st118{fill:#9D85D3;}
	.st119{fill:#E2EFF7;}
	.st120{fill:#B0D3EA;}
	.st121{fill:#F7BC48;}
	.st122{fill:#FFC550;}
	.st123{fill:#FFCF6E;}
	.st124{fill:#4CAEBC;}
	.st125{fill:#47A1B4;}
	.st126{fill:#4295AC;}
	.st127{fill:#D84459;}
	.st128{fill:#FDE2E6;}
	.st129{fill:#FFF5D8;}
	.st130{fill:#99533D;}
	.st131{fill:#914C39;}
	.st132{fill:#D4C9EF;}
	.st133{fill:#E3DBF4;}
	.st134{fill:#F1EDFA;}
	.st135{fill:#C6B7E9;}
	.st136{fill:#B8A5E4;}
	.st137{fill:#F0C877;}
	.st138{fill:#E8BA67;}
	.st139{fill:#DDAA5F;}
	.st140{fill:#D4994F;}
	.st141{fill:#C98B44;}
	.st142{fill:#BF7D3C;}
	.st143{fill:#909997;}
	.st144{fill:#724D31;}
	.st145{fill:#93C2CA;}
	.st146{fill:#99C7CE;}
	.st147{fill:#9FCCD3;}
	.st148{fill:#ACD7DD;}
	.st149{fill:#B9E2E7;}
	.st150{fill:#A5D1D8;}
	.st151{fill:#88B9C3;}
	.st152{fill:#7EB1BD;}
	.st153{fill:#C8CCCB;}
	.st154{fill:none;}
	.st155{fill:#4F4032;}
	.st156{fill:#604631;}
	.st157{fill:#F9BDA0;}
	.st158{fill:#E7685F;}
	.st159{fill:#ABB2B1;}
	.st160{fill:#9DA5A4;}
	.st161{fill:#F74000;}
	.st162{fill:#F97C00;}
	.st163{fill:#F9C900;}
	.st164{fill:#EFD4A7;}
	.st165{fill:#EACEA1;}
	.st166{fill:#FCE8CC;}
	.st167{fill:#F5DEB9;}
	.st168{fill:#CFAB81;}
	.st169{fill:#D5B387;}
	.st170{fill:#3A4274;}
	.st171{fill:#707EB7;}
	.st172{fill:#424B7E;}
	.st173{fill:#7C8AC4;}
	.st174{fill:#FFD98D;}
	.st175{fill:#8694D1;}
	.st176{fill:#9AA6D6;}
	.st177{fill:#ABB4DD;}
	.st178{fill:#FDECEF;}
	.st179{fill:#137FA0;}
	.st180{fill:#EB6B48;}
	.st181{fill:#F57552;}
	.st182{fill:#515E91;}
	.st183{fill:#5C699E;}
	.st184{fill:#6673AA;}
	.st185{fill:#504484;}
	.st186{fill:#FF5F7E;}
	.st187{fill:#EBCEEB;}
	.st188{fill:#E5BDE5;}
	.st189{fill:#E0ABDF;}
	.st190{fill:#D799D6;}
	.st191{fill:#3B8FA3;}
	.st192{fill:#348B99;}
	.st193{fill:#F7F7F7;}
	.st194{fill:#3AA176;}
	.st195{fill:#84ED82;}
	.st196{fill:#EFEAEA;}
	.st197{fill:#FF9A7E;}
	.st198{fill:#FCD2BE;}
	.st199{fill:#FCDDCF;}
	.st200{fill:#C683C8;}
	.st201{fill:#A55F49;}
	.st202{fill:#FEF5F7;}
</style>
<g>
	<path class="grey_01" d="M16,16H1c0,8.284,6.716,15,15,15V16z"/>
	<path class="grey_02" d="M16,31c8.284,0,15-6.716,15-15H16V31z"/>
	<path class="tulip_06" d="M16,1C7.716,1,1,7.716,1,16h15V1z"/>
	<path class="tulip_07" d="M31,16c0-8.284-6.716-15-15-15v15H31z"/>
	<path class="white" d="M12.752,12.497l-0.613,1.227C12.054,13.893,11.88,14,11.691,14H6.41c-0.238,0-0.444-0.168-0.49-0.402
		L5.176,9.882C5.1,9.498,5.475,9.178,5.842,9.316l6.638,2.489C12.758,11.909,12.884,12.231,12.752,12.497z"/>
	<path class="grey_16" d="M8.015,10.131C8.008,10.252,8,10.373,8,10.5C8,11.881,8.448,13,9,13c0.502,0,0.913-0.927,0.985-2.131
		L8.015,10.131z"/>
	<path class="grey_01" d="M19.219,12.497l0.613,1.227C19.917,13.893,20.091,14,20.28,14h5.281c0.238,0,0.444-0.168,0.49-0.402
		l0.743-3.716c0.077-0.385-0.299-0.704-0.666-0.566l-6.638,2.489C19.213,11.909,19.087,12.231,19.219,12.497z"/>
	<path class="grey_17" d="M23.956,10.131c0.007,0.122,0.015,0.243,0.015,0.369c0,1.381-0.448,2.5-1,2.5
		c-0.502,0-0.913-0.927-0.985-2.131L23.956,10.131z"/>
	<path class="grey_16" d="M16,16H1c0,0.68,0.044,1.344,0.132,2H16V16z"/>
	<path class="grey_17" d="M16,18h14.865C30.952,17.344,31,16.68,31,16H16V18z"/>
</g>
</svg>
