<?xml version="1.0" encoding="utf-8"?>
<!-- Generator: Adobe Illustrator 20.1.0, SVG Export Plug-In . SVG Version: 6.00 Build 0)  -->
<!DOCTYPE svg PUBLIC "-//W3C//DTD SVG 1.1//EN" "http://www.w3.org/Graphics/SVG/1.1/DTD/svg11.dtd">
<svg version="1.1" id="icons" xmlns="http://www.w3.org/2000/svg" xmlns:xlink="http://www.w3.org/1999/xlink" x="0px" y="0px"
	 width="32px" height="32px" viewBox="0 0 32 32" style="enable-background:new 0 0 32 32;" xml:space="preserve">
<style type="text/css">
	.white{fill:#FFFFFF;}
	.grey_01{fill:#F7F7F7;}
	.grey_16{fill:#373F3F;}
	.grey_17{fill:#2B3332;}
	.aloe_02{fill:#84ED82;}
	.aloe_03{fill:#78DF7C;}
	.aloe_04{fill:#6CD275;}
	.aloe_05{fill:#60C46F;}
	.aloe_06{fill:#54B668;}
	.vermillion_02{fill:#FF9A7E;}
	.vermillion_03{fill:#FF8D6E;}
	.vermillion_04{fill:#FF805D;}
	.sand_01{fill:#FFF3D9;}
	.sand_02{fill:#FDEBBB;}
	.sand_03{fill:#FAE09F;}
	.sand_04{fill:#F7D684;}
	.dirt_10{fill:#CDA073;}
	.dirt_11{fill:#C09265;}
	.dirt_12{fill:#B38658;}
	.dirt_13{fill:#A7794C;}
	.dirt_14{fill:#9E6E43;}
	.st0{fill:#945BA0;}
	.st1{fill:#B8A5E4;}
	.st2{fill:#C6B7E9;}
	.st3{fill:#D4C9EF;}
	.st4{fill:#E3DBF4;}
	.st5{fill:#B370B9;}
	.st6{fill:#A78EDD;}
	.st7{fill:#A366AD;}
	.st8{fill:#F1EDFA;}
	.st9{fill:#4B7E77;}
	.st10{fill:#56C7CD;}
	.st11{fill:#EB6B48;}
	.st12{fill:#E55F4A;}
	.st13{fill:#FFD96C;}
	.st14{fill:#F57552;}
	.st15{fill:#FFD04D;}
	.st16{fill:#96643B;}
	.st17{fill:#FFE28A;}
	.st18{fill:#4390BF;}
	.st19{fill:#4896C8;}
	.st20{fill:#8EC0E0;}
	.st21{fill:#9FC9E4;}
	.st22{fill:#7FB8E0;}
	.st23{fill:#D2E6F3;}
	.st24{fill:#E2EFF7;}
	.st25{fill:#C1DDEE;}
	.st26{fill:#EDEEEE;}
	.st27{fill:#DCF2FD;}
	.st28{fill:#51BAC5;}
	.st29{fill:#5BD3D5;}
	.st30{fill:#FFAD68;}
	.st31{fill:#FFB76D;}
	.st32{fill:#FCA15E;}
	.st33{fill:#F0C877;}
	.st34{fill:#FFC172;}
	.st35{fill:#231F20;}
	.st36{fill:#D1D4D4;}
	.st37{fill:#DADDDC;}
	.st38{fill:#C8CCCB;}
	.st39{fill:#71B1E1;}
	.st40{fill:#B93D4F;}
	.st41{fill:#C84054;}
	.st42{fill:#D84459;}
	.st43{fill:#E85160;}
	.st44{fill:#F9ADC8;}
	.st45{fill:#F8A1C4;}
	.st46{fill:#E3E5E5;}
	.st47{fill:#FAB8CD;}
	.st48{fill:#FBCFD6;}
	.st49{fill:#FAC4D1;}
	.st50{fill:#E55D53;}
	.st51{fill:#D64F45;}
	.st52{fill:#FFA68E;}
	.st53{fill:#2B3332;}
	.st54{fill:#EA8BB4;}
	.st55{fill:#FFF5D8;}
	.st56{fill:#373F3F;}
	.st57{fill:#F297BE;}
	.st58{fill:#FEF1C6;}
	.st59{fill:#FCD2BE;}
	.st60{fill:#FCDDCF;}
	.st61{fill:#F79654;}
	.st62{fill:#EF8C48;}
	.st63{fill:none;}
	.st64{fill:#6673AA;}
	.st65{fill:#7C8AC4;}
	.st66{fill:#8694D1;}
	.st67{fill:#B0D3EA;}
	.st68{fill:#A7A9AC;}
	.st69{fill:#FF6B8B;}
	.st70{fill:#FF5F7E;}
	.st71{fill:#D49A87;}
	.st72{fill:#9179C6;}
	.st73{fill:#866EBA;}
	.st74{fill:#7A63AD;}
	.st75{fill:#9D85D3;}
	.st76{fill:#9E86BF;}
	.st77{fill:#FDE2E6;}
	.st78{fill:#FCD8DE;}
	.st79{fill:#E8BA36;}
	.st80{fill:#E0B12E;}
	.st81{fill:#DBA728;}
	.st82{fill:#C27BC6;}
	.st83{fill:#E8803A;}
	.st84{fill:#DD7731;}
	.st85{fill:#FF7899;}
	.st86{fill:#FAC7AF;}
	.st87{fill:#5C699E;}
	.st88{fill:#707EB7;}
	.st89{fill:#F7C845;}
	.st90{fill:#E26447;}
	.st91{fill:#5CA3D5;}
	.st92{fill:#529CCF;}
	.st93{fill:#65A9DC;}
	.st94{fill:#D799D6;}
	.st95{fill:#D285D2;}
	.st96{fill:#E0ABDF;}
	.st97{fill:#FEF8E8;}
	.st98{fill:#4295AC;}
	.st99{fill:#3B8FA3;}
	.st100{fill:#47A1B4;}
	.st101{fill:#8D5B36;}
	.st102{fill:#845331;}
	.st103{fill:#687271;}
	.st104{fill:#505957;}
	.st105{fill:#5C6664;}
	.st106{fill:#838C8A;}
	.st107{fill:#434C4B;}
	.st108{fill:#757F7E;}
	.st109{fill:#909997;}
	.st110{fill:#AADB3D;}
	.st111{fill:#B1E346;}
	.st112{fill:#9ACC2E;}
	.st113{fill:#93C427;}
	.st114{fill:#A2D336;}
	.st115{fill:#4CAEBC;}
	.st116{fill:#111918;}
	.st117{fill:#80C0DF;}
	.st118{fill:#F0C13E;}
	.st119{fill:#9DB5DE;}
	.st120{fill:#515E91;}
	.st121{fill:#495587;}
	.st122{fill:#CFAB81;}
	.st123{fill:#724D31;}
	.st124{fill:#604631;}
</style>
<g>
	<path class="dirt_13" d="M12.752,23.794l-3.167,3.167C9.211,27.336,9,27.845,9,28.375v1.876l-0.858,0.892
		C7.841,31.456,8.05,32,8.472,32H12.5h0.029c0.239,0,0.44-0.192,0.471-0.435v-2.361l2.581-2.581L12.752,23.794z"/>
	<path class="aloe_05" d="M16,8.417c0,0-6.942-8.722-14.921-1.008c-0.186,0.18-0.015,0.49,0.235,0.425
		C6.539,6.474,8.085,8.841,11.165,12H16V8.417z"/>
	<path class="aloe_04" d="M15.993,7.5c0,0-2-7.5-8.875-7.5C1.713,0,0.351,2.189,0.016,3.125c-0.066,0.185,0.087,0.37,0.28,0.331
		C2.264,3.062,12.142,3.006,13.326,12H16L15.993,7.5z"/>
	<path class="aloe_06" d="M16,8.417c0,0,6.942-8.722,14.921-1.008c0.186,0.18,0.015,0.49-0.235,0.425
		c-5.225-1.36-6.771,1.007-9.851,4.166H16V8.417z"/>
	<path class="aloe_05" d="M16.007,7.5c0,0,2-7.5,8.875-7.5c5.405,0,6.767,2.189,7.102,3.125c0.066,0.185-0.087,0.37-0.28,0.331
		C29.736,3.062,19.858,3.006,18.674,12H16L16.007,7.5z"/>
	<g>
		<path class="aloe_02" d="M14,11h2V0C14.875,0,14,11,14,11z"/>
		<path class="aloe_03" d="M16,0v11h2C18,11,17,0,16,0z"/>
	</g>
	<path class="dirt_14" d="M23.858,31.143L23,30.251v-1.876c0-0.531-0.211-1.039-0.586-1.415l-3.167-3.167l-2.828,2.828L19,29.204
		v2.361C19.031,31.808,19.232,32,19.471,32h4.057C23.95,32,24.159,31.456,23.858,31.143z"/>
	<g>
		<path class="dirt_12" d="M9.076,24.116C9.554,27.44,12.467,30,16,30v-4C13.419,26,11.035,25.299,9.076,24.116z"/>
		<path class="dirt_11" d="M16,22c-2.418,0-4.664-0.616-6.55-1.665C9.164,21.339,9,22.316,9,23.16c0,0.325,0.031,0.643,0.076,0.956
			C11.035,25.299,13.419,26,16,26V22z"/>
		<path class="dirt_10" d="M16,13c-3.002,0-5.555,3.846-6.55,7.335C11.336,21.384,13.582,22,16,22V13z"/>
		<path class="dirt_13" d="M22.924,24.116C20.965,25.299,18.581,26,16,26v4C19.533,30,22.446,27.44,22.924,24.116z"/>
		<path class="dirt_12" d="M16,26c2.581,0,4.965-0.701,6.924-1.884C22.969,23.803,23,23.485,23,23.16
			c0-0.844-0.164-1.821-0.45-2.825C20.664,21.384,18.418,22,16,22V26z"/>
		<path class="dirt_11" d="M22.55,20.335C21.555,16.846,19.002,13,16,13v9C18.418,22,20.664,21.384,22.55,20.335z"/>
	</g>
	<path class="aloe_03" d="M16,12c0,0-2.271-8.439-9.318-6.238C6.456,5.833,6.463,6.154,6.686,6.234
		C12.586,8.356,13.167,12,13.167,12H16z"/>
	<path class="aloe_04" d="M16,12c0,0,2.271-8.439,9.318-6.238c0.227,0.071,0.219,0.392-0.004,0.472
		C19.414,8.356,18.833,12,18.833,12H16z"/>
	<g>
		<path class="sand_03" d="M10,20V9c0,0-3.571-0.041-4.809,5.256C3.85,20,10,20,10,20z"/>
		<path class="sand_04" d="M10,20V9c0,0,3.571-0.041,4.809,5.256C16.15,20,10,20,10,20z"/>
		<g>
			<g>
				<path class="white" d="M7.151,14.087l2.473-1.157c0,0-0.83-1.451-2.045-0.728C6.608,12.779,7.151,14.087,7.151,14.087z"/>
			</g>
			<g>
				<path class="white" d="M7.151,14.087l2.473-1.157c0,0-0.83-1.451-2.045-0.728C6.608,12.779,7.151,14.087,7.151,14.087z"/>
			</g>
		</g>
		<g>
			<g>
				<path class="white" d="M12.849,14.087l-2.473-1.157c0,0,0.83-1.451,2.045-0.728C13.392,12.779,12.849,14.087,12.849,14.087z"/>
			</g>
			<g>
				<path class="white" d="M12.849,14.087l-2.473-1.157c0,0,0.83-1.451,2.045-0.728C13.392,12.779,12.849,14.087,12.849,14.087z"/>
			</g>
		</g>
		<circle class="grey_17" cx="12" cy="13" r="0.5"/>
		<g>
			<path class="vermillion_03" d="M8.027,15.287C8.114,15.84,8.477,17,10,17v-2H8.275C8.122,15,8.003,15.135,8.027,15.287z"/>
			<path class="vermillion_04" d="M11.725,15H10v2c1.523,0,1.886-1.16,1.973-1.713C11.997,15.135,11.878,15,11.725,15z"/>
		</g>
		<circle class="grey_16" cx="7.99" cy="13" r="0.5"/>
	</g>
	<g>
		<path class="sand_03" d="M22,20V9c0,0-3.571-0.041-4.809,5.256C15.85,20,22,20,22,20z"/>
		<path class="sand_04" d="M22,20V9c0,0,3.571-0.041,4.809,5.256C28.15,20,22,20,22,20z"/>
		<g>
			<path class="grey_16" d="M20.112,14.776c-0.124-0.062-0.274-0.01-0.335,0.112c-0.062,0.124-0.012,0.274,0.112,0.335
				c0.043,0.021,1.065,0.526,2.112,0.526v-0.5C21.073,15.25,20.121,14.781,20.112,14.776z"/>
			<path class="grey_17" d="M24.224,14.888c-0.062-0.122-0.209-0.173-0.335-0.112C23.879,14.781,22.927,15.25,22,15.25v0.5
				c1.047,0,2.069-0.505,2.112-0.526C24.235,15.162,24.285,15.012,24.224,14.888z"/>
		</g>
		<g>
			<g>
				<g>
					<path class="white" d="M25.25,12.751h-2.219c-0.038,0-0.133,0.05-0.133,0.1c0,0.758,0.556,0.748,1.242,0.748
						s1.242,0.072,1.242-0.748C25.383,12.802,25.288,12.751,25.25,12.751z"/>
				</g>
				<g>
					<path class="white" d="M25.25,12.751h-2.219c-0.038,0-0.133,0.05-0.133,0.1c0,0.758,0.556,0.748,1.242,0.748
						s1.242,0.072,1.242-0.748C25.383,12.802,25.288,12.751,25.25,12.751z"/>
				</g>
			</g>
			<g>
				<g>
					<path class="grey_17" d="M24.141,13.103c0.224,0,0.406-0.149,0.47-0.352h-0.94C23.734,12.954,23.917,13.103,24.141,13.103z"/>
				</g>
				<g>
					<path class="grey_17" d="M24.141,13.103c0.224,0,0.406-0.149,0.47-0.352h-0.94C23.734,12.954,23.917,13.103,24.141,13.103z"/>
				</g>
			</g>
		</g>
		<g>
			<g>
				<g>
					<path class="white" d="M20.969,12.751H18.75c-0.038,0-0.133,0.05-0.133,0.1c0,0.758,0.556,0.748,1.242,0.748
						s1.242,0.072,1.242-0.748C21.102,12.802,21.007,12.751,20.969,12.751z"/>
				</g>
				<g>
					<path class="white" d="M20.969,12.751H18.75c-0.038,0-0.133,0.05-0.133,0.1c0,0.758,0.556,0.748,1.242,0.748
						s1.242,0.072,1.242-0.748C21.102,12.802,21.007,12.751,20.969,12.751z"/>
				</g>
			</g>
			<g>
				<g>
					<path class="grey_16" d="M19.859,13.103c0.224,0,0.406-0.149,0.47-0.352h-0.94C19.453,12.954,19.636,13.103,19.859,13.103z"/>
				</g>
				<g>
					<path class="grey_16" d="M19.859,13.103c0.224,0,0.406-0.149,0.47-0.352h-0.94C19.453,12.954,19.636,13.103,19.859,13.103z"/>
				</g>
			</g>
		</g>
	</g>
	<g>
		<path class="sand_01" d="M16,21V10c0,0-3.571-0.041-4.809,5.256C9.85,21,16,21,16,21z"/>
		<path class="sand_02" d="M16,21V10c0,0,3.571-0.041,4.809,5.256C22.15,21,16,21,16,21z"/>
		<path class="grey_01" d="M17.364,13.155c0,0-0.93,1.389,0.257,2.155c0.949,0.613,1.879-0.455,1.879-0.455L17.364,13.155z"/>
		<circle class="grey_17" cx="18.037" cy="14.5" r="0.5"/>
		<g>
			<path class="vermillion_02" d="M14.027,16.287C14.114,16.84,14.477,18,16,18v-2h-1.725C14.122,16,14.003,16.135,14.027,16.287z"
				/>
			<path class="vermillion_03" d="M17.725,16H16v2c1.523,0,1.886-1.16,1.973-1.713C17.997,16.135,17.878,16,17.725,16z"/>
		</g>
		<path class="white" d="M14.636,13.155c0,0,0.93,1.389-0.257,2.155c-0.949,0.613-1.879-0.455-1.879-0.455L14.636,13.155z"/>
		<circle class="grey_16" cx="13.963" cy="14.5" r="0.5"/>
	</g>
</g>
</svg>
