<?xml version="1.0" encoding="utf-8"?>
<!-- Generator: Adobe Illustrator 20.1.0, SVG Export Plug-In . SVG Version: 6.00 Build 0)  -->
<!DOCTYPE svg PUBLIC "-//W3C//DTD SVG 1.1//EN" "http://www.w3.org/Graphics/SVG/1.1/DTD/svg11.dtd">
<svg version="1.1" id="icons" xmlns="http://www.w3.org/2000/svg" xmlns:xlink="http://www.w3.org/1999/xlink" x="0px" y="0px"
	 width="32px" height="32px" viewBox="0 0 32 32" style="enable-background:new 0 0 32 32;" xml:space="preserve">
<style type="text/css">
	.white{fill:#FFFFFF;}
	.grey_01{fill:#F7F7F7;}
	.grey_03{fill:#E3E5E5;}
	.grey_04{fill:#DADDDC;}
	.grey_16{fill:#373F3F;}
	.grey_17{fill:#2B3332;}
	.sand_01{fill:#FFF3D9;}
	.sand_02{fill:#FDEBBB;}
	.sand_03{fill:#FAE09F;}
	.sand_04{fill:#F7D684;}
	.dirt_09{fill:#CFAB81;}
	.dirt_10{fill:#CDA073;}
	.dirt_11{fill:#C09265;}
	.dirt_12{fill:#B38658;}
	.st0{fill:#945BA0;}
	.st1{fill:#B8A5E4;}
	.st2{fill:#C6B7E9;}
	.st3{fill:#D4C9EF;}
	.st4{fill:#E3DBF4;}
	.st5{fill:#B370B9;}
	.st6{fill:#A78EDD;}
	.st7{fill:#A366AD;}
	.st8{fill:#F1EDFA;}
	.st9{fill:#4B7E77;}
	.st10{fill:#56C7CD;}
	.st11{fill:#EB6B48;}
	.st12{fill:#E55F4A;}
	.st13{fill:#FF805D;}
	.st14{fill:#FFD96C;}
	.st15{fill:#F57552;}
	.st16{fill:#FFD04D;}
	.st17{fill:#96643B;}
	.st18{fill:#9E6E43;}
	.st19{fill:#FFE28A;}
	.st20{fill:#FF8D6E;}
	.st21{fill:#4390BF;}
	.st22{fill:#4896C8;}
	.st23{fill:#A7794C;}
	.st24{fill:#8EC0E0;}
	.st25{fill:#9FC9E4;}
	.st26{fill:#7FB8E0;}
	.st27{fill:#D2E6F3;}
	.st28{fill:#E2EFF7;}
	.st29{fill:#C1DDEE;}
	.st30{fill:#EDEEEE;}
	.st31{fill:#DCF2FD;}
	.st32{fill:#51BAC5;}
	.st33{fill:#5BD3D5;}
	.st34{fill:#FFAD68;}
	.st35{fill:#FFB76D;}
	.st36{fill:#FCA15E;}
	.st37{fill:#F0C877;}
	.st38{fill:#FFC172;}
	.st39{fill:#231F20;}
	.st40{fill:#D1D4D4;}
	.st41{fill:#C8CCCB;}
	.st42{fill:#71B1E1;}
	.st43{fill:#B93D4F;}
	.st44{fill:#C84054;}
	.st45{fill:#D84459;}
	.st46{fill:#E85160;}
	.st47{fill:#F9ADC8;}
	.st48{fill:#F8A1C4;}
	.st49{fill:#FAB8CD;}
	.st50{fill:#FBCFD6;}
	.st51{fill:#FAC4D1;}
	.st52{fill:#E55D53;}
	.st53{fill:#D64F45;}
	.st54{fill:#FFA68E;}
	.st55{fill:#FF9A7E;}
	.st56{fill:#2B3332;}
	.st57{fill:#EA8BB4;}
	.st58{fill:#FFF5D8;}
	.st59{fill:#373F3F;}
	.st60{fill:#F297BE;}
	.st61{fill:#FEF1C6;}
	.st62{fill:#FCD2BE;}
	.st63{fill:#FCDDCF;}
	.st64{fill:#F79654;}
	.st65{fill:#EF8C48;}
	.st66{fill:none;}
	.st67{fill:#6673AA;}
	.st68{fill:#7C8AC4;}
	.st69{fill:#8694D1;}
	.st70{fill:#B0D3EA;}
	.st71{fill:#60C46F;}
	.st72{fill:#6CD275;}
	.st73{fill:#54B668;}
	.st74{fill:#84ED82;}
	.st75{fill:#78DF7C;}
	.st76{fill:#A7A9AC;}
	.st77{fill:#FF6B8B;}
	.st78{fill:#FF5F7E;}
	.st79{fill:#D49A87;}
	.st80{fill:#9179C6;}
	.st81{fill:#866EBA;}
	.st82{fill:#7A63AD;}
	.st83{fill:#9D85D3;}
	.st84{fill:#9E86BF;}
	.st85{fill:#FDE2E6;}
	.st86{fill:#FCD8DE;}
	.st87{fill:#E8BA36;}
	.st88{fill:#E0B12E;}
	.st89{fill:#DBA728;}
	.st90{fill:#C27BC6;}
	.st91{fill:#E8803A;}
	.st92{fill:#DD7731;}
	.st93{fill:#FF7899;}
	.st94{fill:#FAC7AF;}
	.st95{fill:#5C699E;}
	.st96{fill:#707EB7;}
	.st97{fill:#F7C845;}
	.st98{fill:#E26447;}
	.st99{fill:#5CA3D5;}
	.st100{fill:#529CCF;}
	.st101{fill:#65A9DC;}
	.st102{fill:#D799D6;}
	.st103{fill:#D285D2;}
	.st104{fill:#E0ABDF;}
	.st105{fill:#FEF8E8;}
	.st106{fill:#4295AC;}
	.st107{fill:#3B8FA3;}
	.st108{fill:#47A1B4;}
	.st109{fill:#8D5B36;}
	.st110{fill:#845331;}
	.st111{fill:#687271;}
	.st112{fill:#505957;}
	.st113{fill:#5C6664;}
	.st114{fill:#838C8A;}
	.st115{fill:#434C4B;}
	.st116{fill:#757F7E;}
	.st117{fill:#909997;}
	.st118{fill:#AADB3D;}
	.st119{fill:#B1E346;}
	.st120{fill:#9ACC2E;}
	.st121{fill:#93C427;}
	.st122{fill:#A2D336;}
	.st123{fill:#4CAEBC;}
	.st124{fill:#111918;}
	.st125{fill:#80C0DF;}
	.st126{fill:#F0C13E;}
	.st127{fill:#9DB5DE;}
	.st128{fill:#515E91;}
	.st129{fill:#495587;}
	.st130{fill:#724D31;}
	.st131{fill:#604631;}
</style>
<g>
	<path class="dirt_10" d="M9.062,8.111L7.313,7.139l-2.896,5.213c-0.668,0.152-1.167,0.746-1.167,1.46c0,0.828,0.672,1.5,1.5,1.5
		s1.5-0.672,1.5-1.5c0-0.171-0.035-0.332-0.087-0.484L9.062,8.111z"/>
	<path class="dirt_11" d="M27.583,12.352l-2.896-5.213l-1.748,0.972l2.898,5.217c-0.052,0.153-0.087,0.314-0.087,0.484
		c0,0.828,0.672,1.5,1.5,1.5s1.5-0.672,1.5-1.5C28.75,13.099,28.25,12.504,27.583,12.352z"/>
	<path class="grey_03" d="M6.354,31c0,0-2.25,0-2.25,1h2.25V31z"/>
	<g>
		<g>
			<path class="sand_01" d="M10.198,18.911c-0.371,1.126-0.663,2.48-0.878,4.066l3.24,1.048c0.201-1.745,0.469-2.986,0.741-3.871
				L10.198,18.911z"/>
		</g>
		<g>
			<path class="sand_01" d="M10.198,18.911c-0.371,1.126-0.663,2.48-0.878,4.066l3.24,1.048c0.201-1.745,0.469-2.986,0.741-3.871
				L10.198,18.911z"/>
		</g>
	</g>
	<g>
		<path class="sand_03" d="M8.871,30.935h3.352c0-1.324,0.031-2.496,0.08-3.564l-3.334-0.396
			C8.907,28.203,8.871,29.514,8.871,30.935z"/>
		<path class="sand_02" d="M9.32,22.978c-0.162,1.197-0.276,2.536-0.351,3.998l3.334,0.396c0.059-1.274,0.146-2.392,0.256-3.346
			L9.32,22.978z"/>
	</g>
	<path class="dirt_11" d="M8.676,5.018C8.617,5.014,8.56,5,8.5,5C7.119,5,6,6.119,6,7.5C6,8.881,7.119,10,8.5,10
		c0.227,0,0.442-0.04,0.651-0.096c0.401,0.935,0.909,1.705,1.302,2.683c0.45,1.12,0.437,2.349-0.022,3.465l-0.962,2.335
		c-0.129,0.314-0.015,0.668,0.28,0.869l3.779,2.566c0.408,0.277,0.991,0.156,1.227-0.254L16,18.833V0C16,0,9.761,0.017,8.676,5.018z
		"/>
	<g>
		<g>
			<path class="sand_01" d="M4.75,13.875L4.75,13.875c-0.145-0.533,0.17-1.082,0.703-1.227l2.445-0.664
				c0.533-0.145,1.082,0.17,1.227,0.703l0,0c0.145,0.533-0.17,1.082-0.703,1.227l-2.445,0.664
				C5.444,14.723,4.895,14.408,4.75,13.875z"/>
		</g>
		<g>
			<path class="sand_01" d="M4.75,13.875L4.75,13.875c-0.145-0.533,0.17-1.082,0.703-1.227l2.445-0.664
				c0.533-0.145,1.082,0.17,1.227,0.703l0,0c0.145,0.533-0.17,1.082-0.703,1.227l-2.445,0.664
				C5.444,14.723,4.895,14.408,4.75,13.875z"/>
		</g>
	</g>
	<path class="dirt_09" d="M11.274,13.018l-0.643,0.179c-0.216,0.061-0.444,0.048-0.623-0.036c-0.028-0.013-0.065-0.041-0.101-0.066
		l1.792-0.499c0.399-0.111,0.633-0.525,0.521-0.924c-0.111-0.399-0.522-0.634-0.924-0.521L9.505,11.65
		c0.018-0.04,0.035-0.083,0.052-0.109c0.109-0.164,0.298-0.292,0.515-0.353l0.643-0.179c0.399-0.111,0.633-0.525,0.521-0.924
		c-0.111-0.398-0.523-0.631-0.924-0.521L9.67,9.743C9.105,9.9,8.623,10.242,8.312,10.705c-0.331,0.492-0.435,1.085-0.283,1.628
		l0.263,0.941c0.151,0.542,0.546,0.997,1.084,1.247c0.306,0.142,0.642,0.214,0.983,0.214c0.225,0,0.451-0.031,0.675-0.093
		l0.643-0.179c0.398-0.111,0.633-0.524,0.521-0.924C12.086,13.141,11.676,12.908,11.274,13.018z"/>
	<path class="dirt_12" d="M6,32h6.714c0,0,0.815-0.742-0.309-2.198S6,28.757,6,32z"/>
	<path class="grey_16" d="M14.806,6.678l-1.419-1.095c-0.048-0.037-0.102-0.065-0.16-0.082l-1.585-0.478
		c-0.357-0.108-0.701,0.2-0.633,0.567l0.29,1.574c0.044,0.236,0.249,0.407,0.489,0.407h2.714
		C14.976,7.569,15.181,6.968,14.806,6.678z"/>
	<path class="white" d="M13.387,5.582c-0.048-0.037-0.102-0.065-0.16-0.082l-1.067-0.322c-0.059,0.17-0.097,0.355-0.097,0.555
		c0,0.735,0.447,1.331,0.999,1.331c0.464,0,0.836-0.43,0.949-1.002L13.387,5.582z"/>
	<path class="grey_16" d="M13.387,5.582c-0.048-0.037-0.102-0.065-0.16-0.082l-0.668-0.201c-0.113,0.119-0.185,0.278-0.185,0.455
		c0,0.368,0.298,0.666,0.666,0.666c0.345,0,0.619-0.265,0.653-0.601L13.387,5.582z"/>
	<path class="grey_04" d="M25.646,31c0,0,2.25,0,2.25,1h-2.25V31z"/>
	<g>
		<g>
			<path class="sand_02" d="M21.802,18.911c0.371,1.126,0.663,2.48,0.878,4.066l-3.24,1.048c-0.201-1.745-0.469-2.986-0.741-3.871
				L21.802,18.911z"/>
		</g>
		<g>
			<path class="sand_02" d="M21.802,18.911c0.371,1.126,0.663,2.48,0.878,4.066l-3.24,1.048c-0.201-1.745-0.469-2.986-0.741-3.871
				L21.802,18.911z"/>
		</g>
	</g>
	<g>
		<path class="sand_04" d="M23.129,30.935h-3.352c0-1.324-0.031-2.496-0.08-3.564l3.334-0.396
			C23.093,28.203,23.129,29.514,23.129,30.935z"/>
		<path class="sand_03" d="M22.68,22.978c0.162,1.197,0.276,2.536,0.351,3.998l-3.334,0.396c-0.059-1.274-0.146-2.392-0.256-3.346
			L22.68,22.978z"/>
	</g>
	<path class="dirt_12" d="M23.5,5c-0.06,0-0.117,0.014-0.176,0.018C22.239,0.017,16,0,16,0v18.833l1.245,2.733
		c0.236,0.41,0.819,0.531,1.227,0.254l3.779-2.566c0.295-0.2,0.409-0.555,0.28-0.869l-0.962-2.335
		c-0.46-1.117-0.472-2.345-0.022-3.465c0.393-0.978,0.901-1.748,1.302-2.683C23.058,9.96,23.273,10,23.5,10
		c1.381,0,2.5-1.119,2.5-2.5C26,6.119,24.881,5,23.5,5z"/>
	<g>
		<g>
			<path class="sand_02" d="M27.25,13.875L27.25,13.875c0.145-0.533-0.17-1.082-0.703-1.227l-2.445-0.664
				c-0.533-0.145-1.082,0.17-1.227,0.703v0c-0.145,0.533,0.17,1.082,0.703,1.227l2.445,0.664
				C26.556,14.723,27.105,14.408,27.25,13.875z"/>
		</g>
		<g>
			<path class="sand_02" d="M27.25,13.875L27.25,13.875c0.145-0.533-0.17-1.082-0.703-1.227l-2.445-0.664
				c-0.533-0.145-1.082,0.17-1.227,0.703v0c-0.145,0.533,0.17,1.082,0.703,1.227l2.445,0.664
				C26.556,14.723,27.105,14.408,27.25,13.875z"/>
		</g>
	</g>
	<path class="dirt_10" d="M23.687,10.705c-0.311-0.463-0.793-0.805-1.357-0.962l-0.643-0.179c-0.4-0.11-0.812,0.123-0.924,0.521
		c-0.111,0.399,0.122,0.813,0.521,0.924l0.643,0.179c0.217,0.061,0.405,0.189,0.515,0.353c0.017,0.025,0.035,0.069,0.052,0.109
		l-1.793-0.499c-0.401-0.112-0.812,0.122-0.924,0.521c-0.111,0.399,0.122,0.812,0.521,0.924l1.792,0.499
		c-0.036,0.025-0.073,0.053-0.101,0.066c-0.179,0.083-0.407,0.097-0.623,0.036l-0.643-0.179c-0.401-0.11-0.812,0.123-0.924,0.521
		c-0.111,0.399,0.123,0.813,0.521,0.924l0.643,0.179c0.224,0.062,0.45,0.093,0.675,0.093c0.342,0,0.678-0.072,0.983-0.214
		c0.538-0.25,0.933-0.705,1.084-1.247l0.263-0.941C24.122,11.79,24.019,11.197,23.687,10.705z"/>
	<path class="dirt_12" d="M26,32h-6.714c0,0-0.815-0.742,0.309-2.198C20.719,28.345,26,28.757,26,32z"/>
	<path class="grey_17" d="M17.194,6.678l1.419-1.095c0.048-0.037,0.102-0.065,0.16-0.082l1.585-0.478
		c0.357-0.108,0.701,0.2,0.633,0.567l-0.29,1.574c-0.044,0.236-0.249,0.407-0.489,0.407h-2.714
		C17.024,7.569,16.819,6.968,17.194,6.678z"/>
	<path class="grey_01" d="M18.613,5.582c0.048-0.037,0.102-0.065,0.16-0.082l1.067-0.322c0.059,0.17,0.097,0.355,0.097,0.555
		c0,0.735-0.447,1.331-0.999,1.331c-0.464,0-0.836-0.43-0.949-1.002L18.613,5.582z"/>
	<path class="grey_17" d="M18.613,5.582c0.048-0.037,0.102-0.065,0.16-0.082l0.668-0.201c0.113,0.119,0.185,0.278,0.185,0.455
		c0,0.368-0.298,0.666-0.666,0.666c-0.345,0-0.619-0.265-0.653-0.601L18.613,5.582z"/>
</g>
</svg>
