<?xml version="1.0" encoding="utf-8"?>
<!-- Generator: Adobe Illustrator 20.1.0, SVG Export Plug-In . SVG Version: 6.00 Build 0)  -->
<!DOCTYPE svg PUBLIC "-//W3C//DTD SVG 1.1//EN" "http://www.w3.org/Graphics/SVG/1.1/DTD/svg11.dtd">
<svg version="1.1" id="icons" xmlns="http://www.w3.org/2000/svg" xmlns:xlink="http://www.w3.org/1999/xlink" x="0px" y="0px"
	 width="32px" height="32px" viewBox="0 0 32 32" style="enable-background:new 0 0 32 32;" xml:space="preserve">
<style type="text/css">
	.white{fill:#FFFFFF;}
	.grey_01{fill:#F7F7F7;}
	.grey_12{fill:#687271;}
	.grey_13{fill:#5C6664;}
	.grey_16{fill:#373F3F;}
	.grey_17{fill:#2B3332;}
	.orchid_03{fill:#D4C9EF;}
	.orchid_04{fill:#C6B7E9;}
	.orchid_05{fill:#B8A5E4;}
	.sand_02{fill:#FDEBBB;}
	.sand_03{fill:#FAE09F;}
	.sand_04{fill:#F7D684;}
	.dirt_10{fill:#CDA073;}
	.dirt_11{fill:#C09265;}
	.dirt_12{fill:#B38658;}
	.dirt_13{fill:#A7794C;}
	.dirt_14{fill:#9E6E43;}
	.dirt_15{fill:#96643B;}
	.dirt_16{fill:#8D5B36;}
	.st0{fill:#945BA0;}
	.st1{fill:#E3DBF4;}
	.st2{fill:#B370B9;}
	.st3{fill:#A78EDD;}
	.st4{fill:#B8A5E4;}
	.st5{fill:#A366AD;}
	.st6{fill:#F1EDFA;}
	.st7{fill:#4B7E77;}
	.st8{fill:#56C7CD;}
	.st9{fill:#EB6B48;}
	.st10{fill:#E55F4A;}
	.st11{fill:#FF805D;}
	.st12{fill:#FFD96C;}
	.st13{fill:#F57552;}
	.st14{fill:#FFD04D;}
	.st15{fill:#FFE28A;}
	.st16{fill:#FF8D6E;}
	.st17{fill:#4390BF;}
	.st18{fill:#4896C8;}
	.st19{fill:#8EC0E0;}
	.st20{fill:#9FC9E4;}
	.st21{fill:#7FB8E0;}
	.st22{fill:#D2E6F3;}
	.st23{fill:#E2EFF7;}
	.st24{fill:#C1DDEE;}
	.st25{fill:#EDEEEE;}
	.st26{fill:#DCF2FD;}
	.st27{fill:#51BAC5;}
	.st28{fill:#5BD3D5;}
	.st29{fill:#FFAD68;}
	.st30{fill:#FFB76D;}
	.st31{fill:#FCA15E;}
	.st32{fill:#F0C877;}
	.st33{fill:#FFF3D9;}
	.st34{fill:#FFC172;}
	.st35{fill:#231F20;}
	.st36{fill:#D1D4D4;}
	.st37{fill:#DADDDC;}
	.st38{fill:#C8CCCB;}
	.st39{fill:#71B1E1;}
	.st40{fill:#B93D4F;}
	.st41{fill:#C84054;}
	.st42{fill:#D84459;}
	.st43{fill:#E85160;}
	.st44{fill:#F9ADC8;}
	.st45{fill:#F8A1C4;}
	.st46{fill:#E3E5E5;}
	.st47{fill:#FAB8CD;}
	.st48{fill:#FBCFD6;}
	.st49{fill:#FAC4D1;}
	.st50{fill:#E55D53;}
	.st51{fill:#D64F45;}
	.st52{fill:#FFA68E;}
	.st53{fill:#FF9A7E;}
	.st54{fill:#2B3332;}
	.st55{fill:#EA8BB4;}
	.st56{fill:#FFF5D8;}
	.st57{fill:#373F3F;}
	.st58{fill:#F297BE;}
	.st59{fill:#FEF1C6;}
	.st60{fill:#FCD2BE;}
	.st61{fill:#FCDDCF;}
	.st62{fill:#F79654;}
	.st63{fill:#EF8C48;}
	.st64{fill:none;}
	.st65{fill:#6673AA;}
	.st66{fill:#7C8AC4;}
	.st67{fill:#8694D1;}
	.st68{fill:#B0D3EA;}
	.st69{fill:#60C46F;}
	.st70{fill:#6CD275;}
	.st71{fill:#54B668;}
	.st72{fill:#84ED82;}
	.st73{fill:#78DF7C;}
	.st74{fill:#A7A9AC;}
	.st75{fill:#FF6B8B;}
	.st76{fill:#FF5F7E;}
	.st77{fill:#D49A87;}
	.st78{fill:#9179C6;}
	.st79{fill:#866EBA;}
	.st80{fill:#7A63AD;}
	.st81{fill:#9D85D3;}
	.st82{fill:#9E86BF;}
	.st83{fill:#FDE2E6;}
	.st84{fill:#FCD8DE;}
	.st85{fill:#E8BA36;}
	.st86{fill:#E0B12E;}
	.st87{fill:#DBA728;}
	.st88{fill:#C27BC6;}
	.st89{fill:#E8803A;}
	.st90{fill:#DD7731;}
	.st91{fill:#FF7899;}
	.st92{fill:#FAC7AF;}
	.st93{fill:#5C699E;}
	.st94{fill:#707EB7;}
	.st95{fill:#F7C845;}
	.st96{fill:#E26447;}
	.st97{fill:#5CA3D5;}
	.st98{fill:#529CCF;}
	.st99{fill:#65A9DC;}
	.st100{fill:#D799D6;}
	.st101{fill:#D285D2;}
	.st102{fill:#E0ABDF;}
	.st103{fill:#FEF8E8;}
	.st104{fill:#4295AC;}
	.st105{fill:#3B8FA3;}
	.st106{fill:#47A1B4;}
	.st107{fill:#845331;}
	.st108{fill:#505957;}
	.st109{fill:#838C8A;}
	.st110{fill:#434C4B;}
	.st111{fill:#757F7E;}
	.st112{fill:#909997;}
	.st113{fill:#AADB3D;}
	.st114{fill:#B1E346;}
	.st115{fill:#9ACC2E;}
	.st116{fill:#93C427;}
	.st117{fill:#A2D336;}
	.st118{fill:#4CAEBC;}
	.st119{fill:#111918;}
	.st120{fill:#80C0DF;}
	.st121{fill:#F0C13E;}
	.st122{fill:#9DB5DE;}
	.st123{fill:#515E91;}
	.st124{fill:#495587;}
	.st125{fill:#CFAB81;}
	.st126{fill:#724D31;}
	.st127{fill:#604631;}
</style>
<g>
	<g>
		<path class="sand_03" d="M18,1.315c0,0,6.032-0.763,6.901,0.085C25.769,2.248,20.665,4,20.665,4L18,1.315z"/>
		<path class="sand_02" d="M14,1.315c0,0-6.032-0.763-6.901,0.085S11.335,4,11.335,4L14,1.315z"/>
		<path class="dirt_16" d="M16,12c0,0,8.333,13.083,15.165,13.083c4.089,0-8.218,4.458-15.165,4.917V12z"/>
		<path class="dirt_15" d="M22.689,17.438c1.576,2.489,3.977,3.767,5.364,2.854c1.387-0.913,1.233-3.67-0.342-6.16
			s-3.977-3.767-5.364-2.854C20.96,12.192,21.113,14.949,22.689,17.438z"/>
		<path class="dirt_14" d="M9.29,17.438c-1.576,2.489-3.977,3.767-5.364,2.854s-1.233-3.67,0.342-6.16s3.977-3.767,5.364-2.854
			C11.019,12.192,10.865,14.949,9.29,17.438z"/>
		<path class="dirt_14" d="M10.393,20.312l-3.466,2.764C6.345,23.538,6,24.291,6,25.094v5.67C6,31.447,6.49,32,7.094,32h5.812
			C13.51,32,14,31.447,14,30.765v-9.529c0-0.701-0.514-1.262-1.134-1.235c-0.663,0.029-1.455,0.064-1.894,0.086
			C10.762,20.097,10.564,20.175,10.393,20.312z"/>
		<path class="dirt_13" d="M12.571,9.539c0,0-4.571,3.731-4.571,9.769C8,28,10.321,30,16,30V9L12.571,9.539z"/>
		<path class="dirt_12" d="M13.907,10.511c-0.014-0.157-0.087-0.299-0.208-0.394c-0.7-0.551-3.238-2.249-5.454,0.072
			c-2.172,2.275-0.938,4.668-0.475,5.392c0.09,0.14,0.238,0.227,0.398,0.241l2.114,0.177c0.34,0.029,0.619-0.279,0.574-0.633
			l-0.121-0.947c-0.021-0.167,0.03-0.334,0.139-0.457l1.381-1.55c0.089-0.1,0.21-0.162,0.34-0.176l0.92-0.094
			c0.294-0.03,0.509-0.303,0.481-0.61L13.907,10.511z"/>
		<path class="dirt_11" d="M16,9.106V12c0,0-5.143-0.313-5.143-3.37S16,9.106,16,9.106z"/>
		<path class="white" d="M12.127,9.539l-0.783-1.591c0,0,2.047-0.055,2,0.016c-0.032,0.048-0.486,0.989-0.768,1.574
			C12.486,9.726,12.219,9.726,12.127,9.539z"/>
		<path class="dirt_10" d="M16,0.024c0,0-2.259-0.26-3.556,0.936s-1.297,2.965-1.297,2.965s-0.24,1.613-0.769,2.185
			c-0.649,0.702-0.505,2.302,0.769,2.237C13.121,8.246,14.414,9.231,16,9.231V0.024z"/>
		<g>
			<g>
				<path class="sand_02" d="M16,14c-3.314,0-6,3.029-6,8c2.375,1.313,6,1.438,6,1.438V14z"/>
			</g>
			<g>
				<path class="sand_02" d="M16,14c-3.314,0-6,3.029-6,8c2.375,1.313,6,1.438,6,1.438V14z"/>
			</g>
		</g>
		<path class="dirt_15" d="M21.607,20.312l3.466,2.764C25.655,23.538,26,24.291,26,25.094v5.67C26,31.447,25.51,32,24.906,32h-5.812
			C18.49,32,18,31.447,18,30.765v-9.529c0-0.701,0.514-1.262,1.134-1.235c0.663,0.029,1.455,0.064,1.894,0.086
			C21.238,20.097,21.436,20.175,21.607,20.312z"/>
		<path class="dirt_14" d="M19.429,9.539c0,0,4.571,3.731,4.571,9.769C24,28,21.679,30,16,30V9L19.429,9.539z"/>
		<path class="dirt_13" d="M18.093,10.511c0.014-0.157,0.087-0.299,0.208-0.394c0.7-0.551,3.238-2.249,5.454,0.072
			c2.172,2.275,0.938,4.668,0.475,5.392c-0.09,0.14-0.238,0.227-0.398,0.241l-2.114,0.177c-0.34,0.029-0.619-0.279-0.574-0.633
			l0.121-0.947c0.021-0.167-0.03-0.334-0.139-0.457l-1.381-1.55c-0.089-0.1-0.21-0.162-0.34-0.176l-0.92-0.094
			c-0.294-0.03-0.509-0.303-0.481-0.61L18.093,10.511z"/>
		<path class="dirt_12" d="M16,9.106V12c0,0,5.143-0.313,5.143-3.37S16,9.106,16,9.106z"/>
		<g>
			<g>
				<path class="sand_03" d="M16,14c3.314,0,6,3.029,6,8c-2.375,1.313-6,1.438-6,1.438V14z"/>
			</g>
			<g>
				<path class="sand_03" d="M16,14c3.314,0,6,3.029,6,8c-2.375,1.313-6,1.438-6,1.438V14z"/>
			</g>
		</g>
		<path class="grey_01" d="M19.873,9.539l0.783-1.591c0,0-2.047-0.055-2,0.016c0.032,0.048,0.486,0.989,0.768,1.574
			C19.514,9.726,19.781,9.726,19.873,9.539z"/>
		<path class="dirt_12" d="M2.876,19.05c-1.435,1.435-0.955,3.093,0.344,4.564c0.19,0.215,0.525,0.224,0.728,0.02l0.195-0.195
			c0.094-0.094,0.146-0.221,0.146-0.354v-1.207h0.914c0.276,0,0.5-0.224,0.5-0.5v-0.914h1.207c0.133,0,0.26-0.053,0.354-0.146
			l0.195-0.195c0.203-0.203,0.195-0.538-0.02-0.728C5.969,18.096,4.311,17.615,2.876,19.05z"/>
		<path class="dirt_13" d="M29.124,19.05c1.435,1.435,0.955,3.093-0.344,4.564c-0.19,0.215-0.525,0.224-0.728,0.02l-0.195-0.195
			c-0.094-0.094-0.146-0.221-0.146-0.354v-1.207h-0.914c-0.276,0-0.5-0.224-0.5-0.5v-0.914h-1.207c-0.133,0-0.26-0.053-0.354-0.146
			l-0.195-0.195c-0.203-0.203-0.195-0.538,0.02-0.728C26.031,18.096,27.689,17.615,29.124,19.05z"/>
		<g>
			<path class="white" d="M12,5.585c0-0.616,0.364-1.328,0.364-1.328l0.314,0.328c-0.137,0.218-0.228,0.528-0.228,0.886
				c0,0.235,0.047,0.441,0.111,0.625C12.246,5.977,12,5.8,12,5.585z"/>
			<path class="white" d="M14,5.964c-0.007,0.162-0.18,0.245-0.414,0.275c0.074-0.156,0.119-0.348,0.141-0.559L14,5.964z"/>
			<path class="dirt_14" d="M12.678,4.585l0.336,0.35c-0.129,0.069-0.225,0.278-0.225,0.536c0,0.314,0.139,0.568,0.311,0.568
				s0.311-0.254,0.311-0.568c0-0.049-0.009-0.092-0.015-0.137l0.331,0.345c-0.021,0.211-0.067,0.403-0.141,0.559
				c-0.299,0.038-0.696-0.017-1.025-0.142c-0.064-0.184-0.111-0.39-0.111-0.625C12.449,5.114,12.541,4.803,12.678,4.585z"/>
			<path class="grey_16" d="M13.411,5.472c0,0.314-0.139,0.568-0.311,0.568s-0.311-0.254-0.311-0.568
				c0-0.258,0.096-0.467,0.225-0.536l0.382,0.399C13.402,5.379,13.411,5.423,13.411,5.472z"/>
		</g>
		<path class="grey_12" d="M14.965,0.024H16V7h-0.562c-0.28,0-0.547-0.114-0.741-0.316l-3.435-3.587
			c0.14-0.618,0.452-1.464,1.182-2.136C13.174,0.287,14.199,0.08,14.965,0.024z"/>
		<g>
			<g>
				<path class="orchid_04" d="M14,22.5c0,1.381,0.895,2.5,2,2.5v-5C14.895,20,14,21.12,14,22.5z"/>
				<path class="orchid_05" d="M18,22.5c0-1.381-0.895-2.5-2-2.5v5C17.105,25,18,23.881,18,22.5z"/>
			</g>
			<path class="sand_03" d="M15.15,17.318l-1.818-0.313c-0.243-0.042-0.42,0.229-0.286,0.44l1.06,1.668L15.15,17.318z"/>
			<path class="orchid_03" d="M13.879,18.552c0,0-0.694,1.995,0.54,2.777C15.653,22.111,16,21.994,16,21.994v-3.208L13.879,18.552z"
				/>
			<circle class="grey_16" cx="14.5" cy="19.786" r="0.5"/>
			<path class="sand_04" d="M16.85,17.318l1.818-0.313c0.243-0.042,0.42,0.229,0.286,0.44l-1.06,1.668L16.85,17.318z"/>
			<path class="orchid_04" d="M18.121,18.552c0,0,0.694,1.995-0.54,2.777C16.347,22.111,16,21.994,16,21.994v-3.208L18.121,18.552z"
				/>
			<circle class="grey_17" cx="17.5" cy="19.786" r="0.5"/>
		</g>
		<path class="sand_03" d="M16,30v-6.563c0,0-3.625-0.125-6-1.438C10,26.971,12.686,30,16,30z"/>
		<path class="sand_04" d="M16,30v-6.563c0,0,3.625-0.125,6-1.438C22,26.971,19.314,30,16,30z"/>
		
			<ellipse transform="matrix(0.2273 -0.9738 0.9738 0.2273 -11.0706 30.9512)" class="orchid_03" cx="13.968" cy="22.452" rx="1.474" ry="0.933"/>
		
			<ellipse transform="matrix(0.9738 -0.2273 0.2273 0.9738 -4.6311 4.6861)" class="orchid_04" cx="18.032" cy="22.452" rx="0.933" ry="1.474"/>
		<path class="dirt_11" d="M16,0.024c0,0,2.259-0.26,3.556,0.936c1.297,1.196,1.297,2.965,1.297,2.965s0.24,1.613,0.769,2.185
			c0.649,0.702,0.505,2.302-0.769,2.237C18.879,8.246,17.586,9.231,16,9.231V0.024z"/>
		<g>
			<path class="grey_01" d="M20,5.585c0-0.616-0.364-1.328-0.364-1.328l-0.314,0.328c0.137,0.218,0.228,0.528,0.228,0.886
				c0,0.235-0.047,0.441-0.111,0.625C19.754,5.977,20,5.8,20,5.585z"/>
			<path class="grey_01" d="M18,5.964c0.007,0.162,0.18,0.245,0.414,0.275c-0.074-0.156-0.119-0.348-0.141-0.559L18,5.964z"/>
			<path class="dirt_15" d="M19.322,4.585l-0.336,0.35c0.129,0.069,0.225,0.278,0.225,0.536c0,0.314-0.139,0.568-0.311,0.568
				s-0.311-0.254-0.311-0.568c0-0.049,0.009-0.092,0.015-0.137L18.273,5.68c0.021,0.211,0.067,0.403,0.141,0.559
				c0.299,0.038,0.696-0.017,1.025-0.142c0.064-0.184,0.111-0.39,0.111-0.625C19.551,5.114,19.459,4.803,19.322,4.585z"/>
			<path class="grey_17" d="M18.589,5.472c0,0.314,0.139,0.568,0.311,0.568s0.311-0.254,0.311-0.568
				c0-0.258-0.096-0.467-0.225-0.536l-0.382,0.399C18.598,5.379,18.589,5.423,18.589,5.472z"/>
		</g>
		<path class="grey_13" d="M17.035,0.024H16V7h0.562c0.28,0,0.547-0.114,0.741-0.316l3.435-3.587
			c-0.14-0.618-0.452-1.464-1.182-2.136C18.825,0.287,17.8,0.08,17.035,0.024z"/>
	</g>
	<g>
		<path class="grey_13" d="M18.159,18.121C17.911,16.608,16,17.065,16,17.065v3.37c0.087,0,0.174-0.023,0.252-0.069
			C16.853,20.015,18.313,19.056,18.159,18.121z"/>
		<path class="grey_12" d="M13.841,18.121c-0.009,0.052-0.01,0.105-0.009,0.157c0,0.011,0,0.023,0.001,0.034
			c0.003,0.051,0.01,0.102,0.021,0.152c0.002,0.008,0.004,0.017,0.006,0.025c0.011,0.046,0.026,0.093,0.043,0.138
			c0.003,0.009,0.006,0.018,0.01,0.027c0.02,0.05,0.044,0.1,0.071,0.15c0.006,0.011,0.012,0.021,0.018,0.032
			c0.027,0.048,0.057,0.096,0.089,0.144c0.002,0.002,0.003,0.005,0.005,0.007c0.034,0.049,0.072,0.098,0.111,0.146
			c0.009,0.011,0.017,0.021,0.026,0.032c0.039,0.047,0.08,0.093,0.122,0.139c0.006,0.006,0.012,0.013,0.018,0.019
			c0.04,0.042,0.081,0.083,0.123,0.123c0.009,0.008,0.017,0.017,0.026,0.025c0.046,0.043,0.093,0.086,0.141,0.128
			c0.01,0.009,0.02,0.017,0.03,0.026c0.046,0.039,0.092,0.078,0.139,0.115c0.004,0.003,0.008,0.006,0.012,0.01
			c0.05,0.04,0.1,0.078,0.15,0.116c0.011,0.008,0.022,0.016,0.033,0.025c0.049,0.036,0.098,0.072,0.146,0.106
			c0.005,0.004,0.011,0.007,0.016,0.011c0.045,0.032,0.089,0.062,0.132,0.091c0.009,0.006,0.018,0.012,0.027,0.018
			c0.045,0.03,0.09,0.059,0.132,0.086c0.009,0.005,0.017,0.011,0.025,0.016c0.038,0.024,0.076,0.047,0.111,0.069
			c0.005,0.003,0.011,0.007,0.016,0.01c0.038,0.023,0.074,0.045,0.108,0.065c0.003,0.002,0.007,0.004,0.01,0.006
			c0.078,0.045,0.164,0.068,0.251,0.068v-3.37C16,17.065,14.089,16.608,13.841,18.121z"/>
	</g>
</g>
</svg>
