<?xml version="1.0" encoding="utf-8"?>
<!-- Generator: Adobe Illustrator 20.1.0, SVG Export Plug-In . SVG Version: 6.00 Build 0)  -->
<!DOCTYPE svg PUBLIC "-//W3C//DTD SVG 1.1//EN" "http://www.w3.org/Graphics/SVG/1.1/DTD/svg11.dtd">
<svg version="1.1" id="icons" xmlns="http://www.w3.org/2000/svg" xmlns:xlink="http://www.w3.org/1999/xlink" x="0px" y="0px"
	 width="32px" height="32px" viewBox="0 0 32 32" style="enable-background:new 0 0 32 32;" xml:space="preserve">
<style type="text/css">
	.white{fill:#FFFFFF;}
	.grey_01{fill:#F7F7F7;}
	.grey_16{fill:#373F3F;}
	.grey_17{fill:#2B3332;}
	.periwinkle_02{fill:#D2E6F3;}
	.periwinkle_03{fill:#C1DDEE;}
	.periwinkle_04{fill:#B0D3EA;}
	.periwinkle_05{fill:#9FC9E4;}
	.tulip_02{fill:#FF6B8B;}
	.tulip_03{fill:#FF5F7E;}
	.sand_01{fill:#FFF3D9;}
	.sand_02{fill:#FDEBBB;}
	.sand_03{fill:#FAE09F;}
	.sand_04{fill:#F7D684;}
	.sand_05{fill:#F0C877;}
	.st0{fill:#945BA0;}
	.st1{fill:#B8A5E4;}
	.st2{fill:#C6B7E9;}
	.st3{fill:#D4C9EF;}
	.st4{fill:#E3DBF4;}
	.st5{fill:#B370B9;}
	.st6{fill:#A78EDD;}
	.st7{fill:#A366AD;}
	.st8{fill:#F1EDFA;}
	.st9{fill:#4B7E77;}
	.st10{fill:#56C7CD;}
	.st11{fill:#EB6B48;}
	.st12{fill:#E55F4A;}
	.st13{fill:#FF805D;}
	.st14{fill:#FFD96C;}
	.st15{fill:#F57552;}
	.st16{fill:#FFD04D;}
	.st17{fill:#96643B;}
	.st18{fill:#9E6E43;}
	.st19{fill:#FFE28A;}
	.st20{fill:#FF8D6E;}
	.st21{fill:#4390BF;}
	.st22{fill:#4896C8;}
	.st23{fill:#A7794C;}
	.st24{fill:#8EC0E0;}
	.st25{fill:#7FB8E0;}
	.st26{fill:#E2EFF7;}
	.st27{fill:#EDEEEE;}
	.st28{fill:#DCF2FD;}
	.st29{fill:#51BAC5;}
	.st30{fill:#5BD3D5;}
	.st31{fill:#FFAD68;}
	.st32{fill:#FFB76D;}
	.st33{fill:#FCA15E;}
	.st34{fill:#FFC172;}
	.st35{fill:#231F20;}
	.st36{fill:#D1D4D4;}
	.st37{fill:#DADDDC;}
	.st38{fill:#C8CCCB;}
	.st39{fill:#71B1E1;}
	.st40{fill:#B93D4F;}
	.st41{fill:#C84054;}
	.st42{fill:#D84459;}
	.st43{fill:#E85160;}
	.st44{fill:#F9ADC8;}
	.st45{fill:#F8A1C4;}
	.st46{fill:#E3E5E5;}
	.st47{fill:#FAB8CD;}
	.st48{fill:#FBCFD6;}
	.st49{fill:#FAC4D1;}
	.st50{fill:#E55D53;}
	.st51{fill:#D64F45;}
	.st52{fill:#FFA68E;}
	.st53{fill:#FF9A7E;}
	.st54{fill:#2B3332;}
	.st55{fill:#EA8BB4;}
	.st56{fill:#FFF5D8;}
	.st57{fill:#373F3F;}
	.st58{fill:#F297BE;}
	.st59{fill:#FEF1C6;}
	.st60{fill:#FCD2BE;}
	.st61{fill:#FCDDCF;}
	.st62{fill:#F79654;}
	.st63{fill:#EF8C48;}
	.st64{fill:none;}
	.st65{fill:#6673AA;}
	.st66{fill:#7C8AC4;}
	.st67{fill:#8694D1;}
	.st68{fill:#60C46F;}
	.st69{fill:#6CD275;}
	.st70{fill:#54B668;}
	.st71{fill:#84ED82;}
	.st72{fill:#78DF7C;}
	.st73{fill:#B38658;}
	.st74{fill:#C09265;}
	.st75{fill:#CDA073;}
	.st76{fill:#A7A9AC;}
	.st77{fill:#D49A87;}
	.st78{fill:#9179C6;}
	.st79{fill:#866EBA;}
	.st80{fill:#7A63AD;}
	.st81{fill:#9D85D3;}
	.st82{fill:#9E86BF;}
	.st83{fill:#FDE2E6;}
	.st84{fill:#FCD8DE;}
	.st85{fill:#E8BA36;}
	.st86{fill:#E0B12E;}
	.st87{fill:#DBA728;}
	.st88{fill:#C27BC6;}
	.st89{fill:#E8803A;}
	.st90{fill:#DD7731;}
	.st91{fill:#FF7899;}
	.st92{fill:#FAC7AF;}
	.st93{fill:#5C699E;}
	.st94{fill:#707EB7;}
	.st95{fill:#F7C845;}
	.st96{fill:#E26447;}
	.st97{fill:#5CA3D5;}
	.st98{fill:#529CCF;}
	.st99{fill:#65A9DC;}
	.st100{fill:#D799D6;}
	.st101{fill:#D285D2;}
	.st102{fill:#E0ABDF;}
	.st103{fill:#FEF8E8;}
	.st104{fill:#4295AC;}
	.st105{fill:#3B8FA3;}
	.st106{fill:#47A1B4;}
	.st107{fill:#8D5B36;}
	.st108{fill:#845331;}
	.st109{fill:#687271;}
	.st110{fill:#505957;}
	.st111{fill:#5C6664;}
	.st112{fill:#838C8A;}
	.st113{fill:#434C4B;}
	.st114{fill:#757F7E;}
	.st115{fill:#909997;}
	.st116{fill:#AADB3D;}
	.st117{fill:#B1E346;}
	.st118{fill:#9ACC2E;}
	.st119{fill:#93C427;}
	.st120{fill:#A2D336;}
	.st121{fill:#4CAEBC;}
	.st122{fill:#111918;}
	.st123{fill:#80C0DF;}
	.st124{fill:#F0C13E;}
	.st125{fill:#9DB5DE;}
	.st126{fill:#515E91;}
	.st127{fill:#495587;}
	.st128{fill:#CFAB81;}
	.st129{fill:#724D31;}
	.st130{fill:#604631;}
</style>
<g>
	<path class="sand_01" d="M5.862,14.389c-1.768,1.906-0.683,8.933,2.049,8.715C10.643,22.886,16,20.985,16,20.985v-2.783
		C16,18.202,7.629,12.483,5.862,14.389z"/>
	<path class="periwinkle_04" d="M16,9v21c0,0-6.181-0.057-7.699-7.25C7,16.583,13.894,12,13.894,8L16,9z"/>
	<path class="sand_02" d="M26.138,14.389C24.371,12.483,16,18.202,16,18.202v2.783c0,0,5.357,1.901,8.089,2.119
		C26.821,23.322,27.906,16.295,26.138,14.389z"/>
	<path class="periwinkle_05" d="M16,9v21c0,0,6.181-0.057,7.699-7.25C25,16.583,18.106,12,18.106,8L16,9z"/>
	<g>
		<path class="sand_02" d="M16,13.186h-2c-0.361,0.599-0.75,1.204-1.144,1.818c-1.168,1.819-2.254,2.925-2.505,4.754
			C12.128,19.273,14.023,19,16,19V13.186z"/>
		<path class="sand_03" d="M21.649,19.759c-0.251-1.829-1.337-2.935-2.505-4.754c-0.394-0.614-0.783-1.22-1.144-1.818h-2V19
			C17.977,19,19.872,19.273,21.649,19.759z"/>
		<path class="sand_03" d="M10.437,22.094c0.157,0.557,0.362,1.042,0.586,1.493C12.604,23.212,14.271,23,16,23v-4
			c-1.977,0-3.872,0.273-5.649,0.759C10.26,20.421,10.271,21.172,10.437,22.094z"/>
		<path class="sand_04" d="M16,23c1.729,0,3.396,0.212,4.977,0.587c0.224-0.451,0.428-0.936,0.586-1.493
			c0.166-0.922,0.178-1.673,0.087-2.335C19.872,19.273,17.977,19,16,19V23z"/>
		<path class="sand_04" d="M11.023,23.587C12.239,26.04,14.311,27,16,27v-4C14.271,23,12.604,23.212,11.023,23.587z"/>
		<path class="sand_05" d="M16,27c1.689,0,3.761-0.96,4.977-3.413C19.396,23.212,17.729,23,16,23V27z"/>
	</g>
	<g>
		<g>
			<path class="periwinkle_04" d="M18,30.062V25.5c0-1.105-0.895-2-2-2v8.562C17.105,32.062,18,31.167,18,30.062z"/>
		</g>
		<g>
			<path class="periwinkle_04" d="M18,30.062V25.5c0-1.105-0.895-2-2-2v8.562C17.105,32.062,18,31.167,18,30.062z"/>
		</g>
	</g>
	<path class="periwinkle_03" d="M14,25.5v4.562c0,1.105,0.895,2,2,2V23.5C14.895,23.5,14,24.395,14,25.5z"/>
	<g>
		<g>
			<path class="periwinkle_05" d="M25.4,15.8c0,0-0.553-0.304-1.354-0.799c-0.81-0.483-1.852-1.176-2.881-1.888
				c-0.51-0.361-1.027-0.714-1.496-1.065c-0.469-0.351-0.92-0.661-1.284-0.957c-0.354-0.309-0.611-0.618-0.767-0.866
				C17.46,9.981,17.4,9.8,17.4,9.8c-0.211-0.639,0.136-1.328,0.775-1.539c0.14-0.046,0.286-0.065,0.425-0.061
				c0,0,0.19,0.007,0.469,0.091c0.282,0.08,0.65,0.24,1.046,0.494c0.386,0.266,0.81,0.613,1.278,0.965
				c0.469,0.352,0.952,0.749,1.441,1.138c0.971,0.788,1.929,1.595,2.619,2.237C26.153,13.754,26.6,14.2,26.6,14.2
				c0.395,0.394,0.396,1.033,0.002,1.428C26.277,15.954,25.784,16.011,25.4,15.8z"/>
		</g>
		<g>
			<path class="periwinkle_05" d="M25.4,15.8c0,0-0.553-0.304-1.354-0.799c-0.81-0.483-1.852-1.176-2.881-1.888
				c-0.51-0.361-1.027-0.714-1.496-1.065c-0.469-0.351-0.92-0.661-1.284-0.957c-0.354-0.309-0.611-0.618-0.767-0.866
				C17.46,9.981,17.4,9.8,17.4,9.8c-0.211-0.639,0.136-1.328,0.775-1.539c0.14-0.046,0.286-0.065,0.425-0.061
				c0,0,0.19,0.007,0.469,0.091c0.282,0.08,0.65,0.24,1.046,0.494c0.386,0.266,0.81,0.613,1.278,0.965
				c0.469,0.352,0.952,0.749,1.441,1.138c0.971,0.788,1.929,1.595,2.619,2.237C26.153,13.754,26.6,14.2,26.6,14.2
				c0.395,0.394,0.396,1.033,0.002,1.428C26.277,15.954,25.784,16.011,25.4,15.8z"/>
		</g>
	</g>
	<g>
		<g>
			<path class="periwinkle_05" d="M26.6,1.8c0,0-0.447,0.446-1.146,1.076c-0.69,0.642-1.648,1.449-2.619,2.237
				c-0.49,0.389-0.973,0.786-1.441,1.138c-0.468,0.352-0.892,0.699-1.278,0.965c-0.396,0.254-0.764,0.413-1.046,0.494
				C18.79,7.793,18.6,7.8,18.6,7.8c-0.673,0.024-1.237-0.502-1.261-1.175C17.334,6.478,17.357,6.332,17.4,6.2
				c0,0,0.06-0.181,0.219-0.425c0.156-0.248,0.412-0.557,0.767-0.866c0.364-0.296,0.815-0.606,1.284-0.957
				c0.469-0.351,0.986-0.704,1.496-1.065c1.029-0.712,2.071-1.405,2.881-1.888C24.847,0.504,25.4,0.2,25.4,0.2
				c0.489-0.269,1.103-0.091,1.372,0.398C26.994,1.001,26.91,1.49,26.6,1.8z"/>
		</g>
		<g>
			<path class="periwinkle_05" d="M26.6,1.8c0,0-0.447,0.446-1.146,1.076c-0.69,0.642-1.648,1.449-2.619,2.237
				c-0.49,0.389-0.973,0.786-1.441,1.138c-0.468,0.352-0.892,0.699-1.278,0.965c-0.396,0.254-0.764,0.413-1.046,0.494
				C18.79,7.793,18.6,7.8,18.6,7.8c-0.673,0.024-1.237-0.502-1.261-1.175C17.334,6.478,17.357,6.332,17.4,6.2
				c0,0,0.06-0.181,0.219-0.425c0.156-0.248,0.412-0.557,0.767-0.866c0.364-0.296,0.815-0.606,1.284-0.957
				c0.469-0.351,0.986-0.704,1.496-1.065c1.029-0.712,2.071-1.405,2.881-1.888C24.847,0.504,25.4,0.2,25.4,0.2
				c0.489-0.269,1.103-0.091,1.372,0.398C26.994,1.001,26.91,1.49,26.6,1.8z"/>
		</g>
	</g>
	<g>
		<g>
			<path class="periwinkle_05" d="M17,6l12,1c0.552,0.046,0.963,0.531,0.917,1.083C29.875,8.579,29.48,8.96,29,9l-12,1
				c-1.105,0.092-2.075-0.729-2.167-1.833C14.741,7.062,15.562,6.092,16.667,6C16.776,5.991,16.894,5.992,17,6z"/>
		</g>
		<g>
			<path class="periwinkle_05" d="M17,6l12,1c0.552,0.046,0.963,0.531,0.917,1.083C29.875,8.579,29.48,8.96,29,9l-12,1
				c-1.105,0.092-2.075-0.729-2.167-1.833C14.741,7.062,15.562,6.092,16.667,6C16.776,5.991,16.894,5.992,17,6z"/>
		</g>
	</g>
	<g>
		<g>
			<path class="periwinkle_04" d="M5.4,14.2c0,0,0.447-0.446,1.146-1.076c0.69-0.642,1.648-1.449,2.619-2.237
				c0.49-0.389,0.973-0.786,1.441-1.138c0.468-0.352,0.892-0.699,1.278-0.965c0.396-0.254,0.764-0.413,1.046-0.494
				C13.21,8.207,13.4,8.2,13.4,8.2c0.673-0.024,1.237,0.502,1.261,1.175C14.666,9.522,14.643,9.668,14.6,9.8
				c0,0-0.06,0.181-0.219,0.425c-0.156,0.248-0.412,0.557-0.767,0.866c-0.364,0.296-0.815,0.606-1.284,0.957
				c-0.469,0.351-0.986,0.704-1.496,1.065c-1.029,0.712-2.071,1.405-2.881,1.888C7.153,15.496,6.6,15.8,6.6,15.8
				c-0.489,0.269-1.103,0.091-1.372-0.398C5.006,14.999,5.09,14.51,5.4,14.2z"/>
		</g>
		<g>
			<path class="periwinkle_04" d="M5.4,14.2c0,0,0.447-0.446,1.146-1.076c0.69-0.642,1.648-1.449,2.619-2.237
				c0.49-0.389,0.973-0.786,1.441-1.138c0.468-0.352,0.892-0.699,1.278-0.965c0.396-0.254,0.764-0.413,1.046-0.494
				C13.21,8.207,13.4,8.2,13.4,8.2c0.673-0.024,1.237,0.502,1.261,1.175C14.666,9.522,14.643,9.668,14.6,9.8
				c0,0-0.06,0.181-0.219,0.425c-0.156,0.248-0.412,0.557-0.767,0.866c-0.364,0.296-0.815,0.606-1.284,0.957
				c-0.469,0.351-0.986,0.704-1.496,1.065c-1.029,0.712-2.071,1.405-2.881,1.888C7.153,15.496,6.6,15.8,6.6,15.8
				c-0.489,0.269-1.103,0.091-1.372-0.398C5.006,14.999,5.09,14.51,5.4,14.2z"/>
		</g>
	</g>
	<g>
		<g>
			<path class="periwinkle_04" d="M6.6,0.2c0,0,0.553,0.304,1.354,0.799c0.81,0.483,1.852,1.176,2.881,1.888
				c0.51,0.361,1.027,0.714,1.496,1.065c0.469,0.351,0.92,0.661,1.284,0.957c0.354,0.309,0.611,0.618,0.767,0.866
				C14.54,6.019,14.6,6.2,14.6,6.2c0.211,0.639-0.136,1.328-0.775,1.539C13.686,7.785,13.539,7.804,13.4,7.8
				c0,0-0.19-0.007-0.469-0.091c-0.282-0.08-0.65-0.24-1.046-0.494c-0.386-0.266-0.81-0.613-1.278-0.965
				c-0.469-0.352-0.952-0.749-1.441-1.138C8.194,4.324,7.237,3.517,6.546,2.876C5.847,2.246,5.4,1.8,5.4,1.8
				C5.005,1.406,5.004,0.767,5.398,0.372C5.723,0.046,6.216-0.011,6.6,0.2z"/>
		</g>
		<g>
			<path class="periwinkle_04" d="M6.6,0.2c0,0,0.553,0.304,1.354,0.799c0.81,0.483,1.852,1.176,2.881,1.888
				c0.51,0.361,1.027,0.714,1.496,1.065c0.469,0.351,0.92,0.661,1.284,0.957c0.354,0.309,0.611,0.618,0.767,0.866
				C14.54,6.019,14.6,6.2,14.6,6.2c0.211,0.639-0.136,1.328-0.775,1.539C13.686,7.785,13.539,7.804,13.4,7.8
				c0,0-0.19-0.007-0.469-0.091c-0.282-0.08-0.65-0.24-1.046-0.494c-0.386-0.266-0.81-0.613-1.278-0.965
				c-0.469-0.352-0.952-0.749-1.441-1.138C8.194,4.324,7.237,3.517,6.546,2.876C5.847,2.246,5.4,1.8,5.4,1.8
				C5.005,1.406,5.004,0.767,5.398,0.372C5.723,0.046,6.216-0.011,6.6,0.2z"/>
		</g>
	</g>
	<g>
		<g>
			<path class="periwinkle_04" d="M15,10L3,9C2.448,8.954,2.037,8.469,2.083,7.917C2.125,7.421,2.52,7.04,3,7l12-1
				c1.105-0.092,2.075,0.729,2.167,1.833c0.092,1.105-0.729,2.075-1.833,2.167C15.224,10.009,15.106,10.008,15,10z"/>
		</g>
		<g>
			<path class="periwinkle_04" d="M15,10L3,9C2.448,8.954,2.037,8.469,2.083,7.917C2.125,7.421,2.52,7.04,3,7l12-1
				c1.105-0.092,2.075,0.729,2.167,1.833c0.092,1.105-0.729,2.075-1.833,2.167C15.224,10.009,15.106,10.008,15,10z"/>
		</g>
	</g>
	<g>
		<path class="periwinkle_03" d="M9,7c0,3.866,3.134,7,7,7V0C12.134,0,9,3.134,9,7z"/>
		<path class="periwinkle_04" d="M23,7c0-3.866-3.134-7-7-7v14C19.866,14,23,10.866,23,7z"/>
	</g>
	<g>
		<path class="grey_16" d="M13,13c0,1.654,1.346,3,3,3v-6C14.346,10,13,11.346,13,13z"/>
		<path class="periwinkle_02" d="M13,13c0-1.654,1.346-3,3-3V8c-2.761,0-5,2.239-5,5s2.239,5,5,5v-2C14.346,16,13,14.654,13,13z"/>
		<path class="grey_17" d="M19,13c0-1.654-1.346-3-3-3v6C17.654,16,19,14.654,19,13z"/>
		<path class="periwinkle_03" d="M21,13c0-2.761-2.239-5-5-5v2c1.654,0,3,1.346,3,3c0,1.654-1.346,3-3,3v2
			C18.761,18,21,15.761,21,13z"/>
	</g>
	<g>
		<g>
			<path class="tulip_02" d="M11.875,7.062c0-0.846,0.539-1.531,1.203-1.531c0.205,0,0.395,0.071,0.564,0.187
				C13.862,6.066,14,6.509,14,7c0,0.6-0.202,1.131-0.515,1.498c-0.128,0.059-0.263,0.096-0.407,0.096
				C12.414,8.594,11.875,7.908,11.875,7.062z"/>
			<path class="white" d="M12.5,5c0.46,0,0.867,0.283,1.142,0.718c-0.169-0.115-0.359-0.187-0.564-0.187
				c-0.664,0-1.203,0.686-1.203,1.531c0,0.846,0.539,1.531,1.203,1.531c0.143,0,0.279-0.037,0.407-0.096
				C13.221,8.807,12.879,9,12.5,9C11.672,9,11,8.105,11,7C11,5.895,11.672,5,12.5,5z"/>
		</g>
		<ellipse class="grey_16" cx="12.922" cy="7.078" rx="0.328" ry="0.641"/>
	</g>
	<g>
		<g>
			<path class="tulip_03" d="M20.125,7.062c0-0.846-0.539-1.531-1.203-1.531c-0.205,0-0.395,0.071-0.564,0.187
				C18.138,6.066,18,6.509,18,7c0,0.6,0.202,1.131,0.515,1.498c0.128,0.059,0.263,0.096,0.407,0.096
				C19.586,8.594,20.125,7.908,20.125,7.062z"/>
			<path class="grey_01" d="M19.5,5c-0.46,0-0.867,0.283-1.142,0.718c0.169-0.115,0.359-0.187,0.564-0.187
				c0.664,0,1.203,0.686,1.203,1.531c0,0.846-0.539,1.531-1.203,1.531c-0.143,0-0.279-0.037-0.407-0.096
				C18.779,8.807,19.121,9,19.5,9C20.328,9,21,8.105,21,7C21,5.895,20.328,5,19.5,5z"/>
		</g>
		<ellipse class="grey_17" cx="19.078" cy="7.078" rx="0.328" ry="0.641"/>
	</g>
</g>
</svg>
