<?xml version="1.0" encoding="utf-8"?>
<!-- Generator: Adobe Illustrator 20.1.0, SVG Export Plug-In . SVG Version: 6.00 Build 0)  -->
<!DOCTYPE svg PUBLIC "-//W3C//DTD SVG 1.1//EN" "http://www.w3.org/Graphics/SVG/1.1/DTD/svg11.dtd">
<svg version="1.1" id="icons" xmlns="http://www.w3.org/2000/svg" xmlns:xlink="http://www.w3.org/1999/xlink" x="0px" y="0px"
	 width="32px" height="32px" viewBox="0 0 32 32" style="enable-background:new 0 0 32 32;" xml:space="preserve">
<style type="text/css">
	.poppy_02{fill:#E55D53;}
	.poppy_03{fill:#D64F45;}
	.lemon_05{fill:#FFD96C;}
	.lemon_06{fill:#FFD04D;}
	.lemon_09{fill:#E8BA36;}
	.lemon_10{fill:#E0B12E;}
	.lemon_11{fill:#DBA728;}
	.st0{fill:#945BA0;}
	.st1{fill:#B8A5E4;}
	.st2{fill:#C6B7E9;}
	.st3{fill:#D4C9EF;}
	.st4{fill:#E3DBF4;}
	.st5{fill:#B370B9;}
	.st6{fill:#A78EDD;}
	.st7{fill:#A366AD;}
	.st8{fill:#F1EDFA;}
	.st9{fill:#4B7E77;}
	.st10{fill:#56C7CD;}
	.st11{fill:#F7F7F7;}
	.st12{fill:#2B3332;}
	.st13{fill:#FFFFFF;}
	.st14{fill:#373F3F;}
	.st15{fill:#EB6B48;}
	.st16{fill:#E55F4A;}
	.st17{fill:#FF805D;}
	.st18{fill:#F57552;}
	.st19{fill:#96643B;}
	.st20{fill:#9E6E43;}
	.st21{fill:#FFE28A;}
	.st22{fill:#FF8D6E;}
	.st23{fill:#4390BF;}
	.st24{fill:#4896C8;}
	.st25{fill:#A7794C;}
	.st26{fill:#8EC0E0;}
	.st27{fill:#9FC9E4;}
	.st28{fill:#7FB8E0;}
	.st29{fill:#D2E6F3;}
	.st30{fill:#E2EFF7;}
	.st31{fill:#C1DDEE;}
	.st32{fill:#EDEEEE;}
	.st33{fill:#DCF2FD;}
	.st34{fill:#51BAC5;}
	.st35{fill:#5BD3D5;}
	.st36{fill:#FFAD68;}
	.st37{fill:#FFB76D;}
	.st38{fill:#FCA15E;}
	.st39{fill:#F7D684;}
	.st40{fill:#F0C877;}
	.st41{fill:#FAE09F;}
	.st42{fill:#FDEBBB;}
	.st43{fill:#FFF3D9;}
	.st44{fill:#FFC172;}
	.st45{fill:#231F20;}
	.st46{fill:#D1D4D4;}
	.st47{fill:#DADDDC;}
	.st48{fill:#C8CCCB;}
	.st49{fill:#71B1E1;}
	.st50{fill:#B93D4F;}
	.st51{fill:#C84054;}
	.st52{fill:#D84459;}
	.st53{fill:#E85160;}
	.st54{fill:#F9ADC8;}
	.st55{fill:#F8A1C4;}
	.st56{fill:#E3E5E5;}
	.st57{fill:#FAB8CD;}
	.st58{fill:#FBCFD6;}
	.st59{fill:#FAC4D1;}
	.st60{fill:#FFA68E;}
	.st61{fill:#FF9A7E;}
	.st62{fill:#EA8BB4;}
	.st63{fill:#FFF5D8;}
	.st64{fill:#F297BE;}
	.st65{fill:#FEF1C6;}
	.st66{fill:#FCD2BE;}
	.st67{fill:#FCDDCF;}
	.st68{fill:#F79654;}
	.st69{fill:#EF8C48;}
	.st70{fill:none;}
	.st71{fill:#6673AA;}
	.st72{fill:#7C8AC4;}
	.st73{fill:#8694D1;}
	.st74{fill:#B0D3EA;}
	.st75{fill:#60C46F;}
	.st76{fill:#6CD275;}
	.st77{fill:#54B668;}
	.st78{fill:#84ED82;}
	.st79{fill:#78DF7C;}
	.st80{fill:#B38658;}
	.st81{fill:#C09265;}
	.st82{fill:#CDA073;}
	.st83{fill:#A7A9AC;}
	.st84{fill:#FF6B8B;}
	.st85{fill:#FF5F7E;}
	.st86{fill:#D49A87;}
	.st87{fill:#9179C6;}
	.st88{fill:#866EBA;}
	.st89{fill:#7A63AD;}
	.st90{fill:#9D85D3;}
	.st91{fill:#9E86BF;}
	.st92{fill:#FDE2E6;}
	.st93{fill:#FCD8DE;}
	.st94{fill:#C27BC6;}
	.st95{fill:#E8803A;}
	.st96{fill:#DD7731;}
	.st97{fill:#FF7899;}
	.st98{fill:#FAC7AF;}
	.st99{fill:#5C699E;}
	.st100{fill:#707EB7;}
	.st101{fill:#F7C845;}
	.st102{fill:#E26447;}
	.st103{fill:#5CA3D5;}
	.st104{fill:#529CCF;}
	.st105{fill:#65A9DC;}
	.st106{fill:#D799D6;}
	.st107{fill:#D285D2;}
	.st108{fill:#E0ABDF;}
	.st109{fill:#FEF8E8;}
	.st110{fill:#4295AC;}
	.st111{fill:#3B8FA3;}
	.st112{fill:#47A1B4;}
	.st113{fill:#8D5B36;}
	.st114{fill:#845331;}
	.st115{fill:#687271;}
	.st116{fill:#505957;}
	.st117{fill:#5C6664;}
	.st118{fill:#838C8A;}
	.st119{fill:#434C4B;}
	.st120{fill:#757F7E;}
	.st121{fill:#909997;}
	.st122{fill:#AADB3D;}
	.st123{fill:#B1E346;}
	.st124{fill:#9ACC2E;}
	.st125{fill:#93C427;}
	.st126{fill:#A2D336;}
	.st127{fill:#4CAEBC;}
	.st128{fill:#111918;}
	.st129{fill:#80C0DF;}
	.st130{fill:#E8BA36;}
	.st131{fill:#F0C13E;}
	.st132{fill:#9DB5DE;}
	.st133{fill:#515E91;}
	.st134{fill:#495587;}
	.st135{fill:#CFAB81;}
	.st136{fill:#724D31;}
	.st137{fill:#604631;}
</style>
<g>
	<g>
		<path class="lemon_09" d="M16,1c-0.394,0-0.788,0.215-0.991,0.645L11.23,9.666c-0.161,0.342-0.472,0.578-0.832,0.633L16,17.224V1z
			"/>
		<path class="lemon_09" d="M1.047,12.419c-0.103,0.383-0.028,0.819,0.288,1.141l6.115,6.243c0.26,0.266,0.379,0.649,0.318,1.025
			l-1.443,8.816c-0.076,0.462,0.114,0.867,0.42,1.112L16,17.224L1.047,12.419z"/>
		<path class="lemon_10" d="M21.602,10.299c-0.36-0.055-0.671-0.292-0.832-0.633l-3.779-8.021C16.788,1.215,16.394,1,16,1v16.224
			L21.602,10.299z"/>
		<path class="lemon_10" d="M25.196,30.799c0.341-0.238,0.561-0.664,0.48-1.155l-1.443-8.816c-0.061-0.376,0.057-0.759,0.318-1.025
			l6.115-6.243c0.316-0.322,0.391-0.759,0.288-1.141L16,17.224L25.196,30.799z"/>
		<path class="lemon_11" d="M30.053,11.586l-8.45-1.286L16,17.224l14.953-4.805C30.842,12.007,30.523,11.657,30.053,11.586z"/>
		<path class="lemon_11" d="M10.398,10.299l-8.45,1.286c-0.47,0.072-0.789,0.421-0.9,0.833L16,17.224L10.398,10.299z"/>
		<path class="lemon_11" d="M16,26.569c0.177,0,0.353,0.044,0.514,0.133l7.558,4.162c0.389,0.214,0.808,0.155,1.123-0.065L16,17.224
			V26.569z"/>
		<path class="lemon_11" d="M7.928,30.864l7.558-4.162c0.161-0.089,0.338-0.133,0.514-0.133v-9.345L6.744,30.756
			C7.064,31.013,7.513,31.093,7.928,30.864z"/>
	</g>
	<path class="lemon_06" d="M23.75,16h-1.84c-0.153-0.911-0.509-1.751-1.023-2.473l1.3-1.3c0.098-0.098,0.098-0.256,0-0.354
		l-1.061-1.061c-0.098-0.098-0.256-0.098-0.354,0l-1.3,1.3C18.492,11.415,17.296,11,16,11v12c1.296,0,2.492-0.415,3.473-1.113
		l1.3,1.3c0.098,0.098,0.256,0.098,0.354,0l1.061-1.061c0.098-0.098,0.098-0.256,0-0.354l-1.3-1.3
		c0.514-0.722,0.87-1.562,1.023-2.473h1.84c0.138,0,0.25-0.112,0.25-0.25v-1.5C24,16.112,23.888,16,23.75,16z"/>
	<path class="lemon_05" d="M16,11c-1.296,0-2.492,0.415-3.473,1.113l-1.3-1.3c-0.098-0.098-0.256-0.098-0.354,0l-1.061,1.061
		c-0.098,0.098-0.098,0.256,0,0.354l1.3,1.3c-0.514,0.722-0.87,1.562-1.023,2.473H8.25C8.112,16,8,16.112,8,16.25v1.5
		C8,17.888,8.112,18,8.25,18h1.84c0.153,0.911,0.509,1.751,1.023,2.473l-1.3,1.3c-0.098,0.098-0.098,0.256,0,0.354l1.061,1.061
		c0.098,0.098,0.256,0.098,0.354,0l1.3-1.3C13.508,22.585,14.704,23,16,23V11z"/>
	<g>
		<path class="poppy_03" d="M20,17c0-2.209-1.791-4-4-4v8C18.209,21,20,19.209,20,17z"/>
		<path class="poppy_02" d="M12,17c0,2.209,1.791,4,4,4v-8C13.791,13,12,14.791,12,17z"/>
	</g>
</g>
</svg>
