<?xml version="1.0" encoding="utf-8"?>
<!-- Generator: Adobe Illustrator 20.1.0, SVG Export Plug-In . SVG Version: 6.00 Build 0)  -->
<!DOCTYPE svg PUBLIC "-//W3C//DTD SVG 1.1//EN" "http://www.w3.org/Graphics/SVG/1.1/DTD/svg11.dtd">
<svg version="1.1" xmlns="http://www.w3.org/2000/svg" xmlns:xlink="http://www.w3.org/1999/xlink" x="0px" y="0px" width="32px"
	 height="32px" viewBox="0 0 32 32" enable-background="new 0 0 32 32" xml:space="preserve">
<g id="labels">
</g>
<g id="icons">
	<g>
		<g>
			<path fill="#A366AD" d="M1.335,18.858c-0.316,0.312-0.391,0.733-0.288,1.103c0.111,0.399,0.43,0.736,0.9,0.806l8.45,1.243
				c0.36,0.053,0.671,0.282,0.832,0.612l3.779,7.754C15.212,30.792,15.606,31,16,31V15.316V6.282c-0.177,0-0.353-0.043-0.514-0.129
				L7.928,2.13C7.538,1.923,7.12,1.98,6.804,2.193c-0.341,0.23-0.561,0.642-0.48,1.117l1.443,8.522
				c0.061,0.363-0.057,0.733-0.318,0.991L1.335,18.858z"/>
			<path fill="#945BA0" d="M16.991,30.376l3.779-7.754c0.161-0.33,0.472-0.559,0.832-0.612l8.45-1.243
				c0.47-0.069,0.789-0.407,0.9-0.806c0.103-0.37,0.028-0.792-0.288-1.103l-6.115-6.035c-0.26-0.257-0.379-0.628-0.318-0.991
				l1.443-8.522c0.076-0.446-0.114-0.839-0.42-1.075c-0.32-0.248-0.769-0.325-1.184-0.104l-7.558,4.024
				C16.353,6.239,16.177,6.282,16,6.282v9.034V31C16.394,31,16.788,30.792,16.991,30.376z"/>
		</g>
		<g>
			<path fill="#C27BC6" d="M16,1c-0.394,0-0.788,0.215-0.991,0.645L11.23,9.666c-0.161,0.342-0.472,0.578-0.832,0.633L16,17.224V1z"
				/>
			<path fill="#C27BC6" d="M1.047,12.419c-0.103,0.383-0.028,0.819,0.288,1.141l6.115,6.243c0.26,0.266,0.379,0.649,0.318,1.025
				l-1.443,8.816c-0.076,0.462,0.114,0.867,0.42,1.112L16,17.224L1.047,12.419z"/>
			<path fill="#B370B9" d="M21.602,10.299c-0.36-0.055-0.671-0.292-0.832-0.633l-3.779-8.021C16.788,1.215,16.394,1,16,1v16.224
				L21.602,10.299z"/>
			<path fill="#B370B9" d="M25.196,30.799c0.341-0.238,0.561-0.664,0.48-1.155l-1.443-8.816c-0.061-0.376,0.057-0.759,0.318-1.025
				l6.115-6.243c0.316-0.322,0.391-0.759,0.288-1.141L16,17.224L25.196,30.799z"/>
			<path fill="#A366AD" d="M30.053,11.586l-8.45-1.286L16,17.224l14.953-4.805C30.842,12.007,30.523,11.657,30.053,11.586z"/>
			<path fill="#B370B9" d="M10.398,10.299l-8.45,1.286c-0.47,0.072-0.789,0.421-0.9,0.833L16,17.224L10.398,10.299z"/>
			<path fill="#A366AD" d="M16,26.569c0.177,0,0.353,0.044,0.514,0.133l7.558,4.162c0.389,0.214,0.808,0.155,1.123-0.065L16,17.224
				V26.569z"/>
			<path fill="#B370B9" d="M7.928,30.864l7.558-4.162c0.161-0.089,0.338-0.133,0.514-0.133v-9.345L6.744,30.756
				C7.064,31.013,7.513,31.093,7.928,30.864z"/>
		</g>
		<g>
			<path fill="#FFD96C" d="M15.25,8C15.112,8,15,8.112,15,8.25V11h-1.071c-0.265,0-0.52,0.105-0.707,0.293l-0.757,0.757
				l-1.945-1.945c-0.098-0.098-0.256-0.098-0.354,0l-1.061,1.061c-0.098,0.098-0.098,0.256,0,0.354l1.945,1.945l-0.757,0.757
				C10.105,14.409,10,14.664,10,14.929V16H7.25C7.112,16,7,16.112,7,16.25v1.5C7,17.888,7.112,18,7.25,18H10v1.071
				c0,0.265,0.105,0.52,0.293,0.707l0.757,0.757L9.106,22.48c-0.098,0.098-0.098,0.256,0,0.354l1.061,1.061
				c0.098,0.098,0.256,0.098,0.354,0l1.945-1.945l0.757,0.757C13.409,22.895,13.664,23,13.929,23H15v2.75
				c0,0.138,0.112,0.25,0.25,0.25H16v-5v-8V8H15.25z"/>
			<path fill="#FFD04D" d="M24.75,16H22v-1.071c0-0.265-0.105-0.52-0.293-0.707l-0.757-0.757l1.945-1.945
				c0.098-0.098,0.098-0.256,0-0.354l-1.061-1.061c-0.098-0.098-0.256-0.098-0.354,0l-1.945,1.945l-0.757-0.757
				C18.591,11.105,18.336,11,18.071,11H17V8.25C17,8.112,16.888,8,16.75,8H16v5v8v5h0.75c0.138,0,0.25-0.112,0.25-0.25V23h1.071
				c0.265,0,0.52-0.105,0.707-0.293l0.757-0.757l1.945,1.945c0.098,0.098,0.256,0.098,0.354,0l1.061-1.061
				c0.098-0.098,0.098-0.256,0-0.354l-1.945-1.945l0.757-0.757C21.895,19.591,22,19.336,22,19.071V18h2.75
				c0.138,0,0.25-0.112,0.25-0.25v-1.5C25,16.112,24.888,16,24.75,16z"/>
		</g>
		<g>
			<path fill="#E8803A" d="M14.197,13.146l-2.05,2.05C12.053,15.29,12,15.418,12,15.55v2.9c0,0.133,0.053,0.26,0.146,0.354
				l2.05,2.05C14.29,20.947,14.418,21,14.55,21H16v-8h-1.45C14.418,13,14.29,13.053,14.197,13.146z"/>
			<path fill="#DD7731" d="M20,18.45v-2.9c0-0.133-0.053-0.26-0.146-0.354l-2.05-2.05C17.71,13.053,17.582,13,17.45,13H16v8h1.45
				c0.133,0,0.26-0.053,0.354-0.146l2.05-2.05C19.947,18.71,20,18.582,20,18.45z"/>
		</g>
	</g>
</g>
<g id="notes" display="none">
</g>
</svg>
