<?xml version="1.0" encoding="utf-8"?>
<!-- Generator: Adobe Illustrator 20.1.0, SVG Export Plug-In . SVG Version: 6.00 Build 0)  -->
<!DOCTYPE svg PUBLIC "-//W3C//DTD SVG 1.1//EN" "http://www.w3.org/Graphics/SVG/1.1/DTD/svg11.dtd">
<svg version="1.1" id="icons" xmlns="http://www.w3.org/2000/svg" xmlns:xlink="http://www.w3.org/1999/xlink" x="0px" y="0px"
	 width="32px" height="32px" viewBox="0 0 32 32" style="enable-background:new 0 0 32 32;" xml:space="preserve">
<style type="text/css">
	.white{fill:#FFFFFF;}
	.grey_01{fill:#F7F7F7;}
	.grey_03{fill:#E3E5E5;}
	.grey_04{fill:#DADDDC;}
	.grey_05{fill:#D1D4D4;}
	.grey_16{fill:#373F3F;}
	.grey_17{fill:#2B3332;}
	.grape_07{fill:#B370B9;}
	.grape_08{fill:#A366AD;}
	.grape_09{fill:#945BA0;}
	.rose_08{fill:#F9ADC8;}
	.rose_09{fill:#F8A1C4;}
	.tulip_05{fill:#E85160;}
	.tulip_06{fill:#D84459;}
	.tulip_07{fill:#C84054;}
	.tulip_08{fill:#B93D4F;}
	.lemon_05{fill:#FFD96C;}
	.lemon_06{fill:#FFD04D;}
	.sand_03{fill:#FAE09F;}
	.sand_04{fill:#F7D684;}
	.st0{fill:#B8A5E4;}
	.st1{fill:#C6B7E9;}
	.st2{fill:#D4C9EF;}
	.st3{fill:#E3DBF4;}
	.st4{fill:#A78EDD;}
	.st5{fill:#F1EDFA;}
	.st6{fill:#4B7E77;}
	.st7{fill:#56C7CD;}
	.st8{fill:#EB6B48;}
	.st9{fill:#E55F4A;}
	.st10{fill:#FF805D;}
	.st11{fill:#F57552;}
	.st12{fill:#96643B;}
	.st13{fill:#9E6E43;}
	.st14{fill:#FFE28A;}
	.st15{fill:#FF8D6E;}
	.st16{fill:#4390BF;}
	.st17{fill:#4896C8;}
	.st18{fill:#A7794C;}
	.st19{fill:#8EC0E0;}
	.st20{fill:#9FC9E4;}
	.st21{fill:#7FB8E0;}
	.st22{fill:#D2E6F3;}
	.st23{fill:#E2EFF7;}
	.st24{fill:#C1DDEE;}
	.st25{fill:#EDEEEE;}
	.st26{fill:#DCF2FD;}
	.st27{fill:#51BAC5;}
	.st28{fill:#5BD3D5;}
	.st29{fill:#FFAD68;}
	.st30{fill:#FFB76D;}
	.st31{fill:#FCA15E;}
	.st32{fill:#F0C877;}
	.st33{fill:#FDEBBB;}
	.st34{fill:#FFF3D9;}
	.st35{fill:#FFC172;}
	.st36{fill:#231F20;}
	.st37{fill:#C8CCCB;}
	.st38{fill:#71B1E1;}
	.st39{fill:#FAB8CD;}
	.st40{fill:#FBCFD6;}
	.st41{fill:#FAC4D1;}
	.st42{fill:#E55D53;}
	.st43{fill:#D64F45;}
	.st44{fill:#FFA68E;}
	.st45{fill:#FF9A7E;}
	.st46{fill:#2B3332;}
	.st47{fill:#EA8BB4;}
	.st48{fill:#FFF5D8;}
	.st49{fill:#373F3F;}
	.st50{fill:#F297BE;}
	.st51{fill:#FEF1C6;}
	.st52{fill:#FCD2BE;}
	.st53{fill:#FCDDCF;}
	.st54{fill:#F79654;}
	.st55{fill:#EF8C48;}
	.st56{fill:none;}
	.st57{fill:#6673AA;}
	.st58{fill:#7C8AC4;}
	.st59{fill:#8694D1;}
	.st60{fill:#B0D3EA;}
	.st61{fill:#60C46F;}
	.st62{fill:#6CD275;}
	.st63{fill:#54B668;}
	.st64{fill:#84ED82;}
	.st65{fill:#78DF7C;}
	.st66{fill:#B38658;}
	.st67{fill:#C09265;}
	.st68{fill:#CDA073;}
	.st69{fill:#A7A9AC;}
	.st70{fill:#FF6B8B;}
	.st71{fill:#FF5F7E;}
	.st72{fill:#D49A87;}
	.st73{fill:#9179C6;}
	.st74{fill:#866EBA;}
	.st75{fill:#7A63AD;}
	.st76{fill:#9D85D3;}
	.st77{fill:#9E86BF;}
	.st78{fill:#FDE2E6;}
	.st79{fill:#FCD8DE;}
	.st80{fill:#E8BA36;}
	.st81{fill:#E0B12E;}
	.st82{fill:#DBA728;}
	.st83{fill:#C27BC6;}
	.st84{fill:#E8803A;}
	.st85{fill:#DD7731;}
	.st86{fill:#FF7899;}
	.st87{fill:#FAC7AF;}
	.st88{fill:#5C699E;}
	.st89{fill:#707EB7;}
	.st90{fill:#F7C845;}
	.st91{fill:#E26447;}
	.st92{fill:#5CA3D5;}
	.st93{fill:#529CCF;}
	.st94{fill:#65A9DC;}
	.st95{fill:#D799D6;}
	.st96{fill:#D285D2;}
	.st97{fill:#E0ABDF;}
	.st98{fill:#FEF8E8;}
	.st99{fill:#4295AC;}
	.st100{fill:#3B8FA3;}
	.st101{fill:#47A1B4;}
	.st102{fill:#8D5B36;}
	.st103{fill:#845331;}
	.st104{fill:#687271;}
	.st105{fill:#505957;}
	.st106{fill:#5C6664;}
	.st107{fill:#838C8A;}
	.st108{fill:#434C4B;}
	.st109{fill:#757F7E;}
	.st110{fill:#909997;}
	.st111{fill:#AADB3D;}
	.st112{fill:#B1E346;}
	.st113{fill:#9ACC2E;}
	.st114{fill:#93C427;}
	.st115{fill:#A2D336;}
	.st116{fill:#4CAEBC;}
	.st117{fill:#111918;}
	.st118{fill:#80C0DF;}
	.st119{fill:#F0C13E;}
	.st120{fill:#9DB5DE;}
	.st121{fill:#515E91;}
	.st122{fill:#495587;}
	.st123{fill:#CFAB81;}
	.st124{fill:#724D31;}
	.st125{fill:#604631;}
</style>
<g>
	<path class="tulip_08" d="M21.473,23l7.549,0.172c1.061,0.024,1.359,1.466,0.394,1.909l-3.671,1.684L21.473,23z"/>
	<path class="tulip_07" d="M16,32c0,0,11.466,0,13.419,0c3.15,0,4.387-2.479-2.016-6.545c-5-3.175-5.859-7.455-5.859-7.455H16V32z"
		/>
	<path class="tulip_06" d="M16,18v14c0,0,7.875,0,9.25,0s4.188-0.656-2.75-5.927c-3.973-3.018-3-8.073-3-8.073H16z"/>
	<path class="tulip_07" d="M10.527,23l-7.549,0.172c-1.061,0.024-1.359,1.466-0.394,1.909l3.671,1.684L10.527,23z"/>
	<path class="tulip_06" d="M16,32c0,0-11.466,0-13.419,0c-3.15,0-4.387-2.479,2.016-6.545c5-3.175,5.859-7.455,5.859-7.455H16V32z"
		/>
	<path class="tulip_05" d="M16,18v14c0,0-7.875,0-9.25,0s-4.188-0.656,2.75-5.927c3.973-3.018,3-8.073,3-8.073H16z"/>
	<path class="grape_08" d="M14.167,13.703c0.563,0.325,1.202,0.486,1.841,0.485v-0.691c-0.013-0.001-0.029-0.002-0.033-0.002
		c-0.026,0-0.052-0.002-0.079-0.006v0C14.887,13.433,13,12.829,13,11.625C13,10.4,14.649,10,15.217,10
		c0.301,0,0.57,0.122,0.783,0.266c0.002-0.002,0.006-0.003,0.008-0.004V1.045c-0.003,0-0.005,0-0.008,0c-3.866,0-7,3.582-7,8
		c0,1.532,0.384,2.959,1.037,4.175C10.503,13.09,10.988,13,11.5,13C12.483,13,13.397,13.258,14.167,13.703z"/>
	<path class="lemon_05" d="M14.167,13.703C13.397,13.258,12.483,13,11.5,13c-0.512,0-0.997,0.09-1.463,0.219
		C7.997,13.786,6.5,15.48,6.5,17.5c0,2.481,2.243,4.5,5,4.5c0.983,0,1.897-0.258,2.667-0.703c0.563-0.325,1.202-0.486,1.841-0.485
		v-3.769v-2.856C15.369,14.189,14.73,14.028,14.167,13.703z"/>
	<path class="grey_16" d="M15.632,11.264C15.456,11.082,15.293,11,15.209,11c-0.391,0-1.217,0.296-1.217,0.625
		c0,0.271,0.984,0.812,1.952,0.866c0.016,0,0.032,0.002,0.048,0.005c0.003,0,0.005,0,0.008-0.001v-1.086
		C15.865,11.411,15.728,11.364,15.632,11.264z"/>
	<path class="rose_08" d="M16,10.266C15.787,10.122,15.518,10,15.217,10C14.649,10,13,10.4,13,11.625
		c0,1.204,1.887,1.808,2.896,1.864v0c0.026,0.004,0.052,0.006,0.079,0.006c0.004,0,0.02,0.001,0.033,0.002v-0.501v-0.5
		c-0.003,0-0.005,0-0.008,0.001c-0.016-0.002-0.032-0.004-0.048-0.005C14.984,12.437,14,11.896,14,11.625
		C14,11.296,14.827,11,15.217,11c0.083,0,0.247,0.082,0.423,0.264c0.096,0.1,0.232,0.147,0.368,0.145v-0.5v-0.648
		C16.006,10.263,16.002,10.264,16,10.266z"/>
	<path class="grape_09" d="M16.775,10c0.568,0,2.217,0.4,2.217,1.625c0,1.163-1.762,1.767-2.792,1.856
		c-0.042,0.012-0.087,0.019-0.133,0.019c-0.009,0-0.041-0.002-0.068-0.004v0.691c0.634-0.001,1.267-0.163,1.825-0.485
		C18.595,13.258,19.509,13,20.492,13c0.512,0,0.997,0.09,1.463,0.219c0.654-1.216,1.037-2.643,1.037-4.175
		c0-4.415-3.13-7.995-6.992-8v9.217C16.212,10.12,16.477,10,16.775,10z"/>
	<path class="lemon_06" d="M21.955,13.219C21.489,13.09,21.004,13,20.492,13c-0.983,0-1.897,0.258-2.667,0.703
		c-0.558,0.322-1.192,0.483-1.825,0.485v2.856v3.769c0.634,0.001,1.267,0.163,1.825,0.485C18.595,21.742,19.509,22,20.492,22
		c2.757,0,5-2.019,5-4.5C25.492,15.48,23.995,13.786,21.955,13.219z"/>
	<path class="grey_17" d="M17.992,11.625c0-0.329-0.827-0.625-1.217-0.625c-0.083,0-0.247,0.082-0.423,0.264
		C16.26,11.36,16.13,11.407,16,11.409v1.086c0.013-0.002,0.026-0.004,0.04-0.004C17.008,12.437,17.992,11.896,17.992,11.625z"/>
	<path class="rose_09" d="M16.775,10c-0.297,0-0.563,0.12-0.775,0.261v0.648v0.5c0.13-0.002,0.26-0.049,0.352-0.145
		C16.528,11.082,16.691,11,16.775,11c0.391,0,1.217,0.296,1.217,0.625c0,0.271-0.984,0.812-1.952,0.866
		c-0.014,0-0.027,0.002-0.04,0.004v0.5v0.501c0.027,0.002,0.059,0.004,0.068,0.004c0.046,0,0.09-0.006,0.133-0.019
		c1.03-0.09,2.792-0.693,2.792-1.856C18.992,10.4,17.343,10,16.775,10z"/>
	<g>
		<ellipse class="grey_01" cx="18.25" cy="7.5" rx="1.25" ry="1.5"/>
		<circle class="grey_17" cx="18.125" cy="7.5" r="0.5"/>
	</g>
	<g>
		<ellipse class="white" cx="13.75" cy="7.5" rx="1.25" ry="1.5"/>
		<circle class="grey_16" cx="13.875" cy="7.5" r="0.5"/>
	</g>
	<ellipse class="tulip_05" cx="11.5" cy="17.5" rx="3.5" ry="3"/>
	<ellipse class="tulip_06" cx="20.5" cy="17.5" rx="3.5" ry="3"/>
	<path class="sand_03" d="M13.951,0c-2.817,0-5.602,2.562-6.659,6.875C6.93,8.353,6.558,9.758,6.214,11.002
		c-0.799,2.888,0.692,5.906,3.508,7.085l0.538,0.225c0.712,0.298,1.48-0.284,1.378-1.049C11.085,13.121,10.219,3,14.976,3
		C16,3,16,3.688,16,3.688V0.771C16,0.771,16,0,13.951,0z"/>
	<path class="sand_04" d="M25.786,11.002c-0.344-1.244-0.716-2.648-1.078-4.127C23.651,2.562,20.866,0,18.049,0
		C16,0,16,0.771,16,0.771v2.917C16,3.688,16,3,17.024,3c4.732,0,3.88,10.126,3.334,14.267c-0.101,0.764,0.667,1.345,1.378,1.047
		l0.541-0.227C25.093,16.908,26.584,13.889,25.786,11.002z"/>
	<path class="grey_03" d="M6.789,13.527H5.5v6.999c0,0,2.5,0.125,2.5-2.25S6.789,16.052,6.789,13.527z"/>
	<path class="grey_04" d="M4.211,13.527H5.5v6.999c0,0-2.5,0.125-2.5-2.25S4.211,16.052,4.211,13.527z"/>
	<path class="grey_04" d="M25.211,13.527H26.5v6.999c0,0-2.5,0.125-2.5-2.25S25.211,16.052,25.211,13.527z"/>
	<path class="grey_05" d="M27.789,13.527H26.5v6.999c0,0,2.5,0.125,2.5-2.25S27.789,16.052,27.789,13.527z"/>
	<path class="grape_08" d="M30.741,9.173c-0.367-0.349-0.962-0.302-1.269,0.099l-0.416,0.544l-0.081-0.178l1.061-1.758
		c0.279-0.463,0.083-1.061-0.419-1.276c-0.502-0.215-1.082,0.051-1.236,0.567l-0.393,1.312l-0.229-0.047l0.516-2.299
		c0.123-0.55-0.271-1.082-0.842-1.134c-0.571-0.052-1.059,0.399-1.041,0.962l0.071,2.206l-0.313-0.064l-0.38-2.018
		c-0.115-0.611-0.749-0.984-1.351-0.797h0c-0.603,0.188-0.901,0.852-0.637,1.416l1.18,2.518l-0.483,0.894l-0.511-0.537
		c-0.467-0.491-1.267-0.469-1.705,0.048c-0.438,0.516-0.316,1.293,0.259,1.656l1.514,0.955c0.924,2.134,1.863,1.822,3.308,1.592
		c1.193-0.19,1.87-1.725,2.128-2.453l1.211-0.958C31.081,10.108,31.108,9.522,30.741,9.173z"/>
	<path class="grape_07" d="M9.736,9.632C9.298,9.116,8.499,9.093,8.032,9.584l-0.511,0.537L7.038,9.227l1.18-2.518
		C8.482,6.145,8.183,5.48,7.58,5.293h0C6.978,5.105,6.344,5.478,6.229,6.089l-0.38,2.018L5.536,8.172l0.071-2.206
		c0.018-0.563-0.47-1.014-1.041-0.962C3.996,5.056,3.601,5.588,3.724,6.138l0.516,2.299L4.012,8.484L3.619,7.172
		C3.464,6.656,2.884,6.39,2.383,6.605C1.881,6.82,1.684,7.418,1.963,7.881l1.061,1.758L2.943,9.817L2.528,9.273
		C2.221,8.871,1.626,8.825,1.259,9.173c-0.367,0.349-0.34,0.934,0.057,1.249l1.211,0.959c0.258,0.729,0.935,2.263,2.128,2.453
		c1.445,0.23,2.384,0.542,3.308-1.592l1.514-0.955C10.053,10.925,10.174,10.148,9.736,9.632z"/>
</g>
</svg>
