<?xml version="1.0" encoding="utf-8"?>
<!-- Generator: Adobe Illustrator 20.1.0, SVG Export Plug-In . SVG Version: 6.00 Build 0)  -->
<!DOCTYPE svg PUBLIC "-//W3C//DTD SVG 1.1//EN" "http://www.w3.org/Graphics/SVG/1.1/DTD/svg11.dtd">
<svg version="1.1" id="icons" xmlns="http://www.w3.org/2000/svg" xmlns:xlink="http://www.w3.org/1999/xlink" x="0px" y="0px"
	 width="32px" height="32px" viewBox="0 0 32 32" style="enable-background:new 0 0 32 32;" xml:space="preserve">
<style type="text/css">
	.white{fill:#FFFFFF;}
	.grey_01{fill:#F7F7F7;}
	.grey_16{fill:#373F3F;}
	.grey_17{fill:#2B3332;}
	.lemon_04{fill:#FFE28A;}
	.lemon_05{fill:#FFD96C;}
	.lemon_06{fill:#FFD04D;}
	.lemon_07{fill:#F7C845;}
	.st0{fill:#945BA0;}
	.st1{fill:#B8A5E4;}
	.st2{fill:#C6B7E9;}
	.st3{fill:#D4C9EF;}
	.st4{fill:#E3DBF4;}
	.st5{fill:#B370B9;}
	.st6{fill:#A78EDD;}
	.st7{fill:#A366AD;}
	.st8{fill:#F1EDFA;}
	.st9{fill:#4B7E77;}
	.st10{fill:#56C7CD;}
	.st11{fill:#EB6B48;}
	.st12{fill:#E55F4A;}
	.st13{fill:#FF805D;}
	.st14{fill:#F57552;}
	.st15{fill:#96643B;}
	.st16{fill:#9E6E43;}
	.st17{fill:#FF8D6E;}
	.st18{fill:#4390BF;}
	.st19{fill:#4896C8;}
	.st20{fill:#A7794C;}
	.st21{fill:#8EC0E0;}
	.st22{fill:#9FC9E4;}
	.st23{fill:#7FB8E0;}
	.st24{fill:#D2E6F3;}
	.st25{fill:#E2EFF7;}
	.st26{fill:#C1DDEE;}
	.st27{fill:#EDEEEE;}
	.st28{fill:#DCF2FD;}
	.st29{fill:#51BAC5;}
	.st30{fill:#5BD3D5;}
	.st31{fill:#FFAD68;}
	.st32{fill:#FFB76D;}
	.st33{fill:#FCA15E;}
	.st34{fill:#F7D684;}
	.st35{fill:#F0C877;}
	.st36{fill:#FAE09F;}
	.st37{fill:#FDEBBB;}
	.st38{fill:#FFF3D9;}
	.st39{fill:#FFC172;}
	.st40{fill:#231F20;}
	.st41{fill:#D1D4D4;}
	.st42{fill:#DADDDC;}
	.st43{fill:#C8CCCB;}
	.st44{fill:#71B1E1;}
	.st45{fill:#B93D4F;}
	.st46{fill:#C84054;}
	.st47{fill:#D84459;}
	.st48{fill:#E85160;}
	.st49{fill:#F9ADC8;}
	.st50{fill:#F8A1C4;}
	.st51{fill:#E3E5E5;}
	.st52{fill:#FAB8CD;}
	.st53{fill:#FBCFD6;}
	.st54{fill:#FAC4D1;}
	.st55{fill:#E55D53;}
	.st56{fill:#D64F45;}
	.st57{fill:#FFA68E;}
	.st58{fill:#FF9A7E;}
	.st59{fill:#2B3332;}
	.st60{fill:#EA8BB4;}
	.st61{fill:#FFF5D8;}
	.st62{fill:#373F3F;}
	.st63{fill:#F297BE;}
	.st64{fill:#FEF1C6;}
	.st65{fill:#FCD2BE;}
	.st66{fill:#FCDDCF;}
	.st67{fill:#F79654;}
	.st68{fill:#EF8C48;}
	.st69{fill:none;}
	.st70{fill:#6673AA;}
	.st71{fill:#7C8AC4;}
	.st72{fill:#8694D1;}
	.st73{fill:#B0D3EA;}
	.st74{fill:#60C46F;}
	.st75{fill:#6CD275;}
	.st76{fill:#54B668;}
	.st77{fill:#84ED82;}
	.st78{fill:#78DF7C;}
	.st79{fill:#B38658;}
	.st80{fill:#C09265;}
	.st81{fill:#CDA073;}
	.st82{fill:#A7A9AC;}
	.st83{fill:#FF6B8B;}
	.st84{fill:#FF5F7E;}
	.st85{fill:#D49A87;}
	.st86{fill:#9179C6;}
	.st87{fill:#866EBA;}
	.st88{fill:#7A63AD;}
	.st89{fill:#9D85D3;}
	.st90{fill:#9E86BF;}
	.st91{fill:#FDE2E6;}
	.st92{fill:#FCD8DE;}
	.st93{fill:#E8BA36;}
	.st94{fill:#E0B12E;}
	.st95{fill:#DBA728;}
	.st96{fill:#C27BC6;}
	.st97{fill:#E8803A;}
	.st98{fill:#DD7731;}
	.st99{fill:#FF7899;}
	.st100{fill:#FAC7AF;}
	.st101{fill:#5C699E;}
	.st102{fill:#707EB7;}
	.st103{fill:#E26447;}
	.st104{fill:#5CA3D5;}
	.st105{fill:#529CCF;}
	.st106{fill:#65A9DC;}
	.st107{fill:#D799D6;}
	.st108{fill:#D285D2;}
	.st109{fill:#E0ABDF;}
	.st110{fill:#FEF8E8;}
	.st111{fill:#4295AC;}
	.st112{fill:#3B8FA3;}
	.st113{fill:#47A1B4;}
	.st114{fill:#8D5B36;}
	.st115{fill:#845331;}
	.st116{fill:#687271;}
	.st117{fill:#505957;}
	.st118{fill:#5C6664;}
	.st119{fill:#838C8A;}
	.st120{fill:#434C4B;}
	.st121{fill:#757F7E;}
	.st122{fill:#909997;}
	.st123{fill:#AADB3D;}
	.st124{fill:#B1E346;}
	.st125{fill:#9ACC2E;}
	.st126{fill:#93C427;}
	.st127{fill:#A2D336;}
	.st128{fill:#4CAEBC;}
	.st129{fill:#111918;}
	.st130{fill:#80C0DF;}
	.st131{fill:#F0C13E;}
	.st132{fill:#9DB5DE;}
	.st133{fill:#515E91;}
	.st134{fill:#495587;}
	.st135{fill:#CFAB81;}
	.st136{fill:#724D31;}
	.st137{fill:#604631;}
</style>
<g>
	<g>
		<path class="lemon_07" d="M24.87,30c0,0-0.815,0-1.87,0v-2.375h-3v2.478l-0.382,1.251C19.52,31.675,19.76,32,20.096,32h6.574
			c0.369,0,0.618-0.391,0.455-0.722C26.584,30.177,24.87,30,24.87,30z"/>
		<path class="lemon_06" d="M12,30.103v-2.478H9V30c-1.055,0-1.87,0-1.87,0s-1.714,0.177-2.255,1.278C4.712,31.609,4.961,32,5.33,32
			h6.574c0.336,0,0.576-0.325,0.478-0.646L12,30.103z"/>
		<g>
			<path class="lemon_07" d="M21.901,22l-4.561,4.201c0,0,0.798,1.483,1.967,2.575l4.685-1.513C23.952,24.921,21.901,22,21.901,22z"
				/>
			<path class="grey_17" d="M22.588,29.695c1.068-0.512,1.421-1.419,1.404-2.433l-4.685,1.513
				C20.236,29.644,21.4,30.265,22.588,29.695z"/>
		</g>
		<g>
			<path class="lemon_06" d="M14.66,26.201L10.099,22c0,0-2.105,3.002-2.088,5.36l4.604,1.487
				C13.827,27.749,14.66,26.201,14.66,26.201z"/>
			<path class="grey_16" d="M9.412,29.695c1.155,0.554,2.287-0.019,3.204-0.849L8.011,27.36C8.018,28.333,8.378,29.2,9.412,29.695z"
				/>
		</g>
		<g>
			<polygon class="lemon_06" points="23.129,1.399 23.601,1.871 19.83,6.585 18.415,5.17 			"/>
			<ellipse transform="matrix(0.7071 -0.7071 0.7071 0.7071 5.3223 16.8492)" class="lemon_05" cx="23" cy="2" rx="1" ry="1"/>
		</g>
		<g>
			<polygon class="lemon_05" points="8.871,1.399 8.399,1.871 12.17,6.585 13.585,5.17 			"/>
			<ellipse transform="matrix(0.7071 -0.7071 0.7071 0.7071 1.2218 6.9497)" class="lemon_04" cx="9" cy="2" rx="1" ry="1"/>
		</g>
		<g>
			<path class="lemon_07" d="M28.215,16.559l-6.3-3.84l-1.562,2.562l5.416,3.301c0.191,0.116,0.337,0.293,0.416,0.503l2.244,5.984
				l2.809-1.054l-2.607-6.953C28.552,16.853,28.406,16.676,28.215,16.559z"/>
			<path class="lemon_06" d="M11.646,15.281l-1.562-2.562l-6.3,3.84c-0.191,0.116-0.337,0.293-0.416,0.503l-2.256,6.017
				c-0.194,0.517,0.068,1.093,0.585,1.287l1.872,0.702l2.244-5.984c0.079-0.209,0.225-0.386,0.416-0.503L11.646,15.281z"/>
			<polygon class="grey_16" points="2.382,19.695 5.145,20.871 5.848,18.997 3.085,17.82 			"/>
			<polygon class="grey_17" points="28.915,17.82 26.152,18.997 26.855,20.871 29.618,19.695 			"/>
		</g>
		
			<ellipse transform="matrix(0.9428 -0.3334 0.3334 0.9428 -6.1555 11.1796)" class="lemon_06" cx="29.5" cy="23.527" rx="2.499" ry="2.499"/>
		
			<ellipse transform="matrix(0.3334 -0.9428 0.9428 0.3334 -20.5148 18.0413)" class="lemon_05" cx="2.5" cy="23.527" rx="2.499" ry="2.499"/>
		<path class="lemon_06" d="M16,9c0,4.545,0,15.206,0,17.988c0,0,11.319,0.774,8.569-9.889C22.657,9.682,16,9,16,9z"/>
		<path class="lemon_05" d="M16,9c0,4.545,0,15.206,0,17.988c0,0-11.319,0.774-8.569-9.889C9.343,9.682,16,9,16,9z"/>
		<g>
			<path class="grey_16" d="M13.031,12l-4.462,6.208C8.331,18.539,8.568,19,8.975,19H15l-2.613,3.92
				c-0.303,0.455,0.239,0.997,0.693,0.693L16,21.667V12H13.031z"/>
			<path class="grey_17" d="M18.833,17l3.08-5H16v9.667l5.626-3.751C22.038,17.642,21.843,17,21.349,17H18.833z"/>
		</g>
		<g>
			<path class="lemon_04" d="M10,7.5c0,0.004,0,0.007,0,0.011c0.001,0.643-0.357,1.231-0.948,1.485l-1.417,0.18
				c-0.816,0.352-0.855,1.703-0.062,2.123c1.757,0.929,5.075,2.275,6.651,3.204C14.786,14.834,15.393,15,16,15V2
				C12.686,2,10,4.462,10,7.5z"/>
			<path class="lemon_05" d="M24.427,11.299c0.793-0.42,0.754-1.771-0.062-2.123l-1.417-0.18C22.357,8.741,21.999,8.153,22,7.511
				c0-0.004,0-0.007,0-0.011C22,4.462,19.314,2,16,2v13c0.607,0,1.214-0.166,1.776-0.497C19.352,13.574,22.669,12.228,24.427,11.299
				z"/>
		</g>
		<path class="grey_17" d="M24.932,19.042l-7.815,4.885c-0.077,0.048-0.139,0.116-0.18,0.197l-0.298,0.584
			c-0.214,0.419,0.216,0.874,0.647,0.685l7.475-3.287C24.987,21.244,25.064,20.233,24.932,19.042z"/>
		<g>
			<path class="white" d="M13,8.5c0-0.166,0.011-0.323,0.028-0.472L12,7v2c0,0.552,0.448,1,1,1h0.5C13.224,10,13,9.328,13,8.5z"/>
			<path class="white" d="M13.972,8.972C13.906,9.568,13.721,10,13.5,10H15L13.972,8.972z"/>
			<path class="grey_16" d="M13.972,8.972l-0.944-0.944C13.011,8.177,13,8.334,13,8.5c0,0.828,0.224,1.5,0.5,1.5
				C13.721,10,13.906,9.568,13.972,8.972z"/>
		</g>
		<g>
			<path class="grey_01" d="M19,8.5c0-0.166-0.011-0.323-0.028-0.472L20,7v2c0,0.552-0.448,1-1,1h-0.5C18.776,10,19,9.328,19,8.5z"
				/>
			<path class="grey_01" d="M18.028,8.972C18.094,9.568,18.279,10,18.5,10H17L18.028,8.972z"/>
			<path class="grey_17" d="M18.028,8.972l0.944-0.944C18.989,8.177,19,8.334,19,8.5c0,0.828-0.224,1.5-0.5,1.5
				C18.279,10,18.094,9.568,18.028,8.972z"/>
		</g>
	</g>
	<g>
		<path class="grey_16" d="M15.82,7.369l-2.212-2.293c-0.119-0.123-0.324-0.093-0.402,0.059L13.07,5.4
			c-0.043,0.083-0.036,0.183,0.018,0.259l2.708,3.81c0.051,0.072,0.13,0.104,0.21,0.102V7.443
			C15.938,7.445,15.871,7.422,15.82,7.369z"/>
		<path class="grey_17" d="M18.912,5.659c0.054-0.076,0.061-0.176,0.018-0.259l-0.136-0.264c-0.078-0.152-0.283-0.182-0.402-0.059
			L16.18,7.369c-0.048,0.049-0.111,0.072-0.174,0.074v2.128c0.075-0.002,0.149-0.034,0.198-0.102L18.912,5.659z"/>
	</g>
	<g>
		<path class="lemon_05" d="M15.762,1.173l-0.731,2.264l0.251,0.259C15.478,3.899,15.739,4,16,4V1C15.9,1,15.8,1.058,15.762,1.173z"
			/>
		<path class="lemon_06" d="M16.719,3.696l0.251-0.259l-0.731-2.264C16.201,1.058,16.1,1,16,1v3C16.261,4,16.522,3.899,16.719,3.696
			z"/>
	</g>
	<g>
		<path class="st62" d="M15.455,12.06l-0.293-0.25c-0.103-0.089-0.262-0.078-0.352,0.028c-0.09,0.105-0.077,0.263,0.028,0.352
			l0.293,0.25c0.244,0.208,0.556,0.312,0.869,0.312v-0.503C15.802,12.249,15.603,12.186,15.455,12.06z"/>
		<path class="st59" d="M17.162,12.19c0.105-0.089,0.118-0.247,0.028-0.352c-0.09-0.105-0.248-0.117-0.352-0.028l-0.293,0.25
			c-0.148,0.126-0.346,0.189-0.545,0.189v0.503c0.313,0,0.625-0.104,0.869-0.312L17.162,12.19z"/>
	</g>
</g>
</svg>
