<?xml version="1.0" encoding="utf-8"?>
<!-- Generator: Adobe Illustrator 20.1.0, SVG Export Plug-In . SVG Version: 6.00 Build 0)  -->
<!DOCTYPE svg PUBLIC "-//W3C//DTD SVG 1.1//EN" "http://www.w3.org/Graphics/SVG/1.1/DTD/svg11.dtd">
<svg version="1.1" id="icons" xmlns="http://www.w3.org/2000/svg" xmlns:xlink="http://www.w3.org/1999/xlink" x="0px" y="0px"
	 width="32px" height="32px" viewBox="0 0 32 32" style="enable-background:new 0 0 32 32;" xml:space="preserve">
<style type="text/css">
	.white{fill:#FFFFFF;}
	.grey_01{fill:#F7F7F7;}
	.grey_16{fill:#373F3F;}
	.grey_17{fill:#2B3332;}
	.vermillion_04{fill:#FF805D;}
	.vermillion_05{fill:#F57552;}
	.vermillion_06{fill:#EB6B48;}
	.lemon_04{fill:#FFE28A;}
	.lemon_05{fill:#FFD96C;}
	.lemon_06{fill:#FFD04D;}
	.lemon_07{fill:#F7C845;}
	.st0{fill:#945BA0;}
	.st1{fill:#B8A5E4;}
	.st2{fill:#C6B7E9;}
	.st3{fill:#D4C9EF;}
	.st4{fill:#E3DBF4;}
	.st5{fill:#B370B9;}
	.st6{fill:#A78EDD;}
	.st7{fill:#A366AD;}
	.st8{fill:#F1EDFA;}
	.st9{fill:#4B7E77;}
	.st10{fill:#56C7CD;}
	.st11{fill:#E55F4A;}
	.st12{fill:#96643B;}
	.st13{fill:#9E6E43;}
	.st14{fill:#FF8D6E;}
	.st15{fill:#4390BF;}
	.st16{fill:#4896C8;}
	.st17{fill:#A7794C;}
	.st18{fill:#8EC0E0;}
	.st19{fill:#9FC9E4;}
	.st20{fill:#7FB8E0;}
	.st21{fill:#D2E6F3;}
	.st22{fill:#E2EFF7;}
	.st23{fill:#C1DDEE;}
	.st24{fill:#EDEEEE;}
	.st25{fill:#DCF2FD;}
	.st26{fill:#51BAC5;}
	.st27{fill:#5BD3D5;}
	.st28{fill:#FFAD68;}
	.st29{fill:#FFB76D;}
	.st30{fill:#FCA15E;}
	.st31{fill:#F7D684;}
	.st32{fill:#F0C877;}
	.st33{fill:#FAE09F;}
	.st34{fill:#FDEBBB;}
	.st35{fill:#FFF3D9;}
	.st36{fill:#FFC172;}
	.st37{fill:#231F20;}
	.st38{fill:#D1D4D4;}
	.st39{fill:#DADDDC;}
	.st40{fill:#C8CCCB;}
	.st41{fill:#71B1E1;}
	.st42{fill:#B93D4F;}
	.st43{fill:#C84054;}
	.st44{fill:#D84459;}
	.st45{fill:#E85160;}
	.st46{fill:#F9ADC8;}
	.st47{fill:#F8A1C4;}
	.st48{fill:#E3E5E5;}
	.st49{fill:#FAB8CD;}
	.st50{fill:#FBCFD6;}
	.st51{fill:#FAC4D1;}
	.st52{fill:#E55D53;}
	.st53{fill:#D64F45;}
	.st54{fill:#FFA68E;}
	.st55{fill:#FF9A7E;}
	.st56{fill:#2B3332;}
	.st57{fill:#EA8BB4;}
	.st58{fill:#FFF5D8;}
	.st59{fill:#373F3F;}
	.st60{fill:#F297BE;}
	.st61{fill:#FEF1C6;}
	.st62{fill:#FCD2BE;}
	.st63{fill:#FCDDCF;}
	.st64{fill:#F79654;}
	.st65{fill:#EF8C48;}
	.st66{fill:none;}
	.st67{fill:#6673AA;}
	.st68{fill:#7C8AC4;}
	.st69{fill:#8694D1;}
	.st70{fill:#B0D3EA;}
	.st71{fill:#60C46F;}
	.st72{fill:#6CD275;}
	.st73{fill:#54B668;}
	.st74{fill:#84ED82;}
	.st75{fill:#78DF7C;}
	.st76{fill:#B38658;}
	.st77{fill:#C09265;}
	.st78{fill:#CDA073;}
	.st79{fill:#A7A9AC;}
	.st80{fill:#FF6B8B;}
	.st81{fill:#FF5F7E;}
	.st82{fill:#D49A87;}
	.st83{fill:#9179C6;}
	.st84{fill:#866EBA;}
	.st85{fill:#7A63AD;}
	.st86{fill:#9D85D3;}
	.st87{fill:#9E86BF;}
	.st88{fill:#FDE2E6;}
	.st89{fill:#FCD8DE;}
	.st90{fill:#E8BA36;}
	.st91{fill:#E0B12E;}
	.st92{fill:#DBA728;}
	.st93{fill:#C27BC6;}
	.st94{fill:#E8803A;}
	.st95{fill:#DD7731;}
	.st96{fill:#FF7899;}
	.st97{fill:#FAC7AF;}
	.st98{fill:#5C699E;}
	.st99{fill:#707EB7;}
	.st100{fill:#E26447;}
	.st101{fill:#5CA3D5;}
	.st102{fill:#529CCF;}
	.st103{fill:#65A9DC;}
	.st104{fill:#D799D6;}
	.st105{fill:#D285D2;}
	.st106{fill:#E0ABDF;}
	.st107{fill:#FEF8E8;}
	.st108{fill:#4295AC;}
	.st109{fill:#3B8FA3;}
	.st110{fill:#47A1B4;}
	.st111{fill:#8D5B36;}
	.st112{fill:#845331;}
	.st113{fill:#687271;}
	.st114{fill:#505957;}
	.st115{fill:#5C6664;}
	.st116{fill:#838C8A;}
	.st117{fill:#434C4B;}
	.st118{fill:#757F7E;}
	.st119{fill:#909997;}
	.st120{fill:#AADB3D;}
	.st121{fill:#B1E346;}
	.st122{fill:#9ACC2E;}
	.st123{fill:#93C427;}
	.st124{fill:#A2D336;}
	.st125{fill:#4CAEBC;}
	.st126{fill:#111918;}
	.st127{fill:#80C0DF;}
	.st128{fill:#F0C13E;}
	.st129{fill:#9DB5DE;}
	.st130{fill:#515E91;}
	.st131{fill:#495587;}
	.st132{fill:#CFAB81;}
	.st133{fill:#724D31;}
	.st134{fill:#604631;}
</style>
<g>
	<path class="lemon_07" d="M17.654,3.191c0,0,2.492-1.444,1.801-2.847c-0.092-0.187,0.1-0.394,0.298-0.333
		c0.743,0.228,1.934,0.866,2.162,1.85c0,0,0.461,1.498-0.765,2.689L17.654,3.191z"/>
	<path class="lemon_06" d="M14.346,3.191c0,0-2.492-1.444-1.801-2.847c0.092-0.187-0.1-0.394-0.298-0.333
		c-0.743,0.228-1.934,0.866-2.162,1.85c0,0-0.461,1.498,0.765,2.689L14.346,3.191z"/>
	<g>
		<path class="vermillion_06" d="M16,12v17c4.418,0,7-3.582,7-8S20.418,12,16,12z"/>
		<path class="vermillion_05" d="M9,21c0,4.418,2.582,8,7,8V12C11.582,12,9,16.582,9,21z"/>
		<path class="vermillion_04" d="M16,4c-3.314,0-6,2.686-6,6s2.686,6,6,6V4z"/>
		<path class="vermillion_05" d="M22,10c0-3.314-2.686-6-6-6v12C19.314,16,22,13.314,22,10z"/>
		<path class="vermillion_06" d="M16,9h4.945c0.65-0.635,1.056-1.519,1.056-2.5c0-1.933-1.567-3.5-3.5-3.5
			c-0.984,0-1.865,0.415-2.5,1.07L16,9z"/>
		<path class="lemon_07" d="M23.25,24.365c0.003-0.007,0.007-0.014,0.01-0.021c-0.731-2.076-2.979-4.846-3.881-5.906
			c-0.2-0.236-0.56-0.235-0.76,0.001c-0.574,0.675-1.692,2.041-2.619,3.48V29C19.215,29,21.979,27.1,23.25,24.365z"/>
		<path class="vermillion_06" d="M22,29c-1.451,0-2.661,1.029-2.94,2.398C18.997,31.708,19.24,32,19.557,32h4.887
			c0.316,0,0.559-0.292,0.496-0.602C24.661,30.029,23.451,29,22,29z"/>
		<circle class="lemon_05" cx="21.5" cy="26.5" r="3.5"/>
		<path class="st100" d="M27.5,25c0.828,0,1.5-0.171,1.5-1c0-1.69-2.658-5.279-3.854-6.475l-0.586-0.586
			c-0.586-0.586-1.535-0.586-2.121,0c-0.586,0.585-0.586,1.536,0,2.121l0.586,0.586C23.654,20.275,26,23.111,26,24
			C26,24.829,26.672,25,27.5,25z"/>
		<circle class="vermillion_06" cx="28" cy="24" r="2"/>
		<circle class="lemon_05" cx="22" cy="16" r="3"/>
		<path class="lemon_06" d="M8.739,24.344C8.74,24.344,8.74,24.345,8.739,24.344C10.007,27.091,12.778,29,16,29v-7.081
			c-0.927-1.439-2.045-2.805-2.619-3.48c-0.2-0.236-0.56-0.237-0.76-0.001C11.719,19.498,9.471,22.267,8.739,24.344z"/>
		<path class="vermillion_05" d="M10,29c-1.451,0-2.661,1.029-2.94,2.398C6.997,31.708,7.24,32,7.557,32h4.887
			c0.316,0,0.559-0.292,0.496-0.602C12.661,30.029,11.451,29,10,29z"/>
		<circle class="lemon_04" cx="10.5" cy="26.5" r="3.5"/>
		<path class="vermillion_06" d="M4.5,25C3.672,25,3,24.829,3,24c0-1.69,2.658-5.279,3.854-6.475l0.586-0.586
			c0.586-0.586,1.535-0.586,2.121,0c0.586,0.585,0.586,1.536,0,2.121l-0.586,0.586C8.346,20.275,6,23.111,6,24
			C6,24.829,5.328,25,4.5,25z"/>
		<circle class="vermillion_05" cx="4" cy="24" r="2"/>
		<circle class="lemon_04" cx="10" cy="16" r="3"/>
		<path class="white" d="M15,9c0,1.105-0.895,2-2,2s-2-0.895-2-2H15z"/>
		<path class="grey_16" d="M14,9c0,0.552-0.448,1-1,1s-1-0.448-1-1H14z"/>
		<path class="grey_01" d="M21,9c0,1.105-0.895,2-2,2s-2-0.895-2-2H21z"/>
		<path class="grey_17" d="M20,9c0,0.552-0.448,1-1,1s-1-0.448-1-1H20z"/>
		<path class="lemon_04" d="M16,10.766c-0.274,0-0.547,0.092-0.756,0.277c-0.201,0.178-0.473,0.277-0.756,0.277h-0.831
			c-0.397,0-0.656,0.371-0.478,0.685l0,0c0.095,0.169,0.119,0.362,0.068,0.546l-0.214,0.76c-0.136,0.48,0.169,0.972,0.699,1.128
			c0.736,0.217,1.502,0.326,2.269,0.326V10.766z"/>
		<path class="lemon_05" d="M18.269,14.44c0.53-0.157,0.835-0.648,0.699-1.128l-0.214-0.76c-0.052-0.183-0.028-0.377,0.068-0.546
			l0,0c0.178-0.315-0.081-0.685-0.478-0.685h-0.831c-0.284,0-0.556-0.1-0.756-0.277c-0.209-0.185-0.482-0.277-0.756-0.277v4
			C16.766,14.766,17.532,14.657,18.269,14.44z"/>
		<path class="vermillion_05" d="M16,9h-4.945c-0.65-0.635-1.056-1.519-1.056-2.5c0-1.933,1.567-3.5,3.5-3.5
			c0.984,0,1.865,0.415,2.5,1.07L16,9z"/>
	</g>
</g>
</svg>
