<?xml version="1.0" encoding="utf-8"?>
<!-- Generator: Adobe Illustrator 20.1.0, SVG Export Plug-In . SVG Version: 6.00 Build 0)  -->
<!DOCTYPE svg PUBLIC "-//W3C//DTD SVG 1.1//EN" "http://www.w3.org/Graphics/SVG/1.1/DTD/svg11.dtd">
<svg version="1.1" id="icons" xmlns="http://www.w3.org/2000/svg" xmlns:xlink="http://www.w3.org/1999/xlink" x="0px" y="0px"
	 width="32px" height="32px" viewBox="0 0 32 32" style="enable-background:new 0 0 32 32;" xml:space="preserve">
<style type="text/css">
	.white{fill:#FFFFFF;}
	.grey_01{fill:#F7F7F7;}
	.grey_02{fill:#EDEEEE;}
	.grey_03{fill:#E3E5E5;}
	.grey_04{fill:#DADDDC;}
	.grey_05{fill:#D1D4D4;}
	.grey_16{fill:#373F3F;}
	.grey_17{fill:#2B3332;}
	.lavender_06{fill:#6673AA;}
	.lavender_07{fill:#5C699E;}
	.dirt_10{fill:#CDA073;}
	.dirt_11{fill:#C09265;}
	.dirt_12{fill:#B38658;}
	.dirt_13{fill:#A7794C;}
	.dirt_14{fill:#9E6E43;}
	.dirt_15{fill:#96643B;}
	.dirt_18{fill:#724D31;}
	.dirt_19{fill:#604631;}
	.st0{fill:#945BA0;}
	.st1{fill:#B8A5E4;}
	.st2{fill:#C6B7E9;}
	.st3{fill:#D4C9EF;}
	.st4{fill:#E3DBF4;}
	.st5{fill:#B370B9;}
	.st6{fill:#A78EDD;}
	.st7{fill:#A366AD;}
	.st8{fill:#F1EDFA;}
	.st9{fill:#4B7E77;}
	.st10{fill:#56C7CD;}
	.st11{fill:#EB6B48;}
	.st12{fill:#E55F4A;}
	.st13{fill:#FF805D;}
	.st14{fill:#FFD96C;}
	.st15{fill:#F57552;}
	.st16{fill:#FFD04D;}
	.st17{fill:#FFE28A;}
	.st18{fill:#FF8D6E;}
	.st19{fill:#4390BF;}
	.st20{fill:#4896C8;}
	.st21{fill:#8EC0E0;}
	.st22{fill:#9FC9E4;}
	.st23{fill:#7FB8E0;}
	.st24{fill:#D2E6F3;}
	.st25{fill:#E2EFF7;}
	.st26{fill:#C1DDEE;}
	.st27{fill:#DCF2FD;}
	.st28{fill:#51BAC5;}
	.st29{fill:#5BD3D5;}
	.st30{fill:#FFAD68;}
	.st31{fill:#FFB76D;}
	.st32{fill:#FCA15E;}
	.st33{fill:#F7D684;}
	.st34{fill:#F0C877;}
	.st35{fill:#FAE09F;}
	.st36{fill:#FDEBBB;}
	.st37{fill:#FFF3D9;}
	.st38{fill:#FFC172;}
	.st39{fill:#231F20;}
	.st40{fill:#C8CCCB;}
	.st41{fill:#71B1E1;}
	.st42{fill:#B93D4F;}
	.st43{fill:#C84054;}
	.st44{fill:#D84459;}
	.st45{fill:#E85160;}
	.st46{fill:#F9ADC8;}
	.st47{fill:#F8A1C4;}
	.st48{fill:#FAB8CD;}
	.st49{fill:#FBCFD6;}
	.st50{fill:#FAC4D1;}
	.st51{fill:#E55D53;}
	.st52{fill:#D64F45;}
	.st53{fill:#FFA68E;}
	.st54{fill:#FF9A7E;}
	.st55{fill:#2B3332;}
	.st56{fill:#EA8BB4;}
	.st57{fill:#FFF5D8;}
	.st58{fill:#373F3F;}
	.st59{fill:#F297BE;}
	.st60{fill:#FEF1C6;}
	.st61{fill:#FCD2BE;}
	.st62{fill:#FCDDCF;}
	.st63{fill:#F79654;}
	.st64{fill:#EF8C48;}
	.st65{fill:none;}
	.st66{fill:#7C8AC4;}
	.st67{fill:#8694D1;}
	.st68{fill:#B0D3EA;}
	.st69{fill:#60C46F;}
	.st70{fill:#6CD275;}
	.st71{fill:#54B668;}
	.st72{fill:#84ED82;}
	.st73{fill:#78DF7C;}
	.st74{fill:#A7A9AC;}
	.st75{fill:#FF6B8B;}
	.st76{fill:#FF5F7E;}
	.st77{fill:#D49A87;}
	.st78{fill:#9179C6;}
	.st79{fill:#866EBA;}
	.st80{fill:#7A63AD;}
	.st81{fill:#9D85D3;}
	.st82{fill:#9E86BF;}
	.st83{fill:#FDE2E6;}
	.st84{fill:#FCD8DE;}
	.st85{fill:#E8BA36;}
	.st86{fill:#E0B12E;}
	.st87{fill:#DBA728;}
	.st88{fill:#C27BC6;}
	.st89{fill:#E8803A;}
	.st90{fill:#DD7731;}
	.st91{fill:#FF7899;}
	.st92{fill:#FAC7AF;}
	.st93{fill:#707EB7;}
	.st94{fill:#F7C845;}
	.st95{fill:#E26447;}
	.st96{fill:#5CA3D5;}
	.st97{fill:#529CCF;}
	.st98{fill:#65A9DC;}
	.st99{fill:#D799D6;}
	.st100{fill:#D285D2;}
	.st101{fill:#E0ABDF;}
	.st102{fill:#FEF8E8;}
	.st103{fill:#4295AC;}
	.st104{fill:#3B8FA3;}
	.st105{fill:#47A1B4;}
	.st106{fill:#8D5B36;}
	.st107{fill:#845331;}
	.st108{fill:#687271;}
	.st109{fill:#505957;}
	.st110{fill:#5C6664;}
	.st111{fill:#838C8A;}
	.st112{fill:#434C4B;}
	.st113{fill:#757F7E;}
	.st114{fill:#909997;}
	.st115{fill:#AADB3D;}
	.st116{fill:#B1E346;}
	.st117{fill:#9ACC2E;}
	.st118{fill:#93C427;}
	.st119{fill:#A2D336;}
	.st120{fill:#4CAEBC;}
	.st121{fill:#111918;}
	.st122{fill:#80C0DF;}
	.st123{fill:#F0C13E;}
	.st124{fill:#9DB5DE;}
	.st125{fill:#515E91;}
	.st126{fill:#495587;}
	.st127{fill:#CFAB81;}
</style>
<g>
	<path class="dirt_15" d="M13.216,23.536C8.093,21.488,2.823,23.45,2.602,23.534l0.355,0.935c0.051-0.02,5.133-1.906,9.887-0.004
		c2.753,1.101,6.365,1.8,9.043,1.799c1.766,0,3.126-0.304,3.565-0.996c0.28-0.442,0.569-1.042,0.308-1.754
		c-0.269-0.732-1.076-1.64-4.19-2.95c-0.516,0.212-1.043,0.4-1.585,0.538c-0.267,0.068-0.507,0.057-0.722,0
		c-2.615,0.412-11.468-0.825-15.13-1.591l-0.205,0.979c1.017,0.213,4.941,0.893,8.624,1.315c2.295,0.263,3.952,0.371,5.152,0.371
		c2.249,0,2.892-0.38,3.128-0.837c2.389,0.972,3.73,1.815,3.989,2.519c0.091,0.249,0.033,0.486-0.213,0.875
		C24.062,25.592,18.325,25.579,13.216,23.536z"/>
	<path class="dirt_15" d="M28.627,22.965c-1.201-1.477-3.412-2.451-5.653-3.102c-0.432,0.254-0.879,0.48-1.342,0.673
		c2.428,0.594,4.988,1.545,6.219,3.06c0.579,0.712,0.803,1.476,0.684,2.335c-0.055,0.393-0.225,0.681-0.533,0.907
		c-1.564,1.142-6.166,0.349-10.617-0.417c-6.807-1.171-13.844-2.383-15.576,1.543l0.914,0.403c1.419-3.213,8.364-2.016,14.492-0.961
		c3.053,0.526,5.856,1.008,8.02,1.008c1.439,0,2.597-0.213,3.357-0.77c0.527-0.386,0.842-0.917,0.934-1.577
		C29.683,24.935,29.381,23.891,28.627,22.965z"/>
	<path class="dirt_13" d="M13.03,29h-4v-6c0-1.105,0.895-2,2-2h0c1.105,0,2,0.895,2,2V29z"/>
	<path class="dirt_14" d="M13.03,29l0.638,1.276C13.835,30.609,13.593,31,13.221,31H8.839c-0.372,0-0.613-0.391-0.447-0.724L9.03,29
		H13.03z"/>
	<path class="dirt_14" d="M22.03,29h-4v-6c0-1.105,0.895-2,2-2h0c1.105,0,2,0.895,2,2V29z"/>
	<path class="dirt_15" d="M22.03,29l0.638,1.276C22.835,30.609,22.593,31,22.221,31h-4.382c-0.372,0-0.613-0.391-0.447-0.724
		L18.03,29H22.03z"/>
	<path class="dirt_13" d="M24.03,30h-4v-6c0-1.105,0.895-2,2-2h0c1.105,0,2,0.895,2,2V30z"/>
	<path class="dirt_14" d="M24.03,30l0.638,1.276C24.835,31.609,24.593,32,24.221,32h-4.382c-0.372,0-0.613-0.391-0.447-0.724
		L20.03,30H24.03z"/>
	<path class="dirt_12" d="M25.03,18.972c0,6.091-1.343,7.028-3,7.028c-1.657,0-3-0.937-3-7.028s1.343-11.028,3-11.028
		C23.687,7.944,25.03,12.881,25.03,18.972z"/>
	<path class="dirt_12" d="M12.03,30h-4v-6c0-1.105,0.895-2,2-2h0c1.105,0,2,0.895,2,2V30z"/>
	<path class="dirt_13" d="M12.03,30l0.638,1.276C12.835,31.609,12.593,32,12.221,32H7.839c-0.372,0-0.613-0.391-0.447-0.724L8.03,30
		H12.03z"/>
	<path class="dirt_11" d="M13.03,18.972c0,6.091-1.343,7.028-3,7.028s-3-0.937-3-7.028s1.343-11.028,3-11.028
		S13.03,12.881,13.03,18.972z"/>
	<g>
		<path class="dirt_14" d="M15.811,0.395L15.43,1.083L14.449,0.64c-0.12-0.054-0.26-0.007-0.322,0.108
			c-0.276,0.509-1.135,1.827-2.897,2.501C9.018,4.096,4.03,6,4.03,12.052c0,5.992,5.938,8.981,7.058,10.461
			c0.089,0.117,0.257,0.134,0.366,0.035l0.976-0.881l3.392,5.026c0.042,0.063,0.111,0.085,0.178,0.094V0.273
			C15.925,0.283,15.853,0.319,15.811,0.395z"/>
		<path class="dirt_15" d="M16.237,26.692l3.393-5.026l0.976,0.881c0.109,0.099,0.277,0.082,0.366-0.035
			c1.12-1.48,7.057-4.469,7.058-10.461C28.03,6,23.042,4.096,20.829,3.25c-1.762-0.674-2.62-1.993-2.897-2.501
			C17.87,0.633,17.73,0.586,17.611,0.64L16.63,1.083l-0.381-0.688C16.195,0.298,16.095,0.262,16,0.273v26.513
			C16.089,26.798,16.18,26.776,16.237,26.692z"/>
	</g>
	<path class="grey_03" d="M5.825,0.501c0,0-0.435,0.536-0.757,1.444c-0.17,0.443-0.241,0.978-0.188,1.477l0.068,0.367l0.153,0.337
		c0.118,0.216,0.265,0.412,0.454,0.587c0.207,0.169,0.376,0.341,0.651,0.469c0.227,0.145,0.473,0.271,0.763,0.365
		c0.273,0.101,0.503,0.216,0.796,0.274c0.271,0.07,0.527,0.136,0.763,0.197C8.754,6.085,9.011,6.101,9.21,6.14
		C9.415,6.172,9.594,6.2,9.741,6.223c0.291,0.047,0.458,0.073,0.458,0.073l0.124,0.02c1.126,0.18,1.876,1.144,1.674,2.153
		c-0.201,1.009-1.277,1.681-2.403,1.501C9.408,9.94,9.222,9.885,9.059,9.815c0,0-0.194-0.084-0.532-0.23
		C8.359,9.511,8.155,9.422,7.921,9.32C7.689,9.209,7.429,9.122,7.145,8.957c-0.564-0.327-1.22-0.638-1.872-1.173
		C4.941,7.557,4.62,7.265,4.32,6.928C4,6.634,3.751,6.233,3.519,5.844C3.303,5.453,3.149,5,3.083,4.575L3.03,3.932
		C3.057,3.728,3.083,3.525,3.11,3.326c0.168-0.771,0.497-1.399,0.852-1.864c0.69-0.933,1.344-1.384,1.344-1.384l0.02-0.014
		c0.154-0.106,0.375-0.08,0.494,0.058C5.917,0.236,5.914,0.391,5.825,0.501z"/>
	<path class="grey_04" d="M10.56,6.38l-0.193,0.605L9.708,9.103L9.515,9.708c0.178,0.826,1.018,0.841,1.018,0.841l0.336-1.05
		l0.658-2.119l0.336-1.05C11.862,6.329,11.178,5.825,10.56,6.38z"/>
	<path class="grey_04" d="M26.236,0.501c0,0,0.435,0.536,0.757,1.444c0.17,0.443,0.241,0.978,0.188,1.477l-0.068,0.367L26.96,4.127
		c-0.118,0.216-0.265,0.412-0.454,0.587c-0.207,0.169-0.376,0.341-0.651,0.469c-0.227,0.145-0.473,0.271-0.763,0.365
		c-0.273,0.101-0.503,0.216-0.796,0.274c-0.271,0.07-0.527,0.136-0.763,0.197c-0.226,0.067-0.483,0.084-0.682,0.122
		c-0.205,0.032-0.384,0.06-0.531,0.084c-0.291,0.047-0.458,0.073-0.458,0.073l-0.124,0.02c-1.126,0.18-1.876,1.144-1.674,2.153
		c0.201,1.009,1.277,1.681,2.403,1.501c0.187-0.03,0.372-0.086,0.536-0.156c0,0,0.194-0.084,0.532-0.23
		c0.168-0.073,0.371-0.162,0.605-0.265c0.233-0.111,0.492-0.198,0.776-0.363c0.564-0.327,1.22-0.638,1.872-1.173
		c0.333-0.226,0.654-0.518,0.953-0.856c0.32-0.294,0.569-0.695,0.801-1.084c0.216-0.392,0.37-0.845,0.436-1.269l0.053-0.643
		c-0.027-0.205-0.053-0.407-0.08-0.606c-0.168-0.771-0.497-1.399-0.852-1.864c-0.69-0.933-1.344-1.384-1.344-1.384l-0.02-0.014
		c-0.154-0.106-0.375-0.08-0.494,0.058C26.144,0.236,26.146,0.391,26.236,0.501z"/>
	<path class="grey_05" d="M21.501,6.38l0.193,0.605l0.658,2.119l0.193,0.605c-0.178,0.826-1.018,0.841-1.018,0.841l-0.336-1.05
		L20.534,7.38l-0.336-1.05C20.198,6.329,20.882,5.825,21.501,6.38z"/>
	<path class="dirt_11" d="M16.03,5.097v15.896c0,0,2.256,0.204,2.99-1.74c0.734-1.944,0.912-2.716,0.912-2.716
		s0.147,0.105,1.01-0.663c0.863-0.768,1.182-3.295,1.066-4.277l-0.878-3.393c-0.464-1.793-1.886-3.103-3.567-3.195
		C17.11,4.984,16.601,5.007,16.03,5.097z"/>
	<path class="dirt_10" d="M16.03,5.097v15.896c0,0-2.256,0.204-2.99-1.74c-0.734-1.944-0.912-2.716-0.912-2.716
		s-0.147,0.105-1.01-0.663c-0.863-0.768-1.182-3.295-1.066-4.277l0.878-3.393c0.464-1.793,1.886-3.103,3.567-3.195
		C14.951,4.984,15.46,5.007,16.03,5.097z"/>
	<path class="dirt_18" d="M16.03,18.34c0,0-0.919-0.34-1.412-0.34c-0.492,0-0.588,0.551-0.588,1.061c0,0.481,0.482,0.939,1,0.939h1
		V18.34z"/>
	<path class="dirt_19" d="M16.03,18.34c0,0,0.919-0.34,1.412-0.34c0.492,0,0.588,0.551,0.588,1.061c0,0.481-0.482,0.939-1,0.939h-1
		V18.34z"/>
	<g>
		<path class="white" d="M13.467,13.597c-0.069,0.233-0.171,0.392-0.291,0.392c-0.207,0-0.375-0.443-0.375-0.99
			c0-0.149,0.014-0.287,0.037-0.413L12.472,12l-0.326,1.157c-0.067,0.236,0.048,0.485,0.27,0.589L14.03,14.5L13.467,13.597z"/>
		<path class="grey_16" d="M13.176,13.989c0.12,0,0.223-0.16,0.291-0.392l-0.63-1.01c-0.022,0.127-0.037,0.264-0.037,0.413
			C12.801,13.546,12.969,13.989,13.176,13.989z"/>
	</g>
	<g>
		<path class="grey_01" d="M18.593,13.597c0.069,0.233,0.171,0.392,0.291,0.392c0.207,0,0.375-0.443,0.375-0.99
			c0-0.149-0.014-0.287-0.037-0.413L19.589,12l0.326,1.157c0.067,0.236-0.048,0.485-0.27,0.589L18.03,14.5L18.593,13.597z"/>
		<path class="grey_17" d="M18.884,13.989c-0.12,0-0.223-0.16-0.291-0.392l0.63-1.01c0.022,0.127,0.037,0.264,0.037,0.413
			C19.259,13.546,19.092,13.989,18.884,13.989z"/>
	</g>
	<g>
		<path class="grey_03" d="M14.53,11.5c0,0.828,0.672,1.5,1.5,1.5v-3C15.202,10,14.53,10.671,14.53,11.5z"/>
		<path class="grey_02" d="M15.03,8.5c0,0.552,0.448,1,1,1v-2C15.478,7.5,15.03,7.947,15.03,8.5z"/>
		<path class="grey_01" d="M15.53,6.5c0,0.276,0.224,0.5,0.5,0.5V6C15.754,6,15.53,6.223,15.53,6.5z"/>
		<path class="grey_04" d="M17.53,11.5c0-0.828-0.672-1.5-1.5-1.5v3C16.859,13,17.53,12.328,17.53,11.5z"/>
		<path class="grey_03" d="M17.03,8.5c0-0.552-0.448-1-1-1v2C16.583,9.5,17.03,9.052,17.03,8.5z"/>
		<path class="grey_02" d="M16.53,6.5c0-0.276-0.224-0.5-0.5-0.5v1C16.306,7,16.53,6.776,16.53,6.5z"/>
	</g>
	<g>
		<path class="lavender_06" d="M4.947,20.174L4.947,20.174c0.116-0.54-0.228-1.072-0.768-1.188
			c-0.369-0.079-1.715,0.115-2.521,0.245c-0.114,0.018-0.185,0.102-0.204,0.197L4.947,20.174
			C4.947,20.175,4.947,20.175,4.947,20.174z"/>
		<path class="lavender_07" d="M3.76,20.942c0.54,0.116,1.071-0.228,1.187-0.768l-3.493-0.747c-0.019,0.093,0.013,0.196,0.107,0.258
			C2.242,20.135,3.389,20.863,3.76,20.942z"/>
	</g>
	<g>
		<path class="lavender_06" d="M3.89,23.713L3.89,23.713c-0.15-0.532-0.703-0.841-1.234-0.691c-0.364,0.103-1.462,0.903-2.114,1.394
			c-0.092,0.069-0.116,0.177-0.089,0.269L3.89,23.713L3.89,23.713z"/>
		<path class="lavender_07" d="M3.199,24.947c0.531-0.15,0.841-0.702,0.691-1.233l-3.437,0.972c0.027,0.091,0.103,0.167,0.215,0.178
			C1.48,24.942,2.834,25.05,3.199,24.947z"/>
	</g>
	<g>
		<path class="lavender_06" d="M2.998,27.148L2.998,27.148c-0.482-0.27-1.092-0.098-1.361,0.384
			c-0.184,0.33-0.395,1.673-0.508,2.481c-0.016,0.114,0.043,0.207,0.128,0.253L2.998,27.148L2.998,27.148z"/>
		<path class="lavender_07" d="M3.382,28.509c0.269-0.482,0.098-1.091-0.384-1.36l-1.742,3.119c0.083,0.045,0.191,0.046,0.278-0.026
			C2.163,29.721,3.197,28.84,3.382,28.509z"/>
	</g>
</g>
</svg>
