<?xml version="1.0" encoding="utf-8"?>
<!-- Generator: Adobe Illustrator 20.1.0, SVG Export Plug-In . SVG Version: 6.00 Build 0)  -->
<!DOCTYPE svg PUBLIC "-//W3C//DTD SVG 1.1//EN" "http://www.w3.org/Graphics/SVG/1.1/DTD/svg11.dtd">
<svg version="1.1" id="icons" xmlns="http://www.w3.org/2000/svg" xmlns:xlink="http://www.w3.org/1999/xlink" x="0px" y="0px"
	 width="32px" height="32px" viewBox="0 0 32 32" style="enable-background:new 0 0 32 32;" xml:space="preserve">
<style type="text/css">
	.grey_16{fill:#373F3F;}
	.grey_17{fill:#2B3332;}
	.grape_03{fill:#E0ABDF;}
	.grape_04{fill:#D799D6;}
	.grape_05{fill:#D285D2;}
	.st0{fill:#945BA0;}
	.st1{fill:#B8A5E4;}
	.st2{fill:#C6B7E9;}
	.st3{fill:#D4C9EF;}
	.st4{fill:#E3DBF4;}
	.st5{fill:#B370B9;}
	.st6{fill:#A78EDD;}
	.st7{fill:#A366AD;}
	.st8{fill:#F1EDFA;}
	.st9{fill:#4B7E77;}
	.st10{fill:#56C7CD;}
	.st11{fill:#F7F7F7;}
	.st12{fill:#FFFFFF;}
	.st13{fill:#EB6B48;}
	.st14{fill:#E55F4A;}
	.st15{fill:#FF805D;}
	.st16{fill:#FFD96C;}
	.st17{fill:#F57552;}
	.st18{fill:#FFD04D;}
	.st19{fill:#96643B;}
	.st20{fill:#9E6E43;}
	.st21{fill:#FFE28A;}
	.st22{fill:#FF8D6E;}
	.st23{fill:#4390BF;}
	.st24{fill:#4896C8;}
	.st25{fill:#A7794C;}
	.st26{fill:#8EC0E0;}
	.st27{fill:#9FC9E4;}
	.st28{fill:#7FB8E0;}
	.st29{fill:#D2E6F3;}
	.st30{fill:#E2EFF7;}
	.st31{fill:#C1DDEE;}
	.st32{fill:#EDEEEE;}
	.st33{fill:#DCF2FD;}
	.st34{fill:#51BAC5;}
	.st35{fill:#5BD3D5;}
	.st36{fill:#FFAD68;}
	.st37{fill:#FFB76D;}
	.st38{fill:#FCA15E;}
	.st39{fill:#F7D684;}
	.st40{fill:#F0C877;}
	.st41{fill:#FAE09F;}
	.st42{fill:#FDEBBB;}
	.st43{fill:#FFF3D9;}
	.st44{fill:#FFC172;}
	.st45{fill:#231F20;}
	.st46{fill:#D1D4D4;}
	.st47{fill:#DADDDC;}
	.st48{fill:#C8CCCB;}
	.st49{fill:#71B1E1;}
	.st50{fill:#B93D4F;}
	.st51{fill:#C84054;}
	.st52{fill:#D84459;}
	.st53{fill:#E85160;}
	.st54{fill:#F9ADC8;}
	.st55{fill:#F8A1C4;}
	.st56{fill:#E3E5E5;}
	.st57{fill:#FAB8CD;}
	.st58{fill:#FBCFD6;}
	.st59{fill:#FAC4D1;}
	.st60{fill:#E55D53;}
	.st61{fill:#D64F45;}
	.st62{fill:#FFA68E;}
	.st63{fill:#FF9A7E;}
	.st64{fill:#2B3332;}
	.st65{fill:#EA8BB4;}
	.st66{fill:#FFF5D8;}
	.st67{fill:#373F3F;}
	.st68{fill:#F297BE;}
	.st69{fill:#FEF1C6;}
	.st70{fill:#FCD2BE;}
	.st71{fill:#FCDDCF;}
	.st72{fill:#F79654;}
	.st73{fill:#EF8C48;}
	.st74{fill:none;}
	.st75{fill:#6673AA;}
	.st76{fill:#7C8AC4;}
	.st77{fill:#8694D1;}
	.st78{fill:#B0D3EA;}
	.st79{fill:#60C46F;}
	.st80{fill:#6CD275;}
	.st81{fill:#54B668;}
	.st82{fill:#84ED82;}
	.st83{fill:#78DF7C;}
	.st84{fill:#B38658;}
	.st85{fill:#C09265;}
	.st86{fill:#CDA073;}
	.st87{fill:#A7A9AC;}
	.st88{fill:#FF6B8B;}
	.st89{fill:#FF5F7E;}
	.st90{fill:#D49A87;}
	.st91{fill:#9179C6;}
	.st92{fill:#866EBA;}
	.st93{fill:#7A63AD;}
	.st94{fill:#9D85D3;}
	.st95{fill:#9E86BF;}
	.st96{fill:#FDE2E6;}
	.st97{fill:#FCD8DE;}
	.st98{fill:#E8BA36;}
	.st99{fill:#E0B12E;}
	.st100{fill:#DBA728;}
	.st101{fill:#C27BC6;}
	.st102{fill:#E8803A;}
	.st103{fill:#DD7731;}
	.st104{fill:#FF7899;}
	.st105{fill:#FAC7AF;}
	.st106{fill:#5C699E;}
	.st107{fill:#707EB7;}
	.st108{fill:#F7C845;}
	.st109{fill:#E26447;}
	.st110{fill:#5CA3D5;}
	.st111{fill:#529CCF;}
	.st112{fill:#65A9DC;}
	.st113{fill:#FEF8E8;}
	.st114{fill:#4295AC;}
	.st115{fill:#3B8FA3;}
	.st116{fill:#47A1B4;}
	.st117{fill:#8D5B36;}
	.st118{fill:#845331;}
	.st119{fill:#687271;}
	.st120{fill:#505957;}
	.st121{fill:#5C6664;}
	.st122{fill:#838C8A;}
	.st123{fill:#434C4B;}
	.st124{fill:#757F7E;}
	.st125{fill:#909997;}
	.st126{fill:#AADB3D;}
	.st127{fill:#B1E346;}
	.st128{fill:#9ACC2E;}
	.st129{fill:#93C427;}
	.st130{fill:#A2D336;}
	.st131{fill:#4CAEBC;}
	.st132{fill:#111918;}
	.st133{fill:#80C0DF;}
	.st134{fill:#F0C13E;}
	.st135{fill:#9DB5DE;}
	.st136{fill:#515E91;}
	.st137{fill:#495587;}
	.st138{fill:#CFAB81;}
	.st139{fill:#724D31;}
	.st140{fill:#604631;}
</style>
<g>
	<g>
		<path class="grape_04" d="M15.999,22.703c-0.289-0.059-0.579-0.119-0.865-0.189c-1.436-0.352-2.898-0.774-4.248-1.381
			c-1.372-0.616-2.701-1.508-4.258-1.51c-1.677-0.002-3.683,1.047-5.448,1.042c-0.233,0.243-0.44,0.513-0.59,0.842
			c-0.348,0.762-0.533,1.595-0.578,2.43c-0.057,1.047,0.472,2.171,1.119,2.966C2.908,29.093,5.751,26.997,7.941,27
			c1.34,0.002,2.482,0.768,3.662,1.298c1.161,0.522,2.418,0.884,3.653,1.187c0.246,0.06,0.495,0.111,0.744,0.162L15.999,22.703
			C16,22.703,16,22.703,15.999,22.703z"/>
		<path class="grape_05" d="M28.697,21.514c-1.776-0.479-3.172-0.877-4.96-0.127c-1.244,0.521-2.428,1.279-3.779,1.505
			c-1.322,0.221-2.655,0.08-3.959-0.188v6.945c1.121,0.23,2.268,0.351,3.405,0.162c1.161-0.194,2.179-0.846,3.249-1.294
			c1.538-0.645,2.738-0.302,4.265,0.11c2.013,0.542,3.685,0.098,4.711-1.838c0.905-1.707,0.008-3.445-1.173-5.031
			C29.901,21.761,29.314,21.68,28.697,21.514z"/>
		<path class="grape_03" d="M10.886,21.134c1.351,0.607,2.812,1.029,4.248,1.381c0.286,0.07,0.576,0.129,0.865,0.189c0,0,0,0,0,0
			L16,2.97C14.82,2.924,12.978,2,11.894,2c-1.226,0-1.779,1.08-2.611,1.798c-1.262,1.09-2.991,0.83-4.426,1.536
			C4.243,5.636,3.688,6.091,3.356,6.69c-0.721,1.302-0.232,2.674,0.107,3.998c0.488,1.907,0.994,3.954,0.688,5.932
			c-0.142,0.917-0.479,1.773-1.126,2.451c-0.569,0.597-1.29,1.012-1.847,1.594c1.766,0.006,3.771-1.044,5.448-1.042
			C8.185,19.626,9.514,20.518,10.886,21.134z"/>
		<path class="grape_04" d="M30,11.814c0-1.387-0.813-2.001-2.019-2.433c-1.398-0.501-2.667-1.033-3.517-2.326
			c-0.801-1.217-1.226-2.674-2.224-3.761c-0.68-0.74-1.686-1.285-2.714-1.2c-1.206,0.1-2.2,0.895-3.451,0.883
			c-0.023,0-0.051-0.006-0.075-0.007v19.733c1.304,0.267,2.637,0.408,3.959,0.188c1.35-0.226,2.534-0.983,3.779-1.505
			c1.789-0.75,3.184-0.351,4.96,0.127c0.617,0.166,1.204,0.247,1.759,0.243c-1.111-1.491-2.472-2.849-2.828-3.915
			C26.893,15.641,30,14.308,30,11.814z"/>
	</g>
	<circle class="grey_16" cx="12.5" cy="7.5" r="0.5"/>
	<circle class="grey_17" cx="19.5" cy="7.5" r="0.5"/>
	<g>
		<g>
			<path class="grey_17" d="M10.079,9.763C9.95,9.719,9.807,9.791,9.763,9.921c-0.043,0.131,0.027,0.272,0.158,0.316
				c0.124,0.041,3.073,1.013,6.079,1.013v-0.5C13.077,10.75,10.109,9.772,10.079,9.763z"/>
			<path class="grey_17" d="M22.237,9.921c-0.044-0.131-0.184-0.202-0.316-0.158c-0.03,0.01-2.998,0.987-5.921,0.987v0.5
				c3.006,0,5.955-0.972,6.079-1.013C22.21,10.193,22.281,10.052,22.237,9.921z"/>
		</g>
		<g>
			<path class="grey_16" d="M10.079,9.763C9.95,9.719,9.807,9.791,9.763,9.921c-0.043,0.131,0.027,0.272,0.158,0.316
				c0.124,0.041,3.073,1.013,6.079,1.013v-0.5C13.077,10.75,10.109,9.772,10.079,9.763z"/>
			<path class="grey_17" d="M22.237,9.921c-0.044-0.131-0.184-0.202-0.316-0.158c-0.03,0.01-2.998,0.987-5.921,0.987v0.5
				c3.006,0,5.955-0.972,6.079-1.013C22.21,10.193,22.281,10.052,22.237,9.921z"/>
		</g>
	</g>
</g>
</svg>
