<?xml version="1.0" encoding="utf-8"?>
<!-- Generator: Adobe Illustrator 20.1.0, SVG Export Plug-In . SVG Version: 6.00 Build 0)  -->
<!DOCTYPE svg PUBLIC "-//W3C//DTD SVG 1.1//EN" "http://www.w3.org/Graphics/SVG/1.1/DTD/svg11.dtd">
<svg version="1.1" id="icons" xmlns="http://www.w3.org/2000/svg" xmlns:xlink="http://www.w3.org/1999/xlink" x="0px" y="0px"
	 width="32px" height="32px" viewBox="0 0 32 32" style="enable-background:new 0 0 32 32;" xml:space="preserve">
<style type="text/css">
	.white{fill:#FFFFFF;}
	.grey_01{fill:#F7F7F7;}
	.grey_16{fill:#373F3F;}
	.grey_17{fill:#2B3332;}
	.sand_01{fill:#FFF3D9;}
	.sand_02{fill:#FDEBBB;}
	.sand_03{fill:#FAE09F;}
	.dirt_10{fill:#CDA073;}
	.dirt_11{fill:#C09265;}
	.dirt_12{fill:#B38658;}
	.dirt_13{fill:#A7794C;}
	.dirt_16{fill:#8D5B36;}
	.dirt_17{fill:#845331;}
	.st0{fill:#945BA0;}
	.st1{fill:#B8A5E4;}
	.st2{fill:#C6B7E9;}
	.st3{fill:#D4C9EF;}
	.st4{fill:#E3DBF4;}
	.st5{fill:#B370B9;}
	.st6{fill:#A78EDD;}
	.st7{fill:#A366AD;}
	.st8{fill:#F1EDFA;}
	.st9{fill:#4B7E77;}
	.st10{fill:#56C7CD;}
	.st11{fill:#EB6B48;}
	.st12{fill:#E55F4A;}
	.st13{fill:#FF805D;}
	.st14{fill:#FFD96C;}
	.st15{fill:#F57552;}
	.st16{fill:#FFD04D;}
	.st17{fill:#96643B;}
	.st18{fill:#9E6E43;}
	.st19{fill:#FFE28A;}
	.st20{fill:#FF8D6E;}
	.st21{fill:#4390BF;}
	.st22{fill:#4896C8;}
	.st23{fill:#8EC0E0;}
	.st24{fill:#9FC9E4;}
	.st25{fill:#7FB8E0;}
	.st26{fill:#D2E6F3;}
	.st27{fill:#E2EFF7;}
	.st28{fill:#C1DDEE;}
	.st29{fill:#EDEEEE;}
	.st30{fill:#DCF2FD;}
	.st31{fill:#51BAC5;}
	.st32{fill:#5BD3D5;}
	.st33{fill:#FFAD68;}
	.st34{fill:#FFB76D;}
	.st35{fill:#FCA15E;}
	.st36{fill:#F7D684;}
	.st37{fill:#F0C877;}
	.st38{fill:#FFC172;}
	.st39{fill:#231F20;}
	.st40{fill:#D1D4D4;}
	.st41{fill:#DADDDC;}
	.st42{fill:#C8CCCB;}
	.st43{fill:#71B1E1;}
	.st44{fill:#B93D4F;}
	.st45{fill:#C84054;}
	.st46{fill:#D84459;}
	.st47{fill:#E85160;}
	.st48{fill:#F9ADC8;}
	.st49{fill:#F8A1C4;}
	.st50{fill:#E3E5E5;}
	.st51{fill:#FAB8CD;}
	.st52{fill:#FBCFD6;}
	.st53{fill:#FAC4D1;}
	.st54{fill:#E55D53;}
	.st55{fill:#D64F45;}
	.st56{fill:#FFA68E;}
	.st57{fill:#FF9A7E;}
	.st58{fill:#2B3332;}
	.st59{fill:#EA8BB4;}
	.st60{fill:#FFF5D8;}
	.st61{fill:#373F3F;}
	.st62{fill:#F297BE;}
	.st63{fill:#FEF1C6;}
	.st64{fill:#FCD2BE;}
	.st65{fill:#FCDDCF;}
	.st66{fill:#F79654;}
	.st67{fill:#EF8C48;}
	.st68{fill:none;}
	.st69{fill:#6673AA;}
	.st70{fill:#7C8AC4;}
	.st71{fill:#8694D1;}
	.st72{fill:#B0D3EA;}
	.st73{fill:#60C46F;}
	.st74{fill:#6CD275;}
	.st75{fill:#54B668;}
	.st76{fill:#84ED82;}
	.st77{fill:#78DF7C;}
	.st78{fill:#A7A9AC;}
	.st79{fill:#FF6B8B;}
	.st80{fill:#FF5F7E;}
	.st81{fill:#D49A87;}
	.st82{fill:#9179C6;}
	.st83{fill:#866EBA;}
	.st84{fill:#7A63AD;}
	.st85{fill:#9D85D3;}
	.st86{fill:#9E86BF;}
	.st87{fill:#FDE2E6;}
	.st88{fill:#FCD8DE;}
	.st89{fill:#E8BA36;}
	.st90{fill:#E0B12E;}
	.st91{fill:#DBA728;}
	.st92{fill:#C27BC6;}
	.st93{fill:#E8803A;}
	.st94{fill:#DD7731;}
	.st95{fill:#FF7899;}
	.st96{fill:#FAC7AF;}
	.st97{fill:#5C699E;}
	.st98{fill:#707EB7;}
	.st99{fill:#F7C845;}
	.st100{fill:#E26447;}
	.st101{fill:#5CA3D5;}
	.st102{fill:#529CCF;}
	.st103{fill:#65A9DC;}
	.st104{fill:#D799D6;}
	.st105{fill:#D285D2;}
	.st106{fill:#E0ABDF;}
	.st107{fill:#FEF8E8;}
	.st108{fill:#4295AC;}
	.st109{fill:#3B8FA3;}
	.st110{fill:#47A1B4;}
	.st111{fill:#687271;}
	.st112{fill:#505957;}
	.st113{fill:#5C6664;}
	.st114{fill:#838C8A;}
	.st115{fill:#434C4B;}
	.st116{fill:#757F7E;}
	.st117{fill:#909997;}
	.st118{fill:#AADB3D;}
	.st119{fill:#B1E346;}
	.st120{fill:#9ACC2E;}
	.st121{fill:#93C427;}
	.st122{fill:#A2D336;}
	.st123{fill:#4CAEBC;}
	.st124{fill:#111918;}
	.st125{fill:#80C0DF;}
	.st126{fill:#F0C13E;}
	.st127{fill:#9DB5DE;}
	.st128{fill:#515E91;}
	.st129{fill:#495587;}
	.st130{fill:#CFAB81;}
	.st131{fill:#724D31;}
	.st132{fill:#604631;}
</style>
<g>
	<g>
		<path class="dirt_13" d="M25.484,27.656c1.523-1.207,2.228-2.753,2.443-4.394c-1.684,1.823-4.832,4.502-8.196,3.613
			c-1.689-0.446-2.477,0.045-2.797,0.875C18.446,29.243,21.38,30.911,25.484,27.656z"/>
		<g>
			<path class="dirt_12" d="M20.87,16.443l-0.026,0.051l-5.078,9.787c0,0,0.402,0.712,1.169,1.469
				c0.321-0.831,1.109-1.322,2.797-0.875c3.364,0.889,6.512-1.79,8.196-3.613c0.184-1.409,0-2.883-0.362-4.284
				C25.281,19.271,22.804,18.8,20.87,16.443z"/>
			<path class="sand_03" d="M27.566,18.978c0.002-0.003,0.003-0.004,0.005-0.008c-0.712-2.75-2.1-5.198-2.718-6.196
				c-0.108-0.175-0.378-0.151-0.443,0.044c-0.762,2.286-3.212,2.994-3.212,2.994l-0.327,0.631
				C22.804,18.8,25.281,19.271,27.566,18.978z"/>
		</g>
	</g>
	<g>
		<path class="sand_03" d="M22.92,21.983c0.001-0.001,0.002-0.002,0.002-0.002c0.014-0.644-0.083-1.337-0.324-2.06
			c-0.241-0.724-0.695-1.22-1.24-1.574c-0.394,0.378-1.004,0.762-1.846,1.056c0.754,0.957,1.344,2.688,1.033,4.126
			c-0.147,0.679-0.494,1.29-1.119,1.72c-0.472,0.325-0.909,0.679-1.306,1.031c0.275,0,0.576,0,0.922,0
			c1.926,0,3.836-2.107,3.882-4.301C22.922,21.981,22.921,21.982,22.92,21.983z"/>
		<path class="dirt_13" d="M18.119,26.281c0.275,0,0.576,0,0.922,0c0.962,0,1.78-0.535,2.386-1.068
			c0.025,0.489-0.033,1.293-0.508,2.193c-0.424,0.804-0.468,1.131-0.423,1.609c0.257,0.2,0.423,0.48,0.423,0.797
			c0,0.604-0.583,1.188-1.302,1.188c-0.687,0-1.235-0.17-1.284-0.736L16,30.5v-3.969C16,26.531,16.835,27.419,18.119,26.281z"/>
		<path class="dirt_12" d="M18.119,26.281c0.275,0,0.576,0,0.922,0c0.255,0,0.499-0.032,0.734-0.085
			c-0.285,1.003-0.701,2.166-0.787,2.898c-0.094,0.797,0.01,1.2,0.081,1.372c0.023,0.035,0.037,0.072,0.055,0.109l0,0
			c0.049,0.105,0.083,0.215,0.083,0.332c0,0.604-0.718,1.094-1.603,1.094C16.718,32,16,31.51,16,30.906v-3.375
			C16,27.531,16.835,27.419,18.119,26.281z"/>
	</g>
	<g>
		<path class="sand_02" d="M12.575,25.25c-0.625-0.43-0.972-1.041-1.119-1.72c-0.311-1.438,0.28-3.169,1.033-4.126
			c-0.842-0.294-1.452-0.678-1.846-1.056c-0.546,0.353-0.999,0.85-1.24,1.574c-0.241,0.723-0.338,1.416-0.325,2.059
			c0.045,2.194,1.956,4.301,3.882,4.301c0.346,0,0.647,0,0.922,0C13.484,25.929,13.047,25.575,12.575,25.25z"/>
		<path class="dirt_12" d="M13.881,26.281c-0.275,0-0.576,0-0.922,0c-0.962,0-1.78-0.535-2.386-1.068
			c-0.025,0.489,0.033,1.293,0.508,2.193c0.424,0.804,0.468,1.131,0.423,1.609c-0.257,0.2-0.423,0.48-0.423,0.797
			c0,0.604,0.583,1.188,1.302,1.188c0.687,0,1.235-0.17,1.284-0.736L16,30.5v-3.969C16,26.531,15.165,27.419,13.881,26.281z"/>
		<path class="dirt_11" d="M13.881,26.281c-0.275,0-0.576,0-0.922,0c-0.255,0-0.499-0.032-0.734-0.085
			c0.285,1.003,0.701,2.166,0.787,2.898c0.094,0.797-0.01,1.2-0.081,1.372c-0.023,0.035-0.037,0.072-0.055,0.109l0,0
			c-0.049,0.105-0.083,0.215-0.083,0.332c0,0.604,0.718,1.094,1.603,1.094C15.282,32,16,31.51,16,30.906v-3.375
			C16,27.531,15.165,27.419,13.881,26.281z"/>
	</g>
	<g>
		<path class="sand_01" d="M14.928,19.868c-0.966-0.067-1.778-0.233-2.439-0.464c-0.754,0.957-1.344,2.688-1.033,4.126
			c0.147,0.679,0.494,1.29,1.119,1.72c0.472,0.325,0.909,0.679,1.306,1.031c0.767,0.68,1.374,1.35,1.738,1.78
			c0.1,0.118,0.241,0.178,0.381,0.178v-8.333C15.617,19.911,15.261,19.897,14.928,19.868z"/>
		<path class="sand_02" d="M18.119,26.281c0.397-0.352,0.834-0.706,1.306-1.031c0.625-0.43,0.972-1.041,1.119-1.72
			c0.311-1.438-0.28-3.169-1.033-4.126c-0.66,0.231-1.473,0.397-2.439,0.464c-0.334,0.029-0.69,0.044-1.072,0.038v8.333
			c0.14,0,0.28-0.059,0.381-0.178C16.745,27.632,17.352,26.961,18.119,26.281z"/>
	</g>
	<path class="dirt_11" d="M19.96,11.108c7.734-2.55,9.588-8.041,10.032-10.526c0.078-0.438-0.41-0.743-0.776-0.489
		c-1.902,1.319-5.282,2.528-6.924,3.585c-1.96,1.262-3.328,3.859-3.328,3.968L19.96,11.108z"/>
	<path class="dirt_17" d="M20.609,9.431c2.388-0.357,7.111-4.588,7.891-7.086c0.06-0.192-0.126-0.374-0.319-0.318
		c-6.641,1.92-8.259,5.776-8.259,5.776L20.609,9.431z"/>
	<path class="dirt_11" d="M16,19.999V6c0,0,5.483,0.068,6.395,3.254c0.911,3.186,0.182,4.949,0.255,5.423
		c0.073,0.475,0.597,1.898,0.207,2.847C22.468,18.473,20.397,20.055,16,19.999z"/>
	<path class="dirt_10" d="M12.04,11.108C4.306,8.557,2.453,3.067,2.008,0.581C1.93,0.143,2.419-0.161,2.784,0.092
		C4.687,1.411,8.067,2.62,9.709,3.677c1.96,1.262,3.328,3.859,3.328,3.968L12.04,11.108z"/>
	<path class="dirt_16" d="M12.078,7.803c0,0-1.618-3.856-8.259-5.776C3.627,1.971,3.44,2.153,3.5,2.345
		c0.78,2.498,5.503,6.729,7.891,7.086L12.078,7.803z"/>
	<path class="dirt_10" d="M16,19.999V6c0,0-5.483,0.068-6.395,3.254c-0.911,3.186-0.182,4.949-0.255,5.423s-0.597,1.898-0.207,2.847
		C9.532,18.473,11.603,20.055,16,19.999z"/>
	<g>
		<path class="dirt_17" d="M19.896,11.759c0.041,0.18,0.07,0.369,0.07,0.569c0,1.033-0.598,1.87-1.336,1.87
			c-0.169,0-0.33-0.049-0.479-0.129C18.362,14.62,18.772,15,19.25,15c0.69,0,1.25-0.783,1.25-1.75
			C20.5,12.616,20.257,12.066,19.896,11.759z"/>
		<path class="grey_17" d="M19.966,12.328c0-0.2-0.028-0.388-0.07-0.569c-0.189-0.161-0.409-0.259-0.646-0.259
			c-0.69,0-1.25,0.783-1.25,1.75c0,0.298,0.058,0.574,0.152,0.819c0.149,0.08,0.309,0.129,0.479,0.129
			C19.368,14.198,19.966,13.361,19.966,12.328z"/>
	</g>
	
		<ellipse transform="matrix(0.0782 -0.9969 0.9969 0.0782 5.2825 30.7133)" class="grey_01" cx="19.25" cy="12.5" rx="0.5" ry="0.5"/>
	<g>
		<path class="dirt_16" d="M12.104,11.759c-0.041,0.18-0.07,0.369-0.07,0.569c0,1.033,0.598,1.87,1.336,1.87
			c0.169,0,0.33-0.049,0.479-0.129C13.638,14.62,13.228,15,12.75,15c-0.69,0-1.25-0.783-1.25-1.75
			C11.5,12.616,11.743,12.066,12.104,11.759z"/>
		<path class="grey_16" d="M12.034,12.328c0-0.2,0.028-0.388,0.07-0.569c0.189-0.161,0.409-0.259,0.646-0.259
			c0.69,0,1.25,0.783,1.25,1.75c0,0.298-0.058,0.574-0.152,0.819c-0.149,0.08-0.309,0.129-0.479,0.129
			C12.632,14.198,12.034,13.361,12.034,12.328z"/>
	</g>
	<ellipse transform="matrix(0.9969 -0.0782 0.0782 0.9969 -0.9387 1.0356)" class="white" cx="12.75" cy="12.5" rx="0.5" ry="0.5"/>
	<g>
		<path class="grey_16" d="M15.138,16c-0.122,0-0.184,0.13-0.097,0.206l0.862,0.758C15.93,16.988,15.965,17,16,17v-1H15.138z"/>
		<path class="grey_17" d="M16.96,16.206C17.046,16.13,16.985,16,16.862,16H16v1c0.035,0,0.07-0.012,0.097-0.035L16.96,16.206z"/>
	</g>
</g>
</svg>
