<?xml version="1.0" encoding="utf-8"?>
<!-- Generator: Adobe Illustrator 20.1.0, SVG Export Plug-In . SVG Version: 6.00 Build 0)  -->
<!DOCTYPE svg PUBLIC "-//W3C//DTD SVG 1.1//EN" "http://www.w3.org/Graphics/SVG/1.1/DTD/svg11.dtd">
<svg version="1.1" id="icons" xmlns="http://www.w3.org/2000/svg" xmlns:xlink="http://www.w3.org/1999/xlink" x="0px" y="0px"
	 width="32px" height="32px" viewBox="0 0 32 32" style="enable-background:new 0 0 32 32;" xml:space="preserve">
<style type="text/css">
	.grey_16{fill:#373F3F;}
	.grey_17{fill:#2B3332;}
	.tulip_01{fill:#FF7899;}
	.tulip_02{fill:#FF6B8B;}
	.lemon_04{fill:#FFE28A;}
	.lemon_05{fill:#FFD96C;}
	.lemon_06{fill:#FFD04D;}
	.dirt_09{fill:#CFAB81;}
	.dirt_10{fill:#CDA073;}
	.dirt_11{fill:#C09265;}
	.st0{fill:#945BA0;}
	.st1{fill:#B8A5E4;}
	.st2{fill:#C6B7E9;}
	.st3{fill:#D4C9EF;}
	.st4{fill:#E3DBF4;}
	.st5{fill:#B370B9;}
	.st6{fill:#A78EDD;}
	.st7{fill:#A366AD;}
	.st8{fill:#F1EDFA;}
	.st9{fill:#4B7E77;}
	.st10{fill:#56C7CD;}
	.st11{fill:#F7F7F7;}
	.st12{fill:#FFFFFF;}
	.st13{fill:#EB6B48;}
	.st14{fill:#E55F4A;}
	.st15{fill:#FF805D;}
	.st16{fill:#F57552;}
	.st17{fill:#96643B;}
	.st18{fill:#9E6E43;}
	.st19{fill:#FF8D6E;}
	.st20{fill:#4390BF;}
	.st21{fill:#4896C8;}
	.st22{fill:#A7794C;}
	.st23{fill:#8EC0E0;}
	.st24{fill:#9FC9E4;}
	.st25{fill:#7FB8E0;}
	.st26{fill:#D2E6F3;}
	.st27{fill:#E2EFF7;}
	.st28{fill:#C1DDEE;}
	.st29{fill:#EDEEEE;}
	.st30{fill:#DCF2FD;}
	.st31{fill:#51BAC5;}
	.st32{fill:#5BD3D5;}
	.st33{fill:#FFAD68;}
	.st34{fill:#FFB76D;}
	.st35{fill:#FCA15E;}
	.st36{fill:#F7D684;}
	.st37{fill:#F0C877;}
	.st38{fill:#FAE09F;}
	.st39{fill:#FDEBBB;}
	.st40{fill:#FFF3D9;}
	.st41{fill:#FFC172;}
	.st42{fill:#231F20;}
	.st43{fill:#D1D4D4;}
	.st44{fill:#DADDDC;}
	.st45{fill:#C8CCCB;}
	.st46{fill:#71B1E1;}
	.st47{fill:#B93D4F;}
	.st48{fill:#C84054;}
	.st49{fill:#D84459;}
	.st50{fill:#E85160;}
	.st51{fill:#F9ADC8;}
	.st52{fill:#F8A1C4;}
	.st53{fill:#E3E5E5;}
	.st54{fill:#FAB8CD;}
	.st55{fill:#FBCFD6;}
	.st56{fill:#FAC4D1;}
	.st57{fill:#E55D53;}
	.st58{fill:#D64F45;}
	.st59{fill:#FFA68E;}
	.st60{fill:#FF9A7E;}
	.st61{fill:#2B3332;}
	.st62{fill:#EA8BB4;}
	.st63{fill:#FFF5D8;}
	.st64{fill:#373F3F;}
	.st65{fill:#F297BE;}
	.st66{fill:#FEF1C6;}
	.st67{fill:#FCD2BE;}
	.st68{fill:#FCDDCF;}
	.st69{fill:#F79654;}
	.st70{fill:#EF8C48;}
	.st71{fill:none;}
	.st72{fill:#6673AA;}
	.st73{fill:#7C8AC4;}
	.st74{fill:#8694D1;}
	.st75{fill:#B0D3EA;}
	.st76{fill:#60C46F;}
	.st77{fill:#6CD275;}
	.st78{fill:#54B668;}
	.st79{fill:#84ED82;}
	.st80{fill:#78DF7C;}
	.st81{fill:#B38658;}
	.st82{fill:#A7A9AC;}
	.st83{fill:#FF5F7E;}
	.st84{fill:#D49A87;}
	.st85{fill:#9179C6;}
	.st86{fill:#866EBA;}
	.st87{fill:#7A63AD;}
	.st88{fill:#9D85D3;}
	.st89{fill:#9E86BF;}
	.st90{fill:#FDE2E6;}
	.st91{fill:#FCD8DE;}
	.st92{fill:#E8BA36;}
	.st93{fill:#E0B12E;}
	.st94{fill:#DBA728;}
	.st95{fill:#C27BC6;}
	.st96{fill:#E8803A;}
	.st97{fill:#DD7731;}
	.st98{fill:#FAC7AF;}
	.st99{fill:#5C699E;}
	.st100{fill:#707EB7;}
	.st101{fill:#F7C845;}
	.st102{fill:#E26447;}
	.st103{fill:#5CA3D5;}
	.st104{fill:#529CCF;}
	.st105{fill:#65A9DC;}
	.st106{fill:#D799D6;}
	.st107{fill:#D285D2;}
	.st108{fill:#E0ABDF;}
	.st109{fill:#FEF8E8;}
	.st110{fill:#4295AC;}
	.st111{fill:#3B8FA3;}
	.st112{fill:#47A1B4;}
	.st113{fill:#8D5B36;}
	.st114{fill:#845331;}
	.st115{fill:#687271;}
	.st116{fill:#505957;}
	.st117{fill:#5C6664;}
	.st118{fill:#838C8A;}
	.st119{fill:#434C4B;}
	.st120{fill:#757F7E;}
	.st121{fill:#909997;}
	.st122{fill:#AADB3D;}
	.st123{fill:#B1E346;}
	.st124{fill:#9ACC2E;}
	.st125{fill:#93C427;}
	.st126{fill:#A2D336;}
	.st127{fill:#4CAEBC;}
	.st128{fill:#111918;}
	.st129{fill:#80C0DF;}
	.st130{fill:#F0C13E;}
	.st131{fill:#9DB5DE;}
	.st132{fill:#515E91;}
	.st133{fill:#495587;}
	.st134{fill:#724D31;}
	.st135{fill:#604631;}
</style>
<g>
	<path class="lemon_05" d="M8.935,23.044l-2.407,0.059L3.81,20.471l2.633-1.964c0.664-0.495,0.801-1.435,0.305-2.099
		c-0.495-0.664-1.435-0.801-2.099-0.305L0.603,19.12c-0.061,0.046-0.126,0.102-0.181,0.159c-0.576,0.595-0.561,1.545,0.034,2.121
		l4.325,4.187l0.325,0.314c0.369,0.359,0.959,0.352,1.319-0.017l2.59-2.658c0.019-0.02,0.031-0.048,0.031-0.078
		C9.044,23.089,8.994,23.042,8.935,23.044z"/>
	<path class="grey_16" d="M3.562,20.16c0,0-0.75,4.812,12.438,4.812v-12H3.875L3.562,20.16z"/>
	<circle class="tulip_01" cx="11" cy="20.972" r="2"/>
	<path class="lemon_04" d="M7.789,26.905l-1.261,0.031L3.81,24.304l2.582-1.927c0.658-0.491,0.854-1.427,0.383-2.099
		c-0.488-0.696-1.45-0.847-2.126-0.343l-4.046,3.018C0.542,23,0.477,23.056,0.422,23.113c-0.576,0.595-0.561,1.545,0.034,2.121
		l4.325,4.187l0.325,0.314c0.369,0.359,0.959,0.352,1.319-0.017l1.751-1.982C8.465,27.409,8.225,26.895,7.789,26.905z"/>
	<path class="lemon_06" d="M23.065,23.044l2.407,0.059l2.719-2.632l-2.633-1.964c-0.664-0.495-0.801-1.435-0.305-2.099
		c0.495-0.664,1.435-0.801,2.099-0.305l4.046,3.018c0.061,0.046,0.126,0.102,0.181,0.159c0.576,0.595,0.561,1.545-0.034,2.121
		l-4.325,4.187l-0.325,0.314c-0.369,0.359-0.959,0.352-1.319-0.017l-2.59-2.658c-0.019-0.02-0.031-0.048-0.031-0.078
		C22.956,23.089,23.006,23.042,23.065,23.044z"/>
	<path class="grey_17" d="M28.438,20.16c0,0,0.75,4.812-12.438,4.812v-12h12.125L28.438,20.16z"/>
	<path class="lemon_05" d="M24.211,26.905l1.261,0.031l2.719-2.632l-2.582-1.927c-0.658-0.491-0.854-1.427-0.383-2.099
		c0.488-0.696,1.45-0.847,2.126-0.343l4.046,3.018c0.061,0.046,0.126,0.102,0.181,0.159c0.576,0.595,0.561,1.545-0.034,2.121
		l-4.325,4.187l-0.325,0.314c-0.369,0.359-0.959,0.352-1.319-0.017l-1.751-1.982C23.535,27.409,23.775,26.895,24.211,26.905z"/>
	<circle class="tulip_02" cx="21" cy="20.972" r="2"/>
	<g>
		<path class="dirt_09" d="M16,2C13,2,8.123,3.321,5,5.972c-1.469,1.247-2.455,2.881-3.068,4.589C5.411,7.749,10.416,5.972,16,5.972
			V2z"/>
		<path class="dirt_10" d="M30.068,10.561C29.455,8.853,28.469,7.219,27,5.972C23.877,3.321,19,2,16,2v3.972
			C21.584,5.972,26.589,7.749,30.068,10.561z"/>
		<path class="dirt_10" d="M3.523,19.97c3.625,0.094,5.125-3.149,7.875-3.149c0.985,0,1.855,0.51,2.566,1.165
			c0.577,0.531,1.307,0.797,2.037,0.797V5.972c-5.584,0-10.589,1.777-14.068,4.589C0.343,14.984,1.336,19.913,3.523,19.97z"/>
		<path class="dirt_11" d="M16,18.783c0.73,0,1.46-0.266,2.037-0.797c0.711-0.655,1.581-1.165,2.566-1.165
			c2.75,0,4.25,3.243,7.875,3.149c2.187-0.057,3.18-4.986,1.591-9.409C26.589,7.749,21.584,5.972,16,5.972V18.783z"/>
	</g>
	<circle class="grey_16" cx="8.5" cy="11.472" r="1.5"/>
	<circle class="grey_17" cx="24.5" cy="11.472" r="1.5"/>
</g>
</svg>
