<?xml version="1.0" encoding="utf-8"?>
<!-- Generator: Adobe Illustrator 20.1.0, SVG Export Plug-In . SVG Version: 6.00 Build 0)  -->
<!DOCTYPE svg PUBLIC "-//W3C//DTD SVG 1.1//EN" "http://www.w3.org/Graphics/SVG/1.1/DTD/svg11.dtd">
<svg version="1.1" id="icons" xmlns="http://www.w3.org/2000/svg" xmlns:xlink="http://www.w3.org/1999/xlink" x="0px" y="0px"
	 width="32px" height="32px" viewBox="0 0 32 32" style="enable-background:new 0 0 32 32;" xml:space="preserve">
<style type="text/css">
	.white{fill:#FFFFFF;}
	.grey_01{fill:#F7F7F7;}
	.grey_04{fill:#DADDDC;}
	.grey_05{fill:#D1D4D4;}
	.grey_06{fill:#C8CCCB;}
	.grey_16{fill:#373F3F;}
	.grey_17{fill:#2B3332;}
	.dirt_09{fill:#CFAB81;}
	.dirt_10{fill:#CDA073;}
	.dirt_11{fill:#C09265;}
	.dirt_12{fill:#B38658;}
	.dirt_13{fill:#A7794C;}
	.st0{fill:#945BA0;}
	.st1{fill:#B8A5E4;}
	.st2{fill:#C6B7E9;}
	.st3{fill:#D4C9EF;}
	.st4{fill:#E3DBF4;}
	.st5{fill:#B370B9;}
	.st6{fill:#A78EDD;}
	.st7{fill:#A366AD;}
	.st8{fill:#F1EDFA;}
	.st9{fill:#4B7E77;}
	.st10{fill:#56C7CD;}
	.st11{fill:#EB6B48;}
	.st12{fill:#E55F4A;}
	.st13{fill:#FF805D;}
	.st14{fill:#FFD96C;}
	.st15{fill:#F57552;}
	.st16{fill:#FFD04D;}
	.st17{fill:#96643B;}
	.st18{fill:#9E6E43;}
	.st19{fill:#FFE28A;}
	.st20{fill:#FF8D6E;}
	.st21{fill:#4390BF;}
	.st22{fill:#4896C8;}
	.st23{fill:#8EC0E0;}
	.st24{fill:#9FC9E4;}
	.st25{fill:#7FB8E0;}
	.st26{fill:#D2E6F3;}
	.st27{fill:#E2EFF7;}
	.st28{fill:#C1DDEE;}
	.st29{fill:#EDEEEE;}
	.st30{fill:#DCF2FD;}
	.st31{fill:#51BAC5;}
	.st32{fill:#5BD3D5;}
	.st33{fill:#FFAD68;}
	.st34{fill:#FFB76D;}
	.st35{fill:#FCA15E;}
	.st36{fill:#F7D684;}
	.st37{fill:#F0C877;}
	.st38{fill:#FAE09F;}
	.st39{fill:#FDEBBB;}
	.st40{fill:#FFF3D9;}
	.st41{fill:#FFC172;}
	.st42{fill:#231F20;}
	.st43{fill:#71B1E1;}
	.st44{fill:#B93D4F;}
	.st45{fill:#C84054;}
	.st46{fill:#D84459;}
	.st47{fill:#E85160;}
	.st48{fill:#F9ADC8;}
	.st49{fill:#F8A1C4;}
	.st50{fill:#E3E5E5;}
	.st51{fill:#FAB8CD;}
	.st52{fill:#FBCFD6;}
	.st53{fill:#FAC4D1;}
	.st54{fill:#E55D53;}
	.st55{fill:#D64F45;}
	.st56{fill:#FFA68E;}
	.st57{fill:#FF9A7E;}
	.st58{fill:#2B3332;}
	.st59{fill:#EA8BB4;}
	.st60{fill:#FFF5D8;}
	.st61{fill:#373F3F;}
	.st62{fill:#F297BE;}
	.st63{fill:#FEF1C6;}
	.st64{fill:#FCD2BE;}
	.st65{fill:#FCDDCF;}
	.st66{fill:#F79654;}
	.st67{fill:#EF8C48;}
	.st68{fill:none;}
	.st69{fill:#6673AA;}
	.st70{fill:#7C8AC4;}
	.st71{fill:#8694D1;}
	.st72{fill:#B0D3EA;}
	.st73{fill:#60C46F;}
	.st74{fill:#6CD275;}
	.st75{fill:#54B668;}
	.st76{fill:#84ED82;}
	.st77{fill:#78DF7C;}
	.st78{fill:#A7A9AC;}
	.st79{fill:#FF6B8B;}
	.st80{fill:#FF5F7E;}
	.st81{fill:#D49A87;}
	.st82{fill:#9179C6;}
	.st83{fill:#866EBA;}
	.st84{fill:#7A63AD;}
	.st85{fill:#9D85D3;}
	.st86{fill:#9E86BF;}
	.st87{fill:#FDE2E6;}
	.st88{fill:#FCD8DE;}
	.st89{fill:#E8BA36;}
	.st90{fill:#E0B12E;}
	.st91{fill:#DBA728;}
	.st92{fill:#C27BC6;}
	.st93{fill:#E8803A;}
	.st94{fill:#DD7731;}
	.st95{fill:#FF7899;}
	.st96{fill:#FAC7AF;}
	.st97{fill:#5C699E;}
	.st98{fill:#707EB7;}
	.st99{fill:#F7C845;}
	.st100{fill:#E26447;}
	.st101{fill:#5CA3D5;}
	.st102{fill:#529CCF;}
	.st103{fill:#65A9DC;}
	.st104{fill:#D799D6;}
	.st105{fill:#D285D2;}
	.st106{fill:#E0ABDF;}
	.st107{fill:#FEF8E8;}
	.st108{fill:#4295AC;}
	.st109{fill:#3B8FA3;}
	.st110{fill:#47A1B4;}
	.st111{fill:#8D5B36;}
	.st112{fill:#845331;}
	.st113{fill:#687271;}
	.st114{fill:#505957;}
	.st115{fill:#5C6664;}
	.st116{fill:#838C8A;}
	.st117{fill:#434C4B;}
	.st118{fill:#757F7E;}
	.st119{fill:#909997;}
	.st120{fill:#AADB3D;}
	.st121{fill:#B1E346;}
	.st122{fill:#9ACC2E;}
	.st123{fill:#93C427;}
	.st124{fill:#A2D336;}
	.st125{fill:#4CAEBC;}
	.st126{fill:#111918;}
	.st127{fill:#80C0DF;}
	.st128{fill:#F0C13E;}
	.st129{fill:#9DB5DE;}
	.st130{fill:#515E91;}
	.st131{fill:#495587;}
	.st132{fill:#724D31;}
	.st133{fill:#604631;}
</style>
<g>
	<g>
		<polygon class="dirt_12" points="21.961,29.312 25.061,29.312 25.044,29.166 21.979,29.166 		"/>
		<path class="dirt_12" d="M11.011,13l-4.206,2.524c-0.448,0.269-0.614,0.837-0.38,1.305l1.139,2.277
			C7.811,19.6,8.412,19.8,8.906,19.553L10.011,19l1.005,1.371l-3.171,2.681c-0.097,0.082-0.159,0.197-0.174,0.323l-0.71,5.938h3.1
			l-0.589-4.927c-0.023-0.192,0.067-0.38,0.231-0.483l2.673-1.675l3.232,4.41c0.098,0.134,0.246,0.201,0.395,0.203V13.998L11.011,13
			z"/>
		<path class="dirt_13" d="M24.178,23.052l-3.171-2.681L22.011,19l1.106,0.553c0.494,0.247,1.095,0.047,1.342-0.447l1.139-2.277
			c0.234-0.467,0.068-1.036-0.38-1.305L21.011,13l-5,1l-0.009-0.002v12.842c0.155,0.003,0.31-0.065,0.412-0.203l3.232-4.41
			l2.673,1.675c0.164,0.103,0.254,0.291,0.231,0.483l-0.571,4.781h3.065l-0.692-5.792C24.337,23.249,24.275,23.133,24.178,23.052z"
			/>
	</g>
	<g>
		<polygon class="dirt_09" points="9.878,18.874 8.145,17.876 11.014,12.892 13.011,13.431 		"/>
		<path class="grey_04" d="M4.561,17.874c0.21-0.508,0.782-0.762,1.294-0.563l3.822,1.485c0.115,0.045,0.246-0.001,0.307-0.108
			l0.363-0.63l-5.677-4.292c-0.48-0.363-1.17-0.223-1.47,0.299l-0.216,0.375c-0.904,2.323-1.102,4.763-0.85,7.045
			c0.174,1.536,0.52,2.602,1.025,3.738c0.119,0.267,0.518,0.152,0.477-0.138c-0.165-1.168-0.161-2.199,0.002-3.599
			C3.788,20.218,4.098,18.996,4.561,17.874z"/>
		<g>
			<path class="grey_04" d="M16.011,13.01c-0.024,0-0.047-0.003-0.071,0l-2.405,0.343c-0.165,0.023-0.307,0.128-0.38,0.277
				l-1.022,2.116c-0.039,0.08-0.053,0.167-0.047,0.253h3.925V13.01z"/>
			<path class="grey_05" d="M19.936,16c0.006-0.086-0.009-0.173-0.047-0.253l-1.022-2.116c-0.072-0.15-0.215-0.254-0.38-0.277
				l-2.405-0.343c-0.023-0.003-0.047,0-0.071,0V16H19.936z"/>
			<path class="grey_05" d="M15.591,21.538c0.099,0.152,0.259,0.229,0.42,0.229V16h-3.925c0.006,0.083,0.031,0.164,0.078,0.236
				L15.591,21.538z"/>
			<path class="grey_06" d="M16.011,21.767c0.161,0,0.321-0.076,0.42-0.229l3.428-5.302c0.046-0.072,0.072-0.153,0.078-0.236h-3.925
				V21.767z"/>
		</g>
		<polygon class="dirt_10" points="22.145,18.874 19.011,13.431 21.009,12.892 23.878,17.876 		"/>
		<path class="dirt_11" d="M14.011,14l-6.894-1.97c-0.067-0.019-0.124-0.066-0.155-0.129L4.038,6.053
			C4.02,6.018,4.011,5.98,4.011,5.941V0.305c0-0.158,0.144-0.276,0.299-0.245L14.011,2V14z"/>
		<path class="dirt_10" d="M16.011,1l-5.418-0.903c-0.305-0.051-0.582,0.184-0.582,0.493v7.327c0,0.053,0.021,0.104,0.059,0.141
			L14.011,14h2V1z"/>
		<path class="dirt_12" d="M18.011,14l6.894-1.97c0.067-0.019,0.124-0.066,0.155-0.129l2.924-5.849
			c0.017-0.035,0.026-0.073,0.026-0.112V0.305c0-0.158-0.144-0.276-0.299-0.245L18.011,2V14z"/>
		<path class="dirt_11" d="M16.011,1l5.418-0.903c0.305-0.051,0.582,0.184,0.582,0.493v7.327c0,0.053-0.021,0.104-0.059,0.141
			L18.011,14h-2V1z"/>
		<path class="grey_06" d="M27.439,17.874c-0.21-0.508-0.782-0.762-1.294-0.563l-3.822,1.485c-0.115,0.045-0.246-0.001-0.307-0.108
			l-0.363-0.63l5.677-4.292c0.48-0.363,1.17-0.223,1.47,0.299l0.216,0.375c0.904,2.323,1.102,4.763,0.85,7.045
			c-0.174,1.536-0.52,2.602-1.025,3.738c-0.119,0.267-0.518,0.152-0.477-0.138c0.165-1.168,0.161-2.199-0.002-3.599
			C28.212,20.218,27.902,18.996,27.439,17.874z"/>
		<g>
			<path class="white" d="M10.596,8.905c-0.011,0.116-0.018,0.235-0.018,0.359c0,0.871,0.279,1.577,0.623,1.577
				c0.167,0,0.317-0.168,0.429-0.437l0.784,1.135l-2.08-0.791c-0.194-0.074-0.322-0.26-0.322-0.467V8.059L10.596,8.905z"/>
			<path class="grey_16" d="M11.201,10.841c-0.344,0-0.623-0.706-0.623-1.577c0-0.124,0.007-0.243,0.018-0.359l1.034,1.498
				C11.518,10.673,11.367,10.841,11.201,10.841z"/>
		</g>
		<g>
			<path class="grey_01" d="M21.427,8.905c0.011,0.116,0.018,0.235,0.018,0.359c0,0.871-0.279,1.577-0.623,1.577
				c-0.167,0-0.317-0.168-0.429-0.437l-0.784,1.135l2.08-0.791c0.194-0.074,0.322-0.26,0.322-0.467V8.059L21.427,8.905z"/>
			<path class="grey_17" d="M20.822,10.841c0.344,0,0.623-0.706,0.623-1.577c0-0.124-0.007-0.243-0.018-0.359l-1.034,1.498
				C20.505,10.673,20.655,10.841,20.822,10.841z"/>
		</g>
		<path class="grey_04" d="M6.228,31.343l0.66-2C6.955,29.138,7.147,29,7.363,29h2.288c0.215,0,0.406,0.138,0.474,0.342l0.667,2
			C10.9,31.666,10.659,32,10.318,32H6.703C6.362,32,6.121,31.667,6.228,31.343z"/>
		<path class="grey_06" d="M25.795,31.343l-0.66-2C25.067,29.138,24.876,29,24.66,29h-2.288c-0.215,0-0.406,0.138-0.474,0.342
			l-0.667,2C21.123,31.666,21.364,32,21.705,32h3.615C25.661,32,25.901,31.667,25.795,31.343z"/>
	</g>
</g>
</svg>
