<?xml version="1.0" encoding="utf-8"?>
<!-- Generator: Adobe Illustrator 20.1.0, SVG Export Plug-In . SVG Version: 6.00 Build 0)  -->
<!DOCTYPE svg PUBLIC "-//W3C//DTD SVG 1.1//EN" "http://www.w3.org/Graphics/SVG/1.1/DTD/svg11.dtd">
<svg version="1.1" id="icons" xmlns="http://www.w3.org/2000/svg" xmlns:xlink="http://www.w3.org/1999/xlink" x="0px" y="0px"
	 width="32px" height="32px" viewBox="0 0 32 32" style="enable-background:new 0 0 32 32;" xml:space="preserve">
<style type="text/css">
	.white{fill:#FFFFFF;}
	.grey_01{fill:#F7F7F7;}
	.periwinkle_12{fill:#4896C8;}
	.periwinkle_13{fill:#4390BF;}
	.rose_04{fill:#FCD8DE;}
	.rose_05{fill:#FBCFD6;}
	.rose_06{fill:#FAC4D1;}
	.rose_07{fill:#FAB8CD;}
	.rose_08{fill:#F9ADC8;}
	.st0{fill:#945BA0;}
	.st1{fill:#B8A5E4;}
	.st2{fill:#C6B7E9;}
	.st3{fill:#D4C9EF;}
	.st4{fill:#E3DBF4;}
	.st5{fill:#B370B9;}
	.st6{fill:#A78EDD;}
	.st7{fill:#A366AD;}
	.st8{fill:#F1EDFA;}
	.st9{fill:#4B7E77;}
	.st10{fill:#56C7CD;}
	.st11{fill:#2B3332;}
	.st12{fill:#373F3F;}
	.st13{fill:#EB6B48;}
	.st14{fill:#E55F4A;}
	.st15{fill:#FF805D;}
	.st16{fill:#FFD96C;}
	.st17{fill:#F57552;}
	.st18{fill:#FFD04D;}
	.st19{fill:#96643B;}
	.st20{fill:#9E6E43;}
	.st21{fill:#FFE28A;}
	.st22{fill:#FF8D6E;}
	.st23{fill:#A7794C;}
	.st24{fill:#8EC0E0;}
	.st25{fill:#9FC9E4;}
	.st26{fill:#7FB8E0;}
	.st27{fill:#D2E6F3;}
	.st28{fill:#E2EFF7;}
	.st29{fill:#C1DDEE;}
	.st30{fill:#EDEEEE;}
	.st31{fill:#DCF2FD;}
	.st32{fill:#51BAC5;}
	.st33{fill:#5BD3D5;}
	.st34{fill:#FFAD68;}
	.st35{fill:#FFB76D;}
	.st36{fill:#FCA15E;}
	.st37{fill:#F7D684;}
	.st38{fill:#F0C877;}
	.st39{fill:#FAE09F;}
	.st40{fill:#FDEBBB;}
	.st41{fill:#FFF3D9;}
	.st42{fill:#FFC172;}
	.st43{fill:#231F20;}
	.st44{fill:#D1D4D4;}
	.st45{fill:#DADDDC;}
	.st46{fill:#C8CCCB;}
	.st47{fill:#71B1E1;}
	.st48{fill:#B93D4F;}
	.st49{fill:#C84054;}
	.st50{fill:#D84459;}
	.st51{fill:#E85160;}
	.st52{fill:#F8A1C4;}
	.st53{fill:#E3E5E5;}
	.st54{fill:#E55D53;}
	.st55{fill:#D64F45;}
	.st56{fill:#FFA68E;}
	.st57{fill:#FF9A7E;}
	.st58{fill:#EA8BB4;}
	.st59{fill:#FFF5D8;}
	.st60{fill:#F297BE;}
	.st61{fill:#FEF1C6;}
	.st62{fill:#FCD2BE;}
	.st63{fill:#FCDDCF;}
	.st64{fill:#F79654;}
	.st65{fill:#EF8C48;}
	.st66{fill:none;}
	.st67{fill:#6673AA;}
	.st68{fill:#7C8AC4;}
	.st69{fill:#8694D1;}
	.st70{fill:#B0D3EA;}
	.st71{fill:#60C46F;}
	.st72{fill:#6CD275;}
	.st73{fill:#54B668;}
	.st74{fill:#84ED82;}
	.st75{fill:#78DF7C;}
	.st76{fill:#B38658;}
	.st77{fill:#C09265;}
	.st78{fill:#CDA073;}
	.st79{fill:#A7A9AC;}
	.st80{fill:#FF6B8B;}
	.st81{fill:#FF5F7E;}
	.st82{fill:#D49A87;}
	.st83{fill:#9179C6;}
	.st84{fill:#866EBA;}
	.st85{fill:#7A63AD;}
	.st86{fill:#9D85D3;}
	.st87{fill:#9E86BF;}
	.st88{fill:#FDE2E6;}
	.st89{fill:#E8BA36;}
	.st90{fill:#E0B12E;}
	.st91{fill:#DBA728;}
	.st92{fill:#C27BC6;}
	.st93{fill:#E8803A;}
	.st94{fill:#DD7731;}
	.st95{fill:#FF7899;}
	.st96{fill:#FAC7AF;}
	.st97{fill:#5C699E;}
	.st98{fill:#707EB7;}
	.st99{fill:#F7C845;}
	.st100{fill:#E26447;}
	.st101{fill:#5CA3D5;}
	.st102{fill:#529CCF;}
	.st103{fill:#65A9DC;}
	.st104{fill:#D799D6;}
	.st105{fill:#D285D2;}
	.st106{fill:#E0ABDF;}
	.st107{fill:#FEF8E8;}
	.st108{fill:#4295AC;}
	.st109{fill:#3B8FA3;}
	.st110{fill:#47A1B4;}
	.st111{fill:#8D5B36;}
	.st112{fill:#845331;}
	.st113{fill:#687271;}
	.st114{fill:#505957;}
	.st115{fill:#5C6664;}
	.st116{fill:#838C8A;}
	.st117{fill:#434C4B;}
	.st118{fill:#757F7E;}
	.st119{fill:#909997;}
	.st120{fill:#AADB3D;}
	.st121{fill:#B1E346;}
	.st122{fill:#9ACC2E;}
	.st123{fill:#93C427;}
	.st124{fill:#A2D336;}
	.st125{fill:#4CAEBC;}
	.st126{fill:#111918;}
	.st127{fill:#80C0DF;}
	.st128{fill:#F0C13E;}
	.st129{fill:#9DB5DE;}
	.st130{fill:#515E91;}
	.st131{fill:#495587;}
	.st132{fill:#CFAB81;}
	.st133{fill:#724D31;}
	.st134{fill:#604631;}
</style>
<g>
	<path class="rose_08" d="M25.675,18.114c-0.611-1.31-1.953-2.429-3.502-2.922c-1.679-0.534-3.662-0.632-6.06-0.299l0.274,1.98
		c2.097-0.289,3.791-0.217,5.18,0.225c1.002,0.319,1.925,1.067,2.295,1.861c0.235,0.502,0.249,0.989,0.044,1.488
		c-0.735,1.793-4.184,2.163-6.244,2.385l-0.727,0.08c-1.134,0.136-2.272,0.23-3.411,0.326c-1.179,0.099-2.398,0.2-3.603,0.348
		l-0.5,0.057c-1.131,0.124-2.592,0.293-3.726,0.948c-0.73-0.186-1.605-0.291-2.224,0.018c-1.079,0.538-1.987,2.132-2.418,2.998
		c-0.148,0.297,0.028,0.649,0.354,0.709c0.952,0.177,2.771,0.41,3.85-0.128c0.643-0.321,1.096-1.13,1.386-1.845
		c0.754-0.466,2.03-0.607,2.997-0.713l0.525-0.06c1.167-0.142,2.367-0.242,3.527-0.339c1.162-0.098,2.323-0.195,3.48-0.333
		l0.704-0.078c2.666-0.286,6.694-0.719,7.881-3.614C26.174,20.191,26.146,19.122,25.675,18.114z"/>
	<path class="rose_06" d="M23.316,12.051l-2.768-0.923C18.841,7.635,16,8.556,16,8.556v8.819c1.973,0,3.808-0.467,5.365-1.262
		c0.047-0.375,0.088-0.956,0.079-1.541l1.872-0.624C24.228,13.645,24.228,12.355,23.316,12.051z"/>
	<path class="rose_05" d="M11.452,11.129l-2.768,0.923c-0.912,0.304-0.912,1.593,0,1.897l1.872,0.624
		c-0.009,0.585,0.032,1.166,0.079,1.541c1.557,0.795,3.393,1.262,5.365,1.262V8.556C16,8.556,13.159,7.635,11.452,11.129z"/>
	<path class="rose_07" d="M22.953,30.118l-2.3-5.691c-0.155-0.384-0.065-0.827,0.244-1.103c0.346-0.309,0.744-0.735,1.199-1.324
		c1.225-1.588,0.163-3.681-0.868-5.088c0.05-0.258,0.101-0.513,0.137-0.799c-0.181,0.092-0.377,0.164-0.565,0.247l0,0
		c-0.489,0.216-0.998,0.401-1.53,0.551v0c-1.028,0.289-2.121,0.463-3.27,0.463v4.612c0,0,1.035,0.119,2.205-0.443l0.215,0.583
		l-0.455,0.956c-0.094,0.197-0.121,0.419-0.076,0.632l1.431,6.916c0.121,0.906,1.155,1.526,2.223,1.334
		C22.549,31.784,23.183,30.953,22.953,30.118z"/>
	<path class="rose_06" d="M12.73,16.912L12.73,16.912c-0.532-0.15-1.042-0.335-1.53-0.551c-0.188-0.083-0.385-0.155-0.565-0.247
		c0.036,0.285,0.087,0.54,0.137,0.799C9.742,18.319,8.68,20.412,9.905,22c0.454,0.589,0.853,1.015,1.199,1.324
		c0.309,0.276,0.399,0.719,0.244,1.103l-2.3,5.691c-0.23,0.835,0.404,1.666,1.41,1.847c1.069,0.192,2.103-0.428,2.223-1.334
		l1.431-6.916c0.044-0.214,0.017-0.436-0.076-0.632l-0.455-0.956l0.215-0.583C14.965,22.107,16,21.988,16,21.988v-4.612
		C14.851,17.376,13.758,17.201,12.73,16.912z"/>
	<path class="rose_05" d="M16,0v10.996c0,0,1.286,0.139,2.714-1.249S23,8.499,23,5.724c0-1.838-0.643-1.561-0.643-2.428
		s1.054-2.134,0.205-2.983c-0.75-0.75-3.455,0.277-3.777,0.277S17.893,0,16,0z"/>
	<path class="rose_04" d="M16,0v10.996c0,0-1.286,0.139-2.714-1.249S9,8.499,9,5.724c0-1.838,0.643-1.561,0.643-2.428
		S8.589,1.161,9.438,0.312c0.75-0.75,3.455,0.277,3.777,0.277C13.536,0.59,14.107,0,16,0z"/>
	<g>
		<path class="white" d="M13.899,5.356c-0.073-0.112-0.15-0.222-0.243-0.325c-0.875-0.969-1.469,1.031-1.375,2
			c0.036,0.369,0.355,0.583,0.737,0.707c-0.009-0.145-0.02-0.291-0.009-0.44C13.068,6.528,13.405,5.854,13.899,5.356z"/>
		<path class="periwinkle_12" d="M14.438,7.67c0.025-0.533-0.017-1.514-0.538-2.314c-0.495,0.498-0.832,1.171-0.89,1.942
			c-0.011,0.15,0,0.295,0.009,0.44c0.408,0.133,0.886,0.164,1.166,0.169C14.32,7.91,14.431,7.806,14.438,7.67z"/>
	</g>
	<g>
		<path class="grey_01" d="M18.101,5.356c0.073-0.112,0.15-0.222,0.243-0.325c0.875-0.969,1.469,1.031,1.375,2
			c-0.036,0.369-0.355,0.583-0.737,0.707c0.009-0.145,0.02-0.291,0.009-0.44C18.932,6.528,18.595,5.854,18.101,5.356z"/>
		<path class="periwinkle_13" d="M17.562,7.67c-0.025-0.533,0.017-1.514,0.538-2.314c0.495,0.498,0.832,1.171,0.89,1.942
			c0.011,0.15,0,0.295-0.009,0.44c-0.408,0.133-0.886,0.164-1.166,0.169C17.68,7.91,17.569,7.806,17.562,7.67z"/>
	</g>
</g>
</svg>
