<?xml version="1.0" encoding="utf-8"?>
<!-- Generator: Adobe Illustrator 20.1.0, SVG Export Plug-In . SVG Version: 6.00 Build 0)  -->
<!DOCTYPE svg PUBLIC "-//W3C//DTD SVG 1.1//EN" "http://www.w3.org/Graphics/SVG/1.1/DTD/svg11.dtd">
<svg version="1.1" id="icons" xmlns="http://www.w3.org/2000/svg" xmlns:xlink="http://www.w3.org/1999/xlink" x="0px" y="0px"
	 width="32px" height="32px" viewBox="0 0 32 32" style="enable-background:new 0 0 32 32;" xml:space="preserve">
<style type="text/css">
	.white{fill:#FFFFFF;}
	.grey_01{fill:#F7F7F7;}
	.grey_16{fill:#373F3F;}
	.grey_17{fill:#2B3332;}
	.salmon_06{fill:#F4A984;}
	.salmon_07{fill:#EA9C7A;}
	.lemon_04{fill:#FFE28A;}
	.lemon_05{fill:#FFD96C;}
	.lemon_06{fill:#FFD04D;}
	.lemon_09{fill:#E8BA36;}
	.lemon_10{fill:#E0B12E;}
	.st0{fill:#78DF7C;}
	.st1{fill:#54B668;}
	.st2{fill:#7A63AD;}
	.st3{fill:#866EBA;}
	.st4{fill:#D2E6F3;}
	.st5{fill:#C1DDEE;}
	.st6{fill:#E0C193;}
	.st7{fill:#DBBA8C;}
	.st8{fill:#7FB8E0;}
	.st9{fill:#8EC0E0;}
	.st10{fill:#71B1E1;}
	.st11{fill:#9FC9E4;}
	.st12{fill:#FFEAA7;}
	.st13{fill:#FF6B8B;}
	.st14{fill:#FEF1C6;}
	.st15{fill:#E85160;}
	.st16{fill:#D84459;}
	.st17{fill:#E55D53;}
	.st18{fill:#FFD400;}
	.st19{fill:#FF8F00;}
	.st20{fill:#FF4A00;}
	.st21{fill:#F7D684;}
	.st22{fill:#FAE09F;}
	.st23{fill:#FDEBBB;}
	.st24{fill:#FFF3D9;}
	.st25{fill:#9ACC2E;}
	.st26{fill:#AADB3D;}
	.st27{fill:#A2D336;}
	.st28{fill:#93C427;}
	.st29{fill:#F79654;}
	.st30{fill:#FCA15E;}
	.st31{fill:#A9E260;}
	.st32{fill:#97DB4A;}
	.st33{fill:#B1E346;}
	.st34{fill:#FCD8DE;}
	.st35{fill:#CDA073;}
	.st36{fill:#C09265;}
	.st37{fill:#A7794C;}
	.st38{fill:#96643B;}
	.st39{fill:#845331;}
	.st40{fill:#B38658;}
	.st41{fill:#9E6E43;}
	.st42{fill:#8D5B36;}
	.st43{fill:#FBCFD6;}
	.st44{fill:#FAC4D1;}
	.st45{fill:#FAB8CD;}
	.st46{fill:#F9ADC8;}
	.st47{fill:#F8A1C4;}
	.st48{fill:#F297BE;}
	.st49{fill:#EA8BB4;}
	.st50{fill:#FFC172;}
	.st51{fill:#FFAD68;}
	.st52{fill:#FFB76D;}
	.st53{fill:#6E57A0;}
	.st54{fill:#675099;}
	.st55{fill:#F3586F;}
	.st56{fill:#604893;}
	.st57{fill:#CBEB6B;}
	.st58{fill:#4EAC5D;}
	.st59{fill:#BEE758;}
	.st60{fill:#6CD275;}
	.st61{fill:#48A353;}
	.st62{fill:#60C46F;}
	.st63{fill:#D9F07D;}
	.st64{fill:#E6F490;}
	.st65{fill:#4896C8;}
	.st66{fill:#4390BF;}
	.st67{fill:#5CA3D5;}
	.st68{fill:#529CCF;}
	.st69{fill:#F7C845;}
	.st70{fill:#ECCD50;}
	.st71{fill:#FF8D6E;}
	.st72{fill:#FF805D;}
	.st73{fill:#EDEEEE;}
	.st74{fill:#65A9DC;}
	.st75{fill:#8BC07A;}
	.st76{fill:#F0C13E;}
	.st77{fill:#9A3644;}
	.st78{fill:#8A323F;}
	.st79{fill:#945BA0;}
	.st80{fill:#A366AD;}
	.st81{fill:#B370B9;}
	.st82{fill:#C27BC6;}
	.st83{fill:#F6B392;}
	.st84{fill:#D285D2;}
	.st85{fill:#DBA728;}
	.st86{fill:#505957;}
	.st87{fill:#56C7CD;}
	.st88{fill:#434C4B;}
	.st89{fill:#687271;}
	.st90{fill:#5C6664;}
	.st91{fill:#51BAC5;}
	.st92{fill:#D64F45;}
	.st93{fill:#D1D4D4;}
	.st94{fill:#E3E5E5;}
	.st95{fill:#DADDDC;}
	.st96{fill:#845194;}
	.st97{fill:#5BD3D5;}
	.st98{fill:#46B080;}
	.st99{fill:#53BF8C;}
	.st100{fill:#6EDCA2;}
	.st101{fill:#7AEBAC;}
	.st102{fill:#60CD96;}
	.st103{fill:#E8803A;}
	.st104{fill:#0A6F8E;}
	.st105{fill:#0F769B;}
	.st106{fill:#EF8C48;}
	.st107{fill:#838C8A;}
	.st108{fill:#757F7E;}
	.st109{fill:#D1473D;}
	.st110{fill:#FFE28A;}
	.st111{fill:#9179C6;}
	.st112{fill:#906DBB;}
	.st113{fill:#A78EDD;}
	.st114{fill:#9D85D3;}
	.st115{fill:#E2EFF7;}
	.st116{fill:#B0D3EA;}
	.st117{fill:#F7BC48;}
	.st118{fill:#FFC550;}
	.st119{fill:#FFCF6E;}
	.st120{fill:#4CAEBC;}
	.st121{fill:#47A1B4;}
	.st122{fill:#4295AC;}
	.st123{fill:#FDE2E6;}
	.st124{fill:#FFF5D8;}
	.st125{fill:#99533D;}
	.st126{fill:#914C39;}
	.st127{fill:#D4C9EF;}
	.st128{fill:#E3DBF4;}
	.st129{fill:#F1EDFA;}
	.st130{fill:#C6B7E9;}
	.st131{fill:#B8A5E4;}
	.st132{fill:#F0C877;}
	.st133{fill:#E8BA67;}
	.st134{fill:#DDAA5F;}
	.st135{fill:#D4994F;}
	.st136{fill:#C98B44;}
	.st137{fill:#BF7D3C;}
	.st138{fill:#909997;}
	.st139{fill:#724D31;}
	.st140{fill:#93C2CA;}
	.st141{fill:#99C7CE;}
	.st142{fill:#9FCCD3;}
	.st143{fill:#ACD7DD;}
	.st144{fill:#B9E2E7;}
	.st145{fill:#A5D1D8;}
	.st146{fill:#88B9C3;}
	.st147{fill:#7EB1BD;}
	.st148{fill:#C8CCCB;}
	.st149{fill:none;}
	.st150{fill:#4F4032;}
	.st151{fill:#604631;}
	.st152{fill:#F9BDA0;}
	.st153{fill:#E7685F;}
	.st154{fill:#C84054;}
	.st155{fill:#ABB2B1;}
	.st156{fill:#9DA5A4;}
	.st157{fill:#FFD96C;}
	.st158{fill:#FFD04D;}
	.st159{fill:#F74000;}
	.st160{fill:#F97C00;}
	.st161{fill:#F9C900;}
	.st162{fill:#EFD4A7;}
	.st163{fill:#EACEA1;}
	.st164{fill:#FCE8CC;}
	.st165{fill:#F5DEB9;}
	.st166{fill:#CFAB81;}
	.st167{fill:#D5B387;}
	.st168{fill:#3A4274;}
	.st169{fill:#707EB7;}
	.st170{fill:#424B7E;}
	.st171{fill:#7C8AC4;}
	.st172{fill:#FFD98D;}
	.st173{fill:#8694D1;}
	.st174{fill:#9AA6D6;}
	.st175{fill:#ABB4DD;}
	.st176{fill:#FDECEF;}
	.st177{fill:#137FA0;}
	.st178{fill:#EB6B48;}
	.st179{fill:#F57552;}
	.st180{fill:#515E91;}
	.st181{fill:#5C699E;}
	.st182{fill:#6673AA;}
	.st183{fill:#504484;}
	.st184{fill:#FF5F7E;}
	.st185{fill:#EBCEEB;}
	.st186{fill:#E5BDE5;}
	.st187{fill:#E0ABDF;}
	.st188{fill:#D799D6;}
	.st189{fill:#3B8FA3;}
	.st190{fill:#348B99;}
	.st191{fill:#F7F7F7;}
	.st192{fill:#3AA176;}
	.st193{fill:#84ED82;}
	.st194{fill:#EFEAEA;}
	.st195{fill:#FF9A7E;}
	.st196{fill:#FCD2BE;}
	.st197{fill:#FCDDCF;}
	.st198{fill:#E0B12E;}
	.st199{fill:#C683C8;}
	.st200{fill:#A55F49;}
	.st201{fill:#FEF5F7;}
</style>
<g>
	<path class="lemon_09" d="M16,9C9.925,9,5,13.925,5,20c0,2.851,1.084,5.448,2.863,7.402c0.191,0.21,0.525,0.209,0.726,0.009L16,20
		V9z"/>
	<path class="lemon_10" d="M16,9c6.075,0,11,4.925,11,11c0,2.851-1.084,5.448-2.863,7.402c-0.191,0.21-0.525,0.209-0.726,0.009
		L16,20V9z"/>
	<path class="lemon_05" d="M23.959,19.195c-0.227-2.277-1.413-4.268-3.144-5.575c-0.21-0.159-0.259-0.454-0.113-0.673L22,11l-6-2v19
		c4.418,0,8-3.582,8-8C24,19.728,23.986,19.46,23.959,19.195z"/>
	<path class="lemon_04" d="M10,11l1.298,1.947c0.146,0.219,0.097,0.514-0.113,0.673c-1.731,1.308-2.917,3.298-3.144,5.575
		C8.014,19.46,8,19.728,8,20c0,4.418,3.582,8,8,8V9L10,11z"/>
	<path class="salmon_07" d="M20.724,30.862L19,30v-2.587c-0.631,0.256-1.301,0.431-2,0.518V31.5c0,0.276,0.224,0.5,0.5,0.5h3
		c0.276,0,0.5-0.224,0.5-0.5v-0.191C21,31.12,20.893,30.946,20.724,30.862z"/>
	<path class="salmon_06" d="M13,27.413V30l-1.724,0.862C11.107,30.946,11,31.12,11,31.309V31.5c0,0.276,0.224,0.5,0.5,0.5h3
		c0.276,0,0.5-0.224,0.5-0.5v-3.569C14.301,27.844,13.631,27.669,13,27.413z"/>
	<path class="lemon_06" d="M16,24v4c4.418,0,8-3.582,8-8c0-0.272-0.014-0.54-0.041-0.805C22.451,22.051,19.455,24,16,24z"/>
	<path class="lemon_05" d="M8.041,19.195C8.014,19.46,8,19.728,8,20c0,4.418,3.582,8,8,8v-4C12.545,24,9.549,22.051,8.041,19.195z"
		/>
	<path class="grey_16" d="M15,9.333V9l-5-3L9.131,8.607C9.047,8.859,9.067,9.133,9.185,9.37L10,11L15,9.333z"/>
	<path class="grey_17" d="M17,9.333V9l5-3l0.869,2.607c0.084,0.252,0.064,0.526-0.054,0.763L22,11L17,9.333z"/>
	<path class="lemon_04" d="M15,9l-3-5L9.949,3.316c-0.391-0.13-0.763,0.242-0.632,0.632L10,6L15,9z"/>
	<path class="lemon_05" d="M17,9l3-5l2.051-0.684c0.391-0.13,0.763,0.242,0.632,0.632L22,6L17,9z"/>
	<path class="white" d="M12,7.2v1.44c0,0.341,0.334,0.582,0.658,0.474h0C12.862,9.046,13,8.855,13,8.64V7.8L12,7.2z"/>
	<path class="grey_01" d="M20,7.2v1.44c0,0.341-0.334,0.582-0.658,0.474l0,0C19.138,9.046,19,8.855,19,8.64V7.8L20,7.2z"/>
	<path class="salmon_06" d="M16.004,9H16h-1l-1.751,2.626c-0.142,0.213-0.1,0.498,0.096,0.661l2.335,1.946
		c0.094,0.078,0.209,0.116,0.324,0.116V9z"/>
	<path class="salmon_07" d="M17,9h-0.996v5.349c0.112-0.001,0.225-0.039,0.316-0.116l2.335-1.946
		c0.196-0.164,0.238-0.449,0.096-0.661L17,9z"/>
	<path class="lemon_09" d="M16.004,0.402c-0.16-0.001-0.32,0.073-0.42,0.222L14,3l-0.509-0.509c-0.241-0.241-0.648-0.175-0.801,0.13
		L12,4l3,5h1h0.004V0.402z"/>
	<path class="lemon_10" d="M18.509,2.491L18,3l-1.584-2.376c-0.098-0.147-0.255-0.221-0.412-0.222V9C16.011,9,17,9,17,9l3-5
		l-0.69-1.38C19.158,2.315,18.751,2.249,18.509,2.491z"/>
</g>
</svg>
