<?xml version="1.0" encoding="utf-8"?>
<!-- Generator: Adobe Illustrator 20.1.0, SVG Export Plug-In . SVG Version: 6.00 Build 0)  -->
<!DOCTYPE svg PUBLIC "-//W3C//DTD SVG 1.1//EN" "http://www.w3.org/Graphics/SVG/1.1/DTD/svg11.dtd">
<svg version="1.1" id="icons" xmlns="http://www.w3.org/2000/svg" xmlns:xlink="http://www.w3.org/1999/xlink" x="0px" y="0px"
	 width="32px" height="32px" viewBox="0 0 32 32" style="enable-background:new 0 0 32 32;" xml:space="preserve">
<style type="text/css">
	.white{fill:#FFFFFF;}
	.grey_01{fill:#F7F7F7;}
	.grape_05{fill:#D285D2;}
	.grape_06{fill:#C27BC6;}
	.grape_07{fill:#B370B9;}
	.grape_08{fill:#A366AD;}
	.grape_09{fill:#945BA0;}
	.tulip_05{fill:#E85160;}
	.tulip_06{fill:#D84459;}
	.salmon_05{fill:#F6B392;}
	.salmon_06{fill:#F4A984;}
	.salmon_07{fill:#EA9C7A;}
	.lemon_10{fill:#E0B12E;}
	.lemon_11{fill:#DBA728;}
	.st0{fill:#78DF7C;}
	.st1{fill:#54B668;}
	.st2{fill:#7A63AD;}
	.st3{fill:#866EBA;}
	.st4{fill:#D2E6F3;}
	.st5{fill:#C1DDEE;}
	.st6{fill:#E0C193;}
	.st7{fill:#DBBA8C;}
	.st8{fill:#7FB8E0;}
	.st9{fill:#8EC0E0;}
	.st10{fill:#71B1E1;}
	.st11{fill:#9FC9E4;}
	.st12{fill:#FFEAA7;}
	.st13{fill:#FFE28A;}
	.st14{fill:#FF6B8B;}
	.st15{fill:#FEF1C6;}
	.st16{fill:#E55D53;}
	.st17{fill:#FFD400;}
	.st18{fill:#FF8F00;}
	.st19{fill:#FF4A00;}
	.st20{fill:#F7D684;}
	.st21{fill:#2B3332;}
	.st22{fill:#FAE09F;}
	.st23{fill:#373F3F;}
	.st24{fill:#FDEBBB;}
	.st25{fill:#FFF3D9;}
	.st26{fill:#FFD96C;}
	.st27{fill:#9ACC2E;}
	.st28{fill:#AADB3D;}
	.st29{fill:#A2D336;}
	.st30{fill:#93C427;}
	.st31{fill:#F79654;}
	.st32{fill:#FFD04D;}
	.st33{fill:#FCA15E;}
	.st34{fill:#A9E260;}
	.st35{fill:#97DB4A;}
	.st36{fill:#B1E346;}
	.st37{fill:#FCD8DE;}
	.st38{fill:#CDA073;}
	.st39{fill:#C09265;}
	.st40{fill:#A7794C;}
	.st41{fill:#96643B;}
	.st42{fill:#845331;}
	.st43{fill:#B38658;}
	.st44{fill:#9E6E43;}
	.st45{fill:#8D5B36;}
	.st46{fill:#FBCFD6;}
	.st47{fill:#FAC4D1;}
	.st48{fill:#FAB8CD;}
	.st49{fill:#F9ADC8;}
	.st50{fill:#F8A1C4;}
	.st51{fill:#F297BE;}
	.st52{fill:#EA8BB4;}
	.st53{fill:#E8BA36;}
	.st54{fill:#FFC172;}
	.st55{fill:#FFAD68;}
	.st56{fill:#FFB76D;}
	.st57{fill:#6E57A0;}
	.st58{fill:#675099;}
	.st59{fill:#F3586F;}
	.st60{fill:#604893;}
	.st61{fill:#CBEB6B;}
	.st62{fill:#4EAC5D;}
	.st63{fill:#BEE758;}
	.st64{fill:#6CD275;}
	.st65{fill:#48A353;}
	.st66{fill:#60C46F;}
	.st67{fill:#D9F07D;}
	.st68{fill:#E6F490;}
	.st69{fill:#4896C8;}
	.st70{fill:#4390BF;}
	.st71{fill:#5CA3D5;}
	.st72{fill:#529CCF;}
	.st73{fill:#F7C845;}
	.st74{fill:#ECCD50;}
	.st75{fill:#FF8D6E;}
	.st76{fill:#FF805D;}
	.st77{fill:#EDEEEE;}
	.st78{fill:#65A9DC;}
	.st79{fill:#8BC07A;}
	.st80{fill:#F0C13E;}
	.st81{fill:#9A3644;}
	.st82{fill:#8A323F;}
	.st83{fill:#505957;}
	.st84{fill:#56C7CD;}
	.st85{fill:#434C4B;}
	.st86{fill:#687271;}
	.st87{fill:#5C6664;}
	.st88{fill:#51BAC5;}
	.st89{fill:#D64F45;}
	.st90{fill:#D1D4D4;}
	.st91{fill:#E3E5E5;}
	.st92{fill:#DADDDC;}
	.st93{fill:#845194;}
	.st94{fill:#5BD3D5;}
	.st95{fill:#46B080;}
	.st96{fill:#53BF8C;}
	.st97{fill:#6EDCA2;}
	.st98{fill:#7AEBAC;}
	.st99{fill:#60CD96;}
	.st100{fill:#E8803A;}
	.st101{fill:#0A6F8E;}
	.st102{fill:#0F769B;}
	.st103{fill:#EF8C48;}
	.st104{fill:#838C8A;}
	.st105{fill:#757F7E;}
	.st106{fill:#D1473D;}
	.st107{fill:#9179C6;}
	.st108{fill:#906DBB;}
	.st109{fill:#A78EDD;}
	.st110{fill:#9D85D3;}
	.st111{fill:#E2EFF7;}
	.st112{fill:#B0D3EA;}
	.st113{fill:#F7BC48;}
	.st114{fill:#FFC550;}
	.st115{fill:#FFCF6E;}
	.st116{fill:#4CAEBC;}
	.st117{fill:#47A1B4;}
	.st118{fill:#4295AC;}
	.st119{fill:#E85160;}
	.st120{fill:#D84459;}
	.st121{fill:#FDE2E6;}
	.st122{fill:#FFF5D8;}
	.st123{fill:#99533D;}
	.st124{fill:#914C39;}
	.st125{fill:#D4C9EF;}
	.st126{fill:#E3DBF4;}
	.st127{fill:#F1EDFA;}
	.st128{fill:#C6B7E9;}
	.st129{fill:#B8A5E4;}
	.st130{fill:#F0C877;}
	.st131{fill:#E8BA67;}
	.st132{fill:#DDAA5F;}
	.st133{fill:#D4994F;}
	.st134{fill:#C98B44;}
	.st135{fill:#BF7D3C;}
	.st136{fill:#909997;}
	.st137{fill:#724D31;}
	.st138{fill:#93C2CA;}
	.st139{fill:#99C7CE;}
	.st140{fill:#9FCCD3;}
	.st141{fill:#ACD7DD;}
	.st142{fill:#B9E2E7;}
	.st143{fill:#A5D1D8;}
	.st144{fill:#88B9C3;}
	.st145{fill:#7EB1BD;}
	.st146{fill:#C8CCCB;}
	.st147{fill:none;}
	.st148{fill:#4F4032;}
	.st149{fill:#604631;}
	.st150{fill:#F9BDA0;}
	.st151{fill:#E7685F;}
	.st152{fill:#C84054;}
	.st153{fill:#ABB2B1;}
	.st154{fill:#9DA5A4;}
	.st155{fill:#F74000;}
	.st156{fill:#F97C00;}
	.st157{fill:#F9C900;}
	.st158{fill:#EFD4A7;}
	.st159{fill:#EACEA1;}
	.st160{fill:#FCE8CC;}
	.st161{fill:#F5DEB9;}
	.st162{fill:#CFAB81;}
	.st163{fill:#D5B387;}
	.st164{fill:#3A4274;}
	.st165{fill:#707EB7;}
	.st166{fill:#424B7E;}
	.st167{fill:#7C8AC4;}
	.st168{fill:#FFD98D;}
	.st169{fill:#8694D1;}
	.st170{fill:#9AA6D6;}
	.st171{fill:#ABB4DD;}
	.st172{fill:#FDECEF;}
	.st173{fill:#137FA0;}
	.st174{fill:#EB6B48;}
	.st175{fill:#F57552;}
	.st176{fill:#515E91;}
	.st177{fill:#5C699E;}
	.st178{fill:#6673AA;}
	.st179{fill:#504484;}
	.st180{fill:#FF5F7E;}
	.st181{fill:#EBCEEB;}
	.st182{fill:#E5BDE5;}
	.st183{fill:#E0ABDF;}
	.st184{fill:#D799D6;}
	.st185{fill:#3B8FA3;}
	.st186{fill:#348B99;}
	.st187{fill:#F7F7F7;}
	.st188{fill:#3AA176;}
	.st189{fill:#84ED82;}
	.st190{fill:#EFEAEA;}
	.st191{fill:#FF9A7E;}
	.st192{fill:#FCD2BE;}
	.st193{fill:#FCDDCF;}
	.st194{fill:#E0B12E;}
	.st195{fill:#C683C8;}
	.st196{fill:#A55F49;}
	.st197{fill:#FEF5F7;}
</style>
<g>
	<g>
		<path class="grape_09" d="M19.839,22c0,0,3.732,2.799,4.887,8.396C24.79,30.705,24.545,31,24.23,31h-3.056
			c-0.196,0-0.372-0.109-0.452-0.288c-0.357-0.793-1.602-3.05-4.722-4.516L19.839,22z"/>
		<path class="grape_08" d="M12.161,22c0,0-3.732,2.799-4.887,8.396C7.21,30.705,7.455,31,7.77,31h3.056
			c0.196,0,0.372-0.109,0.452-0.288c0.357-0.793,1.602-3.05,4.722-4.516L12.161,22z"/>
		<path class="grape_07" d="M16,0h-0.409c-0.863,0-1.548,0.727-1.497,1.588L15,17h1V0z"/>
		<path class="grape_08" d="M16.939,0H16v17h1l0.938-15.941C17.971,0.484,17.515,0,16.939,0z"/>
		<path class="grape_08" d="M22,23c0,0,3.732,2.799,4.887,8.396C26.951,31.705,26.706,32,26.391,32h-3.056
			c-0.196,0-0.372-0.109-0.452-0.288c-0.357-0.793-1.602-3.05-4.722-4.516L22,23z"/>
		<path class="grape_07" d="M10,23c0,0-3.732,2.799-4.887,8.396C5.049,31.705,5.294,32,5.609,32h3.056
			c0.196,0,0.372-0.109,0.452-0.288c0.357-0.793,1.602-3.05,4.722-4.516L10,23z"/>
		<path class="grape_06" d="M11.536,19.536c0,0-5.118,1.953-7.071,0s-1.953-6.118,0-8.071s4.118,0.047,6.071,2
			S11.536,19.536,11.536,19.536z"/>
		<path class="salmon_05" d="M7.165,18.903c-0.781,0-1.363-0.152-1.64-0.428C4.884,17.833,4.5,16.721,4.5,15.5
			s0.384-2.333,1.025-2.975c0.359-0.36,0.591-0.36,0.678-0.36c0.912,0,2.447,1.535,3.271,2.36c0.858,0.859,0.861,2.692,0.729,3.869
			C9.442,18.618,8.257,18.903,7.165,18.903z"/>
		<path class="grape_07" d="M20.464,19.536c0,0,5.118,1.953,7.071,0s1.953-6.118,0-8.071s-4.118,0.047-6.071,2
			S20.464,19.536,20.464,19.536z"/>
		<path class="salmon_06" d="M24.835,18.903c-1.092,0-2.278-0.286-3.038-0.509c-0.133-1.175-0.131-3.01,0.729-3.869
			c0.824-0.825,2.359-2.36,3.271-2.36c0.087,0,0.318,0,0.678,0.36c0.642,0.642,1.025,1.754,1.025,2.975s-0.384,2.333-1.025,2.975
			C26.198,18.751,25.616,18.903,24.835,18.903L24.835,18.903z"/>
		<path class="grape_06" d="M23,21c0-3.866-3.134-6-7-6v13C19.866,28,23,24.866,23,21z"/>
		<path class="grape_05" d="M16,15c-3.866,0-7,2.134-7,6c0,3.866,3.134,7,7,7V15z"/>
		<path class="grey_01" d="M19,21.5l1.508-3.017c0.198-0.396,0.771-0.361,0.919,0.055C21.699,19.306,22,20.403,22,21.5H19z"/>
		<path class="tulip_06" d="M19,21.5h2c0-1.069-0.286-2.133-0.552-2.897L19,21.5z"/>
		<path class="white" d="M13,21.5l-1.508-3.017c-0.198-0.396-0.771-0.361-0.919,0.055C10.301,19.306,10,20.403,10,21.5H13z"/>
		<path class="tulip_05" d="M11,21.5h2l-1.448-2.897C11.286,19.367,11,20.431,11,21.5z"/>
		<g>
			<path class="st24" d="M16,23l-0.884-0.001c-0.684-0.001-1.309-0.388-1.615-1l0-0.001c-0.307-0.614-0.934-1.001-1.62-1L10.995,21
				C9.34,21.003,8,22.345,8,24v0c0,1.657,1.343,3,3,3h0l2.414,2.414C13.789,29.789,14.298,30,14.828,30H16V23z"/>
			<path class="st22" d="M16,23h0.882c0.685,0,1.312-0.387,1.618-1.001l0,0c0.307-0.614,0.934-1.002,1.621-1.001L21.005,21
				C22.66,21.003,24,22.345,24,24v0c0,1.657-1.343,3-3,3h0l-2.414,2.414C18.211,29.789,17.702,30,17.172,30H16V23z"/>
			<path class="salmon_07" d="M17.18,29c0.477,0,0.887-0.336,0.981-0.804l0.72-3.598C18.942,24.289,18.706,24,18.39,24H16v5H17.18z"
				/>
			<path class="salmon_06" d="M13.839,28.196l-0.72-3.598C13.058,24.289,13.294,24,13.61,24H16v5h-1.18
				C14.343,29,13.933,28.664,13.839,28.196z"/>
			<path class="white" d="M14,24h2v3h-0.64c-0.215,0-0.406-0.138-0.474-0.342L14,24z"/>
			<path class="grey_01" d="M18,24h-2v3h0.64c0.215,0,0.406-0.138,0.474-0.342L18,24z"/>
		</g>
		<path class="grape_06" d="M17,0h-1v6h1c0.552,0,1-0.448,1-1V1C18,0.448,17.552,0,17,0z"/>
		<path class="grape_05" d="M16,0h-1c-0.552,0-1,0.448-1,1v4c0,0.552,0.448,1,1,1h1V0z"/>
	</g>
	<path class="lemon_11" d="M22.496,23.876l0-0.001c-0.071-0.266,0.086-0.54,0.353-0.61c1.692-0.443,7.265-1.87,7.374-1.46
		c0.11,0.41-5.429,1.96-7.117,2.423C22.841,24.3,22.568,24.143,22.496,23.876z"/>
	<path class="lemon_10" d="M9.504,23.876l0-0.001c0.071-0.266-0.086-0.54-0.353-0.61c-1.692-0.443-7.265-1.87-7.374-1.46
		c-0.11,0.41,5.429,1.96,7.117,2.423C9.159,24.3,9.432,24.143,9.504,23.876z"/>
</g>
</svg>
