<?xml version="1.0" encoding="utf-8"?>
<!-- Generator: Adobe Illustrator 20.1.0, SVG Export Plug-In . SVG Version: 6.00 Build 0)  -->
<!DOCTYPE svg PUBLIC "-//W3C//DTD SVG 1.1//EN" "http://www.w3.org/Graphics/SVG/1.1/DTD/svg11.dtd">
<svg version="1.1" id="icons" xmlns="http://www.w3.org/2000/svg" xmlns:xlink="http://www.w3.org/1999/xlink" x="0px" y="0px"
	 width="32px" height="32px" viewBox="0 0 32 32" style="enable-background:new 0 0 32 32;" xml:space="preserve">
<style type="text/css">
	.white{fill:#FFFFFF;}
	.grey_01{fill:#F7F7F7;}
	.grey_16{fill:#373F3F;}
	.grey_17{fill:#2B3332;}
	.poppy_03{fill:#D64F45;}
	.poppy_04{fill:#D1473D;}
	.salmon_05{fill:#F6B392;}
	.salmon_06{fill:#F4A984;}
	.salmon_07{fill:#EA9C7A;}
	.sand_02{fill:#FDEBBB;}
	.sand_03{fill:#FAE09F;}
	.dirt_13{fill:#A7794C;}
	.dirt_14{fill:#9E6E43;}
	.dirt_15{fill:#96643B;}
	.st0{fill:#78DF7C;}
	.st1{fill:#54B668;}
	.st2{fill:#7A63AD;}
	.st3{fill:#866EBA;}
	.st4{fill:#D2E6F3;}
	.st5{fill:#C1DDEE;}
	.st6{fill:#E0C193;}
	.st7{fill:#DBBA8C;}
	.st8{fill:#7FB8E0;}
	.st9{fill:#8EC0E0;}
	.st10{fill:#71B1E1;}
	.st11{fill:#9FC9E4;}
	.st12{fill:#FFEAA7;}
	.st13{fill:#FFE28A;}
	.st14{fill:#FF6B8B;}
	.st15{fill:#FEF1C6;}
	.st16{fill:#E85160;}
	.st17{fill:#D84459;}
	.st18{fill:#E55D53;}
	.st19{fill:#FFD400;}
	.st20{fill:#FF8F00;}
	.st21{fill:#FF4A00;}
	.st22{fill:#F7D684;}
	.st23{fill:#FFF3D9;}
	.st24{fill:#FFD96C;}
	.st25{fill:#9ACC2E;}
	.st26{fill:#AADB3D;}
	.st27{fill:#A2D336;}
	.st28{fill:#93C427;}
	.st29{fill:#F79654;}
	.st30{fill:#FFD04D;}
	.st31{fill:#FCA15E;}
	.st32{fill:#A9E260;}
	.st33{fill:#97DB4A;}
	.st34{fill:#B1E346;}
	.st35{fill:#FCD8DE;}
	.st36{fill:#CDA073;}
	.st37{fill:#C09265;}
	.st38{fill:#845331;}
	.st39{fill:#B38658;}
	.st40{fill:#8D5B36;}
	.st41{fill:#FBCFD6;}
	.st42{fill:#FAC4D1;}
	.st43{fill:#FAB8CD;}
	.st44{fill:#F9ADC8;}
	.st45{fill:#F8A1C4;}
	.st46{fill:#F297BE;}
	.st47{fill:#EA8BB4;}
	.st48{fill:#E8BA36;}
	.st49{fill:#E0B12E;}
	.st50{fill:#FFC172;}
	.st51{fill:#FFAD68;}
	.st52{fill:#FFB76D;}
	.st53{fill:#6E57A0;}
	.st54{fill:#675099;}
	.st55{fill:#F3586F;}
	.st56{fill:#604893;}
	.st57{fill:#CBEB6B;}
	.st58{fill:#4EAC5D;}
	.st59{fill:#BEE758;}
	.st60{fill:#6CD275;}
	.st61{fill:#48A353;}
	.st62{fill:#60C46F;}
	.st63{fill:#D9F07D;}
	.st64{fill:#E6F490;}
	.st65{fill:#4896C8;}
	.st66{fill:#4390BF;}
	.st67{fill:#5CA3D5;}
	.st68{fill:#529CCF;}
	.st69{fill:#F7C845;}
	.st70{fill:#ECCD50;}
	.st71{fill:#FF8D6E;}
	.st72{fill:#FF805D;}
	.st73{fill:#EDEEEE;}
	.st74{fill:#65A9DC;}
	.st75{fill:#8BC07A;}
	.st76{fill:#F0C13E;}
	.st77{fill:#9A3644;}
	.st78{fill:#8A323F;}
	.st79{fill:#945BA0;}
	.st80{fill:#A366AD;}
	.st81{fill:#B370B9;}
	.st82{fill:#C27BC6;}
	.st83{fill:#D285D2;}
	.st84{fill:#FDEBBB;}
	.st85{fill:#FAE09F;}
	.st86{fill:#DBA728;}
	.st87{fill:#505957;}
	.st88{fill:#56C7CD;}
	.st89{fill:#434C4B;}
	.st90{fill:#687271;}
	.st91{fill:#5C6664;}
	.st92{fill:#51BAC5;}
	.st93{fill:#D1D4D4;}
	.st94{fill:#E3E5E5;}
	.st95{fill:#DADDDC;}
	.st96{fill:#845194;}
	.st97{fill:#5BD3D5;}
	.st98{fill:#46B080;}
	.st99{fill:#53BF8C;}
	.st100{fill:#6EDCA2;}
	.st101{fill:#7AEBAC;}
	.st102{fill:#60CD96;}
	.st103{fill:#E8803A;}
	.st104{fill:#0A6F8E;}
	.st105{fill:#0F769B;}
	.st106{fill:#EF8C48;}
	.st107{fill:#838C8A;}
	.st108{fill:#757F7E;}
	.st109{fill:#A7794C;}
	.st110{fill:#9179C6;}
	.st111{fill:#906DBB;}
	.st112{fill:#A78EDD;}
	.st113{fill:#9D85D3;}
	.st114{fill:#E2EFF7;}
	.st115{fill:#B0D3EA;}
	.st116{fill:#F7BC48;}
	.st117{fill:#FFC550;}
	.st118{fill:#FFCF6E;}
	.st119{fill:#4CAEBC;}
	.st120{fill:#47A1B4;}
	.st121{fill:#4295AC;}
	.st122{fill:#FDE2E6;}
	.st123{fill:#FFF5D8;}
	.st124{fill:#99533D;}
	.st125{fill:#914C39;}
	.st126{fill:#D4C9EF;}
	.st127{fill:#E3DBF4;}
	.st128{fill:#F1EDFA;}
	.st129{fill:#C6B7E9;}
	.st130{fill:#B8A5E4;}
	.st131{fill:#F0C877;}
	.st132{fill:#E8BA67;}
	.st133{fill:#DDAA5F;}
	.st134{fill:#D4994F;}
	.st135{fill:#C98B44;}
	.st136{fill:#BF7D3C;}
	.st137{fill:#909997;}
	.st138{fill:#724D31;}
	.st139{fill:#93C2CA;}
	.st140{fill:#99C7CE;}
	.st141{fill:#9FCCD3;}
	.st142{fill:#ACD7DD;}
	.st143{fill:#B9E2E7;}
	.st144{fill:#A5D1D8;}
	.st145{fill:#88B9C3;}
	.st146{fill:#7EB1BD;}
	.st147{fill:#C8CCCB;}
	.st148{fill:none;}
	.st149{fill:#4F4032;}
	.st150{fill:#604631;}
	.st151{fill:#9E6E43;}
	.st152{fill:#F9BDA0;}
	.st153{fill:#E7685F;}
	.st154{fill:#C84054;}
	.st155{fill:#ABB2B1;}
	.st156{fill:#9DA5A4;}
	.st157{fill:#F74000;}
	.st158{fill:#F97C00;}
	.st159{fill:#F9C900;}
	.st160{fill:#EFD4A7;}
	.st161{fill:#EACEA1;}
	.st162{fill:#FCE8CC;}
	.st163{fill:#F5DEB9;}
	.st164{fill:#CFAB81;}
	.st165{fill:#D5B387;}
	.st166{fill:#3A4274;}
	.st167{fill:#707EB7;}
	.st168{fill:#424B7E;}
	.st169{fill:#7C8AC4;}
	.st170{fill:#FFD98D;}
	.st171{fill:#8694D1;}
	.st172{fill:#9AA6D6;}
	.st173{fill:#ABB4DD;}
	.st174{fill:#FDECEF;}
	.st175{fill:#137FA0;}
	.st176{fill:#EB6B48;}
	.st177{fill:#F57552;}
	.st178{fill:#515E91;}
	.st179{fill:#5C699E;}
	.st180{fill:#6673AA;}
	.st181{fill:#504484;}
	.st182{fill:#FF5F7E;}
	.st183{fill:#EBCEEB;}
	.st184{fill:#E5BDE5;}
	.st185{fill:#E0ABDF;}
	.st186{fill:#D799D6;}
	.st187{fill:#3B8FA3;}
	.st188{fill:#348B99;}
	.st189{fill:#F7F7F7;}
	.st190{fill:#3AA176;}
	.st191{fill:#84ED82;}
	.st192{fill:#EFEAEA;}
	.st193{fill:#FF9A7E;}
	.st194{fill:#FCD2BE;}
	.st195{fill:#FCDDCF;}
	.st196{fill:#C683C8;}
	.st197{fill:#A55F49;}
	.st198{fill:#FEF5F7;}
</style>
<g>
	<path class="dirt_15" d="M18,20.267l4.825,7.205c0.108,0.161,0.123,0.372,0.04,0.549l-0.555,1.184
		c-0.153,0.326-0.559,0.396-0.801,0.139L20,27.733l0.863,2.761c0.079,0.252-0.028,0.527-0.251,0.646l-1.096,0.585
		c-0.272,0.145-0.602,0-0.698-0.308L18,28.8v2.667C18,31.761,17.776,32,17.5,32H16V20.267H18z"/>
	<path class="dirt_14" d="M14,20.267l-4.825,7.205c-0.108,0.161-0.123,0.372-0.04,0.549l0.555,1.184
		c0.153,0.326,0.559,0.396,0.801,0.139L12,27.733l-0.863,2.761c-0.079,0.252,0.028,0.527,0.251,0.646l1.096,0.585
		c0.272,0.145,0.602,0,0.698-0.308L14,28.8v2.667C14,31.761,14.224,32,14.5,32H16V20.267H14z"/>
	<path class="dirt_13" d="M14.5,9.6L14,14.933h-3c-1.259,0-2.445-0.632-3.2-1.707L4.364,8.339l-2.53,1.349L3,12.8l-1.304-1.391
		L1.5,13.867L3,14.933H1.875L3,18.133h1l-0.672,0.478l2.311,3.363L13,17.067l1,6.4h1l1-1.067V9.6H14.5z"/>
	<path class="sand_02" d="M0.681,15.319l1.181,2.519c0.085,0.181,0.258,0.295,0.447,0.295H3l-1.125-3.2h-0.97
		C0.719,14.933,0.598,15.142,0.681,15.319z"/>
	<path class="sand_02" d="M4.364,8.339L3.25,6.756C3.105,6.55,2.843,6.484,2.627,6.599L1.411,7.247
		C1.179,7.371,1.074,7.665,1.171,7.922l0.662,1.767L4.364,8.339z"/>
	<path class="sand_02" d="M1.696,11.409l-1.269-1.354C0.269,9.887,0,10.006,0,10.244v2.271c0,0.178,0.084,0.345,0.223,0.444
		L1.5,13.867L1.696,11.409z"/>
	<path class="sand_02" d="M3.328,18.611l-0.365,0.26c-0.247,0.176-0.297,0.542-0.107,0.785l1.865,2.387
		c0.16,0.205,0.437,0.252,0.649,0.111l0.27-0.18L3.328,18.611z"/>
	<path class="salmon_07" d="M19.5,24.533H18v-1.067h-1V27.2c0,0.295,0.224,0.533,0.5,0.533h0c0.276,0,0.5-0.239,0.5-0.533v-0.846
		l0.543,0.579c0.195,0.208,0.512,0.208,0.707,0v0c0.195-0.208,0.195-0.546,0-0.754L18.707,25.6H19.5c0.276,0,0.5-0.239,0.5-0.533v0
		C20,24.772,19.776,24.533,19.5,24.533z"/>
	<path class="salmon_06" d="M14,23.467v1.067h-1.5c-0.276,0-0.5,0.239-0.5,0.533v0c0,0.295,0.224,0.533,0.5,0.533h0.793
		l-0.543,0.579c-0.195,0.208-0.195,0.546,0,0.754v0c0.195,0.208,0.512,0.208,0.707,0L14,26.354V27.2c0,0.295,0.224,0.533,0.5,0.533
		h0c0.276,0,0.5-0.239,0.5-0.533v-3.733H14z"/>
	<path class="dirt_14" d="M30.304,11.409L29,12.8l1.167-3.111l-2.53-1.349L24.2,13.227c-0.755,1.074-1.941,1.707-3.2,1.707h-3
		L17.5,9.6H16v12.8l1,1.067h1l1-6.4l7.36,4.907l2.311-3.363L28,18.133h1l1.125-3.2H29l1.5-1.067L30.304,11.409z"/>
	<path class="sand_03" d="M31.319,15.319l-1.181,2.519c-0.085,0.181-0.258,0.295-0.447,0.295H29l1.125-3.2h0.97
		C31.281,14.933,31.402,15.142,31.319,15.319z"/>
	<path class="sand_03" d="M27.636,8.339l1.113-1.583c0.145-0.206,0.407-0.272,0.624-0.157l1.215,0.648
		c0.233,0.124,0.337,0.418,0.241,0.675l-0.662,1.767L27.636,8.339z"/>
	<path class="sand_03" d="M30.304,11.409l1.269-1.354C31.731,9.887,32,10.006,32,10.244v2.271c0,0.178-0.084,0.345-0.223,0.444
		L30.5,13.867L30.304,11.409z"/>
	<path class="sand_03" d="M28.672,18.611l0.365,0.26c0.247,0.176,0.297,0.542,0.107,0.785l-1.865,2.387
		c-0.16,0.205-0.437,0.252-0.649,0.111l-0.27-0.18L28.672,18.611z"/>
	<path class="st39" d="M16,6.222h-3v1.916c0,0.254,0.097,0.499,0.27,0.684L16,11.733V6.222z"/>
	<path class="st109" d="M16,11.733l2.73-2.912C18.903,8.636,19,8.392,19,8.138V6.222h-3V11.733z"/>
	<path class="white" d="M15,7.467l-2-1.244l0.438,1.557c0.04,0.141,0.132,0.258,0.255,0.324l0.807,0.43L15,7.467z"/>
	<path class="grey_16" d="M14.806,7.346L13.5,6.533l0.194,0.828c0.035,0.151,0.131,0.277,0.261,0.347l0.321,0.172
		c0.124,0.066,0.274,0.013,0.336-0.119L14.806,7.346z"/>
	<path class="grey_01" d="M17,7.467l2-1.244l-0.438,1.557c-0.04,0.141-0.132,0.258-0.255,0.324L17.5,8.533L17,7.467z"/>
	<path class="grey_17" d="M17.194,7.346L18.5,6.533l-0.194,0.828c-0.035,0.151-0.131,0.277-0.261,0.347L17.724,7.88
		C17.6,7.946,17.45,7.893,17.388,7.761L17.194,7.346z"/>
	<path class="poppy_03" d="M16,0h-0.11c-0.229,0-0.429,0.167-0.485,0.404L14.5,4.267l-1.443-2.309
		c-0.166-0.265-0.511-0.317-0.739-0.111l-0.078,0.07c-0.147,0.133-0.21,0.343-0.161,0.542L13,6.222l2,1.244h1V0z"/>
	<path class="poppy_04" d="M16,0l0.11,0c0.229,0,0.429,0.167,0.485,0.404L17.5,4.267l1.443-2.309
		c0.166-0.265,0.511-0.317,0.739-0.111l0.078,0.07c0.147,0.133,0.21,0.343,0.161,0.542L19,6.222l-2,1.244h-1V0z"/>
	<path class="salmon_05" d="M16,7.467h-1l-0.5,1.067l1.256,6.25c0.028,0.141,0.136,0.211,0.244,0.211V7.467z"/>
	<path class="salmon_06" d="M16.244,14.783l1.256-6.25L17,7.467h-1v7.527C16.108,14.994,16.216,14.924,16.244,14.783z"/>
</g>
</svg>
