<?xml version="1.0" encoding="utf-8"?>
<!-- Generator: Adobe Illustrator 20.1.0, SVG Export Plug-In . SVG Version: 6.00 Build 0)  -->
<!DOCTYPE svg PUBLIC "-//W3C//DTD SVG 1.1//EN" "http://www.w3.org/Graphics/SVG/1.1/DTD/svg11.dtd">
<svg version="1.1" id="icons" xmlns="http://www.w3.org/2000/svg" xmlns:xlink="http://www.w3.org/1999/xlink" x="0px" y="0px"
	 width="32px" height="32px" viewBox="0 0 32 32" style="enable-background:new 0 0 32 32;" xml:space="preserve">
<style type="text/css">
	.white{fill:#FFFFFF;}
	.grey_01{fill:#F7F7F7;}
	.grey_16{fill:#373F3F;}
	.grey_17{fill:#2B3332;}
	.orchid_06{fill:#A78EDD;}
	.orchid_07{fill:#9D85D3;}
	.orchid_08{fill:#9179C6;}
	.orchid_09{fill:#866EBA;}
	.orchid_10{fill:#7A63AD;}
	.orchid_11{fill:#6E57A0;}
	.orchid_12{fill:#675099;}
	.orchid_13{fill:#604893;}
	.tulip_05{fill:#E85160;}
	.tulip_06{fill:#D84459;}
	.sand_03{fill:#FAE09F;}
	.sand_04{fill:#F7D684;}
	.st0{fill:#78DF7C;}
	.st1{fill:#54B668;}
	.st2{fill:#D2E6F3;}
	.st3{fill:#C1DDEE;}
	.st4{fill:#E0C193;}
	.st5{fill:#DBBA8C;}
	.st6{fill:#7FB8E0;}
	.st7{fill:#8EC0E0;}
	.st8{fill:#71B1E1;}
	.st9{fill:#9FC9E4;}
	.st10{fill:#FFEAA7;}
	.st11{fill:#FFE28A;}
	.st12{fill:#FF6B8B;}
	.st13{fill:#F4A984;}
	.st14{fill:#EA9C7A;}
	.st15{fill:#FEF1C6;}
	.st16{fill:#E55D53;}
	.st17{fill:#FFD400;}
	.st18{fill:#FF8F00;}
	.st19{fill:#FF4A00;}
	.st20{fill:#FDEBBB;}
	.st21{fill:#FFF3D9;}
	.st22{fill:#FFD96C;}
	.st23{fill:#9ACC2E;}
	.st24{fill:#AADB3D;}
	.st25{fill:#A2D336;}
	.st26{fill:#93C427;}
	.st27{fill:#F79654;}
	.st28{fill:#FFD04D;}
	.st29{fill:#FCA15E;}
	.st30{fill:#A9E260;}
	.st31{fill:#97DB4A;}
	.st32{fill:#B1E346;}
	.st33{fill:#FCD8DE;}
	.st34{fill:#CDA073;}
	.st35{fill:#C09265;}
	.st36{fill:#A7794C;}
	.st37{fill:#96643B;}
	.st38{fill:#845331;}
	.st39{fill:#B38658;}
	.st40{fill:#9E6E43;}
	.st41{fill:#8D5B36;}
	.st42{fill:#FBCFD6;}
	.st43{fill:#FAC4D1;}
	.st44{fill:#FAB8CD;}
	.st45{fill:#F9ADC8;}
	.st46{fill:#F8A1C4;}
	.st47{fill:#F297BE;}
	.st48{fill:#EA8BB4;}
	.st49{fill:#E8BA36;}
	.st50{fill:#E0B12E;}
	.st51{fill:#FFC172;}
	.st52{fill:#FFAD68;}
	.st53{fill:#FFB76D;}
	.st54{fill:#F3586F;}
	.st55{fill:#CBEB6B;}
	.st56{fill:#4EAC5D;}
	.st57{fill:#BEE758;}
	.st58{fill:#6CD275;}
	.st59{fill:#48A353;}
	.st60{fill:#60C46F;}
	.st61{fill:#D9F07D;}
	.st62{fill:#E6F490;}
	.st63{fill:#4896C8;}
	.st64{fill:#4390BF;}
	.st65{fill:#5CA3D5;}
	.st66{fill:#529CCF;}
	.st67{fill:#F7C845;}
	.st68{fill:#ECCD50;}
	.st69{fill:#FF8D6E;}
	.st70{fill:#FF805D;}
	.st71{fill:#EDEEEE;}
	.st72{fill:#65A9DC;}
	.st73{fill:#8BC07A;}
	.st74{fill:#F0C13E;}
	.st75{fill:#9A3644;}
	.st76{fill:#8A323F;}
	.st77{fill:#945BA0;}
	.st78{fill:#A366AD;}
	.st79{fill:#B370B9;}
	.st80{fill:#C27BC6;}
	.st81{fill:#F6B392;}
	.st82{fill:#D285D2;}
	.st83{fill:#FAE09F;}
	.st84{fill:#DBA728;}
	.st85{fill:#505957;}
	.st86{fill:#56C7CD;}
	.st87{fill:#434C4B;}
	.st88{fill:#687271;}
	.st89{fill:#5C6664;}
	.st90{fill:#51BAC5;}
	.st91{fill:#D64F45;}
	.st92{fill:#D1D4D4;}
	.st93{fill:#E3E5E5;}
	.st94{fill:#DADDDC;}
	.st95{fill:#845194;}
	.st96{fill:#5BD3D5;}
	.st97{fill:#46B080;}
	.st98{fill:#53BF8C;}
	.st99{fill:#6EDCA2;}
	.st100{fill:#7AEBAC;}
	.st101{fill:#60CD96;}
	.st102{fill:#E8803A;}
	.st103{fill:#0A6F8E;}
	.st104{fill:#0F769B;}
	.st105{fill:#EF8C48;}
	.st106{fill:#838C8A;}
	.st107{fill:#757F7E;}
	.st108{fill:#D1473D;}
	.st109{fill:#906DBB;}
	.st110{fill:#E2EFF7;}
	.st111{fill:#B0D3EA;}
	.st112{fill:#F7BC48;}
	.st113{fill:#FFC550;}
	.st114{fill:#FFCF6E;}
	.st115{fill:#4CAEBC;}
	.st116{fill:#47A1B4;}
	.st117{fill:#4295AC;}
	.st118{fill:#E85160;}
	.st119{fill:#D84459;}
	.st120{fill:#FDE2E6;}
	.st121{fill:#FFF5D8;}
	.st122{fill:#99533D;}
	.st123{fill:#914C39;}
	.st124{fill:#D4C9EF;}
	.st125{fill:#E3DBF4;}
	.st126{fill:#F1EDFA;}
	.st127{fill:#C6B7E9;}
	.st128{fill:#B8A5E4;}
	.st129{fill:#F0C877;}
	.st130{fill:#E8BA67;}
	.st131{fill:#DDAA5F;}
	.st132{fill:#D4994F;}
	.st133{fill:#C98B44;}
	.st134{fill:#F7D684;}
	.st135{fill:#BF7D3C;}
	.st136{fill:#909997;}
	.st137{fill:#724D31;}
	.st138{fill:#93C2CA;}
	.st139{fill:#99C7CE;}
	.st140{fill:#9FCCD3;}
	.st141{fill:#ACD7DD;}
	.st142{fill:#B9E2E7;}
	.st143{fill:#A5D1D8;}
	.st144{fill:#88B9C3;}
	.st145{fill:#7EB1BD;}
	.st146{fill:#C8CCCB;}
	.st147{fill:none;}
	.st148{fill:#4F4032;}
	.st149{fill:#604631;}
	.st150{fill:#F9BDA0;}
	.st151{fill:#7A63AD;}
	.st152{fill:#6E57A0;}
	.st153{fill:#E7685F;}
	.st154{fill:#C84054;}
	.st155{fill:#ABB2B1;}
	.st156{fill:#9DA5A4;}
	.st157{fill:#F74000;}
	.st158{fill:#F97C00;}
	.st159{fill:#F9C900;}
	.st160{fill:#EFD4A7;}
	.st161{fill:#EACEA1;}
	.st162{fill:#FCE8CC;}
	.st163{fill:#F5DEB9;}
	.st164{fill:#CFAB81;}
	.st165{fill:#D5B387;}
	.st166{fill:#3A4274;}
	.st167{fill:#707EB7;}
	.st168{fill:#424B7E;}
	.st169{fill:#7C8AC4;}
	.st170{fill:#FFD98D;}
	.st171{fill:#8694D1;}
	.st172{fill:#9AA6D6;}
	.st173{fill:#ABB4DD;}
	.st174{fill:#FDECEF;}
	.st175{fill:#137FA0;}
	.st176{fill:#EB6B48;}
	.st177{fill:#F57552;}
	.st178{fill:#515E91;}
	.st179{fill:#5C699E;}
	.st180{fill:#6673AA;}
	.st181{fill:#504484;}
	.st182{fill:#FF5F7E;}
	.st183{fill:#EBCEEB;}
	.st184{fill:#E5BDE5;}
	.st185{fill:#E0ABDF;}
	.st186{fill:#D799D6;}
	.st187{fill:#3B8FA3;}
	.st188{fill:#348B99;}
	.st189{fill:#F7F7F7;}
	.st190{fill:#3AA176;}
	.st191{fill:#84ED82;}
	.st192{fill:#EFEAEA;}
	.st193{fill:#FF9A7E;}
	.st194{fill:#FCD2BE;}
	.st195{fill:#FCDDCF;}
	.st196{fill:#C683C8;}
	.st197{fill:#A55F49;}
	.st198{fill:#FEF5F7;}
</style>
<g>
	<g>
		<path class="orchid_09" d="M31.362,30.299l-1.316-3.51c-0.651-1.735-2.151-3.011-3.968-3.374l-0.003-0.001
			c-1.333-0.267-2.718-0.017-3.874,0.7l-0.674,0.418C20.861,24.945,20,24.466,20,23.682v-1.204c0-1.848,0.878-3.56,2.311-4.726
			C24.562,15.92,26,14.129,26,11c0-5.523-4.477-9.999-10-9.999c-0.376,0-0.756,0.02-1.141,0.062
			C10.389,1.558,6.711,5.124,6.098,9.58c-0.512,3.721,1.026,6.113,3.646,8.216C11.165,18.937,12,20.652,12,22.474
			c0,1.229,0,2.329,0,2.329c0,2.183,0.719,3.916,2,5.196c0.583,0.583,1.264,1.043,2,1.378C16.881,31.78,17.842,32,18.828,32h1.343
			c1.811,0,3.548-0.719,4.828-2l1.367-1.367c0.36-0.36,0.934-0.392,1.332-0.074l2.883,2.306
			C30.978,31.183,31.541,30.775,31.362,30.299z"/>
		<path class="orchid_08" d="M26.269,25.731c-2.885,0-3.923,2.923-6.956,3.038C16.281,28.885,16,26.192,16,26.192V1.001
			c-0.376,0-0.756,0.02-1.141,0.062C10.389,1.558,6.711,5.124,6.098,9.58c-0.512,3.721,1.026,6.113,3.646,8.216
			C11.165,18.937,12,20.652,12,22.474c0,1.229,0,2.329,0,2.329c0,2.183,0.719,3.916,2,5.196c0.583,0.583,1.264,1.043,2,1.378
			C16.881,31.78,17.842,32,18.828,32h1.343c1.811,0,3.548-0.719,4.828-2l1.367-1.367c0.36-0.36,0.934-0.392,1.332-0.074l2.883,2.306
			c0.198,0.159,0.438,0.136,0.606,0.015l0.001,0C31.188,30.879,29.038,25.731,26.269,25.731z"/>
		<path class="orchid_10" d="M20,23.682v-1.204c0-0.161,0.015-0.32,0.028-0.478h-8.055C11.986,22.158,12,22.315,12,22.474
			c0,1.229,0,2.329,0,2.329c0,2.183,0.719,3.916,2,5.196c0.169,0.169,0.362,0.305,0.547,0.453l5.927-5.927
			C20.198,24.355,20,24.055,20,23.682z"/>
		<path class="orchid_09" d="M16,26.192V22h-4.027C11.986,22.158,12,22.315,12,22.474c0,1.229,0,2.329,0,2.329
			c0,2.183,0.719,3.916,2,5.196c0.169,0.169,0.362,0.305,0.547,0.453l2.421-2.421C16.115,27.27,16,26.192,16,26.192z"/>
		<path class="orchid_11" d="M21.527,24.532c-0.349,0.216-0.749,0.183-1.053-0.006h0l-5.927,5.927
			c0.452,0.363,0.931,0.687,1.453,0.925C16.881,31.78,17.842,32,18.828,32h1.343c1.581,0,3.105-0.549,4.319-1.54L21.527,24.532z"/>
		<path class="orchid_10" d="M22.859,27.198c-1.003,0.748-2.023,1.514-3.546,1.572c-1.113,0.042-1.852-0.294-2.346-0.736
			l-2.421,2.421c0.452,0.363,0.931,0.687,1.453,0.925C16.881,31.78,17.842,32,18.828,32h1.343c1.581,0,3.105-0.549,4.319-1.54
			L22.859,27.198z"/>
		<path class="orchid_12" d="M26.079,23.416l-0.003-0.001c-1.333-0.267-2.718-0.017-3.874,0.7l-0.674,0.418l2.964,5.928
			c0.177-0.144,0.347-0.297,0.51-0.46l1.367-1.367c0.278-0.278,0.68-0.355,1.033-0.233l0.976-3.904
			C27.716,23.967,26.935,23.587,26.079,23.416z"/>
		<path class="orchid_11" d="M26.269,25.731c-1.436,0-2.415,0.725-3.41,1.467l1.631,3.262c0.177-0.144,0.347-0.297,0.51-0.46
			l1.367-1.367c0.278-0.278,0.68-0.355,1.033-0.233l0.518-2.073C27.405,25.967,26.852,25.731,26.269,25.731z"/>
		<path class="orchid_13" d="M30.046,26.79c-0.344-0.917-0.93-1.7-1.67-2.294L27.4,28.4c0.105,0.036,0.207,0.086,0.299,0.159
			l2.883,2.306c0.397,0.317,0.959-0.09,0.781-0.566L30.046,26.79z"/>
		<path class="orchid_12" d="M27.918,26.327L27.4,28.4c0.105,0.036,0.207,0.086,0.299,0.159l2.883,2.306
			c0.198,0.159,0.438,0.136,0.606,0.015l0.001,0C31.188,30.879,29.845,27.678,27.918,26.327z"/>
	</g>
	<path class="tulip_06" d="M18.732,10.732c-0.976,0.976-0.976,2.559,0,3.536s2.559,0.976,3.536,0
		c0.723-0.723,1.325-3.264,1.589-4.534c0.073-0.353-0.238-0.664-0.591-0.591C21.996,9.407,19.455,10.009,18.732,10.732z"/>
	<path class="sand_04" d="M20.5,14c0.4,0,0.777-0.156,1.06-0.439c0.309-0.309,0.721-1.522,1.058-2.874
		c0.046-0.184-0.121-0.35-0.304-0.304c-1.353,0.337-2.565,0.748-2.874,1.057C19.156,11.723,19,12.1,19,12.5s0.156,0.777,0.439,1.06
		C19.723,13.844,20.1,14,20.5,14z"/>
	<path class="tulip_05" d="M13.268,10.732c0.976,0.976,0.976,2.559,0,3.536s-2.559,0.976-3.536,0
		c-0.723-0.723-1.325-3.264-1.589-4.534C8.07,9.381,8.381,9.07,8.734,9.143C10.004,9.407,12.545,10.009,13.268,10.732z"/>
	<path class="sand_03" d="M11.5,14c-0.4,0-0.777-0.156-1.06-0.439c-0.309-0.309-0.721-1.522-1.058-2.874
		c-0.046-0.184,0.121-0.35,0.304-0.304c1.353,0.337,2.565,0.748,2.874,1.057C12.844,11.723,13,12.1,13,12.5s-0.156,0.777-0.439,1.06
		C12.277,13.844,11.9,14,11.5,14z"/>
	<path class="grey_16" d="M16,7l-1,2.5c-0.576-0.325-1.299-0.474-1.972-0.534c-0.283-0.025-0.387,0.367-0.125,0.478
		c1.307,0.552,2.234,1.483,2.716,2.057c0.1,0.119,0.24,0.178,0.381,0.178V7z"/>
	<path class="grey_17" d="M16.381,11.5c0.482-0.573,1.409-1.505,2.716-2.057c0.262-0.111,0.158-0.503-0.125-0.478
		C18.299,9.026,17.576,9.175,17,9.5L16,7v4.678C16.141,11.678,16.281,11.619,16.381,11.5z"/>
	<path class="grey_16" d="M16,15.138c-0.098,0-0.195,0.029-0.28,0.087c-0.29,0.2-0.828,0.502-1.72,0.775
		c-0.923,0.282-1.847,0.217-2.42,0.125c-0.222-0.035-0.375,0.214-0.241,0.394c0.478,0.642,1.449,1.652,2.833,1.652
		c0.905,0,1.384,0.429,1.622,0.767c0.051,0.073,0.129,0.109,0.207,0.109V15.138z"/>
	<path class="grey_17" d="M16.207,18.939c0.237-0.339,0.717-0.767,1.622-0.767c1.384,0,2.355-1.01,2.833-1.652
		c0.134-0.18-0.02-0.43-0.241-0.394C19.847,16.217,18.923,16.282,18,16c-0.892-0.273-1.43-0.574-1.72-0.775
		c-0.085-0.058-0.182-0.087-0.28-0.087v3.91C16.078,19.048,16.156,19.012,16.207,18.939z"/>
	<path class="orchid_06" d="M16,0c-2.761,0-5,2.149-5,4.8S13.239,8,16,8V0z"/>
	<path class="orchid_07" d="M21,4.8C21,2.149,18.761,0,16,0v8C18.761,8,21,7.451,21,4.8z"/>
	<path class="orchid_07" d="M11.457,6.51C12.247,7.702,13.982,8,16,8V7C14.356,7,14,6,11.457,6.51z"/>
	<g>
		<path class="white" d="M14.43,5c0.222,0,0.333-0.267,0.178-0.426C14.173,4.13,13.473,3.5,13,3.5C12.57,3.474,12.594,5,13,5H14.43z
			"/>
		<path class="grey_16" d="M14.491,4.46c-0.245-0.242-0.545-0.511-0.842-0.704C13.557,3.915,13.5,4.136,13.5,4.382
			c0,0.241,0.055,0.459,0.144,0.618c0.235,0,0.484,0,0.712,0C14.435,4.859,14.48,4.668,14.491,4.46z"/>
	</g>
	<g>
		<path class="grey_01" d="M17.57,5c-0.222,0-0.333-0.267-0.178-0.426C17.827,4.13,18.527,3.5,19,3.5C19.43,3.474,19.406,5,19,5
			H17.57z"/>
		<path class="grey_17" d="M17.509,4.46c0.245-0.242,0.545-0.511,0.842-0.704c0.092,0.16,0.149,0.381,0.149,0.627
			c0,0.241-0.055,0.459-0.144,0.618h-0.712C17.565,4.859,17.52,4.668,17.509,4.46z"/>
	</g>
	<path class="orchid_08" d="M20.543,6.51C19.753,7.702,18.018,8,16,8V7C17.644,7,18,6,20.543,6.51z"/>
</g>
</svg>
