<?xml version="1.0" encoding="utf-8"?>
<!-- Generator: Adobe Illustrator 20.1.0, SVG Export Plug-In . SVG Version: 6.00 Build 0)  -->
<!DOCTYPE svg PUBLIC "-//W3C//DTD SVG 1.1//EN" "http://www.w3.org/Graphics/SVG/1.1/DTD/svg11.dtd">
<svg version="1.1" id="icons" xmlns="http://www.w3.org/2000/svg" xmlns:xlink="http://www.w3.org/1999/xlink" x="0px" y="0px"
	 width="32px" height="32px" viewBox="0 0 32 32" style="enable-background:new 0 0 32 32;" xml:space="preserve">
<style type="text/css">
	.white{fill:#FFFFFF;}
	.grey_01{fill:#F7F7F7;}
	.grey_16{fill:#373F3F;}
	.grey_17{fill:#2B3332;}
	.lemon_02{fill:#FEF1C6;}
	.lemon_03{fill:#FFEAA7;}
	.dandelion_02{fill:#FFCF6E;}
	.dandelion_03{fill:#FFC550;}
	.dandelion_04{fill:#F7BC48;}
	.dirt_15{fill:#96643B;}
	.dirt_16{fill:#8D5B36;}
	.dirt_17{fill:#845331;}
	.st0{fill:#78DF7C;}
	.st1{fill:#54B668;}
	.st2{fill:#7A63AD;}
	.st3{fill:#866EBA;}
	.st4{fill:#D2E6F3;}
	.st5{fill:#C1DDEE;}
	.st6{fill:#E0C193;}
	.st7{fill:#DBBA8C;}
	.st8{fill:#7FB8E0;}
	.st9{fill:#8EC0E0;}
	.st10{fill:#71B1E1;}
	.st11{fill:#9FC9E4;}
	.st12{fill:#FFE28A;}
	.st13{fill:#FF6B8B;}
	.st14{fill:#F4A984;}
	.st15{fill:#EA9C7A;}
	.st16{fill:#E85160;}
	.st17{fill:#D84459;}
	.st18{fill:#E55D53;}
	.st19{fill:#FFD400;}
	.st20{fill:#FF8F00;}
	.st21{fill:#FF4A00;}
	.st22{fill:#F7D684;}
	.st23{fill:#FAE09F;}
	.st24{fill:#FDEBBB;}
	.st25{fill:#FFF3D9;}
	.st26{fill:#FFD96C;}
	.st27{fill:#9ACC2E;}
	.st28{fill:#AADB3D;}
	.st29{fill:#A2D336;}
	.st30{fill:#93C427;}
	.st31{fill:#F79654;}
	.st32{fill:#FFD04D;}
	.st33{fill:#FCA15E;}
	.st34{fill:#A9E260;}
	.st35{fill:#97DB4A;}
	.st36{fill:#B1E346;}
	.st37{fill:#FCD8DE;}
	.st38{fill:#CDA073;}
	.st39{fill:#C09265;}
	.st40{fill:#A7794C;}
	.st41{fill:#B38658;}
	.st42{fill:#9E6E43;}
	.st43{fill:#FBCFD6;}
	.st44{fill:#FAC4D1;}
	.st45{fill:#FAB8CD;}
	.st46{fill:#F9ADC8;}
	.st47{fill:#F8A1C4;}
	.st48{fill:#F297BE;}
	.st49{fill:#EA8BB4;}
	.st50{fill:#E8BA36;}
	.st51{fill:#E0B12E;}
	.st52{fill:#FFC172;}
	.st53{fill:#FFAD68;}
	.st54{fill:#FFB76D;}
	.st55{fill:#6E57A0;}
	.st56{fill:#675099;}
	.st57{fill:#F3586F;}
	.st58{fill:#604893;}
	.st59{fill:#CBEB6B;}
	.st60{fill:#4EAC5D;}
	.st61{fill:#BEE758;}
	.st62{fill:#6CD275;}
	.st63{fill:#48A353;}
	.st64{fill:#60C46F;}
	.st65{fill:#D9F07D;}
	.st66{fill:#E6F490;}
	.st67{fill:#4896C8;}
	.st68{fill:#4390BF;}
	.st69{fill:#5CA3D5;}
	.st70{fill:#529CCF;}
	.st71{fill:#F7C845;}
	.st72{fill:#ECCD50;}
	.st73{fill:#FF8D6E;}
	.st74{fill:#FF805D;}
	.st75{fill:#EDEEEE;}
	.st76{fill:#65A9DC;}
	.st77{fill:#8BC07A;}
	.st78{fill:#F0C13E;}
	.st79{fill:#9A3644;}
	.st80{fill:#8A323F;}
	.st81{fill:#945BA0;}
	.st82{fill:#A366AD;}
	.st83{fill:#B370B9;}
	.st84{fill:#C27BC6;}
	.st85{fill:#F6B392;}
	.st86{fill:#D285D2;}
	.st87{fill:#DBA728;}
	.st88{fill:#505957;}
	.st89{fill:#56C7CD;}
	.st90{fill:#434C4B;}
	.st91{fill:#687271;}
	.st92{fill:#5C6664;}
	.st93{fill:#51BAC5;}
	.st94{fill:#D64F45;}
	.st95{fill:#D1D4D4;}
	.st96{fill:#E3E5E5;}
	.st97{fill:#DADDDC;}
	.st98{fill:#845194;}
	.st99{fill:#5BD3D5;}
	.st100{fill:#46B080;}
	.st101{fill:#53BF8C;}
	.st102{fill:#6EDCA2;}
	.st103{fill:#7AEBAC;}
	.st104{fill:#60CD96;}
	.st105{fill:#E8803A;}
	.st106{fill:#0A6F8E;}
	.st107{fill:#0F769B;}
	.st108{fill:#EF8C48;}
	.st109{fill:#838C8A;}
	.st110{fill:#757F7E;}
	.st111{fill:#D1473D;}
	.st112{fill:#9179C6;}
	.st113{fill:#906DBB;}
	.st114{fill:#A78EDD;}
	.st115{fill:#9D85D3;}
	.st116{fill:#E2EFF7;}
	.st117{fill:#B0D3EA;}
	.st118{fill:#4CAEBC;}
	.st119{fill:#47A1B4;}
	.st120{fill:#4295AC;}
	.st121{fill:#FDE2E6;}
	.st122{fill:#FEF1C6;}
	.st123{fill:#FFF5D8;}
	.st124{fill:#99533D;}
	.st125{fill:#914C39;}
	.st126{fill:#D4C9EF;}
	.st127{fill:#E3DBF4;}
	.st128{fill:#F1EDFA;}
	.st129{fill:#C6B7E9;}
	.st130{fill:#B8A5E4;}
	.st131{fill:#F0C877;}
	.st132{fill:#E8BA67;}
	.st133{fill:#DDAA5F;}
	.st134{fill:#D4994F;}
	.st135{fill:#C98B44;}
	.st136{fill:#BF7D3C;}
	.st137{fill:#909997;}
	.st138{fill:#724D31;}
	.st139{fill:#93C2CA;}
	.st140{fill:#99C7CE;}
	.st141{fill:#9FCCD3;}
	.st142{fill:#ACD7DD;}
	.st143{fill:#B9E2E7;}
	.st144{fill:#A5D1D8;}
	.st145{fill:#88B9C3;}
	.st146{fill:#7EB1BD;}
	.st147{fill:#C8CCCB;}
	.st148{fill:none;}
	.st149{fill:#4F4032;}
	.st150{fill:#604631;}
	.st151{fill:#F9BDA0;}
	.st152{fill:#E7685F;}
	.st153{fill:#C84054;}
	.st154{fill:#ABB2B1;}
	.st155{fill:#9DA5A4;}
	.st156{fill:#F74000;}
	.st157{fill:#F97C00;}
	.st158{fill:#F9C900;}
	.st159{fill:#EFD4A7;}
	.st160{fill:#EACEA1;}
	.st161{fill:#FCE8CC;}
	.st162{fill:#F5DEB9;}
	.st163{fill:#CFAB81;}
	.st164{fill:#D5B387;}
	.st165{fill:#3A4274;}
	.st166{fill:#707EB7;}
	.st167{fill:#424B7E;}
	.st168{fill:#7C8AC4;}
	.st169{fill:#FFD98D;}
	.st170{fill:#8694D1;}
	.st171{fill:#9AA6D6;}
	.st172{fill:#ABB4DD;}
	.st173{fill:#FDECEF;}
	.st174{fill:#137FA0;}
	.st175{fill:#EB6B48;}
	.st176{fill:#F57552;}
	.st177{fill:#515E91;}
	.st178{fill:#5C699E;}
	.st179{fill:#6673AA;}
	.st180{fill:#504484;}
	.st181{fill:#FF5F7E;}
	.st182{fill:#EBCEEB;}
	.st183{fill:#E5BDE5;}
	.st184{fill:#E0ABDF;}
	.st185{fill:#D799D6;}
	.st186{fill:#3B8FA3;}
	.st187{fill:#348B99;}
	.st188{fill:#F7F7F7;}
	.st189{fill:#3AA176;}
	.st190{fill:#84ED82;}
	.st191{fill:#EFEAEA;}
	.st192{fill:#FF9A7E;}
	.st193{fill:#FCD2BE;}
	.st194{fill:#FCDDCF;}
	.st195{fill:#C683C8;}
	.st196{fill:#A55F49;}
	.st197{fill:#FEF5F7;}
</style>
<g>
	<path class="dirt_17" d="M16.5,30l-0.001-1C17.092,28.999,31,28.742,31,9.5h1C32,29.766,16.655,30,16.5,30z"/>
	<path class="dandelion_04" d="M32,10V4.809c0-0.372-0.391-0.613-0.724-0.447L30,5l-2.835-4.725C27.063,0.104,26.878,0,26.679,0l0,0
		c-0.354,0-0.621,0.32-0.558,0.668l1.606,8.834c0.129,0.708,0.94,1.052,1.539,0.653L31,9v1H32z"/>
	<path class="dandelion_04" d="M28.576,31.151C27.413,30,23.953,30,23.953,30s1-1,1-4c0-0.992-0.44-1.761-1.025-2.352
		c0.012-0.212,0.025-0.424,0.025-0.648c0-0.523-0.041-1.058-0.107-1.596l4.094-2.729c0.579-0.386,0.78-1.142,0.469-1.764
		c-0.271-0.542-0.863-0.843-1.46-0.744l-4.427,0.738c-1.347-2.754-3.591-4.879-6.521-4.902v17.995
		c1.509-0.004,2.835-0.199,3.953-0.605v1.192c0,0.265,0.105,0.52,0.293,0.707l0.414,0.414C20.847,31.895,21.102,32,21.367,32h6.849
		C28.658,32,28.89,31.462,28.576,31.151z"/>
	<path class="dirt_15" d="M12.895,8.14c0,0-1.415-4.403-4.468-5.752C7.7,2.067,6.919,2.708,7.055,3.491
		c0.224,1.291,0.17,3.216-1.423,4.929C5.255,8.825,5.266,9.451,5.665,9.833c0.965,0.923,3.013,2.055,6.352,0.061L12.895,8.14z"/>
	<path class="dandelion_03" d="M7.192,2.796C7.071,2.994,7.01,3.232,7.055,3.491c0.224,1.291,0.17,3.216-1.423,4.929
		C5.619,8.433,5.615,8.451,5.604,8.464c2.396,2.745,6.414,1.43,6.414,1.43l0.877-1.754C12.895,8.14,10.506,4.623,7.192,2.796z"/>
	<path class="dirt_16" d="M19.126,8.14c0,0,1.415-4.403,4.468-5.752c0.726-0.321,1.508,0.32,1.372,1.103
		c-0.224,1.291-0.17,3.216,1.423,4.929c0.376,0.405,0.365,1.031-0.034,1.413c-0.965,0.923-3.013,2.055-6.352,0.061L19.126,8.14z"/>
	<path class="dandelion_04" d="M24.829,2.796c0.12,0.198,0.182,0.436,0.137,0.695c-0.224,1.291-0.17,3.216,1.423,4.929
		c0.012,0.013,0.016,0.031,0.028,0.044c-2.396,2.745-6.414,1.43-6.414,1.43L19.126,8.14C19.126,8.14,21.514,4.623,24.829,2.796z"/>
	<path class="dirt_16" d="M28.215,32h-3.263c0-0.693,0.192-1.335,0.502-1.903c1.077,0.123,2.449,0.402,3.109,1.042
		C28.887,31.452,28.666,32,28.215,32z"/>
	<path class="dandelion_03" d="M15.953,12c-2.954,0-5.214,2.134-6.569,4.905l-4.426-0.738c-0.597-0.099-1.19,0.202-1.46,0.744
		c-0.311,0.622-0.11,1.378,0.469,1.764l4.094,2.729C7.994,21.942,7.953,22.477,7.953,23c0,0.224,0.013,0.436,0.025,0.648
		C7.393,24.239,6.953,25.008,6.953,26c0,3,1,4,1,4s-3.46,0-4.623,1.151C3.015,31.462,3.248,32,3.689,32h6.849
		c0.265,0,0.52-0.105,0.707-0.293l0.414-0.414c0.188-0.188,0.293-0.442,0.293-0.707v-1.19c1.13,0.41,2.472,0.604,4,0.604
		c0.016,0,0.031-0.001,0.047-0.001V12.004C15.984,12.003,15.969,12,15.953,12z"/>
	<path class="dandelion_03" d="M16,5c3.728,0,5.112,0.549,6,4c0.164,0.639,2,2.917,2,5c0,4.418-3.582,5-8,5V5z"/>
	<path class="dandelion_02" d="M16,5c-3.728,0-5.112,0.549-6,4c-0.164,0.639-2,2.917-2,5c0,4.418,3.582,5,8,5V5z"/>
	<path class="grey_17" d="M17,14.501c0-0.552-0.448-0.5-1-0.5v1C16.552,15.001,17,15.054,17,14.501z"/>
	<path class="grey_16" d="M16,14.001c-0.552,0-1-0.052-1,0.5c0,0.552,0.448,0.5,1,0.5V14.001z"/>
	<circle class="dirt_15" cx="12.5" cy="12.5" r="1.5"/>
	<path class="grey_16" d="M12.5,11c-0.286,0-0.55,0.084-0.777,0.223C11.584,11.45,11.5,11.714,11.5,12c0,0.828,0.672,1.5,1.5,1.5
		c0.286,0,0.55-0.084,0.777-0.223C13.916,13.05,14,12.786,14,12.5C14,11.672,13.328,11,12.5,11z"/>
	<circle class="white" cx="13" cy="12" r="0.5"/>
	<circle class="dirt_16" cx="19.5" cy="12.5" r="1.5"/>
	<path class="grey_17" d="M19.5,11c0.286,0,0.55,0.084,0.777,0.223C20.416,11.45,20.5,11.714,20.5,12c0,0.828-0.672,1.5-1.5,1.5
		c-0.286,0-0.55-0.084-0.777-0.223C18.084,13.05,18,12.786,18,12.5C18,11.672,18.672,11,19.5,11z"/>
	<circle class="grey_01" cx="19" cy="12" r="0.5"/>
	<circle class="lemon_02" cx="10" cy="15" r="1"/>
	<circle class="lemon_03" cx="22" cy="15" r="1"/>
	<path class="lemon_02" d="M9.953,27c0,0.005,0,0.01,0,0.014c0.002,0.932,0.595,1.765,1.442,2.154
		c1.245,0.573,2.797,0.836,4.604,0.831c0,0,0.001-0.001,0.001-0.001l0-8.997c-0.001-0.001-0.001-0.001-0.002-0.002
		C12.663,20.976,9.953,23.671,9.953,27z"/>
	<path class="lemon_03" d="M21.953,27c0-3.298-2.661-5.972-5.953-5.998v8.996c1.85-0.005,3.428-0.294,4.679-0.912
		c0.774-0.383,1.27-1.201,1.273-2.065C21.953,27.014,21.953,27.007,21.953,27z"/>
	<path class="dirt_15" d="M3.497,16.911c-0.311,0.622-0.11,1.378,0.469,1.764l1.286,0.857c0.844-0.566,1.401-1.528,1.401-2.621
		c0-0.161-0.024-0.315-0.047-0.469l-1.647-0.275C4.36,16.068,3.768,16.37,3.497,16.911z"/>
	<path class="dirt_16" d="M28.408,16.911c0.311,0.622,0.11,1.378-0.469,1.764l-1.286,0.857c-0.844-0.566-1.401-1.528-1.401-2.621
		c0-0.161,0.024-0.315,0.047-0.469l1.647-0.275C27.545,16.068,28.137,16.37,28.408,16.911z"/>
	<path class="dirt_15" d="M3.69,32h3.263c0-0.693-0.192-1.335-0.502-1.903c-1.077,0.123-2.449,0.402-3.109,1.042
		C3.018,31.452,3.24,32,3.69,32z"/>
</g>
</svg>
