<?xml version="1.0" encoding="utf-8"?>
<!-- Generator: Adobe Illustrator 20.1.0, SVG Export Plug-In . SVG Version: 6.00 Build 0)  -->
<!DOCTYPE svg PUBLIC "-//W3C//DTD SVG 1.1//EN" "http://www.w3.org/Graphics/SVG/1.1/DTD/svg11.dtd">
<svg version="1.1" id="icons" xmlns="http://www.w3.org/2000/svg" xmlns:xlink="http://www.w3.org/1999/xlink" x="0px" y="0px"
	 width="32px" height="32px" viewBox="0 0 32 32" style="enable-background:new 0 0 32 32;" xml:space="preserve">
<style type="text/css">
	.white{fill:#FFFFFF;}
	.grey_01{fill:#F7F7F7;}
	.grey_16{fill:#373F3F;}
	.grey_17{fill:#2B3332;}
	.lemon_04{fill:#FFE28A;}
	.lemon_05{fill:#FFD96C;}
	.lemon_06{fill:#FFD04D;}
	.lemon_07{fill:#F7C845;}
	.lemon_08{fill:#F0C13E;}
	.sand_01{fill:#FFF3D9;}
	.sand_02{fill:#FDEBBB;}
	.sand_03{fill:#FAE09F;}
	.sand_04{fill:#F7D684;}
	.dirt_14{fill:#9E6E43;}
	.dirt_15{fill:#96643B;}
	.dirt_16{fill:#8D5B36;}
	.dirt_17{fill:#845331;}
	.st0{fill:#78DF7C;}
	.st1{fill:#54B668;}
	.st2{fill:#7A63AD;}
	.st3{fill:#866EBA;}
	.st4{fill:#D2E6F3;}
	.st5{fill:#C1DDEE;}
	.st6{fill:#E0C193;}
	.st7{fill:#DBBA8C;}
	.st8{fill:#7FB8E0;}
	.st9{fill:#8EC0E0;}
	.st10{fill:#71B1E1;}
	.st11{fill:#9FC9E4;}
	.st12{fill:#FFEAA7;}
	.st13{fill:#FF6B8B;}
	.st14{fill:#F4A984;}
	.st15{fill:#EA9C7A;}
	.st16{fill:#FEF1C6;}
	.st17{fill:#E85160;}
	.st18{fill:#D84459;}
	.st19{fill:#E55D53;}
	.st20{fill:#FFD400;}
	.st21{fill:#FF8F00;}
	.st22{fill:#FF4A00;}
	.st23{fill:#9ACC2E;}
	.st24{fill:#AADB3D;}
	.st25{fill:#A2D336;}
	.st26{fill:#93C427;}
	.st27{fill:#F79654;}
	.st28{fill:#FCA15E;}
	.st29{fill:#A9E260;}
	.st30{fill:#97DB4A;}
	.st31{fill:#B1E346;}
	.st32{fill:#FCD8DE;}
	.st33{fill:#CDA073;}
	.st34{fill:#C09265;}
	.st35{fill:#A7794C;}
	.st36{fill:#B38658;}
	.st37{fill:#FBCFD6;}
	.st38{fill:#FAC4D1;}
	.st39{fill:#FAB8CD;}
	.st40{fill:#F9ADC8;}
	.st41{fill:#F8A1C4;}
	.st42{fill:#F297BE;}
	.st43{fill:#EA8BB4;}
	.st44{fill:#E8BA36;}
	.st45{fill:#E0B12E;}
	.st46{fill:#FFC172;}
	.st47{fill:#FFAD68;}
	.st48{fill:#FFB76D;}
	.st49{fill:#6E57A0;}
	.st50{fill:#675099;}
	.st51{fill:#F3586F;}
	.st52{fill:#604893;}
	.st53{fill:#CBEB6B;}
	.st54{fill:#4EAC5D;}
	.st55{fill:#BEE758;}
	.st56{fill:#6CD275;}
	.st57{fill:#48A353;}
	.st58{fill:#60C46F;}
	.st59{fill:#D9F07D;}
	.st60{fill:#E6F490;}
	.st61{fill:#4896C8;}
	.st62{fill:#4390BF;}
	.st63{fill:#5CA3D5;}
	.st64{fill:#529CCF;}
	.st65{fill:#ECCD50;}
	.st66{fill:#FF8D6E;}
	.st67{fill:#FF805D;}
	.st68{fill:#EDEEEE;}
	.st69{fill:#65A9DC;}
	.st70{fill:#8BC07A;}
	.st71{fill:#9A3644;}
	.st72{fill:#8A323F;}
	.st73{fill:#945BA0;}
	.st74{fill:#A366AD;}
	.st75{fill:#B370B9;}
	.st76{fill:#C27BC6;}
	.st77{fill:#F6B392;}
	.st78{fill:#D285D2;}
	.st79{fill:#FDEBBB;}
	.st80{fill:#FAE09F;}
	.st81{fill:#DBA728;}
	.st82{fill:#505957;}
	.st83{fill:#56C7CD;}
	.st84{fill:#434C4B;}
	.st85{fill:#687271;}
	.st86{fill:#5C6664;}
	.st87{fill:#51BAC5;}
	.st88{fill:#D64F45;}
	.st89{fill:#D1D4D4;}
	.st90{fill:#E3E5E5;}
	.st91{fill:#DADDDC;}
	.st92{fill:#845194;}
	.st93{fill:#5BD3D5;}
	.st94{fill:#46B080;}
	.st95{fill:#53BF8C;}
	.st96{fill:#6EDCA2;}
	.st97{fill:#7AEBAC;}
	.st98{fill:#60CD96;}
	.st99{fill:#E8803A;}
	.st100{fill:#0A6F8E;}
	.st101{fill:#0F769B;}
	.st102{fill:#EF8C48;}
	.st103{fill:#838C8A;}
	.st104{fill:#757F7E;}
	.st105{fill:#D1473D;}
	.st106{fill:#FFE28A;}
	.st107{fill:#9179C6;}
	.st108{fill:#906DBB;}
	.st109{fill:#A78EDD;}
	.st110{fill:#9D85D3;}
	.st111{fill:#E2EFF7;}
	.st112{fill:#B0D3EA;}
	.st113{fill:#F7BC48;}
	.st114{fill:#FFC550;}
	.st115{fill:#FFCF6E;}
	.st116{fill:#F0C13E;}
	.st117{fill:#4CAEBC;}
	.st118{fill:#47A1B4;}
	.st119{fill:#4295AC;}
	.st120{fill:#FDE2E6;}
	.st121{fill:#FFF5D8;}
	.st122{fill:#99533D;}
	.st123{fill:#914C39;}
	.st124{fill:#D4C9EF;}
	.st125{fill:#E3DBF4;}
	.st126{fill:#F1EDFA;}
	.st127{fill:#C6B7E9;}
	.st128{fill:#B8A5E4;}
	.st129{fill:#F0C877;}
	.st130{fill:#E8BA67;}
	.st131{fill:#DDAA5F;}
	.st132{fill:#D4994F;}
	.st133{fill:#C98B44;}
	.st134{fill:#F7D684;}
	.st135{fill:#BF7D3C;}
	.st136{fill:#909997;}
	.st137{fill:#724D31;}
	.st138{fill:#93C2CA;}
	.st139{fill:#99C7CE;}
	.st140{fill:#9FCCD3;}
	.st141{fill:#ACD7DD;}
	.st142{fill:#B9E2E7;}
	.st143{fill:#A5D1D8;}
	.st144{fill:#88B9C3;}
	.st145{fill:#7EB1BD;}
	.st146{fill:#C8CCCB;}
	.st147{fill:none;}
	.st148{fill:#4F4032;}
	.st149{fill:#604631;}
	.st150{fill:#9E6E43;}
	.st151{fill:#F9BDA0;}
	.st152{fill:#E7685F;}
	.st153{fill:#C84054;}
	.st154{fill:#ABB2B1;}
	.st155{fill:#9DA5A4;}
	.st156{fill:#FFD96C;}
	.st157{fill:#FFD04D;}
	.st158{fill:#F74000;}
	.st159{fill:#F97C00;}
	.st160{fill:#F9C900;}
	.st161{fill:#EFD4A7;}
	.st162{fill:#EACEA1;}
	.st163{fill:#FCE8CC;}
	.st164{fill:#F5DEB9;}
	.st165{fill:#CFAB81;}
	.st166{fill:#D5B387;}
	.st167{fill:#3A4274;}
	.st168{fill:#707EB7;}
	.st169{fill:#424B7E;}
	.st170{fill:#7C8AC4;}
	.st171{fill:#FFD98D;}
	.st172{fill:#8694D1;}
	.st173{fill:#9AA6D6;}
	.st174{fill:#ABB4DD;}
	.st175{fill:#FDECEF;}
	.st176{fill:#137FA0;}
	.st177{fill:#EB6B48;}
	.st178{fill:#F57552;}
	.st179{fill:#515E91;}
	.st180{fill:#5C699E;}
	.st181{fill:#6673AA;}
	.st182{fill:#504484;}
	.st183{fill:#FF5F7E;}
	.st184{fill:#EBCEEB;}
	.st185{fill:#E5BDE5;}
	.st186{fill:#E0ABDF;}
	.st187{fill:#D799D6;}
	.st188{fill:#3B8FA3;}
	.st189{fill:#348B99;}
	.st190{fill:#F7F7F7;}
	.st191{fill:#3AA176;}
	.st192{fill:#84ED82;}
	.st193{fill:#EFEAEA;}
	.st194{fill:#FF9A7E;}
	.st195{fill:#FCD2BE;}
	.st196{fill:#FCDDCF;}
	.st197{fill:#C683C8;}
	.st198{fill:#A55F49;}
	.st199{fill:#FEF5F7;}
</style>
<g>
	<path class="dirt_17" d="M22.636,14.04c0.09-0.028,0.181-0.053,0.269-0.094c1.039-0.485,8.01-4.928,7.59-5.83
		c-0.42-0.902-8.305,1.582-9.345,2.067c-0.148,0.069-0.28,0.156-0.403,0.253l-0.007,0.001l-0.894,0
		c0.267-0.507,0.5-0.984,0.67-1.279c0.573-0.993,3.729-8.634,2.867-9.131c-0.653-0.376-3.694,3.294-5.381,5.529
		C17.743,3.724,16.841,0.021,16,0.002v22.201h6.105c0.017,0.005,0.032,0.014,0.05,0.019c1.108,0.297,9.304,1.374,9.562,0.413
		c0.257-0.961-7.379-4.127-8.487-4.423c-0.086-0.023-0.172-0.03-0.259-0.042c1.397-0.166,9.113-1.899,9.028-2.87
		C31.915,14.334,24.104,13.966,22.636,14.04z"/>
	<path class="dirt_16" d="M16,0.002C15.998,0.002,15.995,0,15.993,0C15.153,0.001,14.258,3.702,14,5.544
		c-1.689-2.237-4.721-5.893-5.372-5.518c-0.862,0.497,2.294,8.138,2.867,9.131c0.17,0.295,0.403,0.773,0.671,1.281l-0.892,0
		l-0.007,0c-0.124-0.098-0.257-0.186-0.406-0.256C9.821,9.698,1.936,7.214,1.515,8.116s6.551,5.345,7.59,5.83
		c0.088,0.041,0.179,0.066,0.27,0.094c-1.442-0.076-9.29,0.292-9.374,1.259c-0.085,0.97,7.63,2.703,9.028,2.87
		c-0.086,0.012-0.172,0.019-0.259,0.042c-1.108,0.297-8.744,3.462-8.487,4.423c0.258,0.961,8.454-0.116,9.562-0.413
		c0.018-0.005,0.033-0.014,0.05-0.019H16V0.002z M9.646,18.174c-0.013-0.002-0.025-0.009-0.038-0.011
		c0.013-0.002,0.025-0.007,0.038-0.009V18.174z"/>
	<path class="dirt_14" d="M16,7.347c-0.914-2.351-3.112-7.295-3.874-7.091c-0.813,0.218-0.113,6.326,0.264,8.538
		c-1.348-0.842-7.83-4.171-8.356-3.419c-0.55,0.785,5.32,6.167,6.225,6.8c0.095,0.067,0.195,0.118,0.297,0.166
		c-0.045-0.015-0.085-0.037-0.132-0.05c-1.067-0.286-8.963-1.323-9.211-0.398c-0.244,0.91,6.85,3.867,8.103,4.238
		c-1.119,0.101-8.868,1.823-8.785,2.776c0.082,0.943,7.831,1.295,9.084,1.211c-0.097,0.028-0.194,0.057-0.289,0.101
		c-1.001,0.467-7.717,4.748-7.312,5.616C2.419,26.704,9.999,24.467,11,24h5V7.347z"/>
	<path class="dirt_15" d="M21,24c1.001,0.467,8.581,2.704,8.986,1.835c0.405-0.869-6.31-5.149-7.312-5.616
		c-0.094-0.044-0.192-0.072-0.289-0.101c1.253,0.084,9.001-0.268,9.084-1.211c0.083-0.953-7.666-2.675-8.785-2.776
		c1.253-0.371,8.347-3.328,8.103-4.238c-0.248-0.926-8.144,0.112-9.211,0.398c-0.046,0.012-0.087,0.034-0.132,0.05
		c0.101-0.048,0.202-0.1,0.297-0.166c0.905-0.634,6.775-6.015,6.225-6.8c-0.526-0.751-7.008,2.577-8.356,3.419
		c0.377-2.212,1.076-8.32,0.264-8.538C19.112,0.052,16.914,4.995,16,7.347V24H21z"/>
	<path class="lemon_08" d="M22.838,20.753l1.429,2.148c1.406,2.114,0.513,4.987-1.845,5.93L22,29l1.632,0.544
		C24.449,29.816,25,30.581,25,31.442V31.5c0,0.276-0.224,0.5-0.5,0.5H18c-0.552,0-1-0.448-1-1v-4L22.838,20.753z"/>
	<path class="lemon_07" d="M9.162,20.753l-1.429,2.148c-1.406,2.114-0.513,4.987,1.845,5.93L10,29l-1.632,0.544
		C7.551,29.816,7,30.581,7,31.442V31.5C7,31.776,7.224,32,7.5,32H14c0.552,0,1-0.448,1-1v-4L9.162,20.753z"/>
	<path class="sand_02" d="M16,13c-4.349,0-6,5.582-6,10c0,4.418,1.651,6,6,6V13z"/>
	<path class="sand_03" d="M22,23c0-4.418-1.651-10-6-10v16C20.349,29,22,27.418,22,23z"/>
	<path class="sand_03" d="M10.01,23.252C10.112,27.473,11.737,29,16,29v-3C12.715,26,11.285,25.215,10.01,23.252z"/>
	<path class="sand_04" d="M16,26v3c4.263,0,5.888-1.527,5.99-5.748C20.715,25.215,19.285,26,16,26z"/>
	<path class="lemon_07" d="M20.408,14.937l0.225,0.266C22.162,17.009,23,19.298,23,21.663V23c0,0.552-0.448,1-1,1h-2.719
		c-0.651,0-1.128-0.611-0.97-1.243l0.248-0.994c0.292-1.166,0.37-2.376,0.233-3.57l-0.316-2.739L20.408,14.937z"/>
	<path class="sand_02" d="M21.125,23c-0.223,0-0.454,0.102-0.625,0.257C20.329,23.102,20.098,23,19.875,23
		C19.461,23,19,23.336,19,23.75c0,1.5,0.692,6.25,1,6.25c0.158,0,0.35-1.424,0.5-2.772C20.65,28.576,20.842,30,21,30
		c0.308,0,1-4.75,1-6.25C22,23.336,21.539,23,21.125,23z"/>
	<path class="lemon_06" d="M11.592,14.937l-0.225,0.266C9.838,17.009,9,19.298,9,21.663V23c0,0.552,0.448,1,1,1h2.719
		c0.651,0,1.128-0.611,0.97-1.243l-0.248-0.994c-0.292-1.166-0.37-2.376-0.233-3.57l0.316-2.739L11.592,14.937z"/>
	<path class="sand_01" d="M10.875,23c0.223,0,0.454,0.102,0.625,0.257C11.671,23.102,11.902,23,12.125,23
		C12.539,23,13,23.336,13,23.75c0,1.5-0.692,6.25-1,6.25c-0.158,0-0.35-1.424-0.5-2.772C11.35,28.576,11.158,30,11,30
		c-0.308,0-1-4.75-1-6.25C10,23.336,10.461,23,10.875,23z"/>
	<path class="sand_01" d="M16,6.958c-3.682,0-5,2.213-5,6c0,2.478,1.844,4.381,3.419,5.494c0.466,0.329,1.015,0.506,1.58,0.506H16
		V6.958z"/>
	<path class="sand_02" d="M16.001,18.958c0.565,0,1.114-0.176,1.58-0.506C19.156,17.339,21,15.436,21,12.958c0-3.787-1.318-6-5-6v12
		H16.001z"/>
	<path class="lemon_06" d="M19.187,8.813l1,1l1.059-0.529c1.867-0.933,3.233-2.636,3.739-4.661l0-0.001
		c0.092-0.366-0.24-0.698-0.606-0.606l-0.001,0c-2.025,0.506-3.728,1.872-4.661,3.739L19.187,8.813z"/>
	<path class="lemon_05" d="M12.813,8.813l-1,1l-1.059-0.529C8.888,8.35,7.522,6.648,7.016,4.623l0-0.001
		c-0.092-0.366,0.24-0.698,0.606-0.606l0.001,0c2.025,0.506,3.728,1.872,4.661,3.739L12.813,8.813z"/>
	<circle class="grey_16" cx="14" cy="13" r="2"/>
	<circle class="grey_17" cx="18" cy="13" r="2"/>
	<path class="lemon_05" d="M11.051,11.884c1.627-0.258,3.196,0.844,3.435,2.521l0.391,2.736C14.948,17.634,15.37,18,15.867,18H16
		V6.958C12.686,6.958,11.297,8.764,11.051,11.884z"/>
	<path class="lemon_06" d="M20.949,11.884c-1.627-0.258-3.196,0.844-3.435,2.521l-0.391,2.736C17.052,17.634,16.63,18,16.133,18H16
		V6.958C19.314,6.958,20.703,8.764,20.949,11.884z"/>
	<path class="lemon_04" d="M16,4c-0.166,0-0.332,0.081-0.429,0.243l-0.001,0.001c-1.067,1.815-1.298,4.002-0.632,6l0.131,0.393
		c0.133,0.4,0.508,0.67,0.93,0.67H16V4z"/>
	<path class="lemon_05" d="M16.93,10.636l0.131-0.393c0.666-1.997,0.435-4.185-0.632-6l-0.001-0.001C16.332,4.081,16.166,4,16,4
		v7.306h0.001C16.423,11.306,16.797,11.036,16.93,10.636z"/>
	<g>
		<path class="white" d="M13.266,12.984c0.293,0.293,0.279,0.517,0.133,0.664c-0.147,0.147-0.371,0.161-0.664-0.133
			s-0.279-0.517-0.133-0.664C12.748,12.705,12.972,12.691,13.266,12.984z"/>
		<path class="grey_01" d="M18.734,12.984c-0.293,0.293-0.279,0.517-0.133,0.664c0.147,0.147,0.371,0.161,0.664-0.133
			c0.293-0.293,0.279-0.517,0.133-0.664C19.252,12.705,19.028,12.691,18.734,12.984z"/>
	</g>
</g>
</svg>
