<?xml version="1.0" encoding="utf-8"?>
<!-- Generator: Adobe Illustrator 20.1.0, SVG Export Plug-In . SVG Version: 6.00 Build 0)  -->
<!DOCTYPE svg PUBLIC "-//W3C//DTD SVG 1.1//EN" "http://www.w3.org/Graphics/SVG/1.1/DTD/svg11.dtd">
<svg version="1.1" id="icons" xmlns="http://www.w3.org/2000/svg" xmlns:xlink="http://www.w3.org/1999/xlink" x="0px" y="0px"
	 width="32px" height="32px" viewBox="0 0 32 32" style="enable-background:new 0 0 32 32;" xml:space="preserve">
<style type="text/css">
	.white{fill:#FFFFFF;}
	.grey_01{fill:#F7F7F7;}
	.cerulean_01{fill:#5BD3D5;}
	.cerulean_02{fill:#56C7CD;}
	.cerulean_03{fill:#51BAC5;}
	.periwinkle_02{fill:#D2E6F3;}
	.periwinkle_03{fill:#C1DDEE;}
	.periwinkle_04{fill:#B0D3EA;}
	.periwinkle_05{fill:#9FC9E4;}
	.periwinkle_06{fill:#8EC0E0;}
	.periwinkle_07{fill:#7FB8E0;}
	.periwinkle_08{fill:#71B1E1;}
	.periwinkle_11{fill:#529CCF;}
	.periwinkle_12{fill:#4896C8;}
	.periwinkle_13{fill:#4390BF;}
	.tulip_05{fill:#E85160;}
	.tulip_06{fill:#D84459;}
	.st0{fill:#78DF7C;}
	.st1{fill:#54B668;}
	.st2{fill:#7A63AD;}
	.st3{fill:#866EBA;}
	.st4{fill:#E0C193;}
	.st5{fill:#DBBA8C;}
	.st6{fill:#FFEAA7;}
	.st7{fill:#FFE28A;}
	.st8{fill:#FF6B8B;}
	.st9{fill:#F4A984;}
	.st10{fill:#EA9C7A;}
	.st11{fill:#FEF1C6;}
	.st12{fill:#E55D53;}
	.st13{fill:#FFD400;}
	.st14{fill:#FF8F00;}
	.st15{fill:#FF4A00;}
	.st16{fill:#F7D684;}
	.st17{fill:#2B3332;}
	.st18{fill:#FAE09F;}
	.st19{fill:#373F3F;}
	.st20{fill:#FDEBBB;}
	.st21{fill:#FFF3D9;}
	.st22{fill:#FFD96C;}
	.st23{fill:#9ACC2E;}
	.st24{fill:#AADB3D;}
	.st25{fill:#A2D336;}
	.st26{fill:#93C427;}
	.st27{fill:#F79654;}
	.st28{fill:#FFD04D;}
	.st29{fill:#FCA15E;}
	.st30{fill:#A9E260;}
	.st31{fill:#97DB4A;}
	.st32{fill:#B1E346;}
	.st33{fill:#FCD8DE;}
	.st34{fill:#CDA073;}
	.st35{fill:#C09265;}
	.st36{fill:#A7794C;}
	.st37{fill:#96643B;}
	.st38{fill:#845331;}
	.st39{fill:#B38658;}
	.st40{fill:#9E6E43;}
	.st41{fill:#8D5B36;}
	.st42{fill:#FBCFD6;}
	.st43{fill:#FAC4D1;}
	.st44{fill:#FAB8CD;}
	.st45{fill:#F9ADC8;}
	.st46{fill:#F8A1C4;}
	.st47{fill:#F297BE;}
	.st48{fill:#EA8BB4;}
	.st49{fill:#E8BA36;}
	.st50{fill:#E0B12E;}
	.st51{fill:#FFC172;}
	.st52{fill:#FFAD68;}
	.st53{fill:#FFB76D;}
	.st54{fill:#6E57A0;}
	.st55{fill:#675099;}
	.st56{fill:#F3586F;}
	.st57{fill:#604893;}
	.st58{fill:#CBEB6B;}
	.st59{fill:#4EAC5D;}
	.st60{fill:#BEE758;}
	.st61{fill:#6CD275;}
	.st62{fill:#48A353;}
	.st63{fill:#60C46F;}
	.st64{fill:#D9F07D;}
	.st65{fill:#E6F490;}
	.st66{fill:#5CA3D5;}
	.st67{fill:#F7C845;}
	.st68{fill:#ECCD50;}
	.st69{fill:#FF8D6E;}
	.st70{fill:#FF805D;}
	.st71{fill:#EDEEEE;}
	.st72{fill:#65A9DC;}
	.st73{fill:#8BC07A;}
	.st74{fill:#F0C13E;}
	.st75{fill:#9A3644;}
	.st76{fill:#8A323F;}
	.st77{fill:#945BA0;}
	.st78{fill:#A366AD;}
	.st79{fill:#B370B9;}
	.st80{fill:#C27BC6;}
	.st81{fill:#F6B392;}
	.st82{fill:#D285D2;}
	.st83{fill:#DBA728;}
	.st84{fill:#505957;}
	.st85{fill:#434C4B;}
	.st86{fill:#687271;}
	.st87{fill:#5C6664;}
	.st88{fill:#D64F45;}
	.st89{fill:#D1D4D4;}
	.st90{fill:#E3E5E5;}
	.st91{fill:#DADDDC;}
	.st92{fill:#845194;}
	.st93{fill:#46B080;}
	.st94{fill:#53BF8C;}
	.st95{fill:#6EDCA2;}
	.st96{fill:#7AEBAC;}
	.st97{fill:#60CD96;}
	.st98{fill:#E8803A;}
	.st99{fill:#0A6F8E;}
	.st100{fill:#0F769B;}
	.st101{fill:#EF8C48;}
	.st102{fill:#838C8A;}
	.st103{fill:#757F7E;}
	.st104{fill:#D1473D;}
	.st105{fill:#56C7CD;}
	.st106{fill:#9179C6;}
	.st107{fill:#906DBB;}
	.st108{fill:#A78EDD;}
	.st109{fill:#9D85D3;}
	.st110{fill:#E2EFF7;}
	.st111{fill:#F7BC48;}
	.st112{fill:#FFC550;}
	.st113{fill:#FFCF6E;}
	.st114{fill:#4CAEBC;}
	.st115{fill:#47A1B4;}
	.st116{fill:#4295AC;}
	.st117{fill:#E85160;}
	.st118{fill:#D84459;}
	.st119{fill:#FDE2E6;}
	.st120{fill:#FFF5D8;}
	.st121{fill:#99533D;}
	.st122{fill:#914C39;}
	.st123{fill:#D4C9EF;}
	.st124{fill:#E3DBF4;}
	.st125{fill:#F1EDFA;}
	.st126{fill:#C6B7E9;}
	.st127{fill:#B8A5E4;}
	.st128{fill:#F0C877;}
	.st129{fill:#E8BA67;}
	.st130{fill:#DDAA5F;}
	.st131{fill:#D4994F;}
	.st132{fill:#C98B44;}
	.st133{fill:#BF7D3C;}
	.st134{fill:#909997;}
	.st135{fill:#724D31;}
	.st136{fill:#93C2CA;}
	.st137{fill:#99C7CE;}
	.st138{fill:#9FCCD3;}
	.st139{fill:#ACD7DD;}
	.st140{fill:#B9E2E7;}
	.st141{fill:#A5D1D8;}
	.st142{fill:#88B9C3;}
	.st143{fill:#7EB1BD;}
	.st144{fill:#C8CCCB;}
	.st145{fill:none;}
	.st146{fill:#4F4032;}
	.st147{fill:#604631;}
	.st148{fill:#F9BDA0;}
	.st149{fill:#E7685F;}
	.st150{fill:#C84054;}
	.st151{fill:#ABB2B1;}
	.st152{fill:#9DA5A4;}
	.st153{fill:#F74000;}
	.st154{fill:#F97C00;}
	.st155{fill:#F9C900;}
	.st156{fill:#B0D3EA;}
	.st157{fill:#EFD4A7;}
	.st158{fill:#EACEA1;}
	.st159{fill:#FCE8CC;}
	.st160{fill:#F5DEB9;}
	.st161{fill:#CFAB81;}
	.st162{fill:#D5B387;}
	.st163{fill:#3A4274;}
	.st164{fill:#707EB7;}
	.st165{fill:#424B7E;}
	.st166{fill:#7C8AC4;}
	.st167{fill:#FFD98D;}
	.st168{fill:#8694D1;}
	.st169{fill:#9AA6D6;}
	.st170{fill:#ABB4DD;}
	.st171{fill:#FDECEF;}
	.st172{fill:#137FA0;}
	.st173{fill:#EB6B48;}
	.st174{fill:#F57552;}
	.st175{fill:#515E91;}
	.st176{fill:#5C699E;}
	.st177{fill:#6673AA;}
	.st178{fill:#504484;}
	.st179{fill:#FF5F7E;}
	.st180{fill:#EBCEEB;}
	.st181{fill:#E5BDE5;}
	.st182{fill:#E0ABDF;}
	.st183{fill:#D799D6;}
	.st184{fill:#3B8FA3;}
	.st185{fill:#348B99;}
	.st186{fill:#F7F7F7;}
	.st187{fill:#3AA176;}
	.st188{fill:#84ED82;}
	.st189{fill:#EFEAEA;}
	.st190{fill:#FF9A7E;}
	.st191{fill:#FCD2BE;}
	.st192{fill:#FCDDCF;}
	.st193{fill:#C683C8;}
	.st194{fill:#A55F49;}
	.st195{fill:#FEF5F7;}
</style>
<g>
	<path class="periwinkle_08" d="M27.646,29.646L26,28l0.001-0.002c1.821-3.035,1.668-6.861-0.389-9.741L24,16v6.199
		c0,1.858-0.259,3.708-0.77,5.494L22.286,31H27.5c0.276,0,0.5-0.224,0.5-0.5C28,30.18,27.873,29.873,27.646,29.646z"/>
	<path class="periwinkle_07" d="M8.77,27.693C8.259,25.906,8,24.057,8,22.199V17v-1l-1.612,2.257
		c-2.057,2.88-2.21,6.706-0.389,9.741L6,28l-1.646,1.646C4.127,29.873,4,30.18,4,30.5C4,30.776,4.224,31,4.5,31h5.214L8.77,27.693z"
		/>
	<path class="periwinkle_06" d="M8,16v1v5.199c0,1.858,0.259,3.708,0.77,5.494l1.127,3.944C9.958,31.852,10.154,32,10.377,32H13.5
		c0.276,0,0.5-0.224,0.5-0.5V30h2v-7C14,23,8,20.971,8,16z"/>
	<g>
		<path class="periwinkle_07" d="M16,23v7h2v1.5c0,0.276,0.224,0.5,0.5,0.5h3.123c0.223,0,0.419-0.148,0.481-0.363l1.127-3.944
			c0.511-1.787,0.77-3.636,0.77-5.494V16C24,20.971,18,23,16,23z"/>
	</g>
	<path class="periwinkle_03" d="M11.865,5.865L6.879,0.879C6.316,0.316,5.553,0,4.757,0h-4.05C0.317,0,0,0.317,0,0.707
		c0,0.188,0.075,0.367,0.207,0.5l0.426,0.426c0.24,0.24,0.415,0.538,0.509,0.865l0.552,1.93C2.52,7.321,4.605,9.688,7.37,10.873
		l1.353,0.58C8.255,12.996,8,14.581,8,16c0,4.971,6,7,8,7V4C14.41,4,13.022,4.724,11.865,5.865z"/>
	<path class="periwinkle_04" d="M8.77,18.844C10.448,21.754,14.438,23,16,23v-5C13.033,18,10.409,19.048,8.77,18.844z"/>
	<path class="periwinkle_04" d="M31.293,0h-4.05c-0.796,0-1.559,0.316-2.121,0.879l-4.986,4.986C18.978,4.724,17.59,4,16,4v19
		c2,0,8-2.029,8-7c0-1.419-0.255-3.004-0.723-4.547l1.353-0.58c2.765-1.185,4.85-3.552,5.676-6.444l0.552-1.93
		c0.093-0.327,0.268-0.624,0.509-0.865l0.426-0.426C31.925,1.074,32,0.895,32,0.707C32,0.317,31.683,0,31.293,0z"/>
	<path class="periwinkle_05" d="M16,18v5c1.562,0,5.552-1.246,7.23-4.156C21.591,19.048,18.967,18,16,18z"/>
	<path class="white" d="M14.522,18.087l0.384,1.535C14.961,19.844,15.161,20,15.39,20H16v-2C15.495,18,15.004,18.037,14.522,18.087z
		"/>
	<path class="grey_01" d="M17.478,18.087C16.996,18.037,16.505,18,16,18v2h0.61c0.229,0,0.429-0.156,0.485-0.379L17.478,18.087z"/>
	<path class="periwinkle_11" d="M8.129,10.066C8.596,8.812,9.196,7.607,9.94,6.562L5.818,2.44C5.537,2.158,5.155,2,4.757,2H3.051
		C2.714,2,2.473,2.324,2.573,2.646c0.233,0.749,0.563,1.871,0.563,1.871c0.706,2.47,2.464,4.466,4.825,5.478L8.129,10.066z"/>
	<path class="cerulean_01" d="M9.94,6.562L6.189,2.811c0,0-0.509,4.417,2.049,6.961C8.689,8.623,9.254,7.525,9.94,6.562z"/>
	<path class="periwinkle_12" d="M28.949,2h-1.706c-0.398,0-0.78,0.158-1.061,0.44L22.06,6.562c0.745,1.045,1.345,2.25,1.811,3.504
		l0.168-0.072c2.36-1.011,4.119-3.008,4.825-5.478c0,0,0.33-1.122,0.563-1.871C29.527,2.324,29.285,2,28.949,2z"/>
	<path class="periwinkle_13" d="M28.949,2h-1.706c-0.398,0-0.78,0.158-1.061,0.44L22.06,6.562c0.33,0.463,0.625,0.963,0.9,1.478
		l3.161-3.161C26.684,4.316,27.447,4,28.242,4h0.774c0.117-0.392,0.278-0.93,0.41-1.354C29.527,2.324,29.286,2,28.949,2z"/>
	<path class="cerulean_02" d="M23.762,9.771c2.558-2.543,2.049-6.96,2.049-6.96L22.06,6.562C22.746,7.525,23.311,8.623,23.762,9.771
		z"/>
	<g>
		<path class="white" d="M11.312,11.062c-0.739,0.674-1.232,1.612-1.303,2.672C9.999,13.877,10.121,14,10.265,14h3.215
			c0.21,0,0.326-0.242,0.195-0.406l-1.998-2.497C11.588,10.984,11.418,10.965,11.312,11.062z"/>
		<path class="tulip_05" d="M12.134,11.668C11.448,12.218,11,13.052,11,14h2.48c0.21,0,0.326-0.242,0.195-0.406L12.134,11.668z"/>
	</g>
	<path class="periwinkle_12" d="M9.94,6.562L5.818,2.44C5.537,2.158,5.155,2,4.757,2H3.051C2.714,2,2.473,2.324,2.573,2.646
		C2.705,3.07,2.866,3.608,2.983,4h0.774c0.796,0,1.559,0.316,2.121,0.879L9.04,8.04C9.316,7.525,9.611,7.025,9.94,6.562z"/>
	<g>
		<path class="grey_01" d="M20.697,11.062c0.739,0.674,1.232,1.612,1.303,2.672C22.009,13.877,21.887,14,21.743,14h-3.215
			c-0.21,0-0.326-0.242-0.195-0.406l1.998-2.497C20.421,10.984,20.591,10.965,20.697,11.062z"/>
		<path class="tulip_06" d="M19.874,11.668c0.686,0.55,1.134,1.385,1.134,2.332h-2.48c-0.21,0-0.326-0.242-0.195-0.406
			L19.874,11.668z"/>
	</g>
	<path class="cerulean_02" d="M9.94,6.562L6.189,2.811c0,0-0.122,1.054,0.048,2.427L9.04,8.04C9.316,7.525,9.611,7.025,9.94,6.562z"
		/>
	<path class="cerulean_03" d="M25.81,2.811L22.06,6.562c0.33,0.463,0.625,0.963,0.9,1.478l2.802-2.802
		C25.932,3.864,25.81,2.811,25.81,2.811z"/>
	<path class="periwinkle_02" d="M16,3.401c-0.159,0-0.317,0.074-0.416,0.223L14,6c0,0,1,1,2,1V3.401z"/>
	<path class="periwinkle_03" d="M18,6l-1.584-2.376C16.317,3.476,16.159,3.401,16,3.401V7C17,7,18,6,18,6z"/>
	<path class="periwinkle_11" d="M9.504,15.214l0,0.001c0.071,0.266-0.086,0.54-0.353,0.61c-1.692,0.443-7.265,1.87-7.374,1.46
		c-0.11-0.41,5.429-1.96,7.117-2.423C9.159,14.79,9.432,14.948,9.504,15.214z"/>
	<path class="periwinkle_11" d="M10.075,16.467l0.001,0.001c0.138,0.239,0.056,0.544-0.183,0.68
		c-1.52,0.866-6.533,3.686-6.745,3.319c-0.212-0.367,4.737-3.299,6.247-4.182C9.632,16.146,9.937,16.228,10.075,16.467z"/>
	<path class="periwinkle_12" d="M22.496,15.214l0,0.001c-0.071,0.266,0.086,0.54,0.353,0.61c1.692,0.443,7.265,1.87,7.374,1.46
		s-5.429-1.96-7.117-2.423C22.841,14.79,22.568,14.948,22.496,15.214z"/>
	<path class="periwinkle_12" d="M21.925,16.467l-0.001,0.001c-0.138,0.239-0.056,0.544,0.183,0.68
		c1.52,0.866,6.533,3.686,6.745,3.319s-4.737-3.299-6.247-4.182C22.368,16.146,22.063,16.228,21.925,16.467z"/>
</g>
</svg>
