<?xml version="1.0" encoding="utf-8"?>
<!-- Generator: Adobe Illustrator 20.1.0, SVG Export Plug-In . SVG Version: 6.00 Build 0)  -->
<!DOCTYPE svg PUBLIC "-//W3C//DTD SVG 1.1//EN" "http://www.w3.org/Graphics/SVG/1.1/DTD/svg11.dtd">
<svg version="1.1" id="icons" xmlns="http://www.w3.org/2000/svg" xmlns:xlink="http://www.w3.org/1999/xlink" x="0px" y="0px"
	 width="32px" height="32px" viewBox="0 0 32 32" style="enable-background:new 0 0 32 32;" xml:space="preserve">
<style type="text/css">
	.white{fill:#FFFFFF;}
	.grey_01{fill:#F7F7F7;}
	.aloe_02{fill:#84ED82;}
	.aloe_03{fill:#78DF7C;}
	.aloe_04{fill:#6CD275;}
	.aloe_05{fill:#60C46F;}
	.cerulean_01{fill:#5BD3D5;}
	.cerulean_02{fill:#56C7CD;}
	.cerulean_03{fill:#51BAC5;}
	.cerulean_04{fill:#4CAEBC;}
	.cerulean_05{fill:#47A1B4;}
	.cerulean_06{fill:#4295AC;}
	.tulip_02{fill:#FF6B8B;}
	.tulip_03{fill:#FF5F7E;}
	.tulip_04{fill:#F3586F;}
	.tulip_05{fill:#E85160;}
	.tulip_06{fill:#D84459;}
	.dirt_16{fill:#8D5B36;}
	.dirt_17{fill:#845331;}
	.st0{fill:#54B668;}
	.st1{fill:#7A63AD;}
	.st2{fill:#866EBA;}
	.st3{fill:#D2E6F3;}
	.st4{fill:#C1DDEE;}
	.st5{fill:#E0C193;}
	.st6{fill:#DBBA8C;}
	.st7{fill:#7FB8E0;}
	.st8{fill:#8EC0E0;}
	.st9{fill:#71B1E1;}
	.st10{fill:#9FC9E4;}
	.st11{fill:#FFEAA7;}
	.st12{fill:#FFE28A;}
	.st13{fill:#FF6B8B;}
	.st14{fill:#F4A984;}
	.st15{fill:#EA9C7A;}
	.st16{fill:#FEF1C6;}
	.st17{fill:#E55D53;}
	.st18{fill:#FFD400;}
	.st19{fill:#FF8F00;}
	.st20{fill:#FF4A00;}
	.st21{fill:#F7D684;}
	.st22{fill:#2B3332;}
	.st23{fill:#FAE09F;}
	.st24{fill:#373F3F;}
	.st25{fill:#FDEBBB;}
	.st26{fill:#FFF3D9;}
	.st27{fill:#FFD96C;}
	.st28{fill:#9ACC2E;}
	.st29{fill:#AADB3D;}
	.st30{fill:#A2D336;}
	.st31{fill:#93C427;}
	.st32{fill:#F79654;}
	.st33{fill:#FFD04D;}
	.st34{fill:#FCA15E;}
	.st35{fill:#A9E260;}
	.st36{fill:#97DB4A;}
	.st37{fill:#B1E346;}
	.st38{fill:#FCD8DE;}
	.st39{fill:#CDA073;}
	.st40{fill:#C09265;}
	.st41{fill:#A7794C;}
	.st42{fill:#96643B;}
	.st43{fill:#B38658;}
	.st44{fill:#9E6E43;}
	.st45{fill:#FBCFD6;}
	.st46{fill:#FAC4D1;}
	.st47{fill:#FAB8CD;}
	.st48{fill:#F9ADC8;}
	.st49{fill:#F8A1C4;}
	.st50{fill:#F297BE;}
	.st51{fill:#EA8BB4;}
	.st52{fill:#E8BA36;}
	.st53{fill:#E0B12E;}
	.st54{fill:#FFC172;}
	.st55{fill:#FFAD68;}
	.st56{fill:#FFB76D;}
	.st57{fill:#6E57A0;}
	.st58{fill:#675099;}
	.st59{fill:#604893;}
	.st60{fill:#CBEB6B;}
	.st61{fill:#4EAC5D;}
	.st62{fill:#BEE758;}
	.st63{fill:#48A353;}
	.st64{fill:#D9F07D;}
	.st65{fill:#E6F490;}
	.st66{fill:#4896C8;}
	.st67{fill:#4390BF;}
	.st68{fill:#5CA3D5;}
	.st69{fill:#529CCF;}
	.st70{fill:#F7C845;}
	.st71{fill:#ECCD50;}
	.st72{fill:#FF8D6E;}
	.st73{fill:#FF805D;}
	.st74{fill:#EDEEEE;}
	.st75{fill:#65A9DC;}
	.st76{fill:#8BC07A;}
	.st77{fill:#F0C13E;}
	.st78{fill:#9A3644;}
	.st79{fill:#8A323F;}
	.st80{fill:#945BA0;}
	.st81{fill:#A366AD;}
	.st82{fill:#B370B9;}
	.st83{fill:#C27BC6;}
	.st84{fill:#F6B392;}
	.st85{fill:#D285D2;}
	.st86{fill:#DBA728;}
	.st87{fill:#505957;}
	.st88{fill:#434C4B;}
	.st89{fill:#687271;}
	.st90{fill:#5C6664;}
	.st91{fill:#D64F45;}
	.st92{fill:#D1D4D4;}
	.st93{fill:#E3E5E5;}
	.st94{fill:#DADDDC;}
	.st95{fill:#845194;}
	.st96{fill:#46B080;}
	.st97{fill:#53BF8C;}
	.st98{fill:#6EDCA2;}
	.st99{fill:#7AEBAC;}
	.st100{fill:#60CD96;}
	.st101{fill:#E8803A;}
	.st102{fill:#0A6F8E;}
	.st103{fill:#0F769B;}
	.st104{fill:#EF8C48;}
	.st105{fill:#838C8A;}
	.st106{fill:#757F7E;}
	.st107{fill:#D1473D;}
	.st108{fill:#56C7CD;}
	.st109{fill:#9179C6;}
	.st110{fill:#906DBB;}
	.st111{fill:#A78EDD;}
	.st112{fill:#9D85D3;}
	.st113{fill:#E2EFF7;}
	.st114{fill:#B0D3EA;}
	.st115{fill:#F7BC48;}
	.st116{fill:#FFC550;}
	.st117{fill:#FFCF6E;}
	.st118{fill:#E85160;}
	.st119{fill:#D84459;}
	.st120{fill:#FDE2E6;}
	.st121{fill:#FFF5D8;}
	.st122{fill:#99533D;}
	.st123{fill:#914C39;}
	.st124{fill:#D4C9EF;}
	.st125{fill:#E3DBF4;}
	.st126{fill:#F1EDFA;}
	.st127{fill:#C6B7E9;}
	.st128{fill:#B8A5E4;}
	.st129{fill:#F0C877;}
	.st130{fill:#E8BA67;}
	.st131{fill:#DDAA5F;}
	.st132{fill:#D4994F;}
	.st133{fill:#C98B44;}
	.st134{fill:#BF7D3C;}
	.st135{fill:#909997;}
	.st136{fill:#724D31;}
	.st137{fill:#93C2CA;}
	.st138{fill:#99C7CE;}
	.st139{fill:#9FCCD3;}
	.st140{fill:#ACD7DD;}
	.st141{fill:#B9E2E7;}
	.st142{fill:#A5D1D8;}
	.st143{fill:#88B9C3;}
	.st144{fill:#7EB1BD;}
	.st145{fill:#60C46F;}
	.st146{fill:#C8CCCB;}
	.st147{fill:none;}
	.st148{fill:#4F4032;}
	.st149{fill:#604631;}
	.st150{fill:#F9BDA0;}
	.st151{fill:#E7685F;}
	.st152{fill:#C84054;}
	.st153{fill:#ABB2B1;}
	.st154{fill:#9DA5A4;}
	.st155{fill:#F74000;}
	.st156{fill:#F97C00;}
	.st157{fill:#F9C900;}
	.st158{fill:#EFD4A7;}
	.st159{fill:#EACEA1;}
	.st160{fill:#FCE8CC;}
	.st161{fill:#F5DEB9;}
	.st162{fill:#CFAB81;}
	.st163{fill:#D5B387;}
	.st164{fill:#3A4274;}
	.st165{fill:#707EB7;}
	.st166{fill:#424B7E;}
	.st167{fill:#7C8AC4;}
	.st168{fill:#FFD98D;}
	.st169{fill:#8694D1;}
	.st170{fill:#9AA6D6;}
	.st171{fill:#ABB4DD;}
	.st172{fill:#FDECEF;}
	.st173{fill:#137FA0;}
	.st174{fill:#EB6B48;}
	.st175{fill:#F57552;}
	.st176{fill:#515E91;}
	.st177{fill:#5C699E;}
	.st178{fill:#6673AA;}
	.st179{fill:#504484;}
	.st180{fill:#EBCEEB;}
	.st181{fill:#E5BDE5;}
	.st182{fill:#E0ABDF;}
	.st183{fill:#D799D6;}
	.st184{fill:#3B8FA3;}
	.st185{fill:#348B99;}
	.st186{fill:#F7F7F7;}
	.st187{fill:#3AA176;}
	.st188{fill:#EFEAEA;}
	.st189{fill:#FF9A7E;}
	.st190{fill:#FCD2BE;}
	.st191{fill:#FCDDCF;}
	.st192{fill:#C683C8;}
	.st193{fill:#A55F49;}
	.st194{fill:#FEF5F7;}
</style>
<g>
	<path class="tulip_05" d="M13.888,4.233c-1.328,1.067-2.917,2.556-3.621,4.047C10.109,8.614,10.347,9,10.717,9h1.519
		C12.668,6.933,13.575,4.898,13.888,4.233z"/>
	<path class="tulip_06" d="M21.733,8.28c-0.704-1.491-2.293-2.98-3.62-4.046c0.314,0.666,1.22,2.7,1.652,4.767h1.518
		C21.653,9,21.891,8.614,21.733,8.28z"/>
	<path class="tulip_05" d="M28.445,5.599c-3.854-3.068-7.697-3.333-10.072-3.091L18,4h0.001c0,0,0.207,0.415,0.486,1.073
		c2.886,0.557,4.648,2.671,5.264,3.546c0.149,0.212,0.437,0.271,0.66,0.14l3.975-2.337C28.687,6.244,28.719,5.817,28.445,5.599z"/>
	<path class="tulip_04" d="M14,4l-0.378-1.511C11.246,2.23,7.403,2.475,3.55,5.542C3.278,5.759,3.307,6.184,3.605,6.363l3.983,2.39
		c0.223,0.134,0.513,0.075,0.664-0.138c0.618-0.877,2.379-2.986,5.262-3.542C13.793,4.415,14,4,14,4z"/>
	<path class="cerulean_05" d="M29.229,25.445c-0.728-6.188-5.457-11.149-11.603-12.174L16,13v17c2.22,0,4.274-0.557,6-1.441V31.5
		c0,0.276,0.224,0.5,0.5,0.5h6.938c0.299,0,0.532-0.261,0.497-0.558L29.229,25.445z"/>
	<path class="aloe_04" d="M7.737,15.707L7.255,15.25l-0.605,0.975c-0.033,0.053-0.085,0.092-0.146,0.109l-0.54,0.15
		c-0.12,0.033-0.246-0.027-0.296-0.141l-0.267-0.614l-0.507,0.994c-0.029,0.057-0.079,0.101-0.14,0.122L4.035,17.1
		c-0.135,0.048-0.282-0.027-0.323-0.165l-0.123-0.415l-0.63,0.969c-0.03,0.046-0.074,0.081-0.126,0.099
		C2.581,17.676,1.77,17.98,1.068,18.5c-0.844,0.625-1.188,0.182-1.031-0.409s3.498-4.37,8.561-4.684l1.538-0.072L9.462,15.23
		l-1.467,0.53C7.905,15.792,7.806,15.771,7.737,15.707z"/>
	<path class="aloe_05" d="M24.263,15.706l0.482-0.456l0.605,0.975c0.033,0.053,0.085,0.092,0.146,0.109l0.54,0.15
		c0.12,0.033,0.246-0.027,0.296-0.141l0.267-0.614l0.507,0.994c0.029,0.057,0.079,0.101,0.14,0.122l0.72,0.254
		c0.135,0.048,0.282-0.027,0.323-0.165l0.123-0.415l0.63,0.969c0.03,0.046,0.074,0.081,0.126,0.099
		c0.252,0.087,1.063,0.391,1.765,0.911c0.844,0.625,1.188,0.182,1.031-0.409s-3.498-4.37-8.561-4.684l-1.538-0.072l0.675,1.895
		l1.467,0.53C24.095,15.792,24.194,15.771,24.263,15.706z"/>
	<path class="cerulean_04" d="M16,13l-1.626,0.271C8.228,14.295,3.499,19.257,2.771,25.445l-0.706,5.997
		C2.031,31.739,2.263,32,2.562,32H9.5c0.276,0,0.5-0.224,0.5-0.5v-2.889C11.725,29.473,13.782,30,16,30V13z"/>
	<path class="cerulean_01" d="M16,13c-6.075,0-11,3.917-11,8c0,0.921,0.262,1.831,0.72,2.692C7.292,26.648,11.295,29,16,29V13z"/>
	<path class="cerulean_02" d="M26.245,23.692C26.726,22.821,27,21.907,27,21c0-3.917-4.925-8-11-8v16
		C20.669,29,24.648,26.587,26.245,23.692z"/>
	<path class="cerulean_02" d="M16,24.648c-0.363,0.001-0.725-0.046-1.078-0.142c-2.137-0.579-6.621-0.758-9.202-0.814
		C7.292,26.648,11.295,29,16,29V24.648z"/>
	<path class="cerulean_03" d="M16,24.648V29c4.669,0,8.648-2.413,10.245-5.308c-2.593,0.057-7.06,0.237-9.177,0.812
		C16.718,24.6,16.359,24.647,16,24.648z"/>
	<path class="tulip_05" d="M16.001,24.648C16,24.648,16,24.648,16.001,24.648c-0.363,0.001-0.726-0.046-1.079-0.142
		c-1.271-0.344-3.373-0.545-5.41-0.665c1.177,1.301,3.261,2.873,6.489,2.873c0,0,0,0,0.001,0V24.648z"/>
	<path class="tulip_06" d="M16.001,26.714c3.229,0,5.313-1.573,6.489-2.874c-2.046,0.119-4.155,0.32-5.422,0.665
		c-0.349,0.095-0.708,0.142-1.067,0.143V26.714z"/>
	<path class="white" d="M13.589,26.385l-0.618-1.361c-0.103-0.226-0.415-0.216-0.504,0.016l-0.307,0.803
		C12.594,26.057,13.07,26.24,13.589,26.385z"/>
	<path class="white" d="M11.849,24.949l0.356-0.891c-0.417-0.045-0.846-0.085-1.286-0.12l0.424,1.015
		C11.439,25.185,11.755,25.182,11.849,24.949z"/>
	<path class="grey_01" d="M20.658,24.954l0.425-1.018c-0.44,0.035-0.871,0.075-1.289,0.119l0.357,0.894
		C20.245,25.183,20.561,25.185,20.658,24.954z"/>
	<path class="grey_01" d="M19.841,25.843l-0.307-0.803c-0.089-0.232-0.402-0.242-0.504-0.016l-0.618,1.361
		C18.93,26.24,19.406,26.057,19.841,25.843z"/>
	<g>
		<circle class="cerulean_02" cx="10" cy="20" r="2"/>
		<path class="white" d="M11.753,20.964c-0.402,0.73-1.247,1.182-2.173,0.993c-0.944-0.192-1.642-1.109-1.576-2.071
			c0.1-1.438,2.122-0.749,3.251-0.249C11.761,19.862,12.02,20.479,11.753,20.964z"/>
		<path class="tulip_05" d="M11,20c0-0.206-0.077-0.387-0.184-0.546c-0.385-0.152-0.814-0.287-1.223-0.364
			C9.245,19.247,9,19.594,9,20c0,0.552,0.448,1,1,1S11,20.552,11,20z"/>
	</g>
	<g>
		<circle class="cerulean_03" cx="22" cy="20" r="2"/>
		<path class="grey_01" d="M20.247,20.964c0.402,0.73,1.247,1.182,2.173,0.993c0.944-0.192,1.642-1.109,1.576-2.071
			c-0.1-1.438-2.122-0.749-3.251-0.249C20.239,19.862,19.979,20.479,20.247,20.964z"/>
		<path class="tulip_06" d="M20.999,20c0-0.206,0.077-0.387,0.184-0.546c0.385-0.152,0.814-0.287,1.223-0.364
			c0.348,0.156,0.593,0.503,0.593,0.909c0,0.552-0.448,1-1,1S20.999,20.552,20.999,20z"/>
	</g>
	<path class="st188" d="M24,31c-0.552,0-1,0.448-1,1h2C25,31.448,24.552,31,24,31z"/>
	<path class="st188" d="M26,31c-0.552,0-1,0.448-1,1h2C27,31.448,26.552,31,26,31z"/>
	<path class="st188" d="M28,31c-0.552,0-1,0.448-1,1h2C29,31.448,28.552,31,28,31z"/>
	<path class="grey_01" d="M8,31c-0.552,0-1,0.448-1,1h2C9,31.448,8.552,31,8,31z"/>
	<path class="grey_01" d="M6,31c-0.552,0-1,0.448-1,1h2C7,31.448,6.552,31,6,31z"/>
	<path class="grey_01" d="M4,31c-0.552,0-1,0.448-1,1h2C5,31.448,4.552,31,4,31z"/>
	<path class="dirt_16" d="M16.001,11V0.104c-0.064,0-0.128,0.024-0.177,0.073L15,1l-1.514-0.757
		c-0.191-0.096-0.406,0.077-0.354,0.284L14,4c0,0-2,4-2,7H16.001z"/>
	<path class="dirt_17" d="M18.514,0.243L17,1l-0.823-0.823c-0.049-0.049-0.112-0.073-0.176-0.073V11h4c0-3-2-7-2-7H18l0.868-3.473
		C18.92,0.32,18.705,0.148,18.514,0.243z"/>
	<path class="cerulean_05" d="M10,28.611V31h1.5c0.276,0,0.5-0.224,0.5-0.5v-1.115C11.3,29.17,10.622,28.922,10,28.611z"/>
	<path class="cerulean_06" d="M22,28.559c-0.622,0.319-1.3,0.576-2,0.799V30.5c0,0.276,0.224,0.5,0.5,0.5H22V28.559z"/>
	<path class="tulip_02" d="M16,3c0,0-1.182-2-4.727-2C8.735,1,6.616,2.025,5.617,2.607c-0.306,0.178-0.33,0.612-0.049,0.827
		L8.7,5.831c0.171,0.131,0.409,0.14,0.585,0.015C12.208,3.778,16,5,16,5V3z"/>
	<path class="tulip_03" d="M16,3c0,0,1.182-2,4.727-2c2.538,0,4.657,1.025,5.656,1.607c0.306,0.178,0.33,0.612,0.049,0.827
		L23.3,5.831c-0.171,0.131-0.409,0.14-0.585,0.015C19.792,3.778,16,5,16,5V3z"/>
	<path class="aloe_02" d="M7.18,12.789c0.185,0.221,0.505,0.594,0.924,1.049c0.066,0.072,0.169,0.099,0.262,0.069l1.77-0.573
		l-0.62,1.742c-0.033,0.093-0.01,0.197,0.062,0.265c0.193,0.183,0.394,0.367,0.6,0.551c0.079,0.071,0.195,0.084,0.288,0.033
		l1.735-0.951l-0.489,1.983c-0.024,0.098,0.013,0.203,0.095,0.263c0.299,0.219,0.602,0.427,0.909,0.618
		c0.097,0.061,0.224,0.046,0.306-0.034l1.42-1.377l0.031,2.104c0.002,0.107,0.071,0.203,0.173,0.235C15.107,18.916,15.562,19,16,19
		v-9c0,0-4.936,0-8.763,2.418C7.109,12.498,7.083,12.674,7.18,12.789z"/>
	<path class="aloe_03" d="M24.82,12.789c-0.201,0.239-0.561,0.658-1.033,1.168l-1.923-0.622l0.62,1.742
		c0.033,0.093,0.01,0.197-0.062,0.265c-0.193,0.183-0.394,0.367-0.6,0.551c-0.079,0.071-0.195,0.084-0.288,0.033L19.8,14.975
		l0.489,1.983c0.024,0.098-0.013,0.203-0.095,0.263c-0.299,0.219-0.602,0.427-0.909,0.618c-0.097,0.061-0.224,0.046-0.306-0.034
		l-1.42-1.377l-0.031,2.104c-0.002,0.107-0.071,0.203-0.173,0.235C16.893,18.916,16.439,19,16.001,19v-9c0,0,4.936,0,8.763,2.418
		C24.891,12.498,24.917,12.674,24.82,12.789z"/>
</g>
</svg>
