<?xml version="1.0" encoding="utf-8"?>
<!-- Generator: Adobe Illustrator 20.1.0, SVG Export Plug-In . SVG Version: 6.00 Build 0)  -->
<!DOCTYPE svg PUBLIC "-//W3C//DTD SVG 1.1//EN" "http://www.w3.org/Graphics/SVG/1.1/DTD/svg11.dtd">
<svg version="1.1" id="icons" xmlns="http://www.w3.org/2000/svg" xmlns:xlink="http://www.w3.org/1999/xlink" x="0px" y="0px"
	 width="32px" height="32px" viewBox="0 0 32 32" style="enable-background:new 0 0 32 32;" xml:space="preserve">
<style type="text/css">
	.white{fill:#FFFFFF;}
	.grey_01{fill:#F7F7F7;}
	.cerulean_04{fill:#4CAEBC;}
	.cerulean_05{fill:#47A1B4;}
	.cerulean_06{fill:#4295AC;}
	.grape_05{fill:#D285D2;}
	.grape_06{fill:#C27BC6;}
	.grape_07{fill:#B370B9;}
	.grape_08{fill:#A366AD;}
	.grape_09{fill:#945BA0;}
	.salmon_05{fill:#F6B392;}
	.salmon_06{fill:#F4A984;}
	.st0{fill:#78DF7C;}
	.st1{fill:#54B668;}
	.st2{fill:#7A63AD;}
	.st3{fill:#866EBA;}
	.st4{fill:#D2E6F3;}
	.st5{fill:#C1DDEE;}
	.st6{fill:#E0C193;}
	.st7{fill:#DBBA8C;}
	.st8{fill:#7FB8E0;}
	.st9{fill:#8EC0E0;}
	.st10{fill:#71B1E1;}
	.st11{fill:#9FC9E4;}
	.st12{fill:#FFEAA7;}
	.st13{fill:#FFE28A;}
	.st14{fill:#FF6B8B;}
	.st15{fill:#EA9C7A;}
	.st16{fill:#FEF1C6;}
	.st17{fill:#E85160;}
	.st18{fill:#D84459;}
	.st19{fill:#E55D53;}
	.st20{fill:#FFD400;}
	.st21{fill:#FF8F00;}
	.st22{fill:#FF4A00;}
	.st23{fill:#F7D684;}
	.st24{fill:#2B3332;}
	.st25{fill:#FAE09F;}
	.st26{fill:#373F3F;}
	.st27{fill:#FDEBBB;}
	.st28{fill:#FFF3D9;}
	.st29{fill:#FFD96C;}
	.st30{fill:#9ACC2E;}
	.st31{fill:#AADB3D;}
	.st32{fill:#A2D336;}
	.st33{fill:#93C427;}
	.st34{fill:#F79654;}
	.st35{fill:#FFD04D;}
	.st36{fill:#FCA15E;}
	.st37{fill:#A9E260;}
	.st38{fill:#97DB4A;}
	.st39{fill:#B1E346;}
	.st40{fill:#FCD8DE;}
	.st41{fill:#CDA073;}
	.st42{fill:#C09265;}
	.st43{fill:#A7794C;}
	.st44{fill:#96643B;}
	.st45{fill:#845331;}
	.st46{fill:#B38658;}
	.st47{fill:#9E6E43;}
	.st48{fill:#8D5B36;}
	.st49{fill:#FBCFD6;}
	.st50{fill:#FAC4D1;}
	.st51{fill:#FAB8CD;}
	.st52{fill:#F9ADC8;}
	.st53{fill:#F8A1C4;}
	.st54{fill:#F297BE;}
	.st55{fill:#EA8BB4;}
	.st56{fill:#E8BA36;}
	.st57{fill:#E0B12E;}
	.st58{fill:#FFC172;}
	.st59{fill:#FFAD68;}
	.st60{fill:#FFB76D;}
	.st61{fill:#6E57A0;}
	.st62{fill:#675099;}
	.st63{fill:#F3586F;}
	.st64{fill:#604893;}
	.st65{fill:#CBEB6B;}
	.st66{fill:#4EAC5D;}
	.st67{fill:#BEE758;}
	.st68{fill:#6CD275;}
	.st69{fill:#48A353;}
	.st70{fill:#60C46F;}
	.st71{fill:#D9F07D;}
	.st72{fill:#E6F490;}
	.st73{fill:#4896C8;}
	.st74{fill:#4390BF;}
	.st75{fill:#5CA3D5;}
	.st76{fill:#529CCF;}
	.st77{fill:#F7C845;}
	.st78{fill:#ECCD50;}
	.st79{fill:#FF8D6E;}
	.st80{fill:#FF805D;}
	.st81{fill:#EDEEEE;}
	.st82{fill:#65A9DC;}
	.st83{fill:#8BC07A;}
	.st84{fill:#F0C13E;}
	.st85{fill:#9A3644;}
	.st86{fill:#8A323F;}
	.st87{fill:#DBA728;}
	.st88{fill:#505957;}
	.st89{fill:#56C7CD;}
	.st90{fill:#434C4B;}
	.st91{fill:#687271;}
	.st92{fill:#5C6664;}
	.st93{fill:#51BAC5;}
	.st94{fill:#D64F45;}
	.st95{fill:#D1D4D4;}
	.st96{fill:#E3E5E5;}
	.st97{fill:#DADDDC;}
	.st98{fill:#845194;}
	.st99{fill:#5BD3D5;}
	.st100{fill:#46B080;}
	.st101{fill:#53BF8C;}
	.st102{fill:#6EDCA2;}
	.st103{fill:#7AEBAC;}
	.st104{fill:#60CD96;}
	.st105{fill:#E8803A;}
	.st106{fill:#0A6F8E;}
	.st107{fill:#0F769B;}
	.st108{fill:#EF8C48;}
	.st109{fill:#838C8A;}
	.st110{fill:#757F7E;}
	.st111{fill:#D1473D;}
	.st112{fill:#9179C6;}
	.st113{fill:#906DBB;}
	.st114{fill:#A78EDD;}
	.st115{fill:#9D85D3;}
	.st116{fill:#E2EFF7;}
	.st117{fill:#B0D3EA;}
	.st118{fill:#F7BC48;}
	.st119{fill:#FFC550;}
	.st120{fill:#FFCF6E;}
	.st121{fill:#FDE2E6;}
	.st122{fill:#FFF5D8;}
	.st123{fill:#99533D;}
	.st124{fill:#914C39;}
	.st125{fill:#D4C9EF;}
	.st126{fill:#E3DBF4;}
	.st127{fill:#F1EDFA;}
	.st128{fill:#C6B7E9;}
	.st129{fill:#B8A5E4;}
	.st130{fill:#F0C877;}
	.st131{fill:#E8BA67;}
	.st132{fill:#DDAA5F;}
	.st133{fill:#D4994F;}
	.st134{fill:#C98B44;}
	.st135{fill:#BF7D3C;}
	.st136{fill:#909997;}
	.st137{fill:#724D31;}
	.st138{fill:#93C2CA;}
	.st139{fill:#99C7CE;}
	.st140{fill:#9FCCD3;}
	.st141{fill:#ACD7DD;}
	.st142{fill:#B9E2E7;}
	.st143{fill:#A5D1D8;}
	.st144{fill:#88B9C3;}
	.st145{fill:#7EB1BD;}
	.st146{fill:#C8CCCB;}
	.st147{fill:none;}
	.st148{fill:#4F4032;}
	.st149{fill:#604631;}
	.st150{fill:#F9BDA0;}
	.st151{fill:#E7685F;}
	.st152{fill:#C84054;}
	.st153{fill:#ABB2B1;}
	.st154{fill:#9DA5A4;}
	.st155{fill:#F74000;}
	.st156{fill:#F97C00;}
	.st157{fill:#F9C900;}
	.st158{fill:#EFD4A7;}
	.st159{fill:#EACEA1;}
	.st160{fill:#FCE8CC;}
	.st161{fill:#F5DEB9;}
	.st162{fill:#CFAB81;}
	.st163{fill:#D5B387;}
	.st164{fill:#3A4274;}
	.st165{fill:#707EB7;}
	.st166{fill:#424B7E;}
	.st167{fill:#7C8AC4;}
	.st168{fill:#FFD98D;}
	.st169{fill:#8694D1;}
	.st170{fill:#9AA6D6;}
	.st171{fill:#ABB4DD;}
	.st172{fill:#FDECEF;}
	.st173{fill:#137FA0;}
	.st174{fill:#EB6B48;}
	.st175{fill:#F57552;}
	.st176{fill:#515E91;}
	.st177{fill:#5C699E;}
	.st178{fill:#6673AA;}
	.st179{fill:#504484;}
	.st180{fill:#FF5F7E;}
	.st181{fill:#EBCEEB;}
	.st182{fill:#E5BDE5;}
	.st183{fill:#E0ABDF;}
	.st184{fill:#D799D6;}
	.st185{fill:#3B8FA3;}
	.st186{fill:#348B99;}
	.st187{fill:#F7F7F7;}
	.st188{fill:#3AA176;}
	.st189{fill:#84ED82;}
	.st190{fill:#EFEAEA;}
	.st191{fill:#FF9A7E;}
	.st192{fill:#FCD2BE;}
	.st193{fill:#FCDDCF;}
	.st194{fill:#C683C8;}
	.st195{fill:#A55F49;}
	.st196{fill:#FEF5F7;}
</style>
<g>
	<path class="grape_09" d="M25.822,28.188c0.729-0.801,1.164-1.862,1.164-3.188c0-3.314-2.686-6-6-6s0,11,0,11h5.412
		c0.336,0,0.589-0.329,0.48-0.646C26.701,28.837,26.315,28.416,25.822,28.188z"/>
	<path class="grape_08" d="M11,19c-3.314,0-6,2.686-6,6c0,1.326,0.436,2.387,1.164,3.188c-0.493,0.228-0.879,0.648-1.057,1.166
		C4.998,29.671,5.252,30,5.588,30H11C11,30,14.314,19,11,19z"/>
	<path class="grape_08" d="M20.986,21c0,0,5.823,0.972,4.08,10.582C25.022,31.82,24.81,32,24.568,32h-3.164
		c-0.235,0-0.434-0.16-0.487-0.388c-0.211-0.926-1.022-3.214-3.931-3.612L20.986,21z"/>
	<path class="grape_07" d="M10.977,21c0,0-5.823,0.972-4.08,10.582C6.941,31.82,7.153,32,7.395,32h3.164
		c0.235,0,0.434-0.16,0.487-0.388c0.211-0.926,1.022-3.214,3.931-3.612L10.977,21z"/>
	<path class="grape_05" d="M15.492,6.212l-1.377,8.949c-0.768,0.136-1.474,0.358-2.111,0.661c-0.101-2.602-1.121-9.091-8.225-15.166
		C3.46,0.383,2.959,0.61,2.954,1.031C2.916,4.348,3.311,14.715,9.556,17.793C8.54,19.122,7.986,20.883,7.986,23c0,3.312,6.188,7,8,7
		V5.788C15.761,5.788,15.535,5.93,15.492,6.212z"/>
	<path class="cerulean_04" d="M9.967,16.892C5.091,14.464,4.131,6.864,3.979,2.758C3.97,2.533,4.242,2.415,4.404,2.571
		c6.217,5.99,6.641,11.999,6.614,13.795L9.967,16.892z"/>
	<path class="grape_06" d="M28.221,0.656c-7.115,6.085-8.127,12.584-8.226,15.178c-0.644-0.31-1.36-0.535-2.138-0.672L16.48,6.212
		c-0.043-0.283-0.269-0.424-0.494-0.424V30c1.812,0,8-3.688,8-7c0-2.112-0.552-3.869-1.562-5.197
		c6.264-3.066,6.66-13.451,6.622-16.773C29.041,0.61,28.54,0.383,28.221,0.656z"/>
	<path class="cerulean_05" d="M20.982,16.366c-0.027-1.791,0.394-7.801,6.612-13.792c0.162-0.157,0.434-0.039,0.425,0.187
		c-0.156,4.107-1.12,11.706-5.986,14.131L20.982,16.366z"/>
	<path class="salmon_05" d="M15.986,26l-1.465,0.488c-0.705,0.235-0.917,1.13-0.391,1.656l0.15,0.15
		C14.732,28.746,15.345,29,15.984,29h0.002V26z"/>
	<path class="salmon_06" d="M15.988,29c0.639,0,1.252-0.254,1.704-0.706l0.15-0.15c0.526-0.526,0.314-1.421-0.391-1.656L15.986,26v3
		H15.988z"/>
	<path class="white" d="M15.986,26l-1.5,0.5l0.378,1.156C14.932,27.861,15.123,28,15.34,28h0.646V26z"/>
	<path class="grey_01" d="M15.986,26l1.5,0.5l-0.378,1.156C17.041,27.861,16.849,28,16.633,28h-0.646V26z"/>
	<path class="cerulean_05" d="M10.012,16.869l1.006-0.503c0.027-1.796-0.397-7.805-6.613-13.794C4.243,2.416,3.971,2.534,3.98,2.759
		c0.018,0.454,0.046,0.951,0.086,1.476C9.201,9.537,9.946,14.725,10.012,16.869z"/>
	<path class="cerulean_06" d="M27.931,4.238C27.972,3.714,28,3.216,28.018,2.761c0.009-0.226-0.263-0.344-0.426-0.187
		c-6.217,5.991-6.638,12.001-6.611,13.791l1.006,0.503C22.054,14.728,22.797,9.541,27.931,4.238z"/>
	<path class="white" d="M12.716,24.46l-2.036-4.071c-0.089-0.178-0.341-0.188-0.44-0.014c-0.343,0.602-0.867,1.873-0.339,3.402
		c0.049,0.143,0.166,0.251,0.309,0.299c0.571,0.19,2.033,0.678,2.033,0.678C12.626,24.88,12.816,24.659,12.716,24.46z"/>
	<path class="st17" d="M11.208,21.443c-0.301,0.548-0.698,1.564-0.44,2.817l1.646,0.549c0.211,0.07,0.402-0.15,0.303-0.349
		L11.208,21.443z"/>
	<path class="grey_01" d="M19.256,24.46l2.036-4.071c0.089-0.178,0.341-0.188,0.44-0.014c0.343,0.602,0.867,1.873,0.339,3.402
		c-0.049,0.143-0.166,0.251-0.309,0.299c-0.571,0.19-2.033,0.678-2.033,0.678C19.346,24.88,19.156,24.659,19.256,24.46z"/>
	<path class="st18" d="M20.764,21.443c0.301,0.548,0.698,1.564,0.44,2.817l-1.646,0.549c-0.211,0.07-0.402-0.15-0.303-0.349
		L20.764,21.443z"/>
	<path class="grape_07" d="M15.986,20.5l-1.379-0.345c-0.316-0.079-0.621,0.16-0.621,0.485v0.124c0,0.758,0.428,1.45,1.106,1.789
		l0.671,0.335c0.07,0.035,0.147,0.053,0.224,0.053V20.5z"/>
	<path class="grape_08" d="M17.365,20.155L15.986,20.5l0,0v2.441c0.077,0,0.153-0.018,0.224-0.053l0.671-0.335
		c0.678-0.339,1.106-1.031,1.106-1.789V20.64C17.986,20.315,17.68,20.076,17.365,20.155z"/>
</g>
</svg>
