<?xml version="1.0" encoding="utf-8"?>
<!-- Generator: Adobe Illustrator 20.1.0, SVG Export Plug-In . SVG Version: 6.00 Build 0)  -->
<!DOCTYPE svg PUBLIC "-//W3C//DTD SVG 1.1//EN" "http://www.w3.org/Graphics/SVG/1.1/DTD/svg11.dtd">
<svg version="1.1" id="icons" xmlns="http://www.w3.org/2000/svg" xmlns:xlink="http://www.w3.org/1999/xlink" x="0px" y="0px"
	 width="32px" height="32px" viewBox="0 0 32 32" style="enable-background:new 0 0 32 32;" xml:space="preserve">
<style type="text/css">
	.white{fill:#FFFFFF;}
	.grey_01{fill:#F7F7F7;}
	.grey_16{fill:#373F3F;}
	.grey_17{fill:#2B3332;}
	.cerulean_04{fill:#4CAEBC;}
	.cerulean_05{fill:#47A1B4;}
	.cerulean_06{fill:#4295AC;}
	.grape_05{fill:#D285D2;}
	.grape_06{fill:#C27BC6;}
	.grape_07{fill:#B370B9;}
	.grape_08{fill:#A366AD;}
	.grape_09{fill:#945BA0;}
	.grape_10{fill:#845194;}
	.st0{fill:#78DF7C;}
	.st1{fill:#54B668;}
	.st2{fill:#7A63AD;}
	.st3{fill:#866EBA;}
	.st4{fill:#D2E6F3;}
	.st5{fill:#C1DDEE;}
	.st6{fill:#E0C193;}
	.st7{fill:#DBBA8C;}
	.st8{fill:#7FB8E0;}
	.st9{fill:#8EC0E0;}
	.st10{fill:#71B1E1;}
	.st11{fill:#9FC9E4;}
	.st12{fill:#FFEAA7;}
	.st13{fill:#FFE28A;}
	.st14{fill:#FF6B8B;}
	.st15{fill:#F4A984;}
	.st16{fill:#EA9C7A;}
	.st17{fill:#FEF1C6;}
	.st18{fill:#E85160;}
	.st19{fill:#D84459;}
	.st20{fill:#E55D53;}
	.st21{fill:#FFD400;}
	.st22{fill:#FF8F00;}
	.st23{fill:#FF4A00;}
	.st24{fill:#F7D684;}
	.st25{fill:#FAE09F;}
	.st26{fill:#FDEBBB;}
	.st27{fill:#FFF3D9;}
	.st28{fill:#FFD96C;}
	.st29{fill:#9ACC2E;}
	.st30{fill:#AADB3D;}
	.st31{fill:#A2D336;}
	.st32{fill:#93C427;}
	.st33{fill:#F79654;}
	.st34{fill:#FFD04D;}
	.st35{fill:#FCA15E;}
	.st36{fill:#A9E260;}
	.st37{fill:#97DB4A;}
	.st38{fill:#B1E346;}
	.st39{fill:#FCD8DE;}
	.st40{fill:#CDA073;}
	.st41{fill:#C09265;}
	.st42{fill:#A7794C;}
	.st43{fill:#96643B;}
	.st44{fill:#845331;}
	.st45{fill:#B38658;}
	.st46{fill:#9E6E43;}
	.st47{fill:#8D5B36;}
	.st48{fill:#FBCFD6;}
	.st49{fill:#FAC4D1;}
	.st50{fill:#FAB8CD;}
	.st51{fill:#F9ADC8;}
	.st52{fill:#F8A1C4;}
	.st53{fill:#F297BE;}
	.st54{fill:#EA8BB4;}
	.st55{fill:#E8BA36;}
	.st56{fill:#E0B12E;}
	.st57{fill:#FFC172;}
	.st58{fill:#FFAD68;}
	.st59{fill:#FFB76D;}
	.st60{fill:#6E57A0;}
	.st61{fill:#675099;}
	.st62{fill:#F3586F;}
	.st63{fill:#604893;}
	.st64{fill:#CBEB6B;}
	.st65{fill:#4EAC5D;}
	.st66{fill:#BEE758;}
	.st67{fill:#6CD275;}
	.st68{fill:#48A353;}
	.st69{fill:#60C46F;}
	.st70{fill:#D9F07D;}
	.st71{fill:#E6F490;}
	.st72{fill:#4896C8;}
	.st73{fill:#4390BF;}
	.st74{fill:#5CA3D5;}
	.st75{fill:#529CCF;}
	.st76{fill:#F7C845;}
	.st77{fill:#ECCD50;}
	.st78{fill:#FF8D6E;}
	.st79{fill:#FF805D;}
	.st80{fill:#EDEEEE;}
	.st81{fill:#65A9DC;}
	.st82{fill:#8BC07A;}
	.st83{fill:#F0C13E;}
	.st84{fill:#9A3644;}
	.st85{fill:#8A323F;}
	.st86{fill:#F6B392;}
	.st87{fill:#DBA728;}
	.st88{fill:#505957;}
	.st89{fill:#56C7CD;}
	.st90{fill:#434C4B;}
	.st91{fill:#687271;}
	.st92{fill:#5C6664;}
	.st93{fill:#51BAC5;}
	.st94{fill:#D64F45;}
	.st95{fill:#D1D4D4;}
	.st96{fill:#E3E5E5;}
	.st97{fill:#DADDDC;}
	.st98{fill:#5BD3D5;}
	.st99{fill:#46B080;}
	.st100{fill:#53BF8C;}
	.st101{fill:#6EDCA2;}
	.st102{fill:#7AEBAC;}
	.st103{fill:#60CD96;}
	.st104{fill:#E8803A;}
	.st105{fill:#0A6F8E;}
	.st106{fill:#0F769B;}
	.st107{fill:#EF8C48;}
	.st108{fill:#838C8A;}
	.st109{fill:#757F7E;}
	.st110{fill:#D1473D;}
	.st111{fill:#9179C6;}
	.st112{fill:#906DBB;}
	.st113{fill:#A78EDD;}
	.st114{fill:#9D85D3;}
	.st115{fill:#E2EFF7;}
	.st116{fill:#B0D3EA;}
	.st117{fill:#F7BC48;}
	.st118{fill:#FFC550;}
	.st119{fill:#FFCF6E;}
	.st120{fill:#FDE2E6;}
	.st121{fill:#FFF5D8;}
	.st122{fill:#99533D;}
	.st123{fill:#914C39;}
	.st124{fill:#D4C9EF;}
	.st125{fill:#E3DBF4;}
	.st126{fill:#F1EDFA;}
	.st127{fill:#C6B7E9;}
	.st128{fill:#B8A5E4;}
	.st129{fill:#F0C877;}
	.st130{fill:#E8BA67;}
	.st131{fill:#DDAA5F;}
	.st132{fill:#D4994F;}
	.st133{fill:#C98B44;}
	.st134{fill:#BF7D3C;}
	.st135{fill:#909997;}
	.st136{fill:#724D31;}
	.st137{fill:#93C2CA;}
	.st138{fill:#99C7CE;}
	.st139{fill:#9FCCD3;}
	.st140{fill:#ACD7DD;}
	.st141{fill:#B9E2E7;}
	.st142{fill:#A5D1D8;}
	.st143{fill:#88B9C3;}
	.st144{fill:#7EB1BD;}
	.st145{fill:#C8CCCB;}
	.st146{fill:none;}
	.st147{fill:#4F4032;}
	.st148{fill:#604631;}
	.st149{fill:#F9BDA0;}
	.st150{fill:#E7685F;}
	.st151{fill:#C84054;}
	.st152{fill:#ABB2B1;}
	.st153{fill:#9DA5A4;}
	.st154{fill:#F74000;}
	.st155{fill:#F97C00;}
	.st156{fill:#F9C900;}
	.st157{fill:#EFD4A7;}
	.st158{fill:#EACEA1;}
	.st159{fill:#FCE8CC;}
	.st160{fill:#F5DEB9;}
	.st161{fill:#CFAB81;}
	.st162{fill:#D5B387;}
	.st163{fill:#3A4274;}
	.st164{fill:#707EB7;}
	.st165{fill:#424B7E;}
	.st166{fill:#7C8AC4;}
	.st167{fill:#FFD98D;}
	.st168{fill:#8694D1;}
	.st169{fill:#9AA6D6;}
	.st170{fill:#ABB4DD;}
	.st171{fill:#FDECEF;}
	.st172{fill:#137FA0;}
	.st173{fill:#EB6B48;}
	.st174{fill:#F57552;}
	.st175{fill:#515E91;}
	.st176{fill:#5C699E;}
	.st177{fill:#6673AA;}
	.st178{fill:#504484;}
	.st179{fill:#FF5F7E;}
	.st180{fill:#EBCEEB;}
	.st181{fill:#E5BDE5;}
	.st182{fill:#E0ABDF;}
	.st183{fill:#D799D6;}
	.st184{fill:#3B8FA3;}
	.st185{fill:#348B99;}
	.st186{fill:#F7F7F7;}
	.st187{fill:#3AA176;}
	.st188{fill:#84ED82;}
	.st189{fill:#EFEAEA;}
	.st190{fill:#FF9A7E;}
	.st191{fill:#FCD2BE;}
	.st192{fill:#FCDDCF;}
	.st193{fill:#C683C8;}
	.st194{fill:#A55F49;}
	.st195{fill:#FEF5F7;}
</style>
<g>
	<path class="grape_10" d="M25,25.082l0.918,6.429c0.043,0.301-0.191,0.571-0.495,0.571H19.41c-0.238,0-0.444-0.168-0.49-0.402
		L18,27.082L25,25.082z"/>
	<path class="grape_09" d="M7,25.082l-0.918,6.429c-0.043,0.301,0.191,0.571,0.495,0.571h6.014c0.238,0,0.444-0.168,0.49-0.402
		L14,27.082L7,25.082z"/>
	<path class="grape_09" d="M27,25.082l0.918,6.429c0.043,0.301-0.191,0.571-0.495,0.571H21.41c-0.238,0-0.444-0.168-0.49-0.402
		L20,27.082L27,25.082z"/>
	<path class="grape_08" d="M5,25.082l-0.918,6.429c-0.043,0.301,0.191,0.571,0.495,0.571h6.014c0.238,0,0.444-0.168,0.49-0.402
		L12,27.082L5,25.082z"/>
	<path class="grape_07" d="M16,10.082c-0.005,0-0.009,0-0.014,0v-6c-0.225,0-0.451,0.141-0.494,0.424l-0.867,5.636
		C9.342,10.564,6,13.481,6,19.082c0,0.583,0.037,1.137,0.108,1.662c0.14,1.028,0.023,2.075-0.441,3.004l-1.419,2.838
		c-0.133,0.266-0.006,0.588,0.272,0.692l7.022,2.633c0.255,0.095,0.539-0.03,0.64-0.282l0.736-1.839
		c0.95,0.194,1.98,0.294,3.083,0.294V10.082z"/>
	<path class="grape_08" d="M27.752,26.586l-1.419-2.838c-0.464-0.928-0.581-1.975-0.441-3.004C25.963,20.219,26,19.666,26,19.082
		c0-5.612-3.354-8.53-8.653-8.943L16.48,4.506c-0.043-0.283-0.269-0.424-0.494-0.424v10.212H16v13.788
		c1.103,0,2.132-0.099,3.083-0.294l0.736,1.839c0.101,0.252,0.385,0.378,0.64,0.282l7.022-2.633
		C27.758,27.173,27.884,26.851,27.752,26.586z"/>
	<path class="grape_07" d="M23.986,23.082c0-4.971-3.029-8-8-8v15C17.799,30.082,23.986,26.395,23.986,23.082z"/>
	<path class="grape_06" d="M7.986,23.082c0-4.971,3.029-8,8-8v15C14.174,30.082,7.986,26.395,7.986,23.082z"/>
	<path class="grey_01" d="M22.5,24.082c0,0,0,2.522-1.066,3.657C21.278,27.905,21,27.795,21,27.568v-3.485H22.5z"/>
	<path class="white" d="M9.5,24.082c0,0,0,2.522,1.066,3.657C10.722,27.905,11,27.795,11,27.568v-3.485H9.5z"/>
	<path class="grape_05" d="M16,11.163c-0.199,0-0.398,0.114-0.474,0.342l-1.236,3.708c-0.51,0.08-0.989,0.202-1.444,0.355
		c-0.76-3-3.448-11.551-10.15-15.367c-0.134-0.076-0.297-0.085-0.44-0.026L1.878,0.332C1.575,0.458,1.472,0.835,1.67,1.096
		c0.437,0.575,1.126,1.51,1.479,2.142c0,0-1.187-0.889-2.157-1.116c-0.13-0.03-0.266-0.01-0.38,0.059L0.305,2.367
		C0.121,2.479,0.029,2.695,0.077,2.905c0.47,2.042,3.141,12.36,9.626,14.782c-1.11,1.348-1.717,3.177-1.717,5.395v3l1.363-0.341
		c0.403-0.101,0.83-0.015,1.163,0.235l0.896,0.672c0.362,0.272,0.835,0.348,1.264,0.205l0.005-0.002
		c0.496-0.165,1.043-0.036,1.412,0.333l0.604,0.604c0.188,0.188,0.442,0.293,0.707,0.293h0.586L16,11.163z"/>
	<path class="grape_06" d="M31.695,2.367l-0.306-0.186c-0.114-0.069-0.25-0.09-0.38-0.059c-0.97,0.226-2.157,1.116-2.157,1.116
		c0.353-0.631,1.041-1.566,1.479-2.142c0.198-0.261,0.095-0.638-0.208-0.763l-0.378-0.156c-0.143-0.059-0.306-0.05-0.44,0.026
		C22.6,4.019,19.911,12.576,19.153,15.573c-0.458-0.156-0.942-0.278-1.457-0.359l-1.236-3.708c-0.076-0.228-0.275-0.342-0.474-0.342
		L16,28.082h0.586c0.265,0,0.52-0.105,0.707-0.293l0.604-0.604c0.37-0.37,0.916-0.499,1.412-0.333l0.005,0.002
		c0.43,0.143,0.902,0.067,1.264-0.205l0.896-0.672c0.332-0.249,0.76-0.336,1.163-0.235L24,26.082v-3
		c0-2.216-0.606-4.043-1.713-5.391c6.492-2.416,9.166-12.743,9.636-14.787C31.971,2.695,31.879,2.479,31.695,2.367z"/>
	<path class="cerulean_04" d="M11.898,15.953c-0.688-2.24-3.891-8.356-10.174-12.38C1.533,3.45,1.291,3.633,1.352,3.853
		c0.929,3.372,3.684,11.383,9.148,13.029C10.919,16.522,11.383,16.208,11.898,15.953z"/>
	<path class="cerulean_05" d="M11.898,15.953C11.21,13.713,8.008,7.598,1.725,3.574C1.533,3.451,1.291,3.633,1.352,3.853
		c0.116,0.42,0.261,0.911,0.432,1.45c5.331,3.822,8.197,9.042,9.008,11.34C11.134,16.383,11.501,16.15,11.898,15.953z"/>
	<path class="cerulean_05" d="M20.1,15.96c0.511,0.255,0.973,0.567,1.391,0.925c5.47-1.638,8.228-9.658,9.158-13.032
		c0.061-0.22-0.181-0.402-0.373-0.279C23.986,7.602,20.783,13.726,20.1,15.96z"/>
	<path class="cerulean_06" d="M20.1,15.96c0.397,0.198,0.764,0.43,1.105,0.69c0.807-2.294,3.673-7.521,9.011-11.348
		c0.172-0.538,0.316-1.03,0.432-1.45c0.061-0.22-0.181-0.402-0.373-0.279C23.986,7.602,20.783,13.726,20.1,15.96z"/>
	<path class="white" d="M12.716,24.542l-2.036-4.071c-0.089-0.178-0.341-0.188-0.44-0.014c-0.343,0.602-0.867,1.873-0.339,3.402
		c0.049,0.143,0.166,0.251,0.309,0.299c0.571,0.19,2.033,0.678,2.033,0.678C12.626,24.962,12.816,24.742,12.716,24.542z"/>
	<path class="grey_16" d="M11.208,21.525c-0.301,0.548-0.698,1.564-0.44,2.817l1.646,0.549c0.211,0.07,0.402-0.15,0.303-0.349
		L11.208,21.525z"/>
	<path class="grey_01" d="M19.256,24.542l2.036-4.071c0.089-0.178,0.341-0.188,0.44-0.014c0.343,0.602,0.867,1.873,0.339,3.402
		c-0.049,0.143-0.166,0.251-0.309,0.299c-0.463,0.154-1.536,0.512-2.204,0.735C19.346,24.962,19.156,24.742,19.256,24.542z"/>
	<path class="grey_17" d="M20.764,21.525c0.301,0.548,0.698,1.564,0.44,2.817l-1.646,0.549c-0.211,0.07-0.402-0.15-0.303-0.349
		L20.764,21.525z"/>
</g>
</svg>
