<?xml version="1.0" encoding="utf-8"?>
<!-- Generator: Adobe Illustrator 20.1.0, SVG Export Plug-In . SVG Version: 6.00 Build 0)  -->
<!DOCTYPE svg PUBLIC "-//W3C//DTD SVG 1.1//EN" "http://www.w3.org/Graphics/SVG/1.1/DTD/svg11.dtd">
<svg version="1.1" id="icons" xmlns="http://www.w3.org/2000/svg" xmlns:xlink="http://www.w3.org/1999/xlink" x="0px" y="0px"
	 width="32px" height="32px" viewBox="0 0 32 32" style="enable-background:new 0 0 32 32;" xml:space="preserve">
<style type="text/css">
	.white{fill:#FFFFFF;}
	.grey_01{fill:#F7F7F7;}
	.grey_16{fill:#373F3F;}
	.grey_17{fill:#2B3332;}
	.cerulean_04{fill:#4CAEBC;}
	.cerulean_05{fill:#47A1B4;}
	.cerulean_06{fill:#4295AC;}
	.cerulean_07{fill:#3B8FA3;}
	.cerulean_08{fill:#348B99;}
	.grape_01{fill:#EBCEEB;}
	.grape_02{fill:#E5BDE5;}
	.grape_03{fill:#E0ABDF;}
	.grape_04{fill:#D799D6;}
	.grape_05{fill:#D285D2;}
	.grape_06{fill:#C27BC6;}
	.grape_07{fill:#B370B9;}
	.grape_08{fill:#A366AD;}
	.grape_09{fill:#945BA0;}
	.st0{fill:#78DF7C;}
	.st1{fill:#54B668;}
	.st2{fill:#7A63AD;}
	.st3{fill:#866EBA;}
	.st4{fill:#D2E6F3;}
	.st5{fill:#C1DDEE;}
	.st6{fill:#E0C193;}
	.st7{fill:#DBBA8C;}
	.st8{fill:#7FB8E0;}
	.st9{fill:#8EC0E0;}
	.st10{fill:#71B1E1;}
	.st11{fill:#9FC9E4;}
	.st12{fill:#FFEAA7;}
	.st13{fill:#FFE28A;}
	.st14{fill:#FF6B8B;}
	.st15{fill:#F4A984;}
	.st16{fill:#EA9C7A;}
	.st17{fill:#FEF1C6;}
	.st18{fill:#E85160;}
	.st19{fill:#D84459;}
	.st20{fill:#E55D53;}
	.st21{fill:#FFD400;}
	.st22{fill:#FF8F00;}
	.st23{fill:#FF4A00;}
	.st24{fill:#F7D684;}
	.st25{fill:#FAE09F;}
	.st26{fill:#FDEBBB;}
	.st27{fill:#FFF3D9;}
	.st28{fill:#FFD96C;}
	.st29{fill:#9ACC2E;}
	.st30{fill:#AADB3D;}
	.st31{fill:#A2D336;}
	.st32{fill:#93C427;}
	.st33{fill:#F79654;}
	.st34{fill:#FFD04D;}
	.st35{fill:#FCA15E;}
	.st36{fill:#A9E260;}
	.st37{fill:#97DB4A;}
	.st38{fill:#B1E346;}
	.st39{fill:#FCD8DE;}
	.st40{fill:#CDA073;}
	.st41{fill:#C09265;}
	.st42{fill:#A7794C;}
	.st43{fill:#96643B;}
	.st44{fill:#845331;}
	.st45{fill:#B38658;}
	.st46{fill:#9E6E43;}
	.st47{fill:#8D5B36;}
	.st48{fill:#FBCFD6;}
	.st49{fill:#FAC4D1;}
	.st50{fill:#FAB8CD;}
	.st51{fill:#F9ADC8;}
	.st52{fill:#F8A1C4;}
	.st53{fill:#F297BE;}
	.st54{fill:#EA8BB4;}
	.st55{fill:#E8BA36;}
	.st56{fill:#E0B12E;}
	.st57{fill:#FFC172;}
	.st58{fill:#FFAD68;}
	.st59{fill:#FFB76D;}
	.st60{fill:#6E57A0;}
	.st61{fill:#675099;}
	.st62{fill:#F3586F;}
	.st63{fill:#604893;}
	.st64{fill:#CBEB6B;}
	.st65{fill:#4EAC5D;}
	.st66{fill:#BEE758;}
	.st67{fill:#6CD275;}
	.st68{fill:#48A353;}
	.st69{fill:#60C46F;}
	.st70{fill:#D9F07D;}
	.st71{fill:#E6F490;}
	.st72{fill:#4896C8;}
	.st73{fill:#4390BF;}
	.st74{fill:#5CA3D5;}
	.st75{fill:#529CCF;}
	.st76{fill:#F7C845;}
	.st77{fill:#ECCD50;}
	.st78{fill:#FF8D6E;}
	.st79{fill:#FF805D;}
	.st80{fill:#EDEEEE;}
	.st81{fill:#65A9DC;}
	.st82{fill:#8BC07A;}
	.st83{fill:#F0C13E;}
	.st84{fill:#9A3644;}
	.st85{fill:#8A323F;}
	.st86{fill:#F6B392;}
	.st87{fill:#DBA728;}
	.st88{fill:#505957;}
	.st89{fill:#56C7CD;}
	.st90{fill:#434C4B;}
	.st91{fill:#687271;}
	.st92{fill:#5C6664;}
	.st93{fill:#51BAC5;}
	.st94{fill:#D64F45;}
	.st95{fill:#D1D4D4;}
	.st96{fill:#E3E5E5;}
	.st97{fill:#DADDDC;}
	.st98{fill:#845194;}
	.st99{fill:#5BD3D5;}
	.st100{fill:#46B080;}
	.st101{fill:#53BF8C;}
	.st102{fill:#6EDCA2;}
	.st103{fill:#7AEBAC;}
	.st104{fill:#60CD96;}
	.st105{fill:#E8803A;}
	.st106{fill:#0A6F8E;}
	.st107{fill:#0F769B;}
	.st108{fill:#EF8C48;}
	.st109{fill:#838C8A;}
	.st110{fill:#757F7E;}
	.st111{fill:#D1473D;}
	.st112{fill:#9179C6;}
	.st113{fill:#906DBB;}
	.st114{fill:#A78EDD;}
	.st115{fill:#9D85D3;}
	.st116{fill:#E2EFF7;}
	.st117{fill:#B0D3EA;}
	.st118{fill:#F7BC48;}
	.st119{fill:#FFC550;}
	.st120{fill:#FFCF6E;}
	.st121{fill:#FDE2E6;}
	.st122{fill:#FFF5D8;}
	.st123{fill:#99533D;}
	.st124{fill:#914C39;}
	.st125{fill:#D4C9EF;}
	.st126{fill:#E3DBF4;}
	.st127{fill:#F1EDFA;}
	.st128{fill:#C6B7E9;}
	.st129{fill:#B8A5E4;}
	.st130{fill:#F0C877;}
	.st131{fill:#E8BA67;}
	.st132{fill:#DDAA5F;}
	.st133{fill:#D4994F;}
	.st134{fill:#C98B44;}
	.st135{fill:#BF7D3C;}
	.st136{fill:#909997;}
	.st137{fill:#724D31;}
	.st138{fill:#93C2CA;}
	.st139{fill:#99C7CE;}
	.st140{fill:#9FCCD3;}
	.st141{fill:#ACD7DD;}
	.st142{fill:#B9E2E7;}
	.st143{fill:#A5D1D8;}
	.st144{fill:#88B9C3;}
	.st145{fill:#7EB1BD;}
	.st146{fill:#C8CCCB;}
	.st147{fill:none;}
	.st148{fill:#4F4032;}
	.st149{fill:#604631;}
	.st150{fill:#F9BDA0;}
	.st151{fill:#E7685F;}
	.st152{fill:#C84054;}
	.st153{fill:#ABB2B1;}
	.st154{fill:#9DA5A4;}
	.st155{fill:#F74000;}
	.st156{fill:#F97C00;}
	.st157{fill:#F9C900;}
	.st158{fill:#EFD4A7;}
	.st159{fill:#EACEA1;}
	.st160{fill:#FCE8CC;}
	.st161{fill:#F5DEB9;}
	.st162{fill:#CFAB81;}
	.st163{fill:#D5B387;}
	.st164{fill:#3A4274;}
	.st165{fill:#707EB7;}
	.st166{fill:#424B7E;}
	.st167{fill:#7C8AC4;}
	.st168{fill:#FFD98D;}
	.st169{fill:#8694D1;}
	.st170{fill:#9AA6D6;}
	.st171{fill:#ABB4DD;}
	.st172{fill:#FDECEF;}
	.st173{fill:#137FA0;}
	.st174{fill:#EB6B48;}
	.st175{fill:#F57552;}
	.st176{fill:#515E91;}
	.st177{fill:#5C699E;}
	.st178{fill:#6673AA;}
	.st179{fill:#504484;}
	.st180{fill:#FF5F7E;}
	.st181{fill:#F7F7F7;}
	.st182{fill:#3AA176;}
	.st183{fill:#84ED82;}
	.st184{fill:#EFEAEA;}
	.st185{fill:#FF9A7E;}
	.st186{fill:#FCD2BE;}
	.st187{fill:#FCDDCF;}
	.st188{fill:#C683C8;}
	.st189{fill:#A55F49;}
	.st190{fill:#FEF5F7;}
</style>
<g>
	<polygon class="grape_09" points="23,23 24,27 18,31 18,28 	"/>
	<path class="grape_08" d="M24,27l-6,4v0.5c0,0.276,0.224,0.5,0.5,0.5h8.035C26.792,32,27,31.792,27,31.535v0
		c0-0.334-0.167-0.647-0.445-0.832L25.5,30l0.276-0.553c0.141-0.282,0.141-0.613,0-0.894l-0.5-1C25.107,27.214,24.761,27,24.382,27
		H24z"/>
	<polygon class="grape_08" points="9,23 8,27 14,31 14,28 	"/>
	<path class="grape_07" d="M8,27l6,4v0.5c0,0.276-0.224,0.5-0.5,0.5H5.465C5.208,32,5,31.792,5,31.535v0
		c0-0.334,0.167-0.647,0.445-0.832L6.5,30l-0.276-0.553c-0.141-0.282-0.141-0.613,0-0.894l0.5-1C6.893,27.214,7.239,27,7.618,27H8z"
		/>
	<g>
		<path class="grape_01" d="M16,12c-4.971,0-8,4.029-8,9c0,4.971,3.029,9,8,9V12z"/>
		<path class="grape_02" d="M24,21c0-4.971-3.029-9-8-9v18C20.971,30,24,25.971,24,21z"/>
		<path class="grape_02" d="M8.003,20.917C8.003,20.945,8,20.972,8,21c0,4.971,3.029,9,8,9V19c-4,0-4,2-7,2
			C8.638,21,8.309,20.968,8.003,20.917z"/>
		<path class="grape_03" d="M24,21c0-0.029-0.003-0.056-0.003-0.085C23.686,20.969,23.348,21,22.978,21
			c-2.994,0-3.001-1.991-6.978-1.999V30C20.971,30,24,25.971,24,21z"/>
		<path class="grape_03" d="M8.736,24.984C9.915,27.953,12.462,30,16,30v-8c-4,0-4,3-7,3C8.908,25,8.824,24.989,8.736,24.984z"/>
		<path class="grape_04" d="M23.264,24.982C23.169,24.989,23.077,25,22.978,25c-2.994,0-3.001-2.987-6.978-2.999V30
			C19.539,30,22.086,27.953,23.264,24.982z"/>
	</g>
	<path class="grape_08" d="M7,17l-1.188,3.906c-0.535,1.758,0.623,3.58,2.442,3.842l0.604,0.087C9.46,24.922,10,24.454,10,23.845V18
		L7,17z"/>
	<path class="grape_07" d="M11.379,14.345l-1.102-0.339c-1.735-0.533-3.542,0.584-3.84,2.374l-0.317,1.904
		c-0.058,0.345,0.248,0.641,0.591,0.572l3.928-0.786c0.215-0.043,0.377-0.221,0.399-0.439L11.379,14.345z"/>
	<path class="grape_09" d="M25,17l1.188,3.906c0.535,1.758-0.623,3.58-2.442,3.842l-0.604,0.087C22.54,24.922,22,24.454,22,23.845
		V18L25,17z"/>
	<path class="grape_08" d="M20.617,14.345l1.102-0.339c1.735-0.533,3.542,0.584,3.84,2.374l0.317,1.904
		c0.058,0.345-0.248,0.641-0.591,0.572l-3.928-0.786c-0.215-0.043-0.377-0.221-0.399-0.439L20.617,14.345z"/>
	<path class="grape_05" d="M15.526,0.423l-1.068,3.204c-1.061,0.183-1.983,0.566-2.758,1.121C11.037,3.314,9.476,1.05,6.02,0.182
		C5.636,0.085,5.295,0.45,5.42,0.825L5.645,1.5c0,0-1.186-0.36-2.768,0.143C2.486,1.767,2.406,2.289,2.741,2.527l0.576,0.41
		c0,0-0.817,0.039-1.653,0.545C1.33,3.684,1.358,4.179,1.706,4.353L2.221,4.61C1.985,5.282,1.913,6.071,2.145,7
		c0.749,2.997,4.867,3.187,6.884,3.094C9.011,10.356,9,10.624,9,10.9c0,4.639,5.25,5.6,7,5.6V5V3.5V0.081
		C15.801,0.081,15.602,0.195,15.526,0.423z M3.315,2.947l0.001-0.01l0.005,0.004C3.319,2.943,3.317,2.945,3.315,2.947z"/>
	<path class="grape_06" d="M30.337,3.482c-0.836-0.506-1.653-0.545-1.653-0.545l0.576-0.41c0.335-0.238,0.255-0.76-0.137-0.884
		C27.541,1.14,26.355,1.5,26.355,1.5l0.225-0.675c0.125-0.375-0.216-0.74-0.599-0.644c-3.456,0.868-5.017,3.132-5.68,4.566
		c-0.778-0.558-1.706-0.941-2.773-1.123L16.46,0.423c-0.076-0.228-0.275-0.342-0.474-0.342V5H16v11.5c1.75,0,7-0.961,7-5.6
		c0-0.276-0.011-0.544-0.029-0.806c2.018,0.093,6.135-0.097,6.884-3.094c0.232-0.929,0.16-1.718-0.076-2.39l0.515-0.257
		C30.642,4.179,30.67,3.684,30.337,3.482z M28.679,2.941l0.005-0.004l0.001,0.01C28.683,2.945,28.681,2.943,28.679,2.941z"/>
	<g>
		<g>
			<g>
				<path class="grey_01" d="M21.547,9.263c0.267,0.374,0.334,0.899,0.257,1.339C21.762,10.835,21.55,11,21.313,11l-1.508,0
					c-0.427,0-0.66-0.501-0.381-0.825c0.373-0.434,0.95-0.874,1.563-1.089C21.19,9.015,21.421,9.087,21.547,9.263z"/>
			</g>
			<g>
				<path class="grey_01" d="M21.547,9.263c0.267,0.374,0.334,0.899,0.257,1.339C21.762,10.835,21.55,11,21.313,11l-1.508,0
					c-0.427,0-0.66-0.501-0.381-0.825c0.373-0.434,0.95-0.874,1.563-1.089C21.19,9.015,21.421,9.087,21.547,9.263z"/>
			</g>
		</g>
		<path class="grey_17" d="M20.729,9.198c-0.509,0.233-0.975,0.603-1.295,0.969C19.15,10.492,19.376,11,19.808,11l0.738,0
			c0.238,0,0.45-0.166,0.491-0.4C21.118,10.134,21.038,9.574,20.729,9.198z"/>
	</g>
	<g>
		<g>
			<g>
				<path class="white" d="M10.453,9.263c-0.267,0.374-0.334,0.899-0.257,1.339C10.238,10.835,10.45,11,10.687,11l1.508,0
					c0.427,0,0.66-0.501,0.381-0.825c-0.373-0.434-0.95-0.874-1.563-1.089C10.81,9.015,10.579,9.087,10.453,9.263z"/>
			</g>
			<g>
				<path class="white" d="M10.453,9.263c-0.267,0.374-0.334,0.899-0.257,1.339C10.238,10.835,10.45,11,10.687,11l1.508,0
					c0.427,0,0.66-0.501,0.381-0.825c-0.373-0.434-0.95-0.874-1.563-1.089C10.81,9.015,10.579,9.087,10.453,9.263z"/>
			</g>
		</g>
		<path class="grey_16" d="M11.271,9.198c-0.308,0.376-0.389,0.936-0.308,1.403c0.041,0.234,0.253,0.4,0.491,0.4l0.738,0
			c0.432,0,0.658-0.508,0.373-0.834C12.245,9.8,11.779,9.431,11.271,9.198z"/>
	</g>
	<path class="grey_01" d="M21.5,13.876l-0.688-1.719c-0.092-0.231-0.428-0.2-0.477,0.044L20,13.876H21.5z"/>
	<path class="white" d="M10.486,13.876l0.688-1.719c0.092-0.231,0.428-0.2,0.477,0.044l0.335,1.675H10.486z"/>
	<path class="grape_06" d="M9.625,13.356C11.063,15.893,14.618,16.5,16,16.5V14c-0.701,0-1.791-0.38-3-0.602
		C11.908,13.197,9.625,13.356,9.625,13.356z"/>
	<path class="grape_07" d="M22.375,13.356c0,0-2.283-0.159-3.375,0.041C17.791,13.62,16.701,14,16,14v2.5
		C17.382,16.5,20.937,15.893,22.375,13.356z"/>
	<path class="cerulean_05" d="M26.039,2.949c-1.249-0.416-2.66-0.128-3.564,0.83c-0.719,0.762-1.138,1.548-1.372,2.114
		c0.604,0.923,1.38,2.291,1.742,3.692c0.253,0.015,0.534,0.027,0.863,0.027h0c1.714,0,4.666-0.306,5.178-2.354
		C29.651,4.191,26.187,2.998,26.039,2.949z"/>
	<path class="cerulean_06" d="M26.039,2.949c-1.249-0.417-2.66-0.128-3.564,0.83c-0.719,0.762-1.138,1.548-1.372,2.114
		c0.181,0.276,0.375,0.588,0.572,0.934c0.216-0.341,0.465-0.693,0.801-1.048c0.904-0.957,2.315-1.246,3.564-0.83
		c0.114,0.038,2.185,0.757,2.788,2.481c0.019-0.058,0.043-0.112,0.059-0.173C29.651,4.191,26.187,2.998,26.039,2.949z"/>
	<path class="cerulean_07" d="M25.875,2.906c-1.207-0.34-2.535-0.044-3.4,0.872c-0.727,0.77-1.139,1.552-1.37,2.117
		c0.386,0.591,0.841,1.361,1.216,2.21c0.124,0.003,0.251,0.007,0.387,0.007c1.263,0,4.248-0.193,4.693-1.975
		C27.815,4.476,26.748,3.449,25.875,2.906z"/>
	<path class="cerulean_04" d="M10.892,5.88c-0.236-0.566-0.652-1.345-1.366-2.102C8.622,2.821,7.21,2.532,5.961,2.949
		C5.813,2.998,2.349,4.191,3.115,7.257c0.512,2.048,3.464,2.354,5.178,2.354h0c0.322,0,0.599-0.012,0.848-0.027
		C9.505,8.177,10.287,6.803,10.892,5.88z"/>
	<path class="cerulean_08" d="M25.875,2.906c-1.207-0.34-2.535-0.044-3.4,0.872c-0.727,0.77-1.139,1.552-1.37,2.117
		c0.18,0.276,0.374,0.587,0.57,0.931c0.216-0.341,0.466-0.693,0.801-1.048c0.904-0.957,2.315-1.246,3.564-0.83
		c0.063,0.021,0.738,0.255,1.427,0.755C27.609,4.299,26.668,3.399,25.875,2.906z"/>
	<path class="cerulean_05" d="M10.319,6.814c0.197-0.346,0.392-0.659,0.573-0.935c-0.236-0.566-0.652-1.345-1.366-2.102
		C8.621,2.821,7.21,2.532,5.961,2.949C5.813,2.998,2.349,4.191,3.115,7.257C3.13,7.318,3.155,7.372,3.174,7.43
		c0.603-1.724,2.674-2.443,2.788-2.481c1.249-0.417,2.66-0.128,3.564,0.83C9.857,6.129,10.105,6.477,10.319,6.814z"/>
	<path class="cerulean_06" d="M9.666,8.105c0.377-0.855,0.836-1.631,1.225-2.223c-0.233-0.564-0.644-1.34-1.365-2.103
		c-0.865-0.916-2.193-1.213-3.4-0.872c-0.873,0.543-1.94,1.57-1.525,3.23c0.445,1.782,3.431,1.975,4.693,1.975
		C9.424,8.111,9.546,8.108,9.666,8.105z"/>
	<path class="cerulean_07" d="M10.319,6.815c0.196-0.345,0.391-0.657,0.572-0.933c-0.233-0.564-0.644-1.34-1.365-2.103
		c-0.865-0.916-2.193-1.213-3.4-0.872c-0.793,0.493-1.734,1.393-1.59,2.797c0.689-0.5,1.363-0.734,1.427-0.755
		c1.249-0.417,2.66-0.128,3.564,0.83C9.857,6.129,10.104,6.477,10.319,6.815z"/>
</g>
</svg>
