<?xml version="1.0" encoding="utf-8"?>
<!-- Generator: Adobe Illustrator 20.1.0, SVG Export Plug-In . SVG Version: 6.00 Build 0)  -->
<!DOCTYPE svg PUBLIC "-//W3C//DTD SVG 1.1//EN" "http://www.w3.org/Graphics/SVG/1.1/DTD/svg11.dtd">
<svg version="1.1" id="icons" xmlns="http://www.w3.org/2000/svg" xmlns:xlink="http://www.w3.org/1999/xlink" x="0px" y="0px"
	 width="32px" height="32px" viewBox="0 0 32 32" style="enable-background:new 0 0 32 32;" xml:space="preserve">
<style type="text/css">
	.white{fill:#FFFFFF;}
	.grey_01{fill:#F7F7F7;}
	.grey_16{fill:#373F3F;}
	.grey_17{fill:#2B3332;}
	.tangerine_03{fill:#FFAD68;}
	.tangerine_04{fill:#FCA15E;}
	.tangerine_05{fill:#F79654;}
	.tangerine_06{fill:#EF8C48;}
	.sand_02{fill:#FDEBBB;}
	.sand_03{fill:#FAE09F;}
	.dirt_11{fill:#C09265;}
	.dirt_12{fill:#B38658;}
	.dirt_13{fill:#A7794C;}
	.dirt_14{fill:#9E6E43;}
	.mud_01{fill:#A55F49;}
	.mud_02{fill:#99533D;}
	.mud_03{fill:#914C39;}
	.st0{fill:#78DF7C;}
	.st1{fill:#54B668;}
	.st2{fill:#7A63AD;}
	.st3{fill:#866EBA;}
	.st4{fill:#D2E6F3;}
	.st5{fill:#C1DDEE;}
	.st6{fill:#E0C193;}
	.st7{fill:#DBBA8C;}
	.st8{fill:#7FB8E0;}
	.st9{fill:#8EC0E0;}
	.st10{fill:#71B1E1;}
	.st11{fill:#9FC9E4;}
	.st12{fill:#FFEAA7;}
	.st13{fill:#FFE28A;}
	.st14{fill:#FF6B8B;}
	.st15{fill:#F4A984;}
	.st16{fill:#EA9C7A;}
	.st17{fill:#FEF1C6;}
	.st18{fill:#E85160;}
	.st19{fill:#D84459;}
	.st20{fill:#E55D53;}
	.st21{fill:#FFD400;}
	.st22{fill:#FF8F00;}
	.st23{fill:#FF4A00;}
	.st24{fill:#F7D684;}
	.st25{fill:#FFF3D9;}
	.st26{fill:#FFD96C;}
	.st27{fill:#9ACC2E;}
	.st28{fill:#AADB3D;}
	.st29{fill:#A2D336;}
	.st30{fill:#93C427;}
	.st31{fill:#FFD04D;}
	.st32{fill:#A9E260;}
	.st33{fill:#97DB4A;}
	.st34{fill:#B1E346;}
	.st35{fill:#FCD8DE;}
	.st36{fill:#CDA073;}
	.st37{fill:#96643B;}
	.st38{fill:#845331;}
	.st39{fill:#8D5B36;}
	.st40{fill:#FBCFD6;}
	.st41{fill:#FAC4D1;}
	.st42{fill:#FAB8CD;}
	.st43{fill:#F9ADC8;}
	.st44{fill:#F8A1C4;}
	.st45{fill:#F297BE;}
	.st46{fill:#EA8BB4;}
	.st47{fill:#E8BA36;}
	.st48{fill:#E0B12E;}
	.st49{fill:#FFC172;}
	.st50{fill:#FFB76D;}
	.st51{fill:#6E57A0;}
	.st52{fill:#675099;}
	.st53{fill:#F3586F;}
	.st54{fill:#604893;}
	.st55{fill:#CBEB6B;}
	.st56{fill:#4EAC5D;}
	.st57{fill:#BEE758;}
	.st58{fill:#6CD275;}
	.st59{fill:#48A353;}
	.st60{fill:#60C46F;}
	.st61{fill:#D9F07D;}
	.st62{fill:#E6F490;}
	.st63{fill:#4896C8;}
	.st64{fill:#4390BF;}
	.st65{fill:#5CA3D5;}
	.st66{fill:#529CCF;}
	.st67{fill:#F7C845;}
	.st68{fill:#ECCD50;}
	.st69{fill:#FF8D6E;}
	.st70{fill:#FF805D;}
	.st71{fill:#EDEEEE;}
	.st72{fill:#65A9DC;}
	.st73{fill:#8BC07A;}
	.st74{fill:#F0C13E;}
	.st75{fill:#9A3644;}
	.st76{fill:#8A323F;}
	.st77{fill:#945BA0;}
	.st78{fill:#A366AD;}
	.st79{fill:#B370B9;}
	.st80{fill:#C27BC6;}
	.st81{fill:#F6B392;}
	.st82{fill:#D285D2;}
	.st83{fill:#FDEBBB;}
	.st84{fill:#FAE09F;}
	.st85{fill:#DBA728;}
	.st86{fill:#505957;}
	.st87{fill:#56C7CD;}
	.st88{fill:#434C4B;}
	.st89{fill:#687271;}
	.st90{fill:#5C6664;}
	.st91{fill:#51BAC5;}
	.st92{fill:#D64F45;}
	.st93{fill:#D1D4D4;}
	.st94{fill:#E3E5E5;}
	.st95{fill:#DADDDC;}
	.st96{fill:#845194;}
	.st97{fill:#5BD3D5;}
	.st98{fill:#46B080;}
	.st99{fill:#53BF8C;}
	.st100{fill:#6EDCA2;}
	.st101{fill:#7AEBAC;}
	.st102{fill:#60CD96;}
	.st103{fill:#E8803A;}
	.st104{fill:#0A6F8E;}
	.st105{fill:#0F769B;}
	.st106{fill:#838C8A;}
	.st107{fill:#757F7E;}
	.st108{fill:#D1473D;}
	.st109{fill:#B38658;}
	.st110{fill:#A7794C;}
	.st111{fill:#9179C6;}
	.st112{fill:#906DBB;}
	.st113{fill:#A78EDD;}
	.st114{fill:#9D85D3;}
	.st115{fill:#E2EFF7;}
	.st116{fill:#B0D3EA;}
	.st117{fill:#F7BC48;}
	.st118{fill:#FFC550;}
	.st119{fill:#FFCF6E;}
	.st120{fill:#4CAEBC;}
	.st121{fill:#47A1B4;}
	.st122{fill:#4295AC;}
	.st123{fill:#FDE2E6;}
	.st124{fill:#FFF5D8;}
	.st125{fill:#D4C9EF;}
	.st126{fill:#E3DBF4;}
	.st127{fill:#F1EDFA;}
	.st128{fill:#C6B7E9;}
	.st129{fill:#B8A5E4;}
	.st130{fill:#F0C877;}
	.st131{fill:#E8BA67;}
	.st132{fill:#DDAA5F;}
	.st133{fill:#D4994F;}
	.st134{fill:#C98B44;}
	.st135{fill:#BF7D3C;}
	.st136{fill:#909997;}
	.st137{fill:#724D31;}
	.st138{fill:#93C2CA;}
	.st139{fill:#99C7CE;}
	.st140{fill:#9FCCD3;}
	.st141{fill:#ACD7DD;}
	.st142{fill:#B9E2E7;}
	.st143{fill:#A5D1D8;}
	.st144{fill:#88B9C3;}
	.st145{fill:#7EB1BD;}
	.st146{fill:#C8CCCB;}
	.st147{fill:none;}
	.st148{fill:#4F4032;}
	.st149{fill:#604631;}
	.st150{fill:#9E6E43;}
	.st151{fill:#F9BDA0;}
	.st152{fill:#E7685F;}
	.st153{fill:#C84054;}
	.st154{fill:#ABB2B1;}
	.st155{fill:#9DA5A4;}
	.st156{fill:#F74000;}
	.st157{fill:#F97C00;}
	.st158{fill:#F9C900;}
	.st159{fill:#EFD4A7;}
	.st160{fill:#EACEA1;}
	.st161{fill:#FCE8CC;}
	.st162{fill:#F5DEB9;}
	.st163{fill:#CFAB81;}
	.st164{fill:#D5B387;}
	.st165{fill:#3A4274;}
	.st166{fill:#707EB7;}
	.st167{fill:#424B7E;}
	.st168{fill:#7C8AC4;}
	.st169{fill:#FFD98D;}
	.st170{fill:#8694D1;}
	.st171{fill:#9AA6D6;}
	.st172{fill:#ABB4DD;}
	.st173{fill:#FDECEF;}
	.st174{fill:#137FA0;}
	.st175{fill:#EB6B48;}
	.st176{fill:#F57552;}
	.st177{fill:#515E91;}
	.st178{fill:#5C699E;}
	.st179{fill:#6673AA;}
	.st180{fill:#504484;}
	.st181{fill:#FF5F7E;}
	.st182{fill:#EBCEEB;}
	.st183{fill:#E5BDE5;}
	.st184{fill:#E0ABDF;}
	.st185{fill:#D799D6;}
	.st186{fill:#3B8FA3;}
	.st187{fill:#348B99;}
	.st188{fill:#F7F7F7;}
	.st189{fill:#3AA176;}
	.st190{fill:#84ED82;}
	.st191{fill:#EFEAEA;}
	.st192{fill:#FF9A7E;}
	.st193{fill:#FCD2BE;}
	.st194{fill:#FCDDCF;}
	.st195{fill:#C683C8;}
	.st196{fill:#FEF5F7;}
</style>
<g>
	<path class="tangerine_05" d="M19.621,0c-1.783,0-3.287,1.328-3.508,3.097L16,4v4h5l1.619-2.591C24.091,3.055,22.398,0,19.621,0z"
		/>
	<path class="tangerine_06" d="M20.866,0.229c1.991,0.744,2.987,3.205,1.753,5.18L21,8h-2.505L20.866,0.229z"/>
	<path class="tangerine_05" d="M22,12l5.341-0.801C29.794,10.831,32,12.731,32,15.211v0c0,2.507-2.251,4.414-4.724,4.002L20,18
		L22,12z"/>
	<path class="tangerine_06" d="M31.977,15C31.98,15.072,32,15.138,32,15.211c0,2.507-2.251,4.414-4.724,4.002L20,18l1-3H31.977z"/>
	<path class="tangerine_05" d="M20,8l3.935-3.935c1.959-1.959,5.274-1.344,6.4,1.188l0,0c0.909,2.046-0.063,4.438-2.142,5.269L22,13
		L20,8z"/>
	<path class="tangerine_06" d="M29.673,4.235c0.262,0.295,0.489,0.631,0.661,1.018c0.909,2.046-0.063,4.438-2.142,5.269L22,13
		l-0.909-2.274L29.673,4.235z"/>
	<path class="tangerine_04" d="M16,4l-0.113-0.903C15.666,1.328,14.162,0,12.379,0c-2.777,0-4.47,3.055-2.998,5.409L11,8h5V4z"/>
	<path class="tangerine_05" d="M11.134,0.229c-1.991,0.744-2.987,3.205-1.753,5.18L11,8h2.505L11.134,0.229z"/>
	<path class="tangerine_04" d="M10,12l-5.341-0.801C2.206,10.831,0,12.731,0,15.211v0c0,2.507,2.251,4.414,4.724,4.002L12,18L10,12z
		"/>
	<path class="tangerine_05" d="M0.023,15C0.02,15.072,0,15.138,0,15.211c0,2.507,2.251,4.414,4.724,4.002L12,18l-1-3H0.023z"/>
	<path class="tangerine_04" d="M12,8L8.065,4.065c-1.959-1.959-5.274-1.344-6.4,1.188l0,0c-0.909,2.046,0.063,4.438,2.142,5.269
		L10,13L12,8z"/>
	<path class="tangerine_05" d="M2.327,4.235C2.065,4.53,1.837,4.866,1.665,5.253c-0.909,2.046,0.063,4.438,2.142,5.269L10,13
		l0.909-2.274L2.327,4.235z"/>
	<path class="dirt_14" d="M21.782,21.714l-0.008,0.001c0.002,0.309-0.016,0.618-0.072,0.925L20.182,31H21.5
		c0.281,0,0.507-0.231,0.5-0.512L21.782,21.714z"/>
	<path class="dirt_12" d="M11.68,17.64l-0.935,1.869c-0.484,0.968-0.641,2.066-0.447,3.13l1.627,8.95
		C11.969,31.827,12.176,32,12.417,32H14.5c0.276,0,0.5-0.224,0.5-0.5V26h1v-6.009C14.247,19.991,12.63,19.096,11.68,17.64z"/>
	<path class="dirt_13" d="M20.32,17.64c-0.95,1.456-2.567,2.351-4.32,2.351V26h1v5.5c0,0.276,0.224,0.5,0.5,0.5h2.083
		c0.242,0,0.449-0.173,0.492-0.411l1.627-8.95c0.194-1.064,0.037-2.163-0.447-3.13L20.32,17.64z"/>
	<path class="mud_03" d="M21.916,27h-1.007l-0.727,4H21.5c0.281,0,0.507-0.231,0.5-0.512L21.916,27z"/>
	<path class="mud_02" d="M17,28v3.5c0,0.276,0.224,0.5,0.5,0.5h2.083c0.242,0,0.449-0.173,0.492-0.411L20.727,28H17z"/>
	<path class="mud_01" d="M11.273,28l0.653,3.589C11.969,31.827,12.176,32,12.417,32H14.5c0.276,0,0.5-0.224,0.5-0.5V28H11.273z"/>
	<path class="sand_03" d="M17.326,19.816c-0.427,0.114-0.872,0.175-1.326,0.175V26h1l1.067-1.068
		c0.566-0.566,0.74-1.414,0.443-2.157L17.326,19.816z"/>
	<path class="sand_02" d="M13.49,22.776c-0.297,0.743-0.123,1.591,0.443,2.157L15,26h1v-6.009c-0.454,0-0.899-0.061-1.326-0.175
		L13.49,22.776z"/>
	<path class="dirt_13" d="M10.218,21.714l0.008,0.001c-0.002,0.309,0.016,0.618,0.072,0.925l1.52,8.36H10.5
		c-0.281,0-0.507-0.231-0.5-0.512L10.218,21.714z"/>
	<path class="mud_02" d="M10.085,27h1.007l0.727,4H10.5c-0.281,0-0.507-0.231-0.5-0.512L10.085,27z"/>
	<path class="dirt_12" d="M18.838,7c0.865,0,1.659,0.372,2.215,0.982c0.358-0.119,2.674-0.859,5.308-0.969
		c0.339-0.014,0.59,0.306,0.504,0.635c-0.774,2.972-3.482,5.294-4.486,6.071c-0.11,0.42-0.269,0.829-0.488,1.213l-1.402,2.454
		c-0.92,1.611-2.633,2.605-4.488,2.605V7H18.838z"/>
	<path class="mud_02" d="M26.866,7.648c-0.774,2.972-3.482,5.293-4.485,6.07c0,0-0.001,0-0.002,0c0,0,0.442-1.54-0.114-2.931
		C22.265,10.788,23.772,8.375,26.866,7.648z"/>
	<path class="dirt_11" d="M13.162,7c-0.865,0-1.659,0.372-2.215,0.982c-0.358-0.119-2.674-0.859-5.308-0.969
		C5.3,6.999,5.05,7.32,5.135,7.648c0.774,2.972,3.482,5.294,4.486,6.071c0.11,0.42,0.269,0.829,0.488,1.213l1.402,2.454
		c0.92,1.611,2.633,2.605,4.488,2.605V7H13.162z"/>
	<g>
		<path class="grey_16" d="M14.5,14c0,1.105-0.395,2-1.5,2s-1.5-0.895-1.5-2s0.395-2,1.5-2S14.5,12.895,14.5,14z"/>
	</g>
	<circle class="white" cx="13" cy="13.5" r="0.5"/>
	<path class="mud_01" d="M13,15c-0.679,0-1.149-0.196-1.467-0.509C11.643,15.357,12.066,16,13,16s1.357-0.643,1.467-1.509
		C14.149,14.804,13.679,15,13,15z"/>
	<g>
		<g>
			<path class="grey_17" d="M20.5,14c0,1.105-0.395,2-1.5,2s-1.5-0.895-1.5-2s0.395-2,1.5-2S20.5,12.895,20.5,14z"/>
		</g>
		<g>
			<path class="grey_17" d="M20.5,14c0,1.105-0.395,2-1.5,2s-1.5-0.895-1.5-2s0.395-2,1.5-2S20.5,12.895,20.5,14z"/>
		</g>
	</g>
	<circle class="grey_01" cx="19" cy="13.5" r="0.5"/>
	<path class="mud_02" d="M19,15c-0.679,0-1.149-0.196-1.467-0.509C17.643,15.357,18.066,16,19,16s1.357-0.643,1.467-1.509
		C20.149,14.804,19.679,15,19,15z"/>
	<path class="tangerine_04" d="M19,5c-0.601,0-1.133,0.27-1.5,0.69C17.133,5.27,16.601,5,16,5v6c0.601,0,1.133-0.27,1.5-0.69
		C17.867,10.73,18.399,11,19,11c1.105,0,2-0.895,2-2V7C21,5.895,20.105,5,19,5z"/>
	<path class="tangerine_03" d="M14.5,5.69C14.133,5.27,13.601,5,13,5c-1.105,0-2,0.895-2,2v2c0,1.105,0.895,2,2,2
		c0.601,0,1.133-0.27,1.5-0.69C14.867,10.73,15.399,11,16,11V5C15.399,5,14.867,5.27,14.5,5.69z"/>
	<path class="mud_01" d="M5.138,7.648c0.774,2.972,3.482,5.293,4.485,6.07c0.001,0,0.001,0,0.002,0c0,0-0.442-1.54,0.114-2.931
		C9.738,10.788,8.232,8.375,5.138,7.648z"/>
	<path class="grey_16" d="M15.996,17.384c-0.114,0-0.23-0.002-0.35-0.012c-0.248-0.021-0.503,0.092-0.604,0.32
		c-0.201,0.452,0.365,0.863,0.711,1.064c0.075,0.044,0.159,0.064,0.243,0.064V17.384z"/>
	<path class="grey_17" d="M15.996,17.384v1.436c0.088,0.001,0.176-0.021,0.255-0.066c0.296-0.172,0.75-0.497,0.75-0.869
		C17,17.331,16.549,17.384,15.996,17.384z"/>
</g>
</svg>
