<?xml version="1.0" encoding="utf-8"?>
<!-- Generator: Adobe Illustrator 20.1.0, SVG Export Plug-In . SVG Version: 6.00 Build 0)  -->
<!DOCTYPE svg PUBLIC "-//W3C//DTD SVG 1.1//EN" "http://www.w3.org/Graphics/SVG/1.1/DTD/svg11.dtd">
<svg version="1.1" id="icons" xmlns="http://www.w3.org/2000/svg" xmlns:xlink="http://www.w3.org/1999/xlink" x="0px" y="0px"
	 width="32px" height="32px" viewBox="0 0 32 32" style="enable-background:new 0 0 32 32;" xml:space="preserve">
<style type="text/css">
	.grey_16{fill:#373F3F;}
	.grey_17{fill:#2B3332;}
	.lemon_01{fill:#FFF5D8;}
	.lemon_02{fill:#FEF1C6;}
	.lemon_03{fill:#FFEAA7;}
	.lemon_04{fill:#FFE28A;}
	.lemon_05{fill:#FFD96C;}
	.lemon_06{fill:#FFD04D;}
	.lemon_07{fill:#F7C845;}
	.mud_02{fill:#99533D;}
	.mud_03{fill:#914C39;}
	.st0{fill:#78DF7C;}
	.st1{fill:#54B668;}
	.st2{fill:#7A63AD;}
	.st3{fill:#866EBA;}
	.st4{fill:#D2E6F3;}
	.st5{fill:#C1DDEE;}
	.st6{fill:#E0C193;}
	.st7{fill:#DBBA8C;}
	.st8{fill:#7FB8E0;}
	.st9{fill:#8EC0E0;}
	.st10{fill:#71B1E1;}
	.st11{fill:#9FC9E4;}
	.st12{fill:#FF6B8B;}
	.st13{fill:#F4A984;}
	.st14{fill:#EA9C7A;}
	.st15{fill:#E85160;}
	.st16{fill:#D84459;}
	.st17{fill:#F7F7F7;}
	.st18{fill:#FFFFFF;}
	.st19{fill:#E55D53;}
	.st20{fill:#FFD400;}
	.st21{fill:#FF8F00;}
	.st22{fill:#FF4A00;}
	.st23{fill:#F7D684;}
	.st24{fill:#FAE09F;}
	.st25{fill:#FDEBBB;}
	.st26{fill:#FFF3D9;}
	.st27{fill:#9ACC2E;}
	.st28{fill:#AADB3D;}
	.st29{fill:#A2D336;}
	.st30{fill:#93C427;}
	.st31{fill:#F79654;}
	.st32{fill:#FCA15E;}
	.st33{fill:#A9E260;}
	.st34{fill:#97DB4A;}
	.st35{fill:#B1E346;}
	.st36{fill:#FCD8DE;}
	.st37{fill:#CDA073;}
	.st38{fill:#C09265;}
	.st39{fill:#A7794C;}
	.st40{fill:#96643B;}
	.st41{fill:#845331;}
	.st42{fill:#B38658;}
	.st43{fill:#9E6E43;}
	.st44{fill:#8D5B36;}
	.st45{fill:#FBCFD6;}
	.st46{fill:#FAC4D1;}
	.st47{fill:#FAB8CD;}
	.st48{fill:#F9ADC8;}
	.st49{fill:#F8A1C4;}
	.st50{fill:#F297BE;}
	.st51{fill:#EA8BB4;}
	.st52{fill:#E8BA36;}
	.st53{fill:#E0B12E;}
	.st54{fill:#FFC172;}
	.st55{fill:#FFAD68;}
	.st56{fill:#FFB76D;}
	.st57{fill:#6E57A0;}
	.st58{fill:#675099;}
	.st59{fill:#F3586F;}
	.st60{fill:#604893;}
	.st61{fill:#CBEB6B;}
	.st62{fill:#4EAC5D;}
	.st63{fill:#BEE758;}
	.st64{fill:#6CD275;}
	.st65{fill:#48A353;}
	.st66{fill:#60C46F;}
	.st67{fill:#D9F07D;}
	.st68{fill:#E6F490;}
	.st69{fill:#4896C8;}
	.st70{fill:#4390BF;}
	.st71{fill:#5CA3D5;}
	.st72{fill:#529CCF;}
	.st73{fill:#ECCD50;}
	.st74{fill:#FF8D6E;}
	.st75{fill:#FF805D;}
	.st76{fill:#EDEEEE;}
	.st77{fill:#65A9DC;}
	.st78{fill:#8BC07A;}
	.st79{fill:#F0C13E;}
	.st80{fill:#9A3644;}
	.st81{fill:#8A323F;}
	.st82{fill:#945BA0;}
	.st83{fill:#A366AD;}
	.st84{fill:#B370B9;}
	.st85{fill:#C27BC6;}
	.st86{fill:#F6B392;}
	.st87{fill:#D285D2;}
	.st88{fill:#DBA728;}
	.st89{fill:#505957;}
	.st90{fill:#56C7CD;}
	.st91{fill:#434C4B;}
	.st92{fill:#687271;}
	.st93{fill:#5C6664;}
	.st94{fill:#51BAC5;}
	.st95{fill:#D64F45;}
	.st96{fill:#D1D4D4;}
	.st97{fill:#E3E5E5;}
	.st98{fill:#DADDDC;}
	.st99{fill:#845194;}
	.st100{fill:#5BD3D5;}
	.st101{fill:#46B080;}
	.st102{fill:#53BF8C;}
	.st103{fill:#6EDCA2;}
	.st104{fill:#7AEBAC;}
	.st105{fill:#60CD96;}
	.st106{fill:#E8803A;}
	.st107{fill:#0A6F8E;}
	.st108{fill:#0F769B;}
	.st109{fill:#EF8C48;}
	.st110{fill:#838C8A;}
	.st111{fill:#757F7E;}
	.st112{fill:#D1473D;}
	.st113{fill:#FFE28A;}
	.st114{fill:#9179C6;}
	.st115{fill:#906DBB;}
	.st116{fill:#A78EDD;}
	.st117{fill:#9D85D3;}
	.st118{fill:#E2EFF7;}
	.st119{fill:#B0D3EA;}
	.st120{fill:#F7BC48;}
	.st121{fill:#FFC550;}
	.st122{fill:#FFCF6E;}
	.st123{fill:#4CAEBC;}
	.st124{fill:#47A1B4;}
	.st125{fill:#4295AC;}
	.st126{fill:#FDE2E6;}
	.st127{fill:#FEF1C6;}
	.st128{fill:#D4C9EF;}
	.st129{fill:#E3DBF4;}
	.st130{fill:#F1EDFA;}
	.st131{fill:#C6B7E9;}
	.st132{fill:#B8A5E4;}
	.st133{fill:#F0C877;}
	.st134{fill:#E8BA67;}
	.st135{fill:#DDAA5F;}
	.st136{fill:#D4994F;}
	.st137{fill:#C98B44;}
	.st138{fill:#BF7D3C;}
	.st139{fill:#909997;}
	.st140{fill:#724D31;}
	.st141{fill:#93C2CA;}
	.st142{fill:#99C7CE;}
	.st143{fill:#9FCCD3;}
	.st144{fill:#ACD7DD;}
	.st145{fill:#B9E2E7;}
	.st146{fill:#A5D1D8;}
	.st147{fill:#88B9C3;}
	.st148{fill:#7EB1BD;}
	.st149{fill:#C8CCCB;}
	.st150{fill:none;}
	.st151{fill:#4F4032;}
	.st152{fill:#604631;}
	.st153{fill:#F9BDA0;}
	.st154{fill:#E7685F;}
	.st155{fill:#C84054;}
	.st156{fill:#ABB2B1;}
	.st157{fill:#9DA5A4;}
	.st158{fill:#FFD96C;}
	.st159{fill:#FFD04D;}
	.st160{fill:#F74000;}
	.st161{fill:#F97C00;}
	.st162{fill:#F9C900;}
	.st163{fill:#EFD4A7;}
	.st164{fill:#EACEA1;}
	.st165{fill:#FCE8CC;}
	.st166{fill:#F5DEB9;}
	.st167{fill:#CFAB81;}
	.st168{fill:#D5B387;}
	.st169{fill:#3A4274;}
	.st170{fill:#707EB7;}
	.st171{fill:#424B7E;}
	.st172{fill:#7C8AC4;}
	.st173{fill:#FFD98D;}
	.st174{fill:#8694D1;}
	.st175{fill:#9AA6D6;}
	.st176{fill:#ABB4DD;}
	.st177{fill:#FDECEF;}
	.st178{fill:#137FA0;}
	.st179{fill:#EB6B48;}
	.st180{fill:#F57552;}
	.st181{fill:#515E91;}
	.st182{fill:#5C699E;}
	.st183{fill:#6673AA;}
	.st184{fill:#504484;}
	.st185{fill:#FF5F7E;}
	.st186{fill:#EBCEEB;}
	.st187{fill:#E5BDE5;}
	.st188{fill:#E0ABDF;}
	.st189{fill:#D799D6;}
	.st190{fill:#3B8FA3;}
	.st191{fill:#348B99;}
	.st192{fill:#3AA176;}
	.st193{fill:#84ED82;}
	.st194{fill:#EFEAEA;}
	.st195{fill:#FF9A7E;}
	.st196{fill:#FCD2BE;}
	.st197{fill:#FCDDCF;}
	.st198{fill:#C683C8;}
	.st199{fill:#A55F49;}
	.st200{fill:#FEF5F7;}
</style>
<g>
	<path class="lemon_06" d="M16,0.326c-0.24,0-0.479,0.085-0.665,0.256C6.031,9.143,16,19.001,16,19.001V0.326z"/>
	<path class="lemon_07" d="M16.665,0.582C16.479,0.411,16.24,0.326,16,0.326v18.675C16,19.001,25.969,9.143,16.665,0.582z"/>
	<path class="lemon_06" d="M16,23.619c0,0,3.174-3.459,7.169-7.351c3.805-3.708,3.046-8.773,1.126-13.556
		c-0.089-0.221-0.408-0.205-0.473,0.024c-0.424,1.496-1.741,5.05-5.35,8.635C13.729,16.083,16,23.619,16,23.619z"/>
	<path class="lemon_07" d="M16,23.619c0,0,2.935-6.258,8.208-10.077c3.67-2.658,5.037-5.27,5.529-6.612
		c0.086-0.235,0.43-0.204,0.477,0.042C30.725,9.63,31.608,17.019,26.458,20c-6.333,3.667-7.875,2.667-10.458,6V23.619z"/>
	<path class="lemon_06" d="M16,26c0,0,3.125-4.479,6.667-6.333c3.32-1.738,6.31-1.133,8.834-4.036
		c0.159-0.183,0.461-0.057,0.434,0.185c-0.224,2.013-1.208,7.153-5.435,8.518C21.208,26.042,17.417,24.542,16,28V26z"/>
	<path class="lemon_07" d="M16,29c0,0,0.417-2.917,4.5-4.542c3.976-1.582,5.068,1.141,10.084-0.945
		c0.183-0.076,0.385,0.069,0.35,0.264c-0.266,1.453-1.507,5.964-6.642,5.764C18.174,29.304,16,31,16,31V29z"/>
	<path class="lemon_05" d="M16,23.619c0,0-3.174-3.459-7.169-7.351C5.026,12.56,5.786,7.495,7.705,2.712
		c0.089-0.221,0.408-0.205,0.473,0.024c0.424,1.496,1.741,5.05,5.35,8.635C18.271,16.083,16,23.619,16,23.619z"/>
	<path class="lemon_06" d="M16,23.619c0,0-2.935-6.258-8.208-10.077c-3.67-2.658-5.037-5.27-5.529-6.612
		c-0.086-0.235-0.43-0.204-0.477,0.042C1.275,9.63,0.392,17.019,5.542,20c6.333,3.667,7.875,2.667,10.458,6V23.619z"/>
	<path class="lemon_05" d="M16,26c0,0-3.125-4.479-6.667-6.333c-3.32-1.738-6.31-1.133-8.834-4.036
		c-0.159-0.183-0.461-0.057-0.434,0.185c0.224,2.013,1.208,7.153,5.435,8.518C10.792,26.042,14.583,24.542,16,28V26z"/>
	<path class="lemon_06" d="M16,29c0,0-0.417-2.917-4.5-4.542C7.524,22.876,6.432,25.6,1.416,23.513
		c-0.183-0.076-0.385,0.069-0.35,0.264c0.266,1.453,1.507,5.964,6.642,5.764C13.826,29.304,16,31,16,31V29z"/>
	<path class="lemon_03" d="M16,23l3.292-1.646c0.423-0.212,0.934-0.129,1.268,0.206l0,0c0.273,0.273,0.383,0.669,0.289,1.044
		l-1.78,7.122c-0.043,0.17,0.007,0.351,0.132,0.475l0.653,0.653C19.947,30.947,20,31.074,20,31.207V31.5c0,0.276-0.224,0.5-0.5,0.5
		H16V23z"/>
	<path class="lemon_02" d="M16,23l-3.292-1.646c-0.423-0.212-0.934-0.129-1.268,0.206l0,0c-0.273,0.273-0.383,0.669-0.289,1.044
		l1.78,7.122c0.043,0.17-0.007,0.351-0.132,0.475l-0.653,0.653C12.053,30.947,12,31.074,12,31.207V31.5c0,0.276,0.224,0.5,0.5,0.5
		H16V23z"/>
	<path class="st127" d="M19,23l-1.258,5.451c-0.16,0.691-0.17,1.409-0.031,2.105l0.169,0.846C17.942,31.711,17.706,32,17.39,32H16
		v-9H19z"/>
	<path class="lemon_01" d="M13,23l1.258,5.451c0.16,0.691,0.17,1.409,0.031,2.105l-0.169,0.846C14.058,31.711,14.294,32,14.61,32H16
		v-9H13z"/>
	<path class="lemon_04" d="M16,18h-3l-0.103,0.205c-1.031,2.063-0.756,4.516,0.653,6.291c0.149,0.187,0.45,0.087,0.45-0.152V24
		l1.646,1.646c0.098,0.098,0.226,0.146,0.354,0.146V18z"/>
	<path class="lemon_05" d="M19,18h-3v7.793c0.128,0,0.256-0.049,0.354-0.146L18,24v0.344c0,0.239,0.301,0.34,0.45,0.152
		c1.409-1.775,1.685-4.228,0.653-6.291L19,18z"/>
	<path class="lemon_02" d="M18.374,12.901L18.374,12.901c-0.748-0.374-1.561-0.561-2.374-0.561V22h0.003
		c1.022,0,1.929-0.654,2.252-1.623l0.06-0.18c0.168-0.505,0.452-0.964,0.828-1.34l0.436-0.436c0.461-0.461,0.781-1.044,0.923-1.681
		l1.19-5.354c0.102-0.461-0.432-0.794-0.8-0.499L18.374,12.901z"/>
	<path class="lemon_01" d="M13.626,12.901l-2.518-2.014c-0.369-0.295-0.903,0.038-0.8,0.499l1.19,5.354
		c0.141,0.636,0.461,1.219,0.922,1.68l0.436,0.436c0.376,0.376,0.66,0.835,0.828,1.34l0.06,0.18C14.068,21.346,14.975,22,15.997,22
		H16v-9.659C15.187,12.341,14.374,12.527,13.626,12.901L13.626,12.901z"/>
	<path class="grey_17" d="M16.75,20.501c0-0.552-0.336-0.5-0.75-0.5v1C16.414,21.001,16.75,21.054,16.75,20.501z"/>
	<path class="grey_16" d="M16,20.001c-0.414,0-0.75-0.052-0.75,0.5c0,0.552,0.336,0.5,0.75,0.5V20.001z"/>
	<path class="mud_02" d="M14.47,18.197c-0.085-0.52-0.411-1.539-1.668-1.68c-0.162-0.018-0.299,0.126-0.273,0.287
		c0.085,0.52,0.411,1.539,1.668,1.68C14.359,18.502,14.496,18.358,14.47,18.197z"/>
	<path class="mud_03" d="M17.53,18.197c0.085-0.52,0.411-1.539,1.668-1.68c0.162-0.018,0.299,0.126,0.273,0.287
		c-0.085,0.52-0.411,1.539-1.668,1.68C17.641,18.502,17.504,18.358,17.53,18.197z"/>
	<path class="lemon_04" d="M16,3.452c-0.096,0-0.193,0.054-0.234,0.161L14.4,7.2l-0.651-0.769c-0.152-0.179-0.446-0.069-0.441,0.166
		C13.356,8.692,13.6,10.4,13.6,10.4l-0.582-0.688c-0.166-0.196-0.483-0.045-0.438,0.208c0.258,1.44,1.046,2.981,1.046,2.981
		c0.621,0.587,1.577,0.888,2.374,0.888V3.452z"/>
	<path class="lemon_05" d="M18.982,9.712L18.4,10.4c0,0,0.244-1.708,0.292-3.803c0.005-0.235-0.289-0.345-0.441-0.166L17.6,7.2
		l-1.366-3.587C16.193,3.506,16.096,3.452,16,3.452v10.337h0c0.796,0,1.752-0.302,2.373-0.889c0,0,0.789-1.541,1.047-2.981
		C19.465,9.667,19.148,9.516,18.982,9.712z"/>
</g>
</svg>
