<?xml version="1.0" encoding="utf-8"?>
<!-- Generator: Adobe Illustrator 20.1.0, SVG Export Plug-In . SVG Version: 6.00 Build 0)  -->
<!DOCTYPE svg PUBLIC "-//W3C//DTD SVG 1.1//EN" "http://www.w3.org/Graphics/SVG/1.1/DTD/svg11.dtd">
<svg version="1.1" id="icons" xmlns="http://www.w3.org/2000/svg" xmlns:xlink="http://www.w3.org/1999/xlink" x="0px" y="0px"
	 width="32px" height="32px" viewBox="0 0 32 32" style="enable-background:new 0 0 32 32;" xml:space="preserve">
<style type="text/css">
	.white{fill:#FFFFFF;}
	.grey_01{fill:#F7F7F7;}
	.grey_16{fill:#373F3F;}
	.grey_17{fill:#2B3332;}
	.sapphire_02{fill:#0F769B;}
	.sapphire_03{fill:#0A6F8E;}
	.tangerine_03{fill:#FFAD68;}
	.tangerine_04{fill:#FCA15E;}
	.tangerine_05{fill:#F79654;}
	.tangerine_06{fill:#EF8C48;}
	.tangerine_07{fill:#E8803A;}
	.sand_02{fill:#FDEBBB;}
	.sand_03{fill:#FAE09F;}
	.flamered_01{fill:#FF4A00;}
	.flameorange_01{fill:#FF8F00;}
	.flameyellow_01{fill:#FFD400;}
	.st0{fill:#78DF7C;}
	.st1{fill:#54B668;}
	.st2{fill:#7A63AD;}
	.st3{fill:#866EBA;}
	.st4{fill:#D2E6F3;}
	.st5{fill:#C1DDEE;}
	.st6{fill:#E0C193;}
	.st7{fill:#DBBA8C;}
	.st8{fill:#7FB8E0;}
	.st9{fill:#8EC0E0;}
	.st10{fill:#71B1E1;}
	.st11{fill:#9FC9E4;}
	.st12{fill:#FFEAA7;}
	.st13{fill:#FFE28A;}
	.st14{fill:#FF6B8B;}
	.st15{fill:#F4A984;}
	.st16{fill:#EA9C7A;}
	.st17{fill:#FEF1C6;}
	.st18{fill:#E85160;}
	.st19{fill:#D84459;}
	.st20{fill:#E55D53;}
	.st21{fill:#F7D684;}
	.st22{fill:#FFF3D9;}
	.st23{fill:#FFD96C;}
	.st24{fill:#9ACC2E;}
	.st25{fill:#AADB3D;}
	.st26{fill:#A2D336;}
	.st27{fill:#93C427;}
	.st28{fill:#FFD04D;}
	.st29{fill:#A9E260;}
	.st30{fill:#97DB4A;}
	.st31{fill:#B1E346;}
	.st32{fill:#FCD8DE;}
	.st33{fill:#CDA073;}
	.st34{fill:#C09265;}
	.st35{fill:#A7794C;}
	.st36{fill:#96643B;}
	.st37{fill:#845331;}
	.st38{fill:#B38658;}
	.st39{fill:#9E6E43;}
	.st40{fill:#8D5B36;}
	.st41{fill:#FBCFD6;}
	.st42{fill:#FAC4D1;}
	.st43{fill:#FAB8CD;}
	.st44{fill:#F9ADC8;}
	.st45{fill:#F8A1C4;}
	.st46{fill:#F297BE;}
	.st47{fill:#EA8BB4;}
	.st48{fill:#E8BA36;}
	.st49{fill:#E0B12E;}
	.st50{fill:#FFC172;}
	.st51{fill:#FFB76D;}
	.st52{fill:#6E57A0;}
	.st53{fill:#675099;}
	.st54{fill:#F3586F;}
	.st55{fill:#604893;}
	.st56{fill:#CBEB6B;}
	.st57{fill:#4EAC5D;}
	.st58{fill:#BEE758;}
	.st59{fill:#6CD275;}
	.st60{fill:#48A353;}
	.st61{fill:#60C46F;}
	.st62{fill:#D9F07D;}
	.st63{fill:#E6F490;}
	.st64{fill:#4896C8;}
	.st65{fill:#4390BF;}
	.st66{fill:#5CA3D5;}
	.st67{fill:#529CCF;}
	.st68{fill:#F7C845;}
	.st69{fill:#ECCD50;}
	.st70{fill:#FF8D6E;}
	.st71{fill:#FF805D;}
	.st72{fill:#EDEEEE;}
	.st73{fill:#65A9DC;}
	.st74{fill:#8BC07A;}
	.st75{fill:#F0C13E;}
	.st76{fill:#9A3644;}
	.st77{fill:#8A323F;}
	.st78{fill:#945BA0;}
	.st79{fill:#A366AD;}
	.st80{fill:#B370B9;}
	.st81{fill:#C27BC6;}
	.st82{fill:#F6B392;}
	.st83{fill:#D285D2;}
	.st84{fill:#FDEBBB;}
	.st85{fill:#FAE09F;}
	.st86{fill:#DBA728;}
	.st87{fill:#505957;}
	.st88{fill:#56C7CD;}
	.st89{fill:#434C4B;}
	.st90{fill:#687271;}
	.st91{fill:#5C6664;}
	.st92{fill:#51BAC5;}
	.st93{fill:#D64F45;}
	.st94{fill:#D1D4D4;}
	.st95{fill:#E3E5E5;}
	.st96{fill:#DADDDC;}
	.st97{fill:#845194;}
	.st98{fill:#5BD3D5;}
	.st99{fill:#46B080;}
	.st100{fill:#53BF8C;}
	.st101{fill:#6EDCA2;}
	.st102{fill:#7AEBAC;}
	.st103{fill:#60CD96;}
	.st104{fill:#838C8A;}
	.st105{fill:#757F7E;}
	.st106{fill:#D1473D;}
	.st107{fill:#9179C6;}
	.st108{fill:#906DBB;}
	.st109{fill:#A78EDD;}
	.st110{fill:#9D85D3;}
	.st111{fill:#E2EFF7;}
	.st112{fill:#B0D3EA;}
	.st113{fill:#F7BC48;}
	.st114{fill:#FFC550;}
	.st115{fill:#FFCF6E;}
	.st116{fill:#4CAEBC;}
	.st117{fill:#47A1B4;}
	.st118{fill:#4295AC;}
	.st119{fill:#FDE2E6;}
	.st120{fill:#FFF5D8;}
	.st121{fill:#99533D;}
	.st122{fill:#914C39;}
	.st123{fill:#D4C9EF;}
	.st124{fill:#E3DBF4;}
	.st125{fill:#F1EDFA;}
	.st126{fill:#C6B7E9;}
	.st127{fill:#B8A5E4;}
	.st128{fill:#F0C877;}
	.st129{fill:#E8BA67;}
	.st130{fill:#DDAA5F;}
	.st131{fill:#D4994F;}
	.st132{fill:#C98B44;}
	.st133{fill:#BF7D3C;}
	.st134{fill:#909997;}
	.st135{fill:#724D31;}
	.st136{fill:#93C2CA;}
	.st137{fill:#99C7CE;}
	.st138{fill:#9FCCD3;}
	.st139{fill:#ACD7DD;}
	.st140{fill:#B9E2E7;}
	.st141{fill:#A5D1D8;}
	.st142{fill:#88B9C3;}
	.st143{fill:#7EB1BD;}
	.st144{fill:#C8CCCB;}
	.st145{fill:none;}
	.st146{fill:#4F4032;}
	.st147{fill:#604631;}
	.st148{fill:#F9BDA0;}
	.st149{fill:#E7685F;}
	.st150{fill:#C84054;}
	.st151{fill:#ABB2B1;}
	.st152{fill:#9DA5A4;}
	.st153{fill:#F74000;}
	.st154{fill:#F97C00;}
	.st155{fill:#F9C900;}
	.st156{fill:#EFD4A7;}
	.st157{fill:#EACEA1;}
	.st158{fill:#FCE8CC;}
	.st159{fill:#F5DEB9;}
	.st160{fill:#CFAB81;}
	.st161{fill:#D5B387;}
	.st162{fill:#3A4274;}
	.st163{fill:#707EB7;}
	.st164{fill:#424B7E;}
	.st165{fill:#7C8AC4;}
	.st166{fill:#FFD98D;}
	.st167{fill:#8694D1;}
	.st168{fill:#9AA6D6;}
	.st169{fill:#ABB4DD;}
	.st170{fill:#FDECEF;}
	.st171{fill:#0F769B;}
	.st172{fill:#137FA0;}
	.st173{fill:#EB6B48;}
	.st174{fill:#F57552;}
	.st175{fill:#515E91;}
	.st176{fill:#5C699E;}
	.st177{fill:#6673AA;}
	.st178{fill:#504484;}
	.st179{fill:#FF5F7E;}
	.st180{fill:#EBCEEB;}
	.st181{fill:#E5BDE5;}
	.st182{fill:#E0ABDF;}
	.st183{fill:#D799D6;}
	.st184{fill:#3B8FA3;}
	.st185{fill:#348B99;}
	.st186{fill:#F7F7F7;}
	.st187{fill:#3AA176;}
	.st188{fill:#84ED82;}
	.st189{fill:#EFEAEA;}
	.st190{fill:#FF9A7E;}
	.st191{fill:#FCD2BE;}
	.st192{fill:#FCDDCF;}
	.st193{fill:#C683C8;}
	.st194{fill:#A55F49;}
	.st195{fill:#FEF5F7;}
</style>
<g>
	<path class="tangerine_07" d="M16,19c0,0,9-3,9-9h2c0,0,2.114,18-11,18V19z"/>
	<path class="flamered_01" d="M25,10h2l0.001-0.001c2.1-1.05,2.764-3.727,1.4-5.637l-1.588-2.223c-0.399-0.558-1.229-0.558-1.627,0
		l-1.588,2.223c-1.364,1.91-0.699,4.587,1.4,5.637L25,10z"/>
	<path class="flameorange_01" d="M25,10c0,0-0.849-1.007-1.03-1.738c-0.199-0.802-0.038-1.646,0.442-2.318l1.181-1.653
		c0.199-0.279,0.614-0.279,0.814,0l1.181,1.653c0.48,0.672,0.642,1.518,0.442,2.319C27.849,8.993,27,10,27,10H25z"/>
	<path class="flameyellow_01" d="M25,10l-0.001-0.002c-0.467-0.889-0.346-1.974,0.305-2.739l0.506-0.594
		c0.1-0.117,0.281-0.117,0.381,0l0.506,0.594c0.651,0.764,0.772,1.848,0.306,2.737L27,10H25z"/>
	<path class="tangerine_05" d="M16,13h-5.423c-1.629,1.07-4.327,3.451-6.307,8.309C4.137,21.636,4.384,22,4.737,22H6l0.651,0.651
		c0.193,0.193,0.5,0.199,0.696,0.011c0.365-0.35,0.989-0.932,1.703-1.543c0.053,0.655,0.159,1.285,0.303,1.889
		C8.656,23.638,8,24.598,8,26c0,3,1,4,1,4s-1.574,0-1.929,1.396C6.993,31.703,7.247,32,7.563,32h4.022
		c0.265,0,0.52-0.105,0.707-0.293l0.414-0.414C12.895,31.105,13,30.851,13,30.586v-2.327C13.874,28.731,14.875,29,16,29V13z"/>
	<path class="tangerine_06" d="M27.73,21.309c-1.98-4.858-4.678-7.239-6.307-8.309H16v16c1.125,0,2.126-0.269,3-0.741v2.327
		c0,0.265,0.105,0.52,0.293,0.707l0.414,0.414C19.895,31.895,20.149,32,20.414,32h4.022c0.317,0,0.571-0.297,0.493-0.604
		C24.574,30,23,30,23,30s1-1,1-4c0-1.402-0.656-2.362-1.353-2.993c0.145-0.604,0.25-1.233,0.303-1.889
		c0.713,0.611,1.338,1.193,1.703,1.543c0.197,0.189,0.503,0.182,0.696-0.011L26,22h1.263C27.616,22,27.863,21.636,27.73,21.309z"/>
	<path class="tangerine_04" d="M23,9c0-0.66-0.244-1.4-0.49-1.979c-0.318-0.747-0.532-1.531-0.735-2.317C21.32,2.94,19.967,0,16,0
		v15C19.866,15,23,12.866,23,9z"/>
	<path class="tangerine_03" d="M16,0c-3.967,0-5.32,2.94-5.775,4.704C10.022,5.49,9.808,6.274,9.49,7.021C9.244,7.6,9,8.34,9,9
		c0,3.866,3.134,6,7,6V0z"/>
	<path class="sapphire_03" d="M19.5,5C18.672,5,18,5.672,18,6.5v2.576c0,0.244,0.177,0.453,0.418,0.493l0.001,0
		c0.703,0.117,1.424,0.009,2.061-0.31l0.243-0.122C20.893,9.053,21,8.88,21,8.691V6.5C21,5.672,20.328,5,19.5,5z"/>
	<path class="grey_17" d="M18.973,8.616c-0.157,0-0.472-0.059-0.472-0.51C18.501,7.655,18.5,6,18.5,6c0-0.551,0.449-1,1-1
		s1,0.449,1,1c0,0,0,1.47,0,1.85c0,0.379-0.243,0.463-0.243,0.463C19.86,8.511,19.417,8.616,18.973,8.616z"/>
	<circle class="grey_01" cx="19.5" cy="6" r="0.5"/>
	<path class="sand_02" d="M11,23c0,1.927,0.556,3.671,1.456,4.936C13.448,28.614,14.636,29,16,29V16C13.239,16,11,19.134,11,23z"/>
	<path class="sand_03" d="M21,23c0-3.866-2.239-7-5-7v13c1.364,0,2.552-0.386,3.544-1.064C20.444,26.671,21,24.927,21,23z"/>
	<path class="sapphire_02" d="M12.5,5C13.328,5,14,5.672,14,6.5v2.576c0,0.244-0.177,0.453-0.418,0.493l-0.001,0
		c-0.703,0.117-1.424,0.009-2.061-0.31l-0.243-0.122C11.107,9.053,11,8.88,11,8.691V6.5C11,5.672,11.672,5,12.5,5z"/>
	<path class="grey_16" d="M13.027,8.616c0.157,0,0.472-0.059,0.472-0.51C13.499,7.655,13.5,6,13.5,6c0-0.551-0.449-1-1-1
		s-1,0.449-1,1c0,0,0,1.47,0,1.85c0,0.379,0.243,0.463,0.243,0.463C12.14,8.511,12.583,8.616,13.027,8.616z"/>
	<circle class="white" cx="12.5" cy="6" r="0.5"/>
	<path class="tangerine_05" d="M22.503,11.438c-1.511,0.912-2.911,0.914-5.003,1.034C17.171,12.491,16.338,13,16,13v2
		C18.954,15,21.475,13.75,22.503,11.438L22.503,11.438z"/>
	<path class="tangerine_04" d="M9.497,11.438L9.497,11.438C10.525,13.75,13.046,15,16,15v-2c-0.338,0-1.171-0.509-1.5-0.528
		C12.408,12.352,11.009,12.35,9.497,11.438z"/>
</g>
</svg>
