<?xml version="1.0" encoding="utf-8"?>
<!-- Generator: Adobe Illustrator 20.1.0, SVG Export Plug-In . SVG Version: 6.00 Build 0)  -->
<!DOCTYPE svg PUBLIC "-//W3C//DTD SVG 1.1//EN" "http://www.w3.org/Graphics/SVG/1.1/DTD/svg11.dtd">
<svg version="1.1" id="icons" xmlns="http://www.w3.org/2000/svg" xmlns:xlink="http://www.w3.org/1999/xlink" x="0px" y="0px"
	 width="32px" height="32px" viewBox="0 0 32 32" style="enable-background:new 0 0 32 32;" xml:space="preserve">
<style type="text/css">
	.white{fill:#FFFFFF;}
	.grey_01{fill:#F7F7F7;}
	.grey_16{fill:#373F3F;}
	.grey_17{fill:#2B3332;}
	.sapphire_01{fill:#137FA0;}
	.sapphire_02{fill:#0F769B;}
	.sapphire_03{fill:#0A6F8E;}
	.grape_06{fill:#C27BC6;}
	.grape_07{fill:#B370B9;}
	.grape_08{fill:#A366AD;}
	.grape_09{fill:#945BA0;}
	.st0{fill:#78DF7C;}
	.st1{fill:#54B668;}
	.st2{fill:#7A63AD;}
	.st3{fill:#866EBA;}
	.st4{fill:#D2E6F3;}
	.st5{fill:#C1DDEE;}
	.st6{fill:#E0C193;}
	.st7{fill:#DBBA8C;}
	.st8{fill:#7FB8E0;}
	.st9{fill:#8EC0E0;}
	.st10{fill:#71B1E1;}
	.st11{fill:#9FC9E4;}
	.st12{fill:#FFEAA7;}
	.st13{fill:#FFE28A;}
	.st14{fill:#FF6B8B;}
	.st15{fill:#F4A984;}
	.st16{fill:#EA9C7A;}
	.st17{fill:#FEF1C6;}
	.st18{fill:#E85160;}
	.st19{fill:#D84459;}
	.st20{fill:#E55D53;}
	.st21{fill:#FFD400;}
	.st22{fill:#FF8F00;}
	.st23{fill:#FF4A00;}
	.st24{fill:#F7D684;}
	.st25{fill:#FAE09F;}
	.st26{fill:#FDEBBB;}
	.st27{fill:#FFF3D9;}
	.st28{fill:#FFD96C;}
	.st29{fill:#9ACC2E;}
	.st30{fill:#AADB3D;}
	.st31{fill:#A2D336;}
	.st32{fill:#93C427;}
	.st33{fill:#F79654;}
	.st34{fill:#FFD04D;}
	.st35{fill:#FCA15E;}
	.st36{fill:#A9E260;}
	.st37{fill:#97DB4A;}
	.st38{fill:#B1E346;}
	.st39{fill:#FCD8DE;}
	.st40{fill:#CDA073;}
	.st41{fill:#C09265;}
	.st42{fill:#A7794C;}
	.st43{fill:#96643B;}
	.st44{fill:#845331;}
	.st45{fill:#B38658;}
	.st46{fill:#9E6E43;}
	.st47{fill:#8D5B36;}
	.st48{fill:#FBCFD6;}
	.st49{fill:#FAC4D1;}
	.st50{fill:#FAB8CD;}
	.st51{fill:#F9ADC8;}
	.st52{fill:#F8A1C4;}
	.st53{fill:#F297BE;}
	.st54{fill:#EA8BB4;}
	.st55{fill:#E8BA36;}
	.st56{fill:#E0B12E;}
	.st57{fill:#FFC172;}
	.st58{fill:#FFAD68;}
	.st59{fill:#FFB76D;}
	.st60{fill:#6E57A0;}
	.st61{fill:#675099;}
	.st62{fill:#F3586F;}
	.st63{fill:#604893;}
	.st64{fill:#CBEB6B;}
	.st65{fill:#4EAC5D;}
	.st66{fill:#BEE758;}
	.st67{fill:#6CD275;}
	.st68{fill:#48A353;}
	.st69{fill:#60C46F;}
	.st70{fill:#D9F07D;}
	.st71{fill:#E6F490;}
	.st72{fill:#4896C8;}
	.st73{fill:#4390BF;}
	.st74{fill:#5CA3D5;}
	.st75{fill:#529CCF;}
	.st76{fill:#F7C845;}
	.st77{fill:#ECCD50;}
	.st78{fill:#FF8D6E;}
	.st79{fill:#FF805D;}
	.st80{fill:#EDEEEE;}
	.st81{fill:#65A9DC;}
	.st82{fill:#8BC07A;}
	.st83{fill:#F0C13E;}
	.st84{fill:#9A3644;}
	.st85{fill:#8A323F;}
	.st86{fill:#F6B392;}
	.st87{fill:#D285D2;}
	.st88{fill:#DBA728;}
	.st89{fill:#505957;}
	.st90{fill:#56C7CD;}
	.st91{fill:#434C4B;}
	.st92{fill:#687271;}
	.st93{fill:#5C6664;}
	.st94{fill:#51BAC5;}
	.st95{fill:#D64F45;}
	.st96{fill:#D1D4D4;}
	.st97{fill:#E3E5E5;}
	.st98{fill:#DADDDC;}
	.st99{fill:#845194;}
	.st100{fill:#5BD3D5;}
	.st101{fill:#46B080;}
	.st102{fill:#53BF8C;}
	.st103{fill:#6EDCA2;}
	.st104{fill:#7AEBAC;}
	.st105{fill:#60CD96;}
	.st106{fill:#E8803A;}
	.st107{fill:#EF8C48;}
	.st108{fill:#838C8A;}
	.st109{fill:#757F7E;}
	.st110{fill:#D1473D;}
	.st111{fill:#9179C6;}
	.st112{fill:#906DBB;}
	.st113{fill:#A78EDD;}
	.st114{fill:#9D85D3;}
	.st115{fill:#E2EFF7;}
	.st116{fill:#B0D3EA;}
	.st117{fill:#F7BC48;}
	.st118{fill:#FFC550;}
	.st119{fill:#FFCF6E;}
	.st120{fill:#4CAEBC;}
	.st121{fill:#47A1B4;}
	.st122{fill:#4295AC;}
	.st123{fill:#FDE2E6;}
	.st124{fill:#FFF5D8;}
	.st125{fill:#99533D;}
	.st126{fill:#914C39;}
	.st127{fill:#D4C9EF;}
	.st128{fill:#E3DBF4;}
	.st129{fill:#F1EDFA;}
	.st130{fill:#C6B7E9;}
	.st131{fill:#B8A5E4;}
	.st132{fill:#F0C877;}
	.st133{fill:#E8BA67;}
	.st134{fill:#DDAA5F;}
	.st135{fill:#D4994F;}
	.st136{fill:#C98B44;}
	.st137{fill:#BF7D3C;}
	.st138{fill:#909997;}
	.st139{fill:#724D31;}
	.st140{fill:#93C2CA;}
	.st141{fill:#99C7CE;}
	.st142{fill:#9FCCD3;}
	.st143{fill:#ACD7DD;}
	.st144{fill:#B9E2E7;}
	.st145{fill:#A5D1D8;}
	.st146{fill:#88B9C3;}
	.st147{fill:#7EB1BD;}
	.st148{fill:#C8CCCB;}
	.st149{fill:none;}
	.st150{fill:#4F4032;}
	.st151{fill:#604631;}
	.st152{fill:#F9BDA0;}
	.st153{fill:#E7685F;}
	.st154{fill:#C84054;}
	.st155{fill:#ABB2B1;}
	.st156{fill:#9DA5A4;}
	.st157{fill:#F74000;}
	.st158{fill:#F97C00;}
	.st159{fill:#F9C900;}
	.st160{fill:#EFD4A7;}
	.st161{fill:#EACEA1;}
	.st162{fill:#FCE8CC;}
	.st163{fill:#F5DEB9;}
	.st164{fill:#CFAB81;}
	.st165{fill:#D5B387;}
	.st166{fill:#3A4274;}
	.st167{fill:#707EB7;}
	.st168{fill:#424B7E;}
	.st169{fill:#7C8AC4;}
	.st170{fill:#FFD98D;}
	.st171{fill:#8694D1;}
	.st172{fill:#9AA6D6;}
	.st173{fill:#ABB4DD;}
	.st174{fill:#FDECEF;}
	.st175{fill:#0F769B;}
	.st176{fill:#EB6B48;}
	.st177{fill:#F57552;}
	.st178{fill:#515E91;}
	.st179{fill:#5C699E;}
	.st180{fill:#6673AA;}
	.st181{fill:#504484;}
	.st182{fill:#FF5F7E;}
	.st183{fill:#EBCEEB;}
	.st184{fill:#E5BDE5;}
	.st185{fill:#E0ABDF;}
	.st186{fill:#D799D6;}
	.st187{fill:#3B8FA3;}
	.st188{fill:#348B99;}
	.st189{fill:#F7F7F7;}
	.st190{fill:#3AA176;}
	.st191{fill:#84ED82;}
	.st192{fill:#EFEAEA;}
	.st193{fill:#FF9A7E;}
	.st194{fill:#FCD2BE;}
	.st195{fill:#FCDDCF;}
	.st196{fill:#C683C8;}
	.st197{fill:#A55F49;}
	.st198{fill:#FEF5F7;}
</style>
<g>
	<path class="grape_08" d="M13,15.5c0,0-7.5,0-5.5-8l-7-2c0,0,2.163,3.726-0.073,6.953c-0.183,0.264-0.071,0.631,0.23,0.742
		c1.326,0.489,4.21,2.078,4.36,6.675c0.013,0.405,0.472,0.641,0.792,0.393C7.014,19.328,9.518,17.958,13,19V15.5z"/>
	<path class="grape_06" d="M0.427,12.453c-0.099,0.142-0.106,0.312-0.049,0.458l6.907-1.628C7.087,10.279,7.115,9.04,7.5,7.5l-7-2
		C0.5,5.5,2.663,9.226,0.427,12.453z"/>
	<path class="grape_07" d="M9.017,14.155c-0.796-0.623-1.468-1.534-1.732-2.872l-6.907,1.628c0.048,0.125,0.141,0.233,0.279,0.284
		c1.326,0.489,4.21,2.078,4.36,6.675c0.008,0.241,0.177,0.405,0.376,0.461L9.017,14.155L9.017,14.155z"/>
	<path class="grape_09" d="M19,15.5c0,0,7.5,0,5.5-8l7-2c0,0-2.163,3.726,0.073,6.953c0.183,0.264,0.071,0.631-0.23,0.742
		c-1.326,0.489-4.21,2.078-4.36,6.675c-0.013,0.405-0.472,0.641-0.792,0.393C24.985,19.328,22.482,17.958,19,19V15.5z"/>
	<path class="grape_07" d="M31.573,12.453c0.099,0.142,0.106,0.312,0.049,0.458l-6.907-1.628c0.198-1.004,0.17-2.243-0.215-3.783
		l7-2C31.5,5.5,29.337,9.226,31.573,12.453z"/>
	<path class="grape_08" d="M22.983,14.155c0.796-0.623,1.468-1.534,1.732-2.872l6.907,1.628c-0.048,0.125-0.141,0.233-0.279,0.284
		c-1.326,0.489-4.21,2.078-4.36,6.675c-0.008,0.241-0.177,0.405-0.376,0.461L22.983,14.155L22.983,14.155z"/>
	<path class="sapphire_03" d="M19.5,16c0.123,0,3.036-0.025,4.723-2.186c1.123-1.438,1.415-3.442,0.872-5.964l6.542-1.869
		c0.266-0.076,0.419-0.353,0.344-0.618c-0.076-0.266-0.355-0.415-0.618-0.344l-7,2c-0.259,0.074-0.413,0.341-0.348,0.602
		c0.606,2.426,0.413,4.3-0.575,5.571C22.058,14.969,19.524,15,19.499,15C19.223,15.001,19,15.225,19,15.501S19.224,16,19.5,16z"/>
	<path class="sapphire_02" d="M12.5,16c-0.123,0-3.036-0.025-4.723-2.186c-1.123-1.438-1.415-3.442-0.872-5.964L0.363,5.981
		C0.097,5.905-0.057,5.628,0.019,5.363c0.076-0.266,0.355-0.415,0.618-0.344l7,2C7.896,7.093,8.05,7.36,7.985,7.621
		c-0.606,2.426-0.413,4.3,0.575,5.571C9.942,14.969,12.476,15,12.501,15C12.777,15.001,13,15.225,13,15.501S12.776,16,12.5,16z"/>
	<path class="sapphire_01" d="M15.464,11.023c-0.3,0.028-0.587,0.098-0.867,0.186C14.191,10.476,13.547,9.5,13,9.5
		c-0.875,0-1,4.891-1,4.891l0,0v0c-0.001,0.168,0.01,0.33,0.032,0.487c0.146,1.037,0.222,2.08,0.084,3.119
		c-0.156,1.171-0.164,2.56,0.033,3.235c0.4,1.371,1.615,2.45,3.089,2.708C15.496,23.984,15.75,24,16,24V11
		C15.824,11,15.645,11.006,15.464,11.023z"/>
	<path class="sapphire_02" d="M20,14.414c0-0.009-0.003-0.016-0.003-0.025L20,14.391c0,0-0.125-4.891-1-4.891
		c-0.545,0-1.188,0.971-1.594,1.703C16.967,11.076,16.497,11,16,11v13c2.208-0.001,4-1.694,4-3.79c0-0.358-0.055-1.203-0.156-2.03
		c-0.128-1.051-0.099-2.111,0.099-3.151C19.98,14.833,20,14.628,20,14.414z"/>
	<path class="sapphire_02" d="M14.5,25c-0.4,0-0.751,0.083-1.081,0.194c-0.353-0.782-0.144-1.472,0.159-1.971
		c-0.276-0.201-0.523-0.434-0.736-0.695c-0.532,0.786-0.887,1.89-0.322,3.107c-0.952,0.653-1.437,1.582-1.467,1.642
		c-0.123,0.247-0.023,0.545,0.223,0.669c0.072,0.036,0.148,0.053,0.224,0.053c0.183,0,0.359-0.1,0.447-0.274
		C11.955,27.708,12.842,26,14.5,26c0.276,0,0.5-0.224,0.5-0.5S14.776,25,14.5,25z"/>
	<path class="sapphire_03" d="M20.947,27.276c-0.03-0.06-0.516-0.989-1.467-1.642c0.567-1.221,0.207-2.329-0.328-3.115
		c-0.214,0.261-0.46,0.494-0.737,0.694c0.307,0.5,0.522,1.192,0.166,1.98C18.251,25.083,17.9,25,17.5,25c-0.276,0-0.5,0.224-0.5,0.5
		s0.224,0.5,0.5,0.5c1.658,0,2.545,1.708,2.554,1.725c0.088,0.174,0.264,0.274,0.447,0.274c0.076,0,0.152-0.017,0.224-0.053
		C20.971,27.822,21.07,27.523,20.947,27.276z"/>
	<path class="grey_16" d="M16,15.5c-0.569,0-1.125-0.042-1.663-0.122c-0.636-0.094-1.185,0.401-1.16,1.044
		c0.024,0.612,0.002,1.169-0.069,1.706c-0.162,1.21-0.126,2.386,0.001,2.823c0.294,1.008,1.219,1.813,2.302,2.003
		C15.61,22.989,15.807,23,16,23l0,0V15.5z"/>
	<path class="grey_17" d="M19,20.21c0-0.276-0.047-1.075-0.149-1.909c-0.076-0.629-0.099-1.256-0.07-1.877
		c0.03-0.641-0.52-1.132-1.155-1.04C17.1,15.46,16.556,15.5,16,15.5V23C17.654,22.999,19,21.747,19,20.21z"/>
	<path class="white" d="M13.397,13.199l1.432,0.716c0.115,0.057,0.169,0.192,0.123,0.312C14.867,14.447,14.636,14.75,14,14.75
		c-0.666,0-0.888-0.776-0.963-1.295C13.009,13.256,13.217,13.109,13.397,13.199z"/>
	<path class="grey_16" d="M13.75,14.709c0.078,0.028,0.155,0.041,0.25,0.041s0.172-0.005,0.25-0.017v-1.108l-0.5-0.25V14.709z"/>
	<path class="grey_01" d="M18.603,13.199l-1.432,0.716c-0.115,0.057-0.169,0.192-0.123,0.312c0.084,0.221,0.316,0.524,0.952,0.524
		c0.666,0,0.888-0.776,0.963-1.295C18.991,13.256,18.783,13.109,18.603,13.199z"/>
	<path class="grey_17" d="M18.25,14.709c-0.078,0.028-0.155,0.041-0.25,0.041s-0.172-0.005-0.25-0.017v-1.108l0.5-0.25V14.709z"/>
	<path class="grey_01" d="M17.627,15.384c-0.171,0.025-0.346,0.039-0.521,0.056c0.098,0.577,0.251,1.31,0.394,1.31
		c0.146,0,0.302-0.763,0.4-1.346C17.81,15.393,17.723,15.37,17.627,15.384z"/>
	<path class="white" d="M14.337,15.378c-0.083-0.012-0.158,0.01-0.238,0.017c0.098,0.584,0.255,1.354,0.401,1.354
		c0.143,0,0.296-0.733,0.394-1.31C14.707,15.422,14.52,15.406,14.337,15.378z"/>
	<path class="white" d="M14.136,22.39c0.242,0.182,0.511,0.331,0.801,0.434c-0.092-0.586-0.271-1.574-0.437-1.574
		C14.371,21.25,14.234,21.848,14.136,22.39z"/>
	<path class="grey_01" d="M17.862,22.38c-0.098-0.539-0.233-1.13-0.362-1.13c-0.164,0-0.342,0.971-0.435,1.559
		C17.357,22.706,17.622,22.558,17.862,22.38z"/>
	<path class="grape_06" d="M14.121,11.379c-0.38-0.666-0.789-1.21-1.032-1.347c-0.188,0.33-0.37,1.327-0.482,2.554
		C12.982,12.072,13.509,11.656,14.121,11.379z"/>
	<path class="grape_07" d="M19.387,12.524c-0.113-1.197-0.291-2.165-0.476-2.491c-0.244,0.137-0.652,0.679-1.031,1.343
		C18.498,11.636,19.018,12.021,19.387,12.524z"/>
</g>
</svg>
