<?xml version="1.0" encoding="utf-8"?>
<!-- Generator: Adobe Illustrator 20.1.0, SVG Export Plug-In . SVG Version: 6.00 Build 0)  -->
<!DOCTYPE svg PUBLIC "-//W3C//DTD SVG 1.1//EN" "http://www.w3.org/Graphics/SVG/1.1/DTD/svg11.dtd">
<svg version="1.1" id="icons" xmlns="http://www.w3.org/2000/svg" xmlns:xlink="http://www.w3.org/1999/xlink" x="0px" y="0px"
	 width="32px" height="32px" viewBox="0 0 32 32" style="enable-background:new 0 0 32 32;" xml:space="preserve">
<style type="text/css">
	.white{fill:#FFFFFF;}
	.grey_01{fill:#F7F7F7;}
	.grey_16{fill:#373F3F;}
	.grey_17{fill:#2B3332;}
	.orchid_01{fill:#F1EDFA;}
	.orchid_02{fill:#E3DBF4;}
	.orchid_03{fill:#D4C9EF;}
	.orchid_04{fill:#C6B7E9;}
	.orchid_05{fill:#B8A5E4;}
	.orchid_06{fill:#A78EDD;}
	.orchid_07{fill:#9D85D3;}
	.st0{fill:#78DF7C;}
	.st1{fill:#54B668;}
	.st2{fill:#7A63AD;}
	.st3{fill:#866EBA;}
	.st4{fill:#D2E6F3;}
	.st5{fill:#C1DDEE;}
	.st6{fill:#E0C193;}
	.st7{fill:#DBBA8C;}
	.st8{fill:#7FB8E0;}
	.st9{fill:#8EC0E0;}
	.st10{fill:#71B1E1;}
	.st11{fill:#9FC9E4;}
	.st12{fill:#FFEAA7;}
	.st13{fill:#FFE28A;}
	.st14{fill:#FF6B8B;}
	.st15{fill:#F4A984;}
	.st16{fill:#EA9C7A;}
	.st17{fill:#FEF1C6;}
	.st18{fill:#E85160;}
	.st19{fill:#D84459;}
	.st20{fill:#E55D53;}
	.st21{fill:#FFD400;}
	.st22{fill:#FF8F00;}
	.st23{fill:#FF4A00;}
	.st24{fill:#F7D684;}
	.st25{fill:#FAE09F;}
	.st26{fill:#FDEBBB;}
	.st27{fill:#FFF3D9;}
	.st28{fill:#FFD96C;}
	.st29{fill:#9ACC2E;}
	.st30{fill:#AADB3D;}
	.st31{fill:#A2D336;}
	.st32{fill:#93C427;}
	.st33{fill:#F79654;}
	.st34{fill:#FFD04D;}
	.st35{fill:#FCA15E;}
	.st36{fill:#A9E260;}
	.st37{fill:#97DB4A;}
	.st38{fill:#B1E346;}
	.st39{fill:#FCD8DE;}
	.st40{fill:#CDA073;}
	.st41{fill:#C09265;}
	.st42{fill:#A7794C;}
	.st43{fill:#96643B;}
	.st44{fill:#845331;}
	.st45{fill:#B38658;}
	.st46{fill:#9E6E43;}
	.st47{fill:#8D5B36;}
	.st48{fill:#FBCFD6;}
	.st49{fill:#FAC4D1;}
	.st50{fill:#FAB8CD;}
	.st51{fill:#F9ADC8;}
	.st52{fill:#F8A1C4;}
	.st53{fill:#F297BE;}
	.st54{fill:#EA8BB4;}
	.st55{fill:#E8BA36;}
	.st56{fill:#E0B12E;}
	.st57{fill:#FFC172;}
	.st58{fill:#FFAD68;}
	.st59{fill:#FFB76D;}
	.st60{fill:#6E57A0;}
	.st61{fill:#675099;}
	.st62{fill:#F3586F;}
	.st63{fill:#604893;}
	.st64{fill:#CBEB6B;}
	.st65{fill:#4EAC5D;}
	.st66{fill:#BEE758;}
	.st67{fill:#6CD275;}
	.st68{fill:#48A353;}
	.st69{fill:#60C46F;}
	.st70{fill:#D9F07D;}
	.st71{fill:#E6F490;}
	.st72{fill:#4896C8;}
	.st73{fill:#4390BF;}
	.st74{fill:#5CA3D5;}
	.st75{fill:#529CCF;}
	.st76{fill:#F7C845;}
	.st77{fill:#ECCD50;}
	.st78{fill:#FF8D6E;}
	.st79{fill:#FF805D;}
	.st80{fill:#EDEEEE;}
	.st81{fill:#65A9DC;}
	.st82{fill:#8BC07A;}
	.st83{fill:#F0C13E;}
	.st84{fill:#9A3644;}
	.st85{fill:#8A323F;}
	.st86{fill:#945BA0;}
	.st87{fill:#A366AD;}
	.st88{fill:#B370B9;}
	.st89{fill:#C27BC6;}
	.st90{fill:#F6B392;}
	.st91{fill:#D285D2;}
	.st92{fill:#DBA728;}
	.st93{fill:#505957;}
	.st94{fill:#56C7CD;}
	.st95{fill:#434C4B;}
	.st96{fill:#687271;}
	.st97{fill:#5C6664;}
	.st98{fill:#51BAC5;}
	.st99{fill:#D64F45;}
	.st100{fill:#D1D4D4;}
	.st101{fill:#E3E5E5;}
	.st102{fill:#DADDDC;}
	.st103{fill:#845194;}
	.st104{fill:#5BD3D5;}
	.st105{fill:#46B080;}
	.st106{fill:#53BF8C;}
	.st107{fill:#6EDCA2;}
	.st108{fill:#7AEBAC;}
	.st109{fill:#60CD96;}
	.st110{fill:#E8803A;}
	.st111{fill:#0A6F8E;}
	.st112{fill:#0F769B;}
	.st113{fill:#EF8C48;}
	.st114{fill:#838C8A;}
	.st115{fill:#757F7E;}
	.st116{fill:#D1473D;}
	.st117{fill:#9179C6;}
	.st118{fill:#906DBB;}
	.st119{fill:#E2EFF7;}
	.st120{fill:#B0D3EA;}
	.st121{fill:#F7BC48;}
	.st122{fill:#FFC550;}
	.st123{fill:#FFCF6E;}
	.st124{fill:#4CAEBC;}
	.st125{fill:#47A1B4;}
	.st126{fill:#4295AC;}
	.st127{fill:#FDE2E6;}
	.st128{fill:#FFF5D8;}
	.st129{fill:#99533D;}
	.st130{fill:#914C39;}
	.st131{fill:#F0C877;}
	.st132{fill:#E8BA67;}
	.st133{fill:#DDAA5F;}
	.st134{fill:#D4994F;}
	.st135{fill:#C98B44;}
	.st136{fill:#BF7D3C;}
	.st137{fill:#909997;}
	.st138{fill:#724D31;}
	.st139{fill:#93C2CA;}
	.st140{fill:#99C7CE;}
	.st141{fill:#9FCCD3;}
	.st142{fill:#ACD7DD;}
	.st143{fill:#B9E2E7;}
	.st144{fill:#A5D1D8;}
	.st145{fill:#88B9C3;}
	.st146{fill:#7EB1BD;}
	.st147{fill:#C8CCCB;}
	.st148{fill:none;}
	.st149{fill:#4F4032;}
	.st150{fill:#604631;}
	.st151{fill:#F9BDA0;}
	.st152{fill:#E7685F;}
	.st153{fill:#C84054;}
	.st154{fill:#ABB2B1;}
	.st155{fill:#9DA5A4;}
	.st156{fill:#F74000;}
	.st157{fill:#F97C00;}
	.st158{fill:#F9C900;}
	.st159{fill:#EFD4A7;}
	.st160{fill:#EACEA1;}
	.st161{fill:#FCE8CC;}
	.st162{fill:#F5DEB9;}
	.st163{fill:#CFAB81;}
	.st164{fill:#D5B387;}
	.st165{fill:#3A4274;}
	.st166{fill:#707EB7;}
	.st167{fill:#424B7E;}
	.st168{fill:#7C8AC4;}
	.st169{fill:#FFD98D;}
	.st170{fill:#8694D1;}
	.st171{fill:#9AA6D6;}
	.st172{fill:#ABB4DD;}
	.st173{fill:#FDECEF;}
	.st174{fill:#137FA0;}
	.st175{fill:#EB6B48;}
	.st176{fill:#F57552;}
	.st177{fill:#515E91;}
	.st178{fill:#5C699E;}
	.st179{fill:#6673AA;}
	.st180{fill:#504484;}
	.st181{fill:#FF5F7E;}
	.st182{fill:#EBCEEB;}
	.st183{fill:#E5BDE5;}
	.st184{fill:#E0ABDF;}
	.st185{fill:#D799D6;}
	.st186{fill:#3B8FA3;}
	.st187{fill:#348B99;}
	.st188{fill:#F7F7F7;}
	.st189{fill:#3AA176;}
	.st190{fill:#84ED82;}
	.st191{fill:#EFEAEA;}
	.st192{fill:#FF9A7E;}
	.st193{fill:#FCD2BE;}
	.st194{fill:#FCDDCF;}
	.st195{fill:#C683C8;}
	.st196{fill:#A55F49;}
	.st197{fill:#FEF5F7;}
</style>
<g>
	<path class="orchid_03" d="M29.414,28.586c-0.152-0.152-0.377-0.328-0.645-0.507c-0.52-0.347-0.586-1.089-0.144-1.532l0.033-0.033
		c2.135-2.135,1.225-5.776-1.664-6.655l-9.886-3.009L16,17.958v6.452l1.79,4.922c1,2.75,4.518,3.531,6.588,1.461l0.169-0.169
		c0.442-0.442,1.185-0.376,1.532,0.144c0.179,0.269,0.355,0.493,0.507,0.645c0.781,0.781,2.047,0.781,2.828,0
		C30.195,30.633,30.195,29.367,29.414,28.586z"/>
	<path class="orchid_02" d="M16,17.958l-1.108-1.108l-9.886,3.009c-2.889,0.879-3.799,4.52-1.664,6.655l0.033,0.033
		c0.442,0.442,0.376,1.185-0.144,1.532c-0.269,0.179-0.493,0.355-0.645,0.507c-0.781,0.781-0.781,2.047,0,2.828
		c0.781,0.781,2.047,0.781,2.828,0c0.152-0.152,0.328-0.377,0.507-0.645c0.347-0.52,1.089-0.586,1.532-0.144l0.169,0.169
		c2.069,2.069,5.587,1.289,6.588-1.461L16,24.41V17.958z"/>
	<path class="orchid_01" d="M16,22c-2.209,0-3,1.791-3,4c0,2.209,1.792,6,3,6V22z"/>
	<path class="orchid_02" d="M19,26c0-2.209-0.791-4-3-4v10C17.208,32,19,28.209,19,26z"/>
	<path class="orchid_03" d="M30.53,0.449C27.024-2.18,16,12.908,16,12.908v8.743c17.414,7.58,11.895-3.683,12.53-7.201
		C29.17,10.899,34.53,3.449,30.53,0.449z"/>
	<path class="orchid_04" d="M28.824,21.034c-0.465-0.528-1.079-0.946-1.831-1.175l-9.886-3.009L16,17.958v3.693
		C26.073,26.035,28.468,24.113,28.824,21.034z"/>
	<path class="orchid_02" d="M16,12.908c0,0-11.024-15.089-14.53-12.459c-4,3,1.36,10.449,2,14C4.105,17.968-1.414,29.231,16,21.651
		V12.908z"/>
	<path class="orchid_03" d="M16,21.651v-3.693l-1.108-1.108l-9.886,3.009c-0.752,0.229-1.366,0.647-1.831,1.175
		C3.532,24.113,5.927,26.035,16,21.651z"/>
	<path class="orchid_06" d="M16,17c-2.209,0-3,0.791-3,3c0,2.209,0.791,3,3,3V17z"/>
	<path class="orchid_07" d="M19,20c0-2.209-0.791-3-3-3v6C18.209,23,19,22.209,19,20z"/>
	<path class="white" d="M15,17c0,0-1,0.115-1,0.853c0,0.569,0.241,0.947,0.624,1.181C14.788,19.135,15,19.01,15,18.817V17z"/>
	<path class="grey_01" d="M17,17c0,0,1,0.115,1,0.853c0,0.569-0.241,0.947-0.624,1.181C17.212,19.135,17,19.01,17,18.817V17z"/>
	<path class="white" d="M14,19.5c0,0.276-0.698,0.5-1.25,0.5S12,19.776,12,19.5s0.198-0.5,0.75-0.5S14,19.224,14,19.5z"/>
	<path class="grey_01" d="M20,19.5c0,0.276-0.198,0.5-0.75,0.5S18,19.776,18,19.5s0.698-0.5,1.25-0.5S20,19.224,20,19.5z"/>
	<path class="white" d="M14,21.5c0,0.276-0.698,0.5-1.25,0.5S12,21.776,12,21.5s0.198-0.5,0.75-0.5S14,21.224,14,21.5z"/>
	<path class="grey_01" d="M20,21.5c0,0.276-0.198,0.5-0.75,0.5S18,21.776,18,21.5s0.698-0.5,1.25-0.5S20,21.224,20,21.5z"/>
	<path class="white" d="M14,20.5c0,0.276-0.698,0.5-1.25,0.5S12,20.776,12,20.5s0.198-0.5,0.75-0.5S14,20.224,14,20.5z"/>
	<path class="grey_01" d="M20,20.5c0,0.276-0.198,0.5-0.75,0.5S18,20.776,18,20.5s0.698-0.5,1.25-0.5S20,20.224,20,20.5z"/>
	<path class="orchid_06" d="M16,12l-5.139-6.852c-0.168-0.224-0.521-0.044-0.439,0.224l3.04,9.881
		c0.353,1.147,0.981,2.191,1.83,3.04l0,0c0.195,0.195,0.451,0.293,0.707,0.293V12z"/>
	<path class="orchid_07" d="M16.707,18.293L16.707,18.293c0.849-0.849,1.477-1.893,1.831-3.04l3.04-9.881
		c0.082-0.268-0.271-0.448-0.439-0.224L16,12v6.586C16.256,18.586,16.512,18.488,16.707,18.293z"/>
	<g>
		<circle class="white" cx="13" cy="15" r="2"/>
		<circle class="grey_16" cx="13" cy="15" r="1"/>
	</g>
	<g>
		<circle class="grey_01" cx="19" cy="15" r="2"/>
		<circle class="grey_17" cx="19" cy="15" r="1"/>
	</g>
	<path class="orchid_05" d="M16,0c-0.107,0-0.213,0.064-0.243,0.193C15.224,2.474,14,8.05,14,11.179
		c0,2.782,0.968,5.081,1.557,6.222c0.093,0.18,0.268,0.27,0.443,0.27V0z"/>
	<path class="orchid_06" d="M16.443,17.402C17.032,16.26,18,13.962,18,11.179c0-3.129-1.224-8.706-1.757-10.986
		C16.213,0.064,16.107,0,16,0v17.672C16.175,17.672,16.35,17.582,16.443,17.402z"/>
</g>
</svg>
