<?xml version="1.0" encoding="utf-8"?>
<!-- Generator: Adobe Illustrator 20.1.0, SVG Export Plug-In . SVG Version: 6.00 Build 0)  -->
<!DOCTYPE svg PUBLIC "-//W3C//DTD SVG 1.1//EN" "http://www.w3.org/Graphics/SVG/1.1/DTD/svg11.dtd">
<svg version="1.1" id="icons" xmlns="http://www.w3.org/2000/svg" xmlns:xlink="http://www.w3.org/1999/xlink" x="0px" y="0px"
	 width="32px" height="32px" viewBox="0 0 32 32" style="enable-background:new 0 0 32 32;" xml:space="preserve">
<style type="text/css">
	.white{fill:#FFFFFF;}
	.grey_01{fill:#F7F7F7;}
	.grey_16{fill:#373F3F;}
	.grey_17{fill:#2B3332;}
	.sapphire_02{fill:#0F769B;}
	.sapphire_03{fill:#0A6F8E;}
	.vermillion_02{fill:#FF9A7E;}
	.vermillion_03{fill:#FF8D6E;}
	.vermillion_04{fill:#FF805D;}
	.vermillion_05{fill:#F57552;}
	.vermillion_06{fill:#EB6B48;}
	.salmon_01{fill:#FCDDCF;}
	.salmon_02{fill:#FCD2BE;}
	.flamered_01{fill:#FF4A00;}
	.flameorange_01{fill:#FF8F00;}
	.flameyellow_01{fill:#FFD400;}
	.st0{fill:#78DF7C;}
	.st1{fill:#54B668;}
	.st2{fill:#7A63AD;}
	.st3{fill:#866EBA;}
	.st4{fill:#D2E6F3;}
	.st5{fill:#C1DDEE;}
	.st6{fill:#E0C193;}
	.st7{fill:#DBBA8C;}
	.st8{fill:#7FB8E0;}
	.st9{fill:#8EC0E0;}
	.st10{fill:#71B1E1;}
	.st11{fill:#9FC9E4;}
	.st12{fill:#FFEAA7;}
	.st13{fill:#FFE28A;}
	.st14{fill:#FF6B8B;}
	.st15{fill:#F4A984;}
	.st16{fill:#EA9C7A;}
	.st17{fill:#FEF1C6;}
	.st18{fill:#E85160;}
	.st19{fill:#D84459;}
	.st20{fill:#E55D53;}
	.st21{fill:#F7D684;}
	.st22{fill:#FAE09F;}
	.st23{fill:#FDEBBB;}
	.st24{fill:#FFF3D9;}
	.st25{fill:#FFD96C;}
	.st26{fill:#9ACC2E;}
	.st27{fill:#AADB3D;}
	.st28{fill:#A2D336;}
	.st29{fill:#93C427;}
	.st30{fill:#F79654;}
	.st31{fill:#FFD04D;}
	.st32{fill:#FCA15E;}
	.st33{fill:#A9E260;}
	.st34{fill:#97DB4A;}
	.st35{fill:#B1E346;}
	.st36{fill:#FCD8DE;}
	.st37{fill:#CDA073;}
	.st38{fill:#C09265;}
	.st39{fill:#A7794C;}
	.st40{fill:#96643B;}
	.st41{fill:#845331;}
	.st42{fill:#B38658;}
	.st43{fill:#9E6E43;}
	.st44{fill:#8D5B36;}
	.st45{fill:#FBCFD6;}
	.st46{fill:#FAC4D1;}
	.st47{fill:#FAB8CD;}
	.st48{fill:#F9ADC8;}
	.st49{fill:#F8A1C4;}
	.st50{fill:#F297BE;}
	.st51{fill:#EA8BB4;}
	.st52{fill:#E8BA36;}
	.st53{fill:#E0B12E;}
	.st54{fill:#FFC172;}
	.st55{fill:#FFAD68;}
	.st56{fill:#FFB76D;}
	.st57{fill:#6E57A0;}
	.st58{fill:#675099;}
	.st59{fill:#F3586F;}
	.st60{fill:#604893;}
	.st61{fill:#CBEB6B;}
	.st62{fill:#4EAC5D;}
	.st63{fill:#BEE758;}
	.st64{fill:#6CD275;}
	.st65{fill:#48A353;}
	.st66{fill:#60C46F;}
	.st67{fill:#D9F07D;}
	.st68{fill:#E6F490;}
	.st69{fill:#4896C8;}
	.st70{fill:#4390BF;}
	.st71{fill:#5CA3D5;}
	.st72{fill:#529CCF;}
	.st73{fill:#F7C845;}
	.st74{fill:#ECCD50;}
	.st75{fill:#EDEEEE;}
	.st76{fill:#65A9DC;}
	.st77{fill:#8BC07A;}
	.st78{fill:#F0C13E;}
	.st79{fill:#9A3644;}
	.st80{fill:#8A323F;}
	.st81{fill:#945BA0;}
	.st82{fill:#A366AD;}
	.st83{fill:#B370B9;}
	.st84{fill:#C27BC6;}
	.st85{fill:#F6B392;}
	.st86{fill:#D285D2;}
	.st87{fill:#DBA728;}
	.st88{fill:#505957;}
	.st89{fill:#56C7CD;}
	.st90{fill:#434C4B;}
	.st91{fill:#687271;}
	.st92{fill:#5C6664;}
	.st93{fill:#51BAC5;}
	.st94{fill:#D64F45;}
	.st95{fill:#D1D4D4;}
	.st96{fill:#E3E5E5;}
	.st97{fill:#DADDDC;}
	.st98{fill:#845194;}
	.st99{fill:#5BD3D5;}
	.st100{fill:#46B080;}
	.st101{fill:#53BF8C;}
	.st102{fill:#6EDCA2;}
	.st103{fill:#7AEBAC;}
	.st104{fill:#60CD96;}
	.st105{fill:#E8803A;}
	.st106{fill:#EF8C48;}
	.st107{fill:#838C8A;}
	.st108{fill:#757F7E;}
	.st109{fill:#D1473D;}
	.st110{fill:#9179C6;}
	.st111{fill:#906DBB;}
	.st112{fill:#A78EDD;}
	.st113{fill:#9D85D3;}
	.st114{fill:#E2EFF7;}
	.st115{fill:#B0D3EA;}
	.st116{fill:#F7BC48;}
	.st117{fill:#FFC550;}
	.st118{fill:#FFCF6E;}
	.st119{fill:#4CAEBC;}
	.st120{fill:#47A1B4;}
	.st121{fill:#4295AC;}
	.st122{fill:#FDE2E6;}
	.st123{fill:#FFF5D8;}
	.st124{fill:#99533D;}
	.st125{fill:#914C39;}
	.st126{fill:#D4C9EF;}
	.st127{fill:#E3DBF4;}
	.st128{fill:#F1EDFA;}
	.st129{fill:#C6B7E9;}
	.st130{fill:#B8A5E4;}
	.st131{fill:#F0C877;}
	.st132{fill:#E8BA67;}
	.st133{fill:#DDAA5F;}
	.st134{fill:#D4994F;}
	.st135{fill:#C98B44;}
	.st136{fill:#BF7D3C;}
	.st137{fill:#909997;}
	.st138{fill:#724D31;}
	.st139{fill:#93C2CA;}
	.st140{fill:#99C7CE;}
	.st141{fill:#9FCCD3;}
	.st142{fill:#ACD7DD;}
	.st143{fill:#B9E2E7;}
	.st144{fill:#A5D1D8;}
	.st145{fill:#88B9C3;}
	.st146{fill:#7EB1BD;}
	.st147{fill:#C8CCCB;}
	.st148{fill:none;}
	.st149{fill:#4F4032;}
	.st150{fill:#604631;}
	.st151{fill:#F9BDA0;}
	.st152{fill:#E7685F;}
	.st153{fill:#C84054;}
	.st154{fill:#ABB2B1;}
	.st155{fill:#9DA5A4;}
	.st156{fill:#F74000;}
	.st157{fill:#F97C00;}
	.st158{fill:#F9C900;}
	.st159{fill:#EFD4A7;}
	.st160{fill:#EACEA1;}
	.st161{fill:#FCE8CC;}
	.st162{fill:#F5DEB9;}
	.st163{fill:#CFAB81;}
	.st164{fill:#D5B387;}
	.st165{fill:#3A4274;}
	.st166{fill:#707EB7;}
	.st167{fill:#424B7E;}
	.st168{fill:#7C8AC4;}
	.st169{fill:#FFD98D;}
	.st170{fill:#8694D1;}
	.st171{fill:#9AA6D6;}
	.st172{fill:#ABB4DD;}
	.st173{fill:#FDECEF;}
	.st174{fill:#0F769B;}
	.st175{fill:#137FA0;}
	.st176{fill:#515E91;}
	.st177{fill:#5C699E;}
	.st178{fill:#6673AA;}
	.st179{fill:#504484;}
	.st180{fill:#FF5F7E;}
	.st181{fill:#EBCEEB;}
	.st182{fill:#E5BDE5;}
	.st183{fill:#E0ABDF;}
	.st184{fill:#D799D6;}
	.st185{fill:#3B8FA3;}
	.st186{fill:#348B99;}
	.st187{fill:#F7F7F7;}
	.st188{fill:#3AA176;}
	.st189{fill:#84ED82;}
	.st190{fill:#EFEAEA;}
	.st191{fill:#C683C8;}
	.st192{fill:#A55F49;}
	.st193{fill:#FEF5F7;}
</style>
<g>
	<path class="vermillion_06" d="M16,20c0,0,9,0,9-10h2c0,0,2.114,18-11,18V20z"/>
	<g>
		<path class="flamered_01" d="M25,10h1.998l0.002-0.001c2.377-1.188,3.129-4.219,1.585-6.381l-1.771-2.479
			c-0.399-0.558-1.229-0.558-1.627,0L23.414,3.62c-1.544,2.161-0.791,5.191,1.584,6.379L25,10z"/>
		<path class="flameorange_01" d="M25,10c0,0-1.054-1.119-1.255-1.931c-0.221-0.891-0.042-1.829,0.491-2.576l1.357-1.9
			c0.199-0.279,0.614-0.279,0.814,0l1.357,1.9c0.534,0.747,0.713,1.686,0.492,2.577C28.054,8.881,26.998,10,26.998,10H25z"/>
		<path class="flameyellow_01" d="M25,10l-0.001-0.003c-0.496-0.944-0.336-2.381,0.355-3.193L25.81,6.27
			c0.1-0.117,0.281-0.117,0.381,0l0.453,0.532C27.335,7.614,27.495,9.051,27,9.996L26.998,10H25z"/>
	</g>
	<path class="vermillion_04" d="M12.001,14L12,14.001V14l-2.745,0.915c-2.11,0.703-3.925,2.09-5.158,3.94l-1.159,1.739
		C2.42,21.37,2.63,22.42,3.406,22.937l0.001,0.001c0.846,0.564,1.994,0.259,2.449-0.65l0.951-1.903
		c0.748-1.496,1.951-2.708,3.428-3.487C9.433,18.792,9,20.981,9,23c0,0.121,0.009,0.232,0.012,0.349C8.456,23.97,8,24.832,8,26
		c0,3,1,4,1,4s-1.574,0-1.929,1.396C6.993,31.703,7.247,32,7.563,32h4.022c0.265,0,0.52-0.105,0.707-0.293l0.414-0.414
		C12.895,31.105,13,30.851,13,30.586V29.59c0.874,0.277,1.877,0.41,3,0.41V14H12.001z"/>
	<path class="vermillion_05" d="M29.063,20.594l-1.159-1.739c-1.234-1.85-3.049-3.237-5.158-3.94L20,14v0.001L19.999,14H16v16
		c1.123,0,2.126-0.133,3-0.41v0.996c0,0.265,0.105,0.52,0.293,0.707l0.414,0.414C19.895,31.895,20.149,32,20.414,32h4.022
		c0.317,0,0.571-0.297,0.493-0.604C24.574,30,23,30,23,30s1-1,1-4c0-1.168-0.456-2.03-1.012-2.651C22.991,23.232,23,23.121,23,23
		c0-2.019-0.433-4.208-1.235-6.102c1.476,0.779,2.68,1.991,3.428,3.487l0.951,1.903c0.455,0.909,1.603,1.214,2.449,0.65l0.001-0.001
		C29.37,22.42,29.58,21.37,29.063,20.594z"/>
	<path class="vermillion_03" d="M21.58,9.085c-0.273-0.647-0.456-1.327-0.63-2.008c-0.258-1.013-0.86-2.47-2.223-3.34
		c-0.549-0.35-0.943-0.895-1.008-1.542L17.59,0.9C17.539,0.389,17.109,0,16.595,0H16v16c3.314,0,6-1.849,6-5.2
		C22,10.228,21.791,9.587,21.58,9.085z"/>
	<path class="vermillion_02" d="M15.405,0c-0.514,0-0.944,0.389-0.995,0.9l-0.129,1.294c-0.065,0.647-0.459,1.192-1.008,1.542
		c-1.363,0.87-1.964,2.327-2.223,3.34c-0.174,0.681-0.357,1.361-0.63,2.008C10.209,9.587,10,10.228,10,10.8c0,3.351,2.686,5.2,6,5.2
		V0H15.405z"/>
	<path class="vermillion_03" d="M10.426,12.913L10.426,12.913C11.307,14.917,13.468,16,16,16v-1.733
		c-0.289,0-1.004-0.441-1.286-0.458C12.921,13.705,11.722,13.703,10.426,12.913z"/>
	<g>
		<path class="white" d="M13.967,10.575c-0.281-0.54-0.902-1.454-2.035-1.882c-0.09-0.034-0.193-0.021-0.27,0.036
			c-0.153,0.112-0.397,0.364-0.569,0.899c-0.176,0.549-0.067,0.97,0.028,1.194C11.168,10.931,11.274,11,11.393,11h2.311
			C13.922,11,14.068,10.769,13.967,10.575z"/>
		<path class="sapphire_02" d="M13.967,10.575c-0.26-0.5-0.818-1.317-1.799-1.775c-0.149,0.135-0.342,0.377-0.487,0.828
			c-0.176,0.549-0.067,0.97,0.028,1.194C11.756,10.931,11.862,11,11.981,11h1.723C13.922,11,14.068,10.769,13.967,10.575z"/>
		<path class="grey_16" d="M13.29,10.822c0.092-0.216,0.192-0.621,0.039-1.144c-0.21-0.231-0.456-0.461-0.763-0.656
			c-0.103,0.143-0.208,0.333-0.296,0.607c-0.176,0.549-0.067,0.97,0.028,1.194C12.344,10.931,12.45,11,12.569,11h0.449
			C13.138,11,13.244,10.931,13.29,10.822z"/>
	</g>
	<g>
		<path class="grey_01" d="M18.033,10.575c0.281-0.54,0.902-1.454,2.035-1.882c0.09-0.034,0.193-0.021,0.27,0.036
			c0.153,0.112,0.397,0.364,0.569,0.899c0.176,0.549,0.067,0.97-0.028,1.194C20.832,10.931,20.726,11,20.607,11h-2.311
			C18.078,11,17.932,10.769,18.033,10.575z"/>
		<path class="sapphire_03" d="M20.29,10.822c0.095-0.223,0.204-0.645,0.028-1.194c-0.145-0.45-0.337-0.693-0.487-0.828
			c-0.98,0.458-1.538,1.274-1.799,1.775C17.932,10.769,18.078,11,18.296,11h1.723C20.138,11,20.244,10.931,20.29,10.822z"/>
		<path class="grey_17" d="M19.702,10.822c0.095-0.223,0.204-0.645,0.028-1.194c-0.088-0.274-0.193-0.464-0.296-0.607
			c-0.307,0.196-0.553,0.425-0.763,0.656c-0.153,0.524-0.053,0.928,0.039,1.144C18.756,10.931,18.862,11,18.981,11h0.449
			C19.55,11,19.656,10.931,19.702,10.822z"/>
	</g>
	<path class="salmon_02" d="M21,25c0-3.866-2.239-8-5-8v13c1.19,0,2.244-0.15,3.152-0.464c0.56-0.194,0.999-0.627,1.219-1.178
		C20.768,27.362,21,26.223,21,25z"/>
	<path class="salmon_01" d="M11,25c0,1.223,0.232,2.362,0.63,3.358c0.22,0.55,0.659,0.984,1.219,1.178C13.756,29.85,14.81,30,16,30
		V17C13.239,17,11,21.134,11,25z"/>
	<path class="vermillion_04" d="M21.574,12.913c-1.296,0.79-2.495,0.792-4.288,0.896c-0.282,0.016-0.996,0.458-1.286,0.458V16
		C18.532,16,20.693,14.917,21.574,12.913L21.574,12.913z"/>
</g>
</svg>
