<?xml version="1.0" encoding="utf-8"?>
<!-- Generator: Adobe Illustrator 20.1.0, SVG Export Plug-In . SVG Version: 6.00 Build 0)  -->
<!DOCTYPE svg PUBLIC "-//W3C//DTD SVG 1.1//EN" "http://www.w3.org/Graphics/SVG/1.1/DTD/svg11.dtd">
<svg version="1.1" id="icons" xmlns="http://www.w3.org/2000/svg" xmlns:xlink="http://www.w3.org/1999/xlink" x="0px" y="0px"
	 width="32px" height="32px" viewBox="0 0 32 32" style="enable-background:new 0 0 32 32;" xml:space="preserve">
<style type="text/css">
	.white{fill:#FFFFFF;}
	.grey_01{fill:#F7F7F7;}
	.grey_16{fill:#373F3F;}
	.grey_17{fill:#2B3332;}
	.tulip_05{fill:#E85160;}
	.tulip_06{fill:#D84459;}
	.sand_01{fill:#FFF3D9;}
	.sand_02{fill:#FDEBBB;}
	.sand_03{fill:#FAE09F;}
	.sand_04{fill:#F7D684;}
	.sand_05{fill:#F0C877;}
	.sand_06{fill:#E8BA67;}
	.sand_07{fill:#DDAA5F;}
	.st0{fill:#78DF7C;}
	.st1{fill:#54B668;}
	.st2{fill:#7A63AD;}
	.st3{fill:#866EBA;}
	.st4{fill:#D2E6F3;}
	.st5{fill:#C1DDEE;}
	.st6{fill:#E0C193;}
	.st7{fill:#DBBA8C;}
	.st8{fill:#7FB8E0;}
	.st9{fill:#8EC0E0;}
	.st10{fill:#71B1E1;}
	.st11{fill:#9FC9E4;}
	.st12{fill:#FFEAA7;}
	.st13{fill:#FFE28A;}
	.st14{fill:#FF6B8B;}
	.st15{fill:#F4A984;}
	.st16{fill:#EA9C7A;}
	.st17{fill:#FEF1C6;}
	.st18{fill:#E55D53;}
	.st19{fill:#FFD400;}
	.st20{fill:#FF8F00;}
	.st21{fill:#FF4A00;}
	.st22{fill:#FFD96C;}
	.st23{fill:#9ACC2E;}
	.st24{fill:#AADB3D;}
	.st25{fill:#A2D336;}
	.st26{fill:#93C427;}
	.st27{fill:#F79654;}
	.st28{fill:#FFD04D;}
	.st29{fill:#FCA15E;}
	.st30{fill:#A9E260;}
	.st31{fill:#97DB4A;}
	.st32{fill:#B1E346;}
	.st33{fill:#FCD8DE;}
	.st34{fill:#CDA073;}
	.st35{fill:#C09265;}
	.st36{fill:#A7794C;}
	.st37{fill:#96643B;}
	.st38{fill:#845331;}
	.st39{fill:#B38658;}
	.st40{fill:#9E6E43;}
	.st41{fill:#8D5B36;}
	.st42{fill:#FBCFD6;}
	.st43{fill:#FAC4D1;}
	.st44{fill:#FAB8CD;}
	.st45{fill:#F9ADC8;}
	.st46{fill:#F8A1C4;}
	.st47{fill:#F297BE;}
	.st48{fill:#EA8BB4;}
	.st49{fill:#E8BA36;}
	.st50{fill:#E0B12E;}
	.st51{fill:#FFC172;}
	.st52{fill:#FFAD68;}
	.st53{fill:#FFB76D;}
	.st54{fill:#6E57A0;}
	.st55{fill:#675099;}
	.st56{fill:#F3586F;}
	.st57{fill:#604893;}
	.st58{fill:#CBEB6B;}
	.st59{fill:#4EAC5D;}
	.st60{fill:#BEE758;}
	.st61{fill:#6CD275;}
	.st62{fill:#48A353;}
	.st63{fill:#60C46F;}
	.st64{fill:#D9F07D;}
	.st65{fill:#E6F490;}
	.st66{fill:#4896C8;}
	.st67{fill:#4390BF;}
	.st68{fill:#5CA3D5;}
	.st69{fill:#529CCF;}
	.st70{fill:#F7C845;}
	.st71{fill:#ECCD50;}
	.st72{fill:#FF8D6E;}
	.st73{fill:#FF805D;}
	.st74{fill:#EDEEEE;}
	.st75{fill:#65A9DC;}
	.st76{fill:#8BC07A;}
	.st77{fill:#F0C13E;}
	.st78{fill:#9A3644;}
	.st79{fill:#8A323F;}
	.st80{fill:#945BA0;}
	.st81{fill:#A366AD;}
	.st82{fill:#B370B9;}
	.st83{fill:#C27BC6;}
	.st84{fill:#F6B392;}
	.st85{fill:#D285D2;}
	.st86{fill:#FDEBBB;}
	.st87{fill:#FAE09F;}
	.st88{fill:#DBA728;}
	.st89{fill:#505957;}
	.st90{fill:#56C7CD;}
	.st91{fill:#434C4B;}
	.st92{fill:#687271;}
	.st93{fill:#5C6664;}
	.st94{fill:#51BAC5;}
	.st95{fill:#D64F45;}
	.st96{fill:#D1D4D4;}
	.st97{fill:#E3E5E5;}
	.st98{fill:#DADDDC;}
	.st99{fill:#845194;}
	.st100{fill:#5BD3D5;}
	.st101{fill:#46B080;}
	.st102{fill:#53BF8C;}
	.st103{fill:#6EDCA2;}
	.st104{fill:#7AEBAC;}
	.st105{fill:#60CD96;}
	.st106{fill:#E8803A;}
	.st107{fill:#0A6F8E;}
	.st108{fill:#0F769B;}
	.st109{fill:#EF8C48;}
	.st110{fill:#838C8A;}
	.st111{fill:#757F7E;}
	.st112{fill:#D1473D;}
	.st113{fill:#9179C6;}
	.st114{fill:#906DBB;}
	.st115{fill:#A78EDD;}
	.st116{fill:#9D85D3;}
	.st117{fill:#E2EFF7;}
	.st118{fill:#B0D3EA;}
	.st119{fill:#F7BC48;}
	.st120{fill:#FFC550;}
	.st121{fill:#FFCF6E;}
	.st122{fill:#4CAEBC;}
	.st123{fill:#47A1B4;}
	.st124{fill:#4295AC;}
	.st125{fill:#E85160;}
	.st126{fill:#D84459;}
	.st127{fill:#FDE2E6;}
	.st128{fill:#FFF5D8;}
	.st129{fill:#99533D;}
	.st130{fill:#914C39;}
	.st131{fill:#D4C9EF;}
	.st132{fill:#E3DBF4;}
	.st133{fill:#F1EDFA;}
	.st134{fill:#C6B7E9;}
	.st135{fill:#B8A5E4;}
	.st136{fill:#D4994F;}
	.st137{fill:#C98B44;}
	.st138{fill:#F7D684;}
	.st139{fill:#BF7D3C;}
	.st140{fill:#909997;}
	.st141{fill:#724D31;}
	.st142{fill:#93C2CA;}
	.st143{fill:#99C7CE;}
	.st144{fill:#9FCCD3;}
	.st145{fill:#ACD7DD;}
	.st146{fill:#B9E2E7;}
	.st147{fill:#A5D1D8;}
	.st148{fill:#88B9C3;}
	.st149{fill:#7EB1BD;}
	.st150{fill:#C8CCCB;}
	.st151{fill:none;}
	.st152{fill:#4F4032;}
	.st153{fill:#604631;}
	.st154{fill:#F9BDA0;}
	.st155{fill:#E7685F;}
	.st156{fill:#C84054;}
	.st157{fill:#ABB2B1;}
	.st158{fill:#9DA5A4;}
	.st159{fill:#F74000;}
	.st160{fill:#F97C00;}
	.st161{fill:#F9C900;}
	.st162{fill:#EFD4A7;}
	.st163{fill:#EACEA1;}
	.st164{fill:#FCE8CC;}
	.st165{fill:#F5DEB9;}
	.st166{fill:#CFAB81;}
	.st167{fill:#D5B387;}
	.st168{fill:#3A4274;}
	.st169{fill:#707EB7;}
	.st170{fill:#424B7E;}
	.st171{fill:#7C8AC4;}
	.st172{fill:#FFD98D;}
	.st173{fill:#8694D1;}
	.st174{fill:#9AA6D6;}
	.st175{fill:#ABB4DD;}
	.st176{fill:#FDECEF;}
	.st177{fill:#137FA0;}
	.st178{fill:#EB6B48;}
	.st179{fill:#F57552;}
	.st180{fill:#515E91;}
	.st181{fill:#5C699E;}
	.st182{fill:#6673AA;}
	.st183{fill:#504484;}
	.st184{fill:#FF5F7E;}
	.st185{fill:#EBCEEB;}
	.st186{fill:#E5BDE5;}
	.st187{fill:#E0ABDF;}
	.st188{fill:#D799D6;}
	.st189{fill:#3B8FA3;}
	.st190{fill:#348B99;}
	.st191{fill:#F7F7F7;}
	.st192{fill:#3AA176;}
	.st193{fill:#84ED82;}
	.st194{fill:#EFEAEA;}
	.st195{fill:#FF9A7E;}
	.st196{fill:#FCD2BE;}
	.st197{fill:#FCDDCF;}
	.st198{fill:#C683C8;}
	.st199{fill:#A55F49;}
	.st200{fill:#FEF5F7;}
</style>
<g>
	<path class="grey_17" d="M23.259,0.744l-0.002-0.002c-1.066-1.066-2.823-0.969-3.765,0.209l-1.229,1.537
		c1.389,0.621,2.499,1.8,3.002,3.309l0,0.001c0.013,0.038,0.02,0.077,0.032,0.115l1.753-1.402
		C24.228,3.566,24.325,1.81,23.259,0.744z"/>
	<path class="grey_16" d="M10.735,5.795L10.735,5.795c0.503-1.51,1.613-2.688,3.002-3.309L12.508,0.95
		C11.566-0.228,9.81-0.325,8.744,0.741L8.741,0.744C7.675,1.81,7.772,3.566,8.95,4.508l1.753,1.402
		C10.715,5.872,10.722,5.833,10.735,5.795z"/>
	<path class="sand_04" d="M20.067,27c0,0,10.933-1,10.933-8l-3,1c0,0,0,2.581-8,4.855L20.067,27z"/>
	<path class="sand_03" d="M16,20l3.814-0.954c2.028-0.507,3.94,1.164,3.709,3.242l-0.47,4.234c-0.034,0.302,0.072,0.603,0.287,0.818
		l0.367,0.367C23.895,27.895,24,28.149,24,28.414V30c0,0.552-0.448,1-1,1h-7V20z"/>
	<path class="sand_02" d="M16,20l-3.814-0.954c-2.028-0.507-3.94,1.164-3.709,3.242l0.47,4.234c0.034,0.302-0.072,0.603-0.287,0.818
		l-0.367,0.367C8.105,27.895,8,28.149,8,28.414V30c0,0.552,0.448,1,1,1h7V20z"/>
	<path class="sand_02" d="M21.706,28.706C21.254,28.254,21,27.641,21,27.002V16.083c0-2.928-2.114-5.427-5-5.915v10.273
		c0.074,0.108,0.134,0.228,0.161,0.363l0.257,1.283C16.805,24.024,17,25.995,17,27.971V31c0,0.552,0.448,1,1,1h3
		c0.552,0,1-0.448,1-1v-1.586c0-0.265-0.105-0.52-0.293-0.707L21.706,28.706z"/>
	<path class="sand_01" d="M16,10.168c-2.886,0.488-5,2.987-5,5.915v10.919c0,0.639-0.254,1.252-0.706,1.704l-0.001,0.001
		C10.105,28.895,10,29.149,10,29.414V31c0,0.552,0.448,1,1,1h3c0.552,0,1-0.448,1-1v-3.029c0-1.976,0.195-3.946,0.583-5.883
		l0.257-1.283c0.027-0.135,0.087-0.255,0.161-0.363V10.168z"/>
	<path class="sand_01" d="M16,2L16,2c-2.389,0-4.51,1.529-5.265,3.795l0,0.001c-0.471,1.412-0.361,2.952,0.304,4.283l0.855,1.71
		C12.572,13.144,13.957,14,15.472,14H16V2z"/>
	<path class="sand_02" d="M16,2L16,2c2.389,0,4.51,1.529,5.265,3.795l0,0.001c0.471,1.412,0.361,2.952-0.304,4.283l-0.855,1.71
		C19.428,13.144,18.043,14,16.528,14H16V2z"/>
	<path class="tulip_05" d="M16,5c-0.552,0-1,0.448-1,1c0,0.552,0.448,1,1,1V5z"/>
	<path class="tulip_06" d="M17,6c0-0.552-0.448-1-1-1v2C16.552,7,17,6.552,17,6z"/>
	<path class="white" d="M11.953,7.302c0.017-0.158,0.177-0.259,0.328-0.209l2.48,0.827c0.136,0.045,0.206,0.195,0.154,0.329
		C14.712,8.768,14.133,9.888,13,9.5C11.895,9.121,11.89,7.881,11.953,7.302z"/>
	<path class="tulip_05" d="M13.97,7.657l-0.962-0.321C13.049,8.28,13.253,9,13.5,9C13.718,9,13.902,8.437,13.97,7.657z"/>
	<path class="grey_01" d="M20.047,7.302c-0.017-0.158-0.177-0.259-0.328-0.209l-2.48,0.827c-0.136,0.045-0.206,0.195-0.154,0.329
		C17.288,8.768,17.867,9.888,19,9.5C20.105,9.121,20.11,7.881,20.047,7.302z"/>
	<path class="tulip_06" d="M18.03,7.657l0.962-0.321C18.951,8.28,18.747,9,18.5,9C18.282,9,18.098,8.437,18.03,7.657z"/>
	<path class="sand_02" d="M11.933,11.855C12.623,13.17,13.983,14,15.472,14H16v-2.5C16,11.5,14.166,12.409,11.933,11.855z"/>
	<path class="sand_03" d="M20.067,11.855C17.834,12.409,16,11.5,16,11.5V14h0.528C18.017,14,19.377,13.17,20.067,11.855z"/>
	<path class="sand_03" d="M28,16c-1.105,0-2,0.895-2,2s0.895,2,2,2V16z"/>
	<path class="sand_04" d="M31,19c0-1.657-1.343-3-3-3v6C29.657,22,31,20.657,31,19z"/>
	<path class="sand_02" d="M28,20c0.552,0,1-0.448,1-1s-0.448-1-1-1V20z"/>
	<path class="sand_05" d="M24,10.506c0-0.201-2.283-0.251-3.399-0.263c1.058-0.314,3.31-1.007,3.261-1.204
		c-0.051-0.204-2.491,0.448-3.496,0.726C20.149,9.824,20,10.021,20,10.246v0.508c0,0.225,0.149,0.422,0.365,0.482
		c1.006,0.278,3.445,0.93,3.496,0.726c0.049-0.195-2.151-0.874-3.224-1.193C21.767,10.755,24,10.705,24,10.506z"/>
	<path class="sand_04" d="M12,10.246c0-0.225-0.149-0.422-0.365-0.482C10.63,9.487,8.19,8.835,8.139,9.039
		c-0.05,0.197,2.203,0.89,3.261,1.204c-1.116,0.012-3.398,0.061-3.398,0.263c0,0.199,2.232,0.249,3.361,0.262
		c-1.073,0.319-3.273,0.998-3.224,1.193c0.051,0.204,2.491-0.448,3.496-0.726C11.852,11.176,12,10.979,12,10.754V10.246z"/>
	<path class="sand_06" d="M13.334,2.686L11.873,1.59c-0.649-0.487-1.557-0.422-2.131,0.151L9.742,1.743
		C9.168,2.316,9.104,3.224,9.59,3.873l1.244,1.659C11.317,4.295,12.214,3.301,13.334,2.686z"/>
	<path class="sand_07" d="M22.258,1.743L22.258,1.743c-0.574-0.574-1.482-0.639-2.131-0.152l-1.461,1.096
		c1.12,0.615,2.017,1.609,2.5,2.845l1.244-1.659C22.896,3.224,22.832,2.316,22.258,1.743z"/>
	<path class="grey_16" d="M16,10c-0.552,0-1-0.052-1,0.5c0,0.341,0.382,0.738,0.674,0.991c0.094,0.081,0.21,0.122,0.326,0.122V10z"
		/>
	<path class="grey_17" d="M16.326,11.491C16.618,11.238,17,10.841,17,10.5c0-0.552-0.448-0.5-1-0.5v1.613
		C16.116,11.613,16.233,11.573,16.326,11.491z"/>
</g>
</svg>
