<?xml version="1.0" encoding="utf-8"?>
<!-- Generator: Adobe Illustrator 20.1.0, SVG Export Plug-In . SVG Version: 6.00 Build 0)  -->
<!DOCTYPE svg PUBLIC "-//W3C//DTD SVG 1.1//EN" "http://www.w3.org/Graphics/SVG/1.1/DTD/svg11.dtd">
<svg version="1.1" id="icons" xmlns="http://www.w3.org/2000/svg" xmlns:xlink="http://www.w3.org/1999/xlink" x="0px" y="0px"
	 width="32px" height="32px" viewBox="0 0 32 32" style="enable-background:new 0 0 32 32;" xml:space="preserve">
<style type="text/css">
	.white{fill:#FFFFFF;}
	.grey_01{fill:#F7F7F7;}
	.grey_16{fill:#373F3F;}
	.grey_17{fill:#2B3332;}
	.lemon_02{fill:#FEF1C6;}
	.lemon_03{fill:#FFEAA7;}
	.lemon_04{fill:#FFE28A;}
	.lemon_05{fill:#FFD96C;}
	.lemon_06{fill:#FFD04D;}
	.lemon_07{fill:#F7C845;}
	.lemon_08{fill:#F0C13E;}
	.st0{fill:#78DF7C;}
	.st1{fill:#54B668;}
	.st2{fill:#7A63AD;}
	.st3{fill:#866EBA;}
	.st4{fill:#D2E6F3;}
	.st5{fill:#C1DDEE;}
	.st6{fill:#E0C193;}
	.st7{fill:#DBBA8C;}
	.st8{fill:#7FB8E0;}
	.st9{fill:#8EC0E0;}
	.st10{fill:#71B1E1;}
	.st11{fill:#9FC9E4;}
	.st12{fill:#FF6B8B;}
	.st13{fill:#F4A984;}
	.st14{fill:#EA9C7A;}
	.st15{fill:#E85160;}
	.st16{fill:#D84459;}
	.st17{fill:#E55D53;}
	.st18{fill:#FFD400;}
	.st19{fill:#FF8F00;}
	.st20{fill:#FF4A00;}
	.st21{fill:#F7D684;}
	.st22{fill:#FAE09F;}
	.st23{fill:#FDEBBB;}
	.st24{fill:#FFF3D9;}
	.st25{fill:#9ACC2E;}
	.st26{fill:#AADB3D;}
	.st27{fill:#A2D336;}
	.st28{fill:#93C427;}
	.st29{fill:#F79654;}
	.st30{fill:#FCA15E;}
	.st31{fill:#A9E260;}
	.st32{fill:#97DB4A;}
	.st33{fill:#B1E346;}
	.st34{fill:#FCD8DE;}
	.st35{fill:#CDA073;}
	.st36{fill:#C09265;}
	.st37{fill:#A7794C;}
	.st38{fill:#96643B;}
	.st39{fill:#845331;}
	.st40{fill:#B38658;}
	.st41{fill:#9E6E43;}
	.st42{fill:#8D5B36;}
	.st43{fill:#FBCFD6;}
	.st44{fill:#FAC4D1;}
	.st45{fill:#FAB8CD;}
	.st46{fill:#F9ADC8;}
	.st47{fill:#F8A1C4;}
	.st48{fill:#F297BE;}
	.st49{fill:#EA8BB4;}
	.st50{fill:#E8BA36;}
	.st51{fill:#E0B12E;}
	.st52{fill:#FFC172;}
	.st53{fill:#FFAD68;}
	.st54{fill:#FFB76D;}
	.st55{fill:#6E57A0;}
	.st56{fill:#675099;}
	.st57{fill:#F3586F;}
	.st58{fill:#604893;}
	.st59{fill:#CBEB6B;}
	.st60{fill:#4EAC5D;}
	.st61{fill:#BEE758;}
	.st62{fill:#6CD275;}
	.st63{fill:#48A353;}
	.st64{fill:#60C46F;}
	.st65{fill:#D9F07D;}
	.st66{fill:#E6F490;}
	.st67{fill:#4896C8;}
	.st68{fill:#4390BF;}
	.st69{fill:#5CA3D5;}
	.st70{fill:#529CCF;}
	.st71{fill:#ECCD50;}
	.st72{fill:#FF8D6E;}
	.st73{fill:#FF805D;}
	.st74{fill:#EDEEEE;}
	.st75{fill:#65A9DC;}
	.st76{fill:#8BC07A;}
	.st77{fill:#9A3644;}
	.st78{fill:#8A323F;}
	.st79{fill:#945BA0;}
	.st80{fill:#A366AD;}
	.st81{fill:#B370B9;}
	.st82{fill:#C27BC6;}
	.st83{fill:#F6B392;}
	.st84{fill:#D285D2;}
	.st85{fill:#DBA728;}
	.st86{fill:#505957;}
	.st87{fill:#56C7CD;}
	.st88{fill:#434C4B;}
	.st89{fill:#687271;}
	.st90{fill:#5C6664;}
	.st91{fill:#51BAC5;}
	.st92{fill:#D64F45;}
	.st93{fill:#D1D4D4;}
	.st94{fill:#E3E5E5;}
	.st95{fill:#DADDDC;}
	.st96{fill:#845194;}
	.st97{fill:#5BD3D5;}
	.st98{fill:#46B080;}
	.st99{fill:#53BF8C;}
	.st100{fill:#6EDCA2;}
	.st101{fill:#7AEBAC;}
	.st102{fill:#60CD96;}
	.st103{fill:#E8803A;}
	.st104{fill:#0A6F8E;}
	.st105{fill:#0F769B;}
	.st106{fill:#EF8C48;}
	.st107{fill:#838C8A;}
	.st108{fill:#757F7E;}
	.st109{fill:#D1473D;}
	.st110{fill:#FFE28A;}
	.st111{fill:#9179C6;}
	.st112{fill:#906DBB;}
	.st113{fill:#A78EDD;}
	.st114{fill:#9D85D3;}
	.st115{fill:#E2EFF7;}
	.st116{fill:#B0D3EA;}
	.st117{fill:#F7BC48;}
	.st118{fill:#FFC550;}
	.st119{fill:#FFCF6E;}
	.st120{fill:#F0C13E;}
	.st121{fill:#4CAEBC;}
	.st122{fill:#47A1B4;}
	.st123{fill:#4295AC;}
	.st124{fill:#FDE2E6;}
	.st125{fill:#FEF1C6;}
	.st126{fill:#FFF5D8;}
	.st127{fill:#99533D;}
	.st128{fill:#914C39;}
	.st129{fill:#D4C9EF;}
	.st130{fill:#E3DBF4;}
	.st131{fill:#F1EDFA;}
	.st132{fill:#C6B7E9;}
	.st133{fill:#B8A5E4;}
	.st134{fill:#F0C877;}
	.st135{fill:#E8BA67;}
	.st136{fill:#DDAA5F;}
	.st137{fill:#D4994F;}
	.st138{fill:#C98B44;}
	.st139{fill:#BF7D3C;}
	.st140{fill:#909997;}
	.st141{fill:#724D31;}
	.st142{fill:#93C2CA;}
	.st143{fill:#99C7CE;}
	.st144{fill:#9FCCD3;}
	.st145{fill:#ACD7DD;}
	.st146{fill:#B9E2E7;}
	.st147{fill:#A5D1D8;}
	.st148{fill:#88B9C3;}
	.st149{fill:#7EB1BD;}
	.st150{fill:#C8CCCB;}
	.st151{fill:none;}
	.st152{fill:#4F4032;}
	.st153{fill:#604631;}
	.st154{fill:#F9BDA0;}
	.st155{fill:#E7685F;}
	.st156{fill:#C84054;}
	.st157{fill:#ABB2B1;}
	.st158{fill:#9DA5A4;}
	.st159{fill:#FFD96C;}
	.st160{fill:#FFD04D;}
	.st161{fill:#F74000;}
	.st162{fill:#F97C00;}
	.st163{fill:#F9C900;}
	.st164{fill:#EFD4A7;}
	.st165{fill:#EACEA1;}
	.st166{fill:#FCE8CC;}
	.st167{fill:#F5DEB9;}
	.st168{fill:#CFAB81;}
	.st169{fill:#D5B387;}
	.st170{fill:#3A4274;}
	.st171{fill:#707EB7;}
	.st172{fill:#424B7E;}
	.st173{fill:#7C8AC4;}
	.st174{fill:#FFD98D;}
	.st175{fill:#8694D1;}
	.st176{fill:#9AA6D6;}
	.st177{fill:#ABB4DD;}
	.st178{fill:#FDECEF;}
	.st179{fill:#137FA0;}
	.st180{fill:#EB6B48;}
	.st181{fill:#F57552;}
	.st182{fill:#515E91;}
	.st183{fill:#5C699E;}
	.st184{fill:#6673AA;}
	.st185{fill:#504484;}
	.st186{fill:#FF5F7E;}
	.st187{fill:#EBCEEB;}
	.st188{fill:#E5BDE5;}
	.st189{fill:#E0ABDF;}
	.st190{fill:#D799D6;}
	.st191{fill:#3B8FA3;}
	.st192{fill:#348B99;}
	.st193{fill:#F7F7F7;}
	.st194{fill:#3AA176;}
	.st195{fill:#84ED82;}
	.st196{fill:#EFEAEA;}
	.st197{fill:#FF9A7E;}
	.st198{fill:#FCD2BE;}
	.st199{fill:#FCDDCF;}
	.st200{fill:#C683C8;}
	.st201{fill:#A55F49;}
	.st202{fill:#FEF5F7;}
</style>
<g>
	<path class="lemon_04" d="M21,27h0.479l3.304,3.452c0.29,0.303,0.29,0.793,0,1.096l-0.003,0.003
		c-0.25,0.261-0.642,0.302-0.936,0.097l-0.518-0.361c-0.249-0.174-0.574-0.174-0.823,0l-0.626,0.436C21.617,31.904,21.312,32,21,32
		h0V27z"/>
	<path class="lemon_03" d="M11,27h0.479l3.304,3.452c0.29,0.303,0.29,0.793,0,1.096l-0.003,0.003
		c-0.25,0.261-0.642,0.302-0.936,0.097l-0.518-0.361c-0.249-0.174-0.574-0.174-0.823,0l-0.626,0.436C11.617,31.904,11.312,32,11,32
		h0V27z"/>
	<path class="lemon_02" d="M11,27h-0.479l-3.304,3.452c-0.29,0.303-0.29,0.793,0,1.096l0.003,0.003
		c0.25,0.261,0.642,0.302,0.936,0.097l0.518-0.361c0.249-0.174,0.574-0.174,0.823,0l0.626,0.436C10.383,31.904,10.688,32,11,32h0V27
		z"/>
	<path class="lemon_03" d="M20.521,27l-3.304,3.452c-0.29,0.303-0.29,0.793,0,1.096l0.003,0.003c0.25,0.261,0.642,0.302,0.936,0.097
		l0.518-0.361c0.249-0.174,0.574-0.174,0.823,0l0.626,0.436C20.383,31.904,20.688,32,21,32h0l0-5H20.521z"/>
	<path class="lemon_06" d="M9.158,14.859l-0.019,0c0,0-0.002,0.005-0.002,0.006c-2.38,0.636-7.068,2.23-8.876,5.274
		c-0.152,0.256-0.025,0.604,0.255,0.703c2.048,0.721,4.545,0.337,6.692-0.308C7.08,21.095,7,21.604,7,22
		c0,4.393,3.481,7.955,9,7.996v-15.17L9.158,14.859z"/>
	<path class="lemon_07" d="M31.505,20.841c0.281-0.099,0.407-0.447,0.255-0.702c-1.794-3.02-6.422-4.612-8.818-5.258l-0.328-0.086
		L16,14.827l0,15.17c0.001,0.001,0.002,0.002,0.004,0.003C21.632,30.039,25,26.442,25,22c0-0.397-0.078-0.908-0.202-1.471
		C26.948,21.176,29.452,21.564,31.505,20.841z"/>
	<path class="grey_17" d="M16.75,1c0-0.552-0.198-1-0.75-1s-0.75,0.448-0.75,1c0,0.149,0.5,3.25,0.5,3.25h0.5
		C16.25,4.25,16.75,1.149,16.75,1z"/>
	<path class="grey_17" d="M16.25,4.25c0,0,0.5-3.101,0.5-3.25c0-0.552-0.198-1-0.75-1v4.25H16.25z"/>
	<path class="grey_16" d="M14.508,1.776c-0.276-0.478-0.671-0.767-1.15-0.491c-0.478,0.276-0.426,0.763-0.15,1.241
		c0.075,0.129,2.058,2.565,2.058,2.565L15.7,4.84C15.7,4.84,14.583,1.905,14.508,1.776z"/>
	<path class="grey_17" d="M18.791,2.562c0.276-0.478,0.329-0.965-0.15-1.241c-0.478-0.276-0.873,0.013-1.15,0.491
		C17.417,1.942,16.3,4.877,16.3,4.877l0.433,0.25C16.733,5.127,18.716,2.692,18.791,2.562z"/>
	<path class="lemon_05" d="M16,4c-4.418,0-8,2.539-8,7s3.582,7,8,7V4z"/>
	<path class="lemon_06" d="M24,11c0-4.461-3.582-7-8-7v14C20.418,18,24,15.461,24,11z"/>
	<path class="white" d="M14,10.5c0,0.828-1.145,1.5-2.25,1.5S10,11.328,10,10.5S10.645,9,11.75,9S14,9.672,14,10.5z"/>
	<circle class="grey_16" cx="12" cy="10.5" r="0.5"/>
	<path class="grey_01" d="M18,10.5c0,0.828,1.145,1.5,2.25,1.5S22,11.328,22,10.5S21.355,9,20.25,9S18,9.672,18,10.5z"/>
	<circle class="grey_17" cx="20" cy="10.5" r="0.5"/>
	<path class="lemon_02" d="M16,11.828c-0.512,0-1.024,0.195-1.414,0.586C14.211,12.789,13.702,13,13.172,13h-1.554
		c-0.743,0-1.227,0.782-0.894,1.447l0,0c0.178,0.357,0.223,0.765,0.126,1.152l-0.401,1.604c-0.253,1.014,0.316,2.052,1.308,2.382
		c1.377,0.459,2.81,0.689,4.243,0.689V11.828z"/>
	<path class="lemon_03" d="M20.243,19.586c0.991-0.33,1.561-1.369,1.308-2.382l-0.401-1.604c-0.097-0.387-0.052-0.795,0.126-1.152
		l0,0C21.609,13.782,21.125,13,20.382,13h-1.554c-0.53,0-1.039-0.211-1.414-0.586c-0.391-0.391-0.902-0.586-1.414-0.586v8.446
		C17.433,20.274,18.866,20.045,20.243,19.586z"/>
	<path class="lemon_08" d="M16,27v2.996c0.032,0,0.062,0.004,0.094,0.004c5.508,0,8.82-3.498,8.899-7.844
		C23.373,25.205,19.961,27,16,27z"/>
	<path class="lemon_07" d="M7.008,22.157c0.083,4.32,3.54,7.799,8.992,7.839V27C12.04,27,8.628,25.205,7.008,22.157z"/>
</g>
</svg>
