<?xml version="1.0" encoding="utf-8"?>
<!-- Generator: Adobe Illustrator 20.1.0, SVG Export Plug-In . SVG Version: 6.00 Build 0)  -->
<!DOCTYPE svg PUBLIC "-//W3C//DTD SVG 1.1//EN" "http://www.w3.org/Graphics/SVG/1.1/DTD/svg11.dtd">
<svg version="1.1" id="icons" xmlns="http://www.w3.org/2000/svg" xmlns:xlink="http://www.w3.org/1999/xlink" x="0px" y="0px"
	 width="32px" height="32px" viewBox="0 0 32 32" style="enable-background:new 0 0 32 32;" xml:space="preserve">
<style type="text/css">
	.white{fill:#FFFFFF;}
	.grey_01{fill:#F7F7F7;}
	.tulip_05{fill:#E85160;}
	.tulip_06{fill:#D84459;}
	.salmon_06{fill:#F4A984;}
	.salmon_07{fill:#EA9C7A;}
	.sand_02{fill:#FDEBBB;}
	.sand_03{fill:#FAE09F;}
	.sand_04{fill:#F7D684;}
	.sand_05{fill:#F0C877;}
	.sand_07{fill:#DDAA5F;}
	.sand_08{fill:#D4994F;}
	.sand_09{fill:#C98B44;}
	.st0{fill:#78DF7C;}
	.st1{fill:#54B668;}
	.st2{fill:#7A63AD;}
	.st3{fill:#866EBA;}
	.st4{fill:#D2E6F3;}
	.st5{fill:#C1DDEE;}
	.st6{fill:#E0C193;}
	.st7{fill:#DBBA8C;}
	.st8{fill:#7FB8E0;}
	.st9{fill:#8EC0E0;}
	.st10{fill:#71B1E1;}
	.st11{fill:#9FC9E4;}
	.st12{fill:#FFEAA7;}
	.st13{fill:#FFE28A;}
	.st14{fill:#FF6B8B;}
	.st15{fill:#FEF1C6;}
	.st16{fill:#E55D53;}
	.st17{fill:#FFD400;}
	.st18{fill:#FF8F00;}
	.st19{fill:#FF4A00;}
	.st20{fill:#2B3332;}
	.st21{fill:#373F3F;}
	.st22{fill:#FFF3D9;}
	.st23{fill:#FFD96C;}
	.st24{fill:#9ACC2E;}
	.st25{fill:#AADB3D;}
	.st26{fill:#A2D336;}
	.st27{fill:#93C427;}
	.st28{fill:#F79654;}
	.st29{fill:#FFD04D;}
	.st30{fill:#FCA15E;}
	.st31{fill:#A9E260;}
	.st32{fill:#97DB4A;}
	.st33{fill:#B1E346;}
	.st34{fill:#FCD8DE;}
	.st35{fill:#CDA073;}
	.st36{fill:#C09265;}
	.st37{fill:#A7794C;}
	.st38{fill:#96643B;}
	.st39{fill:#845331;}
	.st40{fill:#B38658;}
	.st41{fill:#9E6E43;}
	.st42{fill:#8D5B36;}
	.st43{fill:#FBCFD6;}
	.st44{fill:#FAC4D1;}
	.st45{fill:#FAB8CD;}
	.st46{fill:#F9ADC8;}
	.st47{fill:#F8A1C4;}
	.st48{fill:#F297BE;}
	.st49{fill:#EA8BB4;}
	.st50{fill:#E8BA36;}
	.st51{fill:#E0B12E;}
	.st52{fill:#FFC172;}
	.st53{fill:#FFAD68;}
	.st54{fill:#FFB76D;}
	.st55{fill:#6E57A0;}
	.st56{fill:#675099;}
	.st57{fill:#F3586F;}
	.st58{fill:#604893;}
	.st59{fill:#CBEB6B;}
	.st60{fill:#4EAC5D;}
	.st61{fill:#BEE758;}
	.st62{fill:#6CD275;}
	.st63{fill:#48A353;}
	.st64{fill:#60C46F;}
	.st65{fill:#D9F07D;}
	.st66{fill:#E6F490;}
	.st67{fill:#4896C8;}
	.st68{fill:#4390BF;}
	.st69{fill:#5CA3D5;}
	.st70{fill:#529CCF;}
	.st71{fill:#F7C845;}
	.st72{fill:#ECCD50;}
	.st73{fill:#FF8D6E;}
	.st74{fill:#FF805D;}
	.st75{fill:#EDEEEE;}
	.st76{fill:#65A9DC;}
	.st77{fill:#8BC07A;}
	.st78{fill:#F0C13E;}
	.st79{fill:#9A3644;}
	.st80{fill:#8A323F;}
	.st81{fill:#945BA0;}
	.st82{fill:#A366AD;}
	.st83{fill:#B370B9;}
	.st84{fill:#C27BC6;}
	.st85{fill:#F6B392;}
	.st86{fill:#D285D2;}
	.st87{fill:#FDEBBB;}
	.st88{fill:#FAE09F;}
	.st89{fill:#DBA728;}
	.st90{fill:#505957;}
	.st91{fill:#56C7CD;}
	.st92{fill:#434C4B;}
	.st93{fill:#687271;}
	.st94{fill:#5C6664;}
	.st95{fill:#51BAC5;}
	.st96{fill:#D64F45;}
	.st97{fill:#D1D4D4;}
	.st98{fill:#E3E5E5;}
	.st99{fill:#DADDDC;}
	.st100{fill:#845194;}
	.st101{fill:#5BD3D5;}
	.st102{fill:#46B080;}
	.st103{fill:#53BF8C;}
	.st104{fill:#6EDCA2;}
	.st105{fill:#7AEBAC;}
	.st106{fill:#60CD96;}
	.st107{fill:#E8803A;}
	.st108{fill:#0A6F8E;}
	.st109{fill:#0F769B;}
	.st110{fill:#EF8C48;}
	.st111{fill:#838C8A;}
	.st112{fill:#757F7E;}
	.st113{fill:#D1473D;}
	.st114{fill:#9179C6;}
	.st115{fill:#906DBB;}
	.st116{fill:#A78EDD;}
	.st117{fill:#9D85D3;}
	.st118{fill:#E2EFF7;}
	.st119{fill:#B0D3EA;}
	.st120{fill:#F7BC48;}
	.st121{fill:#FFC550;}
	.st122{fill:#FFCF6E;}
	.st123{fill:#4CAEBC;}
	.st124{fill:#47A1B4;}
	.st125{fill:#4295AC;}
	.st126{fill:#E85160;}
	.st127{fill:#D84459;}
	.st128{fill:#FDE2E6;}
	.st129{fill:#FFF5D8;}
	.st130{fill:#99533D;}
	.st131{fill:#914C39;}
	.st132{fill:#D4C9EF;}
	.st133{fill:#E3DBF4;}
	.st134{fill:#F1EDFA;}
	.st135{fill:#C6B7E9;}
	.st136{fill:#B8A5E4;}
	.st137{fill:#E8BA67;}
	.st138{fill:#F7D684;}
	.st139{fill:#BF7D3C;}
	.st140{fill:#909997;}
	.st141{fill:#724D31;}
	.st142{fill:#93C2CA;}
	.st143{fill:#99C7CE;}
	.st144{fill:#9FCCD3;}
	.st145{fill:#ACD7DD;}
	.st146{fill:#B9E2E7;}
	.st147{fill:#A5D1D8;}
	.st148{fill:#88B9C3;}
	.st149{fill:#7EB1BD;}
	.st150{fill:#C8CCCB;}
	.st151{fill:none;}
	.st152{fill:#4F4032;}
	.st153{fill:#604631;}
	.st154{fill:#F9BDA0;}
	.st155{fill:#E7685F;}
	.st156{fill:#C84054;}
	.st157{fill:#ABB2B1;}
	.st158{fill:#9DA5A4;}
	.st159{fill:#F74000;}
	.st160{fill:#F97C00;}
	.st161{fill:#F9C900;}
	.st162{fill:#EFD4A7;}
	.st163{fill:#EACEA1;}
	.st164{fill:#FCE8CC;}
	.st165{fill:#F5DEB9;}
	.st166{fill:#CFAB81;}
	.st167{fill:#D5B387;}
	.st168{fill:#3A4274;}
	.st169{fill:#707EB7;}
	.st170{fill:#424B7E;}
	.st171{fill:#7C8AC4;}
	.st172{fill:#FFD98D;}
	.st173{fill:#8694D1;}
	.st174{fill:#9AA6D6;}
	.st175{fill:#ABB4DD;}
	.st176{fill:#FDECEF;}
	.st177{fill:#137FA0;}
	.st178{fill:#EB6B48;}
	.st179{fill:#F57552;}
	.st180{fill:#515E91;}
	.st181{fill:#5C699E;}
	.st182{fill:#6673AA;}
	.st183{fill:#504484;}
	.st184{fill:#FF5F7E;}
	.st185{fill:#EBCEEB;}
	.st186{fill:#E5BDE5;}
	.st187{fill:#E0ABDF;}
	.st188{fill:#D799D6;}
	.st189{fill:#3B8FA3;}
	.st190{fill:#348B99;}
	.st191{fill:#F7F7F7;}
	.st192{fill:#3AA176;}
	.st193{fill:#84ED82;}
	.st194{fill:#EFEAEA;}
	.st195{fill:#FF9A7E;}
	.st196{fill:#FCD2BE;}
	.st197{fill:#FCDDCF;}
	.st198{fill:#C683C8;}
	.st199{fill:#A55F49;}
	.st200{fill:#FEF5F7;}
</style>
<g>
	<path class="sand_04" d="M14.555,6.416L16,7.5l0.781-0.586C16.32,5.55,16,4.435,16,4c0-1.103,0.897-2,2-2s2,0.897,2,2
		c0,0.553,0.447,1,1,1s1-0.447,1-1c0-2.206-1.794-4-4-4s-4,1.794-4,4c0,0.502,0.211,1.38,0.518,2.401
		C14.53,6.408,14.544,6.408,14.555,6.416z"/>
	<path class="sand_08" d="M18,0c-1.103,0-2.103,0.448-2.827,1.173l1.414,1.414C16.949,2.224,17.449,2,18,2c1.103,0,2,0.897,2,2
		c0,0.553,0.447,1,1,1s1-0.447,1-1C22,1.794,20.206,0,18,0z"/>
	<path class="sand_08" d="M4,6c1.105,0,2,0.895,2,2v2c0,0.552-0.448,1-1,1s-1-0.448-1-1c0,0.552-0.448,1-1,1s-1-0.448-1-1
		c0,0.552-0.448,1-1,1s-1-0.448-1-1l0-2c0-1.105,0.895-2,2-2H4z"/>
	<path class="sand_08" d="M7,28l-0.553,1.106C6.173,29.654,5.613,30,5,30h0c-0.552,0-1,0.448-1,1v0c0,0.552,0.448,1,1,1h0
		c0.64,0,1.254-0.254,1.707-0.707L7,31v0c0,0.552,0.448,1,1,1h0c0.552,0,1-0.448,1-1v-1h2c0.552,0,1-0.448,1-1v0
		c0-0.552-0.448-1-1-1H9H7z"/>
	<path class="sand_09" d="M28,6c-1.105,0-2,0.895-2,2v2c0,0.552,0.448,1,1,1s1-0.448,1-1c0,0.552,0.448,1,1,1s1-0.448,1-1
		c0,0.552,0.448,1,1,1s1-0.448,1-1V8c0-1.105-0.895-2-2-2H28z"/>
	<path class="sand_09" d="M25,28l0.553,1.106C25.827,29.654,26.387,30,27,30h0c0.552,0,1,0.448,1,1v0c0,0.552-0.448,1-1,1h0
		c-0.64,0-1.254-0.254-1.707-0.707L25,31v0c0,0.552-0.448,1-1,1h0c-0.552,0-1-0.448-1-1v-1h-2c-0.552,0-1-0.448-1-1v0
		c0-0.552,0.448-1,1-1h2H25z"/>
	<path class="sand_02" d="M16,7.5l-1.445-1.084c-0.273-0.205-0.666-0.082-0.774,0.242L13.5,7.5l-2.248-0.375
		c-0.355-0.059-0.655,0.265-0.567,0.614l0.229,0.915C9.552,8.242,7.352,7.648,7,8c-0.382,0.382,0.351,2.943,0.757,4.243
		l-0.403,0.403c-0.195,0.195-0.195,0.512,0,0.707L8,14l-1.638,3.276C6.196,17.609,6.437,18,6.809,18H8l-0.781,2.342
		C7.111,20.666,7.352,21,7.694,21H8.5l1.276,2.553C9.9,23.8,10.2,23.9,10.447,23.776L11,23.5l1.284,1.712
		c0.129,0.172,0.354,0.242,0.558,0.174L14,25l1.776,0.888c0.07,0.035,0.147,0.053,0.224,0.053V7.5z"/>
	<path class="sand_03" d="M16.224,25.888L18,25l1.158,0.386c0.204,0.068,0.429-0.002,0.558-0.174L21,23.5l0.553,0.276
		C21.8,23.9,22.1,23.8,22.224,23.553L23.5,21h0.806c0.341,0,0.582-0.334,0.474-0.658L24,18h1.191c0.372,0,0.613-0.391,0.447-0.724
		L24,14l0.646-0.646c0.195-0.195,0.195-0.512,0-0.707l-0.403-0.403C24.649,10.943,25.382,8.382,25,8
		c-0.352-0.352-2.552,0.242-3.914,0.655l0.229-0.915c0.087-0.349-0.212-0.674-0.567-0.614L18.5,7.5l-0.281-0.842
		c-0.108-0.324-0.501-0.447-0.774-0.242L16,7.5v18.441C16.077,25.941,16.153,25.923,16.224,25.888z"/>
	<path class="sand_07" d="M8.462,11.124C8.27,10.457,8.106,9.813,8.003,9.307C7.968,9.132,8.118,8.976,8.293,9.01
		c0.546,0.106,1.201,0.274,1.829,0.454L8.462,11.124z"/>
	<path class="sand_08" d="M21.877,9.463c0.636-0.183,1.295-0.355,1.831-0.46c0.175-0.035,0.326,0.122,0.291,0.297
		c-0.103,0.507-0.268,1.153-0.46,1.824L21.877,9.463z"/>
	<g>
		<g>
			<path class="white" d="M14.777,16.852l-2.235-1.49c-0.285-0.19-0.671-0.044-0.761,0.287c-0.16,0.588-0.298,1.457,0.031,2.081
				c0.087,0.166,0.259,0.27,0.446,0.27H15v-0.732C15,17.1,14.916,16.944,14.777,16.852z"/>
		</g>
		<g>
			<path class="white" d="M14.777,16.852l-2.235-1.49c-0.285-0.19-0.671-0.044-0.761,0.287c-0.16,0.588-0.298,1.457,0.031,2.081
				c0.087,0.166,0.259,0.27,0.446,0.27H15v-0.732C15,17.1,14.916,16.944,14.777,16.852z"/>
		</g>
	</g>
	<path class="grey_01" d="M17.223,16.852l2.235-1.49c0.285-0.19,0.671-0.044,0.761,0.287c0.16,0.588,0.298,1.457-0.031,2.081
		C20.101,17.895,19.929,18,19.742,18H17v-0.732C17,17.1,17.084,16.944,17.223,16.852z"/>
	<path class="tulip_05" d="M14.001,16.334l-1.002-0.668C12.999,15.775,13,15.886,13,16c0,1.105-0.052,2,0.5,2
		C13.995,18,14.004,17.279,14.001,16.334z"/>
	<path class="tulip_06" d="M17.999,16.334l1.002-0.668C19.001,15.775,19,15.886,19,16c0,1.105,0.052,2-0.5,2
		C18.005,18,17.996,17.279,17.999,16.334z"/>
	<path class="salmon_06" d="M16,17c-1.105,0-2,0.672-2,1.5s0.895,1.5,2,1.5V17z"/>
	<path class="salmon_07" d="M18,18.5c0-0.828-0.895-1.5-2-1.5v3C17.105,20,18,19.328,18,18.5z"/>
	<path class="sand_03" d="M16,23.941c-0.077,0-0.153-0.018-0.224-0.053l-1.553-0.776c-0.141-0.07-0.306-0.07-0.447,0l-0.5,0.25
		c-0.169,0.085-0.372,0.066-0.524-0.047l-1.506-1.129c-0.152-0.114-0.354-0.132-0.524-0.047l-0.401,0.201
		c-0.192,0.096-0.425,0.059-0.577-0.094L8.5,21l1.276,2.553C9.9,23.8,10.2,23.9,10.447,23.776L11,23.5l1.284,1.712
		c0.129,0.172,0.354,0.242,0.558,0.174L14,25l1.776,0.888c0.07,0.035,0.147,0.053,0.224,0.053V23.941z"/>
	<path class="sand_04" d="M16.224,25.888L18,25l1.158,0.386c0.204,0.068,0.429-0.002,0.558-0.174L21,23.5l0.553,0.276
		C21.8,23.9,22.1,23.8,22.224,23.553L23.5,21l-1.245,1.245c-0.152,0.152-0.385,0.19-0.577,0.094l-0.401-0.201
		c-0.169-0.085-0.372-0.066-0.524,0.047l-1.506,1.129c-0.152,0.114-0.354,0.132-0.524,0.047l-0.5-0.25
		c-0.141-0.07-0.306-0.07-0.447,0l-1.553,0.776c-0.07,0.035-0.147,0.053-0.224,0.053v2C16.077,25.941,16.153,25.923,16.224,25.888z"
		/>
	<path class="sand_03" d="M8,14l-0.646-0.646C7.256,13.256,7.207,13.128,7.207,13H6c-0.552,0-1-0.448-1-1v-1c-0.552,0-1-0.448-1-1
		c0,0.552-0.448,1-1,1v2.558c0,0.861,0.551,1.625,1.368,1.897l2.49,0.83L8,14z"/>
	<path class="st138" d="M28,10c0,0.552-0.448,1-1,1v1c0,0.552-0.448,1-1,1h-1.207c0,0.128-0.049,0.256-0.146,0.354L24,14
		l1.143,2.286l2.49-0.83C28.449,15.184,29,14.419,29,13.558V11C28.448,11,28,10.552,28,10z"/>
	<path class="sand_04" d="M11,23.5l-0.553,0.276C10.2,23.9,9.9,23.8,9.776,23.553l-1.221-2.442l-1.269,3.174
		C7.097,24.757,7,25.261,7,25.77V28h2v-1.172c0-0.53,0.211-1.039,0.586-1.414l1.628-1.628L11,23.5z"/>
	<path class="sand_05" d="M23.444,21.111l-1.221,2.442C22.1,23.8,21.8,23.9,21.553,23.776L21,23.5l-0.214,0.286l1.628,1.628
		C22.789,25.789,23,26.298,23,26.828V28h2v-2.23c0-0.509-0.097-1.013-0.286-1.486L23.444,21.111z"/>
</g>
</svg>
