<?xml version="1.0" encoding="utf-8"?>
<!-- Generator: Adobe Illustrator 20.1.0, SVG Export Plug-In . SVG Version: 6.00 Build 0)  -->
<!DOCTYPE svg PUBLIC "-//W3C//DTD SVG 1.1//EN" "http://www.w3.org/Graphics/SVG/1.1/DTD/svg11.dtd">
<svg version="1.1" id="icons" xmlns="http://www.w3.org/2000/svg" xmlns:xlink="http://www.w3.org/1999/xlink" x="0px" y="0px"
	 width="32px" height="32px" viewBox="0 0 32 32" style="enable-background:new 0 0 32 32;" xml:space="preserve">
<style type="text/css">
	.white{fill:#FFFFFF;}
	.grey_01{fill:#F7F7F7;}
	.grey_16{fill:#373F3F;}
	.grey_17{fill:#2B3332;}
	.tulip_05{fill:#E85160;}
	.tulip_06{fill:#D84459;}
	.salmon_06{fill:#F4A984;}
	.salmon_07{fill:#EA9C7A;}
	.sand_01{fill:#FFF3D9;}
	.sand_02{fill:#FDEBBB;}
	.sand_03{fill:#FAE09F;}
	.sand_08{fill:#D4994F;}
	.sand_09{fill:#C98B44;}
	.sand_10{fill:#BF7D3C;}
	.st0{fill:#78DF7C;}
	.st1{fill:#54B668;}
	.st2{fill:#7A63AD;}
	.st3{fill:#866EBA;}
	.st4{fill:#D2E6F3;}
	.st5{fill:#C1DDEE;}
	.st6{fill:#E0C193;}
	.st7{fill:#DBBA8C;}
	.st8{fill:#7FB8E0;}
	.st9{fill:#8EC0E0;}
	.st10{fill:#71B1E1;}
	.st11{fill:#9FC9E4;}
	.st12{fill:#FFEAA7;}
	.st13{fill:#FFE28A;}
	.st14{fill:#FF6B8B;}
	.st15{fill:#FEF1C6;}
	.st16{fill:#E55D53;}
	.st17{fill:#FFD400;}
	.st18{fill:#FF8F00;}
	.st19{fill:#FF4A00;}
	.st20{fill:#F7D684;}
	.st21{fill:#FFD96C;}
	.st22{fill:#9ACC2E;}
	.st23{fill:#AADB3D;}
	.st24{fill:#A2D336;}
	.st25{fill:#93C427;}
	.st26{fill:#F79654;}
	.st27{fill:#FFD04D;}
	.st28{fill:#FCA15E;}
	.st29{fill:#A9E260;}
	.st30{fill:#97DB4A;}
	.st31{fill:#B1E346;}
	.st32{fill:#FCD8DE;}
	.st33{fill:#CDA073;}
	.st34{fill:#C09265;}
	.st35{fill:#A7794C;}
	.st36{fill:#96643B;}
	.st37{fill:#845331;}
	.st38{fill:#B38658;}
	.st39{fill:#9E6E43;}
	.st40{fill:#8D5B36;}
	.st41{fill:#FBCFD6;}
	.st42{fill:#FAC4D1;}
	.st43{fill:#FAB8CD;}
	.st44{fill:#F9ADC8;}
	.st45{fill:#F8A1C4;}
	.st46{fill:#F297BE;}
	.st47{fill:#EA8BB4;}
	.st48{fill:#E8BA36;}
	.st49{fill:#E0B12E;}
	.st50{fill:#FFC172;}
	.st51{fill:#FFAD68;}
	.st52{fill:#FFB76D;}
	.st53{fill:#6E57A0;}
	.st54{fill:#675099;}
	.st55{fill:#F3586F;}
	.st56{fill:#604893;}
	.st57{fill:#CBEB6B;}
	.st58{fill:#4EAC5D;}
	.st59{fill:#BEE758;}
	.st60{fill:#6CD275;}
	.st61{fill:#48A353;}
	.st62{fill:#60C46F;}
	.st63{fill:#D9F07D;}
	.st64{fill:#E6F490;}
	.st65{fill:#4896C8;}
	.st66{fill:#4390BF;}
	.st67{fill:#5CA3D5;}
	.st68{fill:#529CCF;}
	.st69{fill:#F7C845;}
	.st70{fill:#ECCD50;}
	.st71{fill:#FF8D6E;}
	.st72{fill:#FF805D;}
	.st73{fill:#EDEEEE;}
	.st74{fill:#65A9DC;}
	.st75{fill:#8BC07A;}
	.st76{fill:#F0C13E;}
	.st77{fill:#9A3644;}
	.st78{fill:#8A323F;}
	.st79{fill:#945BA0;}
	.st80{fill:#A366AD;}
	.st81{fill:#B370B9;}
	.st82{fill:#C27BC6;}
	.st83{fill:#F6B392;}
	.st84{fill:#D285D2;}
	.st85{fill:#FDEBBB;}
	.st86{fill:#FAE09F;}
	.st87{fill:#DBA728;}
	.st88{fill:#505957;}
	.st89{fill:#56C7CD;}
	.st90{fill:#434C4B;}
	.st91{fill:#687271;}
	.st92{fill:#5C6664;}
	.st93{fill:#51BAC5;}
	.st94{fill:#D64F45;}
	.st95{fill:#D1D4D4;}
	.st96{fill:#E3E5E5;}
	.st97{fill:#DADDDC;}
	.st98{fill:#845194;}
	.st99{fill:#5BD3D5;}
	.st100{fill:#46B080;}
	.st101{fill:#53BF8C;}
	.st102{fill:#6EDCA2;}
	.st103{fill:#7AEBAC;}
	.st104{fill:#60CD96;}
	.st105{fill:#E8803A;}
	.st106{fill:#0A6F8E;}
	.st107{fill:#0F769B;}
	.st108{fill:#EF8C48;}
	.st109{fill:#838C8A;}
	.st110{fill:#757F7E;}
	.st111{fill:#D1473D;}
	.st112{fill:#9179C6;}
	.st113{fill:#906DBB;}
	.st114{fill:#A78EDD;}
	.st115{fill:#9D85D3;}
	.st116{fill:#E2EFF7;}
	.st117{fill:#B0D3EA;}
	.st118{fill:#F7BC48;}
	.st119{fill:#FFC550;}
	.st120{fill:#FFCF6E;}
	.st121{fill:#4CAEBC;}
	.st122{fill:#47A1B4;}
	.st123{fill:#4295AC;}
	.st124{fill:#E85160;}
	.st125{fill:#D84459;}
	.st126{fill:#FDE2E6;}
	.st127{fill:#FFF5D8;}
	.st128{fill:#99533D;}
	.st129{fill:#914C39;}
	.st130{fill:#D4C9EF;}
	.st131{fill:#E3DBF4;}
	.st132{fill:#F1EDFA;}
	.st133{fill:#C6B7E9;}
	.st134{fill:#B8A5E4;}
	.st135{fill:#F0C877;}
	.st136{fill:#E8BA67;}
	.st137{fill:#DDAA5F;}
	.st138{fill:#909997;}
	.st139{fill:#724D31;}
	.st140{fill:#93C2CA;}
	.st141{fill:#99C7CE;}
	.st142{fill:#9FCCD3;}
	.st143{fill:#ACD7DD;}
	.st144{fill:#B9E2E7;}
	.st145{fill:#A5D1D8;}
	.st146{fill:#88B9C3;}
	.st147{fill:#7EB1BD;}
	.st148{fill:#C8CCCB;}
	.st149{fill:none;}
	.st150{fill:#4F4032;}
	.st151{fill:#604631;}
	.st152{fill:#F9BDA0;}
	.st153{fill:#E7685F;}
	.st154{fill:#C84054;}
	.st155{fill:#ABB2B1;}
	.st156{fill:#9DA5A4;}
	.st157{fill:#F74000;}
	.st158{fill:#F97C00;}
	.st159{fill:#F9C900;}
	.st160{fill:#EFD4A7;}
	.st161{fill:#EACEA1;}
	.st162{fill:#FCE8CC;}
	.st163{fill:#F5DEB9;}
	.st164{fill:#CFAB81;}
	.st165{fill:#D5B387;}
	.st166{fill:#3A4274;}
	.st167{fill:#707EB7;}
	.st168{fill:#424B7E;}
	.st169{fill:#7C8AC4;}
	.st170{fill:#FFD98D;}
	.st171{fill:#8694D1;}
	.st172{fill:#9AA6D6;}
	.st173{fill:#ABB4DD;}
	.st174{fill:#FDECEF;}
	.st175{fill:#137FA0;}
	.st176{fill:#EB6B48;}
	.st177{fill:#F57552;}
	.st178{fill:#515E91;}
	.st179{fill:#5C699E;}
	.st180{fill:#6673AA;}
	.st181{fill:#504484;}
	.st182{fill:#FF5F7E;}
	.st183{fill:#EBCEEB;}
	.st184{fill:#E5BDE5;}
	.st185{fill:#E0ABDF;}
	.st186{fill:#D799D6;}
	.st187{fill:#3B8FA3;}
	.st188{fill:#348B99;}
	.st189{fill:#F7F7F7;}
	.st190{fill:#3AA176;}
	.st191{fill:#84ED82;}
	.st192{fill:#EFEAEA;}
	.st193{fill:#FF9A7E;}
	.st194{fill:#FCD2BE;}
	.st195{fill:#FCDDCF;}
	.st196{fill:#C683C8;}
	.st197{fill:#A55F49;}
	.st198{fill:#FEF5F7;}
</style>
<g>
	<path class="sand_09" d="M13.8,20.9l-1.308,0.436c-0.204,0.068-0.429-0.002-0.558-0.174l-0.168-0.224l-0.586,2.345
		c-0.116,0.463-0.062,0.952,0.151,1.38L12,26v2l-2.748,1.832C9.088,29.942,8.895,30,8.697,30H8c-0.552,0-1,0.448-1,1
		c0,0.552,0.448,1,1,1h1.764c0.155,0,0.308-0.036,0.447-0.106l1.578-0.789C11.928,31.036,12.081,31,12.236,31H13
		c0.552,0,1-0.448,1-1v-5.764c0-0.155,0.036-0.308,0.106-0.447L15.2,21.6L13.8,20.9z"/>
	<path class="sand_10" d="M24,30h-0.697c-0.197,0-0.39-0.058-0.555-0.168L20,28v-2l0.669-1.338c0.214-0.427,0.267-0.916,0.151-1.38
		l-0.586-2.345l-0.168,0.224c-0.129,0.172-0.354,0.242-0.558,0.174L18.2,20.9l-1.4,0.7l1.094,2.189
		C17.964,23.928,18,24.081,18,24.236V30c0,0.552,0.448,1,1,1h0.764c0.155,0,0.308,0.036,0.447,0.106l1.578,0.789
		C21.928,31.964,22.081,32,22.236,32H24c0.552,0,1-0.448,1-1C25,30.448,24.552,30,24,30z"/>
	<path class="sand_01" d="M16,1.65l-1.645-1.234c-0.273-0.205-0.666-0.082-0.774,0.242L13.25,1.65l-2.548-0.425
		c-0.355-0.059-0.655,0.265-0.567,0.614l0.239,0.958C9.125,2.404,6.396,1.604,6,2C5.539,2.461,6.699,6.085,6.95,6.85L6.454,7.346
		c-0.195,0.195-0.195,0.512,0,0.707L7.2,8.8l-1.838,3.676C5.196,12.809,5.437,13.2,5.809,13.2H7.2l-0.881,2.642
		C6.211,16.166,6.452,16.5,6.794,16.5H7.75l1.426,2.853C9.3,19.6,9.6,19.7,9.847,19.576L10.5,19.25l1.434,1.912
		c0.129,0.172,0.354,0.242,0.558,0.174L13.8,20.9l1.976,0.988c0.07,0.035,0.147,0.053,0.224,0.053V1.65z"/>
	<path class="sand_02" d="M16.224,21.888L18.2,20.9l1.308,0.436c0.204,0.068,0.429-0.002,0.558-0.174L21.5,19.25l0.653,0.326
		C22.4,19.7,22.7,19.6,22.824,19.353L24.25,16.5h0.956c0.341,0,0.582-0.334,0.474-0.658L24.8,13.2h1.391
		c0.372,0,0.613-0.391,0.447-0.724L24.8,8.8l0.746-0.746c0.195-0.195,0.195-0.512,0-0.707L25.05,6.85
		C25.301,6.085,26.461,2.461,26,2c-0.396-0.396-3.125,0.404-4.374,0.798l0.239-0.958c0.087-0.349-0.212-0.674-0.567-0.614
		L18.75,1.65l-0.331-0.992c-0.108-0.324-0.501-0.447-0.774-0.242L16,1.65v20.291C16.077,21.941,16.153,21.923,16.224,21.888z"/>
	<path class="grey_17" d="M18,28h2c0.276,0,0.5-0.224,0.5-0.5v-1c0-0.276-0.224-0.5-0.5-0.5h-2c-0.276,0-0.5,0.224-0.5,0.5v1
		C17.5,27.776,17.724,28,18,28z"/>
	<path class="sand_09" d="M22.877,3.463c0.636-0.183,1.295-0.355,1.831-0.46c0.175-0.035,0.326,0.122,0.291,0.297
		c-0.103,0.507-0.268,1.153-0.46,1.824L22.877,3.463z"/>
	<g>
		<g>
			<path class="white" d="M14.777,12.852l-2.235-1.49c-0.285-0.19-0.671-0.044-0.761,0.287c-0.16,0.588-0.298,1.457,0.031,2.081
				c0.087,0.166,0.259,0.27,0.446,0.27H15v-0.732C15,13.1,14.916,12.944,14.777,12.852z"/>
		</g>
		<g>
			<path class="white" d="M14.777,12.852l-2.235-1.49c-0.285-0.19-0.671-0.044-0.761,0.287c-0.16,0.588-0.298,1.457,0.031,2.081
				c0.087,0.166,0.259,0.27,0.446,0.27H15v-0.732C15,13.1,14.916,12.944,14.777,12.852z"/>
		</g>
	</g>
	<path class="grey_01" d="M17.223,12.852l2.235-1.49c0.285-0.19,0.671-0.044,0.761,0.287c0.16,0.588,0.298,1.457-0.031,2.081
		C20.101,13.895,19.929,14,19.742,14H17v-0.732C17,13.1,17.084,12.944,17.223,12.852z"/>
	<path class="sand_08" d="M7.462,5.124C7.27,4.457,7.106,3.813,7.003,3.307C6.968,3.132,7.118,2.976,7.293,3.01
		c0.546,0.106,1.201,0.274,1.829,0.454L7.462,5.124z"/>
	<path class="tulip_05" d="M14.001,12.334l-1.002-0.668C12.999,11.775,13,11.886,13,12c0,1.105-0.052,2,0.5,2
		C13.995,14,14.004,13.279,14.001,12.334z"/>
	<path class="tulip_06" d="M17.999,12.334l1.002-0.668C19.001,11.775,19,11.886,19,12c0,1.105,0.052,2-0.5,2
		C18.005,14,17.996,13.279,17.999,12.334z"/>
	<path class="salmon_06" d="M16,13c-1.105,0-2,0.672-2,1.5s0.895,1.5,2,1.5V13z"/>
	<path class="salmon_07" d="M18,14.5c0-0.828-0.895-1.5-2-1.5v3C17.105,16,18,15.328,18,14.5z"/>
	<path class="grey_16" d="M14,28h-2c-0.276,0-0.5-0.224-0.5-0.5v-1c0-0.276,0.224-0.5,0.5-0.5h2c0.276,0,0.5,0.224,0.5,0.5v1
		C14.5,27.776,14.276,28,14,28z"/>
	<path class="grey_16" d="M4.001,20.172l-0.707-0.707c-0.391-0.391-0.391-1.024,0-1.414l1.414-1.414
		c0.391-0.391,1.024-0.391,1.414,0l0.707,0.707L4.001,20.172z"/>
	<path class="grey_17" d="M27.999,20.172l0.707-0.707c0.391-0.391,0.391-1.024,0-1.414l-1.414-1.414
		c-0.391-0.391-1.024-0.391-1.414,0l-0.707,0.707L27.999,20.172z"/>
	<path class="grey_17" d="M18,8.25c-0.064,0-0.128-0.024-0.177-0.073c-0.098-0.098-0.098-0.256,0-0.354L18.646,7l-0.823-0.823
		c-0.098-0.098-0.098-0.256,0-0.354s0.256-0.098,0.354,0l1,1c0.098,0.098,0.098,0.256,0,0.354l-1,1
		C18.128,8.226,18.064,8.25,18,8.25z M22.177,8.177c0.098-0.098,0.098-0.256,0-0.354L21.354,7l0.823-0.823
		c0.098-0.098,0.098-0.256,0-0.354s-0.256-0.098-0.354,0l-1,1c-0.098,0.098-0.098,0.256,0,0.354l1,1
		C21.872,8.226,21.936,8.25,22,8.25S22.128,8.226,22.177,8.177z M21.177,9.177c0.098-0.098,0.098-0.256,0-0.354l-1-1
		c-0.098-0.098-0.256-0.098-0.354,0l-1,1c-0.098,0.098-0.098,0.256,0,0.354s0.256,0.098,0.354,0L20,8.354l0.823,0.823
		C20.872,9.226,20.936,9.25,21,9.25S21.128,9.226,21.177,9.177z M20.177,6.177l1-1c0.098-0.098,0.098-0.256,0-0.354
		s-0.256-0.098-0.354,0L20,5.646l-0.823-0.823c-0.098-0.098-0.256-0.098-0.354,0s-0.098,0.256,0,0.354l1,1
		C19.872,6.226,19.936,6.25,20,6.25S20.128,6.226,20.177,6.177z"/>
	<path class="sand_02" d="M16,19.741c-0.077,0-0.153-0.018-0.224-0.053l-1.753-0.876c-0.141-0.07-0.306-0.07-0.447,0l-0.6,0.3
		c-0.169,0.085-0.372,0.066-0.524-0.047l-1.706-1.279c-0.152-0.114-0.354-0.132-0.524-0.047l-0.501,0.251
		c-0.192,0.096-0.425,0.059-0.577-0.094L7.75,16.5l1.426,2.853C9.3,19.6,9.6,19.7,9.847,19.576L10.5,19.25l1.434,1.912
		c0.129,0.172,0.354,0.242,0.558,0.174L13.8,20.9l1.976,0.988c0.07,0.035,0.147,0.053,0.224,0.053V19.741z"/>
	<path class="sand_03" d="M16.224,21.888L18.2,20.9l1.308,0.436c0.204,0.068,0.429-0.002,0.558-0.174L21.5,19.25l0.653,0.326
		C22.4,19.7,22.7,19.6,22.824,19.353L24.25,16.5l-1.395,1.395c-0.152,0.152-0.385,0.19-0.577,0.094l-0.501-0.251
		c-0.169-0.085-0.372-0.066-0.524,0.047l-1.706,1.279c-0.152,0.114-0.354,0.132-0.524,0.047l-0.6-0.3
		c-0.141-0.07-0.306-0.07-0.447,0l-1.753,0.876c-0.07,0.035-0.147,0.053-0.224,0.053v2.2C16.077,21.941,16.153,21.923,16.224,21.888
		z"/>
	<path class="sand_08" d="M9.658,20.172l0.707-0.707c0.391-0.391,0.391-1.024,0-1.414l-0.707-0.707
		c-0.781-0.781-2.047-0.781-2.828,0l-2.828,2.828c-0.781,0.781-0.781,2.047,0,2.828l1.414,1.414c0.781,0.781,2.047,0.781,2.828,0
		L9.658,23C10.439,22.219,10.439,20.953,9.658,20.172z"/>
	<path class="sand_09" d="M22.342,20.172l-0.707-0.707c-0.391-0.391-0.391-1.024,0-1.414l0.707-0.707
		c0.781-0.781,2.047-0.781,2.828,0l2.828,2.828c0.781,0.781,0.781,2.047,0,2.828l-1.414,1.414c-0.781,0.781-2.047,0.781-2.828,0
		L22.342,23C21.561,22.219,21.561,20.953,22.342,20.172z"/>
	<path class="sand_08" d="M3.716,14.798L6.113,13.2H5.809c-0.372,0-0.613-0.391-0.447-0.724L7.075,9.05H6.699
		c-0.89,0-1.735,0.395-2.305,1.079l-2.931,3.517c-0.662,0.795-0.609,1.963,0.122,2.695l1.709,1.709l1.414-1.414L3.64,15.567
		C3.417,15.344,3.453,14.973,3.716,14.798z"/>
	<path class="sand_09" d="M30.536,13.647l-2.931-3.517c-0.57-0.684-1.414-1.079-2.305-1.079h-0.375l1.713,3.426
		c0.166,0.332-0.076,0.724-0.447,0.724h-0.304l2.397,1.598c0.263,0.175,0.299,0.546,0.076,0.77l-1.069,1.069l1.414,1.414
		l1.709-1.709C31.146,15.61,31.199,14.442,30.536,13.647z"/>
</g>
</svg>
