<?xml version="1.0" encoding="utf-8"?>
<!-- Generator: Adobe Illustrator 20.1.0, SVG Export Plug-In . SVG Version: 6.00 Build 0)  -->
<!DOCTYPE svg PUBLIC "-//W3C//DTD SVG 1.1//EN" "http://www.w3.org/Graphics/SVG/1.1/DTD/svg11.dtd">
<svg version="1.1" id="icons" xmlns="http://www.w3.org/2000/svg" xmlns:xlink="http://www.w3.org/1999/xlink" x="0px" y="0px"
	 width="32px" height="32px" viewBox="0 0 32 32" style="enable-background:new 0 0 32 32;" xml:space="preserve">
<style type="text/css">
	.white{fill:#FFFFFF;}
	.grey_01{fill:#F7F7F7;}
	.grey_02{fill:#EDEEEE;}
	.grey_16{fill:#373F3F;}
	.grey_17{fill:#2B3332;}
	.periwinkle_08{fill:#71B1E1;}
	.periwinkle_09{fill:#65A9DC;}
	.periwinkle_10{fill:#5CA3D5;}
	.periwinkle_11{fill:#529CCF;}
	.st0{fill:#78DF7C;}
	.st1{fill:#54B668;}
	.st2{fill:#7A63AD;}
	.st3{fill:#866EBA;}
	.st4{fill:#D2E6F3;}
	.st5{fill:#C1DDEE;}
	.st6{fill:#E0C193;}
	.st7{fill:#DBBA8C;}
	.st8{fill:#7FB8E0;}
	.st9{fill:#8EC0E0;}
	.st10{fill:#9FC9E4;}
	.st11{fill:#FFEAA7;}
	.st12{fill:#FFE28A;}
	.st13{fill:#FF6B8B;}
	.st14{fill:#F4A984;}
	.st15{fill:#EA9C7A;}
	.st16{fill:#FEF1C6;}
	.st17{fill:#E85160;}
	.st18{fill:#D84459;}
	.st19{fill:#E55D53;}
	.st20{fill:#FFD400;}
	.st21{fill:#FF8F00;}
	.st22{fill:#FF4A00;}
	.st23{fill:#F7D684;}
	.st24{fill:#FAE09F;}
	.st25{fill:#FDEBBB;}
	.st26{fill:#FFF3D9;}
	.st27{fill:#FFD96C;}
	.st28{fill:#9ACC2E;}
	.st29{fill:#AADB3D;}
	.st30{fill:#A2D336;}
	.st31{fill:#93C427;}
	.st32{fill:#F79654;}
	.st33{fill:#FFD04D;}
	.st34{fill:#FCA15E;}
	.st35{fill:#A9E260;}
	.st36{fill:#97DB4A;}
	.st37{fill:#B1E346;}
	.st38{fill:#FCD8DE;}
	.st39{fill:#CDA073;}
	.st40{fill:#C09265;}
	.st41{fill:#A7794C;}
	.st42{fill:#96643B;}
	.st43{fill:#845331;}
	.st44{fill:#B38658;}
	.st45{fill:#9E6E43;}
	.st46{fill:#8D5B36;}
	.st47{fill:#FBCFD6;}
	.st48{fill:#FAC4D1;}
	.st49{fill:#FAB8CD;}
	.st50{fill:#F9ADC8;}
	.st51{fill:#F8A1C4;}
	.st52{fill:#F297BE;}
	.st53{fill:#EA8BB4;}
	.st54{fill:#E8BA36;}
	.st55{fill:#E0B12E;}
	.st56{fill:#FFC172;}
	.st57{fill:#FFAD68;}
	.st58{fill:#FFB76D;}
	.st59{fill:#6E57A0;}
	.st60{fill:#675099;}
	.st61{fill:#F3586F;}
	.st62{fill:#604893;}
	.st63{fill:#CBEB6B;}
	.st64{fill:#4EAC5D;}
	.st65{fill:#BEE758;}
	.st66{fill:#6CD275;}
	.st67{fill:#48A353;}
	.st68{fill:#60C46F;}
	.st69{fill:#D9F07D;}
	.st70{fill:#E6F490;}
	.st71{fill:#4896C8;}
	.st72{fill:#4390BF;}
	.st73{fill:#F7C845;}
	.st74{fill:#ECCD50;}
	.st75{fill:#FF8D6E;}
	.st76{fill:#FF805D;}
	.st77{fill:#8BC07A;}
	.st78{fill:#F0C13E;}
	.st79{fill:#9A3644;}
	.st80{fill:#8A323F;}
	.st81{fill:#945BA0;}
	.st82{fill:#A366AD;}
	.st83{fill:#B370B9;}
	.st84{fill:#C27BC6;}
	.st85{fill:#F6B392;}
	.st86{fill:#D285D2;}
	.st87{fill:#DBA728;}
	.st88{fill:#505957;}
	.st89{fill:#56C7CD;}
	.st90{fill:#434C4B;}
	.st91{fill:#687271;}
	.st92{fill:#5C6664;}
	.st93{fill:#51BAC5;}
	.st94{fill:#D64F45;}
	.st95{fill:#D1D4D4;}
	.st96{fill:#E3E5E5;}
	.st97{fill:#DADDDC;}
	.st98{fill:#845194;}
	.st99{fill:#5BD3D5;}
	.st100{fill:#46B080;}
	.st101{fill:#53BF8C;}
	.st102{fill:#6EDCA2;}
	.st103{fill:#7AEBAC;}
	.st104{fill:#60CD96;}
	.st105{fill:#E8803A;}
	.st106{fill:#0A6F8E;}
	.st107{fill:#0F769B;}
	.st108{fill:#EF8C48;}
	.st109{fill:#838C8A;}
	.st110{fill:#757F7E;}
	.st111{fill:#D1473D;}
	.st112{fill:#9179C6;}
	.st113{fill:#906DBB;}
	.st114{fill:#A78EDD;}
	.st115{fill:#9D85D3;}
	.st116{fill:#E2EFF7;}
	.st117{fill:#B0D3EA;}
	.st118{fill:#F7BC48;}
	.st119{fill:#FFC550;}
	.st120{fill:#FFCF6E;}
	.st121{fill:#4CAEBC;}
	.st122{fill:#47A1B4;}
	.st123{fill:#4295AC;}
	.st124{fill:#FDE2E6;}
	.st125{fill:#FFF5D8;}
	.st126{fill:#99533D;}
	.st127{fill:#914C39;}
	.st128{fill:#D4C9EF;}
	.st129{fill:#E3DBF4;}
	.st130{fill:#F1EDFA;}
	.st131{fill:#C6B7E9;}
	.st132{fill:#B8A5E4;}
	.st133{fill:#F0C877;}
	.st134{fill:#E8BA67;}
	.st135{fill:#DDAA5F;}
	.st136{fill:#D4994F;}
	.st137{fill:#C98B44;}
	.st138{fill:#BF7D3C;}
	.st139{fill:#909997;}
	.st140{fill:#724D31;}
	.st141{fill:#93C2CA;}
	.st142{fill:#99C7CE;}
	.st143{fill:#9FCCD3;}
	.st144{fill:#ACD7DD;}
	.st145{fill:#B9E2E7;}
	.st146{fill:#A5D1D8;}
	.st147{fill:#88B9C3;}
	.st148{fill:#7EB1BD;}
	.st149{fill:#C8CCCB;}
	.st150{fill:none;}
	.st151{fill:#4F4032;}
	.st152{fill:#604631;}
	.st153{fill:#F9BDA0;}
	.st154{fill:#E7685F;}
	.st155{fill:#C84054;}
	.st156{fill:#ABB2B1;}
	.st157{fill:#9DA5A4;}
	.st158{fill:#F74000;}
	.st159{fill:#F97C00;}
	.st160{fill:#F9C900;}
	.st161{fill:#EFD4A7;}
	.st162{fill:#EACEA1;}
	.st163{fill:#FCE8CC;}
	.st164{fill:#F5DEB9;}
	.st165{fill:#CFAB81;}
	.st166{fill:#D5B387;}
	.st167{fill:#3A4274;}
	.st168{fill:#707EB7;}
	.st169{fill:#424B7E;}
	.st170{fill:#7C8AC4;}
	.st171{fill:#FFD98D;}
	.st172{fill:#8694D1;}
	.st173{fill:#9AA6D6;}
	.st174{fill:#ABB4DD;}
	.st175{fill:#FDECEF;}
	.st176{fill:#137FA0;}
	.st177{fill:#EB6B48;}
	.st178{fill:#F57552;}
	.st179{fill:#515E91;}
	.st180{fill:#5C699E;}
	.st181{fill:#6673AA;}
	.st182{fill:#504484;}
	.st183{fill:#FF5F7E;}
	.st184{fill:#EBCEEB;}
	.st185{fill:#E5BDE5;}
	.st186{fill:#E0ABDF;}
	.st187{fill:#D799D6;}
	.st188{fill:#3B8FA3;}
	.st189{fill:#348B99;}
	.st190{fill:#F7F7F7;}
	.st191{fill:#3AA176;}
	.st192{fill:#84ED82;}
	.st193{fill:#EFEAEA;}
	.st194{fill:#FF9A7E;}
	.st195{fill:#FCD2BE;}
	.st196{fill:#FCDDCF;}
	.st197{fill:#C683C8;}
	.st198{fill:#A55F49;}
	.st199{fill:#FEF5F7;}
</style>
<g>
	<g>
		<path class="grey_01" d="M31.534,13.011c-1.661,5.267-10.286,17.727-15.553,16.065c-5.267-1.661-5.182-16.815-3.521-22.082
			s7.278-8.19,12.545-6.529S33.196,7.744,31.534,13.011z"/>
		<path class="grey_02" d="M31.534,13.011c-1.661,5.267-10.286,17.727-15.553,16.065l9.024-28.61
			C30.273,2.127,33.196,7.744,31.534,13.011z"/>
	</g>
	<path class="periwinkle_11" d="M20.28,27.191c-0.756,1.322,0.072,3.203,1.851,4.202c1.778,0.999,3.833,0.738,4.589-0.584
		c0.756-1.322-0.072-3.203-1.851-4.202C23.091,25.608,21.036,25.869,20.28,27.191z"/>
	<path class="periwinkle_10" d="M11.72,27.191c0.756,1.322-0.072,3.203-1.851,4.202c-1.778,0.999-3.833,0.738-4.589-0.584
		c-0.756-1.322,0.072-3.203,1.851-4.202C8.909,25.608,10.964,25.869,11.72,27.191z"/>
	<path class="periwinkle_09" d="M16,3v27c7.732,0,14-4.994,14-12.521S23.732,3,16,3z"/>
	<path class="periwinkle_08" d="M2,17.479C2,25.006,8.268,30,16,30V3C8.268,3,2,9.952,2,17.479z"/>
	<g>
		<path class="grey_01" d="M16,15c4.418,0,8,3.134,8,7c0,3.866-3.582,7-8,7V15z"/>
		<path class="white" d="M8,22c0-3.866,3.582-7,8-7v14C11.582,29,8,25.866,8,22z"/>
		<g>
			<path class="grey_17" d="M18.512,22c0,0.827-1.077,1.45-2.512,1.463v-0.75c1.06-0.012,1.762-0.433,1.762-0.714
				S17.06,21.299,16,21.286v-0.75C17.434,20.55,18.512,21.173,18.512,22z"/>
			<path class="grey_17" d="M20.693,22c0,1.999-2.102,3.624-4.693,3.644v-0.75c2.178-0.018,3.943-1.308,3.943-2.894
				c0-1.587-1.766-2.877-3.943-2.895v-0.75C18.592,18.375,20.693,20,20.693,22z"/>
			<path class="grey_17" d="M16,27.077c3.381-0.021,6.125-2.289,6.125-5.077S19.381,16.942,16,16.922v-0.75
				c3.795,0.021,6.875,2.626,6.875,5.828c0,3.201-3.08,5.806-6.875,5.827V27.077z"/>
		</g>
		<g>
			<path class="grey_16" d="M15.579,20.909c0-0.207,0.168-0.375,0.375-0.375c0.016,0,0.03,0.002,0.046,0.003v0.75
				c-0.016,0-0.03-0.002-0.046-0.002C15.747,21.284,15.579,21.116,15.579,20.909z"/>
			<path class="grey_16" d="M12.307,20.909c0-1.435,1.603-2.558,3.647-2.558c0.016,0,0.03,0.003,0.046,0.004v0.75
				c-0.016,0-0.03-0.003-0.046-0.003c-1.57,0-2.897,0.828-2.897,1.808s1.327,1.807,2.897,1.807c0.016,0,0.03-0.002,0.046-0.002v0.75
				c-0.016,0-0.03,0.003-0.046,0.003C13.909,23.466,12.307,22.343,12.307,20.909z"/>
			<path class="grey_16" d="M15.579,27.454c0-0.207,0.168-0.375,0.375-0.375c0.016,0,0.03-0.002,0.046-0.002v0.75
				c-0.015,0-0.03,0.002-0.046,0.002C15.747,27.829,15.579,27.661,15.579,27.454z"/>
			<path class="grey_16" d="M15.954,16.17c0.016,0,0.03,0.002,0.046,0.002v0.75c-0.015,0-0.03-0.002-0.046-0.002
				c-2.801,0-5.079,1.79-5.079,3.989s2.278,3.988,5.079,3.988c0.016,0,0.03-0.003,0.046-0.003v0.75c-0.016,0-0.03,0.004-0.046,0.004
				c-3.214,0-5.829-2.126-5.829-4.738C10.125,18.296,12.74,16.17,15.954,16.17z"/>
		</g>
	</g>
	<g>
		<path class="st38" d="M16,13c-1.657,0-3,1.119-3,2.5c0,1.381,1.343,2.5,3,2.5V13z"/>
		<path class="st47" d="M19,15.5c0-1.381-1.343-2.5-3-2.5v5C17.657,18,19,16.881,19,15.5z"/>
		<path class="grey_16" d="M16,14c-0.828,0-1.5,0.448-1.5,1c0,0.552,0.672,1,1.5,1V14z"/>
		<path class="grey_17" d="M17.5,15c0-0.552-0.672-1-1.5-1v2C16.828,16,17.5,15.552,17.5,15z"/>
	</g>
	<g>
		<path class="grey_01" d="M19.579,12.078c1.064,1.725,3.235,2.417,4.848,1.545c1.613-0.871,2.058-2.976,0.994-4.701
			s-3.235-2.417-4.848-1.545C18.959,8.248,18.514,10.353,19.579,12.078z"/>
		<path class="grey_17" d="M19.579,12.078c0,0,1.691,1.689,4.126,0.374s1.716-3.53,1.716-3.53c-1.064-1.725-3.235-2.417-4.848-1.545
			C18.959,8.248,18.514,10.353,19.579,12.078z"/>
	</g>
	<g>
		<g>
			<path class="white" d="M12.421,12.078c-1.064,1.725-3.235,2.417-4.848,1.545s-2.058-2.976-0.994-4.701s3.235-2.417,4.848-1.545
				S13.486,10.353,12.421,12.078z"/>
			<path class="grey_16" d="M12.421,12.078c0,0-1.691,1.689-4.126,0.374s-1.716-3.53-1.716-3.53
				c1.064-1.725,3.235-2.417,4.848-1.545S13.486,10.353,12.421,12.078z"/>
		</g>
	</g>
	<circle class="grey_01" cx="22" cy="9" r="1"/>
	<circle class="white" cx="10" cy="9" r="1"/>
</g>
</svg>
