<?xml version="1.0" encoding="utf-8"?>
<!-- Generator: Adobe Illustrator 20.1.0, SVG Export Plug-In . SVG Version: 6.00 Build 0)  -->
<!DOCTYPE svg PUBLIC "-//W3C//DTD SVG 1.1//EN" "http://www.w3.org/Graphics/SVG/1.1/DTD/svg11.dtd">
<svg version="1.1" id="icons" xmlns="http://www.w3.org/2000/svg" xmlns:xlink="http://www.w3.org/1999/xlink" x="0px" y="0px"
	 width="32px" height="32px" viewBox="0 0 32 32" style="enable-background:new 0 0 32 32;" xml:space="preserve">
<style type="text/css">
	.grey_16{fill:#373F3F;}
	.grey_17{fill:#2B3332;}
	.lemon_05{fill:#FFD96C;}
	.lemon_06{fill:#FFD04D;}
	.lemon_07{fill:#F7C845;}
	.lemon_08{fill:#F0C13E;}
	.sand_06{fill:#E8BA67;}
	.sand_07{fill:#DDAA5F;}
	.dirt_14{fill:#9E6E43;}
	.dirt_15{fill:#96643B;}
	.dirt_16{fill:#8D5B36;}
	.dirt_17{fill:#845331;}
	.st0{fill:#78DF7C;}
	.st1{fill:#54B668;}
	.st2{fill:#7A63AD;}
	.st3{fill:#866EBA;}
	.st4{fill:#D2E6F3;}
	.st5{fill:#C1DDEE;}
	.st6{fill:#E0C193;}
	.st7{fill:#DBBA8C;}
	.st8{fill:#7FB8E0;}
	.st9{fill:#8EC0E0;}
	.st10{fill:#71B1E1;}
	.st11{fill:#9FC9E4;}
	.st12{fill:#FFEAA7;}
	.st13{fill:#FFE28A;}
	.st14{fill:#FF6B8B;}
	.st15{fill:#F4A984;}
	.st16{fill:#EA9C7A;}
	.st17{fill:#FEF1C6;}
	.st18{fill:#E85160;}
	.st19{fill:#D84459;}
	.st20{fill:#F7F7F7;}
	.st21{fill:#FFFFFF;}
	.st22{fill:#E55D53;}
	.st23{fill:#FFD400;}
	.st24{fill:#FF8F00;}
	.st25{fill:#FF4A00;}
	.st26{fill:#F7D684;}
	.st27{fill:#FAE09F;}
	.st28{fill:#FDEBBB;}
	.st29{fill:#FFF3D9;}
	.st30{fill:#9ACC2E;}
	.st31{fill:#AADB3D;}
	.st32{fill:#A2D336;}
	.st33{fill:#93C427;}
	.st34{fill:#F79654;}
	.st35{fill:#FCA15E;}
	.st36{fill:#A9E260;}
	.st37{fill:#97DB4A;}
	.st38{fill:#B1E346;}
	.st39{fill:#FCD8DE;}
	.st40{fill:#CDA073;}
	.st41{fill:#C09265;}
	.st42{fill:#A7794C;}
	.st43{fill:#B38658;}
	.st44{fill:#FBCFD6;}
	.st45{fill:#FAC4D1;}
	.st46{fill:#FAB8CD;}
	.st47{fill:#F9ADC8;}
	.st48{fill:#F8A1C4;}
	.st49{fill:#F297BE;}
	.st50{fill:#EA8BB4;}
	.st51{fill:#E8BA36;}
	.st52{fill:#E0B12E;}
	.st53{fill:#FFC172;}
	.st54{fill:#FFAD68;}
	.st55{fill:#FFB76D;}
	.st56{fill:#6E57A0;}
	.st57{fill:#675099;}
	.st58{fill:#F3586F;}
	.st59{fill:#604893;}
	.st60{fill:#CBEB6B;}
	.st61{fill:#4EAC5D;}
	.st62{fill:#BEE758;}
	.st63{fill:#6CD275;}
	.st64{fill:#48A353;}
	.st65{fill:#60C46F;}
	.st66{fill:#D9F07D;}
	.st67{fill:#E6F490;}
	.st68{fill:#4896C8;}
	.st69{fill:#4390BF;}
	.st70{fill:#5CA3D5;}
	.st71{fill:#529CCF;}
	.st72{fill:#ECCD50;}
	.st73{fill:#FF8D6E;}
	.st74{fill:#FF805D;}
	.st75{fill:#EDEEEE;}
	.st76{fill:#65A9DC;}
	.st77{fill:#8BC07A;}
	.st78{fill:#9A3644;}
	.st79{fill:#8A323F;}
	.st80{fill:#945BA0;}
	.st81{fill:#A366AD;}
	.st82{fill:#B370B9;}
	.st83{fill:#C27BC6;}
	.st84{fill:#F6B392;}
	.st85{fill:#D285D2;}
	.st86{fill:#DBA728;}
	.st87{fill:#505957;}
	.st88{fill:#56C7CD;}
	.st89{fill:#434C4B;}
	.st90{fill:#687271;}
	.st91{fill:#5C6664;}
	.st92{fill:#51BAC5;}
	.st93{fill:#D64F45;}
	.st94{fill:#D1D4D4;}
	.st95{fill:#E3E5E5;}
	.st96{fill:#DADDDC;}
	.st97{fill:#845194;}
	.st98{fill:#5BD3D5;}
	.st99{fill:#46B080;}
	.st100{fill:#53BF8C;}
	.st101{fill:#6EDCA2;}
	.st102{fill:#7AEBAC;}
	.st103{fill:#60CD96;}
	.st104{fill:#E8803A;}
	.st105{fill:#0A6F8E;}
	.st106{fill:#0F769B;}
	.st107{fill:#EF8C48;}
	.st108{fill:#838C8A;}
	.st109{fill:#757F7E;}
	.st110{fill:#D1473D;}
	.st111{fill:#9179C6;}
	.st112{fill:#906DBB;}
	.st113{fill:#A78EDD;}
	.st114{fill:#9D85D3;}
	.st115{fill:#E2EFF7;}
	.st116{fill:#B0D3EA;}
	.st117{fill:#F7BC48;}
	.st118{fill:#FFC550;}
	.st119{fill:#FFCF6E;}
	.st120{fill:#F0C13E;}
	.st121{fill:#4CAEBC;}
	.st122{fill:#47A1B4;}
	.st123{fill:#4295AC;}
	.st124{fill:#FDE2E6;}
	.st125{fill:#FFF5D8;}
	.st126{fill:#99533D;}
	.st127{fill:#914C39;}
	.st128{fill:#D4C9EF;}
	.st129{fill:#E3DBF4;}
	.st130{fill:#F1EDFA;}
	.st131{fill:#C6B7E9;}
	.st132{fill:#B8A5E4;}
	.st133{fill:#F0C877;}
	.st134{fill:#D4994F;}
	.st135{fill:#C98B44;}
	.st136{fill:#BF7D3C;}
	.st137{fill:#909997;}
	.st138{fill:#724D31;}
	.st139{fill:#93C2CA;}
	.st140{fill:#99C7CE;}
	.st141{fill:#9FCCD3;}
	.st142{fill:#ACD7DD;}
	.st143{fill:#B9E2E7;}
	.st144{fill:#A5D1D8;}
	.st145{fill:#88B9C3;}
	.st146{fill:#7EB1BD;}
	.st147{fill:#C8CCCB;}
	.st148{fill:none;}
	.st149{fill:#4F4032;}
	.st150{fill:#604631;}
	.st151{fill:#9E6E43;}
	.st152{fill:#F9BDA0;}
	.st153{fill:#E7685F;}
	.st154{fill:#C84054;}
	.st155{fill:#ABB2B1;}
	.st156{fill:#9DA5A4;}
	.st157{fill:#FFD96C;}
	.st158{fill:#FFD04D;}
	.st159{fill:#F74000;}
	.st160{fill:#F97C00;}
	.st161{fill:#F9C900;}
	.st162{fill:#EFD4A7;}
	.st163{fill:#EACEA1;}
	.st164{fill:#FCE8CC;}
	.st165{fill:#F5DEB9;}
	.st166{fill:#CFAB81;}
	.st167{fill:#D5B387;}
	.st168{fill:#3A4274;}
	.st169{fill:#707EB7;}
	.st170{fill:#424B7E;}
	.st171{fill:#7C8AC4;}
	.st172{fill:#FFD98D;}
	.st173{fill:#8694D1;}
	.st174{fill:#9AA6D6;}
	.st175{fill:#ABB4DD;}
	.st176{fill:#FDECEF;}
	.st177{fill:#137FA0;}
	.st178{fill:#EB6B48;}
	.st179{fill:#F57552;}
	.st180{fill:#515E91;}
	.st181{fill:#5C699E;}
	.st182{fill:#6673AA;}
	.st183{fill:#504484;}
	.st184{fill:#FF5F7E;}
	.st185{fill:#EBCEEB;}
	.st186{fill:#E5BDE5;}
	.st187{fill:#E0ABDF;}
	.st188{fill:#D799D6;}
	.st189{fill:#3B8FA3;}
	.st190{fill:#348B99;}
	.st191{fill:#3AA176;}
	.st192{fill:#84ED82;}
	.st193{fill:#EFEAEA;}
	.st194{fill:#FF9A7E;}
	.st195{fill:#FCD2BE;}
	.st196{fill:#FCDDCF;}
	.st197{fill:#C683C8;}
	.st198{fill:#A55F49;}
	.st199{fill:#FEF5F7;}
</style>
<g>
	<path class="lemon_08" d="M16.291,15.982c0,0,8.926-3.183,14.85-8.828c0.357-0.34,0.943-0.001,0.828,0.479
		C29.89,16.304,22.5,21.438,22.5,21.438L16.291,15.982z"/>
	<path class="dirt_17" d="M29.167,14.167c0.504-0.805,0.978-1.669,1.407-2.593L28.43,9.43c-0.776,0.584-1.566,1.132-2.357,1.643
		L29.167,14.167z"/>
	<g>
		<rect x="11.5" y="17" class="lemon_06" width="4.5" height="5"/>
		<rect x="16" y="17" class="lemon_07" width="4.5" height="5"/>
		<polygon class="dirt_15" points="11.5,14 11.5,17 16,18 16,14 		"/>
		<polygon class="dirt_16" points="16,14 16,18 20.5,17 20.5,14 		"/>
		<path class="dirt_14" d="M10.5,11c0,0-2.629,0-3.785,2.461c-0.13,0.278-0.002,0.609,0.288,0.706L9.5,15H16v-4H10.5z"/>
		<path class="dirt_15" d="M21.5,11c0,0,2.629,0,3.785,2.461c0.13,0.278,0.002,0.609-0.288,0.706L22.5,15H16v-4H21.5z"/>
		<polygon class="lemon_06" points="9.5,15 8.5,19 11.5,17 11.5,15 		"/>
		<polygon class="lemon_07" points="22.463,15 23.463,19 20.463,17 20.463,15 		"/>
		<path class="lemon_06" d="M11.5,20c0,0-3,0-4,4l2,4c0,0,1-4,3-4L11.5,20z"/>
		<path class="lemon_07" d="M20.5,20c0,0,3,0,4,4l-2,4c0,0-1-4-3-4L20.5,20z"/>
		<path class="lemon_05" d="M13.5,2l-3.276-1.638C9.891,0.196,9.5,0.437,9.5,0.809V5L8.806,7.774
			c-0.204,0.814-0.167,1.67,0.106,2.463l0.014,0.042c0.381,1.11,1.183,2.025,2.233,2.55l1.959,0.979
			c0.302,0.151,0.539,0.408,0.664,0.722l0,0C14.137,15.418,14.997,16,15.952,16H16V2H13.5z"/>
		<path class="lemon_06" d="M23.194,7.774L22.5,5l0-4.191c0-0.372-0.391-0.613-0.724-0.447L18.5,2H16v14h0.23
			c0.845,0,1.605-0.515,1.919-1.299v0c0.169-0.423,0.488-0.769,0.896-0.973l1.795-0.897c1.05-0.525,1.851-1.44,2.233-2.55
			l0.014-0.042C23.36,9.444,23.397,8.588,23.194,7.774z"/>
		<path class="sand_06" d="M9.705,0.41C9.584,0.499,9.5,0.639,9.5,0.809V5l2-1L9.705,0.41z"/>
		<path class="sand_07" d="M22.5,5V0.809c0-0.17-0.084-0.31-0.205-0.399L20.5,4L22.5,5z"/>
		<path class="lemon_05" d="M2.563,22.937c0.517-0.517,1.356-0.517,1.874,0L5.5,24l-0.741-2.223
			c-0.159-0.476-0.035-1.001,0.32-1.356l0,0c0.673-0.673,1.814-0.438,2.167,0.445l2.538,6.346c0.472,1.181,0.715,2.442,0.715,3.714
			V31c0,0.552-0.448,1-1,1h0c-0.552,0-1-0.448-1-1v-0.54c0-0.292-0.128-0.569-0.349-0.759l-5.564-4.769
			C2,24.429,1.966,23.534,2.512,22.988L2.563,22.937z"/>
		<path class="lemon_06" d="M29.437,22.937c-0.517-0.517-1.356-0.517-1.874,0L26.5,24l0.741-2.223
			c0.159-0.476,0.035-1.001-0.32-1.356l0,0c-0.673-0.673-1.814-0.438-2.167,0.445l-2.538,6.346
			c-0.472,1.181-0.715,2.442-0.715,3.714V31c0,0.552,0.448,1,1,1h0c0.552,0,1-0.448,1-1v-0.54c0-0.292,0.128-0.569,0.349-0.759
			l5.564-4.769c0.586-0.502,0.62-1.397,0.075-1.943L29.437,22.937z"/>
		<path class="grey_16" d="M14.75,12.003c-0.091,0-0.18-0.051-0.224-0.139c-0.673-1.347-2.26-1.361-2.276-1.361
			c-0.138,0-0.25-0.111-0.25-0.25c0-0.138,0.112-0.25,0.25-0.25l0,0c0.083,0,1.915,0.02,2.724,1.639
			c0.062,0.123,0.012,0.273-0.112,0.335C14.826,11.994,14.788,12.003,14.75,12.003z"/>
		<path class="grey_17" d="M17.25,12.003c-0.038,0-0.076-0.009-0.112-0.026c-0.124-0.062-0.173-0.212-0.112-0.335
			c0.809-1.619,2.641-1.639,2.724-1.639l0,0c0.138,0,0.25,0.111,0.25,0.25c0,0.138-0.111,0.249-0.249,0.25
			c-0.065,0-1.607,0.021-2.277,1.361C17.43,11.952,17.341,12.003,17.25,12.003z"/>
		<path class="lemon_05" d="M16,20.791c-0.162-0.242-0.347-0.468-0.579-0.654L11.5,17l-3,2c0,0.552,0.448,1,1,1s1,0.448,1,1v0.394
			c0,0.395,0.117,0.781,0.336,1.109l1.174,1.762c0.28,0.42,0.828,0.565,1.279,0.34l2.658-1.329c0.02-0.01,0.034-0.026,0.053-0.036
			V20.791z"/>
		<path class="lemon_06" d="M20.5,17l-3.921,3.137c-0.232,0.186-0.417,0.413-0.579,0.654v2.449c0.019,0.011,0.033,0.027,0.053,0.036
			l2.658,1.329c0.451,0.226,1,0.08,1.279-0.34l1.174-1.762c0.219-0.329,0.336-0.715,0.336-1.109V21c0-0.552,0.448-1,1-1s1-0.448,1-1
			L20.5,17z"/>
	</g>
</g>
</svg>
