<?xml version="1.0" encoding="utf-8"?>
<!-- Generator: Adobe Illustrator 20.1.0, SVG Export Plug-In . SVG Version: 6.00 Build 0)  -->
<!DOCTYPE svg PUBLIC "-//W3C//DTD SVG 1.1//EN" "http://www.w3.org/Graphics/SVG/1.1/DTD/svg11.dtd">
<svg version="1.1" id="icons" xmlns="http://www.w3.org/2000/svg" xmlns:xlink="http://www.w3.org/1999/xlink" x="0px" y="0px"
	 width="32px" height="32px" viewBox="0 0 32 32" style="enable-background:new 0 0 32 32;" xml:space="preserve">
<style type="text/css">
	.white{fill:#FFFFFF;}
	.grey_01{fill:#F7F7F7;}
	.grey_02{fill:#EDEEEE;}
	.grey_16{fill:#373F3F;}
	.grey_17{fill:#2B3332;}
	.glass_01{fill:#B9E2E7;}
	.glass_02{fill:#ACD7DD;}
	.glass_03{fill:#A5D1D8;}
	.glass_04{fill:#9FCCD3;}
	.glass_05{fill:#99C7CE;}
	.glass_06{fill:#93C2CA;}
	.glass_07{fill:#88B9C3;}
	.glass_08{fill:#7EB1BD;}
	.tulip_05{fill:#E85160;}
	.tulip_06{fill:#D84459;}
	.st0{fill:#78DF7C;}
	.st1{fill:#54B668;}
	.st2{fill:#7A63AD;}
	.st3{fill:#866EBA;}
	.st4{fill:#D2E6F3;}
	.st5{fill:#C1DDEE;}
	.st6{fill:#E0C193;}
	.st7{fill:#DBBA8C;}
	.st8{fill:#7FB8E0;}
	.st9{fill:#8EC0E0;}
	.st10{fill:#71B1E1;}
	.st11{fill:#9FC9E4;}
	.st12{fill:#FFEAA7;}
	.st13{fill:#FFE28A;}
	.st14{fill:#FF6B8B;}
	.st15{fill:#F4A984;}
	.st16{fill:#EA9C7A;}
	.st17{fill:#FEF1C6;}
	.st18{fill:#E55D53;}
	.st19{fill:#FFD400;}
	.st20{fill:#FF8F00;}
	.st21{fill:#FF4A00;}
	.st22{fill:#F7D684;}
	.st23{fill:#FAE09F;}
	.st24{fill:#FDEBBB;}
	.st25{fill:#FFF3D9;}
	.st26{fill:#FFD96C;}
	.st27{fill:#9ACC2E;}
	.st28{fill:#AADB3D;}
	.st29{fill:#A2D336;}
	.st30{fill:#93C427;}
	.st31{fill:#F79654;}
	.st32{fill:#FFD04D;}
	.st33{fill:#FCA15E;}
	.st34{fill:#A9E260;}
	.st35{fill:#97DB4A;}
	.st36{fill:#B1E346;}
	.st37{fill:#FCD8DE;}
	.st38{fill:#CDA073;}
	.st39{fill:#C09265;}
	.st40{fill:#A7794C;}
	.st41{fill:#96643B;}
	.st42{fill:#845331;}
	.st43{fill:#B38658;}
	.st44{fill:#9E6E43;}
	.st45{fill:#8D5B36;}
	.st46{fill:#FBCFD6;}
	.st47{fill:#FAC4D1;}
	.st48{fill:#FAB8CD;}
	.st49{fill:#F9ADC8;}
	.st50{fill:#F8A1C4;}
	.st51{fill:#F297BE;}
	.st52{fill:#EA8BB4;}
	.st53{fill:#E8BA36;}
	.st54{fill:#E0B12E;}
	.st55{fill:#FFC172;}
	.st56{fill:#FFAD68;}
	.st57{fill:#FFB76D;}
	.st58{fill:#6E57A0;}
	.st59{fill:#675099;}
	.st60{fill:#F3586F;}
	.st61{fill:#604893;}
	.st62{fill:#CBEB6B;}
	.st63{fill:#4EAC5D;}
	.st64{fill:#BEE758;}
	.st65{fill:#6CD275;}
	.st66{fill:#48A353;}
	.st67{fill:#60C46F;}
	.st68{fill:#D9F07D;}
	.st69{fill:#E6F490;}
	.st70{fill:#4896C8;}
	.st71{fill:#4390BF;}
	.st72{fill:#5CA3D5;}
	.st73{fill:#529CCF;}
	.st74{fill:#F7C845;}
	.st75{fill:#ECCD50;}
	.st76{fill:#FF8D6E;}
	.st77{fill:#FF805D;}
	.st78{fill:#65A9DC;}
	.st79{fill:#8BC07A;}
	.st80{fill:#F0C13E;}
	.st81{fill:#9A3644;}
	.st82{fill:#8A323F;}
	.st83{fill:#945BA0;}
	.st84{fill:#A366AD;}
	.st85{fill:#B370B9;}
	.st86{fill:#C27BC6;}
	.st87{fill:#F6B392;}
	.st88{fill:#D285D2;}
	.st89{fill:#DBA728;}
	.st90{fill:#505957;}
	.st91{fill:#56C7CD;}
	.st92{fill:#434C4B;}
	.st93{fill:#687271;}
	.st94{fill:#5C6664;}
	.st95{fill:#51BAC5;}
	.st96{fill:#D64F45;}
	.st97{fill:#D1D4D4;}
	.st98{fill:#E3E5E5;}
	.st99{fill:#DADDDC;}
	.st100{fill:#845194;}
	.st101{fill:#5BD3D5;}
	.st102{fill:#46B080;}
	.st103{fill:#53BF8C;}
	.st104{fill:#6EDCA2;}
	.st105{fill:#7AEBAC;}
	.st106{fill:#60CD96;}
	.st107{fill:#E8803A;}
	.st108{fill:#0A6F8E;}
	.st109{fill:#0F769B;}
	.st110{fill:#EF8C48;}
	.st111{fill:#838C8A;}
	.st112{fill:#757F7E;}
	.st113{fill:#D1473D;}
	.st114{fill:#9179C6;}
	.st115{fill:#906DBB;}
	.st116{fill:#A78EDD;}
	.st117{fill:#9D85D3;}
	.st118{fill:#E2EFF7;}
	.st119{fill:#B0D3EA;}
	.st120{fill:#F7BC48;}
	.st121{fill:#FFC550;}
	.st122{fill:#FFCF6E;}
	.st123{fill:#4CAEBC;}
	.st124{fill:#47A1B4;}
	.st125{fill:#4295AC;}
	.st126{fill:#E85160;}
	.st127{fill:#D84459;}
	.st128{fill:#FDE2E6;}
	.st129{fill:#FFF5D8;}
	.st130{fill:#99533D;}
	.st131{fill:#914C39;}
	.st132{fill:#D4C9EF;}
	.st133{fill:#E3DBF4;}
	.st134{fill:#F1EDFA;}
	.st135{fill:#C6B7E9;}
	.st136{fill:#B8A5E4;}
	.st137{fill:#F0C877;}
	.st138{fill:#E8BA67;}
	.st139{fill:#DDAA5F;}
	.st140{fill:#D4994F;}
	.st141{fill:#C98B44;}
	.st142{fill:#BF7D3C;}
	.st143{fill:#909997;}
	.st144{fill:#724D31;}
	.st145{fill:#C8CCCB;}
	.st146{fill:none;}
	.st147{fill:#4F4032;}
	.st148{fill:#604631;}
	.st149{fill:#F9BDA0;}
	.st150{fill:#E7685F;}
	.st151{fill:#C84054;}
	.st152{fill:#ABB2B1;}
	.st153{fill:#9DA5A4;}
	.st154{fill:#F74000;}
	.st155{fill:#F97C00;}
	.st156{fill:#F9C900;}
	.st157{fill:#93C2CA;}
	.st158{fill:#EFD4A7;}
	.st159{fill:#EACEA1;}
	.st160{fill:#FCE8CC;}
	.st161{fill:#F5DEB9;}
	.st162{fill:#CFAB81;}
	.st163{fill:#D5B387;}
	.st164{fill:#3A4274;}
	.st165{fill:#707EB7;}
	.st166{fill:#424B7E;}
	.st167{fill:#7C8AC4;}
	.st168{fill:#FFD98D;}
	.st169{fill:#8694D1;}
	.st170{fill:#9AA6D6;}
	.st171{fill:#ABB4DD;}
	.st172{fill:#FDECEF;}
	.st173{fill:#137FA0;}
	.st174{fill:#EB6B48;}
	.st175{fill:#F57552;}
	.st176{fill:#515E91;}
	.st177{fill:#5C699E;}
	.st178{fill:#6673AA;}
	.st179{fill:#504484;}
	.st180{fill:#FF5F7E;}
	.st181{fill:#EBCEEB;}
	.st182{fill:#E5BDE5;}
	.st183{fill:#E0ABDF;}
	.st184{fill:#D799D6;}
	.st185{fill:#3B8FA3;}
	.st186{fill:#348B99;}
	.st187{fill:#F7F7F7;}
	.st188{fill:#3AA176;}
	.st189{fill:#84ED82;}
	.st190{fill:#EFEAEA;}
	.st191{fill:#FF9A7E;}
	.st192{fill:#FCD2BE;}
	.st193{fill:#FCDDCF;}
	.st194{fill:#C683C8;}
	.st195{fill:#A55F49;}
	.st196{fill:#FEF5F7;}
</style>
<g>
	<path class="glass_06" d="M18,14h2.646c0.818,0,1.553,0.498,1.857,1.257l1.164,2.909c0.212,0.53,0.187,1.126-0.068,1.637
		l-1.046,2.091C22.214,22.572,21.521,23,20.764,23H20v-4L18,14z"/>
	<path class="glass_05" d="M14,14h-2.646c-0.818,0-1.553,0.498-1.857,1.257l-1.164,2.909c-0.212,0.53-0.187,1.126,0.068,1.637
		l1.046,2.091C9.786,22.572,10.479,23,11.236,23H12v-4L14,14z"/>
	<path class="glass_06" d="M19,20l1.499,3.748C20.83,24.575,21,25.458,21,26.348v2.034c0,0.379,0.214,0.725,0.553,0.894l0.106,0.053
		C22.481,29.74,23,30.581,23,31.5v0c0,0.276-0.224,0.5-0.5,0.5H18c-0.552,0-1-0.448-1-1v-0.002c0-0.639,0.254-1.252,0.706-1.704
		l0.001-0.001C17.895,29.105,18,28.851,18,28.586v-0.98c0-0.395-0.117-0.781-0.336-1.109L16,24L19,20z"/>
	<path class="glass_05" d="M13,20l-1.499,3.748C11.17,24.575,11,25.458,11,26.348v2.034c0,0.379-0.214,0.725-0.553,0.894
		l-0.106,0.053C9.519,29.74,9,30.581,9,31.5v0C9,31.776,9.224,32,9.5,32H14c0.552,0,1-0.448,1-1v-0.002
		c0-0.639-0.254-1.252-0.706-1.704l-0.001-0.001C14.105,29.105,14,28.851,14,28.586v-0.98c0-0.395,0.117-0.781,0.336-1.109L16,24
		L13,20z"/>
	<path class="glass_04" d="M16,12.031c-3.314,0-5,5.686-5,9s1.686,5,5,5V12.031z"/>
	<path class="glass_05" d="M21,21.031c0-3.314-1.686-9-5-9v14C19.314,26.031,21,24.345,21,21.031z"/>
	<path class="glass_02" d="M16,3c2.796,0,3.834,0.471,4.5,3.429c0.123,0.548,1.5,2.5,1.5,4.286C22,14.501,19.314,15,16,15V3z"/>
	<path class="glass_01" d="M16,3c-2.796,0-3.834,0.471-4.5,3.429c-0.123,0.548-1.5,2.5-1.5,4.286C10,14.501,12.686,15,16,15V3z"/>
	<path class="grey_01" d="M13.546,5.362l-0.278-0.391C12.443,3.811,12,2.424,12,1.001V1c0-0.552,0.448-1,1-1h0c0.552,0,1,0.448,1,1
		v4.217C14,5.461,13.687,5.561,13.546,5.362z"/>
	<path class="grey_02" d="M18.454,5.362l0.278-0.391C19.557,3.811,20,2.424,20,1.001V1c0-0.552-0.448-1-1-1h0c-0.552,0-1,0.448-1,1
		v4.217C18,5.461,18.313,5.561,18.454,5.362z"/>
	<path class="white" d="M13,7c-1,0-1,2.448-1,3v0.309c0,0.252,0.188,0.465,0.438,0.496l1,0.125C13.736,10.967,14,10.734,14,10.434
		V10C14,9.448,14,7,13,7z"/>
	<path class="tulip_05" d="M14,10c0-0.495-0.002-2.506-0.722-2.92C12.833,7.383,12.5,8.573,12.5,10c0,0.353,0.004,0.503,0.041,0.818
		l0.897,0.112C13.736,10.967,14,10.734,14,10.434V10z"/>
	<ellipse class="grey_16" cx="13.25" cy="9.5" rx="0.25" ry="1"/>
	<path class="grey_01" d="M19,7c1,0,1,2.448,1,3v0.309c0,0.252-0.188,0.465-0.438,0.496l-1,0.125C18.264,10.967,18,10.734,18,10.434
		V10C18,9.448,18,7,19,7z"/>
	<path class="tulip_06" d="M18,10c0-0.495,0.002-2.506,0.722-2.92C19.167,7.383,19.5,8.573,19.5,10c0,0.353-0.004,0.503-0.041,0.818
		l-0.897,0.112C18.264,10.967,18,10.734,18,10.434V10z"/>
	<ellipse class="grey_17" cx="18.75" cy="9.5" rx="0.25" ry="1"/>
	<path class="glass_03" d="M21.818,12.203C20.359,13.367,18.299,13,16,13v2C18.815,15,21.17,14.632,21.818,12.203z"/>
	<path class="glass_02" d="M10.182,12.203C10.83,14.632,13.185,15,16,15v-2C13.701,13,11.641,13.367,10.182,12.203z"/>
	<path class="glass_07" d="M14.75,18.5c-1.091,0-2.133-1.029-2.177-1.073c-0.098-0.098-0.098-0.256,0-0.354
		c0.098-0.097,0.256-0.099,0.354,0C12.936,17.082,13.867,18,14.75,18c0.138,0,0.25,0.112,0.25,0.25S14.888,18.5,14.75,18.5z"/>
	<path class="glass_07" d="M14.5,19.5c-1.091,0-2.133-1.029-2.177-1.073c-0.098-0.098-0.098-0.256,0-0.354
		c0.098-0.097,0.256-0.099,0.354,0C12.686,18.082,13.617,19,14.5,19c0.138,0,0.25,0.112,0.25,0.25S14.638,19.5,14.5,19.5z"/>
	<path class="glass_07" d="M14.25,20.5c-1.091,0-2.133-1.029-2.177-1.073c-0.098-0.098-0.098-0.256,0-0.354
		c0.098-0.097,0.256-0.099,0.354,0C12.436,19.082,13.367,20,14.25,20c0.138,0,0.25,0.112,0.25,0.25S14.388,20.5,14.25,20.5z"/>
	<path class="glass_02" d="M10.563,20.594l-0.815-1.156l1.733-1.223c0.319-0.225,0.76-0.149,0.985,0.17h0
		c0.225,0.319,0.149,0.76-0.17,0.985L10.563,20.594z"/>
	<path class="glass_08" d="M17.25,18.5c1.091,0,2.133-1.029,2.177-1.073c0.098-0.098,0.098-0.256,0-0.354
		c-0.098-0.097-0.256-0.099-0.354,0C19.064,17.082,18.133,18,17.25,18C17.112,18,17,18.112,17,18.25S17.112,18.5,17.25,18.5z"/>
	<path class="glass_08" d="M17.5,19.5c1.091,0,2.133-1.029,2.177-1.073c0.098-0.098,0.098-0.256,0-0.354
		c-0.098-0.097-0.256-0.099-0.354,0C19.314,18.082,18.383,19,17.5,19c-0.138,0-0.25,0.112-0.25,0.25S17.362,19.5,17.5,19.5z"/>
	<path class="glass_08" d="M17.75,20.5c1.091,0,2.133-1.029,2.177-1.073c0.098-0.098,0.098-0.256,0-0.354
		c-0.098-0.097-0.256-0.099-0.354,0C19.564,19.082,18.633,20,17.75,20c-0.138,0-0.25,0.112-0.25,0.25S17.612,20.5,17.75,20.5z"/>
	<path class="glass_03" d="M21.437,20.594l0.815-1.156l-1.733-1.223c-0.319-0.225-0.76-0.149-0.985,0.17l0,0
		c-0.225,0.319-0.149,0.76,0.17,0.985L21.437,20.594z"/>
	<path class="glass_01" d="M13,20.5c0-0.276-0.224-0.5-0.5-0.5c0.276,0,0.5-0.224,0.5-0.5c0-0.276-0.224-0.5-0.5-0.5H11
		c-1.105,0-2,0.895-2,2v0c0,1.105,0.895,2,2,2h1.5c0.276,0,0.5-0.224,0.5-0.5c0-0.276-0.224-0.5-0.5-0.5c0.276,0,0.5-0.224,0.5-0.5
		c0-0.276-0.224-0.5-0.5-0.5C12.776,21,13,20.776,13,20.5z"/>
	<path class="glass_02" d="M19,20.5c0-0.276,0.224-0.5,0.5-0.5c-0.276,0-0.5-0.224-0.5-0.5c0-0.276,0.224-0.5,0.5-0.5H21
		c1.105,0,2,0.895,2,2v0c0,1.105-0.895,2-2,2h-1.5c-0.276,0-0.5-0.224-0.5-0.5c0-0.276,0.224-0.5,0.5-0.5
		c-0.276,0-0.5-0.224-0.5-0.5c0-0.276,0.224-0.5,0.5-0.5C19.224,21,19,20.776,19,20.5z"/>
	<path class="grey_01" d="M16,0.006c-0.033,0-0.065-0.004-0.098-0.001C15.382,0.054,15,0.521,15,1.043v0.348
		c0,1.085,0.177,2.163,0.523,3.191l0.24,0.714c0.038,0.113,0.138,0.17,0.237,0.17V0.006z"/>
	<path class="grey_02" d="M16,0.006v5.461c0.099,0,0.199-0.057,0.237-0.17l0.24-0.714C16.823,3.554,17,2.476,17,1.392V1
		C17,0.448,16.552,0.007,16,0.006z"/>
</g>
</svg>
