<?xml version="1.0" encoding="utf-8"?>
<!-- Generator: Adobe Illustrator 20.1.0, SVG Export Plug-In . SVG Version: 6.00 Build 0)  -->
<!DOCTYPE svg PUBLIC "-//W3C//DTD SVG 1.1//EN" "http://www.w3.org/Graphics/SVG/1.1/DTD/svg11.dtd">
<svg version="1.1" id="icons" xmlns="http://www.w3.org/2000/svg" xmlns:xlink="http://www.w3.org/1999/xlink" x="0px" y="0px"
	 width="32px" height="32px" viewBox="0 0 32 32" style="enable-background:new 0 0 32 32;" xml:space="preserve">
<style type="text/css">
	.white{fill:#FFFFFF;}
	.grey_01{fill:#F7F7F7;}
	.grey_02{fill:#EDEEEE;}
	.grey_16{fill:#373F3F;}
	.grey_17{fill:#2B3332;}
	.periwinkle_06{fill:#8EC0E0;}
	.periwinkle_07{fill:#7FB8E0;}
	.periwinkle_08{fill:#71B1E1;}
	.periwinkle_09{fill:#65A9DC;}
	.periwinkle_10{fill:#5CA3D5;}
	.periwinkle_11{fill:#529CCF;}
	.lavender_10{fill:#424B7E;}
	.lavender_11{fill:#3A4274;}
	.tulip_05{fill:#E85160;}
	.tulip_06{fill:#D84459;}
	.dandelion_01{fill:#FFD98D;}
	.dandelion_02{fill:#FFCF6E;}
	.dandelion_03{fill:#FFC550;}
	.st0{fill:#78DF7C;}
	.st1{fill:#54B668;}
	.st2{fill:#7A63AD;}
	.st3{fill:#866EBA;}
	.st4{fill:#D2E6F3;}
	.st5{fill:#C1DDEE;}
	.st6{fill:#E0C193;}
	.st7{fill:#DBBA8C;}
	.st8{fill:#9FC9E4;}
	.st9{fill:#FFEAA7;}
	.st10{fill:#FFE28A;}
	.st11{fill:#FF6B8B;}
	.st12{fill:#F4A984;}
	.st13{fill:#EA9C7A;}
	.st14{fill:#FEF1C6;}
	.st15{fill:#E55D53;}
	.st16{fill:#FFD400;}
	.st17{fill:#FF8F00;}
	.st18{fill:#FF4A00;}
	.st19{fill:#F7D684;}
	.st20{fill:#FAE09F;}
	.st21{fill:#FDEBBB;}
	.st22{fill:#FFF3D9;}
	.st23{fill:#FFD96C;}
	.st24{fill:#9ACC2E;}
	.st25{fill:#AADB3D;}
	.st26{fill:#A2D336;}
	.st27{fill:#93C427;}
	.st28{fill:#F79654;}
	.st29{fill:#FFD04D;}
	.st30{fill:#FCA15E;}
	.st31{fill:#A9E260;}
	.st32{fill:#97DB4A;}
	.st33{fill:#B1E346;}
	.st34{fill:#FCD8DE;}
	.st35{fill:#CDA073;}
	.st36{fill:#C09265;}
	.st37{fill:#A7794C;}
	.st38{fill:#96643B;}
	.st39{fill:#845331;}
	.st40{fill:#B38658;}
	.st41{fill:#9E6E43;}
	.st42{fill:#8D5B36;}
	.st43{fill:#FBCFD6;}
	.st44{fill:#FAC4D1;}
	.st45{fill:#FAB8CD;}
	.st46{fill:#F9ADC8;}
	.st47{fill:#F8A1C4;}
	.st48{fill:#F297BE;}
	.st49{fill:#EA8BB4;}
	.st50{fill:#E8BA36;}
	.st51{fill:#E0B12E;}
	.st52{fill:#FFC172;}
	.st53{fill:#FFAD68;}
	.st54{fill:#FFB76D;}
	.st55{fill:#6E57A0;}
	.st56{fill:#675099;}
	.st57{fill:#F3586F;}
	.st58{fill:#604893;}
	.st59{fill:#CBEB6B;}
	.st60{fill:#4EAC5D;}
	.st61{fill:#BEE758;}
	.st62{fill:#6CD275;}
	.st63{fill:#48A353;}
	.st64{fill:#60C46F;}
	.st65{fill:#D9F07D;}
	.st66{fill:#E6F490;}
	.st67{fill:#4896C8;}
	.st68{fill:#4390BF;}
	.st69{fill:#F7C845;}
	.st70{fill:#ECCD50;}
	.st71{fill:#FF8D6E;}
	.st72{fill:#FF805D;}
	.st73{fill:#8BC07A;}
	.st74{fill:#F0C13E;}
	.st75{fill:#9A3644;}
	.st76{fill:#8A323F;}
	.st77{fill:#945BA0;}
	.st78{fill:#A366AD;}
	.st79{fill:#B370B9;}
	.st80{fill:#C27BC6;}
	.st81{fill:#F6B392;}
	.st82{fill:#D285D2;}
	.st83{fill:#DBA728;}
	.st84{fill:#505957;}
	.st85{fill:#56C7CD;}
	.st86{fill:#434C4B;}
	.st87{fill:#687271;}
	.st88{fill:#5C6664;}
	.st89{fill:#51BAC5;}
	.st90{fill:#D64F45;}
	.st91{fill:#D1D4D4;}
	.st92{fill:#E3E5E5;}
	.st93{fill:#DADDDC;}
	.st94{fill:#845194;}
	.st95{fill:#5BD3D5;}
	.st96{fill:#46B080;}
	.st97{fill:#53BF8C;}
	.st98{fill:#6EDCA2;}
	.st99{fill:#7AEBAC;}
	.st100{fill:#60CD96;}
	.st101{fill:#E8803A;}
	.st102{fill:#0A6F8E;}
	.st103{fill:#0F769B;}
	.st104{fill:#EF8C48;}
	.st105{fill:#838C8A;}
	.st106{fill:#757F7E;}
	.st107{fill:#D1473D;}
	.st108{fill:#9179C6;}
	.st109{fill:#906DBB;}
	.st110{fill:#A78EDD;}
	.st111{fill:#9D85D3;}
	.st112{fill:#E2EFF7;}
	.st113{fill:#B0D3EA;}
	.st114{fill:#F7BC48;}
	.st115{fill:#4CAEBC;}
	.st116{fill:#47A1B4;}
	.st117{fill:#4295AC;}
	.st118{fill:#E85160;}
	.st119{fill:#D84459;}
	.st120{fill:#FDE2E6;}
	.st121{fill:#FFF5D8;}
	.st122{fill:#99533D;}
	.st123{fill:#914C39;}
	.st124{fill:#D4C9EF;}
	.st125{fill:#E3DBF4;}
	.st126{fill:#F1EDFA;}
	.st127{fill:#C6B7E9;}
	.st128{fill:#B8A5E4;}
	.st129{fill:#F0C877;}
	.st130{fill:#E8BA67;}
	.st131{fill:#DDAA5F;}
	.st132{fill:#D4994F;}
	.st133{fill:#C98B44;}
	.st134{fill:#BF7D3C;}
	.st135{fill:#909997;}
	.st136{fill:#724D31;}
	.st137{fill:#93C2CA;}
	.st138{fill:#99C7CE;}
	.st139{fill:#9FCCD3;}
	.st140{fill:#ACD7DD;}
	.st141{fill:#B9E2E7;}
	.st142{fill:#A5D1D8;}
	.st143{fill:#88B9C3;}
	.st144{fill:#7EB1BD;}
	.st145{fill:#C8CCCB;}
	.st146{fill:none;}
	.st147{fill:#4F4032;}
	.st148{fill:#604631;}
	.st149{fill:#F9BDA0;}
	.st150{fill:#E7685F;}
	.st151{fill:#C84054;}
	.st152{fill:#ABB2B1;}
	.st153{fill:#9DA5A4;}
	.st154{fill:#F74000;}
	.st155{fill:#F97C00;}
	.st156{fill:#F9C900;}
	.st157{fill:#EFD4A7;}
	.st158{fill:#EACEA1;}
	.st159{fill:#FCE8CC;}
	.st160{fill:#F5DEB9;}
	.st161{fill:#CFAB81;}
	.st162{fill:#D5B387;}
	.st163{fill:#707EB7;}
	.st164{fill:#7C8AC4;}
	.st165{fill:#8694D1;}
	.st166{fill:#9AA6D6;}
	.st167{fill:#ABB4DD;}
	.st168{fill:#FDECEF;}
	.st169{fill:#137FA0;}
	.st170{fill:#EB6B48;}
	.st171{fill:#F57552;}
	.st172{fill:#515E91;}
	.st173{fill:#5C699E;}
	.st174{fill:#6673AA;}
	.st175{fill:#504484;}
	.st176{fill:#FF5F7E;}
	.st177{fill:#EBCEEB;}
	.st178{fill:#E5BDE5;}
	.st179{fill:#E0ABDF;}
	.st180{fill:#D799D6;}
	.st181{fill:#3B8FA3;}
	.st182{fill:#348B99;}
	.st183{fill:#F7F7F7;}
	.st184{fill:#3AA176;}
	.st185{fill:#84ED82;}
	.st186{fill:#EFEAEA;}
	.st187{fill:#FF9A7E;}
	.st188{fill:#FCD2BE;}
	.st189{fill:#FCDDCF;}
	.st190{fill:#C683C8;}
	.st191{fill:#A55F49;}
	.st192{fill:#FEF5F7;}
</style>
<g>
	<path class="periwinkle_11" d="M17,22.002l1.703,2.555c0.185,0.278,0.498,0.445,0.832,0.445H20v1.055
		c0,0.621,0.145,1.234,0.423,1.79L21,29l-0.894,1.789C20.036,30.928,20,31.081,20,31.236V31.5c0,0.276,0.224,0.5,0.5,0.5h6
		c0.276,0,0.5-0.224,0.5-0.5v0.035c0-0.334-0.167-0.647-0.445-0.832L24,29l0.725-2.901c0.17-0.682-0.029-1.403-0.526-1.899L24,24
		l0.001-0.584c0-0.266-0.105-0.52-0.293-0.708L20,19L17,22.002z"/>
	<path class="periwinkle_10" d="M15,22.002l-1.703,2.555c-0.185,0.278-0.498,0.445-0.832,0.445H12v1.055
		c0,0.621-0.145,1.234-0.423,1.79L11,29l0.894,1.789C11.964,30.928,12,31.081,12,31.236V31.5c0,0.276-0.224,0.5-0.5,0.5h-6
		C5.224,32,5,31.776,5,31.5v0.035c0-0.334,0.167-0.647,0.445-0.832L8,29l-0.725-2.901c-0.17-0.682,0.029-1.403,0.526-1.899L8,24
		l-0.001-0.584c0-0.266,0.105-0.52,0.293-0.708L12,19L15,22.002z"/>
	<polygon class="periwinkle_10" points="22,13 20,18 16,18 16,8 22,9 	"/>
	<path class="periwinkle_09" d="M20.123,16H16l0-8l6,1v4l-0.949,2.371C20.9,15.751,20.532,16,20.123,16z"/>
	<path class="periwinkle_09" d="M18,5h3.172c0.53,0,1.039,0.211,1.414,0.586L23,6h1.708L26,3l-0.5-0.5c-0.276-0.276-0.276-0.724,0-1
		l0,0c0.276-0.276,0.724-0.276,1,0L27,2l1.293-1.293c0.391-0.391,1.024-0.391,1.414,0l1.586,1.586c0.391,0.391,0.391,1.024,0,1.414
		l-0.707,0.707C30.211,4.789,29.702,5,29.172,5H28l-2.126,3.543C25.332,9.447,24.355,10,23.301,10H18V5z"/>
	<polygon class="periwinkle_09" points="10,13 12,18 16,18 16,8 10,9 	"/>
	<path class="periwinkle_08" d="M11.877,16H16l0-8l-6,1v4l0.949,2.371C11.1,15.751,11.468,16,11.877,16z"/>
	<path class="periwinkle_08" d="M14,5h-3.172c-0.53,0-1.039,0.211-1.414,0.586L9,6H7.292L6,3l0.5-0.5c0.276-0.276,0.276-0.724,0-1
		l0,0c-0.276-0.276-0.724-0.276-1,0L5,2L3.707,0.707c-0.391-0.391-1.024-0.391-1.414,0L0.707,2.293
		c-0.391,0.391-0.391,1.024,0,1.414l0.707,0.707C1.789,4.789,2.298,5,2.828,5H4l2.126,3.543C6.668,9.447,7.645,10,8.699,10H14V5z"/>
	<path class="periwinkle_06" d="M16,3.183c-0.361,0-0.722,0.058-1.069,0.173l-0.001,0c-1.188,0.396-2.059,1.416-2.265,2.651L12,10h4
		V3.183z"/>
	<path class="periwinkle_07" d="M20,10l-0.665-3.993c-0.206-1.235-1.077-2.255-2.265-2.651l-0.001,0
		C16.722,3.241,16.361,3.183,16,3.183V10H20z"/>
	<g>
		<polygon class="lavender_11" points="20,18 16,18.002 16,22.002 17,22.002 20,19 		"/>
		<path class="dandelion_02" d="M16,17c0.828,0,1.5,0.672,1.5,1.5c0,0.828-0.672,1.5-1.5,1.5V17z"/>
		<polygon class="lavender_10" points="12,18 16,18.002 16,22.002 15,22.002 12,19 		"/>
		<path class="dandelion_01" d="M16,17c-0.828,0-1.5,0.672-1.5,1.5c0,0.828,0.672,1.5,1.5,1.5V17z"/>
	</g>
	<path class="periwinkle_07" d="M10.149,13.371C10.3,13.751,10.668,14,11.077,14H16V8l-4.452,0.742
		c-1.03,0.172-2.046,0.424-3.037,0.754L7.448,9.851c-0.295,0.098-0.562,0.264-0.782,0.483l-0.274,0.274
		c-0.256,0.256-0.438,0.577-0.526,0.929L5.06,14.761C5.02,14.92,5,15.083,5,15.246c0,1.104,0.52,2.144,1.403,2.806l1.662,1.246
		C8.672,19.754,9.41,20,10.169,20H12c0.552,0,1-0.448,1-1v-1c0-0.552-0.448-1-1-1h-0.586c-0.265,0-0.52,0.105-0.707,0.293L10.5,17.5
		L9,15l1-2L10.149,13.371z"/>
	<g>
		<path class="grey_01" d="M17.75,6C17.011,6,17,7.172,17,8h1.5C18.5,7.172,18.5,6,17.75,6z"/>
		<path class="tulip_06" d="M17.75,6c-0.5,0-0.5,1.172-0.5,2h1C18.25,7.172,18.25,6,17.75,6z"/>
		<ellipse class="grey_17" cx="17.75" cy="6.841" rx="0.25" ry="0.5"/>
	</g>
	<g>
		<path class="white" d="M14.25,6c-0.739,0-0.75,1.172-0.75,2H15C15,7.172,15,6,14.25,6z"/>
		<path class="tulip_05" d="M14.25,6c-0.5,0-0.5,1.172-0.5,2h1C14.75,7.172,14.75,6,14.25,6z"/>
		<ellipse class="grey_16" cx="14.25" cy="6.841" rx="0.25" ry="0.5"/>
	</g>
	<path class="periwinkle_08" d="M26.94,14.761l-0.806-3.224c-0.088-0.352-0.27-0.673-0.526-0.929l-0.274-0.274
		c-0.22-0.22-0.487-0.385-0.782-0.483L22,9l-6-1v6h4.923c0.409,0,0.777-0.249,0.928-0.629L22,13l1,2l-1.5,2.5l-0.207-0.207
		C21.105,17.105,20.851,17,20.586,17H20c-0.552,0-1,0.448-1,1v1c0,0.552,0.448,1,1,1h1.831c0.759,0,1.497-0.246,2.105-0.702
		l1.662-1.246C26.48,17.39,27,16.35,27,15.246C27,15.083,26.98,14.92,26.94,14.761z"/>
	<path class="dandelion_02" d="M16,8.213h-3.493C12.227,8.213,12,8.44,12,8.72V8.9c0,0.192,0.108,0.367,0.28,0.453l0.136,0.068
		c1.041,0.521,2.19,0.792,3.354,0.792H16V8.213z"/>
	<path class="dandelion_03" d="M19.493,8.213H16v2h0.229c1.164,0,2.313-0.271,3.354-0.792l0.136-0.068C19.892,9.267,20,9.092,20,8.9
		V8.72C20,8.44,19.773,8.213,19.493,8.213z"/>
	<path class="dandelion_01" d="M16,7.905c-0.815,0-1.629-0.1-2.425-0.299L12.63,7.37C12.31,7.29,12,7.532,12,7.862
		c0,0.211,0.131,0.4,0.329,0.474l1.565,0.587C14.572,9.178,15.286,9.305,16,9.305V7.905z"/>
	<path class="dandelion_02" d="M18.107,8.923l1.565-0.587C19.869,8.262,20,8.073,20,7.862c0-0.33-0.31-0.571-0.63-0.492
		l-0.945,0.236C17.629,7.806,16.815,7.905,16,7.905v1.4C16.714,9.305,17.428,9.178,18.107,8.923z"/>
	<path class="grey_01" d="M16,2.003c-0.276,0-0.5,0.221-0.5,0.497v3.25l-1.372-3.43c-0.065-0.163-0.208-0.29-0.382-0.315
		c-0.369-0.053-0.646,0.295-0.534,0.632l0.228,0.683c0.368,1.104,0.988,2.108,1.812,2.931l0.395,0.394
		C15.744,6.744,15.872,6.793,16,6.793V2.003z"/>
	<path class="grey_02" d="M18.253,2.005C18.08,2.03,17.937,2.157,17.872,2.32L16.5,5.75V2.527c0-0.249-0.17-0.48-0.416-0.52
		C16.055,2.002,16.028,2.002,16,2.003v4.79c0.128,0,0.256-0.049,0.354-0.146l0.395-0.394c0.823-0.823,1.444-1.827,1.812-2.931
		l0.228-0.683C18.9,2.301,18.622,1.952,18.253,2.005z"/>
</g>
</svg>
