<?xml version="1.0" encoding="utf-8"?>
<!-- Generator: Adobe Illustrator 20.1.0, SVG Export Plug-In . SVG Version: 6.00 Build 0)  -->
<!DOCTYPE svg PUBLIC "-//W3C//DTD SVG 1.1//EN" "http://www.w3.org/Graphics/SVG/1.1/DTD/svg11.dtd">
<svg version="1.1" id="icons" xmlns="http://www.w3.org/2000/svg" xmlns:xlink="http://www.w3.org/1999/xlink" x="0px" y="0px"
	 width="32px" height="32px" viewBox="0 0 32 32" style="enable-background:new 0 0 32 32;" xml:space="preserve">
<style type="text/css">
	.white{fill:#FFFFFF;}
	.grey_01{fill:#F7F7F7;}
	.grey_02{fill:#EDEEEE;}
	.grey_03{fill:#E3E5E5;}
	.grey_04{fill:#DADDDC;}
	.grey_05{fill:#D1D4D4;}
	.grey_06{fill:#C8CCCB;}
	.grey_16{fill:#373F3F;}
	.grey_17{fill:#2B3332;}
	.periwinkle_03{fill:#C1DDEE;}
	.periwinkle_04{fill:#B0D3EA;}
	.periwinkle_05{fill:#9FC9E4;}
	.tulip_05{fill:#E85160;}
	.tulip_06{fill:#D84459;}
	.st0{fill:#78DF7C;}
	.st1{fill:#54B668;}
	.st2{fill:#7A63AD;}
	.st3{fill:#866EBA;}
	.st4{fill:#D2E6F3;}
	.st5{fill:#E0C193;}
	.st6{fill:#DBBA8C;}
	.st7{fill:#7FB8E0;}
	.st8{fill:#8EC0E0;}
	.st9{fill:#71B1E1;}
	.st10{fill:#FFEAA7;}
	.st11{fill:#FFE28A;}
	.st12{fill:#FF6B8B;}
	.st13{fill:#F4A984;}
	.st14{fill:#EA9C7A;}
	.st15{fill:#FEF1C6;}
	.st16{fill:#E55D53;}
	.st17{fill:#FFD400;}
	.st18{fill:#FF8F00;}
	.st19{fill:#FF4A00;}
	.st20{fill:#F7D684;}
	.st21{fill:#FAE09F;}
	.st22{fill:#FDEBBB;}
	.st23{fill:#FFF3D9;}
	.st24{fill:#FFD96C;}
	.st25{fill:#9ACC2E;}
	.st26{fill:#AADB3D;}
	.st27{fill:#A2D336;}
	.st28{fill:#93C427;}
	.st29{fill:#F79654;}
	.st30{fill:#FFD04D;}
	.st31{fill:#FCA15E;}
	.st32{fill:#A9E260;}
	.st33{fill:#97DB4A;}
	.st34{fill:#B1E346;}
	.st35{fill:#FCD8DE;}
	.st36{fill:#CDA073;}
	.st37{fill:#C09265;}
	.st38{fill:#A7794C;}
	.st39{fill:#96643B;}
	.st40{fill:#845331;}
	.st41{fill:#B38658;}
	.st42{fill:#9E6E43;}
	.st43{fill:#8D5B36;}
	.st44{fill:#FBCFD6;}
	.st45{fill:#FAC4D1;}
	.st46{fill:#FAB8CD;}
	.st47{fill:#F9ADC8;}
	.st48{fill:#F8A1C4;}
	.st49{fill:#F297BE;}
	.st50{fill:#EA8BB4;}
	.st51{fill:#E8BA36;}
	.st52{fill:#E0B12E;}
	.st53{fill:#FFC172;}
	.st54{fill:#FFAD68;}
	.st55{fill:#FFB76D;}
	.st56{fill:#6E57A0;}
	.st57{fill:#675099;}
	.st58{fill:#F3586F;}
	.st59{fill:#604893;}
	.st60{fill:#CBEB6B;}
	.st61{fill:#4EAC5D;}
	.st62{fill:#BEE758;}
	.st63{fill:#6CD275;}
	.st64{fill:#48A353;}
	.st65{fill:#60C46F;}
	.st66{fill:#D9F07D;}
	.st67{fill:#E6F490;}
	.st68{fill:#4896C8;}
	.st69{fill:#4390BF;}
	.st70{fill:#5CA3D5;}
	.st71{fill:#529CCF;}
	.st72{fill:#F7C845;}
	.st73{fill:#ECCD50;}
	.st74{fill:#FF8D6E;}
	.st75{fill:#FF805D;}
	.st76{fill:#65A9DC;}
	.st77{fill:#8BC07A;}
	.st78{fill:#F0C13E;}
	.st79{fill:#9A3644;}
	.st80{fill:#8A323F;}
	.st81{fill:#945BA0;}
	.st82{fill:#A366AD;}
	.st83{fill:#B370B9;}
	.st84{fill:#C27BC6;}
	.st85{fill:#F6B392;}
	.st86{fill:#D285D2;}
	.st87{fill:#DBA728;}
	.st88{fill:#505957;}
	.st89{fill:#56C7CD;}
	.st90{fill:#434C4B;}
	.st91{fill:#687271;}
	.st92{fill:#5C6664;}
	.st93{fill:#51BAC5;}
	.st94{fill:#D64F45;}
	.st95{fill:#845194;}
	.st96{fill:#5BD3D5;}
	.st97{fill:#46B080;}
	.st98{fill:#53BF8C;}
	.st99{fill:#6EDCA2;}
	.st100{fill:#7AEBAC;}
	.st101{fill:#60CD96;}
	.st102{fill:#E8803A;}
	.st103{fill:#0A6F8E;}
	.st104{fill:#0F769B;}
	.st105{fill:#EF8C48;}
	.st106{fill:#838C8A;}
	.st107{fill:#757F7E;}
	.st108{fill:#D1473D;}
	.st109{fill:#9179C6;}
	.st110{fill:#906DBB;}
	.st111{fill:#A78EDD;}
	.st112{fill:#9D85D3;}
	.st113{fill:#E2EFF7;}
	.st114{fill:#F7BC48;}
	.st115{fill:#FFC550;}
	.st116{fill:#FFCF6E;}
	.st117{fill:#4CAEBC;}
	.st118{fill:#47A1B4;}
	.st119{fill:#4295AC;}
	.st120{fill:#E85160;}
	.st121{fill:#D84459;}
	.st122{fill:#FDE2E6;}
	.st123{fill:#FFF5D8;}
	.st124{fill:#99533D;}
	.st125{fill:#914C39;}
	.st126{fill:#D4C9EF;}
	.st127{fill:#E3DBF4;}
	.st128{fill:#F1EDFA;}
	.st129{fill:#C6B7E9;}
	.st130{fill:#B8A5E4;}
	.st131{fill:#F0C877;}
	.st132{fill:#E8BA67;}
	.st133{fill:#DDAA5F;}
	.st134{fill:#D4994F;}
	.st135{fill:#C98B44;}
	.st136{fill:#BF7D3C;}
	.st137{fill:#909997;}
	.st138{fill:#724D31;}
	.st139{fill:#93C2CA;}
	.st140{fill:#99C7CE;}
	.st141{fill:#9FCCD3;}
	.st142{fill:#ACD7DD;}
	.st143{fill:#B9E2E7;}
	.st144{fill:#A5D1D8;}
	.st145{fill:#88B9C3;}
	.st146{fill:#7EB1BD;}
	.st147{fill:none;}
	.st148{fill:#4F4032;}
	.st149{fill:#604631;}
	.st150{fill:#F9BDA0;}
	.st151{fill:#E7685F;}
	.st152{fill:#C84054;}
	.st153{fill:#ABB2B1;}
	.st154{fill:#9DA5A4;}
	.st155{fill:#F74000;}
	.st156{fill:#F97C00;}
	.st157{fill:#F9C900;}
	.st158{fill:#B0D3EA;}
	.st159{fill:#EFD4A7;}
	.st160{fill:#EACEA1;}
	.st161{fill:#FCE8CC;}
	.st162{fill:#F5DEB9;}
	.st163{fill:#CFAB81;}
	.st164{fill:#D5B387;}
	.st165{fill:#3A4274;}
	.st166{fill:#707EB7;}
	.st167{fill:#424B7E;}
	.st168{fill:#7C8AC4;}
	.st169{fill:#FFD98D;}
	.st170{fill:#8694D1;}
	.st171{fill:#9AA6D6;}
	.st172{fill:#ABB4DD;}
	.st173{fill:#FDECEF;}
	.st174{fill:#137FA0;}
	.st175{fill:#EB6B48;}
	.st176{fill:#F57552;}
	.st177{fill:#515E91;}
	.st178{fill:#5C699E;}
	.st179{fill:#6673AA;}
	.st180{fill:#504484;}
	.st181{fill:#FF5F7E;}
	.st182{fill:#EBCEEB;}
	.st183{fill:#E5BDE5;}
	.st184{fill:#E0ABDF;}
	.st185{fill:#D799D6;}
	.st186{fill:#3B8FA3;}
	.st187{fill:#348B99;}
	.st188{fill:#F7F7F7;}
	.st189{fill:#3AA176;}
	.st190{fill:#84ED82;}
	.st191{fill:#EFEAEA;}
	.st192{fill:#FF9A7E;}
	.st193{fill:#FCD2BE;}
	.st194{fill:#FCDDCF;}
	.st195{fill:#C683C8;}
	.st196{fill:#A55F49;}
	.st197{fill:#FEF5F7;}
</style>
<g>
	<path class="grey_06" d="M16.257,12.704c0,0,7.062,1.768,11.392,4.268s3.696,5.598,2.33,5.964c-1.366,0.366-1.598-3.232-3.33-4.232
		c-1.732-1-10.892-5.134-10.892-5.134L16.257,12.704z"/>
	<path class="grey_05" d="M17.603,12.595c0,0,6.032,4.077,9.246,7.907s1.559,6.525,0.15,6.401s-0.396-3.584-1.682-5.116
		c-0.803-0.958-3.915-4.058-6.136-6.249c-1.332-1.314-2.344-2.301-2.344-2.301L17.603,12.595z"/>
	<path class="grey_04" d="M19.043,13.133c0,0,4.274,5.894,5.984,10.592c1.71,4.698-0.767,6.664-2.049,6.067
		c-1.282-0.598,0.853-3.503,0.169-5.383c-0.464-1.274-2.616-5.843-3.954-8.656L19.043,13.133z"/>
	<path class="grey_03" d="M20,14.652c0,0,2,7,2,12s-3,6-4,5s2-3,2-5s-1-12-1-12H20z"/>
	<path class="grey_05" d="M15.743,12.704c0,0-7.062,1.768-11.392,4.268s-3.696,5.598-2.33,5.964s1.598-3.232,3.33-4.232
		s10.892-5.134,10.892-5.134L15.743,12.704z"/>
	<path class="grey_04" d="M14.397,12.595c0,0-6.032,4.077-9.246,7.907s-1.559,6.525-0.15,6.401s0.396-3.584,1.682-5.116
		s8.479-8.55,8.479-8.55L14.397,12.595z"/>
	<path class="grey_03" d="M12.957,13.133c0,0-4.274,5.894-5.984,10.592s0.767,6.664,2.049,6.067
		c1.282-0.598-0.853-3.503-0.169-5.383c0.684-1.879,5.044-10.934,5.044-10.934L12.957,13.133z"/>
	<path class="grey_02" d="M12,14.652c0,0-2,7-2,12s3,6,4,5s-2-3-2-5s1-12,1-12H12z"/>
	<path class="grey_16" d="M16,10H9c0,0,0,6,7,6V10z"/>
	<path class="grey_17" d="M16,16c7,0,7-6,7-6h-7V16z"/>
	<circle class="white" cx="12" cy="11" r="1.5"/>
	<ellipse class="grey_16" cx="12" cy="10.5" rx="0.5" ry="1.5"/>
	<circle class="grey_01" cx="20" cy="11" r="1.5"/>
	<ellipse class="grey_17" cx="20" cy="10.5" rx="0.5" ry="1.5"/>
	<path class="periwinkle_04" d="M16,0c-0.054,0-0.108,0-0.161,0.001c-3.339,0.039-6.35,2.021-7.843,5.008
		C7.341,6.318,6.39,7.457,5.219,8.336L3.814,9.39c-0.471,0.353-0.622,0.993-0.359,1.52c0.301,0.602,1.033,0.846,1.635,0.545
		l0.169-0.084c0.474-0.237,1.024-0.276,1.527-0.109l1.286,0.429C8.658,11.886,9.3,11.8,9.814,11.457l1.009-0.672
		c0.706-0.47,1.631-0.445,2.309,0.064L14.2,11.65c0.533,0.4,1.167,0.6,1.8,0.6V0z"/>
	<path class="periwinkle_05" d="M17.8,11.65l1.068-0.801c0.678-0.509,1.604-0.534,2.309-0.064l1.009,0.672
		c0.514,0.342,1.156,0.428,1.742,0.233l1.286-0.429c0.503-0.168,1.052-0.129,1.527,0.109l0.169,0.084
		c0.602,0.301,1.334,0.057,1.635-0.545c0.263-0.527,0.112-1.167-0.359-1.52l-1.405-1.054c-1.171-0.878-2.122-2.017-2.776-3.327
		c-1.494-2.987-4.504-4.97-7.843-5.008C16.108,0,16.054,0,16,0v12.25C16.633,12.25,17.267,12.05,17.8,11.65z"/>
	<path class="periwinkle_03" d="M9.635,2.724L10,4l6,3V0c-0.054,0-0.108,0-0.161,0.001C13.456,0.028,11.252,1.058,9.635,2.724z"/>
	<path class="periwinkle_04" d="M22.365,2.724c-1.616-1.666-3.82-2.696-6.203-2.723C16.108,0,16.054,0,16,0v7l6-3L22.365,2.724z"/>
	<path class="tulip_05" d="M13.277,0.423c0,0-0.531,5.475-6.531,6.475C6.746,6.898,5.277-0.577,13.277,0.423z"/>
	<path class="tulip_06" d="M18.723,0.423c0,0,0.531,5.475,6.531,6.475C25.255,6.898,26.723-0.577,18.723,0.423z"/>
	<path class="tulip_05" d="M16,5c-1.105,0-2,0.895-2,2c0,1.105,0.895,2,2,2V5z"/>
	<path class="tulip_06" d="M18,7c0-1.105-0.895-2-2-2v4C17.105,9,18,8.105,18,7z"/>
	<path class="periwinkle_04" d="M16,12.25c0,0-0.326,0.744-1.142,1.314c-0.551,0.384-0.852,1.031-0.822,1.702
		c0.089,1.982,0.399,5.948,1.488,9.394c0.073,0.231,0.275,0.347,0.476,0.347V12.25z"/>
	<path class="periwinkle_05" d="M16.476,24.66c1.089-3.446,1.4-7.412,1.488-9.394c0.03-0.671-0.272-1.318-0.822-1.702
		C16.326,12.994,16,12.25,16,12.25v12.757C16.202,25.007,16.403,24.891,16.476,24.66z"/>
</g>
</svg>
