<?xml version="1.0" encoding="utf-8"?>
<!-- Generator: Adobe Illustrator 20.1.0, SVG Export Plug-In . SVG Version: 6.00 Build 0)  -->
<!DOCTYPE svg PUBLIC "-//W3C//DTD SVG 1.1//EN" "http://www.w3.org/Graphics/SVG/1.1/DTD/svg11.dtd">
<svg version="1.1" id="icons" xmlns="http://www.w3.org/2000/svg" xmlns:xlink="http://www.w3.org/1999/xlink" x="0px" y="0px"
	 width="32px" height="32px" viewBox="0 0 32 32" style="enable-background:new 0 0 32 32;" xml:space="preserve">
<style type="text/css">
	.white{fill:#FFFFFF;}
	.grey_01{fill:#F7F7F7;}
	.grey_09{fill:#909997;}
	.grey_10{fill:#838C8A;}
	.grey_11{fill:#757F7E;}
	.grey_12{fill:#687271;}
	.dirt_17{fill:#845331;}
	.dirt_18{fill:#724D31;}
	.st0{fill:#78DF7C;}
	.st1{fill:#54B668;}
	.st2{fill:#7A63AD;}
	.st3{fill:#866EBA;}
	.st4{fill:#D2E6F3;}
	.st5{fill:#C1DDEE;}
	.st6{fill:#E0C193;}
	.st7{fill:#DBBA8C;}
	.st8{fill:#7FB8E0;}
	.st9{fill:#8EC0E0;}
	.st10{fill:#71B1E1;}
	.st11{fill:#9FC9E4;}
	.st12{fill:#FFEAA7;}
	.st13{fill:#FFE28A;}
	.st14{fill:#FF6B8B;}
	.st15{fill:#F4A984;}
	.st16{fill:#EA9C7A;}
	.st17{fill:#FEF1C6;}
	.st18{fill:#E85160;}
	.st19{fill:#D84459;}
	.st20{fill:#E55D53;}
	.st21{fill:#FFD400;}
	.st22{fill:#FF8F00;}
	.st23{fill:#FF4A00;}
	.st24{fill:#F7D684;}
	.st25{fill:#2B3332;}
	.st26{fill:#FAE09F;}
	.st27{fill:#373F3F;}
	.st28{fill:#FDEBBB;}
	.st29{fill:#FFF3D9;}
	.st30{fill:#FFD96C;}
	.st31{fill:#9ACC2E;}
	.st32{fill:#AADB3D;}
	.st33{fill:#A2D336;}
	.st34{fill:#93C427;}
	.st35{fill:#F79654;}
	.st36{fill:#FFD04D;}
	.st37{fill:#FCA15E;}
	.st38{fill:#A9E260;}
	.st39{fill:#97DB4A;}
	.st40{fill:#B1E346;}
	.st41{fill:#FCD8DE;}
	.st42{fill:#CDA073;}
	.st43{fill:#C09265;}
	.st44{fill:#A7794C;}
	.st45{fill:#96643B;}
	.st46{fill:#B38658;}
	.st47{fill:#9E6E43;}
	.st48{fill:#8D5B36;}
	.st49{fill:#FBCFD6;}
	.st50{fill:#FAC4D1;}
	.st51{fill:#FAB8CD;}
	.st52{fill:#F9ADC8;}
	.st53{fill:#F8A1C4;}
	.st54{fill:#F297BE;}
	.st55{fill:#EA8BB4;}
	.st56{fill:#E8BA36;}
	.st57{fill:#E0B12E;}
	.st58{fill:#FFC172;}
	.st59{fill:#FFAD68;}
	.st60{fill:#FFB76D;}
	.st61{fill:#6E57A0;}
	.st62{fill:#675099;}
	.st63{fill:#F3586F;}
	.st64{fill:#604893;}
	.st65{fill:#CBEB6B;}
	.st66{fill:#4EAC5D;}
	.st67{fill:#BEE758;}
	.st68{fill:#6CD275;}
	.st69{fill:#48A353;}
	.st70{fill:#60C46F;}
	.st71{fill:#D9F07D;}
	.st72{fill:#E6F490;}
	.st73{fill:#4896C8;}
	.st74{fill:#4390BF;}
	.st75{fill:#5CA3D5;}
	.st76{fill:#529CCF;}
	.st77{fill:#F7C845;}
	.st78{fill:#ECCD50;}
	.st79{fill:#FF8D6E;}
	.st80{fill:#FF805D;}
	.st81{fill:#EDEEEE;}
	.st82{fill:#65A9DC;}
	.st83{fill:#8BC07A;}
	.st84{fill:#F0C13E;}
	.st85{fill:#9A3644;}
	.st86{fill:#8A323F;}
	.st87{fill:#945BA0;}
	.st88{fill:#A366AD;}
	.st89{fill:#B370B9;}
	.st90{fill:#C27BC6;}
	.st91{fill:#F6B392;}
	.st92{fill:#D285D2;}
	.st93{fill:#DBA728;}
	.st94{fill:#505957;}
	.st95{fill:#56C7CD;}
	.st96{fill:#434C4B;}
	.st97{fill:#5C6664;}
	.st98{fill:#51BAC5;}
	.st99{fill:#D64F45;}
	.st100{fill:#D1D4D4;}
	.st101{fill:#E3E5E5;}
	.st102{fill:#DADDDC;}
	.st103{fill:#845194;}
	.st104{fill:#5BD3D5;}
	.st105{fill:#46B080;}
	.st106{fill:#53BF8C;}
	.st107{fill:#6EDCA2;}
	.st108{fill:#7AEBAC;}
	.st109{fill:#60CD96;}
	.st110{fill:#E8803A;}
	.st111{fill:#0A6F8E;}
	.st112{fill:#0F769B;}
	.st113{fill:#EF8C48;}
	.st114{fill:#D1473D;}
	.st115{fill:#9179C6;}
	.st116{fill:#906DBB;}
	.st117{fill:#A78EDD;}
	.st118{fill:#9D85D3;}
	.st119{fill:#E2EFF7;}
	.st120{fill:#B0D3EA;}
	.st121{fill:#F7BC48;}
	.st122{fill:#FFC550;}
	.st123{fill:#FFCF6E;}
	.st124{fill:#4CAEBC;}
	.st125{fill:#47A1B4;}
	.st126{fill:#4295AC;}
	.st127{fill:#FDE2E6;}
	.st128{fill:#FFF5D8;}
	.st129{fill:#99533D;}
	.st130{fill:#914C39;}
	.st131{fill:#D4C9EF;}
	.st132{fill:#E3DBF4;}
	.st133{fill:#F1EDFA;}
	.st134{fill:#C6B7E9;}
	.st135{fill:#B8A5E4;}
	.st136{fill:#F0C877;}
	.st137{fill:#E8BA67;}
	.st138{fill:#DDAA5F;}
	.st139{fill:#D4994F;}
	.st140{fill:#C98B44;}
	.st141{fill:#BF7D3C;}
	.st142{fill:#757F7E;}
	.st143{fill:#838C8A;}
	.st144{fill:#93C2CA;}
	.st145{fill:#99C7CE;}
	.st146{fill:#9FCCD3;}
	.st147{fill:#ACD7DD;}
	.st148{fill:#B9E2E7;}
	.st149{fill:#A5D1D8;}
	.st150{fill:#88B9C3;}
	.st151{fill:#7EB1BD;}
	.st152{fill:#C8CCCB;}
	.st153{fill:none;}
	.st154{fill:#4F4032;}
	.st155{fill:#604631;}
	.st156{fill:#F9BDA0;}
	.st157{fill:#E7685F;}
	.st158{fill:#C84054;}
	.st159{fill:#ABB2B1;}
	.st160{fill:#9DA5A4;}
	.st161{fill:#F74000;}
	.st162{fill:#F97C00;}
	.st163{fill:#F9C900;}
	.st164{fill:#EFD4A7;}
	.st165{fill:#EACEA1;}
	.st166{fill:#FCE8CC;}
	.st167{fill:#F5DEB9;}
	.st168{fill:#CFAB81;}
	.st169{fill:#D5B387;}
	.st170{fill:#3A4274;}
	.st171{fill:#707EB7;}
	.st172{fill:#424B7E;}
	.st173{fill:#7C8AC4;}
	.st174{fill:#FFD98D;}
	.st175{fill:#8694D1;}
	.st176{fill:#9AA6D6;}
	.st177{fill:#ABB4DD;}
	.st178{fill:#FDECEF;}
	.st179{fill:#137FA0;}
	.st180{fill:#EB6B48;}
	.st181{fill:#F57552;}
	.st182{fill:#515E91;}
	.st183{fill:#5C699E;}
	.st184{fill:#6673AA;}
	.st185{fill:#504484;}
	.st186{fill:#FF5F7E;}
	.st187{fill:#EBCEEB;}
	.st188{fill:#E5BDE5;}
	.st189{fill:#E0ABDF;}
	.st190{fill:#D799D6;}
	.st191{fill:#3B8FA3;}
	.st192{fill:#348B99;}
	.st193{fill:#F7F7F7;}
	.st194{fill:#3AA176;}
	.st195{fill:#84ED82;}
	.st196{fill:#EFEAEA;}
	.st197{fill:#FF9A7E;}
	.st198{fill:#FCD2BE;}
	.st199{fill:#FCDDCF;}
	.st200{fill:#C683C8;}
	.st201{fill:#A55F49;}
	.st202{fill:#FEF5F7;}
</style>
<g>
	<path class="grey_12" d="M28.164,12.398L26,17c0,0-2-1-4,0v2h4c2,0,3-3,3-3h2l0.414-0.414L28.164,12.398z"/>
	<path class="grey_11" d="M6,17l-2.164-4.602l-3.25,3.188L1,16h2c0,0,1,3,3,3h4v-2C10,17,8,16,6,17z"/>
	<path class="grey_10" d="M16,9c-0.466,0-0.893,0.16-1.233,0.427c-0.428,0.337-0.947,0.476-1.486,0.398
		C12.854,9.763,12.403,9.839,12,10.072s-0.694,0.585-0.854,0.986c-0.202,0.506-0.582,0.886-1.088,1.088
		C9.657,12.306,9.305,12.597,9.072,13c-0.349,0.605-0.345,1.315-0.053,1.896c0.138,0.274,0.147,0.59,0.092,0.892
		c-0.236,1.303-0.125,2.725,0.624,4.232c1.049,2.112,3.086,3.659,5.429,3.931c0.282,0.033,0.561,0.046,0.837,0.046V9z"/>
	<path class="grey_11" d="M23,17c0-0.611-0.086-1.201-0.234-1.766c0.49-0.624,0.582-1.505,0.162-2.234
		c-0.233-0.403-0.585-0.694-0.986-0.854c-0.506-0.202-0.886-0.582-1.088-1.088c-0.16-0.401-0.451-0.753-0.854-0.986
		s-0.854-0.308-1.281-0.246c-0.539,0.078-1.059-0.061-1.486-0.398C16.893,9.16,16.466,9,16,9v14.997C19.866,23.997,23,20.866,23,17z
		"/>
	<path class="grey_09" d="M15,19v-1.465c0-0.334-0.167-0.647-0.445-0.832l-1.612-1.075c-0.5-0.334-1.18-0.153-1.449,0.385
		l-0.046,0.092C11.2,16.6,11.4,17.2,11.894,17.447L15,19z"/>
	<path class="grey_10" d="M17,19v-1.465c0-0.334,0.167-0.647,0.445-0.832l1.612-1.075c0.5-0.334,1.18-0.153,1.449,0.385l0.046,0.092
		C20.8,16.6,20.6,17.2,20.106,17.447L17,19z"/>
	<path class="white" d="M12,17.5v2c0,0.276,0.224,0.5,0.5,0.5h2c0.276,0,0.5-0.224,0.5-0.5V19L12,17.5z"/>
	<path class="grey_01" d="M20,17.5v2c0,0.276-0.224,0.5-0.5,0.5h-2c-0.276,0-0.5-0.224-0.5-0.5V19L20,17.5z"/>
	<path class="st142" d="M31.707,13.879l-2.586-2.586c-0.391-0.391-1.024-0.391-1.414,0l-0.793,0.793c-0.276,0.276-0.276,0.724,0,1
		c0.276,0.276,0.724,0.276,1,0c-0.276,0.276-0.276,0.724,0,1c0.276,0.276,0.724,0.276,1,0c-0.276,0.276-0.276,0.724,0,1
		c0.276,0.276,0.724,0.276,1,0c-0.276,0.276-0.276,0.724,0,1c0.276,0.276,0.724,0.276,1,0l0.793-0.793
		C32.098,14.902,32.098,14.269,31.707,13.879z"/>
	<path class="grey_11" d="M16,21c-1.555,0-2.63,0.32-3.271,0.597c-0.531,0.23-1.135,0.199-1.654-0.06l-0.545-0.272
		c1.133,1.455,2.783,2.472,4.633,2.686c0.282,0.033,0.561,0.046,0.837,0.046V21z"/>
	<path class="st143" d="M5.086,12.086l-0.793-0.793c-0.391-0.391-1.024-0.391-1.414,0l-2.586,2.586
		c-0.391,0.391-0.391,1.024,0,1.414l0.793,0.793c0.276,0.276,0.724,0.276,1,0c0.276-0.276,0.276-0.724,0-1
		c0.276,0.276,0.724,0.276,1,0c0.276-0.276,0.276-0.724,0-1c0.276,0.276,0.724,0.276,1,0c0.276-0.276,0.276-0.724,0-1
		c0.276,0.276,0.724,0.276,1,0C5.362,12.81,5.362,12.362,5.086,12.086z"/>
	<path class="grey_12" d="M21.583,21.208l-0.659,0.329c-0.518,0.259-1.122,0.29-1.654,0.06C18.63,21.32,17.555,21,16,21v2.997
		C18.283,23.997,20.305,22.9,21.583,21.208z"/>
	<path class="grey_09" d="M4.379,11.793l-0.586,0.586c-0.391,0.391-0.391,1.024,0,1.414l0.086,0.086
		c0.391,0.391,1.024,0.391,1.414,0l0.586-0.586c0.391-0.391,0.391-1.024,0-1.414l-0.086-0.086
		C5.402,11.402,4.769,11.402,4.379,11.793z"/>
	<polygon class="dirt_17" points="14,20 13,20 13,18 14,18.5 	"/>
	<polygon class="dirt_18" points="18,20 19,20 19,18 18,18.5 	"/>
	<path class="grey_10" d="M27.621,11.793l0.586,0.586c0.391,0.391,0.391,1.024,0,1.414l-0.086,0.086
		c-0.391,0.391-1.024,0.391-1.414,0l-0.586-0.586c-0.391-0.391-0.391-1.024,0-1.414l0.086-0.086
		C26.598,11.402,27.231,11.402,27.621,11.793z"/>
</g>
</svg>
