<?xml version="1.0" encoding="utf-8"?>
<!-- Generator: Adobe Illustrator 20.1.0, SVG Export Plug-In . SVG Version: 6.00 Build 0)  -->
<!DOCTYPE svg PUBLIC "-//W3C//DTD SVG 1.1//EN" "http://www.w3.org/Graphics/SVG/1.1/DTD/svg11.dtd">
<svg version="1.1" id="icons" xmlns="http://www.w3.org/2000/svg" xmlns:xlink="http://www.w3.org/1999/xlink" x="0px" y="0px"
	 width="32px" height="32px" viewBox="0 0 32 32" style="enable-background:new 0 0 32 32;" xml:space="preserve">
<style type="text/css">
	.white{fill:#FFFFFF;}
	.grey_01{fill:#F7F7F7;}
	.grey_15{fill:#434C4B;}
	.grey_16{fill:#373F3F;}
	.grey_17{fill:#2B3332;}
	.sand_01{fill:#FFF3D9;}
	.sand_02{fill:#FDEBBB;}
	.sand_03{fill:#FAE09F;}
	.sand_04{fill:#F7D684;}
	.flamered_01{fill:#FF4A00;}
	.flameorange_01{fill:#FF8F00;}
	.flameyellow_01{fill:#FFD400;}
	.st0{fill:#78DF7C;}
	.st1{fill:#54B668;}
	.st2{fill:#7A63AD;}
	.st3{fill:#866EBA;}
	.st4{fill:#D2E6F3;}
	.st5{fill:#C1DDEE;}
	.st6{fill:#E0C193;}
	.st7{fill:#DBBA8C;}
	.st8{fill:#7FB8E0;}
	.st9{fill:#8EC0E0;}
	.st10{fill:#71B1E1;}
	.st11{fill:#9FC9E4;}
	.st12{fill:#FFEAA7;}
	.st13{fill:#FFE28A;}
	.st14{fill:#FF6B8B;}
	.st15{fill:#F4A984;}
	.st16{fill:#EA9C7A;}
	.st17{fill:#FEF1C6;}
	.st18{fill:#E85160;}
	.st19{fill:#D84459;}
	.st20{fill:#E55D53;}
	.st21{fill:#FFD96C;}
	.st22{fill:#9ACC2E;}
	.st23{fill:#AADB3D;}
	.st24{fill:#A2D336;}
	.st25{fill:#93C427;}
	.st26{fill:#F79654;}
	.st27{fill:#FFD04D;}
	.st28{fill:#FCA15E;}
	.st29{fill:#A9E260;}
	.st30{fill:#97DB4A;}
	.st31{fill:#B1E346;}
	.st32{fill:#FCD8DE;}
	.st33{fill:#CDA073;}
	.st34{fill:#C09265;}
	.st35{fill:#A7794C;}
	.st36{fill:#96643B;}
	.st37{fill:#845331;}
	.st38{fill:#B38658;}
	.st39{fill:#9E6E43;}
	.st40{fill:#8D5B36;}
	.st41{fill:#FBCFD6;}
	.st42{fill:#FAC4D1;}
	.st43{fill:#FAB8CD;}
	.st44{fill:#F9ADC8;}
	.st45{fill:#F8A1C4;}
	.st46{fill:#F297BE;}
	.st47{fill:#EA8BB4;}
	.st48{fill:#E8BA36;}
	.st49{fill:#E0B12E;}
	.st50{fill:#FFC172;}
	.st51{fill:#FFAD68;}
	.st52{fill:#FFB76D;}
	.st53{fill:#6E57A0;}
	.st54{fill:#675099;}
	.st55{fill:#F3586F;}
	.st56{fill:#604893;}
	.st57{fill:#CBEB6B;}
	.st58{fill:#4EAC5D;}
	.st59{fill:#BEE758;}
	.st60{fill:#6CD275;}
	.st61{fill:#48A353;}
	.st62{fill:#60C46F;}
	.st63{fill:#D9F07D;}
	.st64{fill:#E6F490;}
	.st65{fill:#4896C8;}
	.st66{fill:#4390BF;}
	.st67{fill:#5CA3D5;}
	.st68{fill:#529CCF;}
	.st69{fill:#F7C845;}
	.st70{fill:#ECCD50;}
	.st71{fill:#FF8D6E;}
	.st72{fill:#FF805D;}
	.st73{fill:#EDEEEE;}
	.st74{fill:#65A9DC;}
	.st75{fill:#8BC07A;}
	.st76{fill:#F0C13E;}
	.st77{fill:#9A3644;}
	.st78{fill:#8A323F;}
	.st79{fill:#945BA0;}
	.st80{fill:#A366AD;}
	.st81{fill:#B370B9;}
	.st82{fill:#C27BC6;}
	.st83{fill:#F6B392;}
	.st84{fill:#D285D2;}
	.st85{fill:#FDEBBB;}
	.st86{fill:#FAE09F;}
	.st87{fill:#DBA728;}
	.st88{fill:#505957;}
	.st89{fill:#56C7CD;}
	.st90{fill:#687271;}
	.st91{fill:#5C6664;}
	.st92{fill:#51BAC5;}
	.st93{fill:#D64F45;}
	.st94{fill:#D1D4D4;}
	.st95{fill:#E3E5E5;}
	.st96{fill:#DADDDC;}
	.st97{fill:#845194;}
	.st98{fill:#5BD3D5;}
	.st99{fill:#46B080;}
	.st100{fill:#53BF8C;}
	.st101{fill:#6EDCA2;}
	.st102{fill:#7AEBAC;}
	.st103{fill:#60CD96;}
	.st104{fill:#E8803A;}
	.st105{fill:#0A6F8E;}
	.st106{fill:#0F769B;}
	.st107{fill:#EF8C48;}
	.st108{fill:#838C8A;}
	.st109{fill:#757F7E;}
	.st110{fill:#D1473D;}
	.st111{fill:#9179C6;}
	.st112{fill:#906DBB;}
	.st113{fill:#A78EDD;}
	.st114{fill:#9D85D3;}
	.st115{fill:#E2EFF7;}
	.st116{fill:#B0D3EA;}
	.st117{fill:#F7BC48;}
	.st118{fill:#FFC550;}
	.st119{fill:#FFCF6E;}
	.st120{fill:#4CAEBC;}
	.st121{fill:#47A1B4;}
	.st122{fill:#4295AC;}
	.st123{fill:#FDE2E6;}
	.st124{fill:#FFF5D8;}
	.st125{fill:#99533D;}
	.st126{fill:#914C39;}
	.st127{fill:#D4C9EF;}
	.st128{fill:#E3DBF4;}
	.st129{fill:#F1EDFA;}
	.st130{fill:#C6B7E9;}
	.st131{fill:#B8A5E4;}
	.st132{fill:#F0C877;}
	.st133{fill:#E8BA67;}
	.st134{fill:#DDAA5F;}
	.st135{fill:#D4994F;}
	.st136{fill:#C98B44;}
	.st137{fill:#F7D684;}
	.st138{fill:#BF7D3C;}
	.st139{fill:#909997;}
	.st140{fill:#724D31;}
	.st141{fill:#93C2CA;}
	.st142{fill:#99C7CE;}
	.st143{fill:#9FCCD3;}
	.st144{fill:#ACD7DD;}
	.st145{fill:#B9E2E7;}
	.st146{fill:#A5D1D8;}
	.st147{fill:#88B9C3;}
	.st148{fill:#7EB1BD;}
	.st149{fill:#C8CCCB;}
	.st150{fill:none;}
	.st151{fill:#4F4032;}
	.st152{fill:#604631;}
	.st153{fill:#F9BDA0;}
	.st154{fill:#E7685F;}
	.st155{fill:#C84054;}
	.st156{fill:#ABB2B1;}
	.st157{fill:#9DA5A4;}
	.st158{fill:#F74000;}
	.st159{fill:#F97C00;}
	.st160{fill:#F9C900;}
	.st161{fill:#EFD4A7;}
	.st162{fill:#EACEA1;}
	.st163{fill:#FCE8CC;}
	.st164{fill:#F5DEB9;}
	.st165{fill:#CFAB81;}
	.st166{fill:#D5B387;}
	.st167{fill:#3A4274;}
	.st168{fill:#707EB7;}
	.st169{fill:#424B7E;}
	.st170{fill:#7C8AC4;}
	.st171{fill:#FFD98D;}
	.st172{fill:#8694D1;}
	.st173{fill:#9AA6D6;}
	.st174{fill:#ABB4DD;}
	.st175{fill:#FDECEF;}
	.st176{fill:#137FA0;}
	.st177{fill:#EB6B48;}
	.st178{fill:#F57552;}
	.st179{fill:#515E91;}
	.st180{fill:#5C699E;}
	.st181{fill:#6673AA;}
	.st182{fill:#504484;}
	.st183{fill:#FF5F7E;}
	.st184{fill:#EBCEEB;}
	.st185{fill:#E5BDE5;}
	.st186{fill:#E0ABDF;}
	.st187{fill:#D799D6;}
	.st188{fill:#3B8FA3;}
	.st189{fill:#348B99;}
	.st190{fill:#F7F7F7;}
	.st191{fill:#3AA176;}
	.st192{fill:#84ED82;}
	.st193{fill:#EFEAEA;}
	.st194{fill:#FF9A7E;}
	.st195{fill:#FCD2BE;}
	.st196{fill:#FCDDCF;}
	.st197{fill:#C683C8;}
	.st198{fill:#A55F49;}
	.st199{fill:#FEF5F7;}
</style>
<path class="flameyellow_01" d="M16,16c0,2.968,1.957,4.957,5.871,4.999c3.349,0.037,6.171-2.297,6.866-5.573
	c1.264-5.958-2.285-9.815-5.077-10.36c-0.231-0.045-0.391,0.227-0.242,0.409C24.005,6.191,25,7.611,25,9c0,3-2.297,3-4,3
	C21,12,16,12,16,16z"/>
<path class="flameorange_01" d="M21.871,20.999c3.349,0.037,6.165-2.298,6.866-5.573c1.099-5.132-1.296-8.592-3.734-9.857
	c0.082,0.082,1.966,1.869,1.966,4.431s-1.812,5.188-4.719,4.969s-4.469,1.906-4.469,1.906s-0.596,0.549-1.304,1.356
	C17.266,19.918,19.053,20.969,21.871,20.999z"/>
<path class="flamered_01" d="M28.607,10.129c0.036,0.313,0.251,2.59-0.482,4.496c-0.525,1.366-1.781,3.281-5.031,3.281
	s-4.722,2.031-4.722,2.031l0.027,0.289c0.9,0.483,2.055,0.757,3.473,0.773c3.349,0.037,6.165-2.298,6.866-5.573
	C29.171,13.398,29.066,11.591,28.607,10.129z"/>
<polygon class="sand_04" points="18,22 18,29 20,29 20.434,19.528 "/>
<path class="grey_17" d="M18.5,31h1c0.276,0,0.5-0.224,0.5-0.5V29h-2v1.5C18,30.776,18.224,31,18.5,31z"/>
<polygon class="sand_03" points="14,22 14,29 12,29 11.566,19.528 "/>
<path class="grey_16" d="M13.5,31h-1c-0.276,0-0.5-0.224-0.5-0.5V29h2v1.5C14,30.776,13.776,31,13.5,31z"/>
<path class="sand_03" d="M18,12l0.774,3.096c0.149,0.598,0.401,1.166,0.743,1.679l0.025,0.037c0.92,1.381,1.152,3.109,0.627,4.683v0
	c-0.112,0.336-0.19,0.682-0.234,1.033L19,30h-2v-7h-1V12H18z"/>
<path class="grey_16" d="M17.5,32h1c0.276,0,0.5-0.224,0.5-0.5V30h-2v1.5C17,31.776,17.224,32,17.5,32z"/>
<path class="sand_02" d="M14,12l-0.774,3.096c-0.149,0.598-0.401,1.166-0.743,1.679l-0.025,0.037
	c-0.92,1.381-1.152,3.109-0.627,4.683l0,0c0.112,0.336,0.19,0.682,0.234,1.033L13,30h2v-7h1V12H14z"/>
<path class="sand_02" d="M21.688,6.008l-3.205,0.801c-0.058-0.073-0.099-0.122-0.099-0.122H16V16c1.173,0,1.658-0.688,1.859-1.258
	c0.151-0.429,0.419-0.804,0.802-1.05C19.243,13.32,20,12.539,20,11c0-0.607-0.097-1.17-0.241-1.679l2.19-2.92
	C22.09,6.212,21.917,5.951,21.688,6.008z"/>
<path class="sand_01" d="M13.616,6.687c0,0-0.041,0.049-0.099,0.122l-3.205-0.801c-0.228-0.057-0.402,0.204-0.261,0.393l2.19,2.92
	C12.097,9.83,12,10.393,12,11c0,1.539,0.757,2.32,1.339,2.693c0.383,0.245,0.651,0.62,0.802,1.05C14.342,15.312,14.827,16,16,16
	V6.687H13.616z"/>
<g>
	<path class="flamered_01" d="M16,9c-1.657,0-3-1.378-3-3.078v0c0-2.861,3.457-3.062,2.337-5.549
		c-0.1-0.221,0.111-0.451,0.326-0.348C16.8,0.571,19,2.118,19,5.922v0C19,7.622,17.657,9,16,9L16,9z"/>
	<path class="flameorange_01" d="M15.517,8.939c-0.937-0.231-1.585-1.21-1.511-2.213c0.057-0.773,0.484-1.239,1.15-1.908
		c0.428-0.429,0.958-0.961,1.228-1.667c0.069-0.179,0.302-0.204,0.421-0.056C17.452,3.894,18,5.104,18,6.909
		C18,8.225,16.828,9.262,15.517,8.939z"/>
	<path class="flameyellow_01" d="M15.77,8.973c-0.495-0.117-0.807-0.606-0.765-1.139c0.027-0.342,0.199-0.58,0.841-1.233
		c0.148-0.151,0.317-0.322,0.49-0.517c0.13-0.147,0.365-0.098,0.423,0.093c0.16,0.526,0.241,1.116,0.243,1.767
		C17.003,8.606,16.424,9.127,15.77,8.973z"/>
</g>
<path class="grey_16" d="M14.486,11.536c-0.084-0.236-0.353-0.856-1.015-1.457c-0.134-0.122-0.323-0.097-0.357,0.045
	c-0.111,0.467-0.257,1.379,0.194,1.67c0.663,0.426,1.03,0.088,1.158-0.079C14.502,11.667,14.51,11.602,14.486,11.536z"/>
<circle class="white" cx="13.75" cy="11.25" r="0.25"/>
<path class="grey_17" d="M17.514,11.536c0.084-0.236,0.353-0.856,1.015-1.457c0.134-0.122,0.323-0.097,0.357,0.045
	c0.111,0.467,0.257,1.379-0.194,1.67c-0.663,0.426-1.03,0.088-1.158-0.079C17.498,11.667,17.49,11.602,17.514,11.536z"/>
<circle class="grey_01" cx="18.25" cy="11.25" r="0.25"/>
<path class="grey_15" d="M14.5,32h-1c-0.276,0-0.5-0.224-0.5-0.5V30h2v1.5C15,31.776,14.776,32,14.5,32z"/>
</svg>
