<?xml version="1.0" encoding="utf-8"?>
<!-- Generator: Adobe Illustrator 20.1.0, SVG Export Plug-In . SVG Version: 6.00 Build 0)  -->
<!DOCTYPE svg PUBLIC "-//W3C//DTD SVG 1.1//EN" "http://www.w3.org/Graphics/SVG/1.1/DTD/svg11.dtd">
<svg version="1.1" id="icons" xmlns="http://www.w3.org/2000/svg" xmlns:xlink="http://www.w3.org/1999/xlink" x="0px" y="0px"
	 width="32px" height="32px" viewBox="0 0 32 32" style="enable-background:new 0 0 32 32;" xml:space="preserve">
<style type="text/css">
	.white{fill:#FFFFFF;}
	.grey_01{fill:#F7F7F7;}
	.grey_16{fill:#373F3F;}
	.grey_17{fill:#2B3332;}
	.rose_06{fill:#FAC4D1;}
	.rose_07{fill:#FAB8CD;}
	.rose_08{fill:#F9ADC8;}
	.rose_09{fill:#F8A1C4;}
	.rose_10{fill:#F297BE;}
	.rose_11{fill:#EA8BB4;}
	.sand_02{fill:#FDEBBB;}
	.sand_03{fill:#FAE09F;}
	.sand_04{fill:#F7D684;}
	.st0{fill:#78DF7C;}
	.st1{fill:#54B668;}
	.st2{fill:#7A63AD;}
	.st3{fill:#866EBA;}
	.st4{fill:#D2E6F3;}
	.st5{fill:#C1DDEE;}
	.st6{fill:#E0C193;}
	.st7{fill:#DBBA8C;}
	.st8{fill:#7FB8E0;}
	.st9{fill:#8EC0E0;}
	.st10{fill:#71B1E1;}
	.st11{fill:#9FC9E4;}
	.st12{fill:#FFEAA7;}
	.st13{fill:#FFE28A;}
	.st14{fill:#FF6B8B;}
	.st15{fill:#F4A984;}
	.st16{fill:#EA9C7A;}
	.st17{fill:#FEF1C6;}
	.st18{fill:#E85160;}
	.st19{fill:#D84459;}
	.st20{fill:#E55D53;}
	.st21{fill:#FFD400;}
	.st22{fill:#FF8F00;}
	.st23{fill:#FF4A00;}
	.st24{fill:#FFF3D9;}
	.st25{fill:#FFD96C;}
	.st26{fill:#9ACC2E;}
	.st27{fill:#AADB3D;}
	.st28{fill:#A2D336;}
	.st29{fill:#93C427;}
	.st30{fill:#F79654;}
	.st31{fill:#FFD04D;}
	.st32{fill:#FCA15E;}
	.st33{fill:#A9E260;}
	.st34{fill:#97DB4A;}
	.st35{fill:#B1E346;}
	.st36{fill:#FCD8DE;}
	.st37{fill:#CDA073;}
	.st38{fill:#C09265;}
	.st39{fill:#A7794C;}
	.st40{fill:#96643B;}
	.st41{fill:#845331;}
	.st42{fill:#B38658;}
	.st43{fill:#9E6E43;}
	.st44{fill:#8D5B36;}
	.st45{fill:#FBCFD6;}
	.st46{fill:#E8BA36;}
	.st47{fill:#E0B12E;}
	.st48{fill:#FFC172;}
	.st49{fill:#FFAD68;}
	.st50{fill:#FFB76D;}
	.st51{fill:#6E57A0;}
	.st52{fill:#675099;}
	.st53{fill:#F3586F;}
	.st54{fill:#604893;}
	.st55{fill:#CBEB6B;}
	.st56{fill:#4EAC5D;}
	.st57{fill:#BEE758;}
	.st58{fill:#6CD275;}
	.st59{fill:#48A353;}
	.st60{fill:#60C46F;}
	.st61{fill:#D9F07D;}
	.st62{fill:#E6F490;}
	.st63{fill:#4896C8;}
	.st64{fill:#4390BF;}
	.st65{fill:#5CA3D5;}
	.st66{fill:#529CCF;}
	.st67{fill:#F7C845;}
	.st68{fill:#ECCD50;}
	.st69{fill:#FF8D6E;}
	.st70{fill:#FF805D;}
	.st71{fill:#EDEEEE;}
	.st72{fill:#65A9DC;}
	.st73{fill:#8BC07A;}
	.st74{fill:#F0C13E;}
	.st75{fill:#9A3644;}
	.st76{fill:#8A323F;}
	.st77{fill:#945BA0;}
	.st78{fill:#A366AD;}
	.st79{fill:#B370B9;}
	.st80{fill:#C27BC6;}
	.st81{fill:#F6B392;}
	.st82{fill:#D285D2;}
	.st83{fill:#FDEBBB;}
	.st84{fill:#FAE09F;}
	.st85{fill:#DBA728;}
	.st86{fill:#505957;}
	.st87{fill:#56C7CD;}
	.st88{fill:#434C4B;}
	.st89{fill:#687271;}
	.st90{fill:#5C6664;}
	.st91{fill:#51BAC5;}
	.st92{fill:#D64F45;}
	.st93{fill:#D1D4D4;}
	.st94{fill:#E3E5E5;}
	.st95{fill:#DADDDC;}
	.st96{fill:#845194;}
	.st97{fill:#5BD3D5;}
	.st98{fill:#46B080;}
	.st99{fill:#53BF8C;}
	.st100{fill:#6EDCA2;}
	.st101{fill:#7AEBAC;}
	.st102{fill:#60CD96;}
	.st103{fill:#E8803A;}
	.st104{fill:#0A6F8E;}
	.st105{fill:#0F769B;}
	.st106{fill:#EF8C48;}
	.st107{fill:#838C8A;}
	.st108{fill:#757F7E;}
	.st109{fill:#D1473D;}
	.st110{fill:#9179C6;}
	.st111{fill:#906DBB;}
	.st112{fill:#A78EDD;}
	.st113{fill:#9D85D3;}
	.st114{fill:#E2EFF7;}
	.st115{fill:#B0D3EA;}
	.st116{fill:#F7BC48;}
	.st117{fill:#FFC550;}
	.st118{fill:#FFCF6E;}
	.st119{fill:#4CAEBC;}
	.st120{fill:#47A1B4;}
	.st121{fill:#4295AC;}
	.st122{fill:#FDE2E6;}
	.st123{fill:#FFF5D8;}
	.st124{fill:#99533D;}
	.st125{fill:#914C39;}
	.st126{fill:#D4C9EF;}
	.st127{fill:#E3DBF4;}
	.st128{fill:#F1EDFA;}
	.st129{fill:#C6B7E9;}
	.st130{fill:#B8A5E4;}
	.st131{fill:#F0C877;}
	.st132{fill:#E8BA67;}
	.st133{fill:#DDAA5F;}
	.st134{fill:#D4994F;}
	.st135{fill:#C98B44;}
	.st136{fill:#F7D684;}
	.st137{fill:#BF7D3C;}
	.st138{fill:#909997;}
	.st139{fill:#724D31;}
	.st140{fill:#93C2CA;}
	.st141{fill:#99C7CE;}
	.st142{fill:#9FCCD3;}
	.st143{fill:#ACD7DD;}
	.st144{fill:#B9E2E7;}
	.st145{fill:#A5D1D8;}
	.st146{fill:#88B9C3;}
	.st147{fill:#7EB1BD;}
	.st148{fill:#F297BE;}
	.st149{fill:#EA8BB4;}
	.st150{fill:#C8CCCB;}
	.st151{fill:none;}
	.st152{fill:#4F4032;}
	.st153{fill:#604631;}
	.st154{fill:#F9BDA0;}
	.st155{fill:#E7685F;}
	.st156{fill:#C84054;}
	.st157{fill:#ABB2B1;}
	.st158{fill:#9DA5A4;}
	.st159{fill:#F74000;}
	.st160{fill:#F97C00;}
	.st161{fill:#F9C900;}
	.st162{fill:#EFD4A7;}
	.st163{fill:#EACEA1;}
	.st164{fill:#FCE8CC;}
	.st165{fill:#F5DEB9;}
	.st166{fill:#CFAB81;}
	.st167{fill:#D5B387;}
	.st168{fill:#3A4274;}
	.st169{fill:#707EB7;}
	.st170{fill:#424B7E;}
	.st171{fill:#7C8AC4;}
	.st172{fill:#FFD98D;}
	.st173{fill:#8694D1;}
	.st174{fill:#9AA6D6;}
	.st175{fill:#ABB4DD;}
	.st176{fill:#FDECEF;}
	.st177{fill:#137FA0;}
	.st178{fill:#EB6B48;}
	.st179{fill:#F57552;}
	.st180{fill:#515E91;}
	.st181{fill:#5C699E;}
	.st182{fill:#6673AA;}
	.st183{fill:#504484;}
	.st184{fill:#FF5F7E;}
	.st185{fill:#EBCEEB;}
	.st186{fill:#E5BDE5;}
	.st187{fill:#E0ABDF;}
	.st188{fill:#D799D6;}
	.st189{fill:#3B8FA3;}
	.st190{fill:#348B99;}
	.st191{fill:#F7F7F7;}
	.st192{fill:#3AA176;}
	.st193{fill:#84ED82;}
	.st194{fill:#EFEAEA;}
	.st195{fill:#FF9A7E;}
	.st196{fill:#FCD2BE;}
	.st197{fill:#FCDDCF;}
	.st198{fill:#C683C8;}
	.st199{fill:#A55F49;}
	.st200{fill:#FEF5F7;}
</style>
<path class="rose_09" d="M25,22c0-4.457-2.267-7.579-6.044-8.619l-0.657-9.202C18.13,1.825,16.171,0,13.81,0H13
	c-1.657,0-3,1.343-3,3v0.639c0,1.236,1.11,2.176,2.329,1.973l0.178-0.03C12.792,5.535,13,5.289,13,5v0h-0.5
	C11.672,5,11,4.328,11,3.5c0-1.105,0.895-2,2-2h0.5C14.881,1.5,16,2.619,16,4v26c2.193,0.031,4.057-0.36,5.516-1.181
	c0.948,0.869,1.306,2.122,1.425,2.767C22.985,31.825,23.19,32,23.433,32h1.279c0.178,0,0.349-0.096,0.44-0.249
	C28.104,26.757,25,22,25,22z"/>
<path class="rose_08" d="M16,4c0-1.381-1.119-2.5-2.5-2.5H13c-1.105,0-2,0.895-2,2C11,4.328,11.672,5,12.5,5H13V4.865
	c0-0.223-0.126-0.428-0.326-0.528l-0.397-0.199C12.107,4.053,12,3.88,12,3.691V3.69C12,3.309,12.309,3,12.69,3h0.215
	c0.588,0,1.049,0.505,0.996,1.091l-0.844,9.289C9.298,14.419,7.076,17.542,7,22c0,0-3.104,4.757-0.152,9.751
	C6.938,31.904,7.11,32,7.288,32h1.279c0.244,0,0.448-0.175,0.492-0.414c0.122-0.661,0.491-1.963,1.493-2.833
	c1.452,0.8,3.296,1.217,5.447,1.247V4z"/>
<path class="rose_06" d="M11.268,19.465C10.922,19.179,10.484,19,10,19c-1.105,0-2,0.895-2,2c0,0.835,0.513,1.549,1.24,1.848
	C9.084,23.507,9,24.224,9,25c0,4.418,7,5,7,5V18C14.038,18,12.44,18.512,11.268,19.465z"/>
<path class="rose_07" d="M24,21c0-1.105-0.895-2-2-2c-0.484,0-0.922,0.179-1.268,0.465C19.56,18.512,17.962,18,16,18v12
	c0,0,7-0.582,7-5c0-0.776-0.084-1.493-0.24-2.152C23.487,22.549,24,21.835,24,21z"/>
<circle class="white" cx="12.5" cy="23.5" r="2.5"/>
<circle class="grey_16" cx="12.5" cy="23.5" r="0.5"/>
<circle class="grey_01" cx="19.5" cy="23.5" r="2.5"/>
<circle class="grey_17" cx="19.5" cy="23.5" r="0.5"/>
<path class="sand_02" d="M16,24.84c-1.942,0-3.884,0.269-5.769,0.808l-0.056,0.016C9.479,25.863,9,26.499,9,27.222
	c0,0.492,0.224,0.957,0.608,1.265l2.831,2.265C13.449,31.56,14.705,32,15.999,32H16V24.84z"/>
<path class="sand_03" d="M16.001,32c1.294,0,2.55-0.44,3.561-1.249l2.831-2.265C22.776,28.179,23,27.714,23,27.222
	c0-0.723-0.479-1.359-1.175-1.557l-0.056-0.016C19.884,25.11,17.942,24.84,16,24.84L16.001,32L16.001,32z"/>
<path class="sand_03" d="M16,29c-2.576,0-4.958-0.478-6.913-1.284c0.096,0.299,0.27,0.57,0.521,0.771l2.831,2.265
	C13.449,31.56,14.705,32,15.999,32H16V29z"/>
<path class="rose_10" d="M16,29c-1.589,0-3.088-0.2-4.474-0.528C12.34,29.964,14.028,31,16,31V29z"/>
<path class="sand_04" d="M16.001,32c1.294,0,2.55-0.44,3.561-1.249l2.831-2.265c0.251-0.201,0.424-0.472,0.521-0.771
	C20.958,28.522,18.576,29,16,29L16.001,32L16.001,32z"/>
<path class="rose_11" d="M20.474,28.472C19.088,28.8,17.589,29,16,29v2C17.972,31,19.66,29.964,20.474,28.472z"/>
<path class="white" d="M11.887,28.547l0.303,1.211C12.225,29.9,12.353,30,12.5,30h0c0.147,0,0.275-0.1,0.31-0.242l0.248-0.993
	C12.66,28.702,12.269,28.63,11.887,28.547z"/>
<path class="grey_01" d="M19.5,30c0.147,0,0.275-0.1,0.31-0.242l0.303-1.211c-0.383,0.083-0.774,0.155-1.172,0.217l0.248,0.993
	C19.225,29.9,19.353,30,19.5,30L19.5,30z"/>
<path class="rose_10" d="M9.542,21.875c0.25-0.639,0.585-1.205,0.999-1.694C10.383,20.076,10.204,20,10,20c-0.552,0-1,0.448-1,1
	C9,21.384,9.224,21.708,9.542,21.875z"/>
<path class="rose_11" d="M22.458,21.875C22.776,21.708,23,21.384,23,21c0-0.552-0.448-1-1-1c-0.204,0-0.383,0.076-0.542,0.181
	C21.873,20.67,22.208,21.236,22.458,21.875z"/>
</svg>
