<?xml version="1.0" encoding="utf-8"?>
<!-- Generator: Adobe Illustrator 20.1.0, SVG Export Plug-In . SVG Version: 6.00 Build 0)  -->
<!DOCTYPE svg PUBLIC "-//W3C//DTD SVG 1.1//EN" "http://www.w3.org/Graphics/SVG/1.1/DTD/svg11.dtd">
<svg version="1.1" id="icons" xmlns="http://www.w3.org/2000/svg" xmlns:xlink="http://www.w3.org/1999/xlink" x="0px" y="0px"
	 width="32px" height="32px" viewBox="0 0 32 32" style="enable-background:new 0 0 32 32;" xml:space="preserve">
<style type="text/css">
	.white{fill:#FFFFFF;}
	.grey_01{fill:#F7F7F7;}
	.grey_11{fill:#757F7E;}
	.grey_12{fill:#687271;}
	.grey_13{fill:#5C6664;}
	.grey_14{fill:#505957;}
	.grey_15{fill:#434C4B;}
	.grey_16{fill:#373F3F;}
	.grey_17{fill:#2B3332;}
	.cerulean_01{fill:#5BD3D5;}
	.cerulean_02{fill:#56C7CD;}
	.cerulean_03{fill:#51BAC5;}
	.cerulean_04{fill:#4CAEBC;}
	.poppy_01{fill:#E7685F;}
	.poppy_02{fill:#E55D53;}
	.poppy_03{fill:#D64F45;}
	.poppy_04{fill:#D1473D;}
	.st0{fill:#78DF7C;}
	.st1{fill:#54B668;}
	.st2{fill:#7A63AD;}
	.st3{fill:#866EBA;}
	.st4{fill:#D2E6F3;}
	.st5{fill:#C1DDEE;}
	.st6{fill:#E0C193;}
	.st7{fill:#DBBA8C;}
	.st8{fill:#7FB8E0;}
	.st9{fill:#8EC0E0;}
	.st10{fill:#71B1E1;}
	.st11{fill:#9FC9E4;}
	.st12{fill:#FFEAA7;}
	.st13{fill:#FFE28A;}
	.st14{fill:#FF6B8B;}
	.st15{fill:#F4A984;}
	.st16{fill:#EA9C7A;}
	.st17{fill:#FEF1C6;}
	.st18{fill:#E85160;}
	.st19{fill:#D84459;}
	.st20{fill:#FFD400;}
	.st21{fill:#FF8F00;}
	.st22{fill:#FF4A00;}
	.st23{fill:#F7D684;}
	.st24{fill:#FAE09F;}
	.st25{fill:#FDEBBB;}
	.st26{fill:#FFF3D9;}
	.st27{fill:#FFD96C;}
	.st28{fill:#9ACC2E;}
	.st29{fill:#AADB3D;}
	.st30{fill:#A2D336;}
	.st31{fill:#93C427;}
	.st32{fill:#F79654;}
	.st33{fill:#FFD04D;}
	.st34{fill:#FCA15E;}
	.st35{fill:#A9E260;}
	.st36{fill:#97DB4A;}
	.st37{fill:#B1E346;}
	.st38{fill:#FCD8DE;}
	.st39{fill:#CDA073;}
	.st40{fill:#C09265;}
	.st41{fill:#A7794C;}
	.st42{fill:#96643B;}
	.st43{fill:#845331;}
	.st44{fill:#B38658;}
	.st45{fill:#9E6E43;}
	.st46{fill:#8D5B36;}
	.st47{fill:#FBCFD6;}
	.st48{fill:#FAC4D1;}
	.st49{fill:#FAB8CD;}
	.st50{fill:#F9ADC8;}
	.st51{fill:#F8A1C4;}
	.st52{fill:#F297BE;}
	.st53{fill:#EA8BB4;}
	.st54{fill:#E8BA36;}
	.st55{fill:#E0B12E;}
	.st56{fill:#FFC172;}
	.st57{fill:#FFAD68;}
	.st58{fill:#FFB76D;}
	.st59{fill:#6E57A0;}
	.st60{fill:#675099;}
	.st61{fill:#F3586F;}
	.st62{fill:#604893;}
	.st63{fill:#CBEB6B;}
	.st64{fill:#4EAC5D;}
	.st65{fill:#BEE758;}
	.st66{fill:#6CD275;}
	.st67{fill:#48A353;}
	.st68{fill:#60C46F;}
	.st69{fill:#D9F07D;}
	.st70{fill:#E6F490;}
	.st71{fill:#4896C8;}
	.st72{fill:#4390BF;}
	.st73{fill:#5CA3D5;}
	.st74{fill:#529CCF;}
	.st75{fill:#F7C845;}
	.st76{fill:#ECCD50;}
	.st77{fill:#FF8D6E;}
	.st78{fill:#FF805D;}
	.st79{fill:#EDEEEE;}
	.st80{fill:#65A9DC;}
	.st81{fill:#8BC07A;}
	.st82{fill:#F0C13E;}
	.st83{fill:#9A3644;}
	.st84{fill:#8A323F;}
	.st85{fill:#945BA0;}
	.st86{fill:#A366AD;}
	.st87{fill:#B370B9;}
	.st88{fill:#C27BC6;}
	.st89{fill:#F6B392;}
	.st90{fill:#D285D2;}
	.st91{fill:#DBA728;}
	.st92{fill:#D1D4D4;}
	.st93{fill:#E3E5E5;}
	.st94{fill:#DADDDC;}
	.st95{fill:#845194;}
	.st96{fill:#46B080;}
	.st97{fill:#53BF8C;}
	.st98{fill:#6EDCA2;}
	.st99{fill:#7AEBAC;}
	.st100{fill:#60CD96;}
	.st101{fill:#E8803A;}
	.st102{fill:#0A6F8E;}
	.st103{fill:#0F769B;}
	.st104{fill:#EF8C48;}
	.st105{fill:#838C8A;}
	.st106{fill:#56C7CD;}
	.st107{fill:#9179C6;}
	.st108{fill:#906DBB;}
	.st109{fill:#A78EDD;}
	.st110{fill:#9D85D3;}
	.st111{fill:#E2EFF7;}
	.st112{fill:#B0D3EA;}
	.st113{fill:#F7BC48;}
	.st114{fill:#FFC550;}
	.st115{fill:#FFCF6E;}
	.st116{fill:#47A1B4;}
	.st117{fill:#4295AC;}
	.st118{fill:#FDE2E6;}
	.st119{fill:#FFF5D8;}
	.st120{fill:#99533D;}
	.st121{fill:#914C39;}
	.st122{fill:#D4C9EF;}
	.st123{fill:#E3DBF4;}
	.st124{fill:#F1EDFA;}
	.st125{fill:#C6B7E9;}
	.st126{fill:#B8A5E4;}
	.st127{fill:#F0C877;}
	.st128{fill:#E8BA67;}
	.st129{fill:#DDAA5F;}
	.st130{fill:#D4994F;}
	.st131{fill:#C98B44;}
	.st132{fill:#BF7D3C;}
	.st133{fill:#909997;}
	.st134{fill:#757F7E;}
	.st135{fill:#724D31;}
	.st136{fill:#93C2CA;}
	.st137{fill:#99C7CE;}
	.st138{fill:#9FCCD3;}
	.st139{fill:#ACD7DD;}
	.st140{fill:#B9E2E7;}
	.st141{fill:#A5D1D8;}
	.st142{fill:#88B9C3;}
	.st143{fill:#7EB1BD;}
	.st144{fill:#C8CCCB;}
	.st145{fill:none;}
	.st146{fill:#4F4032;}
	.st147{fill:#604631;}
	.st148{fill:#F9BDA0;}
	.st149{fill:#C84054;}
	.st150{fill:#ABB2B1;}
	.st151{fill:#9DA5A4;}
	.st152{fill:#F74000;}
	.st153{fill:#F97C00;}
	.st154{fill:#F9C900;}
	.st155{fill:#EFD4A7;}
	.st156{fill:#EACEA1;}
	.st157{fill:#FCE8CC;}
	.st158{fill:#F5DEB9;}
	.st159{fill:#CFAB81;}
	.st160{fill:#D5B387;}
	.st161{fill:#3A4274;}
	.st162{fill:#707EB7;}
	.st163{fill:#424B7E;}
	.st164{fill:#7C8AC4;}
	.st165{fill:#FFD98D;}
	.st166{fill:#8694D1;}
	.st167{fill:#9AA6D6;}
	.st168{fill:#ABB4DD;}
	.st169{fill:#FDECEF;}
	.st170{fill:#137FA0;}
	.st171{fill:#EB6B48;}
	.st172{fill:#F57552;}
	.st173{fill:#515E91;}
	.st174{fill:#5C699E;}
	.st175{fill:#6673AA;}
	.st176{fill:#504484;}
	.st177{fill:#FF5F7E;}
	.st178{fill:#EBCEEB;}
	.st179{fill:#E5BDE5;}
	.st180{fill:#E0ABDF;}
	.st181{fill:#D799D6;}
	.st182{fill:#3B8FA3;}
	.st183{fill:#348B99;}
	.st184{fill:#F7F7F7;}
	.st185{fill:#3AA176;}
	.st186{fill:#84ED82;}
	.st187{fill:#EFEAEA;}
	.st188{fill:#FF9A7E;}
	.st189{fill:#FCD2BE;}
	.st190{fill:#FCDDCF;}
	.st191{fill:#C683C8;}
	.st192{fill:#A55F49;}
	.st193{fill:#FEF5F7;}
</style>
<g>
	<g>
		<path class="cerulean_04" d="M28.792,10.794l-1.061,1.061l-1.414-1.414l1.061-1.061c0.195-0.195,0.512-0.195,0.707,0l0.707,0.707
			C28.987,10.282,28.987,10.598,28.792,10.794z"/>
		<path class="poppy_04" d="M31.621,13.622l-1.061,1.061l-1.414-1.414l1.061-1.061c0.195-0.195,0.512-0.195,0.707,0l0.707,0.707
			C31.816,13.11,31.816,13.427,31.621,13.622z"/>
		<path class="grey_16" d="M30.56,14.683l-1.414,1.414c-1.17,1.17-3.073,1.17-4.243,0c-1.17-1.17-1.17-3.073,0-4.243l1.414-1.414
			l1.414,1.414l-1.414,1.414c-0.39,0.39-0.39,1.024,0,1.414c0.39,0.39,1.024,0.39,1.414,0l1.414-1.414L30.56,14.683z"/>
	</g>
	<g>
		<path class="cerulean_01" d="M3.208,10.794l1.061,1.061l1.414-1.414L4.622,9.379c-0.195-0.195-0.512-0.195-0.707,0l-0.707,0.707
			C3.013,10.282,3.013,10.598,3.208,10.794z"/>
		<path class="poppy_01" d="M0.379,13.622l1.061,1.061l1.414-1.414l-1.061-1.061c-0.195-0.195-0.512-0.195-0.707,0l-0.707,0.707
			C0.184,13.11,0.184,13.427,0.379,13.622z"/>
		<path class="grey_13" d="M2.854,16.097L1.44,14.683l1.414-1.414l1.414,1.414c0.39,0.39,1.024,0.39,1.414,0
			c0.39-0.39,0.39-1.024,0-1.414l-1.414-1.414l1.414-1.414l1.414,1.414c1.17,1.17,1.17,3.073,0,4.243S4.024,17.267,2.854,16.097z"/>
	</g>
	<g>
		<path class="cerulean_02" d="M6.794,3.207l1.061,1.061L6.44,5.682L5.379,4.621c-0.195-0.195-0.195-0.512,0-0.707l0.707-0.707
			C6.282,3.012,6.598,3.012,6.794,3.207z"/>
		<path class="poppy_02" d="M9.622,0.379l1.061,1.061L9.268,2.854L8.208,1.793c-0.195-0.195-0.195-0.512,0-0.707l0.707-0.707
			C9.11,0.183,9.427,0.183,9.622,0.379z"/>
		<path class="grey_14" d="M9.976,7.975c-0.801,0-1.555-0.312-2.122-0.879L6.44,5.682l1.414-1.414l1.415,1.414
			c0.378,0.379,1.037,0.379,1.414,0c0.189-0.189,0.293-0.44,0.293-0.707s-0.104-0.518-0.293-0.707L9.269,2.854l1.414-1.414
			l1.414,1.414c1.17,1.17,1.17,3.072,0,4.242C11.53,7.662,10.777,7.975,9.976,7.975z"/>
	</g>
	<g>
		<path class="cerulean_03" d="M25.206,3.207l-1.061,1.061l1.414,1.414l1.061-1.061c0.195-0.195,0.195-0.512,0-0.707l-0.707-0.707
			C25.718,3.012,25.402,3.012,25.206,3.207z"/>
		<path class="poppy_03" d="M22.378,0.379l-1.061,1.061l1.414,1.414l1.061-1.061c0.195-0.195,0.195-0.512,0-0.707l-0.707-0.707
			C22.89,0.183,22.573,0.183,22.378,0.379z"/>
		<path class="grey_15" d="M22.024,7.975c-0.801,0-1.555-0.312-2.122-0.879c-1.169-1.17-1.169-3.072,0-4.242l1.414-1.414
			l1.414,1.414l-1.414,1.414c-0.189,0.189-0.293,0.44-0.293,0.707s0.104,0.518,0.293,0.707c0.378,0.379,1.037,0.379,1.414,0
			l1.415-1.414l1.414,1.414l-1.415,1.414C23.579,7.662,22.826,7.975,22.024,7.975z"/>
	</g>
	<g>
		<path class="cerulean_03" d="M22,31.5V30h-2v1.5c0,0.276,0.224,0.5,0.5,0.5h1C21.776,32,22,31.776,22,31.5z"/>
		<path class="poppy_04" d="M26,31.5V30h-2v1.5c0,0.276,0.224,0.5,0.5,0.5h1C25.776,32,26,31.776,26,31.5z"/>
		<path class="grey_16" d="M23,25c1.654,0,3,1.346,3,3v2h-2v-2c0-0.552-0.449-1-1-1V25z"/>
		<path class="grey_15" d="M22,28v2h-2v-2c0-1.654,1.346-3,3-3v2C22.449,27,22,27.448,22,28z"/>
	</g>
	<g>
		<path class="cerulean_02" d="M10,31.5V30h2v1.5c0,0.276-0.224,0.5-0.5,0.5h-1C10.224,32,10,31.776,10,31.5z"/>
		<path class="poppy_01" d="M6,31.5V30h2v1.5C8,31.776,7.776,32,7.5,32h-1C6.224,32,6,31.776,6,31.5z"/>
		<path class="grey_13" d="M9,25c-1.654,0-3,1.346-3,3v2h2v-2c0-0.552,0.449-1,1-1V25z"/>
		<path class="grey_14" d="M10,28v2h2v-2c0-1.654-1.346-3-3-3v2C9.551,27,10,27.448,10,28z"/>
	</g>
	<g>
		<path class="grey_12" d="M10,10.45c0,3.314,2.686,6,6,6v-12C12.686,4.45,10,7.136,10,10.45z"/>
		<path class="grey_13" d="M16,4.45v12c3.314,0,6-2.686,6-6S19.314,4.45,16,4.45z"/>
		<path class="white" d="M13,10.45c0,1.657,1.343,3,3,3v-6C14.343,7.45,13,8.793,13,10.45z"/>
		<path class="grey_01" d="M16,7.45v6c1.657,0,3-1.343,3-3C19,8.793,17.657,7.45,16,7.45z"/>
		<path class="grey_16" d="M16,9.45c-0.552,0-1,0.448-1,1c0,0.552,0.448,1,1,1V9.45z"/>
		<path class="grey_17" d="M17,10.45c0-0.552-0.448-1-1-1v2C16.552,11.45,17,11.002,17,10.45z"/>
	</g>
	<g>
		<path class="grey_13" d="M17,20.5c0,3.314,2.686,6,6,6v-12C19.686,14.5,17,17.186,17,20.5z"/>
		<path class="grey_14" d="M23,14.5v12c3.314,0,6-2.686,6-6S26.314,14.5,23,14.5z"/>
		<path class="white" d="M20,20.5c0,1.657,1.343,3,3,3v-6C21.343,17.5,20,18.843,20,20.5z"/>
		<path class="grey_01" d="M23,17.5v6c1.657,0,3-1.343,3-3C26,18.843,24.657,17.5,23,17.5z"/>
		<path class="grey_16" d="M23,19.5c-0.552,0-1,0.448-1,1c0,0.552,0.448,1,1,1V19.5z"/>
		<path class="grey_17" d="M24,20.5c0-0.552-0.448-1-1-1v2C23.552,21.5,24,21.052,24,20.5z"/>
	</g>
	<g>
		<path class="grey_11" d="M3,20.5c0,3.314,2.686,6,6,6v-12C5.686,14.5,3,17.186,3,20.5z"/>
		<path class="grey_12" d="M9,14.5v12c3.314,0,6-2.686,6-6S12.314,14.5,9,14.5z"/>
		<path class="white" d="M6,20.5c0,1.657,1.343,3,3,3v-6C7.343,17.5,6,18.843,6,20.5z"/>
		<path class="grey_01" d="M9,17.5v6c1.657,0,3-1.343,3-3C12,18.843,10.657,17.5,9,17.5z"/>
		<path class="grey_16" d="M9,19.5c-0.552,0-1,0.448-1,1c0,0.552,0.448,1,1,1V19.5z"/>
		<path class="grey_17" d="M10,20.5c0-0.552-0.448-1-1-1v2C9.552,21.5,10,21.052,10,20.5z"/>
	</g>
	<circle class="grey_15" cx="12.5" cy="15.5" r="1.5"/>
	<circle class="grey_16" cx="19.5" cy="15.5" r="1.5"/>
	<rect x="19" y="15" class="grey_17" width="1" height="1"/>
	<rect x="12" y="15" class="grey_16" width="1" height="1"/>
</g>
</svg>
