<?xml version="1.0" encoding="utf-8"?>
<!-- Generator: Adobe Illustrator 20.1.0, SVG Export Plug-In . SVG Version: 6.00 Build 0)  -->
<!DOCTYPE svg PUBLIC "-//W3C//DTD SVG 1.1//EN" "http://www.w3.org/Graphics/SVG/1.1/DTD/svg11.dtd">
<svg version="1.1" id="icons" xmlns="http://www.w3.org/2000/svg" xmlns:xlink="http://www.w3.org/1999/xlink" x="0px" y="0px"
	 width="32px" height="32px" viewBox="0 0 32 32" style="enable-background:new 0 0 32 32;" xml:space="preserve">
<style type="text/css">
	.white{fill:#FFFFFF;}
	.grey_01{fill:#F7F7F7;}
	.grey_16{fill:#373F3F;}
	.grey_17{fill:#2B3332;}
	.orchid_05{fill:#B8A5E4;}
	.orchid_06{fill:#A78EDD;}
	.orchid_07{fill:#9D85D3;}
	.orchid_08{fill:#9179C6;}
	.orchid_09{fill:#866EBA;}
	.orchid_10{fill:#7A63AD;}
	.orchid_11{fill:#6E57A0;}
	.orchid_12{fill:#675099;}
	.orchid_13{fill:#604893;}
	.st0{fill:#78DF7C;}
	.st1{fill:#54B668;}
	.st2{fill:#D2E6F3;}
	.st3{fill:#C1DDEE;}
	.st4{fill:#E0C193;}
	.st5{fill:#DBBA8C;}
	.st6{fill:#7FB8E0;}
	.st7{fill:#8EC0E0;}
	.st8{fill:#71B1E1;}
	.st9{fill:#9FC9E4;}
	.st10{fill:#FFEAA7;}
	.st11{fill:#FFE28A;}
	.st12{fill:#FF6B8B;}
	.st13{fill:#F4A984;}
	.st14{fill:#EA9C7A;}
	.st15{fill:#FEF1C6;}
	.st16{fill:#E85160;}
	.st17{fill:#D84459;}
	.st18{fill:#E55D53;}
	.st19{fill:#FFD400;}
	.st20{fill:#FF8F00;}
	.st21{fill:#FF4A00;}
	.st22{fill:#F7D684;}
	.st23{fill:#FAE09F;}
	.st24{fill:#FDEBBB;}
	.st25{fill:#FFF3D9;}
	.st26{fill:#FFD96C;}
	.st27{fill:#9ACC2E;}
	.st28{fill:#AADB3D;}
	.st29{fill:#A2D336;}
	.st30{fill:#93C427;}
	.st31{fill:#F79654;}
	.st32{fill:#FFD04D;}
	.st33{fill:#FCA15E;}
	.st34{fill:#A9E260;}
	.st35{fill:#97DB4A;}
	.st36{fill:#B1E346;}
	.st37{fill:#FCD8DE;}
	.st38{fill:#CDA073;}
	.st39{fill:#C09265;}
	.st40{fill:#A7794C;}
	.st41{fill:#96643B;}
	.st42{fill:#845331;}
	.st43{fill:#B38658;}
	.st44{fill:#9E6E43;}
	.st45{fill:#8D5B36;}
	.st46{fill:#FBCFD6;}
	.st47{fill:#FAC4D1;}
	.st48{fill:#FAB8CD;}
	.st49{fill:#F9ADC8;}
	.st50{fill:#F8A1C4;}
	.st51{fill:#F297BE;}
	.st52{fill:#EA8BB4;}
	.st53{fill:#E8BA36;}
	.st54{fill:#E0B12E;}
	.st55{fill:#FFC172;}
	.st56{fill:#FFAD68;}
	.st57{fill:#FFB76D;}
	.st58{fill:#F3586F;}
	.st59{fill:#CBEB6B;}
	.st60{fill:#4EAC5D;}
	.st61{fill:#BEE758;}
	.st62{fill:#6CD275;}
	.st63{fill:#48A353;}
	.st64{fill:#60C46F;}
	.st65{fill:#D9F07D;}
	.st66{fill:#E6F490;}
	.st67{fill:#4896C8;}
	.st68{fill:#4390BF;}
	.st69{fill:#5CA3D5;}
	.st70{fill:#529CCF;}
	.st71{fill:#F7C845;}
	.st72{fill:#ECCD50;}
	.st73{fill:#FF8D6E;}
	.st74{fill:#FF805D;}
	.st75{fill:#EDEEEE;}
	.st76{fill:#65A9DC;}
	.st77{fill:#8BC07A;}
	.st78{fill:#F0C13E;}
	.st79{fill:#9A3644;}
	.st80{fill:#8A323F;}
	.st81{fill:#945BA0;}
	.st82{fill:#A366AD;}
	.st83{fill:#B370B9;}
	.st84{fill:#C27BC6;}
	.st85{fill:#F6B392;}
	.st86{fill:#D285D2;}
	.st87{fill:#DBA728;}
	.st88{fill:#505957;}
	.st89{fill:#56C7CD;}
	.st90{fill:#434C4B;}
	.st91{fill:#687271;}
	.st92{fill:#5C6664;}
	.st93{fill:#51BAC5;}
	.st94{fill:#D64F45;}
	.st95{fill:#D1D4D4;}
	.st96{fill:#E3E5E5;}
	.st97{fill:#DADDDC;}
	.st98{fill:#845194;}
	.st99{fill:#5BD3D5;}
	.st100{fill:#46B080;}
	.st101{fill:#53BF8C;}
	.st102{fill:#6EDCA2;}
	.st103{fill:#7AEBAC;}
	.st104{fill:#60CD96;}
	.st105{fill:#E8803A;}
	.st106{fill:#0A6F8E;}
	.st107{fill:#0F769B;}
	.st108{fill:#EF8C48;}
	.st109{fill:#838C8A;}
	.st110{fill:#757F7E;}
	.st111{fill:#D1473D;}
	.st112{fill:#906DBB;}
	.st113{fill:#E2EFF7;}
	.st114{fill:#B0D3EA;}
	.st115{fill:#F7BC48;}
	.st116{fill:#FFC550;}
	.st117{fill:#FFCF6E;}
	.st118{fill:#4CAEBC;}
	.st119{fill:#47A1B4;}
	.st120{fill:#4295AC;}
	.st121{fill:#FDE2E6;}
	.st122{fill:#FFF5D8;}
	.st123{fill:#99533D;}
	.st124{fill:#914C39;}
	.st125{fill:#D4C9EF;}
	.st126{fill:#E3DBF4;}
	.st127{fill:#F1EDFA;}
	.st128{fill:#C6B7E9;}
	.st129{fill:#F0C877;}
	.st130{fill:#E8BA67;}
	.st131{fill:#DDAA5F;}
	.st132{fill:#D4994F;}
	.st133{fill:#C98B44;}
	.st134{fill:#BF7D3C;}
	.st135{fill:#909997;}
	.st136{fill:#724D31;}
	.st137{fill:#93C2CA;}
	.st138{fill:#99C7CE;}
	.st139{fill:#9FCCD3;}
	.st140{fill:#ACD7DD;}
	.st141{fill:#B9E2E7;}
	.st142{fill:#A5D1D8;}
	.st143{fill:#88B9C3;}
	.st144{fill:#7EB1BD;}
	.st145{fill:#C8CCCB;}
	.st146{fill:none;}
	.st147{fill:#4F4032;}
	.st148{fill:#604631;}
	.st149{fill:#F9BDA0;}
	.st150{fill:#7A63AD;}
	.st151{fill:#6E57A0;}
	.st152{fill:#E7685F;}
	.st153{fill:#C84054;}
	.st154{fill:#ABB2B1;}
	.st155{fill:#9DA5A4;}
	.st156{fill:#F74000;}
	.st157{fill:#F97C00;}
	.st158{fill:#F9C900;}
	.st159{fill:#EFD4A7;}
	.st160{fill:#EACEA1;}
	.st161{fill:#FCE8CC;}
	.st162{fill:#F5DEB9;}
	.st163{fill:#CFAB81;}
	.st164{fill:#D5B387;}
	.st165{fill:#3A4274;}
	.st166{fill:#707EB7;}
	.st167{fill:#424B7E;}
	.st168{fill:#7C8AC4;}
	.st169{fill:#FFD98D;}
	.st170{fill:#8694D1;}
	.st171{fill:#9AA6D6;}
	.st172{fill:#ABB4DD;}
	.st173{fill:#FDECEF;}
	.st174{fill:#137FA0;}
	.st175{fill:#EB6B48;}
	.st176{fill:#F57552;}
	.st177{fill:#515E91;}
	.st178{fill:#5C699E;}
	.st179{fill:#6673AA;}
	.st180{fill:#504484;}
	.st181{fill:#FF5F7E;}
	.st182{fill:#EBCEEB;}
	.st183{fill:#E5BDE5;}
	.st184{fill:#E0ABDF;}
	.st185{fill:#D799D6;}
	.st186{fill:#3B8FA3;}
	.st187{fill:#348B99;}
	.st188{fill:#F7F7F7;}
	.st189{fill:#3AA176;}
	.st190{fill:#84ED82;}
	.st191{fill:#EFEAEA;}
	.st192{fill:#FF9A7E;}
	.st193{fill:#FCD2BE;}
	.st194{fill:#FCDDCF;}
	.st195{fill:#C683C8;}
	.st196{fill:#A55F49;}
	.st197{fill:#FEF5F7;}
</style>
<g>
	<path class="orchid_09" d="M6,20l-1.142,0.761c-1.062,0.708-1.43,2.095-0.86,3.237L4,24h12v-4H6z"/>
	<path class="orchid_10" d="M26,20l1.142,0.761c1.062,0.708,1.43,2.095,0.86,3.237L28,24H16v-4H26z"/>
	<path class="orchid_10" d="M4,24l-3.317,1.658C0.265,25.868,0,26.296,0,26.764v0C0,27.447,0.553,28,1.236,28H16l0-4H4z"/>
	<path class="orchid_11" d="M28,24l3.317,1.658C31.735,25.868,32,26.296,32,26.764v0C32,27.447,31.447,28,30.764,28H16l0-4H28z"/>
	<path class="orchid_08" d="M9,9.167L8.254,11H6.268c-1.462,0-2.899-0.385-4.165-1.116l0,0c-0.478-0.276-1.09-0.112-1.366,0.366v0
		c-0.276,0.478-0.112,1.09,0.366,1.366l0.003,0.001C1.287,11.722,1.213,12,1.003,12H1c-0.552,0-1,0.448-1,1s0.448,1,1,1h0.003
		c0.21,0,0.284,0.278,0.102,0.383l-0.003,0.001c-0.478,0.276-0.642,0.888-0.366,1.366c0.276,0.478,0.888,0.642,1.366,0.366
		C3.369,15.385,4.806,15,6.268,15h0.359l-1.095,2.691c-0.323,0.793-0.139,1.703,0.467,2.309L6,20h10V9.167H9z"/>
	<path class="orchid_09" d="M30.997,14H31c0.552,0,1-0.448,1-1s-0.448-1-1-1h-0.003c-0.21,0-0.284-0.278-0.102-0.383l0.003-0.001
		c0.478-0.276,0.642-0.888,0.366-1.366v0c-0.276-0.478-0.888-0.642-1.366-0.366l0,0C28.631,10.615,27.194,11,25.732,11h-1.986
		L23,9.167h-7V20h10L26,19.999c0.606-0.606,0.79-1.515,0.467-2.309L25.373,15h0.359c1.462,0,2.899,0.385,4.165,1.116
		c0.478,0.276,1.09,0.112,1.366-0.366c0.276-0.478,0.112-1.09-0.366-1.366l-0.003-0.001C30.713,14.278,30.787,14,30.997,14z"/>
	<path class="orchid_06" d="M16,9.167H9C9,9.167,8.625,19,16,19V9.167z"/>
	<path class="orchid_07" d="M16,9.167V19v1.417c0,0.552,0.448,1,1,1s1-0.448,1-1c0-0.932,0.493-1.791,1.291-2.272
		C23.248,15.755,23,9.167,23,9.167H16z"/>
	<path class="grey_16" d="M16,11.667h-4C12,13.876,12,18,16,18V11.667z"/>
	<path class="grey_17" d="M20,11.667h-4V18C20,18,20,13.876,20,11.667z"/>
	<path class="orchid_05" d="M16,2.167c-3.866,0-7,3.134-7,7c0,3.083,7,3,7,3V2.167z"/>
	<path class="orchid_06" d="M23,9.167c0-3.866-3.134-7-7-7v10C16,12.167,23,12.25,23,9.167z"/>
	<circle class="white" cx="11.5" cy="7.5" r="1.5"/>
	<circle class="grey_16" cx="11.75" cy="7.25" r="0.5"/>
	<circle class="grey_01" cx="20.5" cy="7.5" r="1.5"/>
	<circle class="grey_17" cx="20.25" cy="7.25" r="0.5"/>
	<path class="orchid_12" d="M16,13c-0.917-0.5-2.99-0.387-2.965,0.04C13.184,15.569,13.854,17,16,17V13z"/>
	<path class="orchid_13" d="M16,13c0.917-0.5,2.99-0.387,2.965,0.04C18.816,15.569,18.146,17,16,17V13z"/>
</g>
</svg>
