<?xml version="1.0" encoding="utf-8"?>
<!-- Generator: Adobe Illustrator 20.1.0, SVG Export Plug-In . SVG Version: 6.00 Build 0)  -->
<!DOCTYPE svg PUBLIC "-//W3C//DTD SVG 1.1//EN" "http://www.w3.org/Graphics/SVG/1.1/DTD/svg11.dtd">
<svg version="1.1" id="icons" xmlns="http://www.w3.org/2000/svg" xmlns:xlink="http://www.w3.org/1999/xlink" x="0px" y="0px"
	 width="32px" height="32px" viewBox="0 0 32 32" style="enable-background:new 0 0 32 32;" xml:space="preserve">
<style type="text/css">
	.white{fill:#FFFFFF;}
	.grey_01{fill:#F7F7F7;}
	.grey_10{fill:#838C8A;}
	.grey_11{fill:#757F7E;}
	.grey_16{fill:#373F3F;}
	.grey_17{fill:#2B3332;}
	.periwinkle_09{fill:#65A9DC;}
	.periwinkle_10{fill:#5CA3D5;}
	.periwinkle_11{fill:#529CCF;}
	.periwinkle_12{fill:#4896C8;}
	.periwinkle_13{fill:#4390BF;}
	.lemon_02{fill:#FEF1C6;}
	.lemon_03{fill:#FFEAA7;}
	.lemon_05{fill:#FFD96C;}
	.lemon_06{fill:#FFD04D;}
	.lemon_07{fill:#F7C845;}
	.lemon_08{fill:#F0C13E;}
	.lemon_09{fill:#E8BA36;}
	.dirt_15{fill:#96643B;}
	.dirt_16{fill:#8D5B36;}
	.dirt_17{fill:#845331;}
	.st0{fill:#78DF7C;}
	.st1{fill:#54B668;}
	.st2{fill:#7A63AD;}
	.st3{fill:#866EBA;}
	.st4{fill:#D2E6F3;}
	.st5{fill:#C1DDEE;}
	.st6{fill:#E0C193;}
	.st7{fill:#DBBA8C;}
	.st8{fill:#7FB8E0;}
	.st9{fill:#8EC0E0;}
	.st10{fill:#71B1E1;}
	.st11{fill:#9FC9E4;}
	.st12{fill:#FFE28A;}
	.st13{fill:#FF6B8B;}
	.st14{fill:#F4A984;}
	.st15{fill:#EA9C7A;}
	.st16{fill:#E85160;}
	.st17{fill:#D84459;}
	.st18{fill:#E55D53;}
	.st19{fill:#FFD400;}
	.st20{fill:#FF8F00;}
	.st21{fill:#FF4A00;}
	.st22{fill:#F7D684;}
	.st23{fill:#FAE09F;}
	.st24{fill:#FDEBBB;}
	.st25{fill:#FFF3D9;}
	.st26{fill:#9ACC2E;}
	.st27{fill:#AADB3D;}
	.st28{fill:#A2D336;}
	.st29{fill:#93C427;}
	.st30{fill:#F79654;}
	.st31{fill:#FCA15E;}
	.st32{fill:#A9E260;}
	.st33{fill:#97DB4A;}
	.st34{fill:#B1E346;}
	.st35{fill:#FCD8DE;}
	.st36{fill:#CDA073;}
	.st37{fill:#C09265;}
	.st38{fill:#A7794C;}
	.st39{fill:#B38658;}
	.st40{fill:#9E6E43;}
	.st41{fill:#FBCFD6;}
	.st42{fill:#FAC4D1;}
	.st43{fill:#FAB8CD;}
	.st44{fill:#F9ADC8;}
	.st45{fill:#F8A1C4;}
	.st46{fill:#F297BE;}
	.st47{fill:#EA8BB4;}
	.st48{fill:#E0B12E;}
	.st49{fill:#FFC172;}
	.st50{fill:#FFAD68;}
	.st51{fill:#FFB76D;}
	.st52{fill:#6E57A0;}
	.st53{fill:#675099;}
	.st54{fill:#F3586F;}
	.st55{fill:#604893;}
	.st56{fill:#CBEB6B;}
	.st57{fill:#4EAC5D;}
	.st58{fill:#BEE758;}
	.st59{fill:#6CD275;}
	.st60{fill:#48A353;}
	.st61{fill:#60C46F;}
	.st62{fill:#D9F07D;}
	.st63{fill:#E6F490;}
	.st64{fill:#ECCD50;}
	.st65{fill:#FF8D6E;}
	.st66{fill:#FF805D;}
	.st67{fill:#EDEEEE;}
	.st68{fill:#8BC07A;}
	.st69{fill:#9A3644;}
	.st70{fill:#8A323F;}
	.st71{fill:#945BA0;}
	.st72{fill:#A366AD;}
	.st73{fill:#B370B9;}
	.st74{fill:#C27BC6;}
	.st75{fill:#F6B392;}
	.st76{fill:#D285D2;}
	.st77{fill:#DBA728;}
	.st78{fill:#505957;}
	.st79{fill:#56C7CD;}
	.st80{fill:#434C4B;}
	.st81{fill:#687271;}
	.st82{fill:#5C6664;}
	.st83{fill:#51BAC5;}
	.st84{fill:#D64F45;}
	.st85{fill:#D1D4D4;}
	.st86{fill:#E3E5E5;}
	.st87{fill:#DADDDC;}
	.st88{fill:#845194;}
	.st89{fill:#5BD3D5;}
	.st90{fill:#46B080;}
	.st91{fill:#53BF8C;}
	.st92{fill:#6EDCA2;}
	.st93{fill:#7AEBAC;}
	.st94{fill:#60CD96;}
	.st95{fill:#E8803A;}
	.st96{fill:#0A6F8E;}
	.st97{fill:#0F769B;}
	.st98{fill:#EF8C48;}
	.st99{fill:#D1473D;}
	.st100{fill:#9179C6;}
	.st101{fill:#906DBB;}
	.st102{fill:#A78EDD;}
	.st103{fill:#9D85D3;}
	.st104{fill:#E2EFF7;}
	.st105{fill:#B0D3EA;}
	.st106{fill:#F7BC48;}
	.st107{fill:#FFC550;}
	.st108{fill:#FFCF6E;}
	.st109{fill:#F0C13E;}
	.st110{fill:#4CAEBC;}
	.st111{fill:#47A1B4;}
	.st112{fill:#4295AC;}
	.st113{fill:#FDE2E6;}
	.st114{fill:#FEF1C6;}
	.st115{fill:#FFF5D8;}
	.st116{fill:#99533D;}
	.st117{fill:#914C39;}
	.st118{fill:#D4C9EF;}
	.st119{fill:#E3DBF4;}
	.st120{fill:#F1EDFA;}
	.st121{fill:#C6B7E9;}
	.st122{fill:#B8A5E4;}
	.st123{fill:#F0C877;}
	.st124{fill:#E8BA67;}
	.st125{fill:#DDAA5F;}
	.st126{fill:#D4994F;}
	.st127{fill:#C98B44;}
	.st128{fill:#BF7D3C;}
	.st129{fill:#909997;}
	.st130{fill:#757F7E;}
	.st131{fill:#838C8A;}
	.st132{fill:#724D31;}
	.st133{fill:#93C2CA;}
	.st134{fill:#99C7CE;}
	.st135{fill:#9FCCD3;}
	.st136{fill:#ACD7DD;}
	.st137{fill:#B9E2E7;}
	.st138{fill:#A5D1D8;}
	.st139{fill:#88B9C3;}
	.st140{fill:#7EB1BD;}
	.st141{fill:#C8CCCB;}
	.st142{fill:none;}
	.st143{fill:#4F4032;}
	.st144{fill:#604631;}
	.st145{fill:#F9BDA0;}
	.st146{fill:#E7685F;}
	.st147{fill:#C84054;}
	.st148{fill:#ABB2B1;}
	.st149{fill:#9DA5A4;}
	.st150{fill:#FFD96C;}
	.st151{fill:#FFD04D;}
	.st152{fill:#F74000;}
	.st153{fill:#F97C00;}
	.st154{fill:#F9C900;}
	.st155{fill:#EFD4A7;}
	.st156{fill:#EACEA1;}
	.st157{fill:#FCE8CC;}
	.st158{fill:#F5DEB9;}
	.st159{fill:#CFAB81;}
	.st160{fill:#D5B387;}
	.st161{fill:#3A4274;}
	.st162{fill:#707EB7;}
	.st163{fill:#424B7E;}
	.st164{fill:#7C8AC4;}
	.st165{fill:#FFD98D;}
	.st166{fill:#8694D1;}
	.st167{fill:#9AA6D6;}
	.st168{fill:#ABB4DD;}
	.st169{fill:#FDECEF;}
	.st170{fill:#137FA0;}
	.st171{fill:#EB6B48;}
	.st172{fill:#F57552;}
	.st173{fill:#515E91;}
	.st174{fill:#5C699E;}
	.st175{fill:#6673AA;}
	.st176{fill:#504484;}
	.st177{fill:#FF5F7E;}
	.st178{fill:#EBCEEB;}
	.st179{fill:#E5BDE5;}
	.st180{fill:#E0ABDF;}
	.st181{fill:#D799D6;}
	.st182{fill:#3B8FA3;}
	.st183{fill:#348B99;}
	.st184{fill:#F7F7F7;}
	.st185{fill:#3AA176;}
	.st186{fill:#84ED82;}
	.st187{fill:#EFEAEA;}
	.st188{fill:#FF9A7E;}
	.st189{fill:#FCD2BE;}
	.st190{fill:#FCDDCF;}
	.st191{fill:#C683C8;}
	.st192{fill:#A55F49;}
	.st193{fill:#FEF5F7;}
</style>
<g>
	<path class="grey_10" d="M5,9L1.354,5.354c-0.195-0.195-0.195-0.512,0-0.707l2.293-2.293c0.195-0.195,0.512-0.195,0.707,0L8,6L5,9z
		"/>
	<path class="grey_11" d="M27,9l3.646-3.646c0.195-0.195,0.195-0.512,0-0.707l-2.293-2.293c-0.195-0.195-0.512-0.195-0.707,0L24,6
		L27,9z"/>
	<path class="dirt_17" d="M27.293,9.293l-3.586-3.586c-0.391-0.391-1.024-0.391-1.414,0l-0.754,0.754
		c2.047,1.236,3.534,3.184,4.434,5.566l1.32-1.32C27.683,10.317,27.683,9.683,27.293,9.293z"/>
	<path class="dirt_16" d="M10.461,6.461L9.707,5.707c-0.391-0.391-1.024-0.391-1.414,0L4.707,9.293
		c-0.391,0.391-0.391,1.024,0,1.414l1.32,1.32C6.927,9.645,8.415,7.697,10.461,6.461z"/>
	<path class="lemon_03" d="M27,18c0-7.18-3.82-13-11-13v25C23.18,30,27,25.18,27,18z"/>
	<path class="lemon_02" d="M16,5C8.82,5,5,10.82,5,18s3.82,12,11,12V5z"/>
	<path class="lemon_05" d="M16,7.006c-6.643,0-9,5.926-9,11c0,3.735,1.169,10,9,10V7.006z"/>
	<path class="lemon_06" d="M25,18c0-5.074-2.357-11-9-11v21C23.831,28,25,21.735,25,18z"/>
	<path class="periwinkle_09" d="M14.792,1.051C14.527,1.018,14.263,1,14,1l0,0l0,0c0,0-2.891-1.109-3.5-0.5
		c-0.489,0.489,0.129,2.447,0.392,3.2C8.351,8.324,11.628,13,16,13V1.127C15.596,1.127,15.192,1.101,14.792,1.051z"/>
	<path class="periwinkle_10" d="M21.108,3.7c0.263-0.753,0.881-2.711,0.392-3.2C20.891-0.109,18,1,18,1l0,0l0,0
		c-0.262,0-0.527,0.018-0.791,0.051c-0.4,0.051-0.804,0.076-1.208,0.076V13C20.372,13,23.649,8.324,21.108,3.7z"/>
	<path class="lemon_02" d="M10.255,8.732C10.971,11.206,13.29,13,16,13v-3c-1.406,0-2.726-0.363-3.874-1
		C11.437,8.618,10.801,8.614,10.255,8.732z"/>
	<path class="lemon_03" d="M21.743,8.732C21.028,11.206,18.709,13,15.999,13v-3c1.406,0,2.726-0.363,3.874-1
		C20.562,8.618,21.198,8.614,21.743,8.732z"/>
	<path class="lemon_06" d="M16,14H7.514C7.163,15.312,7,16.684,7,18c0,3.735,1.169,10,9,10V14z"/>
	<path class="lemon_07" d="M16,14v14c7.831,0,9-6.265,9-10c0-1.316-0.163-2.688-0.514-4H16z"/>
	<g>
		<path class="white" d="M13.967,7.575c-0.281-0.54-0.902-1.454-2.035-1.882c-0.09-0.034-0.193-0.021-0.27,0.036
			c-0.153,0.112-0.397,0.364-0.569,0.899c-0.176,0.549-0.067,0.97,0.028,1.194C11.168,7.931,11.274,8,11.393,8h2.311
			C13.922,8,14.068,7.769,13.967,7.575z"/>
		<path class="dirt_15" d="M13.967,7.575c-0.26-0.5-0.818-1.317-1.799-1.775c-0.149,0.135-0.342,0.377-0.487,0.828
			c-0.176,0.549-0.067,0.97,0.028,1.194C11.756,7.931,11.862,8,11.981,8h1.723C13.922,8,14.068,7.769,13.967,7.575z"/>
		<path class="grey_16" d="M13.29,7.822c0.092-0.216,0.192-0.621,0.039-1.144c-0.21-0.231-0.456-0.461-0.763-0.656
			c-0.103,0.143-0.208,0.333-0.296,0.607c-0.176,0.549-0.067,0.97,0.028,1.194C12.344,7.931,12.45,8,12.569,8h0.449
			C13.138,8,13.244,7.931,13.29,7.822z"/>
	</g>
	<g>
		<path class="grey_01" d="M18.033,7.575c0.281-0.54,0.902-1.454,2.035-1.882c0.09-0.034,0.193-0.021,0.27,0.036
			c0.153,0.112,0.397,0.364,0.569,0.899c0.176,0.549,0.067,0.97-0.028,1.194C20.832,7.931,20.726,8,20.607,8h-2.311
			C18.078,8,17.932,7.769,18.033,7.575z"/>
		<path class="dirt_16" d="M20.29,7.822c0.095-0.223,0.204-0.645,0.028-1.194c-0.145-0.45-0.337-0.693-0.487-0.828
			c-0.98,0.458-1.538,1.274-1.799,1.775C17.932,7.769,18.078,8,18.296,8h1.723C20.138,8,20.244,7.931,20.29,7.822z"/>
		<path class="grey_17" d="M19.702,7.822c0.095-0.223,0.204-0.645,0.028-1.194c-0.088-0.274-0.193-0.464-0.296-0.607
			c-0.307,0.196-0.553,0.425-0.763,0.656c-0.153,0.524-0.053,0.928,0.039,1.144C18.756,7.931,18.862,8,18.981,8h0.449
			C19.55,8,19.656,7.931,19.702,7.822z"/>
	</g>
	<path class="lemon_07" d="M16,19H7.033C7.249,22.753,8.83,28,16,28V19z"/>
	<path class="lemon_08" d="M16,28c7.17,0,8.751-5.247,8.967-9H16V28z"/>
	<path class="lemon_08" d="M16,24H8.342c1.222,2.222,3.492,4,7.658,4V24z"/>
	<path class="lemon_09" d="M16,28c4.166,0,6.436-1.778,7.658-4H16V28z"/>
	<path class="periwinkle_10" d="M24.497,16.773l-2.032,0.871c-1.657,0.71-3.58,0.34-4.855-0.935l0,0
		c-0.455-0.455-0.368-1.214,0.177-1.555l4.419-2.762c1.31-0.819,3.042-0.253,3.616,1.182l0,0
		C26.322,14.822,25.734,16.242,24.497,16.773z"/>
	<path class="periwinkle_09" d="M7.503,16.773l2.032,0.871c1.657,0.71,3.58,0.34,4.855-0.935l0,0
		c0.455-0.455,0.368-1.214-0.177-1.555l-4.419-2.762c-1.31-0.819-3.042-0.253-3.616,1.182l0,0
		C5.678,14.822,6.266,16.242,7.503,16.773z"/>
	<path class="periwinkle_11" d="M28.578,29.526L27,29l0.474-0.711c0.863-1.295,0.593-3.035-0.622-4.007l-2.471-1.977
		c-0.747,2.346-2.337,4.563-5.579,5.369C18.561,28.427,18.618,29.265,19,30l-0.775,0.743C18.081,30.881,18,31.071,18,31.27
		c0,0.403,0.327,0.73,0.73,0.73H29.5c0.276,0,0.5-0.224,0.5-0.5v-0.001C30,30.604,29.427,29.809,28.578,29.526z"/>
	<path class="periwinkle_10" d="M13,30c0.382-0.735,0.439-1.573,0.198-2.326c-3.242-0.806-4.832-3.023-5.579-5.369l-2.471,1.977
		c-1.215,0.972-1.485,2.712-0.622,4.007L5,29l-1.578,0.526C2.573,29.809,2,30.604,2,31.499V31.5C2,31.776,2.224,32,2.5,32h10.77
		c0.403,0,0.73-0.327,0.73-0.73c0-0.199-0.081-0.389-0.225-0.527L13,30z"/>
	<path class="periwinkle_12" d="M12.88,1.33c-0.513-0.142-1.068-0.263-1.47-0.263c-0.201,0-0.286,0.03-0.299,0.03
		c-0.001,0-0.001,0-0.002,0c-0.121,0.204-0.008,0.983,0.244,1.877C11.632,2.57,12.676,1.452,12.88,1.33z"/>
	<path class="periwinkle_13" d="M20.647,2.975c0.255-0.899,0.372-1.679,0.26-1.863c0,0-0.073-0.045-0.316-0.045
		c-0.402,0-0.957,0.12-1.47,0.263C19.324,1.452,20.368,2.57,20.647,2.975z"/>
</g>
</svg>
