<?xml version="1.0" encoding="utf-8"?>
<!-- Generator: Adobe Illustrator 20.1.0, SVG Export Plug-In . SVG Version: 6.00 Build 0)  -->
<!DOCTYPE svg PUBLIC "-//W3C//DTD SVG 1.1//EN" "http://www.w3.org/Graphics/SVG/1.1/DTD/svg11.dtd">
<svg version="1.1" id="icons" xmlns="http://www.w3.org/2000/svg" xmlns:xlink="http://www.w3.org/1999/xlink" x="0px" y="0px"
	 width="32px" height="32px" viewBox="0 0 32 32" style="enable-background:new 0 0 32 32;" xml:space="preserve">
<style type="text/css">
	.white{fill:#FFFFFF;}
	.grey_01{fill:#F7F7F7;}
	.grey_16{fill:#373F3F;}
	.grey_17{fill:#2B3332;}
	.orchid_09{fill:#866EBA;}
	.orchid_10{fill:#7A63AD;}
	.orchid_11{fill:#6E57A0;}
	.orchid_12{fill:#675099;}
	.salmon_05{fill:#F6B392;}
	.salmon_06{fill:#F4A984;}
	.st0{fill:#78DF7C;}
	.st1{fill:#54B668;}
	.st2{fill:#D2E6F3;}
	.st3{fill:#C1DDEE;}
	.st4{fill:#E0C193;}
	.st5{fill:#DBBA8C;}
	.st6{fill:#7FB8E0;}
	.st7{fill:#8EC0E0;}
	.st8{fill:#71B1E1;}
	.st9{fill:#9FC9E4;}
	.st10{fill:#FFEAA7;}
	.st11{fill:#FFE28A;}
	.st12{fill:#FF6B8B;}
	.st13{fill:#EA9C7A;}
	.st14{fill:#FEF1C6;}
	.st15{fill:#E85160;}
	.st16{fill:#D84459;}
	.st17{fill:#E55D53;}
	.st18{fill:#FFD400;}
	.st19{fill:#FF8F00;}
	.st20{fill:#FF4A00;}
	.st21{fill:#F7D684;}
	.st22{fill:#FAE09F;}
	.st23{fill:#FDEBBB;}
	.st24{fill:#FFF3D9;}
	.st25{fill:#FFD96C;}
	.st26{fill:#9ACC2E;}
	.st27{fill:#AADB3D;}
	.st28{fill:#A2D336;}
	.st29{fill:#93C427;}
	.st30{fill:#F79654;}
	.st31{fill:#FFD04D;}
	.st32{fill:#FCA15E;}
	.st33{fill:#A9E260;}
	.st34{fill:#97DB4A;}
	.st35{fill:#B1E346;}
	.st36{fill:#FCD8DE;}
	.st37{fill:#CDA073;}
	.st38{fill:#C09265;}
	.st39{fill:#A7794C;}
	.st40{fill:#96643B;}
	.st41{fill:#845331;}
	.st42{fill:#B38658;}
	.st43{fill:#9E6E43;}
	.st44{fill:#8D5B36;}
	.st45{fill:#FBCFD6;}
	.st46{fill:#FAC4D1;}
	.st47{fill:#FAB8CD;}
	.st48{fill:#F9ADC8;}
	.st49{fill:#F8A1C4;}
	.st50{fill:#F297BE;}
	.st51{fill:#EA8BB4;}
	.st52{fill:#E8BA36;}
	.st53{fill:#E0B12E;}
	.st54{fill:#FFC172;}
	.st55{fill:#FFAD68;}
	.st56{fill:#FFB76D;}
	.st57{fill:#F3586F;}
	.st58{fill:#604893;}
	.st59{fill:#CBEB6B;}
	.st60{fill:#4EAC5D;}
	.st61{fill:#BEE758;}
	.st62{fill:#6CD275;}
	.st63{fill:#48A353;}
	.st64{fill:#60C46F;}
	.st65{fill:#D9F07D;}
	.st66{fill:#E6F490;}
	.st67{fill:#4896C8;}
	.st68{fill:#4390BF;}
	.st69{fill:#5CA3D5;}
	.st70{fill:#529CCF;}
	.st71{fill:#F7C845;}
	.st72{fill:#ECCD50;}
	.st73{fill:#FF8D6E;}
	.st74{fill:#FF805D;}
	.st75{fill:#EDEEEE;}
	.st76{fill:#65A9DC;}
	.st77{fill:#8BC07A;}
	.st78{fill:#F0C13E;}
	.st79{fill:#9A3644;}
	.st80{fill:#8A323F;}
	.st81{fill:#945BA0;}
	.st82{fill:#A366AD;}
	.st83{fill:#B370B9;}
	.st84{fill:#C27BC6;}
	.st85{fill:#D285D2;}
	.st86{fill:#DBA728;}
	.st87{fill:#505957;}
	.st88{fill:#56C7CD;}
	.st89{fill:#434C4B;}
	.st90{fill:#687271;}
	.st91{fill:#5C6664;}
	.st92{fill:#51BAC5;}
	.st93{fill:#D64F45;}
	.st94{fill:#D1D4D4;}
	.st95{fill:#E3E5E5;}
	.st96{fill:#DADDDC;}
	.st97{fill:#845194;}
	.st98{fill:#5BD3D5;}
	.st99{fill:#46B080;}
	.st100{fill:#53BF8C;}
	.st101{fill:#6EDCA2;}
	.st102{fill:#7AEBAC;}
	.st103{fill:#60CD96;}
	.st104{fill:#E8803A;}
	.st105{fill:#0A6F8E;}
	.st106{fill:#0F769B;}
	.st107{fill:#EF8C48;}
	.st108{fill:#838C8A;}
	.st109{fill:#757F7E;}
	.st110{fill:#D1473D;}
	.st111{fill:#9179C6;}
	.st112{fill:#906DBB;}
	.st113{fill:#A78EDD;}
	.st114{fill:#9D85D3;}
	.st115{fill:#E2EFF7;}
	.st116{fill:#B0D3EA;}
	.st117{fill:#F7BC48;}
	.st118{fill:#FFC550;}
	.st119{fill:#FFCF6E;}
	.st120{fill:#4CAEBC;}
	.st121{fill:#47A1B4;}
	.st122{fill:#4295AC;}
	.st123{fill:#FDE2E6;}
	.st124{fill:#FFF5D8;}
	.st125{fill:#99533D;}
	.st126{fill:#914C39;}
	.st127{fill:#D4C9EF;}
	.st128{fill:#E3DBF4;}
	.st129{fill:#F1EDFA;}
	.st130{fill:#C6B7E9;}
	.st131{fill:#B8A5E4;}
	.st132{fill:#F0C877;}
	.st133{fill:#E8BA67;}
	.st134{fill:#DDAA5F;}
	.st135{fill:#D4994F;}
	.st136{fill:#C98B44;}
	.st137{fill:#BF7D3C;}
	.st138{fill:#909997;}
	.st139{fill:#724D31;}
	.st140{fill:#93C2CA;}
	.st141{fill:#99C7CE;}
	.st142{fill:#9FCCD3;}
	.st143{fill:#ACD7DD;}
	.st144{fill:#B9E2E7;}
	.st145{fill:#A5D1D8;}
	.st146{fill:#88B9C3;}
	.st147{fill:#7EB1BD;}
	.st148{fill:#C8CCCB;}
	.st149{fill:none;}
	.st150{fill:#4F4032;}
	.st151{fill:#604631;}
	.st152{fill:#F9BDA0;}
	.st153{fill:#7A63AD;}
	.st154{fill:#6E57A0;}
	.st155{fill:#E7685F;}
	.st156{fill:#C84054;}
	.st157{fill:#ABB2B1;}
	.st158{fill:#9DA5A4;}
	.st159{fill:#F74000;}
	.st160{fill:#F97C00;}
	.st161{fill:#F9C900;}
	.st162{fill:#EFD4A7;}
	.st163{fill:#EACEA1;}
	.st164{fill:#FCE8CC;}
	.st165{fill:#F5DEB9;}
	.st166{fill:#CFAB81;}
	.st167{fill:#D5B387;}
	.st168{fill:#3A4274;}
	.st169{fill:#707EB7;}
	.st170{fill:#424B7E;}
	.st171{fill:#7C8AC4;}
	.st172{fill:#FFD98D;}
	.st173{fill:#8694D1;}
	.st174{fill:#9AA6D6;}
	.st175{fill:#ABB4DD;}
	.st176{fill:#FDECEF;}
	.st177{fill:#137FA0;}
	.st178{fill:#EB6B48;}
	.st179{fill:#F57552;}
	.st180{fill:#515E91;}
	.st181{fill:#5C699E;}
	.st182{fill:#6673AA;}
	.st183{fill:#504484;}
	.st184{fill:#FF5F7E;}
	.st185{fill:#EBCEEB;}
	.st186{fill:#E5BDE5;}
	.st187{fill:#E0ABDF;}
	.st188{fill:#D799D6;}
	.st189{fill:#3B8FA3;}
	.st190{fill:#348B99;}
	.st191{fill:#F7F7F7;}
	.st192{fill:#3AA176;}
	.st193{fill:#84ED82;}
	.st194{fill:#EFEAEA;}
	.st195{fill:#FF9A7E;}
	.st196{fill:#FCD2BE;}
	.st197{fill:#FCDDCF;}
	.st198{fill:#C683C8;}
	.st199{fill:#A55F49;}
	.st200{fill:#FEF5F7;}
</style>
<g>
	<path class="orchid_12" d="M25.497,22.195l2.349,4.697c0.36,0.72,0.068,1.594-0.651,1.954h0c-0.436,0.218-0.951,0.203-1.374-0.038
		l-6.323-3.613L25.497,22.195z"/>
	<path class="orchid_11" d="M6.503,22.195l-2.349,4.697c-0.36,0.72-0.068,1.594,0.651,1.954h0c0.436,0.218,0.951,0.203,1.374-0.038
		l6.323-3.613L6.503,22.195z"/>
	<path class="orchid_11" d="M16,17h9.921c1.251,0,2.37,0.776,2.809,1.947l2.017,5.378c0.154,0.411,0.054,0.875-0.257,1.185
		l-0.001,0.001c-0.3,0.3-0.744,0.405-1.146,0.271l-2.218-0.739c-1.597-0.532-3.319-0.326-4.813,0.451C20.479,26.446,18.317,27,16,27
		V17z"/>
	<path class="orchid_10" d="M16,17H6.079c-1.251,0-2.37,0.776-2.809,1.947l-2.017,5.378c-0.154,0.411-0.054,0.875,0.257,1.185
		l0.001,0.001c0.3,0.3,0.744,0.405,1.146,0.271l2.218-0.739c1.597-0.532,3.319-0.326,4.813,0.451C11.521,26.446,13.683,27,16,27V17z
		"/>
	<path class="grey_16" d="M16,8C9.925,8,5,12.029,5,17c0,4.971,4.925,9,11,9V8z"/>
	<path class="grey_17" d="M27,17c0-4.971-4.925-9-11-9v18C22.075,26,27,21.971,27,17z"/>
	<path class="orchid_09" d="M6.578,7.664L1.463,5.107C1.075,4.912,0.605,4.988,0.298,5.296L0.296,5.298
		C0.004,5.59-0.081,6.03,0.082,6.41l2.353,5.489c-0.465,0.791-0.837,1.623-1.079,2.497c-0.126,0.455,0.408,0.796,0.786,0.515
		C5.339,12.535,10.35,11,16,11V5C12.43,5,9.153,5.999,6.578,7.664z"/>
	<path class="orchid_12" d="M31.704,5.298l-0.002-0.002c-0.307-0.307-0.777-0.384-1.166-0.189l-5.115,2.557
		C22.847,5.999,19.57,5,16,5v6c5.65,0,10.661,1.535,13.858,3.911c0.379,0.281,0.912-0.06,0.786-0.515
		c-0.242-0.874-0.613-1.706-1.079-2.497l2.353-5.489C32.081,6.03,31.996,5.59,31.704,5.298z"/>
	<path class="orchid_10" d="M8,6.86v5.255C10.397,11.405,13.113,11,16,11V5C13.056,5,10.317,5.687,8,6.86z"/>
	<path class="orchid_11" d="M24,6.86v5.255C21.603,11.405,18.887,11,16,11V5C18.944,5,21.683,5.687,24,6.86z"/>
	<circle class="white" cx="10.5" cy="16.5" r="3.5"/>
	<circle class="grey_16" cx="10.5" cy="16.5" r="0.5"/>
	<circle class="grey_01" cx="21.5" cy="16.5" r="3.5"/>
	<circle class="grey_17" cx="21.5" cy="16.5" r="0.5"/>
	<path class="salmon_05" d="M16,29.513V21h-1.022c-1.2,0-2.285,0.715-2.757,1.818l-0.911,2.126
		c-0.705,1.645,0.146,3.541,1.844,4.107v0C14.078,29.359,15.039,29.513,16,29.513z"/>
	<path class="salmon_06" d="M19.779,22.818C19.307,21.715,18.222,21,17.022,21H16v8.513c0.961,0,1.922-0.154,2.846-0.462v0
		c1.698-0.566,2.549-2.462,1.844-4.107L19.779,22.818z"/>
</g>
</svg>
