<?xml version="1.0" encoding="utf-8"?>
<!-- Generator: Adobe Illustrator 20.1.0, SVG Export Plug-In . SVG Version: 6.00 Build 0)  -->
<!DOCTYPE svg PUBLIC "-//W3C//DTD SVG 1.1//EN" "http://www.w3.org/Graphics/SVG/1.1/DTD/svg11.dtd">
<svg version="1.1" id="icons" xmlns="http://www.w3.org/2000/svg" xmlns:xlink="http://www.w3.org/1999/xlink" x="0px" y="0px"
	 width="32px" height="32px" viewBox="0 0 32 32" style="enable-background:new 0 0 32 32;" xml:space="preserve">
<style type="text/css">
	.white{fill:#FFFFFF;}
	.grey_02{fill:#EDEEEE;}
	.grey_16{fill:#373F3F;}
	.grey_17{fill:#2B3332;}
	.orchid_07{fill:#9D85D3;}
	.orchid_08{fill:#9179C6;}
	.orchid_09{fill:#866EBA;}
	.orchid_10{fill:#7A63AD;}
	.orchid_11{fill:#6E57A0;}
	.orchid_12{fill:#675099;}
	.orchid_13{fill:#604893;}
	.st0{fill:#78DF7C;}
	.st1{fill:#54B668;}
	.st2{fill:#D2E6F3;}
	.st3{fill:#C1DDEE;}
	.st4{fill:#E0C193;}
	.st5{fill:#DBBA8C;}
	.st6{fill:#7FB8E0;}
	.st7{fill:#8EC0E0;}
	.st8{fill:#71B1E1;}
	.st9{fill:#9FC9E4;}
	.st10{fill:#FFEAA7;}
	.st11{fill:#FFE28A;}
	.st12{fill:#FF6B8B;}
	.st13{fill:#F4A984;}
	.st14{fill:#EA9C7A;}
	.st15{fill:#FEF1C6;}
	.st16{fill:#E85160;}
	.st17{fill:#D84459;}
	.st18{fill:#F7F7F7;}
	.st19{fill:#E55D53;}
	.st20{fill:#FFD400;}
	.st21{fill:#FF8F00;}
	.st22{fill:#FF4A00;}
	.st23{fill:#F7D684;}
	.st24{fill:#FAE09F;}
	.st25{fill:#FDEBBB;}
	.st26{fill:#FFF3D9;}
	.st27{fill:#FFD96C;}
	.st28{fill:#9ACC2E;}
	.st29{fill:#AADB3D;}
	.st30{fill:#A2D336;}
	.st31{fill:#93C427;}
	.st32{fill:#F79654;}
	.st33{fill:#FFD04D;}
	.st34{fill:#FCA15E;}
	.st35{fill:#A9E260;}
	.st36{fill:#97DB4A;}
	.st37{fill:#B1E346;}
	.st38{fill:#FCD8DE;}
	.st39{fill:#CDA073;}
	.st40{fill:#C09265;}
	.st41{fill:#A7794C;}
	.st42{fill:#96643B;}
	.st43{fill:#845331;}
	.st44{fill:#B38658;}
	.st45{fill:#9E6E43;}
	.st46{fill:#8D5B36;}
	.st47{fill:#FBCFD6;}
	.st48{fill:#FAC4D1;}
	.st49{fill:#FAB8CD;}
	.st50{fill:#F9ADC8;}
	.st51{fill:#F8A1C4;}
	.st52{fill:#F297BE;}
	.st53{fill:#EA8BB4;}
	.st54{fill:#E8BA36;}
	.st55{fill:#E0B12E;}
	.st56{fill:#FFC172;}
	.st57{fill:#FFAD68;}
	.st58{fill:#FFB76D;}
	.st59{fill:#F3586F;}
	.st60{fill:#CBEB6B;}
	.st61{fill:#4EAC5D;}
	.st62{fill:#BEE758;}
	.st63{fill:#6CD275;}
	.st64{fill:#48A353;}
	.st65{fill:#60C46F;}
	.st66{fill:#D9F07D;}
	.st67{fill:#E6F490;}
	.st68{fill:#4896C8;}
	.st69{fill:#4390BF;}
	.st70{fill:#5CA3D5;}
	.st71{fill:#529CCF;}
	.st72{fill:#F7C845;}
	.st73{fill:#ECCD50;}
	.st74{fill:#FF8D6E;}
	.st75{fill:#FF805D;}
	.st76{fill:#65A9DC;}
	.st77{fill:#8BC07A;}
	.st78{fill:#F0C13E;}
	.st79{fill:#9A3644;}
	.st80{fill:#8A323F;}
	.st81{fill:#945BA0;}
	.st82{fill:#A366AD;}
	.st83{fill:#B370B9;}
	.st84{fill:#C27BC6;}
	.st85{fill:#F6B392;}
	.st86{fill:#D285D2;}
	.st87{fill:#DBA728;}
	.st88{fill:#505957;}
	.st89{fill:#56C7CD;}
	.st90{fill:#434C4B;}
	.st91{fill:#687271;}
	.st92{fill:#5C6664;}
	.st93{fill:#51BAC5;}
	.st94{fill:#D64F45;}
	.st95{fill:#D1D4D4;}
	.st96{fill:#E3E5E5;}
	.st97{fill:#DADDDC;}
	.st98{fill:#845194;}
	.st99{fill:#5BD3D5;}
	.st100{fill:#46B080;}
	.st101{fill:#53BF8C;}
	.st102{fill:#6EDCA2;}
	.st103{fill:#7AEBAC;}
	.st104{fill:#60CD96;}
	.st105{fill:#E8803A;}
	.st106{fill:#0A6F8E;}
	.st107{fill:#0F769B;}
	.st108{fill:#EF8C48;}
	.st109{fill:#838C8A;}
	.st110{fill:#757F7E;}
	.st111{fill:#D1473D;}
	.st112{fill:#906DBB;}
	.st113{fill:#A78EDD;}
	.st114{fill:#E2EFF7;}
	.st115{fill:#B0D3EA;}
	.st116{fill:#F7BC48;}
	.st117{fill:#FFC550;}
	.st118{fill:#FFCF6E;}
	.st119{fill:#4CAEBC;}
	.st120{fill:#47A1B4;}
	.st121{fill:#4295AC;}
	.st122{fill:#FDE2E6;}
	.st123{fill:#FFF5D8;}
	.st124{fill:#99533D;}
	.st125{fill:#914C39;}
	.st126{fill:#D4C9EF;}
	.st127{fill:#E3DBF4;}
	.st128{fill:#F1EDFA;}
	.st129{fill:#C6B7E9;}
	.st130{fill:#B8A5E4;}
	.st131{fill:#F0C877;}
	.st132{fill:#E8BA67;}
	.st133{fill:#DDAA5F;}
	.st134{fill:#D4994F;}
	.st135{fill:#C98B44;}
	.st136{fill:#BF7D3C;}
	.st137{fill:#909997;}
	.st138{fill:#724D31;}
	.st139{fill:#93C2CA;}
	.st140{fill:#99C7CE;}
	.st141{fill:#9FCCD3;}
	.st142{fill:#ACD7DD;}
	.st143{fill:#B9E2E7;}
	.st144{fill:#A5D1D8;}
	.st145{fill:#88B9C3;}
	.st146{fill:#7EB1BD;}
	.st147{fill:#C8CCCB;}
	.st148{fill:none;}
	.st149{fill:#4F4032;}
	.st150{fill:#604631;}
	.st151{fill:#F9BDA0;}
	.st152{fill:#7A63AD;}
	.st153{fill:#6E57A0;}
	.st154{fill:#E7685F;}
	.st155{fill:#C84054;}
	.st156{fill:#ABB2B1;}
	.st157{fill:#9DA5A4;}
	.st158{fill:#F74000;}
	.st159{fill:#F97C00;}
	.st160{fill:#F9C900;}
	.st161{fill:#EFD4A7;}
	.st162{fill:#EACEA1;}
	.st163{fill:#FCE8CC;}
	.st164{fill:#F5DEB9;}
	.st165{fill:#CFAB81;}
	.st166{fill:#D5B387;}
	.st167{fill:#3A4274;}
	.st168{fill:#707EB7;}
	.st169{fill:#424B7E;}
	.st170{fill:#7C8AC4;}
	.st171{fill:#FFD98D;}
	.st172{fill:#8694D1;}
	.st173{fill:#9AA6D6;}
	.st174{fill:#ABB4DD;}
	.st175{fill:#FDECEF;}
	.st176{fill:#137FA0;}
	.st177{fill:#EB6B48;}
	.st178{fill:#F57552;}
	.st179{fill:#515E91;}
	.st180{fill:#5C699E;}
	.st181{fill:#6673AA;}
	.st182{fill:#504484;}
	.st183{fill:#FF5F7E;}
	.st184{fill:#EBCEEB;}
	.st185{fill:#E5BDE5;}
	.st186{fill:#E0ABDF;}
	.st187{fill:#D799D6;}
	.st188{fill:#3B8FA3;}
	.st189{fill:#348B99;}
	.st190{fill:#3AA176;}
	.st191{fill:#84ED82;}
	.st192{fill:#EFEAEA;}
	.st193{fill:#FF9A7E;}
	.st194{fill:#FCD2BE;}
	.st195{fill:#FCDDCF;}
	.st196{fill:#C683C8;}
	.st197{fill:#A55F49;}
	.st198{fill:#FEF5F7;}
</style>
<g>
	<g>
		<path class="orchid_13" d="M20,30L20,30c-1.249,0-2.416-0.624-3.109-1.664L16,27V13l1.586-5.549C17.831,6.592,18.616,6,19.509,6
			H20h0.5v3.207l1.849,1.849l-1.197,1.696c0,0,2.344,1.79,2.344,5.248s-2.344,5.248-2.344,5.248l1.197,1.696L20.5,26.793V30H20z"/>
		<path class="orchid_09" d="M20.998,6l2,2l2.5-0.5l-0.532-0.532c-0.235-0.235-0.18-0.629,0.11-0.79l6.55-3.647
			c0.22-0.122,0.462,0.12,0.34,0.34l-3.647,6.55c-0.161,0.29-0.556,0.345-0.79,0.11L26.998,9l-2,3l1.709,0.19
			c0.337,0.037,0.632,0.243,0.784,0.547l0.487,0.975c0.166,0.331,0.135,0.727-0.081,1.028l-0.9,1.26v1l4.51,0.902
			c0.285,0.057,0.49,0.307,0.49,0.598l0,0c0,0.291-0.205,0.541-0.49,0.598L26.998,20v1l0.9,1.26
			c0.215,0.301,0.246,0.697,0.081,1.028l-0.487,0.975c-0.152,0.303-0.447,0.509-0.784,0.547L24.998,25v1l2.576,3.434
			c0.243,0.325,0.211,0.779-0.076,1.066l0,0c-0.287,0.287-0.741,0.319-1.066,0.076L22.998,28l-2,2h-0.5v-2.793l2.151-2.151
			l-1.203-1.705c0,0,2.048-2.936,2.048-5.351s-1.548-5.351-1.548-5.351l0.703-1.705l-2.151-2.151V6H20.998z"/>
		<path class="orchid_08" d="M20,30h1v-2.379c0-0.265,0.105-0.52,0.293-0.707l1.263-1.263c0.344-0.344,0.391-0.886,0.11-1.284
			l-0.718-1.017c2.73-3.033,2.73-7.668,0-10.701l0.718-1.017c0.281-0.398,0.234-0.94-0.11-1.284l-1.263-1.263
			C21.105,8.898,21,8.644,21,8.379V6h-1v2.379c0,0.53,0.211,1.039,0.586,1.414l1.263,1.263l-0.954,1.352
			c-0.14,0.199-0.117,0.47,0.055,0.642l0,0c2.734,2.734,2.734,7.166,0,9.9l0,0c-0.172,0.172-0.195,0.443-0.055,0.642l0.954,1.352
			l-1.263,1.263C20.211,26.582,20,27.091,20,27.621V30z"/>
	</g>
	<path class="orchid_12" d="M12,30L12,30c1.249,0,2.416-0.624,3.109-1.664L16,27V13l-1.586-5.549C14.169,6.592,13.384,6,12.491,6H12
		h-0.5v3.207l-1.849,1.849l1.197,1.696c0,0-2.344,1.79-2.344,5.248s2.344,5.248,2.344,5.248l-1.197,1.696l1.849,1.849V30H12z"/>
	<path class="orchid_08" d="M11.002,6l-2,2l-2.5-0.5l0.532-0.532c0.235-0.235,0.18-0.629-0.11-0.79l-6.55-3.647
		c-0.22-0.122-0.462,0.12-0.34,0.34l3.647,6.55c0.161,0.29,0.556,0.345,0.79,0.11L5.002,9l2,3l-1.709,0.19
		c-0.337,0.037-0.632,0.243-0.784,0.547l-0.487,0.975c-0.166,0.331-0.135,0.727,0.081,1.028l0.9,1.26v1l-4.51,0.902
		c-0.285,0.057-0.49,0.307-0.49,0.598l0,0c0,0.291,0.205,0.541,0.49,0.598L5.002,20v1l-0.9,1.26
		c-0.215,0.301-0.246,0.697-0.081,1.028l0.487,0.975c0.152,0.303,0.447,0.509,0.784,0.547L7.002,25v1l-2.576,3.434
		c-0.243,0.325-0.211,0.779,0.076,1.066h0c0.287,0.287,0.741,0.319,1.066,0.076L9.002,28l2,2h0.5v-2.793L9.35,25.056l1.203-1.705
		c0,0-2.048-2.936-2.048-5.351s1.548-5.351,1.548-5.351L9.35,10.944l2.151-2.151V6H11.002z"/>
	<path class="orchid_10" d="M15.521,6.596l-1.269,4.229c-0.26,0.866-0.772,1.658-1.529,2.153C11.084,14.048,10,15.896,10,18
		c0,3.314,2.686,6,6,6v-9v-3V6.24C15.796,6.24,15.592,6.359,15.521,6.596z"/>
	<path class="orchid_11" d="M19.277,12.978c-0.757-0.494-1.27-1.287-1.529-2.153l-1.269-4.229C16.408,6.359,16.204,6.24,16,6.24V12
		v3v9c3.314,0,6-2.686,6-6C22,15.896,20.916,14.048,19.277,12.978z"/>
	<path class="grey_16" d="M16,13c-2.761,0-5,2.239-5,5s2.239,5,5,5V13z"/>
	<path class="grey_17" d="M21,18c0-2.761-2.239-5-5-5v10C18.761,23,21,20.761,21,18z"/>
	<g>
		<path class="white" d="M15.221,18.221c0.104,0.104,0.103,0.285-0.014,0.374c-0.784,0.595-1.906,0.535-2.621-0.181
			c-0.715-0.715-0.776-1.838-0.181-2.621c0.089-0.117,0.27-0.117,0.374-0.014L15.221,18.221z"/>
		<path class="grey_16" d="M14.472,17.472l-0.945-0.945C13.511,16.677,13.5,16.834,13.5,17c0,0.828,0.224,1.5,0.5,1.5
			C14.221,18.5,14.406,18.068,14.472,17.472z"/>
	</g>
	<g>
		<path class="grey_02" d="M16.779,18.221c-0.104,0.104-0.103,0.285,0.014,0.374c0.784,0.595,1.906,0.535,2.621-0.181
			s0.776-1.838,0.181-2.621c-0.089-0.117-0.27-0.117-0.374-0.014L16.779,18.221z"/>
		<path class="grey_17" d="M17.528,17.472l0.945-0.945C18.489,16.677,18.5,16.834,18.5,17c0,0.828-0.224,1.5-0.5,1.5
			C17.779,18.5,17.594,18.068,17.528,17.472z"/>
	</g>
	<path class="white" d="M16,21c-0.722,0-1.201-0.103-1.509-0.216c-0.214-0.078-0.422,0.143-0.314,0.344
		C14.397,21.538,14.891,22,16,22V21z"/>
	<path class="grey_02" d="M17.509,20.784C17.201,20.897,16.722,21,16,21v1c1.109,0,1.603-0.462,1.823-0.873
		C17.931,20.927,17.723,20.705,17.509,20.784z"/>
	<path class="orchid_07" d="M12,30h-1v-2.379c0-0.265-0.105-0.52-0.293-0.707l-1.263-1.263c-0.344-0.344-0.391-0.886-0.11-1.284
		l0.718-1.017c-2.73-3.033-2.73-7.668,0-10.701l-0.718-1.017c-0.281-0.398-0.234-0.94,0.11-1.284l1.263-1.263
		C10.895,8.898,11,8.644,11,8.379V6h1v2.379c0,0.53-0.211,1.039-0.586,1.414l-1.263,1.263l0.954,1.352
		c0.14,0.199,0.117,0.47-0.055,0.642l0,0c-2.734,2.734-2.734,7.166,0,9.9l0,0c0.172,0.172,0.195,0.443,0.055,0.642l-0.954,1.352
		l1.263,1.263C11.789,26.582,12,27.091,12,27.621V30z"/>
</g>
</svg>
