<?xml version="1.0" encoding="utf-8"?>
<!-- Generator: Adobe Illustrator 20.1.0, SVG Export Plug-In . SVG Version: 6.00 Build 0)  -->
<!DOCTYPE svg PUBLIC "-//W3C//DTD SVG 1.1//EN" "http://www.w3.org/Graphics/SVG/1.1/DTD/svg11.dtd">
<svg version="1.1" id="icons" xmlns="http://www.w3.org/2000/svg" xmlns:xlink="http://www.w3.org/1999/xlink" x="0px" y="0px"
	 width="32px" height="32px" viewBox="0 0 32 32" style="enable-background:new 0 0 32 32;" xml:space="preserve">
<style type="text/css">
	.white{fill:#FFFFFF;}
	.grey_01{fill:#F7F7F7;}
	.grey_16{fill:#373F3F;}
	.grey_17{fill:#2B3332;}
	.orchid_12{fill:#675099;}
	.salmon_06{fill:#F4A984;}
	.salmon_07{fill:#EA9C7A;}
	.st0{fill:#78DF7C;}
	.st1{fill:#54B668;}
	.st2{fill:#7A63AD;}
	.st3{fill:#866EBA;}
	.st4{fill:#D2E6F3;}
	.st5{fill:#C1DDEE;}
	.st6{fill:#E0C193;}
	.st7{fill:#DBBA8C;}
	.st8{fill:#7FB8E0;}
	.st9{fill:#8EC0E0;}
	.st10{fill:#71B1E1;}
	.st11{fill:#9FC9E4;}
	.st12{fill:#FFEAA7;}
	.st13{fill:#FFE28A;}
	.st14{fill:#FF6B8B;}
	.st15{fill:#FEF1C6;}
	.st16{fill:#E85160;}
	.st17{fill:#D84459;}
	.st18{fill:#E55D53;}
	.st19{fill:#FFD400;}
	.st20{fill:#FF8F00;}
	.st21{fill:#FF4A00;}
	.st22{fill:#F7D684;}
	.st23{fill:#FAE09F;}
	.st24{fill:#FDEBBB;}
	.st25{fill:#FFF3D9;}
	.st26{fill:#FFD96C;}
	.st27{fill:#9ACC2E;}
	.st28{fill:#AADB3D;}
	.st29{fill:#A2D336;}
	.st30{fill:#93C427;}
	.st31{fill:#F79654;}
	.st32{fill:#FFD04D;}
	.st33{fill:#FCA15E;}
	.st34{fill:#A9E260;}
	.st35{fill:#97DB4A;}
	.st36{fill:#B1E346;}
	.st37{fill:#FCD8DE;}
	.st38{fill:#CDA073;}
	.st39{fill:#C09265;}
	.st40{fill:#A7794C;}
	.st41{fill:#96643B;}
	.st42{fill:#845331;}
	.st43{fill:#B38658;}
	.st44{fill:#9E6E43;}
	.st45{fill:#8D5B36;}
	.st46{fill:#FBCFD6;}
	.st47{fill:#FAC4D1;}
	.st48{fill:#FAB8CD;}
	.st49{fill:#F9ADC8;}
	.st50{fill:#F8A1C4;}
	.st51{fill:#F297BE;}
	.st52{fill:#EA8BB4;}
	.st53{fill:#E8BA36;}
	.st54{fill:#E0B12E;}
	.st55{fill:#FFC172;}
	.st56{fill:#FFAD68;}
	.st57{fill:#FFB76D;}
	.st58{fill:#6E57A0;}
	.st59{fill:#F3586F;}
	.st60{fill:#604893;}
	.st61{fill:#CBEB6B;}
	.st62{fill:#4EAC5D;}
	.st63{fill:#BEE758;}
	.st64{fill:#6CD275;}
	.st65{fill:#48A353;}
	.st66{fill:#60C46F;}
	.st67{fill:#D9F07D;}
	.st68{fill:#E6F490;}
	.st69{fill:#4896C8;}
	.st70{fill:#4390BF;}
	.st71{fill:#5CA3D5;}
	.st72{fill:#529CCF;}
	.st73{fill:#F7C845;}
	.st74{fill:#ECCD50;}
	.st75{fill:#FF8D6E;}
	.st76{fill:#FF805D;}
	.st77{fill:#EDEEEE;}
	.st78{fill:#65A9DC;}
	.st79{fill:#8BC07A;}
	.st80{fill:#F0C13E;}
	.st81{fill:#9A3644;}
	.st82{fill:#8A323F;}
	.st83{fill:#945BA0;}
	.st84{fill:#A366AD;}
	.st85{fill:#B370B9;}
	.st86{fill:#C27BC6;}
	.st87{fill:#F6B392;}
	.st88{fill:#D285D2;}
	.st89{fill:#DBA728;}
	.st90{fill:#505957;}
	.st91{fill:#56C7CD;}
	.st92{fill:#434C4B;}
	.st93{fill:#687271;}
	.st94{fill:#5C6664;}
	.st95{fill:#51BAC5;}
	.st96{fill:#D64F45;}
	.st97{fill:#D1D4D4;}
	.st98{fill:#E3E5E5;}
	.st99{fill:#DADDDC;}
	.st100{fill:#845194;}
	.st101{fill:#5BD3D5;}
	.st102{fill:#46B080;}
	.st103{fill:#53BF8C;}
	.st104{fill:#6EDCA2;}
	.st105{fill:#7AEBAC;}
	.st106{fill:#60CD96;}
	.st107{fill:#E8803A;}
	.st108{fill:#0A6F8E;}
	.st109{fill:#0F769B;}
	.st110{fill:#EF8C48;}
	.st111{fill:#838C8A;}
	.st112{fill:#757F7E;}
	.st113{fill:#D1473D;}
	.st114{fill:#9179C6;}
	.st115{fill:#906DBB;}
	.st116{fill:#A78EDD;}
	.st117{fill:#9D85D3;}
	.st118{fill:#E2EFF7;}
	.st119{fill:#B0D3EA;}
	.st120{fill:#F7BC48;}
	.st121{fill:#FFC550;}
	.st122{fill:#FFCF6E;}
	.st123{fill:#4CAEBC;}
	.st124{fill:#47A1B4;}
	.st125{fill:#4295AC;}
	.st126{fill:#FDE2E6;}
	.st127{fill:#FFF5D8;}
	.st128{fill:#99533D;}
	.st129{fill:#914C39;}
	.st130{fill:#D4C9EF;}
	.st131{fill:#E3DBF4;}
	.st132{fill:#F1EDFA;}
	.st133{fill:#C6B7E9;}
	.st134{fill:#B8A5E4;}
	.st135{fill:#F0C877;}
	.st136{fill:#E8BA67;}
	.st137{fill:#DDAA5F;}
	.st138{fill:#D4994F;}
	.st139{fill:#C98B44;}
	.st140{fill:#BF7D3C;}
	.st141{fill:#909997;}
	.st142{fill:#724D31;}
	.st143{fill:#93C2CA;}
	.st144{fill:#99C7CE;}
	.st145{fill:#9FCCD3;}
	.st146{fill:#ACD7DD;}
	.st147{fill:#B9E2E7;}
	.st148{fill:#A5D1D8;}
	.st149{fill:#88B9C3;}
	.st150{fill:#7EB1BD;}
	.st151{fill:#C8CCCB;}
	.st152{fill:none;}
	.st153{fill:#4F4032;}
	.st154{fill:#604631;}
	.st155{fill:#F9BDA0;}
	.st156{fill:#E7685F;}
	.st157{fill:#C84054;}
	.st158{fill:#ABB2B1;}
	.st159{fill:#9DA5A4;}
	.st160{fill:#F74000;}
	.st161{fill:#F97C00;}
	.st162{fill:#F9C900;}
	.st163{fill:#EFD4A7;}
	.st164{fill:#EACEA1;}
	.st165{fill:#FCE8CC;}
	.st166{fill:#F5DEB9;}
	.st167{fill:#CFAB81;}
	.st168{fill:#D5B387;}
	.st169{fill:#3A4274;}
	.st170{fill:#707EB7;}
	.st171{fill:#424B7E;}
	.st172{fill:#7C8AC4;}
	.st173{fill:#FFD98D;}
	.st174{fill:#8694D1;}
	.st175{fill:#9AA6D6;}
	.st176{fill:#ABB4DD;}
	.st177{fill:#FDECEF;}
	.st178{fill:#137FA0;}
	.st179{fill:#EB6B48;}
	.st180{fill:#F57552;}
	.st181{fill:#515E91;}
	.st182{fill:#5C699E;}
	.st183{fill:#6673AA;}
	.st184{fill:#504484;}
	.st185{fill:#FF5F7E;}
	.st186{fill:#EBCEEB;}
	.st187{fill:#E5BDE5;}
	.st188{fill:#E0ABDF;}
	.st189{fill:#D799D6;}
	.st190{fill:#3B8FA3;}
	.st191{fill:#348B99;}
	.st192{fill:#F7F7F7;}
	.st193{fill:#3AA176;}
	.st194{fill:#84ED82;}
	.st195{fill:#EFEAEA;}
	.st196{fill:#FF9A7E;}
	.st197{fill:#FCD2BE;}
	.st198{fill:#FCDDCF;}
	.st199{fill:#C683C8;}
	.st200{fill:#A55F49;}
	.st201{fill:#FEF5F7;}
</style>
<g>
	<g>
		<g>
			<circle class="orchid_12" cx="2.5" cy="29.5" r="1.5"/>
			<path class="orchid_12" d="M16,1.396C15.267,0.552,14.206,0,13,0c-2.209,0-4,1.791-4,4c-4.971,0-9,4.029-9,9
				c0,2.661,1.161,5.044,2.997,6.692C2.368,20.64,2,21.777,2,23c0,3.314,2.686,6,6,6c1.6,0,3.05-0.63,4.126-1.651
				c0.698,0.238,1.424,0.411,2.174,0.517c0.33,1.008,0.93,1.887,1.7,2.582V1.396z"/>
		</g>
		<g>
			<circle class="st2" cx="2.5" cy="29.5" r="1.5"/>
			<path class="st2" d="M16,1.396C15.267,0.552,14.206,0,13,0c-2.209,0-4,1.791-4,4c-4.971,0-9,4.029-9,9
				c0,2.661,1.161,5.044,2.997,6.692C2.368,20.64,2,21.777,2,23c0,3.314,2.686,6,6,6c1.6,0,3.05-0.63,4.126-1.651
				c0.698,0.238,1.424,0.411,2.174,0.517c0.33,1.008,0.93,1.887,1.7,2.582V1.396z"/>
		</g>
	</g>
	<g>
		<g>
			<path class="orchid_12" d="M32,13c0-3.996-2.607-7.379-6.211-8.554C25.104,1.887,22.775,0,20,0c-1.503,0-2.873,0.556-3.926,1.469
				C16.052,1.443,16.023,1.423,16,1.396v29.051C17.062,31.405,18.457,32,20,32c1.891,0,3.574-0.876,4.674-2.243
				C25.091,29.905,25.533,30,26,30c2.209,0,4-1.791,4-4c0-2.086-1.603-3.779-3.641-3.964c0.173-0.296,0.331-0.6,0.479-0.912
				C29.887,19.685,32,16.595,32,13z"/>
			<circle class="orchid_12" cx="28.5" cy="3.5" r="1.5"/>
		</g>
		<g>
			<path class="st58" d="M32,13c0-3.996-2.607-7.379-6.211-8.554C25.104,1.887,22.775,0,20,0c-1.503,0-2.873,0.556-3.926,1.469
				C16.052,1.443,16.023,1.423,16,1.396v29.051C17.062,31.405,18.457,32,20,32c1.891,0,3.574-0.876,4.674-2.243
				C25.091,29.905,25.533,30,26,30c2.209,0,4-1.791,4-4c0-2.086-1.603-3.779-3.641-3.964c0.173-0.296,0.331-0.6,0.479-0.912
				C29.887,19.685,32,16.595,32,13z"/>
			<circle class="st58" cx="28.5" cy="3.5" r="1.5"/>
		</g>
	</g>
	<path class="grey_16" d="M16,4C9.373,4,4,9.373,4,16c0,6.627,5.373,12,12,12V4z"/>
	<path class="grey_17" d="M28,16c0-6.627-5.373-12-12-12v24C22.627,28,28,22.627,28,16z"/>
	<path class="white" d="M7.434,20.851c2.624,0.497,5.078-0.288,6.843-1.839c0.213-0.187,0.212-0.523,0.012-0.723L3.711,7.711
		C3.51,7.51,3.175,7.509,2.988,7.723c-1.551,1.765-2.336,4.219-1.839,6.843C1.745,17.715,4.285,20.255,7.434,20.851z"/>
	<path class="grey_01" d="M24.566,20.851c-2.624,0.497-5.078-0.288-6.843-1.839c-0.213-0.187-0.212-0.523-0.012-0.723L28.289,7.711
		c0.201-0.201,0.536-0.202,0.723,0.012c1.551,1.765,2.336,4.219,1.839,6.843C30.255,17.715,27.715,20.255,24.566,20.851z"/>
	<path class="salmon_06" d="M16,23H9.53c-0.219,0-0.334,0.258-0.185,0.419C10.106,24.245,12.175,26,16,26V23z"/>
	<path class="salmon_07" d="M16,26c3.825,0,5.894-1.755,6.656-2.581C22.804,23.258,22.69,23,22.47,23H16V26z"/>
	<path class="white" d="M11,23h2l-0.776,1.553c-0.092,0.184-0.355,0.184-0.447,0L11,23z"/>
	<path class="grey_01" d="M19,23h2l-0.776,1.553c-0.092,0.184-0.355,0.184-0.447,0L19,23z"/>
	<ellipse class="grey_17" cx="22.5" cy="16" rx="0.5" ry="1"/>
	<ellipse class="grey_16" cx="9.5" cy="16" rx="0.5" ry="1"/>
</g>
</svg>
