<?xml version="1.0" encoding="utf-8"?>
<!-- Generator: Adobe Illustrator 20.1.0, SVG Export Plug-In . SVG Version: 6.00 Build 0)  -->
<!DOCTYPE svg PUBLIC "-//W3C//DTD SVG 1.1//EN" "http://www.w3.org/Graphics/SVG/1.1/DTD/svg11.dtd">
<svg version="1.1" id="icons" xmlns="http://www.w3.org/2000/svg" xmlns:xlink="http://www.w3.org/1999/xlink" x="0px" y="0px"
	 width="32px" height="32px" viewBox="0 0 32 32" style="enable-background:new 0 0 32 32;" xml:space="preserve">
<style type="text/css">
	.white{fill:#FFFFFF;}
	.grey_01{fill:#F7F7F7;}
	.grey_07{fill:#ABB2B1;}
	.grey_08{fill:#9DA5A4;}
	.grey_09{fill:#909997;}
	.grey_10{fill:#838C8A;}
	.grey_11{fill:#757F7E;}
	.grey_12{fill:#687271;}
	.grey_13{fill:#5C6664;}
	.grey_16{fill:#373F3F;}
	.grey_17{fill:#2B3332;}
	.st0{fill:#78DF7C;}
	.st1{fill:#54B668;}
	.st2{fill:#7A63AD;}
	.st3{fill:#866EBA;}
	.st4{fill:#D2E6F3;}
	.st5{fill:#C1DDEE;}
	.st6{fill:#E0C193;}
	.st7{fill:#DBBA8C;}
	.st8{fill:#7FB8E0;}
	.st9{fill:#8EC0E0;}
	.st10{fill:#71B1E1;}
	.st11{fill:#9FC9E4;}
	.st12{fill:#FFEAA7;}
	.st13{fill:#FFE28A;}
	.st14{fill:#FF6B8B;}
	.st15{fill:#F4A984;}
	.st16{fill:#EA9C7A;}
	.st17{fill:#FEF1C6;}
	.st18{fill:#E85160;}
	.st19{fill:#D84459;}
	.st20{fill:#E55D53;}
	.st21{fill:#FFD400;}
	.st22{fill:#FF8F00;}
	.st23{fill:#FF4A00;}
	.st24{fill:#F7D684;}
	.st25{fill:#FAE09F;}
	.st26{fill:#FDEBBB;}
	.st27{fill:#FFF3D9;}
	.st28{fill:#FFD96C;}
	.st29{fill:#9ACC2E;}
	.st30{fill:#AADB3D;}
	.st31{fill:#A2D336;}
	.st32{fill:#93C427;}
	.st33{fill:#F79654;}
	.st34{fill:#FFD04D;}
	.st35{fill:#FCA15E;}
	.st36{fill:#A9E260;}
	.st37{fill:#97DB4A;}
	.st38{fill:#B1E346;}
	.st39{fill:#FCD8DE;}
	.st40{fill:#CDA073;}
	.st41{fill:#C09265;}
	.st42{fill:#A7794C;}
	.st43{fill:#96643B;}
	.st44{fill:#845331;}
	.st45{fill:#B38658;}
	.st46{fill:#9E6E43;}
	.st47{fill:#8D5B36;}
	.st48{fill:#FBCFD6;}
	.st49{fill:#FAC4D1;}
	.st50{fill:#FAB8CD;}
	.st51{fill:#F9ADC8;}
	.st52{fill:#F8A1C4;}
	.st53{fill:#F297BE;}
	.st54{fill:#EA8BB4;}
	.st55{fill:#E8BA36;}
	.st56{fill:#E0B12E;}
	.st57{fill:#FFC172;}
	.st58{fill:#FFAD68;}
	.st59{fill:#FFB76D;}
	.st60{fill:#6E57A0;}
	.st61{fill:#675099;}
	.st62{fill:#F3586F;}
	.st63{fill:#604893;}
	.st64{fill:#CBEB6B;}
	.st65{fill:#4EAC5D;}
	.st66{fill:#BEE758;}
	.st67{fill:#6CD275;}
	.st68{fill:#48A353;}
	.st69{fill:#60C46F;}
	.st70{fill:#D9F07D;}
	.st71{fill:#E6F490;}
	.st72{fill:#4896C8;}
	.st73{fill:#4390BF;}
	.st74{fill:#5CA3D5;}
	.st75{fill:#529CCF;}
	.st76{fill:#F7C845;}
	.st77{fill:#ECCD50;}
	.st78{fill:#FF8D6E;}
	.st79{fill:#FF805D;}
	.st80{fill:#EDEEEE;}
	.st81{fill:#65A9DC;}
	.st82{fill:#8BC07A;}
	.st83{fill:#F0C13E;}
	.st84{fill:#9A3644;}
	.st85{fill:#8A323F;}
	.st86{fill:#945BA0;}
	.st87{fill:#A366AD;}
	.st88{fill:#B370B9;}
	.st89{fill:#C27BC6;}
	.st90{fill:#F6B392;}
	.st91{fill:#D285D2;}
	.st92{fill:#DBA728;}
	.st93{fill:#505957;}
	.st94{fill:#56C7CD;}
	.st95{fill:#434C4B;}
	.st96{fill:#51BAC5;}
	.st97{fill:#D64F45;}
	.st98{fill:#D1D4D4;}
	.st99{fill:#E3E5E5;}
	.st100{fill:#DADDDC;}
	.st101{fill:#845194;}
	.st102{fill:#5BD3D5;}
	.st103{fill:#46B080;}
	.st104{fill:#53BF8C;}
	.st105{fill:#6EDCA2;}
	.st106{fill:#7AEBAC;}
	.st107{fill:#60CD96;}
	.st108{fill:#E8803A;}
	.st109{fill:#0A6F8E;}
	.st110{fill:#0F769B;}
	.st111{fill:#EF8C48;}
	.st112{fill:#D1473D;}
	.st113{fill:#9179C6;}
	.st114{fill:#906DBB;}
	.st115{fill:#A78EDD;}
	.st116{fill:#9D85D3;}
	.st117{fill:#E2EFF7;}
	.st118{fill:#B0D3EA;}
	.st119{fill:#F7BC48;}
	.st120{fill:#FFC550;}
	.st121{fill:#FFCF6E;}
	.st122{fill:#4CAEBC;}
	.st123{fill:#47A1B4;}
	.st124{fill:#4295AC;}
	.st125{fill:#FDE2E6;}
	.st126{fill:#FFF5D8;}
	.st127{fill:#99533D;}
	.st128{fill:#914C39;}
	.st129{fill:#D4C9EF;}
	.st130{fill:#E3DBF4;}
	.st131{fill:#F1EDFA;}
	.st132{fill:#C6B7E9;}
	.st133{fill:#B8A5E4;}
	.st134{fill:#F0C877;}
	.st135{fill:#E8BA67;}
	.st136{fill:#DDAA5F;}
	.st137{fill:#D4994F;}
	.st138{fill:#C98B44;}
	.st139{fill:#BF7D3C;}
	.st140{fill:#757F7E;}
	.st141{fill:#838C8A;}
	.st142{fill:#724D31;}
	.st143{fill:#93C2CA;}
	.st144{fill:#99C7CE;}
	.st145{fill:#9FCCD3;}
	.st146{fill:#ACD7DD;}
	.st147{fill:#B9E2E7;}
	.st148{fill:#A5D1D8;}
	.st149{fill:#88B9C3;}
	.st150{fill:#7EB1BD;}
	.st151{fill:#C8CCCB;}
	.st152{fill:none;}
	.st153{fill:#4F4032;}
	.st154{fill:#604631;}
	.st155{fill:#F9BDA0;}
	.st156{fill:#E7685F;}
	.st157{fill:#C84054;}
	.st158{fill:#F74000;}
	.st159{fill:#F97C00;}
	.st160{fill:#F9C900;}
	.st161{fill:#EFD4A7;}
	.st162{fill:#EACEA1;}
	.st163{fill:#FCE8CC;}
	.st164{fill:#F5DEB9;}
	.st165{fill:#CFAB81;}
	.st166{fill:#D5B387;}
	.st167{fill:#3A4274;}
	.st168{fill:#707EB7;}
	.st169{fill:#424B7E;}
	.st170{fill:#7C8AC4;}
	.st171{fill:#FFD98D;}
	.st172{fill:#8694D1;}
	.st173{fill:#9AA6D6;}
	.st174{fill:#ABB4DD;}
	.st175{fill:#FDECEF;}
	.st176{fill:#137FA0;}
	.st177{fill:#EB6B48;}
	.st178{fill:#F57552;}
	.st179{fill:#515E91;}
	.st180{fill:#5C699E;}
	.st181{fill:#6673AA;}
	.st182{fill:#504484;}
	.st183{fill:#FF5F7E;}
	.st184{fill:#EBCEEB;}
	.st185{fill:#E5BDE5;}
	.st186{fill:#E0ABDF;}
	.st187{fill:#D799D6;}
	.st188{fill:#3B8FA3;}
	.st189{fill:#348B99;}
	.st190{fill:#F7F7F7;}
	.st191{fill:#3AA176;}
	.st192{fill:#84ED82;}
	.st193{fill:#EFEAEA;}
	.st194{fill:#FF9A7E;}
	.st195{fill:#FCD2BE;}
	.st196{fill:#FCDDCF;}
	.st197{fill:#C683C8;}
	.st198{fill:#A55F49;}
	.st199{fill:#FEF5F7;}
</style>
<g>
	<path class="grey_07" d="M15.951,0c-0.244,0-0.453,0.177-0.493,0.418L14.527,6H13.31c-0.176,0-0.338,0.092-0.429,0.243l-2.712,4.52
		c-0.093,0.155-0.143,0.333-0.143,0.515v2.446c0,0.181,0.049,0.359,0.143,0.514l2.712,4.52C12.972,18.908,13.135,19,13.31,19h2.717
		V6V0H15.951z"/>
	<path class="grey_08" d="M21.885,10.762L19.027,6h-1.5l-0.93-5.582C16.557,0.177,16.348,0,16.103,0h-0.076v6v13h2.717
		c0.176,0,0.338-0.092,0.429-0.243L22.027,14v-2.723C22.027,11.096,21.978,10.918,21.885,10.762z"/>
	<path class="grey_09" d="M22.027,14l-3,3h-3v2h2.717c0.176,0,0.338-0.092,0.429-0.243L22.027,14z"/>
	<path class="grey_13" d="M19.027,17l-0.854,0.854C18.08,17.947,17.953,18,17.82,18h-1.793v-1H19.027z"/>
	<path class="grey_01" d="M17.301,11.909l2.397-0.799c0.162-0.054,0.329,0.067,0.329,0.237v0.535c0,0.078-0.018,0.154-0.053,0.224
		l-0.309,0.618C19.581,12.893,19.407,13,19.218,13h-1.382c-0.189,0-0.363-0.107-0.447-0.276l-0.233-0.466
		C17.088,12.122,17.156,11.957,17.301,11.909z"/>
	<path class="white" d="M14.754,11.909l-2.397-0.799c-0.162-0.054-0.329,0.067-0.329,0.237v0.535c0,0.078,0.018,0.154,0.053,0.224
		l0.309,0.618C12.474,12.893,12.647,13,12.836,13h1.382c0.189,0,0.363-0.107,0.447-0.276l0.233-0.466
		C14.966,12.122,14.898,11.957,14.754,11.909z"/>
	<path class="grey_08" d="M10.088,14.052c0.022,0.061,0.048,0.12,0.081,0.176l2.712,4.52c0.09,0.151,0.253,0.243,0.429,0.243h2.717
		v-2h-3L10.088,14.052z"/>
	<path class="grey_12" d="M13.027,17l0.854,0.854C13.974,17.947,14.102,18,14.234,18h1.793v-1H13.027z"/>
	<path class="grey_09" d="M19.027,6l2.857,4.762c0.093,0.155,0.143,0.333,0.143,0.514V14h3l1.854-1.854
		c0.094-0.094,0.146-0.221,0.146-0.354V8l-2.854-2.854C24.08,5.053,23.953,5,23.82,5h-3.586c-0.133,0-0.26,0.053-0.354,0.146
		L19.027,6z"/>
	<path class="grey_10" d="M26.027,15l-1-1l1.854-1.854c0.094-0.094,0.146-0.221,0.146-0.354V8h1.793c0.133,0,0.26,0.053,0.354,0.146
		l1.707,1.707c0.094,0.094,0.146,0.221,0.146,0.354V15H26.027z"/>
	<path class="grey_11" d="M31.974,17.842L31.027,15h-5l-0.947,2.842c-0.034,0.103-0.034,0.214,0,0.316L26.027,21h5l0.947-2.842
		C32.009,18.055,32.009,17.945,31.974,17.842z"/>
	<path class="grey_12" d="M24.173,22.854L26.027,21h5l0,0v4.793c0,0.133-0.053,0.26-0.146,0.354L29.027,28l-5-3v-1.793
		C24.027,23.074,24.08,22.947,24.173,22.854z"/>
	<path class="grey_11" d="M22.027,27l2-2l5,3v1.793c0,0.133-0.053,0.26-0.146,0.354l-1.707,1.707C27.08,31.947,26.953,32,26.82,32
		h-3.586c-0.133,0-0.26-0.053-0.354-0.146L22.027,31V27z"/>
	<path class="grey_10" d="M21.173,31.854L22.027,31v-4h-3.793c-0.133,0-0.26,0.053-0.354,0.146L17.027,28v3l0.854,0.854
		C17.974,31.947,18.102,32,18.234,32h2.586C20.953,32,21.08,31.947,21.173,31.854z"/>
	<path class="grey_09" d="M16.173,31.854L17.027,31v-3h-2.793c-0.133,0-0.26,0.053-0.354,0.146L13.027,29v2l0.854,0.854
		C13.974,31.947,14.102,32,14.234,32h1.586C15.953,32,16.08,31.947,16.173,31.854z"/>
	<path class="grey_08" d="M13.027,29h-1.793c-0.133,0-0.26,0.053-0.354,0.146L10.027,30v1l0.854,0.854
		C10.974,31.947,11.102,32,11.234,32h0.586c0.133,0,0.26-0.053,0.354-0.146L13.027,31V29z"/>
	<path class="grey_07" d="M10.027,30H8.234c-0.133,0-0.26,0.053-0.354,0.146l-0.5,0.5c-0.195,0.195-0.195,0.512,0,0.707l0.5,0.5
		C7.974,31.947,8.102,32,8.234,32H8.82c0.133,0,0.26-0.053,0.354-0.146L10.027,31V30z"/>
	<path class="grey_17" d="M18.527,12.5c0.276,0,0.5-0.448,0.5-1c0-0.057-0.012-0.107-0.016-0.161l-0.967,0.323
		C18.083,12.134,18.28,12.5,18.527,12.5z"/>
	<path class="grey_16" d="M13.043,11.339c-0.005,0.055-0.016,0.104-0.016,0.161c0,0.552,0.224,1,0.5,1
		c0.247,0,0.444-0.366,0.484-0.839L13.043,11.339z"/>
</g>
</svg>
