<?xml version="1.0" encoding="utf-8"?>
<!-- Generator: Adobe Illustrator 20.1.0, SVG Export Plug-In . SVG Version: 6.00 Build 0)  -->
<!DOCTYPE svg PUBLIC "-//W3C//DTD SVG 1.1//EN" "http://www.w3.org/Graphics/SVG/1.1/DTD/svg11.dtd">
<svg version="1.1" id="Layer_1" xmlns="http://www.w3.org/2000/svg" xmlns:xlink="http://www.w3.org/1999/xlink" x="0px" y="0px"
	 width="1800px" height="800px" viewBox="0 0 1800 800" style="enable-background:new 0 0 1800 800;" xml:space="preserve">
<style type="text/css">
	.st0{fill:#104452;}
	.st1{fill:#135E66;}
	.st2{fill:#FFFFFF;}
	.st3{fill:#4F5957;}
	.st4{fill:#56C7CD;}
	.st5{fill:#E55D53;}
	.st6{fill:#434C4B;}
	.st7{fill:#7A63AD;}
	.st8{fill:#6E57A0;}
	.st9{fill:#373F3F;}
	.st10{fill:#FFD96C;}
	.st11{fill:#FFD04D;}
	.st12{fill:#4F4032;}
	.st13{fill:#604631;}
	.st14{fill:#687271;}
	.st15{fill:#757F7E;}
	.st16{fill:#E3E5E5;}
	.st17{fill:#DADDDC;}
	.st18{fill:#99C7CE;}
	.st19{fill:#9FCCD3;}
	.st20{fill:#A5D1D8;}
	.st21{fill:#71B1E1;}
	.st22{fill:#7FB8E0;}
	.st23{fill:#8EC0E0;}
	.st24{fill:#F7D684;}
	.st25{fill:#D3974D;}
	.st26{fill:#DDA454;}
	.st27{fill:#E7B05B;}
	.st28{fill:#F0C877;}
	.st29{fill:#FAE09F;}
	.st30{fill:#FDEBBB;}
	.st31{fill:#2B3332;}
	.st32{fill:#8D5B36;}
	.st33{fill:#845331;}
	.st34{fill:#FAC4D1;}
	.st35{fill:#FAB8CD;}
	.st36{fill:#9E6E43;}
	.st37{fill:#96643B;}
	.st38{fill:#FFEAA7;}
	.st39{fill:#FFE28A;}
	.st40{fill:#FEF1C6;}
	.st41{fill:#F7C845;}
	.st42{fill:#D84459;}
	.st43{fill:#5C6664;}
	.st44{fill:#F7F7F7;}
	.st45{fill:#51BAC5;}
	.st46{fill:#D64F45;}
	.st47{fill:#A9E260;}
	.st48{fill:#97DB4A;}
	.st49{fill:#9ACC2E;}
	.st50{fill:#93C427;}
	.st51{fill:#A2D336;}
	.st52{fill:#AADB3D;}
	.st53{fill:#B1E346;}
	.st54{fill:#FCD8DE;}
	.st55{fill:#FCF8EF;}
	.st56{fill:#CDA073;}
	.st57{fill:#C09265;}
	.st58{fill:#A7794C;}
	.st59{fill:#B38658;}
	.st60{fill:#FBCFD6;}
	.st61{fill:#F8A1C4;}
	.st62{fill:#F297BE;}
	.st63{fill:#EA8BB4;}
	.st64{fill:#E8BA36;}
	.st65{fill:#F0C13E;}
	.st66{fill:#E0B12E;}
	.st67{fill:#F2F2F2;}
	.st68{fill:#909997;}
	.st69{fill:#838C8A;}
	.st70{fill:#FFD766;}
	.st71{fill:#E85160;}
	.st72{fill:#F4EFE9;}
	.st73{fill:#F4A984;}
	.st74{fill:#F6B392;}
	.st75{fill:#FCA15E;}
	.st76{fill:#F79654;}
	.st77{fill:#FFAD68;}
	.st78{fill:#FFB76D;}
	.st79{fill:#FFC172;}
	.st80{fill:#54B668;}
	.st81{fill:#CBEB6B;}
	.st82{fill:#4EAC5D;}
	.st83{fill:#BEE758;}
	.st84{fill:#6CD275;}
	.st85{fill:#48A353;}
	.st86{fill:#60C46F;}
	.st87{fill:#D9F07D;}
	.st88{fill:#E6F490;}
	.st89{fill:#4E85B7;}
	.st90{fill:#467DAF;}
	.st91{fill:#5D9AD1;}
	.st92{fill:#5895CC;}
	.st93{fill:#538DC1;}
	.st94{fill:#515E91;}
	.st95{fill:#5C699E;}
	.st96{fill:#6673AA;}
	.st97{fill:#EB6B48;}
	.st98{fill:#F57552;}
	.st99{fill:#707EB7;}
	.st100{fill:#7C8AC4;}
	.st101{fill:#FF805D;}
	.st102{fill:#675099;}
	.st103{fill:#504484;}
	.st104{fill:#111918;}
	.st105{fill:#604893;}
	.st106{fill:#ECCD50;}
	.st107{fill:#FF8D6E;}
	.st108{fill:#47A1B4;}
	.st109{fill:#4295AC;}
	.st110{fill:#4CAEBC;}
	.st111{fill:#A55F49;}
	.st112{fill:#99533D;}
	.st113{fill:#F3586F;}
	.st114{fill:#5BD3D5;}
	.st115{fill:#84ED82;}
	.st116{fill:#78DF7C;}
	.st117{fill:#FF6B8B;}
	.st118{fill:#FF5F7E;}
	.st119{fill:#EFEAEA;}
	.st120{fill:#A366AD;}
	.st121{fill:#C27BC6;}
	.st122{fill:#D285D2;}
	.st123{fill:#B370B9;}
	.st124{fill:#C683C8;}
	.st125{fill:#505957;}
	.st126{fill:#EDEEEE;}
	.st127{fill:#C8CCCB;}
	.st128{fill:#D1D4D4;}
	.st129{fill:#945BA0;}
	.st130{fill:#46B080;}
	.st131{fill:#3AA176;}
	.st132{fill:#53BF8C;}
	.st133{fill:#6EDCA2;}
	.st134{fill:#7AEBAC;}
	.st135{fill:#60CD96;}
	.st136{fill:#E8803A;}
	.st137{fill:#FF4A00;}
	.st138{fill:#FF8F00;}
	.st139{fill:#FFD400;}
	.st140{fill:#EF8C48;}
	.st141{fill:#0A6F8E;}
	.st142{fill:#0F769B;}
	.st143{fill:#FF9A7E;}
	.st144{fill:#FCD2BE;}
	.st145{fill:#FCDDCF;}
	.st146{fill:#EA9C7A;}
	.st147{fill:#866EBA;}
	.st148{fill:#9179C6;}
	.st149{fill:#906DBB;}
	.st150{fill:#A78EDD;}
	.st151{fill:#9D85D3;}
	.st152{fill:#F7BC48;}
	.st153{fill:#FFC550;}
	.st154{fill:#FFCF6E;}
	.st155{fill:#FFE8A2;}
	.st156{fill:#4896C8;}
	.st157{fill:#4390BF;}
	.st158{fill:#529CCF;}
	.st159{fill:#C1DDEE;}
	.st160{fill:#B0D3EA;}
	.st161{fill:#9FC9E4;}
	.st162{fill:#D2E6F3;}
	.st163{fill:#E2EFF7;}
	.st164{fill:#845194;}
	.st165{fill:#EBCEEB;}
	.st166{fill:#E5BDE5;}
	.st167{fill:#E0ABDF;}
	.st168{fill:#D799D6;}
	.st169{fill:#3B8FA3;}
	.st170{fill:#348B99;}
	.st171{fill:#FDE2E6;}
	.st172{fill:#F9ADC8;}
	.st173{fill:#137FA0;}
	.st174{fill:#E8BA67;}
	.st175{fill:#67A6D9;}
	.st176{fill:#70B1E1;}
	.st177{fill:#DDAA5F;}
	.st178{fill:#ACD7DD;}
	.st179{fill:#B9E2E7;}
	.st180{fill:#93C2CA;}
	.st181{fill:#88B9C3;}
	.st182{fill:none;}
	.st183{fill:#2B292C;}
	.st184{fill:#CE4441;}
	.st185{fill:#E7685F;}
	.st186{fill:#ABB2B1;}
	.st187{fill:#9DA5A4;}
	.st188{fill:#FFF3D9;}
	.st189{fill:#E0C193;}
	.st190{fill:#EFD4A7;}
	.st191{fill:#EACEA1;}
	.st192{fill:#FCE8CC;}
	.st193{fill:#F5DEB9;}
	.st194{fill:#CFAB81;}
	.st195{fill:#D5B387;}
	.st196{fill:#DBBA8C;}
	.st197{clip-path:url(#SVGID_2_);}
	.st198{fill:#C84054;}
	.st199{fill:#FFFFFF;stroke:#000000;stroke-width:40;stroke-miterlimit:10;}
</style>
<g>
	<path class="st42" d="M899.967,627.595l-0.032-0.216V230.057c-296,0-536.493,239.99-536.493,536.99h365.233
		C745.232,687.047,815.725,627.595,899.967,627.595z"/>
	<path class="st198" d="M1071.325,767.047h365.233c0-297-240.622-536.99-536.622-536.99v397.322
		C983.935,627.379,1054.768,687.047,1071.325,767.047z"/>
	<g>
		<path class="st2" d="M769.814,767.047c-2.933,10-4.588,21-4.789,33h134.91v-33v-99.451
			C837.887,667.61,785.528,709.057,769.814,767.047z"/>
		<path class="st2" d="M899.935,667.379v0.217c0.011,0,0.021,0,0.032,0L899.935,667.379z"/>
	</g>
	<path class="st2" d="M1030.186,767.047c-15.717-58-68.251-99.668-130.251-99.668v99.668v33h135.04
		C1034.774,788.047,1033.12,777.047,1030.186,767.047z"/>
	<g>
		<path d="M899.935,627.379v0.217c0.011,0,0.021,0,0.032,0L899.935,627.379z"/>
		<path d="M899.935,647.379v-19.784c-84.228,0.015-154.705,59.461-171.26,139.451H363.443c0,11,0.352,22,1.023,33h360.56h20h20
			c0.201-12,1.855-23,4.789-33c15.717-58,68.091-99.452,130.153-99.452l-0.032-0.216V647.379z"/>
	</g>
	<path d="M1071.325,767.047c-16.557-80-87.39-139.668-171.39-139.668v20v20c62,0,114.534,41.668,130.251,99.668
		c2.934,10,4.588,21,4.789,33h20h20h360.501c0.701-11,1.082-22,1.082-33H1071.325z"/>
</g>
</svg>
