<svg version="1.1" xmlns="http://www.w3.org/2000/svg" viewBox="0 0 224 66">
	<style>
	  .green {
	    fill: #3F7F19;
	    stroke: none;
	    stroke-miterlimit: 10;
	  }

	  .fade-01, .fade-02, .fade-03, .fade-04, .fade-05, .fade-06, .fade-07, .fade-08 {
	    animation-duration: 3s;
	    animation-iteration-count: infinite;
	    transform-origin: 50% 50%;
	    animation-timing-function: linear;
			transition-timing-function: ease;
			transition-duration: 1ms;
	  }

	  .fade-01 { animation-name: fade-01; }
	  .fade-02 { animation-name: fade-02; }
	  .fade-03 { animation-name: fade-03; }
	  .fade-04 { animation-name: fade-04; }
	  .fade-05 { animation-name: fade-05; }
	  .fade-06 { animation-name: fade-06; }
	  .fade-07 { animation-name: fade-07; }
	  .fade-08 { animation-name: fade-08; }
		
	  @keyframes fade-01 {
		0% { opacity: 1.0; }
		8% { opacity: 0.5; }
		16% { opacity: 0.0; }
		80% { opacity: 0.0; }
		88% { opacity: 0.5; }
	  100% { opacity: 1.0; }
	  }
	  @keyframes fade-02 {
		0% { opacity: 1.0; }
		8% { opacity: 1.0; }
		16% { opacity: 0.5; }
		24% { opacity: 0.0; }
		72% { opacity: 0.0; }
		80% { opacity: 0.5; }
		88% { opacity: 1.0; }
	  100% { opacity: 1.0; }
	  }
		@keyframes fade-03 {
		0% { opacity: 1.0; }
		8% { opacity: 1.0; }
		16% { opacity: 1.0; }
		24% { opacity: 0.5; }
		32% { opacity: 0.0; }
		72% { opacity: 0.0; }
		80% { opacity: 0.5; }
		88% { opacity: 1.0; }
	  100% { opacity: 1.0; }
	  }
		@keyframes fade-04 {
		0% { opacity: 1.0; }
		24% { opacity: 1.0; }
		32% { opacity: 0.5; }
		48% { opacity: 0.0; }
		64% { opacity: 0.0; }
		72% { opacity: 0.5; }
		80% { opacity: 1.0; }
		100% { opacity: 1.0; }
		}
		@keyframes fade-05 {
		0% { opacity: 1.0; }
		24% { opacity: 1.0; }
		32% { opacity: 0.5; }
		48% { opacity: 0.0; }
		64% { opacity: 0.0; }
		72% { opacity: 0.5; }
		80% { opacity: 1.0; }
	  100% { opacity: 1.0; }
	  }
		@keyframes fade-06 {
		0% { opacity: 1.0; }
		32% { opacity: 1.0; }
		48% { opacity: 0.5; }
		56% { opacity: 0.0; }
		64% { opacity: 0.5; }
		72% { opacity: 1.0; }
		80% { opacity: 1.0; }
		100% { opacity: 1.0; }
		}
		@keyframes fade-07 {
		0% { opacity: 1.0; }
		32% { opacity: 1.0; }
		48% { opacity: 0.5; }
		56% { opacity: 0.0; }
		64% { opacity: 0.5; }
		72% { opacity: 1.0; }
	  100% { opacity: 1.0; }
	  }
		@keyframes fade-08 {
		0% { opacity: 1.0; }
		48% { opacity: 1.0; }
		56% { opacity: 0.5; }
		64% { opacity: 0.5; }
		72% { opacity: 1.0; }
		100% { opacity: 1.0; }
		}
	</style>

  <g class="cocktails-bold">
    <g class="c1-bold fade-01">
      <path class="green" d="M12.16 40.561c.69.224 1.323.506 1.961.782l.929.443.885.487c.291.166.637.277.966.406.323.134.56.354.7.671.14.317.235.679.249 1.123.024.433-.009.924-.203 1.575l-.295.295c-.651.194-1.141.227-1.575.203-.443-.014-.806-.109-1.123-.249-.317-.141-.537-.377-.671-.7-.129-.328-.24-.674-.406-.966l-.487-.885-.443-.929c-.277-.638-.558-1.271-.782-1.961l.295-.295zM25.786 44.417c-.63.329-1.26.578-1.889.833l-.945.344-.945.281c-.315.089-.63.255-.945.396-.315.134-.63.145-.945.021-.315-.125-.63-.314-.945-.618-.315-.29-.63-.66-.945-1.257V44c.315-.597.63-.967.945-1.257.315-.304.63-.493.945-.618.315-.124.63-.113.945.021.315.141.63.307.945.396l.945.281.945.344c.63.255 1.259.504 1.889.833v.417zM11.865 25.093c.224-.69.506-1.323.782-1.961l.443-.929.487-.885c.166-.291.277-.637.406-.966.134-.324.354-.56.671-.7.317-.14.679-.235 1.123-.249.433-.024.924.01 1.575.203l.295.295c.194.651.227 1.141.203 1.575-.014.443-.109.806-.249 1.123-.141.317-.377.537-.7.671-.328.129-.674.24-.966.406l-.885.487-.929.443c-.638.277-1.271.558-1.961.782l-.295-.295zM25.786 21.949c-.63.329-1.26.578-1.889.833l-.945.344-.945.281c-.315.089-.63.255-.945.396-.315.134-.63.145-.945.021-.315-.125-.63-.314-.945-.618-.315-.29-.63-.66-.945-1.257v-.417c.315-.597.63-.967.945-1.257.315-.304.63-.493.945-.618.315-.124.63-.113.945.021.315.141.63.307.945.396l.945.281.945.344c.63.255 1.259.504 1.889.833v.417zM12.914 32.734c-.329-.589-.578-1.178-.833-1.767l-.344-.884-.281-.883c-.089-.295-.255-.589-.396-.884-.134-.295-.145-.589-.021-.884.125-.295.314-.589.618-.884.29-.295.66-.589 1.257-.884h.417c.597.295.967.589 1.257.884.304.295.493.589.618.884.124.295.113.589-.021.884-.141.295-.307.589-.396.884l-.281.884-.344.884c-.255.589-.504 1.178-.833 1.767l-.417-.001zM13.331 33.214c.329.589.578 1.178.833 1.767l.344.884.281.884c.089.295.255.589.396.884.134.295.145.589.021.884-.125.295-.314.589-.618.884-.29.295-.66.589-1.257.884h-.417c-.597-.295-.967-.589-1.257-.884-.304-.295-.493-.589-.618-.884-.124-.295-.113-.589.021-.884.141-.295.307-.589.396-.884l.281-.884.344-.884c.255-.589.504-1.178.833-1.767h.417zM32.134 40.855c-.224.69-.506 1.323-.782 1.961l-.443.929-.487.885c-.166.291-.277.637-.406.966-.134.324-.354.56-.671.7s-.68.235-1.123.249c-.433.024-.924-.01-1.575-.203l-.295-.295c-.194-.651-.227-1.141-.203-1.575.014-.443.109-.806.249-1.123.141-.317.377-.537.7-.671.328-.129.674-.24.966-.406l.885-.487.929-.443c.638-.277 1.271-.558 1.961-.782l.295.295zM31.839 25.388c-.69-.224-1.323-.506-1.961-.782l-.929-.443-.885-.487c-.291-.166-.637-.277-.966-.406-.323-.134-.56-.354-.7-.671-.14-.317-.235-.679-.249-1.123-.024-.433.01-.924.203-1.575l.295-.295c.651-.194 1.141-.227 1.575-.203.443.014.806.109 1.123.249.317.141.537.377.671.7.129.328.24.674.406.966l.487.885.443.929c.277.638.558 1.271.782 1.961l-.295.295z"/>
      <g>
        <path class="green" d="M12.16 40.561c.69.224 1.323.506 1.961.782l.929.443.885.487c.291.166.637.277.966.406.323.134.56.354.7.671.14.317.235.679.249 1.123.024.433-.009.924-.203 1.575l-.295.295c-.651.194-1.141.227-1.575.203-.443-.014-.806-.109-1.123-.249-.317-.141-.537-.377-.671-.7-.129-.328-.24-.674-.406-.966l-.487-.885-.443-.929c-.277-.638-.558-1.271-.782-1.961l.295-.295zM25.786 44.417c-.63.329-1.26.578-1.889.833l-.945.344-.945.281c-.315.089-.63.255-.945.396-.315.134-.63.145-.945.021-.315-.125-.63-.314-.945-.618-.315-.29-.63-.66-.945-1.257V44c.315-.597.63-.967.945-1.257.315-.304.63-.493.945-.618.315-.124.63-.113.945.021.315.141.63.307.945.396l.945.281.945.344c.63.255 1.259.504 1.889.833v.417zM11.865 25.093c.224-.69.506-1.323.782-1.961l.443-.929.487-.885c.166-.291.277-.637.406-.966.134-.324.354-.56.671-.7.317-.14.679-.235 1.123-.249.433-.024.924.01 1.575.203l.295.295c.194.651.227 1.141.203 1.575-.014.443-.109.806-.249 1.123-.141.317-.377.537-.7.671-.328.129-.674.24-.966.406l-.885.487-.929.443c-.638.277-1.271.558-1.961.782l-.295-.295zM25.786 21.949c-.63.329-1.26.578-1.889.833l-.945.344-.945.281c-.315.089-.63.255-.945.396-.315.134-.63.145-.945.021-.315-.125-.63-.314-.945-.618-.315-.29-.63-.66-.945-1.257v-.417c.315-.597.63-.967.945-1.257.315-.304.63-.493.945-.618.315-.124.63-.113.945.021.315.141.63.307.945.396l.945.281.945.344c.63.255 1.259.504 1.889.833v.417zM12.914 32.734c-.329-.589-.578-1.178-.833-1.767l-.344-.884-.281-.883c-.089-.295-.255-.589-.396-.884-.134-.295-.145-.589-.021-.884.125-.295.314-.589.618-.884.29-.295.66-.589 1.257-.884h.417c.597.295.967.589 1.257.884.304.295.493.589.618.884.124.295.113.589-.021.884-.141.295-.307.589-.396.884l-.281.884-.344.884c-.255.589-.504 1.178-.833 1.767l-.417-.001zM13.331 33.214c.329.589.578 1.178.833 1.767l.344.884.281.884c.089.295.255.589.396.884.134.295.145.589.021.884-.125.295-.314.589-.618.884-.29.295-.66.589-1.257.884h-.417c-.597-.295-.967-.589-1.257-.884-.304-.295-.493-.589-.618-.884-.124-.295-.113-.589.021-.884.141-.295.307-.589.396-.884l.281-.884.344-.884c.255-.589.504-1.178.833-1.767h.417zM32.134 40.855c-.224.69-.506 1.323-.782 1.961l-.443.929-.487.885c-.166.291-.277.637-.406.966-.134.324-.354.56-.671.7s-.68.235-1.123.249c-.433.024-.924-.01-1.575-.203l-.295-.295c-.194-.651-.227-1.141-.203-1.575.014-.443.109-.806.249-1.123.141-.317.377-.537.7-.671.328-.129.674-.24.966-.406l.885-.487.929-.443c.638-.277 1.271-.558 1.961-.782l.295.295zM31.839 25.388c-.69-.224-1.323-.506-1.961-.782l-.929-.443-.885-.487c-.291-.166-.637-.277-.966-.406-.323-.134-.56-.354-.7-.671-.14-.317-.235-.679-.249-1.123-.024-.433.01-.924.203-1.575l.295-.295c.651-.194 1.141-.227 1.575-.203.443.014.806.109 1.123.249.317.141.537.377.671.7.129.328.24.674.406.966l.487.885.443.929c.277.638.558 1.271.782 1.961l-.295.295z"/>
      </g>
    </g>
    <g class="o1-bold fade-03">
      <path class="green" d="M37.105 40.561c.69.224 1.323.506 1.961.782l.929.443.885.487c.291.166.637.277.966.406.323.134.56.354.7.671s.235.679.249 1.123c.024.433-.01.924-.203 1.575l-.295.295c-.651.194-1.141.227-1.575.203-.443-.014-.806-.109-1.123-.249-.317-.141-.537-.377-.671-.7-.129-.328-.24-.674-.406-.966l-.487-.885-.443-.929c-.277-.638-.558-1.271-.782-1.961l.295-.295zM50.731 44.417c-.63.329-1.259.578-1.889.833l-.945.344-.945.281c-.315.089-.63.255-.945.396-.315.134-.63.145-.945.021-.315-.125-.63-.314-.945-.618-.315-.29-.63-.66-.945-1.257V44c.315-.597.63-.967.945-1.257.315-.304.63-.493.945-.618.315-.124.63-.113.945.021.315.141.63.307.945.396l.945.281.945.344c.63.255 1.259.504 1.889.833v.417zM36.811 25.093c.224-.69.506-1.323.782-1.961l.443-.929.487-.885c.166-.291.277-.637.406-.966.134-.324.354-.56.671-.7.317-.14.68-.235 1.123-.249.433-.024.924.01 1.575.203l.295.295c.194.651.227 1.141.203 1.575-.014.443-.109.806-.249 1.123-.141.317-.377.537-.7.671-.328.129-.674.24-.966.406l-.885.487-.929.443c-.638.277-1.271.558-1.961.782l-.295-.295zM50.731 21.949c-.63.329-1.259.578-1.889.833l-.945.344-.945.281c-.315.089-.63.255-.945.396-.315.134-.63.145-.945.021-.315-.125-.63-.314-.945-.618-.315-.29-.63-.66-.945-1.257v-.417c.315-.597.63-.967.945-1.257.315-.304.63-.493.945-.618.315-.124.63-.113.945.021.315.141.63.307.945.396l.945.281.945.344c.63.255 1.259.504 1.889.833v.417zM37.86 32.734c-.329-.589-.578-1.178-.833-1.767l-.344-.884-.282-.883c-.089-.295-.255-.589-.396-.884-.134-.295-.145-.589-.021-.884.125-.295.314-.589.618-.884.29-.295.66-.589 1.257-.884h.417c.597.295.967.589 1.257.884.304.295.493.589.618.884s.114.589-.021.884c-.141.295-.307.589-.396.884l-.281.884-.344.884c-.255.589-.504 1.178-.833 1.767l-.416-.001zM38.276 33.214c.329.589.578 1.178.833 1.767l.344.884.281.884c.089.295.255.589.396.884.134.295.145.589.021.884-.125.295-.314.589-.618.884-.29.295-.66.589-1.257.884h-.416c-.597-.295-.968-.589-1.257-.884-.304-.295-.493-.589-.618-.884s-.114-.589.021-.884c.141-.295.307-.589.396-.884l.281-.884.344-.884c.255-.589.504-1.178.833-1.767h.416zM57.079 40.855c-.224.69-.506 1.323-.782 1.961l-.443.929-.487.885c-.166.291-.277.637-.406.966-.134.324-.354.56-.671.7s-.679.235-1.123.249c-.433.024-.924-.01-1.575-.203l-.295-.295c-.194-.651-.227-1.141-.203-1.575.014-.443.109-.806.249-1.123.141-.317.377-.537.701-.671.328-.129.674-.24.966-.406l.885-.487.929-.443c.638-.277 1.271-.558 1.961-.782l.294.295zM56.784 25.388c-.69-.224-1.323-.506-1.961-.782l-.929-.443-.885-.487c-.292-.166-.637-.277-.966-.406-.324-.134-.56-.354-.701-.671-.14-.317-.235-.679-.249-1.123-.024-.433.01-.924.203-1.575l.295-.295c.651-.194 1.141-.227 1.575-.203.443.014.806.109 1.123.249.317.141.537.377.671.7.129.328.24.674.406.966l.487.885.443.929c.277.638.558 1.271.782 1.961l-.294.295zM55.614 32.734c-.329-.589-.578-1.178-.833-1.767l-.344-.884-.282-.883c-.089-.295-.255-.589-.396-.884-.134-.295-.145-.589-.021-.884.125-.295.314-.589.618-.884.29-.295.66-.589 1.257-.884h.417c.597.295.967.589 1.257.884.304.295.493.589.618.884.124.295.113.589-.021.884-.141.295-.307.589-.396.884l-.281.884-.344.884c-.255.589-.504 1.178-.833 1.767l-.416-.001zM56.03 33.214c.329.589.578 1.178.833 1.767l.344.884.281.884c.089.295.255.589.396.884.134.295.145.589.021.884-.125.295-.314.589-.618.884-.29.295-.66.589-1.257.884h-.417c-.597-.295-.967-.589-1.257-.884-.304-.295-.493-.589-.618-.884-.124-.295-.113-.589.021-.884.141-.295.307-.589.396-.884l.281-.884.344-.884c.255-.589.504-1.178.833-1.767h.417z"/>
      <g>
        <path class="green" d="M37.105 40.561c.69.224 1.323.506 1.961.782l.929.443.885.487c.291.166.637.277.966.406.323.134.56.354.7.671s.235.679.249 1.123c.024.433-.01.924-.203 1.575l-.295.295c-.651.194-1.141.227-1.575.203-.443-.014-.806-.109-1.123-.249-.317-.141-.537-.377-.671-.7-.129-.328-.24-.674-.406-.966l-.487-.885-.443-.929c-.277-.638-.558-1.271-.782-1.961l.295-.295zM50.731 44.417c-.63.329-1.259.578-1.889.833l-.945.344-.945.281c-.315.089-.63.255-.945.396-.315.134-.63.145-.945.021-.315-.125-.63-.314-.945-.618-.315-.29-.63-.66-.945-1.257V44c.315-.597.63-.967.945-1.257.315-.304.63-.493.945-.618.315-.124.63-.113.945.021.315.141.63.307.945.396l.945.281.945.344c.63.255 1.259.504 1.889.833v.417zM36.811 25.093c.224-.69.506-1.323.782-1.961l.443-.929.487-.885c.166-.291.277-.637.406-.966.134-.324.354-.56.671-.7.317-.14.68-.235 1.123-.249.433-.024.924.01 1.575.203l.295.295c.194.651.227 1.141.203 1.575-.014.443-.109.806-.249 1.123-.141.317-.377.537-.7.671-.328.129-.674.24-.966.406l-.885.487-.929.443c-.638.277-1.271.558-1.961.782l-.295-.295zM50.731 21.949c-.63.329-1.259.578-1.889.833l-.945.344-.945.281c-.315.089-.63.255-.945.396-.315.134-.63.145-.945.021-.315-.125-.63-.314-.945-.618-.315-.29-.63-.66-.945-1.257v-.417c.315-.597.63-.967.945-1.257.315-.304.63-.493.945-.618.315-.124.63-.113.945.021.315.141.63.307.945.396l.945.281.945.344c.63.255 1.259.504 1.889.833v.417zM37.86 32.734c-.329-.589-.578-1.178-.833-1.767l-.344-.884-.282-.883c-.089-.295-.255-.589-.396-.884-.134-.295-.145-.589-.021-.884.125-.295.314-.589.618-.884.29-.295.66-.589 1.257-.884h.417c.597.295.967.589 1.257.884.304.295.493.589.618.884s.114.589-.021.884c-.141.295-.307.589-.396.884l-.281.884-.344.884c-.255.589-.504 1.178-.833 1.767l-.416-.001zM38.276 33.214c.329.589.578 1.178.833 1.767l.344.884.281.884c.089.295.255.589.396.884.134.295.145.589.021.884-.125.295-.314.589-.618.884-.29.295-.66.589-1.257.884h-.416c-.597-.295-.968-.589-1.257-.884-.304-.295-.493-.589-.618-.884s-.114-.589.021-.884c.141-.295.307-.589.396-.884l.281-.884.344-.884c.255-.589.504-1.178.833-1.767h.416zM57.079 40.855c-.224.69-.506 1.323-.782 1.961l-.443.929-.487.885c-.166.291-.277.637-.406.966-.134.324-.354.56-.671.7s-.679.235-1.123.249c-.433.024-.924-.01-1.575-.203l-.295-.295c-.194-.651-.227-1.141-.203-1.575.014-.443.109-.806.249-1.123.141-.317.377-.537.701-.671.328-.129.674-.24.966-.406l.885-.487.929-.443c.638-.277 1.271-.558 1.961-.782l.294.295zM56.784 25.388c-.69-.224-1.323-.506-1.961-.782l-.929-.443-.885-.487c-.292-.166-.637-.277-.966-.406-.324-.134-.56-.354-.701-.671-.14-.317-.235-.679-.249-1.123-.024-.433.01-.924.203-1.575l.295-.295c.651-.194 1.141-.227 1.575-.203.443.014.806.109 1.123.249.317.141.537.377.671.7.129.328.24.674.406.966l.487.885.443.929c.277.638.558 1.271.782 1.961l-.294.295zM55.614 32.734c-.329-.589-.578-1.178-.833-1.767l-.344-.884-.282-.883c-.089-.295-.255-.589-.396-.884-.134-.295-.145-.589-.021-.884.125-.295.314-.589.618-.884.29-.295.66-.589 1.257-.884h.417c.597.295.967.589 1.257.884.304.295.493.589.618.884.124.295.113.589-.021.884-.141.295-.307.589-.396.884l-.281.884-.344.884c-.255.589-.504 1.178-.833 1.767l-.416-.001zM56.03 33.214c.329.589.578 1.178.833 1.767l.344.884.281.884c.089.295.255.589.396.884.134.295.145.589.021.884-.125.295-.314.589-.618.884-.29.295-.66.589-1.257.884h-.417c-.597-.295-.967-.589-1.257-.884-.304-.295-.493-.589-.618-.884-.124-.295-.113-.589.021-.884.141-.295.307-.589.396-.884l.281-.884.344-.884c.255-.589.504-1.178.833-1.767h.417z"/>
      </g>
    </g>
    <g class="c2-bold fade-05">
      <path class="green" d="M63.176 40.561c.69.224 1.323.506 1.961.782l.929.443.885.487c.291.166.637.277.966.406.324.134.56.354.701.671.14.317.235.679.249 1.123.024.433-.009.924-.203 1.575l-.295.295c-.651.194-1.141.227-1.575.203-.443-.014-.806-.109-1.123-.249-.317-.141-.537-.377-.671-.7-.129-.328-.24-.674-.406-.966l-.487-.885-.443-.929c-.277-.638-.558-1.271-.782-1.961l.294-.295zM76.801 44.417c-.63.329-1.26.578-1.889.833l-.945.344-.945.281c-.315.089-.63.255-.945.396-.315.134-.63.145-.945.021-.315-.125-.63-.314-.945-.618-.315-.29-.63-.66-.945-1.257V44c.315-.597.63-.967.945-1.257.315-.304.63-.493.945-.618.315-.124.63-.113.945.021.315.141.63.307.945.396l.945.281.945.344c.63.255 1.259.504 1.889.833v.417zM62.881 25.093c.224-.69.506-1.323.782-1.961l.443-.929.487-.885c.166-.291.277-.637.406-.966.134-.324.354-.56.671-.7.317-.14.679-.235 1.123-.249.433-.024.924.01 1.575.203l.295.295c.194.651.227 1.141.203 1.575-.014.443-.109.806-.249 1.123-.141.317-.377.537-.701.671-.328.129-.674.24-.966.406l-.885.487-.929.443c-.638.277-1.271.558-1.961.782l-.294-.295zM76.801 21.949c-.63.329-1.26.578-1.889.833l-.945.344-.945.281c-.315.089-.63.255-.945.396-.315.134-.63.145-.945.021-.315-.125-.63-.314-.945-.618-.315-.29-.63-.66-.945-1.257v-.417c.315-.597.63-.967.945-1.257.315-.304.63-.493.945-.618.315-.124.63-.113.945.021.315.141.63.307.945.396l.945.281.945.344c.63.255 1.259.504 1.889.833v.417zM63.93 32.734c-.329-.589-.578-1.178-.833-1.767l-.344-.884-.282-.883c-.089-.295-.255-.589-.396-.884-.134-.295-.145-.589-.021-.884.125-.295.314-.589.618-.884.29-.295.66-.589 1.257-.884h.417c.597.295.967.589 1.257.884.304.295.493.589.618.884.124.295.113.589-.021.884-.141.295-.307.589-.396.884l-.281.884-.344.884c-.255.589-.504 1.178-.833 1.767l-.416-.001zM64.346 33.214c.329.589.578 1.178.833 1.767l.344.884.281.884c.089.295.255.589.396.884.134.295.145.589.021.884-.125.295-.314.589-.618.884-.29.295-.66.589-1.257.884h-.416c-.597-.295-.967-.589-1.257-.884-.304-.295-.493-.589-.618-.884-.124-.295-.113-.589.021-.884.141-.295.307-.589.396-.884l.281-.884.344-.884c.255-.589.504-1.178.833-1.767h.416zM83.149 40.855c-.224.69-.506 1.323-.782 1.961l-.443.929-.487.885c-.166.291-.277.637-.406.966-.134.324-.354.56-.671.7s-.68.235-1.123.249c-.433.024-.924-.01-1.575-.203l-.295-.295c-.194-.651-.227-1.141-.203-1.575.014-.443.109-.806.249-1.123.141-.317.377-.537.7-.671.328-.129.674-.24.966-.406l.885-.487.929-.443c.638-.277 1.271-.558 1.961-.782l.295.295zM82.855 25.388c-.69-.224-1.323-.506-1.961-.782l-.929-.443-.885-.487c-.291-.166-.637-.277-.966-.406-.323-.134-.56-.354-.7-.671s-.235-.679-.249-1.123c-.024-.433.01-.924.203-1.575l.295-.295c.651-.194 1.141-.227 1.575-.203.443.014.806.109 1.123.249.317.141.537.377.671.7.129.328.24.674.406.966l.487.885.443.929c.277.638.558 1.271.782 1.961l-.295.295z"/>
      <g>
        <path class="green" d="M63.176 40.561c.69.224 1.323.506 1.961.782l.929.443.885.487c.291.166.637.277.966.406.324.134.56.354.701.671.14.317.235.679.249 1.123.024.433-.009.924-.203 1.575l-.295.295c-.651.194-1.141.227-1.575.203-.443-.014-.806-.109-1.123-.249-.317-.141-.537-.377-.671-.7-.129-.328-.24-.674-.406-.966l-.487-.885-.443-.929c-.277-.638-.558-1.271-.782-1.961l.294-.295zM76.801 44.417c-.63.329-1.26.578-1.889.833l-.945.344-.945.281c-.315.089-.63.255-.945.396-.315.134-.63.145-.945.021-.315-.125-.63-.314-.945-.618-.315-.29-.63-.66-.945-1.257V44c.315-.597.63-.967.945-1.257.315-.304.63-.493.945-.618.315-.124.63-.113.945.021.315.141.63.307.945.396l.945.281.945.344c.63.255 1.259.504 1.889.833v.417zM62.881 25.093c.224-.69.506-1.323.782-1.961l.443-.929.487-.885c.166-.291.277-.637.406-.966.134-.324.354-.56.671-.7.317-.14.679-.235 1.123-.249.433-.024.924.01 1.575.203l.295.295c.194.651.227 1.141.203 1.575-.014.443-.109.806-.249 1.123-.141.317-.377.537-.701.671-.328.129-.674.24-.966.406l-.885.487-.929.443c-.638.277-1.271.558-1.961.782l-.294-.295zM76.801 21.949c-.63.329-1.26.578-1.889.833l-.945.344-.945.281c-.315.089-.63.255-.945.396-.315.134-.63.145-.945.021-.315-.125-.63-.314-.945-.618-.315-.29-.63-.66-.945-1.257v-.417c.315-.597.63-.967.945-1.257.315-.304.63-.493.945-.618.315-.124.63-.113.945.021.315.141.63.307.945.396l.945.281.945.344c.63.255 1.259.504 1.889.833v.417zM63.93 32.734c-.329-.589-.578-1.178-.833-1.767l-.344-.884-.282-.883c-.089-.295-.255-.589-.396-.884-.134-.295-.145-.589-.021-.884.125-.295.314-.589.618-.884.29-.295.66-.589 1.257-.884h.417c.597.295.967.589 1.257.884.304.295.493.589.618.884.124.295.113.589-.021.884-.141.295-.307.589-.396.884l-.281.884-.344.884c-.255.589-.504 1.178-.833 1.767l-.416-.001zM64.346 33.214c.329.589.578 1.178.833 1.767l.344.884.281.884c.089.295.255.589.396.884.134.295.145.589.021.884-.125.295-.314.589-.618.884-.29.295-.66.589-1.257.884h-.416c-.597-.295-.967-.589-1.257-.884-.304-.295-.493-.589-.618-.884-.124-.295-.113-.589.021-.884.141-.295.307-.589.396-.884l.281-.884.344-.884c.255-.589.504-1.178.833-1.767h.416zM83.149 40.855c-.224.69-.506 1.323-.782 1.961l-.443.929-.487.885c-.166.291-.277.637-.406.966-.134.324-.354.56-.671.7s-.68.235-1.123.249c-.433.024-.924-.01-1.575-.203l-.295-.295c-.194-.651-.227-1.141-.203-1.575.014-.443.109-.806.249-1.123.141-.317.377-.537.7-.671.328-.129.674-.24.966-.406l.885-.487.929-.443c.638-.277 1.271-.558 1.961-.782l.295.295zM82.855 25.388c-.69-.224-1.323-.506-1.961-.782l-.929-.443-.885-.487c-.291-.166-.637-.277-.966-.406-.323-.134-.56-.354-.7-.671s-.235-.679-.249-1.123c-.024-.433.01-.924.203-1.575l.295-.295c.651-.194 1.141-.227 1.575-.203.443.014.806.109 1.123.249.317.141.537.377.671.7.129.328.24.674.406.966l.487.885.443.929c.277.638.558 1.271.782 1.961l-.295.295z"/>
      </g>
    </g>
    <g class="k1-bold fade-07">
      <path class="green" d="M100.851 25.267c.236-.696.528-1.335.816-1.979l.459-.937.503-.893c.171-.294.288-.643.423-.974.139-.326.365-.565.686-.708.322-.142.688-.238 1.135-.253.437-.025.931.007 1.585.201l.293.296c.186.656.213 1.15.183 1.587-.02.447-.121.813-.266 1.132-.146.319-.388.543-.716.678-.333.131-.683.244-.979.411l-.899.493-.943.448c-.647.28-1.289.565-1.988.793l-.292-.295zM89.343 40.815c.329.479.578.958.833 1.437l.344.718.281.718c.089.239.255.479.396.718.134.239.145.479.021.718-.125.239-.314.479-.618.718-.29.239-.66.479-1.257.718h-.417c-.597-.239-.968-.479-1.257-.718-.304-.239-.493-.479-.618-.718s-.114-.479.021-.718c.141-.239.307-.479.396-.718l.281-.718.344-.718c.255-.479.504-.958.833-1.437h.417zM88.926 25.182c-.329-.479-.578-.958-.833-1.437l-.344-.718-.281-.718c-.089-.239-.255-.479-.396-.718-.134-.239-.145-.479-.021-.718.125-.239.314-.479.618-.718.29-.239.66-.479 1.257-.718h.417c.597.239.967.479 1.257.718.304.239.493.479.618.718s.114.479-.021.718c-.141.239-.307.479-.396.718l-.281.718-.344.718c-.255.479-.504.958-.833 1.437h-.417zM89.734 32.766c.506-.329 1.012-.578 1.518-.833l.759-.344.759-.281c.253-.089.506-.255.759-.396.253-.134.506-.145.759-.021.253.125.506.314.759.618.253.29.506.66.759 1.257v.417c-.253.597-.506.967-.759 1.257-.253.304-.506.493-.759.618-.253.124-.506.113-.759-.021-.253-.141-.506-.307-.759-.396l-.76-.281-.759-.344c-.506-.255-1.012-.504-1.518-.833l.001-.417zM100.822 25.96c-.22.679-.496 1.301-.768 1.927l-.435.912-.479.867c-.163.286-.272.626-.399.949-.131.318-.349.548-.662.682-.313.133-.672.221-1.11.226-.429.016-.914-.026-1.559-.229l-.292-.297c-.194-.648-.228-1.134-.206-1.562.012-.439.105-.796.243-1.107.138-.311.371-.525.691-.652.325-.122.667-.226.954-.385l.874-.466.918-.422c.63-.263 1.256-.53 1.938-.74l.292.297zM101.144 40.497c.699.228 1.341.513 1.988.793l.943.448.899.493c.296.168.646.281.979.411.328.135.569.359.716.678.146.32.246.686.266 1.132.03.437.003.931-.183 1.587l-.293.296c-.653.194-1.147.226-1.585.201-.447-.015-.814-.111-1.135-.253s-.547-.381-.686-.708c-.134-.331-.251-.68-.423-.974l-.503-.893-.459-.937c-.288-.644-.58-1.282-.816-1.979l.292-.295zM100.529 40.397c-.682-.21-1.308-.477-1.938-.74l-.918-.422-.873-.466c-.288-.159-.63-.263-.954-.385-.32-.127-.553-.341-.691-.652s-.23-.668-.243-1.107c-.022-.429.012-.915.206-1.562l.292-.297c.645-.203 1.13-.245 1.559-.229.439.006.797.093 1.11.226.313.134.531.364.662.682.126.323.235.663.399.949l.479.867.435.912c.272.626.548 1.248.768 1.927l-.293.297zM88.926 32.734c-.329-.589-.578-1.178-.833-1.767l-.344-.884-.281-.883c-.089-.295-.255-.589-.396-.884-.134-.295-.145-.589-.021-.884.125-.295.314-.589.618-.884.29-.295.66-.589 1.257-.884h.417c.597.295.967.589 1.257.884.304.295.493.589.618.884s.114.589-.021.884c-.141.295-.307.589-.396.884l-.281.884-.344.884c-.255.589-.504 1.178-.833 1.767l-.417-.001zM89.343 33.214c.329.589.578 1.178.833 1.767l.344.884.281.884c.089.295.255.589.396.884.134.295.145.589.021.884-.125.295-.314.589-.618.884-.29.295-.66.589-1.257.884h-.417c-.597-.295-.968-.589-1.257-.884-.304-.295-.493-.589-.618-.884s-.114-.589.021-.884c.141-.295.307-.589.396-.884l.281-.884.344-.884c.255-.589.504-1.178.833-1.767h.417z"/>
      <g>
        <path class="green" d="M100.851 25.267c.236-.696.528-1.335.816-1.979l.459-.937.503-.893c.171-.294.288-.643.423-.974.139-.326.365-.565.686-.708.322-.142.688-.238 1.135-.253.437-.025.931.007 1.585.201l.293.296c.186.656.213 1.15.183 1.587-.02.447-.121.813-.266 1.132-.146.319-.388.543-.716.678-.333.131-.683.244-.979.411l-.899.493-.943.448c-.647.28-1.289.565-1.988.793l-.292-.295zM89.343 40.815c.329.479.578.958.833 1.437l.344.718.281.718c.089.239.255.479.396.718.134.239.145.479.021.718-.125.239-.314.479-.618.718-.29.239-.66.479-1.257.718h-.417c-.597-.239-.968-.479-1.257-.718-.304-.239-.493-.479-.618-.718s-.114-.479.021-.718c.141-.239.307-.479.396-.718l.281-.718.344-.718c.255-.479.504-.958.833-1.437h.417zM88.926 25.182c-.329-.479-.578-.958-.833-1.437l-.344-.718-.281-.718c-.089-.239-.255-.479-.396-.718-.134-.239-.145-.479-.021-.718.125-.239.314-.479.618-.718.29-.239.66-.479 1.257-.718h.417c.597.239.967.479 1.257.718.304.239.493.479.618.718s.114.479-.021.718c-.141.239-.307.479-.396.718l-.281.718-.344.718c-.255.479-.504.958-.833 1.437h-.417zM89.734 32.766c.506-.329 1.012-.578 1.518-.833l.759-.344.759-.281c.253-.089.506-.255.759-.396.253-.134.506-.145.759-.021.253.125.506.314.759.618.253.29.506.66.759 1.257v.417c-.253.597-.506.967-.759 1.257-.253.304-.506.493-.759.618-.253.124-.506.113-.759-.021-.253-.141-.506-.307-.759-.396l-.76-.281-.759-.344c-.506-.255-1.012-.504-1.518-.833l.001-.417zM100.822 25.96c-.22.679-.496 1.301-.768 1.927l-.435.912-.479.867c-.163.286-.272.626-.399.949-.131.318-.349.548-.662.682-.313.133-.672.221-1.11.226-.429.016-.914-.026-1.559-.229l-.292-.297c-.194-.648-.228-1.134-.206-1.562.012-.439.105-.796.243-1.107.138-.311.371-.525.691-.652.325-.122.667-.226.954-.385l.874-.466.918-.422c.63-.263 1.256-.53 1.938-.74l.292.297zM101.144 40.497c.699.228 1.341.513 1.988.793l.943.448.899.493c.296.168.646.281.979.411.328.135.569.359.716.678.146.32.246.686.266 1.132.03.437.003.931-.183 1.587l-.293.296c-.653.194-1.147.226-1.585.201-.447-.015-.814-.111-1.135-.253s-.547-.381-.686-.708c-.134-.331-.251-.68-.423-.974l-.503-.893-.459-.937c-.288-.644-.58-1.282-.816-1.979l.292-.295zM100.529 40.397c-.682-.21-1.308-.477-1.938-.74l-.918-.422-.873-.466c-.288-.159-.63-.263-.954-.385-.32-.127-.553-.341-.691-.652s-.23-.668-.243-1.107c-.022-.429.012-.915.206-1.562l.292-.297c.645-.203 1.13-.245 1.559-.229.439.006.797.093 1.11.226.313.134.531.364.662.682.126.323.235.663.399.949l.479.867.435.912c.272.626.548 1.248.768 1.927l-.293.297zM88.926 32.734c-.329-.589-.578-1.178-.833-1.767l-.344-.884-.281-.883c-.089-.295-.255-.589-.396-.884-.134-.295-.145-.589-.021-.884.125-.295.314-.589.618-.884.29-.295.66-.589 1.257-.884h.417c.597.295.967.589 1.257.884.304.295.493.589.618.884s.114.589-.021.884c-.141.295-.307.589-.396.884l-.281.884-.344.884c-.255.589-.504 1.178-.833 1.767l-.417-.001zM89.343 33.214c.329.589.578 1.178.833 1.767l.344.884.281.884c.089.295.255.589.396.884.134.295.145.589.021.884-.125.295-.314.589-.618.884-.29.295-.66.589-1.257.884h-.417c-.597-.295-.968-.589-1.257-.884-.304-.295-.493-.589-.618-.884s-.114-.589.021-.884c.141-.295.307-.589.396-.884l.281-.884.344-.884c.255-.589.504-1.178.833-1.767h.417z"/>
      </g>
    </g>
    <g class="t1-bold fade-07">
      <path class="green" d="M123.291 40.815c.329.479.578.958.833 1.437l.344.718.281.718c.089.239.255.479.396.718.134.239.145.479.021.718-.125.239-.314.479-.618.718-.29.239-.66.479-1.257.718h-.417c-.597-.239-.967-.479-1.257-.718-.304-.239-.493-.479-.618-.718-.124-.239-.113-.479.021-.718.141-.239.307-.479.396-.718l.281-.718.344-.718c.255-.479.504-.958.833-1.437h.417zM122.874 25.182c-.329-.479-.578-.958-.833-1.437l-.344-.718-.281-.718c-.089-.239-.255-.479-.396-.718-.134-.239-.145-.479-.021-.718.125-.239.314-.479.618-.718.29-.239.66-.479 1.257-.718h.417c.597.239.967.479 1.257.718.304.239.493.479.618.718.124.239.113.479-.021.718-.141.239-.307.479-.396.718l-.281.718-.344.718c-.255.479-.504.958-.833 1.437h-.417zM122.874 32.734c-.329-.589-.578-1.178-.833-1.767l-.344-.884-.281-.884c-.089-.295-.255-.589-.396-.884-.134-.295-.145-.589-.021-.884.125-.295.314-.589.618-.884.29-.295.66-.589 1.257-.884h.417c.597.295.967.589 1.257.884.304.295.493.589.618.884.124.295.113.589-.021.884-.141.295-.307.589-.396.884l-.281.884-.344.884c-.255.589-.504 1.178-.833 1.767h-.417zM123.291 33.214c.329.589.578 1.178.833 1.767l.344.884.281.884c.089.295.255.589.396.884.134.295.145.589.021.884-.125.295-.314.589-.618.884-.29.295-.66.589-1.257.884h-.417c-.597-.295-.967-.589-1.257-.884-.304-.295-.493-.589-.618-.884-.124-.295-.113-.589.021-.884.141-.295.307-.589.396-.884l.281-.884.344-.884c.255-.589.504-1.178.833-1.767h.417zM110.2 21.766c.869-.329 1.738-.578 2.608-.833l1.304-.344 1.304-.281c.435-.089.869-.255 1.304-.396.435-.134.869-.145 1.304-.021.435.125.869.314 1.304.618.435.29.869.66 1.304 1.257v.417c-.435.597-.869.967-1.304 1.257-.435.304-.869.493-1.304.618-.435.124-.869.113-1.304-.021-.435-.141-.869-.307-1.304-.396l-1.304-.281-1.304-.344c-.869-.255-1.738-.504-2.608-.833v-.417zM136.033 22.183c-.869.329-1.738.578-2.608.833l-1.304.344-1.304.281c-.435.089-.869.255-1.304.396-.435.134-.869.145-1.304.021-.435-.125-.869-.314-1.304-.618-.435-.29-.869-.66-1.304-1.257v-.417c.435-.597.869-.967 1.304-1.257.435-.304.869-.493 1.304-.618.435-.124.869-.113 1.304.021.435.141.869.307 1.304.396l1.304.281 1.304.344c.869.255 1.738.504 2.608.833v.417z"/>
      <g>
        <path class="green" d="M123.291 40.815c.329.479.578.958.833 1.437l.344.718.281.718c.089.239.255.479.396.718.134.239.145.479.021.718-.125.239-.314.479-.618.718-.29.239-.66.479-1.257.718h-.417c-.597-.239-.967-.479-1.257-.718-.304-.239-.493-.479-.618-.718-.124-.239-.113-.479.021-.718.141-.239.307-.479.396-.718l.281-.718.344-.718c.255-.479.504-.958.833-1.437h.417zM122.874 25.182c-.329-.479-.578-.958-.833-1.437l-.344-.718-.281-.718c-.089-.239-.255-.479-.396-.718-.134-.239-.145-.479-.021-.718.125-.239.314-.479.618-.718.29-.239.66-.479 1.257-.718h.417c.597.239.967.479 1.257.718.304.239.493.479.618.718.124.239.113.479-.021.718-.141.239-.307.479-.396.718l-.281.718-.344.718c-.255.479-.504.958-.833 1.437h-.417zM122.874 32.734c-.329-.589-.578-1.178-.833-1.767l-.344-.884-.281-.884c-.089-.295-.255-.589-.396-.884-.134-.295-.145-.589-.021-.884.125-.295.314-.589.618-.884.29-.295.66-.589 1.257-.884h.417c.597.295.967.589 1.257.884.304.295.493.589.618.884.124.295.113.589-.021.884-.141.295-.307.589-.396.884l-.281.884-.344.884c-.255.589-.504 1.178-.833 1.767h-.417zM123.291 33.214c.329.589.578 1.178.833 1.767l.344.884.281.884c.089.295.255.589.396.884.134.295.145.589.021.884-.125.295-.314.589-.618.884-.29.295-.66.589-1.257.884h-.417c-.597-.295-.967-.589-1.257-.884-.304-.295-.493-.589-.618-.884-.124-.295-.113-.589.021-.884.141-.295.307-.589.396-.884l.281-.884.344-.884c.255-.589.504-1.178.833-1.767h.417zM110.2 21.766c.869-.329 1.738-.578 2.608-.833l1.304-.344 1.304-.281c.435-.089.869-.255 1.304-.396.435-.134.869-.145 1.304-.021.435.125.869.314 1.304.618.435.29.869.66 1.304 1.257v.417c-.435.597-.869.967-1.304 1.257-.435.304-.869.493-1.304.618-.435.124-.869.113-1.304-.021-.435-.141-.869-.307-1.304-.396l-1.304-.281-1.304-.344c-.869-.255-1.738-.504-2.608-.833v-.417zM136.033 22.183c-.869.329-1.738.578-2.608.833l-1.304.344-1.304.281c-.435.089-.869.255-1.304.396-.435.134-.869.145-1.304.021-.435-.125-.869-.314-1.304-.618-.435-.29-.869-.66-1.304-1.257v-.417c.435-.597.869-.967 1.304-1.257.435-.304.869-.493 1.304-.618.435-.124.869-.113 1.304.021.435.141.869.307 1.304.396l1.304.281 1.304.344c.869.255 1.738.504 2.608.833v.417z"/>
      </g>
    </g>
    <g class="a1-bold fade-05">
      <path class="green" d="M139.466 40.815c.329.479.578.958.833 1.437l.344.718.281.718c.089.239.255.479.396.718.134.239.145.479.021.718-.125.239-.314.479-.618.718-.29.239-.66.479-1.257.718h-.417c-.597-.239-.967-.479-1.257-.718-.304-.239-.493-.479-.618-.718-.124-.239-.113-.479.021-.718.141-.239.307-.479.396-.718l.281-.718.344-.718c.255-.479.504-.958.833-1.437h.417zM157.22 40.815c.329.479.578.958.833 1.437l.344.718.281.718c.089.239.255.479.396.718.134.239.145.479.021.718-.125.239-.314.479-.618.718-.29.239-.66.479-1.257.718h-.417c-.597-.239-.967-.479-1.257-.718-.304-.239-.493-.479-.618-.718s-.114-.479.021-.718c.141-.239.307-.479.396-.718l.281-.718.344-.718c.255-.479.504-.958.833-1.437h.417zM151.921 33.981c-.63.329-1.26.578-1.889.833l-.945.344-.945.281c-.315.089-.63.255-.945.396-.315.134-.63.145-.945.021-.315-.125-.63-.314-.945-.618-.315-.29-.63-.66-.945-1.257v-.417c.315-.597.63-.967.945-1.257.315-.304.63-.493.945-.618.315-.124.63-.113.945.021.315.141.63.307.945.396l.945.281.945.344c.63.255 1.259.504 1.889.833v.417zM138.001 25.093c.224-.69.506-1.323.782-1.961l.443-.929.487-.885c.166-.291.277-.637.406-.966.134-.324.354-.56.671-.7.317-.14.679-.235 1.123-.249.433-.024.924.01 1.575.203l.295.295c.194.651.227 1.141.203 1.575-.014.443-.109.806-.249 1.123-.141.317-.377.537-.7.671-.328.129-.674.24-.966.406l-.885.487-.929.443c-.638.277-1.271.558-1.961.782l-.295-.295zM151.921 21.949c-.63.329-1.26.578-1.889.833l-.945.344-.945.281c-.315.089-.63.255-.945.396-.315.134-.63.145-.945.021-.315-.125-.63-.314-.945-.618-.315-.29-.63-.66-.945-1.257v-.417c.315-.597.63-.967.945-1.257.315-.304.63-.493.945-.618.315-.124.63-.113.945.021.315.141.63.307.945.396l.945.281.945.344c.63.255 1.259.504 1.889.833v.417zM139.049 32.734c-.329-.589-.578-1.178-.833-1.767l-.344-.884-.281-.884c-.089-.295-.255-.589-.396-.884-.134-.295-.145-.589-.021-.884.125-.295.314-.589.618-.884.29-.295.66-.589 1.257-.884h.417c.597.295.967.589 1.257.884.304.295.493.589.618.884.124.295.113.589-.021.884-.141.295-.307.589-.396.884l-.281.884-.344.884c-.255.589-.504 1.178-.833 1.767h-.417zM139.466 33.214c.329.589.578 1.178.833 1.767l.344.884.281.884c.089.295.255.589.396.884.134.295.145.589.021.884-.125.295-.314.589-.618.884-.29.295-.66.589-1.257.884h-.417c-.597-.295-.967-.589-1.257-.884-.304-.295-.493-.589-.618-.884-.124-.295-.113-.589.021-.884.141-.295.307-.589.396-.884l.281-.884.344-.884c.255-.589.504-1.178.833-1.767h.417zM157.974 25.388c-.69-.224-1.323-.506-1.961-.782l-.929-.443-.885-.487c-.291-.166-.637-.277-.966-.406-.323-.134-.56-.354-.7-.671s-.235-.679-.249-1.123c-.024-.433.01-.924.203-1.575l.295-.295c.651-.194 1.141-.227 1.575-.203.443.014.806.109 1.123.249.317.141.537.377.671.7.129.328.24.674.406.966l.487.885.443.929c.277.638.558 1.271.782 1.961l-.295.295zM156.804 32.734c-.329-.589-.578-1.178-.833-1.767l-.344-.884-.281-.884c-.089-.295-.255-.589-.396-.884-.134-.295-.145-.589-.021-.884.125-.295.314-.589.618-.884.29-.295.66-.589 1.257-.884h.417c.597.295.967.589 1.257.884.304.295.493.589.618.884.124.295.113.589-.021.884-.141.295-.307.589-.396.884l-.281.884-.344.884c-.255.589-.504 1.178-.833 1.767h-.417zM157.22 33.214c.329.589.578 1.178.833 1.767l.344.884.281.884c.089.295.255.589.396.884.134.295.145.589.021.884-.125.295-.314.589-.618.884-.29.295-.66.589-1.257.884h-.417c-.597-.295-.967-.589-1.257-.884-.304-.295-.493-.589-.618-.884s-.114-.589.021-.884c.141-.295.307-.589.396-.884l.281-.884.344-.884c.255-.589.504-1.178.833-1.767h.417z"/>
      <g>
        <path class="green" d="M139.466 40.815c.329.479.578.958.833 1.437l.344.718.281.718c.089.239.255.479.396.718.134.239.145.479.021.718-.125.239-.314.479-.618.718-.29.239-.66.479-1.257.718h-.417c-.597-.239-.967-.479-1.257-.718-.304-.239-.493-.479-.618-.718-.124-.239-.113-.479.021-.718.141-.239.307-.479.396-.718l.281-.718.344-.718c.255-.479.504-.958.833-1.437h.417zM157.22 40.815c.329.479.578.958.833 1.437l.344.718.281.718c.089.239.255.479.396.718.134.239.145.479.021.718-.125.239-.314.479-.618.718-.29.239-.66.479-1.257.718h-.417c-.597-.239-.967-.479-1.257-.718-.304-.239-.493-.479-.618-.718s-.114-.479.021-.718c.141-.239.307-.479.396-.718l.281-.718.344-.718c.255-.479.504-.958.833-1.437h.417zM151.921 33.981c-.63.329-1.26.578-1.889.833l-.945.344-.945.281c-.315.089-.63.255-.945.396-.315.134-.63.145-.945.021-.315-.125-.63-.314-.945-.618-.315-.29-.63-.66-.945-1.257v-.417c.315-.597.63-.967.945-1.257.315-.304.63-.493.945-.618.315-.124.63-.113.945.021.315.141.63.307.945.396l.945.281.945.344c.63.255 1.259.504 1.889.833v.417zM138.001 25.093c.224-.69.506-1.323.782-1.961l.443-.929.487-.885c.166-.291.277-.637.406-.966.134-.324.354-.56.671-.7.317-.14.679-.235 1.123-.249.433-.024.924.01 1.575.203l.295.295c.194.651.227 1.141.203 1.575-.014.443-.109.806-.249 1.123-.141.317-.377.537-.7.671-.328.129-.674.24-.966.406l-.885.487-.929.443c-.638.277-1.271.558-1.961.782l-.295-.295zM151.921 21.949c-.63.329-1.26.578-1.889.833l-.945.344-.945.281c-.315.089-.63.255-.945.396-.315.134-.63.145-.945.021-.315-.125-.63-.314-.945-.618-.315-.29-.63-.66-.945-1.257v-.417c.315-.597.63-.967.945-1.257.315-.304.63-.493.945-.618.315-.124.63-.113.945.021.315.141.63.307.945.396l.945.281.945.344c.63.255 1.259.504 1.889.833v.417zM139.049 32.734c-.329-.589-.578-1.178-.833-1.767l-.344-.884-.281-.884c-.089-.295-.255-.589-.396-.884-.134-.295-.145-.589-.021-.884.125-.295.314-.589.618-.884.29-.295.66-.589 1.257-.884h.417c.597.295.967.589 1.257.884.304.295.493.589.618.884.124.295.113.589-.021.884-.141.295-.307.589-.396.884l-.281.884-.344.884c-.255.589-.504 1.178-.833 1.767h-.417zM139.466 33.214c.329.589.578 1.178.833 1.767l.344.884.281.884c.089.295.255.589.396.884.134.295.145.589.021.884-.125.295-.314.589-.618.884-.29.295-.66.589-1.257.884h-.417c-.597-.295-.967-.589-1.257-.884-.304-.295-.493-.589-.618-.884-.124-.295-.113-.589.021-.884.141-.295.307-.589.396-.884l.281-.884.344-.884c.255-.589.504-1.178.833-1.767h.417zM157.974 25.388c-.69-.224-1.323-.506-1.961-.782l-.929-.443-.885-.487c-.291-.166-.637-.277-.966-.406-.323-.134-.56-.354-.7-.671s-.235-.679-.249-1.123c-.024-.433.01-.924.203-1.575l.295-.295c.651-.194 1.141-.227 1.575-.203.443.014.806.109 1.123.249.317.141.537.377.671.7.129.328.24.674.406.966l.487.885.443.929c.277.638.558 1.271.782 1.961l-.295.295zM156.804 32.734c-.329-.589-.578-1.178-.833-1.767l-.344-.884-.281-.884c-.089-.295-.255-.589-.396-.884-.134-.295-.145-.589-.021-.884.125-.295.314-.589.618-.884.29-.295.66-.589 1.257-.884h.417c.597.295.967.589 1.257.884.304.295.493.589.618.884.124.295.113.589-.021.884-.141.295-.307.589-.396.884l-.281.884-.344.884c-.255.589-.504 1.178-.833 1.767h-.417zM157.22 33.214c.329.589.578 1.178.833 1.767l.344.884.281.884c.089.295.255.589.396.884.134.295.145.589.021.884-.125.295-.314.589-.618.884-.29.295-.66.589-1.257.884h-.417c-.597-.295-.967-.589-1.257-.884-.304-.295-.493-.589-.618-.884s-.114-.589.021-.884c.141-.295.307-.589.396-.884l.281-.884.344-.884c.255-.589.504-1.178.833-1.767h.417z"/>
      </g>
    </g>
    <g class="i1-bold fade-03">
      <path class="green" d="M165.419 40.856c.329.479.578.958.833 1.437l.344.718.281.718c.089.239.255.479.396.718.134.239.145.479.021.718-.125.239-.314.479-.618.718-.29.239-.66.479-1.257.718h-.417c-.597-.239-.967-.479-1.257-.718-.304-.239-.493-.479-.618-.718s-.114-.479.021-.718c.141-.239.307-.479.396-.718l.281-.718.344-.718c.255-.479.504-.958.833-1.437h.417zM165.003 25.223c-.329-.479-.578-.958-.833-1.437l-.344-.718-.281-.718c-.089-.239-.255-.479-.396-.718-.134-.239-.145-.479-.021-.718.125-.239.314-.479.618-.718.29-.239.66-.479 1.257-.718h.417c.597.239.967.479 1.257.718.304.239.493.479.618.718.124.239.113.479-.021.718-.141.239-.307.479-.396.718l-.281.718-.344.718c-.255.479-.504.958-.833 1.437h-.417zM165.003 32.775c-.329-.589-.578-1.178-.833-1.767l-.344-.884-.281-.884c-.089-.295-.255-.589-.396-.884-.134-.295-.145-.589-.021-.884.125-.295.314-.589.618-.884.29-.295.66-.589 1.257-.884h.417c.597.295.967.589 1.257.884.304.295.493.589.618.884.124.295.113.589-.021.884-.141.295-.307.589-.396.884l-.281.884-.344.884c-.255.589-.504 1.178-.833 1.767h-.417zM165.419 33.255c.329.589.578 1.178.833 1.767l.344.884.281.884c.089.295.255.589.396.884.134.295.145.589.021.884-.125.295-.314.589-.618.884-.29.295-.66.589-1.257.884h-.417c-.597-.295-.967-.589-1.257-.884-.304-.295-.493-.589-.618-.884s-.114-.589.021-.884c.141-.295.307-.589.396-.884l.281-.884.344-.884c.255-.589.504-1.178.833-1.767h.417z"/>
      <g>
        <path class="green" d="M165.419 40.856c.329.479.578.958.833 1.437l.344.718.281.718c.089.239.255.479.396.718.134.239.145.479.021.718-.125.239-.314.479-.618.718-.29.239-.66.479-1.257.718h-.417c-.597-.239-.967-.479-1.257-.718-.304-.239-.493-.479-.618-.718s-.114-.479.021-.718c.141-.239.307-.479.396-.718l.281-.718.344-.718c.255-.479.504-.958.833-1.437h.417zM165.003 25.223c-.329-.479-.578-.958-.833-1.437l-.344-.718-.281-.718c-.089-.239-.255-.479-.396-.718-.134-.239-.145-.479-.021-.718.125-.239.314-.479.618-.718.29-.239.66-.479 1.257-.718h.417c.597.239.967.479 1.257.718.304.239.493.479.618.718.124.239.113.479-.021.718-.141.239-.307.479-.396.718l-.281.718-.344.718c-.255.479-.504.958-.833 1.437h-.417zM165.003 32.775c-.329-.589-.578-1.178-.833-1.767l-.344-.884-.281-.884c-.089-.295-.255-.589-.396-.884-.134-.295-.145-.589-.021-.884.125-.295.314-.589.618-.884.29-.295.66-.589 1.257-.884h.417c.597.295.967.589 1.257.884.304.295.493.589.618.884.124.295.113.589-.021.884-.141.295-.307.589-.396.884l-.281.884-.344.884c-.255.589-.504 1.178-.833 1.767h-.417zM165.419 33.255c.329.589.578 1.178.833 1.767l.344.884.281.884c.089.295.255.589.396.884.134.295.145.589.021.884-.125.295-.314.589-.618.884-.29.295-.66.589-1.257.884h-.417c-.597-.295-.967-.589-1.257-.884-.304-.295-.493-.589-.618-.884s-.114-.589.021-.884c.141-.295.307-.589.396-.884l.281-.884.344-.884c.255-.589.504-1.178.833-1.767h.417z"/>
      </g>
    </g>
    <g class="l1-bold fade-03">
      <path class="green" d="M173.579 40.815c.329.479.578.958.833 1.437l.344.718.281.718c.089.239.255.479.396.718.134.239.145.479.021.718-.125.239-.314.479-.618.718-.29.239-.66.479-1.257.718h-.417c-.597-.239-.967-.479-1.257-.718-.304-.239-.493-.479-.618-.718-.124-.239-.113-.479.021-.718.141-.239.307-.479.396-.718l.281-.718.344-.718c.255-.479.504-.958.833-1.437h.417zM173.162 25.182c-.329-.479-.578-.958-.833-1.437l-.344-.718-.281-.718c-.089-.239-.255-.479-.396-.718-.134-.239-.145-.479-.021-.718.125-.239.314-.479.618-.718.29-.239.66-.479 1.257-.718h.417c.597.239.967.479 1.257.718.304.239.493.479.618.718s.114.479-.021.718c-.141.239-.307.479-.396.718l-.281.718-.344.718c-.255.479-.504.958-.833 1.437h-.417zM173.162 32.734c-.329-.589-.578-1.178-.833-1.767l-.344-.884-.281-.884c-.089-.295-.255-.589-.396-.884-.134-.295-.145-.589-.021-.884.125-.295.314-.589.618-.884.29-.295.66-.589 1.257-.884h.417c.597.295.967.589 1.257.884.304.295.493.589.618.884s.114.589-.021.884c-.141.295-.307.589-.396.884l-.281.884-.344.884c-.255.589-.504 1.178-.833 1.767h-.417zM173.579 33.214c.329.589.578 1.178.833 1.767l.344.884.281.884c.089.295.255.589.396.884.134.295.145.589.021.884-.125.295-.314.589-.618.884-.29.295-.66.589-1.257.884h-.417c-.597-.295-.967-.589-1.257-.884-.304-.295-.493-.589-.618-.884-.124-.295-.113-.589.021-.884.141-.295.307-.589.396-.884l.281-.884.344-.884c.255-.589.504-1.178.833-1.767h.417zM183.475 44.417c-.63.329-1.259.578-1.889.833l-.945.344-.945.281c-.315.089-.63.255-.945.396-.315.134-.63.145-.945.021-.315-.125-.63-.314-.945-.618-.315-.29-.63-.66-.945-1.257V44c.315-.597.63-.967.945-1.257.315-.304.63-.493.945-.618.315-.124.63-.113.945.021.315.141.63.307.945.396l.945.281.945.344c.63.255 1.26.504 1.889.833v.417zM189.823 40.855c-.224.69-.505 1.323-.782 1.961l-.443.929-.487.885c-.166.291-.277.637-.406.966-.134.324-.354.56-.671.7s-.68.235-1.123.249c-.433.024-.924-.01-1.575-.203l-.295-.295c-.194-.651-.227-1.141-.203-1.575.014-.443.109-.806.249-1.123.141-.317.377-.537.7-.671.328-.129.674-.24.966-.406l.885-.487.929-.443c.638-.277 1.271-.558 1.961-.782l.295.295z"/>
      <g>
        <path class="green" d="M173.579 40.815c.329.479.578.958.833 1.437l.344.718.281.718c.089.239.255.479.396.718.134.239.145.479.021.718-.125.239-.314.479-.618.718-.29.239-.66.479-1.257.718h-.417c-.597-.239-.967-.479-1.257-.718-.304-.239-.493-.479-.618-.718-.124-.239-.113-.479.021-.718.141-.239.307-.479.396-.718l.281-.718.344-.718c.255-.479.504-.958.833-1.437h.417zM173.162 25.182c-.329-.479-.578-.958-.833-1.437l-.344-.718-.281-.718c-.089-.239-.255-.479-.396-.718-.134-.239-.145-.479-.021-.718.125-.239.314-.479.618-.718.29-.239.66-.479 1.257-.718h.417c.597.239.967.479 1.257.718.304.239.493.479.618.718s.114.479-.021.718c-.141.239-.307.479-.396.718l-.281.718-.344.718c-.255.479-.504.958-.833 1.437h-.417zM173.162 32.734c-.329-.589-.578-1.178-.833-1.767l-.344-.884-.281-.884c-.089-.295-.255-.589-.396-.884-.134-.295-.145-.589-.021-.884.125-.295.314-.589.618-.884.29-.295.66-.589 1.257-.884h.417c.597.295.967.589 1.257.884.304.295.493.589.618.884s.114.589-.021.884c-.141.295-.307.589-.396.884l-.281.884-.344.884c-.255.589-.504 1.178-.833 1.767h-.417zM173.579 33.214c.329.589.578 1.178.833 1.767l.344.884.281.884c.089.295.255.589.396.884.134.295.145.589.021.884-.125.295-.314.589-.618.884-.29.295-.66.589-1.257.884h-.417c-.597-.295-.967-.589-1.257-.884-.304-.295-.493-.589-.618-.884-.124-.295-.113-.589.021-.884.141-.295.307-.589.396-.884l.281-.884.344-.884c.255-.589.504-1.178.833-1.767h.417zM183.475 44.417c-.63.329-1.259.578-1.889.833l-.945.344-.945.281c-.315.089-.63.255-.945.396-.315.134-.63.145-.945.021-.315-.125-.63-.314-.945-.618-.315-.29-.63-.66-.945-1.257V44c.315-.597.63-.967.945-1.257.315-.304.63-.493.945-.618.315-.124.63-.113.945.021.315.141.63.307.945.396l.945.281.945.344c.63.255 1.26.504 1.889.833v.417zM189.823 40.855c-.224.69-.505 1.323-.782 1.961l-.443.929-.487.885c-.166.291-.277.637-.406.966-.134.324-.354.56-.671.7s-.68.235-1.123.249c-.433.024-.924-.01-1.575-.203l-.295-.295c-.194-.651-.227-1.141-.203-1.575.014-.443.109-.806.249-1.123.141-.317.377-.537.7-.671.328-.129.674-.24.966-.406l.885-.487.929-.443c.638-.277 1.271-.558 1.961-.782l.295.295z"/>
      </g>
    </g>
    <g class="s1-bold fade-01">
      <path class="green" d="M193.131 32.734c-.329-.589-.578-1.178-.833-1.767l-.344-.884-.281-.884c-.089-.295-.255-.589-.396-.884-.134-.295-.145-.589-.021-.884.125-.295.314-.589.618-.884.29-.295.66-.589 1.257-.884h.417c.597.295.967.589 1.257.884.304.295.493.589.618.884s.114.589-.021.884c-.141.295-.307.589-.396.884l-.281.884-.344.884c-.255.589-.504 1.178-.833 1.767h-.417zM201.905 33.444c-.67.329-1.341.578-2.011.833l-1.005.344-1.005.281c-.335.089-.67.255-1.005.396-.335.134-.67.145-1.005.021-.335-.125-.67-.314-1.005-.618-.335-.29-.67-.66-1.005-1.257v-.417c.335-.597.67-.967 1.005-1.257.335-.304.67-.493 1.005-.618.335-.124.67-.113 1.005.021.335.141.67.307 1.005.396l1.005.281 1.005.344c.67.255 1.341.504 2.011.833v.417zM202.368 33.028c.661-.329 1.322-.578 1.983-.833l.991-.344.991-.281c.33-.089.661-.255.991-.396.33-.134.661-.145.991-.021.33.125.661.314.991.618.33.29.661.66.991 1.257v.417c-.33.597-.661.967-.991 1.257-.33.304-.661.493-.991.618-.33.124-.661.113-.991-.021-.33-.141-.661-.307-.991-.396l-.991-.281-.991-.344c-.661-.255-1.322-.504-1.983-.833v-.417zM192.082 25.093c.224-.69.506-1.323.782-1.961l.443-.929.487-.885c.166-.291.277-.637.406-.966.134-.324.354-.56.671-.7.317-.14.68-.235 1.123-.249.433-.024.924.01 1.575.203l.295.295c.194.651.227 1.141.203 1.575-.014.443-.109.806-.249 1.123-.141.317-.377.537-.7.671-.328.129-.674.24-.966.406l-.885.487-.929.443c-.638.277-1.271.558-1.961.782l-.295-.295zM206.002 21.949c-.63.329-1.259.578-1.889.833l-.945.344-.945.281c-.315.089-.63.255-.945.396-.315.134-.63.145-.945.021-.315-.125-.63-.314-.945-.618-.315-.29-.63-.66-.945-1.257v-.417c.315-.597.63-.967.945-1.257.315-.304.63-.493.945-.618.315-.124.63-.113.945.021.315.141.63.307.945.396l.945.281.945.344c.63.255 1.259.504 1.889.833v.417zM212.055 25.388c-.69-.224-1.323-.506-1.961-.782l-.929-.443-.885-.487c-.292-.166-.637-.277-.966-.406-.324-.134-.56-.354-.701-.671-.14-.317-.235-.679-.249-1.123-.024-.433.01-.924.203-1.575l.295-.295c.651-.194 1.141-.227 1.575-.203.443.014.806.109 1.123.249.317.141.537.377.671.7.129.328.24.674.406.966l.487.885.443.929c.277.638.558 1.271.782 1.961l-.294.295zM212.35 40.861c-.224.69-.506 1.323-.782 1.961l-.443.929-.487.885c-.166.291-.277.637-.406.966-.134.324-.354.56-.671.7s-.679.235-1.123.249c-.433.024-.924-.01-1.575-.203l-.295-.295c-.194-.651-.227-1.141-.203-1.575.014-.443.109-.806.249-1.123.141-.317.377-.537.701-.671.328-.129.674-.24.966-.406l.885-.487.929-.443c.638-.277 1.271-.558 1.961-.782l.294.295zM198.43 44.006c.63-.329 1.259-.578 1.889-.833l.945-.344.945-.281c.315-.089.63-.255.945-.396.315-.134.63-.145.945-.021.315.125.63.314.945.618.315.29.63.66.945 1.257v.417c-.315.597-.63.967-.945 1.257-.315.304-.63.493-.945.618-.315.124-.63.113-.945-.021-.315-.141-.63-.307-.945-.396l-.945-.281-.945-.344c-.63-.255-1.26-.504-1.889-.833v-.417zM211.301 33.22c.329.589.578 1.178.833 1.767l.344.884.281.884c.089.295.255.589.396.884.134.295.145.589.021.884-.125.295-.314.589-.618.884-.29.295-.66.589-1.257.884h-.417c-.597-.295-.967-.589-1.257-.884-.304-.295-.493-.589-.618-.884-.124-.295-.113-.589.021-.884.141-.295.307-.589.396-.884l.281-.884.344-.884c.255-.589.504-1.178.833-1.767h.417zM192.377 40.567c.69.224 1.323.506 1.961.782l.929.443.885.487c.291.166.637.277.966.406.323.134.56.354.7.671s.235.679.249 1.123c.024.433-.01.924-.203 1.575l-.295.295c-.651.194-1.141.227-1.575.203-.443-.014-.806-.109-1.123-.249-.317-.141-.537-.377-.671-.7-.129-.328-.24-.674-.406-.966l-.487-.885-.443-.929c-.277-.638-.558-1.271-.782-1.961l.295-.295z"/>
      <g>
        <path class="green" d="M193.131 32.734c-.329-.589-.578-1.178-.833-1.767l-.344-.884-.281-.884c-.089-.295-.255-.589-.396-.884-.134-.295-.145-.589-.021-.884.125-.295.314-.589.618-.884.29-.295.66-.589 1.257-.884h.417c.597.295.967.589 1.257.884.304.295.493.589.618.884s.114.589-.021.884c-.141.295-.307.589-.396.884l-.281.884-.344.884c-.255.589-.504 1.178-.833 1.767h-.417zM201.905 33.444c-.67.329-1.341.578-2.011.833l-1.005.344-1.005.281c-.335.089-.67.255-1.005.396-.335.134-.67.145-1.005.021-.335-.125-.67-.314-1.005-.618-.335-.29-.67-.66-1.005-1.257v-.417c.335-.597.67-.967 1.005-1.257.335-.304.67-.493 1.005-.618.335-.124.67-.113 1.005.021.335.141.67.307 1.005.396l1.005.281 1.005.344c.67.255 1.341.504 2.011.833v.417zM202.368 33.028c.661-.329 1.322-.578 1.983-.833l.991-.344.991-.281c.33-.089.661-.255.991-.396.33-.134.661-.145.991-.021.33.125.661.314.991.618.33.29.661.66.991 1.257v.417c-.33.597-.661.967-.991 1.257-.33.304-.661.493-.991.618-.33.124-.661.113-.991-.021-.33-.141-.661-.307-.991-.396l-.991-.281-.991-.344c-.661-.255-1.322-.504-1.983-.833v-.417zM192.082 25.093c.224-.69.506-1.323.782-1.961l.443-.929.487-.885c.166-.291.277-.637.406-.966.134-.324.354-.56.671-.7.317-.14.68-.235 1.123-.249.433-.024.924.01 1.575.203l.295.295c.194.651.227 1.141.203 1.575-.014.443-.109.806-.249 1.123-.141.317-.377.537-.7.671-.328.129-.674.24-.966.406l-.885.487-.929.443c-.638.277-1.271.558-1.961.782l-.295-.295zM206.002 21.949c-.63.329-1.259.578-1.889.833l-.945.344-.945.281c-.315.089-.63.255-.945.396-.315.134-.63.145-.945.021-.315-.125-.63-.314-.945-.618-.315-.29-.63-.66-.945-1.257v-.417c.315-.597.63-.967.945-1.257.315-.304.63-.493.945-.618.315-.124.63-.113.945.021.315.141.63.307.945.396l.945.281.945.344c.63.255 1.259.504 1.889.833v.417zM212.055 25.388c-.69-.224-1.323-.506-1.961-.782l-.929-.443-.885-.487c-.292-.166-.637-.277-.966-.406-.324-.134-.56-.354-.701-.671-.14-.317-.235-.679-.249-1.123-.024-.433.01-.924.203-1.575l.295-.295c.651-.194 1.141-.227 1.575-.203.443.014.806.109 1.123.249.317.141.537.377.671.7.129.328.24.674.406.966l.487.885.443.929c.277.638.558 1.271.782 1.961l-.294.295zM212.35 40.861c-.224.69-.506 1.323-.782 1.961l-.443.929-.487.885c-.166.291-.277.637-.406.966-.134.324-.354.56-.671.7s-.679.235-1.123.249c-.433.024-.924-.01-1.575-.203l-.295-.295c-.194-.651-.227-1.141-.203-1.575.014-.443.109-.806.249-1.123.141-.317.377-.537.701-.671.328-.129.674-.24.966-.406l.885-.487.929-.443c.638-.277 1.271-.558 1.961-.782l.294.295zM198.43 44.006c.63-.329 1.259-.578 1.889-.833l.945-.344.945-.281c.315-.089.63-.255.945-.396.315-.134.63-.145.945-.021.315.125.63.314.945.618.315.29.63.66.945 1.257v.417c-.315.597-.63.967-.945 1.257-.315.304-.63.493-.945.618-.315.124-.63.113-.945-.021-.315-.141-.63-.307-.945-.396l-.945-.281-.945-.344c-.63-.255-1.26-.504-1.889-.833v-.417zM211.301 33.22c.329.589.578 1.178.833 1.767l.344.884.281.884c.089.295.255.589.396.884.134.295.145.589.021.884-.125.295-.314.589-.618.884-.29.295-.66.589-1.257.884h-.417c-.597-.295-.967-.589-1.257-.884-.304-.295-.493-.589-.618-.884-.124-.295-.113-.589.021-.884.141-.295.307-.589.396-.884l.281-.884.344-.884c.255-.589.504-1.178.833-1.767h.417zM192.377 40.567c.69.224 1.323.506 1.961.782l.929.443.885.487c.291.166.637.277.966.406.323.134.56.354.7.671s.235.679.249 1.123c.024.433-.01.924-.203 1.575l-.295.295c-.651.194-1.141.227-1.575.203-.443-.014-.806-.109-1.123-.249-.317-.141-.537-.377-.671-.7-.129-.328-.24-.674-.406-.966l-.487-.885-.443-.929c-.277-.638-.558-1.271-.782-1.961l.295-.295z"/>
      </g>
    </g>
  </g>
  <g class="cocktails-thin">
    <g class="c1-thin">
      <path class="green" d="M11.865 25.093c.479-.749 4.836-5.68 5.487-5.487l.295.295c.194.651-4.897 5.13-5.487 5.487l-.295-.295zM25.786 21.949c-.786.207-7.244.597-7.559 0v-.417c.315-.597 6.585-.188 7.559 0v.417zM12.914 32.734c-.258-.859-.597-6.775 0-7.07h.417c.481.524.329 6.482 0 7.071l-.417-.001zM13.331 33.214c.138.692.597 6.776 0 7.071h-.417c-.597-.295-.143-6.327 0-7.071h.417zM31.839 25.388c-.714-.419-5.68-4.836-5.487-5.487l.295-.295c.651-.194 5.041 4.769 5.487 5.487l-.295.295zM12.16 40.546c.59.357 5.681 4.836 5.487 5.487l-.295.295c-.651.193-5.008-4.738-5.487-5.487l.295-.295zM25.786 44.402c-.973.188-7.244.597-7.559 0v-.417c.315-.597 6.773-.207 7.559 0v.417zM32.134 40.841c-.446.718-4.836 5.681-5.487 5.487l-.295-.295c-.193-.651 4.773-5.068 5.487-5.487l.295.295z"/>
      <g>
        <path class="green" d="M11.865 25.093c.479-.749 4.836-5.68 5.487-5.487l.295.295c.194.651-4.897 5.13-5.487 5.487l-.295-.295zM25.786 21.949c-.786.207-7.244.597-7.559 0v-.417c.315-.597 6.585-.188 7.559 0v.417zM12.914 32.734c-.258-.859-.597-6.775 0-7.07h.417c.481.524.329 6.482 0 7.071l-.417-.001zM13.331 33.214c.138.692.597 6.776 0 7.071h-.417c-.597-.295-.143-6.327 0-7.071h.417zM31.839 25.388c-.714-.419-5.68-4.836-5.487-5.487l.295-.295c.651-.194 5.041 4.769 5.487 5.487l-.295.295zM12.16 40.546c.59.357 5.681 4.836 5.487 5.487l-.295.295c-.651.193-5.008-4.738-5.487-5.487l.295-.295zM25.786 44.402c-.973.188-7.244.597-7.559 0v-.417c.315-.597 6.773-.207 7.559 0v.417zM32.134 40.841c-.446.718-4.836 5.681-5.487 5.487l-.295-.295c-.193-.651 4.773-5.068 5.487-5.487l.295.295z"/>
      </g>
    </g>
    <g class="o1-thin">
      <path class="green" d="M37.105 40.561c.69.224 5.68 4.836 5.487 5.487l-.295.295c-.651.194-5.263-4.797-5.487-5.487l.295-.295zM50.731 44.417c-.63.329-7.244.597-7.559 0V44c.315-.597 6.929-.329 7.559 0v.417zM36.811 25.093c.224-.69 4.836-5.68 5.487-5.487l.295.295c.194.651-4.797 5.263-5.487 5.487l-.295-.295zM50.731 21.949c-.63.329-7.244.597-7.559 0v-.417c.315-.597 6.929-.329 7.559 0v.417zM37.86 32.734c-.329-.589-.598-6.775-.001-7.07h.417c.597.295.329 6.482 0 7.071l-.416-.001zM38.276 33.214c.329.589.597 6.776 0 7.071h-.416c-.597-.295-.329-6.482 0-7.071h.416zM57.079 40.855c-.224.69-4.836 5.68-5.487 5.487l-.295-.295c-.194-.651 4.798-5.263 5.488-5.487l.294.295zM56.784 25.388c-.69-.224-5.681-4.836-5.488-5.487l.295-.295c.651-.194 5.263 4.797 5.487 5.487l-.294.295zM55.614 32.734c-.329-.589-.598-6.775-.001-7.07h.417c.597.295.329 6.482 0 7.071l-.416-.001zM56.03 33.214c.329.589.597 6.776 0 7.071h-.417c-.597-.295-.329-6.482 0-7.071h.417z"/>
      <g>
        <path class="green" d="M37.105 40.561c.69.224 5.68 4.836 5.487 5.487l-.295.295c-.651.194-5.263-4.797-5.487-5.487l.295-.295zM50.731 44.417c-.63.329-7.244.597-7.559 0V44c.315-.597 6.929-.329 7.559 0v.417zM36.811 25.093c.224-.69 4.836-5.68 5.487-5.487l.295.295c.194.651-4.797 5.263-5.487 5.487l-.295-.295zM50.731 21.949c-.63.329-7.244.597-7.559 0v-.417c.315-.597 6.929-.329 7.559 0v.417zM37.86 32.734c-.329-.589-.598-6.775-.001-7.07h.417c.597.295.329 6.482 0 7.071l-.416-.001zM38.276 33.214c.329.589.597 6.776 0 7.071h-.416c-.597-.295-.329-6.482 0-7.071h.416zM57.079 40.855c-.224.69-4.836 5.68-5.487 5.487l-.295-.295c-.194-.651 4.798-5.263 5.488-5.487l.294.295zM56.784 25.388c-.69-.224-5.681-4.836-5.488-5.487l.295-.295c.651-.194 5.263 4.797 5.487 5.487l-.294.295zM55.614 32.734c-.329-.589-.598-6.775-.001-7.07h.417c.597.295.329 6.482 0 7.071l-.416-.001zM56.03 33.214c.329.589.597 6.776 0 7.071h-.417c-.597-.295-.329-6.482 0-7.071h.417z"/>
      </g>
    </g>
    <g class="c2-thin">
      <path class="green" d="M63.176 40.561c.69.224 5.682 4.836 5.488 5.487l-.295.295c-.651.194-5.263-4.797-5.487-5.487l.294-.295zM76.801 44.417c-.63.329-7.244.597-7.559 0V44c.315-.597 6.929-.329 7.559 0v.417zM62.881 25.093c.224-.69 4.836-5.68 5.487-5.487l.295.295c.194.651-4.798 5.263-5.488 5.487l-.294-.295zM76.801 21.949c-.63.329-7.244.597-7.559 0v-.417c.315-.597 6.929-.329 7.559 0v.417zM63.93 32.734c-.329-.589-.598-6.775-.001-7.07h.417c.597.295.329 6.482 0 7.071l-.416-.001zM64.346 33.214c.329.589.597 6.776 0 7.071h-.416c-.597-.295-.329-6.482 0-7.071h.416zM83.149 40.855c-.224.69-4.836 5.68-5.487 5.487l-.295-.295c-.194-.651 4.797-5.263 5.487-5.487l.295.295zM82.855 25.388c-.69-.224-5.68-4.836-5.487-5.487l.295-.295c.651-.194 5.263 4.797 5.487 5.487l-.295.295z"/>
      <g>
        <path class="green" d="M63.176 40.561c.69.224 5.682 4.836 5.488 5.487l-.295.295c-.651.194-5.263-4.797-5.487-5.487l.294-.295zM76.801 44.417c-.63.329-7.244.597-7.559 0V44c.315-.597 6.929-.329 7.559 0v.417zM62.881 25.093c.224-.69 4.836-5.68 5.487-5.487l.295.295c.194.651-4.798 5.263-5.488 5.487l-.294-.295zM76.801 21.949c-.63.329-7.244.597-7.559 0v-.417c.315-.597 6.929-.329 7.559 0v.417zM63.93 32.734c-.329-.589-.598-6.775-.001-7.07h.417c.597.295.329 6.482 0 7.071l-.416-.001zM64.346 33.214c.329.589.597 6.776 0 7.071h-.416c-.597-.295-.329-6.482 0-7.071h.416zM83.149 40.855c-.224.69-4.836 5.68-5.487 5.487l-.295-.295c-.194-.651 4.797-5.263 5.487-5.487l.295.295zM82.855 25.388c-.69-.224-5.68-4.836-5.487-5.487l.295-.295c.651-.194 5.263 4.797 5.487 5.487l-.295.295z"/>
      </g>
    </g>
    <g class="k1-thin">
      <path class="green" d="M100.851 25.267c.236-.696 4.953-5.737 5.607-5.543l.293.296c.186.656-4.909 5.314-5.608 5.542l-.292-.295zM89.343 40.815c.329.479.597 5.506 0 5.745h-.417c-.597-.239-.329-5.266 0-5.745h.417zM88.926 25.182c-.329-.479-.597-5.506 0-5.745h.417c.597.239.329 5.266 0 5.745h-.417zM89.734 32.766c.506-.329 5.819-.597 6.072 0v.417c-.253.597-5.567.329-6.073 0l.001-.417zM100.822 25.96c-.22.679-4.767 5.537-5.412 5.334l-.292-.297c-.194-.648 4.73-5.124 5.412-5.334l.292.297zM101.144 40.497c.699.228 5.794 4.886 5.608 5.542l-.293.296c-.653.194-5.371-4.846-5.607-5.543l.292-.295zM100.529 40.397c-.682-.21-5.605-4.687-5.411-5.334l.292-.297c.645-.203 5.192 4.655 5.412 5.334l-.293.297zM88.926 32.734c-.329-.589-.597-6.775 0-7.07h.417c.597.295.329 6.482 0 7.071l-.417-.001zM89.343 33.214c.329.589.597 6.776 0 7.071h-.417c-.597-.295-.329-6.482 0-7.071h.417z"/>
      <g>
        <path class="green" d="M100.851 25.267c.236-.696 4.953-5.737 5.607-5.543l.293.296c.186.656-4.909 5.314-5.608 5.542l-.292-.295zM89.343 40.815c.329.479.597 5.506 0 5.745h-.417c-.597-.239-.329-5.266 0-5.745h.417zM88.926 25.182c-.329-.479-.597-5.506 0-5.745h.417c.597.239.329 5.266 0 5.745h-.417zM89.734 32.766c.506-.329 5.819-.597 6.072 0v.417c-.253.597-5.567.329-6.073 0l.001-.417zM100.822 25.96c-.22.679-4.767 5.537-5.412 5.334l-.292-.297c-.194-.648 4.73-5.124 5.412-5.334l.292.297zM101.144 40.497c.699.228 5.794 4.886 5.608 5.542l-.293.296c-.653.194-5.371-4.846-5.607-5.543l.292-.295zM100.529 40.397c-.682-.21-5.605-4.687-5.411-5.334l.292-.297c.645-.203 5.192 4.655 5.412 5.334l-.293.297zM88.926 32.734c-.329-.589-.597-6.775 0-7.07h.417c.597.295.329 6.482 0 7.071l-.417-.001zM89.343 33.214c.329.589.597 6.776 0 7.071h-.417c-.597-.295-.329-6.482 0-7.071h.417z"/>
      </g>
    </g>
    <g class="t1-thin">
      <path class="green" d="M123.291 40.815c.329.479.597 5.506 0 5.745h-.417c-.597-.239-.329-5.266 0-5.745h.417zM122.874 25.182c-.329-.479-.597-5.506 0-5.745h.417c.597.239.329 5.266 0 5.745h-.417zM122.874 32.734c-.329-.589-.597-6.776 0-7.071h.417c.597.295.329 6.482 0 7.071h-.417zM123.291 33.214c.329.589.597 6.776 0 7.071h-.417c-.597-.295-.329-6.482 0-7.071h.417zM110.2 21.766c.869-.329 9.997-.597 10.432 0v.417c-.435.597-9.562.329-10.432 0v-.417zM136.033 22.183c-.869.329-9.997.597-10.432 0v-.417c.435-.597 9.562-.329 10.432 0v.417z"/>
      <g>
        <path class="green" d="M123.291 40.815c.329.479.597 5.506 0 5.745h-.417c-.597-.239-.329-5.266 0-5.745h.417zM122.874 25.182c-.329-.479-.597-5.506 0-5.745h.417c.597.239.329 5.266 0 5.745h-.417zM122.874 32.734c-.329-.589-.597-6.776 0-7.071h.417c.597.295.329 6.482 0 7.071h-.417zM123.291 33.214c.329.589.597 6.776 0 7.071h-.417c-.597-.295-.329-6.482 0-7.071h.417zM110.2 21.766c.869-.329 9.997-.597 10.432 0v.417c-.435.597-9.562.329-10.432 0v-.417zM136.033 22.183c-.869.329-9.997.597-10.432 0v-.417c.435-.597 9.562-.329 10.432 0v.417z"/>
      </g>
    </g>
    <g class="a1-thin">
      <path class="green" d="M139.466 40.815c.329.479.597 5.506 0 5.745h-.417c-.597-.239-.329-5.266 0-5.745h.417zM157.22 40.815c.329.479.597 5.506 0 5.745h-.417c-.597-.239-.329-5.266 0-5.745h.417zM151.921 33.981c-.63.329-7.244.597-7.559 0v-.417c.315-.597 6.929-.329 7.559 0v.417zM138.001 25.093c.224-.69 4.836-5.68 5.487-5.487l.295.295c.194.651-4.797 5.263-5.487 5.487l-.295-.295zM151.921 21.949c-.63.329-7.244.597-7.559 0v-.417c.315-.597 6.929-.329 7.559 0v.417zM139.049 32.734c-.329-.589-.597-6.776 0-7.071h.417c.597.295.329 6.482 0 7.071h-.417zM139.466 33.214c.329.589.597 6.776 0 7.071h-.417c-.597-.295-.329-6.482 0-7.071h.417zM157.974 25.388c-.69-.224-5.68-4.836-5.487-5.487l.295-.295c.651-.194 5.263 4.797 5.487 5.487l-.295.295zM156.804 32.734c-.329-.589-.597-6.776 0-7.071h.417c.597.295.329 6.482 0 7.071h-.417zM157.22 33.214c.329.589.597 6.776 0 7.071h-.417c-.597-.295-.329-6.482 0-7.071h.417z"/>
      <g>
        <path class="green" d="M139.466 40.815c.329.479.597 5.506 0 5.745h-.417c-.597-.239-.329-5.266 0-5.745h.417zM157.22 40.815c.329.479.597 5.506 0 5.745h-.417c-.597-.239-.329-5.266 0-5.745h.417zM151.921 33.981c-.63.329-7.244.597-7.559 0v-.417c.315-.597 6.929-.329 7.559 0v.417zM138.001 25.093c.224-.69 4.836-5.68 5.487-5.487l.295.295c.194.651-4.797 5.263-5.487 5.487l-.295-.295zM151.921 21.949c-.63.329-7.244.597-7.559 0v-.417c.315-.597 6.929-.329 7.559 0v.417zM139.049 32.734c-.329-.589-.597-6.776 0-7.071h.417c.597.295.329 6.482 0 7.071h-.417zM139.466 33.214c.329.589.597 6.776 0 7.071h-.417c-.597-.295-.329-6.482 0-7.071h.417zM157.974 25.388c-.69-.224-5.68-4.836-5.487-5.487l.295-.295c.651-.194 5.263 4.797 5.487 5.487l-.295.295zM156.804 32.734c-.329-.589-.597-6.776 0-7.071h.417c.597.295.329 6.482 0 7.071h-.417zM157.22 33.214c.329.589.597 6.776 0 7.071h-.417c-.597-.295-.329-6.482 0-7.071h.417z"/>
      </g>
    </g>
    <g class="i1-thin">
      <path class="green" d="M165.419 40.856c.329.479.597 5.506 0 5.745h-.417c-.597-.239-.329-5.266 0-5.745h.417zM165.003 25.223c-.329-.479-.597-5.506 0-5.745h.417c.597.239.329 5.266 0 5.745h-.417zM165.003 32.775c-.329-.589-.597-6.776 0-7.071h.417c.597.295.329 6.482 0 7.071h-.417zM165.419 33.255c.329.589.597 6.776 0 7.071h-.417c-.597-.295-.329-6.482 0-7.071h.417z"/>
      <g>
        <path class="green" d="M165.419 40.856c.329.479.597 5.506 0 5.745h-.417c-.597-.239-.329-5.266 0-5.745h.417zM165.003 25.223c-.329-.479-.597-5.506 0-5.745h.417c.597.239.329 5.266 0 5.745h-.417zM165.003 32.775c-.329-.589-.597-6.776 0-7.071h.417c.597.295.329 6.482 0 7.071h-.417zM165.419 33.255c.329.589.597 6.776 0 7.071h-.417c-.597-.295-.329-6.482 0-7.071h.417z"/>
      </g>
    </g>
    <g class="l1-thin">
      <path class="green" d="M173.579 40.815c.329.479.597 5.506 0 5.745h-.417c-.597-.239-.329-5.266 0-5.745h.417zM173.162 25.182c-.329-.479-.597-5.506 0-5.745h.417c.597.239.329 5.266 0 5.745h-.417zM173.162 32.734c-.329-.589-.597-6.776 0-7.071h.417c.597.295.329 6.482 0 7.071h-.417zM173.579 33.214c.329.589.597 6.776 0 7.071h-.417c-.597-.295-.329-6.482 0-7.071h.417zM183.475 44.417c-.63.329-7.244.597-7.559 0V44c.315-.597 6.93-.329 7.559 0v.417zM189.823 40.855c-.224.69-4.836 5.68-5.487 5.487l-.295-.295c-.194-.651 4.797-5.263 5.487-5.487l.295.295z"/>
      <g>
        <path class="green" d="M173.579 40.815c.329.479.597 5.506 0 5.745h-.417c-.597-.239-.329-5.266 0-5.745h.417zM173.162 25.182c-.329-.479-.597-5.506 0-5.745h.417c.597.239.329 5.266 0 5.745h-.417zM173.162 32.734c-.329-.589-.597-6.776 0-7.071h.417c.597.295.329 6.482 0 7.071h-.417zM173.579 33.214c.329.589.597 6.776 0 7.071h-.417c-.597-.295-.329-6.482 0-7.071h.417zM183.475 44.417c-.63.329-7.244.597-7.559 0V44c.315-.597 6.93-.329 7.559 0v.417zM189.823 40.855c-.224.69-4.836 5.68-5.487 5.487l-.295-.295c-.194-.651 4.797-5.263 5.487-5.487l.295.295z"/>
      </g>
    </g>
    <g class="s1-thin">
      <path class="green" d="M193.131 32.734c-.329-.589-.597-6.776 0-7.071h.417c.597.295.329 6.482 0 7.071h-.417zM201.905 33.444c-.67.329-7.706.597-8.041 0v-.417c.335-.597 7.371-.329 8.041 0v.417zM202.368 33.028c.661-.329 7.599-.597 7.929 0v.417c-.33.597-7.268.329-7.929 0v-.417zM192.082 25.093c.224-.69 4.836-5.68 5.487-5.487l.295.295c.194.651-4.797 5.263-5.487 5.487l-.295-.295zM206.002 21.949c-.63.329-7.244.597-7.559 0v-.417c.315-.597 6.929-.329 7.559 0v.417zM212.055 25.388c-.69-.224-5.681-4.836-5.488-5.487l.295-.295c.651-.194 5.263 4.797 5.487 5.487l-.294.295zM212.35 40.861c-.224.69-4.836 5.68-5.487 5.487l-.295-.295c-.194-.651 4.798-5.263 5.488-5.487l.294.295zM198.43 44.006c.63-.329 7.244-.597 7.559 0v.417c-.315.597-6.93.329-7.559 0v-.417zM211.301 33.22c.329.589.597 6.776 0 7.071h-.417c-.597-.295-.329-6.482 0-7.071h.417zM192.377 40.567c.69.224 5.68 4.836 5.487 5.487l-.295.295c-.651.194-5.263-4.797-5.487-5.487l.295-.295z"/>
      <g>
        <path class="green" d="M193.131 32.734c-.329-.589-.597-6.776 0-7.071h.417c.597.295.329 6.482 0 7.071h-.417zM201.905 33.444c-.67.329-7.706.597-8.041 0v-.417c.335-.597 7.371-.329 8.041 0v.417zM202.368 33.028c.661-.329 7.599-.597 7.929 0v.417c-.33.597-7.268.329-7.929 0v-.417zM192.082 25.093c.224-.69 4.836-5.68 5.487-5.487l.295.295c.194.651-4.797 5.263-5.487 5.487l-.295-.295zM206.002 21.949c-.63.329-7.244.597-7.559 0v-.417c.315-.597 6.929-.329 7.559 0v.417zM212.055 25.388c-.69-.224-5.681-4.836-5.488-5.487l.295-.295c.651-.194 5.263 4.797 5.487 5.487l-.294.295zM212.35 40.861c-.224.69-4.836 5.68-5.487 5.487l-.295-.295c-.194-.651 4.798-5.263 5.488-5.487l.294.295zM198.43 44.006c.63-.329 7.244-.597 7.559 0v.417c-.315.597-6.93.329-7.559 0v-.417zM211.301 33.22c.329.589.597 6.776 0 7.071h-.417c-.597-.295-.329-6.482 0-7.071h.417zM192.377 40.567c.69.224 5.68 4.836 5.487 5.487l-.295.295c-.651.194-5.263-4.797-5.487-5.487l.295-.295z"/>
      </g>
    </g>
  </g>
  <g class="cocktails-regular">
    <g class="c1-regular fade-02">
      <path class="green" d="M11.865 25.093c.479-.749 1.291-2.062 1.291-2.062s.965-1.577 1.094-1.906c.134-.324.746-1.11 1.062-1.25.317-.14 1.389-.462 2.039-.269l.295.295c.194.651-.139 1.165-.303 1.568-.281.688-.349.721-.781 1.031-.287.205-1.211.797-1.5.969-.395.235-1.562.969-1.562.969-.638.277-.75.594-1.34.95l-.295-.295zM25.786 21.949c-.786.207-1.38.364-1.911.551-.469.166-2 .406-2 .406-.315.089-1.373.093-1.688-.031-.315-.125-1.645-.329-1.96-.926v-.417c.315-.597 1.364-.939 1.679-1.063.315-.124 1.394-.007 1.719.031.531.062 1.513.46 2 .562.594.125 1.188.281 2.161.469v.418zM12.914 32.734c-.258-.859-.384-1.421-.539-1.953-.1-.342-.289-.998-.375-1.375-.068-.3-.143-.437-.156-.875-.031-1-.034-1.219.281-1.781.202-.361.192-.791.789-1.086h.417c.481.524.531.787.731 1.149.327.59.353 1.611.219 1.906-.141.295-.344 1.438-.344 1.438s-.277 1.99-.606 2.579l-.417-.002zM13.331 33.214c.138.692.231 1.307.419 1.973.108.385.469 1.531.469 1.531.089.295.115.619.188.938.09.396.124.799 0 1.094-.125.295-.478 1.24-1.075 1.535h-.417c-.597-.295-1.244-1.275-1.31-1.588-.107-.506.021-.56.021-.884 0-.344.186-.886.25-1.188.086-.405.42-1.076.562-1.479.25-.708.333-1.188.477-1.932h.416zM31.839 25.388c-.714-.419-1.326-.706-1.964-.982l-1.531-.938c-.291-.166-1.266-.902-1.406-1.219-.14-.317-.779-1.698-.586-2.349l.295-.295c.651-.194 1.661.316 1.978.456.317.141 1.201 1.369 1.375 1.656.269.445.719 1.125 1.125 1.75.379.583.562.906 1.009 1.624l-.295.297zM12.16 40.546c.59.357.702.673 1.34.95 0 0 1.167.734 1.562.969.289.172 1.213.763 1.5.969.433.31.5.344.781 1.031.165.402.497.917.303 1.568l-.295.295c-.651.193-1.722-.129-2.039-.269-.317-.14-.929-.926-1.062-1.25-.129-.329-1.094-1.906-1.094-1.906s-.812-1.312-1.291-2.062l.295-.295zM25.786 44.402c-.973.188-1.567.345-2.161.47-.487.103-1.469.5-2 .562-.325.038-1.404.156-1.719.031-.315-.125-1.364-.466-1.679-1.063v-.417c.315-.597 1.645-.801 1.96-.926.315-.124 1.372-.12 1.688-.031 0 0 1.531.241 2 .406.531.188 1.125.344 1.911.551v.417zM32.134 40.841c-.446.718-.63 1.041-1.009 1.624-.406.625-.856 1.305-1.125 1.75-.174.287-1.058 1.515-1.375 1.656-.317.14-1.327.65-1.978.456l-.295-.295c-.193-.651.446-2.032.586-2.349.14-.317 1.115-1.053 1.406-1.219l1.531-.938c.638-.276 1.25-.562 1.964-.982l.295.297z"/>
    </g>
    <g class="o1-regular fade-04">
      <path class="green" d="M36.802 25.093c.479-.749 1.291-2.062 1.291-2.062s.965-1.577 1.094-1.906c.134-.324.745-1.11 1.062-1.25.317-.14 1.389-.462 2.039-.269l.295.295c.194.651-.139 1.165-.303 1.568-.28.687-.347.721-.78 1.031-.287.205-1.211.797-1.5.969-.395.235-1.562.969-1.562.969-.638.277-.75.594-1.34.95l-.296-.295zM50.723 21.949c-.786.207-1.38.364-1.911.551-.469.166-2 .406-2 .406-.315.089-1.373.093-1.688-.031-.315-.125-1.646-.329-1.96-.926v-.417c.315-.597 1.364-.939 1.679-1.063.315-.124 1.394-.007 1.719.031.531.062 1.513.46 2 .562.594.125 1.188.281 2.161.469v.418zM37.852 32.734c-.258-.859-.384-1.421-.539-1.953-.1-.342-.289-.998-.375-1.375-.068-.3-.143-.437-.156-.875-.031-1-.034-1.219.281-1.781.202-.361.192-.791.789-1.086h.417c.481.524.531.787.731 1.148.327.59.353 1.611.219 1.906-.141.295-.344 1.438-.344 1.438s-.278 1.99-.606 2.579l-.417-.001zM38.269 33.214c.138.692.231 1.307.419 1.973.108.385.469 1.531.469 1.531.089.295.115.619.188.938.09.396.124.799 0 1.094-.125.295-.478 1.24-1.075 1.535h-.417c-.597-.295-1.244-1.275-1.31-1.588-.107-.506.021-.56.021-.884 0-.344.186-.886.25-1.188.086-.405.42-1.076.562-1.479.25-.708.333-1.188.477-1.932h.416zM55.664 32.734c-.258-.859-.384-1.421-.539-1.953-.1-.342-.289-.998-.375-1.375-.068-.3-.143-.437-.156-.875-.031-1-.034-1.219.281-1.781.202-.361.192-.791.789-1.086h.417c.481.524.531.787.731 1.149.327.59.353 1.611.219 1.906-.141.295-.344 1.438-.344 1.438s-.278 1.99-.606 2.579l-.417-.002zM56.081 33.214c.138.692.231 1.307.419 1.973.108.385.469 1.531.469 1.531.089.295.115.619.188.938.09.396.124.799 0 1.094-.125.295-.478 1.24-1.075 1.535h-.417c-.597-.295-1.244-1.275-1.31-1.588-.107-.506.021-.56.021-.884 0-.344.186-.886.25-1.188.086-.405.42-1.076.562-1.479.25-.708.333-1.188.477-1.932h.416zM56.777 25.388c-.714-.419-1.326-.706-1.964-.982l-1.531-.938c-.291-.166-1.266-.902-1.406-1.219s-.779-1.698-.586-2.349l.295-.295c.651-.194 1.661.316 1.978.456.317.141 1.201 1.369 1.375 1.656.269.445.719 1.125 1.125 1.75.379.583.562.906 1.009 1.624l-.295.297zM37.097 40.546c.59.357.702.673 1.34.95 0 0 1.167.734 1.562.969.289.172 1.213.763 1.5.969.433.31.5.344.781 1.031.165.402.497.917.303 1.568l-.295.295c-.651.193-1.722-.129-2.039-.269-.317-.14-.929-.926-1.062-1.25-.129-.329-1.094-1.906-1.094-1.906s-.812-1.312-1.291-2.062l.295-.295zM50.723 44.402c-.973.188-1.567.345-2.161.47-.487.103-1.469.5-2 .562-.325.038-1.404.156-1.719.031-.315-.125-1.364-.466-1.679-1.063v-.417c.315-.597 1.645-.801 1.96-.926.315-.124 1.372-.12 1.688-.031 0 0 1.531.241 2 .406.531.188 1.125.344 1.911.551v.417zM57.071 40.841c-.446.718-.63 1.041-1.009 1.624-.406.625-.856 1.305-1.125 1.75-.174.287-1.058 1.515-1.375 1.656-.317.14-1.327.65-1.978.456l-.295-.295c-.193-.651.446-2.032.586-2.349.14-.317 1.115-1.053 1.406-1.219l1.531-.938c.638-.276 1.25-.562 1.964-.982l.295.297z"/>
    </g>
    <g class="c2-regular fade-06">
      <path class="green" d="M62.865 25.093c.479-.749 1.291-2.062 1.291-2.062s.965-1.577 1.094-1.906c.134-.324.745-1.11 1.062-1.25.317-.14 1.389-.462 2.039-.269l.295.295c.194.651-.139 1.165-.303 1.568-.281.688-.349.721-.781 1.031-.287.205-1.211.797-1.5.969-.395.235-1.562.969-1.562.969-.638.277-.75.594-1.34.95l-.295-.295zM76.786 21.949c-.786.207-1.38.364-1.911.551-.469.166-2 .406-2 .406-.315.089-1.373.093-1.688-.031-.315-.125-1.646-.329-1.96-.926v-.417c.315-.597 1.364-.939 1.679-1.063.315-.124 1.394-.007 1.719.031.531.062 1.513.46 2 .562.594.125 1.188.281 2.161.469v.418zM63.914 32.734c-.258-.859-.384-1.421-.539-1.953-.1-.342-.289-.998-.375-1.375-.068-.3-.143-.437-.156-.875-.031-1-.034-1.219.281-1.781.202-.361.192-.791.789-1.086h.417c.481.524.531.787.731 1.149.327.59.353 1.611.219 1.906-.141.295-.344 1.438-.344 1.438s-.277 1.99-.606 2.579l-.417-.002zM64.331 33.214c.138.692.231 1.307.419 1.973.108.385.469 1.531.469 1.531.089.295.115.619.188.938.09.396.124.799 0 1.094-.125.295-.478 1.24-1.075 1.535h-.417c-.597-.295-1.244-1.275-1.31-1.588-.107-.506.021-.56.021-.884 0-.344.186-.886.25-1.188.086-.405.42-1.076.562-1.479.25-.708.333-1.188.477-1.932h.416zM82.839 25.388c-.714-.419-1.326-.706-1.964-.982l-1.531-.938c-.291-.166-1.266-.902-1.406-1.219s-.779-1.698-.586-2.349l.295-.295c.651-.194 1.661.316 1.978.456.317.141 1.201 1.369 1.375 1.656.269.445.719 1.125 1.125 1.75.379.583.562.906 1.009 1.624l-.295.297zM63.16 40.546c.59.357.702.673 1.34.95 0 0 1.167.734 1.562.969.289.172 1.213.763 1.5.969.433.31.5.344.781 1.031.165.402.497.917.303 1.568l-.295.295c-.651.193-1.722-.129-2.039-.269-.317-.14-.928-.926-1.062-1.25-.129-.329-1.094-1.906-1.094-1.906s-.812-1.312-1.291-2.062l.295-.295zM76.786 44.402c-.973.188-1.567.345-2.161.47-.487.103-1.469.5-2 .562-.325.038-1.404.156-1.719.031-.315-.125-1.364-.466-1.679-1.063v-.417c.315-.597 1.645-.801 1.96-.926.315-.124 1.372-.12 1.688-.031 0 0 1.531.241 2 .406.531.188 1.125.344 1.911.551v.417zM83.134 40.841c-.447.718-.63 1.041-1.009 1.624-.406.625-.856 1.305-1.125 1.75-.174.287-1.058 1.515-1.375 1.656-.317.14-1.327.65-1.978.456l-.295-.295c-.193-.651.446-2.032.586-2.349.14-.317 1.115-1.053 1.406-1.219l1.531-.938c.638-.276 1.25-.562 1.964-.982l.295.297z"/>
    </g>
    <g class="k1-regular fade-08">
      <path class="green" d="M100.851 25.267c.236-.696.622-1.257.93-1.892.226-.465.841-1.143 1.094-1.594.166-.297 1.03-1 1.312-1.219.688-.531 1.616-1.032 2.27-.838l.293.296c.186.656-.637 1.724-.782 2.042-.146.319-.969 1.156-1.281 1.375-.424.297-1.345.936-1.812 1.156-.638.301-1.033.74-1.732.968l-.292-.294zM89.734 32.766c.506-.329 1.01-.462 1.547-.641.562-.188 1.097-.273 1.5-.375.528-.134 1.694-.191 2.188.156.315.221.584.263.837.86v.417c-.253.597-.492.608-.837.723-.75.25-1.987.176-2.25.125-.362-.071-1.115-.052-1.469-.156-.544-.16-1.011-.363-1.517-.692l.001-.417zM100.822 25.96c-.22.679-1.004 2.01-1.416 2.634-.337.511-1.224 1.727-1.5 1.938-.531.406-1.851.966-2.496.763l-.292-.297c-.194-.648.494-1.53.632-1.841.138-.311 1.031-1.188 1.406-1.469.4-.3 1.163-.947 1.562-1.156.605-.317 1.129-.658 1.811-.868l.293.296zM100.83 40.796c.236.696.622 1.257.93 1.892.226.465.841 1.143 1.094 1.594.166.297 1.03 1 1.312 1.219.688.531 1.616 1.033 2.27.839l.293-.296c.186-.656-.637-1.724-.782-2.042-.146-.319-.969-1.156-1.281-1.375-.424-.297-1.345-.936-1.812-1.156-.638-.301-1.033-.74-1.732-.968l-.292.293zM100.801 40.103c-.22-.679-1.004-2.01-1.416-2.634-.337-.511-1.224-1.727-1.5-1.938-.531-.406-1.851-.966-2.496-.763l-.292.297c-.194.648.494 1.53.632 1.841.138.311 1.031 1.188 1.406 1.469.4.3 1.163.947 1.562 1.156.605.317 1.129.658 1.811.868l.293-.296zM89.327 40.815c.329.479.479 1.061.659 1.435.169.353.281 1.39.281 1.781 0 .469 0 1-.125 1.406-.174.564-.218.883-.815 1.122h-.417c-.597-.239-.959-1.118-1.049-1.372-.106-.3.044-1.183.062-1.438.031-.438.174-1.12.312-1.469.2-.504.345-.987.674-1.466h.418zM88.888 25.185c-.329-.479-.479-1.061-.659-1.435-.169-.353-.281-1.39-.281-1.781 0-.469 0-1 .125-1.406.174-.564.218-.883.815-1.122h.417c.597.239.959 1.118 1.049 1.372.106.3-.044 1.183-.062 1.438-.031.438-.174 1.12-.312 1.469-.2.504-.345.987-.674 1.466h-.418zM88.905 32.734c-.258-.859-.384-1.421-.539-1.953-.1-.342-.289-.998-.375-1.375-.068-.3-.143-.437-.156-.875-.031-1-.034-1.219.281-1.781.202-.361.192-.791.789-1.086h.417c.481.524.531.787.731 1.149.327.59.353 1.611.219 1.906-.141.295-.344 1.438-.344 1.438s-.278 1.99-.606 2.579l-.417-.002zM89.322 33.214c.138.692.231 1.307.419 1.973.108.385.469 1.531.469 1.531.089.295.115.619.188.938.09.396.124.799 0 1.094-.125.295-.478 1.24-1.075 1.535h-.417c-.597-.295-1.244-1.275-1.31-1.588-.107-.506.021-.56.021-.884 0-.344.186-.886.25-1.188.086-.405.42-1.076.562-1.479.25-.708.333-1.188.477-1.932h.416z"/>
    </g>
    <g class="t1-regular fade-08">
      <path class="green" d="M110.2 21.766c.869-.329 1.61-.445 2.488-.672.38-.098 1.147-.263 1.531-.344.609-.128 1.795-.302 2.25-.344.688-.062 2.159-.054 2.594.25.435.29 1.135.513 1.57 1.11v.417c-.435.597-1.885 1.036-2.32 1.161-.435.124-1.094.098-1.625.125-.625.031-1.785-.021-2.438-.188-.327-.083-1.081-.191-1.406-.281-.872-.243-1.774-.488-2.644-.817v-.417zM136.007 21.766c-.869-.329-1.61-.445-2.488-.672-.38-.098-1.147-.263-1.531-.344-.609-.128-1.795-.302-2.25-.344-.688-.062-2.159-.054-2.594.25-.435.29-1.135.513-1.57 1.11v.417c.435.597 1.885 1.036 2.32 1.161.435.124 1.094.098 1.625.125.625.031 1.785-.021 2.438-.188.327-.083 1.081-.191 1.406-.281.872-.243 1.774-.488 2.644-.817v-.417zM123.299 40.815c.329.479.479 1.061.659 1.435.169.353.281 1.39.281 1.781 0 .469 0 1-.125 1.406-.174.564-.218.883-.815 1.122h-.417c-.597-.239-.959-1.118-1.049-1.372-.106-.3.044-1.183.062-1.438.031-.438.174-1.12.312-1.469.2-.504.345-.987.674-1.466h.418zM122.861 25.185c-.329-.479-.479-1.061-.659-1.435-.169-.353-.281-1.39-.281-1.781 0-.469 0-1 .125-1.406.174-.564.218-.883.815-1.122h.417c.597.239.959 1.118 1.049 1.372.106.3-.044 1.183-.062 1.438-.031.438-.174 1.12-.312 1.469-.2.504-.345.987-.674 1.466h-.418zM122.878 32.734c-.258-.859-.384-1.421-.539-1.953-.1-.342-.289-.998-.375-1.375-.068-.3-.143-.437-.156-.875-.031-1-.034-1.219.281-1.781.202-.361.192-.791.789-1.086h.417c.481.524.531.787.731 1.149.327.59.353 1.611.219 1.906-.141.295-.344 1.438-.344 1.438s-.277 1.99-.606 2.579l-.417-.002zM123.295 33.214c.138.692.231 1.307.419 1.973.108.385.469 1.531.469 1.531.089.295.115.619.188.938.09.396.124.799 0 1.094-.125.295-.478 1.24-1.075 1.535h-.417c-.597-.295-1.244-1.275-1.31-1.588-.107-.506.021-.56.021-.884 0-.344.186-.886.25-1.188.086-.405.42-1.076.562-1.479.25-.708.333-1.188.477-1.932h.416z"/>
    </g>
    <g class="i1-regular fade-04">
      <path class="green" d="M165.398 40.815c.329.479.479 1.061.659 1.435.169.353.281 1.39.281 1.781 0 .469 0 1-.125 1.406-.174.564-.218.883-.815 1.122h-.417c-.597-.239-.959-1.118-1.049-1.372-.106-.3.044-1.183.062-1.438.031-.438.174-1.12.312-1.469.2-.504.345-.987.674-1.466h.418zM164.96 25.185c-.329-.479-.479-1.061-.659-1.435-.169-.353-.281-1.39-.281-1.781 0-.469 0-1 .125-1.406.174-.564.218-.883.815-1.122h.417c.597.239.959 1.118 1.049 1.372.106.3-.044 1.183-.062 1.438-.031.438-.174 1.12-.312 1.469-.2.504-.345.987-.674 1.466h-.418zM164.977 32.734c-.258-.859-.384-1.421-.539-1.953-.1-.342-.289-.998-.375-1.375-.068-.3-.143-.437-.156-.875-.031-1-.034-1.219.281-1.781.202-.361.192-.791.789-1.086h.417c.482.524.531.787.732 1.149.327.59.353 1.611.219 1.906-.141.295-.344 1.438-.344 1.438s-.277 1.99-.607 2.579l-.417-.002zM165.393 33.214c.138.692.232 1.307.419 1.973.108.385.469 1.531.469 1.531.089.295.115.619.188.938.09.396.124.799 0 1.094-.125.295-.478 1.24-1.075 1.535h-.417c-.597-.295-1.244-1.275-1.31-1.588-.107-.506.021-.56.021-.884 0-.344.186-.886.25-1.188.086-.405.42-1.076.562-1.479.25-.708.333-1.188.477-1.932h.416z"/>
    </g>
    <g class="a1-regular fade-06">
      <path class="green" d="M139.466 40.815c.329.479.479 1.061.659 1.435.169.353.281 1.39.281 1.781 0 .469 0 1-.125 1.406-.174.564-.218.883-.815 1.122h-.417c-.597-.239-.959-1.118-1.049-1.372-.106-.3.044-1.183.062-1.438.031-.438.174-1.12.312-1.469.2-.504.345-.987.674-1.466h.418zM157.216 40.815c.329.479.479 1.061.659 1.435.169.353.281 1.39.281 1.781 0 .469 0 1-.125 1.406-.174.564-.218.883-.815 1.122h-.417c-.597-.239-.959-1.118-1.049-1.372-.106-.3.044-1.183.062-1.438.031-.438.174-1.12.312-1.469.2-.504.345-.987.674-1.466h.418zM137.995 25.093c.479-.749 1.291-2.062 1.291-2.062s.965-1.577 1.094-1.906c.134-.324.746-1.11 1.062-1.25.317-.14 1.389-.462 2.04-.269l.295.295c.194.651-.139 1.165-.303 1.568-.281.688-.349.721-.781 1.031-.287.205-1.211.797-1.5.969-.395.235-1.562.969-1.562.969-.638.277-.75.594-1.34.95l-.296-.295zM151.916 21.949c-.786.207-1.38.364-1.911.551-.469.166-2 .406-2 .406-.315.089-1.373.093-1.688-.031-.315-.125-1.645-.329-1.96-.926v-.417c.315-.597 1.364-.939 1.679-1.063.315-.124 1.394-.007 1.719.031.531.062 1.513.46 2 .562.594.125 1.188.281 2.161.469v.418zM151.916 33.949c-.786.207-1.38.364-1.911.551-.469.166-2 .406-2 .406-.315.089-1.373.093-1.688-.031-.315-.125-1.645-.329-1.96-.926v-.417c.315-.597 1.364-.939 1.679-1.063.315-.124 1.394-.007 1.719.031.531.062 1.513.46 2 .562.594.125 1.188.281 2.161.469v.418zM139.044 32.734c-.258-.859-.384-1.421-.539-1.953-.1-.342-.289-.998-.375-1.375-.068-.3-.143-.437-.156-.875-.031-1-.034-1.219.281-1.781.202-.361.192-.791.789-1.086h.417c.481.524.531.787.731 1.149.327.59.353 1.611.219 1.906-.141.295-.344 1.438-.344 1.438s-.277 1.99-.606 2.579l-.417-.002zM139.461 33.214c.138.692.231 1.307.419 1.973.108.385.469 1.531.469 1.531.089.295.115.619.188.938.09.396.124.799 0 1.094-.125.295-.478 1.24-1.075 1.535h-.417c-.597-.295-1.244-1.275-1.31-1.588-.107-.506.021-.56.021-.884 0-.344.186-.886.25-1.188.086-.405.42-1.076.562-1.479.25-.708.333-1.188.477-1.932h.416zM156.857 32.734c-.258-.859-.384-1.421-.539-1.953-.1-.342-.289-.998-.375-1.375-.068-.3-.143-.437-.156-.875-.031-1-.034-1.219.281-1.781.202-.361.192-.791.789-1.086h.417c.481.524.531.787.731 1.149.327.59.353 1.611.219 1.906-.141.295-.344 1.438-.344 1.438s-.277 1.99-.606 2.579l-.417-.002zM157.274 33.214c.138.692.231 1.307.419 1.973.108.385.469 1.531.469 1.531.089.295.115.619.188.938.09.396.124.799 0 1.094-.125.295-.478 1.24-1.075 1.535h-.417c-.597-.295-1.244-1.275-1.31-1.588-.107-.506.021-.56.021-.884 0-.344.186-.886.25-1.188.086-.405.42-1.076.562-1.479.25-.708.333-1.188.477-1.932h.416zM157.969 25.388c-.714-.419-1.326-.706-1.964-.982l-1.531-.938c-.291-.166-1.266-.902-1.406-1.219-.14-.317-.778-1.698-.585-2.349l.295-.295c.651-.194 1.661.316 1.978.456.317.141 1.201 1.369 1.375 1.656.269.445.719 1.125 1.125 1.75.379.583.562.906 1.009 1.624l-.296.297z"/>
    </g>
    <g class="l1-regular fade-04">
      <path class="green" d="M173.648 40.815c.329.479.479 1.061.659 1.435.169.353.281 1.39.281 1.781 0 .469 0 1-.125 1.406-.174.564-.218.883-.815 1.122h-.417c-.597-.239-.959-1.118-1.049-1.372-.106-.3.044-1.183.062-1.438.031-.438.174-1.12.312-1.469.2-.504.345-.987.674-1.466h.418zM173.21 25.185c-.329-.479-.479-1.061-.659-1.435-.169-.353-.281-1.39-.281-1.781 0-.469 0-1 .125-1.406.174-.564.218-.883.815-1.122h.417c.597.239.959 1.118 1.049 1.372.106.3-.044 1.183-.062 1.438-.031.438-.174 1.12-.312 1.469-.2.504-.345.987-.674 1.466h-.418zM173.227 32.734c-.258-.859-.384-1.421-.539-1.953-.1-.342-.289-.998-.375-1.375-.068-.3-.143-.437-.156-.875-.031-1-.034-1.219.281-1.781.202-.361.192-.791.789-1.086h.417c.482.524.531.787.732 1.149.327.59.353 1.611.219 1.906-.141.295-.344 1.438-.344 1.438s-.277 1.99-.607 2.579l-.417-.002zM173.643 33.214c.138.692.232 1.307.419 1.973.108.385.469 1.531.469 1.531.089.295.115.619.188.938.09.396.124.799 0 1.094-.125.295-.478 1.24-1.075 1.535h-.417c-.597-.295-1.244-1.275-1.31-1.588-.107-.506.021-.56.021-.884 0-.344.186-.886.25-1.188.086-.405.42-1.076.562-1.479.25-.708.333-1.188.477-1.932h.416zM189.818 40.855c-.479.749-1.291 2.062-1.291 2.062s-.965 1.577-1.094 1.906c-.134.324-.745 1.11-1.062 1.25-.317.14-1.389.462-2.04.269l-.295-.295c-.194-.651.139-1.165.303-1.568.281-.688.349-.721.781-1.031.287-.205 1.211-.797 1.5-.969.395-.235 1.562-.969 1.562-.969.638-.277.75-.594 1.34-.95l.296.295zM175.897 43.999c.786-.207 1.38-.363 1.911-.551.469-.166 2-.406 2-.406.315-.089 1.373-.093 1.688.031.315.125 1.645.329 1.96.926v.417c-.315.597-1.364.939-1.679 1.063-.315.124-1.394.007-1.719-.031-.531-.062-1.513-.46-2-.562-.594-.125-1.188-.281-2.161-.47v-.417z"/>
    </g>
    <g class="s1-regular fade-02">
      <path class="green" d="M202.368 33.028c.661-.329 1.478-.476 1.986-.653.491-.171 1.341-.208 1.854-.292.506-.082 1.205-.181 1.708-.125.375.042 1.209.006 1.438.187.313.249.613.285.943.882v.417c-.33.597-.695.652-1.089.722-.708.125-1.5.125-2.375.125-.267 0-1.968-.017-2.458-.188-.508-.177-1.346-.33-2.007-.659v-.416zM201.901 33.028c-.661-.329-1.478-.476-1.986-.653-.491-.171-1.277-.208-1.79-.292-.506-.082-1.293-.213-1.792-.125-.288.051-1.114.244-1.375.375-.583.292-.769.098-1.099.695v.417c.33.597.874.596 1.266.68.583.125 1.441.148 1.958.125.267-.012 2.32.025 2.811-.146.508-.177 1.346-.33 2.007-.659v-.417zM192.058 25.093c.479-.749 1.291-2.062 1.291-2.062s.965-1.577 1.094-1.906c.134-.324.746-1.11 1.062-1.25.317-.14 1.389-.462 2.04-.269l.295.295c.194.651-.139 1.165-.303 1.568-.281.688-.349.721-.781 1.031-.287.205-1.211.797-1.5.969-.395.235-1.562.969-1.562.969-.638.277-.75.594-1.34.95l-.296-.295zM205.979 21.949c-.786.207-1.38.364-1.911.551-.469.166-2 .406-2 .406-.315.089-1.373.093-1.688-.031-.315-.125-1.645-.329-1.96-.926v-.417c.315-.597 1.364-.939 1.679-1.063.315-.124 1.394-.007 1.719.031.531.062 1.513.46 2 .562.594.125 1.188.281 2.161.469v.418zM193.107 32.734c-.258-.859-.384-1.421-.539-1.953-.1-.342-.289-.998-.375-1.375-.068-.3-.143-.437-.156-.875-.031-1-.034-1.219.281-1.781.202-.361.192-.791.789-1.086h.417c.481.524.531.787.731 1.149.327.59.353 1.611.219 1.906-.141.295-.344 1.438-.344 1.438s-.277 1.99-.606 2.579l-.417-.002zM212.032 25.388c-.714-.419-1.326-.706-1.964-.982l-1.531-.938c-.291-.166-1.266-.902-1.406-1.219-.14-.317-.778-1.698-.585-2.349l.295-.295c.651-.194 1.661.316 1.978.456.317.141 1.201 1.369 1.375 1.656.269.445.719 1.125 1.125 1.75.379.583.562.906 1.009 1.624l-.296.297zM212.355 40.855c-.479.749-1.291 2.062-1.291 2.062s-.965 1.577-1.094 1.906c-.134.324-.745 1.11-1.062 1.25-.317.14-1.388.462-2.039.269l-.295-.295c-.194-.651.139-1.165.303-1.568.281-.688.349-.721.781-1.031.287-.205 1.211-.797 1.5-.969.395-.235 1.562-.969 1.562-.969.638-.277.75-.594 1.34-.95l.295.295zM198.434 43.999c.786-.207 1.38-.363 1.911-.551.469-.166 2-.406 2-.406.315-.089 1.373-.093 1.688.031.315.125 1.646.329 1.961.926v.417c-.315.597-1.364.939-1.679 1.063-.315.124-1.394.007-1.719-.031-.531-.062-1.513-.46-2-.562-.594-.125-1.188-.281-2.161-.47v-.417zM211.306 33.214c.258.859.384 1.421.539 1.953.1.342.289.998.375 1.375.068.3.143.437.156.875.031 1 .034 1.219-.281 1.781-.202.361-.192.791-.789 1.086h-.417c-.482-.524-.531-.787-.732-1.149-.327-.59-.353-1.611-.219-1.906.141-.295.344-1.438.344-1.438s.277-1.99.607-2.579l.417.002zM192.381 40.56c.714.419 1.326.706 1.964.982l1.531.938c.291.166 1.266.902 1.406 1.219.14.317.779 1.698.586 2.349l-.295.295c-.651.194-1.661-.316-1.978-.456-.317-.141-1.201-1.369-1.375-1.656-.269-.445-.719-1.125-1.125-1.75-.379-.583-.562-.906-1.009-1.624l.295-.297z"/>
    </g>
  </g>

</svg>
