<svg version="1.1" xmlns="http://www.w3.org/2000/svg" viewBox="0 0 3000 1280">
<style>
  .myStroke {
    fill:none;
    stroke-linecap:round;
    stroke-linejoin:round;
    stroke-miterlimit:10
    stroke-linecap:round;
  }
  .sapphireFill {fill:#2b4099}

  .ic {
    animation-name:draw;
    animation-iteration-count:infinite;
    animation-duration:3s;
    stroke-dasharray:1000;
    stroke-dashoffset:1000;
    animation-direction: alternate-reverse;
    animation-delay: 0.5s;
    animation-fill-mode: both;
    animation-timing-function: ease-in;
  }

  @keyframes draw {
    from {stroke-dashoffset:0;}
    to {stroke-dashoffset:1000;}
  }

  .ic-01:hover, .ic-02:hover, .ic-03:hover, .ic-04:hover, .ic-05:hover, .ic-06:hover, .ic-07:hover, .ic-08:hover, .ic-09:hover, .ic-10:hover, .ic-11:hover, .ic-12:hover, .ic-13:hover, .ic-14:hover{
  stroke:#ffb727;
  stroke-width:6px;
  }

  </style>
  <path d="M0 0h3000v1280H0z" class="sapphireFill"/>

  <g class="ic" stroke="#fff" stroke-width="4px">
    <g class="ic-01">
      <path d="M738 246.06c9.9-12.23 25.04-20.06 42-20.06 29.82 0 54 24.18 54 54 0 14.91-12.09 27-27 27s-27-12.09-27-27-12.09-27-27-27-27 12.09-27 27c0 29.82 24.18 54 54 54 16.96 0 32.1-7.82 42-20.06" class="myStroke"/>
      <circle cx="750" cy="278" r="6" class="myStroke"/>
      <circle cx="810" cy="278" r="6" class="myStroke"/>
    </g>
    <g class="ic-02">
      <path d="M1134 236c0-3.31 6-10 6-10s6 6.69 6 10-2.69 6-6 6-6-2.69-6-6zm-24 86h-18c-3.31 0-6 2.69-6 6s2.69 6 6 6h96c3.31 0 6-2.69 6-6s-2.69-6-6-6h-62c-2.21 0-4-1.79-4-4v-64c0-2.21 1.79-4 4-4h28c2.21 0 4 1.79 4 4v50c0 3.31-2.69 6-6 6s-6-2.69-6-6v-35c0-2.76-2.24-5-5-5s-5 2.24-5 5v1c0 3.31-2.69 6-6 6" class="myStroke"/>
    </g>
    <g class="ic-03">
      <path d="M1503 286c-3.31 0-6-2.69-6-6s2.69-6 6-6m0 0c6.63 0 12 5.37 12 12s-5.37 12-12 12" class="myStroke"/>
      <path d="M1503 334c-29.82 0-54-24.18-54-54s24.18-54 54-54" class="myStroke"/>
      <path d="M1503 322c-23.2 0-42-18.8-42-42s18.8-42 42-42" class="myStroke"/>
      <path d="M1503 310c-16.57 0-30-13.43-30-30s13.43-30 30-30" class="myStroke"/>
      <path d="M1503 322c-23.2 0-42-18.8-42-42s18.8-42 42-42" class="myStroke"/>
      <path d="M1503 298c-9.94 0-18-8.06-18-18s8.06-18 18-18" class="myStroke"/>
      <path d="M1503 310c-16.57 0-30-13.43-30-30s13.43-30 30-30m0 12c13.25 0 24 10.75 24 24s-10.75 24-24 24" class="myStroke"/>
      <path d="M1503 322c19.88 0 36-16.12 36-36s-16.12-36-36-36" class="myStroke"/>
      <path d="M1503 238c26.51 0 48 21.49 48 48s-21.49 48-48 48" class="myStroke"/>
    </g>
    <g class="ic-04">
      <path d="M1832.27 244c12.24 7.32 20.44 20.69 20.44 36 0 19.15-12.83 35.27-30.36 40.31-3.46 1-4.2 5.65-1.02 7.34 7.57 4.05 16.21 6.34 25.39 6.34 31.83 0 57.24-27.55 53.66-60.11-2.66-24.27-22.01-44.15-46.21-47.39-11.95-1.6-23.26.72-32.85 5.84-1.49.8-2.12 2.24-2.01 3.66.13 1.6 1.2 3.16 3.03 3.68" class="myStroke"/>
    </g>
    <g class="ic-05">
      <path d="M2190 290v-16h12v8h-12l12 8m18 0v-16m18 8h12v-8h-12v16" class="myStroke"/>
      <path d="M2178 322v-54c0-23.46 19.23-42.42 42.79-41.99 23.12.42 41.21 20.26 41.21 43.39V330c0 2.21-1.79 4-4 4h-76M766.4 610l9.98-21.25c1.44-3.07 5.8-3.07 7.24 0l13.4 28.54c.57 1.21 1.7 2.05 3.02 2.25l30.27 4.63c3.22.49 4.53 4.42 2.26 6.75l-22.15 22.71c-.89.91-1.29 2.18-1.08 3.44l5.19 31.85c.54 3.3-2.96 5.76-5.88 4.14l-26.7-14.76c-1.2-.67-2.67-.67-3.87 0l-26.7 14.76c-2.92 1.62-6.42-.85-5.88-4.14l5.19-31.85c.2-1.25-.2-2.53-1.08-3.44l-22.15-22.71c-2.27-2.33-.96-6.26 2.26-6.75l30.27-4.63" class="myStroke"/>
    </g>
    <g class="ic-06">
      <path d="M1130 629l-.56-2.78c-.37-1.87-2.02-3.22-3.92-3.22h-5.92c-5.24 0-9.49-4.19-9.6-9.41-.05-2.51 1.22-4.82 3.01-6.57 3.63-3.56 6.45-3.55 9.01-2.88 0-.12-.02-.23-.02-.34 0-9.28 7.52-16.8 16.8-16.8 6.81 0 12.66 4.06 15.3 9.88.87-.18 1.78-.28 2.7-.28 7.53 0 13.58 6.3 13.18 13.91-.37 7.14-6.78 12.49-13.93 12.49h-1.57c-1.91 0-3.55 1.35-3.92 3.22L1147.6 641h-16.66c-5.56 0-10.71 2.88-13.63 7.61l-1.31 2.14-14.92 24.25-4.92 8-2.4 3.9c-1.64 2.67.28 6.1 3.41 6.1h85.68c3.13 0 5.05-3.43 3.41-6.1l-18.27-29.69c-.12 3.21-2.74 5.79-5.98 5.79-3.31 0-6-2.69-6-6v-2c0-2.21-1.79-4-4-4s-4 1.79-4 4v14c0 3.31-2.69 6-6 6s-6-2.69-6-6v-8c0-3.31-2.69-6-6-6s-6 2.69-6 6v2c0 2.21-1.79 4-4 4" class="myStroke"/>
    </g>
    <g class="ic-07">
      <path d="M1456.76 639.92l40.11 52.5c1.6 2.01 4.66 2.01 6.26 0l46.03-60.25c.12-.16.24-.32.35-.49 3.93-6.34 5.6-14.23 3.73-22.58-2.55-11.38-11.88-20.41-23.34-22.6-10.57-2.02-21.21 3.57-27.89 10.24-1.6 1.59-4.11 1.59-5.7 0-3.6-3.59-7.85-6.87-12.65-8.81-4.12-1.67-8.66-2.36-13.54-1.43-11.46 2.19-20.79 11.22-23.34 22.6-1.87 8.35-.2 16.24 3.73 22.58.11.17.22.33.35.49" class="myStroke"/>
    </g>
    <g class="ic-08">
      <path d="M1848 618h-26c-2.21 0-4 1.79-4 4v12c0 2.21 1.79 4 4 4h24c2.21 0 4 1.79 4 4v48c0 2.21 1.79 4 4 4h12c2.21 0 4-1.79 4-4v-48c0-2.21 1.79-4 4-4h24c2.21 0 4-1.79 4-4v-12c0-2.21-1.79-4-4-4h-24c-2.21 0-4-1.79-4-4v-24c0-2.21-1.79-4-4-4h-12c-2.21 0-4 1.79-4 4v18" class="myStroke"/>
    </g>
    <g class="ic-09">
      <path d="M2216.91 587.59c1.6-1.96 4.58-1.96 6.19 0 9.47 11.55 37.41 47.21 37.41 65.79 0 22.37-18.13 40.5-40.5 40.5s-40.5-18.13-40.5-40.5c0-14.54 17.11-39.54 29.09-55.26" class="myStroke"/>
    </g>
    <g class="ic-10">
      <path d="M793 994c3.31 0 6 2.69 6 6s-2.69 6-6 6h-18v-6c0-9.94 8.06-18 18-18s18 8.06 18 18-8.06 18-18 18h-30v-18c0-16.57 13.43-30 30-30s30 13.43 30 30-13.43 30-30 30h-42v-30c0-23.2 18.8-42 42-42s42 18.8 42 42c0 6.45-1.46 12.55-4.05 18-2.14 4.5-5.06 8.55-8.58 12" class="myStroke"/>
      <circle cx="727" cy="998" r="2" class="myStroke"/>
      <path d="M822.37 1030H829c3.31 0 6 2.69 6 6s-2.69 6-6 6h-96c-3.31 0-6-2.69-6-6s2.69-6 6-6h6c-.07-.36-4.1-11.08-7.47-20.01" class="myStroke"/>
    </g>
    <g class="ic-11">
      <path d="M1172.95 1015.58c2.11 2.11 5.64 1.24 6.64-1.57 1.55-4.38 2.41-9.09 2.41-14.01 0-19.38-13.14-35.66-30.99-40.49-2.52-.68-5.01 1.27-5.01 3.89v25.23l26.95 26.95zm-59.59 16.88c4.52 3.7 9.82 6.47 15.63 8.04 2.52.68 5.01-1.26 5.01-3.88v-31.02l-20.92 20.92c-1.67 1.66-1.55 4.44.28 5.94zm10.64-71.25c-15.26 6.28-26 21.27-26 38.79 0 4.91.85 9.63 2.41 14.01 1 2.81 4.53 3.68 6.64 1.57l26.95-26.95v-30.15m17.01 82.01c5.8-1.57 11.11-4.33 15.63-8.04 1.83-1.5 1.95-4.27.28-5.95l-20.92-20.92v31.02c0 2.63 2.48 4.57 5.01 3.89z" class="myStroke"/>
      <path d="M1134 988.62v-38.57c0-2.19 1.76-3.93 3.96-4.01 3.51-.13 7.11.07 10.77.65 23.34 3.65 41.87 22.84 44.83 46.28 4.46 35.33-25.25 65.05-60.57 60.59-24.11-3.04-43.56-22.54-46.55-46.66-3.37-27.19 13.5-51.03 37.57-58.49" class="myStroke"/>
    </g>
    <g class="ic-12">
      <path d="M1526 987.75c-5.28 2.81-10.45 6.57-14.61 11.62-2.65 3.21-4.7 6.72-6.3 10.31" class="myStroke"/>
      <path d="M1464.16 983.54c-5.31-1.81-10.12-2.8-13.38-3.31-2.37-.38-4.53 1.38-4.62 3.77-.31 8.39.42 27.28 11.59 40.82 14.75 17.9 42.15 19.69 42.15 19.69h.21s27.39-1.79 42.15-19.69c11.17-13.55 11.89-32.44 11.59-40.83-.09-2.4-2.26-4.14-4.62-3.77-3.31.52-8.23 1.53-13.65 3.4" class="myStroke"/>
      <path d="M1464.16 983.54c8.23 2.81 17.67 7.61 24.45 15.83 8.07 9.79 10.68 22.36 11.39 31.75-.71-9.39-3.32-21.96-11.39-31.75-6.78-8.23-16.21-13.02-24.45-15.83m71.41.08c-1.15-6.49-3.03-11.99-4.41-15.47-.88-2.23-3.52-3.16-5.62-2.01-2.84 1.55-6.92 4.03-11.22 7.41-3.68-7.41-8.32-13.28-11.31-16.67-1.59-1.8-4.4-1.86-5.99-.05-3.04 3.44-7.82 9.49-11.55 17.12-4.62-3.44-9.03-5.89-12.05-7.4-2.17-1.08-4.76-.02-5.57 2.27-.3.84-.62 1.8-.95 2.87" class="myStroke"/>
      <path d="M1464.16 983.54c-5.31-1.81-10.12-2.8-13.38-3.31-2.37-.38-4.53 1.38-4.62 3.77-.31 8.39.42 27.28 11.59 40.82 14.75 17.9 42.15 19.69 42.15 19.69h.21s27.39-1.79 42.15-19.69c11.17-13.55 11.89-32.44 11.59-40.83-.09-2.4-2.26-4.14-4.62-3.77-3.31.52-8.23 1.53-13.65 3.4" class="myStroke"/>
      <path d="M1464.16 983.54c8.23 2.81 17.67 7.61 24.45 15.83 8.07 9.79 10.68 22.36 11.39 31.75-.71-9.39-3.32-21.96-11.39-31.75-6.78-8.23-16.21-13.02-24.45-15.83m71.41.08c-1.15-6.49-3.03-11.99-4.41-15.47-.88-2.23-3.52-3.16-5.62-2.01-2.84 1.55-6.92 4.03-11.22 7.41-3.68-7.41-8.32-13.28-11.31-16.67-1.59-1.8-4.4-1.86-5.99-.05-3.04 3.44-7.82 9.49-11.55 17.12-4.62-3.44-9.03-5.89-12.05-7.4-2.17-1.08-4.76-.02-5.57 2.27-.3.84-.62 1.8-.95 2.87" class="myStroke"/>
    </g>
    <g class="ic-13">
      <path d="M1824 1054c3.31 0 6-2.69 6-6s2.69-6 6-6 6 2.69 6 6 2.69 6 6 6 6-2.69 6-6 2.69-6 6-6 6 2.69 6 6 2.69 6 6 6 6-2.69 6-6 2.69-6 6-6 6 2.69 6 6 2.69 6 6 6 6-2.69 6-6v-60c0-23.46-19.23-42.42-42.79-41.99-23.12.42-41.21 20.26-41.21 43.39v52.6" class="myStroke"/>
      <circle cx="1850" cy="990" r="2" class="myStroke"/>
      <circle cx="1870" cy="990" r="2" class="myStroke"/>
    </g>
    <g class="ic-14">
      <path d="M2264 1000.9l9.82-6.9m-29.82-7.5l5.82-10.5m-29.82-6v12m-28 48h69.52c-2.92-20.35-20.37-36-41.52-36s-38.6 15.65-41.52 36m-.48 0h-12m10-29.1l-9.82-6.9" class="myStroke"/>
      <path d="M2176 1000.9l-9.82-6.9" class="st0"/>
      <path d="M2196 986.5l-5.82-10.5" class="myStroke"/>
      <path d="M2196 986.5l-5.82-10.5" class="st0"/>
      <path d="M2274 1030h-12.48m2.48-29.1l9.82-6.9m-29.82-7.5l5.82-10.5m-29.82-6v12m-28 48h69.52c-2.92-20.35-20.37-36-41.52-36s-38.6 15.65-41.52 36m-.48 0h-12m10-29.1l-9.82-6.9m9.82 6.9l-9.82-6.9m9.82 6.9l-9.82-6.9m29.82-7.5l-5.82-10.5m5.82 10.5l-5.82-10.5m5.82 10.5l-5.82-10.5m83.82 54h-12.48" class="myStroke"/>
    </g>
</g>
</svg>
