<svg version="1.1" xmlns="http://www.w3.org/2000/svg" viewBox="0 0 3000 1280">
<style type="text/css">
	.white{fill:#fff}
	.tulip{fill:#cc2954}
	.paleTulip{fill:#f27990}
	.darkestTurquoise{fill:#0a6656}
	.turquoise{fill:#36b29a}
	.paleTurquoise{fill:#7acebf}
	.sapphire{fill:#2b4099}
	.palestSapphire{fill:#c1c7e0}
	.paleLime{fill:#fffc83}
	.darkLime{fill:#d8d316}

	.water-01, .water-02 {
		animation-duration: 8s;
		animation-iteration-count: infinite;
		animation-timing-function: ease-in-out;
		animation-direction: alternate;
	}
	.water-01 {animation-name: flow-01;}
	.water-02 {animation-name: flow-02;}

	@keyframes flow-01 {
		0% {transform: translate(0);}
		100% {transform: translate(40px);}
	}
	@keyframes flow-02 {
		0% {transform: translate(0);}
		100% {transform: translate(40px);}
	}

	.bodySwim, .headSwim {
		animation-duration: 4s;
		animation-iteration-count: infinite;
		animation-timing-function: ease-in;
		animation-direction: alternate;
		transform-origin: 50% 50%;
	}
	.bodySwim {animation-name: swim-01;}
	.headSwim {animation-name: swim-02;}
	@keyframes swim-01 {
		0% {transform: translate(0);}
		100% {transform: translate(20px, 30px);}
	}
	@keyframes swim-02 {
		0% {transform: translate(0);}
		100% {transform: translate(20px, 30px);}
	}

	.ribbon {
		animation-name: fly-01;
		animation-duration: 2s;
		animation-iteration-count: infinite;
		animation-timing-function: ease-in;
		animation-direction: alternate;
	}
	@keyframes fly-01 {
		0% {transform: translate(0);}
		100% {transform: translate(5px, 0);}
	}

	.legs {
		animation-name: swim-03;
		animation-duration: 1s;
		animation-iteration-count: infinite;
		animation-timing-function: ease-in;
		animation-direction: alternate;
	}
	@keyframes swim-03 {
		0% {transform: translate(0);}
		100% {transform: translate(-7px, -5px);}
	}

	.bodySleep{
		animation-name: sleep-01;
		animation-duration: 3s;
		animation-iteration-count: infinite;
		animation-timing-function: ease-in;
		animation-direction: alternate;
	}
	@keyframes sleep-01 {
		0% {transform: translate(0);}
		100% {transform: translate(-4px);}
	}

	</style>

	<path d="M1521.91 548.82c24.12-1.85 46.63-7.18 67.51-16.01 20.88-8.81 38.04-21.58 51.5-38.28 13.44-16.7 20.18-38.98 20.18-66.82 0-41.76-13.92-73.78-41.76-96.05-27.84-22.27-59.86-33.41-96.05-33.41-50.11 0-87.93 16.49-113.45 49.42-25.53 32.95-37.82 74.47-36.89 124.58h-187.92c1.85-50.11 10.9-95.81 27.14-137.11 16.23-41.28 38.98-76.78 68.21-106.49 29.23-29.69 64.25-52.66 105.1-68.9 40.82-16.23 86.3-24.36 136.42-24.36 38.98 0 77.95 5.81 116.93 17.4 38.98 11.61 73.99 29.01 105.1 52.2 31.08 23.21 56.38 51.5 75.86 84.91s29.23 71.93 29.23 115.54c0 47.33-11.38 89.09-34.1 125.28-22.75 36.19-56.85 60.79-102.31 73.78v2.78c53.81 12.07 96.05 38.06 126.67 77.95 30.62 39.91 45.94 87.7 45.94 143.38 0 51.05-9.98 96.53-29.93 136.42-19.97 39.91-46.63 73.32-80.04 100.22-33.41 26.93-71.93 47.33-115.54 61.25-43.63 13.92-89.09 20.88-136.42 20.88-54.77 0-104.64-7.9-149.64-23.66-45.02-15.77-83.3-38.74-114.84-68.9-31.56-30.15-55.92-67.03-73.08-110.66-17.18-43.61-25.3-93.72-24.36-150.34h187.92c.91 25.99 5.09 50.81 12.53 74.47 7.42 23.66 18.1 44.09 32.02 61.25 13.92 17.18 31.32 30.86 52.2 41.06 20.88 10.22 45.7 15.31 74.47 15.31 44.54 0 82.13-13.68 112.75-41.06 30.62-27.36 45.94-64.73 45.94-112.06 0-37.11-7.2-65.42-21.58-84.91-14.4-19.49-32.71-33.63-54.98-42.46-22.27-8.81-46.63-13.92-73.08-15.31-26.45-1.39-51.74-2.09-75.86-2.09v-139.2c21.34 1.87 44.07 1.87 68.21 0z" fill="#b7e5dd" class="bg"/>
	<g class="legs">
		<path class="white" d="M1382.88 1062.95l7.07-9.96 2.96-4.54c.03-.05.07-.09.1-.14l3.76-4.26c.38-.42 1-.52 1.49-.23l.39.23c.54.32.74 1.02.44 1.57l-3.18 5.9-1.45 4.56c-.1.32-.34.58-.65.72l-3.59 1.58-8.44 16.39 1.1-11.82z"/>
		<path class="white" d="M1359.53 1099.19s11.64-20.28 15.18-27.22c2.44-4.78 9.03-19.46 9.03-19.46l-.63-3.42c-.05-.26-.01-.52.11-.76l2.5-4.84 2.2-5.08.41-.85c.43-.9 1.71-.89 2.13 0l1.04 2.21-2.57 9.03-2.01 4.78-5.86 26.53-4.73 15.49-2.5 11.39-14.3-7.8z"/>
	</g>
	<g opacity=".2" class="water-02">
		<path class="darkestTurquoise" d="M1295.6 263.67c-10.01-1.57-18.42 3.07-27.86 8.28-5.95 3.28-24.03 13.27-22.59 21.08 2.44 13.27 58.1 3.35 65.51 22.59 3.47 9.02-7.93 24.71-30.87 55.72-17.68 23.9-23.01 27.5-22.59 36.14 1.19 24.15 45.39 47.3 60.24 36.9 12.18-8.53-.74-35.9 13.55-45.18 9.78-6.35 19.98 3.77 37.65-2.26 11.02-3.76 17.47-11.25 23.34-18.07 13.64-15.84 17.81-33.35 23.66-59.15 3.48-15.37 5.23-23.06 4.95-28.95-1.56-33.31-29.02-45.31-23.34-60.24 4.23-11.13 20.33-6.62 48.94-27.11 11.3-8.09 18.65-13.51 18.82-21.08.33-14.64-26.41-26.54-41.41-30.87-5.8-1.67-28.3-7.55-58.73 1.51-40.57 12.07-78.65 45.71-73.04 64 3.52 11.49 22.75 11.86 25.6 27.11 1.83 9.82-5.44 13.46-3.01 21.08 4 12.58 25.69 8.55 45.93 22.59 12.74 8.84 28.37 27.25 25.6 45.93-4.2 28.36-48.76 43.56-55.72 36.14-5.93-6.32 17.2-27.14 9.79-54.21-1.62-5.93-4.6-10.48-10.54-19.58-10.99-16.81-19.7-30.14-33.88-32.37zm303.21-41.66c-21.46-6.77-52.39-4.35-61.56 10.26-6.74 10.74-1.73 28.1 6.84 38.3 19.97 23.78 61.37 11.16 66.34 9.58 23.78-7.6 53.86-29.34 51.98-54.03-1.07-14.03-12.57-30.58-25.31-30.78-6.41-.1-14.22 3.94-17.1 10.26-3.77 8.27 2.88 16.11-.68 19.83-3.46 3.64-12.55-.9-20.51-3.42zm11.37 205.03c9.01-32.93 65.86-55.1 83-40.07 4.04 3.55 5.19 8.56 4.29 42.93-1.05 40.32-1.58 60.48-4.29 67.26-14.83 37.05-66.83 68.19-105.18 52.95-24.53-9.75-36.69-35.79-39.35-41.5-4.14-8.86-9.91-21.22-7.15-36.49 3.69-20.46 21.72-40.8 37.2-39.35 18.9 1.77 29.09 35.53 33.63 33.63 3.59-1.52-7.22-20.82-2.15-39.36zm49.59 259.17c18.09-14.14 56.35-31.15 74.92-13.84 7.75 7.22 12.88 21.18 8.96 32.57-7.01 20.34-36.83 14.94-55.38 43.16-5.95 9.05-6.7 15.42-13.03 17.1-10.9 2.89-26.02-11.41-31.76-26.06-6.92-17.66.61-33.74 1.63-35.83 1.93-3.96 5.66-10.07 14.66-17.1zm-265.39-148.15c7.36-8.55 17.71-2.99 58.25-4.99 42.51-2.1 53.75-9.33 64.07 0 11.12 10.05 12.5 31.48 4.16 45.77-9.13 15.65-27.85 19.15-37.45 20.8-67.19 11.56-127.57-49.34-133.14-42.44-5.03 6.23 43.05 57.21 52.42 50.76 8.44-5.81-24.35-51.26-8.31-69.9zm173.01-435.19c8.3-9.65 19.98-3.38 65.72-5.63 47.97-2.37 60.65-10.53 72.3 0 12.55 11.34 14.1 35.53 4.69 51.64-10.31 17.65-31.42 21.61-42.25 23.47-75.81 13.04-143.94-55.67-150.23-47.89-5.67 7.03 48.57 64.55 59.15 57.27 9.53-6.54-27.47-57.82-9.38-78.86zm46.27 224.38c-36.12-2.56-41.9-2.31-50.18.47-5.29 1.77-14.3 4.89-22.98 12.66-17.67 15.8-15.08 33.91-25.8 36.58-11.76 2.93-20.08-17.58-30.48-14.77-11.53 3.11-21.38 33.74-7.5 48.78 10.51 11.39 30 8.83 41.27 3.52 11.73-5.53 10.86-12.29 24.15-22.98 17.7-14.23 38.39-17.65 46.9-18.53 23.54-2.42 29.58 6.86 48.31.23 4.28-1.51 20.77-7.34 22.75-19.7 1.4-8.71-5.16-16.1-6.1-17.12-5.78-6.3-12.77-7.18-40.34-9.14zM1801 316.62c-52.37 7.9-77.37-18.38-88.57-6.23-16.78 18.18 45.66 70.2 33.51 139.22-1.96 11.14-6.63 27.09 0 31.69 10.51 7.29 44.48-17.33 48.25-20.09.82-.6 1.24-.91 1.62-1.21 23.84-18.63 8.76-51.74 22.6-101.3 6.03-21.6 13.95-33.38 7.79-40.26-5.18-5.79-15.92-3.22-25.2-1.82zm-90.7-116.12c-5.56 4.4-6.81 14.9-3.54 20.55 11.52 19.88 86.78-7.25 89.98 1.65 2.79 7.75-54.84 26.84-52.43 46.76 1.38 11.44 22.4 21.95 35.43 17 8.28-3.14 7.77-10.42 21.26-32.59 13.79-22.67 19.27-23.18 20.31-33.3 1.59-15.37-9.03-33.56-25.51-40.86-21.83-9.67-49.19 1.88-51.72 13.46-1.19 5.44 3.54 8.89 1.18 14.41-3.48 8.11-18.23 11.16-21.26 7.32-2.59-3.29 4.61-10.13 1.65-14.41-2.44-3.52-10.69-3.68-15.35.01zm-30.03 49.93c-5.21 1.98-2.49 9.98-7.71 20.17-8.3 16.2-28.79 22.49-33.77 24.02-10.83 3.33-18.76 2.64-19.04 5.21-.24 2.29 5.71 6.03 11.56 5.89 6.74-.16 8.89-5.36 14.28-4.53 4.31.66 4.25 4.18 9.07 7.03 9.66 5.7 19.36-2.88 24.7 2.04 4.91 4.53-.99 13.91 4.31 18.36 3.83 3.22 11.6 2.25 13.15-.91 2.46-5.04-12.43-12.65-10.65-23.34.5-2.98 2.34-6.54 5.44-8.39 5.66-3.37 10.95 1.71 15.86-1.36 3-1.87 2.39-4.61 5.44-13.82 4.25-12.83 8.15-15.71 6.35-18.36-2.5-3.67-13.33-3.06-19.72 2.27-5.28 4.4-5.65 10.48-8.84 10.43-2.43-.04-5.16-3.61-4.99-6.8.27-5.04 7.67-6.19 7.71-10.2.03-4.22-8.1-9.64-13.15-7.71zm-164.2-86.65c-21.36.9-35.5 67.61-29.11 70.42 3.69 1.62 9.43-20.07 30.98-27.86 16.43-5.93 30.28.47 33.17-5.63 2.54-5.37-6.15-14.57-12.21-20.97-8.04-8.51-15.38-16.27-22.83-15.96zm-14.09 83.26c-15.64 6.16-16.69 12.59-27.23 15.34-10.21 2.66-14.75-1.93-19.09 2.19-4.86 4.6-3.8 14.74-.15 21.23 6.05 10.76 21.23 15.09 31.76 11.01 6.06-2.35 9.78-8.04 17.21-19.4 1.86-2.84 5.56-8.81 8.14-17.21 1.71-5.57 3.75-12.23.94-14.71-.98-.89-3.17-1.77-11.58 1.55zm224.41 258.83c-9.39 1.14-14.46 16.96-15.65 20.66-6.92 21.58-1.33 50.12 9.7 52.58 6.86 1.53 9.93-8.33 34.43-29.11 17.05-14.47 25.84-21.74 38.5-23.47 16.39-2.25 23.98 6.42 30.36 1.25 9.5-7.69 5.18-37.01-8.76-42.88-8.7-3.66-19.16 2.64-31.92 10.33-20.75 12.5-24.89 23.73-35.37 22.53-10.36-1.18-12.94-12.91-21.29-11.89zm-593.85 484.56c-7.27 6.05-2.96 22.1-1.95 25.84 5.88 21.88 26.05 42.84 36.66 38.92 6.59-2.43 3.83-12.38 13.15-43.12 6.49-21.4 9.93-32.27 19.62-40.59 12.55-10.77 23.63-7.6 26.19-15.4 3.81-11.61-15.71-33.91-30.61-31.28-9.29 1.64-14.67 12.6-21.23 25.98-10.66 21.75-8.06 33.44-17.5 38.11-9.34 4.62-17.86-3.84-24.33 1.54zm307.86-359.94c7.05-6.25 18.4-1.05 28.89.26 34.25 4.3 46.41-34.44 78.46-30.75 15.61 1.8 32.86 13.31 36.31 29.42 2.39 11.15-1.42 26.42-11.66 32.6-16.55 9.99-36.78-11.62-56.46-.27-7.96 4.6-5.54 8.64-14.58 14.31-14.46 9.06-37.81 9.47-52.75-3.45-1.71-1.48-13.4-11.9-13.25-27.04.04-3.16.11-10.71 5.04-15.08zm161.11-47.95c-11.42-3.86-25.52-4.69-26.6-1.57-1.27 3.67 17.43 6.89 28.79 22.22 16.51 22.28-.38 45.95 12.83 57.27 13.42 11.5 45.7-.2 63.53-18.15 6.51-6.55 20.71-20.84 16.27-37.24-3.76-13.9-19.4-23.71-31.92-22.85-9.67.67-10.44 7.21-24.1 9.08-11.31 1.54-21.28-1.51-24.41-2.5-7.28-2.3-7.21-3.83-14.39-6.26zm-286.76 184.1c-7.89-2.67-17.64-3.24-18.39-1.08-.88 2.54 12.05 4.76 19.9 15.36 11.41 15.4-.26 31.76 8.87 39.59 9.28 7.95 31.58-.14 43.91-12.55 4.5-4.53 14.32-14.41 11.25-25.74-2.6-9.61-13.41-16.39-22.06-15.79-6.68.46-7.21 4.99-16.66 6.27-7.81 1.06-14.71-1.05-16.87-1.73-5.04-1.6-4.99-2.66-9.95-4.33zm407.67-159.78c-4.79 2.8-5.29 14.65-.96 22.74 8.94 16.71 41.42 22.98 58.17 9.1 5.55-4.6 12.24-13.78 10.05-22.98-2.67-11.23-17.59-18.44-28.49-16.52-10.05 1.77-12.01 10.49-22.5 10.77-8.55.23-12.32-5.42-16.27-3.11zm-517.65-390.51c-4.79 2.8-5.29 14.65-.96 22.74 8.94 16.71 41.42 22.98 58.17 9.1 5.55-4.6 12.24-13.78 10.05-22.98-2.67-11.23-17.59-18.44-28.49-16.52-10.05 1.77-12.01 10.49-22.5 10.77-8.54.23-12.32-5.42-16.27-3.11zm192.72 702.35c-4.79 2.8-5.29 14.65-.96 22.74 8.94 16.71 41.42 22.98 58.17 9.1 5.55-4.6 12.24-13.78 10.05-22.98-2.67-11.23-17.59-18.44-28.49-16.52-10.05 1.77-12.01 10.49-22.5 10.77-8.54.24-12.32-5.41-16.27-3.11zm277.11-132.2c5.53-7.95 23.99 6.56 44.77.28 19.06-5.76 18.4-22.47 35.53-25.18 14.75-2.33 31.82 7.43 38.05 20.42 2.24 4.68 2.15 12.45 1.96 27.98-.21 17.5-.39 26.32-3.92 29.38-9.65 8.39-27.99-8.72-38.89-1.4-14.44 9.7 4.73 48.48-6.71 55.4-11.06 6.69-46.12-19.18-43.93-39.17.92-8.44 8.45-15.6 5.04-20.7-3.02-4.52-10.94-1.96-13.43-6.72-2.62-5.01 4.24-11.48 1.68-14.55-2.51-3.01-9.9 2.26-15.39-1.68-2.27-1.63-3.04-3.99-4.2-7.55-.65-1.99-3.84-11.8-.56-16.51z"/>
		<path class="darkestTurquoise" d="M1416.89 37.29c6.19-8.89 26.83 7.34 50.08.31 21.32-6.45 20.59-25.14 39.75-28.17 16.5-2.61 35.6 8.31 42.56 22.85 2.51 5.24 2.4 13.92 2.19 31.3-.24 19.58-.44 29.44-4.38 32.86-10.8 9.39-31.31-9.75-43.5-1.57-16.16 10.85 5.29 54.23-7.51 61.97-12.38 7.48-51.59-21.45-49.14-43.82 1.03-9.44 9.46-17.45 5.63-23.16-3.38-5.05-12.24-2.19-15.02-7.51-2.93-5.6 4.75-12.84 1.88-16.27-2.81-3.37-11.08 2.52-17.21-1.88-2.54-1.82-3.4-4.46-4.69-8.45-.73-2.22-4.3-13.19-.64-18.46zm408.41 640.69c-8.78.61-15.19 9.38-17.71 15.61-5.42 13.42 1.43 29.28 11.42 35.64 7.26 4.63 11.14 1.02 17.01 5.36 13.19 9.76 4.25 35.92 10.48 37.97 5.01 1.65 17.89-12.9 20.04-30.05 2.01-16.09-6.15-28.51-14.21-40.77-8.05-12.23-16.13-24.51-27.03-23.76zm-538.19 134.93c-10.75-7.5-29.57-7.24-38.8 2.34-10.2 10.59.12 23.43-11.69 37.4-5.99 7.09-16.55 13.13-20.57 15.43-9.72 5.56-13.08 5.4-14.02 8.41-2.91 9.36 22.05 34.57 44.41 29.92 17.42-3.62 28.17-24.29 31.32-37.4 2.53-10.49-.03-15.23 5.14-24.78 5.42-10.01 12.9-13.44 12.15-20.57-.59-5.62-5.84-9.28-7.94-10.75zm32.24 41.61c-5.5-3.51-21.14 6.82-30.05 19.72-19.34 28.02-5.84 66.62-1.88 77.93 6.25 17.85 12.88 36.82 31.92 46.01 22.9 11.05 55.23 3.85 62.91-12.21 1.9-3.98.96-16.11-.94-40.37-.24-3.02-.52-6.26-1.88-10.33-3.15-9.41-9.99-17-15.96-20.66-18.67-11.44-41.86 7.59-48.82-.94-3.85-4.72 2.29-11.7 5.63-38.5 2.23-17.83.16-19.95-.93-20.65zm145.7 100.46c-11.4-1.07-20.31 8.03-23.47 11.27-19.81 20.25-23.38 67.78-.94 83.56 9.12 6.41 19.52 5.47 38.5 3.76 17.73-1.6 42.18-3.82 49.76-18.78 7.24-14.28-7.77-26.58-.94-36.62 8.41-12.35 39.82-6.45 74.17 0 32.38 6.08 45.18 12.06 52.58 4.69 7.29-7.26 3.67-21.86 0-36.62-3.78-15.21-9.7-39.05-25.35-43.19-11.28-2.98-22.87 5.51-42.25 19.72-18.84 13.81-20.23 20.41-33.8 24.41-14.7 4.34-29.48 1.44-31.92.94-15.73-3.24-18.09-9.64-25.35-7.51-6.22 1.83-7.87 7.53-22.53 34.74-8.61 15.98-10.76 19.06-13.14 18.78-4.68-.55-9.84-13.95-6.57-25.35 4.67-16.33 24.47-21.06 22.53-28.17-1.26-4.59-10.36-5.54-11.28-5.63zm290.19 11.38c-7.3-2.64-24.43 12.45-29.44 31.76-9.91 38.24 87.72 100.95 123.17 66.62 15.23-14.75 23.41-42.45 12.39-61.97-8.32-14.75-26.92-23.65-43.45-22.34-27.17 2.15-40.06 31.17-51.06 26.21-11.15-5.03-2.25-36.88-11.61-40.28zm48.53-92.64c-1.6-5.84-14.32-10.43-21.16-5.84-7.5 5.04-5 19.14-4.38 22.62 2.34 13.21 9.86 16.15 8.03 24.08-1.65 7.15-8.32 7.18-10.22 15.33-1.41 6.07.37 14.27 5.11 16.79 5.68 3.01 12.08-3.99 26.27-10.95 23.78-11.66 30.87-4.29 40.14-13.87 14.41-14.9 7.45-43.29 6.57-46.71-1.01-3.91-4.57-10.88-11.68-24.81-13.76-26.96-16.65-27.95-18.25-27.73-5.71.76-7.96 18.55-8.76 24.81-1.8 14.21.8 18.9-1.46 34.3-1.02 6.94-2.85 19.4-6.57 19.7-3.16.26-8.12-8.22-7.3-16.06.67-6.32 4.66-8.02 3.66-11.66zm-152.92-18.62c9.37-2.61 15.96 15.2 43.01 40.32 26.64 24.74 41.86 27.53 41.22 38.53-.9 15.46-32.14 29.94-42.12 22.4-7.08-5.34 1.77-17.82-7.17-34.95-5.23-10.01-13.93-16.63-21.51-22.4-13.38-10.18-19.46-9.85-22.4-17.03-3.95-9.64 1.16-24.69 8.97-26.87zm-459.96-555.48c9.42-2.29 17.03-.05 39.43 8.45 27.72 10.51 29.09 12.02 30.05 14.08 7.36 15.84-19.73 41.64-26.29 47.89-4.11 3.92-31.07 29.59-42.25 22.53-9.34-5.89 5.58-26.22-5.92-55.22-5.14-12.95-13.06-21.37-9.1-29.28 2.86-5.73 10.09-7.49 14.08-8.45zm-72.5 556.07c9.42-2.29 17.03-.05 39.43 8.45 27.72 10.51 29.09 12.02 30.05 14.08 7.36 15.84-19.73 41.64-26.29 47.89-4.11 3.92-31.07 29.59-42.25 22.53-9.34-5.89 5.58-26.22-5.92-55.22-5.14-12.95-13.06-21.37-9.1-29.28 2.86-5.72 10.09-7.48 14.08-8.45zm108.18-448.1c-14.96-6.33-56.37 38.44-47.89 56.34 3.75 7.9 16.88 9.83 25.35 8.45 21.19-3.45 27.72-29.98 28.17-31.92 2.49-10.8 2.55-29.41-5.63-32.87zm225.34-192.48c-13.84-6.29-32.42 5.21-32.86 15.02-.41 9.1 14.79 15.98 16.9 16.9 6.64 2.9 21.3 6.97 27.23 0 6.37-7.5 1.28-26.21-11.27-31.92z"/>
		<path class="darkestTurquoise" d="M1597.69 1040.45c-8.33-17.97-49-21.24-56.08-9.49-5.65 9.39 14.32 21.44 10.35 41.41-2.72 13.69-13.28 13.95-27.61 36.23-8.63 13.43-16.38 25.47-13.8 37.1 4.62 20.84 40.32 30.84 63.84 31.92 28.17 1.29 74.42-8.58 84.54-40.55 6.8-21.46-5.39-44.36-12.08-56.94-5.06-9.5-8.27-15.35-14.67-17.25-18.51-5.52-42.02 28.44-46.59 25.02-4.25-3.2 20.19-30.01 12.1-47.45zm-393.66-48.85c5.36-18.76 52.57-33.48 75.11-14.08 12.35 10.63 16.67 30.96 15.02 46.01-1.52 13.87-7.78 20.3-3.76 27.23 5.26 9.06 19.08 3.45 31.92 11.27 16.79 10.21 25.67 39.55 15.96 58.21-12.96 24.93-54.56 22.15-76.05 15.96-41.8-12.04-73.55-56.02-65.72-81.69 3.32-10.88 12.5-14.4 14.08-29.11 1.87-17.22-9.52-23.42-6.56-33.8zm210.64 93.14c-2.7-6.79-9.36-9.72-20.06-14.42-9.26-4.07-18.78-8.09-29.47-5.02-3.38.97-9.51 2.74-10.03 6.27-.81 5.54 13.2 8.66 30.09 23.2 8.79 7.56 13.96 12.02 16.93 19.44 7.51 18.77-7.54 35.43-1.88 40.12 3.34 2.77 9.93-1.9 47.65-25.71 15.12-9.54 20.69-12.97 20.06-16.93-1-6.33-17.54-11.8-31.97-10.66-10.07.8-15.97 4.57-19.44 1.25-3.73-3.56 1.25-9.66-1.88-17.54zm-285.75-328.81c1.34-9.04 35.55-19.13 50.7-4.69 8.78 8.37 7.83 21.8 6.57 39.43-1.15 16.14-2.02 28.4-11.27 38.5-11.71 12.79-35.36 20.5-52.58 9.39-22.25-14.36-20.31-51.47-7.51-61.03 10.36-7.73 29.34 1.45 30.98-2.82 1.65-4.26-17.96-11.59-16.89-18.78zm560.27 266.03c-5.46-4.83-16.06-4.08-22.43.86-8.98 6.97-7.54 20.68-6.9 26.74 3.22 30.65 33.4 54.83 39.68 50.9 4.56-2.85-8.17-17.6-7.76-49.17.19-15.13 3.28-24.12-2.59-29.33zm-432.76-254.52c-1.72-7.09-10.85-12.52-18.9-12.11-11.35.59-18 12.66-20.94 18.01-14.87 27-3.91 64.08 3.49 64.45 5.37.27 3.34-19.11 21.72-44.8 8.8-12.31 16.48-17.93 14.63-25.55z"/>
	</g>
	<g class="bodySwim">
		<path d="M1730.26 318.38c-.82-2.09-2.34-3.59-2.68-6.01-.44-3.11.53-5.74 6.98-16 6.06-9.64 7.41-10.83 8.91-11.81 1.55-1.01 7.49-4.9 12.24-2.79 2.31 1.02 2.39 2.59 8.59 18.79 1.18 3.08 2.24 5.81 3.11 9.77 1.09 4.94 1.1 8.22 1.07 9.45-.01.8-.06 3.5-.54 5.58-1.28 5.63-6.89 12.08-13.32 13.1-9.4 1.5-19.69-8.23-24.36-20.08z" fill="#091859"/>
		<path class="white" d="M1739.33 337.98l-1.05 5.44s-12.4-1.35-14.61-1.67c-7.13-1.04-15.64-1.64-22.83-1.84-5.31-.14-20.45-.16-22.74-.16-.2 0-.39-.03-.57-.09l-4.36-1.41c-.54-.18-1.13-.18-1.68-.02l-2.42.73c-.97.29-1.71 1.08-1.94 2.07l-.44 1.94c-.27 1.19-.2 2.17.02 2.96.39 1.43 1.9 2.24 3.34 1.9l4.17-.99c.45-.11.87-.32 1.21-.63l1.65-1.46c.36-.32.82-.48 1.3-.47 3.17.1 15.69.55 20.2 1.27 2.11.33 9.24 1.99 9.24 1.99s7.68 3.08 11.45 4.07c5.88 1.54 10.99 1.78 10.99 1.78s.56 16.18-.17 21.5c-.22 1.57-1.26 4.57-1.66 6.1-.56 2.17-1.74 8.77-1.74 8.77s-4.21 23.28-5 31.12c-.64 6.39-1.21 22.24-1.21 22.24l1.6 33.47-.98 5.96c-.07.31-.09.63-.05.95l.93 6.88 1.07 4.63c.28 1.21 1.4 2.04 2.64 1.95h.01c1.32-.09 2.35-1.19 2.35-2.52v-4.09s.28-6.18 0-8.21c-.19-1.38-1.49-5.39-1.49-5.39l4.74-33.63s3.74-14.24 4.6-20.2c.71-4.91 1.17-19.79 1.17-19.79l3.54.32 6.24 39.69 10.89 35.24s0 4.1.22 5.58c.24 1.62.88 5.12 1.72 6.52.4.68 1.37 2.05 2.08 2.38.48-.12 2.55-.27 3.01-.91 1.4-1.92-.07-8.1-.26-9.5-.1-.7-1.5-6.96-1.5-6.96s-2.13-19.39-3.78-25.65c-.63-2.39-3.56-9.21-3.56-9.21-.07-.34-.11-.69-.1-1.04 0 0 1.37-17.66 1.47-24.02.09-5.78-.69-24.51-.69-24.51s-1.78-6.07-2.09-8.15c-.24-1.59-.35-4.82-.28-6.43.22-5.38 2.74-21.36 2.74-21.36.04-.35.33-.61.69-.62 1.35-.01 4.88.63 8.67.62 4.84-.02 10.17-.67 12.55-.55 2.83.15 7.95.63 13.04 1.15 6.09.62 12.13 1.29 14.14 1.51.46.05.9.19 1.31.4l3.41 1.77 4.87 2.51c.27.14.6.12.85-.06l.01-.01c.53-.37.45-1.17-.14-1.43 0 0-3.69-1.57-3.23-2.47.69-1.36 5.84 1.69 5.84 1.69 1.12.13 2.1-.74 2.1-1.86v-2.51c0-.8-.51-1.51-1.26-1.77 0 0-4.53-2.02-6.15-2.14-1.38-.1-5.43 1.06-5.43 1.06-.42.08-.85.09-1.28.03-1.98-.3-8.25-1.26-14.58-2.23-5.25-.8-10.53-1.62-13.45-2.08-2.86-.45-7.46-1.94-12.61-2.77-7.99-1.29-16.59-1.94-16.59-1.94l-.01-4.63-10.14-.81z"/>
		<path class="palestSapphire" d="M1755.01 366.95c.32-2.41.67-4.83.96-6.85-.41-.84-.96-1.61-1.64-2.17-1.52-1.27-3.3 5.7-5.72 5.66-3.1-.05-7.2-.01-7.2-.01s-1.85-3.96-2.46-6.81c-.35-1.65-.67-13.35-.67-13.35s-.13-.01-.36-.04c.13 1.01-.25 1.98-.45 2.55-.54 1.53-.84 3.77-1.43 8.24-.18 1.37-.25 2.35-.26 3.06-1.97-.17-3.94.79-5.38 2.15.04 2.17.07 2.51.05 4.94 1.85.93 4.88 2.16 7.06 1.64.66-.16 2.49-.21 3.54-1.59 1.32-.04 2.6.28 2.8.21.64.54 1.55 1.2 2.75 1.74 2.15.97 6.13 1.97 8.41.63zm-14.39 36.51l.41 2.6s3.61-5.26 4.5-6.24c2.3-2.53 5.42-5.19 5.42-5.19l5.42-3.57-.38-2.01-6.95 3.93-7.19 7.03-1.23 3.45z"/>
		<path class="paleTulip" d="M1756.27 354.84c-.66-1.16-3.02-3.34-3.34-4.01-1.54-3.21-2.72-7.3-2.72-7.3l-.72-.11s.25 3.53.06 4.68c-.28 1.66-1.06 5.34-1.57 6.94-.71 2.25-2.36 5.43-3.73 8.3l-4.26-.2c-1.06-2.62-2.59-5.51-2.33-10.67.15-3 .62-9.06.62-9.06l-.39-.11s-1.79 2.59-3.53 5.13c-1.45 2.11-2.62 3.09-4.11 4.95-1.87 2.34-2.44 6.56 0 9.69 1.94 2.49 4.09 2.34 6.79 1.87 1.35-.23 2.32-1.16 2.95-1.43l4.27.18c1.52.87 5.88 2.4 9.51 1.6 2.2-.48 3.71-4.57 3.81-6.44.07-1.23-.7-2.93-1.31-4.01zm-15.72 36.75c-6.13-.18-13.82-3.25-13.89-2.81-.05.35-.07 1.84-.07 1.84s3.24 2.52 4.73 4.03c1.94 1.95 5.75 8.48 5.75 8.48l3.54.32s5.63-7.58 8.21-9.27c2.24-1.47 7.43-4.26 7.43-4.26l-.57-1.94c0 .01-7.69 3.83-15.13 3.61z"/>
		<path class="white" d="M1754.55 328.75c-.08-5.44-2.88-9.91-6.96-10.54-4.08-.64-8.11 2.78-9.84 7.93-.87.32-1.6 1.31-1.8 2.58-.2 1.27.2 2.44.93 3 .08 5.44 2.88 9.91 6.96 10.55 4.02.63 7.99-2.68 9.76-7.7 1-.17 1.89-1.24 2.11-2.66.23-1.41-.28-2.68-1.16-3.16z"/>
		<path class="sapphire" d="M1729.61 319.99c-1.28-1.84-1.7-5.21-2.04-7.62-.44-3.11.53-5.74 6.98-16 6.06-9.64 7.41-10.83 8.91-11.81 1.55-1.01 7.49-4.9 12.24-2.79 2.31 1.02 2.39 2.59 8.59 18.79 1.18 3.08 2.24 5.81 3.11 9.77 1.09 4.94 1.1 8.22 1.07 9.45-.01.8-.06 3.5-.54 5.58-1.28 5.63-10.82 16.89-16.11 13.1-1.24-.89 3.38-14.89-.21-18-4.46-3.88-17.83 5.55-22-.47z"/>
		<path class="palestSapphire" d="M1740.45 383.49c0-.13.01-.27.04-.41.03-.13.08-.32.31-.37.25-.02.4.16.48.3.09.15.12.32.12.48-.01.16-.04.33-.12.48-.09.14-.24.32-.48.3-.24-.05-.28-.24-.31-.37-.03-.14-.05-.28-.04-.41zm0 0c.01.13.03.27.1.38.06.11.2.19.25.15.08-.06.1-.33.1-.53s-.02-.46-.1-.53c-.05-.04-.18.04-.25.15-.07.11-.1.24-.1.38z"/>
	</g>
	<g opacity=".3" class="water-01">
		<path class="turquoise" d="M1300.84 255.8c-10.01-1.57-18.42 3.07-27.86 8.28-5.94 3.28-24.03 13.27-22.59 21.08 2.44 13.27 58.1 3.35 65.51 22.59 3.47 9.02-7.93 24.71-30.87 55.72-17.68 23.9-23.01 27.5-22.59 36.14 1.19 24.15 45.39 47.3 60.24 36.9 12.18-8.53-.74-35.9 13.55-45.18 9.78-6.35 19.98 3.77 37.65-2.26 11.02-3.76 17.47-11.25 23.34-18.07 13.64-15.84 17.81-33.35 23.66-59.15 3.48-15.37 5.23-23.06 4.95-28.95-1.56-33.31-29.02-45.31-23.34-60.24 4.23-11.13 20.33-6.62 48.94-27.11 11.3-8.09 18.65-13.51 18.82-21.08.33-14.64-26.41-26.54-41.41-30.87-5.8-1.67-28.3-7.55-58.73 1.51-40.57 12.07-78.65 45.71-73.04 64 3.52 11.49 22.75 11.86 25.6 27.11 1.83 9.82-5.44 13.46-3.01 21.08 4 12.58 25.69 8.55 45.93 22.59 12.74 8.84 28.37 27.25 25.6 45.93-4.2 28.36-48.76 43.56-55.72 36.14-5.93-6.32 17.2-27.14 9.79-54.21-1.62-5.93-4.6-10.48-10.54-19.58-10.99-16.81-19.7-30.14-33.88-32.37zm302.74-40.93c-21.46-6.77-52.39-4.35-61.56 10.26-6.74 10.74-1.73 28.1 6.84 38.3 19.97 23.78 61.37 11.16 66.34 9.58 23.78-7.6 53.86-29.34 51.98-54.03-1.07-14.03-12.57-30.58-25.31-30.78-6.41-.1-14.22 3.94-17.1 10.26-3.77 8.27 2.88 16.11-.68 19.83-3.47 3.64-12.56-.91-20.51-3.42zm12.23 203.72c9.01-32.93 65.86-55.1 83-40.07 4.04 3.55 5.19 8.56 4.29 42.93-1.05 40.32-1.58 60.48-4.29 67.26-14.83 37.05-66.83 68.19-105.18 52.95-24.53-9.75-36.69-35.79-39.35-41.5-4.14-8.86-9.91-21.22-7.15-36.49 3.69-20.46 21.72-40.8 37.2-39.35 18.9 1.77 29.09 35.53 33.63 33.63 3.59-1.52-7.22-20.82-2.15-39.36zm49.59 259.17c18.09-14.14 56.35-31.15 74.92-13.84 7.75 7.22 12.88 21.18 8.96 32.57-7.01 20.34-36.83 14.94-55.38 43.16-5.95 9.05-6.7 15.42-13.03 17.1-10.9 2.89-26.02-11.41-31.76-26.06-6.92-17.66.61-33.74 1.63-35.83 1.93-3.96 5.67-10.07 14.66-17.1zm-265.39-148.15c7.36-8.55 17.71-2.99 58.25-4.99 42.51-2.1 53.75-9.33 64.07 0 11.12 10.05 12.5 31.48 4.16 45.77-9.13 15.65-27.85 19.15-37.45 20.8-67.19 11.56-127.57-49.34-133.14-42.44-5.03 6.23 43.05 57.21 52.42 50.76 8.45-5.81-24.35-51.26-8.31-69.9zm173.02-435.19c8.3-9.65 19.98-3.38 65.72-5.63 47.97-2.37 60.65-10.53 72.3 0 12.55 11.34 14.1 35.53 4.69 51.64-10.31 17.65-31.42 21.61-42.25 23.47-75.81 13.04-143.94-55.67-150.23-47.89-5.67 7.03 48.57 64.55 59.15 57.27 9.52-6.54-27.48-57.82-9.38-78.86zm45.53 225.49c-36.12-2.56-41.9-2.31-50.18.47-5.29 1.77-14.3 4.89-22.98 12.66-17.67 15.8-15.08 33.91-25.8 36.58-11.76 2.93-20.08-17.58-30.48-14.77-11.53 3.11-21.38 33.74-7.5 48.78 10.51 11.39 30 8.83 41.27 3.52 11.73-5.53 10.86-12.29 24.15-22.98 17.7-14.23 38.39-17.65 46.9-18.53 23.54-2.42 29.58 6.86 48.31.23 4.28-1.51 20.77-7.34 22.75-19.7 1.4-8.71-5.16-16.1-6.1-17.12-5.78-6.31-12.77-7.19-40.34-9.14zm187.86-11.43c-52.37 7.9-77.37-18.38-88.57-6.23-8.91 9.65 16.62 29.24 29.35 55.45 2.24 4.61-3.73 6.83-1.66 11.86 1.72 4.18 3.94 11.09 5.39 15.54.58 1.8.31 4 .74 5.83.23.98.72 1.51.91 2.5 2.86 14.79 1.81 30.79-1.23 48.04-1.96 11.14-6.63 27.09 0 31.69 10.51 7.29 44.48-17.33 48.25-20.09.82-.6 1.24-.91 1.62-1.21 23.84-18.63 8.76-51.74 22.6-101.3 6.03-21.6 13.95-33.38 7.79-40.26-5.17-5.78-15.91-3.22-25.19-1.82zm-91.19-115.38c-5.56 4.4-6.81 14.9-3.54 20.55 11.52 19.88 86.78-7.25 89.98 1.65 2.79 7.75-54.84 26.84-52.43 46.76 1.38 11.44 22.4 21.95 35.43 17 8.28-3.14 7.77-10.42 21.26-32.59 13.79-22.67 19.26-23.18 20.31-33.3 1.59-15.37-9.03-33.56-25.51-40.86-21.83-9.67-49.19 1.88-51.72 13.46-1.19 5.44 3.54 8.89 1.18 14.41-3.48 8.11-18.23 11.16-21.26 7.32-2.59-3.29 4.61-10.13 1.65-14.41-2.44-3.52-10.69-3.68-15.35.01zm-30.88 51.21c-5.21 1.98-2.49 9.98-7.71 20.17-8.3 16.2-28.79 22.49-33.77 24.02-10.83 3.33-18.76 2.64-19.04 5.21-.24 2.29 5.71 6.03 11.56 5.89 6.74-.16 8.89-5.36 14.28-4.53 4.31.66 4.25 4.18 9.07 7.03 9.66 5.7 19.36-2.88 24.7 2.04 4.91 4.53-.99 13.91 4.31 18.36 3.83 3.22 11.6 2.25 13.15-.91 2.46-5.04-12.43-12.65-10.65-23.34.5-2.98 2.34-6.54 5.44-8.39 5.66-3.37 10.95 1.71 15.86-1.36 3-1.87 2.39-4.61 5.44-13.82 4.25-12.83 8.15-15.71 6.35-18.36-2.5-3.67-13.33-3.06-19.72 2.27-5.28 4.4-5.65 10.48-8.84 10.43-2.43-.04-5.16-3.61-4.99-6.8.27-5.04 7.67-6.19 7.71-10.2.03-4.22-8.1-9.64-13.15-7.71zm-162.65-88.98c-21.36.9-35.5 67.61-29.11 70.42 3.69 1.62 9.43-20.07 30.98-27.86 16.43-5.93 30.28.47 33.17-5.63 2.54-5.37-6.15-14.57-12.21-20.97-8.04-8.52-15.37-16.27-22.83-15.96zm-14.08 83.26c-15.64 6.16-16.69 12.59-27.23 15.34-10.21 2.66-14.75-1.93-19.09 2.19-4.86 4.6-3.8 14.74-.15 21.23 6.05 10.76 21.23 15.09 31.76 11.01 6.06-2.35 9.78-8.04 17.21-19.4 1.86-2.84 5.56-8.81 8.14-17.21 1.71-5.57 3.75-12.23.94-14.71-.99-.89-3.17-1.77-11.58 1.55zm224.4 258.83c-9.39 1.14-14.46 16.96-15.65 20.66-6.92 21.58-1.33 50.12 9.7 52.58 6.86 1.53 9.93-8.33 34.43-29.11 17.05-14.47 25.84-21.74 38.5-23.47 16.39-2.25 23.98 6.42 30.36 1.25 9.5-7.69 5.18-37.01-8.76-42.88-8.7-3.66-19.16 2.64-31.92 10.33-20.75 12.5-24.89 23.73-35.37 22.53-10.36-1.18-12.93-12.91-21.29-11.89zm-593.85 484.56c-7.27 6.05-2.96 22.1-1.95 25.84 5.88 21.88 26.05 42.84 36.66 38.92 6.59-2.43 3.83-12.38 13.15-43.12 6.49-21.4 9.93-32.27 19.62-40.59 12.55-10.77 23.63-7.6 26.19-15.4 3.81-11.61-15.71-33.91-30.61-31.28-9.29 1.64-14.67 12.6-21.23 25.98-10.66 21.75-8.06 33.44-17.5 38.11-9.33 4.62-17.86-3.84-24.33 1.54zm307.87-359.94c7.05-6.25 18.4-1.05 28.89.26 34.25 4.3 46.41-34.44 78.46-30.75 15.61 1.8 32.86 13.31 36.31 29.42 2.39 11.15-1.42 26.42-11.66 32.6-16.55 9.99-36.78-11.62-56.46-.27-7.96 4.6-5.54 8.64-14.58 14.31-14.46 9.06-37.81 9.47-52.75-3.45-1.71-1.48-13.4-11.9-13.25-27.04.03-3.16.1-10.71 5.04-15.08zm161.1-47.95c-11.42-3.86-25.52-4.69-26.6-1.57-1.27 3.67 17.43 6.89 28.79 22.22 16.51 22.28-.38 45.95 12.83 57.27 13.42 11.5 45.7-.2 63.53-18.15 6.51-6.55 20.71-20.84 16.27-37.24-3.76-13.9-19.4-23.71-31.92-22.85-9.67.67-10.44 7.21-24.1 9.08-11.31 1.54-21.28-1.51-24.41-2.5-7.28-2.3-7.21-3.83-14.39-6.26zm-286.76 184.1c-7.89-2.67-17.64-3.24-18.39-1.08-.88 2.54 12.05 4.76 19.9 15.36 11.41 15.4-.26 31.76 8.87 39.59 9.28 7.95 31.58-.14 43.91-12.55 4.5-4.53 14.32-14.41 11.25-25.74-2.6-9.61-13.41-16.39-22.06-15.79-6.68.46-7.21 4.99-16.66 6.27-7.81 1.06-14.71-1.05-16.87-1.73-5.04-1.6-4.99-2.66-9.95-4.33zm407.67-159.79c-4.79 2.8-5.29 14.65-.96 22.74 8.94 16.71 41.42 22.98 58.17 9.1 5.55-4.6 12.24-13.78 10.05-22.98-2.67-11.23-17.59-18.44-28.49-16.52-10.05 1.77-12.01 10.49-22.5 10.77-8.54.24-12.32-5.41-16.27-3.11zM1210.4 207.9c-4.79 2.8-5.29 14.65-.96 22.74 8.94 16.71 41.42 22.98 58.17 9.1 5.55-4.6 12.24-13.78 10.05-22.98-2.67-11.23-17.59-18.44-28.49-16.52-10.05 1.77-12.01 10.49-22.5 10.77-8.54.23-12.31-5.42-16.27-3.11zm192.72 702.35c-4.79 2.8-5.29 14.65-.96 22.74 8.94 16.71 41.42 22.98 58.17 9.1 5.55-4.6 12.24-13.78 10.05-22.98-2.67-11.23-17.59-18.44-28.49-16.52-10.05 1.77-12.01 10.49-22.5 10.77-8.54.24-12.32-5.41-16.27-3.11zm277.11-132.2c5.53-7.95 23.99 6.56 44.77.28 19.06-5.76 18.4-22.47 35.53-25.18 14.75-2.33 31.82 7.43 38.05 20.42 2.24 4.68 2.15 12.45 1.96 27.98-.21 17.5-.39 26.32-3.92 29.38-9.65 8.39-27.99-8.72-38.89-1.4-14.44 9.7 4.73 48.48-6.71 55.4-11.06 6.69-46.12-19.18-43.93-39.17.92-8.44 8.45-15.6 5.04-20.7-3.02-4.52-10.94-1.96-13.43-6.72-2.62-5.01 4.24-11.48 1.68-14.55-2.51-3.01-9.9 2.26-15.39-1.68-2.27-1.63-3.04-3.99-4.2-7.55-.64-1.99-3.83-11.8-.56-16.51z"/>
		<path class="turquoise" d="M1422.53 28.84c6.19-8.89 26.83 7.34 50.08.31 21.32-6.45 20.59-25.14 39.75-28.17 16.5-2.61 35.6 8.31 42.56 22.85 2.51 5.24 2.4 13.92 2.19 31.3-.24 19.58-.44 29.44-4.38 32.86-10.8 9.39-31.31-9.75-43.5-1.57-16.16 10.85 5.29 54.23-7.51 61.97-12.38 7.48-51.59-21.45-49.14-43.82 1.03-9.44 9.46-17.45 5.63-23.16-3.38-5.05-12.24-2.19-15.02-7.51-2.93-5.6 4.75-12.84 1.88-16.27-2.81-3.37-11.08 2.52-17.21-1.88-2.54-1.82-3.4-4.46-4.69-8.45-.74-2.22-4.31-13.19-.64-18.46zm408.4 640.69c-8.78.61-15.19 9.38-17.71 15.61-5.42 13.42 1.43 29.28 11.42 35.64 7.26 4.63 11.14 1.02 17.01 5.36 13.19 9.76 4.25 35.92 10.48 37.97 5.01 1.65 17.89-12.9 20.04-30.05 2.01-16.09-6.15-28.51-14.21-40.77-8.05-12.23-16.13-24.51-27.03-23.76zm-538.19 134.93c-10.75-7.5-29.57-7.24-38.8 2.34-10.2 10.59.12 23.43-11.69 37.4-5.99 7.09-16.55 13.13-20.57 15.43-9.72 5.56-13.08 5.4-14.02 8.41-2.91 9.36 22.05 34.57 44.41 29.92 17.42-3.62 28.17-24.29 31.32-37.4 2.53-10.49-.03-15.23 5.14-24.78 5.42-10.01 12.9-13.44 12.15-20.57-.58-5.62-5.84-9.28-7.94-10.75zm32.24 41.61c-5.5-3.51-21.14 6.82-30.05 19.72-19.34 28.02-5.84 66.62-1.88 77.93 6.25 17.85 12.88 36.82 31.92 46.01 22.9 11.05 55.23 3.85 62.91-12.21 1.9-3.98.96-16.11-.94-40.37-.24-3.02-.52-6.26-1.88-10.33-3.15-9.41-9.99-17-15.96-20.66-18.67-11.44-41.86 7.59-48.82-.94-3.85-4.72 2.29-11.7 5.63-38.5 2.24-17.83.17-19.95-.93-20.65zm145.71 100.46c-11.4-1.07-20.31 8.03-23.47 11.27-19.81 20.25-23.38 67.78-.94 83.56 9.12 6.41 19.52 5.47 38.5 3.76 17.73-1.6 42.18-3.82 49.76-18.78 7.24-14.28-7.77-26.58-.94-36.62 8.41-12.35 39.82-6.45 74.17 0 32.38 6.08 45.18 12.06 52.58 4.69 7.29-7.26 3.67-21.86 0-36.62-3.78-15.21-9.7-39.05-25.35-43.19-11.28-2.98-22.87 5.51-42.25 19.72-18.84 13.81-20.23 20.41-33.8 24.41-14.7 4.34-29.48 1.44-31.92.94-15.73-3.24-18.09-9.64-25.35-7.51-6.22 1.83-7.87 7.53-22.53 34.74-8.61 15.98-10.76 19.06-13.14 18.78-4.68-.55-9.84-13.95-6.57-25.35 4.67-16.33 24.47-21.06 22.53-28.17-1.27-4.59-10.36-5.54-11.28-5.63zm290.18 11.38c-7.3-2.64-24.43 12.45-29.44 31.76-9.91 38.24 87.72 100.95 123.17 66.62 15.23-14.75 23.41-42.45 12.39-61.97-8.32-14.75-26.92-23.65-43.45-22.34-27.17 2.15-40.06 31.17-51.06 26.21-11.15-5.03-2.24-36.88-11.61-40.28zm48.54-92.64c-1.6-5.84-14.32-10.43-21.16-5.84-7.5 5.04-5 19.14-4.38 22.62 2.34 13.21 9.86 16.15 8.03 24.08-1.65 7.15-8.32 7.18-10.22 15.33-1.41 6.07.37 14.27 5.11 16.79 5.68 3.01 12.08-3.99 26.27-10.95 23.78-11.66 30.87-4.29 40.14-13.87 14.41-14.9 7.45-43.29 6.57-46.71-1.01-3.91-4.57-10.88-11.68-24.81-13.76-26.96-16.65-27.95-18.25-27.73-5.71.76-7.96 18.55-8.76 24.81-1.8 14.21.8 18.9-1.46 34.3-1.02 6.94-2.85 19.4-6.57 19.7-3.16.26-8.12-8.22-7.3-16.06.67-6.32 4.66-8.02 3.66-11.66zm-152.93-18.62c9.37-2.61 15.96 15.2 43.01 40.32 26.64 24.74 41.86 27.53 41.22 38.53-.9 15.46-32.14 29.94-42.12 22.4-7.08-5.34 1.77-17.82-7.17-34.95-5.23-10.01-13.93-16.63-21.51-22.4-13.38-10.18-19.46-9.85-22.4-17.03-3.94-9.64 1.16-24.69 8.97-26.87zm-459.96-555.48c9.42-2.29 17.03-.05 39.43 8.45 27.72 10.51 29.09 12.02 30.05 14.08 7.36 15.84-19.73 41.64-26.29 47.89-4.11 3.92-31.07 29.59-42.25 22.53-9.34-5.89 5.58-26.22-5.92-55.22-5.14-12.95-13.06-21.37-9.1-29.28 2.86-5.73 10.1-7.49 14.08-8.45zm-72.5 556.07c9.42-2.29 17.03-.05 39.43 8.45 27.72 10.51 29.09 12.02 30.05 14.08 7.36 15.84-19.73 41.64-26.29 47.89-4.11 3.92-31.07 29.59-42.25 22.53-9.34-5.89 5.58-26.22-5.92-55.22-5.14-12.95-13.06-21.37-9.1-29.28 2.86-5.72 10.1-7.48 14.08-8.45zm108.18-448.1c-14.96-6.33-56.37 38.44-47.89 56.34 3.75 7.9 16.88 9.83 25.35 8.45 21.19-3.45 27.72-29.98 28.17-31.92 2.49-10.8 2.55-29.41-5.63-32.87zm225.34-192.48c-13.84-6.29-32.42 5.21-32.86 15.02-.41 9.1 14.79 15.98 16.9 16.9 6.64 2.9 21.3 6.97 27.23 0 6.38-7.5 1.28-26.21-11.27-31.92z"/>
		<path class="turquoise" d="M1603.32 1032c-8.33-17.97-49-21.24-56.08-9.49-5.65 9.39 14.32 21.44 10.35 41.41-2.72 13.69-13.28 13.95-27.61 36.23-8.63 13.43-16.38 25.47-13.8 37.1 4.62 20.84 40.32 30.84 63.84 31.92 28.17 1.29 74.42-8.58 84.54-40.55 6.8-21.46-5.39-44.36-12.08-56.94-5.06-9.5-8.27-15.35-14.67-17.25-18.51-5.52-42.02 28.44-46.59 25.02-4.24-3.2 20.19-30.01 12.1-47.45zm-393.66-48.85c5.36-18.76 52.57-33.48 75.11-14.08 12.35 10.63 16.67 30.96 15.02 46.01-1.52 13.87-7.78 20.3-3.76 27.23 5.26 9.06 19.08 3.45 31.92 11.27 16.79 10.21 25.67 39.55 15.96 58.21-12.96 24.93-54.56 22.15-76.05 15.96-41.8-12.04-73.55-56.02-65.72-81.69 3.32-10.88 12.5-14.4 14.08-29.11 1.88-17.22-9.52-23.42-6.56-33.8zm210.64 93.14c-2.7-6.79-9.36-9.72-20.06-14.42-9.26-4.07-18.78-8.09-29.47-5.02-3.38.97-9.51 2.74-10.03 6.27-.81 5.54 13.2 8.66 30.09 23.2 8.79 7.56 13.96 12.02 16.93 19.44 7.51 18.77-7.54 35.43-1.88 40.12 3.34 2.77 9.93-1.9 47.65-25.71 15.12-9.54 20.69-12.97 20.06-16.93-1-6.33-17.54-11.8-31.97-10.66-10.07.8-15.97 4.57-19.44 1.25-3.72-3.56 1.26-9.66-1.88-17.54zm-285.75-328.81c1.34-9.04 35.55-19.13 50.7-4.69 8.78 8.37 7.83 21.8 6.57 39.43-1.15 16.14-2.02 28.4-11.27 38.5-11.71 12.79-35.36 20.5-52.58 9.39-22.25-14.36-20.31-51.47-7.51-61.03 10.36-7.73 29.34 1.45 30.98-2.82 1.65-4.26-17.96-11.59-16.89-18.78zm560.27 266.03c-5.46-4.83-16.06-4.08-22.43.86-8.98 6.97-7.54 20.68-6.9 26.74 3.22 30.65 33.4 54.83 39.68 50.9 4.56-2.85-8.17-17.6-7.76-49.17.2-15.13 3.28-24.13-2.59-29.33zm-432.76-254.52c-1.72-7.09-10.85-12.52-18.9-12.11-11.35.59-18 12.66-20.94 18.01-14.87 27-3.91 64.08 3.49 64.45 5.37.27 3.34-19.11 21.72-44.8 8.81-12.31 16.48-17.93 14.63-25.55z"/>
	</g>
	<g class="top">
		<path class="paleTulip" d="M0 0v1280h3000V0H0zm1855.29 965.02c-19.97 39.91-46.63 73.32-80.04 100.22-33.41 26.93-71.93 47.33-115.54 61.25-43.63 13.92-89.09 20.88-136.42 20.88-54.77 0-104.64-7.9-149.64-23.66-45.02-15.77-83.3-38.74-114.84-68.9-31.56-30.15-55.92-67.03-73.08-110.66-17.18-43.61-25.3-93.72-24.36-150.34h187.92c.91 25.99 5.09 50.81 12.53 74.47 7.42 23.66 18.1 44.09 32.02 61.25 13.92 17.18 31.32 30.86 52.2 41.06 20.88 10.22 45.7 15.31 74.47 15.31 44.54 0 82.13-13.68 112.75-41.06 30.62-27.36 45.94-64.73 45.94-112.06 0-37.1-7.2-65.42-21.58-84.91-14.4-19.49-32.71-33.63-54.98-42.46-22.27-8.81-46.63-13.92-73.08-15.31-26.45-1.39-51.74-2.09-75.86-2.09v-139.2c21.34 1.87 44.07 1.87 68.21 0 24.12-1.85 46.63-7.18 67.51-16.01 20.88-8.81 38.04-21.58 51.5-38.28 13.44-16.7 20.18-38.98 20.18-66.82 0-41.76-13.92-73.78-41.76-96.05-27.84-22.27-59.86-33.41-96.05-33.41-50.11 0-87.94 16.49-113.45 49.42-25.53 32.95-37.82 74.47-36.89 124.58h-187.92c1.85-50.11 10.9-95.81 27.14-137.11 16.23-41.28 38.98-76.78 68.21-106.49 29.23-29.69 64.25-52.66 105.1-68.9 40.82-16.23 86.3-24.36 136.42-24.36 38.98 0 77.95 5.81 116.93 17.4 38.98 11.61 73.99 29.01 105.1 52.2 31.08 23.21 56.38 51.5 75.86 84.91 19.49 33.41 29.23 71.93 29.23 115.54 0 47.33-11.38 89.09-34.1 125.28-22.75 36.19-56.85 60.79-102.31 73.78v2.78c53.81 12.07 96.05 38.06 126.67 77.95 30.62 39.91 45.94 87.7 45.94 143.38 0 51.05-9.98 96.53-29.93 136.42z"/>
		<path class="tulip" d="M1921.08 822.08c-.05-2.08-.03-4.14-.15-6.22l-.32-6.25c-.44-8.33-1.3-16.7-2.46-25.06-2.34-16.72-6.36-33.43-11.96-49.69-5.62-16.25-12.84-32.09-21.78-46.86l-3.39-5.51c-1.11-1.85-2.37-3.59-3.56-5.39-1.21-1.78-2.39-3.58-3.64-5.33l-3.83-5.19c-2.49-3.49-5.31-6.8-8.01-10.17-1.33-1.7-2.82-3.29-4.24-4.93l-4.32-4.86c-11.85-12.7-25.13-24.21-39.47-34.06-1.76-1.29-3.62-2.4-5.44-3.59l-5.49-3.49-5.62-3.26-1.35-.78c2.88-2.22 5.72-4.52 8.48-6.9 12.18-10.39 22.93-22.48 32.08-35.43l1.73-2.42 1.62-2.48 3.22-4.98c1.03-1.65 1.96-3.29 2.95-4.93.96-1.65 1.97-3.27 2.86-4.96 1.81-3.36 3.69-6.68 5.32-10.13l2.51-5.14 2.34-5.22c6.2-13.94 10.95-28.46 14.47-43.13 1.8-7.33 3.14-14.73 4.33-22.12.49-3.7 1.04-7.4 1.43-11.1.34-3.7.79-7.4.99-11.09 1.02-14.8 1-29.37 0-44.1-1.09-14.72-3.19-29.52-6.69-44.13-3.52-14.6-8.25-29.03-14.46-42.87-1.49-3.48-3.2-6.87-4.86-10.28-.84-1.7-1.76-3.36-2.64-5.04-.89-1.67-1.77-3.35-2.74-4.98l-2.86-4.91c-.96-1.59-1.92-3.1-2.88-4.66-1.89-3.11-3.95-6.11-5.94-9.16-16.3-24.14-36.06-46.06-58.34-64.62-5.59-4.62-11.28-9.08-17.13-13.33-5.85-4.21-11.74-8.26-17.81-12.07-12.08-7.7-24.69-14.53-37.56-20.68-12.91-6.05-26.1-11.45-39.54-15.93l-5.04-1.67-5.06-1.57c-3.37-1.07-6.78-1.99-10.17-2.98-6.75-1.83-13.5-3.58-20.31-5.11-27.22-6.25-55.1-9.85-83.04-10.68-6.98-.22-13.97-.21-20.95-.09l-10.39.33-10.39.57c-13.85.92-27.69 2.48-41.44 4.75-6.42 1.07-12.82 2.29-19.19 3.68 25.68-4.98 52.71-7.51 80.91-7.51 40.8 0 82.15 6.15 122.92 18.27 41.14 12.26 78.7 30.93 111.66 55.5 33.23 24.81 60.63 55.48 81.44 91.16 21.29 36.51 32.09 78.94 32.09 126.12 0 51.11-12.56 97.02-37.32 136.46-16.22 25.8-37.69 46.46-64.13 61.78 35.04 15.71 64.3 38.72 87.37 68.77 33.36 43.48 50.28 96.02 50.28 156.16 0 54.09-10.82 103.15-32.15 145.81-21.24 42.46-50.06 78.52-85.64 107.18-35.24 28.41-76.4 50.24-122.33 64.9-45.49 14.51-93.54 21.87-142.8 21.87-56.85 0-109.54-8.36-156.58-24.84-47.66-16.69-88.84-41.44-122.4-73.54-33.63-32.12-59.91-71.88-78.11-118.15-9.99-25.36-17.1-52.96-21.31-82.54.66 5.57 1.42 11.14 2.3 16.71 2.47 15.44 5.96 30.81 10.43 45.99.53 1.9 1.13 3.79 1.74 5.68l1.82 5.66 1.97 5.62c.66 1.87 1.31 3.76 2.02 5.58 1.4 3.68 2.79 7.36 4.32 11 1.46 3.66 3.07 7.28 4.67 10.9 6.46 14.45 14.02 28.52 22.52 42.07 8.6 13.48 18.13 26.48 28.74 38.59 10.55 12.18 22.07 23.47 34.39 33.92 6.19 5.16 12.5 10.21 19.07 14.89 3.24 2.41 6.6 4.63 9.92 6.92 1.67 1.13 3.37 2.2 5.06 3.3 1.69 1.09 3.38 2.2 5.1 3.23 13.7 8.44 27.96 15.92 42.58 22.36 14.62 6.48 29.54 12.06 44.75 16.68 30.39 9.35 61.64 15.15 92.9 18.09 15.65 1.5 31.25 2.24 46.91 2.41 15.76.12 31.57-.43 47.35-1.85 15.78-1.39 31.54-3.5 47.15-6.52 15.62-2.96 31.09-6.77 46.34-11.33 30.63-9.1 60.62-21.88 88.66-38.43 7.04-4.09 13.87-8.54 20.63-13.11 6.71-4.63 13.31-9.45 19.71-14.5 6.43-5.12 12.81-10.42 18.88-16.05 3.09-2.75 6.02-5.69 9.01-8.55 2.89-2.97 5.86-5.86 8.65-8.93 11.35-12.09 21.65-25.11 31.02-38.71 4.61-6.84 9.1-13.76 13.2-20.88 2.13-3.52 4.04-7.14 6.05-10.72l2.85-5.44 1.42-2.72 1.38-2.82 2.74-5.67 2.57-5.74c1.76-3.81 3.25-7.73 4.85-11.6 2.98-7.82 5.81-15.7 8.15-23.7 4.85-15.96 8.31-32.21 10.65-48.48 2.36-16.28 3.5-32.58 3.74-48.75l.07-6.07-.05-6.23z"/>
		<path d="M1521.91 135.39c38.98 0 77.95 5.81 116.93 17.4 38.98 11.61 73.99 29.01 105.1 52.2 31.08 23.21 56.38 51.5 75.86 84.91 19.49 33.41 29.23 71.93 29.23 115.54 0 47.33-11.38 89.09-34.1 125.28-22.75 36.19-56.85 60.79-102.31 73.78v2.78c53.81 12.07 96.05 38.06 126.67 77.95 30.62 39.91 45.94 87.7 45.94 143.38 0 51.05-9.98 96.53-29.93 136.42-19.97 39.91-46.63 73.32-80.04 100.22-33.41 26.93-71.93 47.33-115.54 61.25-43.63 13.92-89.09 20.88-136.42 20.88-54.77 0-104.64-7.9-149.64-23.66-45.02-15.77-83.3-38.74-114.84-68.9-31.56-30.15-55.92-67.03-73.08-110.66-17.18-43.61-25.3-93.72-24.36-150.34h187.92c.91 25.99 5.09 50.81 12.53 74.47 7.42 23.66 18.1 44.09 32.02 61.25 13.92 17.18 31.32 30.86 52.2 41.06 20.88 10.22 45.7 15.31 74.47 15.31 44.54 0 82.13-13.68 112.75-41.06 30.62-27.36 45.94-64.73 45.94-112.06 0-37.11-7.2-65.42-21.58-84.91-14.4-19.49-32.71-33.63-54.98-42.46-22.27-8.81-46.63-13.92-73.08-15.31-26.45-1.39-51.74-2.09-75.86-2.09v-139.2c10.67.94 21.68 1.4 33.05 1.4s23.08-.47 35.16-1.4c24.12-1.85 46.63-7.18 67.51-16.01 20.88-8.81 38.04-21.58 51.5-38.28 13.44-16.7 20.18-38.98 20.18-66.82 0-41.76-13.92-73.78-41.76-96.05-27.84-22.27-59.86-33.41-96.05-33.41-50.11 0-87.94 16.49-113.45 49.42-25.53 32.95-37.82 74.47-36.89 124.58h-187.92c1.85-50.11 10.9-95.81 27.14-137.11 16.23-41.28 38.98-76.78 68.21-106.49 29.23-29.69 64.25-52.66 105.1-68.9 40.83-16.22 86.31-24.36 136.42-24.36m0-21c-52.52 0-101.02 8.7-144.17 25.84-43.36 17.25-81.14 42.04-112.3 73.69-31.12 31.63-55.61 69.83-72.79 113.54-17.04 43.32-26.66 91.77-28.59 144.02-.21 5.7 1.91 11.24 5.87 15.35s9.42 6.43 15.12 6.43h187.92c5.64 0 11.04-2.27 14.99-6.29 3.95-4.02 6.11-9.47 6.01-15.1-.43-22.79 2.15-43.77 7.66-62.37 5.38-18.16 13.73-34.63 24.83-48.95 21.52-27.78 53.2-41.28 96.85-41.28 31.57 0 58.7 9.42 82.93 28.81 22.8 18.24 33.88 44.29 33.88 79.65 0 22.78-5.23 40.83-15.54 53.65-11.36 14.09-25.53 24.6-43.31 32.1-18.68 7.9-39.18 12.75-60.95 14.42-11.49.89-22.78 1.34-33.55 1.34-10.7 0-21.21-.44-31.22-1.32-.61-.05-1.22-.08-1.83-.08-5.23 0-10.3 1.95-14.19 5.52-4.34 3.98-6.81 9.6-6.81 15.48v139.2c0 11.6 9.4 21 21 21 23.64 0 48.8.69 74.76 2.06 24.03 1.27 46.39 5.93 66.46 13.87 18.7 7.42 33.69 19 45.82 35.41 11.59 15.71 17.47 40.08 17.47 72.43 0 41.46-12.73 72.99-38.93 96.4-26.89 24.04-59.19 35.72-98.76 35.72-25.44 0-47.38-4.43-65.24-13.17-18.04-8.81-33.21-20.73-45.12-35.42-12.19-15.03-21.71-33.3-28.29-54.31-6.84-21.77-10.74-44.96-11.58-68.93-.4-11.3-9.68-20.26-20.99-20.26H1161.4c-11.46 0-20.81 9.19-21 20.65-.98 59.13 7.71 112.42 25.82 158.38 18.2 46.27 44.48 86.03 78.11 118.15 33.56 32.1 74.74 56.85 122.4 73.54 47.04 16.48 99.73 24.84 156.58 24.84 49.26 0 97.31-7.36 142.8-21.87 45.93-14.66 87.09-36.5 122.33-64.9 35.58-28.66 64.4-64.72 85.64-107.18 21.33-42.66 32.15-91.72 32.15-145.81 0-60.14-16.92-112.68-50.28-156.16-23.07-30.05-52.33-53.06-87.37-68.77 26.45-15.32 47.91-35.98 64.13-61.78 24.77-39.44 37.32-85.35 37.32-136.46 0-47.18-10.8-89.61-32.09-126.12-20.81-35.68-48.21-66.35-81.44-91.16-32.96-24.57-70.52-43.24-111.66-55.5-40.78-12.15-82.13-18.3-122.93-18.3z" fill="#fff"/>
		<path class="tulip" d="M1067.04 777.9l-79.55-55.83-.37-1.65 107.72-151.29 79.17 54.19.37 1.64z"/>
		<path transform="rotate(35.065 1080.5640038 671.85575859)" class="paleLime" d="M1031.98 578.45h97.18V765.3h-97.18z"/>
		<g class="bodySleep">
			<path class="darkLime" d="M1162.8 618.21l-6.65-4.33s-8.26-15.12-11.68-19.52c-1.06-1.36-3.97-4.6-5.29-6.07-.42-.47-1.05-.69-1.68-.59-1.22.2-3.23.57-4.04.89-3.31 1.33-9.43 5.19-12.07 7.59-3.08 2.81-10.15 13.24-10.15 13.24l-12.38 8.52-22.44 13.93-14.74 8.82 4.16 12.17-6.14-.85-6.66-6.11-27.96 39.83-13.14 12.19-16.44 20.97-3.06 4.35-3.88 3.05c-.78.61-1.18 1.59-1.05 2.58l.35 2.68c.07.52.28 1 .6 1.41l.75.93c.92 1.13 2.54 1.38 3.76.57l1.62-1.08c.37-.25.68-.58.9-.97l4.03-7.25 3.43-5.43 15.97-14.03 11.81-12.74 26.85-24.36 18.54-8.98 2.56 1.11-17.2 6.13s1.45 17.49 1.3 23.33c-.09 3.36-1.43 13.35-1.43 13.35s-7.17-.2-9.37.17c-4.08.68-10.72 4.21-14.77 5.07-2.68.57-8.27.92-10.95.34-1.2-.26-4.39-2.15-4.39-2.15-.62-.31-1.36-.24-1.93.16l-2.58 1.86-1.63 4.78s-5.05 4.06-5.92 5.98c-.51 1.12-.35 4.93-.35 4.93-.06.84.49 1.59 1.3 1.79.86.21 1.75-.27 2.04-1.11 0 0 .56-2.63 1.13-3.29 2.32-2.74 12.62-6.82 12.62-6.82l11.2-.17 29.51-.53c.33-.01.66-.1.94-.27l2.67-1.62c.36-.22.63-.54.78-.93 1.19-3.1 5.73-17.19 7.44-22.47 1.61-4.97 6.62-23.12 6.62-23.12l1.49-2.06c1.42-1.62 9.21-10.4 12.51-12.15 2.6-1.37 8.75-.99 11.66-1.42 2.38-.35 9.48-1.66 9.48-1.66s-4.55 5.2-5.74 7.16c-1.49 2.45-4 7.7-4.65 10.5-.33 1.44-.34 5.09-.32 6.99.01.77.33 1.5.89 2.02l1.2 1.12c1.04.97 2.64 1.02 3.73.1 3.22-2.71 9.59-8.16 11.86-10.67 2.13-2.35 7.89-11.55 7.89-11.55s3.97-.62 5.24-1.03c1.63-.52 6.25-2.78 6.25-2.78l2.76-3.94.11-.61c.1-.56-.31-1.07-.87-1.1l-1.15-.06-2.12 1.38-1.34.07 3.27-3.03c.26-.24.36-.61.26-.95 0 0-.04-.81-.26-.89-.74-.28-2.68 1.7-2.68 1.7l-3.03 1.79-2.29 1.58s-2.14 1.34-2.59.82c-.35-.4.93-1.93.93-1.93s2.16-1.11 2.29-1.83c.05-.28-.32-.9-.59-.99-.56-.19-2.2.89-2.2.89l-1.24.59c-.59.28-1.06.75-1.34 1.34l-1.62 3.43-3.89 5.13 2.41-7.16c.59-1.75.83-3.59.7-5.43l-.18-2.66-4.37-5.38-3.15-12.68-2.82-4.67c-.65-1.07-.51-2.44.34-3.36 0 0 6.25-6.62 8.22-8.94 1.43-1.7 5.46-7.01 5.46-7.01s9.51 9.98 12.27 13.63c1.04 1.37 3.67 5.81 3.67 5.81l1.12 6.16 4.8 5.04c.58.61 1.49.76 2.24.36l2.11-1.11c.82-.43 1.2-1.39.9-2.27l-1.92-5.64s1.35 3.02 2.3 3.05c.29.01.72-.58.75-.86.08-.78-1.66-2.77-1.66-2.77z"/>
			<path class="tulip" d="M1153.32 608.79c-2.72-4.81-6.72-11.7-8.85-14.44-1.06-1.36-3.97-4.6-5.29-6.07-.42-.47-1.05-.69-1.68-.59-1.22.2-3.23.57-4.04.89-1.37.55-3.23 1.54-5.12 2.68l24.98 17.53zM991.83 723.72l-3.26 2.57c-.78.61-1.18 1.59-1.05 2.58l.35 2.68c.07.52.28 1 .6 1.41l.75.93c.92 1.13 2.54 1.38 3.76.57l1.62-1.08c.37-.25.68-.58.9-.97l2.43-4.38-6.1-4.31z"/>
			<path class="white" d="M1029.71 689.71l26.85-24.36 3.61-3.78-1.48-12.8-6.66-6.11-27.96 39.84-12.49 11.58c-.44.4-.84.84-1.21 1.31l-12.69 18.31s-2.2.93-2.8 1.44c-1.13.98-3.45 4.86-3.45 4.86l-3.88 3.05c-.78.61-1.18 1.59-1.05 2.58l.35 2.68c.07.52.28 1 .6 1.41l.75.93c.92 1.13 2.54 1.38 3.75.57l1.62-1.08c.37-.25.68-.58.9-.97l4.03-7.25 3.07-4.86c.24-.38.53-.72.87-1.02l15.46-13.58 11.81-12.75z"/>
			<path class="white" d="M1060.45 663.62s1.45 17.49 1.3 23.33c-.07 2.77-1 10.05-1.32 12.52-.06.47-.47.82-.95.81-1.96-.04-6.8-.1-8.53.19-4.08.68-10.72 4.21-14.77 5.07-2.68.57-8.27.92-10.95.35-1.2-.26-4.39-2.15-4.39-2.15-.62-.3-1.58-.44-2.14-.03 0 0-1.07.69-1.37.99-.51.51-1.16 1.57-1.48 2.48l-1.15 3.37s-5.05 4.06-5.92 5.98c-.51 1.12-.35 4.93-.35 4.93-.06.83.49 1.59 1.3 1.79.86.21 1.75-.27 2.04-1.11 0 0 .56-2.63 1.13-3.29 2.07-2.45 10.53-5.97 12.3-6.69.22-.09.44-.13.67-.14l10.86-.16 29.51-.53c.33-.01.66-.1.94-.27l2.67-1.62c.36-.22.63-.54.78-.93 1.19-3.1 5.73-17.2 7.44-22.47 1.61-4.97 6.62-23.12 6.62-23.12l-14.57-1.62-9.67 2.32zm101.34-48.64l-6.65-4.33s-8.26-15.12-11.68-19.52c-1.06-1.36-3.97-4.61-5.29-6.07-.42-.47-1.05-.69-1.68-.59-1.22.2-3.23.57-4.04.89-3.31 1.33-9.43 5.19-12.07 7.59-3.08 2.81-10.15 13.24-10.15 13.24l-12.38 8.52-22.44 13.93-14.74 8.82 5.07 14.84 20.23 8.82s9.09-10.48 12.74-12.41c2.6-1.37 8.75-.99 11.66-1.42 2.38-.35 9.48-1.66 9.48-1.66s-4.55 5.2-5.74 7.16c-1.49 2.45-4 7.71-4.65 10.5-.33 1.44-.34 5.09-.32 6.99.01.77.33 1.5.89 2.02l1.2 1.12c1.04.97 2.64 1.02 3.73.1 3.22-2.71 9.58-8.16 11.86-10.67 2.13-2.35 7.89-11.55 7.89-11.55s3.97-.62 5.24-1.03c1.63-.51 6.25-2.78 6.25-2.78l2.76-3.94.11-.6c.1-.56-.31-1.08-.87-1.11l-1.15-.06-2.12 1.38-1.34.07 3.27-3.03c.26-.24.36-.61.26-.95 0 0-.04-.8-.26-.89-.74-.28-2.68 1.7-2.68 1.7l-3.03 1.79-2.29 1.58s-2.14 1.34-2.59.82c-.35-.4.93-1.93.93-1.93s2.16-1.11 2.29-1.83c.05-.28-.32-.9-.6-.99-.56-.19-2.2.89-2.2.89l-1.24.59c-.59.28-1.06.75-1.34 1.34l-1.62 3.44-3.89 5.13 2.41-7.16c.59-1.75.83-3.59.7-5.43l-.18-2.66-4.37-5.38-3.15-12.68-2.82-4.67c-.65-1.07-.51-2.44.34-3.36 0 0 6.25-6.62 8.22-8.94 1.43-1.69 5.46-7.01 5.46-7.01s9.51 9.98 12.27 13.63c1.04 1.37 3.67 5.81 3.67 5.81l1.13 6.16 4.8 5.04c.58.61 1.49.76 2.24.37l2.11-1.11c.82-.43 1.2-1.39.9-2.27l-1.92-5.64s1.35 3.02 2.3 3.05c.29.01.72-.58.75-.86.07-.81-1.67-2.8-1.67-2.8z"/>
			<path class="palestSapphire" d="M1058.69 648.77l-6.66-6.11-.81 1.16c-.14 1.21-.7 6.41.03 9.3 1.03 4.08 6.86 10.29 6.86 10.29l.18.12 1.88-1.97-1.48-12.79zm25.26 14.98l.7-.85-14.54-1.61-9.66 2.32s.05.55.12 1.48c1.93 1.2 6.7 3.88 11.17 4.12 6.09.32 12.21-5.46 12.21-5.46zm16.97-35.93c-4.09 1.62-9.76 4.19-16.04 8.22-4.97 3.19-10.16 7.18-9.94 7.51.19.29 4.41-2.11 7.2-3.83 4.17-2.58 6.08-4.21 8.37-5.79 2.85-1.96 7.15-4.43 13.3-6.34l-2.89.23z"/>
			<path class="palestSapphire" d="M1149.7 631.03c-9.29 5.1-16.32 5.54-22.34 6.77-3.5.72-13.84-4.08-22.46-4.84-4.47-.4-9.42-.83-10.2-3.25-1.12-3.51 6.88-10.28 15.34-13.29 6.2-2.2 6.73-.28 15.29-2.5 10.17-2.64 12.28-6.1 17.7-4.87 6.08 1.38 9.06 7.02 9.38 7.63 1.77 3.46 3.05 9.53-.07 12.73-.88.91-1.95 1.24-2.64 1.62z"/>
			<path class="sapphire" d="M1149.91 629.73c-8.86 4.87-15.56 5.28-21.31 6.46-3.33.68-13.2-3.89-21.42-4.62-4.26-.38-8.99-.8-9.73-3.1-1.07-3.35 6.57-9.81 14.63-12.67 5.91-2.1 6.42-.27 14.58-2.39 9.7-2.52 11.71-5.82 16.88-4.64 5.8 1.32 8.64 6.69 8.94 7.28 1.68 3.3 2.91 9.09-.06 12.14-.83.87-1.86 1.18-2.51 1.54z"/>
			<path class="paleTurquoise" d="M1052.03 642.66s-.83 6.28 0 9.57c1.03 4.08 6.86 10.29 6.86 10.29l1.56 1.1s6.29 4.4 12.07 4.7c6.09.32 12.21-5.46 12.21-5.46l4.33-5.2s-13.4-5.85-17.86-10.12c-4.34-4.17-5.92-12.86-5.92-12.86s-8.68 2.38-10.2 3.63c-1.02.84-3.05 4.35-3.05 4.35z"/>
			<path class="palestSapphire" d="M1116.46 667.83c1.25-2.92 5.95-8.3 7.57-10.21 3.2-3.75 4.39-6.84 4.58-6.73.21.12 5.9-9.09 3.22-3-.44 1.01-1.05 3.79-3.17 7.51-1.02 1.78-2.5 4.8-3.58 6.63-2.51 4.24-5.7 7.41-6.71 8.57-1.2 1.38-2.73 2.33-2.73 2.33l.39-2.92c.01 0 .21-1.67.43-2.18z"/>
		</g>
		<path class="tulip" d="M1074.48 604.37c-1.42-1.4-2.28-.95-3.81-2.58-2.03-2.16-1.25-3.72-2.93-5.11-1.68-1.38-4.53-1.54-6.75-.35-2.2 1.17-3.44 3.49-3.46 5.52-.03 2.35 1.59 3.38 1 4.34-.62 1.01-2.54.13-6.87.41-3.3.21-3.11.78-5.81.76-2.98-.02-4.4-.72-5.22.18-.25.27-.45.7-.23 3.4.3 3.75.78 3.99.53 5.05-.5 2.14-2.62 1.89-5.05 4.58-2.02 2.23-3.99 6.2-2.52 8.57.3.48 1.1 1.47 3.29 1.88l2.11-.47.65-1.06 1-1.53 1.53 1.53 2.64-2.64 2.76-1.29 4.4-2.05 9.21-2.93c.46-.01 3.83-.12 5.05-2.41.38-.71.43-1.4.47-2.17.06-1.04-.01-2.91-1.11-5.16 1.11.44 2.69 1.01 4.64 1.53 3.44.91 5.16 1.37 6.04.65 1.64-1.39.95-6.17-1.56-8.65zm-19.83 16.2l-5.28-.35-1.7-.82-1.06-2.35-1-2.88-1.7-2.46 5.11-.94 3.05-.65 2.29.79 8.39 3.61 2 2.11-10.1 3.94zm19.36-8.69c-1.16.29-4.05-.33-4.58-1.41-.13-.27.23-1.17.23-1.17l-.94-.53-.94.53s-3.81.9-5.11.82c-.87-.05-2.55-.58-3.34-.94-.41-.19-1.53-1-1.53-1s3.78-.39 4.99-.76c.92-.28 2.63-1.16 3.46-1.64.51-.3 1.94-1.35 1.94-1.35s2.31.55 2.99.94c1.1.63 3.75 3.4 3.75 3.4l1.17.98c.03 0-1.36 1.95-2.09 2.13z"/>
		<path class="darkLime" d="M1076.01 613c1.67-1.37.98-6.15-1.53-8.63-1.42-1.4-2.28-.95-3.81-2.58-.06-.06-.1-.12-.15-.18l-2.03 2.89c.64.16 2.17.56 2.71.87 1.1.63 3.75 3.4 3.75 3.4l1.17.98s-1.38 1.95-2.11 2.13c-1.16.29-4.05-.33-4.58-1.41-.13-.27.23-1.17.23-1.17l-.94-.53-.94.53s-1.63.38-3.11.63l-2.93 4.17.99.43 2 2.11-6.57 2.56-2.03 2.9 4.79-1.52c.46-.01 3.83-.12 5.05-2.41.38-.71.43-1.4.47-2.17.06-1.04-.01-2.91-1.11-5.16 1.11.44 2.69 1.01 4.64 1.53 3.44.89 5.16 1.35 6.04.63z"/>
		<path class="paleTurquoise" d="M1073.55 602.49c-1.42-1.4-2.28-.95-3.81-2.58-2.03-2.16-1.25-3.72-2.93-5.11-1.68-1.38-4.53-1.54-6.75-.35-2.2 1.17-3.44 3.49-3.46 5.52-.03 2.35 1.59 3.38 1 4.34-.62 1.01-2.54.13-6.87.41-3.3.21-3.11.78-5.81.76-2.98-.02-4.4-.72-5.22.18-.25.27-.45.7-.23 3.4.3 3.75.78 3.99.53 5.05-.5 2.14-2.62 1.89-5.05 4.58-2.02 2.23-3.99 6.2-2.52 8.57.3.48 1.1 1.47 3.29 1.88l2.11-.47.65-1.06 1-1.53 1.53 1.53 2.64-2.64 2.76-1.29 4.4-2.05 9.21-2.93c.46-.01 3.83-.12 5.05-2.41.38-.71.43-1.4.47-2.17.06-1.04-.01-2.91-1.11-5.16 1.11.44 2.69 1.01 4.64 1.53 3.44.91 5.16 1.37 6.04.65 1.63-1.38.94-6.17-1.56-8.65zm-19.84 16.2l-5.28-.35-1.7-.82-1.06-2.35-1-2.88-1.7-2.46 5.11-.94 3.05-.65 2.29.79 8.39 3.61 2 2.11-10.1 3.94zm19.37-8.68c-1.16.29-4.05-.33-4.58-1.41-.13-.27.23-1.17.23-1.17l-.94-.53-.94.53s-3.81.9-5.11.82c-.87-.05-2.55-.58-3.34-.94-.41-.19-1.53-1-1.53-1s3.78-.39 4.99-.76c.92-.28 2.63-1.16 3.46-1.64.51-.3 1.94-1.35 1.94-1.35s2.31.55 2.99.94c1.1.63 3.75 3.4 3.75 3.4l1.17.98c.02-.01-1.37 1.94-2.09 2.13z"/>
		<path class="tulip" d="M1290.44 1106.42c.3 1.3.07.49.28 1.3 1.65 6.15 2.9 6.3 7.2 16.9 5.47 13.49 5.16 17.47 7.82 23.79 6.2 14.7 20.02 21.91 33.8 29.11 8.17 4.26 35.64 18.6 45.07 9.39 6.61-6.46-.73-19.57 5.32-23.47 7.16-4.61 18.93 12.76 34.43 9.39 7.61-1.65 12.14-6.45 15.25-10.96-25.68-4.14-49.34-11.43-72.47-19.54-28.08-9.85-53.37-20.61-76.7-35.91z"/>
		<path d="M1447.15 1141.8c-25.79-3.94-50.29-9.96-73.49-18.09-30.76-10.78-58.38-24.92-82.84-42.42-3.52 8.49-1.63 19.67-.38 25.12 23.33 15.3 48.62 26.06 76.7 35.9 23.12 8.1 46.78 15.4 72.47 19.54 1.64-2.39 3.48-5.54 3.85-6.26 0 .01 2.9-5.7 3.69-13.79z" fill="#e3e5e5"/>
		<path class="white" d="M1329.56 1115.33l-13.45-6.59-9.69-3.77c-.63-.25-1.08-.82-1.18-1.49l-1-7.14-1.94-12.41c-.07-.43.17-.86.58-1.02 0 0 1.96-.66 2.56-1.01.4-.24 1.21-.99 1.21-1.43 0-.2-.21-.37-.41-.37-.41-.02-1.09.83-1.49.94-.29.08-1.01.19-1.2-.04-.54-.62.26-2.5.68-3.21.26-.44 1.24-1.06 1.32-1.58.03-.21.01-.56-.2-.59-.52-.1-1.29.94-1.65 1.32-.26.28-1.11 1.02-1.11 1.02s-.11-2.04-.02-2.71c.05-.39.32-1.18.13-1.57-.1-.21-.31-.54-.53-.46-.44.15-.84 1.16-.92 1.62-.1.66.01 2.67.01 2.67s-.5-2.19-.95-2.49c-.22-.15-.77.09-.91.32-.17.27.44 2.65.44 2.65s-.83-1.21-1.21-1.22c-.21-.01-.71.12-.71.52.01.46.8 1.53.99 2.08.17.5.07 1.61.26 2.1.17.43 1.07 1.52 1.07 1.52.14.19.19.43.16.67 0 0-2.13 12.27-2.28 16.41-.06 1.68.44 6.7.44 6.7.03.5.27.97.65 1.3l12.87 11.09 10.84 6.18 6.64-10.01zm53.99 18.12s9.4 6.16 12.41 8.38c1.8 1.33 6.23 4.97 8.1 6.51.53.44 1.25.55 1.89.29 1.75-.71 5.26-2.12 6.68-2.68 3.1-1.21 12.43-4.76 12.43-4.76l-.51-3.46.42-1.71.78.23-.11 1.65.62.35.53-1.45 1.59.26.42.49.98-.21 1.05.18.36.35 1.23-.04.3 1.19-2.72 3.12-1.95.82-2.22-.2s-9.8 8.13-13.39 10.37c-1.24.77-4.63 2.34-6.07 3-.43.19-.9.22-1.35.08-2.71-.87-12.61-4.08-16.08-5.69-2.83-1.32-10.76-6.33-10.76-6.33l5.37-10.74z"/>
		<path class="palestSapphire" d="M1386.91 1149.45c2.18-3.14 3.96-6.59 5.24-10.28-3.83-2.6-8.61-5.73-8.61-5.73l-5.37 10.74c.01.01 5.26 3.33 8.74 5.27zm-74.13-42.01c-1.38 3.05-2.42 6.3-3.06 9.68l2.36 2.03 10.84 6.18 6.64-10-13.45-6.59-3.33-1.3z"/>
		<circle class="paleLime" cx="1351.76" cy="1125.07" r="35.91"/>
		<path class="sapphire" d="M1342.99 1124.46c-.88-3.03-6.69-4.96-9.7-2.35-1.79 1.55-2.48 4.62-1.25 6.57 1.77 2.82 7.08 2.58 9.55 0 .13-.14 2-2.15 1.4-4.22z"/>
		<path class="sapphire" d="M1338.14 1125.07c-2.52.45-4.45 6.09-2.35 8.15 1.77 1.74 6.33.89 7.35-1.57 1.18-2.8-2.58-7.01-5-6.58z"/>
		<path d="M1338.14 1125.07c-.01-3.56 1.26-7.13 3.65-9.96 2.37-2.82 5.93-4.92 9.96-5.39 2-.23 4.11-.08 6.15.52 2.03.6 3.96 1.65 5.61 3.08 3.32 2.83 5.38 7.27 5.36 11.76.03 4.48-2.02 8.93-5.34 11.77-1.65 1.43-3.59 2.48-5.62 3.08-2.03.6-4.15.75-6.15.52-4.04-.47-7.6-2.58-9.97-5.41-2.39-2.83-3.66-6.4-3.65-9.97zm0 0c-.01 3.58 1.65 7.09 4.33 9.29 1.33 1.11 2.88 1.89 4.48 2.32 1.61.42 3.25.48 4.81.25 3.13-.48 5.75-2.2 7.48-4.37 1.74-2.2 2.63-4.83 2.63-7.48 0-2.66-.87-5.3-2.62-7.5-1.74-2.18-4.36-3.9-7.5-4.38-1.56-.23-3.21-.17-4.81.26-1.6.43-3.15 1.22-4.48 2.33-2.67 2.19-4.33 5.71-4.32 9.28z" fill="#afaf0c"/>
		<circle class="paleLime" cx="1351.76" cy="1125.07" r="13.61"/>
		<path class="sapphire" d="M1338.14 1125.07c-.04-3.57 1.37-7.13 3.84-9.77 2.45-2.66 6.01-4.39 9.77-4.59 3.76-.23 7.68 1.14 10.54 3.82 1.41 1.34 2.59 2.96 3.37 4.77.77 1.81 1.18 3.79 1.2 5.76-.02 1.98-.43 3.95-1.2 5.76-.78 1.82-1.96 3.44-3.37 4.78-2.85 2.68-6.78 4.05-10.54 3.83-3.77-.2-7.33-1.93-9.78-4.59-2.45-2.64-3.86-6.2-3.83-9.77zm0 0c.02 1.78.39 3.56 1.09 5.19.7 1.63 1.77 3.09 3.05 4.29 2.58 2.4 6.11 3.61 9.48 3.38 3.38-.2 6.53-1.76 8.71-4.15 2.19-2.38 3.43-5.53 3.4-8.71.03-3.18-1.21-6.34-3.4-8.72-2.18-2.39-5.34-3.95-8.72-4.15-3.37-.22-6.9.98-9.48 3.39-1.27 1.21-2.34 2.66-3.05 4.29-.68 1.64-1.05 3.41-1.08 5.19z"/>
	</g>
	<g class="headSwim">
		<path class="white" d="M1754.55 328.75c-.08-5.44-2.88-9.91-6.96-10.54-4.08-.64-8.11 2.78-9.84 7.93-.87.32-1.6 1.31-1.8 2.58-.2 1.27.2 2.44.93 3 .08 5.44 2.88 9.91 6.96 10.55 4.02.63 7.99-2.68 9.76-7.7 1-.17 1.89-1.24 2.11-2.66.23-1.41-.28-2.68-1.16-3.16z"/>
		<path class="sapphire" d="M1738.34 319.34s4.39-2.79 7.02-4.36c2.66-1.58 6.95-2.39 13.49.74 1.56.75 2.04 4.94 1.86 6.66-.28 2.67-4.54 6.87-5 9.52-.33 1.88 1.41 10.35-3.88 6.56-1.24-.89 3.51-15.05-.21-18-2.26-1.79-5.03-2.1-7.07-2.01-1.66.08-6.21.89-6.21.89z"/>
	</g>
	<g class="ribbon">
		<path class="sapphire" d="M1334.19 1127.37c-1.72-.11-5.23 6.26-3.76 11.58.71 2.59 2.45 4.37 3.29 9.08.11.62.18 1.18.24 1.65.04.33.45.46.66.2.86-1.03 1.88-2.53 2.55-4.51 1.23-3.6.6-6.71-.31-10.95-.85-3.91-1.51-6.98-2.67-7.05z"/>
		<path class="sapphire" d="M1338.2 1131.02c2.52.45 4.14 4.88 4.13 7.74-.01 1.38-1.24 4.78-1.94 6.61-.08.2-.38.14-.36-.08.14-2.33.45-6.61-.89-8.01-2.06-2.16-4.93-1.8-5.16-3.13-.24-1.32 2.26-3.48 4.22-3.13z"/>
	</g>
</svg>
