<svg xmlns="http://www.w3.org/2000/svg" viewBox="0 0 800 1237"><defs><style>.Yellow{fill:#f2f230;}.cls-1{fill:#3f7f19;}</style></defs><title>applebrother_1237</title><g id="vectors"><path class="Yellow" d="M595.165,638.229c-56.752-143.513-9.27-294.143,8.662-344.19a12,12,0,0,0-11.292-16.06H207.466a12,12,0,0,0-11.292,16.06c17.932,50.047,65.414,200.677,8.662,344.19-66.4,167.9-72.385,370.39,171.168,382.584V1171.1a14.293,14.293,0,0,1-4.306,9.99l-25.4,25.313c-7.644,7.645-17.994,11.533-28.8,11.857-74.916,2.242-73.161,7.965-73.161,12.965,0,4.346,80.586,5.609,155.66,5.758,80.4.159,155.661-1.1,155.661-5.758,0-5,1.8-10.723-73.119-12.965a42.215,42.215,0,0,1-28.759-12.125l-25.477-25.178a13.987,13.987,0,0,1-4.3-9.857V1020.813C667.55,1008.615,661.559,806.123,595.165,638.229Z"/><path class="cls-1" d="M664.928,329.822c2.379-15.425-.8-27.018-6.127-35.634,38.666,2.89,66.129-33.7,66.129-33.7-20.63-12.471-38.116-15.835-52.5-14.417C672.5,240,706,230.5,713.5,199.5c-64-2.5-107.824,18.261-105,77C611,328.5,664.928,329.822,664.928,329.822Z"/><path class="cls-1" d="M664.928,329.822c2.379-15.425-.8-27.018-6.127-35.634,38.666,2.89,66.129-33.7,66.129-33.7-20.63-12.471-38.116-15.835-52.5-14.417C672.5,240,706,230.5,713.5,199.5c-64-2.5-107.824,18.261-105,77C611,328.5,664.928,329.822,664.928,329.822Z"/><path class="cls-1" d="M659.5,183.5c-33.5-2.5-49.357,13.542-53,13,25.5-26.5,25.343-76.374,25.343-76.374C600.954,129.194,577.58,166.143,569,182.5c-9.5-46.5-67.343-55.594-67.343-55.594S506.5,172,534,210.5c-30-19.5-62.5-13.5-74-8,0,0,63.818,63.06,85.8,59.718,3.222,6.868,59.4,4.18,96.2-14.218-10-16.5-19-18.5-19-18.5S660.5,207.5,659.5,183.5Z"/><path class="Yellow" d="M472.51,426.5a8.007,8.007,0,0,1-7.916-9.223c8.439-54.606,38.16-133.428,131.826-198.837a8,8,0,1,1,9.16,13.118C516.549,293.732,488.369,368.2,480.406,419.722A8,8,0,0,1,472.51,426.5Z"/><path class="Yellow" d="M472.992,426.5a8,8,0,0,1-6.8-12.2c29.247-47.4,114.482-152.118,177.25-154.543a8,8,0,1,1,.618,15.988c-52.612,2.032-134.227,98.3-164.25,146.957A8,8,0,0,1,472.992,426.5Z"/></g></svg>