<?xml version="1.0" encoding="utf-8"?>
<!-- Generator: Adobe Illustrator 22.1.0, SVG Export Plug-In . SVG Version: 6.00 Build 0)  -->
<svg version="1.1" xmlns="http://www.w3.org/2000/svg" xmlns:xlink="http://www.w3.org/1999/xlink" x="0px" y="0px" width="800px"
	 height="1057px" viewBox="0 0 800 1057" style="enable-background:new 0 0 800 1057;" xml:space="preserve">
<style type="text/css">
	.yellow{fill:#F2F230;}
	.st0{fill:#1A1A1A;}
	.st1{fill:#FFFFFF;}
	.st2{opacity:0.21;fill:#DE0E00;}
	.st3{fill:#3F7F19;}
	.st4{fill:#F2F230;}
	.st5{fill:none;stroke:#F2F230;stroke-width:16;stroke-linecap:round;stroke-miterlimit:10;}
	.st6{fill:none;stroke:#F2F230;stroke-width:22;stroke-linecap:round;stroke-miterlimit:10;}
	.st7{fill:none;stroke:#3F7F19;stroke-width:26;stroke-linecap:round;stroke-miterlimit:10;}
	.st8{fill:none;stroke:#3F7F19;stroke-width:16;stroke-linecap:round;stroke-miterlimit:10;}
	.st9{fill:none;stroke:#F2F230;stroke-width:20;stroke-linecap:round;stroke-miterlimit:10;}
	.st10{opacity:0.2;}
	.st11{fill:none;}
</style>
<g id="directions">
</g>
<g id="vectors">
	<path class="yellow" d="M482.542,1037.584c-10.806-0.323-21.114-4.704-28.759-12.348l-25.193-25.291
		c-2.65-2.65-4.018-6.221-4.018-9.968v-296.98l6.105-20.258c3.952-11.354,10.761-21.476,19.802-29.4
		c21.54-18.876,71.312-65.367,111.865-124.675c48.663-71.17-10.93-344.368-21.737-391.668c-0.935-4.094-4.59-6.998-8.79-6.998
		H268.172c-4.2,0-7.839,2.905-8.775,6.999c-10.805,47.302-70.371,320.498-21.708,391.668
		c40.56,59.32,90.382,105.817,111.919,124.686c9.029,7.911,15.839,18.016,19.799,29.348l6.165,20.299v296.98
		c0,3.747-1.44,7.34-4.089,9.989l-25.289,25.313c-7.645,7.645-17.941,11.981-28.747,12.305
		c-74.916,2.242-127.409,7.413-127.409,13.413c0,4.096,102.519,6.099,209.963,6c102.397-0.094,209.963-2.096,209.963-6
		C609.963,1044.997,557.458,1039.826,482.542,1037.584z"/>
</g>
<g id="masks">
</g>
<g id="guides">
</g>
</svg>
