<svg xmlns="http://www.w3.org/2000/svg" viewBox="0 0 800 765"><defs><style>.Green{fill:#3f7f19;}.Yellow{fill:#f2f230;}</style></defs><title>basilsmash_765</title><g id="ab673ffd-72ad-4819-b297-3f3b8120fa38" data-name="vectors"><path class="Green" d="M696,127c-65-12-150-10-176.6,64.44-28.92,80.94,33,132.76,62.83,120C599,304.26,616.11,293.87,627.5,279,656.73,241,571,167,696,127Z"/><path class="Green" d="M507,336.62c15,28.29,72.35,34.15,99.83-16.58,22.86-42.2,73.65-66.08,131.85-24.46,0,0-2.29-36.63-66.08-73.65C607.31,184,477.08,280,507,336.62Z"/><path class="Green" d="M472.11,146.86c-29.79,47.43-42.74,80.5-26,128.15,21.17,60.4,77.82,79.35,77.82,79.35s34.77-58.3,23-104.84S506.86,240.25,472.11,146.86Z"/><path class="Yellow" d="M588,765H212a10.49,10.49,0,0,1-10.53-10.35L168,303.58A10.5,10.5,0,0,1,178.53,293H621.47A10.5,10.5,0,0,1,632,303.58L598.52,754.65A10.49,10.49,0,0,1,588,765Z"/></g></svg>