<svg xmlns="http://www.w3.org/2000/svg" viewBox="0 0 800 966"><defs><style>.Green{fill:#3f7f19;}.Yellow{fill:#f2f230;}</style></defs><title>beesknees_966</title><g id="vectors"><path class="Green" d="M683.65,135.47c-9.73,1.28-15.22,6.79-36.84-4.33s-91.92-27.92-149.81,30-41.09,128.2-30,149.82,5.61,27.1,4.33,36.84c-1.22,9.25,5.53,32,25.2,40.94a5,5,0,0,0,5.55-1.14l96.06-96.74a12,12,0,0,0,3.31-9.62c-.35-3.71,0-8.65,3.34-12.27,3.63-3.33,8.57-3.7,12.28-3.35a12,12,0,0,0,9.61-3.3l96.74-96.06a5,5,0,0,0,1.14-5.56C715.62,141,692.9,134.26,683.65,135.47Z"/><path class="Yellow" d="M671.84,173.85a114.62,114.62,0,1,0-137.23,181l63.56-64a12,12,0,0,0,3.31-9.62c-.35-3.71,0-8.65,3.34-12.27,3.63-3.33,8.57-3.7,12.28-3.35a12,12,0,0,0,9.61-3.3l64-63.57A114.55,114.55,0,0,0,671.84,173.85Z"/><path class="Yellow" d="M453.78,934.28,428.47,909a14.12,14.12,0,0,1-4.14-10V641.89s-8.63-51.81,91.84-95.76C685.69,471.7,676.73,311.19,672,273.13a9.39,9.39,0,0,0-9.34-8.22H137.32a9.39,9.39,0,0,0-9.34,8.22c-4.71,38.06-13.67,198.57,155.85,273,100.47,44,91.84,95.76,91.84,95.76V899a14.12,14.12,0,0,1-4.14,10l-25.31,25.31a42.47,42.47,0,0,1-28.76,12.39C242.54,948.92,190,954.11,190,960.17c0,7.77,419.92,7.77,419.92,0,0-6.06-52.5-11.25-127.42-13.5A42.47,42.47,0,0,1,453.78,934.28Z"/></g></svg>