<?xml version="1.0" encoding="utf-8"?>
<!-- Generator: Adobe Illustrator 22.1.0, SVG Export Plug-In . SVG Version: 6.00 Build 0)  -->
<svg version="1.1" xmlns="http://www.w3.org/2000/svg" xmlns:xlink="http://www.w3.org/1999/xlink" x="0px" y="0px" width="800px"
	 height="1126px" viewBox="0 0 800 1126" style="enable-background:new 0 0 800 1126;" xml:space="preserve">
<style type="text/css">
	.yellow{fill:#F2F230;}
	.green{fill:#3F7F19;}
	.st0{fill:#1A1A1A;}
	.st1{fill:#FFFFFF;}
	.st2{opacity:0.21;fill:#DE0E00;}
	.st3{fill:#3F7F19;}
	.st4{fill:#F2F230;}
	.st5{fill:none;stroke:#F2F230;stroke-width:16;stroke-linecap:round;stroke-miterlimit:10;}
	.st6{fill:none;stroke:#F2F230;stroke-width:22;stroke-linecap:round;stroke-miterlimit:10;}
	.st7{fill:none;stroke:#3F7F19;stroke-width:26;stroke-linecap:round;stroke-miterlimit:10;}
	.st8{fill:none;stroke:#3F7F19;stroke-width:16;stroke-linecap:round;stroke-miterlimit:10;}
	.st9{fill:none;stroke:#F2F230;stroke-width:20;stroke-linecap:round;stroke-miterlimit:10;}
	.st10{opacity:0.2;}
	.st11{fill:none;}
</style>
<g id="directions">
</g>
<g id="vectors">
	<path class="green" d="M576.091,185.419c3.002-2.263,4.94-5.861,4.933-9.91c-0.007-4.049-1.958-7.64-4.967-9.893
		c-0.012-6.835-5.562-12.367-12.397-12.355c-2.786,0.005-5.356,0.93-7.422,2.488c-2.071-1.55-4.644-2.467-7.43-2.462
		c-4.049,0.007-7.64,1.958-9.893,4.967c-2.263-3.002-5.861-4.94-9.909-4.933s-7.64,1.958-9.893,4.967
		c-2.263-3.002-5.861-4.94-9.909-4.933s-7.64,1.958-9.893,4.967c-2.263-3.002-5.861-4.94-9.91-4.933
		c-4.691,0.008-8.767,2.625-10.86,6.475c-3.843,2.106-6.446,6.191-6.438,10.882c0.007,4.049,1.958,7.64,4.967,9.893
		c-3.002,2.263-4.94,5.861-4.933,9.91c0.009,5.317,3.371,9.844,8.081,11.588c-1.93,2.187-3.102,5.059-3.096,8.206
		c0.008,4.4,2.312,8.257,5.775,10.445c-0.517,1.367-0.802,2.849-0.799,4.398c0.012,6.835,5.562,12.367,12.397,12.355
		c-1.55,2.071-2.467,4.644-2.462,7.43c0.012,6.835,5.562,12.367,12.398,12.355c0.917-0.002,1.81-0.106,2.671-0.297
		c1.042,5.792,6.108,10.183,12.198,10.173c4.049-0.007,7.64-1.958,9.893-4.967c2.263,3.002,5.861,4.94,9.909,4.933
		c6.09-0.01,11.141-4.419,12.163-10.214c0.861,0.188,1.754,0.289,2.672,0.288c6.835-0.012,12.367-5.562,12.355-12.397
		c-0.003-1.549-0.292-3.029-0.814-4.395c3.455-2.2,5.747-6.065,5.739-10.465c-0.003-1.549-0.292-3.029-0.814-4.395
		c3.455-2.201,5.747-6.065,5.739-10.465c-0.005-3.146-1.186-6.015-3.124-8.195c4.704-1.76,8.05-6.298,8.041-11.615
		C581.052,191.263,579.101,187.672,576.091,185.419z"/>
	<path class="green" d="M495.713,165.051c1.622-3.392,1.685-7.478-0.187-11.068c-1.872-3.59-5.257-5.879-8.967-6.492
		c-3.159-6.061-10.634-8.413-16.695-5.254c-2.471,1.288-4.325,3.293-5.441,5.627c-2.553-0.422-5.258-0.05-7.729,1.238
		c-3.59,1.872-5.879,5.257-6.492,8.966c-3.392-1.622-7.478-1.685-11.068,0.187c-3.59,1.871-5.879,5.257-6.492,8.966
		c-3.392-1.622-7.478-1.685-11.068,0.187c-3.59,1.872-5.879,5.257-6.492,8.966c-3.392-1.622-7.478-1.685-11.068,0.187
		c-4.16,2.168-6.572,6.369-6.655,10.75c-2.44,3.64-2.869,8.464-0.7,12.624c1.871,3.59,5.257,5.879,8.966,6.492
		c-1.622,3.392-1.685,7.478,0.187,11.068c2.458,4.715,7.527,7.184,12.511,6.562c-0.706,2.83-0.422,5.919,1.033,8.71
		c2.034,3.902,5.856,6.263,9.938,6.61c0.171,1.452,0.601,2.898,1.317,4.271c3.159,6.061,10.634,8.414,16.695,5.254
		c-0.422,2.553-0.05,5.258,1.238,7.729c3.159,6.061,10.634,8.414,16.696,5.254c0.814-0.424,1.558-0.928,2.234-1.494
		c3.593,4.661,10.113,6.224,15.513,3.409c3.59-1.872,5.879-5.257,6.492-8.966c3.392,1.622,7.478,1.685,11.068-0.187
		c5.4-2.815,7.853-9.055,6.09-14.669c0.851-0.23,1.69-0.551,2.504-0.976c6.061-3.16,8.414-10.634,5.254-16.696
		c-0.716-1.373-1.655-2.554-2.747-3.526c2.053-3.545,2.306-8.031,0.272-11.933c-0.716-1.373-1.655-2.554-2.747-3.526
		c2.053-3.545,2.306-8.031,0.272-11.932c-1.454-2.79-3.824-4.792-6.549-5.834c3.364-3.729,4.243-9.299,1.785-14.014
		C502.808,167.952,499.422,165.664,495.713,165.051z"/>
	<path class="yellow" d="M482.626,1106.672c-10.787-0.323-21.048-4.759-28.679-12.39L428.6,1068.97
		c-2.649-2.649-4.172-6.243-4.172-9.989V831.888c0,0,3.148-15.068,16.462-55.471c0.501-1.519,0.273-3.182-0.655-4.484
		c-11.143-15.647-6.991-12.657-18.509-29.933c0,0-1.996-12,5.004-24s241.002-76,217.002-249
		c-18.482-133.224-47.044-205.959-59.202-232.363C581.265,229.541,574.176,225,566.365,225H233.8
		c-7.812,0-14.901,4.541-18.168,11.637c-12.157,26.404-40.721,99.139-59.203,232.363c-24,173,210,237,217,249s5,24,5,24
		c-11.518,17.276-7.375,14.286-18.517,29.933c-0.928,1.303-1.292,2.966-0.792,4.484c13.315,40.403,16.309,55.471,16.309,55.471
		v227.092c0,3.747-1.369,7.34-4.018,9.989l-25.253,25.313c-7.631,7.631-17.863,12.067-28.65,12.39
		c-74.958,2.241-127.486,7.44-127.486,13.502c0,3.885,105.044,5.826,210.053,5.825c105.009,0.001,210.049-1.941,210.049-5.825
		C610.124,1114.113,557.585,1108.913,482.626,1106.672z"/>
	<path class="yellow" d="M533.5,173c-4.243,0-7.78-3.336-7.984-7.619c-0.634-13.314,9.131-36.225,26.473-43.29
		c4.094-1.665,8.761,0.299,10.428,4.391s-0.299,8.761-4.391,10.428c-9.664,3.937-16.915,19.584-16.527,27.71
		c0.21,4.414-3.197,8.162-7.61,8.372C533.758,172.997,533.629,173,533.5,173z"/>
	<path class="yellow" d="M448.089,176.849c-3.766,1.955-8.442,0.624-10.597-3.084c-6.697-11.525-8.585-36.358,3.551-50.618
		c2.866-3.364,7.913-3.771,11.278-0.907s3.771,7.913,0.907,11.278c-6.764,7.946-5.99,25.175-1.902,32.208
		c2.22,3.821,0.923,8.717-2.897,10.937C448.316,176.727,448.203,176.789,448.089,176.849z"/>
</g>
<g id="masks">
</g>
<g id="guides">
</g>
</svg>
