<svg xmlns="http://www.w3.org/2000/svg" viewBox="0 0 800 942"><defs><style>.Green{fill:#3f7f19;}.Yellow{fill:#f2f230;}</style></defs><title>blossom_942</title><g id="d1dfad14-c050-497b-b466-05e1e23d172e" data-name="vectors"><path class="Green" d="M676.14,131c-8.93,1.36-13.87,6.54-34-3.26s-85.11-23.87-137.22,30.52S469.67,277,480.33,296.69,486,321.52,485,330.5c-.93,8.53,5.72,29.3,24,37.16a4.59,4.59,0,0,0,5.09-1.16l86.45-90.89a11,11,0,0,0,2.85-8.91c-.39-3.4-.15-7.95,2.84-11.35,3.27-3.14,7.8-3.57,11.22-3.32a11,11,0,0,0,8.78-3.23l87.1-90.28a4.59,4.59,0,0,0,.94-5.13C705.66,135.48,684.62,129.72,676.14,131Z"/><path class="Yellow" d="M666,166.55A105.47,105.47,0,1,0,543.36,335.76l57.21-60.15a11,11,0,0,0,2.85-8.91c-.39-3.4-.15-7.95,2.84-11.35,3.27-3.14,7.8-3.57,11.22-3.32a11,11,0,0,0,8.78-3.23l57.64-59.74A105.79,105.79,0,0,0,666,166.55Z"/><path class="Yellow" d="M453.78,910.28,428.47,885a14.12,14.12,0,0,1-4.14-10V617.89s-8.63-51.81,91.84-95.76C685.69,447.7,676.73,287.19,672,249.13a9.39,9.39,0,0,0-9.34-8.22H137.32a9.39,9.39,0,0,0-9.34,8.22c-4.71,38.06-13.67,198.57,155.85,273,100.47,44,91.84,95.76,91.84,95.76V875a14.12,14.12,0,0,1-4.14,10l-25.31,25.31a42.47,42.47,0,0,1-28.76,12.39C242.54,924.92,190,930.11,190,936.17c0,7.77,419.92,7.77,419.92,0,0-6.06-52.5-11.25-127.42-13.5A42.47,42.47,0,0,1,453.78,910.28Z"/></g></svg>