<?xml version="1.0" encoding="utf-8"?>
<!-- Generator: Adobe Illustrator 22.0.1, SVG Export Plug-In . SVG Version: 6.00 Build 0)  -->
<svg version="1.1" id="Layer_1" xmlns="http://www.w3.org/2000/svg" xmlns:xlink="http://www.w3.org/1999/xlink" x="0px" y="0px"
	 viewBox="0 0 800 1277" style="enable-background:new 0 0 800 1277;" xml:space="preserve">
<style type="text/css">
	.st0{fill:#F2F230;}
	.st1{fill:#3F7F19;}
</style>
<g id="guides">
	<path class="st0" d="M441,121.3c-6.8,9.8-7.9,27.1-6.3,35.4c1.5,8.3,7.2,15.8,15.5,14.3c8.3-1.5,10.9-10.6,9.4-18.8
		C458,143.9,450.8,128.1,441,121.3z"/>
	<path class="st0" d="M503,156.9c-9.8-6.8-27.1-7.9-35.4-6.3c-8.3,1.5-15.8,7.2-14.3,15.5c1.5,8.3,10.6,10.9,18.8,9.4
		C480.4,173.9,496.2,166.7,503,156.9z"/>
	<path class="st0" d="M463.7,129.5c-11.3,3.6-22.8,16.6-26.7,24.1c-3.9,7.5-4,16.9,3.5,20.8c7.5,3.9,15.1-1.7,19-9.1
		C463.3,157.7,467.3,140.8,463.7,129.5z"/>
	<path class="st0" d="M479,138.2c-11.8,1.9-25.1,13-30,19.8c-5,6.8-6.5,16.1,0.3,21s15.2,0.6,20.1-6.2
		C474.3,166,480.8,150,479,138.2z"/>
	<path class="st1" d="M450.5,146.1l26.2,15c27.5,15.8,28.8,55,2.4,72.6L437.3,255c-18.5,6.9-39.1-2.4-46-20.9
		c-0.8-2.1-1.4-4.3-1.8-6.5l-2.8-46.8C388.5,149.1,423,130.4,450.5,146.1z"/>
</g>
<title>bubbles_1277</title>
<g id="vectors">
	<path class="st0" d="M482.5,1257.6c-10.8-0.3-21.1-4.7-28.8-12.3l-33.5-25.3c-2.6-2.6-8.4-6.2-8.4-10v-207h0.9
		c0,0-3-141.1,58-304.1c54-144.3,35.1-440.8,30.1-475.1c-0.6-3.9-4-6.8-7.9-6.8H307c-4,0-7.3,2.9-7.9,6.8
		c-5,34.3-23.9,330.9,30.1,475.2c61,163,58,304,58,304h0.7v207c0,3.7-5.6,7.3-8.2,10l-33.4,25.3c-7.7,7.6-18,12-28.8,12.3
		c-74.9,2.2-67.4,7.4-67.4,13.4c0,4,75,6,150,6c75,0,150-2,150-6C550,1265,557.5,1259.8,482.5,1257.6z"/>
</g>
</svg>
