<svg xmlns="http://www.w3.org/2000/svg" viewBox="0 0 800 1277"><defs><style>.Yellow{fill:#f2f230;}.Green{fill:#3f7f19;}</style></defs><title>bubbles_1277</title><g id="vectors"><path class="Yellow" d="M482.542,1257.587a42.438,42.438,0,0,1-28.759-12.348l-33.55-25.291c-2.65-2.649-8.376-6.221-8.376-9.968V1003h.949s-3-141.056,58-304.056C524.8,554.667,505.93,258.1,500.883,223.8a7.969,7.969,0,0,0-7.914-6.8H307.031a7.944,7.944,0,0,0-7.914,6.77c-5.047,34.3-23.916,330.925,30.077,475.2,61,163,58,304.028,58,304.028h.663v206.98c0,3.747-5.583,7.34-8.232,9.989l-33.36,25.313a42.451,42.451,0,0,1-28.783,12.305c-74.916,2.242-67.445,7.413-67.445,13.413,0,4,74.991,6,149.963,6,74.99,0,149.963-2,149.963-6C549.963,1265,557.458,1259.829,482.542,1257.587Z"/></g><g id="guides"><path class="Green" d="M454.847,121.3c-7.852,11.386-9.128,31.507-7.361,41.125s8.343,18.355,17.962,16.588,12.661-12.269,10.894-21.888S466.233,129.148,454.847,121.3Z"/><path class="Green" d="M526.824,162.681c-11.386-7.852-31.506-9.127-41.125-7.361s-18.354,8.343-16.588,17.962S481.38,185.943,491,184.177,518.972,174.067,526.824,162.681Z"/><path class="Green" d="M481.2,130.771c-13.182,4.189-26.517,19.31-31.013,28s-4.651,19.617,4.034,24.114,17.524-1.94,22.02-10.625S485.392,143.953,481.2,130.771Z"/><path class="Green" d="M498.925,140.932c-13.661,2.156-29.121,15.1-34.874,23.006s-7.551,18.694.358,24.447,17.616.72,23.369-7.188S501.081,154.594,498.925,140.932Z"/><path class="Yellow" d="M465.885,150.171l30.406,17.434c31.994,18.344,33.5,63.945,2.782,84.357L450.46,276.605a41.492,41.492,0,0,1-55.491-31.816l-3.291-54.4C393.777,153.566,433.891,131.827,465.885,150.171Z"/></g></svg>