<svg xmlns="http://www.w3.org/2000/svg" viewBox="0 0 800 753"><defs><style>.Green{fill:#3f7f19;}.Yellow{fill:#f2f230;}</style></defs><title>campariorange_753</title><g id="vectors"><circle class="Green" cx="626.157" cy="280.136" r="160"/><circle class="Yellow" cx="626.157" cy="280.136" r="140"/><path class="Green" d="M590.289,245.9a1.99,1.99,0,0,0,2.1-2.1c-.325-5.935-2.053-22.58-11.239-31.766-5.657-5.657-16.968-5.655-22.625,0s-5.659,16.968,0,22.625C567.709,243.843,584.354,245.571,590.289,245.9Z"/><path class="Green" d="M662.025,314.375a1.99,1.99,0,0,0-2.1,2.1c.325,5.935,2.052,22.58,11.238,31.766,5.657,5.657,16.969,5.655,22.626,0s5.659-16.968,0-22.625C684.606,316.428,667.961,314.7,662.025,314.375Z"/><path class="Green" d="M660.4,244.267a1.99,1.99,0,0,0,2.1,2.1c5.935-.325,22.58-2.052,31.766-11.239,5.657-5.656,5.655-16.968,0-22.625s-16.969-5.659-22.625,0C662.449,221.687,660.722,238.332,660.4,244.267Z"/><path class="Green" d="M660.4,244.267a1.99,1.99,0,0,0,2.1,2.1c5.935-.325,22.58-2.052,31.766-11.239,5.657-5.656,5.655-16.968,0-22.625s-16.969-5.659-22.625,0C662.449,221.687,660.722,238.332,660.4,244.267Z"/><path class="Yellow" d="M587.989,753H212.011a10.5,10.5,0,0,1-10.534-10.346L168,291.58A10.5,10.5,0,0,1,178.535,281h442.93A10.5,10.5,0,0,1,632,291.58L598.523,742.654A10.5,10.5,0,0,1,587.989,753Z"/></g></svg>