<?xml version="1.0" encoding="utf-8"?>
<!-- Generator: Adobe Illustrator 22.1.0, SVG Export Plug-In . SVG Version: 6.00 Build 0)  -->
<svg version="1.1" xmlns="http://www.w3.org/2000/svg" xmlns:xlink="http://www.w3.org/1999/xlink" x="0px" y="0px" width="800px"
	 height="1058px" viewBox="0 0 800 1058" style="enable-background:new 0 0 800 1058;" xml:space="preserve">
<style type="text/css">
	.yellow{fill:#F2F230;}
	.green{fill:#3F7F19;}
	.st0{fill:#1A1A1A;}
	.st1{fill:#FFFFFF;}
	.st2{opacity:0.21;fill:#DE0E00;}
	.st3{fill:#3F7F19;}
	.st4{fill:#F2F230;}
	.st5{fill:none;stroke:#F2F230;stroke-width:16;stroke-linecap:round;stroke-miterlimit:10;}
	.st6{fill:none;stroke:#F2F230;stroke-width:22;stroke-linecap:round;stroke-miterlimit:10;}
	.st7{fill:none;stroke:#3F7F19;stroke-width:26;stroke-linecap:round;stroke-miterlimit:10;}
	.st8{fill:none;stroke:#3F7F19;stroke-width:16;stroke-linecap:round;stroke-miterlimit:10;}
	.st9{fill:none;stroke:#F2F230;stroke-width:20;stroke-linecap:round;stroke-miterlimit:10;}
	.st10{opacity:0.2;}
	.st11{fill:none;}
</style>
<g id="directions">
</g>
<g id="vectors">
	<g>
		<path class="green" d="M474.356,382.821c-19.913,20.41-15.222,44.164-28.688,73.495c-15.03,32.737-17.643,59.717-67.101,97.868
			c-52.478,40.48-19.263,65.959,10.556,62.578s72.282-17.128,118.587-62.024c46.305-44.896,86.344-126.889,55.41-168.146
			C540.539,356.476,491.43,365.32,474.356,382.821z"/>
		<path class="yellow" d="M522.5,382.923c-0.33,0-0.663-0.021-0.999-0.062c-4.384-0.546-7.496-4.542-6.951-8.927
			c0.027-0.219,2.8-22.415,8.679-63.39c4.615-32.165,15.672-53.698,32.865-64.001c14.617-8.759,33.129-9.167,55.025-1.212
			c4.152,1.509,6.296,6.098,4.787,10.251c-1.509,4.152-6.099,6.295-10.251,4.787c-17.388-6.316-30.909-6.351-41.336-0.102
			c-12.858,7.706-21.354,25.386-25.251,52.549c-5.855,40.807-8.612,62.875-8.639,63.094
			C529.924,379.959,526.477,382.922,522.5,382.923z"/>
	</g>
	<path class="yellow" d="M767.928,575.18c-2.854-7.202-10.027-12.078-18.31-11.622c-3.31,0.182-6.481,1.427-9.273,3.215
		l-42.726,27.372c-15.386-9.476-44.381-22.624-76.538-13.31c-11.146-30.861-22.323-48.97-28.453-59.117
		c-2.896-4.794-8.089-7.719-13.691-7.719l-180.986,0l-180.964,0c-5.669,0-10.921,2.98-13.783,7.873
		C187.958,547.935,142,635.619,142,778.127c0,145.996,63.076,246.849,81.425,273.098c2.979,4.262,7.872,6.774,13.073,6.774H559.4
		c5.235,0,10.12-2.544,13.118-6.836c10.445-14.957,35.254-53.915,54.755-111.485c29.655,6.098,55.954-5.977,70.345-14.84
		l42.726,27.372c2.791,1.788,5.963,3.033,9.273,3.215c8.284,0.457,15.457-4.42,18.31-11.622
		C800.024,862.8,800.024,656.184,767.928,575.18z M741.227,908.998l-34.11-21.852c-6.884-4.41-15.704-3.881-21.876,1.473
		c-0.606,0.497-9.003,7.277-21.046,11.792c-9.228,3.46-18.024,4.661-26.297,3.617c9.468-36.644,16.003-78.929,16.003-125.9
		c0-65.278-9.646-119.724-21.563-162.103c9.856-2.538,20.529-1.696,31.856,2.55c12.043,4.515,20.44,11.294,21.046,11.792
		c6.171,5.354,14.992,5.883,21.876,1.473l34.11-21.852C762.482,676.568,762.482,842.417,741.227,908.998z"/>
	<g>
		<path class="green" d="M709.376,287.894c0.192-5.445-0.27-20.659-9.81-35.836c-11.901-18.934-33.962-31.482-33.962-31.482
			s1.668,24.17,12.846,42.94c-12.2-4.747-23.222-6.09-23.222-6.09s10.135,20.203,26.422,31.667
			c16.287,11.464,33.296,10.367,33.296,10.367S713.483,294.376,709.376,287.894z M668.851,428.185
			c15.879-5.122,28.703-15.165,28.703-15.165s-21.453-7.119-41.075-3.709c-10.711,1.862-18.921,6.52-24.175,10.368
			c-1.553,0.117-2.424,0.259-2.424,0.259s0.171,0.428,0.53,1.189c-3.145,2.513-4.805,4.397-4.805,4.397s3.557,1.965,9.473,3.581
			c4.144,5.992,10.995,13.762,21.353,19.614c19.472,11,44.845,11.551,44.845,11.551S687.99,439.284,668.851,428.185z
			 M586.624,513.839c10.113-2.844,12.198-5.152,41.313-0.839c-12-21.333-35.044-25.41-54.667-22
			c-12.116,2.106-20.764,9.241-25.612,14.395c-0.176,0.024-0.275,0.04-0.275,0.04s0.026,0.064,0.073,0.174
			c-2.873,3.087-4.348,5.411-4.348,5.411s3.557,1.965,9.473,3.581c4.144,5.992,10.995,13.762,21.353,19.614
			c19.472,10.999,44.845,11.551,44.845,11.551S605.618,524.977,586.624,513.839z M655.741,370.508
			C650.342,348.806,633.299,330,633.299,330s-4.667,18.401-2.437,37.414c-15.904-14.224-38.146-20.524-53.257-5.414
			c24,8,26.135,17.053,42.422,28.517c8.743,6.154,17.691,8.686,24.107,9.714c4.766,6.156,8.959,9.344,8.959,9.344
			S661.139,392.21,655.741,370.508z M745.722,316.714c-0.694-0.129-1.383-0.245-2.067-0.348
			c24.449-4.663,27.783-26.328,27.783-26.328s-22.58-1.014-40.535,7.606c-17.955,8.62-25.299,24.001-25.299,24.001
			s0.726-0.122,2.066-0.335c-0.515,0.245-0.786,0.391-0.786,0.391s-0.848,11.66,21.139,15.748
			c21.987,4.087,26.849-10.542,59.479-0.76C772.206,322.483,767.709,320.801,745.722,316.714z M698.006,177.029
			C716.414,192.43,737.604,194,737.604,194s0-22.627-16.971-39.598c-16.971-16.971-31.029-0.402-45.255-22.627
			C681.604,154,689.604,170,698.006,177.029z M756.332,153.96c0.632-1.046,1.222-2.159,1.753-3.344
			C763.662,138.167,760.94,122,760.94,122s-11.714,7.376-17.941,18.232c-4.436-9.073-13.611-15.608-13.611-15.608
			s-2.909,12.784,0.977,22.978c2.024,5.309,5.533,8.98,8.438,11.292c0.345,5.217,1.688,8.752,1.688,8.752s0.398-0.153,1.077-0.473
			c-10.011,12.85-11.964,26.525-11.964,26.525s22.4,3.198,41.599-11.203C790.402,168.092,800,140.892,800,140.892
			S775.242,142.277,756.332,153.96z"/>
		<path class="yellow" d="M439.807,713.616c-0.437,0-0.879-0.035-1.324-0.109c-4.358-0.727-7.303-4.848-6.577-9.206
			c19.287-115.812,121.835-216.563,196.714-290.13l8.009-7.874c35.807-35.241,62.273-82.872,78.666-141.569
			c13.454-48.176,16.499-90.801,17.962-111.286c0.314-4.407,4.153-7.735,8.549-7.41c4.407,0.314,7.725,4.143,7.41,8.549
			c-1.5,21.007-4.623,64.72-18.511,114.45c-17.153,61.423-45.029,111.443-82.852,148.669l-8.02,7.884
			C566.522,497.61,466.12,596.253,447.688,706.93C447.037,710.843,443.647,713.616,439.807,713.616z"/>
	</g>
</g>
<g id="masks">
</g>
<g id="guides">
</g>
</svg>
