<svg xmlns="http://www.w3.org/2000/svg" viewBox="0 0 800 821"><defs><style>.Yellow{fill:#f2f230;}</style></defs><title>doodlesandbubbles_821</title><g id="vectors"><path class="Yellow" d="M453.783,789.282,428.47,763.97a14.131,14.131,0,0,1-4.138-9.99V496.888s-8.634-51.8,91.834-95.759c169.525-74.426,160.566-234.937,155.855-273a9.391,9.391,0,0,0-9.344-8.216H137.323a9.391,9.391,0,0,0-9.344,8.216c-4.711,38.066-13.67,198.577,155.855,273,100.468,43.955,91.834,95.759,91.834,95.759V753.98a14.123,14.123,0,0,1-4.138,9.989l-25.312,25.313a42.483,42.483,0,0,1-28.76,12.392c-74.916,2.242-127.421,7.441-127.421,13.5,0,7.766,419.926,7.766,419.926,0,0-6.06-52.5-11.259-127.421-13.5A42.481,42.481,0,0,1,453.783,789.282Z"/></g></svg>