<svg xmlns="http://www.w3.org/2000/svg" viewBox="0 0 800 897"><defs><style>.Green{fill:#3f7f19;}.Yellow{fill:#f2f230;}</style></defs><title>dtginger_897</title><g id="vectors"><path class="Green" d="M422.512,519.77l-15.458-10.289c2.7-9.324,19.308-73.2,21.746-82.268.7-8.124,1.68-17.281,3.047-26.957-11.416-24.474-30.968-73.33-28.538-116.552,0,0,22.749,42.576,35.781,98.115.761-1.591,3.286-21.69,4.91-27.358-8.638-19.233-27.539-51.415-31.8-88.608,0,0,19.969,25.839,33.238,80.817.166-.5,1.854-5.735,2.023-6.228-7.6-28.319-22.432-82.19-13.253-98.62,0,0,9.471,32.7,15.034,64.028a7.372,7.372,0,0,1,.619-.426c-.691-29.984,1.53-64.751,12.148-90.617,0,0,8.961,47.74,3.06,103.844,9.854-15.764,19.976-28.833,27.781-31.67,0,0-12.321,34.7-38.14,61.292-.315,2.447-.668,4.967-1.067,7.578,8.673-12.508,26.56-24.018,42.568-35.571,0,0-14.281,24.185-46.892,65.345-3.979,18.566-22.33,95.969-29.2,120.147,1.874-3.778,26.139-61.581,28.074-65.39,21.137-41.606,39.5-79.331,61.013-110.85-4.706-28.824-14.365-97.465,1.681-141.424,0,0,5.889,25.728,7.513,61.795,2.4-12.672,5.687-22.9,10.169-27.28,0,0,2.146,52.543-3.935,87.785,1.162-1.565,5.369-6.158,6.531-7.69,8.962-11.826,15.893-20.078,24.837-30-2.377-15.418-10.6-63.318-2.409-89.547,0,0,11.166,53.68,6.559,79.8q5.832-6.171,11.651-11.792c.007-30.809,1.644-80.71,11.761-93.174,0,0,2.336,48.25-1.856,83.992.27-.241.542-.486.813-.725,1.114-3.914,3.311-3.081,3.621-12.441.894-26.942,6.218-68.854,17.379-79.931,0,0-.039,13.584-1.248,31.056,10.217-27.5,21.966-52.187,32.933-58.853,0,0-7.242,31.26-18.177,65.469,13.5-22.059,32.31-46.857,53.1-56.707,0,0-14.194,35.035-41.055,66.549,14.8-12.611,31.675-24.05,47.916-28.531a267.626,267.626,0,0,1-28.213,30.975c11.751-6.03,23.85-10.6,35.2-12.035,0,0-49.084,45.48-84.725,54.069-5.588,3.143-22.538,23.8-25.588,26.544,22.9-12.384,59.3-25.337,85.031-24.395,0,0-47.191,31.9-100,40.94-10.06,11.487-20.478,23.11-31.46,38.407,27.561-21.908,71.518-41.867,102.29-43.185,0,0-58.014,42.892-111.865,56.843-8.487,12.369-15.567,23.224-24.518,38.131,15.109-12.283,48.73-31.63,81.609-33.038,0,0-8.3,8.88-24.027,18.9,18.008-4.5,36.618-7.013,51.738-4.339,0,0-58.367,28.545-114.168,28.776-9.447,16.088-17.4,34.515-27.3,53.688a155.387,155.387,0,0,1,69.737-41.348s-20.98,24.258-77.147,55.932C450.5,458.926,425.434,513.705,422.512,519.77Z"/><path class="Yellow" d="M381.889,619.6a6.962,6.962,0,0,0,2.439-3.075c.221-.548,22.824-56.177,78.653-178.934,55.272-121.533,127.185-187.315,157.893-215.4l2.516-2.3a7,7,0,0,0-9.462-10.319l-2.5,2.292c-31.34,28.668-104.732,95.8-161.188,219.94Q436.226,462.6,424.95,487.842c20.972-78.678,36.388-154.887,36.62-156.085a7,7,0,0,0-13.745-2.657c-.374,1.928-40.365,199.64-78.942,285.292a7,7,0,0,0,2.589,8.759,7.1,7.1,0,0,0,.919.5,7,7,0,0,0,9.257-3.508C381.728,619.963,381.808,619.78,381.889,619.6Z"/><path class="Yellow" d="M597.374,303.831H202.626a9.39,9.39,0,0,0-9.389,9.494l25.988,341.19a58.478,58.478,0,0,0,58.295,54.036l98.164.022a27.176,27.176,0,0,1-.122,5.4v115.9a14.078,14.078,0,0,1-4.087,9.99l-25.288,25.313a42.018,42.018,0,0,1-28.745,11.963c-74.916,2.242-73.107,7.641-73.107,13.071C244.335,894.737,322.17,897,400,897s155.656-2.263,155.656-6.788c0-5.43,1.8-10.829-73.118-13.071a42.266,42.266,0,0,1-28.759-12.178l-25.26-25.2a13.827,13.827,0,0,1-4.085-9.883V713.97a27.23,27.23,0,0,1-.113-5.4l98.53-.268A58.478,58.478,0,0,0,581,654.234l25.761-340.909A9.39,9.39,0,0,0,597.374,303.831Z"/></g></svg>