<svg xmlns="http://www.w3.org/2000/svg" viewBox="0 0 800 1299"><defs><style>.Yellow{fill:#f2f230;}.Green{fill:#3f7f19;}</style></defs><title>dutchandstormy_1299</title><g id="20346977-9025-49a7-9daf-5ad1f78b54a0" data-name="vectors"><path class="Yellow" d="M194.76,309a9.76,9.76,0,0,0-9.76,9.76l25.38,970.48a9.75,9.75,0,0,0,9.75,9.76H579.87a9.75,9.75,0,0,0,9.75-9.76L615,318.76a9.76,9.76,0,0,0-9.76-9.76Z"/><path class="Yellow" d="M386.55,605a11,11,0,0,1-8.89-17.47L681.54,169.27a11,11,0,0,1,17.8,12.93L395.45,600.46A11,11,0,0,1,386.55,605Z"/><polygon class="Yellow" points="687.5 179.78 483.29 120.41 492.23 176.35 516.95 223.98 565.8 279.24 630.52 326.26 698.17 355.64 755.82 357.97 800 350.51 687.5 179.78"/><polygon class="Green" points="687.5 179.78 492.23 176.35 516.95 223.98 565.8 279.24 630.52 326.26 698.17 355.64 755.82 357.97 687.5 179.78"/><polygon class="Yellow" points="687.5 179.78 516.95 223.98 565.8 279.24 630.52 326.26 698.17 355.64 687.5 179.78"/><polygon class="Green" points="687.5 179.78 565.8 279.24 630.52 326.26 687.5 179.78"/><path class="Yellow" d="M687.82,190.34a11,11,0,0,1-8.89-17.47l2.61-3.6a11,11,0,0,1,17.8,12.93l-2.61,3.6A11,11,0,0,1,687.82,190.34Z"/></g></svg>