<svg xmlns="http://www.w3.org/2000/svg" viewBox="0 0 800 754"><defs><style>.Green{fill:#3f7f19;}.Yellow{fill:#f2f230;}</style></defs><title>fadeddreams_754</title><g id="vectors"><circle class="Green" cx="633.023" cy="280.127" r="160"/><circle class="Yellow" cx="633.023" cy="280.127" r="140"/><path class="Green" d="M597.155,245.887a1.99,1.99,0,0,0,2.1-2.1c-.325-5.935-2.053-22.58-11.239-31.766-5.657-5.657-16.968-5.655-22.625,0s-5.659,16.969,0,22.625C574.575,243.835,591.22,245.562,597.155,245.887Z"/><path class="Green" d="M668.892,314.367a1.99,1.99,0,0,0-2.1,2.1c.325,5.935,2.052,22.58,11.239,31.767,5.656,5.656,16.968,5.654,22.625,0s5.659-16.968,0-22.625C691.472,316.419,674.827,314.691,668.892,314.367Z"/><path class="Green" d="M667.263,244.259a1.99,1.99,0,0,0,2.1,2.1c5.935-.325,22.58-2.052,31.766-11.238,5.657-5.657,5.655-16.969,0-22.626s-16.968-5.659-22.625,0C669.316,221.678,667.588,238.323,667.263,244.259Z"/><path class="Green" d="M667.263,244.259a1.99,1.99,0,0,0,2.1,2.1c5.935-.325,22.58-2.052,31.766-11.238,5.657-5.657,5.655-16.969,0-22.626s-16.968-5.659-22.625,0C669.316,221.678,667.588,238.323,667.263,244.259Z"/><path class="Yellow" d="M587.989,754H212.011a10.5,10.5,0,0,1-10.534-10.346L168,292.58A10.5,10.5,0,0,1,178.535,282h442.93A10.5,10.5,0,0,1,632,292.58L598.523,743.654A10.5,10.5,0,0,1,587.989,754Z"/></g></svg>