<?xml version="1.0" encoding="utf-8"?>
<!-- Generator: Adobe Illustrator 22.0.1, SVG Export Plug-In . SVG Version: 6.00 Build 0)  -->
<svg version="1.1" id="Layer_1" xmlns="http://www.w3.org/2000/svg" xmlns:xlink="http://www.w3.org/1999/xlink" x="0px" y="0px"
	 viewBox="0 0 800 1216" style="enable-background:new 0 0 800 1216;" xml:space="preserve">
<style type="text/css">
	.st0{fill:#3F7F19;}
	.st1{fill:#F2F230;}
</style>
<title>frankenmousse_1216</title>
<g id="vectors">
	<path class="st0" d="M596.6,161.3c-10.4,3.5-15.1,10.8-41.2,3.3c-26.1-7.4-106.6-10.4-157.2,65.6s-16.8,149.1,0.1,170.3
		s12.1,28.4,12.8,39.3c0.7,10.4,13.1,33.7,36.5,39.2c2.3,0.5,4.6-0.5,5.8-2.5l83.8-126.8c2.1-3.3,2.7-7.5,1.5-11.2
		c-1.2-4-1.9-9.5,1-14.1c3.2-4.4,8.6-5.9,12.7-6.3c4-0.4,7.5-2.5,9.8-5.7l84.7-126.2c1.3-1.9,1.3-4.4,0-6.3
		C632.7,160.4,606.4,158,596.6,161.3z"/>
	<path class="st1" d="M592.1,205.9c-58.8-39.1-138.1-23.1-177.1,35.7s-23.1,138.1,35.7,177.1c9.6,6.4,20.1,11.5,31.1,15.1l55.4-83.9
		c2.1-3.3,2.7-7.5,1.5-11.2c-1.2-4-1.9-9.5,1-14.1c3.2-4.4,8.6-5.9,12.7-6.3c4-0.4,7.5-2.5,9.8-5.7l56-83.5
		C610.6,220.1,601.8,212.3,592.1,205.9z"/>
	<path class="st1" d="M502.5,1231.6c-10.8-0.3-21.1-4.7-28.8-12.3l-25.2-25.3c-2.6-2.7-4.1-6.2-4-10V887l6.1-20.3
		c3.9-11.3,10.8-21.5,19.8-29.4c21.5-18.9,71.3-65.4,111.9-124.7c48.7-71.2-10.9-344.4-21.7-391.7c-0.9-4.1-4.6-7-8.8-7H288.2
		c-4.2,0-7.8,2.9-8.8,7c-10.8,47.3-70.4,320.5-21.7,391.7c40.6,59.3,90.4,105.8,111.9,124.7c9,7.9,15.8,18,19.8,29.3l6.2,20.3v297
		c0,3.7-1.5,7.3-4.1,10l-25.3,25.3c-7.7,7.6-17.9,12-28.7,12.3c-74.9,2.2-127.4,7.4-127.4,13.4c0,4.1,102.5,6.1,210,6
		c102.4-0.1,210-2.1,210-6C630,1239,577.5,1233.8,502.5,1231.6z"/>
</g>
</svg>
