<svg xmlns="http://www.w3.org/2000/svg" viewBox="0 0 800 1216"><defs><style>.Green{fill:#3f7f19;}.Yellow{fill:#f2f230;}</style></defs><title>frankenmousse_1216</title><g id="vectors"><path class="Green" d="M582.573,121.322c-10.356,3.533-15.146,10.756-41.215,3.347s-106.593-10.353-157.167,65.624-16.784,149.128.113,170.318,12.08,28.4,12.817,39.313c.7,10.378,13.063,33.73,36.523,39.218a5.564,5.564,0,0,0,5.823-2.463L523.232,309.87a13.328,13.328,0,0,0,1.5-11.235c-1.194-3.977-1.881-9.453.963-14.148,3.233-4.436,8.551-5.915,12.681-6.348a13.33,13.33,0,0,0,9.785-5.722L632.823,146.2a5.568,5.568,0,0,0,.024-6.323C618.731,120.356,592.417,117.964,582.573,121.322Z"/><path class="Yellow" d="M578.082,165.859A127.778,127.778,0,1,0,467.8,393.785l55.43-83.915a13.325,13.325,0,0,0,1.5-11.235c-1.193-3.977-1.882-9.454.963-14.148,3.233-4.436,8.552-5.915,12.681-6.348a13.333,13.333,0,0,0,9.785-5.722l56.022-83.52A127.868,127.868,0,0,0,578.082,165.859Z"/><path class="Yellow" d="M482.542,1196.584a42.441,42.441,0,0,1-28.759-12.349l-25.193-25.29a13.966,13.966,0,0,1-4.019-9.969V852l6.1-20.258a69.378,69.378,0,0,1,19.8-29.4c21.54-18.876,71.312-65.367,111.864-124.676C611.006,606.493,551.414,333.3,540.606,286a9.017,9.017,0,0,0-8.789-7H268.172a9,9,0,0,0-8.775,7c-10.8,47.3-70.371,320.5-21.708,391.668,40.56,59.32,90.381,105.817,111.919,124.686a69.467,69.467,0,0,1,19.8,29.349l6.164,20.3v296.979a14.082,14.082,0,0,1-4.089,9.99l-25.289,25.313a42.365,42.365,0,0,1-28.747,12.305C242.53,1198.826,190.037,1204,190.037,1210c0,4.1,102.519,6.1,209.963,6,102.4-.094,209.963-2.1,209.963-6C609.963,1204,557.458,1198.826,482.542,1196.584Z"/></g></svg>