<svg xmlns="http://www.w3.org/2000/svg" viewBox="0 0 800 1279"><defs><style>.Green{fill:#3f7f19;}.Yellow{fill:#f2f230;}</style></defs><title>frenchbull_1279</title><g id="74db6a01-5842-453a-8e87-bef9ece19870" data-name="vectors"><path class="Green" d="M536,131.29c-7.16.94-11.21,5-27.13-3.19s-67.71-20.57-110.35,22.07-30.26,94.42-22.07,110.35,4.13,20,3.19,27.13c-.9,6.82,4.07,23.55,18.56,30.16a3.67,3.67,0,0,0,4.09-.84L473,245.71a8.82,8.82,0,0,0,2.44-7.08c-.26-2.73,0-6.37,2.46-9,2.67-2.45,6.31-2.72,9-2.46a8.82,8.82,0,0,0,7.08-2.44l71.26-70.75a3.67,3.67,0,0,0,.84-4.09C559.52,135.36,542.79,130.39,536,131.29Z"/><path class="Yellow" d="M527.27,159.55A84.43,84.43,0,1,0,426.19,292.87L473,245.71a8.79,8.79,0,0,0,2.44-7.08c-.26-2.73,0-6.37,2.46-9,2.67-2.45,6.31-2.72,9-2.46a8.82,8.82,0,0,0,7.08-2.44l47.16-46.82A84.74,84.74,0,0,0,527.27,159.55Z"/><path class="Yellow" d="M482.54,1259.59a42.52,42.52,0,0,1-28.76-12.35L420.23,1222c-2.65-2.65-8.37-6.22-8.37-10V1005h.95s-3-141.06,58-304.06c54-144.27,35.12-440.84,30.07-475.14A8,8,0,0,0,493,219H307a7.94,7.94,0,0,0-7.91,6.77c-5.05,34.3-23.92,330.92,30.07,475.2,61,163,58,304,58,304h.67v207c0,3.75-5.59,7.34-8.24,10l-33.36,25.31a42.44,42.44,0,0,1-28.78,12.31C242.57,1261.83,250,1267,250,1273c0,4,75,6,150,6s150-2,150-6C550,1267,557.46,1261.83,482.54,1259.59Z"/></g></svg>