<svg xmlns="http://www.w3.org/2000/svg" viewBox="0 0 800 753"><defs><style>.Green{fill:#3f7f19;}.Yellow{fill:#f2f230;}</style></defs><title>fuzzysmash_753</title><g id="vectors"><path class="Green" d="M711.478,264.088c-41.334-51.58-106.954-105.645-175.749-66.714-74.808,42.334-61.839,122.03-30.912,131.861,17.328,5.508,37.109,8.867,55.42,5.094C607.25,324.642,590.747,212.62,711.478,264.088Z"/><path class="Yellow" d="M458.351,251.514c-20.924,24.211-5.53,79.808,51.711,86.982,47.628,5.969,88.328,44.612,70.692,113.959,0,0,33.293-15.445,44.612-88.328C636.949,289.55,500.2,203.09,458.351,251.514Z"/><path class="Yellow" d="M473.331,119.08c-37.372,41.717-55.718,72.122-47.3,121.911,10.668,63.1,63.3,91.349,63.3,91.349s44.117-51.592,40.38-99.446S491.808,216.992,473.331,119.08Z"/><path class="Yellow" d="M490.661,205.236a12.331,12.331,0,0,0-17.073,2.9,12.32,12.32,0,0,0-15.118,5.925c-3.273-19.551-21.177-29.6-39.61-34.277A76.153,76.153,0,0,0,432.432,157.2s-13.758.765-25.239,4.832A82.648,82.648,0,0,0,406,145.441s-12.321,8.48-19.982,18.455a80.825,80.825,0,0,0-20.863-19.78,153.39,153.39,0,0,0-2.953,24.329c-10.949-5.523-27.652-7.773-42.7-5.307a148.566,148.566,0,0,0,17.093,23.317c-12.721,6.742-22.319,17.5-22.319,34.172,0,1.923.055,3.87.152,5.833-.125-.023-.247-.061-.373-.079a11.063,11.063,0,0,0-11.606-13.437c-.03-.075-.051-.152-.084-.227a10.925,10.925,0,0,0-19.188-1.7A10.9,10.9,0,0,0,265.7,213.3l-15.216,5.378a10.872,10.872,0,0,0-11.61,8.46,10.911,10.911,0,0,0-5.91,19.614,11.055,11.055,0,0,0-1.985.628,10.922,10.922,0,0,0,5.776,20.867c-.225.2-.439.411-.644.627l-177.624.9a7.5,7.5,0,0,0,.037,15h.039l177.528-.9a10.921,10.921,0,0,0,11.982,2.654,10.705,10.705,0,0,0,2.942,5.91,10.917,10.917,0,0,0,17.876,7.535,10.921,10.921,0,0,0,19.748,8.738,10.927,10.927,0,0,0,16.951,1.507,10.925,10.925,0,0,0,15.064-10.185,10.894,10.894,0,0,0-.492-16.207c.336-.106.67-.227,1-.369.011,0,.021-.011.032-.015l7.786-.04C342.227,311.778,363.174,334,386.638,334c23.627,0,44.7-22.526,57.933-51.179l12.286-.063a12.155,12.155,0,0,0-.317,2.722,12.363,12.363,0,0,0,15.917,11.851,12.366,12.366,0,0,0,16.678,17.881,12.371,12.371,0,0,0,16.981,9.106,12.37,12.37,0,0,0,20.214-3.906,12.336,12.336,0,0,0,6.695-17.1c.4.038.8.061,1.206.061a12.354,12.354,0,0,0,10.613-18.709,12.311,12.311,0,0,0,5.94-2.388l77.6-.394c2.524,5.946,5.45,12.154,8.794,18.254,11.261,20.542,24.149,34.278,38.306,40.829a46.554,46.554,0,0,0,19.723,4.448,52.837,52.837,0,0,0,21.989-5.089,41.135,41.135,0,0,0,21.588-24.908c3.084-9.795,2.164-19.629-2.592-27.689-14.053-23.819-45.718-22.4-68.838-21.365-4.184.187-8.136.364-11.64.381l-17.195.088c-2.915-7.772-5.01-14.571-6.327-19.208a7.5,7.5,0,1,0-14.429,4.1c1.1,3.854,2.7,9.116,4.831,15.19l-67.983.346a12.433,12.433,0,0,0-3.724-4.685,12.353,12.353,0,0,0,1.322-21.8,12.525,12.525,0,0,0-6.11-19.151c0-.093.014-.182.014-.275a12.369,12.369,0,0,0-19.226-10.3,12.359,12.359,0,0,0-19.414-5.24c-.3-.244-.61-.471-.93-.687ZM724.475,310.913a26.275,26.275,0,0,1-13.5,15.763c-10.395,4.737-19.946,4.958-29.194.678-11.184-5.174-21.766-16.757-31.452-34.425-2.023-3.692-3.885-7.433-5.587-11.127l11.046-.056c3.8-.019,7.9-.2,12.235-.4,20.394-.916,45.777-2.05,55.249,14C725.838,299.7,726.265,305.229,724.475,310.913Z"/><path class="Green" d="M328.983,283.406C342.227,311.778,363.174,334,386.638,334c23.627,0,44.7-22.526,57.933-51.179,0,0,13.432-22.821,13.9-68.756.183-18.064-21.177-29.6-39.61-34.277-9.607-2.538-59.107-4.288-82.267,6.669-12.721,6.742-22.319,17.5-22.319,34.172,0,1.923.109,6.661.229,8.621C316.33,259.037,328.983,283.406,328.983,283.406Z"/><path class="Yellow" d="M471.5,220.5a10.5,10.5,0,1,0-17.279,8.012c-.074,0-.147-.012-.221-.012a10.495,10.495,0,0,0-4.379,20.035,10.479,10.479,0,0,0-1.763,12.62,10.5,10.5,0,1,0,14.784,3.691,10.484,10.484,0,0,0-1.263-18.38,10.487,10.487,0,0,0-.6-15.477c.074,0,.147.011.221.011A10.5,10.5,0,0,0,471.5,220.5Z"/><path class="Yellow" d="M325.447,269.72a10.465,10.465,0,0,0-2.913-15.135,10.478,10.478,0,0,0,.195-17.028,10.506,10.506,0,1,0-12.952.382,10.484,10.484,0,0,0,1.195,16.972,10.48,10.48,0,0,0-.413,16.865,10.5,10.5,0,1,0,14.888-2.056Z"/><path class="Green" d="M261,230a8,8,0,0,1-7.589-5.471c-3.5-10.5-12.7-23.239-16.061-24.677a8,8,0,1,1,6.3-14.707c10.992,4.711,21.833,25.009,24.939,34.323A8,8,0,0,1,261,230Z"/><path class="Green" d="M497.5,219.5a8,8,0,0,1-7.984-7.619c-.634-13.314,9.131-36.224,26.472-43.29a8,8,0,0,1,6.038,14.819c-9.665,3.936-16.915,19.584-16.528,27.71a8,8,0,0,1-7.61,8.372C497.754,219.5,497.625,219.5,497.5,219.5Z"/><path class="Yellow" d="M587.989,753H212.011a10.5,10.5,0,0,1-10.534-10.346L168,291.58A10.5,10.5,0,0,1,178.535,281h442.93A10.5,10.5,0,0,1,632,291.58L598.523,742.654A10.5,10.5,0,0,1,587.989,753Z"/></g></svg>