<svg xmlns="http://www.w3.org/2000/svg" viewBox="0 0 800 1285"><defs><style>.Yellow{fill:#f2f230;}.Green{fill:#3f7f19;}</style></defs><title>gingersmash_1285</title><g id="vectors"><path class="Yellow" d="M194.76,295a9.758,9.758,0,0,0-9.76,9.756l25.375,970.488a9.758,9.758,0,0,0,9.76,9.756h359.73a9.758,9.758,0,0,0,9.76-9.756L615,304.756A9.758,9.758,0,0,0,605.24,295Z"/><path class="Green" d="M712.451,143.234c-61.076-25.273-144.629-41.019-186.144,26.249-45.143,73.147,4.631,136.726,36.467,130.434,17.837-3.526,36.788-10.116,51.014-22.247C650.311,246.525,581.861,156.325,712.451,143.234Z"/><path class="Yellow" d="M484.6,254.213c-6.664,31.3,33.619,72.593,87.231,51.291,44.607-17.725,98.893-3.482,116.863,65.779,0,0,21.727-29.578-3.481-98.893C659.42,201.463,497.93,191.616,484.6,254.213Z"/><path class="Yellow" d="M433.9,130.955C421.26,185.519,419.84,221,451.211,260.57,490.973,310.72,550.7,310.1,550.7,310.1S564.5,243.632,538.157,203.5,497.279,207.84,433.9,130.955Z"/></g></svg>