<svg xmlns="http://www.w3.org/2000/svg" viewBox="0 0 800 986"><defs><style>.Green{fill:#3f7f19;}.Yellow{fill:#f2f230;}</style></defs><title>goingeast</title><g id="da24ce7c-4a11-4f9d-86e6-0f797b232dac" data-name="vectors"><circle class="Green" cx="639.99" cy="282.36" r="160"/><circle class="Yellow" cx="639.99" cy="282.36" r="140"/><path class="Green" d="M568.69,242.88c-6.12-5.15-7.1-16.42-2-22.54s16.42-7.1,22.54-2c10,8.36,13.1,24.79,13.94,30.68a2,2,0,0,1-1.91,2.27C595.36,251.53,578.63,251.24,568.69,242.88Zm110,70.51a2,2,0,0,0-1.92,2.27c.84,5.89,4,22.32,13.94,30.68,6.12,5.15,17.39,4.17,22.54-1.95s4.18-17.39-2-22.54C701.35,313.49,684.62,313.2,678.68,313.39ZM671,243.68a2,2,0,0,0,2.28,1.91c5.88-.83,22.31-4,30.68-13.93,5.14-6.13,4.17-17.4-2-22.54s-17.39-4.18-22.54,1.94C671.11,221,670.83,237.74,671,243.68Z"/><path class="Yellow" d="M453.78,954.28,428.47,929a14.12,14.12,0,0,1-4.14-10V661.89s-8.63-51.81,91.84-95.76C685.69,491.7,676.73,331.19,672,293.13a9.39,9.39,0,0,0-9.34-8.22H137.32a9.39,9.39,0,0,0-9.34,8.22c-4.71,38.06-13.67,198.57,155.85,273,100.47,44,91.84,95.76,91.84,95.76V919a14.12,14.12,0,0,1-4.14,10l-25.31,25.31a42.47,42.47,0,0,1-28.76,12.39C242.54,968.92,190,974.11,190,980.17c0,7.77,419.92,7.77,419.92,0,0-6.06-52.5-11.25-127.42-13.5A42.47,42.47,0,0,1,453.78,954.28Z"/></g></svg>