<svg xmlns="http://www.w3.org/2000/svg" viewBox="0 0 800 1343"><defs><style>.Green{fill:#3f7f19;}.Yellow{fill:#f2f230;}</style></defs><title>grapefruittorpedo_1343</title><g id="1a823b5d-99e3-4009-947a-5d58bcfe5d0f" data-name="vectors"><path class="Green" d="M615,261.36c-20.64-12.47-38.12-15.83-52.51-14.41.07-6.08,33.57-15.58,41.07-46.58-25.37-1-47.57,1.68-64.95,8.92,6.37-7.34,11.33-16,10.95-24.92-33.5-2.5-49.35,13.55-53,13C522,170.87,521.88,121,521.88,121,491,130.07,467.61,167,459,183.37c-9.5-46.5-67.34-55.59-67.34-55.59s4.84,45.09,32.34,83.59c-30-19.5-62.5-13.5-74-8,0,0,63.82,63.06,85.81,59.72,2.34,5,32.72,4.94,63.27-2.56a98.05,98.05,0,0,0-.58,16.84C501,329.37,555,330.7,555,330.7c2.38-15.43-.8-27-6.12-35.64C587.5,298,615,261.36,615,261.36Z"/><path class="Yellow" d="M533.48,260.63C483.26,262.57,418.67,330,379.86,381.14c15.05-46.22,47.54-101.07,115.75-148.71a8,8,0,0,0-9.16-13.12c-93.66,65.41-123.38,144.24-131.82,198.84a8,8,0,0,0,6.68,9.13,8.73,8.73,0,0,0,1.23.1l.29,0,.2,0a8,8,0,0,0,6.81-3.81c30-48.65,111.64-144.92,164.25-146.95a8,8,0,0,0-.61-16Z"/><path class="Yellow" d="M482.54,1323.59a42.52,42.52,0,0,1-28.76-12.35L420.23,1286c-2.65-2.65-8.37-6.22-8.37-10V1069h.95s-3-141.06,58-304.06c54-144.27,35.12-440.84,30.07-475.14A8,8,0,0,0,493,283H307a7.94,7.94,0,0,0-7.91,6.77c-5.05,34.3-23.92,330.92,30.07,475.2,61,163,58,304,58,304h.67v207c0,3.75-5.59,7.34-8.24,10l-33.36,25.31a42.44,42.44,0,0,1-28.78,12.31C242.57,1325.83,250,1331,250,1337c0,4,75,6,150,6s150-2,150-6C550,1331,557.46,1325.83,482.54,1323.59Z"/></g></svg>