<svg xmlns="http://www.w3.org/2000/svg" viewBox="0 0 800 1146"><defs><style>.Green{fill:#3f7f19;}.Yellow{fill:#f2f230;}</style></defs><title>herbalcitrus_1146</title><g id="vectors"><path class="Green" d="M445.2,350.917s25.621,13.25,37.244,34.248,5.372,42.745,5.372,42.745-21.747-6.25-33.37-27.248S445.2,350.917,445.2,350.917Z"/><path class="Green" d="M504.561,367.205s6.264,19.68,1.517,36.195-18.921,24.361-18.921,24.361-7.846-14.175-3.1-30.69S504.561,367.205,504.561,367.205Z"/><path class="Green" d="M655.244,202.952s17.737,18.153,23.944,39.638a63.958,63.958,0,0,1-1.182,39.139,63.955,63.955,0,0,1-21.874-32.477C649.924,227.767,655.244,202.952,655.244,202.952Z"/><path class="Green" d="M635.093,235.5s20.812,8.816,33.3,24.333A56.959,56.959,0,0,1,680.876,292.4a56.961,56.961,0,0,1-29.137-19.161C639.253,257.719,635.093,235.5,635.093,235.5Z"/><path class="Green" d="M623.317,443.174s-24.234-7.539-39.91-23.489a63.962,63.962,0,0,1-17.567-35,63.954,63.954,0,0,1,34.684,18.173C616.2,418.813,623.317,443.174,623.317,443.174Z"/><path class="Green" d="M632.792,396.734s-20.951,8.483-40.752,6.34a56.964,56.964,0,0,1-31.852-14.2,56.958,56.958,0,0,1,34.152-7.054C614.141,383.967,632.792,396.734,632.792,396.734Z"/><path class="Green" d="M520.415,502.556s-24.234-7.539-39.91-23.489a63.96,63.96,0,0,1-17.568-35,63.961,63.961,0,0,1,34.685,18.172C513.3,478.194,520.415,502.556,520.415,502.556Z"/><path class="Green" d="M538.267,473.594c-33.126-15.07-29.328-9-49.129-11.138a56.962,56.962,0,0,1-31.853-14.2S472,435.207,491.805,437.35,532.627,449.776,538.267,473.594Z"/><path class="Green" d="M593.969,299.2s11.186,22.782,10.38,45.131a63.964,63.964,0,0,1-13.337,36.816,63.963,63.963,0,0,1-10.648-37.681C581.171,321.112,593.969,299.2,593.969,299.2Z"/><path class="Green" d="M531.6,314.566c19.8-10.958,40.653,3.36,51.611,23.157a88.87,88.87,0,0,1,10.42,35.13A56.965,56.965,0,0,1,564.5,353.692C552.011,338.175,552.459,328.884,531.6,314.566Z"/><path class="Green" d="M740.327,348.217c-28.659-18.414-37.373-5.7-57.375-15.7s-15.967-20.974-15.967-20.974a63.954,63.954,0,0,1,38.7,5.936C725.691,327.482,729.548,330.341,740.327,348.217Z"/><path class="Green" d="M737.773,298.945s-10.042,21.8-37.49,17.187c-19.642-3.3-34.513-5-34.513-5a56.965,56.965,0,0,1,30.945-16.079C716.352,291.733,737.773,298.945,737.773,298.945Z"/><path class="Green" d="M689.168,120.306c7.533,25.29,25.621,13.25,37.244,34.248s5.372,42.745,5.372,42.745a77.04,77.04,0,0,1-33.37-27.249C692.281,160.974,689.012,143.386,689.168,120.306Z"/><path class="Green" d="M743.051,128.353s8.166,10.257,9.085,21.127a27.821,27.821,0,0,1-5.715,18.73,27.821,27.821,0,0,1-8.778-17.5C736.723,139.836,743.051,128.353,743.051,128.353Z"/><path class="Green" d="M774.1,134.546s-1.849,16.29-10.648,26.714-21.613,11.507-21.613,11.507-1.084-12.815,7.715-23.239S774.1,134.546,774.1,134.546Z"/><path class="Green" d="M806.422,163.492s-16.738,23.492-39.168,32.03-43.075-.724-43.075-.724,9.261-20.645,31.691-29.183S806.422,163.492,806.422,163.492Z"/><path class="Yellow" d="M304.235,614.747A8,8,0,0,1,297.02,603.3c50.527-105.979,176.917-174.484,269.2-224.5l9.873-5.355c44.147-23.979,82.742-62.446,114.71-114.331,26.238-42.585,40.939-82.712,48-101.995a8,8,0,1,1,15.023,5.5c-7.245,19.775-22.321,60.925-49.4,104.883-33.453,54.3-74.061,94.669-120.7,120l-9.886,5.362c-90.354,48.972-214.1,116.043-262.383,217.322A8,8,0,0,1,304.235,614.747Z"/><path class="Yellow" d="M482.705,1126.912a42.565,42.565,0,0,1-28.759-12.471l-25.3-25.352a14.205,14.205,0,0,1-4.123-10.03V725.766s-3.161-18.935,16.541-43.62l-.66-.019L724.5,361.558a9.05,9.05,0,0,0-6.718-15.084L82.27,346.049a9.051,9.051,0,0,0-6.79,15.065L358.188,680.542h-.065c20.974,25.342,17.531,45.224,17.531,45.224v353.293a14.047,14.047,0,0,1-4.049,9.99l-25.269,25.313a42.6,42.6,0,0,1-28.737,12.55c-74.916,2.242-107.907,6.417-107.907,13.658,0,3.618,95.127,5.428,190.308,5.43,95.289,0,190.633-1.808,190.633-5.43C590.633,1133.329,557.621,1129.154,482.705,1126.912Z"/></g></svg>