<svg xmlns="http://www.w3.org/2000/svg" viewBox="0 0 800 865"><defs><style>.\35 0a0a2ab-3e38-4d3b-b833-709bd7e30b27{fill:#f2f230;}.\33 0ec658e-c628-44b8-af25-8c32e68b00cc{fill:#3f7f19;}</style></defs><title>hetdonkerlebowsky_865</title><g id="659f0d2a-dc82-4813-aa38-9ccf25534762" data-name="vectors"><path class="50a0a2ab-3e38-4d3b-b833-709bd7e30b27" d="M449,333a10,10,0,0,1-9.86-8.36c-4.59-27.59-5.63-70.8,5.24-109.36,14.18-50.28,45.38-82.78,90.2-94a10,10,0,1,1,4.85,19.4c-38,9.5-63.5,36.42-75.8,80-10,35.38-9,75.19-4.76,100.64a10,10,0,0,1-8.22,11.51A10.31,10.31,0,0,1,449,333Z"/><path class="30ec658e-c628-44b8-af25-8c32e68b00cc" d="M561,394.84c0-61.93-39.36-111.83-112.14-86.52C376.07,283,336.72,332.91,336.72,394.84a112.14,112.14,0,1,0,224.27,0Z"/><path class="50a0a2ab-3e38-4d3b-b833-709bd7e30b27" d="M588,865H212a10.49,10.49,0,0,1-10.53-10.35L168,403.58A10.5,10.5,0,0,1,178.53,393H621.47A10.5,10.5,0,0,1,632,403.58L598.52,854.65A10.49,10.49,0,0,1,588,865Z"/></g></svg>