<svg xmlns="http://www.w3.org/2000/svg" viewBox="0 0 800 1254"><defs><style>.Yellow{fill:#f2f230;}.Green{fill:#3f7f19;}</style></defs><title>hotananaslove_1254</title><g id="323a7942-042d-4a66-b1e8-3139c5836ab8" data-name="vectors"><path class="Yellow" d="M595.16,655.23c-56.75-143.51-9.27-294.14,8.67-344.19A12,12,0,0,0,592.53,295H207.47A12,12,0,0,0,196.17,311c17.94,50,65.42,200.68,8.67,344.19-66.4,167.89-72.39,370.39,171.16,382.58V1188.1a14.28,14.28,0,0,1-4.3,10l-25.4,25.32c-7.64,7.64-18,11.53-28.8,11.85-74.92,2.25-73.16,8-73.16,13,0,4.34,80.59,5.61,155.66,5.76,80.4.16,155.66-1.11,155.66-5.76,0-5,1.8-10.72-73.12-13a42.24,42.24,0,0,1-28.76-12.12L428.31,1198a14,14,0,0,1-4.31-9.86V1037.81C667.55,1025.61,661.56,823.12,595.16,655.23Z"/><path class="Yellow" d="M367.55,604.29a11,11,0,0,1-8.89-17.46L662.54,168.57a11,11,0,1,1,17.8,12.93L376.46,599.76A11,11,0,0,1,367.55,604.29Z"/><polygon class="Yellow" points="668.5 179.08 464.29 119.71 473.23 175.64 497.95 223.27 546.8 278.54 611.52 325.56 679.17 354.93 736.82 357.26 781 349.81 668.5 179.08"/><polygon class="Green" points="668.5 179.08 473.23 175.64 497.95 223.27 546.8 278.54 611.52 325.56 679.17 354.93 736.82 357.26 668.5 179.08"/><polygon class="Yellow" points="668.5 179.08 497.95 223.27 546.8 278.54 611.52 325.56 679.17 354.93 668.5 179.08"/><polygon class="Green" points="668.5 179.08 546.8 278.54 611.52 325.56 668.5 179.08"/><path class="Yellow" d="M668.82,189.63a11,11,0,0,1-8.89-17.47l2.61-3.59a11,11,0,1,1,17.8,12.93l-2.61,3.59A11,11,0,0,1,668.82,189.63Z"/></g></svg>