<?xml version="1.0" encoding="utf-8"?>
<!-- Generator: Adobe Illustrator 22.0.1, SVG Export Plug-In . SVG Version: 6.00 Build 0)  -->
<svg version="1.1" id="Layer_1" xmlns="http://www.w3.org/2000/svg" xmlns:xlink="http://www.w3.org/1999/xlink" x="0px" y="0px"
	 viewBox="0 0 800 757" style="enable-background:new 0 0 800 757;" xml:space="preserve">
<style type="text/css">
	.st0{fill:#F2F230;}
</style>
<title>hotornot_757</title>
<g id="vectors">
	<path class="st0" d="M798.5,291c0-26.8-9.1-56.1-24.4-78.3c-27.4-39.7-66-48-93.4-48c-23.2,0-45.1,8.8-65.1,25.9v-60.4
		c0-5.5-4-10.2-9.5-10.2H191c-5.5,0-9.5,4.7-9.5,10.2V747c0,5.5,4,10,9.5,10h415c5.5,0,9.5-4.5,9.5-10V556.8
		c16-37.1,52-75.4,87.6-112.7C752,392.6,798.5,344,798.5,291z M615.5,468.8V268.3c15-27.1,37.6-55.6,65.1-55.6
		c23.5,0,41.1,8.9,53.8,27.3c11.8,17.1,16,38.2,16,51c0,33.9-41.9,77.6-82.2,120C650.2,429.9,632.5,449.1,615.5,468.8L615.5,468.8z"
		/>
</g>
</svg>
