<svg xmlns="http://www.w3.org/2000/svg" viewBox="0 0 800 1270"><defs><style>.Yellow{fill:#f2f230;}.Green{fill:#3f7f19;}</style></defs><title>justpeachy_1270</title><g id="932de221-9e69-41c3-80ed-d89ee816146f" data-name="vectors"><path class="Yellow" d="M435.43,1036.31c378.5-24.1,153.13-464.68,128-518.76a9.66,9.66,0,0,0-9-5.55H245.56a9.76,9.76,0,0,0-9,5.55c-25.18,54.14-250.87,495.36,128,519.3l10.61-.16h.14v167.19a13.92,13.92,0,0,1-4,10l-25.22,25.32c-7.65,7.64-17.91,11.53-28.71,11.85-74.92,2.25-73.07,8-73.07,13,0,4.5,77.83,6,155.66,6s155.66-1.5,155.66-6c0-5,1.79-10.72-73.12-13a42.15,42.15,0,0,1-28.76-12.12l-25.34-25.18a13.87,13.87,0,0,1-4.15-9.85v-167.5Z"/><path class="Green" d="M566.1,481c-4-.17-23.68-1.76-38.87-16.95-17-17-22.63-45.25-22.63-45.25s28.28,5.65,45.25,22.62a54.3,54.3,0,0,1,5.16,6c1.82-15.36,11.15-29.35,11.15-29.35s11.45,17.18,11.45,34.37c0,14.7-8.38,25.21-10.8,27.93,0,.43,0,.67,0,.67l-.62,0-.05.06ZM681.65,287.09A56.94,56.94,0,0,0,715,297.46a50.37,50.37,0,0,0-5.57-11.57,65,65,0,0,0-9.81-35.83c-11.9-18.94-34-31.49-34-31.49s1.67,24.18,12.85,42.95a107.34,107.34,0,0,0-23.22-6.09S665.36,275.63,681.65,287.09Zm-12.8,139.09c15.88-5.12,28.7-15.16,28.7-15.16s-21.45-7.12-41.07-3.71a57.94,57.94,0,0,0-24.18,10.37c-1.55.12-2.42.26-2.42.26s.17.43.53,1.19a41.29,41.29,0,0,0-4.81,4.39,47,47,0,0,0,9.48,3.59,64.94,64.94,0,0,0,21.35,19.61c19.47,11,44.85,11.55,44.85,11.55S688,437.28,668.85,426.18ZM627.94,511c-12-21.33-35.05-25.41-54.67-22-12.12,2.11-20.76,9.24-25.61,14.39l-.28,0,.08.18a41.42,41.42,0,0,0-4.35,5.41,47.48,47.48,0,0,0,9.47,3.58,65.26,65.26,0,0,0,21.35,19.62c19.48,11,44.85,11.55,44.85,11.55S605.62,523,586.62,511.84C596.74,509,598.82,506.69,627.94,511Zm16.19-112.77a54.46,54.46,0,0,0,9,9.34,63.91,63.91,0,0,0,2.65-39.06C650.34,346.81,633.3,328,633.3,328s-4.67,18.4-2.44,37.41C615,351.19,592.72,344.89,577.6,360c24,8,26.14,17.05,42.43,28.52A58,58,0,0,0,644.13,398.23Zm99.53-83.86C768.1,309.7,771.44,288,771.44,288s-22.58-1-40.54,7.6a57,57,0,0,0-25.3,24l2.07-.33c-.51.24-.79.39-.79.39S706,331.36,728,335.45s26.85-10.54,59.48-.76c-15.29-14.21-19.79-15.89-41.78-20C745,314.58,744.34,314.47,743.66,314.37ZM698,175a77.49,77.49,0,0,0,31.78,15.63c-.13.67-.19,1-.19,1a49.69,49.69,0,0,0,7.62.26l.38,0V192c8.25-.31,21.55-2.42,33.6-11.46,19.2-14.4,28.8-41.6,28.8-41.6s-24.76,1.39-43.67,13.07a33.9,33.9,0,0,0,1.76-3.34c5.57-12.45,2.85-28.62,2.85-28.62s-11.71,7.38-17.94,18.23c-4.44-9.07-13.61-15.61-13.61-15.61s-2.91,12.79,1,23a26.68,26.68,0,0,0,8.43,11.29,33.47,33.47,0,0,0,1.69,8.76s.4-.16,1.08-.48a61.22,61.22,0,0,0-6.8,11,57.9,57.9,0,0,0-14.14-23.76c-17-17-31-.4-45.25-22.63C681.6,152,689.6,168,698,175Z"/><path class="Yellow" d="M439.81,711.62a8.62,8.62,0,0,1-1.33-.11,8,8,0,0,1-6.57-9.21c19.28-115.81,121.83-216.56,196.71-290.13l8-7.87c35.81-35.24,62.27-82.87,78.66-141.57,13.46-48.18,16.5-90.8,18-111.29a8,8,0,0,1,16,1.14c-1.5,21-4.63,64.72-18.51,114.45-17.16,61.42-45,111.44-82.86,148.67l-8,7.88c-73.31,72-173.71,170.67-192.14,281.35A8,8,0,0,1,439.81,711.62Z"/></g></svg>