<svg xmlns="http://www.w3.org/2000/svg" viewBox="0 0 800 1190"><defs><style>.Yellow{fill:#f2f230;}.Green{fill:#3f7f19;}</style></defs><title>komkommertonic_1190</title><g id="2203532f-3e1e-4e09-8662-1a01ec2f2b9a" data-name="vectors"><circle class="Yellow" cx="597" cy="280" r="160"/><circle class="Green" cx="597" cy="280" r="140"/><path class="Yellow" d="M529.37,234.52c-5.66-5.66-5.66-17,0-22.62s17-5.66,22.63,0c9.18,9.19,10.91,25.84,11.23,31.77a2,2,0,0,1-2.1,2.1C555.2,245.44,538.55,243.71,529.37,234.52Zm103.5,79.72a2,2,0,0,0-2.1,2.1c.33,5.93,2.05,22.58,11.24,31.77,5.66,5.65,17,5.65,22.63,0s5.65-17,0-22.62C655.45,316.29,638.81,314.56,632.87,314.24Zm-1.63-70.11a2,2,0,0,0,2.1,2.1c5.94-.32,22.58-2,31.77-11.24,5.66-5.65,5.65-17,0-22.62s-17-5.66-22.63,0C633.3,221.55,631.57,238.2,631.24,244.13Z"/><path class="Yellow" d="M482.63,1170.67A42.35,42.35,0,0,1,454,1158.28L428.6,1133a14.15,14.15,0,0,1-4.17-10V895.89s3.15-15.07,16.46-55.47a5,5,0,0,0-.65-4.49c-11.15-15.64-7-12.65-18.51-29.93a39.22,39.22,0,0,1,5-24c7-12,241-76,217-249-18.48-133.22-47-206-59.2-232.36A20,20,0,0,0,566.36,289H233.8a20,20,0,0,0-18.17,11.64C203.47,327,174.91,399.78,156.43,533c-24,173,210,237,217,249a39.22,39.22,0,0,1,5,24c-11.52,17.28-7.38,14.29-18.52,29.93a5.07,5.07,0,0,0-.79,4.49c13.31,40.4,16.31,55.47,16.31,55.47V1123a14,14,0,0,1-4,10l-25.25,25.31a42.28,42.28,0,0,1-28.65,12.39c-75,2.24-127.49,7.44-127.49,13.5,0,3.89,105,5.83,210.05,5.83s210.05-1.94,210.05-5.83C610.12,1178.11,557.58,1172.91,482.63,1170.67Z"/></g></svg>