<svg xmlns="http://www.w3.org/2000/svg" viewBox="0 0 800 1207"><defs><style>.Green{fill:#3f7f19;}.Yellow{fill:#f2f230;}</style></defs><title>koningsspritz_1207</title><g id="vectors"><path class="Green" d="M400.3,506.668,385.45,495.517c3.226-9.155,23.438-71.98,26.387-80.9,1.161-8.071,2.66-17.158,4.575-26.741-10.006-25.082-26.75-74.971-21.867-117.985,0,0,20.292,43.8,30.146,99.99.851-1.544,4.514-21.468,6.457-27.034-7.53-19.693-24.572-52.9-26.707-90.272,0,0,18.469,26.932,28.59,82.576.195-.486,2.177-5.621,2.375-6.1-5.98-28.7-17.724-83.331-7.626-99.213,0,0,7.6,33.19,11.37,64.778a7.454,7.454,0,0,1,.642-.389c1.015-29.975,5.208-64.56,17.279-89.781,0,0,6.233,48.173-2.847,103.85,10.733-15.178,21.583-27.651,29.536-30.039,0,0-14.273,33.941-41.562,59.025-.454,2.425-.95,4.921-1.5,7.5,9.37-11.994,27.882-22.47,44.521-33.093,0,0-15.633,23.333-50.531,62.573-5.028,18.31-27.749,94.544-35.984,118.293,2.086-3.666,29.6-60,31.746-63.689,23.467-40.337,43.943-76.957,67.215-107.2-3.06-29.045-8.8-98.123,9.717-141.1,0,0,4.417,26.021,3.989,62.122,3.12-12.515,6.979-22.541,11.7-26.658,0,0-.844,52.58-8.918,87.42,1.249-1.5,5.71-5.843,6.957-7.307,9.62-11.3,17.009-19.142,26.5-28.539-1.5-15.527-6.982-63.817,2.684-89.539,0,0,8.1,54.228,2.014,80.04q6.173-5.829,12.3-11.111c1.758-30.758,6.229-80.486,17.038-92.354,0,0-.41,48.305-6.628,83.751.284-.226.569-.455.853-.678,1.335-3.845,3.481-2.888,4.323-12.215,2.423-26.848,10.122-68.389,21.894-78.814,0,0-.81,13.56-3.011,30.934,11.764-26.87,24.9-50.854,36.225-56.885,0,0-9.007,30.8-21.869,64.33,14.731-21.257,34.922-44.945,56.24-53.6,0,0-16.163,34.172-44.772,64.108,15.494-11.75,32.991-22.211,49.46-25.762a267.494,267.494,0,0,1-29.927,29.322c12.074-5.353,24.414-9.228,35.829-10.015,0,0-51.59,42.617-87.662,49.165-5.757,2.821-23.854,22.476-27.056,25.047,23.571-11.062,60.642-21.925,86.281-19.521,0,0-48.929,29.167-102.168,35.189-10.7,10.9-21.758,21.908-33.592,36.556,28.761-20.305,73.782-37.734,104.58-37.3,0,0-60.359,39.526-114.916,50.393-9.176,11.867-16.862,22.3-26.646,36.675,15.783-11.4,50.449-28.808,83.355-28.345,0,0-8.789,8.393-25.063,17.506,18.235-3.466,36.958-4.92,51.9-1.39,0,0-59.895,25.181-115.619,22.239-10.346,15.525-19.333,33.47-30.3,52.05a155.374,155.374,0,0,1,71.975-37.317s-22.325,23.026-80.2,51.456C431.7,447.514,403.56,500.779,400.3,506.668Z"/><path class="Yellow" d="M354.066,604.029a6.964,6.964,0,0,0,2.61-2.932c.252-.534,25.981-54.788,88.7-174.174C507.464,308.729,583,247.14,615.255,220.841l2.643-2.156a7,7,0,1,0-8.86-10.84l-2.63,2.146c-32.919,26.84-110.008,89.694-173.429,210.422q-15.739,29.961-28.431,54.517c25.41-77.358,45.133-152.568,45.432-153.751a7,7,0,0,0-13.572-3.434c-.482,1.9-51.647,197.023-95.03,280.344a7,7,0,1,0,12.417,6.465Z"/><path class="Yellow" d="M482.545,1187.672a42.353,42.353,0,0,1-28.679-12.39l-25.347-25.312a14.164,14.164,0,0,1-4.172-9.99V912.888s3.148-15.068,16.463-55.47a5.009,5.009,0,0,0-.655-4.485c-11.143-15.647-6.991-12.656-18.509-29.933a39.249,39.249,0,0,1,5-24c7-12,241-76,217-249-18.482-133.224-47.044-205.959-59.2-232.363A19.993,19.993,0,0,0,566.284,306H233.718a20,20,0,0,0-18.168,11.637c-12.157,26.4-40.721,99.139-59.2,232.363-24,173,210,237,217,249a39.224,39.224,0,0,1,5,24c-11.517,17.277-7.374,14.286-18.517,29.933a5.059,5.059,0,0,0-.791,4.485c13.314,40.4,16.308,55.47,16.308,55.47V1139.98a14.014,14.014,0,0,1-4.018,9.99l-25.252,25.312a42.285,42.285,0,0,1-28.65,12.39c-74.958,2.241-127.486,7.441-127.486,13.5,0,3.884,105.044,5.826,210.053,5.825s210.048-1.941,210.048-5.825C610.042,1195.113,557.5,1189.913,482.545,1187.672Z"/></g></svg>