<svg xmlns="http://www.w3.org/2000/svg" viewBox="0 0 800 934"><defs><style>.Green{fill:#3f7f19;}.Yellow{fill:#f2f230;}</style></defs><title>lastoftheoaxacans_934</title><g id="570e255b-98dd-4df9-8b5a-a21f454f4ab5" data-name="vectors"><path class="Green" d="M686.79,121.75c-7.52,2.71-10.93,8.05-30.06,3s-78-6.23-114,49.89S532.4,283.73,545,299s9.18,20.59,9.86,28.55c.64,7.57,10,24.47,27.16,28.18a4.06,4.06,0,0,0,4.22-1.87l59.58-93.66a9.72,9.72,0,0,0,1-8.22c-.92-2.89-1.5-6.88.52-10.35,2.31-3.28,6.17-4.42,9.18-4.79a9.77,9.77,0,0,0,7.08-4.3l60.24-93.24a4.07,4.07,0,0,0-.07-4.62C713.18,120.59,693.93,119.18,686.79,121.75Z"/><path class="Yellow" d="M684.07,154.33A93.33,93.33,0,1,0,606.4,322.17l39.42-62a9.72,9.72,0,0,0,1-8.22c-.92-2.89-1.5-6.88.52-10.35,2.31-3.28,6.17-4.42,9.18-4.79a9.77,9.77,0,0,0,7.08-4.3l39.86-61.7A93.81,93.81,0,0,0,684.07,154.33Z"/><path class="Yellow" d="M453.78,902.28,428.47,877a14.12,14.12,0,0,1-4.14-10V609.89s-8.63-51.81,91.84-95.76C685.69,439.7,676.73,279.19,672,241.13a9.39,9.39,0,0,0-9.34-8.22H137.32a9.39,9.39,0,0,0-9.34,8.22c-4.71,38.06-13.67,198.57,155.85,273,100.47,44,91.84,95.76,91.84,95.76V867a14.12,14.12,0,0,1-4.14,10l-25.31,25.31a42.47,42.47,0,0,1-28.76,12.39C242.54,916.92,190,922.11,190,928.17c0,7.77,419.92,7.77,419.92,0,0-6.06-52.5-11.25-127.42-13.5A42.47,42.47,0,0,1,453.78,902.28Z"/></g></svg>