<?xml version="1.0" encoding="utf-8"?>
<!-- Generator: Adobe Illustrator 22.1.0, SVG Export Plug-In . SVG Version: 6.00 Build 0)  -->
<svg version="1.1" xmlns="http://www.w3.org/2000/svg" xmlns:xlink="http://www.w3.org/1999/xlink" x="0px" y="0px" width="800px"
	 height="1027px" viewBox="0 0 800 1027" style="enable-background:new 0 0 800 1027;" xml:space="preserve">
<style type="text/css">
	.yellow{fill:#F2F230;}
	.green{fill:#3F7F19;}
	.st0{fill:#1A1A1A;}
	.st1{fill:#FFFFFF;}
	.st2{opacity:0.21;fill:#DE0E00;}
	.st3{fill:#3F7F19;}
	.st4{fill:#F2F230;}
	.st5{fill:none;stroke:#F2F230;stroke-width:16;stroke-linecap:round;stroke-miterlimit:10;}
	.st6{fill:none;stroke:#F2F230;stroke-width:22;stroke-linecap:round;stroke-miterlimit:10;}
	.st7{fill:none;stroke:#3F7F19;stroke-width:26;stroke-linecap:round;stroke-miterlimit:10;}
	.st8{fill:none;stroke:#3F7F19;stroke-width:16;stroke-linecap:round;stroke-miterlimit:10;}
	.st9{fill:none;stroke:#F2F230;stroke-width:20;stroke-linecap:round;stroke-miterlimit:10;}
	.st10{opacity:0.2;}
	.st11{fill:none;}
</style>
<g id="directions">
</g>
<g id="vectors">
	<g>
		<path class="yellow" d="M488.063,546.472c1.07-0.67,1.97-1.639,2.55-2.864c0.246-0.522,25.382-53.525,86.651-170.157
			c60.659-115.469,134.453-175.637,165.964-201.329l2.581-2.107c2.924-2.39,3.358-6.697,0.968-9.623
			c-2.388-2.919-6.698-3.357-9.623-0.968l-2.569,2.097c-32.16,26.221-107.471,87.626-169.429,205.569
			c-10.251,19.514-47.106,92.179-89.489,173.578c-1.584,3.042-0.656,6.729,2.038,8.686c0.272,0.197,0.562,0.378,0.869,0.537
			c3.349,1.745,7.479,0.443,9.223-2.907C487.887,546.816,487.975,546.642,488.063,546.472z"/>
		<path class="green" d="M775.174,155.485c-0.432-12.072-11.022-12.555-15.634-11.197c-2.61,0.768-6.38,2.593-10.339,4.988
			c4.76-10.198,7.245-21.909,2.406-25.868c-9.35-7.648-16.706-0.014-18.733,4.346c-1.431,3.079-2.818,8.605-3.627,14.53
			c-0.747-0.336-1.476-0.584-2.186-0.745c-4.564-9.705-11.359-18.326-17.224-17.336c-11.911,2.011-11.001,12.573-9.051,16.967
			c1.655,3.728,6.009,9.729,11.003,14.975c-0.522,2.243-0.978,4.718-1.327,7.274c-0.747-0.336-1.476-0.584-2.186-0.745
			c-4.564-9.705-11.359-18.326-17.224-17.336c-11.911,2.011-11.001,12.573-9.051,16.967c1.655,3.728,6.009,9.729,11.003,14.975
			c-0.522,2.243-0.978,4.719-1.327,7.274c-0.747-0.336-1.476-0.584-2.186-0.745c-4.564-9.705-11.359-18.326-17.224-17.336
			c-11.911,2.011-11.001,12.573-9.051,16.967c1.655,3.728,6.009,9.729,11.003,14.975c-0.522,2.243-0.978,4.718-1.327,7.274
			c-0.747-0.336-1.476-0.584-2.186-0.745c-4.564-9.705-11.359-18.326-17.224-17.336c-11.911,2.011-11.001,12.573-9.051,16.967
			c1.655,3.728,6.009,9.729,11.003,14.975c-0.522,2.243-0.978,4.719-1.327,7.274c-0.747-0.336-1.476-0.584-2.186-0.745
			c-4.564-9.705-11.359-18.326-17.224-17.336c-11.911,2.011-11.001,12.573-9.051,16.967c1.655,3.728,6.009,9.729,11.003,14.975
			c-0.752,3.23-1.367,6.949-1.721,10.679c-4.417-11.231-12.323-22.616-19.016-21.486c-11.911,2.011-11.001,12.573-9.051,16.967
			c3.282,7.395,17.173,23.736,25.64,25.36c2.889,11.132,24.386,32.873,33.491,27.844c10.574-5.841,6.218-15.506,2.922-19.007
			c-2.564-2.724-7.906-6.501-13.749-9.652c2.827-0.382,5.858-1.03,8.873-1.891c7.272,7.024,15.818,12.132,20.739,9.414
			c10.574-5.841,6.218-15.506,2.922-19.007c-0.763-0.811-1.781-1.717-2.975-2.67c0.528-1.03,0.805-2.082,0.767-3.145
			c-0.051-1.414-0.245-2.663-0.548-3.774c6.756,5.971,14.169,9.919,18.619,7.461c10.574-5.841,6.218-15.506,2.922-19.007
			c-0.763-0.811-1.781-1.717-2.975-2.67c0.528-1.03,0.805-2.082,0.767-3.145c-0.051-1.414-0.245-2.663-0.548-3.774
			c6.756,5.971,14.169,9.919,18.619,7.461c10.574-5.841,6.218-15.506,2.922-19.007c-0.763-0.811-1.781-1.717-2.975-2.67
			c0.528-1.03,0.805-2.082,0.767-3.145c-0.051-1.414-0.245-2.663-0.548-3.774c6.756,5.971,14.169,9.919,18.619,7.461
			c10.574-5.841,6.218-15.506,2.922-19.007c-0.763-0.811-1.781-1.717-2.975-2.67c0.528-1.03,0.805-2.082,0.767-3.145
			c-0.051-1.414-0.245-2.663-0.548-3.774c6.756,5.971,14.169,9.919,18.619,7.461c10.574-5.841,6.218-15.506,2.922-19.007
			c-0.763-0.811-1.781-1.717-2.975-2.67c0.528-1.03,0.805-2.082,0.767-3.145c-0.012-0.347-0.035-0.681-0.064-1.009
			C768.737,165.221,775.353,160.472,775.174,155.485z"/>
		<path class="yellow" d="M453.783,995.283L428.47,969.97c-2.65-2.65-4.138-6.243-4.138-9.99V702.888
			c0,0-8.634-51.804,91.834-95.759c169.525-74.426,160.565-234.937,155.854-273.003c-0.583-4.708-4.6-8.216-9.343-8.216H137.323
			c-4.744,0-8.761,3.508-9.343,8.216c-4.711,38.066-13.671,198.578,155.854,273.003c100.468,43.955,91.834,95.759,91.834,95.759
			V959.98c0,3.747-1.488,7.34-4.138,9.989l-25.313,25.313c-7.645,7.645-17.953,12.069-28.759,12.392
			c-74.916,2.242-127.421,7.44-127.421,13.5c0,7.767,419.925,7.767,419.925,0c0-6.06-52.505-11.258-127.421-13.5
			C471.736,1007.351,461.427,1002.927,453.783,995.283z"/>
		<path class="green" d="M114.93,340.692l15.91,4.66l9.33-12.44l-14.78-7.61L114.93,340.692z M137.47,323.782l7.46,2.32l5.81-5
			l-5.64-7.63L137.47,323.782z M160.57,318.112l-1.74,10.17l4.63,9.1l14.45-12.52L160.57,318.112z M196.42,340.692l15.91,4.66
			l9.33-12.44l-14.79-7.61L196.42,340.692z M176,339.882l6.29,2.37l6.4-1.84l-6.23-10.8L176,339.882z M185.41,326.242l7.45,2.32
			l5.82-5l-5.68-7.64L185.41,326.242z M219,323.752l7.45,2.32l5.82-5l-5.65-7.63L219,323.752z M242.09,318.112l-1.73,10.17l4.62,9.1
			l14.45-12.52L242.09,318.112z M277.91,340.692l15.9,4.66l9.33-12.44l-14.78-7.61L277.91,340.692z M257.44,339.912l6.3,2.37
			l6.4-1.84l-6.23-10.8L257.44,339.912z M266.86,326.272l7.45,2.32l5.82-5l-5.65-7.63L266.86,326.272z M300.45,323.782l7.45,2.32
			l5.82-5l-5.65-7.63L300.45,323.782z M323.54,318.142l-1.73,10.17l4.62,9.1l14.45-12.52L323.54,318.142z M359.4,340.692l15.9,4.66
			l9.33-12.44l-14.78-7.61L359.4,340.692z M338.93,339.912l6.29,2.37l6.41-1.84l-6.23-10.8L338.93,339.912z M348.35,326.272
			l7.45,2.32l5.82-5l-5.62-7.67L348.35,326.272z M381.94,323.782l7.45,2.32l5.82-5l-5.65-7.63L381.94,323.782z M405,318.112
			l-1.74,10.17l4.63,9.1l14.45-12.52L405,318.112z M440.89,340.692l15.9,4.66l9.33-12.44l-14.78-7.61L440.89,340.692z
			 M420.42,339.912l6.29,2.37l6.4-1.84l-6.23-10.8L420.42,339.912z M429.83,326.272l7.46,2.32l5.81-5l-5.64-7.63L429.83,326.272z
			 M463.42,323.782l7.46,2.32l5.81-5l-5.64-7.63L463.42,323.782z M486.52,318.142l-1.74,10.17l4.63,9.1l14.45-12.52L486.52,318.142z
			 M522.37,340.692l15.91,4.66l9.33-12.44l-14.78-7.61L522.37,340.692z M501.91,339.912l6.29,2.37l6.4-1.84l-6.23-10.8
			L501.91,339.912z M511.32,326.272l7.46,2.32l5.81-5l-5.59-7.67L511.32,326.272z M544.91,323.782l7.46,2.32l5.81-5l-5.64-7.63
			L544.91,323.782z M568.01,318.142l-1.74,10.17l4.63,9.1l14.45-12.52L568.01,318.142z M603.86,340.692l15.9,4.66l9.34-12.44
			l-14.79-7.61L603.86,340.692z M583.39,339.912l6.3,2.37l6.4-1.84l-6.23-10.8L583.39,339.912z M592.81,326.272l7.45,2.32l5.82-5
			l-5.65-7.63L592.81,326.272z M626.4,323.782l7.45,2.32l5.82-5l-5.67-7.67L626.4,323.782z M649.49,318.142l-1.73,10.17l4.62,9.1
			l14.45-12.52L649.49,318.142z M664.88,339.912l6.3,2.37l6.4-1.84l-6.23-10.8L664.88,339.912z M631.51,341.782l6.29,2.37l6.4-1.83
			l-1.41-10.85h-4.82L631.51,341.782z M549,341.782l6.29,2.37l6.4-1.83l-1.41-10.85h-4.82L549,341.782z M467.78,341.782l6.29,2.37
			l6.4-1.83l-1.41-10.85h-4.82L467.78,341.782z M386.56,341.782l6.29,2.37l6.4-1.83l-1.41-10.85h-4.82L386.56,341.782z
			 M304.45,341.782l6.29,2.37l6.4-1.83l-1.41-10.85h-4.82L304.45,341.782z M222.34,341.782l6.29,2.37l6.4-1.83l-1.41-10.85h-4.82
			L222.34,341.782z M142.17,341.782l6.29,2.37l6.4-1.83l-1.41-10.85h-4.82L142.17,341.782z"/>
	</g>
</g>
<g id="masks">
</g>
<g id="guides">
</g>
</svg>
