<svg xmlns="http://www.w3.org/2000/svg" viewBox="0 0 800 1247"><defs><style>.Green{fill:#3f7f19;}.Yellow{fill:#f2f230;}</style></defs><title>lavenderpearlemonade_1247</title><g id="b682a6a1-ee70-4311-81d0-be3e76cd7437" data-name="vectors"><path class="Green" d="M709.53,158.91a4.78,4.78,0,0,1-1.09,5.31l-92.36,91.7a11.42,11.42,0,0,1-9.18,3.16c-3.54-.34-8.25,0-11.71,3.19-3.18,3.46-3.53,8.18-3.2,11.72a11.42,11.42,0,0,1-3.15,9.18l-91.71,92.35a4.75,4.75,0,0,1-5.3,1.09c-18.77-8.56-25.22-30.25-24.06-39.09,1.22-9.29,6.48-14.53-4.13-35.17s-26.66-87.75,28.61-143,122.38-39.23,143-28.61,25.88,5.36,35.17,4.14C679.27,133.7,701,140.14,709.53,158.91Z"/><path class="Yellow" d="M659.16,171.49a109.43,109.43,0,1,0-131,172.79l60.69-61.11A11.42,11.42,0,0,0,592,274c-.33-3.54,0-8.26,3.2-11.72,3.46-3.18,8.17-3.53,11.71-3.19a11.42,11.42,0,0,0,9.18-3.16l61.12-60.68A109.54,109.54,0,0,0,659.16,171.49Z"/><path class="Yellow" d="M194.76,257a9.76,9.76,0,0,0-9.76,9.76l25.38,970.48a9.75,9.75,0,0,0,9.75,9.76H579.87a9.75,9.75,0,0,0,9.75-9.76L615,266.76a9.76,9.76,0,0,0-9.76-9.76Z"/></g></svg>