<svg xmlns="http://www.w3.org/2000/svg" viewBox="0 0 800 1298"><defs><style>.Green{fill:#3f7f19;}.Yellow{fill:#f2f230;}</style></defs><title>mamouche_1298</title><g id="6e9efd8b-c802-4257-972a-c1390a07838c" data-name="vectors"><path class="Green" d="M640,371.24A160.05,160.05,0,0,0,483.4,498.32l234.38.15a9.05,9.05,0,0,1,6.72,15.09L578.06,678.8A160,160,0,1,0,640,371.24Z"/><circle class="Yellow" cx="640" cy="531.24" r="140"/><path class="Green" d="M674.24,495.37a2,2,0,0,0,2.1,2.1c5.93-.32,22.58-2.05,31.77-11.24,5.65-5.65,5.65-17,0-22.62s-17-5.66-22.62,0C676.29,472.79,674.56,489.44,674.24,495.37Z"/><path class="Green" d="M674.24,495.37a2,2,0,0,0,2.1,2.1c5.93-.32,22.58-2.05,31.77-11.24,5.65-5.65,5.65-17,0-22.62s-17-5.66-22.62,0C676.29,472.79,674.56,489.44,674.24,495.37Z"/><path class="Yellow" d="M482.7,1278.91A42.51,42.51,0,0,1,454,1266.44l-25.3-25.35a14.2,14.2,0,0,1-4.12-10V877.77s-3.16-18.94,16.54-43.62l-.66,0L724.5,513.56a9.05,9.05,0,0,0-6.72-15.09l-635.51-.42a9,9,0,0,0-6.79,15.06L358.19,832.54h-.07c21,25.34,17.53,45.23,17.53,45.23v353.29a14,14,0,0,1-4,10l-25.26,25.31a42.57,42.57,0,0,1-28.74,12.55c-74.92,2.24-107.91,6.42-107.91,13.66,0,3.62,95.13,5.43,190.31,5.43s190.63-1.81,190.63-5.43C590.63,1285.33,557.62,1281.15,482.7,1278.91Z"/><path class="Green" d="M604.13,497a2,2,0,0,0,2.1-2.1c-.32-5.93-2.05-22.58-11.24-31.77-5.65-5.65-17-5.65-22.62,0s-5.66,17,0,22.62C581.55,495,598.2,496.68,604.13,497Z"/><path class="Green" d="M675.87,565.48a2,2,0,0,0-2.1,2.1c.32,5.93,2.05,22.58,11.24,31.77,5.65,5.65,17,5.65,22.62,0s5.66-17,0-22.62C698.45,567.53,681.8,565.8,675.87,565.48Z"/><path class="Green" d="M604.13,497a2,2,0,0,0,2.1-2.1c-.32-5.93-2.05-22.58-11.24-31.77-5.65-5.65-17-5.65-22.62,0s-5.66,17,0,22.62C581.55,495,598.2,496.68,604.13,497Z"/><path class="Green" d="M675.87,565.48a2,2,0,0,0-2.1,2.1c.32,5.93,2.05,22.58,11.24,31.77,5.65,5.65,17,5.65,22.62,0s5.66-17,0-22.62C698.45,567.53,681.8,565.8,675.87,565.48Z"/><path class="Green" d="M442,410.47s28.28,5.66,45.25,22.63,17,39.6,17,39.6-22.63,0-39.6-17S442,410.47,442,410.47Z"/><path class="Green" d="M503.58,409.73S515,426.91,515,444.1s-11.46,28.64-11.46,28.64-11.45-11.46-11.45-28.64S503.58,409.73,503.58,409.73Z"/><path class="Green" d="M603,210.24s22.06,12.55,34,31.49a64,64,0,0,1,9.68,37.94,64,64,0,0,1-30-25.17C604.77,235.56,603,210.24,603,210.24Z"/><path class="Green" d="M592.65,247.09s22.44,2.73,38.73,14.19a57,57,0,0,1,21,27.85,57,57,0,0,1-33.29-10.37C602.79,267.3,592.65,247.09,592.65,247.09Z"/><path class="Green" d="M638.7,449.94s-25.37-.55-44.84-11.55a63.9,63.9,0,0,1-26.55-28.78,63.92,63.92,0,0,1,38.35,7.88C625.13,428.49,638.7,449.94,638.7,449.94Z"/><path class="Green" d="M635,402.69S617.19,416.63,597.56,420A56.93,56.93,0,0,1,563,415.19,57,57,0,0,1,593.9,399C613.53,395.57,635,402.69,635,402.69Z"/><path class="Green" d="M556.21,535.43s-25.38-.55-44.85-11.55a64,64,0,0,1-26.55-28.78A64,64,0,0,1,523.16,503C542.64,514,556.21,535.43,556.21,535.43Z"/><path class="Green" d="M565.36,502.67c-36-5.34-30.67-.55-50.29,2.86a57,57,0,0,1-34.54-4.84s10.54-16.61,30.17-20S553.36,481.33,565.36,502.67Z"/><path class="Green" d="M570.72,319.67s17,18.8,22.45,40.51a64,64,0,0,1-2.65,39.06A63.9,63.9,0,0,1,569.88,366C564.48,344.27,570.72,319.67,570.72,319.67Z"/><path class="Green" d="M515,351.67c16-16,40-8,56,8a88.92,88.92,0,0,1,19.72,30.88,56.94,56.94,0,0,1-33.3-10.37C541.17,368.72,539,359.67,515,351.67Z"/><path class="Green" d="M724.93,326.35c-32.63-9.78-37.49,4.85-59.48.76s-21.14-15.74-21.14-15.74a63.92,63.92,0,0,1,38.84-5C705.13,310.47,709.63,312.15,724.93,326.35Z"/><path class="Green" d="M708.86,279.7s-3.63,23.73-31.28,26.88c-19.79,2.25-34.55,4.73-34.55,4.73a56.93,56.93,0,0,1,25.3-24C686.28,278.69,708.86,279.7,708.86,279.7Z"/><path class="Green" d="M612.8,121.44c14.23,22.23,28.29,5.66,45.26,22.63s17,39.6,17,39.6a77,77,0,0,1-39.6-17C627,159.67,619,143.67,612.8,121.44Z"/><path class="Green" d="M666.81,114.29s10.69,7.6,14.57,17.8a27.8,27.8,0,0,1-.32,19.58,27.86,27.86,0,0,1-13.27-14.4C663.9,127.08,666.81,114.29,666.81,114.29Z"/><path class="Green" d="M698.37,111.67s2.72,16.16-2.86,28.61-17.59,17-17.59,17-4.58-12,1-24.46S698.37,111.67,698.37,111.67Z"/><path class="Green" d="M737.43,130.56s-9.6,27.2-28.8,41.6S667,183.37,667,183.37s3.2-22.41,22.4-36.81S737.43,130.56,737.43,130.56Z"/><path class="Yellow" d="M377.23,703.28a7.43,7.43,0,0,1-1.32-.11,8,8,0,0,1-6.58-9.2C388.62,578.16,491.17,477.4,566.05,403.84l8-7.87c35.81-35.25,62.28-82.88,78.67-141.57,13.45-48.18,16.5-90.81,18-111.29a8,8,0,0,1,16,1.14c-1.5,21-4.62,64.72-18.51,114.45-17.15,61.42-45,111.44-82.85,148.67l-8,7.88C504,487.28,403.55,585.92,385.11,696.6A8,8,0,0,1,377.23,703.28Z"/></g></svg>