<svg xmlns="http://www.w3.org/2000/svg" viewBox="0 0 800 1341"><defs><style>.\33 313cfa4-3717-45d7-aa18-0512a3ce519c{fill:#3f7f19;}.ffe0c1d4-b860-477f-b09f-552ad896d54d{fill:#f2f230;}</style></defs><title>mandarinmule_1341</title><g id="14391eed-e72d-41f8-8893-22bbbba87e70" data-name="vectors"><path class="3313cfa4-3717-45d7-aa18-0512a3ce519c" d="M610.2,239.6c-7.8,2.3-11.59,7.51-30.72,1.19s-78.83-11.06-118.79,43.77-17.18,110.21-5.3,126.49,8.08,21.47,8.28,29.6c.19,7.73,8.64,25.46,25.88,30.28a4.18,4.18,0,0,0,4.41-1.65l66.21-91.53a9.87,9.87,0,0,0,1.47-8.29c-.76-3-1.1-7.08,1.16-10.48,2.55-3.19,6.54-4.12,9.62-4.31a10,10,0,0,0,7.45-3.94l66.86-91.06A4.15,4.15,0,0,0,647,255C637.08,240,617.61,237.42,610.2,239.6Z"/><path class="ffe0c1d4-b860-477f-b09f-552ad896d54d" d="M605.46,272.54a95,95,0,1,0-89.11,165.78l43.82-60.57a9.87,9.87,0,0,0,1.47-8.29c-.76-3-1.1-7.08,1.16-10.48,2.55-3.19,6.54-4.12,9.62-4.31a10,10,0,0,0,7.45-3.94l44.24-60.26A94.64,94.64,0,0,0,605.46,272.54Z"/><path class="3313cfa4-3717-45d7-aa18-0512a3ce519c" d="M428.54,577.52a12,12,0,0,1-2.65-16.76L740.94,127.13a12,12,0,0,1,19.42,14.11l-315,433.63A12,12,0,0,1,428.54,577.52Z"/><rect class="ffe0c1d4-b860-477f-b09f-552ad896d54d" x="554.59" y="232.12" width="244" height="8" rx="4" ry="4" transform="translate(1265.3 -172.46) rotate(126)"/><path class="ffe0c1d4-b860-477f-b09f-552ad896d54d" d="M194.76,351a9.76,9.76,0,0,0-9.76,9.76l25.38,970.48a9.75,9.75,0,0,0,9.75,9.76H579.87a9.75,9.75,0,0,0,9.75-9.76L615,360.76a9.76,9.76,0,0,0-9.76-9.76Z"/></g></svg>