<svg xmlns="http://www.w3.org/2000/svg" viewBox="0 0 800 1006"><defs><style>.Green{fill:#3f7f19;}.Yellow{fill:#f2f230;}</style></defs><title>manhattan_1006</title><g id="0a7eb4ae-d607-4c0b-a0e5-aa1f9e847312" data-name="vectors"><path class="Green" d="M542.54,276.52s-36.45-109.66,30-142.9C605.79,119.68,781.62,90,796.63,228.35c13.16,121.23-23.58,119.73-36.45,123s-87.91-5.54-93.27-12-17.16-40.83-17.16-52.62,44-60.08,49.32-61.15-25.73-76.91-47.17-76.91-74,76.87-74,127.87C577.92,328.52,542.54,276.52,542.54,276.52Z"/><path class="Yellow" d="M637.33,141.86c28-14.67,52,2,69.34,26.66,13.89,19.77,54,104,14.5,181.59-24.36-2.5-51.14-7-54.26-10.78-5.37-6.43-17.16-40.83-17.16-52.62s44-60.08,49.32-61.15-25.73-76.91-47.17-76.91-74,76.87-74,127.87c0,19.5-5,24.38-11.2,22.85C556.36,296.83,570.86,175.09,637.33,141.86Z"/><path class="Yellow" d="M482.7,986.91A42.51,42.51,0,0,1,454,974.44l-25.3-25.35a14.2,14.2,0,0,1-4.12-10V585.77s-3.16-18.94,16.54-43.62l-.66,0L724.5,221.56a9.05,9.05,0,0,0-6.72-15.09l-635.51-.42a9,9,0,0,0-6.79,15.06L358.19,540.54h-.07c21,25.34,17.53,45.23,17.53,45.23V939.06a14,14,0,0,1-4,10l-25.26,25.31a42.57,42.57,0,0,1-28.74,12.55c-74.92,2.24-107.91,6.42-107.91,13.66,0,3.62,95.13,5.43,190.31,5.43s190.63-1.81,190.63-5.43C590.63,993.33,557.62,989.15,482.7,986.91Z"/></g></svg>