<?xml version="1.0" encoding="utf-8"?>
<!-- Generator: Adobe Illustrator 22.0.1, SVG Export Plug-In . SVG Version: 6.00 Build 0)  -->
<svg version="1.1" id="Layer_1" xmlns="http://www.w3.org/2000/svg" xmlns:xlink="http://www.w3.org/1999/xlink" x="0px" y="0px"
	 viewBox="0 0 800 900" style="enable-background:new 0 0 800 900;" xml:space="preserve">
<style type="text/css">
	.st0{fill:#3F7F19;}
	.st1{fill:#F2F230;}
</style>
<title>mezcalmule_900</title>
<g id="vectors">
	<path class="st0" d="M401.7,157.9c-5.3,8.7-4.4,16.8-27.5,27s-82.4,56.3-73.2,140.9c9.2,84.6,77.2,116.8,102,121.8
		c24.8,5,25.6,13.1,32.7,20.5c6.7,7,29.5,16.4,49.6,6.3c1.9-1,3-3.1,2.7-5.3l-15.9-140.8c-0.4-3.6-2.5-6.9-5.6-8.9
		c-3.2-2.1-7-5.6-7.8-10.6c-0.3-5.2,2.6-9.3,5.3-12.1c2.6-2.6,4-6.3,3.6-10l-14.9-140.9c-0.2-2.2-1.6-4-3.7-4.5
		C427,135.6,406.8,149.7,401.7,157.9z"/>
	<path class="st1" d="M425.1,192.5c-65.4,7.2-112.6,66.1-105.4,131.5c7.2,65.4,66.1,112.6,131.5,105.4c10.8-1.2,21.3-3.8,31.3-7.8
		L472,328.3c-0.4-3.6-2.5-6.9-5.6-8.9c-3.2-2.1-7-5.6-7.8-10.6c-0.3-5.2,2.6-9.3,5.3-12.1c2.6-2.6,4-6.3,3.6-10l-9.9-93.3
		C446.8,191.6,436,191.3,425.1,192.5z"/>
	<path class="st0" d="M449.8,255.2c-16,15.8-12.6,34.5-23.6,57.4c-12.3,25.5-14.8,46.7-54.2,76c-41.9,31.1-16.1,51.6,7.4,49.4
		s57.1-12.4,94.2-47s69.8-98.5,46.1-131.4C502.2,235.4,463.5,241.6,449.8,255.2z"/>
	<path class="st1" d="M489,255.5c-3.2,0.7-6.4-1.4-7.1-4.6c-0.1-0.7-0.2-1.4-0.1-2.1c0-0.2,2.5-17.6,7.8-49.7
		c4.1-25.1,13.1-41.8,26.6-49.6c11.5-6.6,26-6.7,43-0.1c3.1,1.2,4.6,4.7,3.4,7.8c-1.2,3-4.6,4.6-7.7,3.4
		c-13.7-5.3-24.4-5.5-32.8-0.7c-10.3,5.9-17.3,19.8-20.8,41.2c-5.2,32-7.7,49.3-7.7,49.5C493.4,253,491.5,255,489,255.5z"/>
	<path class="st1" d="M700.9,417.2c-2.9-7.4-10.3-12.1-18.3-11.6c-3.3,0.3-6.5,1.4-9.3,3.2l-42.7,27.4
		c-15.4-9.5-44.4-22.6-76.5-13.3c-7.3-20.7-16.9-40.5-28.5-59.1c-2.9-4.8-8.1-7.7-13.7-7.7H150c-5.7,0-10.9,3-13.8,7.9
		C121,389.9,75,477.6,75,620.1c0,146,63.1,246.9,81.4,273.1c3,4.3,7.9,6.8,13.1,6.8h322.9c5.2,0,10.1-2.5,13.1-6.8
		c10.4-15,35.3-53.9,54.8-111.5c29.7,6.1,56-6,70.3-14.8l42.7,27.4c2.8,1.9,6,3,9.3,3.2c8,0.5,15.4-4.2,18.3-11.6
		C733,704.8,733,498.2,700.9,417.2z M674.2,751l-34.1-21.9c-6.8-4.4-15.7-3.8-21.9,1.5c-6.4,5-13.5,8.9-21,11.8
		c-9.2,3.5-18,4.7-26.3,3.6c10.6-41.1,16-83.4,16-125.9c0-65.3-9.6-119.7-21.6-162.1c9.9-2.5,20.5-1.7,31.9,2.5
		c7.6,2.9,14.7,6.8,21,11.8c6.1,5.3,15.1,5.9,21.9,1.5l34.1-21.9C695.5,518.6,695.5,684.4,674.2,751z"/>
</g>
</svg>
