<svg xmlns="http://www.w3.org/2000/svg" viewBox="0 0 800 900"><defs><style>.Green{fill:#3f7f19;}.Yellow{fill:#f2f230;}</style></defs><title>mezcalmule_900</title><g id="vectors"><path class="Green" d="M395.492,139.719c-5.681,9.351-4.726,17.965-29.481,29s-88.436,60.4-78.53,151.132,82.739,125.2,109.292,130.627,27.477,14.045,35.043,21.95c7.192,7.514,31.652,17.508,53.173,6.677a5.567,5.567,0,0,0,2.89-5.624L470.85,322.456a13.332,13.332,0,0,0-6.051-9.585c-3.466-2.286-7.506-6.048-8.333-11.474-.363-5.478,2.769-10.022,5.661-13a13.331,13.331,0,0,0,3.84-10.664l-15.96-151.137a5.566,5.566,0,0,0-4.035-4.868C422.621,115.793,400.893,130.83,395.492,139.719Z"/><path class="Yellow" d="M420.6,176.775a127.778,127.778,0,1,0,61.517,245.617L470.85,322.456a13.327,13.327,0,0,0-6.051-9.585c-3.466-2.286-7.506-6.048-8.333-11.474-.364-5.477,2.77-10.023,5.661-13a13.331,13.331,0,0,0,3.84-10.665L455.406,177.717A127.877,127.877,0,0,0,420.6,176.775Z"/><path class="Green" d="M449.8,265.158c-15.961,15.759-12.621,34.511-23.643,57.382-12.3,25.527-14.754,46.708-54.214,75.986-41.869,31.066-16.121,51.594,7.382,49.374s57.1-12.409,94.18-47.039,69.775-98.528,46.053-131.432C502.245,245.411,463.491,251.645,449.8,265.158Z"/><path class="Yellow" d="M489.023,265.524a6,6,0,0,1-7.185-6.723c.025-.172,2.531-17.585,7.758-49.723,4.087-25.138,13.052-41.842,26.646-49.647,11.544-6.627,26.027-6.67,43.042-.125a6,6,0,0,1-4.307,11.2c-13.671-5.258-24.387-5.475-32.761-.668-10.307,5.918-17.3,19.768-20.777,41.166-5.206,32.012-7.7,49.331-7.722,49.5A6,6,0,0,1,489.023,265.524Z"/><path class="Yellow" d="M700.928,417.18a18.475,18.475,0,0,0-18.31-11.621,19.334,19.334,0,0,0-9.273,3.215l-42.726,27.372c-15.386-9.476-44.381-22.624-76.538-13.31a304.141,304.141,0,0,0-28.453-59.117A15.99,15.99,0,0,0,511.937,356H149.987a15.948,15.948,0,0,0-13.784,7.873C120.958,389.935,75,477.619,75,620.127c0,146,63.076,246.85,81.425,273.1A15.937,15.937,0,0,0,169.5,900H492.4a15.976,15.976,0,0,0,13.118-6.836c10.445-14.957,35.254-53.915,54.756-111.485,29.655,6.1,55.953-5.977,70.345-14.84l42.726,27.372a19.355,19.355,0,0,0,9.273,3.215,18.475,18.475,0,0,0,18.31-11.622C733.024,704.8,733.024,498.184,700.928,417.18ZM674.227,751l-34.11-21.852a18.2,18.2,0,0,0-21.876,1.473A80.73,80.73,0,0,1,597.2,742.411c-9.228,3.459-18.023,4.661-26.3,3.616a502.653,502.653,0,0,0,16-125.9c0-65.277-9.646-119.723-21.563-162.1,9.857-2.538,20.53-1.7,31.856,2.55a80.742,80.742,0,0,1,21.046,11.791,18.2,18.2,0,0,0,21.876,1.474l34.11-21.852C695.482,518.567,695.482,684.417,674.227,751Z"/></g></svg>