<svg xmlns="http://www.w3.org/2000/svg" viewBox="0 0 800 757"><defs><style>.Green{fill:#3f7f19;}.Yellow{fill:#f2f230;}</style></defs><title>mezcaloldfashioned_757</title><g id="vectors"><path class="Green" d="M708.75,137.823c-10.849,1.426-16.966,7.565-41.067-4.829S565.212,101.865,500.674,166.4s-45.8,142.907-33.409,167.008,6.255,30.219,4.829,41.067c-1.354,10.313,6.17,35.642,28.091,45.639a5.566,5.566,0,0,0,6.194-1.268L613.462,311.005a13.329,13.329,0,0,0,3.684-10.72c-.388-4.134.016-9.639,3.728-13.682,4.044-3.713,9.549-4.116,13.683-3.728a13.33,13.33,0,0,0,10.719-3.684L753.12,172.107a5.563,5.563,0,0,0,1.268-6.194C744.391,143.992,719.062,136.468,708.75,137.823Z"/><path class="Yellow" d="M695.582,180.605A127.778,127.778,0,1,0,542.6,382.369l70.862-71.364a13.328,13.328,0,0,0,3.683-10.72c-.387-4.134.016-9.639,3.728-13.682,4.043-3.713,9.549-4.116,13.682-3.728a13.327,13.327,0,0,0,10.72-3.684l71.365-70.861A127.859,127.859,0,0,0,695.582,180.605Z"/><path class="Yellow" d="M587.989,757H212.011a10.5,10.5,0,0,1-10.534-10.346L168,295.58A10.5,10.5,0,0,1,178.535,285h442.93A10.5,10.5,0,0,1,632,295.58L598.523,746.654A10.5,10.5,0,0,1,587.989,757Z"/></g></svg>