<svg xmlns="http://www.w3.org/2000/svg" viewBox="0 0 800 925"><defs><style>.Yellow{fill:#f2f230;}.Green{fill:#3f7f19;}</style></defs><title>milkysticks_925</title><g id="bf24c666-0358-4b7e-ba0d-641a6904edc9" data-name="vectors"><path class="Yellow" d="M588,925H212a10.49,10.49,0,0,1-10.53-10.35L168,463.58A10.5,10.5,0,0,1,178.53,453H621.47A10.5,10.5,0,0,1,632,463.58L598.52,914.65A10.49,10.49,0,0,1,588,925Z"/><path class="Yellow" d="M369,596.05a8,8,0,0,1-6.47-12.7l329.16-453a8,8,0,0,1,12.95,9.4L375.51,592.75A8,8,0,0,1,369,596.05Z"/><path class="Green" d="M510.09,406.89a13,13,0,0,1-10.51-20.65l188.1-258.88a13,13,0,1,1,21,15.28L520.62,401.53A13,13,0,0,1,510.09,406.89Z"/><path class="Yellow" d="M370.84,589.8a8,8,0,0,1-5.35-13.95L781.65,201.14A8,8,0,1,1,792.35,213L376.19,587.74A8,8,0,0,1,370.84,589.8Z"/><path class="Green" d="M549.2,434.21a13,13,0,0,1-8.7-22.67L778.3,197.42a13,13,0,0,1,17.4,19.33L557.89,430.87A13,13,0,0,1,549.2,434.21Z"/></g></svg>