<svg xmlns="http://www.w3.org/2000/svg" viewBox="0 0 800 1310"><defs><style>.Yellow{fill:#f2f230;}.Green{fill:#3f7f19;}</style></defs><title>mintjulep_1310</title><g id="f0de7dc3-09e9-4aba-ba94-bb64536c333f" data-name="vectors"><path class="Yellow" d="M194.76,320a9.76,9.76,0,0,0-9.76,9.76l25.38,970.48a9.75,9.75,0,0,0,9.75,9.76H579.87a9.75,9.75,0,0,0,9.75-9.76L615,329.76a9.76,9.76,0,0,0-9.76-9.76Z"/><path class="Green" d="M765,263.71c-20.63-12.47-38.11-15.83-52.5-14.42.07-6.07,33.57-15.57,41.07-46.57-25.37-1-47.57,1.68-65,8.92,6.37-7.34,11.32-16,11-24.92-33.5-2.5-49.35,13.54-53,13,25.5-26.5,25.35-76.37,25.35-76.37-30.89,9.07-54.27,46-62.85,62.37-9.5-46.5-67.34-55.59-67.34-55.59s4.84,45.09,32.34,83.59c-30-19.5-62.5-13.5-74-8,0,0,63.82,63.06,85.8,59.72,2.35,5,32.73,4.93,63.28-2.56a97,97,0,0,0-.58,16.84C651.07,331.72,705,333,705,333c2.38-15.42-.8-27-6.13-35.63C737.54,300.3,765,263.71,765,263.71Z"/><path class="Yellow" d="M683.83,263h-.32c-50.21,1.94-114.81,69.35-153.61,120.5,15.05-46.21,47.54-101.07,115.75-148.7a8,8,0,0,0-9.16-13.12C542.83,287.07,513.11,365.89,504.67,420.5a8,8,0,0,0,6.68,9.13,8.59,8.59,0,0,0,1.23.09h.48a8,8,0,0,0,6.82-3.8C549.9,377.26,631.52,281,684.13,279a8,8,0,0,0-.3-16Z"/></g></svg>