<svg xmlns="http://www.w3.org/2000/svg" viewBox="0 0 800 1278"><defs><style>.Green{fill:#3f7f19;}.Yellow{fill:#f2f230;}</style></defs><title>monkeyguts_1278</title><g id="0bca87ea-f3f2-470a-84ad-49a165990faa" data-name="vectors"><circle class="Green" cx="613" cy="280" r="160"/><circle class="Yellow" cx="613" cy="280" r="140"/><path class="Green" d="M545.37,234.52c-5.66-5.66-5.66-17,0-22.62s17-5.66,22.63,0c9.18,9.19,10.91,25.84,11.23,31.77a2,2,0,0,1-2.1,2.1C571.2,245.44,554.55,243.71,545.37,234.52Zm103.5,79.72a2,2,0,0,0-2.1,2.1c.33,5.93,2.05,22.58,11.24,31.77,5.66,5.65,17,5.65,22.63,0s5.65-17,0-22.62C671.45,316.29,654.81,314.56,648.87,314.24Zm-1.63-70.11a2,2,0,0,0,2.1,2.1c5.94-.32,22.58-2,31.77-11.24,5.66-5.65,5.65-17,0-22.62s-17-5.66-22.63,0C649.3,221.55,647.57,238.2,647.24,244.13Z"/><path class="Yellow" d="M194.76,288a9.76,9.76,0,0,0-9.76,9.76l25.38,970.48a9.75,9.75,0,0,0,9.75,9.76H579.87a9.75,9.75,0,0,0,9.75-9.76L615,297.76a9.76,9.76,0,0,0-9.76-9.76Z"/></g></svg>