<svg xmlns="http://www.w3.org/2000/svg" viewBox="0 0 800 790"><defs><style>.Green{fill:#3f7f19;}.Yellow{fill:#f2f230;}</style></defs><title>moscowmule_790</title><g id="1284e850-e3c1-44e5-bb49-904ce264fe55" data-name="vectors"><path class="Green" d="M606.43,132.49c-8.93,1.37-13.87,6.54-34-3.26s-85.11-23.87-137.22,30.53S400,278.49,410.62,298.16,416.31,323,415.33,332c-.93,8.53,5.72,29.3,24,37.16a4.59,4.59,0,0,0,5.09-1.16l86.45-90.89a11,11,0,0,0,2.85-8.91c-.39-3.4-.15-7.95,2.84-11.35,3.27-3.14,7.8-3.57,11.22-3.32a11,11,0,0,0,8.78-3.23L643.65,160a4.59,4.59,0,0,0,.94-5.13C636,137,614.91,131.19,606.43,132.49Z"/><path class="Yellow" d="M596.32,168A105.47,105.47,0,1,0,473.65,337.23l57.21-60.15a11,11,0,0,0,2.85-8.91c-.39-3.4-.15-7.95,2.84-11.35,3.27-3.14,7.8-3.57,11.22-3.32a11,11,0,0,0,8.78-3.23l57.64-59.74A105.79,105.79,0,0,0,596.32,168Z"/><path class="Yellow" d="M767.93,307.18a18.48,18.48,0,0,0-18.31-11.62,19.46,19.46,0,0,0-9.28,3.21l-42.72,27.38c-15.39-9.48-44.38-22.63-76.54-13.31a304.61,304.61,0,0,0-28.45-59.12A16,16,0,0,0,578.94,246H217a16,16,0,0,0-13.79,7.87C188,279.94,142,367.62,142,510.13c0,146,63.08,246.85,81.43,273.1A15.92,15.92,0,0,0,236.5,790H559.4a16,16,0,0,0,13.12-6.84c10.44-14.95,35.25-53.91,54.75-111.48,29.66,6.1,56-6,70.35-14.84l42.72,27.37a19.47,19.47,0,0,0,9.28,3.22,18.49,18.49,0,0,0,18.31-11.63C800,594.8,800,388.18,767.93,307.18ZM741.23,641l-34.11-21.85a18.2,18.2,0,0,0-21.88,1.47,80.34,80.34,0,0,1-21,11.79c-9.23,3.46-18,4.66-26.3,3.62a502.56,502.56,0,0,0,16-125.9c0-65.28-9.64-119.73-21.56-162.11,9.86-2.53,20.53-1.69,31.86,2.55a80.54,80.54,0,0,1,21,11.8,18.21,18.21,0,0,0,21.88,1.47L741.23,342C762.48,408.57,762.48,574.42,741.23,641Z"/></g></svg>