<svg xmlns="http://www.w3.org/2000/svg" viewBox="0 0 800 1080"><defs><style>.Yellow{fill:#f2f230;}.Green{fill:#3f7f19;}</style></defs><title>mouthwash_1080</title><g id="018a19eb-c9d8-47f2-9e3b-be7020d2657e" data-name="vectors"><path class="Yellow" d="M718.53,316.25H81.09a6,6,0,0,0-6,6.24C76.2,349.57,87.81,458,202,479.75c51,12,61,66,64,109s55.17,68,70.17,84S356,699.52,356,699.52h-.54l19.81,313.31a14.35,14.35,0,0,1-4.21,10l-25.34,25.41a42.81,42.81,0,0,1-28.78,12.58C242,1063.12,209,1066.75,209,1074.75c0,3.5,95.47,5.25,190.82,5.25s190.82-1.75,190.82-5.25c0-8-33-11.63-107.92-13.87A42.72,42.72,0,0,1,454,1048.3l-25.3-25.41a14.26,14.26,0,0,1-4.12-10l20-313.31H444s4.64-10.77,19.64-26.77,67-41,70-84,13-97,64-109C711.81,458,723.42,349.57,724.52,322.49A6,6,0,0,0,718.53,316.25Z"/><path class="Green" d="M799.47,259.36C778.83,246.89,761.35,243.53,747,245c.07-6.08,33.57-15.58,41.07-46.58-25.37-1-47.57,1.68-64.95,8.92,6.37-7.34,11.33-16,10.95-24.92-33.5-2.5-49.35,13.55-53,13,25.5-26.5,25.35-76.37,25.35-76.37-30.89,9.07-54.27,46-62.85,62.37-9.5-46.5-67.34-55.59-67.34-55.59s4.84,45.09,32.34,83.59c-30-19.5-62.5-13.5-74-8,0,0,63.82,63.06,85.81,59.72,2.34,5,32.72,4.94,63.27-2.56a98.05,98.05,0,0,0-.58,16.84c2.5,52,56.43,53.33,56.43,53.33,2.38-15.43-.8-27-6.12-35.64C772,296,799.47,259.36,799.47,259.36Z"/><path class="Yellow" d="M718,258.63C667.76,260.57,603.17,328,564.36,379.14c15-46.22,47.54-101.07,115.75-148.71A8,8,0,0,0,671,217.31c-93.66,65.41-123.38,144.24-131.82,198.84a8,8,0,0,0,6.68,9.13,8.73,8.73,0,0,0,1.23.1l.29,0,.2,0a8,8,0,0,0,6.81-3.81c30-48.65,111.64-144.92,164.25-146.95a8,8,0,1,0-.61-16Z"/></g></svg>