<svg xmlns="http://www.w3.org/2000/svg" viewBox="0 0 800 769"><defs><style>.Green{fill:#3f7f19;}.Yellow{fill:#f2f230;}</style></defs><title>negroni_769</title><g id="20a24d85-da07-4e11-a024-69a30601043b" data-name="vectors"><path class="Green" d="M533.94,170.7c-36.61,15.19-44.78,40.53-48.9,41.9,12.75-41.49-14-93.93-14-93.93-27.71,26-32.66,77.34-33,99.14-34.76-43.92-100.52-22.72-100.52-22.72s29.1,44.92,78.55,70.84c-42-4.57-73,19-82.2,30.95,0,0,100.78,32.46,122.15,17.24,7.05,5.52,64.8-27.21,93.77-66.17-19.32-12.06-29.86-9.37-29.86-9.37S547.77,195.45,533.94,170.7Z"/><path class="Green" d="M679.3,194.39c-9.36,1.24-14.64,6.53-35.45-4.17s-88.46-26.87-144.18,28.85-39.54,123.37-28.84,144.18,5.4,26.09,4.17,35.45c-1.17,8.9,5.32,30.77,24.25,39.4A4.83,4.83,0,0,0,504.6,437L597,343.9a11.5,11.5,0,0,0,3.18-9.25c-.33-3.57,0-8.32,3.22-11.81,3.49-3.21,8.24-3.56,11.81-3.22a11.54,11.54,0,0,0,9.26-3.18L717.61,224a4.79,4.79,0,0,0,1.09-5.35C710.07,199.72,688.21,193.22,679.3,194.39Z"/><path class="Yellow" d="M667.94,231.33A110.31,110.31,0,1,0,535.87,405.51L597,343.9a11.44,11.44,0,0,0,3.18-9.25c-.33-3.57,0-8.32,3.22-11.81,3.49-3.21,8.24-3.56,11.81-3.22a11.54,11.54,0,0,0,9.26-3.18l61.61-61.18A110.89,110.89,0,0,0,667.94,231.33Z"/><path class="Yellow" d="M588,769H212a10.49,10.49,0,0,1-10.53-10.35L168,307.58A10.5,10.5,0,0,1,178.53,297H621.47A10.5,10.5,0,0,1,632,307.58L598.52,758.65A10.49,10.49,0,0,1,588,769Z"/></g></svg>