<svg id="ec03d8e7-ddd5-4f02-b22d-1726f535a0b5" data-name="vectors" xmlns="http://www.w3.org/2000/svg" viewBox="0 0 800 920"><defs><style>.Yellow{fill:#f2f230;}</style></defs><title>nutellamartini_920</title><path class="Yellow" d="M482.7,900.91A42.51,42.51,0,0,1,454,888.44l-25.3-25.35a14.2,14.2,0,0,1-4.12-10V499.77s-3.16-18.94,16.54-43.62l-.66,0L724.5,135.56a9.05,9.05,0,0,0-6.72-15.09l-635.51-.42a9,9,0,0,0-6.79,15.06L358.19,454.54h-.07c21,25.34,17.53,45.23,17.53,45.23V853.06a14,14,0,0,1-4,10l-25.26,25.31a42.57,42.57,0,0,1-28.74,12.55c-74.92,2.24-107.91,6.42-107.91,13.66,0,3.62,95.13,5.43,190.31,5.43s190.63-1.81,190.63-5.43C590.63,907.33,557.62,903.15,482.7,900.91Z"/></svg>