<svg xmlns="http://www.w3.org/2000/svg" viewBox="0 0 800 739"><defs><style>.Green{fill:#3f7f19;}.Yellow{fill:#f2f230;}</style></defs><title>paras_739</title><g id="a7022ae6-caec-4905-b74c-2ce677bbd4a0" data-name="vectors"><path class="Green" d="M670.64,189.7c-7.14.94-11.17,5-27-3.18s-67.49-20.5-110,22-30.17,94.13-22,110,4.12,19.9,3.19,27.05c-.9,6.79,4.06,23.47,18.5,30.06a3.69,3.69,0,0,0,4.08-.84l70.53-71a8.82,8.82,0,0,0,2.43-7.06c-.26-2.73,0-6.35,2.45-9,2.66-2.45,6.29-2.72,9-2.46a8.74,8.74,0,0,0,7.06-2.43l71-70.53a3.67,3.67,0,0,0,.83-4.08C694.12,193.76,677.43,188.81,670.64,189.7Z"/><path class="Green" d="M504.83,129.53c-4.39,5.58-4.45,11.21-21.27,16.38s-61.74,32-62.45,91.28,43.54,87.19,60.23,92.76,16.62,11.21,20.87,16.89c4.05,5.41,19,13.77,33.76,8.47a3.62,3.62,0,0,0,2.3-3.4l.84-98.69a8.62,8.62,0,0,0-3.15-6.65c-2.05-1.74-4.36-4.49-4.47-8,.19-3.56,2.57-6.24,4.66-7.94a8.61,8.61,0,0,0,3.31-6.57L541,125.33a3.6,3.6,0,0,0-2.22-3.45C524.19,116.23,509,124.22,504.83,129.53Z"/><path class="Yellow" d="M662,217.88a84.17,84.17,0,0,0-119,0c-1.19,1.19-2.33,2.42-3.44,3.67l1-62.84a83,83,0,1,0-10.43,161.61,84.54,84.54,0,0,0,31.16,30.45l46.67-47a8.82,8.82,0,0,0,2.43-7.06c-.26-2.73,0-6.35,2.45-9,2.66-2.45,6.29-2.72,9-2.46a8.74,8.74,0,0,0,7.06-2.43l47-46.67A84.49,84.49,0,0,0,662,217.88Z"/><path class="Yellow" d="M588,739H212a10.49,10.49,0,0,1-10.53-10.35L168,277.58A10.5,10.5,0,0,1,178.53,267H621.47A10.5,10.5,0,0,1,632,277.58L598.52,728.65A10.49,10.49,0,0,1,588,739Z"/></g></svg>