<svg xmlns="http://www.w3.org/2000/svg" viewBox="0 0 800 947"><defs><style>.Yellow{fill:#f2f230;}.Green{fill:#3f7f19;}</style></defs><title>partificial_947</title><g id="vectors"><path class="Yellow" d="M469.126,332.007a10,10,0,0,1-9.853-8.357c-4.6-27.587-5.635-70.8,5.241-109.359,14.18-50.28,45.371-82.78,90.2-93.987a10,10,0,0,1,4.851,19.4c-38,9.5-63.5,36.421-75.8,80.013-9.98,35.383-9,75.188-4.76,100.641a10,10,0,0,1-8.221,11.509A10.125,10.125,0,0,1,469.126,332.007Z"/><path class="Green" d="M581.138,393.871c0-61.93-39.355-111.836-112.134-86.521-72.779-25.315-112.134,24.591-112.134,86.521a112.134,112.134,0,0,0,224.268,0Z"/><path class="Yellow" d="M583.468,355.865A10.891,10.891,0,0,0,572.752,347h-345.5a10.891,10.891,0,0,0-10.716,8.865c-7.943,42.02-36.579,251.952-50.012,351.386A196.348,196.348,0,0,0,189.966,829.8c26.453,47.04,61.715,97.314,72.584,112.559A11.065,11.065,0,0,0,271.566,947H528.434a11.065,11.065,0,0,0,9.016-4.639c10.869-15.245,46.131-65.519,72.584-112.559A196.348,196.348,0,0,0,633.48,707.251C620.047,607.817,591.411,397.885,583.468,355.865Z"/></g></svg>