<svg xmlns="http://www.w3.org/2000/svg" viewBox="0 0 800 1011"><defs><style>.Green{fill:#3f7f19;}.Yellow{fill:#f2f230;}</style></defs><title>lemondrop_1011</title><g id="vectors"><path class="Green" d="M697.083,127.943c-10.656,2.484-16.142,9.194-41.343-.775s-105.031-20.921-162.923,49.64-31.558,146.713-16.856,169.481,9.191,29.459,8.837,40.4c-.337,10.395,9.638,34.864,32.434,42.661a5.564,5.564,0,0,0,6.039-1.87l95.982-117.833a13.329,13.329,0,0,0,2.614-11.03c-.792-4.076-.93-9.594,2.367-13.982,3.66-4.092,9.1-5.034,13.251-5.053a13.329,13.329,0,0,0,10.306-4.718L744.6,157.707a5.563,5.563,0,0,0,.654-6.288C733.158,130.585,707.213,125.583,697.083,127.943Z"/><path class="Yellow" d="M688.177,171.811a127.778,127.778,0,1,0-132.439,215.8l63.515-77.974a13.329,13.329,0,0,0,2.614-11.03c-.791-4.076-.931-9.594,2.367-13.982,3.659-4.092,9.1-5.034,13.25-5.053a13.33,13.33,0,0,0,10.307-4.718l64.065-77.524A127.884,127.884,0,0,0,688.177,171.811Z"/><path class="Yellow" d="M482.705,991.912a42.565,42.565,0,0,1-28.759-12.471l-25.3-25.352a14.205,14.205,0,0,1-4.123-10.03V590.766s-3.161-18.935,16.541-43.62l-.66-.019L724.5,226.558a9.05,9.05,0,0,0-6.718-15.084L82.27,211.049a9.051,9.051,0,0,0-6.79,15.065L358.188,545.542h-.065c20.974,25.342,17.531,45.224,17.531,45.224V944.059a14.047,14.047,0,0,1-4.049,9.99l-25.269,25.313a42.6,42.6,0,0,1-28.737,12.55c-74.916,2.242-107.907,6.417-107.907,13.658,0,3.618,95.127,5.428,190.308,5.43,95.289,0,190.633-1.808,190.633-5.43C590.633,998.329,557.621,994.154,482.705,991.912Z"/></g></svg>