<svg xmlns="http://www.w3.org/2000/svg" viewBox="0 0 800 920"><defs><style>.Yellow{fill:#f2f230;}</style></defs><title>pb&amp;amp;j_920</title><g id="vectors"><path class="Yellow" d="M482.705,900.912a42.565,42.565,0,0,1-28.759-12.471l-25.3-25.352a14.205,14.205,0,0,1-4.123-10.03V499.766s-3.161-18.935,16.541-43.62l-.66-.019L724.5,135.558a9.05,9.05,0,0,0-6.718-15.084L82.27,120.049a9.051,9.051,0,0,0-6.79,15.065L358.188,454.542h-.065c20.974,25.342,17.531,45.224,17.531,45.224V853.059a14.047,14.047,0,0,1-4.049,9.99l-25.269,25.313a42.6,42.6,0,0,1-28.737,12.55c-74.916,2.242-107.907,6.417-107.907,13.658,0,3.618,95.127,5.428,190.308,5.43,95.289,0,190.633-1.808,190.633-5.43C590.633,907.329,557.621,903.154,482.705,900.912Z"/></g></svg>