<svg id="430ece68-7dff-4b41-92ac-a65918c2d2b8" data-name="vectors" xmlns="http://www.w3.org/2000/svg" viewBox="0 0 800 1021"><defs><style>.Yellow{fill:#f2f230;}</style></defs><title>pinkparadise_1021</title><path class="Yellow" d="M482.63,1001.67A42.35,42.35,0,0,1,454,989.28L428.6,964a14.15,14.15,0,0,1-4.17-10V726.89s3.15-15.07,16.46-55.47a5,5,0,0,0-.65-4.49c-11.15-15.64-7-12.65-18.51-29.93a39.22,39.22,0,0,1,5-24c7-12,241-76,217-249-18.48-133.22-47-206-59.2-232.36A20,20,0,0,0,566.36,120H233.8a20,20,0,0,0-18.17,11.64C203.47,158,174.91,230.78,156.43,364c-24,173,210,237,217,249a39.22,39.22,0,0,1,5,24c-11.52,17.28-7.38,14.29-18.52,29.93a5.07,5.07,0,0,0-.79,4.49c13.31,40.4,16.31,55.47,16.31,55.47V954a14,14,0,0,1-4,10l-25.25,25.31a42.28,42.28,0,0,1-28.65,12.39c-75,2.24-127.49,7.44-127.49,13.5,0,3.89,105,5.83,210.05,5.83s210.05-1.94,210.05-5.83C610.12,1009.11,557.58,1003.91,482.63,1001.67Z"/></svg>