<svg xmlns="http://www.w3.org/2000/svg" viewBox="0 0 800 757"><defs><style>.Yellow{fill:#f2f230;}</style></defs><title>hotornot_757</title><g id="vectors"><path class="Yellow" d="M708.5,291c0-26.829-9.13-56.091-24.422-78.276-27.365-39.7-66.028-48.036-93.437-48.036-23.187,0-45.141,8.822-65.141,25.851V130.187c0-5.523-3.988-10.187-9.511-10.187H101.011c-5.523,0-9.511,4.664-9.511,10.187V747c0,5.523,3.988,10,9.511,10H515.989c5.523,0,9.511-4.477,9.511-10V556.777c16-37.087,52.018-75.393,87.56-112.729C662.015,392.62,708.5,344.045,708.5,291Zm-183,177.77V268.275c15-27.127,37.594-55.587,65.141-55.587,23.464,0,41.143,8.922,53.794,27.276,11.767,17.073,16,38.163,16,51.036,0,33.852-41.881,77.623-82.176,119.953C560.212,429.914,542.5,449.1,525.5,468.77Z"/></g></svg>