<svg xmlns="http://www.w3.org/2000/svg" viewBox="0 0 800 1273"><defs><style>.Green{fill:#3f7f19;}.Yellow{fill:#f2f230;}</style></defs><title>polishwater_1273</title><g id="vectors"><path class="Green" d="M530.776,137.848c-10.849,1.426-16.966,7.565-41.067-4.829S387.238,101.89,322.7,166.428,276.9,309.335,289.291,333.436s6.255,30.219,4.829,41.067c-1.354,10.313,6.17,35.642,28.091,45.639a5.566,5.566,0,0,0,6.194-1.268L435.488,311.03a13.329,13.329,0,0,0,3.684-10.72c-.388-4.134.016-9.639,3.728-13.682,4.044-3.713,9.549-4.116,13.683-3.728a13.33,13.33,0,0,0,10.719-3.684L575.146,172.132a5.563,5.563,0,0,0,1.268-6.194C566.417,144.017,541.088,136.493,530.776,137.848Z"/><path class="Yellow" d="M517.608,180.63A127.778,127.778,0,1,0,364.627,382.394l70.862-71.364a13.328,13.328,0,0,0,3.683-10.72c-.387-4.134.016-9.639,3.728-13.682,4.043-3.713,9.549-4.116,13.682-3.728a13.327,13.327,0,0,0,10.72-3.684l71.365-70.861A127.859,127.859,0,0,0,517.608,180.63Z"/><path class="Yellow" d="M29.545,283a9.757,9.757,0,0,0-9.759,9.756l25.375,970.488A9.757,9.757,0,0,0,54.92,1273H414.651a9.758,9.758,0,0,0,9.76-9.756l25.375-970.488a9.758,9.758,0,0,0-9.76-9.756Z"/><path class="Yellow" d="M488.31,939.05l34.034,328.162a6.98,6.98,0,0,0,6.91,5.788h209.92a6.979,6.979,0,0,0,6.91-5.788L780.118,939.05a6.945,6.945,0,0,0-6.91-8.05H495.22A6.946,6.946,0,0,0,488.31,939.05Z"/></g></svg>