<svg xmlns="http://www.w3.org/2000/svg" viewBox="0 0 800 1265"><defs><style>.Yellow{fill:#f2f230;}.Green{fill:#3f7f19;}</style></defs><title>rootbeerfloat_1265</title><g id="fd938281-720a-490a-b316-eee1f6764c2d" data-name="vectors"><path class="Yellow" d="M317.7,511.32a14,14,0,0,1-3.1-19.56L578.75,128.19A20,20,0,0,1,595.46,120l190.91,5a14,14,0,1,1-.74,28l-186.7-4.9L337.25,508.22A14,14,0,0,1,317.7,511.32Z"/><path class="Green" d="M569.14,189.07,559.73,202l-22.65-16.46,9.4-12.94Zm-56.43,77.66,9.4-12.94-22.65-16.46-9.4,12.94ZM786.37,125h-.5l4.33,27.37A14,14,0,0,0,786.37,125ZM523,205l-9.4,12.94,22.65,16.46,9.4-12.94Zm146.88-83.06-16.26-.43L658,149.61l16.27.43ZM711.39,123l-16.27-.42,4.46,28.12,16.26.43ZM570,140.25l-9.4,12.94,22.65,16.46,9.41-13Zm186.13-16.07-16.26-.43,4.45,28.13,16.27.42Zm-126.53-3.33-16.26-.42,4.45,28.12,16.27.43Z"/><path class="Yellow" d="M194.76,275a9.76,9.76,0,0,0-9.76,9.76l25.38,970.48a9.75,9.75,0,0,0,9.75,9.76H579.87a9.75,9.75,0,0,0,9.75-9.76L615,284.76a9.76,9.76,0,0,0-9.76-9.76Z"/></g></svg>