<svg xmlns="http://www.w3.org/2000/svg" viewBox="0 0 800 614"><defs><style>.Green{fill:#3f7f19;}.Yellow{fill:#f2f230;}</style></defs><title>sazerac_1006</title><g id="e0fd911b-3854-4b8d-9e69-851a05acc449" data-name="vectors"><path class="Green" d="M516.11,275.52s-36.45-109.66,30-142.9C579.36,118.68,755.19,89,770.2,227.35c13.16,121.23-23.59,119.73-36.45,123s-87.92-5.54-93.28-12-17.15-40.83-17.15-52.62,44-60.08,49.32-61.15-25.73-76.91-47.18-76.91-74,76.87-74,127.87C551.49,327.52,516.11,275.52,516.11,275.52Z"/><path class="Yellow" d="M610.9,140.86c28-14.67,52,2,69.34,26.66,13.88,19.77,54,104,14.5,181.59-24.36-2.5-51.14-7-54.27-10.78-5.36-6.43-17.15-40.83-17.15-52.62s44-60.08,49.32-61.15-25.73-76.91-47.18-76.91-74,76.87-74,127.87c0,19.5-5,24.38-11.2,22.85C529.93,295.83,544.43,174.09,610.9,140.86Z"/><path class="Yellow" d="M588,614H212a10.49,10.49,0,0,1-10.53-10.35L168,152.58A10.5,10.5,0,0,1,178.53,142H621.47A10.5,10.5,0,0,1,632,152.58L598.52,603.65A10.49,10.49,0,0,1,588,614Z"/></g></svg>