<svg xmlns="http://www.w3.org/2000/svg" viewBox="0 0 800 1044"><defs><style>.Green{fill:#3f7f19;}.Yellow{fill:#f2f230;}</style></defs><title>sgroppino_1044</title><g id="8b757a32-2416-4552-9b67-fcbcff24f96c" data-name="vectors"><circle class="Green" cx="400" cy="282.04" r="160"/><path class="Yellow" d="M718.53,280.25H81.09a6,6,0,0,0-6,6.24C76.2,313.57,87.81,422,202,443.75c51,12,61,66,64,109s55.17,68,70.17,84S356,663.52,356,663.52h-.54l19.81,313.31a14.35,14.35,0,0,1-4.21,10l-25.34,25.41a42.81,42.81,0,0,1-28.78,12.58C242,1027.12,209,1030.75,209,1038.75c0,3.5,95.47,5.25,190.82,5.25s190.82-1.75,190.82-5.25c0-8-33-11.63-107.92-13.87A42.72,42.72,0,0,1,454,1012.3l-25.3-25.41a14.26,14.26,0,0,1-4.12-10l20-313.31H444s4.64-10.77,19.64-26.77,67-41,70-84,13-97,64-109C711.81,422,723.42,313.57,724.52,286.49A6,6,0,0,0,718.53,280.25Z"/></g></svg>