<svg xmlns="http://www.w3.org/2000/svg" viewBox="0 0 800 754"><defs><style>.Yellow{fill:#f2f230;}.cls-1{fill:#3f7f19;}</style></defs><title>smokedstrawberry_754</title><g id="vectors"><path class="Yellow" d="M587.989,754H212.011a10.5,10.5,0,0,1-10.534-10.346L168,292.58A10.5,10.5,0,0,1,178.535,282h442.93A10.5,10.5,0,0,1,632,292.58L598.523,743.654A10.5,10.5,0,0,1,587.989,754Z"/><path class="cls-1" d="M685.931,329.82c2.379-15.424-.8-27.018-6.127-35.633,38.666,2.89,66.129-33.7,66.129-33.7-20.63-12.471-38.116-15.834-52.5-14.417C693.5,240,727,230.5,734.5,199.5c-64-2.5-107.824,18.261-105,77C632,328.5,685.931,329.82,685.931,329.82Z"/><path class="cls-1" d="M685.931,329.82c2.379-15.424-.8-27.018-6.127-35.633,38.666,2.89,66.129-33.7,66.129-33.7-20.63-12.471-38.116-15.834-52.5-14.417C693.5,240,727,230.5,734.5,199.5c-64-2.5-107.824,18.261-105,77C632,328.5,685.931,329.82,685.931,329.82Z"/><path class="cls-1" d="M680.5,183.5c-33.5-2.5-49.357,13.543-53,13,25.5-26.5,25.343-76.374,25.343-76.374C621.957,129.192,598.583,166.142,590,182.5,580.5,136,522.66,126.9,522.66,126.9S527.5,172,555,210.5c-30-19.5-62.5-13.5-74-8,0,0,63.818,63.061,85.8,59.718,3.222,6.869,59.4,4.181,96.2-14.218-10-16.5-19-18.5-19-18.5S681.5,207.5,680.5,183.5Z"/><path class="Yellow" d="M493.513,426.5a8.007,8.007,0,0,1-7.916-9.224c8.439-54.605,38.16-133.428,131.826-198.837a8,8,0,1,1,9.16,13.118C537.552,293.73,509.372,368.2,501.409,419.72A8,8,0,0,1,493.513,426.5Z"/><path class="Yellow" d="M494,426.5a8,8,0,0,1-6.8-12.2c29.246-47.4,114.482-152.118,177.25-154.543a8,8,0,0,1,.618,15.989c-52.612,2.032-134.227,98.3-164.25,146.956A8,8,0,0,1,494,426.5Z"/></g></svg>