<svg xmlns="http://www.w3.org/2000/svg" viewBox="0 0 800 1050"><defs><style>.Green{fill:#3f7f19;}.Yellow{fill:#f2f230;}</style></defs><title>smokeandspritz_1050</title><g id="d33a9f96-b4e0-4751-8d7d-dfc9aad5fad1" data-name="vectors"><path class="Green" d="M484.11,277s-36.45-109.67,30-142.9c33.23-13.94,209.06-43.58,224.07,94.72,13.16,121.24-23.59,119.74-36.45,122.95s-87.92-5.53-93.28-12S591.32,299,591.32,287.2s44-60.09,49.32-61.16-25.73-76.9-47.18-76.9-74,76.87-74,127.87C519.49,329,484.11,277,484.11,277Z"/><path class="Yellow" d="M578.9,142.34c28-14.66,52,2,69.34,26.67,13.88,19.76,54,104,14.5,181.59-24.36-2.5-51.14-7-54.27-10.78-5.36-6.44-17.15-40.83-17.15-52.62s44-60.09,49.32-61.16-25.73-76.9-47.18-76.9-74,76.87-74,127.87c0,19.5-5,24.37-11.2,22.85C497.93,297.32,512.43,175.58,578.9,142.34Z"/><path class="Yellow" d="M482.63,1030.67A42.35,42.35,0,0,1,454,1018.28L428.6,993a14.15,14.15,0,0,1-4.17-10V755.89s3.15-15.07,16.46-55.47a5,5,0,0,0-.65-4.49c-11.15-15.64-7-12.65-18.51-29.93a39.22,39.22,0,0,1,5-24c7-12,241-76,217-249-18.48-133.22-47-206-59.2-232.36A20,20,0,0,0,566.36,149H233.8a20,20,0,0,0-18.17,11.64C203.47,187,174.91,259.78,156.43,393c-24,173,210,237,217,249a39.22,39.22,0,0,1,5,24c-11.52,17.28-7.38,14.29-18.52,29.93a5.07,5.07,0,0,0-.79,4.49c13.31,40.4,16.31,55.47,16.31,55.47V983a14,14,0,0,1-4,10l-25.25,25.31a42.28,42.28,0,0,1-28.65,12.39c-75,2.24-127.49,7.44-127.49,13.5,0,3.89,105,5.83,210.05,5.83s210.05-1.94,210.05-5.83C610.12,1038.11,557.58,1032.91,482.63,1030.67Z"/></g></svg>