<svg xmlns="http://www.w3.org/2000/svg" viewBox="0 0 800 1220"><defs><style>.Green{fill:#3f7f19;}.Yellow{fill:#f2f230;}</style></defs><title>nederlandseoranje_1220</title><g id="6baefe64-0a43-4287-8217-4116141e8876" data-name="vectors"><circle class="Green" cx="549" cy="282" r="160"/><circle class="Yellow" cx="549" cy="282" r="140"/><path class="Green" d="M594.48,214.37c5.66-5.66,17-5.66,22.63,0s5.66,17,0,22.62c-9.19,9.19-25.83,10.92-31.77,11.24a2,2,0,0,1-2.1-2.1C583.57,240.2,585.3,223.55,594.48,214.37Zm-81.35,33.39a2,2,0,0,0,2.1-2.1c-.32-5.93-2.05-22.58-11.23-31.77-5.66-5.65-17-5.65-22.63,0s-5.66,17,0,22.62C490.55,245.71,507.2,247.44,513.13,247.76Zm71.74,68.48a2,2,0,0,0-2.1,2.1c.33,5.93,2.05,22.58,11.24,31.77,5.66,5.65,17,5.65,22.63,0s5.65-17,0-22.62C607.45,318.29,590.81,316.56,584.87,316.24Z"/><path class="Yellow" d="M482.54,1200.58a42.46,42.46,0,0,1-28.76-12.34l-25.19-25.3a13.94,13.94,0,0,1-4-10V856l6.11-20.26a69.32,69.32,0,0,1,19.8-29.4C472,787.46,521.79,741,562.34,681.66,611,610.49,551.41,337.3,540.61,290a9,9,0,0,0-8.79-7H268.17a9,9,0,0,0-8.77,7C248.59,337.3,189,610.49,237.69,681.66,278.25,741,328.07,787.48,349.61,806.35a69.47,69.47,0,0,1,19.8,29.35l6.16,20.3v297a14.09,14.09,0,0,1-4.09,10l-25.29,25.31a42.35,42.35,0,0,1-28.74,12.3C242.53,1202.83,190,1208,190,1214c0,4.09,102.52,6.1,210,6,102.4-.1,210-2.1,210-6C610,1208,557.46,1202.83,482.54,1200.58Z"/></g></svg>