<svg id="vectors" xmlns="http://www.w3.org/2000/svg" viewBox="0 0 800 846"><defs><style>.Yellow{fill:#f2f230;}.Green{fill:#3f7f19;}</style></defs><title>sweetmidnight_846</title><path class="Yellow" d="M492.64,179.82a12.33,12.33,0,0,0-17.08,2.9,12.31,12.31,0,0,0-15.11,5.93c-3.28-19.55-21.18-29.6-39.61-34.28a76.4,76.4,0,0,0,13.57-22.58s-13.76.76-25.24,4.83A82.8,82.8,0,0,0,408,120s-12.33,8.48-20,18.46a80.73,80.73,0,0,0-20.86-19.78A152.73,152.73,0,0,0,364.18,143c-10.95-5.52-27.66-7.77-42.7-5.31A148.56,148.56,0,0,0,338.57,161c-12.72,6.74-22.32,17.5-22.32,34.17,0,1.92.05,3.87.15,5.83L316,201a11.05,11.05,0,0,0-11.61-13.43l-.08-.23a10.93,10.93,0,0,0-19.19-1.7,10.9,10.9,0,0,0-17.47,2.29l-15.22,5.37a10.9,10.9,0,0,0-11.61,8.46,11.16,11.16,0,0,0-3.62.85,10.92,10.92,0,0,0-2.29,18.77,10.34,10.34,0,0,0-2,.63,10.92,10.92,0,0,0,5.77,20.86c-.22.2-.44.41-.64.63l-177.62.9a7.5,7.5,0,0,0,0,15h0l177.53-.9a10.92,10.92,0,0,0,12,2.66,10.79,10.79,0,0,0,.74,2.6A11,11,0,0,0,253,267a10.93,10.93,0,0,0,17.88,7.53,10.92,10.92,0,0,0,19.75,8.74,10.94,10.94,0,0,0,16.95,1.51,10.93,10.93,0,0,0,15.06-10.19,10.89,10.89,0,0,0-.49-16.21,7.53,7.53,0,0,0,1-.37h0l7.79,0c13.24,28.37,34.19,50.59,57.65,50.59,23.63,0,44.71-22.52,57.94-51.18l12.28-.06a12.19,12.19,0,0,0-.31,2.72,12.37,12.37,0,0,0,12.37,12.37,12.17,12.17,0,0,0,3.54-.52,12.37,12.37,0,0,0,16.68,17.88,12.37,12.37,0,0,0,17,9.11A12.38,12.38,0,0,0,528.31,295a12.37,12.37,0,0,0,8-11.56A12.22,12.22,0,0,0,535,277.9a12.1,12.1,0,0,0,1.21.06,12.35,12.35,0,0,0,10.61-18.71,12.33,12.33,0,0,0,5.94-2.39l77.6-.39c2.52,5.95,5.45,12.15,8.79,18.25,11.26,20.54,24.15,34.28,38.31,40.83A46.49,46.49,0,0,0,697.18,320a52.9,52.9,0,0,0,22-5.09A41.13,41.13,0,0,0,740.76,290c3.08-9.79,2.16-19.63-2.59-27.69-14.06-23.81-45.72-22.4-68.84-21.36-4.19.19-8.14.36-11.64.38l-17.2.09c-2.91-7.77-5-14.57-6.32-19.21a7.5,7.5,0,1,0-14.43,4.1c1.09,3.85,2.69,9.11,4.83,15.19l-68,.34a12.45,12.45,0,0,0-3.73-4.68,12.35,12.35,0,0,0,1.32-21.8,12.52,12.52,0,0,0-6.11-19.15,2.64,2.64,0,0,0,0-.28,12.38,12.38,0,0,0-19.23-10.3,12.36,12.36,0,0,0-19.41-5.24c-.3-.24-.61-.47-.93-.68ZM726.45,285.5A26.26,26.26,0,0,1,713,301.26c-10.39,4.74-19.94,5-29.19.68-11.19-5.18-21.77-16.76-31.45-34.43-2-3.69-3.89-7.43-5.59-11.12l11-.06c3.81,0,7.9-.2,12.24-.4,20.39-.91,45.78-2.05,55.25,14C727.81,274.29,728.24,279.81,726.45,285.5Z"/><path class="Green" d="M331,258c13.24,28.37,34.19,50.59,57.65,50.59,23.63,0,44.71-22.52,57.94-51.18,0,0,13.43-22.82,13.9-68.75.18-18.07-21.18-29.6-39.61-34.28-9.61-2.54-59.11-4.29-82.27,6.67-12.72,6.74-22.32,17.5-22.32,34.17,0,1.92.11,6.66.23,8.62C318.31,233.62,331,258,331,258Z"/><path class="Yellow" d="M472.48,198.08a10.5,10.5,0,1,0-17.28,8H455a10.5,10.5,0,0,0-4.38,20,10.47,10.47,0,0,0-1.76,12.62,10.5,10.5,0,1,0,14.78,3.69,10.48,10.48,0,0,0-1.26-18.38,10.49,10.49,0,0,0-.6-15.48H462A10.5,10.5,0,0,0,472.48,198.08Z"/><path class="Yellow" d="M326.42,247.3a10.45,10.45,0,0,0-2.91-15.13,10.48,10.48,0,0,0,.2-17,10.51,10.51,0,1,0-13,.38,10.49,10.49,0,0,0,1.2,17,10.47,10.47,0,0,0-.41,16.86,10.49,10.49,0,1,0,14.88-2.06Z"/><path class="Green" d="M263,204.58a8,8,0,0,1-7.59-5.47c-3.5-10.5-12.7-23.24-16.06-24.67a8,8,0,0,1,6.3-14.71c11,4.71,21.83,25,24.94,34.32A8,8,0,0,1,263,204.58Z"/><path class="Green" d="M499.47,194.08a8,8,0,0,1-8-7.62c-.64-13.31,9.13-36.22,26.47-43.29A8,8,0,1,1,524,158c-9.67,3.94-16.92,19.59-16.53,27.71a8,8,0,0,1-7.61,8.37Z"/><path class="Yellow" d="M597.37,252.83H202.63a9.39,9.39,0,0,0-9.39,9.49l26,341.2a58.47,58.47,0,0,0,58.29,54l98.16,0a27.2,27.2,0,0,1-.12,5.4V778.88a14.05,14.05,0,0,1-4.09,10l-25.28,25.32a42,42,0,0,1-28.75,12c-74.91,2.24-73.1,7.64-73.1,13.07,0,4.53,77.83,6.79,155.66,6.79s155.66-2.26,155.66-6.79c0-5.43,1.79-10.83-73.12-13.07A42.21,42.21,0,0,1,453.78,814l-25.26-25.2a13.84,13.84,0,0,1-4.09-9.88V663a27.83,27.83,0,0,1-.11-5.4l98.53-.27A58.47,58.47,0,0,0,581,603.23l25.76-340.91A9.39,9.39,0,0,0,597.37,252.83Z"/></svg>