<svg xmlns="http://www.w3.org/2000/svg" viewBox="0 0 800 982"><defs><style>.Yellow{fill:#f2f230;}.Green{fill:#3f7f19;}</style></defs><title>theariane_982</title><g id="ab9034b0-4df4-45ac-81ad-df528d7f0dc8" data-name="vectors"><path class="Yellow" d="M718.53,218.25H81.09a6,6,0,0,0-6,6.24C76.2,251.57,87.81,360,202,381.75c51,12,61,66,64,109s55.17,68,70.17,84S356,601.52,356,601.52h-.54l19.81,313.31a14.35,14.35,0,0,1-4.21,10L345.72,950.3a42.81,42.81,0,0,1-28.78,12.58C242,965.12,209,968.75,209,976.75c0,3.5,95.47,5.25,190.82,5.25s190.82-1.75,190.82-5.25c0-8-33-11.63-107.92-13.87A42.72,42.72,0,0,1,454,950.3l-25.3-25.41a14.26,14.26,0,0,1-4.12-10l20-313.31H444s4.64-10.77,19.64-26.77,67-41,70-84,13-97,64-109C711.81,360,723.42,251.57,724.52,224.49A6,6,0,0,0,718.53,218.25Z"/></g><g id="163d008b-64ba-4d51-aece-e7492c7392d6" data-name="guides"><path class="Green" d="M643.55,144.89a42,42,0,0,0-2.06-13.64c-5.14,1.82-10.24,5.34-14.8,9.47a44.9,44.9,0,0,0-4.48-16.22,42.55,42.55,0,0,0-11,9.06c-4.79-5.68-10.58-10.86-16.61-13.56-5.64,12.63-3.22,32.64.27,41.78.26.68.55,1.35.86,2-.56,7.5,2.14,14.64,9.5,16.87a12.5,12.5,0,0,0,6.7.23,12.78,12.78,0,0,0,4.32,3.32c7.47,3.57,14.79-.69,19.42-7.43a28.78,28.78,0,0,0,6-1.56c9.13-3.5,25.65-15.05,31.29-27.68C664.58,143.83,653.05,143.61,643.55,144.89Z"/><path class="Yellow" d="M610.69,146.37h0a30.7,30.7,0,0,0,31.8,11.89l1.28-.3c34.81,12.19,44.62,56.75,18.15,82.43l-43.3,33.11a41.5,41.5,0,0,1-60.37-21.15l-13.17-52.88C540.42,162.88,575.89,134.18,610.69,146.37Z"/></g></svg>