<svg xmlns="http://www.w3.org/2000/svg" viewBox="0 0 800 993"><defs><style>.Green{fill:#3f7f19;}.Yellow{fill:#f2f230;}</style></defs><title>theamsterdam_993</title><g id="88eda581-e7bd-4e9f-b7eb-cfe230c58167" data-name="vectors"><path class="Green" d="M541.3,262.121s-21.453-113.557,48.868-137.6c34.8-9.366,213.014-15.215,209.386,123.854-3.181,121.907-39.394,115.5-52.574,116.966S660.594,348.1,656.142,341s-11.537-42.755-9.96-54.442,51.6-53.661,57.056-54.007S688.027,152.9,666.777,150.03s-83.6,66.283-90.418,116.825C569.4,318.387,541.3,262.121,541.3,262.121Z"/><path class="Yellow" d="M482.705,973.912a42.565,42.565,0,0,1-28.759-12.471l-25.3-25.352a14.205,14.205,0,0,1-4.123-10.03V572.766s-3.161-18.935,16.541-43.62l-.66-.019L724.5,208.558a9.05,9.05,0,0,0-6.718-15.084L82.27,193.049a9.051,9.051,0,0,0-6.79,15.065L358.188,527.542h-.065c20.974,25.342,17.531,45.224,17.531,45.224V926.059a14.047,14.047,0,0,1-4.049,9.99l-25.269,25.313a42.6,42.6,0,0,1-28.737,12.55c-74.916,2.242-107.907,6.417-107.907,13.658,0,3.618,95.127,5.428,190.308,5.43,95.289,0,190.633-1.808,190.633-5.43C590.633,980.329,557.621,976.154,482.705,973.912Z"/><path class="Yellow" d="M653.255,141.347c29.711-10.789,51.265,8.939,65.143,35.7,11.119,21.445,39.6,110.29-9.921,181.9-23.8-5.732-49.741-13.81-52.335-17.942-4.452-7.092-11.537-42.755-9.96-54.442s51.6-53.661,57.056-54.007S688.027,152.9,666.777,150.03s-83.6,66.283-90.418,116.825c-2.609,19.324-8.192,23.49-14.151,21.148C552.275,284.1,582.935,165.391,653.255,141.347Z"/></g></svg>