<svg xmlns="http://www.w3.org/2000/svg" viewBox="0 0 800 1270"><defs><style>.cls-1{fill:#3f7f19;}.cls-2{fill:#f2f230;}</style></defs><title>cocktail-glasses</title><g id="vectors"><circle class="cls-1" cx="640" cy="279.99" r="160"/><circle class="cls-2" cx="640" cy="279.99" r="140"/><path class="cls-1" d="M572.37,234.51c-5.66-5.65-5.66-17,0-22.62s17-5.66,22.62,0c9.19,9.18,10.92,25.83,11.24,31.76a2,2,0,0,1-2.1,2.1C598.2,245.43,581.55,243.7,572.37,234.51Zm103.5,79.72a2,2,0,0,0-2.1,2.1c.32,5.94,2.05,22.58,11.24,31.77,5.65,5.65,17,5.65,22.62,0s5.66-17,0-22.63C698.45,316.28,681.8,314.56,675.87,314.23Zm-1.63-70.11a2,2,0,0,0,2.1,2.1c5.93-.32,22.58-2.05,31.77-11.24,5.65-5.65,5.65-17,0-22.62s-17-5.66-22.62,0C676.29,221.54,674.56,238.19,674.24,244.12Z"/><path class="cls-2" d="M595.17,670.24c-56.76-143.51-9.27-294.14,8.66-344.19A12,12,0,0,0,592.53,310H207.47a12,12,0,0,0-11.3,16.06c17.94,50.05,65.42,200.68,8.67,344.19-66.4,167.9-72.39,370.39,171.16,382.59v150.29a14.3,14.3,0,0,1-4.3,10l-25.4,25.31c-7.64,7.64-18,11.53-28.8,11.86-74.92,2.24-73.16,8-73.16,13,0,4.35,72.59,6.6,147.66,6.75,80.4.16,163.66-2.09,163.66-6.75,0-5,1.8-10.72-73.12-13a42.25,42.25,0,0,1-28.76-12.13L428.31,1213a14,14,0,0,1-4.31-9.85V1052.83C667.55,1040.63,661.56,838.14,595.17,670.24Z"/></g></svg>