<?xml version="1.0" encoding="utf-8"?>
<!-- Generator: Adobe Illustrator 22.1.0, SVG Export Plug-In . SVG Version: 6.00 Build 0)  -->
<svg version="1.1" xmlns="http://www.w3.org/2000/svg" xmlns:xlink="http://www.w3.org/1999/xlink" x="0px" y="0px" width="800px"
	 height="752px" viewBox="0 0 800 752" style="enable-background:new 0 0 800 752;" xml:space="preserve">
<style type="text/css">
	.yellow{fill:#F2F230;}
	.green{fill:#3F7F19;}
	.st0{fill:#1A1A1A;}
	.st1{fill:#FFFFFF;}
	.st2{opacity:0.21;fill:#DE0E00;}
	.st3{fill:#3F7F19;}
	.st4{fill:#F2F230;}
	.st5{fill:none;stroke:#F2F230;stroke-width:16;stroke-linecap:round;stroke-miterlimit:10;}
	.st6{fill:none;stroke:#F2F230;stroke-width:22;stroke-linecap:round;stroke-miterlimit:10;}
	.st7{fill:none;stroke:#3F7F19;stroke-width:26;stroke-linecap:round;stroke-miterlimit:10;}
	.st8{fill:none;stroke:#3F7F19;stroke-width:16;stroke-linecap:round;stroke-miterlimit:10;}
	.st9{fill:none;stroke:#F2F230;stroke-width:20;stroke-linecap:round;stroke-miterlimit:10;}
	.st10{opacity:0.2;}
	.st11{fill:none;}
</style>
<g id="directions">
</g>
<g id="vectors">
	<g>
		<circle class="green" cx="640" cy="280.635" r="160"/>
		<circle class="yellow" cx="640" cy="280.635" r="140"/>
		<g>
			<g>
				<path class="green" d="M604.132,246.395c1.189,0.065,2.165-0.91,2.099-2.1c-0.325-5.935-2.052-22.58-11.238-31.766
					c-5.657-5.657-16.968-5.655-22.625,0.002c-5.657,5.657-5.659,16.968-0.002,22.625
					C581.552,244.342,598.197,246.07,604.132,246.395z"/>
				<path class="green" d="M675.868,314.874c-1.189-0.065-2.165,0.91-2.099,2.1c0.325,5.935,2.052,22.58,11.238,31.766
					c5.657,5.657,16.968,5.655,22.625-0.002s5.659-16.968,0.002-22.625C698.448,316.927,681.803,315.199,675.868,314.874z"/>
			</g>
			<g>
				<path class="green" d="M604.132,246.395c1.189,0.065,2.165-0.91,2.099-2.1c-0.325-5.935-2.052-22.58-11.238-31.766
					c-5.657-5.657-16.968-5.655-22.625,0.002c-5.657,5.657-5.659,16.968-0.002,22.625
					C581.552,244.342,598.197,246.07,604.132,246.395z"/>
				<path class="green" d="M675.868,314.874c-1.189-0.065-2.165,0.91-2.099,2.1c0.325,5.935,2.052,22.58,11.238,31.766
					c5.657,5.657,16.968,5.655,22.625-0.002s5.659-16.968,0.002-22.625C698.448,316.927,681.803,315.199,675.868,314.874z"/>
			</g>
		</g>
		<g>
			<g>
				<path class="green" d="M674.24,244.766c-0.065,1.189,0.91,2.165,2.099,2.1c5.935-0.325,22.58-2.052,31.766-11.238
					c5.657-5.657,5.655-16.968-0.002-22.625c-5.657-5.657-16.968-5.659-22.625-0.002
					C676.292,222.186,674.565,238.831,674.24,244.766z"/>
			</g>
			<g>
				<path class="green" d="M674.24,244.766c-0.065,1.189,0.91,2.165,2.099,2.1c5.935-0.325,22.58-2.052,31.766-11.238
					c5.657-5.657,5.655-16.968-0.002-22.625c-5.657-5.657-16.968-5.659-22.625-0.002
					C676.292,222.186,674.565,238.831,674.24,244.766z"/>
			</g>
		</g>
	</g>
	<path class="yellow" d="M587.989,752H212.011c-5.772,0-10.47-4.614-10.534-10.346L168.001,290.58
		c-0.065-5.824,4.67-10.58,10.534-10.58h442.93c5.864,0,10.6,4.756,10.534,10.58l-33.477,451.074
		C598.458,747.386,593.761,752,587.989,752z"/>
</g>
<g id="masks">
</g>
<g id="guides">
</g>
</svg>
