<svg xmlns="http://www.w3.org/2000/svg" viewBox="0 0 800 1038"><defs><style>.Green{fill:#3f7f19;}.Yellow{fill:#f2f230;}</style></defs><title>theflamingpeach_1038</title><g id="56093334-3d74-4103-bda9-efd6644bf98b" data-name="vectors"><path class="Green" d="M520,506.35l-14.84-11.16c3.22-9.15,23.43-72,26.38-80.89,1.16-8.08,2.66-17.16,4.58-26.75-10-25.08-26.75-75-21.87-118,0,0,20.29,43.8,30.15,100,.85-1.55,4.51-21.47,6.45-27-7.53-19.69-24.57-52.89-26.7-90.27,0,0,18.47,26.94,28.59,82.58.19-.49,2.17-5.62,2.37-6.1-6-28.71-17.72-83.34-7.62-99.22,0,0,7.59,33.19,11.37,64.78a6.82,6.82,0,0,1,.64-.39c1-30,5.21-64.56,17.28-89.78,0,0,6.23,48.17-2.85,103.85,10.73-15.18,21.58-27.65,29.54-30,0,0-14.28,33.94-41.57,59q-.67,3.63-1.49,7.5c9.37-12,27.88-22.47,44.52-33.09,0,0-15.63,23.33-50.53,62.57-5,18.31-27.75,94.55-36,118.29,2.09-3.66,29.6-60,31.75-63.68,23.47-40.34,43.94-77,67.22-107.21-3.06-29-8.81-98.12,9.71-141.1,0,0,4.42,26,4,62.13,3.12-12.52,7-22.55,11.7-26.66,0,0-.84,52.58-8.91,87.42,1.24-1.5,5.71-5.85,7-7.31,9.62-11.3,17-19.14,26.51-28.54-1.5-15.53-7-63.82,2.68-89.54,0,0,8.1,54.23,2,80q6.18-5.82,12.31-11.11c1.75-30.76,6.22-80.48,17-92.35,0,0-.41,48.3-6.62,83.75.28-.23.56-.46.85-.68,1.33-3.84,3.48-2.89,4.32-12.21,2.42-26.85,10.12-68.39,21.9-78.82,0,0-.82,13.56-3,30.94,11.77-26.87,24.9-50.86,36.23-56.89,0,0-9,30.8-21.87,64.33,14.73-21.26,34.92-44.94,56.24-53.6,0,0-16.16,34.17-44.77,64.11,15.49-11.75,33-22.21,49.46-25.76a268.13,268.13,0,0,1-29.93,29.32c12.07-5.35,24.41-9.23,35.83-10,0,0-51.59,42.61-87.66,49.16-5.76,2.82-23.86,22.48-27.06,25,23.57-11.06,60.64-21.93,86.28-19.52,0,0-48.93,29.16-102.16,35.19-10.7,10.89-21.76,21.9-33.6,36.55,28.76-20.3,73.79-37.73,104.58-37.3,0,0-60.36,39.53-114.91,50.39-9.18,11.87-16.86,22.31-26.65,36.68,15.78-11.41,50.45-28.81,83.36-28.35,0,0-8.79,8.4-25.07,17.51,18.24-3.47,37-4.92,51.9-1.39,0,0-59.89,25.18-115.61,22.24-10.35,15.52-19.34,33.47-30.31,52.05a155.38,155.38,0,0,1,72-37.32s-22.33,23-80.2,51.46C551.43,447.19,523.29,500.46,520,506.35Z"/><path class="Yellow" d="M473.79,603.71a6.92,6.92,0,0,0,2.61-2.94c.25-.53,26-54.78,88.7-174.17C627.19,308.41,702.73,246.82,735,220.52l2.64-2.16a7,7,0,0,0-8.86-10.84l-2.63,2.15c-32.91,26.84-110,89.69-173.42,210.42Q537,450,524.27,474.61c25.41-77.36,45.14-152.57,45.44-153.75a7,7,0,0,0-13.58-3.44c-.48,1.91-51.64,197-95,280.35a7,7,0,0,0,2.09,8.89,8.84,8.84,0,0,0,.89.55,7,7,0,0,0,9.44-3Z"/><path class="Yellow" d="M597.37,444.83H202.63a9.39,9.39,0,0,0-9.39,9.49l26,341.2a58.47,58.47,0,0,0,58.29,54l98.16,0a27.2,27.2,0,0,1-.12,5.4V970.88a14.05,14.05,0,0,1-4.09,10l-25.28,25.32a42,42,0,0,1-28.75,12c-74.91,2.24-73.1,7.64-73.1,13.07,0,4.53,77.83,6.79,155.66,6.79s155.66-2.26,155.66-6.79c0-5.43,1.79-10.83-73.12-13.07A42.21,42.21,0,0,1,453.78,1006l-25.26-25.2a13.84,13.84,0,0,1-4.09-9.88V855a27.83,27.83,0,0,1-.11-5.4l98.53-.27A58.47,58.47,0,0,0,581,795.23l25.76-340.91A9.39,9.39,0,0,0,597.37,444.83Z"/></g></svg>