<?xml version="1.0" encoding="utf-8"?>
<!-- Generator: Adobe Illustrator 22.1.0, SVG Export Plug-In . SVG Version: 6.00 Build 0)  -->
<svg version="1.1" xmlns="http://www.w3.org/2000/svg" xmlns:xlink="http://www.w3.org/1999/xlink" x="0px" y="0px" width="800px"
	 height="1302px" viewBox="0 0 800 1302" style="enable-background:new 0 0 800 1302;" xml:space="preserve">
<style type="text/css">
	.yellow{fill:#F2F230;}
	.green{fill:#3F7F19;}
	.st0{fill:#1A1A1A;}
	.st1{fill:#FFFFFF;}
	.st2{opacity:0.21;fill:#DE0E00;}
	.st3{fill:#3F7F19;}
	.st4{fill:#F2F230;}
	.st5{fill:none;stroke:#F2F230;stroke-width:16;stroke-linecap:round;stroke-miterlimit:10;}
	.st6{fill:none;stroke:#F2F230;stroke-width:22;stroke-linecap:round;stroke-miterlimit:10;}
	.st7{fill:none;stroke:#3F7F19;stroke-width:26;stroke-linecap:round;stroke-miterlimit:10;}
	.st8{fill:none;stroke:#3F7F19;stroke-width:16;stroke-linecap:round;stroke-miterlimit:10;}
	.st9{fill:none;stroke:#F2F230;stroke-width:20;stroke-linecap:round;stroke-miterlimit:10;}
	.st10{opacity:0.2;}
	.st11{fill:none;}
</style>
<g id="directions">
</g>
<g id="vectors">
	<g>
		<g>
			<path class="yellow" d="M563.223,120.509C617.979,111.383,702,226.905,702,305.545s-4.626,157.28-87.892,171.158
				s-166.532-13.878-166.532-124.899s37.007-101.77,60.137-148.028C530.842,157.516,507.713,129.761,563.223,120.509z"/>
			<path class="yellow" d="M569.511,140c8.407,0,19.628,5.051,31.596,14.223c13.125,10.058,26.561,24.501,38.853,41.766
				C665.892,232.41,682,274.389,682,305.545c0,36.397-0.886,74.325-11.476,102.919c-10.527,28.423-28.94,43.384-59.704,48.511
				c-12.044,2.007-23.836,3.025-35.048,3.025c-22.367,0-53.842-4.168-76.769-24.023c-20.854-18.06-31.427-46.38-31.427-84.173
				c0-32.046,3.209-55.612,9.812-72.045c5.399-13.439,12.415-20.948,21.297-30.455c8.696-9.307,18.551-19.856,26.916-36.585
				c9.224-18.448,12.165-34.657,14.312-46.493c1.519-8.375,2.72-14.99,5.187-18.034c2.689-3.318,10.093-6.069,21.411-7.956
				c0.943-0.157,1.951-0.237,2.998-0.237H569.511 M569.504,120c-2.128,0-4.229,0.167-6.281,0.509
				c-55.511,9.252-32.381,37.007-55.511,83.266c-23.129,46.259-60.137,37.007-60.137,148.028
				c0,93.85,59.492,128.196,128.196,128.196c12.57,0,25.457-1.151,38.336-3.297C697.374,462.825,702,384.185,702,305.545
				C702,229.852,624.166,119.99,569.504,120L569.504,120z"/>
		</g>
		<g>
			<path class="yellow" d="M563.223,120.509C617.979,111.383,702,226.905,702,305.545s-4.626,157.28-87.892,171.158
				s-166.532-13.878-166.532-124.899s37.007-101.77,60.137-148.028C530.842,157.516,507.713,129.761,563.223,120.509z"/>
			<path class="green" d="M569.511,140c8.407,0,19.628,5.051,31.596,14.223c13.125,10.058,26.561,24.501,38.853,41.766
				C665.892,232.41,682,274.389,682,305.545c0,36.397-0.886,74.325-11.476,102.919c-10.527,28.423-28.94,43.384-59.704,48.511
				c-12.044,2.007-23.836,3.025-35.048,3.025c-22.367,0-53.842-4.168-76.769-24.023c-20.854-18.06-31.427-46.38-31.427-84.173
				c0-32.046,3.209-55.612,9.812-72.045c5.399-13.439,12.415-20.948,21.297-30.455c8.696-9.307,18.551-19.856,26.916-36.585
				c9.224-18.448,12.165-34.657,14.312-46.493c1.519-8.375,2.72-14.99,5.187-18.034c2.689-3.318,10.093-6.069,21.411-7.956
				c0.943-0.157,1.951-0.237,2.998-0.237H569.511 M569.504,120c-2.128,0-4.229,0.167-6.281,0.509
				c-55.511,9.252-32.381,37.007-55.511,83.266c-23.129,46.259-60.137,37.007-60.137,148.028
				c0,93.85,59.492,128.196,128.196,128.196c12.57,0,25.457-1.151,38.336-3.297C697.374,462.825,702,384.185,702,305.545
				C702,229.852,624.166,119.99,569.504,120L569.504,120z"/>
		</g>
	</g>
	<path class="yellow" d="M194.76,312c-5.39,0-9.76,4.368-9.76,9.756l25.375,970.488c0,5.388,4.37,9.756,9.76,9.756h359.731
		c5.39,0,9.76-4.368,9.76-9.756L615,321.756c0-5.388-4.37-9.756-9.76-9.756H194.76z"/>
</g>
<g id="masks">
</g>
<g id="guides">
</g>
</svg>
