<?xml version="1.0" encoding="utf-8"?>
<!-- Generator: Adobe Illustrator 22.0.1, SVG Export Plug-In . SVG Version: 6.00 Build 0)  -->
<svg version="1.1" id="Layer_1" xmlns="http://www.w3.org/2000/svg" xmlns:xlink="http://www.w3.org/1999/xlink" x="0px" y="0px"
	 viewBox="0 0 800 1040" style="enable-background:new 0 0 800 1040;" xml:space="preserve">
<style type="text/css">
	.st0{fill:#3F7F19;}
	.st1{fill:#F2F230;}
</style>
<title>theherbyoldorleans</title>
<g id="d60790b3-4d13-4566-a6b9-0e8fd070fb4b">
	<path class="st0" d="M662.3,284.2c-3.3-26.7-24-71.3-30-89.3c-3.9,12.6,4.3,67.3,9.8,83.8c-7-19-32.4-64.3-37-71.4
		c-1.4,29.3,12.1,68.7,29.6,92.9c10.6,14.7,21.5,13.1,24,3C661.7,299.4,663.4,292.9,662.3,284.2z"/>
	<path class="st0" d="M790.2,297.2c-29.9,17.5-78.6,24.9-113.5,19.8c-30.1-4.4-31.9-15.9-3.1-18.9
		C705.2,294.9,767.9,295.1,790.2,297.2z"/>
	<path class="st0" d="M708.7,395c-29,11.6-82,19.3-112.5,10.2c-26.3-7.8-17.8-24.2,8.3-23.1C633.1,383.4,689,390.2,708.7,395z"/>
	<path class="st0" d="M659.9,430.6c-23.6,15.8-69.2,32.6-98.1,30.2c-24.9-2-20.4-18.1,3-22.1C590.5,434.5,641.5,430,659.9,430.6z"/>
	<path class="st0" d="M573,221.7c1,34.7,20.4,79.9,43.1,106.9c19.6,23.3,30.3,18.7,17.7-7.4C619.9,292.7,586.6,239.5,573,221.7z"/>
	<path class="st0" d="M526.2,418c-9.7-17.1-34.5-48.2-45-58.4c-0.7,6.1,10.5,34.3,16.8,44.7c-5-5.9-28.3-33.7-32.7-35
		c1.3,21.3,20.1,49.1,38,64.3C516,444.5,533.3,430.6,526.2,418z"/>
	<path class="st0" d="M598.3,289.6c-3.7,3.7-25.4,40.7-31.1,47.8c7.2-12.5-1.8-64.8-3.8-86.5c-12.3,15-30.1,75.5-29.1,90
		c-2-8.9-5.6-62.7-7.3-67.7c-14.9,21.9-16.3,57.7-5.9,83.4c7,17.3,16.3,21.9,19.8,13.1c0.4-0.2,0.8-0.4,1.2-0.6
		c0.4,0.5,0.8,1,1.2,1.4c-0.4,8.9,9.9,8.7,23.6-3.5C587.4,348.6,602,315.9,598.3,289.6z"/>
	<path class="st0" d="M746,343c-21.4-6.8-62.7-15.5-94.3-19c-15.6-1.7-22.9,0.9-21.9,5.3c-10.1,0-7.3,9.4,10.7,22.4
		c28.6,20.7,57.3,26.7,91.9,25.2c-10.9-7.1-46.8-21.5-65.1-30.6C687.1,348,725.1,349.8,746,343z"/>
	<path class="st0" d="M734.1,258.7c21.5-15.5,40.9-45.1,47.6-55.9c-0.6-3.2-37.3,22.3-52.6,39.9c16.1-22.5,37.7-64.5,37.7-64.5
		c-10.1,7.1-40.7,32-49.2,54c6.4-23.7,13.1-69.5,13.1-69.5c-7.9,10.9-29,54.9-33.6,76c2-27.8-7.3-78-7.3-78
		c-8,23.7-19.6,64.6-16,109.7c0.9,11.3,10.6,23.1,33.3,20.4c43.1-5.1,73.8-41.7,92.9-57.6C800,233.2,762.2,242.8,734.1,258.7z"/>
	<path class="st1" d="M455.8,643.7c1.1-0.7,2-1.7,2.6-2.9c0.2-0.5,26-54.8,88.7-174.2C609.2,348.4,684.8,286.8,717,260.5l2.6-2.2
		c3-2.4,3.4-6.9,1-9.9c-2.4-3-6.9-3.4-9.8-1l-2.6,2.1c-32.9,26.8-110,89.7-173.4,210.4c-10.5,19.9-20,38.1-28.4,54.5
		c25.4-77.4,45.1-152.6,45.4-153.8c0.9-3.8-1.3-7.6-5.1-8.5s-7.6,1.3-8.5,5.1c-0.5,1.9-51.6,197-95,280.4c-1.6,3.1-0.7,6.9,2.1,8.9
		c0.3,0.2,0.6,0.4,0.9,0.5c3.4,1.8,7.7,0.4,9.4-3c0,0,0,0,0,0L455.8,643.7z"/>
	<path class="st0" d="M435,533.9c-2.4-2.7-10.8-13.2-10.8-27.9c0-17.2,11.5-34.4,11.5-34.4s9.3,14,11.1,29.4c1.6-2.1,3.3-4.1,5.1-6
		c17-17,45.3-22.6,45.3-22.6s-5.7,28.3-22.6,45.3c-15.2,15.2-34.9,16.8-38.9,17h-0.1h0H435C435,534.6,435,534.3,435,533.9z"/>
	<path class="st0" d="M329,361.5c11.9,0.1,23.6-3.5,33.3-10.4c16.3-11.5,26.4-31.7,26.4-31.7c-7.9,1.2-15.7,3.2-23.2,6.1
		c11.2-18.8,12.9-42.9,12.9-42.9s-22.1,12.5-34,31.5c-6.7,10.7-10.1,23.2-9.8,35.8C332.3,353.5,330.4,357.4,329,361.5z"/>
	<path class="st0" d="M322.7,522.3c0,0,25.4-0.5,44.9-11.5c8.5-4.8,15.8-11.5,21.4-19.6c3.3-0.9,6.5-2.1,9.5-3.6
		c-1.5-1.6-3.1-3.1-4.8-4.4c0.4-0.8,0.5-1.2,0.5-1.2s-0.9-0.1-2.4-0.3c-7.2-5.3-15.4-8.8-24.2-10.4c-19.6-3.4-41.1,3.7-41.1,3.7
		s12.8,10,28.7,15.2C336,501.3,322.7,522.3,322.7,522.3z"/>
	<path class="st0" d="M405.2,607.8c0,0,25.4-0.6,44.9-11.5c8.5-4.9,15.8-11.6,21.4-19.6c3.3-0.9,6.4-2.1,9.5-3.6
		c-1.3-1.9-2.8-3.7-4.4-5.4l0.1-0.2h-0.3c-4.9-5.2-13.5-12.3-25.6-14.4c-19.6-3.4-42.7,0.7-54.7,22c29.1-4.3,31.2-2,41.3,0.8
		C418.4,587,405.2,607.8,405.2,607.8z"/>
	<path class="st0" d="M370.9,471.6c3.4-2.7,6.4-5.9,9-9.3c8.7-1.4,16.9-4.7,24.1-9.7c16.2-11.5,18.4-20.5,42.4-28.5
		c-15.1-15.1-37.4-8.8-53.3,5.4c2.2-19-2.4-37.4-2.4-37.4s-17,18.8-22.4,40.5C365,445.5,366,459.1,370.9,471.6z"/>
	<path class="st0" d="M236.5,398.7c32.6-9.8,37.5,4.8,59.5,0.8s21.1-15.8,21.1-15.8s-0.3-0.1-0.8-0.4l2.1,0.3
		c-5.7-10.4-14.6-18.8-25.3-24c-18-8.6-40.5-7.6-40.5-7.6s3.3,21.7,27.8,26.3c-0.7,0.1-1.4,0.2-2.1,0.3
		C256.3,382.8,251.8,384.5,236.5,398.7z"/>
	<path class="st0" d="M348.6,193.8c-14.2,22.2-28.3,5.7-45.2,22.6s-17,39.6-17,39.6c14.6-1.8,28.3-7.7,39.6-17
		C334.4,232,342.4,216,348.6,193.8z"/>
	<path class="st0" d="M224,202.9c0,0,9.6,27.2,28.8,41.6c19.2,14.4,41.6,11.2,41.6,11.2c-1.8-9.7-6-18.8-12-26.5
		c0.7,0.3,1.1,0.5,1.1,0.5c1-2.8,1.5-5.8,1.7-8.8c3.8-2.9,6.7-6.8,8.4-11.3c3.9-10.2,1-23,1-23s-9.2,6.5-13.6,15.6
		c-6.2-10.8-17.9-18.2-17.9-18.2s-2.7,16.2,2.9,28.6c0.5,1.1,1.1,2.3,1.8,3.3C248.8,204.3,224,202.9,224,202.9z"/>
	<path class="st1" d="M576.3,768.9c-18.4-110.7-118.8-209.3-192.1-281.4l-8-7.9c-37.8-37.2-65.7-87.2-82.9-148.7
		c-13.9-49.7-17-93.4-18.5-114.5c-0.3-4.4,3-8.3,7.4-8.6c4.4-0.3,8.3,3,8.6,7.4c1.5,20.5,4.5,63.1,18,111.3
		c16.4,58.7,42.9,106.3,78.7,141.6l8,7.9c74.9,73.6,177.4,174.3,196.7,290.1c0.7,4.4-2.2,8.5-6.6,9.2c-0.4,0.1-0.9,0.1-1.3,0.1
		C580.3,775.7,577,772.8,576.3,768.9z"/>
	<path class="st1" d="M588,1040H212c-5.8,0-10.5-4.6-10.5-10.3L168,578.6c0-5.8,4.6-10.5,10.4-10.6c0,0,0.1,0,0.1,0h442.9
		c5.8,0,10.5,4.7,10.5,10.5c0,0,0,0.1,0,0.1l-33.5,451.1C598.4,1035.4,593.8,1040,588,1040z"/>
</g>
</svg>
