<svg xmlns="http://www.w3.org/2000/svg" viewBox="0 0 800 1283"><defs><style>.Yellow{fill:#f2f230;}.abd9af68-1719-4b4c-8682-8b51957d4e86{fill:#3f7f19;}</style></defs><title>thehans_1283</title><g id="b6f84dc4-0129-48b9-8421-8ca32365a6de" data-name="vectors"><path class="Yellow" d="M194.76,293a9.76,9.76,0,0,0-9.76,9.76l25.38,970.48a9.75,9.75,0,0,0,9.75,9.76H579.87a9.75,9.75,0,0,0,9.75-9.76L615,302.76a9.76,9.76,0,0,0-9.76-9.76Z"/><path class="abd9af68-1719-4b4c-8682-8b51957d4e86" d="M695.93,329.82c2.38-15.42-.8-27-6.13-35.63,38.67,2.89,66.13-33.7,66.13-33.7-20.63-12.47-38.12-15.83-52.5-14.42C703.5,240,737,230.5,744.5,199.5c-64-2.5-107.82,18.26-105,77C642,328.5,695.93,329.82,695.93,329.82Z"/><path class="abd9af68-1719-4b4c-8682-8b51957d4e86" d="M695.93,329.82c2.38-15.42-.8-27-6.13-35.63,38.67,2.89,66.13-33.7,66.13-33.7-20.63-12.47-38.12-15.83-52.5-14.42C703.5,240,737,230.5,744.5,199.5c-64-2.5-107.82,18.26-105,77C642,328.5,695.93,329.82,695.93,329.82Z"/><path class="abd9af68-1719-4b4c-8682-8b51957d4e86" d="M690.5,183.5c-33.5-2.5-49.36,13.54-53,13,25.5-26.5,25.34-76.37,25.34-76.37-30.89,9.06-54.26,46-62.84,62.37-9.5-46.5-67.34-55.59-67.34-55.59S537.5,172,565,210.5c-30-19.5-62.5-13.5-74-8,0,0,63.82,63.06,85.8,59.72C580,269.09,636.2,266.4,673,248c-10-16.5-19-18.5-19-18.5S691.5,207.5,690.5,183.5Z"/><path class="Yellow" d="M674.44,259.76c-50.22,1.94-114.81,69.35-153.61,120.5,15-46.22,47.54-101.07,115.75-148.7a8,8,0,0,0-9.16-13.12C533.75,283.85,504,362.67,495.59,417.28a8,8,0,0,0,6.69,9.13,8.48,8.48,0,0,0,1.23.09H504a8,8,0,0,0,6.82-3.8c30-48.66,111.64-144.92,164.25-147a8,8,0,1,0-.62-16Z"/></g></svg>