<?xml version="1.0" encoding="utf-8"?>
<!-- Generator: Adobe Illustrator 22.1.0, SVG Export Plug-In . SVG Version: 6.00 Build 0)  -->
<svg version="1.1" xmlns="http://www.w3.org/2000/svg" xmlns:xlink="http://www.w3.org/1999/xlink" x="0px" y="0px" width="800px"
	 height="872px" viewBox="0 0 800 872" style="enable-background:new 0 0 800 872;" xml:space="preserve">
<style type="text/css">
	.yellow{fill:#F2F230;}
	.green{fill:#3F7F19;}
	.st0{fill:#1A1A1A;}
	.st1{fill:#FFFFFF;}
	.st2{opacity:0.21;fill:#DE0E00;}
	.st3{fill:#3F7F19;}
	.st4{fill:#F2F230;}
	.st5{fill:none;stroke:#F2F230;stroke-width:16;stroke-linecap:round;stroke-miterlimit:10;}
	.st6{fill:none;stroke:#F2F230;stroke-width:22;stroke-linecap:round;stroke-miterlimit:10;}
	.st7{fill:none;stroke:#3F7F19;stroke-width:26;stroke-linecap:round;stroke-miterlimit:10;}
	.st8{fill:none;stroke:#3F7F19;stroke-width:16;stroke-linecap:round;stroke-miterlimit:10;}
	.st9{fill:none;stroke:#F2F230;stroke-width:20;stroke-linecap:round;stroke-miterlimit:10;}
	.st10{opacity:0.2;}
	.st11{fill:none;}
</style>
<g id="directions">
</g>
<g id="vectors">
	<path class="yellow" d="M506.603,195.927c-2.002-1.397-4.431-2.225-7.058-2.225c-4.124,0-7.766,2.026-10.014,5.127
		c-1.3-0.464-2.694-0.73-4.153-0.73c-4.769,0-8.9,2.702-10.966,6.655c-3.273-19.55-34.455-13.385-52.888-18.061
		c5.13-5.708-78.719-20.075-68.988-9.546c-12.721,6.742-22.319,17.5-22.319,34.172c0,1.923,0.055,3.87,0.152,5.833
		c-0.125-0.023-0.247-0.06-0.373-0.079c0.483-2.182,0.323-4.528-0.621-6.74c-1.907-4.465-6.398-7.023-10.984-6.697
		c-0.03-0.075-0.052-0.152-0.084-0.228c-2.37-5.55-8.791-8.128-14.341-5.758c-2.06,0.879-3.707,2.318-4.847,4.062
		c-3.055-3.202-7.882-4.355-12.192-2.515c-2.341,1-4.146,2.724-5.281,4.797l-15.216,5.378c-1.738-0.158-3.537,0.088-5.255,0.822
		c-3.349,1.43-5.605,4.339-6.355,7.638c-1.217,0.074-2.441,0.342-3.626,0.848c-5.55,2.37-8.128,8.791-5.758,14.341
		c0.778,1.822,1.997,3.315,3.474,4.426c-0.668,0.145-1.333,0.35-1.985,0.628c-5.55,2.37-8.128,8.791-5.758,14.341
		c1.978,4.631,6.775,7.18,11.534,6.525c-0.224,0.201-0.438,0.411-0.644,0.628l-177.624,0.902c-4.142,0.021-7.483,3.396-7.462,7.538
		c0.021,4.129,3.375,7.462,7.499,7.462c0.013,0,0.026,0,0.039,0l177.528-0.902c2.994,3.171,7.716,4.354,11.982,2.654
		c0.138,0.877,0.372,1.752,0.736,2.606c0.541,1.267,1.301,2.369,2.205,3.303c0.091,1.152,0.359,2.309,0.838,3.43
		c2.37,5.55,8.791,8.128,14.341,5.758c1.001-0.427,1.902-0.99,2.698-1.653c-0.624,2.292-0.517,4.8,0.488,7.154
		c2.37,5.55,8.791,8.128,14.341,5.758c2.103-0.898,3.777-2.38,4.919-4.173c2.863,4.289,8.454,6.074,13.369,3.976
		c1.392-0.594,2.596-1.444,3.583-2.47c2.61,1.067,5.628,1.133,8.426-0.062c4.172-1.782,6.664-5.853,6.637-10.122
		c3.187-3.057,4.331-7.872,2.494-12.173c-0.69-1.616-1.73-2.971-2.986-4.034c0.336-0.106,0.67-0.228,1.001-0.369
		c0.011-0.005,0.021-0.011,0.032-0.016l7.786-0.04c13.244,28.372,34.191,50.592,57.655,50.592c23.627,0,44.704-22.527,57.932-51.18
		l12.286-0.062c-0.2,0.876-0.317,1.784-0.317,2.722c0,6.833,5.539,12.373,12.373,12.373c1.233,0,2.421-0.186,3.544-0.521
		c-1.669,2.109-2.673,4.768-2.673,7.666c0,6.833,5.539,12.373,12.373,12.373c2.589,0,4.991-0.798,6.978-2.158
		c1.074,5.739,6.102,10.084,12.153,10.084c1.713,0,3.345-0.349,4.829-0.979c2.243,2.272,5.357,3.682,8.802,3.682
		c5.137,0,9.542-3.131,11.412-7.589c4.677-1.766,8.01-6.271,8.01-11.566c0-1.99-0.481-3.863-1.315-5.529
		c0.397,0.039,0.799,0.061,1.207,0.061c6.833,0,12.373-5.54,12.373-12.373c0-2.319-0.65-4.481-1.76-6.336
		c2.213-0.263,4.242-1.116,5.939-2.388l77.598-0.394c2.524,5.946,5.45,12.154,8.794,18.254
		c11.261,20.542,24.149,34.278,38.307,40.829c6.411,2.966,12.999,4.448,19.723,4.448c7.193,0,14.542-1.697,21.989-5.09
		c10.048-4.579,18.118-13.891,21.588-24.907c3.084-9.795,2.164-19.629-2.592-27.689c-14.054-23.818-45.719-22.4-68.839-21.365
		c-4.184,0.188-8.136,0.364-11.64,0.382l-17.195,0.088c-2.915-7.772-5.01-14.571-6.326-19.208c-1.132-3.984-5.278-6.3-9.264-5.166
		c-3.984,1.132-6.298,5.279-5.166,9.264c1.095,3.854,2.696,9.116,4.831,15.19l-67.983,0.345c-0.849-1.848-2.126-3.459-3.724-4.685
		c4.274-1.949,7.25-6.249,7.25-11.252c0-4.469-2.377-8.373-5.928-10.547c1.473-2.057,2.35-4.571,2.35-7.295
		c0-5.498-3.54-10.158-8.46-11.857c0.002-0.092,0.014-0.182,0.014-0.274c0-6.833-5.539-12.373-12.373-12.373
		c-2.536,0-4.891,0.766-6.854,2.074c-1.758-4.693-6.271-8.04-11.577-8.04c-2.974,0-5.702,1.051-7.836,2.8
		c-0.298-0.244-0.61-0.471-0.93-0.687L506.603,195.927z M740.417,301.605c-2.18,6.922-7.353,12.962-13.5,15.763
		c-10.395,4.737-19.945,4.958-29.193,0.678c-11.185-5.174-21.767-16.757-31.452-34.425c-2.023-3.692-3.885-7.433-5.587-11.127
		l11.046-0.056c3.801-0.02,7.897-0.203,12.234-0.396c20.395-0.916,45.777-2.05,55.249,14.003
		C741.78,290.394,742.207,295.92,740.417,301.605z"/>
	<path class="st4" d="M486.445,214.19c0-5.799-4.701-10.5-10.5-10.5s-10.5,4.701-10.5,10.5c0,3.213,1.447,6.085,3.721,8.011
		c-0.074-0.001-0.146-0.011-0.221-0.011c-5.799,0-10.5,4.701-10.5,10.5c0,4.234,2.511,7.873,6.121,9.534
		c-1.926,1.903-3.121,4.544-3.121,7.466c0,1.875,0.497,3.631,1.358,5.154c-2.918,1.865-4.858,5.125-4.858,8.846
		c0,5.799,4.701,10.5,10.5,10.5s10.5-4.701,10.5-10.5c0-1.875-0.497-3.631-1.358-5.154c2.918-1.865,4.858-5.125,4.858-8.846
		c0-4.234-2.511-7.873-6.121-9.534c1.926-1.903,3.121-4.544,3.121-7.466c0-3.213-1.447-6.085-3.721-8.011
		c0.074,0.001,0.146,0.011,0.221,0.011C481.744,224.69,486.445,219.989,486.445,214.19z"/>
	<path class="st4" d="M340.389,263.412c1.286-1.742,2.056-3.89,2.056-6.222c0-3.767-1.99-7.06-4.969-8.913
		c2.7-1.9,4.469-5.034,4.469-8.587c0-3.465-1.686-6.528-4.274-8.441c2.305-1.926,3.774-4.82,3.774-8.059
		c0-5.799-4.701-10.5-10.5-10.5s-10.5,4.701-10.5,10.5c0,3.465,1.686,6.528,4.274,8.441c-2.305,1.926-3.774,4.821-3.774,8.059
		c0,3.767,1.99,7.06,4.969,8.913c-2.7,1.9-4.469,5.034-4.469,8.587c0,3.367,1.591,6.356,4.056,8.278
		c-1.286,1.743-2.056,3.89-2.056,6.222c0,5.799,4.701,10.5,10.5,10.5s10.5-4.701,10.5-10.5
		C344.445,268.323,342.854,265.334,340.389,263.412z"/>
	<path class="green" d="M478.88,215.598c4.864-3.423,8.116-9.012,8.315-15.414c0.199-6.403-2.7-12.183-7.342-15.901
		c0.336-10.809-8.155-19.844-18.964-20.179c-4.406-0.137-8.517,1.194-11.865,3.549c-3.195-2.559-7.215-4.142-11.622-4.279
		c-6.403-0.199-12.182,2.7-15.901,7.342c-3.423-4.864-9.011-8.116-15.414-8.315c-6.403-0.199-12.182,2.7-15.901,7.342
		c-3.423-4.864-9.011-8.116-15.414-8.315c-6.403-0.199-12.182,2.7-15.901,7.342c-3.423-4.864-9.012-8.116-15.414-8.315
		c-7.418-0.23-13.999,3.696-17.508,9.676c-6.186,3.131-10.513,9.456-10.744,16.873c-0.199,6.403,2.7,12.182,7.342,15.901
		c-4.864,3.423-8.116,9.012-8.315,15.414c-0.261,8.409,4.82,15.741,12.177,18.743c-3.166,3.358-5.167,7.84-5.321,12.815
		c-0.216,6.958,3.228,13.176,8.59,16.817c-0.889,2.135-1.415,4.463-1.491,6.913c-0.336,10.809,8.154,19.844,18.963,20.18
		c-2.559,3.195-4.142,7.215-4.279,11.621c-0.336,10.809,8.154,19.844,18.964,20.18c1.451,0.045,2.868-0.074,4.238-0.331
		c1.347,9.212,9.131,16.419,18.761,16.718c6.403,0.199,12.182-2.7,15.901-7.342c3.423,4.864,9.011,8.116,15.414,8.315
		c9.631,0.299,17.847-6.41,19.763-15.521c1.352,0.342,2.759,0.548,4.21,0.593c10.809,0.336,19.844-8.154,20.18-18.964
		c0.076-2.449-0.305-4.806-1.06-6.992c5.578-3.3,9.402-9.293,9.618-16.251c0.076-2.449-0.305-4.805-1.059-6.992
		c5.578-3.301,9.401-9.293,9.618-16.251c0.155-4.976-1.564-9.573-4.516-13.121c7.53-2.539,13.056-9.542,13.317-17.951
		C486.421,225.095,483.522,219.316,478.88,215.598z"/>
	<path class="st3" d="M276.944,220.692c-3.35,0-6.471-2.12-7.589-5.472c-3.5-10.501-12.704-23.238-16.062-24.677
		c-4.061-1.741-5.942-6.443-4.202-10.505c1.741-4.061,6.445-5.943,10.505-4.202c10.991,4.711,21.833,25.009,24.938,34.323
		c1.396,4.192-0.868,8.723-5.06,10.12C278.635,220.559,277.782,220.692,276.944,220.692z"/>
	<path class="green" d="M513.438,210.19c-4.243,0-7.78-3.336-7.984-7.619c-0.634-13.314,9.131-36.225,26.473-43.29
		c4.094-1.665,8.761,0.299,10.428,4.391s-0.299,8.761-4.391,10.428c-9.664,3.937-16.915,19.584-16.527,27.71
		c0.21,4.414-3.197,8.162-7.61,8.372C513.696,210.187,513.567,210.19,513.438,210.19z"/>
	<path class="yellow" d="M401.326,184.963c-5.277,0-9.675-4.148-9.929-9.475c-0.788-16.557,11.355-45.047,32.92-53.833
		c5.091-2.071,10.894,0.372,12.967,5.46c2.073,5.088-0.372,10.894-5.46,12.967c-12.018,4.895-21.035,24.354-20.552,34.459
		c0.261,5.489-3.976,10.15-9.464,10.411C401.647,184.959,401.486,184.963,401.326,184.963z"/>
	<path class="yellow" d="M583.468,280.865c-0.974-5.152-5.472-8.865-10.716-8.865H227.248c-5.244,0-9.742,3.713-10.716,8.865
		c-7.943,42.02-36.579,251.951-50.013,351.385c-5.717,42.319,2.514,85.33,23.446,122.551c26.454,47.04,61.715,97.314,72.584,112.559
		c2.078,2.915,5.436,4.639,9.015,4.639h256.869c3.58,0,6.937-1.724,9.016-4.639c10.869-15.245,46.131-65.519,72.584-112.559
		c20.932-37.222,29.163-80.232,23.446-122.551C620.047,532.817,591.411,322.885,583.468,280.865z"/>
</g>
<g id="masks">
</g>
<g id="guides">
</g>
</svg>
