<svg xmlns="http://www.w3.org/2000/svg" viewBox="0 0 800 1287"><defs><style>.Yellow{fill:#f2f230;}.Green{fill:#3f7f19;}</style></defs><title>thekatinka_1287</title><g id="f9ddb95c-6c3d-455e-a412-02699eab7315" data-name="vectors"><path class="Yellow" d="M511.07,120.87a2.51,2.51,0,0,1,3.57-1.55,954.57,954.57,0,0,1,111.71,69.19A951.33,951.33,0,0,1,730.75,275a2.51,2.51,0,0,1-.37,3.9L411.86,488.58a2.51,2.51,0,0,1-3.79-2.78Z"/><path class="Green" d="M511.91,117.89a952.38,952.38,0,0,1,114.44,70.62A946.89,946.89,0,0,1,733,277.18l-46.44,30.57A709,709,0,0,0,592.14,227a715.43,715.43,0,0,0-94.76-57.58Z"/><path class="Green" d="M534.54,263.08c2.87-4,9.76-5.14,13.77-2.27s5.15,9.76,2.27,13.78c-4.67,6.51-14.63,9.23-18.21,10a1.23,1.23,0,0,1-1.49-1.06C530.49,279.9,529.87,269.59,534.54,263.08ZM598.14,331a1.23,1.23,0,0,0,1.49,1.06c3.58-.79,13.54-3.51,18.21-10,2.88-4,1.74-10.9-2.27-13.78s-10.9-1.74-13.77,2.27C597.13,317.05,597.75,327.36,598.14,331Zm-50.48,4.83a1.23,1.23,0,0,0,1.49,1.07c3.58-.79,13.54-3.51,18.21-10,2.88-4,1.74-10.9-2.27-13.77s-10.9-1.74-13.77,2.27C546.65,321.89,547.26,332.2,547.66,335.84Zm-42.47-101a1.23,1.23,0,0,0,1.49,1.07c3.58-.8,13.54-3.52,18.21-10,2.88-4,1.74-10.9-2.27-13.78s-10.9-1.74-13.78,2.27C504.17,220.93,504.79,231.23,505.19,234.88ZM486,287.48a1.23,1.23,0,0,0,1.49,1.06c3.58-.79,13.54-3.51,18.21-10,2.88-4,1.74-10.9-2.27-13.78S492.52,263,489.65,267C485,273.52,485.6,283.83,486,287.48Zm90.54,1.36A1.22,1.22,0,0,0,578,289.9c3.58-.79,13.54-3.51,18.21-10,2.88-4,1.74-10.9-2.27-13.78s-10.9-1.74-13.78,2.27C575.51,274.89,576.13,285.19,576.53,288.84Z"/><path class="Yellow" d="M482.54,1267.58a42.46,42.46,0,0,1-28.76-12.34l-25.19-25.3a13.94,13.94,0,0,1-4-10V923l6.11-20.26a69.32,69.32,0,0,1,19.8-29.4C472,854.46,521.79,808,562.34,748.66,611,677.49,551.41,404.3,540.61,357a9,9,0,0,0-8.79-7H268.17a9,9,0,0,0-8.77,7C248.59,404.3,189,677.49,237.69,748.66,278.25,808,328.07,854.48,349.61,873.35a69.47,69.47,0,0,1,19.8,29.35l6.16,20.3v297a14.09,14.09,0,0,1-4.09,10l-25.29,25.31a42.35,42.35,0,0,1-28.74,12.3C242.53,1269.83,190,1275,190,1281c0,4.09,102.52,6.1,210,6,102.4-.1,210-2.1,210-6C610,1275,557.46,1269.83,482.54,1267.58Z"/></g></svg>