<svg xmlns="http://www.w3.org/2000/svg" viewBox="0 0 800 832"><defs><style>.Green{fill:#3f7f19;}.Yellow{fill:#f2f230;}</style></defs><title>thenatalia_832</title><g id="c26fabb2-16e2-42d8-bb5c-eac8fd3e2855" data-name="vectors"><path class="Green" d="M509.27,210.48c-18.89,12.1-19.52,31.14-35,51.22-17.33,22.42-24.13,42.63-68.81,63.08-47.41,21.69-26.48,47.12-3,49.83s58.43-.28,101.89-26.46,88.72-81.89,72.35-119C564.66,202.06,525.46,200.11,509.27,210.48Z"/><path class="Yellow" d="M547.55,219a6,6,0,0,1-5.63-8.07c.06-.17,6.13-16.68,17.92-47,9.21-23.74,21.45-38.22,36.37-43,12.67-4.09,26.85-1.12,42.13,8.81a6,6,0,0,1-6.54,10.07c-12.28-8-22.72-10.42-31.91-7.46-11.31,3.65-21,15.74-28.87,35.95-11.74,30.24-17.77,46.66-17.83,46.82A6,6,0,0,1,547.55,219Z"/><path class="Green" d="M570.52,550.43l-17.21,7c-6.18-7.49-49.55-57.23-55.66-64.36-6.32-5.16-13.32-11.14-20.54-17.73-26.65-4.38-78-15.79-112.34-42.18,0,0,48,5.23,101.2,25.8-.88-1.52-16.05-14.95-19.82-19.48-20.75-3.72-58-6.27-91.1-23.74,0,0,32.6-1.91,85.48,18.15-.31-.42-3.69-4.77-4-5.19C408.86,419,356,400.82,347.63,384c0,0,32.34,10.63,61.34,23.71q0-.37,0-.75c-25.15-16.35-52.6-37.79-68-61.15,0,0,44.48,19.53,87.47,56.05C421,384.8,415.93,369.07,418,361c0,0,21.69,29.75,29.09,66.07,1.84,1.64,3.72,3.35,5.65,5.15-5.43-14.21-4.85-35.48-5.35-55.21,0,0,11.91,25.43,27.5,75.58,13.08,13.76,66.64,72.58,82.73,91.89-2.07-3.68-36.1-56.32-38.16-60.07-22.43-40.92-43.22-77.36-57.11-112.91-26.45-12.38-88.58-43.12-115.82-81.17,0,0,24.57,9.65,55.26,28.66-9.1-9.14-15.7-17.62-16.79-23.79,0,0,44.6,27.87,70.27,52.77-.64-1.84-2.06-7.9-2.67-9.73-4.71-14.07-7.61-24.45-10.76-37.43-14.07-6.73-58.26-27-75.29-48.53,0,0,50.62,21.07,69.58,39.6q-1.8-8.3-3.16-16.27c-25.43-17.38-65.71-46.89-70.3-62.27,0,0,41.16,25.29,68.31,48.91-.05-.36-.1-.72-.14-1.08-2.61-3.13-.68-4.47-8.23-10-21.75-15.93-53.35-44-56.2-59.44,0,0,11.2,7.7,24.94,18.55-16.94-23.94-30.7-47.57-30-60.39,0,0,21.72,23.62,43.8,51.94-10.6-23.59-20.46-53.11-16.87-75.83,0,0,20.92,31.48,31.79,71.44-2.06-19.34-2-39.72,3.47-55.66a267.85,267.85,0,0,1,9.66,40.77c1.65-13.11,4.71-25.68,9.92-35.86,0,0,9.87,66.19-3.15,100.46-.55,6.39,6.94,32,7.48,36.1,2.7-25.9,12.54-63.25,27.83-84,0,0-.28,57-22.61,105.67,3.81,14.78,7.53,29.94,14,47.64-2.54-35.12,5.78-82.67,22.05-108.82,0,0,2.69,72.1-16.17,124.43,5.43,14,10.39,26,17.65,41.76-1.62-19.41,1.38-58.08,18.76-86,0,0,2.65,11.87,2.06,30.51,6.44-17.41,14.86-34.19,25.6-45.17,0,0-9.36,64.3-40.65,110.5,8,16.88,18.69,33.84,28.94,52.83a155.38,155.38,0,0,1,5.2-80.91s8.19,31,2.66,95.25C536.08,493,567.16,544.6,570.52,550.43Z"/><path class="Yellow" d="M767.93,349.18a18.48,18.48,0,0,0-18.31-11.62,19.46,19.46,0,0,0-9.28,3.21l-42.72,27.38c-15.39-9.48-44.38-22.63-76.54-13.31a304.61,304.61,0,0,0-28.45-59.12A16,16,0,0,0,578.94,288H217a16,16,0,0,0-13.79,7.87C188,321.94,142,409.62,142,552.13c0,146,63.08,246.85,81.43,273.1A15.92,15.92,0,0,0,236.5,832H559.4a16,16,0,0,0,13.12-6.84c10.44-14.95,35.25-53.91,54.75-111.48,29.66,6.1,56-6,70.35-14.84l42.72,27.37a19.47,19.47,0,0,0,9.28,3.22,18.49,18.49,0,0,0,18.31-11.63C800,636.8,800,430.18,767.93,349.18ZM741.23,683l-34.11-21.85a18.2,18.2,0,0,0-21.88,1.47,80.34,80.34,0,0,1-21,11.79c-9.23,3.46-18,4.66-26.3,3.62a502.56,502.56,0,0,0,16-125.9c0-65.28-9.64-119.73-21.56-162.11,9.86-2.53,20.53-1.69,31.86,2.55a80.54,80.54,0,0,1,21,11.8,18.21,18.21,0,0,0,21.88,1.47L741.23,384C762.48,450.57,762.48,616.42,741.23,683Z"/></g></svg>