<svg xmlns="http://www.w3.org/2000/svg" viewBox="0 0 800 896"><defs><style>.Yellow{fill:#f2f230;}.Green{fill:#3f7f19;}</style></defs><title>theorangegraveyard_896</title><g id="3e3d7406-1a5d-41ad-9978-c7dc536ac88d" data-name="vectors"><path class="Yellow" d="M718.53,132.25H81.09a6,6,0,0,0-6,6.24C76.2,165.57,87.81,274,202,295.75c51,12,61,66,64,109s55.17,68,70.17,84S356,515.52,356,515.52h-.54l19.81,313.31a14.35,14.35,0,0,1-4.21,10L345.72,864.3a42.81,42.81,0,0,1-28.78,12.58C242,879.12,209,882.75,209,890.75c0,3.5,95.47,5.25,190.82,5.25s190.82-1.75,190.82-5.25c0-8-33-11.63-107.92-13.87A42.72,42.72,0,0,1,454,864.3l-25.3-25.41a14.26,14.26,0,0,1-4.12-10l20-313.31H444s4.64-10.77,19.64-26.77,67-41,70-84,13-97,64-109C711.81,274,723.42,165.57,724.52,138.49A6,6,0,0,0,718.53,132.25Z"/><path class="Green" d="M96.42,134.17,82,146.69l-4.63-9.1,1.74-10.17ZM114.93,150l15.91,4.66,9.33-12.44-14.78-7.61Zm-20.46-.78,6.29,2.37,6.4-1.84-6.23-10.8Zm9.41-13.64,7.46,2.32,5.81-5-5.64-7.63Zm33.59-2.49,7.46,2.32,5.81-5-5.64-7.63ZM71.21,159.11l7.46,2.32,5.81-5-5.64-7.62Zm89.36-31.69-1.74,10.17,4.63,9.1,14.45-12.52ZM196.42,150l15.91,4.66,9.33-12.44-14.79-7.61ZM176,149.19l6.29,2.37,6.4-1.84-6.23-10.8Zm9.41-13.64,7.45,2.32,5.82-5L193,125.23ZM219,133.06l7.45,2.32,5.82-5-5.65-7.63Zm23.09-5.64-1.73,10.17,4.62,9.1,14.45-12.52ZM277.91,150l15.9,4.66,9.33-12.44-14.78-7.61Zm-20.47-.78,6.3,2.37,6.4-1.84-6.23-10.8Zm9.42-13.64,7.45,2.32,5.82-5-5.65-7.63Zm33.59-2.49,7.45,2.32,5.82-5-5.65-7.63Zm23.09-5.64-1.73,10.17,4.62,9.1,14.45-12.52ZM359.4,150l15.9,4.66,9.33-12.44-14.78-7.61Zm-20.47-.78,6.29,2.37,6.41-1.84-6.23-10.8Zm9.42-13.64,7.45,2.32,5.82-5L356,125.23Zm33.59-2.49,7.45,2.32,5.82-5-5.65-7.63ZM405,127.42l-1.74,10.17,4.63,9.1,14.45-12.52ZM440.89,150l15.9,4.66,9.33-12.44-14.78-7.61Zm-20.47-.78,6.29,2.37,6.4-1.84-6.23-10.8Zm9.41-13.64,7.46,2.32,5.81-5-5.64-7.63Zm33.59-2.49,7.46,2.32,5.81-5-5.64-7.63Zm23.1-5.64-1.74,10.17,4.63,9.1,14.45-12.52ZM522.37,150l15.91,4.66,9.33-12.44-14.78-7.61Zm-20.46-.78,6.29,2.37,6.4-1.84-6.23-10.8Zm9.41-13.64,7.46,2.32,5.81-5L519,125.23Zm33.59-2.49,7.46,2.32,5.81-5-5.64-7.63Zm23.1-5.64-1.74,10.17,4.63,9.1,14.45-12.52ZM603.86,150l15.9,4.66,9.34-12.44-14.79-7.61Zm-20.47-.78,6.3,2.37,6.4-1.84-6.23-10.8Zm9.42-13.64,7.45,2.32,5.82-5-5.65-7.63Zm33.59-2.49,7.45,2.32,5.82-5L634,122.74Zm23.09-5.64-1.73,10.17,4.62,9.1,14.45-12.52ZM685.35,150l15.9,4.66,9.33-12.44-14.78-7.61Zm-20.47-.78,6.3,2.37,6.4-1.84-6.23-10.8Zm9.42-13.64,7.45,2.32,5.82-5-5.65-7.63Zm33.59-2.49,7.45,2.32,5.82-5-5.65-7.63Zm6.13,18,6.3,2.37,6.4-1.83-1.41-10.85-4.82,0Zm-82.51,0,6.29,2.37,6.4-1.83-1.41-10.85-4.82,0Zm-82.51,0,6.29,2.37,6.4-1.83-1.41-10.85-4.82,0Zm-81.22,0,6.29,2.37,6.4-1.83-1.41-10.85-4.82,0Zm-81.22,0,6.29,2.37,6.4-1.83-1.41-10.85-4.82,0Zm-82.11,0,6.29,2.37,6.4-1.83-1.41-10.85-4.82,0Zm-82.11,0,6.29,2.37,6.4-1.83-1.41-10.85-4.82,0Zm-80.17,0,6.29,2.37,6.4-1.83-1.41-10.85-4.82,0Z"/></g></svg>