<svg xmlns="http://www.w3.org/2000/svg" viewBox="0 0 800 820"><defs><style>.Green{fill:#3f7f19;}.Yellow{fill:#f2f230;}</style></defs><title>thepariane_820</title><g id="5fdadad1-96bf-466d-a9ff-035715e5367e" data-name="vectors"><path class="Green" d="M466.75,353l227-220.77s-6.54-8.92-18.22-8.53-23.92-4-23.92-4-51.56,12.08-64.41,12.76-85.22-3.8-118.75,26.15S401,264.41,425.89,310.33,466.75,353,466.75,353Z"/><path class="Yellow" d="M474.45,345.46,689.74,136.09c-.57,0-1.17,0-1.77,0-11.68.39-23.93-4-23.93-4s-51.56,12.08-64.41,12.77S514.41,141,480.88,171s-63.22,96.09-38.28,142C453.53,333.08,465,341.9,474.45,345.46Z"/><path class="Green" d="M483.39,254.94a1.64,1.64,0,0,0-2.45,0c-3.27,3.65-12,14.35-12,25.06,0,6.6,6.59,13.19,13.19,13.19s13.18-6.59,13.18-13.19C495.35,269.29,486.66,258.59,483.39,254.94Z"/><path class="Yellow" d="M597.37,226.83H202.63a9.39,9.39,0,0,0-9.39,9.49l26,341.2a58.47,58.47,0,0,0,58.29,54l98.16,0a27.2,27.2,0,0,1-.12,5.4V752.88a14.05,14.05,0,0,1-4.09,10l-25.28,25.32a42,42,0,0,1-28.75,12c-74.91,2.24-73.1,7.64-73.1,13.07,0,4.53,77.83,6.79,155.66,6.79s155.66-2.26,155.66-6.79c0-5.43,1.79-10.83-73.12-13.07A42.21,42.21,0,0,1,453.78,788l-25.26-25.2a13.84,13.84,0,0,1-4.09-9.88V637a27.83,27.83,0,0,1-.11-5.4l98.53-.27A58.47,58.47,0,0,0,581,577.23l25.76-340.91A9.39,9.39,0,0,0,597.37,226.83Z"/></g></svg>