<svg xmlns="http://www.w3.org/2000/svg" viewBox="0 0 800 890"><defs><style>.Green{fill:#3f7f19;}.Yellow{fill:#f2f230;}</style></defs><title>theredemption_890</title><g id="vectors"><circle class="Green" cx="580.003" cy="280" r="160"/><circle class="Yellow" cx="580.003" cy="280" r="140"/><path class="Green" d="M544.135,245.76a1.989,1.989,0,0,0,2.1-2.1c-.325-5.936-2.052-22.581-11.238-31.767-5.657-5.657-16.969-5.654-22.625,0s-5.659,16.969,0,22.626C521.555,243.708,538.2,245.435,544.135,245.76Z"/><path class="Green" d="M615.871,314.24a1.989,1.989,0,0,0-2.1,2.1c.325,5.936,2.052,22.581,11.238,31.767,5.657,5.657,16.969,5.654,22.625,0s5.659-16.969,0-22.626C638.451,316.292,621.806,314.565,615.871,314.24Z"/><path class="Green" d="M614.243,244.132a1.989,1.989,0,0,0,2.1,2.1c5.936-.325,22.581-2.052,31.767-11.238,5.657-5.657,5.654-16.969,0-22.625s-16.969-5.659-22.626,0C616.295,221.552,614.568,238.2,614.243,244.132Z"/><path class="Green" d="M614.243,244.132a1.989,1.989,0,0,0,2.1,2.1c5.936-.325,22.581-2.052,31.767-11.238,5.657-5.657,5.654-16.969,0-22.625s-16.969-5.659-22.626,0C616.295,221.552,614.568,238.2,614.243,244.132Z"/><path class="Yellow" d="M583.468,298.865A10.891,10.891,0,0,0,572.752,290h-345.5a10.891,10.891,0,0,0-10.716,8.865c-7.943,42.02-36.579,251.952-50.012,351.386A196.348,196.348,0,0,0,189.966,772.8c26.453,47.04,61.715,97.314,72.584,112.559A11.065,11.065,0,0,0,271.566,890H528.434a11.065,11.065,0,0,0,9.016-4.639c10.869-15.245,46.131-65.519,72.584-112.559A196.348,196.348,0,0,0,633.48,650.251C620.047,550.817,591.411,340.885,583.468,298.865Z"/></g></svg>