<svg xmlns="http://www.w3.org/2000/svg" viewBox="0 0 800 1110"><defs><style>.Yellow{fill:#f2f230;}.Green{fill:#3f7f19;}</style></defs><title>theshannon_1110</title><g id="63918937-c722-4a35-88d4-bc88e020ea2e" data-name="directions"><path class="Yellow" d="M540.47,263.77a10,10,0,0,1-8-10.17c.79-21,6.57-52.89,20.4-79.61,18.23-35.21,46.45-54.61,81.6-56.09a10,10,0,0,1,.85,20c-28,1.18-49.74,16.42-64.69,45.31-12.32,23.78-17.46,52.35-18.17,71.16a10.06,10.06,0,0,1-12,9.42Z"/><path class="Green" d="M613,322.77c9.24-44.9-11.86-86.95-68.4-79.44-49-29.21-85,1.11-94.19,46A83,83,0,0,0,613,322.77Z"/></g><g id="b8f37129-2d51-4bd1-b60d-96fcec55e475" data-name="vectors"><path class="Yellow" d="M482.7,1090.91A42.51,42.51,0,0,1,454,1078.44l-25.3-25.35a14.2,14.2,0,0,1-4.12-10V689.77s-3.16-18.94,16.54-43.62l-.66,0L724.5,325.56a9.05,9.05,0,0,0-6.72-15.09l-635.51-.42a9,9,0,0,0-6.79,15.06L358.19,644.54h-.07c21,25.34,17.53,45.23,17.53,45.23v353.29a14,14,0,0,1-4,10l-25.26,25.31a42.57,42.57,0,0,1-28.74,12.55c-74.92,2.24-107.91,6.42-107.91,13.66,0,3.62,95.13,5.43,190.31,5.43s190.63-1.81,190.63-5.43C590.63,1097.33,557.62,1093.15,482.7,1090.91Z"/></g></svg>