<svg xmlns="http://www.w3.org/2000/svg" viewBox="0 0 800 1054"><defs><style>.Green{fill:#3f7f19;}.Yellow{fill:#f2f230;}</style></defs><title>vitaminc_1054</title><g id="9f8141f5-fa49-4c3f-a43a-15d3574eeaae" data-name="vectors"><circle class="Green" cx="575.32" cy="280" r="160"/><circle class="Yellow" cx="575.32" cy="280" r="140"/><path class="Green" d="M507.68,234.52c-5.65-5.66-5.65-17,0-22.62s17-5.66,22.62,0c9.19,9.19,10.91,25.84,11.24,31.77a2,2,0,0,1-2.1,2.1C533.51,245.44,516.87,243.71,507.68,234.52Zm103.51,79.72a2,2,0,0,0-2.1,2.1c.32,5.93,2,22.58,11.23,31.77,5.66,5.65,17,5.65,22.63,0s5.66-17,0-22.62C633.77,316.29,617.12,314.56,611.19,314.24Zm-1.63-70.11a2,2,0,0,0,2.1,2.1c5.93-.32,22.58-2,31.76-11.24,5.66-5.65,5.66-17,0-22.62s-17-5.66-22.62,0C611.61,221.55,609.88,238.2,609.56,244.13Z"/><path class="Yellow" d="M435.43,820.31c378.5-24.1,153.13-464.68,128-518.76a9.66,9.66,0,0,0-9-5.55H245.56a9.76,9.76,0,0,0-9,5.55c-25.18,54.14-250.87,495.36,128,519.3l10.61-.16h.14V987.88a13.92,13.92,0,0,1-4,10l-25.22,25.32c-7.65,7.64-17.91,11.53-28.71,11.85-74.92,2.25-73.07,8-73.07,13,0,4.5,77.83,6,155.66,6s155.66-1.5,155.66-6c0-5,1.79-10.72-73.12-13a42.15,42.15,0,0,1-28.76-12.12l-25.34-25.18a13.87,13.87,0,0,1-4.15-9.85V820.38Z"/></g></svg>