<svg xmlns="http://www.w3.org/2000/svg" viewBox="0 0 800 1270"><defs><style>.Yellow{fill:#f2f230;}.Green{fill:#3f7f19;}</style></defs><title>watermelonsangria_1270</title><g id="vectors"><path class="Yellow" d="M482.545,1250.672a42.353,42.353,0,0,1-28.679-12.39l-25.347-25.312a14.164,14.164,0,0,1-4.172-9.99V975.888s3.148-15.068,16.463-55.47a5.009,5.009,0,0,0-.655-4.485c-11.143-15.647-6.991-12.656-18.509-29.933a39.249,39.249,0,0,1,5-24c7-12,241-76,217-249-18.482-133.224-47.044-205.959-59.2-232.363A19.993,19.993,0,0,0,566.284,369H233.718a20,20,0,0,0-18.168,11.637c-12.157,26.4-40.721,99.139-59.2,232.363-24,173,210,237,217,249a39.224,39.224,0,0,1,5,24c-11.517,17.277-7.374,14.286-18.517,29.933a5.059,5.059,0,0,0-.791,4.485c13.314,40.4,16.308,55.47,16.308,55.47V1202.98a14.014,14.014,0,0,1-4.018,9.99l-25.252,25.312a42.285,42.285,0,0,1-28.65,12.39c-74.958,2.241-127.486,7.441-127.486,13.5,0,3.884,105.044,5.826,210.053,5.825s210.048-1.941,210.048-5.825C610.042,1258.113,557.5,1252.913,482.545,1250.672Z"/><path class="Yellow" d="M524.429,122.882a2.765,2.765,0,0,1,3.943-1.7A1052.7,1052.7,0,0,1,651.55,197.47a1047.9,1047.9,0,0,1,115.114,95.373,2.765,2.765,0,0,1-.4,4.3L415.029,528.35a2.763,2.763,0,0,1-4.178-3.058Z"/><path class="Green" d="M525.355,119.6A1050.67,1050.67,0,0,1,651.55,197.47a1045.83,1045.83,0,0,1,117.6,97.772l-51.209,33.711A782.161,782.161,0,0,0,613.83,239.868a788.93,788.93,0,0,0-104.5-63.493Z"/><path class="Green" d="M546.279,302.266a1.354,1.354,0,0,0,1.642,1.177c3.948-.875,14.93-3.876,20.081-11.059,3.171-4.424,1.918-12.017-2.5-15.188s-12.017-1.922-15.189,2.5C545.158,286.881,545.84,298.245,546.279,302.266Z"/><path class="Green" d="M620.445,354.6a1.354,1.354,0,0,0,1.642,1.177c3.949-.875,14.931-3.876,20.081-11.059,3.172-4.423,1.919-12.017-2.5-15.188s-12.017-1.921-15.189,2.5C619.325,339.214,620.007,350.579,620.445,354.6Z"/><path class="Green" d="M564.779,359.932a1.353,1.353,0,0,0,1.642,1.177c3.948-.874,14.93-3.876,20.081-11.059,3.171-4.423,1.918-12.016-2.5-15.188s-12.017-1.921-15.189,2.5C563.658,344.547,564.34,355.912,564.779,359.932Z"/><path class="Green" d="M517.945,248.6a1.354,1.354,0,0,0,1.642,1.177c3.949-.875,14.931-3.876,20.081-11.059,3.172-4.423,1.919-12.017-2.5-15.188s-12.017-1.921-15.189,2.5C516.825,233.214,517.507,244.579,517.945,248.6Z"/><path class="Green" d="M496.779,306.6a1.354,1.354,0,0,0,1.642,1.177c3.948-.875,14.93-3.876,20.081-11.059,3.171-4.423,1.918-12.017-2.5-15.188s-12.017-1.921-15.189,2.5C495.658,291.214,496.34,302.579,496.779,306.6Z"/><path class="Green" d="M596.612,308.1a1.354,1.354,0,0,0,1.642,1.177c3.948-.875,14.931-3.876,20.081-11.059,3.172-4.423,1.919-12.017-2.5-15.188s-12.017-1.921-15.188,2.5C595.491,292.714,596.174,304.079,596.612,308.1Z"/></g></svg>