<svg id="feeacc1d-2299-4877-bf4e-421040af87b3" data-name="vectors" xmlns="http://www.w3.org/2000/svg" viewBox="0 0 800 879"><defs><style>.Yellow{fill:#f2f230;}</style></defs><title>w&amp;amp;g_879</title><path class="Yellow" d="M435.43,644.31c378.5-24.1,153.13-464.68,128-518.76a9.66,9.66,0,0,0-9-5.55H245.56a9.76,9.76,0,0,0-9,5.55c-25.18,54.14-250.87,495.36,128,519.3l10.61-.16h.14V811.88a13.92,13.92,0,0,1-4,10l-25.22,25.32c-7.65,7.64-17.91,11.53-28.71,11.85-74.92,2.25-73.07,8-73.07,13,0,4.5,77.83,6,155.66,6s155.66-1.5,155.66-6c0-5,1.79-10.72-73.12-13a42.15,42.15,0,0,1-28.76-12.12l-25.34-25.18a13.87,13.87,0,0,1-4.15-9.85V644.38Z"/></svg>