<?xml version="1.0" encoding="utf-8"?>
<!-- Generator: Adobe Illustrator 22.1.0, SVG Export Plug-In . SVG Version: 6.00 Build 0)  -->
<svg version="1.1" xmlns="http://www.w3.org/2000/svg" xmlns:xlink="http://www.w3.org/1999/xlink" x="0px" y="0px" width="800px"
	 height="1006.005px" viewBox="0 0 800 1006.005" style="enable-background:new 0 0 800 1006.005;" xml:space="preserve">
<style type="text/css">
	.yellow{fill:#F2F230;}
	.green{fill:#3F7F19;}
	.st0{fill:#1A1A1A;}
	.st1{fill:#FFFFFF;}
	.st2{opacity:0.21;fill:#DE0E00;}
	.st3{fill:#3F7F19;}
	.st4{fill:#F2F230;}
	.st5{fill:none;stroke:#F2F230;stroke-width:16;stroke-linecap:round;stroke-miterlimit:10;}
	.st6{fill:none;stroke:#F2F230;stroke-width:22;stroke-linecap:round;stroke-miterlimit:10;}
	.st7{fill:none;stroke:#3F7F19;stroke-width:26;stroke-linecap:round;stroke-miterlimit:10;}
	.st8{fill:none;stroke:#3F7F19;stroke-width:16;stroke-linecap:round;stroke-miterlimit:10;}
	.st9{fill:none;stroke:#F2F230;stroke-width:20;stroke-linecap:round;stroke-miterlimit:10;}
	.st10{opacity:0.2;}
	.st11{fill:none;}
</style>
<g id="directions">
</g>
<g id="vectors">
	<path class="yellow" d="M597.374,412.836H202.626c-5.226,0-9.447,4.268-9.388,9.494l25.988,341.191
		c2.322,30.48,27.727,54.029,58.295,54.036l98.164,0.022c0.199,3.443-0.123,5.396-0.123,5.396V938.88c0,3.747-1.437,7.34-4.087,9.99
		l-25.287,25.313c-7.645,7.645-17.94,11.64-28.746,11.963c-74.916,2.242-73.106,7.641-73.106,13.071
		c0,4.525,77.834,6.788,155.665,6.788s155.656-2.263,155.656-6.788c0-5.43,1.797-10.829-73.118-13.071
		c-10.806-0.323-21.115-4.532-28.759-12.177l-25.26-25.205c-2.65-2.65-4.085-6.136-4.085-9.883V822.974c0,0-0.317-1.952-0.113-5.396
		l98.53-0.269c30.525-0.083,55.851-23.632,58.151-54.071l25.76-340.909C606.821,417.103,602.6,412.836,597.374,412.836z"/>
	<g>
		<g>
			<path class="yellow" d="M318.34,637.637c-5.678-3.418-7.51-10.792-4.092-16.47L590.69,161.955
				c3.418-5.678,10.792-7.51,16.47-4.092c5.678,3.418,7.51,10.792,4.092,16.47L334.809,633.545
				C331.392,639.223,324.018,641.055,318.34,637.637z"/>
		</g>
		<g>
			<path class="yellow" d="M318.34,637.637c-5.678-3.418-7.51-10.792-4.092-16.47L590.69,161.955
				c3.418-5.678,10.792-7.51,16.47-4.092c5.678,3.418,7.51,10.792,4.092,16.47L334.809,633.545
				C331.392,639.223,324.018,641.055,318.34,637.637z"/>
		</g>
	</g>
	<g>
		<path class="green" d="M665.479,242.649c-3.257-26.052-23.447-69.688-29.308-87.273c-3.804,12.291,4.228,65.761,9.601,81.88
			c-6.839-18.562-31.659-62.833-36.111-69.697c-1.332,28.604,11.851,67.081,28.903,90.739c10.325,14.324,21.023,12.787,23.436,2.909
			C664.924,257.539,666.541,251.14,665.479,242.649z"/>
		<path class="green" d="M790.477,255.391c-29.252,17.051-76.798,24.29-110.928,19.364c-29.442-4.249-31.169-15.532-3.002-18.449
			C707.425,253.108,768.656,253.33,790.477,255.391z"/>
		<path class="green" d="M710.785,350.897c-28.323,11.352-80.103,18.823-109.883,9.94c-25.689-7.662-17.375-23.637,8.12-22.531
			C636.972,339.518,691.602,346.188,710.785,350.897z"/>
		<path class="green" d="M663.129,385.658c-23.036,15.43-67.655,31.833-95.801,29.551c-24.279-1.968-19.901-17.735,2.97-21.559
			C595.371,389.458,645.189,385.088,663.129,385.658z"/>
		<path class="green" d="M578.26,181.577c0.957,33.845,19.903,78.05,42.1,104.44c19.148,22.765,29.643,18.276,17.255-7.187
			C624.034,250.913,591.528,199.023,578.26,181.577z"/>
		<path class="green" d="M532.475,373.406c-9.496-16.713-33.726-47.061-43.992-57.034c-0.694,5.959,10.206,33.483,16.447,43.652
			c-4.86-5.796-27.68-32.89-31.913-34.193c1.303,20.841,19.667,47.976,37.124,62.85C522.532,399.24,539.462,385.704,532.475,373.406
			z"/>
		<path class="green" d="M602.917,247.97c-3.578,3.648-24.847,39.741-30.422,46.727c7.082-12.189-1.784-63.303-3.738-84.47
			c-12.049,14.654-29.394,73.803-28.433,87.868c-1.911-8.73-5.508-61.275-7.104-66.129c-14.601,21.424-15.93,56.361-5.809,81.496
			c6.814,16.921,15.964,21.427,19.32,12.759c0.394-0.168,0.795-0.352,1.205-0.552c0.381,0.505,0.762,0.97,1.142,1.41
			c-0.376,8.707,9.686,8.472,23.008-3.446C592.28,305.565,606.538,273.643,602.917,247.97z"/>
		<path class="green" d="M747.211,300.106c-20.882-6.659-61.23-15.094-92.083-18.542c-15.218-1.701-22.398,0.853-21.394,5.202
			c-9.889,0.014-7.089,9.174,10.439,21.86c27.934,20.219,55.944,26.097,89.769,24.589c-10.672-6.952-45.682-21.043-63.584-29.854
			C689.712,305.023,726.809,306.714,747.211,300.106z"/>
		<path class="green" d="M735.651,217.717c21.004-15.143,39.93-44.09,46.525-54.634c-0.567-3.108-36.487,21.823-51.41,39.003
			c15.711-22.011,36.836-62.998,36.836-62.998c-9.826,6.95-39.767,31.247-48.071,52.74c6.294-23.139,12.765-67.927,12.765-67.927
			c-7.674,10.644-28.364,53.6-32.792,74.277c1.989-27.177-7.161-76.232-7.161-76.232c-7.839,23.131-19.118,63.123-15.671,107.124
			c0.865,11.049,10.391,22.604,32.576,19.955c42.073-5.025,72.104-40.735,90.752-56.239
			C800,192.785,763.069,202.252,735.651,217.717z"/>
		<path class="yellow" d="M463.635,593.868c1.07-0.67,1.97-1.639,2.55-2.864c0.246-0.522,25.382-53.525,86.651-170.157
			C613.496,305.378,687.29,245.21,718.801,219.518l2.581-2.107c2.924-2.39,3.358-6.697,0.968-9.623
			c-2.388-2.919-6.698-3.357-9.623-0.968l-2.569,2.097c-32.16,26.221-107.471,87.626-169.429,205.569
			c-10.251,19.514-19.489,37.244-27.776,53.26c24.824-75.574,44.092-149.049,44.385-150.205c0.926-3.662-1.292-7.378-4.952-8.307
			c-3.662-0.927-7.381,1.29-8.307,4.952c-0.471,1.859-50.456,192.479-92.839,273.878c-1.584,3.042-0.656,6.729,2.038,8.686
			c0.272,0.197,0.562,0.378,0.869,0.537c3.349,1.745,7.479,0.443,9.223-2.907C463.459,594.211,463.547,594.038,463.635,593.868z"/>
	</g>
</g>
<g id="masks">
</g>
<g id="guides">
</g>
</svg>
