<svg xmlns="http://www.w3.org/2000/svg" viewBox="0 0 800 838"><defs><style>.Yellow{fill:#f2f230;}.cls-1{fill:#3f7f19;}</style></defs><title>winterbreak_838</title><g id="vectors"><path class="Yellow" d="M700.928,355.18a18.475,18.475,0,0,0-18.31-11.621,19.334,19.334,0,0,0-9.273,3.215l-42.726,27.372c-15.386-9.476-44.381-22.624-76.538-13.31a304.141,304.141,0,0,0-28.453-59.117A15.99,15.99,0,0,0,511.937,294H149.987a15.948,15.948,0,0,0-13.784,7.873C120.958,327.935,75,415.619,75,558.127c0,146,63.076,246.85,81.425,273.1A15.937,15.937,0,0,0,169.5,838H492.4a15.976,15.976,0,0,0,13.118-6.836c10.445-14.957,35.254-53.915,54.756-111.485,29.655,6.1,55.953-5.977,70.345-14.84l42.726,27.372a19.355,19.355,0,0,0,9.273,3.215,18.475,18.475,0,0,0,18.31-11.622C733.024,642.8,733.024,436.184,700.928,355.18ZM674.227,689l-34.11-21.852a18.2,18.2,0,0,0-21.876,1.473A80.73,80.73,0,0,1,597.2,680.411c-9.228,3.459-18.023,4.661-26.3,3.616a502.653,502.653,0,0,0,16-125.9c0-65.277-9.646-119.723-21.563-162.1,9.857-2.538,20.53-1.7,31.856,2.55a80.742,80.742,0,0,1,21.046,11.791,18.2,18.2,0,0,0,21.876,1.474l34.11-21.852C695.482,456.567,695.482,622.417,674.227,689Z"/><path class="cls-1" d="M607.682,320.161c-.517-15.6-5.786-26.4-12.617-33.883,38.532-4.318,58.747-45.359,58.747-45.359-22.583-8.436-40.389-8.5-54.262-4.448-1.055-5.981,30.107-21.519,31.738-53.371-63.357,9.392-102.579,37.907-88.93,95.108C554.442,328.846,607.682,320.161,607.682,320.161Z"/><path class="cls-1" d="M607.682,320.161c-.517-15.6-5.786-26.4-12.617-33.883,38.532-4.318,58.747-45.359,58.747-45.359-22.583-8.436-40.389-8.5-54.262-4.448-1.055-5.981,30.107-21.519,31.738-53.371-63.357,9.392-102.579,37.907-88.93,95.108C554.442,328.846,607.682,320.161,607.682,320.161Z"/><path class="cls-1" d="M575.259,177.374c-33.383,3.745-46,22.445-49.677,22.587,20.153-30.763,10.765-79.746,10.765-79.746-28.676,14.63-44.805,55.268-50.208,72.931-17.945-43.938-76.472-42.166-76.472-42.166s13.108,43.418,47.26,76.161c-33.091-13.609-63.918-1.695-74.2,5.839,0,0,74.389,50.155,95.373,42.8,4.438,6.153,59.15-6.889,91.9-31.782-12.882-14.363-22.1-14.662-22.1-14.662S580.685,200.774,575.259,177.374Z"/><path class="Yellow" d="M434.994,450.931A8,8,0,0,1,427,443.194c-1.816-55.223,12.8-138.185,92.734-219.8a8,8,0,0,1,11.432,11.195C455.187,312.166,441.28,390.563,443,442.668a8,8,0,0,1-7.733,8.259C435.173,450.93,435.083,450.931,434.994,450.931Z"/><path class="Yellow" d="M435.488,450.841a8.005,8.005,0,0,1-7.466-10.87C447.986,387.977,512.36,269.288,573.6,255.285a8,8,0,1,1,3.566,15.6c-51.326,11.737-113.708,121.449-134.2,174.824A8,8,0,0,1,435.488,450.841Z"/></g></svg>