<svg xmlns="http://www.w3.org/2000/svg" viewBox="0 0 800 1096"><defs><style>.Yellow{fill:#f2f230;}.Green{fill:#3f7f19;}</style></defs><title>winterbreak</title><g id="vectors"><path class="Yellow" d="M767.93,613.18a18.48,18.48,0,0,0-18.31-11.62,19.46,19.46,0,0,0-9.28,3.21l-42.72,27.38c-15.39-9.48-44.38-22.63-76.54-13.31a304.61,304.61,0,0,0-28.45-59.12A16,16,0,0,0,578.94,552H217a16,16,0,0,0-13.79,7.87C188,585.94,142,673.62,142,816.13c0,146,63.08,246.85,81.43,273.1A15.92,15.92,0,0,0,236.5,1096H559.4a16,16,0,0,0,13.12-6.84c10.44-15,35.25-53.91,54.75-111.48,29.66,6.1,56-6,70.35-14.84l42.72,27.37a19.47,19.47,0,0,0,9.28,3.22,18.49,18.49,0,0,0,18.31-11.63C800,900.8,800,694.18,767.93,613.18ZM741.23,947l-34.11-21.85a18.2,18.2,0,0,0-21.88,1.47,80.34,80.34,0,0,1-21,11.79c-9.23,3.46-18,4.66-26.3,3.62a502.56,502.56,0,0,0,16-125.9c0-65.28-9.64-119.73-21.56-162.11,9.86-2.53,20.53-1.69,31.86,2.55a80.54,80.54,0,0,1,21,11.8,18.21,18.21,0,0,0,21.88,1.47L741.23,648C762.48,714.57,762.48,880.42,741.23,947Z"/><path class="Green" d="M566.83,481l-.62,0-.05.06-.06-.06c-4-.17-23.68-1.76-38.87-16.95-17-17-22.63-45.25-22.63-45.25s28.28,5.65,45.25,22.62a54.3,54.3,0,0,1,5.16,6c1.82-15.36,11.15-29.35,11.15-29.35s11.45,17.18,11.45,34.37c0,14.7-8.38,25.21-10.8,27.93C566.82,480.79,566.83,481,566.83,481ZM709.38,285.89a65,65,0,0,0-9.81-35.83c-11.9-18.94-34-31.48-34-31.48s1.67,24.17,12.85,42.94a107.34,107.34,0,0,0-23.22-6.09s10.13,20.2,26.42,31.66A56.94,56.94,0,0,0,715,297.46,50.37,50.37,0,0,0,709.38,285.89ZM668.85,426.18c15.88-5.12,28.7-15.16,28.7-15.16s-21.45-7.12-41.07-3.71a57.94,57.94,0,0,0-24.18,10.37c-1.55.12-2.42.26-2.42.26s.17.43.53,1.19a41.29,41.29,0,0,0-4.81,4.39,47,47,0,0,0,9.48,3.59,64.94,64.94,0,0,0,21.35,19.61c19.47,11,44.85,11.55,44.85,11.55S688,437.28,668.85,426.18Zm-82.23,85.66c10.12-2.85,12.2-5.15,41.32-.84-12-21.33-35.05-25.41-54.67-22-12.12,2.11-20.76,9.24-25.61,14.39l-.28,0,.08.18a41.42,41.42,0,0,0-4.35,5.41,47.48,47.48,0,0,0,9.47,3.58,65.26,65.26,0,0,0,21.35,19.62c19.48,11,44.85,11.55,44.85,11.55S605.62,523,586.62,511.84Zm69.12-143.33C650.34,346.81,633.3,328,633.3,328s-4.67,18.4-2.44,37.41C615,351.19,592.72,344.89,577.6,360c24,8,26.14,17.05,42.43,28.52a58,58,0,0,0,24.1,9.71,54.46,54.46,0,0,0,9,9.34A63.91,63.91,0,0,0,655.74,368.51Zm90-53.8c-.69-.13-1.38-.24-2.06-.34C768.1,309.7,771.44,288,771.44,288s-22.58-1-40.54,7.6a57,57,0,0,0-25.3,24l2.07-.33c-.51.24-.79.39-.79.39S706,331.36,728,335.45s26.85-10.54,59.48-.76C772.21,320.48,767.71,318.8,745.72,314.71ZM698,175a77,77,0,0,0,39.59,17s0-22.63-17-39.6-31-.4-45.25-22.63C681.6,152,689.6,168,698,175ZM756.33,152a33.9,33.9,0,0,0,1.76-3.34c5.57-12.45,2.85-28.62,2.85-28.62s-11.71,7.38-17.94,18.23c-4.44-9.07-13.61-15.61-13.61-15.61s-2.91,12.79,1,23a26.78,26.78,0,0,0,8.44,11.29,33.47,33.47,0,0,0,1.69,8.76s.4-.16,1.08-.48a62.31,62.31,0,0,0-12,26.53s22.4,3.2,41.6-11.21,28.8-41.6,28.8-41.6S775.24,140.28,756.33,152Z"/><path class="Yellow" d="M439.81,711.62a8.62,8.62,0,0,1-1.33-.11,8,8,0,0,1-6.57-9.21c19.28-115.81,121.83-216.56,196.71-290.13l8-7.87c35.81-35.24,62.27-82.87,78.66-141.57,13.46-48.18,16.5-90.8,18-111.29a8,8,0,0,1,16,1.14c-1.5,21-4.63,64.72-18.52,114.45-17.15,61.43-45,111.44-82.85,148.67l-8,7.88c-73.31,72-173.71,170.67-192.14,281.35A8,8,0,0,1,439.81,711.62Z"/></g></svg>