<?xml version="1.0" encoding="utf-8"?>
<!-- Generator: Adobe Illustrator 22.0.1, SVG Export Plug-In . SVG Version: 6.00 Build 0)  -->
<svg version="1.1" id="Layer_1" xmlns="http://www.w3.org/2000/svg" xmlns:xlink="http://www.w3.org/1999/xlink" x="0px" y="0px"
	 viewBox="0 0 800 838" style="enable-background:new 0 0 800 838;" xml:space="preserve">
<style type="text/css">
	.st0{fill:#F2F230;}
	.st1{fill:#3F7F19;}
</style>
<title>winterbreak_838</title>
<g id="vectors">
	<path class="st0" d="M775.9,355.2c-2.9-7.4-10.3-12.1-18.3-11.6c-3.3,0.3-6.5,1.4-9.3,3.2l-42.7,27.4
		c-15.4-9.5-44.4-22.6-76.5-13.3c-7.3-20.7-16.9-40.5-28.5-59.1c-2.9-4.8-8.1-7.7-13.7-7.7H225c-5.7,0-10.9,3-13.8,7.9
		C196,327.9,150,415.6,150,558.1c0,146,63.1,246.9,81.4,273.1c3,4.3,7.9,6.8,13.1,6.8h322.9c5.2,0,10.1-2.5,13.1-6.8
		c10.4-15,35.3-53.9,54.8-111.5c29.7,6.1,56-6,70.3-14.8l42.7,27.4c2.8,1.9,6,3,9.3,3.2c8,0.5,15.4-4.2,18.3-11.6
		C808,642.8,808,436.2,775.9,355.2z M749.2,689l-34.1-21.9c-6.8-4.4-15.7-3.8-21.9,1.5c-6.4,5-13.5,8.9-21,11.8
		c-9.2,3.5-18,4.7-26.3,3.6c10.6-41.1,16-83.4,16-125.9c0-65.3-9.6-119.7-21.6-162.1c9.9-2.5,20.5-1.7,31.9,2.5
		c7.6,2.9,14.7,6.8,21,11.8c6.1,5.3,15.1,5.9,21.9,1.5l34.1-21.9C770.5,456.6,770.5,622.4,749.2,689z"/>
	<path class="st1" d="M682.7,320.2c-0.5-15.6-5.8-26.4-12.6-33.9c38.5-4.3,58.7-45.4,58.7-45.4c-22.6-8.4-40.4-8.5-54.3-4.4
		c-1.1-6,30.1-21.5,31.7-53.4c-63.4,9.4-102.6,37.9-88.9,95.1C629.4,328.8,682.7,320.2,682.7,320.2z"/>
	<path class="st1" d="M682.7,320.2c-0.5-15.6-5.8-26.4-12.6-33.9c38.5-4.3,58.7-45.4,58.7-45.4c-22.6-8.4-40.4-8.5-54.3-4.4
		c-1.1-6,30.1-21.5,31.7-53.4c-63.4,9.4-102.6,37.9-88.9,95.1C629.4,328.8,682.7,320.2,682.7,320.2z"/>
	<path class="st1" d="M650.3,177.4c-33.4,3.7-46,22.4-49.7,22.6c20.2-30.8,10.8-79.7,10.8-79.7c-28.7,14.6-44.8,55.3-50.2,72.9
		c-17.9-43.9-76.5-42.2-76.5-42.2s13.1,43.4,47.3,76.2c-33.1-13.6-63.9-1.7-74.2,5.8c0,0,74.4,50.2,95.4,42.8
		c4.4,6.2,59.2-6.9,91.9-31.8c-12.9-14.4-22.1-14.7-22.1-14.7S655.7,200.8,650.3,177.4z"/>
	<path class="st0" d="M510,450.9c-4.3,0-7.9-3.4-8-7.7c-1.8-55.2,12.8-138.2,92.7-219.8c3.1-3.2,8.2-3.2,11.3-0.1
		c3.2,3.1,3.2,8.2,0.1,11.3l0,0c-76,77.6-89.9,156-88.2,208.1c0.1,4.4-3.3,8.1-7.7,8.3c0,0,0,0,0,0
		C510.2,450.9,510.1,450.9,510,450.9z"/>
	<path class="st0" d="M510.5,450.8c-4.4,0-8-3.6-8-8c0-1,0.2-1.9,0.5-2.9c20-52,84.3-170.7,145.6-184.7c4.3-1,8.6,1.7,9.6,6
		c1,4.3-1.7,8.6-6,9.6C600.8,282.6,538.5,392.3,518,445.7C516.8,448.8,513.8,450.8,510.5,450.8z"/>
</g>
</svg>
