<?xml version="1.0" encoding="utf-8"?>
<!-- Generator: Adobe Illustrator 19.2.0, SVG Export Plug-In . SVG Version: 6.00 Build 0)  -->
<svg version="1.1" id="Layer_1" xmlns="http://www.w3.org/2000/svg" xmlns:xlink="http://www.w3.org/1999/xlink" x="0px" y="0px"
	 width="600px" height="350.1px" viewBox="0 0 600 350.1" style="enable-background:new 0 0 600 350.1;" xml:space="preserve">
<style type="text/css">
	.st0{fill:#FFFFFF;}
</style>
<g>
	<path class="st0" d="M159,15.4c84.8,0,153.9,69.4,153.9,154.7c0,85.7-68.5,154.6-153.7,154.7C74.4,325,5.1,255.3,5.2,170
		C5.3,84.9,74.3,15.4,159,15.4z M159,258.7c48.4,0,87.7-39.6,87.7-88.4c0.1-48.9-39.2-88.6-87.5-88.7c-48.2-0.1-87.9,40-87.9,88.7
		C71.5,219.2,110.6,258.7,159,258.7z"/>
	<path class="st0" d="M549.4,285.2c-16.8,17.1-33.1,33.7-49.5,50.4C445,280.4,390.2,225.4,335.3,170.1C390.1,115,444.9,59.9,499.5,5
		c16.4,16.4,32.7,32.7,49.2,49.2c-38.1,38.4-76.4,77-114.7,115.6C472.4,208.3,510.8,246.7,549.4,285.2z"/>
	<path class="st0" d="M544,93.5c9,8.7,18.1,17.5,27.4,26.5c-16.4,16.7-32.7,33.3-49.2,50.1c16.4,16.7,32.6,33.3,48.7,49.6
		c-9.2,9.2-18.4,18.4-27.7,27.7c-25.2-25.5-50.7-51.3-76.1-77C492.7,144.8,518.3,119.2,544,93.5z"/>
	<path class="st0" d="M577.1,137.4c4.5,4.2,9.1,8.6,13.8,13c-6.6,6.6-13.1,13-19.5,19.5c6.7,6.7,13.2,13.1,19.9,19.7
		c-5,4.7-9.6,9.1-14,13.2c-11-11-22-22-32.8-32.8C555,159.5,565.9,148.6,577.1,137.4z"/>
	<path class="st0" d="M580.4,170.2c2.4-2.7,4.7-5.3,6.7-7.6c2.7,2.7,5.3,5.3,7.7,7.8c-2.2,2.2-4.8,4.8-7.5,7.6
		C585.1,175.5,582.8,172.9,580.4,170.2z"/>
</g>
</svg>
