<?xml version="1.0" encoding="utf-8"?>
<!-- Generator: Adobe Illustrator 17.1.0, SVG Export Plug-In . SVG Version: 6.00 Build 0)  -->
<!DOCTYPE svg PUBLIC "-//W3C//DTD SVG 1.1//EN" "http://www.w3.org/Graphics/SVG/1.1/DTD/svg11.dtd" [
	<!ENTITY ns_flows "http://ns.adobe.com/Flows/1.0/">
	<!ENTITY ns_extend "http://ns.adobe.com/Extensibility/1.0/">
	<!ENTITY ns_ai "http://ns.adobe.com/AdobeIllustrator/10.0/">
	<!ENTITY ns_graphs "http://ns.adobe.com/Graphs/1.0/">
]>
<svg version="1.1" id="Layer_1" xmlns:x="&ns_extend;" xmlns:i="&ns_ai;" xmlns:graph="&ns_graphs;"
	 xmlns="http://www.w3.org/2000/svg" xmlns:xlink="http://www.w3.org/1999/xlink" xmlns:a="http://ns.adobe.com/AdobeSVGViewerExtensions/3.0/"
	 x="0px" y="0px" viewBox="0 0 80.335 93.669" enable-background="new 0 0 80.335 93.669" xml:space="preserve">
<g>
	<ellipse fill="#F27261" cx="40.169" cy="29.381" rx="28.361" ry="29.381"/>
	<path fill="#F27261" d="M80.333,64.888c-1.762-0.447-3.433-1.349-4.812-2.726L64.542,51.183
		c-4.078-4.078-4.078-10.691-0.001-14.767c4.078-4.079,10.691-4.079,14.769,0l1.025,1.025L80.333,64.888z"/>
	<path fill="#F27261" d="M0.003,64.888c1.762-0.447,3.434-1.349,4.812-2.726l10.979-10.979c4.079-4.078,4.079-10.691,0.001-14.767
		c-4.078-4.079-10.691-4.079-14.769,0L0,37.441L0.003,64.888z"/>
	<path fill="#E9C3BB" d="M40.151,60.131c14.08,0,25.492-11.368,25.492-25.4c0-14.027-11.412-25.409-25.492-25.409
		c-14.052,0-25.455,11.381-25.455,25.409C14.695,48.763,26.099,60.131,40.151,60.131z"/>
	<path fill="#F27261" d="M40.149,6.242c-13.549,0-24.78,11.385-26.967,26.303h53.973C64.965,17.627,53.727,6.242,40.149,6.242z"/>
	<path fill="#EE4270" d="M40.169,93.669c21.218,0,38.417-11.159,38.417-24.924c0-0.563-0.038-1.121-0.098-1.678
		c-4.394-0.951-9.061-0.945-14.009-1.127c-12.027-0.446-24.183-0.083-36.202,0.02c-7.407,0.055-14.833,0.007-22.253,0.007
		c-1.458,0.146-2.823,0.377-4.125,0.665c-0.092,0.696-0.147,1.399-0.147,2.112C1.753,82.51,18.951,93.669,40.169,93.669z"/>
	<rect x="24.568" y="62.987" fill="#CB1F4C" width="31.201" height="6.769"/>
	<path fill="#EE4270" d="M73.637,37.045c1.969,0.027,7.601-1.249,3.064-3.273c-3.961-1.767-8.214-1.12-9.223-0.926l0.955-0.933
		c0.348-0.342,0.354-0.9,0.015-1.247c-0.343-0.351-0.899-0.358-1.249-0.017l-0.909,0.885c0.237-1.133,0.909-5.255-0.723-9.163
		c-1.915-4.587-3.322,1.015-3.342,2.983c-0.026,1.969-1.426,2.145-0.719,3.45c0.703,1.307,2.413,3.057,2.413,3.057
		s-3.049-2.055-4.104-2.067c-1.057-0.012-1.921,3.867-1.12,5.171c0.492,0.801,3.271-0.284,4.849-0.747l-1.675,1.956
		c-0.349,0.341-0.515,0.737-0.178,1.085c0.344,0.349,0.741,0.191,1.093-0.15l2.052-1.683c-0.508,1.567-1.694,4.401-0.891,4.92
		c1.286,0.827,5.186,0.065,5.199-0.999c0.01-1.055-1.967-4.151-1.967-4.151s1.707,1.747,2.996,2.485
		C71.458,38.415,71.667,37.025,73.637,37.045z"/>
	<polygon fill="#CB1F4C" points="47.091,76.273 53.145,77.972 53.34,77.86 45.448,63.813 37.302,68.389 45.196,82.437 
		45.393,82.327 	"/>
	<polygon fill="#CB1F4C" points="33.248,76.273 27.193,77.972 26.997,77.86 34.891,63.813 43.036,68.389 35.143,82.437 
		34.946,82.327 	"/>
</g>
</svg>
