<?xml version="1.0" encoding="utf-8"?>
<!-- Generator: Adobe Illustrator 17.1.0, SVG Export Plug-In . SVG Version: 6.00 Build 0)  -->
<!DOCTYPE svg PUBLIC "-//W3C//DTD SVG 1.1//EN" "http://www.w3.org/Graphics/SVG/1.1/DTD/svg11.dtd" [
	<!ENTITY ns_flows "http://ns.adobe.com/Flows/1.0/">
	<!ENTITY ns_extend "http://ns.adobe.com/Extensibility/1.0/">
	<!ENTITY ns_ai "http://ns.adobe.com/AdobeIllustrator/10.0/">
	<!ENTITY ns_graphs "http://ns.adobe.com/Graphs/1.0/">
]>
<svg version="1.1" id="Layer_1" xmlns:x="&ns_extend;" xmlns:i="&ns_ai;" xmlns:graph="&ns_graphs;"
	 xmlns="http://www.w3.org/2000/svg" xmlns:xlink="http://www.w3.org/1999/xlink" xmlns:a="http://ns.adobe.com/AdobeSVGViewerExtensions/3.0/"
	 x="0px" y="0px" viewBox="0 0 88.551 98.264" enable-background="new 0 0 88.551 98.264" xml:space="preserve">
<g>
	<g>
		<g>
			<g>
				<path fill="none" d="M17.868,38.17"/>
				<g>
					<rect x="16.893" y="36.106" fill="none" width="5.087" height="6.259"/>
					<path fill="none" d="M19.195,36.106v1.379c0,0.354-0.287,0.639-0.641,0.639c-0.353,0-0.641-0.285-0.641-0.639v-1.379h-1.019
						v6.259h0.938v-1.557c0-0.399,0.323-0.724,0.723-0.724s0.725,0.325,0.725,0.724v1.557h2.701v-2.339
						c0,0.353-0.284,0.641-0.638,0.641s-0.642-0.288-0.642-0.641V37.27c0-0.354,0.289-0.641,0.642-0.641
						c0.354,0,0.638,0.287,0.638,0.641v-1.163L19.195,36.106L19.195,36.106z"/>
					<path fill="#262626" d="M21.343,36.629c-0.354,0-0.642,0.287-0.642,0.641v2.757c0,0.353,0.289,0.641,0.642,0.641
						c0.354,0,0.638-0.288,0.638-0.641V37.27C21.981,36.916,21.697,36.629,21.343,36.629z"/>
				</g>
			</g>
		</g>
	</g>
	<g>
		<g>
			<g>
				<path id="SVGID_4_" fill="#F27261" d="M45.391,95.782c21.656,0,39.211-11.389,39.211-25.439c0-0.577-0.039-1.146-0.097-1.711
					c-4.485-0.971-9.251-0.965-14.299-1.152c-12.277-0.454-24.684-0.085-36.952,0.022c-7.56,0.055-15.14,0.007-22.713,0.007
					c-1.487,0.149-2.881,0.386-4.212,0.679c-0.092,0.711-0.149,1.429-0.149,2.155C6.181,84.393,23.735,95.782,45.391,95.782z"/>
			</g>
			<g>
				<defs>
					<path id="SVGID_383_" d="M45.391,95.782c21.656,0,39.211-11.389,39.211-25.439c0-0.577-0.039-1.146-0.097-1.711
						c-4.485-0.971-9.251-0.965-14.299-1.152c-12.277-0.454-24.684-0.085-36.952,0.022c-7.56,0.055-15.14,0.007-22.713,0.007
						c-1.487,0.149-2.881,0.386-4.212,0.679c-0.092,0.711-0.149,1.429-0.149,2.155C6.181,84.393,23.735,95.782,45.391,95.782z"/>
				</defs>
				<clipPath id="SVGID_2_">
					<use xlink:href="#SVGID_383_"  overflow="visible"/>
				</clipPath>
				<g clip-path="url(#SVGID_2_)">
					<rect x="77.481" y="65.055" fill="#F27261" width="11.07" height="11.07"/>
					<rect x="77.481" y="65.055" fill="#F27261" width="5.534" height="5.536"/>
					<rect x="83.015" y="65.055" fill="#F27261" width="5.535" height="5.536"/>
					<rect x="83.015" y="70.591" fill="#F27261" width="5.535" height="5.534"/>
					<rect x="77.481" y="70.591" fill="#F27261" width="5.534" height="5.534"/>
				</g>
			</g>
			<g>
				<defs>
					<path id="SVGID_385_" d="M45.391,95.782c21.656,0,39.211-11.389,39.211-25.439c0-0.577-0.039-1.146-0.097-1.711
						c-4.485-0.971-9.251-0.965-14.299-1.152c-12.277-0.454-24.684-0.085-36.952,0.022c-7.56,0.055-15.14,0.007-22.713,0.007
						c-1.487,0.149-2.881,0.386-4.212,0.679c-0.092,0.711-0.149,1.429-0.149,2.155C6.181,84.393,23.735,95.782,45.391,95.782z"/>
				</defs>
				<clipPath id="SVGID_3_">
					<use xlink:href="#SVGID_385_"  overflow="visible"/>
				</clipPath>
				<g clip-path="url(#SVGID_3_)">
					<rect x="77.481" y="76.127" fill="#F27261" width="11.07" height="11.067"/>
					<rect x="77.481" y="76.127" fill="#F27261" width="5.534" height="5.534"/>
					<rect x="83.015" y="76.127" fill="#F27261" width="5.535" height="5.534"/>
					<rect x="83.015" y="81.661" fill="#F27261" width="5.535" height="5.533"/>
					<rect x="77.481" y="81.661" fill="#F27261" width="5.534" height="5.533"/>
				</g>
			</g>
			<g>
				<defs>
					<path id="SVGID_387_" d="M45.391,95.782c21.656,0,39.211-11.389,39.211-25.439c0-0.577-0.039-1.146-0.097-1.711
						c-4.485-0.971-9.251-0.965-14.299-1.152c-12.277-0.454-24.684-0.085-36.952,0.022c-7.56,0.055-15.14,0.007-22.713,0.007
						c-1.487,0.149-2.881,0.386-4.212,0.679c-0.092,0.711-0.149,1.429-0.149,2.155C6.181,84.393,23.735,95.782,45.391,95.782z"/>
				</defs>
				<clipPath id="SVGID_5_">
					<use xlink:href="#SVGID_387_"  overflow="visible"/>
				</clipPath>
				<g clip-path="url(#SVGID_5_)">
					<rect x="77.481" y="87.194" fill="#F27261" width="11.07" height="11.07"/>
					<rect x="77.481" y="87.194" fill="#F27261" width="5.534" height="5.535"/>
					<rect x="83.015" y="87.194" fill="#F27261" width="5.535" height="5.535"/>
					<rect x="83.015" y="92.729" fill="#F27261" width="5.535" height="5.534"/>
					<rect x="77.481" y="92.729" fill="#F27261" width="5.534" height="5.534"/>
				</g>
			</g>
			<g>
				<defs>
					<path id="SVGID_389_" d="M45.391,95.782c21.656,0,39.211-11.389,39.211-25.439c0-0.577-0.039-1.146-0.097-1.711
						c-4.485-0.971-9.251-0.965-14.299-1.152c-12.277-0.454-24.684-0.085-36.952,0.022c-7.56,0.055-15.14,0.007-22.713,0.007
						c-1.487,0.149-2.881,0.386-4.212,0.679c-0.092,0.711-0.149,1.429-0.149,2.155C6.181,84.393,23.735,95.782,45.391,95.782z"/>
				</defs>
				<clipPath id="SVGID_6_">
					<use xlink:href="#SVGID_389_"  overflow="visible"/>
				</clipPath>
				<g clip-path="url(#SVGID_6_)">
					<rect x="66.414" y="65.055" fill="#F27261" width="11.067" height="11.07"/>
					<rect x="66.414" y="65.055" fill="#F27261" width="5.534" height="5.536"/>
					<rect x="71.948" y="65.055" fill="#F27261" width="5.533" height="5.536"/>
					<rect x="71.948" y="70.591" fill="#F27261" width="5.533" height="5.534"/>
					<rect x="66.414" y="70.591" fill="#F27261" width="5.534" height="5.534"/>
				</g>
			</g>
			<g>
				<defs>
					<path id="SVGID_391_" d="M45.391,95.782c21.656,0,39.211-11.389,39.211-25.439c0-0.577-0.039-1.146-0.097-1.711
						c-4.485-0.971-9.251-0.965-14.299-1.152c-12.277-0.454-24.684-0.085-36.952,0.022c-7.56,0.055-15.14,0.007-22.713,0.007
						c-1.487,0.149-2.881,0.386-4.212,0.679c-0.092,0.711-0.149,1.429-0.149,2.155C6.181,84.393,23.735,95.782,45.391,95.782z"/>
				</defs>
				<clipPath id="SVGID_7_">
					<use xlink:href="#SVGID_391_"  overflow="visible"/>
				</clipPath>
				<g clip-path="url(#SVGID_7_)">
					<rect x="66.414" y="76.127" fill="#F27261" width="11.067" height="11.067"/>
					<rect x="66.414" y="76.127" fill="#F27261" width="5.534" height="5.534"/>
					<rect x="71.948" y="76.127" fill="#F27261" width="5.533" height="5.534"/>
					<rect x="71.948" y="81.661" fill="#F27261" width="5.533" height="5.533"/>
					<rect x="66.414" y="81.661" fill="#F27261" width="5.534" height="5.533"/>
				</g>
			</g>
			<g>
				<defs>
					<path id="SVGID_393_" d="M45.391,95.782c21.656,0,39.211-11.389,39.211-25.439c0-0.577-0.039-1.146-0.097-1.711
						c-4.485-0.971-9.251-0.965-14.299-1.152c-12.277-0.454-24.684-0.085-36.952,0.022c-7.56,0.055-15.14,0.007-22.713,0.007
						c-1.487,0.149-2.881,0.386-4.212,0.679c-0.092,0.711-0.149,1.429-0.149,2.155C6.181,84.393,23.735,95.782,45.391,95.782z"/>
				</defs>
				<clipPath id="SVGID_8_">
					<use xlink:href="#SVGID_393_"  overflow="visible"/>
				</clipPath>
				<g clip-path="url(#SVGID_8_)">
					<rect x="66.414" y="87.194" fill="#F27261" width="11.067" height="11.07"/>
					<rect x="66.414" y="87.194" fill="#F27261" width="5.534" height="5.535"/>
					<rect x="71.948" y="87.194" fill="#F27261" width="5.533" height="5.535"/>
					<rect x="71.948" y="92.729" fill="#F27261" width="5.533" height="5.534"/>
					<rect x="66.414" y="92.729" fill="#F27261" width="5.534" height="5.534"/>
				</g>
			</g>
			<g>
				<defs>
					<path id="SVGID_395_" d="M45.391,95.782c21.656,0,39.211-11.389,39.211-25.439c0-0.577-0.039-1.146-0.097-1.711
						c-4.485-0.971-9.251-0.965-14.299-1.152c-12.277-0.454-24.684-0.085-36.952,0.022c-7.56,0.055-15.14,0.007-22.713,0.007
						c-1.487,0.149-2.881,0.386-4.212,0.679c-0.092,0.711-0.149,1.429-0.149,2.155C6.181,84.393,23.735,95.782,45.391,95.782z"/>
				</defs>
				<clipPath id="SVGID_9_">
					<use xlink:href="#SVGID_395_"  overflow="visible"/>
				</clipPath>
				<g clip-path="url(#SVGID_9_)">
					<rect x="55.344" y="65.055" fill="#F27261" width="11.07" height="11.07"/>
					<rect x="55.344" y="65.055" fill="#F27261" width="5.535" height="5.536"/>
					<rect x="60.88" y="65.055" fill="#F27261" width="5.534" height="5.536"/>
					<rect x="60.88" y="70.591" fill="#F27261" width="5.534" height="5.534"/>
					<rect x="55.344" y="70.591" fill="#F27261" width="5.535" height="5.534"/>
				</g>
			</g>
			<g>
				<defs>
					<path id="SVGID_397_" d="M45.391,95.782c21.656,0,39.211-11.389,39.211-25.439c0-0.577-0.039-1.146-0.097-1.711
						c-4.485-0.971-9.251-0.965-14.299-1.152c-12.277-0.454-24.684-0.085-36.952,0.022c-7.56,0.055-15.14,0.007-22.713,0.007
						c-1.487,0.149-2.881,0.386-4.212,0.679c-0.092,0.711-0.149,1.429-0.149,2.155C6.181,84.393,23.735,95.782,45.391,95.782z"/>
				</defs>
				<clipPath id="SVGID_10_">
					<use xlink:href="#SVGID_397_"  overflow="visible"/>
				</clipPath>
				<g clip-path="url(#SVGID_10_)">
					<rect x="55.344" y="76.127" fill="#F27261" width="11.07" height="11.067"/>
					<rect x="55.344" y="76.127" fill="#F27261" width="5.535" height="5.534"/>
					<rect x="60.88" y="76.127" fill="#F27261" width="5.534" height="5.534"/>
					<rect x="60.88" y="81.661" fill="#F27261" width="5.534" height="5.533"/>
					<rect x="55.344" y="81.661" fill="#F27261" width="5.535" height="5.533"/>
				</g>
			</g>
			<g>
				<defs>
					<path id="SVGID_399_" d="M45.391,95.782c21.656,0,39.211-11.389,39.211-25.439c0-0.577-0.039-1.146-0.097-1.711
						c-4.485-0.971-9.251-0.965-14.299-1.152c-12.277-0.454-24.684-0.085-36.952,0.022c-7.56,0.055-15.14,0.007-22.713,0.007
						c-1.487,0.149-2.881,0.386-4.212,0.679c-0.092,0.711-0.149,1.429-0.149,2.155C6.181,84.393,23.735,95.782,45.391,95.782z"/>
				</defs>
				<clipPath id="SVGID_11_">
					<use xlink:href="#SVGID_399_"  overflow="visible"/>
				</clipPath>
				<g clip-path="url(#SVGID_11_)">
					<rect x="55.344" y="87.194" fill="#F27261" width="11.07" height="11.07"/>
					<rect x="55.344" y="87.194" fill="#F27261" width="5.535" height="5.535"/>
					<rect x="60.88" y="87.194" fill="#F27261" width="5.534" height="5.535"/>
					<rect x="60.88" y="92.729" fill="#F27261" width="5.534" height="5.534"/>
					<rect x="55.344" y="92.729" fill="#F27261" width="5.535" height="5.534"/>
				</g>
			</g>
			<g>
				<defs>
					<path id="SVGID_401_" d="M45.391,95.782c21.656,0,39.211-11.389,39.211-25.439c0-0.577-0.039-1.146-0.097-1.711
						c-4.485-0.971-9.251-0.965-14.299-1.152c-12.277-0.454-24.684-0.085-36.952,0.022c-7.56,0.055-15.14,0.007-22.713,0.007
						c-1.487,0.149-2.881,0.386-4.212,0.679c-0.092,0.711-0.149,1.429-0.149,2.155C6.181,84.393,23.735,95.782,45.391,95.782z"/>
				</defs>
				<clipPath id="SVGID_12_">
					<use xlink:href="#SVGID_401_"  overflow="visible"/>
				</clipPath>
				<g clip-path="url(#SVGID_12_)">
					<rect x="44.276" y="65.055" fill="#F27261" width="11.069" height="11.07"/>
					<rect x="44.276" y="65.055" fill="#F27261" width="5.534" height="5.536"/>
					<rect x="49.81" y="65.055" fill="#F27261" width="5.534" height="5.536"/>
					<rect x="49.81" y="70.591" fill="#F27261" width="5.534" height="5.534"/>
					<rect x="44.276" y="70.591" fill="#F27261" width="5.534" height="5.534"/>
				</g>
			</g>
			<g>
				<defs>
					<path id="SVGID_403_" d="M45.391,95.782c21.656,0,39.211-11.389,39.211-25.439c0-0.577-0.039-1.146-0.097-1.711
						c-4.485-0.971-9.251-0.965-14.299-1.152c-12.277-0.454-24.684-0.085-36.952,0.022c-7.56,0.055-15.14,0.007-22.713,0.007
						c-1.487,0.149-2.881,0.386-4.212,0.679c-0.092,0.711-0.149,1.429-0.149,2.155C6.181,84.393,23.735,95.782,45.391,95.782z"/>
				</defs>
				<clipPath id="SVGID_13_">
					<use xlink:href="#SVGID_403_"  overflow="visible"/>
				</clipPath>
				<g clip-path="url(#SVGID_13_)">
					<rect x="44.276" y="76.127" fill="#F27261" width="11.069" height="11.067"/>
					<rect x="44.276" y="76.127" fill="#F27261" width="5.534" height="5.534"/>
					<rect x="49.81" y="76.127" fill="#F27261" width="5.534" height="5.534"/>
					<rect x="49.81" y="81.661" fill="#F27261" width="5.534" height="5.533"/>
					<rect x="44.276" y="81.661" fill="#F27261" width="5.534" height="5.533"/>
				</g>
			</g>
			<g>
				<defs>
					<path id="SVGID_405_" d="M45.391,95.782c21.656,0,39.211-11.389,39.211-25.439c0-0.577-0.039-1.146-0.097-1.711
						c-4.485-0.971-9.251-0.965-14.299-1.152c-12.277-0.454-24.684-0.085-36.952,0.022c-7.56,0.055-15.14,0.007-22.713,0.007
						c-1.487,0.149-2.881,0.386-4.212,0.679c-0.092,0.711-0.149,1.429-0.149,2.155C6.181,84.393,23.735,95.782,45.391,95.782z"/>
				</defs>
				<clipPath id="SVGID_14_">
					<use xlink:href="#SVGID_405_"  overflow="visible"/>
				</clipPath>
				<g clip-path="url(#SVGID_14_)">
					<rect x="44.276" y="87.194" fill="#F27261" width="11.069" height="11.07"/>
					<rect x="44.276" y="87.194" fill="#F27261" width="5.534" height="5.535"/>
					<rect x="49.81" y="87.194" fill="#F27261" width="5.534" height="5.535"/>
					<rect x="49.81" y="92.729" fill="#F27261" width="5.534" height="5.534"/>
					<rect x="44.276" y="92.729" fill="#F27261" width="5.534" height="5.534"/>
				</g>
			</g>
			<g>
				<defs>
					<path id="SVGID_407_" d="M45.391,95.782c21.656,0,39.211-11.389,39.211-25.439c0-0.577-0.039-1.146-0.097-1.711
						c-4.485-0.971-9.251-0.965-14.299-1.152c-12.277-0.454-24.684-0.085-36.952,0.022c-7.56,0.055-15.14,0.007-22.713,0.007
						c-1.487,0.149-2.881,0.386-4.212,0.679c-0.092,0.711-0.149,1.429-0.149,2.155C6.181,84.393,23.735,95.782,45.391,95.782z"/>
				</defs>
				<clipPath id="SVGID_15_">
					<use xlink:href="#SVGID_407_"  overflow="visible"/>
				</clipPath>
				<g clip-path="url(#SVGID_15_)">
					<rect x="33.206" y="65.055" fill="#F27261" width="11.07" height="11.07"/>
					<rect x="33.206" y="65.055" fill="#F27261" width="5.534" height="5.536"/>
					<rect x="38.741" y="65.055" fill="#F27261" width="5.535" height="5.536"/>
					<rect x="38.741" y="70.591" fill="#F27261" width="5.535" height="5.534"/>
					<rect x="33.206" y="70.591" fill="#F27261" width="5.534" height="5.534"/>
				</g>
			</g>
			<g>
				<defs>
					<path id="SVGID_409_" d="M45.391,95.782c21.656,0,39.211-11.389,39.211-25.439c0-0.577-0.039-1.146-0.097-1.711
						c-4.485-0.971-9.251-0.965-14.299-1.152c-12.277-0.454-24.684-0.085-36.952,0.022c-7.56,0.055-15.14,0.007-22.713,0.007
						c-1.487,0.149-2.881,0.386-4.212,0.679c-0.092,0.711-0.149,1.429-0.149,2.155C6.181,84.393,23.735,95.782,45.391,95.782z"/>
				</defs>
				<clipPath id="SVGID_16_">
					<use xlink:href="#SVGID_409_"  overflow="visible"/>
				</clipPath>
				<g clip-path="url(#SVGID_16_)">
					<rect x="33.206" y="76.127" fill="#F27261" width="11.07" height="11.067"/>
					<rect x="33.206" y="76.127" fill="#F27261" width="5.534" height="5.534"/>
					<rect x="38.741" y="76.127" fill="#F27261" width="5.535" height="5.534"/>
					<rect x="38.741" y="81.661" fill="#F27261" width="5.535" height="5.533"/>
					<rect x="33.206" y="81.661" fill="#F27261" width="5.534" height="5.533"/>
				</g>
			</g>
			<g>
				<defs>
					<path id="SVGID_411_" d="M45.391,95.782c21.656,0,39.211-11.389,39.211-25.439c0-0.577-0.039-1.146-0.097-1.711
						c-4.485-0.971-9.251-0.965-14.299-1.152c-12.277-0.454-24.684-0.085-36.952,0.022c-7.56,0.055-15.14,0.007-22.713,0.007
						c-1.487,0.149-2.881,0.386-4.212,0.679c-0.092,0.711-0.149,1.429-0.149,2.155C6.181,84.393,23.735,95.782,45.391,95.782z"/>
				</defs>
				<clipPath id="SVGID_17_">
					<use xlink:href="#SVGID_411_"  overflow="visible"/>
				</clipPath>
				<g clip-path="url(#SVGID_17_)">
					<rect x="33.206" y="87.194" fill="#F27261" width="11.07" height="11.07"/>
					<rect x="33.206" y="87.194" fill="#F27261" width="5.534" height="5.535"/>
					<rect x="38.741" y="87.194" fill="#F27261" width="5.535" height="5.535"/>
					<rect x="38.741" y="92.729" fill="#F27261" width="5.535" height="5.534"/>
					<rect x="33.206" y="92.729" fill="#F27261" width="5.534" height="5.534"/>
				</g>
			</g>
			<g>
				<defs>
					<path id="SVGID_413_" d="M45.391,95.782c21.656,0,39.211-11.389,39.211-25.439c0-0.577-0.039-1.146-0.097-1.711
						c-4.485-0.971-9.251-0.965-14.299-1.152c-12.277-0.454-24.684-0.085-36.952,0.022c-7.56,0.055-15.14,0.007-22.713,0.007
						c-1.487,0.149-2.881,0.386-4.212,0.679c-0.092,0.711-0.149,1.429-0.149,2.155C6.181,84.393,23.735,95.782,45.391,95.782z"/>
				</defs>
				<clipPath id="SVGID_18_">
					<use xlink:href="#SVGID_413_"  overflow="visible"/>
				</clipPath>
				<g clip-path="url(#SVGID_18_)">
					<rect x="22.138" y="65.055" fill="#F27261" width="11.069" height="11.07"/>
					<rect x="22.138" y="65.055" fill="#F27261" width="5.534" height="5.536"/>
					<rect x="27.672" y="65.055" fill="#F27261" width="5.534" height="5.536"/>
					<rect x="27.672" y="70.591" fill="#F27261" width="5.534" height="5.534"/>
					<rect x="22.138" y="70.591" fill="#F27261" width="5.534" height="5.534"/>
				</g>
			</g>
			<g>
				<defs>
					<path id="SVGID_415_" d="M45.391,95.782c21.656,0,39.211-11.389,39.211-25.439c0-0.577-0.039-1.146-0.097-1.711
						c-4.485-0.971-9.251-0.965-14.299-1.152c-12.277-0.454-24.684-0.085-36.952,0.022c-7.56,0.055-15.14,0.007-22.713,0.007
						c-1.487,0.149-2.881,0.386-4.212,0.679c-0.092,0.711-0.149,1.429-0.149,2.155C6.181,84.393,23.735,95.782,45.391,95.782z"/>
				</defs>
				<clipPath id="SVGID_19_">
					<use xlink:href="#SVGID_415_"  overflow="visible"/>
				</clipPath>
				<g clip-path="url(#SVGID_19_)">
					<rect x="22.138" y="76.127" fill="#F27261" width="11.069" height="11.067"/>
					<rect x="22.138" y="76.127" fill="#F27261" width="5.534" height="5.534"/>
					<rect x="27.672" y="76.127" fill="#F27261" width="5.534" height="5.534"/>
					<rect x="27.672" y="81.661" fill="#F27261" width="5.534" height="5.533"/>
					<rect x="22.138" y="81.661" fill="#F27261" width="5.534" height="5.533"/>
				</g>
			</g>
			<g>
				<defs>
					<path id="SVGID_417_" d="M45.391,95.782c21.656,0,39.211-11.389,39.211-25.439c0-0.577-0.039-1.146-0.097-1.711
						c-4.485-0.971-9.251-0.965-14.299-1.152c-12.277-0.454-24.684-0.085-36.952,0.022c-7.56,0.055-15.14,0.007-22.713,0.007
						c-1.487,0.149-2.881,0.386-4.212,0.679c-0.092,0.711-0.149,1.429-0.149,2.155C6.181,84.393,23.735,95.782,45.391,95.782z"/>
				</defs>
				<clipPath id="SVGID_20_">
					<use xlink:href="#SVGID_417_"  overflow="visible"/>
				</clipPath>
				<g clip-path="url(#SVGID_20_)">
					<rect x="22.138" y="87.194" fill="#F27261" width="11.069" height="11.07"/>
					<rect x="22.138" y="87.194" fill="#F27261" width="5.534" height="5.535"/>
					<rect x="27.672" y="87.194" fill="#F27261" width="5.534" height="5.535"/>
					<rect x="27.672" y="92.729" fill="#F27261" width="5.534" height="5.534"/>
					<rect x="22.138" y="92.729" fill="#F27261" width="5.534" height="5.534"/>
				</g>
			</g>
			<g>
				<defs>
					<path id="SVGID_419_" d="M45.391,95.782c21.656,0,39.211-11.389,39.211-25.439c0-0.577-0.039-1.146-0.097-1.711
						c-4.485-0.971-9.251-0.965-14.299-1.152c-12.277-0.454-24.684-0.085-36.952,0.022c-7.56,0.055-15.14,0.007-22.713,0.007
						c-1.487,0.149-2.881,0.386-4.212,0.679c-0.092,0.711-0.149,1.429-0.149,2.155C6.181,84.393,23.735,95.782,45.391,95.782z"/>
				</defs>
				<clipPath id="SVGID_21_">
					<use xlink:href="#SVGID_419_"  overflow="visible"/>
				</clipPath>
				<g clip-path="url(#SVGID_21_)">
					<rect x="11.069" y="65.055" fill="#F27261" width="11.069" height="11.07"/>
					<rect x="11.069" y="65.055" fill="#F27261" width="5.534" height="5.536"/>
					<rect x="16.604" y="65.055" fill="#F27261" width="5.534" height="5.536"/>
					<rect x="16.604" y="70.591" fill="#F27261" width="5.534" height="5.534"/>
					<rect x="11.069" y="70.591" fill="#F27261" width="5.534" height="5.534"/>
				</g>
			</g>
			<g>
				<defs>
					<path id="SVGID_421_" d="M45.391,95.782c21.656,0,39.211-11.389,39.211-25.439c0-0.577-0.039-1.146-0.097-1.711
						c-4.485-0.971-9.251-0.965-14.299-1.152c-12.277-0.454-24.684-0.085-36.952,0.022c-7.56,0.055-15.14,0.007-22.713,0.007
						c-1.487,0.149-2.881,0.386-4.212,0.679c-0.092,0.711-0.149,1.429-0.149,2.155C6.181,84.393,23.735,95.782,45.391,95.782z"/>
				</defs>
				<clipPath id="SVGID_22_">
					<use xlink:href="#SVGID_421_"  overflow="visible"/>
				</clipPath>
				<g clip-path="url(#SVGID_22_)">
					<rect x="11.069" y="76.127" fill="#F27261" width="11.069" height="11.067"/>
					<rect x="11.069" y="76.127" fill="#F27261" width="5.534" height="5.534"/>
					<rect x="16.604" y="76.127" fill="#F27261" width="5.534" height="5.534"/>
					<rect x="16.604" y="81.661" fill="#F27261" width="5.534" height="5.533"/>
					<rect x="11.069" y="81.661" fill="#F27261" width="5.534" height="5.533"/>
				</g>
			</g>
			<g>
				<defs>
					<path id="SVGID_423_" d="M45.391,95.782c21.656,0,39.211-11.389,39.211-25.439c0-0.577-0.039-1.146-0.097-1.711
						c-4.485-0.971-9.251-0.965-14.299-1.152c-12.277-0.454-24.684-0.085-36.952,0.022c-7.56,0.055-15.14,0.007-22.713,0.007
						c-1.487,0.149-2.881,0.386-4.212,0.679c-0.092,0.711-0.149,1.429-0.149,2.155C6.181,84.393,23.735,95.782,45.391,95.782z"/>
				</defs>
				<clipPath id="SVGID_23_">
					<use xlink:href="#SVGID_423_"  overflow="visible"/>
				</clipPath>
				<g clip-path="url(#SVGID_23_)">
					<rect x="11.069" y="87.194" fill="#F27261" width="11.069" height="11.07"/>
					<rect x="11.069" y="87.194" fill="#F27261" width="5.534" height="5.535"/>
					<rect x="16.604" y="87.194" fill="#F27261" width="5.534" height="5.535"/>
					<rect x="16.604" y="92.729" fill="#F27261" width="5.534" height="5.534"/>
					<rect x="11.069" y="92.729" fill="#F27261" width="5.534" height="5.534"/>
				</g>
			</g>
			<g>
				<defs>
					<path id="SVGID_425_" d="M45.391,95.782c21.656,0,39.211-11.389,39.211-25.439c0-0.577-0.039-1.146-0.097-1.711
						c-4.485-0.971-9.251-0.965-14.299-1.152c-12.277-0.454-24.684-0.085-36.952,0.022c-7.56,0.055-15.14,0.007-22.713,0.007
						c-1.487,0.149-2.881,0.386-4.212,0.679c-0.092,0.711-0.149,1.429-0.149,2.155C6.181,84.393,23.735,95.782,45.391,95.782z"/>
				</defs>
				<clipPath id="SVGID_24_">
					<use xlink:href="#SVGID_425_"  overflow="visible"/>
				</clipPath>
				<g clip-path="url(#SVGID_24_)">
					<rect x="0" y="65.055" fill="#F27261" width="11.07" height="11.07"/>
					<rect x="0" y="65.055" fill="#F27261" width="5.534" height="5.536"/>
					<rect x="5.534" y="65.055" fill="#F27261" width="5.535" height="5.536"/>
					<rect x="5.534" y="70.591" fill="#F27261" width="5.535" height="5.534"/>
					<rect x="0" y="70.591" fill="#F27261" width="5.534" height="5.534"/>
				</g>
			</g>
			<g>
				<defs>
					<path id="SVGID_427_" d="M45.391,95.782c21.656,0,39.211-11.389,39.211-25.439c0-0.577-0.039-1.146-0.097-1.711
						c-4.485-0.971-9.251-0.965-14.299-1.152c-12.277-0.454-24.684-0.085-36.952,0.022c-7.56,0.055-15.14,0.007-22.713,0.007
						c-1.487,0.149-2.881,0.386-4.212,0.679c-0.092,0.711-0.149,1.429-0.149,2.155C6.181,84.393,23.735,95.782,45.391,95.782z"/>
				</defs>
				<clipPath id="SVGID_25_">
					<use xlink:href="#SVGID_427_"  overflow="visible"/>
				</clipPath>
				<g clip-path="url(#SVGID_25_)">
					<rect x="0" y="76.127" fill="#F27261" width="11.07" height="11.067"/>
					<rect x="0" y="76.127" fill="#F27261" width="5.534" height="5.534"/>
					<rect x="5.534" y="76.127" fill="#F27261" width="5.535" height="5.534"/>
					<rect x="5.534" y="81.661" fill="#F27261" width="5.535" height="5.533"/>
					<rect x="0" y="81.661" fill="#F27261" width="5.534" height="5.533"/>
				</g>
			</g>
			<g>
				<defs>
					<path id="SVGID_429_" d="M45.391,95.782c21.656,0,39.211-11.389,39.211-25.439c0-0.577-0.039-1.146-0.097-1.711
						c-4.485-0.971-9.251-0.965-14.299-1.152c-12.277-0.454-24.684-0.085-36.952,0.022c-7.56,0.055-15.14,0.007-22.713,0.007
						c-1.487,0.149-2.881,0.386-4.212,0.679c-0.092,0.711-0.149,1.429-0.149,2.155C6.181,84.393,23.735,95.782,45.391,95.782z"/>
				</defs>
				<clipPath id="SVGID_26_">
					<use xlink:href="#SVGID_429_"  overflow="visible"/>
				</clipPath>
				<g clip-path="url(#SVGID_26_)">
					<rect x="0" y="87.194" fill="#F27261" width="11.07" height="11.07"/>
					<rect x="0" y="87.194" fill="#F27261" width="5.534" height="5.535"/>
					<rect x="5.534" y="87.194" fill="#F27261" width="5.535" height="5.535"/>
					<rect x="5.534" y="92.729" fill="#F27261" width="5.535" height="5.534"/>
					<rect x="0" y="92.729" fill="#F27261" width="5.534" height="5.534"/>
				</g>
			</g>
		</g>
	</g>
	<g>
		<path fill="#E9C3BB" d="M71.795,46.324c0,14.581-11.82,26.401-26.404,26.401l0,0c-14.581,0-26.402-11.82-26.402-26.401V35.553
			c0-14.584,11.821-26.405,26.402-26.405l0,0c14.584,0,26.404,11.821,26.404,26.405V46.324z"/>
	</g>
	<g>
		<path fill="#FDE466" d="M69.919,40.643l2.573-9.147c0-15.624-11.435-28.293-27.063-28.293h-1.307
			c-15.627,0-25.833,12.669-25.833,28.293l1.833,9.131L69.919,40.643z"/>
	</g>
	<g>
		<path fill="#E9C3BB" d="M19.308,32.837c0,14.405,11.681,26.082,26.073,26.082c14.421,0,26.095-11.677,26.095-26.082
			c0-2.433-0.357-4.779-0.98-7.014H20.29C19.665,28.059,19.308,30.403,19.308,32.837z"/>
	</g>
	<g>
		<g>
			<path fill="#FDE466" d="M50.401,8.242l0.155-0.615c-1.647-1.229-2.967-2.317-5.341-2.305c-2.017,0.009-4.069,0.409-6.073,0.579
				c-4.114,0.351-9.034,0.749-12.229,3.568c-1.505,1.327-2.866,2.659-4.11,4.162c0.042,0.172,0.07,0.348,0.07,0.531
				c0,0.46-0.144,0.884-0.385,1.244c-0.083,0.199-0.188,0.391-0.329,0.565c-0.187,0.435-0.574,0.83-0.947,1.049
				c-0.237,0.139-0.498,0.224-0.763,0.271c-0.551,1.244-0.965,2.535-1.531,3.837c-0.871,2.007-1.515,3.629-1.579,5.881
				c-0.042,1.474-0.603,3.909,0.01,5.173c1.203-0.881,0.434-2.267,1.337-2.977c0.795,1.63,1.667,3.009,2.147,4.817
				c1.187-2.753,2.467-5.058,4.918-7.063c1.426-1.168,3.098-1.391,4.389-2.792c1.044-1.131,3.015-2.71,3.363-4.239
				c0.172,1.985-1.043,5.119-2.185,6.699c2.099-0.68,4.174-2.701,6.172-3.746c2.068-1.082,4.312-1.768,6.392-2.828
				c2.779-1.416,4.538-3.424,5.683-6.327C50.063,12.467,51.023,9.529,50.401,8.242z"/>
		</g>
		<g>
			<path fill="#FDE466" d="M71.625,28.045c-0.601-2.137-1.874-4.039-2.273-6.232c1.345-0.288,2.415,1.191,3.641,0.562
				c-1.076-2.004-3.23-3.65-4.43-5.697c-1.296-0.192-2.505-0.655-3.415-1.767c-0.328-0.401-0.541-0.863-0.617-1.338
				c-0.482-0.258-0.969-0.513-1.442-0.795c-2.946-1.757-4.359-4.295-6.874-6.423c-1.95-1.649-5.389-1.617-7.828-1.497
				c-0.893,0.047-3.051,0.165-3.227,1.419c-0.103,0.75,1.628,3.188,2.167,3.811c1.035,0.675,1.645,3.071,2.419,4.152
				c0.989,1.382,2.106,2.681,3.149,4.017c1.053,1.351,2.081,2.774,2.929,4.273c0.862,1.529,1.318,3.233,2.611,4.478
				c2.712,2.611,5.41,1.168,8.571,1.991c1.708,0.444,2.469,1.844,3.478,3.197c1.099,1.477,1.484,1.289,3.236,1.837
				C72.442,32.839,72.085,29.679,71.625,28.045z"/>
		</g>
	</g>
	<g>
		<path fill="#0C6667" d="M44.683,0C34.209,0,25.135,6.536,20.638,16.084h48.108C64.25,6.537,55.177,0,44.683,0z"/>
	</g>
	<g>
		<path fill="#D5B129" d="M59.929,51.108c0,0,0.771,2.335-2.467,2.728c-3.204,0.393-4.04-1.523-7.065-2.228
			c-2.109-0.492-3.986-0.485-5.005,0.371c-1.019-0.856-2.9-0.863-5.007-0.371c-3.023,0.705-3.858,2.621-7.063,2.228
			c-3.239-0.393-2.467-2.728-2.467-2.728s-2.653,5.77,7.85,5.763c3.134,0,5.517-0.446,6.687-1.439
			c1.171,0.993,3.553,1.439,6.689,1.439C62.583,56.878,59.929,51.108,59.929,51.108z"/>
	</g>
	<g>
		<rect x="20.689" y="14.854" fill="#4DC7E5" width="48.007" height="2.46"/>
	</g>
	<g>
		<g>
			<path fill="#352F31" d="M63.319,17.028c-1.137-7.79-9.041-13.825-18.627-13.825c-9.587,0-17.491,6.035-18.628,13.825H63.319z"/>
		</g>
	</g>
</g>
</svg>
