<?xml version="1.0" encoding="utf-8"?>
<!-- Generator: Adobe Illustrator 17.1.0, SVG Export Plug-In . SVG Version: 6.00 Build 0)  -->
<!DOCTYPE svg PUBLIC "-//W3C//DTD SVG 1.1//EN" "http://www.w3.org/Graphics/SVG/1.1/DTD/svg11.dtd" [
	<!ENTITY ns_flows "http://ns.adobe.com/Flows/1.0/">
	<!ENTITY ns_extend "http://ns.adobe.com/Extensibility/1.0/">
	<!ENTITY ns_ai "http://ns.adobe.com/AdobeIllustrator/10.0/">
	<!ENTITY ns_graphs "http://ns.adobe.com/Graphs/1.0/">
]>
<svg version="1.1" id="Layer_1" xmlns:x="&ns_extend;" xmlns:i="&ns_ai;" xmlns:graph="&ns_graphs;"
	 xmlns="http://www.w3.org/2000/svg" xmlns:xlink="http://www.w3.org/1999/xlink" xmlns:a="http://ns.adobe.com/AdobeSVGViewerExtensions/3.0/"
	 x="0px" y="0px" viewBox="0 0 77.381 91.349" enable-background="new 0 0 77.381 91.349" xml:space="preserve">
<pattern  x="-980.985" y="-1468.025" width="2.737" height="3.367" patternUnits="userSpaceOnUse" id="SVGID_2_" viewBox="0 -3.367 2.737 3.367" overflow="visible">
	<g>
		<polygon fill="none" points="0,0 2.737,0 2.737,-3.367 0,-3.367 		"/>
		<g>
			<polygon fill="none" points="0,-3.367 2.737,-3.367 2.737,0 0,0 			"/>
			<path fill="none" d="M1.237,0v-0.741c0-0.191-0.153-0.345-0.344-0.345c-0.19,0-0.345,0.154-0.345,0.345V0H0v-3.367h0.504v0.837
				c0,0.215,0.175,0.389,0.389,0.389S1.283-2.315,1.283-2.53v-0.837h1.455v1.259c0-0.191-0.153-0.345-0.344-0.345
				c-0.19,0-0.345,0.154-0.345,0.345v1.483c0,0.19,0.155,0.345,0.345,0.345c0.19,0,0.344-0.154,0.344-0.345V0H1.237z"/>
			<path fill="#262626" d="M2.393-0.281c-0.19,0-0.345-0.154-0.345-0.345v-1.483c0-0.191,0.155-0.345,0.345-0.345
				c0.19,0,0.344,0.154,0.344,0.345v1.483C2.737-0.436,2.583-0.281,2.393-0.281z"/>
			<path fill="#262626" d="M0.893-2.141c-0.215,0-0.389-0.174-0.389-0.389v-0.838h0.779v0.837C1.283-2.315,1.108-2.141,0.893-2.141z
				"/>
			<path fill="#262626" d="M0.893-1.227c0.219,0,0.397,0.174,0.397,0.389v0.837H0.497v-0.837C0.497-1.053,0.675-1.227,0.893-1.227z"
				/>
		</g>
	</g>
</pattern>
<g>
	<path fill="#A163A7" d="M38.691,91.349c21.369,0,38.689-11.239,38.689-25.102c0-0.568-0.038-1.13-0.098-1.689
		c-4.426-0.958-9.125-0.953-14.109-1.136c-12.111-0.449-24.353-0.085-36.459,0.021c-7.459,0.055-14.938,0.009-22.411,0.009
		c-1.469,0.146-2.845,0.38-4.155,0.669C0.057,64.823,0,65.529,0,66.247C0.002,80.11,17.324,91.349,38.691,91.349z"/>
	<path fill="#B13125" d="M63.032,36.942l2.54-9.023C65.572,12.501,54.288,0,38.868,0h-1.289C22.159,0,12.09,12.501,12.09,27.919
		l1.807,9.007L63.032,36.942z"/>
	<path fill="#E54D2E" d="M64.883,44.975c0,14.389-11.663,26.05-26.053,26.05l0,0c-14.387,0-26.05-11.661-26.05-26.05V34.347
		c0-14.389,11.663-26.053,26.05-26.053l0,0c14.39,0,26.053,11.664,26.053,26.053V44.975z"/>
	<path fill="#E9C3BB" d="M64.568,29.241c0,14.211-11.52,25.734-25.747,25.734c-14.201,0-25.728-11.523-25.728-25.734
		c0-14.221,11.527-25.743,25.728-25.743C53.048,3.499,64.568,15.019,64.568,29.241z"/>
	<path fill="#61C6C7" d="M65.362,26.797c-3.281-0.701-7.136-1.449-11.367-1.449c-3.031,0-5.98,0.371-9.021,1.135
		c-1.96,0.492-4.035,0.947-5.927,0.947l-0.323-0.005c-1.126-0.037-2.212-0.29-3.264-0.537l-0.159-0.038
		c-4.971-1.158-8.939-1.672-12.864-1.672c-3.347,0-6.663,0.387-10.135,1.184l-0.549,0.127l0.703,4.592l0.513,0.01
		c0.81,0.015,0.829,0.453,0.835,0.616c0.309,7.764,2.215,12.495,10.656,12.283c10.493-0.275,12.655-9.347,12.981-11.163
		c0.203-1.137,0.632-1.203,1.439-1.226c0.837,0,1.019,0.405,1.271,1.121c0.038,0.106,0.073,0.207,0.111,0.297
		c3.339,8.447,5.552,10.401,12.465,11.003c0.585,0.051,1.133,0.077,1.647,0.077c7.334,0,8.202-4.929,8.9-8.89
		c0.177-1.013,0.347-1.972,0.609-2.802c0.229-0.733,0.367-0.863,0.929-0.879l0.521-0.011l0.574-4.602L65.362,26.797z M53.034,27.208
		v0.606c3.52,0,5.62,0.461,6.607,1.451c0.964,0.967,0.96,2.497,0.957,4.619l0.001,0.367c-0.739,6.503-2.189,7.212-7.571,7.212
		c-5.486-0.149-7.547-2.943-8.955-7.094c-0.632-1.861-0.641-3.22-0.032-4.153c1.117-1.711,4.293-1.991,7.655-2.285l1.27-0.117
		L53.034,27.208L53.034,27.208z M17.018,33.971c-0.003-2.122-0.007-3.653,0.955-4.619c0.989-0.989,3.085-1.451,6.597-1.451v-0.606
		l0,0l0.022,0.605l1.324,0.119c3.363,0.293,6.539,0.572,7.656,2.283c0.609,0.935,0.599,2.294-0.031,4.155
		c-1.407,4.149-3.467,6.944-8.941,7.089c-5.396,0-6.846-0.708-7.583-7.141L17.018,33.971z"/>
	<g>
		<path fill="#B13125" d="M32.227,1.575c0,0,11.185,21.095,31.689,20.257l-0.127,2.069l2.828-2.069
			C66.617,21.831,57.717-5.706,32.227,1.575z"/>
		<path fill="#B13125" d="M35.004,0.348L22.966,7.235c0,0-1.141,0.111-2.543,0.437c-1.439,1.715-2.917,3.399-4.387,5.089
			c-0.048,0.144-0.093,0.289-0.137,0.431c0.027,0.049,0.057,0.096,0.092,0.147c3.591,5.09,22.7-6.103,22.7-6.103V6.63L35.004,0.348z
			"/>
	</g>
	<path fill="#E54D2E" d="M64.082,39.659l-9.645,7.437c-14.001-4.819-27.952-1.015-31.204,0.006l-9.654-7.443l4.972,16.019
		l19.901,6.204l0.218,0.169l0.16-0.049l0.16,0.049l0.22-0.169l19.903-6.204L64.082,39.659z M45.051,55.678l-5.378-3.661
		l-0.683-0.682l-0.16,0.109l-0.16-0.109l-0.68,0.682l-5.38,3.661h-9.261V52.05c0.269,0,0.542-0.045,0.81-0.14
		c0.15-0.054,15.07-5.212,29.321-0.009c0.275,0.099,0.555,0.137,0.833,0.137v3.639L45.051,55.678L45.051,55.678z"/>
	<pattern  id="SVGID_3_" xlink:href="#SVGID_2_" patternTransform="matrix(0.5539 0 0 -0.5539 -4022.9014 -8804.6074)">
	</pattern>
	<path fill="url(#SVGID_3_)" d="M11.419,33.611"/>
</g>
<g>
	<g>
		<defs>
			<circle id="SVGID_431_" cx="269.079" cy="-57.535" r="134.171"/>
		</defs>
		<clipPath id="SVGID_5_">
			<use xlink:href="#SVGID_431_"  overflow="visible"/>
		</clipPath>
		
			<linearGradient id="SVGID_6_" gradientUnits="userSpaceOnUse" x1="-682.0496" y1="-785.3079" x2="-682.0496" y2="-693.2841" gradientTransform="matrix(3.3333 0 0 -5.1523 2420.5364 -3875.1436)">
			<stop  offset="0" style="stop-color:#01A59C"/>
			<stop  offset="0.4224" style="stop-color:#02A199"/>
			<stop  offset="0.8167" style="stop-color:#04968F"/>
			<stop  offset="1" style="stop-color:#058E88"/>
			<a:midPointStop  offset="0" style="stop-color:#01A59C"/>
			<a:midPointStop  offset="0.5" style="stop-color:#01A59C"/>
			<a:midPointStop  offset="0.4224" style="stop-color:#02A199"/>
			<a:midPointStop  offset="0.5" style="stop-color:#02A199"/>
			<a:midPointStop  offset="0.8167" style="stop-color:#04968F"/>
			<a:midPointStop  offset="0.5" style="stop-color:#04968F"/>
			<a:midPointStop  offset="1" style="stop-color:#058E88"/>
		</linearGradient>
		<rect x="24.339" y="-303.113" clip-path="url(#SVGID_5_)" fill="url(#SVGID_6_)" width="245.397" height="474.137"/>
	</g>
</g>
</svg>
