<?xml version="1.0" encoding="utf-8"?>
<!-- Generator: Adobe Illustrator 17.1.0, SVG Export Plug-In . SVG Version: 6.00 Build 0)  -->
<!DOCTYPE svg PUBLIC "-//W3C//DTD SVG 1.1//EN" "http://www.w3.org/Graphics/SVG/1.1/DTD/svg11.dtd" [
	<!ENTITY ns_flows "http://ns.adobe.com/Flows/1.0/">
	<!ENTITY ns_extend "http://ns.adobe.com/Extensibility/1.0/">
	<!ENTITY ns_ai "http://ns.adobe.com/AdobeIllustrator/10.0/">
	<!ENTITY ns_graphs "http://ns.adobe.com/Graphs/1.0/">
]>
<svg version="1.1" id="Layer_1" xmlns:x="&ns_extend;" xmlns:i="&ns_ai;" xmlns:graph="&ns_graphs;"
	 xmlns="http://www.w3.org/2000/svg" xmlns:xlink="http://www.w3.org/1999/xlink" xmlns:a="http://ns.adobe.com/AdobeSVGViewerExtensions/3.0/"
	 x="0px" y="0px" viewBox="95.581 99.997 208.841 400.006" enable-background="new 95.581 99.997 208.841 400.006"
	 xml:space="preserve">
<g>
	<g>
		<path fill="#F2F2F2" d="M221.046,485.639c0,0-0.686,5.34-6.643,6.012c0.022,0,0.051,0,0.073,0c0.169,0,0.319,0,0.455,0
			c0,0-0.584,0.04-0.54,0.004c0.004,0,0.007,0,0.007-0.004c-0.202,0-0.426,0-0.646,0c-6.603,0-22.921,0-27.421,0
			c-0.301,0-0.529,0-0.719,0c-0.246,0-0.382,0-0.422,0c0.004,0,0.007,0,0.007,0.004c0.04,0.04-0.04-0.004-0.04-0.004
			s0.026,0,0.033,0c-5.961-0.672-7.139-6.012-7.139-6.012s0-2.639,0-5.278c0-1.677,1.34-2.536,2.272-2.61
			c0.143,0.007,0.305-0.429,0.305-0.429h0.716h0.165h2.474h32.116h2.474h0.165h0.716c0,0-0.011,0.44,0.018,0.437
			c0.712,0.095,1.571,0.98,1.571,2.602C221.046,483,221.046,485.639,221.046,485.639z"/>
		<g>
			<g>
				<path fill="none" d="M182.078,119.073h35.937c1.461,0,2.639-0.591,2.639-2.048c0-1.453-1.178-2.048-2.639-2.048h-35.937
					c-1.461,0-2.639,0.591-2.639,2.048C179.439,118.486,180.621,119.073,182.078,119.073z"/>
				<path fill="none" d="M219.479,477.759c-0.029,0.004-0.018-0.437-0.018-0.437h-0.716h-0.165h-2.474H183.99h-2.474h-0.165h-0.716
					c0,0-0.161,0.437-0.305,0.429c-0.932,0.077-2.272,0.932-2.272,2.61c0,2.639,0,5.278,0,5.278s1.178,5.34,7.139,6.012
					c0.04,0,0.176,0,0.422,0c0.191,0,0.418,0,0.719,0c4.5,0,20.818,0,27.421,0c0.22,0,0.444,0,0.646,0
					c5.957-0.672,6.643-6.012,6.643-6.012s0-2.639,0-5.278C221.046,478.739,220.187,477.855,219.479,477.759z"/>
				<path fill="#E5E3E3" d="M109.702,454.805l-0.371-315.259h40.201h120.781h20.451l-0.202,171.443l13.771-13.771l0.073-150.268
					c0.253-22.47-2.496-42.018-29.08-43.887c-1.674-0.117-3.101-0.231-5.15-0.345v-0.026c-22.518-2.107-46.463-2.819-70.104-2.672
					c-16.95-0.117-34.303,0.206-50.677,1.164v0.349c-8.189,0.448-16.902,0.962-24.944,1.527
					c-26.584,1.865-29.106,21.417-28.856,43.887l0.184,301.076c-0.529,17.489,0.206,35.54,13.907,43.843l37.06-37.06H109.702z
					 M182.078,114.98h35.937c1.461,0,2.639,0.591,2.639,2.048c0,1.457-1.178,2.048-2.639,2.048h-35.937
					c-1.461,0-2.639-0.591-2.639-2.048C179.439,115.571,180.621,114.98,182.078,114.98z"/>
				<path fill="#333333" d="M214.931,491.651c-0.136,0-0.286,0-0.455,0c-0.022,0-0.051,0-0.073,0c-0.004,0-0.007,0-0.007,0.004
					C214.351,491.695,214.931,491.651,214.931,491.651z"/>
				<path fill="#333333" d="M185.205,491.655c-0.004,0-0.007,0-0.007-0.004c-0.007,0-0.033,0-0.033,0
					S185.242,491.695,185.205,491.655z"/>
				<path fill="#CCC9CA" d="M304.334,297.218l-13.771,13.771l-0.169,143.816h-20.081H149.533h-2.786l-37.06,37.06
					c3.902,2.364,8.802,3.979,15.093,4.515c8.038,0.683,16.429,1.292,24.617,1.813v0.455c16.377,1.068,33.521,1.446,50.148,1.332
					c23.421,0.176,48.115-0.642,70.632-2.966v-0.253c2.048-0.128,3.377-0.25,4.995-0.385c28.376-2.404,29.767-25.883,29.088-48.35
					L304.334,297.218z M221.046,485.639c0,0-0.686,5.34-6.643,6.012c0.022,0,0.051,0,0.073,0c0.169,0,0.319,0,0.455,0
					c0,0-0.584,0.04-0.54,0.004c0.004,0,0.007,0,0.007-0.004c-0.202,0-0.426,0-0.646,0c-6.603,0-22.921,0-27.421,0
					c-0.301,0-0.529,0-0.719,0c-0.246,0-0.382,0-0.422,0c0.004,0,0.007,0,0.007,0.004c0.04,0.04-0.04-0.004-0.04-0.004
					s0.026,0,0.033,0c-5.961-0.672-7.139-6.012-7.139-6.012s0-2.639,0-5.278c0-1.677,1.34-2.536,2.272-2.61
					c0.143,0.007,0.305-0.429,0.305-0.429h0.716h0.165h2.474h32.116h2.474h0.165h0.716c0,0-0.011,0.44,0.018,0.437
					c0.712,0.095,1.571,0.98,1.571,2.602C221.046,483,221.046,485.639,221.046,485.639z"/>
				<polygon fill="#5A2567" points="149.533,454.805 270.313,454.805 290.394,454.805 290.563,310.989 146.747,454.805 				"/>
				<polygon fill="#A163A7" points="270.167,139.48 149.386,139.594 109.184,139.63 109.849,454.889 146.894,454.852 
					290.574,310.904 290.618,139.462 				"/>
			</g>
			<path fill="#E5E3E3" d="M182.078,114.98h35.937c1.461,0,2.639,0.591,2.639,2.048c0,1.457-1.178,2.048-2.639,2.048h-35.937
				c-1.461,0-2.639-0.591-2.639-2.048C179.439,115.571,180.621,114.98,182.078,114.98z"/>
		</g>
	</g>
	<g>
		<path fill="#E5E3E3" d="M273.409,357.869c0,8.581-6.959,15.54-15.54,15.54H142.131c-8.581,0-15.54-6.959-15.54-15.54V242.131
			c0-8.581,6.959-15.54,15.54-15.54h115.734c8.581,0,15.54,6.959,15.54,15.54v115.738H273.409z"/>
		<g>
			<path fill="#2E3192" d="M196.783,247.637c-30.776,0-55.723,24.947-55.723,55.723c0,7.598,1.523,14.836,4.276,21.435l80.7-68.871
				C217.531,250.672,207.511,247.637,196.783,247.637z"/>
			<path fill="#2E3192" d="M253.527,305.1c-1.068,30.758-26.867,54.824-57.625,53.756c-7.594-0.264-14.777-2.037-21.273-5.017
				l71.627-78.26C251.214,284.26,253.901,294.379,253.527,305.1z"/>
			<path fill="#3FA9F5" d="M164.612,352.297c-4.621,4.621-12.116,4.621-16.737,0c-4.621-4.621-4.621-12.116,0-16.737
				s111.065-94.453,111.065-94.453S169.237,347.676,164.612,352.297z"/>
		</g>
	</g>
</g>
</svg>
