<?xml version="1.0" encoding="utf-8"?>
<!-- Generator: Adobe Illustrator 17.1.0, SVG Export Plug-In . SVG Version: 6.00 Build 0)  -->
<!DOCTYPE svg PUBLIC "-//W3C//DTD SVG 1.1//EN" "http://www.w3.org/Graphics/SVG/1.1/DTD/svg11.dtd" [
	<!ENTITY ns_flows "http://ns.adobe.com/Flows/1.0/">
	<!ENTITY ns_extend "http://ns.adobe.com/Extensibility/1.0/">
	<!ENTITY ns_ai "http://ns.adobe.com/AdobeIllustrator/10.0/">
	<!ENTITY ns_graphs "http://ns.adobe.com/Graphs/1.0/">
]>
<svg version="1.1" id="Layer_1" xmlns:x="&ns_extend;" xmlns:i="&ns_ai;" xmlns:graph="&ns_graphs;"
	 xmlns="http://www.w3.org/2000/svg" xmlns:xlink="http://www.w3.org/1999/xlink" xmlns:a="http://ns.adobe.com/AdobeSVGViewerExtensions/3.0/"
	 x="0px" y="0px" viewBox="0 0 80 104" enable-background="new 0 0 80 104" xml:space="preserve">
<g>
	<g>
		<polygon fill="#E54D2E" points="8,96 8,36.042 66.264,96 		"/>
		<polygon fill="#F27261" points="72,10 72,96 66.264,96 8,36.042 8,10 		"/>
		<path fill="#191617" d="M0,27.81v70.54c0,2.314,2.23,5.65,4.544,5.65h70.54l-8.82-8H8V36.042L0,27.81z M37.817,99.795
			c0-1.299,1.053-2.352,2.352-2.352c1.299,0,2.352,1.053,2.352,2.352c0,1.299-1.053,2.352-2.352,2.352
			C38.87,102.147,37.817,101.094,37.817,99.795z"/>
		<path fill="#352F31" d="M72,96V10H8v26.042L0,27.81L0,2.944C0,0.63,2.23,0,4.544,0h71.592C78.45,0,80,0.63,80,2.944V98.35
			c0,2.314-1.55,5.65-3.864,5.65h-1.051l-8.82-8H72z"/>
	</g>
	<g>
		<defs>
			<path id="SVGID_5_" d="M61,59.334C61,60.806,59.806,62,58.334,62H21.666C20.194,62,19,60.806,19,59.334V24.666
				C19,23.194,20.194,22,21.666,22h36.667C59.806,22,61,23.194,61,24.666V59.334z"/>
		</defs>
		<clipPath id="SVGID_2_">
			<use xlink:href="#SVGID_5_"  overflow="visible"/>
		</clipPath>
		<rect x="16.446" y="19.614" clip-path="url(#SVGID_2_)" fill="#F7931E" width="47.402" height="45.145"/>
		<path clip-path="url(#SVGID_2_)" fill="#FFFFFF" d="M36.14,38.904c0-0.401,0-0.611,0-0.821c0-2.494,0.001-4.989-0.001-7.483
			c-0.001-0.773-0.028-0.801-0.765-0.804c-0.87-0.004-1.741,0.018-2.61-0.007c-0.503-0.015-0.685,0.179-0.679,0.679
			c0.019,1.489,0.006,2.978,0.006,4.467c0,5.801-0.001,11.602,0.001,17.403c0,0.772,0.021,0.791,0.768,0.794
			c0.831,0.003,1.663,0.003,2.494,0c0.761-0.003,0.784-0.023,0.785-0.78c0.003-2.572,0.001-5.144,0.003-7.715
			c0-0.196,0.02-0.393,0.038-0.725c2.78,2.595,5.451,5.084,8.117,7.577c1.948,1.822,3.894,3.647,5.833,5.48
			c0.263,0.248,0.44,0.215,0.668-0.04c0.683-0.764,1.37-1.525,2.082-2.26c0.314-0.324,0.246-0.522-0.057-0.8
			c-0.983-0.9-1.944-1.824-2.912-2.74c-3.229-3.057-6.458-6.115-9.684-9.175c-0.188-0.178-0.356-0.378-0.565-0.602
			c0.608-0.476,1.152-0.905,1.699-1.329c3.467-2.689,6.93-5.382,10.407-8.057c0.377-0.29,0.375-0.483,0.081-0.827
			c-0.552-0.645-1.069-1.322-1.581-2c-0.492-0.651-0.483-0.661-1.151-0.15c-3.436,2.634-6.869,5.271-10.306,7.903
			C37.974,37.531,37.127,38.16,36.14,38.904z"/>
	</g>
</g>
</svg>
