<?xml version="1.0" encoding="utf-8"?>
<!-- Generator: Adobe Illustrator 17.1.0, SVG Export Plug-In . SVG Version: 6.00 Build 0)  -->
<!DOCTYPE svg PUBLIC "-//W3C//DTD SVG 1.1//EN" "http://www.w3.org/Graphics/SVG/1.1/DTD/svg11.dtd" [
	<!ENTITY ns_flows "http://ns.adobe.com/Flows/1.0/">
	<!ENTITY ns_extend "http://ns.adobe.com/Extensibility/1.0/">
	<!ENTITY ns_ai "http://ns.adobe.com/AdobeIllustrator/10.0/">
	<!ENTITY ns_graphs "http://ns.adobe.com/Graphs/1.0/">
]>
<svg version="1.1" id="Layer_1" xmlns:x="&ns_extend;" xmlns:i="&ns_ai;" xmlns:graph="&ns_graphs;"
	 xmlns="http://www.w3.org/2000/svg" xmlns:xlink="http://www.w3.org/1999/xlink" xmlns:a="http://ns.adobe.com/AdobeSVGViewerExtensions/3.0/"
	 x="0px" y="0px" viewBox="0 0 63.913 135.258" enable-background="new 0 0 63.913 135.258" xml:space="preserve">
<g>
	<g>
		<circle fill="none" cx="32.018" cy="9.104" r="2.787"/>
		<circle fill="none" cx="32.638" cy="125.72" r="5.945"/>
		<path fill="#191617" d="M59.454,79.58v36.355H23.099l-18.26,18.26c1.273,0.676,2.723,1.063,4.265,1.063h45.705
			c5.028,0,9.104-4.076,9.104-9.104V75.121L59.454,79.58z M32.638,131.665c-3.285,0-5.945-2.661-5.945-5.945
			c0-3.283,2.661-5.945,5.945-5.945c3.283,0,5.945,2.662,5.945,5.945C38.583,129.004,35.921,131.665,32.638,131.665z"/>
		<path fill="#333333" d="M5.202,115.935V19.323h54.252V79.58l4.459-4.459V9.104C63.913,4.076,59.837,0,54.809,0L9.104,0
			C4.076,0,0,4.076,0,9.104v117.05c0,3.486,1.961,6.511,4.839,8.041l18.26-18.26H5.202z M32.018,6.317
			c1.539,0,2.787,1.248,2.787,2.787c0,1.539-1.248,2.787-2.787,2.787c-1.539,0-2.787-1.248-2.787-2.787
			C29.231,7.565,30.479,6.317,32.018,6.317z"/>
		<polygon fill="#0D7C60" points="59.454,115.935 59.454,79.58 23.099,115.935 		"/>
		<polygon fill="#01A59C" points="5.202,19.323 5.202,115.935 23.099,115.935 59.454,79.58 59.454,19.323 		"/>
	</g>
	<circle fill="#E5E3E3" cx="32.638" cy="125.72" r="5.945"/>
	<g>
		<g>
			<g>
				<path fill-rule="evenodd" clip-rule="evenodd" fill="#B8E0D5" d="M49.409,31.656c1.473,0,2.666,1.194,2.666,2.666v36.406
					c0,1.473-1.194,2.666-2.666,2.666l-34.667,0c-1.473,0-2.666-1.194-2.666-2.666V34.323c0-1.473,1.194-2.666,2.666-2.666H49.409z"
					/>
			</g>
		</g>
		<g>
			<g>
				<path fill="#F27261" d="M40.748,40.853l-0.151-0.038l-0.132-0.038l-0.152,0.019l-0.133,0.056l-0.114,0.075l-0.095,0.114
					l-0.004,4.205l-0.739-0.02l0.004-4.204l-0.151-0.133l-0.151-0.095l-0.151-0.057l-0.133-0.018l-0.151,0.018l-0.151,0.057
					l-0.152,0.094l-0.151,0.133l-0.004,4.262l-0.72-0.001l0.004-4.243l-0.095-0.114l-0.132-0.095l-0.17-0.057l-0.17-0.019h-0.171
					l-0.17,0.056l-0.152,0.095l-0.114,0.133l-0.007,6.591l0.019,0.303l0.094,0.209l0.151,0.151l0.19,0.114l0.226,0.057l0.247,0.039
					h0.246h0.107c0,0,0.043,0.053,0.12,0.131l-0.011,10.533l0.151,0.284l0.227,0.209l0.265,0.152l0.322,0.057h0.322l0.303-0.094
					l0.284-0.151l0.209-0.246l0.011-10.73v-0.142h0.107c-0.002,0.003-0.004,0.006-0.006,0.008l0.126,0.011l0.246-0.018l0.228-0.019
					l0.227-0.094l0.19-0.113l0.151-0.19l0.115-0.246l0.038-0.341l0.006-6.459l-0.151-0.114L40.748,40.853z"/>
				<path fill="#F27261" d="M44.908,40.921l-2.099,7.801c-0.198,0.738,0.357,1.463,1.121,1.463h1.175l-0.009,8.982l0.151,0.284
					l0.227,0.209l0.265,0.152l0.322,0.057h0.322l0.303-0.094l0.284-0.151l0.209-0.246l0.01-10.346c0-0.003,0-0.005,0-0.008v-7.712
					v-0.089C47.19,39.865,45.26,39.61,44.908,40.921z"/>
			</g>
			<g>
				<path d="M16.877,63.025h-0.344v-0.303h0.352v-0.562h0.384v0.562h0.489v0.303h-0.489v0.959c0,0.417,0.283,0.469,0.437,0.469
					c0.057,0,0.093-0.004,0.093-0.004v0.328c0,0-0.057,0.008-0.142,0.008c-0.259,0-0.781-0.081-0.781-0.765V63.025z"/>
				<path d="M18.046,64.465h0.324v-2.25h-0.344v-0.303h0.732v1.06c0,0.097-0.012,0.17-0.012,0.17h0.008
					c0.089-0.198,0.356-0.469,0.765-0.469c0.481,0,0.704,0.263,0.704,0.785v1.007h0.32v0.303H19.83v-1.222
					c0-0.287-0.061-0.514-0.388-0.514c-0.401,0-0.684,0.34-0.684,0.777v0.655h0.324v0.303h-1.036V64.465z"/>
				<path d="M21.04,63.025h-0.344v-0.303h0.736v1.23c0,0.283,0.057,0.51,0.384,0.51c0.409,0,0.663-0.392,0.663-0.797v-0.639h-0.344
					v-0.303h0.736v1.659c0,0.057,0.032,0.089,0.089,0.089h0.214v0.299h-0.425c-0.178,0-0.259-0.081-0.259-0.227v-0.089
					c0-0.069,0.008-0.121,0.008-0.121h-0.008c-0.04,0.109-0.271,0.485-0.781,0.485c-0.441,0-0.672-0.243-0.672-0.785V63.025z"/>
				<path d="M23.499,64.465h0.32v-1.44h-0.34v-0.303h0.732v1.744h0.324v0.303h-1.036V64.465z M23.811,61.912h0.413v0.401h-0.413
					V61.912z"/>
				<path d="M24.826,64.109h0.344v0.134c0,0.174,0.243,0.255,0.469,0.255c0.231,0,0.413-0.093,0.413-0.263
					c0-0.206-0.227-0.271-0.51-0.372c-0.303-0.113-0.639-0.251-0.639-0.623c0-0.405,0.401-0.566,0.757-0.566
					c0.287,0,0.708,0.113,0.708,0.413v0.247h-0.344v-0.134c0-0.125-0.162-0.21-0.36-0.21c-0.194,0-0.364,0.081-0.364,0.247
					c0,0.194,0.227,0.275,0.473,0.36c0.316,0.105,0.676,0.239,0.676,0.619c0,0.388-0.356,0.603-0.821,0.603
					c-0.372,0-0.801-0.166-0.801-0.49V64.109z"/>
				<path d="M26.954,62.215H26.61v-0.303h0.736v0.947c0,0.097-0.012,0.17-0.012,0.17h0.008c0,0,0.182-0.356,0.659-0.356
					c0.554,0,0.902,0.437,0.902,1.072c0,0.651-0.392,1.072-0.935,1.072c-0.473,0-0.647-0.372-0.647-0.372h-0.008
					c0,0,0.012,0.073,0.012,0.162v0.162h-0.372V62.215z M27.917,64.477c0.32,0,0.587-0.263,0.587-0.728
					c0-0.445-0.239-0.732-0.579-0.732c-0.303,0-0.591,0.214-0.591,0.736C27.334,64.117,27.524,64.477,27.917,64.477z"/>
				<path d="M30.263,62.673c0.583,0,0.886,0.429,0.886,0.959c0,0.053-0.012,0.15-0.012,0.15H29.64
					c0.024,0.453,0.344,0.696,0.708,0.696c0.356,0,0.611-0.231,0.611-0.231l0.162,0.287c0,0-0.308,0.283-0.797,0.283
					c-0.643,0-1.084-0.465-1.084-1.072C29.239,63.093,29.68,62.673,30.263,62.673z M30.744,63.53
					c-0.012-0.36-0.231-0.546-0.49-0.546c-0.299,0-0.542,0.202-0.599,0.546H30.744z"/>
				<path d="M32.642,63.142c0.061-0.073,0.113-0.117,0.113-0.117v-0.008c0,0-0.085,0.008-0.166,0.008h-0.712v0.328h-0.344v-0.631
					h1.695v0.259l-1.121,1.368c-0.061,0.073-0.113,0.113-0.113,0.113v0.008c0,0,0.081-0.004,0.162-0.004h0.757v-0.328h0.344v0.631
					h-1.744v-0.259L32.642,63.142z"/>
				<path d="M34.717,62.673c0.611,0,1.104,0.449,1.104,1.068c0,0.623-0.494,1.076-1.104,1.076c-0.611,0-1.105-0.453-1.105-1.076
					C33.612,63.122,34.106,62.673,34.717,62.673z M34.717,64.477c0.384,0,0.704-0.308,0.704-0.736c0-0.425-0.32-0.728-0.704-0.728
					c-0.388,0-0.704,0.303-0.704,0.728C34.013,64.17,34.328,64.477,34.717,64.477z"/>
				<path d="M36.169,64.465h0.308v-1.351c0-0.061-0.032-0.089-0.089-0.089h-0.255v-0.303h0.461c0.178,0,0.263,0.073,0.263,0.239
					v0.13c0,0.081-0.008,0.142-0.008,0.142h0.008c0.093-0.299,0.332-0.534,0.647-0.534c0.053,0,0.101,0.008,0.101,0.008v0.388
					c0,0-0.049-0.012-0.113-0.012c-0.437,0-0.623,0.441-0.623,0.842v0.542h0.303v0.303h-1.003V64.465z"/>
				<path d="M38.73,65.286c0.356,0,0.647-0.162,0.647-0.583v-0.162c0-0.065,0.012-0.13,0.012-0.13h-0.008
					c-0.121,0.202-0.316,0.332-0.615,0.332c-0.566,0-0.914-0.457-0.914-1.048c0-0.587,0.328-1.024,0.898-1.024
					c0.267,0,0.55,0.101,0.664,0.336h0.008c0,0-0.008-0.028-0.008-0.081c0-0.13,0.065-0.206,0.235-0.206h0.437v0.303h-0.227
					c-0.053,0-0.089,0.028-0.089,0.081v1.578c0,0.676-0.514,0.935-1.032,0.935c-0.247,0-0.498-0.069-0.7-0.17l0.13-0.299
					C38.167,65.149,38.422,65.286,38.73,65.286z M39.385,63.7c0-0.534-0.259-0.688-0.579-0.688c-0.352,0-0.554,0.259-0.554,0.676
					c0,0.425,0.222,0.716,0.591,0.716C39.126,64.404,39.385,64.234,39.385,63.7z"/>
				<path d="M41.311,62.673c0.465,0,0.631,0.344,0.631,0.344h0.008c0,0-0.012-0.065-0.012-0.154v-0.647h-0.34v-0.303h0.732v2.464
					c0,0.061,0.032,0.089,0.089,0.089h0.206v0.303h-0.409c-0.182,0-0.255-0.089-0.255-0.223v-0.028c0-0.069,0.012-0.109,0.012-0.109
					h-0.008c0,0-0.166,0.409-0.692,0.409c-0.55,0-0.894-0.437-0.894-1.072C40.38,63.093,40.76,62.673,41.311,62.673z M41.359,64.477
					c0.303,0,0.591-0.218,0.591-0.728c0-0.376-0.19-0.732-0.579-0.732c-0.328,0-0.591,0.263-0.591,0.728
					C40.781,64.19,41.019,64.477,41.359,64.477z"/>
				<path fill="#FF931E" d="M43.062,64.344h0.421v0.425h-0.421V64.344z"/>
				<path d="M43.984,64.465h0.32v-1.351c0-0.061-0.032-0.089-0.089-0.089h-0.251v-0.303h0.461c0.178,0,0.259,0.077,0.259,0.227
					v0.105c0,0.065-0.012,0.117-0.012,0.117h0.008c0.04-0.109,0.279-0.498,0.797-0.498c0.469,0,0.68,0.263,0.68,0.785v1.007h0.324
					v0.303h-0.716v-1.222c0-0.287-0.057-0.514-0.384-0.514c-0.413,0-0.684,0.376-0.684,0.785v0.647h0.324v0.303h-1.036V64.465z"/>
				<path d="M46.897,62.215h-0.34v-0.303h0.732v2.249c0,0.174,0.04,0.291,0.218,0.291c0.065,0,0.109-0.004,0.109-0.004l-0.004,0.324
					c0,0-0.081,0.008-0.174,0.008c-0.291,0-0.542-0.117-0.542-0.595V62.215z"/>
			</g>
			<rect x="17.166" y="48.633" fill="#FFFFFF" width="16.914" height="10.514"/>
			<rect x="21.936" y="51.374" fill="#FF931E" width="3.701" height="3.701"/>
			<rect x="27.193" y="51.374" fill="#FF931E" width="4.882" height="7.773"/>
			<rect x="17.286" y="42.702" fill="#808080" width="3.256" height="5.866"/>
			<polygon fill="#E54D2E" points="25.683,40.06 29.882,44.347 34.08,48.633 25.683,48.633 17.286,48.633 21.485,44.347 			"/>
		</g>
	</g>
</g>
</svg>
