<?xml version="1.0" encoding="utf-8"?>
<!-- Generator: Adobe Illustrator 17.1.0, SVG Export Plug-In . SVG Version: 6.00 Build 0)  -->
<!DOCTYPE svg PUBLIC "-//W3C//DTD SVG 1.1//EN" "http://www.w3.org/Graphics/SVG/1.1/DTD/svg11.dtd" [
	<!ENTITY ns_flows "http://ns.adobe.com/Flows/1.0/">
	<!ENTITY ns_extend "http://ns.adobe.com/Extensibility/1.0/">
	<!ENTITY ns_ai "http://ns.adobe.com/AdobeIllustrator/10.0/">
	<!ENTITY ns_graphs "http://ns.adobe.com/Graphs/1.0/">
]>
<svg version="1.1" id="Layer_1" xmlns:x="&ns_extend;" xmlns:i="&ns_ai;" xmlns:graph="&ns_graphs;"
	 xmlns="http://www.w3.org/2000/svg" xmlns:xlink="http://www.w3.org/1999/xlink" xmlns:a="http://ns.adobe.com/AdobeSVGViewerExtensions/3.0/"
	 x="0px" y="0px" viewBox="105.495 202.909 189.011 400" enable-background="new 105.495 202.909 189.011 400" xml:space="preserve"
	>
<g>
	<g>
		<circle fill="none" cx="200.182" cy="229.832" r="8.242"/>
		<circle fill="none" cx="202.016" cy="574.701" r="17.581"/>
		<path fill="#191617" d="M281.319,438.251l0,107.513H173.807l-54.001,54.001c3.765,2.003,8.053,3.144,12.613,3.144l135.163,0
			c14.869,0,26.923-12.054,26.923-26.923l0-150.921L281.319,438.251z M202.016,592.283c-9.714,0-17.581-7.869-17.582-17.581
			c0-9.709,7.869-17.581,17.581-17.581c9.709,0,17.581,7.872,17.582,17.581C219.598,584.413,211.725,592.283,202.016,592.283z"/>
		<path fill="#333333" d="M120.879,545.764l0-285.715h160.44l0.001,178.202l13.187-13.187l0-195.232
			c0-14.869-12.054-26.923-26.923-26.923l-135.163,0c-14.869,0-26.923,12.054-26.923,26.923l-0.001,346.153
			c0,10.31,5.799,19.258,14.31,23.78l54-54H120.879z M200.182,221.59c4.551,0,8.242,3.691,8.242,8.242
			c0,4.551-3.691,8.242-8.242,8.242c-4.551,0-8.242-3.691-8.242-8.242C191.941,225.28,195.632,221.59,200.182,221.59z"/>
		<polygon fill="#98802F" points="281.319,545.764 281.319,438.251 173.806,545.764 		"/>
		<polygon fill="#D5B129" points="120.879,260.052 120.879,545.764 173.806,545.764 281.319,438.251 281.319,260.053 		"/>
	</g>
	<circle fill="#E5E3E3" cx="202.016" cy="574.701" r="17.581"/>
	<g>
		<g>
			<g>
				<path fill="#FFDA24" d="M261.717,454.166c0,4.356-3.531,7.884-7.884,7.884H146.168c-4.356,0-7.884-3.531-7.884-7.884l0-102.521
					c0-4.356,3.531-7.884,7.884-7.884h107.664c4.356,0,7.884,3.531,7.884,7.884V454.166z"/>
			</g>
		</g>
		<g id="_x39_csqbl_1_">
			<g>
				<path fill="#1B1464" d="M217.295,385.663c3.328,0,6.529,0,9.904,0c0.314,0.296,0.752,0.698,1.18,1.112
					c5.007,4.877,10.011,9.753,15.012,14.633c0.47,0.459,0.923,0.934,1.274,1.293c-5.803,5.835-11.51,11.572-17.439,17.537
					c-0.376,0-1.106,0-1.837,0c-6.367,0-12.737,0.006-19.105-0.003c-2.419-0.004-4.487-0.958-6.213-2.573
					c-1.911-1.783-3.709-3.685-5.572-5.518c-1.946-1.913-3.915-3.804-5.734-5.568c-6.71,0-13.137,0-19.894,0
					c2.413,2.408,4.628,4.655,6.888,6.858c2.271,2.217,4.587,4.392,7.036,6.725c-3.545,0-6.882,0-10.235,0
					c-5.672-5.716-11.379-11.471-17.221-17.357c5.43-5.923,11.649-11.338,17.498-17.205c7.082,0,14.183-0.068,21.281,0.038
					c2.431,0.035,4.522,1.216,6.254,2.942c3.04,3.029,6.107,6.03,9.097,9.105c1.091,1.121,2.244,1.656,3.85,1.636
					c5.823-0.08,11.649-0.033,17.809-0.033C226.539,394.514,221.592,390.503,217.295,385.663z M168.739,399.281
					c0.899,0,1.42,0,1.943,0c4.691,0,9.38-0.011,14.074,0.006c1.582,0.006,3.147-0.021,4.735,0.317
					c1.603,0.343,3.007,0.961,4.187,2.011c2.088,1.86,4.108,3.801,6.125,5.74c1.618,1.558,3.209,3.144,4.77,4.759
					c0.84,0.87,1.836,1.218,3.005,1.215c5.16-0.003,10.322-0.018,15.482,0.018c0.796,0.006,1.464-0.236,1.981-0.734
					c2.002-1.928,3.953-3.91,6.133-6.077c-0.832,0-1.358,0-1.881,0c-5.293,0-10.59-0.042-15.881,0.023
					c-1.679,0.021-3.25-0.334-4.808-0.846c-0.547-0.18-1.115-0.443-1.547-0.816c-1.508-1.305-2.999-2.635-4.427-4.028
					c-2.729-2.662-5.411-5.376-8.023-7.976c-6.453,0-12.741,0-18.983,0C173.379,394.972,171.196,397.001,168.739,399.281z"/>
			</g>
		</g>
	</g>
</g>
</svg>
