<?xml version="1.0" encoding="utf-8"?>
<!-- Generator: Adobe Illustrator 17.1.0, SVG Export Plug-In . SVG Version: 6.00 Build 0)  -->
<!DOCTYPE svg PUBLIC "-//W3C//DTD SVG 1.1//EN" "http://www.w3.org/Graphics/SVG/1.1/DTD/svg11.dtd" [
	<!ENTITY ns_flows "http://ns.adobe.com/Flows/1.0/">
	<!ENTITY ns_extend "http://ns.adobe.com/Extensibility/1.0/">
	<!ENTITY ns_ai "http://ns.adobe.com/AdobeIllustrator/10.0/">
	<!ENTITY ns_graphs "http://ns.adobe.com/Graphs/1.0/">
]>
<svg version="1.1" id="Layer_1" xmlns:x="&ns_extend;" xmlns:i="&ns_ai;" xmlns:graph="&ns_graphs;"
	 xmlns="http://www.w3.org/2000/svg" xmlns:xlink="http://www.w3.org/1999/xlink" xmlns:a="http://ns.adobe.com/AdobeSVGViewerExtensions/3.0/"
	 x="0px" y="0px" viewBox="0 0 104 80" enable-background="new 0 0 104 80" xml:space="preserve">
<g>
	<g>
		<g>
			<polygon fill="#6CC5AB" points="8,72 67.958,72 8,13.736 			"/>
			<polygon fill="#B8E0D5" points="94,8 8,8 8,13.736 67.958,72 94,72 			"/>
			<path fill="#191617" d="M67.958,72H8V13.736l-8-8.82v70.54C0,77.77,3.336,80,5.65,80h70.54L67.958,72z M1.853,39.831
				c0-1.299,1.053-2.352,2.352-2.352c1.299,0,2.352,1.053,2.352,2.352c0,1.299-1.053,2.352-2.352,2.352
				C2.906,42.183,1.853,41.13,1.853,39.831z"/>
			<path fill="#352F31" d="M8,8h86v64H67.958l8.232,8h24.866c2.314,0,2.944-2.23,2.944-4.544V3.864C104,1.55,103.37,0,101.056,0
				H5.65C3.336,0,0,1.55,0,3.864v1.051l8,8.82V8z"/>
		</g>
		<circle fill="#E5E3E3" cx="4.205" cy="39.831" r="2.352"/>
	</g>
	<g>
		<defs>
			<path id="SVGID_1_" d="M75,55.766C75,58.104,73.104,60,70.766,60H39.234C36.896,60,35,58.104,35,55.766V24.234
				C35,21.896,36.896,20,39.234,20h31.532C73.104,20,75,21.896,75,24.234V55.766z"/>
		</defs>
		<clipPath id="SVGID_2_">
			<use xlink:href="#SVGID_1_"  overflow="visible"/>
		</clipPath>
		<g clip-path="url(#SVGID_2_)">
			<polygon fill="#889B3B" points="76.404,21.7 75.868,19 33.652,19 32.888,42.137 34.111,58.947 38.624,60.414 			"/>
			<polygon fill="#C7A78B" points="57.858,42.469 75.033,21.873 75,26.441 75,51.969 74.218,52.48 			"/>
			<polyline fill="#A38A73" points="64.856,43.723 76.557,35.233 76.786,22.116 63.936,34.592 64.45,43.689 			"/>
			<polygon fill="#5A8CCB" points="40.077,59.731 55.377,44.369 77.016,53.263 75.868,59.326 			"/>
			<polygon fill="#FDE466" points="39.381,62.573 36.642,59.637 76.258,18.324 78.997,21.259 			"/>
			<polygon fill="#FDE466" points="76.259,54.516 54.621,44.895 56.134,41.095 77.772,50.716 			"/>
			<path fill-rule="evenodd" clip-rule="evenodd" fill="#FFFFFF" d="M51.413,23c1.368,0,4.226,3.452,4.226,8.208
				c0,4.651-2.498,6.725-4.996,8.787c-0.771,0.827-1.653,1.635-1.653,3.014s0.882,2.112,1.541,2.677l2.138,1.731
				c2.609,2.326,4.971,4.447,4.971,8.782c0,5.886-5.393,11.832-15.596,11.832c-8.6,0-12.75-4.311-12.75-8.961
				c0-2.259,1.068-5.452,4.572-7.646c3.666-2.392,8.662-2.707,11.335-2.891c-0.846-1.13-1.791-2.311-1.791-4.257
				c0-1.078,0.299-1.707,0.597-2.457c-0.646,0.066-1.304,0.132-1.901,0.132c-6.289,0-9.855-4.953-9.855-9.841
				c0-2.89,1.255-6.219,3.802-8.532C39.433,20.623,43.472,20,46.679,20h12.215l-3.79,3H51.413L51.413,23z M47.2,50.358
				c-0.461-0.066-0.771-0.066-1.355-0.066c-0.534,0-3.74,0.118-6.238,0.998c-1.293,0.499-5.095,2.01-5.095,6.464
				c0,4.453,4.089,7.645,10.439,7.645c5.692,0,8.725-2.89,8.725-6.765C53.675,55.442,51.723,53.734,47.2,50.358L47.2,50.358z
				 M48.927,38.442c1.367-1.445,1.491-3.455,1.491-4.585c0-4.507-2.56-11.534-7.481-11.534c-1.541,0-3.206,0.814-4.151,2.062
				c-1.007,1.326-1.317,3.008-1.317,4.637c0,4.217,2.312,11.181,7.419,11.181C46.38,40.203,47.97,39.44,48.927,38.442L48.927,38.442
				z"/>
			<path fill="#E54D2E" d="M71.433,26.906c0-3.706-2.842-6.71-6.348-6.71c-3.506,0-6.348,3.004-6.348,6.71
				c0,1.812,0.681,3.455,1.785,4.663l0,0l0,0c0.027,0.029,0.052,0.059,0.079,0.087c0.563,0.633,4.024,4.782,4.024,11.096
				c0,1.536,0.46,0.728,0.46,0.728l0.167-0.728c0,0,1.287-8.165,3.963-10.753C70.572,30.769,71.433,28.944,71.433,26.906z"/>
			<ellipse fill="#B13125" cx="65.085" cy="26.906" rx="1.783" ry="1.884"/>
		</g>
	</g>
</g>
</svg>
