<?xml version="1.0" encoding="utf-8"?>
<!-- Generator: Adobe Illustrator 17.1.0, SVG Export Plug-In . SVG Version: 6.00 Build 0)  -->
<!DOCTYPE svg PUBLIC "-//W3C//DTD SVG 1.1//EN" "http://www.w3.org/Graphics/SVG/1.1/DTD/svg11.dtd" [
	<!ENTITY ns_flows "http://ns.adobe.com/Flows/1.0/">
	<!ENTITY ns_extend "http://ns.adobe.com/Extensibility/1.0/">
	<!ENTITY ns_ai "http://ns.adobe.com/AdobeIllustrator/10.0/">
	<!ENTITY ns_graphs "http://ns.adobe.com/Graphs/1.0/">
]>
<svg version="1.1" id="Layer_1" xmlns:x="&ns_extend;" xmlns:i="&ns_ai;" xmlns:graph="&ns_graphs;"
	 xmlns="http://www.w3.org/2000/svg" xmlns:xlink="http://www.w3.org/1999/xlink" xmlns:a="http://ns.adobe.com/AdobeSVGViewerExtensions/3.0/"
	 x="0px" y="0px" viewBox="0 40 400 520" enable-background="new 0 40 400 520" xml:space="preserve">
<g>
	<g>
		<polygon fill="#E54D2E" points="68.68,520 360,220.21 360,520 		"/>
		<polygon fill="#F27261" points="360,90 360,220.21 68.68,520 40,520 40,90 		"/>
		<path fill="#191617" d="M360,220.21V520H68.68l-44.1,40h352.7c11.57,0,22.72-16.68,22.72-28.25v-352.7L360,220.21z
			 M199.155,550.735c-6.495,0-11.76-5.265-11.76-11.76c0-6.495,5.265-11.76,11.76-11.76s11.76,5.265,11.76,11.76
			C210.915,545.47,205.65,550.735,199.155,550.735z"/>
		<path fill="#352F31" d="M68.675,520l-44.1,40H19.32C7.75,560,0,543.32,0,531.75L0,54.72C0,43.15,7.75,40,19.32,40h357.96
			C388.85,40,400,43.15,400,54.72v124.33l-40,41.16V90H40v430H68.675z"/>
	</g>
	<g>
		<g>
			<defs>
				<path id="SVGID_1_" d="M305,336.67c0,7.36-5.97,13.33-13.33,13.33H108.33c-7.36,0-13.33-5.97-13.33-13.33V163.33
					c0-7.36,5.97-13.33,13.33-13.33h183.335c7.365,0,13.335,5.97,13.335,13.33V336.67z"/>
			</defs>
			<clipPath id="SVGID_2_">
				<use xlink:href="#SVGID_1_"  overflow="visible"/>
			</clipPath>
			<rect x="90" y="150" clip-path="url(#SVGID_2_)" fill="#352F31" width="110" height="100"/>
		</g>
		<g>
			<defs>
				<path id="SVGID_3_" d="M305,336.67c0,7.36-5.97,13.33-13.33,13.33H108.33c-7.36,0-13.33-5.97-13.33-13.33V163.33
					c0-7.36,5.97-13.33,13.33-13.33h183.335c7.365,0,13.335,5.97,13.335,13.33V336.67z"/>
			</defs>
			<clipPath id="SVGID_4_">
				<use xlink:href="#SVGID_3_"  overflow="visible"/>
			</clipPath>
			<rect x="200" y="250" clip-path="url(#SVGID_4_)" fill="#352F31" width="110" height="100"/>
		</g>
		<g>
			<defs>
				<path id="SVGID_5_" d="M305,336.67c0,7.36-5.97,13.33-13.33,13.33H108.33c-7.36,0-13.33-5.97-13.33-13.33V163.33
					c0-7.36,5.97-13.33,13.33-13.33h183.335c7.365,0,13.335,5.97,13.335,13.33V336.67z"/>
			</defs>
			<clipPath id="SVGID_6_">
				<use xlink:href="#SVGID_5_"  overflow="visible"/>
			</clipPath>
			<rect x="200" y="150" clip-path="url(#SVGID_6_)" fill="#E5E3E3" width="105" height="100"/>
		</g>
		<g>
			<defs>
				<path id="SVGID_7_" d="M305,336.67c0,7.36-5.97,13.33-13.33,13.33H108.33c-7.36,0-13.33-5.97-13.33-13.33V163.33
					c0-7.36,5.97-13.33,13.33-13.33h183.335c7.365,0,13.335,5.97,13.335,13.33V336.67z"/>
			</defs>
			<clipPath id="SVGID_8_">
				<use xlink:href="#SVGID_7_"  overflow="visible"/>
			</clipPath>
			<rect x="90" y="250" clip-path="url(#SVGID_8_)" fill="#E5E3E3" width="110" height="100"/>
		</g>
		<g>
			<defs>
				<path id="SVGID_9_" d="M305,336.67c0,7.36-5.97,13.33-13.33,13.33H108.33c-7.36,0-13.33-5.97-13.33-13.33V163.33
					c0-7.36,5.97-13.33,13.33-13.33h183.335c7.365,0,13.335,5.97,13.335,13.33V336.67z"/>
			</defs>
			<clipPath id="SVGID_10_">
				<use xlink:href="#SVGID_9_"  overflow="visible"/>
			</clipPath>
			<g clip-path="url(#SVGID_10_)">
				<text transform="matrix(1 0 0 1 131.8672 220.9771)" fill="#E5E3E3" font-family="'MyriadPro-Bold'" font-size="65.342">9</text>
			</g>
		</g>
		<g>
			<defs>
				<path id="SVGID_11_" d="M305,336.67c0,7.36-5.97,13.33-13.33,13.33H108.33c-7.36,0-13.33-5.97-13.33-13.33V163.33
					c0-7.36,5.97-13.33,13.33-13.33h183.335c7.365,0,13.335,5.97,13.335,13.33V336.67z"/>
			</defs>
			<clipPath id="SVGID_12_">
				<use xlink:href="#SVGID_11_"  overflow="visible"/>
			</clipPath>
			<g clip-path="url(#SVGID_12_)">
				<text transform="matrix(1 0 0 1 231.8672 220.9771)" fill="#352F31" font-family="'MyriadPro-Bold'" font-size="65.342">2</text>
			</g>
		</g>
		<g>
			<defs>
				<path id="SVGID_13_" d="M305,336.67c0,7.36-5.97,13.33-13.33,13.33H108.33c-7.36,0-13.33-5.97-13.33-13.33V163.33
					c0-7.36,5.97-13.33,13.33-13.33h183.335c7.365,0,13.335,5.97,13.335,13.33V336.67z"/>
			</defs>
			<clipPath id="SVGID_14_">
				<use xlink:href="#SVGID_13_"  overflow="visible"/>
			</clipPath>
			<g clip-path="url(#SVGID_14_)">
				<text transform="matrix(1 0 0 1 131.8672 320.9771)" fill="#352F31" font-family="'MyriadPro-Bold'" font-size="65.342">9</text>
			</g>
		</g>
		<g>
			<defs>
				<path id="SVGID_15_" d="M305,336.67c0,7.36-5.97,13.33-13.33,13.33H108.33c-7.36,0-13.33-5.97-13.33-13.33V163.33
					c0-7.36,5.97-13.33,13.33-13.33h183.335c7.365,0,13.335,5.97,13.335,13.33V336.67z"/>
			</defs>
			<clipPath id="SVGID_16_">
				<use xlink:href="#SVGID_15_"  overflow="visible"/>
			</clipPath>
			<g clip-path="url(#SVGID_16_)">
				<text transform="matrix(1 0 0 1 231.8672 320.9771)" fill="#E5E3E3" font-family="'MyriadPro-Bold'" font-size="65.342">2</text>
			</g>
		</g>
	</g>
</g>
</svg>
