<?xml version="1.0" encoding="utf-8"?>
<!-- Generator: Adobe Illustrator 17.1.0, SVG Export Plug-In . SVG Version: 6.00 Build 0)  -->
<!DOCTYPE svg PUBLIC "-//W3C//DTD SVG 1.1//EN" "http://www.w3.org/Graphics/SVG/1.1/DTD/svg11.dtd" [
	<!ENTITY ns_flows "http://ns.adobe.com/Flows/1.0/">
	<!ENTITY ns_extend "http://ns.adobe.com/Extensibility/1.0/">
	<!ENTITY ns_ai "http://ns.adobe.com/AdobeIllustrator/10.0/">
	<!ENTITY ns_graphs "http://ns.adobe.com/Graphs/1.0/">
]>
<svg version="1.1" id="Layer_1" xmlns:x="&ns_extend;" xmlns:i="&ns_ai;" xmlns:graph="&ns_graphs;"
	 xmlns="http://www.w3.org/2000/svg" xmlns:xlink="http://www.w3.org/1999/xlink" xmlns:a="http://ns.adobe.com/AdobeSVGViewerExtensions/3.0/"
	 x="0px" y="0px" viewBox="0 0 63.913 135.258" enable-background="new 0 0 63.913 135.258" xml:space="preserve">
<g>
	<g>
		<circle fill="none" cx="32.018" cy="9.104" r="2.787"/>
		<circle fill="none" cx="32.638" cy="125.72" r="5.945"/>
		<path fill="#191617" d="M59.454,79.58v36.355H23.099l-18.26,18.26c1.273,0.676,2.723,1.063,4.265,1.063h45.705
			c5.028,0,9.104-4.076,9.104-9.104V75.121L59.454,79.58z M32.638,131.665c-3.285,0-5.945-2.661-5.945-5.945
			c0-3.283,2.661-5.945,5.945-5.945c3.283,0,5.945,2.662,5.945,5.945C38.583,129.004,35.921,131.665,32.638,131.665z"/>
		<path fill="#333333" d="M5.202,115.935V19.323h54.252V79.58l4.459-4.459V9.104C63.913,4.076,59.837,0,54.809,0H9.104
			C4.076,0,0,4.076,0,9.104v117.05c0,3.486,1.961,6.511,4.839,8.041l18.26-18.26H5.202z M32.018,6.317
			c1.539,0,2.787,1.248,2.787,2.787c0,1.539-1.248,2.787-2.787,2.787c-1.539,0-2.787-1.248-2.787-2.787
			C29.231,7.565,30.479,6.317,32.018,6.317z"/>
		<polygon fill="#0074ED" points="59.454,115.935 59.454,79.58 23.099,115.935 		"/>
		<polygon fill="#3FA9F5" points="5.202,19.323 5.202,115.935 23.099,115.935 59.454,79.58 59.454,19.323 		"/>
	</g>
	<g>
		<g>
			<path fill-rule="evenodd" clip-rule="evenodd" fill="#E5E3E3" d="M52.826,84.962c0,1.473-1.194,2.666-2.666,2.666H13.753
				c-1.473,0-2.666-1.194-2.666-2.666V50.295c0-1.473,1.194-2.666,2.666-2.666H50.16c1.473,0,2.666,1.194,2.666,2.666V84.962z"/>
			<g>
				<g>
					<path fill="#CCC9CA" d="M35.29,69.796c0,0.736-0.597,1.333-1.333,1.333H19.623c-0.736,0-1.333-0.597-1.333-1.333V55.462
						c0-0.736,0.597-1.333,1.333-1.333h14.333c0.736,0,1.333,0.597,1.333,1.333V69.796z"/>
					<g>
						<path fill="#666163" d="M26.525,58.818v-2.223h1.323v2.223h4.817v1.112h-4.87c-0.035,1.306-0.141,2.329-0.318,3.07
							c-0.141,0.706-0.423,1.447-0.847,2.223c1.341,1.059,3.423,1.694,6.246,1.906c-0.247,0.388-0.423,0.829-0.529,1.323
							c-1.482-0.141-2.894-0.476-4.235-1.006c-0.847-0.353-1.553-0.776-2.117-1.27c-0.635,0.565-1.27,1.041-1.906,1.429
							c-0.741,0.423-1.641,0.776-2.7,1.059c-0.247-0.459-0.476-0.829-0.688-1.112c0.6-0.106,1.165-0.265,1.694-0.476
							c0.635-0.282,1.076-0.512,1.323-0.688c0.352-0.212,0.776-0.565,1.27-1.059c-0.953-1.165-1.659-2.541-2.117-4.129l1.27-0.371
							c0.212,0.882,0.476,1.606,0.794,2.17c0.212,0.459,0.476,0.882,0.794,1.27c0.212-0.388,0.405-0.953,0.582-1.694
							c0.071-0.494,0.141-1.376,0.212-2.647H21.02v-1.112H26.525z"/>
					</g>
				</g>
				<g>
					<path fill="#0074ED" d="M45.623,79.796c0,0.736-0.597,1.333-1.333,1.333H29.956c-0.736,0-1.333-0.597-1.333-1.333V65.462
						c0-0.736,0.597-1.333,1.333-1.333H44.29c0.736,0,1.333,0.597,1.333,1.333V79.796z"/>
					<g>
						<path fill="#FFFFFF" d="M38.664,74.77h-3.081l-0.743,2.252h-1.646l3.094-8.786h1.671l3.094,8.786h-1.646L38.664,74.77z
							 M37.117,69.758c0,0-0.198,0.866-0.371,1.361l-0.78,2.351h2.302l-0.78-2.351c-0.161-0.495-0.347-1.361-0.347-1.361H37.117z"/>
					</g>
				</g>
				<polygon fill="#0080FF" points="25.29,78.129 21.623,74.462 21.623,70.462 25.29,70.462 				"/>
				<polygon fill="#0080FF" points="23.361,68.129 24.882,69.629 26.402,71.129 23.361,71.129 20.321,71.129 21.841,69.629 				"/>
				<polygon fill="#CCC9CA" points="21.623,74.462 25.29,78.129 29.218,78.129 29.218,74.462 				"/>
				<polygon fill="#CCC9CA" points="31.695,76.462 30.159,74.942 28.623,73.421 28.623,76.462 28.623,79.503 30.159,77.983 				"/>
			</g>
		</g>
	</g>
	<circle fill="#E5E3E3" cx="32.638" cy="125.72" r="5.945"/>
</g>
</svg>
