<?xml version="1.0" encoding="utf-8"?>
<!-- Generator: Adobe Illustrator 17.1.0, SVG Export Plug-In . SVG Version: 6.00 Build 0)  -->
<!DOCTYPE svg PUBLIC "-//W3C//DTD SVG 1.1//EN" "http://www.w3.org/Graphics/SVG/1.1/DTD/svg11.dtd" [
	<!ENTITY ns_flows "http://ns.adobe.com/Flows/1.0/">
	<!ENTITY ns_extend "http://ns.adobe.com/Extensibility/1.0/">
	<!ENTITY ns_ai "http://ns.adobe.com/AdobeIllustrator/10.0/">
	<!ENTITY ns_graphs "http://ns.adobe.com/Graphs/1.0/">
]>
<svg version="1.1" id="Layer_1" xmlns:x="&ns_extend;" xmlns:i="&ns_ai;" xmlns:graph="&ns_graphs;"
	 xmlns="http://www.w3.org/2000/svg" xmlns:xlink="http://www.w3.org/1999/xlink" xmlns:a="http://ns.adobe.com/AdobeSVGViewerExtensions/3.0/"
	 x="0px" y="0px" viewBox="0 0 600 400" enable-background="new 0 0 600 400" xml:space="preserve">
<g>
	<g>
		<g>
			
				<rect x="51.113" y="337.991" transform="matrix(0.7071 0.7071 -0.7071 0.7071 256.5303 62.3719)" fill="#666163" width="3.726" height="5.709"/>
			
				<rect x="50.066" y="339.037" transform="matrix(0.7071 0.7071 -0.7071 0.7071 256.9637 63.4181)" fill="#979496" width="3.726" height="5.709"/>
			<path fill="#352F31" d="M116.603,165.076c25.804,0,51.608,9.844,71.296,29.532c39.376,39.376,39.376,103.216,0,142.592
				c-19.688,19.688-45.492,29.532-71.296,29.532c-25.804,0-51.608-9.844-71.296-29.532c-39.376-39.376-39.376-103.216,0-142.592
				C64.995,174.92,90.799,165.076,116.603,165.076 M116.603,151.925c-30.445,0-59.068,11.856-80.595,33.384
				c-44.441,44.44-44.441,116.751,0,161.191c21.528,21.528,50.15,33.384,80.595,33.384c30.445,0,59.067-11.856,80.595-33.384
				c44.441-44.44,44.441-116.751,0-161.191C175.671,163.78,147.048,151.925,116.603,151.925L116.603,151.925z"/>
			<path fill="#666163" d="M116.603,165.076c25.804,0,51.608,9.844,71.296,29.532c39.376,39.376,39.376,103.216,0,142.592
				c-19.688,19.688-45.492,29.532-71.296,29.532c-25.804,0-51.608-9.844-71.296-29.532c-39.376-39.376-39.376-103.216,0-142.592
				C64.995,174.92,90.799,165.076,116.603,165.076 M116.603,162.446c-27.635,0-53.615,10.761-73.156,30.302
				c-40.338,40.338-40.338,105.973,0,146.312c19.541,19.541,45.521,30.302,73.156,30.302c27.635,0,53.615-10.761,73.156-30.302
				c40.338-40.338,40.338-105.973,0-146.312C170.218,173.207,144.238,162.446,116.603,162.446L116.603,162.446z"/>
			
				<rect x="141.112" y="171.788" transform="matrix(0.8665 0.4992 -0.4992 0.8665 129.8515 -41.103)" fill="#979496" width="1.315" height="100.845"/>
			
				<rect x="151.6" y="179.827" transform="matrix(0.7071 0.7071 -0.7071 0.7071 207.406 -40.2236)" fill="#979496" width="1.315" height="100.845"/>
			
				<rect x="159.639" y="190.315" transform="matrix(0.4992 0.8665 -0.8665 0.4992 288.8761 -18.3314)" fill="#979496" width="1.315" height="100.845"/>
			
				<rect x="164.677" y="202.531" transform="matrix(0.2568 0.9665 -0.9665 0.2568 367.3585 28.2155)" fill="#979496" width="1.316" height="100.845"/>
			
				<rect x="116.603" y="265.402" transform="matrix(1 0.0031 -0.0031 1 0.8225 -0.5146)" fill="#979496" width="100.845" height="1.315"/>
			
				<rect x="114.831" y="278.497" transform="matrix(0.9649 0.2628 -0.2628 0.9649 79.1677 -33.6157)" fill="#979496" width="100.845" height="1.315"/>
			
				<rect x="109.718" y="290.681" transform="matrix(0.8634 0.5044 -0.5044 0.8634 168.8327 -40.9977)" fill="#979496" width="100.845" height="1.315"/>
			
				<rect x="101.614" y="301.119" transform="matrix(0.7027 0.7115 -0.7115 0.7027 259.8982 -18.4578)" fill="#979496" width="100.845" height="1.316"/>
			
				<rect x="91.076" y="309.094" transform="matrix(0.4937 0.8696 -0.8696 0.4937 340.9957 33.7637)" fill="#979496" width="100.846" height="1.315"/>
			
				<rect x="78.829" y="314.057" transform="matrix(0.2509 0.968 -0.968 0.2509 401.4786 110.6461)" fill="#979496" width="100.845" height="1.315"/>
			
				<rect x="115.479" y="265.902" transform="matrix(1 0.0098 -0.0098 1 3.0945 -1.119)" fill="#979496" width="1.315" height="100.845"/>
			
				<rect x="102.395" y="264.049" transform="matrix(0.963 0.2696 -0.2696 0.963 88.5828 -16.1381)" fill="#979496" width="1.315" height="100.845"/>
			
				<rect x="90.241" y="258.86" transform="matrix(0.8603 0.5097 -0.5097 0.8603 170.3531 -3.1361)" fill="#979496" width="1.315" height="100.846"/>
			
				<rect x="79.854" y="250.692" transform="matrix(0.6988 0.7154 -0.7154 0.6988 239.6606 33.1153)" fill="#979496" width="1.314" height="100.845"/>
			
				<rect x="71.945" y="240.106" transform="matrix(0.4881 0.8728 -0.8728 0.4881 290.7285 85.348)" fill="#979496" width="1.316" height="100.845"/>
			
				<rect x="67.058" y="227.829" transform="matrix(0.2451 0.9695 -0.9695 0.2451 320.8878 144.4115)" fill="#979496" width="1.315" height="100.845"/>
			
				<rect x="15.764" y="264.468" transform="matrix(0.9999 0.0154 -0.0154 0.9999 4.1002 -0.99)" fill="#979496" width="100.845" height="1.315"/>
			
				<rect x="17.697" y="251.395" transform="matrix(0.9615 0.2747 -0.2747 0.9615 71.856 -9.0161)" fill="#979496" width="100.845" height="1.316"/>
			
				<rect x="22.961" y="239.275" transform="matrix(0.8571 0.5151 -0.5151 0.8571 134.0652 -3.5228)" fill="#979496" width="100.845" height="1.315"/>
			
				<rect x="31.193" y="228.938" transform="matrix(0.6939 0.7201 -0.7201 0.6939 190.3104 11.5117)" fill="#979496" width="100.845" height="1.315"/>
			
				<rect x="41.828" y="221.094" transform="matrix(0.483 0.8756 -0.8756 0.483 241.8688 33.8736)" fill="#979496" width="100.845" height="1.316"/>
			
				<rect x="54.135" y="216.283" transform="matrix(0.2389 0.971 -0.971 0.2389 290.2401 63.5859)" fill="#979496" width="100.845" height="1.315"/>
			
				<rect x="117.035" y="165.07" transform="matrix(0.9998 0.0215 -0.0215 0.9998 4.6558 -2.4783)" fill="#979496" width="1.315" height="100.845"/>
			
				<rect x="130.095" y="167.084" transform="matrix(0.9599 0.2803 -0.2803 0.9599 66.1992 -27.9281)" fill="#979496" width="1.315" height="100.845"/>
			<path fill="#352F31" d="M57.823,338.866l1.198-1.198c0.792-0.792,0.792-2.076,0-2.867c-0.792-0.792-2.076-0.792-2.867,0
				l-1.198,1.198l-0.775-0.775l-1.395,1.395l0.775,0.775l2.867,2.867l0.775,0.775l1.395-1.395L57.823,338.866z"/>
			<path fill="#979496" d="M116.603,167.706c26.229,0,50.889,10.214,69.436,28.761s28.761,43.207,28.761,69.436
				c0,26.229-10.214,50.889-28.761,69.436s-43.207,28.761-69.436,28.761c-26.23,0-50.889-10.214-69.436-28.761
				s-28.761-43.207-28.761-69.436c0-26.23,10.214-50.889,28.761-69.436S90.374,167.706,116.603,167.706 M116.603,165.076
				c-25.804,0-51.608,9.844-71.296,29.532c-39.376,39.376-39.376,103.216,0,142.592c19.688,19.688,45.492,29.532,71.296,29.532
				c25.804,0,51.608-9.844,71.296-29.532c39.376-39.376,39.376-103.216,0-142.592C168.211,174.92,142.407,165.076,116.603,165.076
				L116.603,165.076z"/>
		</g>
		<g>
			<rect x="578.472" y="256.054" fill="#666163" width="5.709" height="3.726"/>
			<rect x="579.952" y="256.054" fill="#979496" width="5.709" height="3.726"/>
			<path fill="#352F31" d="M483.343,165.09c55.686,0,100.828,45.142,100.828,100.828s-45.142,100.828-100.828,100.828
				c-55.686,0-100.828-45.142-100.828-100.828S427.658,165.09,483.343,165.09 M483.343,151.938
				c-62.848,0-113.979,51.131-113.979,113.979c0,62.848,51.131,113.979,113.979,113.979s113.979-51.131,113.979-113.979
				C597.323,203.069,546.192,151.938,483.343,151.938L483.343,151.938z"/>
			<path fill="#666163" d="M483.343,165.09c55.686,0,100.828,45.142,100.828,100.828s-45.142,100.828-100.828,100.828
				c-55.686,0-100.828-45.142-100.828-100.828S427.658,165.09,483.343,165.09 M483.343,162.46
				c-57.047,0-103.458,46.411-103.458,103.458s46.411,103.458,103.458,103.458s103.458-46.411,103.458-103.458
				S540.39,162.46,483.343,162.46L483.343,162.46z"/>
			
				<rect x="433.995" y="228.596" transform="matrix(0.2597 0.9657 -0.9657 0.2597 591.2037 -213.1867)" fill="#979496" width="1.315" height="100.845"/>
			<rect x="382.498" y="265.26" fill="#979496" width="100.845" height="1.315"/>
			
				<rect x="384.23" y="252.159" transform="matrix(0.9657 0.2598 -0.2598 0.9657 80.6138 -104.2485)" fill="#979496" width="100.845" height="1.315"/>
			
				<rect x="389.306" y="239.959" transform="matrix(0.865 0.5018 -0.5018 0.865 180.1029 -188.1629)" fill="#979496" width="100.845" height="1.316"/>
			
				<rect x="397.377" y="229.496" transform="matrix(0.7049 0.7093 -0.7093 0.7049 295.3821 -249.7047)" fill="#979496" width="100.845" height="1.315"/>
			
				<rect x="407.889" y="221.489" transform="matrix(0.4964 0.8681 -0.8681 0.4964 423.6329 -285.9834)" fill="#979496" width="100.846" height="1.315"/>
			
				<rect x="420.121" y="216.489" transform="matrix(0.2538 0.9672 -0.9672 0.2538 561.1328 -293.106)" fill="#979496" width="100.845" height="1.315"/>
			
				<rect x="482.997" y="165.073" transform="matrix(1 0.0059 -0.0059 1 1.271 -2.8302)" fill="#979496" width="1.315" height="100.845"/>
			
				<rect x="496.087" y="166.886" transform="matrix(0.9641 0.2657 -0.2657 0.9641 75.5864 -124.1646)" fill="#979496" width="1.315" height="100.845"/>
			
				<rect x="508.256" y="172.036" transform="matrix(0.8621 0.5067 -0.5067 0.8621 182.899 -227.2024)" fill="#979496" width="1.315" height="100.846"/>
			
				<rect x="518.669" y="180.172" transform="matrix(0.7002 0.7139 -0.7139 0.7002 320.2987 -301.6284)" fill="#979496" width="1.315" height="100.845"/>
			
				<rect x="526.61" y="190.734" transform="matrix(0.4912 0.8711 -0.8711 0.4912 478.3407 -336.5748)" fill="#979496" width="1.315" height="100.845"/>
			
				<rect x="531.535" y="202.997" transform="matrix(0.248 0.9687 -0.9687 0.248 645.6837 -325.0008)" fill="#979496" width="1.315" height="100.845"/>
			
				<rect x="483.339" y="265.883" transform="matrix(0.9999 0.0123 -0.0123 0.9999 3.3317 -6.5701)" fill="#979496" width="100.845" height="1.315"/>
			
				<rect x="481.446" y="278.961" transform="matrix(0.9624 0.2717 -0.2717 0.9624 95.9854 -133.9957)" fill="#979496" width="100.846" height="1.314"/>
			
				<rect x="476.22" y="291.098" transform="matrix(0.8587 0.5124 -0.5124 0.8587 223.8987 -228.6482)" fill="#979496" width="100.845" height="1.315"/>
			
				<rect x="468.021" y="301.46" transform="matrix(0.6961 0.7179 -0.7179 0.6961 374.444 -280.3966)" fill="#979496" width="100.845" height="1.315"/>
			
				<rect x="457.41" y="309.337" transform="matrix(0.4857 0.8741 -0.8741 0.4857 532.1672 -284.4787)" fill="#979496" width="100.845" height="1.315"/>
			
				<rect x="445.118" y="314.185" transform="matrix(0.2419 0.9703 -0.9703 0.2419 681.1677 -242.1384)" fill="#979496" width="100.844" height="1.316"/>
			
				<rect x="481.752" y="265.909" transform="matrix(0.9998 0.0176 -0.0176 0.9998 5.6342 -8.4297)" fill="#979496" width="1.315" height="100.846"/>
			
				<rect x="468.686" y="263.935" transform="matrix(0.9608 0.2773 -0.2773 0.9608 105.5772 -117.8207)" fill="#979496" width="1.315" height="100.845"/>
			
				<rect x="456.581" y="258.634" transform="matrix(0.8556 0.5177 -0.5177 0.8556 226.0133 -192.0602)" fill="#979496" width="1.315" height="100.845"/>
			
				<rect x="446.27" y="250.371" transform="matrix(0.6913 0.7226 -0.7226 0.6913 355.3014 -230.0791)" fill="#979496" width="1.315" height="100.844"/>
			
				<rect x="438.459" y="239.712" transform="matrix(0.4805 0.877 -0.877 0.4805 482.5713 -234.378)" fill="#979496" width="1.315" height="100.845"/>
			<path fill="#352F31" d="M576.5,255.889h-1.694c-1.12,0-2.028,0.908-2.028,2.028c0,1.12,0.908,2.028,2.028,2.028h1.694v1.096
				h1.973v-1.096v-4.055v-1.096H576.5V255.889z"/>
			<path fill="#979496" d="M483.343,167.72c54.146,0,98.198,44.051,98.198,98.197c0,54.146-44.051,98.198-98.198,98.198
				c-54.146,0-98.197-44.051-98.197-98.198C385.146,211.771,429.197,167.72,483.343,167.72 M483.343,165.09
				c-55.686,0-100.828,45.142-100.828,100.828s45.142,100.828,100.828,100.828c55.686,0,100.828-45.142,100.828-100.828
				S539.029,165.09,483.343,165.09L483.343,165.09z"/>
		</g>
		<g>
			
				<rect x="127.552" y="286.276" transform="matrix(0.9767 0.2145 -0.2145 0.9767 68.476 -35.49)" fill="#352F31" width="140.362" height="22.865"/>
			<path fill="#CCC9CA" d="M265.329,326.282l-140.946-30.961l5.752-26.186l140.946,30.96L265.329,326.282z M129.083,292.314
				l133.239,29.267l4.058-18.479l-133.239-29.267L129.083,292.314z"/>
		</g>
		<path fill="#991C3B" d="M169.943,151.92c-0.283,0-0.57-0.026-0.857-0.08l-45.023-8.482L9.344,139.686
			c-2.541-0.081-4.535-2.206-4.453-4.747c0.081-2.542,2.213-4.548,4.747-4.453l115.431,3.693l45.722,8.615
			c2.498,0.471,4.142,2.878,3.671,5.376C174.046,150.379,172.113,151.92,169.943,151.92z"/>
		<path fill="#991C3B" d="M109.442,276.201H96.848L53.803,138.014c-0.756-2.427,0.599-5.008,3.026-5.764
			c2.428-0.758,5.008,0.598,5.764,3.026l41.03,131.719h5.819c2.542,0,4.603,2.061,4.603,4.603
			C114.045,274.14,111.984,276.201,109.442,276.201z"/>
		<g>
			<circle fill="#F4E4D2" cx="116.088" cy="267.815" r="10.592"/>
			<path fill="#991C3B" d="M116.088,266.429c0.764,0,1.386,0.622,1.386,1.386s-0.622,1.386-1.386,1.386
				c-0.764,0-1.386-0.622-1.386-1.386S115.324,266.429,116.088,266.429 M116.088,257.223c-5.85,0-10.592,4.742-10.592,10.592
				s4.742,10.592,10.592,10.592c5.85,0,10.592-4.742,10.592-10.592S121.938,257.223,116.088,257.223L116.088,257.223z"/>
		</g>
		
			<rect x="173.622" y="92.288" transform="matrix(0.3961 0.9182 -0.9182 0.3961 200.2783 -112.0339)" fill="#CCCCCC" width="23.369" height="7.891"/>
		<path fill="#CCCCCC" d="M395.313,109.743L369.903,46.2c-0.645-1.614-0.159-3.46,1.199-4.546l5.673-4.538
			c-3.637-4.055-9.901-9.467-15.898-9.103l-16.498,6.374l-2.843-7.36l17.019-6.576c0.317-0.123,0.649-0.204,0.986-0.241
			c13.991-1.568,25.532,14.549,26.016,15.236c1.204,1.705,0.871,4.053-0.758,5.356l-6.482,5.185l24.323,60.825L395.313,109.743z"/>
		<g>
			<line fill="#F4E4D2" x1="119.326" y1="257.732" x2="189.008" y2="109.178"/>
			<path fill="#991C3B" d="M119.323,262.336c-0.654,0-1.32-0.141-1.952-0.437c-2.301-1.08-3.292-3.821-2.213-6.122l69.681-148.555
				c1.08-2.301,3.821-3.29,6.122-2.213c2.301,1.08,3.292,3.821,2.213,6.122l-69.681,148.555
				C122.711,261.357,121.053,262.336,119.323,262.336z"/>
		</g>
		<polygon fill="#991C3B" points="272.493,295.41 182.204,101.255 190.552,97.373 275.176,279.349 411.239,138.009 417.871,144.393 
					"/>
		<path fill="#991C3B" d="M490.437,275.675c-1.081,0-2.167-0.379-3.042-1.15l-34.799-30.681l-11.184-14.678L387.258,91.796
			c-0.932-2.365,0.229-5.038,2.594-5.97c2.365-0.936,5.038,0.229,5.97,2.594l53.687,136.181l9.858,12.94l34.115,30.079
			c1.907,1.681,2.09,4.59,0.409,6.497C492.982,275.148,491.713,275.675,490.437,275.675z"/>
		<polygon fill="#DFD7D5" points="403.157,81.56 409.076,81.56 415.98,74.655 409.733,68.408 		"/>
		<path fill="#991C3B" d="M252.472,245.295c-2.255,0-4.223-1.657-4.55-3.954c-0.359-2.516,1.391-4.847,3.907-5.206
			c0.673-0.096,67.585-10.009,89.83-43.994c23.177-35.409,48.755-94.734,49.011-95.329c1.004-2.336,3.714-3.414,6.046-2.413
			c2.336,1.004,3.416,3.71,2.413,6.046c-0.259,0.602-26.148,60.653-49.767,96.738c-10.39,15.874-29.819,28.796-57.746,38.409
			c-20.479,7.048-37.764,9.554-38.489,9.657C252.906,245.28,252.688,245.295,252.472,245.295z"/>
		<polygon fill="#991C3B" points="398.283,97.846 393.565,95.521 401.74,78.929 411.706,78.929 411.706,84.19 405.013,84.19 		"/>
		<g>
			<path fill="#352F31" d="M116.088,287.472c-10.528-2.647-19.657-8.801-19.657-19.657s8.8-19.657,19.657-19.657l159.144,1.113
				c0.41-0.014,0.82-0.031,1.233-0.031c0.661,0,1.317,0.019,1.97,0.054h0.003v0c19.42,1.025,34.851,17.095,34.851,36.77
				c0,19.675-15.744,40.39-34.851,36.77C239.799,315.514,140.129,293.517,116.088,287.472z"/>
			<path fill="#666163" d="M282.815,325.223c-1.574,0-3.17-0.152-4.744-0.449c-38.765-7.344-138.525-29.369-162.463-35.388
				c-13.44-3.38-21.148-11.242-21.148-21.57c0-11.926,9.703-21.629,21.629-21.629l159.157,1.114l0.164-0.007
				c1.041-0.035,2.093-0.022,3.129,0.032c20.593,1.088,36.723,18.104,36.723,38.74C315.262,304.549,301.385,325.223,282.815,325.223
				z M116.074,250.131c-9.737,0-17.67,7.933-17.67,17.684c0,11.465,11.381,16.038,18.165,17.744
				c23.902,6.011,123.521,28.003,162.236,35.338c1.332,0.252,2.682,0.38,4.01,0.38c16.313,0,28.502-18.591,28.502-35.213
				c0-18.537-14.488-33.823-32.983-34.8c-0.927-0.048-1.859-0.062-2.786-0.03l-0.252,0.008L116.074,250.131z"/>
		</g>
		
			<rect x="341.194" y="199.859" transform="matrix(0.7071 0.7071 -0.7071 0.7071 244.8784 -186.2112)" fill="#991C3B" width="12.043" height="5.26"/>
		<path fill="#191617" d="M311.716,47.806c-2.122,0-4.121-1.293-4.919-3.394c-1.032-2.716,0.334-5.754,3.05-6.785l35.502-13.482
			c2.717-1.033,5.754,0.335,6.785,3.05c1.032,2.716-0.334,5.754-3.05,6.785l-35.502,13.482
			C312.967,47.695,312.336,47.806,311.716,47.806z"/>
		<g>
			<path fill="#352F31" d="M424.045,50.693c-11.992,0.368-21.545,6.677-21.545,14.428c0,7.751,9.553,14.06,21.545,14.428V50.693z"/>
			<path fill="#FDE466" d="M426.838,79.549c2.443-0.368,4.389-6.677,4.389-14.428c0-7.751-1.946-14.06-4.389-14.428V79.549z"/>
			<path fill="#DFD7D5" d="M424.045,50.693c-4.304,0.132-8.283,1.039-11.63,2.494c3.347,1.455,7.326,2.362,11.63,2.494v23.868h2.793
				V50.693H424.045z"/>
		</g>
		<g>
			<circle fill="#F4E4D2" cx="273.577" cy="287.38" r="10.592"/>
			<path fill="#CCC9CA" d="M273.577,285.994c0.764,0,1.386,0.622,1.386,1.386s-0.622,1.385-1.386,1.385s-1.386-0.621-1.386-1.385
				S272.813,285.994,273.577,285.994 M273.577,276.788c-5.85,0-10.592,4.742-10.592,10.592c0,5.849,4.742,10.591,10.592,10.591
				c5.85,0,10.592-4.742,10.592-10.591C284.168,281.53,279.426,276.788,273.577,276.788L273.577,276.788z"/>
		</g>
		<g>
			<line fill="#F4E4D2" x1="273.835" y1="287.38" x2="334.66" y2="297.243"/>
			<path fill="#CCC9CA" d="M334.666,301.847c-0.245,0-0.493-0.019-0.742-0.06l-60.825-9.863c-2.51-0.407-4.214-2.772-3.807-5.28
				c0.407-2.51,2.779-4.21,5.28-3.807l60.825,9.864c2.51,0.407,4.214,2.772,3.807,5.28
				C338.837,300.24,336.883,301.847,334.666,301.847z"/>
		</g>
		<g>
			<path fill="#666163" d="M328.691,296.223c0.433,1.17-0.165,2.469-1.334,2.902l-2.864,1.06c-1.17,0.433-2.469-0.165-2.902-1.334
				l0,0c-0.433-1.17,0.165-2.469,1.335-2.902l2.864-1.06C326.959,294.455,328.258,295.053,328.691,296.223L328.691,296.223z"/>
			<path fill="#666163" d="M335.495,293.766c0.433,1.17-0.165,2.469-1.334,2.902l-2.864,1.06c-1.17,0.433-2.469-0.165-2.902-1.334
				l0,0c-0.433-1.17,0.165-2.469,1.334-2.902l2.864-1.06C333.763,291.999,335.062,292.597,335.495,293.766L335.495,293.766z"/>
			<path fill="#666163" d="M342.298,291.31c0.433,1.17-0.165,2.469-1.335,2.902l-2.864,1.06c-1.17,0.433-2.469-0.165-2.902-1.334
				l0,0c-0.433-1.17,0.165-2.469,1.335-2.902l2.864-1.06C340.566,289.543,341.865,290.14,342.298,291.31L342.298,291.31z"/>
			<path fill="#666163" d="M349.102,288.854c0.433,1.17-0.165,2.469-1.334,2.902l-2.864,1.06c-1.17,0.433-2.469-0.165-2.902-1.335
				l0,0c-0.433-1.17,0.165-2.469,1.334-2.902l2.864-1.06C347.37,287.087,348.669,287.684,349.102,288.854L349.102,288.854z"/>
		</g>
		<g>
			<line fill="#F4E4D2" x1="327.245" y1="303.022" x2="347.423" y2="295.118"/>
			<path fill="#191617" d="M327.247,309.599c-2.627,0-5.108-1.585-6.125-4.179c-1.324-3.382,0.343-7.196,3.725-8.521l20.178-7.904
				c3.382-1.325,7.196,0.343,8.521,3.725c1.324,3.382-0.343,7.197-3.725,8.521l-20.178,7.904
				C328.856,309.454,328.045,309.599,327.247,309.599z"/>
		</g>
		<path fill="#666163" d="M171.563,59.419c7.076,0.348,21.159,2.069,28.235,2.414c4.695,0.229,18.801,0,18.801,0
			c5.447,0,9.864,4.416,9.864,9.864s-4.416,9.864-9.864,9.864H204.86c0,0-18.482,0.575-25.611,6.366l-1.067,0.985
			c-2.739,2.095-5.436,2.841-9.151,2.841c-3.513,0-10.54,0-14.053,0c-8.988,0-16.275-7.287-16.275-16.275
			s7.287-16.275,16.275-16.275C154.979,59.202,167.422,59.215,171.563,59.419z"/>
		<polygon fill="#979496" points="272.188,289.784 270.8,287.38 272.188,284.975 274.965,284.975 276.353,287.38 274.965,289.784 		
			"/>
		<circle fill="#CCC9CA" cx="337.334" cy="299.07" r="3.952"/>
		<polygon fill="#979496" points="335.946,301.474 334.557,299.07 335.946,296.665 338.722,296.665 340.111,299.07 338.722,301.474 
					"/>
	</g>
	<path fill="#61C6C7" d="M123.561,276.339l-101.954-2.826c-7.292-0.202-13.04-6.277-12.837-13.569l3.293-118.79
		c0.202-7.292,6.277-13.04,13.569-12.837l101.954,2.826c7.292,0.202,13.04,6.277,12.837,13.569l-3.293,118.79
		C136.928,270.794,130.853,276.541,123.561,276.339z"/>
	
		<rect x="41.116" y="129.741" transform="matrix(0.9996 0.0277 -0.0277 0.9996 5.6367 -2.0297)" fill="#01A59C" width="69.872" height="145.253"/>
	<path fill="#034C4A" d="M12.412,129.259l-1.802,65.002c-0.202,7.292,5.545,13.367,12.837,13.569l101.954,2.826
		c7.292,0.202,13.367-5.545,13.569-12.837l1.802-65.002L12.412,129.259z"/>
	
		<rect x="11.979" y="129.723" transform="matrix(0.9996 0.0277 -0.0277 0.9996 4.048 -2.0553)" fill="#0C6667" width="128.411" height="30.619"/>
	
		<rect x="70.488" y="183.405" transform="matrix(0.9996 0.0277 -0.0277 0.9996 5.6367 -2.0297)" fill="#352F31" width="11.129" height="37.925"/>
</g>
</svg>
