<?xml version="1.0" encoding="utf-8"?>
<!-- Generator: Adobe Illustrator 17.1.0, SVG Export Plug-In . SVG Version: 6.00 Build 0)  -->
<!DOCTYPE svg PUBLIC "-//W3C//DTD SVG 1.1//EN" "http://www.w3.org/Graphics/SVG/1.1/DTD/svg11.dtd" [
	<!ENTITY ns_flows "http://ns.adobe.com/Flows/1.0/">
	<!ENTITY ns_extend "http://ns.adobe.com/Extensibility/1.0/">
	<!ENTITY ns_ai "http://ns.adobe.com/AdobeIllustrator/10.0/">
	<!ENTITY ns_graphs "http://ns.adobe.com/Graphs/1.0/">
]>
<svg version="1.1" id="Layer_1" xmlns:x="&ns_extend;" xmlns:i="&ns_ai;" xmlns:graph="&ns_graphs;"
	 xmlns="http://www.w3.org/2000/svg" xmlns:xlink="http://www.w3.org/1999/xlink" xmlns:a="http://ns.adobe.com/AdobeSVGViewerExtensions/3.0/"
	 x="0px" y="0px" viewBox="0 0 120 120" enable-background="new 0 0 120 120" xml:space="preserve">
<g>
	<circle fill="#FFDA24" cx="60" cy="60" r="60"/>
	<path fill="#EDC51B" d="M60,0C26.863,0,0,26.863,0,60c0,20.411,10.201,38.431,25.774,49.269L70.407,0.918
		C67.025,0.326,63.552,0,60,0z"/>
	<polygon fill="#003878" points="80.227,50.65 84.413,44.936 96.133,44.936 96.133,50.65 80.227,50.65 	"/>
	<path fill="#EF1828" d="M19.665,51.936h-8.327v18.085h6.334v-5.442h3.364c3.68,0,5.989-2.31,5.989-6.018
		C27.025,54.099,23.909,51.936,19.665,51.936z M18.121,60.004h-0.636v-3.103h0.605c1.083,0,2.44,0.072,2.44,1.443
		C20.531,59.816,19.276,60.004,18.121,60.004z"/>
	<path fill="#FF1D25" d="M103.87,58.661l-1.501-0.346c-0.505-0.114-1.314-0.217-1.314-0.836c0-0.752,0.838-0.969,1.413-0.969
		c1.418,0,2.729,0.609,3.812,1.329l1.775-4.604c-1.775-1.083-3.665-1.588-5.732-1.588c-3.939,0-7.866,2.41-7.866,6.668
		c0,2.844,2.165,4.36,4.735,4.822l1.327,0.229c0.609,0.131,1.474,0.204,1.474,1.01c0,0.824-1.042,1.083-1.691,1.083
		c-1.515,0-2.929-0.734-4.113-1.658l-0.331-0.26l-2.02,5.125c2.036,1.024,4.691,1.646,6.97,1.646c3.927,0,7.854-2.124,7.854-6.454
		C108.662,60.767,106.642,59.281,103.87,58.661z"/>
	<rect x="85.583" y="51.936" fill="#FF1D25" width="6.582" height="18.085"/>
	<path fill="none" d="M54.58,57.938h-0.117h-0.13l-1.196,5.53h1.326h1.314l-0.765-3.207C54.811,59.498,54.71,58.706,54.58,57.938z"
		/>
	<path fill="#FF1D25" d="M77.471,60.393l5.687-8.457h-7.433l-1.257,2.582c-0.245,0.476-0.461,0.953-0.578,1.486h-0.144
		c-0.144-0.505-0.289-1.01-0.547-1.486l-1.358-2.582h-7.418l5.701,8.457l-5.9,8.944l-6.18-17.401h-3.581h-3.694l-6.03,17.293
		l-1.531-2.282l-1.267,3.074h2.521h0.808h6.163l0.535-2.253h2.495h2.468l0.607,2.253h6.234h0.694h6.798l2.021-3.696
		c0.216-0.403,0.389-0.808,0.505-1.241h0.203c0.072,0.374,0.186,0.736,0.375,1.096l2.079,3.841h7.505L77.471,60.393z M54.463,63.469
		h-1.326l1.196-5.53h0.13h0.117c0.13,0.767,0.23,1.56,0.432,2.324l0.765,3.207H54.463z"/>
	<path fill="#FF1D25" d="M41.33,64.146c-0.362-0.535-0.781-0.822-1.111-1.083v-0.145c2.454-0.822,3.506-1.977,3.506-4.718
		c0-4.534-3.464-6.264-7.547-6.264h-0.405h-7.548v18.085h6.451v-5.803h0.116l0.981,2.05l1.89,3.753h4.279l1.267-3.074L41.33,64.146z
		 M35.772,59.874c-0.258,0.057-0.547,0.057-0.838,0.057h-0.461v-3.031h0.505c0.274,0,0.549,0.014,0.794,0.057
		c0.752,0.116,1.312,0.462,1.312,1.458C37.085,59.397,36.507,59.757,35.772,59.874z"/>
	<path fill="#EF1828" d="M41.33,64.146c-0.362-0.535-0.781-0.822-1.111-1.083v-0.145c2.454-0.822,3.506-1.977,3.506-4.718
		c0-4.534-3.464-6.264-7.547-6.264h-0.405h-7.548v18.085h6.451v-5.803h0.116l0.981,2.05l1.89,3.753h4.279l1.267-3.074L41.33,64.146z
		 M35.772,59.874c-0.258,0.057-0.547,0.057-0.838,0.057h-0.461v-3.031h0.505c0.274,0,0.549,0.014,0.794,0.057
		c0.752,0.116,1.312,0.462,1.312,1.458C37.085,59.397,36.507,59.757,35.772,59.874z"/>
</g>
</svg>
