<?xml version="1.0" encoding="utf-8"?>
<!-- Generator: Adobe Illustrator 17.1.0, SVG Export Plug-In . SVG Version: 6.00 Build 0)  -->
<!DOCTYPE svg PUBLIC "-//W3C//DTD SVG 1.1//EN" "http://www.w3.org/Graphics/SVG/1.1/DTD/svg11.dtd" [
	<!ENTITY ns_flows "http://ns.adobe.com/Flows/1.0/">
	<!ENTITY ns_extend "http://ns.adobe.com/Extensibility/1.0/">
	<!ENTITY ns_ai "http://ns.adobe.com/AdobeIllustrator/10.0/">
	<!ENTITY ns_graphs "http://ns.adobe.com/Graphs/1.0/">
]>
<svg version="1.1" id="Layer_1" xmlns:x="&ns_extend;" xmlns:i="&ns_ai;" xmlns:graph="&ns_graphs;"
	 xmlns="http://www.w3.org/2000/svg" xmlns:xlink="http://www.w3.org/1999/xlink" xmlns:a="http://ns.adobe.com/AdobeSVGViewerExtensions/3.0/"
	 x="0px" y="0px" viewBox="0 0 120 120" enable-background="new 0 0 120 120" xml:space="preserve">
<g>
	<circle fill="#EE2A24" cx="60" cy="60" r="60"/>
	<path fill="#C62C2C" d="M60,0C26.863,0,0,26.863,0,60c0,20.411,10.201,38.431,25.774,49.269L70.407,0.918
		C67.025,0.326,63.552,0,60,0z"/>
	<path fill="#E6E6E6" d="M31.625,70.422c0,0.208,0.168,0.375,0.375,0.375h3.195c0.207,0,0.375-0.168,0.375-0.375V49.579
		c0-0.207-0.168-0.376-0.375-0.376H32c-0.207,0-0.375,0.168-0.375,0.376v7.605c0,0.208-0.169,0.375-0.376,0.375h-8.08
		c-0.207,0-0.376-0.167-0.376-0.375v-7.605c0-0.207-0.168-0.376-0.376-0.376h-3.195c-0.207,0-0.375,0.168-0.375,0.376v20.842
		c0,0.208,0.168,0.375,0.375,0.375h3.195c0.208,0,0.376-0.168,0.376-0.375v-8.919c0-0.208,0.169-0.377,0.376-0.377h8.08
		c0.207,0,0.376,0.169,0.376,0.377V70.422z"/>
	<path fill="#FFFFFF" d="M93.418,49.204c0.207,0,0.433,0.168,0.506,0.375l7.209,20.842c0.07,0.208-0.04,0.375-0.248,0.375h-3.287
		c-0.209,0-0.434-0.168-0.506-0.375l-1.16-3.444c-0.071-0.206-0.298-0.376-0.506-0.376h-7.719c-0.208,0-0.433,0.17-0.506,0.376
		l-1.16,3.444c-0.071,0.208-0.298,0.375-0.505,0.375h-3.288c-0.208,0-0.318-0.168-0.247-0.375l7.21-20.842
		c0.072-0.207,0.298-0.375,0.507-0.375H93.418z M94.196,63.129c0.208,0,0.318-0.169,0.246-0.376l-2.754-8.087
		c-0.034-0.097-0.071-0.146-0.121-0.146c-0.051,0-0.089,0.049-0.121,0.146l-2.755,8.087c-0.071,0.207,0.038,0.376,0.245,0.376
		H94.196z"/>
	<path fill="#FFFFFF" d="M67.751,70.422c-0.208,0-0.439-0.167-0.515-0.376l-5.298-14.376c-0.07-0.194-0.115-0.183-0.115,0.023
		v14.729c0,0.208-0.168,0.375-0.375,0.375h-3.194c-0.208,0-0.377-0.168-0.377-0.375V49.579c0-0.207,0.169-0.376,0.377-0.376h4.695
		c0.208,0,0.439,0.168,0.515,0.376l5.177,14.195c0.044,0.119,0.076,0.152,0.127,0.152c0.051,0,0.082-0.034,0.125-0.152l5.177-14.195
		c0.078-0.207,0.31-0.376,0.516-0.376h4.696c0.207,0,0.376,0.168,0.376,0.376v20.842c0,0.208-0.169,0.375-0.376,0.375H76.09
		c-0.21,0-0.376-0.168-0.376-0.375V55.693c0-0.207-0.044-0.217-0.116-0.023l-5.296,14.376c-0.078,0.209-0.31,0.376-0.516,0.376
		H67.751z"/>
	<path fill="#FFFFFF" d="M53.874,70.797c0.207,0,0.375-0.168,0.375-0.375v-2.817c0-0.206-0.168-0.375-0.375-0.375h-9.772
		c-0.208,0-0.376-0.168-0.376-0.375v-1.167l-2.104,5.109H53.874z"/>
	<path fill="#FFFFFF" d="M52.183,61.126c0.208,0,0.376-0.168,0.376-0.375v-2.817c0-0.207-0.168-0.376-0.376-0.376h-5.108
		l-1.47,3.567H52.183z"/>
	<path fill="#FFFFFF" d="M53.874,49.203h-3.357l-1.47,3.567h4.827c0.207,0,0.375-0.167,0.375-0.375v-2.816
		C54.249,49.372,54.081,49.203,53.874,49.203z"/>
	<path fill="#FFFFFF" d="M40.156,49.203c-0.207,0-0.376,0.169-0.376,0.376v20.842c0,0.208,0.168,0.375,0.376,0.375h1.465
		l2.104-5.109v-4.185c0-0.208,0.168-0.377,0.376-0.377h1.503l1.47-3.567h-2.973c-0.208,0-0.376-0.168-0.376-0.375v-4.038
		c0-0.208,0.168-0.376,0.376-0.376h4.945l1.47-3.567H40.156z"/>
	<path fill="#E6E6E6"  a:adobe-blending-mode="multiply" d="M40.156,49.203c-0.207,0-0.376,0.169-0.376,0.376v20.842
		c0,0.208,0.168,0.375,0.376,0.375h1.465l2.104-5.109v-4.185c0-0.208,0.168-0.377,0.376-0.377h1.503l1.47-3.567h-2.973
		c-0.208,0-0.376-0.168-0.376-0.375v-4.038c0-0.208,0.168-0.376,0.376-0.376h4.945l1.47-3.567H40.156z"/>
</g>
</svg>
