<?xml version="1.0" encoding="utf-8"?>
<!-- Generator: Adobe Illustrator 17.1.0, SVG Export Plug-In . SVG Version: 6.00 Build 0)  -->
<!DOCTYPE svg PUBLIC "-//W3C//DTD SVG 1.1//EN" "http://www.w3.org/Graphics/SVG/1.1/DTD/svg11.dtd" [
	<!ENTITY ns_flows "http://ns.adobe.com/Flows/1.0/">
	<!ENTITY ns_extend "http://ns.adobe.com/Extensibility/1.0/">
	<!ENTITY ns_ai "http://ns.adobe.com/AdobeIllustrator/10.0/">
	<!ENTITY ns_graphs "http://ns.adobe.com/Graphs/1.0/">
]>
<svg version="1.1" id="Layer_1" xmlns:x="&ns_extend;" xmlns:i="&ns_ai;" xmlns:graph="&ns_graphs;"
	 xmlns="http://www.w3.org/2000/svg" xmlns:xlink="http://www.w3.org/1999/xlink" xmlns:a="http://ns.adobe.com/AdobeSVGViewerExtensions/3.0/"
	 x="0px" y="0px" viewBox="0 0 120 120" enable-background="new 0 0 120 120" xml:space="preserve">
<g>
	<circle fill="#E2000F" cx="60" cy="60" r="60"/>
	<path fill="#C91123" d="M60,0C26.863,0,0,26.863,0,60c0,20.411,10.201,38.431,25.774,49.269L70.407,0.918
		C67.025,0.326,63.552,0,60,0z"/>
	<path fill="#FFFFFF" d="M54.61,56.756c0.577-0.268,2.233-0.577,2.583-0.47c0.01,0.151,0.031,0.319,0.032,0.487
		c0.002,2.137-0.005,4.274,0.007,6.411c0.002,0.417,0.034,0.841,0.121,1.248c0.139,0.65,0.497,0.896,1.16,0.914
		c0.655,0.018,1.199-0.236,1.692-0.641c0.145-0.119,0.219-0.262,0.214-0.448c-0.003-0.111,0.001-0.222,0.001-0.333
		c0-2.223,0-4.447,0.002-6.67c0-0.17,0.02-0.339,0.03-0.488c0.449-0.226,2.184-0.573,2.512-0.51
		c0.149,0.148,0.102,0.343,0.103,0.522c0.003,2.038,0.002,4.076,0.002,6.114c0,0.655,0.001,1.309,0.005,1.964
		c0.004,0.549,0.081,1.082,0.331,1.581c0.058,0.115,0.078,0.249,0.13,0.422c-0.757,0.226-1.49,0.368-2.191,0.525
		c-0.494-0.236-0.443-0.749-0.675-1.129c-0.097,0.068-0.193,0.12-0.271,0.192c-0.953,0.871-2.076,1.128-3.333,0.958
		c-0.579-0.078-1.109-0.251-1.548-0.642c-0.405-0.36-0.712-0.792-0.804-1.339c-0.059-0.352-0.122-0.709-0.124-1.064
		c-0.012-2.421-0.01-4.842-0.01-7.263C54.579,56.975,54.601,56.856,54.61,56.756z"/>
	<path fill="#FFFFFF" d="M99.668,66.612c-0.759,0.288-1.403,0.678-2.118,0.786c-0.389-0.334-0.369-0.808-0.626-1.202
		c-0.122,0.101-0.233,0.185-0.337,0.279c-0.994,0.903-2.155,1.099-3.417,0.771c-1.133-0.295-1.809-1.053-2.066-2.19
		c-0.162-0.714-0.127-1.422,0.082-2.12c0.219-0.734,0.682-1.27,1.358-1.633c0.867-0.466,1.802-0.658,2.773-0.71
		c0.283-0.015,0.568-0.007,0.851-0.02c0.131-0.006,0.26-0.036,0.408-0.058c0.061-0.574,0.061-1.112-0.109-1.637
		c-0.108-0.334-0.359-0.522-0.691-0.607c-0.58-0.149-1.155-0.074-1.719,0.075c-0.393,0.104-0.777,0.242-1.163,0.371
		c-0.237,0.079-0.235,0.084-0.532,0.012c-0.141-0.569-0.511-1.092-0.501-1.766c0.197-0.1,0.373-0.216,0.566-0.282
		c1.313-0.452,2.657-0.661,4.042-0.451c0.629,0.095,1.222,0.296,1.719,0.721c0.673,0.575,0.902,1.338,0.907,2.184
		c0.011,1.617,0.004,3.234,0.011,4.851c0.001,0.258,0.028,0.516,0.051,0.774c0.041,0.473,0.189,0.916,0.375,1.349
		C99.59,66.249,99.613,66.406,99.668,66.612z M96.57,62.322c-0.664-0.142-1.696,0.027-2.239,0.288
		c-1.004,0.483-1.007,1.959-0.318,2.557c0.335,0.29,0.713,0.421,1.16,0.352c0.482-0.074,0.878-0.304,1.229-0.63
		c0.146-0.135,0.211-0.291,0.208-0.491c-0.006-0.592-0.001-1.183-0.004-1.775C96.606,62.528,96.584,62.432,96.57,62.322z"/>
	<path fill="#FFFFFF" d="M107.173,58.414c-0.752,0-1.513,0-2.309,0c-0.021,0.174-0.049,0.303-0.049,0.433
		c-0.003,1.704-0.005,3.409,0.003,5.113c0.001,0.232,0.038,0.467,0.092,0.693c0.068,0.285,0.278,0.427,0.565,0.452
		c0.375,0.032,0.736-0.028,1.09-0.157c0.237-0.087,0.468-0.224,0.77-0.188c0.272,0.602,0.317,1.261,0.499,1.847
		c-0.048,0.219-0.185,0.306-0.342,0.352c-0.485,0.142-0.966,0.31-1.461,0.397c-0.507,0.09-1.022,0.116-1.547,0.056
		c-1.33-0.153-2.217-1.022-2.313-2.496c-0.017-0.258-0.013-0.518-0.014-0.778c-0.001-1.729,0-3.458-0.002-5.187
		c0-0.156-0.02-0.313-0.035-0.516c-0.591-0.011-1.152-0.022-1.746-0.034c-0.124-0.609-0.038-1.192-0.057-1.796
		c0.599-0.184,1.187-0.007,1.79-0.128c0.016-0.139,0.045-0.28,0.046-0.422c0.005-0.692,0-1.383,0.004-2.075
		c0.001-0.145,0.021-0.289,0.035-0.463c0.829-0.232,1.668-0.253,2.451-0.401c0.198,0.147,0.165,0.318,0.166,0.474
		c0.004,0.803,0.001,1.606,0.003,2.408c0,0.146,0.013,0.291,0.022,0.475c0.152,0.017,0.281,0.044,0.41,0.045
		c0.63,0.005,1.26-0.001,1.89,0.005c0.143,0.001,0.287,0.031,0.416,0.046C107.632,56.877,107.416,57.948,107.173,58.414z"/>
	<path fill="#FFFFFF" d="M85.888,64.569c0.225-0.915,0.431-1.836,0.682-2.744c0.252-0.916,0.542-1.822,0.828-2.728
		c0.284-0.901,0.527-1.816,0.859-2.716c0.804,0.067,1.553,0.169,2.35,0.288c-0.047,0.218-0.065,0.374-0.115,0.52
		c-0.466,1.354-0.937,2.706-1.408,4.058c-0.54,1.55-1.081,3.1-1.622,4.65c-0.142,0.408-0.285,0.816-0.431,1.223
		c-0.037,0.103-0.087,0.202-0.121,0.282c-0.365,0.168-1.976,0.168-2.363-0.013c-1.208-3.506-2.428-7.051-3.664-10.64
		c0.17-0.056,0.301-0.123,0.438-0.139c0.71-0.083,1.422-0.154,2.134-0.226c0.035-0.004,0.071,0.013,0.164,0.032
		c0.306,0.869,0.531,1.789,0.789,2.698c0.257,0.902,0.529,1.8,0.763,2.708c0.235,0.912,0.432,1.834,0.646,2.752
		C85.84,64.571,85.864,64.57,85.888,64.569z"/>
	<path fill="#E6E6E6" d="M22.252,70.067c-5.494,0.076-10.096-4.504-10.085-10.07c0.011-5.406,4.347-10.076,10.103-10.065
		c5.628,0.011,10.09,4.574,10.046,10.157C32.272,65.712,27.656,70.125,22.252,70.067z M31.608,60.023
		c0.044-5.074-4.103-9.367-9.322-9.39c-5.319-0.024-9.404,4.382-9.416,9.34c-0.012,4.961,3.975,9.396,9.347,9.409
		C27.616,69.395,31.642,64.976,31.608,60.023z"/>
	<path fill="#FFFFFF" d="M46.843,56.907c0.326-0.121,0.579-0.217,0.833-0.308c0.314-0.113,0.627-0.225,0.943-0.331
		c0.411-0.139,0.594-0.067,0.771,0.325c0.106,0.235,0.184,0.483,0.272,0.726c0.05,0.136,0.095,0.273,0.162,0.464
		c0.119-0.106,0.201-0.172,0.274-0.245c0.271-0.27,0.522-0.561,0.812-0.809c0.659-0.563,1.427-0.699,2.257-0.489
		c0.172,0.044,0.329,0.15,0.467,0.215c0.048,0.385-0.448,1.855-0.753,2.257c-0.133-0.03-0.291-0.048-0.434-0.103
		c-0.538-0.208-1.016-0.085-1.464,0.24c-0.05,0.036-0.1,0.072-0.149,0.109c-0.445,0.334-0.683,0.716-0.669,1.335
		c0.049,2.073,0.019,4.147,0.017,6.221c0,0.167-0.024,0.335-0.036,0.483c-0.327,0.106-2.131,0.12-2.557,0.021
		c-0.014-0.147-0.043-0.313-0.043-0.478c-0.003-2.024,0.006-4.049-0.007-6.073c-0.003-0.541-0.024-1.089-0.12-1.62
		c-0.089-0.492-0.29-0.964-0.439-1.446C46.932,57.255,46.896,57.105,46.843,56.907z"/>
	<path fill="#FFFFFF" d="M69.047,67.079c-0.875,0.003-1.695,0.022-2.565-0.016c-0.015-0.218-0.037-0.397-0.038-0.576
		c-0.002-2.506-0.001-5.012-0.003-7.518c0-0.157-0.015-0.313-0.024-0.49c-0.575-0.121-1.134,0.01-1.671-0.082
		c-0.129-0.285-0.146-1.417-0.02-1.822c0.101-0.016,0.219-0.051,0.338-0.052c1.21-0.004,2.419-0.004,3.629,0
		c0.107,0,0.213,0.031,0.351,0.052c0.016,0.151,0.041,0.282,0.041,0.412c0.002,3.21,0.002,6.419,0,9.629
		C69.086,66.749,69.064,66.881,69.047,67.079z"/>
	<path fill="#FFFFFF" d="M69.388,53.336c-0.004,0.98-0.733,1.696-1.717,1.686c-0.939-0.009-1.674-0.761-1.67-1.709
		c0.004-0.939,0.745-1.662,1.712-1.672C68.65,51.631,69.392,52.381,69.388,53.336z"/>
	<path fill="#E6E6E6" d="M25.37,54.462c0.017,0.942-0.698,1.495-1.48,1.511c-0.781,0.016-1.486-0.706-1.492-1.488
		c-0.008-0.92,0.808-1.475,1.477-1.484C24.604,52.991,25.431,53.676,25.37,54.462z"/>
	<path fill="#E6E6E6" d="M21.122,58.644c-0.878,0.004-1.452-0.705-1.446-1.467c0.006-0.819,0.644-1.462,1.425-1.467
		c0.922-0.006,1.506,0.708,1.506,1.502C22.606,58.023,21.948,58.65,21.122,58.644z"/>
	<path fill="#E6E6E6" d="M23.904,64.205c0.893-0.046,1.453,0.778,1.45,1.415c-0.005,0.81-0.647,1.467-1.451,1.467
		c-0.817,0-1.488-0.663-1.465-1.49C22.459,64.789,23.115,64.151,23.904,64.205z"/>
	<path fill="#E6E6E6" d="M22.543,62.874c-0.004,0.823-0.604,1.413-1.438,1.414c-0.845,0.001-1.453-0.61-1.441-1.448
		c0.011-0.813,0.633-1.431,1.439-1.43C21.925,61.41,22.547,62.043,22.543,62.874z"/>
	<path fill="#E6E6E6" d="M18.348,58.572c0.918-0.036,1.451,0.808,1.442,1.425c-0.012,0.812-0.651,1.448-1.464,1.459
		c-0.715,0.01-1.452-0.645-1.429-1.481C16.919,59.227,17.537,58.525,18.348,58.572z"/>
	<path fill="#FFFFFF" d="M80.253,66.448c-0.204,0.218-1.583,0.8-2.133,0.905c-0.216-0.079-0.307-0.268-0.385-0.466
		c-0.071-0.18-0.135-0.363-0.213-0.573c-0.277,0.179-0.518,0.348-0.772,0.496c-0.844,0.493-1.743,0.741-2.73,0.599
		c-0.922-0.133-1.59-0.637-2.079-1.401c-0.42-0.656-0.63-1.39-0.756-2.152c-0.209-1.267-0.163-2.538,0.018-3.8
		c0.155-1.083,0.547-2.081,1.342-2.871c1.004-0.999,2.208-1.243,3.551-0.876c0.248,0.068,0.482,0.188,0.723,0.284
		c0.09,0.036,0.18,0.07,0.325,0.126c0.017-0.172,0.041-0.311,0.042-0.45c0.003-1.211,0.002-2.421,0.002-3.632
		c0-0.159,0-0.318,0-0.52c0.841-0.281,1.693-0.374,2.544-0.574c0.041,0.115,0.084,0.191,0.092,0.269
		c0.014,0.135,0.008,0.271,0.008,0.407c0,4.04,0.006,8.079-0.005,12.119c-0.002,0.692,0.071,1.354,0.393,1.975
		C80.242,66.355,80.244,66.407,80.253,66.448z M77.17,58.668c-0.763-0.382-1.526-0.567-2.329-0.248
		c-0.216,0.086-0.409,0.274-0.563,0.458c-0.276,0.33-0.378,0.745-0.447,1.162c-0.199,1.203-0.198,2.408,0.004,3.61
		c0.047,0.278,0.126,0.555,0.231,0.817c0.156,0.39,0.414,0.705,0.829,0.845c0.767,0.259,1.761-0.058,2.275-0.731
		C77.17,62.642,77.17,60.682,77.17,58.668z"/>
	<path fill="#E6E6E6" d="M38.526,67.061c-0.874,0-1.746,0-2.647,0c-0.04-0.111-0.09-0.209-0.108-0.312
		c-0.019-0.108-0.009-0.222-0.009-0.333c0-4.458-0.001-8.916,0.001-13.375c0-0.18,0.02-0.361,0.034-0.587
		c0.948-0.068,1.852-0.04,2.739-0.019c0.161,0.216,0.147,0.429,0.148,0.637c0.001,1.741,0.001,3.483,0.001,5.224
		c0,0.145,0,0.289,0,0.434c0.028,0.01,0.055,0.02,0.083,0.031c0.068-0.077,0.143-0.148,0.203-0.23
		c1.098-1.522,2.194-3.045,3.291-4.568c0.353-0.491,0.704-0.984,1.061-1.473c0.071-0.097,0.162-0.181,0.26-0.289
		c0.114,0.03,0.226,0.04,0.32,0.087c0.635,0.321,1.285,0.614,1.942,0.992c-0.107,0.18-0.174,0.322-0.266,0.445
		c-1.346,1.8-2.695,3.597-4.043,5.395c-0.102,0.137-0.199,0.277-0.32,0.446c0.283,0.36,0.554,0.71,0.829,1.054
		c1.381,1.725,2.765,3.448,4.145,5.174c0.082,0.103,0.14,0.225,0.225,0.363c-0.096,0.091-0.161,0.189-0.252,0.234
		c-0.726,0.36-1.415,0.798-2.229,1.083c-1.754-2.245-3.418-4.534-5.145-6.775c-0.029,0.009-0.057,0.019-0.086,0.028
		c-0.006,0.142-0.016,0.284-0.016,0.425c-0.001,1.741,0,3.483-0.001,5.224C38.682,66.598,38.695,66.823,38.526,67.061z"/>
	<path fill="#FFFFFF" d="M44.533,63.729l-1.213,2.944c0.205,0.266,0.403,0.536,0.61,0.801c0.814-0.285,1.503-0.723,2.229-1.083
		c0.091-0.045,0.156-0.143,0.252-0.234c-0.085-0.138-0.143-0.26-0.225-0.363C45.637,65.106,45.085,64.418,44.533,63.729z"/>
</g>
</svg>
