<?xml version="1.0" encoding="utf-8"?>
<!-- Generator: Adobe Illustrator 17.1.0, SVG Export Plug-In . SVG Version: 6.00 Build 0)  -->
<!DOCTYPE svg PUBLIC "-//W3C//DTD SVG 1.1//EN" "http://www.w3.org/Graphics/SVG/1.1/DTD/svg11.dtd" [
	<!ENTITY ns_flows "http://ns.adobe.com/Flows/1.0/">
	<!ENTITY ns_extend "http://ns.adobe.com/Extensibility/1.0/">
	<!ENTITY ns_ai "http://ns.adobe.com/AdobeIllustrator/10.0/">
	<!ENTITY ns_graphs "http://ns.adobe.com/Graphs/1.0/">
]>
<svg version="1.1" id="Layer_1" xmlns:x="&ns_extend;" xmlns:i="&ns_ai;" xmlns:graph="&ns_graphs;"
	 xmlns="http://www.w3.org/2000/svg" xmlns:xlink="http://www.w3.org/1999/xlink" xmlns:a="http://ns.adobe.com/AdobeSVGViewerExtensions/3.0/"
	 x="0px" y="0px" viewBox="0 0 120 120" enable-background="new 0 0 120 120" xml:space="preserve">
<circle fill="#EE2A24" cx="60" cy="60" r="60"/>
<path fill="#C62C2C" d="M60,0C26.863,0,0,26.863,0,60c0,20.411,10.201,38.431,25.774,49.269L70.407,0.918
	C67.025,0.326,63.552,0,60,0z"/>
<path fill="#FFFFFF" d="M28.674,41.349h6.334c4.089,0,6.854,0.188,8.294,0.563c1.441,0.375,2.537,0.992,3.288,1.849
	c0.75,0.859,1.219,1.814,1.407,2.866c0.188,1.053,0.282,3.12,0.282,6.203v11.401c0,2.923-0.138,4.877-0.412,5.861
	c-0.275,0.985-0.754,1.756-1.438,2.312c-0.683,0.557-1.529,0.945-2.534,1.167c-1.005,0.221-2.52,0.331-4.544,0.331H28.674V41.349z
	 M37.139,46.919v21.415c1.22,0,1.971-0.244,2.252-0.734c0.282-0.489,0.423-1.82,0.423-3.991V50.96c0-1.474-0.047-2.42-0.141-2.835
	c-0.094-0.415-0.308-0.721-0.643-0.915C38.694,47.016,38.064,46.919,37.139,46.919z"/>
<path fill="#FFFFFF" d="M57.877,41.349v4.243h-8.364v-4.243H57.877z M57.877,47.22v26.683h-8.364V47.22H57.877z"/>
<path fill="#FFFFFF" d="M67.235,47.22l-0.322,3.509c1.179-2.513,2.889-3.843,5.127-3.991v9.39c-1.488,0-2.58,0.201-3.278,0.603
	c-0.696,0.402-1.126,0.962-1.287,1.679c-0.161,0.717-0.241,2.369-0.241,4.956v10.536h-8.123V47.22H67.235z"/>
<path fill="#FFFFFF" d="M90.224,47.22l-3.298,10.627l4.283,16.055h-7.812l-2.534-11.63l-0.01,11.63h-8.123V41.349h8.123l0.01,13.666
	l2.534-7.795H90.224z"/>
<rect x="28.677" y="76.4" fill="#FFFFFF" width="62.649" height="2.251"/>
<path fill="#C62C2C" d="M60,0C26.863,0,0,26.863,0,60c0,20.411,10.201,38.431,25.774,49.269L70.407,0.918
	C67.025,0.326,63.552,0,60,0z"/>
<path fill="#FFFFFF" d="M28.674,41.349h6.334c4.089,0,6.854,0.188,8.294,0.563c1.441,0.375,2.537,0.992,3.288,1.849
	c0.75,0.859,1.219,1.814,1.407,2.866c0.188,1.053,0.282,3.12,0.282,6.203v11.401c0,2.923-0.138,4.877-0.412,5.861
	c-0.275,0.985-0.754,1.756-1.438,2.312c-0.683,0.557-1.529,0.945-2.534,1.167c-1.005,0.221-2.52,0.331-4.544,0.331H28.674V41.349z
	 M37.139,46.919v21.415c1.22,0,1.971-0.244,2.252-0.734c0.282-0.489,0.423-1.82,0.423-3.991V50.96c0-1.474-0.047-2.42-0.141-2.835
	c-0.094-0.415-0.308-0.721-0.643-0.915C38.694,47.016,38.064,46.919,37.139,46.919z"/>
<path fill="#FFFFFF" d="M57.877,41.349v4.243h-8.364v-4.243H57.877z M57.877,47.22v26.683h-8.364V47.22H57.877z"/>
<rect x="28.677" y="76.4" fill="#FFFFFF" width="62.649" height="2.251"/>
<path fill="#C62C2C" d="M60,0C26.863,0,0,26.863,0,60c0,20.411,10.201,38.431,25.774,49.269L70.407,0.918
	C67.025,0.326,63.552,0,60,0z"/>
<g>
	<path fill="#E6E6E6" d="M48.282,52.83c0-3.083-0.094-5.15-0.282-6.203c-0.188-1.052-0.657-2.007-1.407-2.866
		c-0.751-0.857-1.847-1.474-3.288-1.849c-1.441-0.375-4.206-0.563-8.294-0.563h-6.333v32.554h10.677
		c0.355,0,0.674-0.008,0.998-0.014l7.93-19.251V52.83z M39.816,63.607c0,2.172-0.141,3.502-0.423,3.991
		c-0.281,0.49-1.032,0.734-2.252,0.734V46.918c0.925,0,1.555,0.097,1.89,0.292c0.335,0.194,0.55,0.5,0.644,0.915
		c0.093,0.415,0.141,1.361,0.141,2.835V63.607z"/>
	<g>
		<polygon fill="#E6E6E6" points="49.516,41.349 49.516,45.592 52.008,45.592 53.755,41.349 		"/>
		<polygon fill="#E6E6E6" points="49.516,51.64 51.337,47.22 49.516,47.22 		"/>
	</g>
	<polygon fill="#E6E6E6" points="28.68,76.4 28.68,78.651 38.389,78.651 39.316,76.4 	"/>
</g>
</svg>
