<?xml version="1.0" encoding="utf-8"?>
<!-- Generator: Adobe Illustrator 17.1.0, SVG Export Plug-In . SVG Version: 6.00 Build 0)  -->
<!DOCTYPE svg PUBLIC "-//W3C//DTD SVG 1.1//EN" "http://www.w3.org/Graphics/SVG/1.1/DTD/svg11.dtd" [
	<!ENTITY ns_flows "http://ns.adobe.com/Flows/1.0/">
	<!ENTITY ns_extend "http://ns.adobe.com/Extensibility/1.0/">
	<!ENTITY ns_ai "http://ns.adobe.com/AdobeIllustrator/10.0/">
	<!ENTITY ns_graphs "http://ns.adobe.com/Graphs/1.0/">
]>
<svg version="1.1" id="Layer_1" xmlns:x="&ns_extend;" xmlns:i="&ns_ai;" xmlns:graph="&ns_graphs;"
	 xmlns="http://www.w3.org/2000/svg" xmlns:xlink="http://www.w3.org/1999/xlink" xmlns:a="http://ns.adobe.com/AdobeSVGViewerExtensions/3.0/"
	 x="0px" y="0px" viewBox="0 0 120 120" enable-background="new 0 0 120 120" xml:space="preserve">
<g>
	<circle fill="#622C00" cx="60" cy="60" r="60"/>
	<path fill="#492307" d="M60,0C26.863,0,0,26.863,0,60c0,20.411,10.201,38.431,25.774,49.269L70.407,0.918
		C67.025,0.326,63.552,0,60,0z"/>
	<path fill="#E6E6E6" d="M17.8,52.572c1.608-1.118,3.253-1.942,5.158-2.014c1.942-0.074,3.604,0.524,4.733,2.281
		c0.355-0.239,0.659-0.454,0.973-0.652c1.724-1.088,3.554-1.818,5.646-1.585c3.131,0.349,4.908,2.119,5,5.276
		c0.111,3.8,0.037,7.605,0.051,11.408c0.001,0.354-0.135,0.482-0.482,0.479c-1.345-0.011-2.689-0.018-4.034,0.001
		c-0.531,0.007-0.485-0.33-0.485-0.674c0.001-3.131,0.008-6.261-0.008-9.392c-0.003-0.52-0.057-1.052-0.179-1.556
		c-0.187-0.775-0.736-1.194-1.535-1.274c-1.345-0.135-2.534,0.292-3.596,1.072c-0.184,0.135-0.282,0.498-0.283,0.756
		c-0.018,3.404-0.012,6.807-0.012,10.211c0,0.85-0.001,0.852-0.868,0.853c-1.156,0.002-2.312-0.024-3.466,0.011
		c-0.535,0.016-0.672-0.179-0.669-0.69c0.02-3.088,0.02-6.177,0.001-9.266c-0.004-0.561-0.073-1.135-0.21-1.678
		c-0.209-0.825-0.746-1.216-1.593-1.279c-1.296-0.097-2.451,0.316-3.478,1.064c-0.199,0.145-0.311,0.53-0.313,0.805
		c-0.021,3.362-0.012,6.723-0.013,10.085c0,0.948-0.004,0.948-0.978,0.948c-1.156,0-2.311-0.013-3.467,0.005
		c-0.409,0.006-0.544-0.14-0.544-0.549c0.01-5.253,0.009-10.505,0-15.758c-0.001-0.37,0.116-0.538,0.501-0.534
		c1.071,0.012,2.143,0.013,3.214,0.001c0.354-0.004,0.54,0.138,0.616,0.483C17.56,51.771,17.675,52.125,17.8,52.572z"/>
	<path fill="#FFFFFF" d="M55.598,67.755c-1.281,0-2.537,0.012-3.792-0.015c-0.158-0.003-0.354-0.186-0.459-0.336
		c-0.201-0.286-0.349-0.608-0.537-0.948c-0.348,0.232-0.633,0.444-0.939,0.622c-2.1,1.22-4.291,1.467-6.499,0.385
		c-1.962-0.962-2.829-2.657-2.86-4.812c-0.031-2.15,0.932-3.696,2.825-4.677c1.575-0.815,3.294-0.938,5.02-1.01
		c0.504-0.021,1.008-0.035,1.512-0.036c0.403-0.001,0.494-0.202,0.447-0.567c-0.146-1.117-1.106-1.889-2.497-1.97
		c-1.324-0.077-2.591,0.173-3.804,0.704c-0.268,0.117-0.533,0.243-0.908,0.415c-0.476-0.955-0.961-1.896-1.397-2.859
		c-0.041-0.091,0.194-0.379,0.36-0.481c2.213-1.362,4.653-1.741,7.199-1.584c0.667,0.041,1.34,0.139,1.987,0.303
		c2.533,0.644,3.987,2.392,4.105,5.003c0.077,1.698,0.044,3.401,0.054,5.102c0.006,1.113-0.022,2.227,0.008,3.339
		C55.453,65.441,55.534,66.548,55.598,67.755z M50.276,60.185c-1.253,0.146-2.424,0.207-3.56,0.441
		c-0.854,0.176-1.227,0.799-1.231,1.611c-0.004,0.867,0.42,1.508,1.25,1.761c1.09,0.332,2.162,0.228,3.179-0.291
		c0.149-0.076,0.341-0.258,0.346-0.397C50.29,62.329,50.276,61.347,50.276,60.185z"/>
	<path fill="#FFFFFF" d="M93.078,46.15c0,1.245,0,2.479,0,3.714c0,1.754,0,1.753,1.727,1.75c1.088-0.002,2.175,0,3.368,0
		c-0.106,0.37-0.174,0.643-0.263,0.909c-0.287,0.856-0.602,1.703-0.867,2.565c-0.127,0.415-0.346,0.558-0.773,0.544
		c-0.881-0.028-1.764,0.005-2.646-0.013c-0.398-0.008-0.558,0.12-0.554,0.54c0.018,2.079-0.006,4.159,0.02,6.238
		c0.014,1.097,0.544,1.609,1.642,1.471c0.838-0.106,1.65-0.418,2.604-0.674c0.213,0.492,0.48,1.093,0.734,1.701
		c0.587,1.406,0.593,1.426-0.79,2.075c-1.836,0.863-3.756,1.355-5.799,1.059c-2.214-0.321-3.372-1.683-3.391-3.982
		c-0.022-2.562-0.02-5.125,0.007-7.687c0.006-0.569-0.146-0.793-0.736-0.747c-0.605,0.047-1.217,0.003-1.826,0.011
		c-0.343,0.004-0.487-0.138-0.482-0.492c0.014-1.008,0.013-2.016-0.001-3.024c-0.005-0.349,0.129-0.495,0.478-0.49
		c0.672,0.01,1.345-0.015,2.016,0.005c0.413,0.012,0.552-0.153,0.545-0.557c-0.019-1.029-0.023-2.059,0.009-3.087
		c0.006-0.2,0.164-0.521,0.321-0.57c1.439-0.458,2.893-0.871,4.344-1.29C92.837,46.096,92.925,46.132,93.078,46.15z"/>
	<path fill="#FFFFFF" d="M66.856,55.422c-0.23-0.1-0.418-0.183-0.607-0.263c-1.509-0.647-2.843-0.257-4.031,0.747
		c-0.19,0.161-0.248,0.56-0.249,0.849c-0.016,3.403-0.026,6.807,0.004,10.21c0.006,0.64-0.181,0.837-0.818,0.81
		c-1.132-0.049-2.27-0.046-3.402,0c-0.624,0.025-0.78-0.207-0.778-0.796c0.018-4.811,0.01-9.622,0.01-14.433
		c0-1.617,0-1.617,1.644-1.615c0.63,0.001,1.263,0.034,1.89-0.011c0.521-0.037,0.775,0.164,0.882,0.658
		c0.064,0.298,0.193,0.582,0.305,0.908c0.574-0.401,1.069-0.792,1.606-1.113c1.584-0.948,3.223-1.116,4.926-0.297
		c0.429,0.207,0.52,0.419,0.291,0.87c-0.496,0.972-0.925,1.978-1.386,2.967C67.064,55.077,66.963,55.231,66.856,55.422z"/>
	<path fill="#FFFFFF" d="M105.652,46.676c-0.609-0.348-1.189-0.681-1.737-0.994c0.248-0.62,0.553-1.174,0.69-1.766
		c0.354-1.538-0.314-2.965-1.586-3.557c-1.435-0.668-3.136-0.33-4.079,0.812c-0.916,1.108-0.965,2.961-0.081,4.108
		c0.213,0.277,0.496,0.512,0.784,0.715c0.253,0.179,0.598,0.238,0.827,0.437c0.228,0.198,0.362,0.504,0.592,0.843
		c0.424-0.259,0.813-0.534,1.236-0.74c0.196-0.096,0.505-0.155,0.68-0.066c0.595,0.301,1.153,0.676,1.73,1.025
		c-1.226,1.514-5.077,1.467-6.874-0.051c-2.202-1.859-2.405-5.615-0.425-7.844c1.951-2.196,5.795-2.331,7.965-0.281
		C107.209,41.048,107.381,44.926,105.652,46.676z"/>
	<path fill="#FFFFFF" d="M99.659,43.348c0.004-0.907,0.239-1.62,1.032-2.014c1.007-0.501,2.214,0.071,2.455,1.187
		c0.09,0.418,0.093,0.878,0.027,1.302c-0.145,0.94-0.775,1.476-1.656,1.498c-0.925,0.023-1.58-0.491-1.797-1.428
		C99.674,43.69,99.673,43.478,99.659,43.348z"/>
	<g>
		<path fill="#FFFFFF" d="M84,74.884c0-7.523-0.137-15.046-0.113-22.569c0.002-0.598-0.266-0.861-0.803-1.032
			c-1.97-0.627-4.03-0.796-6.072-0.719c-2.47,0.093-4.805,0.733-6.71,2.396c-2.471,2.157-3.231,4.947-2.92,8.133
			c0.523,5.345,5.898,8.465,10.831,6.347C78.412,67.355,79,67.281,79,67.19C79,70.04,79,73,79,76h5C84,76,84,75.116,84,74.884z
			 M78.752,60c-0.004,0-0.008,0-0.012,0c0,1-0.02,1.908,0.01,3.063c0.011,0.426-0.14,0.436-0.519,0.605
			c-3.046,1.358-5.736-0.542-5.919-4.07c-0.131-2.536,1.587-4.521,4.134-4.667c0.583-0.033,1.172,0.013,1.759,0.041
			c0.412,0.02,0.563,0.62,0.554,1.043C78.736,57.211,78.752,58,78.752,60z"/>
	</g>
	<g>
		<path fill="none" d="M46.717,60.626c-0.854,0.176-1.227,0.799-1.231,1.611c-0.004,0.867,0.42,1.508,1.25,1.761
			c1.09,0.332,2.162,0.228,3.179-0.291c0.149-0.076,0.341-0.258,0.346-0.397c0.03-0.981,0.016-1.963,0.016-3.125
			C49.023,60.331,47.852,60.392,46.717,60.626z"/>
		<path fill="none" d="M48.357,56.963c0.504-0.021,1.008-0.035,1.512-0.036c0.403-0.001,0.494-0.202,0.447-0.567
			c-0.127-0.967-0.865-1.674-1.964-1.899l-1.055,2.56C47.649,56.997,48.003,56.978,48.357,56.963z"/>
		<path fill="#FFFFFF" d="M55.416,60.994c-0.01-1.701,0.022-3.404-0.054-5.102c-0.118-2.611-1.572-4.359-4.105-5.003
			c-0.437-0.111-0.886-0.181-1.337-0.235l-1.568,3.807c1.099,0.225,1.838,0.932,1.964,1.899c0.048,0.365-0.043,0.566-0.447,0.567
			c-0.504,0.001-1.008,0.015-1.512,0.036c-0.354,0.015-0.708,0.034-1.061,0.058l-4.229,10.265c0.102,0.058,0.195,0.122,0.304,0.175
			c2.208,1.082,4.398,0.835,6.499-0.385c0.305-0.177,0.591-0.39,0.939-0.622c0.188,0.339,0.336,0.662,0.537,0.948
			c0.106,0.15,0.301,0.333,0.459,0.336c1.255,0.027,2.511,0.015,3.792,0.015c-0.064-1.207-0.145-2.313-0.174-3.421
			C55.394,63.221,55.422,62.107,55.416,60.994z M50.26,63.31c-0.004,0.138-0.197,0.321-0.346,0.397
			c-1.017,0.519-2.09,0.623-3.179,0.291c-0.83-0.253-1.254-0.894-1.25-1.761c0.004-0.812,0.377-1.435,1.231-1.611
			c1.135-0.234,2.306-0.294,3.56-0.441C50.276,61.347,50.29,62.329,50.26,63.31z"/>
		<path fill="#E6E6E6" d="M43.337,57.973c-1.893,0.98-2.856,2.527-2.825,4.677c0.03,2.036,0.817,3.653,2.556,4.637l4.229-10.265
			C45.932,57.117,44.588,57.325,43.337,57.973z"/>
		<path fill="#E6E6E6" d="M42.07,52.169c-0.166,0.102-0.401,0.39-0.36,0.481c0.436,0.963,0.921,1.904,1.397,2.859
			c0.376-0.172,0.64-0.298,0.908-0.415c1.213-0.531,2.48-0.782,3.804-0.704c0.186,0.011,0.363,0.036,0.532,0.071l1.568-3.807
			c-0.217-0.026-0.434-0.055-0.651-0.068C46.723,50.428,44.283,50.807,42.07,52.169z"/>
	</g>
</g>
</svg>
