<?xml version="1.0" encoding="utf-8"?>
<!-- Generator: Adobe Illustrator 17.1.0, SVG Export Plug-In . SVG Version: 6.00 Build 0)  -->
<!DOCTYPE svg PUBLIC "-//W3C//DTD SVG 1.1//EN" "http://www.w3.org/Graphics/SVG/1.1/DTD/svg11.dtd" [
	<!ENTITY ns_flows "http://ns.adobe.com/Flows/1.0/">
	<!ENTITY ns_extend "http://ns.adobe.com/Extensibility/1.0/">
	<!ENTITY ns_ai "http://ns.adobe.com/AdobeIllustrator/10.0/">
	<!ENTITY ns_graphs "http://ns.adobe.com/Graphs/1.0/">
]>
<svg version="1.1" id="Layer_1" xmlns:x="&ns_extend;" xmlns:i="&ns_ai;" xmlns:graph="&ns_graphs;"
	 xmlns="http://www.w3.org/2000/svg" xmlns:xlink="http://www.w3.org/1999/xlink" xmlns:a="http://ns.adobe.com/AdobeSVGViewerExtensions/3.0/"
	 x="0px" y="0px" viewBox="0 0 120 120" enable-background="new 0 0 120 120" xml:space="preserve">
<g>
	<circle fill="#0C9352" cx="60" cy="60" r="60"/>
	<path fill="#006837" d="M60,0C26.863,0,0,26.863,0,60c0,20.411,10.201,38.431,25.774,49.269L70.407,0.918
		C67.025,0.326,63.552,0,60,0z"/>
	<circle fill="#E6E6E6" cx="16.571" cy="52.633" r="8.252"/>
	<circle fill="#E6E6E6" cx="30.897" cy="44.456" r="5.748"/>
	<circle fill="#E6E6E6" cx="43.8" cy="43.529" r="4.587"/>
	<circle fill="#FFFFFF" cx="53.846" cy="47.011" r="3.615"/>
	<path fill="#FFFFFF" d="M111.681,69.144c-0.95-0.125-1.935,0.176-2.886-0.199c-0.161-0.528-0.08-1.036-0.084-1.534
		c-0.011-1.484-0.002-2.968-0.006-4.452c-0.001-0.312,0-0.626-0.033-0.935c-0.097-0.927-0.472-1.407-1.174-1.537
		c-0.737-0.137-1.605,0.276-1.959,0.969c-0.307,0.6-0.392,1.254-0.389,1.925c0.007,1.679,0.003,3.359,0.002,5.038
		c0,0.192,0.025,0.39-0.173,0.622c-0.893,0.136-1.845,0.144-2.838-0.023c0-3.679,0-7.3,0-10.978
		c0.759-0.266,1.529-0.131,2.279-0.101c0.436,0.338,0.406,0.837,0.51,1.276c0.188,0.029,0.277-0.104,0.374-0.211
		c1.08-1.183,2.402-1.484,3.932-1.126c0.879,0.206,1.578,0.618,2.047,1.413c0.099,0.168,0.069,0.489,0.399,0.477
		C111.681,62.893,111.681,66.018,111.681,69.144z"/>
	<path fill="#E6E6E6" d="M36.589,62.599c1.181,2.075,2.347,4.124,3.596,6.318c-1.208,0.315-2.267,0.211-3.445,0.109
		c-1.319-2.342-2.643-4.695-4.004-7.112c0.63-0.369,1.18-0.645,1.679-0.994c1.081-0.756,1.528-1.921,1.218-3.041
		c-0.267-0.966-0.905-1.51-1.89-1.656c-0.465-0.069-0.93-0.066-1.493,0.008c0,4.231,0,8.47,0,12.745
		c-1.086,0.208-2.076,0.196-3.054,0.042c-0.242-0.849-0.322-13.02-0.109-15.253c1.988-0.302,3.991-0.49,5.994-0.051
		c1.153,0.253,2.19,0.739,3.011,1.654c1.337,1.489,1.296,4.674-0.331,6.216C37.423,61.902,37.058,62.193,36.589,62.599z"/>
	<path fill="#FFFFFF" d="M71.954,69.013c0-5.143,0-10.164,0-15.268c2.144-0.321,4.314-0.527,6.445,0.017
		c2.281,0.582,3.407,1.936,3.664,4.536c0.085,0.856-0.007,1.715-0.278,2.534c-0.594,1.8-1.906,2.77-3.717,3.15
		c-0.95,0.199-1.913,0.234-2.986,0.206c0,0.844,0,1.614,0,2.384c0,0.779,0,1.558,0,2.396C74.062,69.216,73.076,69.145,71.954,69.013
		z M75.141,61.445c2.71,0.119,3.808-0.708,3.677-2.759c-0.105-1.66-1.051-2.892-3.677-2.402
		C75.141,57.967,75.141,59.662,75.141,61.445z"/>
	<path fill="#FFFFFF" d="M66.176,61.933c0.073-1.088-0.237-1.538-1.18-1.674c-0.694-0.1-1.401-0.098-2.095,0.054
		c-0.413,0.09-0.821,0.199-1.237,0.301c-0.455-0.644-0.697-1.319-0.602-2.098c0.262-0.439,0.744-0.366,1.14-0.465
		c1.293-0.322,2.594-0.432,3.921-0.162c2.048,0.416,3.046,1.836,3.176,3.502c0.185,2.374,0.055,4.742,0.118,7.147
		c-2.096,0.753-4.207,0.958-6.328,0.525c-2.676-0.546-3.28-2.805-2.624-4.793c0.421-1.274,1.518-1.81,2.728-2.131
		C64.171,61.879,65.179,61.873,66.176,61.933z M66.386,64.027c-1.248-0.139-2.412-0.352-3.182,0.8
		c-0.088,0.451-0.106,0.835,0.026,1.206c0.836,0.88,1.748,1.04,3.155,0.55C66.386,65.776,66.386,64.964,66.386,64.027z"/>
	<path fill="#FFFFFF" d="M96.429,61.944c-0.055-1.186-0.368-1.596-1.323-1.691c-0.771-0.077-1.552-0.115-2.316,0.125
		c-0.292,0.092-0.603,0.124-0.908,0.184c-0.686-0.534-0.541-1.344-0.771-2.125c2.06-0.706,4.119-1.088,6.212-0.2
		c1.547,0.656,2.142,1.965,2.163,3.557c0.029,2.221,0.007,4.443,0.007,6.659c-0.478,0.53-1.155,0.443-1.735,0.569
		c-1.489,0.324-3.006,0.357-4.504,0.056c-2.245-0.451-3.406-2.518-2.675-4.698c0.464-1.384,1.603-1.924,2.885-2.26
		C94.407,61.872,95.376,61.87,96.429,61.944z M93.579,66.347c0.843,0.685,1.826,0.509,2.835,0.366c0-0.936,0-1.811,0-2.669
		c-0.542-0.155-1.014-0.192-1.529-0.098C93.407,64.215,93.018,64.864,93.579,66.347z"/>
	<path fill="#FFFFFF" d="M47.199,61.954c-0.103-1.211-0.398-1.591-1.34-1.7c-0.733-0.084-1.475-0.095-2.207,0.085
		c-0.37,0.091-0.748,0.148-1.089,0.215c-0.51-0.868-0.51-0.868-0.645-2.02c0.104-0.183,0.288-0.274,0.47-0.321
		c1.589-0.416,3.195-0.698,4.827-0.285c1.559,0.395,2.927,1.342,3.005,3.778c0.073,2.257,0.016,4.519,0.016,6.852
		c-2.072,0.724-4.21,0.974-6.364,0.474c-2.413-0.559-3.008-2.394-2.68-4.224c0.282-1.571,1.468-2.309,2.913-2.669
		C45.086,61.894,46.093,61.846,47.199,61.954z M47.21,64.106c-1.84-0.509-2.774-0.129-3.254,1.355
		c0.113,0.267,0.143,0.622,0.505,1.019c0.783,0.507,1.749,0.417,2.75,0.207C47.21,65.783,47.21,64.94,47.21,64.106z"/>
	<path fill="#FFFFFF" d="M87.228,53.556c0,3.666-0.004,7.257,0.004,10.848c0.002,0.731-0.078,1.496,0.486,2.05
		c0.527,0.266,1.054,0.041,1.581,0.194c0.261,0.682,0.338,1.397,0.242,2.126c-2.237,1.19-4.869-0.039-5.302-2.468
		c-0.075-0.419-0.138-0.847-0.139-1.271c-0.011-3.672-0.007-7.343-0.005-11.015c0-0.15,0.023-0.3,0.036-0.456
		C85.154,53.237,86.135,53.232,87.228,53.556z"/>
	<path fill="#FFFFFF" d="M56.119,54.892c0,0.999,0,1.965,0,3.029c0.858,0,1.654,0,2.45,0c0.395,0.869,0.353,1.639,0.043,2.46
		c-0.806,0-1.58,0-2.426,0c0,1.674-0.029,3.301,0.019,4.926c0.013,0.447,0.187,0.926,0.795,1.249
		c0.494,0.211,1.16-0.006,1.875,0.019c0.452,0.702,0.238,1.482,0.311,2.259c-1.157,0.403-2.28,0.409-3.385,0.178
		c-1.744-0.366-2.627-1.469-2.688-3.32c-0.044-1.325-0.009-2.653-0.009-3.979c0-0.386,0-0.772,0-1.142
		c-0.418-0.324-0.88-0.063-1.28-0.239c-0.201-0.179-0.211-0.421-0.059-0.617c1.216-1.571,2.445-3.131,3.673-4.693
		C55.573,54.852,55.763,54.828,56.119,54.892z"/>
	<path fill="#E6E6E6" d="M50.231,47.011c0,0.638,0.179,1.228,0.469,1.748l2.144-5.205C51.338,43.991,50.231,45.365,50.231,47.011z"
		/>
	<g>
		<path fill="#E6E6E6" d="M44.105,62.138c-1.445,0.36-2.631,1.099-2.913,2.669c-0.257,1.435,0.069,2.863,1.378,3.687l2.696-6.546
			C44.874,61.986,44.486,62.043,44.105,62.138z"/>
		<path fill="#E6E6E6" d="M42.388,58.212c-0.182,0.048-0.366,0.138-0.47,0.322c0.135,1.152,0.135,1.152,0.645,2.02
			c0.341-0.066,0.719-0.124,1.089-0.215c0.731-0.18,1.474-0.169,2.207-0.085c0.036,0.004,0.064,0.012,0.099,0.017l0.987-2.398
			C45.406,57.553,43.89,57.82,42.388,58.212z"/>
	</g>
</g>
</svg>
