<?xml version="1.0" encoding="utf-8"?>
<!-- Generator: Adobe Illustrator 17.1.0, SVG Export Plug-In . SVG Version: 6.00 Build 0)  -->
<!DOCTYPE svg PUBLIC "-//W3C//DTD SVG 1.1//EN" "http://www.w3.org/Graphics/SVG/1.1/DTD/svg11.dtd" [
	<!ENTITY ns_flows "http://ns.adobe.com/Flows/1.0/">
	<!ENTITY ns_extend "http://ns.adobe.com/Extensibility/1.0/">
	<!ENTITY ns_ai "http://ns.adobe.com/AdobeIllustrator/10.0/">
	<!ENTITY ns_graphs "http://ns.adobe.com/Graphs/1.0/">
]>
<svg version="1.1" id="Layer_1" xmlns:x="&ns_extend;" xmlns:i="&ns_ai;" xmlns:graph="&ns_graphs;"
	 xmlns="http://www.w3.org/2000/svg" xmlns:xlink="http://www.w3.org/1999/xlink" xmlns:a="http://ns.adobe.com/AdobeSVGViewerExtensions/3.0/"
	 x="0px" y="0px" viewBox="0 0 120 120" enable-background="new 0 0 120 120" xml:space="preserve">
<g>
	<path fill="#FF931E" d="M2.777,78.077c-0.07-0.22-0.134-0.442-0.201-0.663C2.643,77.635,2.708,77.857,2.777,78.077z"/>
	<path fill="#FF931E" d="M4.917,83.802c-0.128-0.296-0.254-0.594-0.378-0.893C4.663,83.208,4.789,83.505,4.917,83.802z"/>
	<path fill="#FF931E" d="M6.117,86.404c-0.147-0.299-0.289-0.601-0.432-0.902C5.828,85.803,5.97,86.105,6.117,86.404z"/>
	<path fill="#FF931E" d="M3.821,81.086c-0.097-0.259-0.195-0.517-0.289-0.778C3.626,80.569,3.723,80.827,3.821,81.086z"/>
	<path fill="#FF931E" d="M1.295,72.42c-0.045-0.216-0.09-0.432-0.133-0.648C1.205,71.988,1.249,72.204,1.295,72.42z"/>
	<path fill="#FF931E" d="M0.71,69.242c-0.02-0.127-0.035-0.255-0.054-0.382C0.675,68.987,0.69,69.115,0.71,69.242z"/>
	<path fill="#FF931E" d="M7.602,89.227c-0.175-0.313-0.352-0.626-0.522-0.943C7.25,88.601,7.427,88.913,7.602,89.227z"/>
	<path fill="#FF931E" d="M16.236,101.023c-1.084-1.156-2.122-2.355-3.113-3.594C14.113,98.669,15.152,99.867,16.236,101.023z"/>
	<path fill="#FF931E" d="M22.771,107.035c-1.31-1.038-2.577-2.13-3.795-3.272C20.194,104.906,21.461,105.996,22.771,107.035z"/>
	<path fill="#FF931E" d="M12.575,96.733c-0.44-0.567-0.87-1.143-1.29-1.727C11.705,95.59,12.135,96.165,12.575,96.733z"/>
	<path fill="#FF931E" d="M0.352,66.465c-0.018-0.168-0.039-0.335-0.055-0.503C0.313,66.13,0.334,66.297,0.352,66.465z"/>
	<path fill="#FF931E" d="M9.108,91.77c-0.279-0.446-0.552-0.896-0.819-1.35C8.556,90.874,8.829,91.324,9.108,91.77z"/>
	<path fill="#FF931E" d="M10.639,94.097c-0.247-0.356-0.49-0.716-0.73-1.078C10.148,93.382,10.392,93.741,10.639,94.097z"/>
	<path fill="#FF931E" d="M1.989,75.346c-0.042-0.159-0.088-0.316-0.129-0.476C1.901,75.03,1.947,75.187,1.989,75.346z"/>
	<path fill="#FF931E" d="M65.457,0.258c0.734,0.068,1.464,0.15,2.19,0.244C66.92,0.409,66.192,0.325,65.457,0.258z"/>
	<path fill="#FF931E" d="M16.651,101.458c0.654,0.684,1.324,1.351,2.009,2.004C17.974,102.81,17.305,102.142,16.651,101.458z"/>
	<path fill="#FF931E" d="M62.808,0.071c0.56,0.027,1.115,0.07,1.671,0.113C63.923,0.143,63.369,0.097,62.808,0.071z"/>
	<path fill="#FF931E" d="M67.975,0.544c0.815,0.11,1.626,0.233,2.431,0.374C69.601,0.777,68.791,0.652,67.975,0.544z"/>
	<path fill="#FF931E" d="M0.096,63.328c-0.01-0.188-0.018-0.376-0.026-0.565C0.078,62.951,0.086,63.14,0.096,63.328z"/>
	<path fill="#FF931E" d="M70.407,0.918L25.774,109.269c-0.915-0.637-1.809-1.3-2.686-1.986C33.269,115.243,46.075,120,60,120
		c33.137,0,60-26.863,60-60C120,30.415,98.581,5.848,70.407,0.918z"/>
	<path fill="#FF931E" d="M60,0C60,0,60,0,60,0C34.112,0,12.053,16.396,3.641,39.37C12.053,16.396,34.112,0,60,0z"/>
	<polygon fill="#E5E3E3"  a:adobe-blending-mode="multiply" points="70.407,0.918 70.406,0.918 70.407,0.918 	"/>
	<path fill="#E5E3E3"  a:adobe-blending-mode="multiply" d="M8.289,90.42c-0.233-0.395-0.462-0.793-0.686-1.194
		C7.827,89.628,8.055,90.025,8.289,90.42z"/>
	<path fill="#E5E3E3"  a:adobe-blending-mode="multiply" d="M9.909,93.02c-0.273-0.413-0.539-0.83-0.801-1.25
		C9.371,92.19,9.636,92.607,9.909,93.02z"/>
	<path fill="#E5E3E3"  a:adobe-blending-mode="multiply" d="M11.285,95.006c-0.217-0.302-0.434-0.603-0.646-0.909
		C10.85,94.403,11.068,94.704,11.285,95.006z"/>
	<path fill="#E5E3E3"  a:adobe-blending-mode="multiply" d="M18.976,103.763c-0.106-0.1-0.211-0.201-0.316-0.301
		C18.765,103.562,18.87,103.664,18.976,103.763z"/>
	<path fill="#E5E3E3"  a:adobe-blending-mode="multiply" d="M23.088,107.284c-0.106-0.083-0.211-0.165-0.317-0.249
		C22.876,107.118,22.982,107.201,23.088,107.284z"/>
	<path fill="#E5E3E3"  a:adobe-blending-mode="multiply" d="M13.123,97.43c-0.184-0.231-0.366-0.463-0.548-0.697
		C12.756,96.966,12.938,97.199,13.123,97.43z"/>
	<path fill="#E5E3E3"  a:adobe-blending-mode="multiply" d="M16.651,101.458c-0.139-0.145-0.278-0.289-0.415-0.435
		C16.373,101.169,16.512,101.314,16.651,101.458z"/>
	<path fill="#E5E3E3"  a:adobe-blending-mode="multiply" d="M0.07,62.763C0.028,61.847,0,60.927,0,60
		C0,60.927,0.028,61.847,0.07,62.763z"/>
	<path fill="#E5E3E3"  a:adobe-blending-mode="multiply" d="M1.86,74.871c-0.207-0.81-0.392-1.628-0.566-2.45
		C1.468,73.243,1.654,74.061,1.86,74.871z"/>
	<path fill="#E5E3E3"  a:adobe-blending-mode="multiply" d="M0.297,65.962c-0.086-0.873-0.152-1.751-0.2-2.635
		C0.145,64.211,0.21,65.09,0.297,65.962z"/>
	<path fill="#E5E3E3"  a:adobe-blending-mode="multiply" d="M60,0C60,0,60,0,60,0c0.942,0,1.877,0.028,2.808,0.071
		C61.878,0.026,60.942,0,60,0z"/>
	<path fill="#E5E3E3"  a:adobe-blending-mode="multiply" d="M1.162,71.772c-0.167-0.838-0.32-1.68-0.452-2.53
		C0.842,70.092,0.995,70.934,1.162,71.772z"/>
	<path fill="#E5E3E3"  a:adobe-blending-mode="multiply" d="M2.576,77.414c-0.207-0.684-0.404-1.373-0.587-2.067
		C2.172,76.041,2.368,76.73,2.576,77.414z"/>
	<path fill="#E5E3E3"  a:adobe-blending-mode="multiply" d="M0.656,68.86c-0.117-0.793-0.218-1.592-0.304-2.395
		C0.438,67.268,0.539,68.067,0.656,68.86z"/>
	<path fill="#E5E3E3"  a:adobe-blending-mode="multiply" d="M64.479,0.184c0.326,0.024,0.653,0.045,0.978,0.074
		C65.133,0.228,64.805,0.209,64.479,0.184z"/>
	<path fill="#E5E3E3"  a:adobe-blending-mode="multiply" d="M5.686,85.501c-0.264-0.562-0.521-1.128-0.768-1.699
		C5.165,84.373,5.421,84.94,5.686,85.501z"/>
	<path fill="#E5E3E3"  a:adobe-blending-mode="multiply" d="M67.647,0.502c0.109,0.014,0.219,0.027,0.328,0.042
		C67.866,0.529,67.756,0.516,67.647,0.502z"/>
	<path fill="#E5E3E3"  a:adobe-blending-mode="multiply" d="M4.539,82.909c-0.249-0.603-0.489-1.211-0.719-1.823
		C4.051,81.698,4.29,82.306,4.539,82.909z"/>
	<path fill="#E5E3E3"  a:adobe-blending-mode="multiply" d="M3.532,80.308c-0.265-0.737-0.518-1.481-0.755-2.231
		C3.014,78.828,3.267,79.571,3.532,80.308z"/>
	<path fill="#E5E3E3"  a:adobe-blending-mode="multiply" d="M7.08,88.284c-0.332-0.62-0.652-1.247-0.963-1.88
		C6.428,87.037,6.748,87.664,7.08,88.284z"/>
	<path fill="#FF931E" d="M70.407,1c0,0-0.001,0-0.001,0c-0.805,0-1.616-0.305-2.431-0.415c-0.109-0.015-0.219-0.048-0.328-0.062
		c-0.726-0.094-1.456-0.186-2.19-0.254c-0.325-0.029-0.652-0.055-0.978-0.079c-0.556-0.042-1.111-0.089-1.671-0.115
		C61.877,0.031,60.942,0.001,60,0.001c-25.888,0-47.947,16.395-56.359,39.369C1.285,45.803,0,52.752,0,60
		c0,0.927,0.028,1.846,0.07,2.763c0.009,0.188,0.016,0.377,0.026,0.564c0.048,0.883,0.114,1.762,0.2,2.635
		c0.017,0.168,0.037,0.335,0.055,0.503c0.086,0.803,0.187,1.601,0.304,2.395c0.019,0.127,0.034,0.255,0.054,0.382
		c0.131,0.85,0.285,1.692,0.452,2.53c0.043,0.217,0.087,0.433,0.133,0.648c0.173,0.823,0.359,1.641,0.566,2.45
		c0.041,0.159,0.087,0.317,0.129,0.476c0.183,0.694,0.38,1.383,0.587,2.067c0.067,0.221,0.132,0.443,0.201,0.663
		c0.237,0.75,0.49,1.494,0.755,2.231c0.094,0.26,0.191,0.519,0.289,0.778c0.23,0.612,0.469,1.22,0.719,1.823
		c0.124,0.299,0.25,0.597,0.378,0.893c0.247,0.571,0.504,1.138,0.768,1.699c0.142,0.302,0.285,0.603,0.432,0.902
		c0.311,0.633,0.631,1.26,0.963,1.88c0.17,0.317,0.347,0.629,0.522,0.943c0.224,0.401,0.453,0.799,0.686,1.194
		c0.268,0.454,0.54,0.904,0.819,1.35c0.263,0.42,0.529,0.837,0.801,1.25c0.239,0.362,0.483,0.721,0.73,1.078
		c0.212,0.306,0.429,0.607,0.646,0.909c0.42,0.583,0.85,1.159,1.29,1.727c0.181,0.233,0.363,0.466,0.548,0.697
		c0.991,1.239,2.029,2.438,3.113,3.594c0.137,0.146,0.276,0.29,0.415,0.435c0.654,0.683,1.324,1.352,2.009,2.004
		c0.105,0.1,0.21,0.202,0.316,0.301c1.218,1.142,2.485,2.233,3.795,3.272c0.105,0.083,0.211,0.166,0.317,0.249
		c0.877,0.685,1.771,1.39,2.686,2.026L70.407,1z"/>
	<path fill="#EA821B" d="M70.407,1c0,0-0.001,0-0.001,0c-0.805,0-1.616-0.305-2.431-0.415c-0.109-0.015-0.219-0.048-0.328-0.062
		c-0.726-0.094-1.456-0.186-2.19-0.254c-0.325-0.029-0.652-0.055-0.978-0.079c-0.556-0.042-1.111-0.089-1.671-0.115
		C61.877,0.031,60.942,0.001,60,0.001c-25.888,0-47.947,16.395-56.359,39.369C1.285,45.803,0,52.752,0,60
		c0,0.927,0.028,1.846,0.07,2.763c0.009,0.188,0.016,0.377,0.026,0.564c0.048,0.883,0.114,1.762,0.2,2.635
		c0.017,0.168,0.037,0.335,0.055,0.503c0.086,0.803,0.187,1.601,0.304,2.395c0.019,0.127,0.034,0.255,0.054,0.382
		c0.131,0.85,0.285,1.692,0.452,2.53c0.043,0.217,0.087,0.433,0.133,0.648c0.173,0.823,0.359,1.641,0.566,2.45
		c0.041,0.159,0.087,0.317,0.129,0.476c0.183,0.694,0.38,1.383,0.587,2.067c0.067,0.221,0.132,0.443,0.201,0.663
		c0.237,0.75,0.49,1.494,0.755,2.231c0.094,0.26,0.191,0.519,0.289,0.778c0.23,0.612,0.469,1.22,0.719,1.823
		c0.124,0.299,0.25,0.597,0.378,0.893c0.247,0.571,0.504,1.138,0.768,1.699c0.142,0.302,0.285,0.603,0.432,0.902
		c0.311,0.633,0.631,1.26,0.963,1.88c0.17,0.317,0.347,0.629,0.522,0.943c0.224,0.401,0.453,0.799,0.686,1.194
		c0.268,0.454,0.54,0.904,0.819,1.35c0.263,0.42,0.529,0.837,0.801,1.25c0.239,0.362,0.483,0.721,0.73,1.078
		c0.212,0.306,0.429,0.607,0.646,0.909c0.42,0.583,0.85,1.159,1.29,1.727c0.181,0.233,0.363,0.466,0.548,0.697
		c0.991,1.239,2.029,2.438,3.113,3.594c0.137,0.146,0.276,0.29,0.415,0.435c0.654,0.683,1.324,1.352,2.009,2.004
		c0.105,0.1,0.21,0.202,0.316,0.301c1.218,1.142,2.485,2.233,3.795,3.272c0.105,0.083,0.211,0.166,0.317,0.249
		c0.877,0.685,1.771,1.39,2.686,2.026L70.407,1z"/>
</g>
<path fill-rule="evenodd" clip-rule="evenodd" fill="#E6E6E6" d="M29.542,55.587v7.08h3.806v1.884h-6.186v-8.964H29.542z
	 M22.597,66.788V53.212h13.577v13.576H22.597z"/>
<path fill-rule="evenodd" clip-rule="evenodd" fill="#FFFFFF" d="M59.75,60.455l2.934,4.097h2.64l-3.3-4.61l3.118-4.354h-2.64
	l-2.752,3.844v-3.844h-2.297v8.964h2.297C59.75,64.552,59.745,61.949,59.75,60.455z M53.815,66.788V53.212h13.577v13.576H53.815z"/>
<path fill-rule="evenodd" clip-rule="evenodd" fill="#FFFFFF" d="M75.392,60.455l2.934,4.097h2.64l-3.3-4.61l3.118-4.354h-2.641
	l-2.752,3.844v-3.844h-2.297v8.964h2.297C75.392,64.552,75.388,61.949,75.392,60.455z M69.424,66.788V53.212H83v13.576H69.424z"/>
<path fill-rule="evenodd" clip-rule="evenodd" fill="#FFFFFF" d="M94.855,55.587h-6.072v8.964h6.072v-1.806h-3.744v-1.957h3.544
	v-1.695h-3.544v-1.774h3.744V55.587z M85.031,66.788V53.212h13.577v13.576H85.031z"/>
<path fill-rule="evenodd" clip-rule="evenodd" fill="#FFFFFF" d="M104.187,55.587v8.964h2.26v-3.613l2.483,3.613h2.773l-2.938-3.995
	c0,0,2.205-0.322,2.205-2.319c0-1.996-1.414-2.651-2.688-2.651H104.187z M107.383,57.172h-0.935v2.441h0.852
	c0.327,0,1.399-0.105,1.399-1.26C108.699,57.517,107.958,57.172,107.383,57.172z M100.64,53.212h13.577v13.576H100.64V53.212z"/>
<path fill-rule="evenodd" clip-rule="evenodd" fill="#E6E6E6" d="M14.144,55.587h-3.973v8.964h3.685c0.993,0,3.529-0.184,3.529-2.56
	c0-1.824-1.545-2.217-1.545-2.217s1.422-0.378,1.422-1.91C17.262,56.578,16.257,55.587,14.144,55.587z M13.479,57.279h-0.993v2.045
	h1.005c0.451,0,1.371-0.074,1.371-0.993C14.862,57.411,14.053,57.279,13.479,57.279z M13.479,60.795h-0.993v2.045h1.005
	c0.451,0,1.371-0.073,1.371-0.993C14.862,60.927,14.053,60.795,13.479,60.795z M6.99,53.212h13.577v13.576H6.99V53.212z"/>
<path fill="none" d="M47.649,60c0,1.466-1.189,2.655-2.655,2.655c-0.006,0-0.012-0.002-0.018-0.002l-0.875,2.125
	c0.29,0.054,0.587,0.09,0.893,0.09c2.689,0,4.868-2.18,4.868-4.868c0-1.675-0.847-3.151-2.134-4.027l-0.878,2.132
	C47.342,58.587,47.649,59.257,47.649,60z"/>
<path fill="#FFFFFF" d="M47.649,60c0-0.743-0.307-1.413-0.799-1.895l-1.874,4.548c0.006,0,0.012,0.002,0.018,0.002
	C46.461,62.655,47.649,61.466,47.649,60z"/>
<path fill="#FFFFFF" d="M47.728,55.867c1.288,0.876,2.134,2.405,2.134,4.08c0,2.689-2.18,4.895-4.868,4.895
	c-0.306,0-0.603,0.083-0.893,0.029L43.273,67H52V53h-3.134L47.728,55.867z"/>
<path fill="#FFFFFF" d="M44.994,57.345c-1.466,0-2.655,1.189-2.655,2.655c0,1.46,1.179,2.643,2.637,2.653l1.874-4.548
	C46.371,57.636,45.717,57.345,44.994,57.345z"/>
<path fill="#E6E6E6"  a:adobe-blending-mode="multiply" d="M44.994,57.345c-1.466,0-2.655,1.189-2.655,2.655
	c0,1.46,1.179,2.643,2.637,2.653l1.874-4.548C46.371,57.636,45.717,57.345,44.994,57.345z"/>
<path fill="#FFFFFF" d="M40.126,60c0-2.689,2.18-4.868,4.869-4.868c1.014,0,1.954,0.205,2.734,0.735L48.866,53H38v14h5.273
	l0.828-2.116C41.84,64.464,40.126,62.383,40.126,60z"/>
<path fill="#E6E6E6"  a:adobe-blending-mode="multiply" d="M40.126,60c0-2.689,2.18-4.868,4.869-4.868
	c1.014,0,1.954,0.205,2.734,0.735L48.866,53H38v14h5.273l0.828-2.116C41.84,64.464,40.126,62.383,40.126,60z"/>
</svg>
