<?xml version="1.0" encoding="utf-8"?>
<!-- Generator: Adobe Illustrator 17.1.0, SVG Export Plug-In . SVG Version: 6.00 Build 0)  -->
<!DOCTYPE svg PUBLIC "-//W3C//DTD SVG 1.1//EN" "http://www.w3.org/Graphics/SVG/1.1/DTD/svg11.dtd" [
	<!ENTITY ns_flows "http://ns.adobe.com/Flows/1.0/">
	<!ENTITY ns_extend "http://ns.adobe.com/Extensibility/1.0/">
	<!ENTITY ns_ai "http://ns.adobe.com/AdobeIllustrator/10.0/">
	<!ENTITY ns_graphs "http://ns.adobe.com/Graphs/1.0/">
]>
<svg version="1.1" id="Layer_1" xmlns:x="&ns_extend;" xmlns:i="&ns_ai;" xmlns:graph="&ns_graphs;"
	 xmlns="http://www.w3.org/2000/svg" xmlns:xlink="http://www.w3.org/1999/xlink" xmlns:a="http://ns.adobe.com/AdobeSVGViewerExtensions/3.0/"
	 x="0px" y="0px" viewBox="0 0 120 120" enable-background="new 0 0 120 120" xml:space="preserve">
<circle fill="#FFDA24" cx="60" cy="60" r="60"/>
<path fill="#EDC51B" d="M60,0C26.863,0,0,26.863,0,60c0,20.411,10.201,38.431,25.774,49.269L70.407,0.918
	C67.025,0.326,63.552,0,60,0z"/>
<path fill="#243A81" d="M20.905,51.632c0,0,0.421,0.409,0.421,0.963c0,0.554,0,12.42,0,12.42s0.141,2.329-0.468,2.295
	c-0.703-0.04,9.507-0.04,9.507-0.04s-0.328-0.475-0.374-0.87c0-0.396,0-13.884,0-13.884s0.129-0.91,0.516-0.91
	c0.421,0-9.601,0.012-9.601,0.012V51.632z"/>
<g>
	<path fill="#243A81" d="M34.472,67.256c0.025,0.002,0.048-0.003,0.071-0.01C34.438,67.249,34.408,67.253,34.472,67.256z"/>
	<path fill="#243A81" d="M43.794,51.614L43.794,51.614C43.809,51.614,43.811,51.614,43.794,51.614z"/>
	<path fill="#243A81" d="M57.06,67.204c0,0-0.889-0.804-1.452-1.793c-0.327-0.576-4.121-7.437-4.121-7.437l3.325-5.221
		c0,0,0.141-0.395,0.937-1.186h-9.226c0,0,0.281,0.673,0.047,1.068c-0.458,0.774-3.155,4.951-3.273,5.134c0-2.842,0-5.291,0-5.291
		s0.125-0.861,0.497-0.863c-0.373,0.003-9.233,0.03-9.276-0.007c0,0,0.407,0.395,0.407,0.949c0,0.554,0,12.42,0,12.42
		s0.124,2.117-0.381,2.27c1.02-0.027,9.115-0.016,9.115-0.016s-0.317-0.475-0.363-0.87c0-0.166,0-2.637,0-5.449l2.43,4.341
		c0,0,0.89,1.503,0.515,1.977L57.06,67.204z"/>
</g>
<path fill="#243A81" d="M59.167,51.567H74.95v4.944c0,0-0.422-0.672-1.546-0.633c-1.124,0.039-5.713,0.014-5.713,0.014v1.291h4.402
	c0,0,1.209-0.104,1.278-0.395c0.047-0.198,0.006,4.628,0.006,4.628s-0.395-0.454-1.706-0.303c-0.074,0.009-4.028,0.026-4.028,0.026
	v1.266h5.667c0,0,1.414,0.121,1.654-0.435c0.054-0.125-0.007,5.142-0.007,5.142H59.074c0,0,0.468-0.161,0.468-0.949
	c0-1.029,0-13.726,0-13.726S59.448,51.725,59.167,51.567L59.167,51.567z"/>
<path fill="#243A81" d="M99.935,67.109c0,0-0.89-1.481-1.03-1.877c-0.565-1.592-3.817-11.056-4.238-12.044
	c-0.422-0.989,0-1.661,0-1.661h-13.02c0.515,0.712,0,1.622,0,1.622s-3.895,11.764-4.122,12.381
	c-0.209,0.568-0.796,1.621-0.796,1.621s8.127,0.033,8.102,0c-0.516-0.672,0-1.937,0-1.937l0.515-1.226h4.028
	c0,0,0.263,0.783,0.598,1.571c0.315,0.741-0.082,1.553-0.082,1.553L99.935,67.109z M86.074,61.216
	c0.12-0.02,1.172-3.514,1.172-3.514l1.172,3.514C88.418,61.216,85.955,61.236,86.074,61.216z"/>
</svg>
