<?xml version="1.0" encoding="utf-8"?>
<!-- Generator: Adobe Illustrator 17.1.0, SVG Export Plug-In . SVG Version: 6.00 Build 0)  -->
<!DOCTYPE svg PUBLIC "-//W3C//DTD SVG 1.1//EN" "http://www.w3.org/Graphics/SVG/1.1/DTD/svg11.dtd" [
	<!ENTITY ns_flows "http://ns.adobe.com/Flows/1.0/">
	<!ENTITY ns_extend "http://ns.adobe.com/Extensibility/1.0/">
	<!ENTITY ns_ai "http://ns.adobe.com/AdobeIllustrator/10.0/">
	<!ENTITY ns_graphs "http://ns.adobe.com/Graphs/1.0/">
]>
<svg version="1.1" id="Layer_1" xmlns:x="&ns_extend;" xmlns:i="&ns_ai;" xmlns:graph="&ns_graphs;"
	 xmlns="http://www.w3.org/2000/svg" xmlns:xlink="http://www.w3.org/1999/xlink" xmlns:a="http://ns.adobe.com/AdobeSVGViewerExtensions/3.0/"
	 x="0px" y="0px" viewBox="0 0 120 120" enable-background="new 0 0 120 120" xml:space="preserve">
<circle fill="#7C4198" cx="60" cy="60" r="60"/>
<path fill="#6C3A89" d="M60,0C26.863,0,0,26.863,0,60c0,20.411,10.201,38.431,25.774,49.269L70.407,0.918
	C67.025,0.326,63.552,0,60,0z"/>
<path fill-rule="evenodd" clip-rule="evenodd" fill="#FFFFFF" d="M98.689,62.252c-0.447-0.223-0.962-0.259-1.452-0.259
	c-1.063,0-1.815,0.363-2.334,1.089c-0.868,1.28-1.173,2.84-1.141,4.355c0.01,0.482,0.15,1.089,0.752,1.089
	c0.208,0,0.441-0.077,0.674-0.259c1.462-0.975,2.475-3.215,3.111-4.77C98.507,62.927,98.663,62.511,98.689,62.252 M98.17,66.79
	c-0.371,1.299-1.081,2.527-2.022,3.5c-0.715,0.738-1.634,1.115-2.748,1.115c-0.96,0-1.65-0.317-2.048-0.933
	c-0.406-0.628-0.679-1.321-0.7-2.075c-0.03-1.065,0.003-2.055,0.259-3.111c0.319-1.32,0.919-2.553,1.815-3.656
	c0.893-1.101,2.126-1.659,3.708-1.659c0.415,0,0.83,0.052,1.219,0.155c0.388,0.104,0.752,0.234,1.141,0.389
	c0-0.104,0.026-0.182,0.052-0.234c0.052-0.052,0.129-0.078,0.207-0.078l2.359-0.026c0.104,0,0.207,0.052,0.285,0.129
	c0.052,0.078,0.077,0.182,0.077,0.285l-0.57,10.19c0,0.155-0.026,0.26-0.104,0.311c-0.104,0.052-0.208,0.078-0.337,0.078h-2.437
	c-0.13,0-0.234-0.026-0.285-0.078c-0.052-0.077-0.104-0.155-0.104-0.285L98.17,66.79z M76.339,62.252
	c-0.447-0.223-0.962-0.259-1.452-0.259c-1.063,0-1.815,0.363-2.334,1.089c-0.868,1.28-1.173,2.84-1.141,4.355
	c0.01,0.482,0.15,1.089,0.752,1.089c0.208,0,0.441-0.077,0.674-0.259c1.462-0.975,2.475-3.215,3.112-4.77
	C76.158,62.927,76.313,62.511,76.339,62.252 M75.82,66.79c-0.371,1.299-1.081,2.527-2.022,3.5c-0.715,0.738-1.634,1.115-2.748,1.115
	c-0.96,0-1.65-0.317-2.048-0.933c-0.406-0.628-0.679-1.321-0.7-2.075c-0.031-1.065,0.004-2.055,0.259-3.111
	c0.319-1.32,0.919-2.553,1.815-3.656c0.893-1.101,2.126-1.659,3.708-1.659c0.415,0,0.829,0.052,1.218,0.155
	c0.389,0.104,0.752,0.234,1.141,0.389c0-0.104,0.026-0.182,0.052-0.234c0.052-0.052,0.13-0.078,0.207-0.078l2.359-0.026
	c0.104,0,0.207,0.052,0.285,0.129c0.052,0.078,0.078,0.182,0.078,0.285l-0.571,10.19c0,0.155-0.026,0.26-0.104,0.311
	c-0.104,0.052-0.208,0.078-0.337,0.078h-2.437c-0.13,0-0.234-0.026-0.285-0.078c-0.052-0.077-0.104-0.155-0.104-0.285L75.82,66.79z
	 M81.602,62.304c-0.13,0-0.234-0.026-0.312-0.078c-0.051-0.077-0.103-0.155-0.103-0.258l0.077-1.4c0-0.13,0.052-0.207,0.129-0.285
	c0.078-0.052,0.182-0.078,0.312-0.078h7.986c0.155,0,0.259,0.052,0.311,0.104c0.078,0.052,0.104,0.156,0.104,0.26l-0.077,0.855
	c-0.026,0.234-0.104,0.415-0.234,0.596l-5.497,7.052h4.874c0.156,0.026,0.26,0.052,0.312,0.104c0.077,0.052,0.104,0.13,0.104,0.259
	l-0.052,1.375c-0.026,0.129-0.078,0.234-0.13,0.285c-0.077,0.052-0.181,0.078-0.363,0.078h-8.401c-0.155,0-0.259-0.026-0.337-0.078
	c-0.051-0.077-0.103-0.155-0.103-0.285l0.077-1.141c0.052-0.156,0.13-0.337,0.26-0.467l5.392-6.897H81.602z M63.116,70.782
	l0.7-12.367c0.026-0.13,0.052-0.208,0.13-0.285c0.052-0.052,0.155-0.077,0.311-0.077h2.334c0.129,0,0.234,0.026,0.311,0.104
	c0.052,0.052,0.077,0.155,0.077,0.259l-0.7,12.367c0,0.155-0.052,0.26-0.129,0.311c-0.078,0.052-0.182,0.078-0.312,0.078h-2.333
	c-0.13,0-0.24-0.02-0.285-0.078C63.144,70.997,63.116,70.908,63.116,70.782 M54.431,70.782c-0.009,0.157-0.057,0.253-0.13,0.311
	c-0.057,0.046-0.155,0.078-0.311,0.078H51.63c-0.13,0-0.234-0.026-0.285-0.104c-0.052-0.078-0.084-0.155-0.078-0.259l0.7-12.342
	c0.008-0.129,0.045-0.215,0.13-0.285c0.071-0.06,0.182-0.077,0.311-0.078l4.408-0.026c1.322-0.008,2.521,0.275,3.552,0.803
	c1.042,0.535,1.556,1.53,1.556,2.956c0,1.452-0.487,2.626-1.452,3.449c-0.98,0.836-2.282,1.27-3.863,1.27H55.83
	c-0.129,0-0.226-0.033-0.311-0.104c-0.072-0.059-0.109-0.129-0.104-0.259l0.052-1.374c0.005-0.132,0.064-0.245,0.13-0.31
	c0.066-0.067,0.181-0.079,0.336-0.079c0.752,0,1.4-0.181,1.893-0.518s0.792-0.853,0.83-1.608c0.04-0.803-0.239-1.339-0.674-1.633
	c-0.447-0.302-1.089-0.467-1.893-0.467h-1.063L54.431,70.782z"/>
<path fill-rule="evenodd" clip-rule="evenodd" fill="#E6E6E6" d="M27.353,70.757l0.7-12.368c0.026-0.13,0.052-0.207,0.13-0.285
	c0.052-0.051,0.155-0.077,0.311-0.077h2.333c0.13,0,0.234,0.026,0.312,0.104c0.052,0.052,0.078,0.155,0.078,0.259l-0.701,12.368
	c0,0.155-0.052,0.259-0.129,0.311c-0.078,0.052-0.182,0.078-0.312,0.078h-2.333c-0.13,0-0.24-0.02-0.285-0.078
	C27.381,70.971,27.353,70.881,27.353,70.757 M39.056,65.701c0.087-1.479,0.634-2.812,1.555-3.993
	c0.92-1.178,2.308-1.763,4.071-1.763c1.685,0,2.969,0.428,3.811,1.349c0.844,0.921,1.245,2.126,1.245,3.63
	c0,0.243-0.008,0.486-0.026,0.726c-0.112,1.453-0.634,2.811-1.556,4.019c-0.918,1.203-2.281,1.815-4.096,1.815
	c-1.686,0-2.962-0.461-3.785-1.349c-0.836-0.901-1.271-2.1-1.271-3.604C39.004,66.253,39.039,65.978,39.056,65.701 M42.348,67.464
	c0.117,0.632,0.22,0.92,0.493,1.322c0.272,0.402,0.687,0.597,1.348,0.597s1.219-0.259,1.53-0.804
	c0.312-0.545,0.508-1.047,0.622-1.789c0.115-0.743,0.138-1.845,0.104-2.541c-0.034-0.695-0.22-1.037-0.466-1.504
	c-0.247-0.466-0.713-0.674-1.374-0.674c-0.661,0-1.115,0.207-1.426,0.674c-0.311,0.467-0.583,1.089-0.674,1.504
	c-0.091,0.415-0.075,0.285-0.13,0.804C42.319,65.571,42.231,66.831,42.348,67.464 M38.122,70.731
	c0.041,0.066,0.052,0.32-0.052,0.363c-0.104,0.043-0.201,0.052-0.31,0.052h-3.086c-0.048,0-0.188-0.024-0.259-0.052
	c-0.071-0.028-0.119-0.066-0.155-0.129l-3.163-5.575l-0.094-0.169c-0.035-0.104,0.077-0.224,0.146-0.298l4.304-4.589
	c0.087-0.092,0.296-0.154,0.493-0.155l2.775-0.026c0.075-0.001,0.231,0.045,0.259,0.13c0.016,0.049,0.01,0.11-0.026,0.155
	c-0.06,0.076-0.091,0.142-0.156,0.208l-4.278,4.33L38.122,70.731z M20.828,63.134h3.812c0.132,0,0.22,0.039,0.285,0.104
	c0.065,0.065,0.11,0.156,0.104,0.26l-0.078,1.4c-0.007,0.13-0.064,0.219-0.13,0.285c-0.066,0.066-0.182,0.104-0.311,0.104h-3.812
	l-0.207,3.76h5.004c0.129,0,0.22,0.051,0.285,0.104c0.065,0.052,0.134,0.155,0.129,0.234l-0.077,1.374
	c-0.007,0.129-0.052,0.22-0.13,0.285c-0.078,0.065-0.207,0.104-0.337,0.104h-7.726c-0.155,0-0.26-0.026-0.312-0.104
	c-0.052-0.078-0.077-0.156-0.077-0.285l0.674-12.342c0.006-0.107,0.058-0.199,0.129-0.259c0.085-0.071,0.182-0.104,0.337-0.104
	l7.727-0.026c0.132-0.001,0.22,0.052,0.285,0.104s0.136,0.13,0.129,0.259l-0.077,1.4c-0.007,0.129-0.052,0.22-0.13,0.285
	c-0.078,0.065-0.208,0.104-0.337,0.104l-5.004-0.026L20.828,63.134z"/>
<path fill-rule="evenodd" clip-rule="evenodd" fill="#D9D954" d="M66.66,50.879c12.883,0.518,25.696,2.546,38.025,6.09
	c-10.773-4.951-23.836-8.164-38.03-8.935C66.858,48.969,66.859,49.943,66.66,50.879"/>
<path fill-rule="evenodd" clip-rule="evenodd" fill="#C4C14B" d="M53.339,50.879c-12.883,0.518-25.695,2.546-38.025,6.09
	c10.773-4.951,23.836-8.164,38.03-8.935C53.142,48.969,53.141,49.943,53.339,50.879"/>
<path fill-rule="evenodd" clip-rule="evenodd" fill="#1D5632" d="M60,43.819c3.111,0,5.649,2.538,5.649,5.649
	c0,3.111-2.538,5.649-5.649,5.649c-3.111,0-5.649-2.538-5.649-5.649C54.351,46.357,56.889,43.819,60,43.819"/>
<path fill-rule="evenodd" clip-rule="evenodd" fill="#FFFFFF" d="M60,44.459c2.759,0,5.009,2.25,5.009,5.009
	c0,2.759-2.25,5.009-5.009,5.009c-2.759,0-5.009-2.25-5.009-5.009C54.991,46.709,57.241,44.459,60,44.459"/>
<path fill-rule="evenodd" clip-rule="evenodd" fill="#1D5632" d="M61.854,48.003c-0.319-0.125-0.15-0.5-0.388-0.582
	c0.271-0.27,0.46,0.077,0.937,0.128C62.444,47.728,61.992,47.748,61.854,48.003 M60.305,49.054
	c-0.208,0.046-0.315-0.028-0.678,0.056c-0.507,0.109-0.836-0.169-1.155-0.523c-0.66-0.19-1.459,0.267-1.669,0.508
	c-0.511,0.645-0.346,1.605,0.178,2.186c0.284,0.009,0.441-0.003,0.718-0.003c0.392,0.422,0.899,0.899,0.867,1.57
	c0.02,0.609,0.337,0.957,0.878,1.389c0.012,0.001,0.025,0.003,0.037,0.005c0.725-0.033,0.624-0.199,1.132-0.488
	c0.398-0.418,0.392-1.059,0.455-1.46c0.067-0.471,0.68-0.694,0.949-1.053c0.035-0.502-0.421-0.23-0.67-0.586
	c-0.418-0.519-0.492-1.22-0.924-1.689C60.423,48.965,60.305,48.973,60.305,49.054 M60.128,48.306
	c0.968,0.306,0.901,1.108,1.535,1.93c0.655-0.062,1.562-0.552,0.779-1.041c-0.527,0-0.838-0.233-0.866-0.64
	c0.287-0.128,0.256,0.578,1.139,0.363c0.302,0.088,0.731,0.314,1.004,0.475c1.044,1.565,0.197-0.552,1.011-0.504
	c0.011,0.049,0.03,0.091,0.05,0.121c-0.169-1.77-1.307-3.266-2.876-3.947c-0.359-0.022-0.274,0.355-0.478,0.41
	c0.007,0.075,0.032,0.133,0.071,0.197c0.132,0.187-0.765,0.436-0.936,0.363c-0.04-0.178-0.435-0.279-0.588-0.279
	c-0.176,0.222-0.535,0.302-0.717,0.515c-0.02,0.083,0.05,0.153,0.142,0.213c0.134-0.076,0.544-0.336,0.668-0.348
	c0.302-0.014-0.143,0.236-0.054,0.432c0.053,0.144-0.166,0.157-0.26,0.251c-0.133-0.038-0.083-0.096-0.118-0.237
	c0-0.077-0.062-0.065-0.152-0.055c-0.003,0.036-0.075,0.037-0.062,0.072c0.011,0.202-0.218,0.175-0.241,0.179
	c-0.327,0.066-0.682,0.264-0.732,0.352c0.094,0.057-0.018,0.239-0.159,0.18c-0.239-0.014-0.281-0.066-0.451-0.047
	c-0.022,0.002-0.336,0.601-0.144,0.687c0.378,0.154,0.638,0.305,0.741-0.323c0.226-0.083,0.171-0.251,0.527-0.079l0.261,0.184
	c-0.053,0.108-0.084,0.306-0.228,0.337c-0.45,0.097-0.718,0.265-0.029,0.261c0.049-0.001,0.02,0.246,0.146,0.196
	c0.052-0.02,0.087-0.184,0.159-0.222c0.081-0.156,0.222-0.314,0.305-0.478c0.108,0.138,0.003,0.308,0.235,0.308
	c0.108-0.272,0.918-0.598,1.254-0.639c0.249,0.179,0.275,0.32,0.325,0.486c-0.159,0.072-0.27-0.093-0.391-0.215
	C60.804,47.763,60.041,48.029,60.128,48.306 M56.062,46.912c0.553-0.199,0.668-0.838,1.176-1.104
	c0.401-0.236,0.754,0.354,1.553,0.075c0.397-0.138,1.025-0.556,1.389-0.883c0.315,0.131,0.486-0.022,0.525-0.18
	c0.058-0.01,0.076-0.057,0.054-0.094c-0.247-0.04-0.501-0.061-0.759-0.061c-1.545,0-2.923,0.737-3.802,1.876
	C56.14,46.661,56.094,46.783,56.062,46.912"/>
<path fill-rule="evenodd" clip-rule="evenodd" fill="#FFFFFF" d="M60,44.459c2.759,0,5.009,2.25,5.009,5.009
	c0,2.759-2.25,5.009-5.009,5.009c-2.759,0-5.009-2.25-5.009-5.009C54.991,46.709,57.241,44.459,60,44.459"/>
<path fill-rule="evenodd" clip-rule="evenodd" fill="#1D5632" d="M61.854,48.003c-0.319-0.125-0.15-0.5-0.388-0.582
	c0.271-0.27,0.46,0.077,0.937,0.128C62.444,47.728,61.992,47.748,61.854,48.003 M60.305,49.054
	c-0.208,0.046-0.315-0.028-0.678,0.056c-0.507,0.109-0.836-0.169-1.155-0.523c-0.66-0.19-1.459,0.267-1.669,0.508
	c-0.511,0.645-0.346,1.605,0.178,2.186c0.284,0.009,0.441-0.003,0.718-0.003c0.392,0.422,0.899,0.899,0.867,1.57
	c0.02,0.609,0.337,0.957,0.878,1.389c0.012,0.001,0.025,0.003,0.037,0.005c0.725-0.033,0.624-0.199,1.132-0.488
	c0.398-0.418,0.392-1.059,0.455-1.46c0.067-0.471,0.68-0.694,0.949-1.053c0.035-0.502-0.421-0.23-0.67-0.586
	c-0.418-0.519-0.492-1.22-0.924-1.689C60.423,48.965,60.305,48.973,60.305,49.054 M60.128,48.306
	c0.968,0.306,0.901,1.108,1.535,1.93c0.655-0.062,1.562-0.552,0.779-1.041c-0.527,0-0.838-0.233-0.866-0.64
	c0.287-0.128,0.256,0.578,1.139,0.363c0.302,0.088,0.731,0.314,1.004,0.475c1.044,1.565,0.197-0.552,1.011-0.504
	c0.011,0.049,0.03,0.091,0.05,0.121c-0.169-1.77-1.307-3.266-2.876-3.947c-0.359-0.022-0.274,0.355-0.478,0.41
	c0.007,0.075,0.032,0.133,0.071,0.197c0.132,0.187-0.765,0.436-0.936,0.363c-0.04-0.178-0.435-0.279-0.588-0.279
	c-0.176,0.222-0.535,0.302-0.717,0.515c-0.02,0.083,0.05,0.153,0.142,0.213c0.134-0.076,0.544-0.336,0.668-0.348
	c0.302-0.014-0.143,0.236-0.054,0.432c0.053,0.144-0.166,0.157-0.26,0.251c-0.133-0.038-0.083-0.096-0.118-0.237
	c0-0.077-0.062-0.065-0.152-0.055c-0.003,0.036-0.075,0.037-0.062,0.072c0.011,0.202-0.218,0.175-0.241,0.179
	c-0.327,0.066-0.682,0.264-0.732,0.352c0.094,0.057-0.018,0.239-0.159,0.18c-0.239-0.014-0.281-0.066-0.451-0.047
	c-0.022,0.002-0.336,0.601-0.144,0.687c0.378,0.154,0.638,0.305,0.741-0.323c0.226-0.083,0.171-0.251,0.527-0.079l0.261,0.184
	c-0.053,0.108-0.084,0.306-0.228,0.337c-0.45,0.097-0.718,0.265-0.029,0.261c0.049-0.001,0.02,0.246,0.146,0.196
	c0.052-0.02,0.087-0.184,0.159-0.222c0.081-0.156,0.222-0.314,0.305-0.478c0.108,0.138,0.003,0.308,0.235,0.308
	c0.108-0.272,0.918-0.598,1.254-0.639c0.249,0.179,0.275,0.32,0.325,0.486c-0.159,0.072-0.27-0.093-0.391-0.215
	C60.804,47.763,60.041,48.029,60.128,48.306 M56.062,46.912c0.553-0.199,0.668-0.838,1.176-1.104
	c0.401-0.236,0.754,0.354,1.553,0.075c0.397-0.138,1.025-0.556,1.389-0.883c0.315,0.131,0.486-0.022,0.525-0.18
	c0.058-0.01,0.076-0.057,0.054-0.094c-0.247-0.04-0.501-0.061-0.759-0.061c-1.545,0-2.923,0.737-3.802,1.876
	C56.14,46.661,56.094,46.783,56.062,46.912"/>
<path fill="#FFFFFF" d="M46.042,60.067l-0.858,2.082c0.356,0.095,0.629,0.282,0.794,0.595c0.247,0.467,0.432,0.809,0.466,1.504
	c0.034,0.696,0.011,1.798-0.104,2.541c-0.114,0.742-0.311,1.244-0.622,1.789c-0.31,0.544-0.868,0.804-1.53,0.804
	c-0.661,0-1.076-0.195-1.348-0.597c-0.095-0.14-0.164-0.268-0.226-0.399l-1.074,2.608c0.699,0.311,1.529,0.489,2.519,0.489
	c1.815,0,3.178-0.612,4.096-1.815c0.922-1.208,1.444-2.566,1.556-4.019c0.018-0.24,0.026-0.483,0.026-0.726
	c0-1.504-0.401-2.709-1.245-3.63C47.896,60.641,47.067,60.248,46.042,60.067z"/>
<path fill-rule="evenodd" clip-rule="evenodd" fill="#D9D954" d="M50.934,48.191l-1.188,2.885c1.197-0.074,2.395-0.149,3.594-0.197
	c-0.198-0.936-0.197-1.911,0.005-2.845C52.537,48.078,51.734,48.132,50.934,48.191z"/>
</svg>
