<?xml version="1.0" encoding="utf-8"?>
<!-- Generator: Adobe Illustrator 17.1.0, SVG Export Plug-In . SVG Version: 6.00 Build 0)  -->
<!DOCTYPE svg PUBLIC "-//W3C//DTD SVG 1.1//EN" "http://www.w3.org/Graphics/SVG/1.1/DTD/svg11.dtd" [
	<!ENTITY ns_flows "http://ns.adobe.com/Flows/1.0/">
	<!ENTITY ns_extend "http://ns.adobe.com/Extensibility/1.0/">
	<!ENTITY ns_ai "http://ns.adobe.com/AdobeIllustrator/10.0/">
	<!ENTITY ns_graphs "http://ns.adobe.com/Graphs/1.0/">
]>
<svg version="1.1" id="Layer_1" xmlns:x="&ns_extend;" xmlns:i="&ns_ai;" xmlns:graph="&ns_graphs;"
	 xmlns="http://www.w3.org/2000/svg" xmlns:xlink="http://www.w3.org/1999/xlink" xmlns:a="http://ns.adobe.com/AdobeSVGViewerExtensions/3.0/"
	 x="0px" y="0px" viewBox="0 0 400 400" enable-background="new 0 0 400 400" xml:space="preserve">
<g>
	
		<rect x="146.84" y="214.087" transform="matrix(0.7071 0.7071 -0.7071 0.7071 201.4305 -48.1135)" fill="#FFDA24" width="23.905" height="10"/>
	
		<rect x="146.84" y="119.594" transform="matrix(0.7071 0.7071 -0.7071 0.7071 134.7292 -75.7411)" fill="#FFDA24" width="23.903" height="10.336"/>
	
		<rect x="75.075" y="119.594" transform="matrix(0.7071 0.7071 -0.7071 0.7071 113.7041 -24.9965)" fill="#FFDA24" width="23.904" height="10.336"/>
	
		<rect x="256.295" y="112.829" transform="matrix(0.7071 0.7071 -0.7071 0.7071 164.8147 -148.3349)" fill="#FFDA24" width="10.336" height="23.905"/>
	
		<rect x="256.464" y="207.154" transform="matrix(0.7071 0.7071 -0.7071 0.7071 231.5125 -120.7077)" fill="#FFDA24" width="9.999" height="23.904"/>
	<rect x="124.499" y="267.884" fill="#EE4270" width="173.144" height="131.796"/>
	<rect x="97.364" y="244.626" fill="#CB1F4C" width="227.413" height="46.516"/>
	<path fill="#889B3B" d="M159.386,67.101v72.863H143.88v-24.835c0-15.543-12.6-28.142-28.142-28.142h-0.569
		c-15.543,0-28.142,12.6-28.142,28.142v24.835v52.977v12.921h72.359v38.764h100.785V67.101c0-27.553-22.336-49.889-49.889-49.889
		h-1.008C181.722,17.212,159.386,39.548,159.386,67.101z"/>
	<path fill="#4E5826" d="M211.071,17.252v227.373h49.101V67.101C260.171,39.815,238.256,17.678,211.071,17.252z"/>
	<rect x="205.902" y="1.707" fill="#FFDA24" width="10.337" height="23.904"/>
	<rect x="108.993" y="81.172" fill="#FFDA24" width="10.337" height="23.904"/>
	
		<rect x="199.118" y="99.909" transform="matrix(0.7071 0.7071 -0.7071 0.7071 136.1216 -118.4733)" fill="#FFDA24" width="23.905" height="10.336"/>
	
		<rect x="230.453" y="44.67" transform="matrix(0.7071 0.7071 -0.7071 0.7071 109.0497 -150.0249)" fill="#FFDA24" width="10.336" height="23.905"/>
	
		<rect x="230.453" y="138.994" transform="matrix(0.7071 0.7071 -0.7071 0.7071 175.7474 -122.3979)" fill="#FFDA24" width="10.336" height="23.905"/>
	
		<rect x="256.295" y="70.512" transform="matrix(0.7071 0.7071 -0.7071 0.7071 134.8921 -160.7292)" fill="#FFDA24" width="10.336" height="23.905"/>
	
		<rect x="256.295" y="164.837" transform="matrix(0.7071 0.7071 -0.7071 0.7071 201.5898 -133.1021)" fill="#FFDA24" width="10.336" height="23.905"/>
	
		<rect x="205.903" y="184.542" transform="matrix(0.7071 0.7071 -0.7071 0.7071 200.7636 -91.6977)" fill="#FFDA24" width="10.336" height="23.905"/>
	
		<rect x="172.683" y="51.435" transform="matrix(0.7071 0.7071 -0.7071 0.7071 94.1023 -113.9778)" fill="#FFDA24" width="23.903" height="10.336"/>
	
		<rect x="172.683" y="145.759" transform="matrix(0.7071 0.7071 -0.7071 0.7071 160.8 -86.3507)" fill="#FFDA24" width="23.903" height="10.336"/>
	
		<rect x="105.789" y="145.759" transform="matrix(0.7071 0.7071 -0.7071 0.7071 141.2004 -39.0511)" fill="#FFDA24" width="23.904" height="10.336"/>
	
		<rect x="146.84" y="77.277" transform="matrix(0.7071 0.7071 -0.7071 0.7071 104.8066 -88.1354)" fill="#FFDA24" width="23.903" height="10.336"/>
	
		<rect x="146.84" y="171.602" transform="matrix(0.7071 0.7071 -0.7071 0.7071 171.5043 -60.5083)" fill="#FFDA24" width="23.903" height="10.336"/>
	
		<rect x="75.075" y="171.602" transform="matrix(0.7071 0.7071 -0.7071 0.7071 150.4778 -9.7651)" fill="#FFDA24" width="23.904" height="10.336"/>
	<polygon fill="#991C3B" points="124.499,291.142 297.643,291.142 297.643,356.451 	"/>
</g>
</svg>
