<?xml version="1.0" encoding="utf-8"?>
<!-- Generator: Adobe Illustrator 17.1.0, SVG Export Plug-In . SVG Version: 6.00 Build 0)  -->
<!DOCTYPE svg PUBLIC "-//W3C//DTD SVG 1.1//EN" "http://www.w3.org/Graphics/SVG/1.1/DTD/svg11.dtd" [
	<!ENTITY ns_flows "http://ns.adobe.com/Flows/1.0/">
	<!ENTITY ns_extend "http://ns.adobe.com/Extensibility/1.0/">
	<!ENTITY ns_ai "http://ns.adobe.com/AdobeIllustrator/10.0/">
	<!ENTITY ns_graphs "http://ns.adobe.com/Graphs/1.0/">
]>
<svg version="1.1" id="Layer_1" xmlns:x="&ns_extend;" xmlns:i="&ns_ai;" xmlns:graph="&ns_graphs;"
	 xmlns="http://www.w3.org/2000/svg" xmlns:xlink="http://www.w3.org/1999/xlink" xmlns:a="http://ns.adobe.com/AdobeSVGViewerExtensions/3.0/"
	 x="0px" y="0px" viewBox="0 74.095 600 251.81" enable-background="new 0 74.095 600 251.81" xml:space="preserve">
<g>
	
		<rect x="397.525" y="124.79" transform="matrix(0.7071 -0.7071 0.7071 0.7071 12.0911 399.884)" fill="#FFCF91" width="182.446" height="121.113"/>
	
		<rect x="384.127" y="205.911" transform="matrix(0.7071 -0.7071 0.7071 0.7071 -69.0302 366.2824)" fill="#E5E3E3" width="47" height="121.113"/>
	
		<rect x="378.502" y="223.598" transform="matrix(0.7071 -0.7071 0.7071 0.7071 -50.0834 344.0409)" fill="#1F6AB1" width="23.5" height="17.756"/>
	
		<rect x="517.063" y="72.975" transform="matrix(0.7071 -0.7071 0.7071 0.7071 63.9059 421.3463)" fill="#FFFFFF" width="47" height="121.113"/>
	
		<text transform="matrix(0.7071 -0.7071 0.7071 0.7071 442.6537 310.636)" fill="#FFB555" font-family="'MuseoSlab-500'" font-size="24">50</text>
	
		<rect x="518.381" y="76.157" transform="matrix(0.7071 -0.7071 0.7071 0.7071 60.7239 420.0284)" fill="#FFB555" width="38" height="121.113"/>
	
		<text transform="matrix(0.7071 -0.7071 0.7071 0.7071 467.5163 179.7077)" fill="#FFB555" font-family="'MuseoSlab-300'" font-size="48">50</text>
</g>
<g>
	
		<rect x="318.422" y="139.443" transform="matrix(0.7071 -0.7071 0.7071 0.7071 -27.5087 333.588)" fill="#B3D8EB" width="141" height="121.113"/>
	
		<rect x="298.954" y="205.911" transform="matrix(0.7071 -0.7071 0.7071 0.7071 -93.9768 306.0561)" fill="#E5E3E3" width="47" height="121.113"/>
	
		<rect x="293.329" y="223.598" transform="matrix(0.7071 -0.7071 0.7071 0.7071 -75.03 283.8145)" fill="#1F6AB1" width="23.5" height="17.756"/>
	
		<rect x="431.89" y="72.975" transform="matrix(0.7071 -0.7071 0.7071 0.7071 38.9593 361.12)" fill="#FFFFFF" width="47" height="121.113"/>
	
		<rect x="449.426" y="69.44" transform="matrix(0.7071 -0.7071 0.7071 0.7071 42.4948 362.5845)" fill="#CCC9CA" width="19" height="121.113"/>
	
		<text transform="matrix(0.7071 -0.7071 0.7071 0.7071 381.6303 180.4204)" fill="#4D5079" font-family="'MuseoSlab-300'" font-size="48">20</text>
	
		<text transform="matrix(0.7071 -0.7071 0.7071 0.7071 357.1075 311.0098)" fill="#4D5079" font-family="'MuseoSlab-500'" font-size="24">20</text>
</g>
<g>
	
		<rect x="233.249" y="139.443" transform="matrix(0.7071 -0.7071 0.7071 0.7071 -52.4553 273.3617)" fill="#F27261" width="141" height="121.113"/>
	
		<rect x="213.781" y="205.911" transform="matrix(0.7071 -0.7071 0.7071 0.7071 -118.9233 245.8297)" fill="#E5E3E3" width="47" height="121.113"/>
	
		<rect x="208.156" y="223.598" transform="matrix(0.7071 -0.7071 0.7071 0.7071 -99.9766 223.5882)" fill="#1F6AB1" width="23.5" height="17.756"/>
	
		<rect x="346.717" y="72.975" transform="matrix(0.7071 -0.7071 0.7071 0.7071 14.0127 300.8936)" fill="#FFFFFF" width="47" height="121.113"/>
	
		<rect x="364.253" y="69.44" transform="matrix(0.7071 -0.7071 0.7071 0.7071 17.5483 302.3581)" fill="#CCC9CA" width="19" height="121.113"/>
	
		<text transform="matrix(0.7071 -0.7071 0.7071 0.7071 300.6323 176.2471)" fill="#B13125" font-family="'MuseoSlab-300'" font-size="48">10</text>
	
		<text transform="matrix(0.7071 -0.7071 0.7071 0.7071 273.7503 309.1944)" fill="#B13125" font-family="'MuseoSlab-500'" font-size="24">10</text>
</g>
<g>
	
		<rect x="148.076" y="139.443" transform="matrix(0.7071 -0.7071 0.7071 0.7071 -77.4019 213.1353)" fill="#B8E0D5" width="141" height="121.113"/>
	
		<rect x="128.608" y="205.911" transform="matrix(0.7071 -0.7071 0.7071 0.7071 -143.8699 185.6034)" fill="#E5E3E3" width="47" height="121.113"/>
	
		<rect x="122.984" y="223.598" transform="matrix(0.7071 -0.7071 0.7071 0.7071 -124.9231 163.3618)" fill="#1F6AB1" width="23.5" height="17.756"/>
	
		<rect x="261.544" y="72.975" transform="matrix(0.7071 -0.7071 0.7071 0.7071 -10.9338 240.6673)" fill="#FFFFFF" width="47" height="121.113"/>
	
		<rect x="279.08" y="69.44" transform="matrix(0.7071 -0.7071 0.7071 0.7071 -7.3983 242.1318)" fill="#CCC9CA" width="19" height="121.113"/>
	
		<text transform="matrix(0.7071 -0.7071 0.7071 0.7071 232.85 158.6782)" fill="#01A59C" font-family="'MuseoSlab-300'" font-size="48">5</text>
	
		<text transform="matrix(0.7071 -0.7071 0.7071 0.7071 197.5677 300.0264)" fill="#01A59C" font-family="'MuseoSlab-500'" font-size="24">5</text>
</g>
<g>
	<path fill="#01A59C" d="M214.741,192.683c1.729,1.729,1.729,4.531,0,6.259L92.965,320.718c-1.729,1.729-4.531,1.729-6.259,0
		l-74.545-74.545c-1.729-1.729-1.729-4.531,0-6.259l121.776-121.776c1.729-1.729,4.531-1.729,6.259,0L214.741,192.683z"/>
	
		<rect x="21.39" y="230.214" transform="matrix(0.7071 -0.7071 0.7071 0.7071 -157.7897 94.578)" fill="#352F31" width="27.763" height="15.088"/>
	<g>
		
			<rect x="60.583" y="268.907" transform="matrix(0.7071 -0.7071 0.7071 0.7071 -173.3169 134.478)" fill="#034C4A" width="30.177" height="15.088"/>
		
			<rect x="75.484" y="287.58" transform="matrix(0.7071 -0.7071 0.7071 0.7071 -179.4892 149.3791)" fill="#034C4A" width="30.177" height="7.544"/>
		
			<rect x="78.673" y="285.019" transform="matrix(0.7071 -0.7071 0.7071 0.7071 -172.6787 160.6998)" fill="#034C4A" width="57.939" height="7.544"/>
		
			<rect x="86.615" y="242.874" transform="matrix(0.7071 -0.7071 0.7071 0.7071 -147.2844 145.261)" fill="#034C4A" width="30.177" height="15.088"/>
		
			<rect x="112.648" y="216.842" transform="matrix(0.7071 -0.7071 0.7071 0.7071 -121.2519 156.044)" fill="#034C4A" width="30.177" height="15.088"/>
		
			<rect x="138.68" y="190.809" transform="matrix(0.7071 -0.7071 0.7071 0.7071 -95.2195 166.827)" fill="#034C4A" width="30.177" height="15.088"/>
	</g>
	<g>
		<path fill="#D5B129" d="M53.55,242.666l-13.372,13.372c-1.729,1.728-1.729,4.531,0,6.259l10.811,10.811
			c0.763,0.763,1.734,1.188,2.731,1.277l0-31.873C53.664,242.563,53.605,242.611,53.55,242.666z"/>
		<path fill="#98802F" d="M53.72,242.512l0,31.873c1.262,0.114,2.563-0.311,3.529-1.277l13.372-13.372
			c1.729-1.729,1.729-4.531,0-6.26L59.81,242.666C58.136,240.992,55.458,240.944,53.72,242.512z"/>
	</g>
	<g>
		
			<rect x="167.758" y="191.194" transform="matrix(0.7071 -0.7071 0.7071 0.7071 -88.1704 190.2462)" fill="#E5E3E3" width="35.608" height="20.721"/>
		<g>
			<circle fill="#B3D8EB" cx="181.546" cy="205.57" r="6.916"/>
			<circle fill="#E54D2E" cx="189.578" cy="197.538" r="6.916"/>
		</g>
	</g>
</g>
<g>
	<circle fill="#D5B129" cx="116.057" cy="141.428" r="31.014"/>
	<circle fill="#FDE466" cx="113.451" cy="138.823" r="31.014"/>
	<path fill="#D5B129" d="M96.358,121.711c7.768-7.768,19.607-9.499,29.527-6.946c-10.36-5.82-23.718-4.331-32.534,4.485
		c-9.468,9.468-10.486,24.174-3.074,34.78C86.411,143.429,87.855,130.215,96.358,121.711z"/>
	<circle fill="#CCC9CA" cx="113.451" cy="138.822" r="18.424"/>
	<g>
		<path fill="#979496" d="M124.515,140.245c-0.284,1.11-1.239,2.941-2.839,4.541c-1.832,1.832-4.205,2.967-6.657,2.941
			c-1.547,0-3.173-0.49-4.644-1.393l-1.677,1.677l-1.522-1.522l1.445-1.445c-0.258-0.258-0.49-0.439-0.619-0.568
			c-0.181-0.181-0.464-0.464-0.697-0.799l-1.445,1.445l-1.522-1.522l1.678-1.678c-0.878-1.444-1.291-3.045-1.29-4.593
			c0-2.632,1.187-5.16,3.096-7.069c1.548-1.548,3.044-2.271,3.999-2.606l1.522,2.812c-0.774,0.258-1.909,0.826-3.044,1.961
			c-1.083,1.083-1.78,2.451-1.78,3.999c-0.026,0.8,0.18,1.626,0.645,2.348l5.831-5.831l1.522,1.522l-6.193,6.193
			c0.232,0.283,0.465,0.516,0.619,0.671c0.206,0.206,0.413,0.413,0.722,0.671l6.193-6.193l1.522,1.522l-5.831,5.831
			c0.723,0.413,1.444,0.619,2.167,0.62c1.599-0.052,2.915-0.697,4.102-1.884c1.135-1.135,1.91-2.529,2.193-3.431L124.515,140.245z"
			/>
	</g>
</g>
<g>
	<circle fill="#D5B129" cx="568.986" cy="219.428" r="31.014"/>
	<circle fill="#FDE466" cx="566.38" cy="216.823" r="31.014"/>
	<path fill="#D5B129" d="M549.287,199.711c7.768-7.768,19.607-9.499,29.527-6.946c-10.36-5.82-23.718-4.331-32.534,4.485
		c-9.468,9.468-10.486,24.174-3.074,34.78C539.34,221.429,540.784,208.215,549.287,199.711z"/>
	<circle fill="#CCC9CA" cx="566.38" cy="216.822" r="18.424"/>
	<g>
		<path fill="#979496" d="M577.444,218.245c-0.284,1.11-1.239,2.941-2.839,4.541c-1.832,1.832-4.205,2.967-6.657,2.941
			c-1.547,0-3.173-0.49-4.644-1.393l-1.677,1.677l-1.522-1.522l1.445-1.445c-0.258-0.258-0.49-0.439-0.619-0.568
			c-0.181-0.181-0.464-0.464-0.697-0.799l-1.445,1.445l-1.522-1.522l1.677-1.678c-0.878-1.444-1.291-3.045-1.29-4.593
			c0-2.632,1.187-5.16,3.096-7.069c1.548-1.548,3.044-2.271,3.999-2.606l1.522,2.812c-0.774,0.258-1.909,0.826-3.044,1.961
			c-1.083,1.083-1.78,2.451-1.78,3.999c-0.026,0.8,0.18,1.626,0.645,2.348l5.831-5.831l1.522,1.522l-6.193,6.193
			c0.232,0.283,0.464,0.516,0.619,0.671c0.206,0.206,0.413,0.413,0.722,0.671l6.193-6.193l1.522,1.522l-5.831,5.831
			c0.723,0.413,1.444,0.619,2.167,0.62c1.599-0.052,2.915-0.697,4.102-1.884c1.135-1.135,1.909-2.529,2.193-3.431L577.444,218.245z"
			/>
	</g>
</g>
<g>
	<circle fill="#CCC9CA" cx="169.568" cy="157.316" r="38.189"/>
	<circle fill="#E5E3E3" cx="166.36" cy="154.108" r="38.189"/>
	<path fill="#CCC9CA" d="M145.313,133.038c9.565-9.565,24.143-11.696,36.358-8.553c-12.757-7.167-29.205-5.333-40.061,5.523
		c-11.658,11.658-12.912,29.767-3.785,42.826C133.065,159.781,134.842,143.509,145.313,133.038z"/>
	<circle fill="#FDE466" cx="166.661" cy="154.409" r="26.09"/>
	<g>
		<path fill="#D5B129" d="M177.725,155.832c-0.284,1.11-1.239,2.941-2.839,4.541c-1.832,1.832-4.205,2.967-6.657,2.941
			c-1.547,0-3.173-0.49-4.644-1.393l-1.677,1.677l-1.522-1.522l1.445-1.445c-0.258-0.258-0.49-0.439-0.619-0.568
			c-0.181-0.181-0.464-0.464-0.697-0.799l-1.445,1.445l-1.522-1.522l1.678-1.678c-0.878-1.444-1.291-3.045-1.29-4.593
			c0-2.632,1.187-5.16,3.096-7.069c1.548-1.548,3.044-2.271,3.999-2.606l1.522,2.812c-0.774,0.258-1.909,0.826-3.044,1.961
			c-1.083,1.083-1.78,2.451-1.78,3.999c-0.026,0.8,0.18,1.626,0.645,2.348l5.831-5.831l1.522,1.522l-6.193,6.193
			c0.232,0.283,0.465,0.516,0.619,0.671c0.206,0.206,0.413,0.413,0.722,0.671l6.193-6.193l1.522,1.522l-5.831,5.831
			c0.723,0.413,1.444,0.619,2.167,0.62c1.599-0.052,2.915-0.697,4.102-1.884c1.135-1.135,1.91-2.529,2.193-3.431L177.725,155.832z"
			/>
	</g>
</g>
</svg>
