<?xml version="1.0" encoding="utf-8"?>
<!-- Generator: Adobe Illustrator 17.1.0, SVG Export Plug-In . SVG Version: 6.00 Build 0)  -->
<!DOCTYPE svg PUBLIC "-//W3C//DTD SVG 1.1//EN" "http://www.w3.org/Graphics/SVG/1.1/DTD/svg11.dtd" [
	<!ENTITY ns_flows "http://ns.adobe.com/Flows/1.0/">
	<!ENTITY ns_extend "http://ns.adobe.com/Extensibility/1.0/">
	<!ENTITY ns_ai "http://ns.adobe.com/AdobeIllustrator/10.0/">
	<!ENTITY ns_graphs "http://ns.adobe.com/Graphs/1.0/">
]>
<svg version="1.1" id="Layer_1" xmlns:x="&ns_extend;" xmlns:i="&ns_ai;" xmlns:graph="&ns_graphs;"
	 xmlns="http://www.w3.org/2000/svg" xmlns:xlink="http://www.w3.org/1999/xlink" xmlns:a="http://ns.adobe.com/AdobeSVGViewerExtensions/3.0/"
	 x="0px" y="0px" viewBox="0 0 78.859 102.976" enable-background="new 0 0 78.859 102.976" xml:space="preserve">
<pattern  x="-981.243" y="-1576.322" width="2.737" height="3.367" patternUnits="userSpaceOnUse" id="SVGID_6_" viewBox="0 -3.367 2.737 3.367" overflow="visible">
	<g>
		<polygon fill="none" points="0,0 2.737,0 2.737,-3.367 0,-3.367 		"/>
		<g>
			<polygon fill="none" points="0,-3.367 2.737,-3.367 2.737,0 0,0 			"/>
			<path fill="none" d="M1.237,0v-0.741c0-0.191-0.153-0.345-0.344-0.345c-0.19,0-0.345,0.154-0.345,0.345V0H0v-3.367h0.504v0.837
				c0,0.215,0.175,0.389,0.389,0.389S1.283-2.315,1.283-2.53v-0.837h1.455v1.259c0-0.191-0.153-0.345-0.344-0.345
				c-0.19,0-0.345,0.154-0.345,0.345v1.483c0,0.19,0.155,0.345,0.345,0.345c0.19,0,0.344-0.154,0.344-0.345V0H1.237z"/>
			<path fill="#262626" d="M2.393-0.281c-0.19,0-0.345-0.154-0.345-0.345v-1.483c0-0.191,0.155-0.345,0.345-0.345
				c0.19,0,0.344,0.154,0.344,0.345v1.483C2.737-0.436,2.583-0.281,2.393-0.281z"/>
			<path fill="#262626" d="M0.893-2.141c-0.215,0-0.389-0.174-0.389-0.389v-0.838h0.779v0.837C1.283-2.315,1.108-2.141,0.893-2.141z
				"/>
			<path fill="#262626" d="M0.893-1.227c0.219,0,0.397,0.174,0.397,0.389v0.837H0.497v-0.837C0.497-1.053,0.675-1.227,0.893-1.227z"
				/>
		</g>
	</g>
</pattern>
<g>
	<ellipse fill="#A163A7" cx="38.894" cy="14.696" rx="16.149" ry="14.696"/>
	<path fill="#991C3B" d="M39.755,102.143c21.596,0,39.103-11.358,39.103-25.37c0-0.574-0.039-1.142-0.097-1.708
		c-4.474-0.967-9.225-0.961-14.261-1.146c-12.242-0.455-24.614-0.085-36.849,0.021c-7.538,0.055-15.098,0.009-22.651,0.009
		c-1.483,0.147-2.872,0.385-4.199,0.674c-0.092,0.711-0.15,1.427-0.15,2.151C0.652,90.785,18.159,102.143,39.755,102.143z"/>
	<g>
		<polygon fill="#EE4270" points="61.547,83.049 61.547,71.537 17.964,71.537 17.964,83.049 39.755,102.976 		"/>
	</g>
	<path fill="#61C6C7" d="M34.272,75.968c0.016,0,0.049,0,0.065,0c0.017,0.023,0.037,0.047,0.055,0.07
		c-0.01,0.038-0.022,0.074-0.037,0.112c-0.037,0.053-0.074,0.111-0.127,0.151c-0.108,0.087-0.182,0.21-0.278,0.309
		c-0.215,0.253-0.437,0.508-0.628,0.785c-0.013,0.031-0.026,0.063-0.039,0.092c0.01,0.021,0.022,0.042,0.032,0.064
		c0.029,0.01,0.059,0.023,0.093,0.029c0.102-0.017,0.205-0.049,0.3-0.09c0.051-0.023,0.101-0.044,0.151-0.063
		c0.073-0.033,0.183-0.119,0.241-0.022c-0.054,0.102-0.16,0.155-0.264,0.192c-0.031,0.009-0.059,0.016-0.087,0.026
		c-0.167,0.038-0.341,0.055-0.503,0.115c-0.047,0.015-0.077,0.053-0.103,0.092c-0.054,0.214-0.033,0.437-0.029,0.655
		c0.028,0.182,0.083,0.36,0.149,0.531c0.06,0.128,0.15,0.239,0.237,0.351c0.108,0.117,0.242,0.205,0.381,0.283
		c0.054,0.025,0.143,0.059,0.182-0.005c0.032-0.117-0.031-0.231-0.053-0.342c-0.051-0.201-0.111-0.408-0.063-0.615
		c0.019-0.035,0.041-0.074,0.061-0.108c0.019,0,0.054,0,0.073,0c0.017,0.048,0.035,0.095,0.035,0.145
		c0.019,0.194,0.025,0.387,0.076,0.574c0.031,0.093,0.061,0.185,0.097,0.271c0.057,0.085,0.102,0.181,0.198,0.224
		c0.015,0.007,0.042,0.022,0.055,0.029c0.125,0.003,0.265,0.026,0.374-0.053c0.161-0.107,0.272-0.275,0.363-0.445
		c0.016-0.032,0.032-0.064,0.049-0.098c0.029-0.067,0.059-0.137,0.075-0.21c0.007-0.102,0.007-0.205,0.033-0.305
		c0.013-0.041,0.059-0.038,0.095-0.045c0.14,0.171,0.047,0.399-0.007,0.584c-0.026,0.057-0.049,0.115-0.077,0.172
		c-0.02,0.049-0.041,0.099-0.064,0.147c-0.003,0.044-0.003,0.087-0.003,0.129c0.085,0.058,0.178,0,0.261-0.029
		c0.033-0.015,0.067-0.035,0.099-0.051c0.011-0.005,0.037-0.016,0.047-0.022c0.243-0.153,0.46-0.341,0.669-0.536
		c0.067-0.049,0.124-0.113,0.146-0.195c0.017-0.137,0.003-0.274-0.049-0.402c-0.069-0.125-0.176-0.223-0.3-0.297
		c-0.051-0.029-0.099-0.058-0.15-0.086c-0.022-0.01-0.047-0.022-0.069-0.037c-0.015-0.005-0.037-0.016-0.049-0.023
		c-0.032-0.017-0.064-0.032-0.096-0.049c-0.015-0.006-0.037-0.017-0.049-0.023c-0.067-0.035-0.134-0.071-0.201-0.111
		c-0.099-0.064-0.187-0.149-0.249-0.247c-0.039-0.061-0.069-0.129-0.055-0.204c0.019-0.003,0.055-0.006,0.073-0.007
		c0.048,0.035,0.083,0.083,0.117,0.133c0.016,0.026,0.033,0.051,0.049,0.074c0.042,0.079,0.113,0.134,0.188,0.181
		c0.183,0.08,0.381,0.128,0.578,0.172c0.033,0.009,0.065-0.016,0.099-0.025c0.013-0.119-0.089-0.203-0.155-0.284
		c-0.09-0.108-0.147-0.235-0.198-0.363c-0.057-0.117-0.191-0.166-0.278-0.259c-0.123-0.138-0.235-0.283-0.317-0.445
		c-0.017-0.041-0.035-0.081-0.054-0.122c-0.003-0.011-0.006-0.032-0.01-0.044c-0.023-0.049-0.021-0.108-0.016-0.16
		c0.038-0.032,0.089-0.012,0.113,0.026c0.069,0.092,0.123,0.195,0.16,0.3c0.033,0.067,0.065,0.131,0.096,0.198
		c0.042,0.07,0.095,0.16,0.188,0.157c0.099-0.095,0.019-0.229,0.035-0.345c0.013-0.095,0.007-0.21,0.103-0.265
		c0.057-0.01,0.081,0.055,0.112,0.089c-0.007,0.099-0.041,0.197-0.074,0.293c-0.015,0.119-0.007,0.245,0.029,0.361
		c0.007,0.025,0.017,0.049,0.025,0.074c0.017,0.041,0.032,0.081,0.048,0.122c0.032,0.081,0.108,0.213,0.208,0.134
		c0.042,0,0.101-0.02,0.122,0.033c0.037,0.107,0.058,0.22,0.108,0.323c0.011,0.023,0.025,0.045,0.037,0.069
		c0.035,0.076,0.081,0.149,0.122,0.221c0.016,0.039,0.033,0.081,0.051,0.123c0.093,0.261,0.011,0.539-0.099,0.782
		c-0.15,0.313-0.456,0.503-0.741,0.677c-0.24,0.157-0.508,0.3-0.671,0.546c0.003,0.057-0.021,0.134,0.048,0.16
		c0.06,0.045,0.13,0.003,0.185-0.022c0.051-0.021,0.099-0.044,0.15-0.063c0.029-0.013,0.063-0.023,0.093-0.038
		c0.172-0.049,0.348-0.089,0.527-0.095c0.138,0.006,0.274,0.025,0.406,0.07c0.058,0.025,0.117,0.051,0.155,0.107
		c0.012,0.051-0.007,0.101-0.027,0.147c-0.129,0.245-0.316,0.469-0.569,0.59c-0.041,0.017-0.081,0.033-0.121,0.051
		c-0.163,0.054-0.333,0.065-0.503,0.081c-0.011,0.006-0.035,0.022-0.044,0.029c-0.041,0.111,0,0.223-0.003,0.337
		c0.019,0.208,0.032,0.417,0.077,0.623c0.035,0.127,0.092,0.263,0.223,0.325c0.037,0.006,0.073,0.021,0.108,0.026
		c0.348,0.022,0.697-0.009,1.043,0.016c0.224,0.009,0.424,0.147,0.648,0.135c0.29,0.003,0.578,0.011,0.863-0.044
		c0.313-0.049,0.628-0.107,0.942-0.153c0.341-0.039,0.686-0.016,1.027-0.022c0.163,0.017,0.327,0.026,0.489,0.025
		c0.585,0.045,1.174,0.083,1.749,0.208c0.011,0.003,0.035,0.007,0.045,0.009c0.041,0.017,0.081,0.035,0.121,0.053
		c0.09,0.051,0.182,0.099,0.267,0.157c0.053,0.032,0.101,0.064,0.149,0.098c0.117,0.083,0.235,0.167,0.339,0.268
		c0.173,0.127,0.307,0.299,0.439,0.466c0.074,0.101,0.14,0.204,0.198,0.315c0.017,0.039,0.038,0.08,0.057,0.117
		c0.027,0.057,0.051,0.113,0.077,0.171c0.019,0.065,0.041,0.129,0.06,0.197c0.045,0.163,0.069,0.332,0.074,0.503
		c-0.011,0.181-0.022,0.361-0.006,0.545c0.071,0.373,0.163,0.745,0.297,1.105c0.016,0.039,0.033,0.081,0.049,0.121
		c0.017,0.042,0.033,0.083,0.048,0.124c0.016,0.032,0.033,0.065,0.049,0.099c0.149,0.283,0.337,0.555,0.593,0.751
		c0.125,0.124,0.124,0.313,0.14,0.473c0.022,0.14,0.01,0.279,0.032,0.419c0.006,0.188,0,0.375,0.026,0.562
		c-0.001,0.153,0.021,0.303,0.039,0.456c0.025,0.127,0.074,0.246,0.089,0.374c0.045,0.332,0.125,0.683,0.012,1.012
		c-0.051,0.113-0.153,0.208-0.277,0.231c-0.137,0.015-0.279,0.005-0.406-0.053c-0.054-0.037-0.107-0.113-0.075-0.179
		c0.039-0.127,0.204-0.15,0.229-0.289c0.025-0.105,0.085-0.199,0.127-0.299c0.017-0.102-0.026-0.201-0.02-0.301
		c0.064-0.192-0.016-0.386-0.032-0.578c-0.044-0.21-0.074-0.422-0.123-0.632c-0.017-0.041-0.032-0.085-0.049-0.124
		c-0.007-0.011-0.02-0.037-0.025-0.049c-0.007-0.011-0.019-0.037-0.025-0.048c-0.006-0.011-0.02-0.038-0.025-0.047
		c-0.007-0.015-0.017-0.038-0.023-0.053c-0.007-0.011-0.021-0.037-0.026-0.048c-0.004-0.013-0.017-0.037-0.023-0.048
		c-0.007-0.013-0.017-0.038-0.025-0.049c-0.029-0.057-0.063-0.117-0.096-0.172c-0.035-0.059-0.081-0.113-0.135-0.157
		c-0.017,0.003-0.054,0.003-0.071,0.003c-0.009,0.013-0.023,0.044-0.033,0.055c-0.009,0.233-0.01,0.469,0.019,0.701
		c-0.009,0.401,0.041,0.799,0.103,1.196c0.045,0.312,0.109,0.632,0.037,0.942c-0.009,0.023-0.019,0.047-0.026,0.07
		c-0.051,0.115-0.15,0.208-0.275,0.235c-0.139,0.011-0.281,0.003-0.408-0.055c-0.061-0.041-0.111-0.127-0.065-0.195
		c0.023-0.071,0.091-0.105,0.149-0.146c0.038-0.032,0.049-0.083,0.073-0.124c0.026-0.109,0.085-0.203,0.128-0.301
		c0.01-0.096-0.017-0.185-0.026-0.278c0.041-0.153,0.037-0.316,0.009-0.471c-0.032-0.329-0.124-0.648-0.246-0.955
		c-0.027-0.067-0.055-0.135-0.085-0.201c-0.177-0.335-0.415-0.639-0.701-0.891c-0.157-0.128-0.323-0.253-0.501-0.355
		c-0.051-0.029-0.101-0.058-0.151-0.089c-0.023-0.011-0.047-0.023-0.069-0.037c-0.013-0.006-0.037-0.016-0.049-0.022
		c-0.058-0.025-0.117-0.045-0.172-0.074c-0.041-0.015-0.081-0.031-0.121-0.047c-0.105-0.041-0.213-0.089-0.279-0.179
		c-0.124-0.153-0.289-0.269-0.402-0.433c-0.047-0.073-0.149-0.069-0.221-0.041c-0.049,0.023-0.101,0.044-0.151,0.064
		c-0.045,0.023-0.095,0.041-0.141,0.061c-0.447,0.151-0.917,0.195-1.383,0.218c-0.211-0.023-0.427-0.023-0.638-0.053
		c-0.226-0.033-0.447-0.065-0.664-0.127c-0.06-0.016-0.123-0.009-0.181-0.01c-0.031,0.038-0.065,0.073-0.058,0.125
		c-0.031,0.638-0.129,1.27-0.179,1.907c-0.023,0.144-0.015,0.293-0.023,0.438c-0.029,0.233-0.026,0.471,0.001,0.703
		c0.003,0.187,0.025,0.371,0.069,0.553c0.035,0.159,0.051,0.322,0.079,0.482c0.027,0.243,0.054,0.501-0.032,0.735
		c-0.053,0.115-0.15,0.21-0.277,0.235c-0.109,0.005-0.229,0.013-0.332-0.031c-0.044-0.027-0.076-0.071-0.109-0.111
		c0-0.038,0-0.077,0.001-0.117c0.045-0.08,0.129-0.133,0.165-0.217c0.055-0.293,0.029-0.594,0.038-0.889
		c0.029-0.227,0.031-0.46,0.001-0.687c-0.003-0.526-0.079-1.047-0.159-1.565c-0.015-0.083-0.038-0.165-0.099-0.225
		c-0.032,0.026-0.061,0.057-0.087,0.087c-0.121,0.461-0.077,0.939-0.087,1.41c-0.005,0.195,0.035,0.389,0.027,0.585
		c0,0.269-0.007,0.539,0.006,0.808c0.033,0.272,0.093,0.547,0.071,0.827c-0.021,0.053-0.038,0.107-0.053,0.161
		c-0.053,0.123-0.153,0.227-0.285,0.253c-0.138,0.013-0.281,0.003-0.409-0.054c-0.059-0.041-0.109-0.125-0.064-0.195
		c0.023-0.071,0.092-0.107,0.145-0.149c0.041-0.031,0.054-0.081,0.076-0.123c0.055-0.195,0.032-0.403,0.025-0.601
		c-0.033-0.208-0.019-0.423-0.013-0.635c-0.006-0.373,0.017-0.747-0.047-1.115c-0.054-0.476-0.159-0.947-0.267-1.413
		c-0.059-0.262-0.107-0.526-0.179-0.785c-0.001-0.011-0.005-0.035-0.006-0.047c-0.037-0.045-0.08-0.089-0.133-0.118
		c-0.057-0.023-0.112-0.048-0.171-0.07c-0.023-0.011-0.048-0.025-0.07-0.035c-0.081-0.033-0.166-0.073-0.23-0.137
		c-0.121-0.146-0.225-0.307-0.365-0.437c-0.073-0.073-0.122-0.161-0.172-0.251c-0.031-0.058-0.064-0.115-0.096-0.172
		c-0.022-0.049-0.044-0.097-0.063-0.149c-0.026-0.057-0.049-0.113-0.073-0.171c-0.017-0.041-0.033-0.083-0.048-0.122
		c-0.028-0.055-0.051-0.112-0.073-0.17c-0.007-0.015-0.019-0.038-0.026-0.053c-0.123-0.23-0.299-0.431-0.487-0.613
		c-0.081-0.118-0.198-0.21-0.283-0.328c-0.077-0.093-0.135-0.198-0.193-0.299c-0.028-0.057-0.053-0.113-0.074-0.172
		c-0.085-0.283-0.124-0.575-0.13-0.872c-0.015-0.096-0.025-0.193-0.015-0.291c0.048-0.331-0.003-0.667,0.041-0.997
		c0-0.133,0.017-0.269-0.053-0.387c-0.035-0.016-0.069-0.033-0.106-0.049c-0.198-0.033-0.401-0.074-0.584-0.167
		c-0.296-0.139-0.519-0.406-0.635-0.708c-0.023-0.067-0.037-0.16,0.042-0.194c0.309-0.069,0.633-0.045,0.933,0.042
		c0.039,0.019,0.081,0.035,0.122,0.053c0.074,0.041,0.147,0.091,0.219,0.139c0.041,0.006,0.083,0.022,0.124,0.006
		c0.096-0.037,0.199-0.085,0.258-0.175c-0.023-0.037-0.031-0.079-0.064-0.108c-0.139-0.129-0.303-0.223-0.462-0.326
		c-0.106-0.065-0.213-0.129-0.317-0.195c-0.21-0.133-0.428-0.278-0.546-0.507c-0.025-0.057-0.048-0.112-0.074-0.171
		c-0.061-0.197-0.119-0.396-0.133-0.605c-0.031-0.192,0.005-0.386,0.06-0.571c0.013-0.031,0.026-0.063,0.039-0.095
		c0.053-0.118,0.02-0.251,0.029-0.379c0.011-0.012,0.038-0.033,0.053-0.045c0.015,0.006,0.048,0.019,0.064,0.025
		c0.064,0.109,0.07,0.243,0.033,0.363c-0.026,0.141-0.091,0.274-0.119,0.415c-0.01,0.054,0.022,0.105,0.041,0.151
		c0.103-0.057,0.128-0.185,0.153-0.291c0.041-0.157,0.086-0.312,0.149-0.463c0.015-0.041,0.032-0.081,0.051-0.119
		c0.015-0.058,0.054-0.117,0.032-0.178c-0.051-0.201-0.095-0.408-0.051-0.611c0.013-0.101,0.033-0.214,0.124-0.272
		c0.013,0.007,0.039,0.02,0.053,0.026c0.007,0.013,0.021,0.035,0.029,0.048c0.027,0.208-0.043,0.412-0.025,0.621
		c0.031,0.049,0.045,0.131,0.113,0.14c0.06,0.025,0.115-0.009,0.169-0.029c0.215-0.155,0.373-0.373,0.527-0.584
		C34.086,76.193,34.161,76.068,34.272,75.968z"/>
	<circle fill="#352F31" cx="39.23" cy="39.546" r="28.868"/>
	<path fill="#E9C3BB" d="M39.738,75.053c14.331,0,25.947-11.572,25.947-25.856c0-14.277-11.616-25.862-25.947-25.862
		c-14.303,0-25.91,11.585-25.91,25.862C13.828,63.481,25.435,75.053,39.738,75.053z"/>
	<path fill="#E9C3BB" d="M39.212,70.487c14.332,0,25.947-11.572,25.947-25.856c0-14.277-11.615-25.862-25.947-25.862
		c-14.303,0-25.911,11.585-25.911,25.862C13.301,58.915,24.909,70.487,39.212,70.487z"/>
	<path fill="#352F31" d="M19.543,43.003c0.481-4.398,0.048-10.049,4.237-13.097c3.162,4.811,9.702,3.901,15.041,4.851
		c-1.363-2.278-2.719-4.462-3.226-7.147c2.787,0.057,5.699,4.838,8.22,6.379c2.994,1.829,6.133,2.401,9.204,4.087
		c-1.229-2.633-3.069-5.224-4.838-7.543c3.959,5.773,7.847,12.051,14.229,15.539c-0.434-3.179-1.978-6.548-1.897-10.031
		c1.237,2.327,2.808,5.043,5.578,5.614c-0.963-6.58-1.437-11.801-6.638-16.687c-4.055-3.811-12.274-6.505-17.613-7.988
		c-6.172-1.713-13.278-1.022-18.949,1.991c-3.565,1.898-8.415,6.185-9.319,10.298C12.677,33.336,15.961,40.816,19.543,43.003z"/>
	<pattern  id="SVGID_2_" xlink:href="#SVGID_6_" patternTransform="matrix(0.5539 0 0 -0.5539 -4022.7864 -8619.9844)">
	</pattern>
	<path fill="url(#SVGID_2_)" d="M12.676,48.307"/>
	<path fill="#F27261" d="M0,45.636c0,4.688,3.315,8.601,7.727,9.529V36.107C3.315,37.033,0,40.947,0,45.636z"/>
	<path fill="#889B3B" d="M12.938,34.153h-1.335c-1.071,0-1.937,0.867-1.937,1.939v0.016v19.058v0.016
		c0,1.072,0.867,1.939,1.937,1.939h1.335c1.07,0,1.939-0.867,1.939-1.939v-0.355V36.447v-0.355
		C14.877,35.019,14.009,34.153,12.938,34.153z"/>
	<path fill="#F27261" d="M77.854,45.636c0-4.689-3.313-8.603-7.727-9.529v19.058C74.541,54.237,77.854,50.324,77.854,45.636z"/>
	<path fill="#889B3B" d="M64.917,57.12h1.334c1.071,0,1.937-0.867,1.937-1.939v-0.016V36.107v-0.016
		c0-1.072-0.867-1.939-1.937-1.939h-1.334c-1.071,0-1.939,0.867-1.939,1.939v0.355v18.379v0.355
		C62.979,56.253,63.847,57.12,64.917,57.12z"/>
	<path fill="#889B3B" d="M14.793,41.5c0.605-13.822,11.183-24.866,24.101-24.866c12.917,0,23.494,11.043,24.1,24.866h3.875
		c-0.616-15.959-12.925-28.743-27.975-28.743c-15.051,0-27.362,12.784-27.977,28.743H14.793z"/>
</g>
<g>
	<g>
		<defs>
			<circle id="SVGID_431_" cx="268.821" cy="-165.832" r="134.171"/>
		</defs>
		<clipPath id="SVGID_3_">
			<use xlink:href="#SVGID_431_"  overflow="visible"/>
		</clipPath>
		
			<linearGradient id="SVGID_5_" gradientUnits="userSpaceOnUse" x1="-682.3073" y1="-893.6055" x2="-682.3073" y2="-801.5817" gradientTransform="matrix(3.3333 0 0 -5.1523 2421.1375 -4541.4263)">
			<stop  offset="0" style="stop-color:#01A59C"/>
			<stop  offset="0.4224" style="stop-color:#02A199"/>
			<stop  offset="0.8167" style="stop-color:#04968F"/>
			<stop  offset="1" style="stop-color:#058E88"/>
			<a:midPointStop  offset="0" style="stop-color:#01A59C"/>
			<a:midPointStop  offset="0.5" style="stop-color:#01A59C"/>
			<a:midPointStop  offset="0.4224" style="stop-color:#02A199"/>
			<a:midPointStop  offset="0.5" style="stop-color:#02A199"/>
			<a:midPointStop  offset="0.8167" style="stop-color:#04968F"/>
			<a:midPointStop  offset="0.5" style="stop-color:#04968F"/>
			<a:midPointStop  offset="1" style="stop-color:#058E88"/>
		</linearGradient>
		<rect x="24.081" y="-411.411" clip-path="url(#SVGID_3_)" fill="url(#SVGID_5_)" width="245.397" height="474.137"/>
	</g>
</g>
</svg>
