<?xml version="1.0" encoding="utf-8"?>
<!-- Generator: Adobe Illustrator 17.1.0, SVG Export Plug-In . SVG Version: 6.00 Build 0)  -->
<!DOCTYPE svg PUBLIC "-//W3C//DTD SVG 1.1//EN" "http://www.w3.org/Graphics/SVG/1.1/DTD/svg11.dtd" [
	<!ENTITY ns_flows "http://ns.adobe.com/Flows/1.0/">
	<!ENTITY ns_extend "http://ns.adobe.com/Extensibility/1.0/">
	<!ENTITY ns_ai "http://ns.adobe.com/AdobeIllustrator/10.0/">
	<!ENTITY ns_graphs "http://ns.adobe.com/Graphs/1.0/">
]>
<svg version="1.1" id="Layer_1" xmlns:x="&ns_extend;" xmlns:i="&ns_ai;" xmlns:graph="&ns_graphs;"
	 xmlns="http://www.w3.org/2000/svg" xmlns:xlink="http://www.w3.org/1999/xlink" xmlns:a="http://ns.adobe.com/AdobeSVGViewerExtensions/3.0/"
	 x="0px" y="0px" viewBox="43.994 74.095 512.012 251.81" enable-background="new 43.994 74.095 512.012 251.81"
	 xml:space="preserve">
<g>
	<g>
		<g>
			
				<rect x="133.396" y="104.458" transform="matrix(-0.7071 -0.7071 0.7071 -0.7071 140.804 474.7685)" fill="#FCE3DF" width="70.667" height="207.529"/>
			<path fill="#CB1F4C" d="M128.354,314.591c2.562,2.562,6.716,2.562,9.277,0l137.467-137.467c2.562-2.562,2.562-6.716,0-9.277
				l-8.012-8.012L120.342,306.58L128.354,314.591z"/>
			<path fill="#CB1F4C" d="M192.66,85.409c-2.562-2.562-6.716-2.562-9.277,0L45.915,222.876c-2.562,2.562-2.562,6.716,0,9.277
				l24.457,24.457l146.745-146.745L192.66,85.409z"/>
		</g>
		<g>
			<path fill="#FCE3DF" d="M106.324,205.624l1.546-1.546l-9.679-9.679l-1.546,1.546l-1.353-1.353l4.866-4.866l1.353,1.353
				l-1.563,1.563l4.128,4.128l6.43-6.43l-4.128-4.128l-1.563,1.563l-1.353-1.353l4.866-4.866l1.353,1.353l-1.546,1.546l9.679,9.679
				l1.546-1.546l1.37,1.37l-4.866,4.866l-1.37-1.37l1.563-1.563l-4.111-4.111l-6.43,6.43l4.111,4.111l1.563-1.563l1.37,1.37
				l-4.866,4.866L106.324,205.624z"/>
			<path fill="#FCE3DF" d="M121.223,190.725l1.546-1.546l-9.679-9.679l-1.546,1.546l-1.353-1.353l8.976-8.976l2.881,2.881
				l-1.528,1.528l-1.441-1.441l-4.146,4.146l3.988,3.988l4.392-4.392l1.441,1.441l-4.392,4.392l4.093,4.093l4.444-4.444
				l-1.493-1.493l1.528-1.528l2.934,2.934l-9.275,9.275L121.223,190.725z"/>
			<path fill="#FCE3DF" d="M132.345,179.603l1.546-1.546l-9.591-9.591l-1.546,1.546l-1.441-1.441l4.866-4.866l1.441,1.441
				l-1.563,1.563l9.521,9.521l4.321-4.321l-2.002-2.002l1.546-1.546l3.443,3.443l-9.17,9.17L132.345,179.603z"/>
			<path fill="#FCE3DF" d="M142.957,168.992l1.546-1.546l-9.591-9.591l-1.546,1.546l-1.441-1.441l4.866-4.866l1.441,1.441
				l-1.563,1.563l9.521,9.521l4.321-4.321l-2.002-2.002l1.546-1.546l3.443,3.443l-9.17,9.17L142.957,168.992z"/>
			<path fill="#FCE3DF" d="M148.597,140.866c3.584-3.584,9.135-3.619,12.701-0.053c3.654,3.654,3.706,9.293,0.123,12.877
				c-3.601,3.601-9.222,3.531-12.876-0.123C144.978,150.001,144.996,144.467,148.597,140.866z M159.857,152.126
				c2.512-2.512,2.407-6.693-0.387-9.486c-2.705-2.705-6.816-2.74-9.328-0.228c-2.529,2.529-2.494,6.64,0.211,9.345
				C153.147,154.55,157.328,154.656,159.857,152.126z"/>
		</g>
	</g>
	<g>
		<g>
			
				<rect x="272.889" y="104.458" transform="matrix(-0.7071 -0.7071 0.7071 -0.7071 378.9335 573.4049)" fill="#FCE3DF" width="70.667" height="207.529"/>
			<path fill="#0D7C60" d="M267.847,314.591c2.562,2.562,6.716,2.562,9.277,0l137.467-137.467c2.562-2.562,2.562-6.716,0-9.277
				l-8.012-8.012L259.835,306.58L267.847,314.591z"/>
			<path fill="#0D7C60" d="M332.153,85.409c-2.562-2.562-6.716-2.562-9.277,0L185.409,222.876c-2.562,2.562-2.562,6.716,0,9.277
				l24.457,24.457l146.745-146.745L332.153,85.409z"/>
		</g>
		<g>
			<path fill="#FCE3DF" d="M245.817,205.624l1.546-1.546l-9.679-9.679l-1.546,1.546l-1.353-1.353l4.866-4.866l1.353,1.353
				l-1.563,1.563l4.128,4.128l6.43-6.43l-4.128-4.128l-1.563,1.563l-1.353-1.353l4.866-4.866l1.353,1.353l-1.546,1.546l9.679,9.679
				l1.546-1.546l1.37,1.37l-4.866,4.866l-1.37-1.37l1.563-1.563l-4.111-4.111l-6.43,6.43l4.111,4.111l1.563-1.563l1.37,1.37
				l-4.866,4.866L245.817,205.624z"/>
			<path fill="#FCE3DF" d="M260.716,190.725l1.546-1.546l-9.679-9.679l-1.546,1.546l-1.353-1.353l8.976-8.976l2.881,2.881
				l-1.528,1.528l-1.441-1.441l-4.146,4.146l3.988,3.988l4.392-4.392l1.441,1.441l-4.392,4.392l4.093,4.093l4.444-4.444
				l-1.493-1.493l1.528-1.528l2.934,2.934l-9.275,9.275L260.716,190.725z"/>
			<path fill="#FCE3DF" d="M271.838,179.603l1.546-1.546l-9.591-9.591l-1.546,1.546l-1.441-1.441l4.866-4.866l1.441,1.441
				l-1.563,1.563l9.521,9.521l4.321-4.321l-2.002-2.002l1.546-1.546l3.443,3.443l-9.17,9.17L271.838,179.603z"/>
			<path fill="#FCE3DF" d="M282.45,168.992l1.546-1.546l-9.591-9.591l-1.546,1.546l-1.441-1.441l4.866-4.866l1.441,1.441
				l-1.563,1.563l9.521,9.521l4.321-4.321L288,159.295l1.546-1.546l3.443,3.443l-9.17,9.17L282.45,168.992z"/>
			<path fill="#FCE3DF" d="M288.09,140.866c3.584-3.584,9.135-3.619,12.701-0.053c3.654,3.654,3.706,9.293,0.123,12.877
				c-3.601,3.601-9.222,3.531-12.876-0.123C284.471,150.001,284.489,144.467,288.09,140.866z M299.35,152.126
				c2.512-2.512,2.407-6.693-0.387-9.486c-2.705-2.705-6.816-2.74-9.328-0.228c-2.529,2.529-2.494,6.64,0.211,9.345
				C292.64,154.55,296.821,154.656,299.35,152.126z"/>
		</g>
	</g>
	<g>
		<g>
			
				<rect x="412.382" y="104.458" transform="matrix(-0.7071 -0.7071 0.7071 -0.7071 617.0629 672.0414)" fill="#FCE3DF" width="70.667" height="207.529"/>
			<path fill="#61C6C7" d="M407.34,314.591c2.562,2.562,6.716,2.562,9.277,0l137.467-137.467c2.562-2.562,2.562-6.716,0-9.277
				l-8.012-8.012L399.328,306.58L407.34,314.591z"/>
			<path fill="#61C6C7" d="M471.646,85.409c-2.562-2.562-6.716-2.562-9.277,0L324.902,222.876c-2.562,2.562-2.562,6.716,0,9.277
				l24.457,24.457l146.745-146.745L471.646,85.409z"/>
		</g>
		<g>
			<path fill="#FCE3DF" d="M385.31,205.624l1.546-1.546l-9.679-9.679l-1.546,1.546l-1.353-1.353l4.866-4.866l1.353,1.353
				l-1.563,1.563l4.128,4.128l6.43-6.43l-4.128-4.128l-1.563,1.563l-1.353-1.353l4.866-4.866l1.353,1.353l-1.546,1.546l9.679,9.679
				l1.546-1.546l1.37,1.37l-4.866,4.866l-1.37-1.37l1.563-1.563l-4.111-4.111l-6.43,6.43l4.111,4.111l1.563-1.563l1.37,1.37
				l-4.866,4.866L385.31,205.624z"/>
			<path fill="#FCE3DF" d="M400.209,190.725l1.546-1.546l-9.679-9.679l-1.546,1.546l-1.353-1.353l8.976-8.976l2.881,2.881
				l-1.528,1.528l-1.441-1.441l-4.146,4.146l3.988,3.988l4.392-4.392l1.441,1.441l-4.392,4.392l4.093,4.093l4.444-4.444
				l-1.493-1.493l1.528-1.528l2.934,2.934l-9.275,9.275L400.209,190.725z"/>
			<path fill="#FCE3DF" d="M411.331,179.603l1.546-1.546l-9.591-9.591l-1.546,1.546l-1.441-1.441l4.866-4.866l1.441,1.441
				l-1.563,1.563l9.521,9.521l4.321-4.321l-2.002-2.002l1.546-1.546l3.443,3.443l-9.17,9.17L411.331,179.603z"/>
			<path fill="#FCE3DF" d="M421.943,168.992l1.546-1.546l-9.591-9.591l-1.546,1.546l-1.441-1.441l4.866-4.866l1.441,1.441
				l-1.563,1.563l9.521,9.521l4.321-4.321l-2.002-2.002l1.546-1.546l3.443,3.443l-9.17,9.17L421.943,168.992z"/>
			<path fill="#FCE3DF" d="M427.583,140.866c3.584-3.584,9.135-3.619,12.701-0.053c3.654,3.654,3.706,9.293,0.123,12.877
				c-3.601,3.601-9.222,3.531-12.876-0.123C423.964,150.001,423.982,144.467,427.583,140.866z M438.843,152.126
				c2.512-2.512,2.407-6.693-0.386-9.486c-2.705-2.705-6.816-2.74-9.328-0.228c-2.529,2.529-2.494,6.64,0.211,9.345
				C432.133,154.55,436.314,154.656,438.843,152.126z"/>
		</g>
	</g>
</g>
</svg>
