<?xml version="1.0" encoding="utf-8"?>
<!-- Generator: Adobe Illustrator 17.1.0, SVG Export Plug-In . SVG Version: 6.00 Build 0)  -->
<!DOCTYPE svg PUBLIC "-//W3C//DTD SVG 1.1//EN" "http://www.w3.org/Graphics/SVG/1.1/DTD/svg11.dtd" [
	<!ENTITY ns_flows "http://ns.adobe.com/Flows/1.0/">
	<!ENTITY ns_extend "http://ns.adobe.com/Extensibility/1.0/">
	<!ENTITY ns_ai "http://ns.adobe.com/AdobeIllustrator/10.0/">
	<!ENTITY ns_graphs "http://ns.adobe.com/Graphs/1.0/">
]>
<svg version="1.1" id="Layer_1" xmlns:x="&ns_extend;" xmlns:i="&ns_ai;" xmlns:graph="&ns_graphs;"
	 xmlns="http://www.w3.org/2000/svg" xmlns:xlink="http://www.w3.org/1999/xlink" xmlns:a="http://ns.adobe.com/AdobeSVGViewerExtensions/3.0/"
	 x="0px" y="0px" viewBox="0 74.095 600 251.81" enable-background="new 0 74.095 600 251.81" xml:space="preserve">
<pattern  y="400" width="4.105" height="5.051" patternUnits="userSpaceOnUse" id="Unnamed_Pattern_2" viewBox="0 -5.051 4.105 5.051" overflow="visible">
	<g>
		<polygon fill="none" points="0,0 4.105,0 4.105,-5.051 0,-5.051 		"/>
		<path fill="none" d="M1.855-5.051v1.112c0,0.286-0.23,0.517-0.516,0.517c-0.285,0-0.518-0.231-0.518-0.517v-1.112H0V0h0.756
			v-1.256c0-0.322,0.262-0.583,0.584-0.583c0.322,0,0.584,0.261,0.584,0.583V0h2.182v-1.888c0,0.286-0.23,0.517-0.516,0.517
			c-0.285,0-0.518-0.231-0.518-0.517v-2.225c0-0.285,0.232-0.517,0.518-0.517c0.285,0,0.516,0.231,0.516,0.517v-0.938H1.855z"/>
		<path fill="#262626" d="M3.59-4.629c-0.285,0-0.518,0.231-0.518,0.517v2.225c0,0.286,0.232,0.517,0.518,0.517
			c0.285,0,0.516-0.231,0.516-0.517v-2.225C4.105-4.397,3.875-4.629,3.59-4.629z"/>
		<path fill="#262626" d="M1.34-1.84c-0.322,0-0.584,0.261-0.584,0.583V0h1.168v-1.256C1.924-1.579,1.662-1.84,1.34-1.84z"/>
		<path fill="#262626" d="M1.34-3.211c0.328,0,0.595-0.261,0.595-0.583v-1.256H0.745v1.256C0.745-3.472,1.012-3.211,1.34-3.211z"/>
	</g>
</pattern>
<g>
	<ellipse fill="#F27261" cx="540.917" cy="169.543" rx="42.542" ry="44.071"/>
	<path fill="#F27261" d="M601.164,222.804c-2.643-0.671-5.149-2.023-7.218-4.089l-16.469-16.469
		c-6.117-6.117-6.117-16.037-0.002-22.151c6.117-6.119,16.037-6.119,22.153,0l1.538,1.538L601.164,222.804z"/>
	<path fill="#F27261" d="M480.669,222.804c2.643-0.671,5.151-2.023,7.218-4.089l16.469-16.469
		c6.119-6.117,6.119-16.037,0.002-22.151c-6.117-6.119-16.037-6.119-22.154,0l-1.54,1.538L480.669,222.804z"/>
	<path fill="#FCE3DF" d="M540.89,215.669c21.12,0,38.238-17.052,38.238-38.1c0-21.041-17.118-38.114-38.238-38.114
		c-21.078,0-38.183,17.072-38.183,38.114C502.707,198.617,519.812,215.669,540.89,215.669z"/>
	<path fill="#F27261" d="M540.888,134.835c-20.323,0-37.17,17.077-40.451,39.455h80.959
		C578.111,151.912,561.255,134.835,540.888,134.835z"/>
	<path fill="#EE4270" d="M540.917,265.975c31.827,0,57.626-16.738,57.626-37.386c0-0.845-0.057-1.682-0.147-2.517
		c-6.591-1.426-13.592-1.418-21.013-1.691c-18.04-0.669-36.274-0.125-54.303,0.03c-11.111,0.083-22.249,0.011-33.38,0.011
		c-2.187,0.219-4.234,0.566-6.187,0.998c-0.138,1.044-0.221,2.099-0.221,3.168C483.293,249.237,509.09,265.975,540.917,265.975z"/>
	<rect x="517.516" y="219.953" fill="#CB1F4C" width="46.802" height="10.154"/>
	<path fill="#EE4270" d="M591.119,181.04c2.953,0.041,11.401-1.874,4.596-4.909c-5.942-2.65-12.321-1.68-13.835-1.389l1.433-1.4
		c0.522-0.513,0.531-1.35,0.022-1.87c-0.515-0.526-1.348-0.537-1.874-0.026l-1.363,1.328c0.356-1.7,1.363-7.882-1.084-13.745
		c-2.873-6.881-4.983,1.523-5.013,4.474c-0.039,2.953-2.139,3.218-1.079,5.175c1.055,1.96,3.62,4.585,3.62,4.585
		s-4.574-3.082-6.156-3.1c-1.586-0.018-2.881,5.8-1.68,7.757c0.738,1.201,4.906-0.426,7.274-1.12l-2.512,2.934
		c-0.524,0.511-0.773,1.105-0.267,1.627c0.516,0.524,1.112,0.286,1.639-0.225l3.078-2.525c-0.762,2.351-2.541,6.602-1.337,7.38
		c1.929,1.241,7.779,0.098,7.799-1.499c0.015-1.582-2.951-6.226-2.951-6.226s2.56,2.621,4.494,3.727
		C587.851,183.094,588.164,181.01,591.119,181.04z"/>
	<polygon fill="#CB1F4C" points="551.3,239.881 560.381,242.43 560.674,242.262 548.836,221.192 536.617,228.056 548.458,249.128 
		548.753,248.962 	"/>
	<polygon fill="#CB1F4C" points="530.536,239.881 521.454,242.43 521.16,242.262 533,221.192 545.218,228.056 533.378,249.128 
		533.083,248.962 	"/>
</g>
<g>
	<path fill="#A163A7" d="M58.591,265.975c32.054,0,58.034-16.858,58.034-37.653c0-0.852-0.057-1.695-0.147-2.534
		c-6.639-1.437-13.688-1.429-21.164-1.704c-18.167-0.673-36.53-0.127-54.688,0.031c-11.189,0.083-22.407,0.013-33.616,0.013
		c-2.204,0.219-4.267,0.57-6.233,1.003c-0.138,1.055-0.223,2.115-0.223,3.191C0.557,249.117,26.54,265.975,58.591,265.975z"/>
	<path fill="#B13125" d="M95.102,184.365l3.81-13.535c0-23.126-16.926-41.878-40.056-41.878h-1.933
		c-23.13,0-38.234,18.752-38.234,41.878l2.711,13.511L95.102,184.365z"/>
	<path fill="#E54D2E" d="M97.878,196.415c0,21.583-17.494,39.075-39.079,39.075l0,0c-21.581,0-39.075-17.492-39.075-39.075v-15.943
		c0-21.583,17.494-39.079,39.075-39.079l0,0c21.585,0,39.079,17.496,39.079,39.079V196.415z"/>
	<path fill="#E0C8C6" d="M97.406,172.813c0,21.317-17.28,38.601-38.621,38.601c-21.301,0-38.592-17.284-38.592-38.601
		c0-21.332,17.29-38.614,38.592-38.614C80.126,134.2,97.406,151.481,97.406,172.813z"/>
	<path fill="#61C6C7" d="M98.597,169.148c-4.922-1.051-10.704-2.174-17.05-2.174c-4.546,0-8.97,0.557-13.531,1.702
		c-2.94,0.738-6.053,1.42-8.891,1.42l-0.485-0.007c-1.689-0.055-3.318-0.435-4.896-0.806l-0.238-0.057
		c-7.456-1.737-13.409-2.508-19.296-2.508c-5.02,0-9.994,0.581-15.202,1.776l-0.824,0.19l1.055,6.888l0.769,0.015
		c1.215,0.022,1.243,0.679,1.252,0.924c0.463,11.646,3.323,18.743,15.984,18.424c15.74-0.413,18.982-14.02,19.471-16.744
		c0.304-1.706,0.948-1.804,2.158-1.839c1.256,0,1.529,0.607,1.907,1.682c0.057,0.159,0.109,0.31,0.166,0.446
		c5.009,12.67,8.328,15.602,18.697,16.504c0.878,0.077,1.7,0.116,2.471,0.116c11.001,0,12.303-7.393,13.35-13.335
		c0.266-1.52,0.52-2.958,0.913-4.203c0.343-1.099,0.551-1.295,1.394-1.319l0.782-0.017l0.861-6.903L98.597,169.148z M80.105,169.764
		v0.909c5.28,0,8.43,0.692,9.911,2.176c1.446,1.451,1.44,3.746,1.435,6.929l0.002,0.551c-1.108,9.754-3.283,10.818-11.357,10.818
		c-8.229-0.223-11.32-4.415-13.433-10.641c-0.948-2.792-0.961-4.83-0.048-6.23c1.675-2.567,6.44-2.986,11.482-3.427l1.905-0.175
		L80.105,169.764L80.105,169.764z M26.081,179.909c-0.004-3.183-0.011-5.479,1.433-6.929c1.483-1.483,4.627-2.176,9.896-2.176
		v-0.909l0,0l0.033,0.907l1.986,0.179c5.044,0.439,9.809,0.858,11.484,3.425c0.913,1.403,0.898,3.441-0.046,6.232
		c-2.11,6.224-5.201,10.416-13.411,10.634c-8.094,0-10.269-1.062-11.375-10.711V179.909z"/>
	<g>
		<path fill="#B13125" d="M48.894,131.314c0,0,16.777,31.643,47.533,30.385l-0.19,3.104l4.242-3.104
			C100.48,161.698,87.13,120.393,48.894,131.314z"/>
		<path fill="#B13125" d="M53.06,129.474l-18.057,10.331c0,0-1.711,0.166-3.814,0.655c-2.158,2.573-4.376,5.099-6.58,7.633
			c-0.072,0.216-0.14,0.433-0.205,0.647c0.041,0.074,0.085,0.144,0.138,0.221c5.387,7.635,34.05-9.155,34.05-9.155v-0.909
			L53.06,129.474z"/>
	</g>
	<path fill="#E54D2E" d="M96.677,188.441l-14.468,11.156c-21.002-7.229-41.928-1.522-46.806,0.009l-14.481-11.165l7.458,24.028
		l29.852,9.306l0.327,0.253l0.24-0.074l0.24,0.074l0.33-0.253l29.854-9.306L96.677,188.441z M68.131,212.469l-8.067-5.492
		l-1.025-1.023l-0.24,0.164l-0.24-0.164l-1.02,1.023l-8.07,5.492H35.577v-5.442c0.404,0,0.813-0.068,1.215-0.21
		c0.225-0.081,22.605-7.818,43.981-0.013c0.413,0.149,0.832,0.205,1.25,0.205v5.459H68.131z"/>
	<pattern  id="SVGID_1_" xlink:href="#Unnamed_Pattern_2" patternTransform="matrix(0.8309 0 0 0.8309 -1343.9517 -1425.5192)">
	</pattern>
	<path fill="url(#SVGID_1_)" d="M17.682,179.369"/>
</g>
<g>
	<g>
		<g>
			<defs>
				<path id="SVGID_2_" d="M176.863,179.557"/>
			</defs>
			<clipPath id="SVGID_3_">
				<use xlink:href="#SVGID_2_"  overflow="visible"/>
			</clipPath>
			<g clip-path="url(#SVGID_3_)">
				<rect x="175.401" y="176.461" fill="none" width="7.631" height="9.389"/>
				<path fill="none" d="M178.853,176.461v2.069c0,0.531-0.43,0.959-0.961,0.959c-0.529,0-0.961-0.428-0.961-0.959v-2.069h-1.529
					v9.389h1.407v-2.335c0-0.599,0.485-1.086,1.084-1.086c0.599,0,1.088,0.487,1.088,1.086v2.335h4.052v-3.508
					c0,0.529-0.426,0.961-0.957,0.961c-0.531,0-0.963-0.432-0.963-0.961v-4.135c0-0.531,0.433-0.961,0.963-0.961
					c0.531,0,0.957,0.43,0.957,0.961v-1.745H178.853z"/>
				<path fill="#262626" d="M182.075,177.246c-0.531,0-0.963,0.43-0.963,0.961v4.135c0,0.529,0.433,0.961,0.963,0.961
					c0.531,0,0.957-0.432,0.957-0.961v-4.135C183.032,177.676,182.606,177.246,182.075,177.246z"/>
				<path fill="#262626" d="M177.892,182.43c-0.599,0-1.084,0.487-1.084,1.086v2.335h2.171v-2.335
					C178.98,182.917,178.49,182.43,177.892,182.43z"/>
				<path fill="#262626" d="M177.892,179.882c0.612,0,1.108-0.485,1.108-1.083v-2.338h-2.213v2.338
					C176.786,179.397,177.282,179.882,177.892,179.882z"/>
			</g>
		</g>
	</g>
	<g>
		<g>
			<defs>
				<path id="SVGID_4_" d="M218.148,265.975c32.484,0,58.816-17.083,58.816-38.159c0-0.865-0.059-1.719-0.146-2.567
					c-6.728-1.457-13.876-1.448-21.448-1.728c-18.416-0.681-37.026-0.127-55.428,0.033c-11.34,0.083-22.71,0.011-34.07,0.011
					c-2.23,0.223-4.321,0.579-6.318,1.018c-0.138,1.066-0.223,2.143-0.223,3.233C159.332,248.892,185.664,265.975,218.148,265.975z"
					/>
			</defs>
			<use xlink:href="#SVGID_4_"  overflow="visible" fill="#F27261"/>
			<clipPath id="SVGID_5_">
				<use xlink:href="#SVGID_4_"  overflow="visible"/>
			</clipPath>
			<g clip-path="url(#SVGID_5_)">
				<rect x="266.283" y="219.885" fill="#F27261" width="16.605" height="16.605"/>
				<rect x="266.283" y="219.885" fill="#F27261" width="8.301" height="8.304"/>
				<rect x="274.584" y="219.885" fill="#F27261" width="8.303" height="8.304"/>
				<rect x="274.584" y="228.189" fill="#F27261" width="8.303" height="8.301"/>
				<rect x="266.283" y="228.189" fill="#F27261" width="8.301" height="8.301"/>
			</g>
			<g clip-path="url(#SVGID_5_)">
				<rect x="266.283" y="236.492" fill="#F27261" width="16.605" height="16.6"/>
				<rect x="266.283" y="236.492" fill="#F27261" width="8.301" height="8.301"/>
				<rect x="274.584" y="236.492" fill="#F27261" width="8.303" height="8.301"/>
				<rect x="274.584" y="244.794" fill="#F27261" width="8.303" height="8.299"/>
				<rect x="266.283" y="244.794" fill="#F27261" width="8.301" height="8.299"/>
			</g>
			<g clip-path="url(#SVGID_5_)">
				<rect x="266.283" y="253.093" fill="#F27261" width="16.605" height="16.605"/>
				<rect x="266.283" y="253.093" fill="#F27261" width="8.301" height="8.303"/>
				<rect x="274.584" y="253.093" fill="#F27261" width="8.303" height="8.303"/>
				<rect x="274.584" y="261.396" fill="#F27261" width="8.303" height="8.301"/>
				<rect x="266.283" y="261.396" fill="#F27261" width="8.301" height="8.301"/>
			</g>
			<g clip-path="url(#SVGID_5_)">
				<rect x="249.682" y="219.885" fill="#F27261" width="16.6" height="16.605"/>
				<rect x="249.682" y="219.885" fill="#F27261" width="8.301" height="8.304"/>
				<rect x="257.983" y="219.885" fill="#F27261" width="8.299" height="8.304"/>
				<rect x="257.983" y="228.189" fill="#F27261" width="8.299" height="8.301"/>
				<rect x="249.682" y="228.189" fill="#F27261" width="8.301" height="8.301"/>
			</g>
			<g clip-path="url(#SVGID_5_)">
				<rect x="249.682" y="236.492" fill="#F27261" width="16.6" height="16.6"/>
				<rect x="249.682" y="236.492" fill="#F27261" width="8.301" height="8.301"/>
				<rect x="257.983" y="236.492" fill="#F27261" width="8.299" height="8.301"/>
				<rect x="257.983" y="244.794" fill="#F27261" width="8.299" height="8.299"/>
				<rect x="249.682" y="244.794" fill="#F27261" width="8.301" height="8.299"/>
			</g>
			<g clip-path="url(#SVGID_5_)">
				<rect x="249.682" y="253.093" fill="#F27261" width="16.6" height="16.605"/>
				<rect x="249.682" y="253.093" fill="#F27261" width="8.301" height="8.303"/>
				<rect x="257.983" y="253.093" fill="#F27261" width="8.299" height="8.303"/>
				<rect x="257.983" y="261.396" fill="#F27261" width="8.299" height="8.301"/>
				<rect x="249.682" y="261.396" fill="#F27261" width="8.301" height="8.301"/>
			</g>
			<g clip-path="url(#SVGID_5_)">
				<rect x="233.077" y="219.885" fill="#F27261" width="16.605" height="16.605"/>
				<rect x="233.077" y="219.885" fill="#F27261" width="8.303" height="8.304"/>
				<rect x="241.381" y="219.885" fill="#F27261" width="8.301" height="8.304"/>
				<rect x="241.381" y="228.189" fill="#F27261" width="8.301" height="8.301"/>
				<rect x="233.077" y="228.189" fill="#F27261" width="8.303" height="8.301"/>
			</g>
			<g clip-path="url(#SVGID_5_)">
				<rect x="233.077" y="236.492" fill="#F27261" width="16.605" height="16.6"/>
				<rect x="233.077" y="236.492" fill="#F27261" width="8.303" height="8.301"/>
				<rect x="241.381" y="236.492" fill="#F27261" width="8.301" height="8.301"/>
				<rect x="241.381" y="244.794" fill="#F27261" width="8.301" height="8.299"/>
				<rect x="233.077" y="244.794" fill="#F27261" width="8.303" height="8.299"/>
			</g>
			<g clip-path="url(#SVGID_5_)">
				<rect x="233.077" y="253.093" fill="#F27261" width="16.605" height="16.605"/>
				<rect x="233.077" y="253.093" fill="#F27261" width="8.303" height="8.303"/>
				<rect x="241.381" y="253.093" fill="#F27261" width="8.301" height="8.303"/>
				<rect x="241.381" y="261.396" fill="#F27261" width="8.301" height="8.301"/>
				<rect x="233.077" y="261.396" fill="#F27261" width="8.303" height="8.301"/>
			</g>
			<g clip-path="url(#SVGID_5_)">
				<rect x="216.475" y="219.885" fill="#F27261" width="16.603" height="16.605"/>
				<rect x="216.475" y="219.885" fill="#F27261" width="8.301" height="8.304"/>
				<rect x="224.776" y="219.885" fill="#F27261" width="8.301" height="8.304"/>
				<rect x="224.776" y="228.189" fill="#F27261" width="8.301" height="8.301"/>
				<rect x="216.475" y="228.189" fill="#F27261" width="8.301" height="8.301"/>
			</g>
			<g clip-path="url(#SVGID_5_)">
				<rect x="216.475" y="236.492" fill="#F27261" width="16.603" height="16.6"/>
				<rect x="216.475" y="236.492" fill="#F27261" width="8.301" height="8.301"/>
				<rect x="224.776" y="236.492" fill="#F27261" width="8.301" height="8.301"/>
				<rect x="224.776" y="244.794" fill="#F27261" width="8.301" height="8.299"/>
				<rect x="216.475" y="244.794" fill="#F27261" width="8.301" height="8.299"/>
			</g>
			<g clip-path="url(#SVGID_5_)">
				<rect x="216.475" y="253.093" fill="#F27261" width="16.603" height="16.605"/>
				<rect x="216.475" y="253.093" fill="#F27261" width="8.301" height="8.303"/>
				<rect x="224.776" y="253.093" fill="#F27261" width="8.301" height="8.303"/>
				<rect x="224.776" y="261.396" fill="#F27261" width="8.301" height="8.301"/>
				<rect x="216.475" y="261.396" fill="#F27261" width="8.301" height="8.301"/>
			</g>
			<g clip-path="url(#SVGID_5_)">
				<rect x="199.87" y="219.885" fill="#F27261" width="16.605" height="16.605"/>
				<rect x="199.87" y="219.885" fill="#F27261" width="8.301" height="8.304"/>
				<rect x="208.172" y="219.885" fill="#F27261" width="8.303" height="8.304"/>
				<rect x="208.172" y="228.189" fill="#F27261" width="8.303" height="8.301"/>
				<rect x="199.87" y="228.189" fill="#F27261" width="8.301" height="8.301"/>
			</g>
			<g clip-path="url(#SVGID_5_)">
				<rect x="199.87" y="236.492" fill="#F27261" width="16.605" height="16.6"/>
				<rect x="199.87" y="236.492" fill="#F27261" width="8.301" height="8.301"/>
				<rect x="208.172" y="236.492" fill="#F27261" width="8.303" height="8.301"/>
				<rect x="208.172" y="244.794" fill="#F27261" width="8.303" height="8.299"/>
				<rect x="199.87" y="244.794" fill="#F27261" width="8.301" height="8.299"/>
			</g>
			<g clip-path="url(#SVGID_5_)">
				<rect x="199.87" y="253.093" fill="#F27261" width="16.605" height="16.605"/>
				<rect x="199.87" y="253.093" fill="#F27261" width="8.301" height="8.303"/>
				<rect x="208.172" y="253.093" fill="#F27261" width="8.303" height="8.303"/>
				<rect x="208.172" y="261.396" fill="#F27261" width="8.303" height="8.301"/>
				<rect x="199.87" y="261.396" fill="#F27261" width="8.301" height="8.301"/>
			</g>
			<g clip-path="url(#SVGID_5_)">
				<rect x="183.268" y="219.885" fill="#F27261" width="16.603" height="16.605"/>
				<rect x="183.268" y="219.885" fill="#F27261" width="8.301" height="8.304"/>
				<rect x="191.569" y="219.885" fill="#F27261" width="8.301" height="8.304"/>
				<rect x="191.569" y="228.189" fill="#F27261" width="8.301" height="8.301"/>
				<rect x="183.268" y="228.189" fill="#F27261" width="8.301" height="8.301"/>
			</g>
			<g clip-path="url(#SVGID_5_)">
				<rect x="183.268" y="236.492" fill="#F27261" width="16.603" height="16.6"/>
				<rect x="183.268" y="236.492" fill="#F27261" width="8.301" height="8.301"/>
				<rect x="191.569" y="236.492" fill="#F27261" width="8.301" height="8.301"/>
				<rect x="191.569" y="244.794" fill="#F27261" width="8.301" height="8.299"/>
				<rect x="183.268" y="244.794" fill="#F27261" width="8.301" height="8.299"/>
			</g>
			<g clip-path="url(#SVGID_5_)">
				<rect x="183.268" y="253.093" fill="#F27261" width="16.603" height="16.605"/>
				<rect x="183.268" y="253.093" fill="#F27261" width="8.301" height="8.303"/>
				<rect x="191.569" y="253.093" fill="#F27261" width="8.301" height="8.303"/>
				<rect x="191.569" y="261.396" fill="#F27261" width="8.301" height="8.301"/>
				<rect x="183.268" y="261.396" fill="#F27261" width="8.301" height="8.301"/>
			</g>
			<g clip-path="url(#SVGID_5_)">
				<rect x="166.665" y="219.885" fill="#F27261" width="16.603" height="16.605"/>
				<rect x="166.665" y="219.885" fill="#F27261" width="8.301" height="8.304"/>
				<rect x="174.967" y="219.885" fill="#F27261" width="8.301" height="8.304"/>
				<rect x="174.967" y="228.189" fill="#F27261" width="8.301" height="8.301"/>
				<rect x="166.665" y="228.189" fill="#F27261" width="8.301" height="8.301"/>
			</g>
			<g clip-path="url(#SVGID_5_)">
				<rect x="166.665" y="236.492" fill="#F27261" width="16.603" height="16.6"/>
				<rect x="166.665" y="236.492" fill="#F27261" width="8.301" height="8.301"/>
				<rect x="174.967" y="236.492" fill="#F27261" width="8.301" height="8.301"/>
				<rect x="174.967" y="244.794" fill="#F27261" width="8.301" height="8.299"/>
				<rect x="166.665" y="244.794" fill="#F27261" width="8.301" height="8.299"/>
			</g>
			<g clip-path="url(#SVGID_5_)">
				<rect x="166.665" y="253.093" fill="#F27261" width="16.603" height="16.605"/>
				<rect x="166.665" y="253.093" fill="#F27261" width="8.301" height="8.303"/>
				<rect x="174.967" y="253.093" fill="#F27261" width="8.301" height="8.303"/>
				<rect x="174.967" y="261.396" fill="#F27261" width="8.301" height="8.301"/>
				<rect x="166.665" y="261.396" fill="#F27261" width="8.301" height="8.301"/>
			</g>
			<g clip-path="url(#SVGID_5_)">
				<rect x="150.061" y="219.885" fill="#F27261" width="16.605" height="16.605"/>
				<rect x="150.061" y="219.885" fill="#F27261" width="8.301" height="8.304"/>
				<rect x="158.362" y="219.885" fill="#F27261" width="8.303" height="8.304"/>
				<rect x="158.362" y="228.189" fill="#F27261" width="8.303" height="8.301"/>
				<rect x="150.061" y="228.189" fill="#F27261" width="8.301" height="8.301"/>
			</g>
			<g clip-path="url(#SVGID_5_)">
				<rect x="150.061" y="236.492" fill="#F27261" width="16.605" height="16.6"/>
				<rect x="150.061" y="236.492" fill="#F27261" width="8.301" height="8.301"/>
				<rect x="158.362" y="236.492" fill="#F27261" width="8.303" height="8.301"/>
				<rect x="158.362" y="244.794" fill="#F27261" width="8.303" height="8.299"/>
				<rect x="150.061" y="244.794" fill="#F27261" width="8.301" height="8.299"/>
			</g>
			<g clip-path="url(#SVGID_5_)">
				<rect x="150.061" y="253.093" fill="#F27261" width="16.605" height="16.605"/>
				<rect x="150.061" y="253.093" fill="#F27261" width="8.301" height="8.303"/>
				<rect x="158.362" y="253.093" fill="#F27261" width="8.303" height="8.303"/>
				<rect x="158.362" y="261.396" fill="#F27261" width="8.303" height="8.301"/>
				<rect x="150.061" y="261.396" fill="#F27261" width="8.301" height="8.301"/>
			</g>
		</g>
	</g>
	<g>
		<path fill="#FCE3DF" d="M257.754,191.788c0,21.871-17.73,39.601-39.606,39.601l0,0c-21.872,0-39.603-17.73-39.603-39.601v-16.157
			c0-21.876,17.732-39.608,39.603-39.608l0,0c21.876,0,39.606,17.732,39.606,39.608V191.788z"/>
	</g>
	<g>
		<path fill="#FDE466" d="M254.94,183.266l3.86-13.721c0-23.436-17.153-42.439-40.595-42.439h-1.96
			c-23.44,0-38.749,19.003-38.749,42.439l2.75,13.697L254.94,183.266z"/>
	</g>
	<g>
		<path fill="#FCE3DF" d="M179.023,171.557c0,21.607,17.522,39.123,39.11,39.123c21.631,0,39.143-17.516,39.143-39.123
			c0-3.65-0.535-7.168-1.47-10.521h-75.31C179.559,164.39,179.023,167.907,179.023,171.557z"/>
	</g>
	<g>
		<g>
			<path fill="#FDE466" d="M225.663,134.665l0.232-0.922c-2.471-1.844-4.45-3.476-8.011-3.458c-3.025,0.013-6.104,0.614-9.109,0.869
				c-6.171,0.527-13.551,1.123-18.344,5.352c-2.257,1.99-4.299,3.989-6.165,6.243c0.063,0.258,0.105,0.522,0.105,0.797
				c0,0.69-0.216,1.326-0.577,1.866c-0.125,0.299-0.282,0.587-0.494,0.848c-0.28,0.653-0.861,1.245-1.42,1.573
				c-0.356,0.208-0.747,0.336-1.145,0.406c-0.826,1.866-1.448,3.803-2.296,5.756c-1.306,3.01-2.272,5.444-2.368,8.821
				c-0.063,2.211-0.904,5.863,0.015,7.76c1.805-1.322,0.651-3.401,2.005-4.465c1.193,2.445,2.501,4.513,3.22,7.226
				c1.78-4.129,3.701-7.587,7.377-10.595c2.139-1.752,4.647-2.086,6.584-4.188c1.566-1.697,4.522-4.065,5.044-6.359
				c0.258,2.977-1.564,7.679-3.277,10.049c3.148-1.02,6.261-4.052,9.258-5.619c3.102-1.623,6.468-2.652,9.588-4.242
				c4.168-2.124,6.807-5.136,8.524-9.49C225.156,141.002,226.596,136.596,225.663,134.665z"/>
		</g>
		<g>
			<path fill="#FDE466" d="M257.498,164.37c-0.902-3.205-2.811-6.058-3.41-9.348c2.018-0.432,3.622,1.787,5.461,0.843
				c-1.614-3.006-4.845-5.475-6.645-8.546c-1.944-0.288-3.757-0.983-5.123-2.65c-0.492-0.601-0.811-1.295-0.926-2.007
				c-0.723-0.387-1.453-0.769-2.163-1.193c-4.419-2.635-6.538-6.442-10.311-9.634c-2.925-2.473-8.083-2.425-11.742-2.246
				c-1.339,0.07-4.577,0.247-4.841,2.128c-0.155,1.125,2.442,4.782,3.251,5.717c1.553,1.012,2.468,4.607,3.628,6.228
				c1.483,2.073,3.159,4.022,4.723,6.025c1.579,2.027,3.122,4.161,4.393,6.409c1.293,2.294,1.977,4.85,3.917,6.717
				c4.068,3.917,8.115,1.752,12.856,2.986c2.562,0.666,3.703,2.766,5.217,4.795c1.649,2.215,2.226,1.933,4.854,2.755
				C258.724,171.561,258.189,166.821,257.498,164.37z"/>
		</g>
	</g>
	<g>
		<path fill="#0C6667" d="M217.085,122.302c-15.711,0-29.321,9.804-36.067,24.126h72.162
			C246.436,132.107,232.826,122.302,217.085,122.302z"/>
	</g>
	<g>
		<path fill="#D5B129" d="M239.954,198.964c0,0,1.156,3.502-3.701,4.092c-4.806,0.59-6.06-2.285-10.597-3.342
			c-3.163-0.738-5.979-0.727-7.508,0.557c-1.529-1.284-4.35-1.295-7.51-0.557c-4.535,1.057-5.787,3.932-10.595,3.342
			c-4.858-0.59-3.701-4.092-3.701-4.092s-3.98,8.655,11.775,8.644c4.701,0,8.275-0.669,10.031-2.158
			c1.756,1.49,5.33,2.158,10.033,2.158C243.935,207.619,239.954,198.964,239.954,198.964z"/>
	</g>
	<g>
		<rect x="181.094" y="144.583" fill="#4DC7E5" width="72.011" height="3.69"/>
	</g>
	<g>
		<g>
			<path fill="#352F31" d="M245.04,147.844c-1.706-11.685-13.562-20.738-27.94-20.738c-14.381,0-26.236,9.053-27.942,20.738H245.04z
				"/>
		</g>
	</g>
</g>
<g>
	<ellipse fill="#A163A7" cx="378.012" cy="133.555" rx="24.223" ry="22.044"/>
	<path fill="#991C3B" d="M379.304,264.725c32.394,0,58.655-17.037,58.655-38.055c0-0.861-0.059-1.713-0.146-2.562
		c-6.711-1.451-13.837-1.442-21.391-1.719c-18.363-0.682-36.921-0.127-55.273,0.031c-11.307,0.083-22.647,0.013-33.976,0.013
		c-2.224,0.221-4.308,0.577-6.298,1.011c-0.138,1.066-0.225,2.141-0.225,3.227C320.649,247.688,346.91,264.725,379.304,264.725z"/>
	<g>
		<polygon fill="#EE4270" points="411.991,236.084 411.991,218.817 346.617,218.817 346.617,236.084 379.304,265.975 		"/>
	</g>
	<path fill="#61C6C7" d="M371.079,225.463c0.024,0,0.074,0,0.098,0c0.026,0.035,0.055,0.07,0.083,0.105
		c-0.015,0.057-0.033,0.111-0.055,0.168c-0.055,0.079-0.111,0.166-0.19,0.227c-0.162,0.131-0.273,0.315-0.417,0.463
		c-0.323,0.38-0.655,0.762-0.942,1.178c-0.02,0.046-0.039,0.094-0.059,0.138c0.015,0.031,0.033,0.063,0.048,0.096
		c0.044,0.015,0.089,0.035,0.14,0.044c0.153-0.026,0.308-0.074,0.45-0.135c0.077-0.035,0.151-0.066,0.227-0.094
		c0.109-0.05,0.275-0.179,0.361-0.033c-0.081,0.153-0.24,0.232-0.396,0.288c-0.046,0.013-0.089,0.024-0.131,0.039
		c-0.251,0.057-0.511,0.083-0.754,0.172c-0.07,0.022-0.116,0.079-0.155,0.138c-0.081,0.321-0.05,0.655-0.044,0.983
		c0.042,0.273,0.125,0.54,0.223,0.797c0.09,0.192,0.225,0.358,0.356,0.526c0.162,0.175,0.363,0.308,0.572,0.424
		c0.081,0.037,0.214,0.089,0.273-0.007c0.048-0.175-0.046-0.347-0.079-0.513c-0.077-0.301-0.166-0.612-0.094-0.922
		c0.028-0.052,0.061-0.111,0.092-0.162c0.028,0,0.081,0,0.109,0c0.026,0.072,0.052,0.142,0.052,0.218
		c0.028,0.291,0.037,0.581,0.114,0.861c0.046,0.14,0.092,0.277,0.146,0.406c0.085,0.127,0.153,0.271,0.297,0.336
		c0.022,0.011,0.063,0.033,0.083,0.044c0.188,0.004,0.398,0.039,0.561-0.079c0.242-0.16,0.408-0.413,0.544-0.668
		c0.024-0.048,0.048-0.096,0.074-0.147c0.044-0.1,0.089-0.205,0.113-0.315c0.011-0.153,0.011-0.308,0.05-0.457
		c0.02-0.061,0.089-0.057,0.142-0.068c0.21,0.256,0.07,0.599-0.011,0.876c-0.039,0.085-0.074,0.173-0.116,0.258
		c-0.03,0.074-0.061,0.149-0.096,0.221c-0.004,0.066-0.004,0.131-0.004,0.194c0.127,0.087,0.267,0,0.391-0.044
		c0.05-0.022,0.1-0.052,0.149-0.076c0.017-0.007,0.055-0.024,0.07-0.033c0.365-0.23,0.69-0.511,1.003-0.804
		c0.1-0.074,0.186-0.17,0.219-0.293c0.026-0.205,0.004-0.411-0.074-0.603c-0.103-0.188-0.264-0.334-0.45-0.446
		c-0.077-0.044-0.149-0.087-0.225-0.129c-0.033-0.015-0.07-0.033-0.103-0.055c-0.022-0.007-0.055-0.024-0.074-0.035
		c-0.048-0.026-0.096-0.048-0.144-0.074c-0.022-0.009-0.055-0.026-0.074-0.035c-0.101-0.052-0.201-0.107-0.302-0.166
		c-0.149-0.096-0.28-0.223-0.374-0.371c-0.059-0.092-0.103-0.194-0.083-0.306c0.028-0.004,0.083-0.009,0.109-0.011
		c0.072,0.052,0.125,0.124,0.175,0.199c0.024,0.039,0.05,0.076,0.074,0.111c0.063,0.118,0.17,0.201,0.282,0.271
		c0.275,0.12,0.572,0.192,0.867,0.258c0.05,0.013,0.098-0.024,0.149-0.037c0.02-0.179-0.133-0.304-0.232-0.426
		c-0.135-0.162-0.221-0.352-0.297-0.544c-0.085-0.175-0.286-0.249-0.417-0.389c-0.184-0.207-0.352-0.424-0.476-0.668
		c-0.026-0.061-0.053-0.122-0.081-0.183c-0.004-0.017-0.009-0.048-0.015-0.066c-0.035-0.074-0.031-0.162-0.024-0.24
		c0.057-0.048,0.133-0.018,0.17,0.039c0.103,0.138,0.184,0.293,0.24,0.45c0.05,0.1,0.098,0.197,0.144,0.297
		c0.063,0.105,0.142,0.24,0.282,0.236c0.149-0.142,0.028-0.343,0.052-0.518c0.02-0.142,0.011-0.315,0.155-0.398
		c0.085-0.015,0.122,0.083,0.168,0.133c-0.011,0.149-0.061,0.295-0.111,0.439c-0.022,0.179-0.011,0.367,0.044,0.542
		c0.011,0.037,0.026,0.074,0.037,0.111c0.026,0.061,0.048,0.122,0.072,0.183c0.048,0.122,0.162,0.319,0.312,0.201
		c0.063,0,0.151-0.03,0.183,0.05c0.055,0.16,0.087,0.33,0.162,0.485c0.017,0.035,0.037,0.068,0.055,0.103
		c0.052,0.114,0.122,0.223,0.183,0.332c0.024,0.059,0.05,0.122,0.077,0.184c0.14,0.391,0.017,0.808-0.149,1.173
		c-0.225,0.47-0.684,0.754-1.112,1.016c-0.36,0.236-0.762,0.45-1.007,0.819c0.004,0.085-0.031,0.201,0.072,0.24
		c0.09,0.068,0.195,0.004,0.278-0.033c0.077-0.031,0.149-0.066,0.225-0.094c0.044-0.02,0.094-0.035,0.14-0.057
		c0.258-0.074,0.522-0.133,0.791-0.142c0.207,0.009,0.411,0.037,0.609,0.105c0.087,0.037,0.175,0.077,0.232,0.16
		c0.018,0.076-0.011,0.151-0.041,0.221c-0.194,0.367-0.474,0.704-0.854,0.885c-0.061,0.026-0.122,0.05-0.181,0.077
		c-0.245,0.081-0.5,0.098-0.754,0.122c-0.017,0.009-0.052,0.033-0.066,0.044c-0.061,0.166,0,0.334-0.004,0.505
		c0.028,0.312,0.048,0.625,0.116,0.935c0.052,0.19,0.138,0.395,0.334,0.487c0.055,0.009,0.109,0.031,0.162,0.039
		c0.522,0.033,1.046-0.013,1.564,0.024c0.336,0.013,0.636,0.221,0.972,0.203c0.435,0.004,0.867,0.017,1.295-0.066
		c0.47-0.074,0.942-0.16,1.413-0.23c0.511-0.059,1.029-0.024,1.54-0.033c0.245,0.026,0.491,0.039,0.734,0.037
		c0.878,0.068,1.761,0.125,2.624,0.312c0.017,0.004,0.052,0.011,0.068,0.013c0.061,0.026,0.122,0.052,0.181,0.079
		c0.135,0.076,0.273,0.149,0.4,0.236c0.079,0.048,0.151,0.096,0.223,0.147c0.175,0.124,0.352,0.251,0.509,0.402
		c0.26,0.19,0.461,0.448,0.658,0.699c0.111,0.151,0.21,0.306,0.297,0.472c0.026,0.059,0.057,0.12,0.085,0.175
		c0.041,0.085,0.077,0.17,0.116,0.256c0.028,0.098,0.061,0.194,0.09,0.295c0.068,0.245,0.103,0.498,0.111,0.754
		c-0.017,0.271-0.033,0.542-0.009,0.817c0.107,0.559,0.245,1.118,0.446,1.658c0.024,0.059,0.05,0.122,0.074,0.181
		c0.026,0.063,0.05,0.125,0.072,0.186c0.024,0.048,0.05,0.098,0.074,0.149c0.223,0.424,0.505,0.832,0.889,1.127
		c0.188,0.186,0.186,0.47,0.21,0.71c0.033,0.21,0.015,0.419,0.048,0.629c0.009,0.282,0,0.563,0.039,0.843
		c-0.002,0.23,0.031,0.454,0.059,0.684c0.037,0.19,0.111,0.369,0.133,0.561c0.068,0.498,0.188,1.025,0.018,1.518
		c-0.076,0.17-0.229,0.312-0.415,0.347c-0.205,0.022-0.419,0.007-0.609-0.079c-0.081-0.055-0.16-0.17-0.112-0.269
		c0.059-0.19,0.306-0.225,0.343-0.433c0.037-0.157,0.127-0.299,0.19-0.448c0.026-0.153-0.039-0.301-0.03-0.452
		c0.096-0.288-0.024-0.579-0.048-0.867c-0.066-0.315-0.111-0.633-0.184-0.948c-0.026-0.061-0.048-0.127-0.074-0.186
		c-0.011-0.017-0.03-0.055-0.037-0.074c-0.011-0.017-0.028-0.055-0.037-0.072c-0.009-0.017-0.03-0.057-0.037-0.07
		c-0.011-0.022-0.026-0.057-0.035-0.079c-0.011-0.017-0.031-0.055-0.039-0.072c-0.006-0.02-0.026-0.055-0.035-0.072
		c-0.011-0.019-0.026-0.057-0.037-0.074c-0.044-0.085-0.094-0.175-0.144-0.258c-0.052-0.089-0.122-0.17-0.203-0.236
		c-0.026,0.004-0.081,0.004-0.107,0.004c-0.013,0.02-0.035,0.066-0.05,0.083c-0.013,0.35-0.015,0.704,0.028,1.051
		c-0.013,0.601,0.061,1.199,0.155,1.794c0.068,0.468,0.164,0.948,0.055,1.413c-0.013,0.035-0.028,0.07-0.039,0.105
		c-0.077,0.172-0.225,0.312-0.413,0.352c-0.208,0.017-0.422,0.004-0.612-0.083c-0.092-0.061-0.166-0.19-0.098-0.293
		c0.035-0.107,0.136-0.157,0.223-0.219c0.057-0.048,0.074-0.125,0.109-0.186c0.039-0.164,0.127-0.304,0.192-0.452
		c0.015-0.144-0.026-0.277-0.039-0.417c0.061-0.229,0.055-0.474,0.013-0.706c-0.048-0.494-0.186-0.972-0.369-1.433
		c-0.041-0.101-0.083-0.203-0.127-0.302c-0.266-0.502-0.623-0.959-1.051-1.337c-0.236-0.192-0.485-0.38-0.752-0.533
		c-0.076-0.044-0.151-0.087-0.227-0.133c-0.035-0.017-0.07-0.035-0.103-0.055c-0.02-0.009-0.055-0.024-0.074-0.033
		c-0.087-0.037-0.175-0.068-0.258-0.111c-0.061-0.022-0.122-0.046-0.181-0.07c-0.157-0.061-0.319-0.133-0.419-0.269
		c-0.186-0.23-0.433-0.404-0.603-0.649c-0.07-0.109-0.223-0.103-0.332-0.061c-0.074,0.035-0.151,0.066-0.227,0.096
		c-0.068,0.035-0.142,0.061-0.212,0.092c-0.671,0.227-1.376,0.293-2.075,0.327c-0.317-0.035-0.64-0.035-0.957-0.079
		c-0.339-0.05-0.671-0.098-0.996-0.19c-0.09-0.024-0.184-0.013-0.271-0.015c-0.046,0.057-0.098,0.109-0.087,0.188
		c-0.046,0.957-0.194,1.905-0.269,2.86c-0.035,0.216-0.022,0.439-0.035,0.657c-0.044,0.35-0.039,0.706,0.002,1.055
		c0.004,0.28,0.037,0.557,0.103,0.83c0.053,0.238,0.077,0.483,0.118,0.723c0.041,0.365,0.081,0.751-0.048,1.103
		c-0.079,0.173-0.225,0.315-0.415,0.352c-0.164,0.007-0.343,0.02-0.498-0.046c-0.066-0.041-0.114-0.107-0.164-0.166
		c0-0.057,0-0.116,0.002-0.175c0.068-0.12,0.194-0.199,0.247-0.325c0.083-0.439,0.044-0.891,0.057-1.333
		c0.044-0.341,0.046-0.69,0.002-1.031c-0.004-0.789-0.118-1.571-0.238-2.348c-0.022-0.124-0.057-0.247-0.149-0.338
		c-0.048,0.039-0.092,0.085-0.131,0.131c-0.181,0.692-0.116,1.409-0.131,2.115c-0.007,0.293,0.052,0.583,0.041,0.878
		c0,0.404-0.011,0.808,0.009,1.212c0.05,0.408,0.14,0.821,0.107,1.241c-0.031,0.079-0.057,0.16-0.079,0.242
		c-0.079,0.184-0.229,0.341-0.428,0.38c-0.207,0.02-0.421,0.004-0.614-0.081c-0.089-0.061-0.164-0.188-0.096-0.293
		c0.035-0.107,0.138-0.16,0.218-0.223c0.061-0.046,0.081-0.122,0.114-0.184c0.083-0.293,0.048-0.605,0.037-0.902
		c-0.05-0.312-0.028-0.634-0.02-0.952c-0.009-0.559,0.026-1.12-0.07-1.673c-0.081-0.714-0.238-1.42-0.4-2.119
		c-0.089-0.393-0.161-0.789-0.269-1.178c-0.002-0.017-0.007-0.052-0.009-0.07c-0.055-0.068-0.12-0.133-0.199-0.177
		c-0.085-0.035-0.168-0.072-0.256-0.105c-0.035-0.017-0.072-0.037-0.105-0.052c-0.122-0.05-0.249-0.109-0.345-0.205
		c-0.181-0.219-0.338-0.461-0.548-0.655c-0.109-0.109-0.183-0.242-0.258-0.376c-0.046-0.087-0.096-0.172-0.144-0.258
		c-0.033-0.074-0.066-0.146-0.094-0.223c-0.039-0.085-0.074-0.17-0.109-0.256c-0.026-0.061-0.05-0.124-0.072-0.183
		c-0.042-0.083-0.077-0.168-0.109-0.255c-0.011-0.022-0.028-0.057-0.039-0.079c-0.184-0.345-0.448-0.647-0.73-0.92
		c-0.122-0.177-0.297-0.315-0.424-0.492c-0.116-0.14-0.203-0.297-0.29-0.448c-0.042-0.085-0.079-0.17-0.111-0.258
		c-0.127-0.424-0.186-0.863-0.195-1.308c-0.022-0.144-0.037-0.289-0.022-0.437c0.072-0.496-0.004-1,0.061-1.496
		c0-0.199,0.026-0.404-0.079-0.581c-0.053-0.024-0.103-0.05-0.159-0.074c-0.297-0.05-0.601-0.111-0.876-0.251
		c-0.444-0.208-0.778-0.609-0.953-1.062c-0.035-0.1-0.055-0.24,0.063-0.291c0.463-0.103,0.95-0.068,1.4,0.063
		c0.059,0.028,0.122,0.053,0.183,0.079c0.111,0.061,0.221,0.136,0.328,0.208c0.061,0.009,0.125,0.033,0.186,0.009
		c0.144-0.055,0.299-0.127,0.387-0.262c-0.035-0.055-0.046-0.118-0.096-0.162c-0.208-0.194-0.454-0.334-0.693-0.489
		c-0.159-0.098-0.319-0.194-0.476-0.293c-0.315-0.199-0.642-0.417-0.819-0.76c-0.037-0.085-0.072-0.168-0.111-0.256
		c-0.092-0.295-0.179-0.594-0.199-0.907c-0.046-0.288,0.007-0.579,0.09-0.856c0.02-0.046,0.039-0.094,0.059-0.142
		c0.079-0.177,0.03-0.376,0.044-0.568c0.017-0.018,0.057-0.05,0.079-0.068c0.022,0.009,0.072,0.028,0.096,0.037
		c0.096,0.164,0.105,0.365,0.05,0.544c-0.039,0.212-0.136,0.411-0.179,0.623c-0.015,0.081,0.033,0.157,0.061,0.227
		c0.155-0.085,0.192-0.277,0.229-0.437c0.061-0.236,0.129-0.468,0.223-0.695c0.022-0.061,0.048-0.122,0.077-0.179
		c0.022-0.087,0.081-0.175,0.048-0.267c-0.077-0.301-0.142-0.612-0.077-0.917c0.02-0.151,0.05-0.321,0.186-0.408
		c0.02,0.011,0.059,0.03,0.079,0.039c0.011,0.019,0.031,0.052,0.044,0.072c0.041,0.312-0.064,0.618-0.037,0.931
		c0.046,0.074,0.068,0.197,0.17,0.21c0.09,0.037,0.173-0.013,0.253-0.044c0.323-0.232,0.559-0.559,0.791-0.876
		C370.8,225.801,370.913,225.613,371.079,225.463z"/>
	<circle fill="#352F31" cx="378.516" cy="170.83" r="43.302"/>
	<path fill="#FCE3DF" d="M379.278,224.091c21.496,0,38.92-17.358,38.92-38.784c0-21.415-17.424-38.793-38.92-38.793
		c-21.454,0-38.865,17.378-38.865,38.793C340.413,206.733,357.824,224.091,379.278,224.091z"/>
	<path fill="#FCE3DF" d="M378.489,217.242c21.498,0,38.92-17.358,38.92-38.784c0-21.415-17.422-38.793-38.92-38.793
		c-21.454,0-38.867,17.378-38.867,38.793C339.622,199.884,357.035,217.242,378.489,217.242z"/>
	<path fill="#352F31" d="M348.985,176.016c0.721-6.597,0.072-15.073,6.355-19.646c4.743,7.216,14.553,5.852,22.562,7.277
		c-2.045-3.417-4.078-6.693-4.839-10.72c4.181,0.085,8.548,7.257,12.33,9.568c4.491,2.744,9.199,3.602,13.806,6.13
		c-1.844-3.95-4.603-7.836-7.257-11.314c5.938,8.66,11.77,18.077,21.343,23.309c-0.651-4.769-2.967-9.822-2.846-15.047
		c1.855,3.491,4.212,7.565,8.367,8.421c-1.444-9.87-2.156-17.701-9.957-25.03c-6.082-5.717-18.411-9.758-26.42-11.982
		c-9.258-2.569-19.917-1.533-28.423,2.986c-5.348,2.847-12.622,9.278-13.979,15.447
		C338.687,161.515,343.613,172.735,348.985,176.016z"/>
	<pattern  id="SVGID_6_" xlink:href="#Unnamed_Pattern_2" patternTransform="matrix(0.8309 0 0 0.8309 -1343.9517 -1422.9207)">
	</pattern>
	<path fill="url(#SVGID_6_)" d="M338.685,183.972"/>
	<path fill="#F27261" d="M319.671,179.965c0,7.032,4.972,12.902,11.591,14.293v-28.587
		C324.643,167.061,319.671,172.931,319.671,179.965z"/>
	<path fill="#889B3B" d="M339.078,162.74h-2.003c-1.606,0-2.906,1.3-2.906,2.908v0.024v28.587v0.024c0,1.608,1.3,2.908,2.906,2.908
		h2.003c1.605,0,2.908-1.3,2.908-2.908v-0.533v-27.569v-0.533C341.986,164.04,340.684,162.74,339.078,162.74z"/>
	<path fill="#F27261" d="M436.452,179.965c0-7.034-4.97-12.904-11.591-14.294v28.587
		C431.482,192.867,436.452,186.997,436.452,179.965z"/>
	<path fill="#889B3B" d="M417.046,197.191h2.001c1.606,0,2.905-1.3,2.905-2.908v-0.024v-28.587v-0.024
		c0-1.608-1.3-2.908-2.905-2.908h-2.001c-1.606,0-2.908,1.3-2.908,2.908v0.533v27.569v0.533
		C414.139,195.891,415.441,197.191,417.046,197.191z"/>
	<path fill="#889B3B" d="M341.861,173.761c0.907-20.733,16.775-37.299,36.152-37.299c19.375,0,35.241,16.565,36.15,37.299h5.813
		c-0.924-23.938-19.388-43.114-41.963-43.114c-22.577,0-41.043,19.176-41.965,43.114H341.861z"/>
</g>
</svg>
