<?xml version="1.0" encoding="utf-8"?>
<!-- Generator: Adobe Illustrator 17.1.0, SVG Export Plug-In . SVG Version: 6.00 Build 0)  -->
<!DOCTYPE svg PUBLIC "-//W3C//DTD SVG 1.1//EN" "http://www.w3.org/Graphics/SVG/1.1/DTD/svg11.dtd" [
	<!ENTITY ns_flows "http://ns.adobe.com/Flows/1.0/">
	<!ENTITY ns_extend "http://ns.adobe.com/Extensibility/1.0/">
	<!ENTITY ns_ai "http://ns.adobe.com/AdobeIllustrator/10.0/">
	<!ENTITY ns_graphs "http://ns.adobe.com/Graphs/1.0/">
]>
<svg version="1.1" id="Layer_1" xmlns:x="&ns_extend;" xmlns:i="&ns_ai;" xmlns:graph="&ns_graphs;"
	 xmlns="http://www.w3.org/2000/svg" xmlns:xlink="http://www.w3.org/1999/xlink" xmlns:a="http://ns.adobe.com/AdobeSVGViewerExtensions/3.0/"
	 x="0px" y="0px" viewBox="0 0 600 400" enable-background="new 0 0 600 400" xml:space="preserve">
<g>
	<g>
		<path fill="#61C6C7" d="M455.705,43.889v182.308h-111.41V43.889L455.705,43.889 M465.833,0H334.167
			c-18.646,0-33.76,15.114-33.76,33.76v202.564c0,18.646,15.114,33.76,33.76,33.76h131.667c18.646,0,33.76-15.114,33.76-33.76V33.76
			C499.594,15.114,484.479,0,465.833,0L465.833,0z"/>
	</g>
	<path fill="#D5B129" d="M562.474,400H237.526c-17.947,0-32.494-14.547-32.494-32.494V169.29c0-17.947,14.547-32.494,32.494-32.494
		h324.946c17.947,0,32.494,14.547,32.494,32.494v198.216C594.968,385.452,580.421,400,562.474,400z"/>
	<polygon fill="#98802F" points="594.968,363.15 594.968,216.068 205.032,216.068 	"/>
	<path fill="#98802F" d="M587.946,368.16c2.411-0.449,4.75-0.587,7.022-0.506V294.45H205.032l248.908,93.885
		C499.034,384.54,543.476,376.445,587.946,368.16z"/>
	<rect x="197.436" y="168.804" fill="#FFDA24" width="405.128" height="47.265"/>
	<rect x="197.436" y="246.452" fill="#FFDA24" width="405.128" height="47.265"/>
	<rect x="197.436" y="320.727" fill="#FFDA24" width="405.128" height="47.265"/>
	<path fill="#98802F" d="M205.377,370.544L288.489,400h274.154c17.421,0,31.592-14.297,32.325-32.169H205.377
		C205.377,367.831,205.377,370.533,205.377,370.544z"/>
	<circle fill="none" stroke="#FFDA24" stroke-width="17.3671" stroke-miterlimit="10" cx="400" cy="263.333" r="82.714"/>
	<circle fill="#D5B129" cx="400" cy="263.333" r="82.714"/>
	<circle fill="none" stroke="#FFDA24" stroke-width="17.3671" stroke-miterlimit="10" cx="400" cy="263.333" r="82.714"/>
	<g>
		<circle fill="#98802F" cx="400" cy="246.031" r="16.458"/>
		<rect x="393.248" y="246.452" fill="#98802F" width="13.504" height="47.265"/>
	</g>
</g>
</svg>
