<?xml version="1.0" encoding="utf-8"?>
<!-- Generator: Adobe Illustrator 17.1.0, SVG Export Plug-In . SVG Version: 6.00 Build 0)  -->
<!DOCTYPE svg PUBLIC "-//W3C//DTD SVG 1.1//EN" "http://www.w3.org/Graphics/SVG/1.1/DTD/svg11.dtd" [
	<!ENTITY ns_flows "http://ns.adobe.com/Flows/1.0/">
	<!ENTITY ns_extend "http://ns.adobe.com/Extensibility/1.0/">
	<!ENTITY ns_ai "http://ns.adobe.com/AdobeIllustrator/10.0/">
	<!ENTITY ns_graphs "http://ns.adobe.com/Graphs/1.0/">
]>
<svg version="1.1" id="Layer_1" xmlns:x="&ns_extend;" xmlns:i="&ns_ai;" xmlns:graph="&ns_graphs;"
	 xmlns="http://www.w3.org/2000/svg" xmlns:xlink="http://www.w3.org/1999/xlink" xmlns:a="http://ns.adobe.com/AdobeSVGViewerExtensions/3.0/"
	 x="0px" y="0px" viewBox="0 0 308.678 194.285" enable-background="new 0 0 308.678 194.285" xml:space="preserve">
<g>
	<g>
		<defs>
			<rect id="SVGID_1_" x="0" y="0" width="308.678" height="194.285"/>
		</defs>
		<clipPath id="SVGID_2_">
			<use xlink:href="#SVGID_1_"  overflow="visible"/>
		</clipPath>
		<rect x="0" y="0" clip-path="url(#SVGID_2_)" fill="#D9E377" width="308.678" height="194.285"/>
		<g clip-path="url(#SVGID_2_)">
			<ellipse fill="#889B3B" cx="317.414" cy="68.999" rx="18.816" ry="18.303"/>
			<ellipse fill="#EE4270" cx="279.782" cy="68.999" rx="18.816" ry="18.303"/>
			<ellipse fill="#A163A7" cx="242.15" cy="68.999" rx="18.816" ry="18.303"/>
			<ellipse fill="#F27261" cx="204.517" cy="68.999" rx="18.816" ry="18.303"/>
			<ellipse fill="#E54D2E" cx="166.885" cy="68.999" rx="18.816" ry="18.303"/>
			<ellipse fill="#01A59C" cx="129.253" cy="68.999" rx="18.816" ry="18.303"/>
			<ellipse fill="#0C6667" cx="91.621" cy="68.999" rx="18.816" ry="18.303"/>
			<ellipse fill="#661028" cx="53.989" cy="68.999" rx="18.816" ry="18.303"/>
			<ellipse fill="#D5B129" cx="16.356" cy="68.999" rx="18.816" ry="18.303"/>
		</g>
		<g clip-path="url(#SVGID_2_)">
			<ellipse fill="#991C3B" cx="317.414" cy="105.605" rx="18.816" ry="18.303"/>
			<ellipse fill="#A163A7" cx="279.782" cy="105.605" rx="18.816" ry="18.303"/>
			<ellipse fill="#0C6667" cx="242.15" cy="105.605" rx="18.816" ry="18.303"/>
			<ellipse fill="#01A59C" cx="204.517" cy="105.605" rx="18.816" ry="18.303"/>
			<ellipse fill="#D0D028" cx="166.885" cy="105.605" rx="18.816" ry="18.303"/>
			<ellipse fill="#CB1F4C" cx="129.253" cy="105.605" rx="18.816" ry="18.303"/>
			<ellipse fill="#41164C" cx="91.621" cy="105.605" rx="18.816" ry="18.303"/>
			<ellipse fill="#0C6667" cx="53.989" cy="105.605" rx="18.816" ry="18.303"/>
			<ellipse fill="#6CC5AB" cx="16.356" cy="105.605" rx="18.816" ry="18.303"/>
		</g>
		<g clip-path="url(#SVGID_2_)">
			<ellipse fill="#991C3B" cx="-2.46" cy="87.302" rx="18.816" ry="18.303"/>
			<ellipse fill="#A163A7" cx="35.173" cy="87.302" rx="18.816" ry="18.303"/>
			<ellipse fill="#0C6667" cx="72.805" cy="87.302" rx="18.816" ry="18.303"/>
			<ellipse fill="#01A59C" cx="110.437" cy="87.302" rx="18.816" ry="18.303"/>
			<ellipse fill="#D0D028" cx="148.069" cy="87.302" rx="18.816" ry="18.303"/>
			<ellipse fill="#CB1F4C" cx="185.701" cy="87.302" rx="18.816" ry="18.303"/>
			<ellipse fill="#41164C" cx="223.333" cy="87.302" rx="18.816" ry="18.303"/>
			<ellipse fill="#0C6667" cx="260.966" cy="87.302" rx="18.816" ry="18.303"/>
			<ellipse fill="#6CC5AB" cx="298.598" cy="87.302" rx="18.816" ry="18.303"/>
		</g>
		<g clip-path="url(#SVGID_2_)">
			<ellipse fill="#A163A7" cx="-2.46" cy="123.908" rx="18.816" ry="18.303"/>
			<ellipse fill="#41164C" cx="35.173" cy="123.908" rx="18.816" ry="18.303"/>
			<ellipse fill="#FFDA24" cx="72.805" cy="123.908" rx="18.816" ry="18.303"/>
			<ellipse fill="#991C3B" cx="110.437" cy="123.908" rx="18.816" ry="18.303"/>
			<ellipse fill="#6CC5AB" cx="148.069" cy="123.908" rx="18.816" ry="18.303"/>
			<ellipse fill="#F27261" cx="185.701" cy="123.908" rx="18.816" ry="18.303"/>
			<ellipse fill="#889B3B" cx="223.333" cy="123.908" rx="18.816" ry="18.303"/>
			<ellipse fill="#01A59C" cx="260.966" cy="123.908" rx="18.816" ry="18.303"/>
			<ellipse fill="#D9E377" cx="298.598" cy="123.908" rx="18.816" ry="18.303"/>
		</g>
		<g clip-path="url(#SVGID_2_)">
			<ellipse fill="#889B3B" cx="308.208" cy="0" rx="17.733" ry="17.25"/>
			<ellipse fill="#EE4270" cx="272.742" cy="0" rx="17.733" ry="17.25"/>
			<ellipse fill="#A163A7" cx="237.276" cy="0" rx="17.733" ry="17.25"/>
			<ellipse fill="#F27261" cx="201.81" cy="0" rx="17.733" ry="17.25"/>
			<ellipse fill="#E54D2E" cx="166.344" cy="0" rx="17.733" ry="17.25"/>
			<ellipse fill="#01A59C" cx="130.878" cy="0" rx="17.733" ry="17.25"/>
			<ellipse fill="#0C6667" cx="95.412" cy="0" rx="17.733" ry="17.25"/>
			<ellipse fill="#661028" cx="59.946" cy="0" rx="17.733" ry="17.25"/>
			<ellipse fill="#D5B129" cx="24.48" cy="0" rx="17.733" ry="17.25"/>
		</g>
		<g clip-path="url(#SVGID_2_)">
			<ellipse fill="#991C3B" cx="317.414" cy="32.392" rx="18.816" ry="18.303"/>
			<ellipse fill="#A163A7" cx="279.782" cy="32.392" rx="18.816" ry="18.303"/>
			<ellipse fill="#0C6667" cx="242.15" cy="32.392" rx="18.816" ry="18.303"/>
			<ellipse fill="#01A59C" cx="204.517" cy="32.392" rx="18.816" ry="18.303"/>
			<ellipse fill="#D0D028" cx="166.885" cy="32.392" rx="18.816" ry="18.303"/>
			<ellipse fill="#CB1F4C" cx="129.253" cy="32.392" rx="18.816" ry="18.303"/>
			<ellipse fill="#41164C" cx="91.621" cy="32.392" rx="18.816" ry="18.303"/>
			<ellipse fill="#0C6667" cx="53.989" cy="32.392" rx="18.816" ry="18.303"/>
			<ellipse fill="#6CC5AB" cx="16.356" cy="32.392" rx="18.816" ry="18.303"/>
		</g>
		<g clip-path="url(#SVGID_2_)">
			<ellipse fill="#991C3B" cx="-2.46" cy="14.089" rx="18.816" ry="18.303"/>
			<ellipse fill="#A163A7" cx="35.173" cy="14.089" rx="18.816" ry="18.303"/>
			<ellipse fill="#0C6667" cx="72.805" cy="14.089" rx="18.816" ry="18.303"/>
			<ellipse fill="#722D80" cx="110.437" cy="14.089" rx="18.816" ry="18.303"/>
			<ellipse fill="#F27261" cx="148.069" cy="14.089" rx="18.816" ry="18.303"/>
			<ellipse fill="#CB1F4C" cx="185.701" cy="14.089" rx="18.816" ry="18.303"/>
			<ellipse fill="#41164C" cx="223.333" cy="14.089" rx="18.816" ry="18.303"/>
			<ellipse fill="#0C6667" cx="260.966" cy="14.089" rx="18.816" ry="18.303"/>
			<ellipse fill="#6CC5AB" cx="298.598" cy="14.089" rx="18.816" ry="18.303"/>
		</g>
		<g clip-path="url(#SVGID_2_)">
			<ellipse fill="#A163A7" cx="-2.46" cy="50.695" rx="18.816" ry="18.303"/>
			<ellipse fill="#41164C" cx="35.173" cy="50.695" rx="18.816" ry="18.303"/>
			<ellipse fill="#FFDA24" cx="72.805" cy="50.695" rx="18.816" ry="18.303"/>
			<ellipse fill="#991C3B" cx="110.437" cy="50.695" rx="18.816" ry="18.303"/>
			<ellipse fill="#6CC5AB" cx="148.069" cy="50.695" rx="18.816" ry="18.303"/>
			<ellipse fill="#F27261" cx="185.701" cy="50.695" rx="18.816" ry="18.303"/>
			<ellipse fill="#889B3B" cx="223.333" cy="50.695" rx="18.816" ry="18.303"/>
			<ellipse fill="#01A59C" cx="260.966" cy="50.695" rx="18.816" ry="18.303"/>
			<ellipse fill="#D9E377" cx="298.598" cy="50.695" rx="18.816" ry="18.303"/>
		</g>
		<g clip-path="url(#SVGID_2_)">
			<rect x="0" y="120.747" fill="#A163A7" width="308.678" height="73.538"/>
			<rect x="0" y="120.747" fill="#F0EBE1" width="154.339" height="73.538"/>
			<g>
				<rect x="8.776" y="129.372" fill="#352F31" width="43.406" height="10.895"/>
				<rect x="8.776" y="144.504" fill="#352F31" width="50.898" height="10.895"/>
				<rect x="8.776" y="159.635" fill="#352F31" width="101.797" height="10.895"/>
				<rect x="8.776" y="174.766" fill="#352F31" width="130.734" height="10.895"/>
			</g>
		</g>
	</g>
	<g>
		<path fill="#E5E3E3" d="M11.417,27.958h1.917l0.98-12.007h-1.961v-1.678h4.358l3.944,9.37c0.24,0.632,0.349,1.111,0.349,1.111
			h0.043c0,0,0.109-0.479,0.349-1.111l3.944-9.37h4.358v1.678h-1.961l0.98,12.007h1.917v1.699h-5.927v-1.699h1.852l-0.697-9.195
			c-0.021-0.479,0.065-1.264,0.065-1.264h-0.065c0,0-0.174,0.74-0.349,1.176l-3.53,8.084h-1.917l-3.53-8.084
			c-0.174-0.436-0.349-1.176-0.349-1.176h-0.065c0,0,0.087,0.784,0.065,1.264l-0.697,9.195h1.852v1.699h-5.927V27.958z"/>
		<path fill="#E5E3E3" d="M33.358,20.265h-1.852v-1.634h3.966v6.624c0,1.525,0.305,2.745,2.07,2.745
			c2.201,0,3.574-2.113,3.574-4.292v-3.443h-1.852v-1.634h3.965v8.934c0,0.305,0.174,0.479,0.479,0.479h1.155v1.612h-2.288
			c-0.958,0-1.395-0.436-1.395-1.221v-0.479c0-0.371,0.044-0.654,0.044-0.654H41.18c-0.218,0.589-1.459,2.615-4.205,2.615
			c-2.375,0-3.617-1.308-3.617-4.228V20.265z"/>
		<path fill="#E5E3E3" d="M46.431,26.105h1.852v0.719c0,0.938,1.308,1.373,2.528,1.373c1.242,0,2.223-0.501,2.223-1.416
			c0-1.111-1.221-1.46-2.746-2.005c-1.634-0.61-3.443-1.351-3.443-3.355c0-2.179,2.157-3.051,4.075-3.051
			c1.547,0,3.813,0.61,3.813,2.223v1.329h-1.852v-0.719c0-0.676-0.872-1.134-1.939-1.134c-1.046,0-1.961,0.437-1.961,1.33
			c0,1.046,1.22,1.481,2.549,1.938c1.7,0.567,3.639,1.286,3.639,3.334c0,2.092-1.917,3.247-4.423,3.247
			c-2.005,0-4.314-0.894-4.314-2.637V26.105z"/>
		<path fill="#E5E3E3" d="M62.446,18.37c3.138,0,4.772,2.31,4.772,5.164c0,0.283-0.065,0.807-0.065,0.807H59.09
			c0.131,2.44,1.852,3.748,3.813,3.748c1.917,0,3.29-1.242,3.29-1.242l0.872,1.547c0,0-1.656,1.525-4.292,1.525
			c-3.465,0-5.84-2.506-5.84-5.774C56.933,20.637,59.308,18.37,62.446,18.37z M65.039,22.989c-0.065-1.938-1.242-2.941-2.637-2.941
			c-1.612,0-2.919,1.09-3.225,2.941H65.039z"/>
		<path fill="#E5E3E3" d="M70.42,20.265h-1.852v-1.634h3.966v6.624c0,1.525,0.305,2.745,2.07,2.745c2.201,0,3.574-2.113,3.574-4.292
			v-3.443h-1.852v-1.634h3.965v8.934c0,0.305,0.174,0.479,0.479,0.479h1.155v1.612h-2.288c-0.959,0-1.395-0.436-1.395-1.221v-0.479
			c0-0.371,0.043-0.654,0.043-0.654h-0.043c-0.218,0.589-1.46,2.615-4.206,2.615c-2.375,0-3.617-1.308-3.617-4.228V20.265z"/>
		<path fill="#E5E3E3" d="M83.668,28.023h1.722v-7.3c0-0.305-0.174-0.458-0.479-0.458h-1.351v-1.634h2.484
			c0.937,0,1.395,0.414,1.395,1.22v0.567c0,0.348-0.065,0.632-0.065,0.632h0.043c0.544-1.308,2.135-2.681,3.922-2.681
			c1.765,0,2.854,0.807,3.225,2.593h0.043c0.61-1.372,2.135-2.593,3.944-2.593c2.44,0,3.595,1.416,3.595,4.228v5.426h1.743v1.634
			h-3.856v-6.603c0-1.547-0.284-2.767-1.939-2.767c-2.07,0-3.247,2.113-3.247,4.292v3.443h1.721v1.634h-3.835v-6.603
			c0-1.438-0.218-2.767-1.917-2.767c-2.092,0-3.312,2.223-3.312,4.379v3.356h1.743v1.634h-5.578V28.023z"/>
		<path fill="#D9E377" d="M105.108,28.023h1.743V15.908H105v-1.635h3.944v8.585h1.612l2.201-2.593h-1.438v-1.634h5.012v1.634h-1.46
			l-2.724,3.182v0.044c0.022,0,0.371,0.152,0.806,0.893l1.874,3.203c0.218,0.349,0.392,0.437,0.958,0.437h0.697v1.634h-1.656
			c-1.002,0-1.329-0.174-1.809-1.024l-2.179-3.726c-0.24-0.393-0.545-0.436-1.024-0.436h-0.872v3.552h1.482v1.634h-5.317V28.023z"/>
		<path fill="#D9E377" d="M124.348,22.881h0.697v-0.414c0-1.743-1.002-2.354-2.354-2.354c-1.743,0-3.159,1.067-3.159,1.067
			l-0.85-1.503c0,0,1.613-1.308,4.184-1.308c2.811,0,4.292,1.46,4.292,4.249v4.925c0,0.326,0.175,0.479,0.479,0.479h1.111v1.634
			h-2.201c-0.98,0-1.373-0.479-1.373-1.198v-0.152c0-0.437,0.087-0.72,0.087-0.72h-0.043c0,0-0.959,2.332-3.639,2.332
			c-1.83,0-3.66-1.068-3.66-3.334C117.92,23.12,122.518,22.881,124.348,22.881z M122.039,28.284c1.874,0,3.028-1.917,3.028-3.573
			v-0.458h-0.544c-1.002,0-4.467,0.044-4.467,2.157C120.056,27.391,120.774,28.284,122.039,28.284z"/>
		<path fill="#D9E377" d="M136.441,22.881h0.697v-0.414c0-1.743-1.002-2.354-2.354-2.354c-1.743,0-3.159,1.067-3.159,1.067
			l-0.85-1.503c0,0,1.613-1.308,4.184-1.308c2.811,0,4.292,1.46,4.292,4.249v4.925c0,0.326,0.175,0.479,0.479,0.479h1.111v1.634
			h-2.201c-0.98,0-1.373-0.479-1.373-1.198v-0.152c0-0.437,0.087-0.72,0.087-0.72h-0.043c0,0-0.959,2.332-3.639,2.332
			c-1.83,0-3.66-1.068-3.66-3.334C130.013,23.12,134.61,22.881,136.441,22.881z M134.131,28.284c1.874,0,3.028-1.917,3.028-3.573
			v-0.458h-0.544c-1.002,0-4.467,0.044-4.467,2.157C132.148,27.391,132.867,28.284,134.131,28.284z"/>
		<path fill="#D9E377" d="M142.476,28.023h1.656v-7.278c0-0.326-0.175-0.479-0.479-0.479h-1.373v-1.634h2.484
			c0.958,0,1.416,0.393,1.416,1.285v0.697c0,0.437-0.043,0.763-0.043,0.763h0.043c0.501-1.612,1.787-2.876,3.486-2.876
			c0.283,0,0.545,0.044,0.545,0.044v2.092c0,0-0.262-0.065-0.61-0.065c-2.353,0-3.355,2.375-3.355,4.532v2.92h1.634v1.634h-5.404
			V28.023z"/>
		<path fill="#D9E377" d="M152.848,20.265h-1.852v-1.634h1.896v-3.029h2.07v3.029h2.636v1.634h-2.636v5.164
			c0,2.245,1.526,2.528,2.353,2.528c0.306,0,0.502-0.022,0.502-0.022v1.766c0,0-0.306,0.043-0.763,0.043
			c-1.395,0-4.206-0.436-4.206-4.118V20.265z"/>
	</g>
	<g>
		<path fill-rule="evenodd" clip-rule="evenodd" fill="#FFFFFF" d="M262.325,79.104l4.36-2.505v-5.222l3.432,3.25l7.906-4.514
			v-5.227l3.578,3.217l7.675-4.556V31.509l-26.541-15.034l-27.389,15.034v32.038l7.675,4.556l3.575-3.217v5.227l7.912,4.514
			l3.424-3.25v5.222L262.325,79.104L262.325,79.104z M286.51,61.76l-2.076,1.193V44.35l-9.646,5.789v18.316l-1.71,1.068V50.967
			l-9.553,5.581v18.606l-1.192,0.738l-1.19-0.738V56.547l-9.554-5.581v18.556l-1.709-1.068V50.139l-9.647-5.789v18.604l-2.08-1.193
			l-0.003-28.474l24.629-13.432l23.737,13.432L286.51,61.76L286.51,61.76z"/>
		<polygon fill-rule="evenodd" clip-rule="evenodd" fill="#979496" points="243.406,63.897 246.702,60.714 246.702,52.23 
			243.406,50.294 243.406,63.897 		"/>
		<polygon fill-rule="evenodd" clip-rule="evenodd" fill="#979496" points="254.8,70.425 257.98,67.294 257.98,58.81 254.8,56.818 
			254.8,70.425 		"/>
		<polygon fill-rule="evenodd" clip-rule="evenodd" fill="#979496" points="281.441,63.897 278.141,60.714 278.141,52.23 
			281.441,50.294 281.441,63.897 		"/>
		<polygon fill-rule="evenodd" clip-rule="evenodd" fill="#979496" points="270.016,70.425 266.839,67.294 266.839,58.81 
			270.016,56.818 270.016,70.425 		"/>
	</g>
</g>
</svg>
