<?xml version="1.0" encoding="utf-8"?>
<!-- Generator: Adobe Illustrator 17.1.0, SVG Export Plug-In . SVG Version: 6.00 Build 0)  -->
<!DOCTYPE svg PUBLIC "-//W3C//DTD SVG 1.1//EN" "http://www.w3.org/Graphics/SVG/1.1/DTD/svg11.dtd" [
	<!ENTITY ns_flows "http://ns.adobe.com/Flows/1.0/">
	<!ENTITY ns_extend "http://ns.adobe.com/Extensibility/1.0/">
	<!ENTITY ns_ai "http://ns.adobe.com/AdobeIllustrator/10.0/">
	<!ENTITY ns_graphs "http://ns.adobe.com/Graphs/1.0/">
]>
<svg version="1.1" id="Layer_1" xmlns:x="&ns_extend;" xmlns:i="&ns_ai;" xmlns:graph="&ns_graphs;"
	 xmlns="http://www.w3.org/2000/svg" xmlns:xlink="http://www.w3.org/1999/xlink" xmlns:a="http://ns.adobe.com/AdobeSVGViewerExtensions/3.0/"
	 x="0px" y="0px" viewBox="0 0 460 278" enable-background="new 0 0 460 278" xml:space="preserve">
<g>
	<g>
		<path fill="#D0D028" d="M116.344,237.396H13.048V135.885c0-3.165,2.566-5.731,5.731-5.731h91.835c3.165,0,5.731,2.566,5.731,5.731
			V237.396z"/>
		<g>
			<path fill="#352F31" d="M27.215,261.068h-5.021c-2.674,0-4.842-2.168-4.842-4.842v-9.505c0-2.674,2.168-4.842,4.842-4.842h5.021
				c2.674,0,4.842,2.168,4.842,4.842v9.505C32.057,258.9,29.889,261.068,27.215,261.068z"/>
			<path fill="#352F31" d="M107.198,261.068h-5.021c-2.674,0-4.842-2.168-4.842-4.842v-9.505c0-2.674,2.168-4.842,4.842-4.842h5.021
				c2.674,0,4.842,2.168,4.842,4.842v9.505C112.04,258.9,109.872,261.068,107.198,261.068z"/>
		</g>
		<rect x="13.048" y="174.45" fill="#0C6667" width="103.297" height="62.946"/>
		<path fill="#333333" d="M110.984,210.137H18.408c-2.96,0-5.36-2.4-5.36-5.36v-57.785c0-2.96,2.4-5.36,5.36-5.36h92.576
			c2.96,0,5.36,2.4,5.36,5.36v57.785C116.344,207.737,113.944,210.137,110.984,210.137z"/>
		<rect x="12.151" y="234.885" fill="#034C4A" width="105.09" height="11.477"/>
		<rect x="51.066" y="236.858" fill="#D5B129" width="26.9" height="7.532"/>
		<path fill="#352F31" d="M13.263,150.239h-2.51h-3.58c-3.569,0-6.463,2.894-6.463,6.463v14.153c0,4.659,3.777,8.436,8.436,8.436
			h1.607v-21.52h2.51V150.239z"/>
		<path fill="#352F31" d="M116.129,150.239h2.51h3.58c3.569,0,6.463,2.894,6.463,6.463v14.153c0,4.659-3.777,8.436-8.436,8.436
			h-1.607v-21.52h-2.51V150.239z"/>
		<path fill="#352F31" d="M111.143,153.109H18.248v-8.573c0-5.764,4.673-10.436,10.436-10.436h72.022
			c5.764,0,10.436,4.673,10.436,10.436V153.109z"/>
		<g>
			<defs>
				<rect id="SVGID_1_" x="18.248" y="153.109" width="92.895" height="52.366"/>
			</defs>
			<clipPath id="SVGID_2_">
				<use xlink:href="#SVGID_1_"  overflow="visible"/>
			</clipPath>
			<g clip-path="url(#SVGID_2_)">
				<rect x="18.248" y="153.109" fill="#979496" width="92.895" height="52.366"/>
				<g>
					<rect x="36.54" y="153.109" fill="#666163" width="2.869" height="52.007"/>
					<rect x="89.982" y="153.109" fill="#666163" width="2.869" height="52.007"/>
				</g>
				<rect x="18.248" y="200.094" fill="#666163" width="92.895" height="5.38"/>
				<rect x="30.264" y="188.976" fill="#666163" width="22.596" height="13.809"/>
				<rect x="61.468" y="193.997" fill="#666163" width="19.368" height="8.787"/>
				<path fill="#666163" d="M111.143,192.562h-17.88c-6.864,0-12.428,5.564-12.428,12.428v0.126h30.308V192.562z"/>
				<rect x="37.616" y="174.45" fill="#666163" width="3.587" height="9.684"/>
				<rect x="88.189" y="174.45" fill="#666163" width="3.587" height="9.684"/>
				<path fill="#666163" d="M109.164,158.417H48.311c-3.252,0-5.889-2.636-5.889-5.889v-1.494c0-3.252,2.636-5.889,5.889-5.889
					h60.853c3.252,0,5.889,2.636,5.889,5.889v1.494C115.053,155.781,112.417,158.417,109.164,158.417z"/>
			</g>
		</g>
		<circle fill="#E5E3E3" cx="24.704" cy="240.624" r="2.018"/>
		<circle fill="#E5E3E3" cx="104.687" cy="240.624" r="2.018"/>
		<g>
			<circle fill="#61C6C7" cx="111.143" cy="230.043" r="2.018"/>
			<circle fill="#E5E3E3" cx="104.956" cy="230.043" r="2.018"/>
			<circle fill="#E5E3E3" cx="99.652" cy="230.985" r="1.135"/>
		</g>
		<g>
			<circle fill="#61C6C7" cx="18.265" cy="230.043" r="2.018"/>
			<circle fill="#E5E3E3" cx="24.452" cy="230.043" r="2.018"/>
			<circle fill="#E5E3E3" cx="29.756" cy="230.985" r="1.135"/>
		</g>
	</g>
	<g>
		
			<line fill="none" stroke="#CCC9CA" stroke-width="1.9681" stroke-miterlimit="10" x1="204.255" y1="78.864" x2="204.255" y2="89.086"/>
		<g>
			<path fill="#CCC9CA" d="M298.606,136.068v31.908H178.264v-31.908H298.606 M300.574,134.099H176.295v35.844h124.279V134.099
				L300.574,134.099z"/>
		</g>
		<g>
			<g>
				<polygon fill="#979496" points="209.525,136.897 194.354,103.257 282.516,103.257 267.345,136.897 				"/>
				<path fill="#E5E3E3" d="M277.52,106.485l-12.26,27.184h-53.65l-12.26-27.184H277.52 M287.513,100.029h-98.157l18.083,40.096
					h61.991L287.513,100.029L287.513,100.029z"/>
			</g>
			<g>
				<path fill="#E5E3E3" d="M277.52,106.485l-12.26,27.184h-53.65l-12.26-27.184H277.52 M287.513,100.029h-98.157l18.083,40.096
					h61.991L287.513,100.029L287.513,100.029z"/>
			</g>
			<g>
				<polygon fill="#666163" points="222.653,140.125 208.307,140.125 201.851,120.077 222.653,120.077 				"/>
				<path fill="#666163" d="M258.819,137.327h-31.862v-12.721c0-5.256,4.261-9.517,9.517-9.517h12.828
					c5.256,0,9.517,4.261,9.517,9.517V137.327z"/>
				<polygon fill="#666163" points="270.715,134.099 264.259,134.099 264.259,120.077 275.019,120.077 				"/>
			</g>
			<g>
				<path fill="#E5E3E3" d="M277.52,106.485l-12.26,27.184h-53.65l-12.26-27.184H277.52 M287.513,100.029h-98.157l18.083,40.096
					h61.991L287.513,100.029L287.513,100.029z"/>
			</g>
		</g>
		<rect x="171.722" y="150.239" fill="#006694" width="133.425" height="10.356"/>
		<polygon fill="#006694" points="300.843,251.474 176.026,251.474 171.722,169.944 305.147,169.944 		"/>
		<rect x="176.295" y="169.944" fill="#E5E3E3" width="124.279" height="35.979"/>
		<g>
			<rect x="199.131" y="175.884" fill="#979496" width="35.867" height="34.824"/>
			<rect x="181.245" y="175.884" fill="#979496" width="13.271" height="34.824"/>
			<rect x="282.354" y="175.884" fill="#979496" width="13.271" height="34.824"/>
			<rect x="241.872" y="175.884" fill="#979496" width="35.867" height="34.824"/>
		</g>
		<polygon fill="#007DAD" points="284.344,251.474 275.019,251.474 279.323,205.474 288.648,205.474 		"/>
		<polygon fill="#006694" points="300.843,251.474 284.344,251.474 288.648,205.474 305.147,205.474 		"/>
		<polygon fill="#006694" points="192.525,251.474 176.026,251.474 171.722,205.474 188.221,205.474 		"/>
		<polygon fill="#007DAD" points="201.851,251.474 192.525,251.474 188.221,205.474 197.547,205.474 		"/>
		<rect x="197.547" y="195.449" fill="#191617" width="81.776" height="8.591"/>
		<rect x="171.722" y="159.587" fill="#007DAD" width="133.425" height="10.356"/>
		<rect x="207.365" y="150.239" fill="#007DAD" width="62.139" height="10.356"/>
		<rect x="171.722" y="140.34" fill="#CCC9CA" width="133.425" height="10.356"/>
		<rect x="207.365" y="138.063" fill="#E5E3E3" width="62.139" height="12.419"/>
		<rect x="197.547" y="201.888" fill="#352F31" width="81.776" height="49.586"/>
		<rect x="171.722" y="251.474" fill="#352F31" width="133.425" height="9.594"/>
		<polygon fill="#006694" points="295.211,100.029 278.121,85.492 198.749,85.492 181.659,100.029 		"/>
		<polygon fill="#007DAD" points="272.615,100.029 255.525,85.492 221.345,85.492 204.255,100.029 		"/>
		<polygon fill="#007DAD" points="239.522,31.902 237.348,31.902 237.03,41.793 235.625,85.492 238.435,85.492 241.245,85.492 
			239.84,41.793 		"/>
		<polyline fill="none" stroke="#CCC9CA" stroke-width="1.9681" stroke-miterlimit="10" points="200.137,60.034 200.137,78.864 
			208.372,78.864 208.372,46.584 		"/>
		<path fill="#CCC9CA" d="M264.618,62.724h-52.366v-0.093c0-5.099,4.133-9.232,9.232-9.232h33.901c5.099,0,9.232,4.133,9.232,9.232
			V62.724z"/>
		<path fill="#E5E3E3" d="M264.618,62.724h-27.961v-9.325h18.729c5.099,0,9.232,4.133,9.232,9.232V62.724z"/>
		
			<line fill="none" stroke="#007DAD" stroke-width="2.152" stroke-miterlimit="10" x1="222.653" y1="39.59" x2="254.575" y2="39.59"/>
		<line fill="none" stroke="#E5E3E3" stroke-width="2.152" stroke-miterlimit="10" x1="238.435" y1="31.902" x2="238.435" y2="10"/>
	</g>
	<g>
		<rect x="388.326" y="115.449" fill="#352F31" width="32.129" height="5.147"/>
		<rect x="402.579" y="91.514" fill="#352F31" width="3.623" height="29.082"/>
		<g>
			<path fill="#352F31" d="M360.741,149.791h-2.51h-3.58c-3.569,0-6.463,2.894-6.463,6.463v14.153c0,4.659,3.777,8.436,8.436,8.436
				h1.607v-21.52h2.51V149.791z"/>
			<path fill="#352F31" d="M447.18,149.791h2.51h3.58c3.569,0,6.463,2.894,6.463,6.463v14.153c0,4.659-3.777,8.436-8.436,8.436
				h-1.607v-21.52h-2.51V149.791z"/>
		</g>
		<path fill="#352F31" d="M434.945,256.226h-61.969c-2.893,0-5.237-2.345-5.237-5.237v-0.106c0-2.893,2.345-5.237,5.237-5.237
			h61.969c2.893,0,5.237,2.345,5.237,5.237v0.106C440.182,253.881,437.838,256.226,434.945,256.226z"/>
		<path fill="#E5E3E3" d="M450.049,247.797h-92.178l3.835-120.513c0.154-4.847,4.128-8.697,8.978-8.697h66.551
			c4.85,0,8.824,3.85,8.978,8.697L450.049,247.797z"/>
		<rect x="357.584" y="239.907" fill="#A163A7" width="92.752" height="11.477"/>
		<path fill="#A163A7" d="M446.668,141.542l-0.465-14.622c-0.148-4.644-3.955-8.333-8.602-8.333h-67.28
			c-4.647,0-8.454,3.688-8.602,8.332l-0.466,14.622H446.668z"/>
		<path fill="#352F31" d="M444.138,141.542h-80.356v-7.97c0-5.358,4.344-9.702,9.702-9.702h60.952c5.358,0,9.702,4.344,9.702,9.702
			V141.542z"/>
		<g>
			<g>
				<circle fill="#F27261" cx="378.89" cy="234.84" r="2.018"/>
				<circle fill="#FFFFFF" cx="372.002" cy="227.039" r="4.87"/>
			</g>
			<g>
				<circle fill="#F27261" cx="429.031" cy="234.84" r="2.018"/>
				<circle fill="#FFFFFF" cx="435.918" cy="227.039" r="4.87"/>
			</g>
		</g>
		
			<line fill="none" stroke="#CCC9CA" stroke-width="2.3065" stroke-miterlimit="10" x1="403.96" y1="239.907" x2="403.96" y2="199.116"/>
		<g>
			<defs>
				<path id="SVGID_3_" d="M363.771,141.542v62.857h25.505c3.988-3.299,9.104-5.282,14.684-5.282s10.695,1.983,14.684,5.282h26.366
					v-62.857H363.771z"/>
			</defs>
			<clipPath id="SVGID_4_">
				<use xlink:href="#SVGID_3_"  overflow="visible"/>
			</clipPath>
			<g clip-path="url(#SVGID_4_)">
				<g>
					<rect x="352.115" y="141.542" fill="#979496" width="92.895" height="52.366"/>
					<g>
						<rect x="370.407" y="141.542" fill="#666163" width="2.869" height="52.007"/>
						<rect x="423.848" y="141.542" fill="#666163" width="2.869" height="52.007"/>
					</g>
					<rect x="352.115" y="188.527" fill="#666163" width="92.895" height="5.38"/>
					<rect x="364.13" y="177.409" fill="#666163" width="22.596" height="13.809"/>
					<rect x="395.334" y="182.43" fill="#666163" width="19.368" height="8.787"/>
					<path fill="#666163" d="M445.01,180.995h-17.88c-6.864,0-12.428,5.564-12.428,12.428v0.126h30.308V180.995z"/>
					<rect x="371.483" y="162.883" fill="#666163" width="3.587" height="9.684"/>
					<rect x="422.055" y="162.883" fill="#666163" width="3.587" height="9.684"/>
					<path fill="#666163" d="M443.031,146.85h-60.853c-3.252,0-5.889-2.636-5.889-5.889v-1.494c0-3.252,2.636-5.889,5.889-5.889
						h60.853c3.252,0,5.889,2.636,5.889,5.889v1.494C448.919,144.214,446.283,146.85,443.031,146.85z"/>
					<rect x="362.462" y="191.217" fill="#666163" width="82.548" height="21.43"/>
				</g>
			</g>
		</g>
		<polygon fill="none" stroke="#352F31" stroke-width="2.152" stroke-miterlimit="10" points="404.391,94.015 394.944,77.652 
			385.497,61.29 404.391,61.29 423.285,61.29 413.838,77.652 		"/>
		<path fill="none" stroke="#352F31" stroke-width="2.152" stroke-miterlimit="10" d="M437.281,67.387v-0.061
			c0-3.334-2.703-6.036-6.036-6.036h-53.708c-3.334,0-6.036,2.703-6.036,6.036v0.061H437.281z"/>
		
			<line fill="none" stroke="#352F31" stroke-width="2.152" stroke-miterlimit="10" x1="398.188" y1="83.516" x2="410.593" y2="83.516"/>
		<rect x="397.576" y="64.338" fill="#352F31" width="13.629" height="3.049"/>
		<path fill="#352F31" d="M377.991,261.068h-0.059c-1.611,0-2.916-1.306-2.916-2.916v-1.027c0-1.611,1.306-2.916,2.916-2.916h0.059
			c1.611,0,2.916,1.306,2.916,2.916v1.027C380.908,259.762,379.602,261.068,377.991,261.068z"/>
		<path fill="#352F31" d="M429.06,261.068h-0.059c-1.611,0-2.916-1.306-2.916-2.916v-1.027c0-1.611,1.306-2.916,2.916-2.916h0.059
			c1.611,0,2.916,1.306,2.916,2.916v1.027C431.976,259.762,430.671,261.068,429.06,261.068z"/>
	</g>
</g>
</svg>
