<svg xmlns="http://www.w3.org/2000/svg" width="64" height="64" viewBox="0 0 64 64"><style type="text/css">.frame{fill:#FFFFFF;} .content{opacity:0.5;fill:#FFFFFF;}</style><path class="content" d="M47 55.5c0 .276-.224.5-.5.5h-15c-.276 0-.5-.224-.5-.5s.224-.5.5-.5h15c.276 0 .5.224.5.5zm9.5-2.5h-21.014c-.416.31-.927.5-1.486.5h-3c0 .276.224.5.5.5h25c.276 0 .5-.224.5-.5s-.224-.5-.5-.5zm-4.5-5.5c0-.276-.224-.5-.5-.5h-15v1h15c.276 0 .5-.224.5-.5zm4.5 3.5h-20c0 .356-.077.693-.211 1h20.211c.276 0 .5-.224.5-.5s-.224-.5-.5-.5zm0-6h-20v1h20c.276 0 .5-.224.5-.5s-.224-.5-.5-.5zm0-6h-20v1h20c.276 0 .5-.224.5-.5s-.224-.5-.5-.5zm0 2h-20v1h20c.276 0 .5-.224.5-.5s-.224-.5-.5-.5zm.5-27v20c0 1.105-.895 2-2 2h-18.5v-1h18.5l.213-.043-11.213-10.279-7.803 7.153c-.16-.299-.376-.56-.639-.771l7.702-7.06-11.205-10.271-.055.271v16.5h-1v-16.5c0-1.105.895-2 2-2h22c1.105 0 2 .895 2 2zm-13 9.322l11.213-10.279-.213-.043h-22l-.213.043 11.213 10.279zm12-9.322l-.055-.271-11.205 10.271 11.205 10.271.055-.271v-20zm.5 29h-20v1h20c.276 0 .5-.224.5-.5s-.224-.5-.5-.5zm-39.5-8v14c0 1.105-.895 2-2 2h-9c-1.105 0-2-.895-2-2v-14c0-1.105.895-2 2-2h9c1.105 0 2 .895 2 2zm-1.018-.091l-4.875 7.091 4.875 7.091.018-.091v-14l-.018-.091zm-9.982-.909c-.122 0-.237.029-.345.07l4.845 7.047 4.845-7.047c-.108-.041-.223-.07-.345-.07h-9zm3.893 8l-4.875-7.091-.018.091v14l.018.091 4.875-7.091zm5.107 8c.122 0 .237-.029.345-.07l-4.845-7.047-4.845 7.047c.108.041.223.07.345.07h9zm2-41v4c0 1.105-.895 2-2 2h-9c-1.105 0-2-.895-2-2v-4c0-1.105.895-2 2-2h9c1.105 0 2 .895 2 2zm-1.078-.388l-4.378 2.388 4.378 2.388c.05-.12.078-.251.078-.388v-4c0-.137-.028-.268-.078-.388zm-10.844 4.776l4.378-2.388-4.378-2.388c-.05.12-.078.251-.078.388v4c0 .137.028.268.078.388zm5.422-2.957l4.456-2.431h-8.912l4.456 2.431zm-4.456 3.569h8.912l-4.456-2.431-4.456 2.431zm13.456 23h14c.276 0 .5-.224.5-.5s-.224-.5-.5-.5h-14c-.276 0-.5.224-.5.5s.224.5.5.5zm0 2h14c.276 0 .5-.224.5-.5s-.224-.5-.5-.5h-14c-.276 0-.5.224-.5.5s.224.5.5.5zm0 2h14c.276 0 .5-.224.5-.5s-.224-.5-.5-.5h-14c-.276 0-.5.224-.5.5s.224.5.5.5zm0 2h14c.276 0 .5-.224.5-.5s-.224-.5-.5-.5h-14c-.276 0-.5.224-.5.5s.224.5.5.5zm6 1h-6c-.276 0-.5.224-.5.5s.224.5.5.5h6c.276 0 .5-.224.5-.5s-.224-.5-.5-.5zm-6-33h9c.276 0 .5-.224.5-.5s-.224-.5-.5-.5h-9c-.276 0-.5.224-.5.5s.224.5.5.5zm0 2h9c.276 0 .5-.224.5-.5s-.224-.5-.5-.5h-9c-.276 0-.5.224-.5.5s.224.5.5.5z"/><path class="frame" d="M60 4h-56c-1.657 0-3 1.343-3 3v8c0 1.657 1.343 3 3 3h24v12h-24c-1.657 0-3 1.343-3 3v18c0 1.657 1.343 3 3 3h24v3c0 1.657 1.343 3 3 3h26c1.657 0 3-1.343 3-3v-39c1.657 0 3-1.343 3-3v-8c0-1.657-1.343-3-3-3zm-58 47v-18c0-1.103.897-2 2-2h30c1.103 0 2 .897 2 2v18c0 1.103-.897 2-2 2h-30c-1.103 0-2-.897-2-2zm57 6c0 1.103-.897 2-2 2h-26c-1.103 0-2-.897-2-2v-3h5c1.657 0 3-1.343 3-3v-18c0-1.657-1.343-3-3-3h-5v-18c0-1.103.897-2 2-2h26c1.103 0 2 .897 2 2v45zm3-42c0 1.103-.897 2-2 2v-5c0-1.657-1.343-3-3-3h-26c-1.657 0-3 1.343-3 3v5h-24c-1.103 0-2-.897-2-2v-8c0-1.103.897-2 2-2h56c1.103 0 2 .897 2 2v8z"/></svg>