<svg xmlns="http://www.w3.org/2000/svg" width="64" height="64" viewBox="0 0 64 64"><style type="text/css">.frame{fill:#FFFFFF;} .content{opacity:0.5;fill:#FFFFFF;}</style><path class="frame" d="M60 3h-56c-1.657 0-3 1.343-3 3v45c0 1.657 1.343 3 3 3h21v6h-4.5c-.276 0-.5.224-.5.5s.224.5.5.5h23c.276 0 .5-.224.5-.5s-.224-.5-.5-.5h-4.5v-6h21c1.657 0 3-1.343 3-3v-45c0-1.657-1.343-3-3-3zm-22 57h-12v-6h12v6zm24-9c0 1.103-.897 2-2 2h-56c-1.103 0-2-.897-2-2v-6h60v6zm0-7h-60v-38c0-1.103.897-2 2-2h56c1.103 0 2 .897 2 2v38z"/><path class="content" d="M36 10h-13c-1.105 0-2 .895-2 2v1c0 1.105.895 2 2 2h13c1.105 0 2-.895 2-2v-1c0-1.105-.895-2-2-2zm1 3c0 .551-.449 1-1 1h-13c-.551 0-1-.449-1-1v-1c0-.551.449-1 1-1h13c.551 0 1 .449 1 1v1zm-1 4h-13c-1.105 0-2 .895-2 2v1c0 1.105.895 2 2 2h13c1.105 0 2-.895 2-2v-1c0-1.105-.895-2-2-2zm1 3c0 .551-.449 1-1 1h-13c-.551 0-1-.449-1-1v-1c0-.551.449-1 1-1h13c.551 0 1 .449 1 1v1zm-1 4h-13c-1.105 0-2 .895-2 2v1c0 1.105.895 2 2 2h13c1.105 0 2-.895 2-2v-1c0-1.105-.895-2-2-2zm1 3c0 .551-.449 1-1 1h-13c-.551 0-1-.449-1-1v-1c0-.551.449-1 1-1h13c.551 0 1 .449 1 1v1zm18-17h-13c-1.105 0-2 .895-2 2v1c0 1.105.895 2 2 2h13c1.105 0 2-.895 2-2v-1c0-1.105-.895-2-2-2zm1 3c0 .551-.449 1-1 1h-13c-.551 0-1-.449-1-1v-1c0-.551.449-1 1-1h13c.551 0 1 .449 1 1v1zm-1 4h-13c-1.105 0-2 .895-2 2v1c0 1.105.895 2 2 2h13c1.105 0 2-.895 2-2v-1c0-1.105-.895-2-2-2zm1 3c0 .551-.449 1-1 1h-13c-.551 0-1-.449-1-1v-1c0-.551.449-1 1-1h13c.551 0 1 .449 1 1v1zm-1 4h-13c-1.105 0-2 .895-2 2v1c0 1.105.895 2 2 2h13c1.105 0 2-.895 2-2v-1c0-1.105-.895-2-2-2zm1 3c0 .551-.449 1-1 1h-13c-.551 0-1-.449-1-1v-1c0-.551.449-1 1-1h13c.551 0 1 .449 1 1v1zm-4-.5c0 .276-.224.5-.5.5h-5c-.276 0-.5-.224-.5-.5s.224-.5.5-.5h5c.276 0 .5.224.5.5zm0-7c0 .276-.224.5-.5.5h-5c-.276 0-.5-.224-.5-.5s.224-.5.5-.5h5c.276 0 .5.224.5.5zm0-7c0 .276-.224.5-.5.5h-5c-.276 0-.5-.224-.5-.5s.224-.5.5-.5h5c.276 0 .5.224.5.5zm-19 0c0 .276-.224.5-.5.5h-5c-.276 0-.5-.224-.5-.5s.224-.5.5-.5h5c.276 0 .5.224.5.5zm-18-2c0 .276-.224.5-.5.5h-8c-.276 0-.5-.224-.5-.5s.224-.5.5-.5h8c.276 0 .5.224.5.5zm-9 2c0-.276.224-.5.5-.5h6c.276 0 .5.224.5.5s-.224.5-.5.5h-6c-.276 0-.5-.224-.5-.5zm9 5c0 .276-.224.5-.5.5h-8c-.276 0-.5-.224-.5-.5s.224-.5.5-.5h8c.276 0 .5.224.5.5zm-9 2c0-.276.224-.5.5-.5h4c.276 0 .5.224.5.5s-.224.5-.5.5h-4c-.276 0-.5-.224-.5-.5zm9 5c0 .276-.224.5-.5.5h-8c-.276 0-.5-.224-.5-.5s.224-.5.5-.5h8c.276 0 .5.224.5.5zm-9 2c0-.276.224-.5.5-.5h5c.276 0 .5.224.5.5s-.224.5-.5.5h-5c-.276 0-.5-.224-.5-.5zm9 6c0 .276-.224.5-.5.5h-8c-.276 0-.5-.224-.5-.5s.224-.5.5-.5h8c.276 0 .5.224.5.5zm-5 2c0 .276-.224.5-.5.5h-3c-.276 0-.5-.224-.5-.5s.224-.5.5-.5h3c.276 0 .5.224.5.5zm23-15c0 .276-.224.5-.5.5h-5c-.276 0-.5-.224-.5-.5s.224-.5.5-.5h5c.276 0 .5.224.5.5zm0 7c0 .276-.224.5-.5.5h-5c-.276 0-.5-.224-.5-.5s.224-.5.5-.5h5c.276 0 .5.224.5.5zm-8 5.5c-2.209 0-4 1.791-4 4s1.791 4 4 4 4-1.791 4-4-1.791-4-4-4zm1.733 1.56l-1.733 1.733-1.733-1.733c.491-.349 1.086-.56 1.733-.56s1.242.211 1.733.56zm-4.173.707l1.733 1.733-1.733 1.733c-.349-.491-.56-1.086-.56-1.733s.211-1.242.56-1.733zm.707 4.173l1.733-1.733 1.733 1.733c-.491.349-1.086.56-1.733.56s-1.242-.211-1.733-.56zm4.173-.707l-1.733-1.733 1.733-1.733c.349.491.56 1.086.56 1.733s-.211 1.242-.56 1.733zm16.56-5.733c-2.209 0-4 1.791-4 4s1.791 4 4 4 4-1.791 4-4-1.791-4-4-4zm1.733 1.56l-1.733 1.733-1.733-1.733c.491-.349 1.086-.56 1.733-.56s1.242.211 1.733.56zm-4.173.707l1.733 1.733-1.733 1.733c-.349-.491-.56-1.086-.56-1.733s.211-1.242.56-1.733zm.707 4.173l1.733-1.733 1.733 1.733c-.491.349-1.086.56-1.733.56s-1.242-.211-1.733-.56zm4.173-.707l-1.733-1.733 1.733-1.733c.349.491.56 1.086.56 1.733s-.211 1.242-.56 1.733z"/></svg>