<?xml version="1.0" encoding="utf-8"?>
<!-- Generator: Adobe Illustrator 22.0.1, SVG Export Plug-In . SVG Version: 6.00 Build 0)  -->
<svg version="1.1" id="icons" xmlns="http://www.w3.org/2000/svg" xmlns:xlink="http://www.w3.org/1999/xlink" x="0px" y="0px"
	 width="64px" height="64px" viewBox="0 0 64 64" style="enable-background:new 0 0 64 64;" xml:space="preserve">
<style type="text/css">
	.frame{fill:#FFFFFF;}
	.content{opacity:0.5;fill:#FFFFFF;}
</style>
<path class="content" d="M59.841,35c-0.276,0-0.5-0.224-0.5-0.5s0.224-0.5,0.5-0.5h1c0.276,0,0.5,0.224,0.5,0.5s-0.224,0.5-0.5,0.5
	H59.841z M56.841,35c0.276,0,0.5-0.224,0.5-0.5s-0.224-0.5-0.5-0.5h-1c-0.276,0-0.5,0.224-0.5,0.5s0.224,0.5,0.5,0.5H56.841z
	 M59.841,14h1c0.276,0,0.5-0.224,0.5-0.5s-0.224-0.5-0.5-0.5h-1c-0.276,0-0.5,0.224-0.5,0.5S59.565,14,59.841,14z M52.841,35
	c0.276,0,0.5-0.224,0.5-0.5s-0.224-0.5-0.5-0.5h-1c-0.276,0-0.5,0.224-0.5,0.5s0.224,0.5,0.5,0.5H52.841z M45.341,18
	c0-1.105,0.895-2,2-2h10c1.105,0,2,0.895,2,2v12c0,1.105-0.895,2-2,2h-10c-1.105,0-2-0.895-2-2V18z M57.632,30.941l-5.291-6.173
	l-5.291,6.173C47.144,30.97,47.238,31,47.341,31h10C57.444,31,57.539,30.97,57.632,30.941z M58.303,17.813L53,24l5.303,6.187
	c0.012-0.063,0.038-0.121,0.038-0.187V18C58.341,17.934,58.316,17.875,58.303,17.813z M47.05,17.059l5.291,6.173l5.291-6.173
	C57.539,17.03,57.444,17,57.341,17h-10C47.238,17,47.144,17.03,47.05,17.059z M46.341,30c0,0.066,0.026,0.125,0.038,0.187L51.683,24
	l-5.303-6.187c-0.012,0.063-0.038,0.121-0.038,0.187V30z M43.841,14h1c0.276,0,0.5-0.224,0.5-0.5s-0.224-0.5-0.5-0.5h-1
	c-0.276,0-0.5,0.224-0.5,0.5S43.565,14,43.841,14z M28.841,35c0.276,0,0.5-0.224,0.5-0.5s-0.224-0.5-0.5-0.5h-1
	c-0.276,0-0.5,0.224-0.5,0.5s0.224,0.5,0.5,0.5H28.841z M47.841,14h1c0.276,0,0.5-0.224,0.5-0.5s-0.224-0.5-0.5-0.5h-1
	c-0.276,0-0.5,0.224-0.5,0.5S47.565,14,47.841,14z M51.841,14h1c0.276,0,0.5-0.224,0.5-0.5s-0.224-0.5-0.5-0.5h-1
	c-0.276,0-0.5,0.224-0.5,0.5S51.565,14,51.841,14z M55.841,14h1c0.276,0,0.5-0.224,0.5-0.5s-0.224-0.5-0.5-0.5h-1
	c-0.276,0-0.5,0.224-0.5,0.5S55.565,14,55.841,14z M48.841,35c0.276,0,0.5-0.224,0.5-0.5s-0.224-0.5-0.5-0.5h-1
	c-0.276,0-0.5,0.224-0.5,0.5s0.224,0.5,0.5,0.5H48.841z M20.841,34h-1c-0.276,0-0.5,0.224-0.5,0.5s0.224,0.5,0.5,0.5h1
	c0.276,0,0.5-0.224,0.5-0.5S21.118,34,20.841,34z M40.841,35c0.276,0,0.5-0.224,0.5-0.5s-0.224-0.5-0.5-0.5h-1
	c-0.276,0-0.5,0.224-0.5,0.5s0.224,0.5,0.5,0.5H40.841z M59.341,39v5.5h-1V39c0-0.066-0.026-0.125-0.038-0.187L53.429,44.5h-2.175
	l-4.875-5.687c-0.012,0.063-0.038,0.121-0.038,0.187v5.5h-1V39c0-1.105,0.895-2,2-2h10C58.446,37,59.341,37.895,59.341,39z
	 M57.632,38.059C57.539,38.03,57.444,38,57.341,38h-10c-0.103,0-0.197,0.03-0.291,0.059l5.291,6.173L57.632,38.059z M32.841,35
	c0.276,0,0.5-0.224,0.5-0.5s-0.224-0.5-0.5-0.5h-1c-0.276,0-0.5,0.224-0.5,0.5s0.224,0.5,0.5,0.5H32.841z M27.341,37h10
	c1.105,0,2,0.895,2,2v5.5h-1V39c0-0.066-0.026-0.125-0.038-0.187L33.429,44.5h-2.175l-4.875-5.687
	c-0.012,0.063-0.038,0.121-0.038,0.187v5.5h-1V39C25.341,37.895,26.237,37,27.341,37z M37.341,38h-10
	c-0.103,0-0.197,0.03-0.291,0.059l5.291,6.173l5.291-6.173C37.539,38.03,37.444,38,37.341,38z M36.841,35c0.276,0,0.5-0.224,0.5-0.5
	s-0.224-0.5-0.5-0.5h-1c-0.276,0-0.5,0.224-0.5,0.5s0.224,0.5,0.5,0.5H36.841z M15.841,34c-0.276,0-0.5,0.224-0.5,0.5
	s0.224,0.5,0.5,0.5h1c0.276,0,0.5-0.224,0.5-0.5s-0.224-0.5-0.5-0.5H15.841z M8.841,14c0.276,0,0.5-0.224,0.5-0.5S9.118,13,8.841,13
	h-1c-0.276,0-0.5,0.224-0.5,0.5s0.224,0.5,0.5,0.5H8.841z M12.841,14c0.276,0,0.5-0.224,0.5-0.5s-0.224-0.5-0.5-0.5h-1
	c-0.276,0-0.5,0.224-0.5,0.5s0.224,0.5,0.5,0.5H12.841z M7.841,34c-0.276,0-0.5,0.224-0.5,0.5s0.224,0.5,0.5,0.5h1
	c0.276,0,0.5-0.224,0.5-0.5S9.118,34,8.841,34H7.841z M7.341,16h10c1.105,0,2,0.895,2,2v12c0,1.105-0.895,2-2,2h-10
	c-1.105,0-2-0.895-2-2V18C5.341,16.895,6.237,16,7.341,16z M6.379,30.187L11.683,24l-5.303-6.187
	C6.367,17.875,6.341,17.934,6.341,18v12C6.341,30.066,6.367,30.125,6.379,30.187z M17.632,30.941l-5.291-6.173L7.05,30.941
	C7.144,30.97,7.238,31,7.341,31h10C17.444,31,17.539,30.97,17.632,30.941z M18.303,17.813L13,24l5.303,6.187
	c0.012-0.063,0.038-0.121,0.038-0.187V18C18.341,17.934,18.316,17.875,18.303,17.813z M17.341,17h-10
	c-0.103,0-0.197,0.03-0.291,0.059l5.291,6.173l5.291-6.173C17.539,17.03,17.444,17,17.341,17z M16.841,14c0.276,0,0.5-0.224,0.5-0.5
	s-0.224-0.5-0.5-0.5h-1c-0.276,0-0.5,0.224-0.5,0.5s0.224,0.5,0.5,0.5H16.841z M5.341,39c0-1.105,0.895-2,2-2h10
	c1.105,0,2,0.895,2,2v5.5h-1V39c0-0.066-0.026-0.125-0.038-0.187L13.429,44.5h-2.175l-4.875-5.687
	C6.367,38.875,6.341,38.934,6.341,39v5.5h-1V39z M7.05,38.059l5.291,6.173l5.291-6.173C17.539,38.03,17.444,38,17.341,38h-10
	C7.238,38,7.144,38.03,7.05,38.059z M11.841,34c-0.276,0-0.5,0.224-0.5,0.5s0.224,0.5,0.5,0.5h1c0.276,0,0.5-0.224,0.5-0.5
	s-0.224-0.5-0.5-0.5H11.841z M22.341,25c0.276,0,0.5-0.224,0.5-0.5v-1c0-0.276-0.224-0.5-0.5-0.5s-0.5,0.224-0.5,0.5v1
	C21.841,24.776,22.065,25,22.341,25z M22.341,28c0.276,0,0.5-0.224,0.5-0.5v-1c0-0.276-0.224-0.5-0.5-0.5s-0.5,0.224-0.5,0.5v1
	C21.841,27.776,22.065,28,22.341,28z M22.341,31c0.276,0,0.5-0.224,0.5-0.5v-1c0-0.276-0.224-0.5-0.5-0.5s-0.5,0.224-0.5,0.5v1
	C21.841,30.776,22.065,31,22.341,31z M22.341,22c0.276,0,0.5-0.224,0.5-0.5v-1c0-0.276-0.224-0.5-0.5-0.5s-0.5,0.224-0.5,0.5v1
	C21.841,21.776,22.065,22,22.341,22z M22.341,19c0.276,0,0.5-0.224,0.5-0.5v-1c0-0.276-0.224-0.5-0.5-0.5s-0.5,0.224-0.5,0.5v1
	C21.841,18.776,22.065,19,22.341,19z M22.341,34c0.276,0,0.5-0.224,0.5-0.5v-1c0-0.276-0.224-0.5-0.5-0.5s-0.5,0.224-0.5,0.5v1
	C21.841,33.776,22.065,34,22.341,34z M22.341,10c0.276,0,0.5-0.224,0.5-0.5v-1c0-0.276-0.224-0.5-0.5-0.5s-0.5,0.224-0.5,0.5v1
	C21.841,9.776,22.065,10,22.341,10z M22.341,13c0.276,0,0.5-0.224,0.5-0.5v-1c0-0.276-0.224-0.5-0.5-0.5s-0.5,0.224-0.5,0.5v1
	C21.841,12.776,22.065,13,22.341,13z M22.341,16c0.276,0,0.5-0.224,0.5-0.5v-1c0-0.276-0.224-0.5-0.5-0.5s-0.5,0.224-0.5,0.5v1
	C21.841,15.776,22.065,16,22.341,16z M19.841,14h1c0.276,0,0.5-0.224,0.5-0.5s-0.224-0.5-0.5-0.5h-1c-0.276,0-0.5,0.224-0.5,0.5
	S19.565,14,19.841,14z M43.841,35h1c0.276,0,0.5-0.224,0.5-0.5s-0.224-0.5-0.5-0.5h-1c-0.276,0-0.5,0.224-0.5,0.5
	S43.565,35,43.841,35z M22.341,37c0.276,0,0.5-0.224,0.5-0.5v-1c0-0.276-0.224-0.5-0.5-0.5s-0.5,0.224-0.5,0.5v1
	C21.841,36.776,22.065,37,22.341,37z M5.841,8h13c0.276,0,0.5-0.224,0.5-0.5S19.118,7,18.841,7h-13c-0.276,0-0.5,0.224-0.5,0.5
	S5.565,8,5.841,8z M3.841,35h1c0.276,0,0.5-0.224,0.5-0.5S5.118,34,4.841,34h-1c-0.276,0-0.5,0.224-0.5,0.5S3.565,35,3.841,35z
	 M3.841,14h1c0.276,0,0.5-0.224,0.5-0.5S5.118,13,4.841,13h-1c-0.276,0-0.5,0.224-0.5,0.5S3.565,14,3.841,14z M22.341,7
	c0.276,0,0.5-0.224,0.5-0.5v-1c0-0.276-0.224-0.5-0.5-0.5s-0.5,0.224-0.5,0.5v1C21.841,6.776,22.065,7,22.341,7z M22.341,40
	c0.276,0,0.5-0.224,0.5-0.5v-1c0-0.276-0.224-0.5-0.5-0.5s-0.5,0.224-0.5,0.5v1C21.841,39.776,22.065,40,22.341,40z M22.341,43
	c0.276,0,0.5-0.224,0.5-0.5v-1c0-0.276-0.224-0.5-0.5-0.5s-0.5,0.224-0.5,0.5v1C21.841,42.776,22.065,43,22.341,43z M5.841,10h13
	c0.276,0,0.5-0.224,0.5-0.5S19.118,9,18.841,9h-13c-0.276,0-0.5,0.224-0.5,0.5S5.565,10,5.841,10z M42.341,28
	c0.276,0,0.5-0.224,0.5-0.5v-1c0-0.276-0.224-0.5-0.5-0.5s-0.5,0.224-0.5,0.5v1C41.841,27.776,42.065,28,42.341,28z M42.341,31
	c0.276,0,0.5-0.224,0.5-0.5v-1c0-0.276-0.224-0.5-0.5-0.5s-0.5,0.224-0.5,0.5v1C41.841,30.776,42.065,31,42.341,31z M42.341,37
	c0.276,0,0.5-0.224,0.5-0.5v-1c0-0.276-0.224-0.5-0.5-0.5s-0.5,0.224-0.5,0.5v1C41.841,36.776,42.065,37,42.341,37z M42.341,34
	c0.276,0,0.5-0.224,0.5-0.5v-1c0-0.276-0.224-0.5-0.5-0.5s-0.5,0.224-0.5,0.5v1C41.841,33.776,42.065,34,42.341,34z M42.341,25
	c0.276,0,0.5-0.224,0.5-0.5v-1c0-0.276-0.224-0.5-0.5-0.5s-0.5,0.224-0.5,0.5v1C41.841,24.776,42.065,25,42.341,25z M23.841,35h1
	c0.276,0,0.5-0.224,0.5-0.5s-0.224-0.5-0.5-0.5h-1c-0.276,0-0.5,0.224-0.5,0.5S23.565,35,23.841,35z M42.341,19
	c0.276,0,0.5-0.224,0.5-0.5v-1c0-0.276-0.224-0.5-0.5-0.5s-0.5,0.224-0.5,0.5v1C41.841,18.776,42.065,19,42.341,19z M42.341,22
	c0.276,0,0.5-0.224,0.5-0.5v-1c0-0.276-0.224-0.5-0.5-0.5s-0.5,0.224-0.5,0.5v1C41.841,21.776,42.065,22,42.341,22z M42.341,16
	c0.276,0,0.5-0.224,0.5-0.5v-1c0-0.276-0.224-0.5-0.5-0.5s-0.5,0.224-0.5,0.5v1C41.841,15.776,42.065,16,42.341,16z M27.841,14h1
	c0.276,0,0.5-0.224,0.5-0.5s-0.224-0.5-0.5-0.5h-1c-0.276,0-0.5,0.224-0.5,0.5S27.565,14,27.841,14z M31.841,14h1
	c0.276,0,0.5-0.224,0.5-0.5s-0.224-0.5-0.5-0.5h-1c-0.276,0-0.5,0.224-0.5,0.5S31.565,14,31.841,14z M25.341,18c0-1.105,0.895-2,2-2
	h10c1.105,0,2,0.895,2,2v12c0,1.105-0.895,2-2,2h-10c-1.105,0-2-0.895-2-2V18z M37.632,30.941l-5.291-6.173l-5.291,6.173
	C27.144,30.97,27.238,31,27.341,31h10C37.444,31,37.539,30.97,37.632,30.941z M38.303,17.813L33,24l5.303,6.187
	c0.012-0.063,0.038-0.121,0.038-0.187V18C38.341,17.934,38.316,17.875,38.303,17.813z M27.05,17.059l5.291,6.173l5.291-6.173
	C37.539,17.03,37.444,17,37.341,17h-10C27.238,17,27.144,17.03,27.05,17.059z M26.341,30c0,0.066,0.026,0.125,0.038,0.187L31.683,24
	l-5.303-6.187c-0.012,0.063-0.038,0.121-0.038,0.187V30z M23.841,14h1c0.276,0,0.5-0.224,0.5-0.5s-0.224-0.5-0.5-0.5h-1
	c-0.276,0-0.5,0.224-0.5,0.5S23.565,14,23.841,14z M35.841,14h1c0.276,0,0.5-0.224,0.5-0.5s-0.224-0.5-0.5-0.5h-1
	c-0.276,0-0.5,0.224-0.5,0.5S35.565,14,35.841,14z M42.341,43c0.276,0,0.5-0.224,0.5-0.5v-1c0-0.276-0.224-0.5-0.5-0.5
	s-0.5,0.224-0.5,0.5v1C41.841,42.776,42.065,43,42.341,43z M39.841,14h1c0.276,0,0.5-0.224,0.5-0.5s-0.224-0.5-0.5-0.5h-1
	c-0.276,0-0.5,0.224-0.5,0.5S39.565,14,39.841,14z M42.341,40c0.276,0,0.5-0.224,0.5-0.5v-1c0-0.276-0.224-0.5-0.5-0.5
	s-0.5,0.224-0.5,0.5v1C41.841,39.776,42.065,40,42.341,40z"/>
<path class="frame" d="M60.341,3h-56c-1.657,0-3,1.343-3,3v45c0,1.657,1.343,3,3,3h21v6h-4.5c-0.276,0-0.5,0.224-0.5,0.5
	c0,0.276,0.224,0.5,0.5,0.5h4.5h14h4.5c0.276,0,0.5-0.224,0.5-0.5c0-0.276-0.224-0.5-0.5-0.5h-4.5v-6h21c1.657,0,3-1.343,3-3V6
	C63.341,4.343,61.998,3,60.341,3z M38.341,60h-12v-6h12V60z M62.341,51c0,1.103-0.897,2-2,2h-21h-14h-21c-1.103,0-2-0.897-2-2v-6h60
	V51z M62.341,44h-60V6c0-1.103,0.897-2,2-2h56c1.103,0,2,0.897,2,2V44z"/>
</svg>
