<?xml version="1.0" encoding="utf-8"?>
<!-- Generator: Adobe Illustrator 22.0.1, SVG Export Plug-In . SVG Version: 6.00 Build 0)  -->
<svg version="1.1" id="icons" xmlns="http://www.w3.org/2000/svg" xmlns:xlink="http://www.w3.org/1999/xlink" x="0px" y="0px"
	 width="64px" height="64px" viewBox="0 0 64 64" style="enable-background:new 0 0 64 64;" xml:space="preserve">
<style type="text/css">
	.frame{fill:#FFFFFF;}
	.content{opacity:0.5;fill:#FFFFFF;}
</style>
<path class="content" d="M15.5,36h29c0.276,0,0.5-0.224,0.5-0.5S44.776,35,44.5,35h-29c-0.276,0-0.5,0.224-0.5,0.5
	S15.224,36,15.5,36z M33.5,17h15c0.276,0,0.5-0.224,0.5-0.5S48.776,16,48.5,16h-15c-0.276,0-0.5,0.224-0.5,0.5S33.224,17,33.5,17z
	 M33.5,19h11c0.276,0,0.5-0.224,0.5-0.5S44.776,18,44.5,18h-11c-0.276,0-0.5,0.224-0.5,0.5S33.224,19,33.5,19z M33.5,23h15
	c0.276,0,0.5-0.224,0.5-0.5S48.776,22,48.5,22h-15c-0.276,0-0.5,0.224-0.5,0.5S33.224,23,33.5,23z M33.5,25h13
	c0.276,0,0.5-0.224,0.5-0.5S46.776,24,46.5,24h-13c-0.276,0-0.5,0.224-0.5,0.5S33.224,25,33.5,25z M33.5,27h15
	c0.276,0,0.5-0.224,0.5-0.5S48.776,26,48.5,26h-15c-0.276,0-0.5,0.224-0.5,0.5S33.224,27,33.5,27z M33.5,29h9
	c0.276,0,0.5-0.224,0.5-0.5S42.776,28,42.5,28h-9c-0.276,0-0.5,0.224-0.5,0.5S33.224,29,33.5,29z M48.5,38h-33
	c-0.276,0-0.5,0.224-0.5,0.5s0.224,0.5,0.5,0.5h33c0.276,0,0.5-0.224,0.5-0.5S48.776,38,48.5,38z M15.5,41h27
	c0.276,0,0.5-0.224,0.5-0.5S42.776,40,42.5,40h-27c-0.276,0-0.5,0.224-0.5,0.5S15.224,41,15.5,41z M15.5,47h17
	c0.276,0,0.5-0.224,0.5-0.5S32.776,46,32.5,46h-17c-0.276,0-0.5,0.224-0.5,0.5S15.224,47,15.5,47z M15.5,45h33
	c0.276,0,0.5-0.224,0.5-0.5S48.776,44,48.5,44h-33c-0.276,0-0.5,0.224-0.5,0.5S15.224,45,15.5,45z M48.5,49h-33
	c-0.276,0-0.5,0.224-0.5,0.5s0.224,0.5,0.5,0.5h33c0.276,0,0.5-0.224,0.5-0.5S48.776,49,48.5,49z M15.5,52h33
	c0.276,0,0.5-0.224,0.5-0.5S48.776,51,48.5,51h-33c-0.276,0-0.5,0.224-0.5,0.5S15.224,52,15.5,52z M48.5,53h-33
	c-0.276,0-0.5,0.224-0.5,0.5s0.224,0.5,0.5,0.5h33c0.276,0,0.5-0.224,0.5-0.5S48.776,53,48.5,53z M15.5,56h23
	c0.276,0,0.5-0.224,0.5-0.5S38.776,55,38.5,55h-23c-0.276,0-0.5,0.224-0.5,0.5S15.224,56,15.5,56z M27,25.606V29
	c0,1.105-0.895,2-2,2h-8c-1.105,0-2-0.895-2-2v-3.394c0-1.003,0.501-1.94,1.336-2.496l1.874-1.249C17.465,21.134,17,20.122,17,19
	c0-2.209,1.791-4,4-4c2.209,0,4,1.791,4,4c0,1.122-0.465,2.134-1.21,2.86l1.874,1.249C26.499,23.666,27,24.602,27,25.606z M21,22
	c1.654,0,3-1.346,3-3c0-1.654-1.346-3-3-3c-1.654,0-3,1.346-3,3C18,20.654,19.346,22,21,22z M26,25.606
	c0-0.67-0.333-1.292-0.891-1.664l-2.184-1.456C22.352,22.803,21.702,23,21,23s-1.352-0.197-1.926-0.514l-2.184,1.456
	C16.333,24.313,16,24.935,16,25.606V29c0,0.551,0.449,1,1,1h8c0.551,0,1-0.449,1-1V25.606z"/>
<path class="frame" d="M54,4H42.723C42.376,3.405,41.738,3,41,3h-4l-1.406-2.109C35.223,0.334,34.598,0,33.93,0H30.07
	c-0.669,0-1.293,0.334-1.664,0.891L27,3h-4c-0.738,0-1.376,0.405-1.723,1H10C8.343,4,7,5.343,7,7v54c0,1.657,1.343,3,3,3h44
	c1.657,0,3-1.343,3-3V7C57,5.343,55.657,4,54,4z M22,5c0-0.551,0.449-1,1-1h4h0.535l0.297-0.445l1.406-2.109
	C29.424,1.166,29.735,1,30.07,1h3.859c0.335,0,0.646,0.166,0.832,0.445l1.406,2.109L36.465,4H37h4c0.551,0,1,0.449,1,1v3
	c0,0.551-0.449,1-1,1H23c-0.551,0-1-0.449-1-1V5z M23,10h18c1.105,0,2-0.895,2-2h9c0.551,0,1,0.449,1,1v50c0,0.551-0.449,1-1,1H12
	c-0.551,0-1-0.449-1-1V9c0-0.551,0.449-1,1-1h9C21,9.105,21.895,10,23,10z M56,61c0,1.103-0.897,2-2,2H10c-1.103,0-2-0.897-2-2V7
	c0-1.103,0.897-2,2-2h11v2h-9c-1.105,0-2,0.895-2,2v50c0,1.105,0.895,2,2,2h40c1.105,0,2-0.895,2-2V9c0-1.105-0.895-2-2-2h-9V5h11
	c1.103,0,2,0.897,2,2V61z"/>
</svg>
