<?xml version="1.0" encoding="utf-8"?>
<!-- Generator: Adobe Illustrator 22.0.1, SVG Export Plug-In . SVG Version: 6.00 Build 0)  -->
<svg version="1.1" id="icons" xmlns="http://www.w3.org/2000/svg" xmlns:xlink="http://www.w3.org/1999/xlink" x="0px" y="0px"
	 width="64px" height="64px" viewBox="0 0 64 64" style="enable-background:new 0 0 64 64;" xml:space="preserve">
<style type="text/css">
	.frame{fill:#FFFFFF;}
	.content{opacity:0.5;fill:#FFFFFF;}
</style>
<path class="content" d="M34.5,19h-28C6.224,19,6,19.224,6,19.5S6.224,20,6.5,20h28c0.276,0,0.5-0.224,0.5-0.5S34.776,19,34.5,19z
	 M6.5,16C6.224,16,6,16.224,6,16.5S6.224,17,6.5,17h28c0.276,0,0.5-0.224,0.5-0.5S34.776,16,34.5,16H6.5z M35,22.5
	c0-0.276-0.224-0.5-0.5-0.5h-28C6.224,22,6,22.224,6,22.5S6.224,23,6.5,23h28C34.776,23,35,22.776,35,22.5z M35,25.5
	c0-0.276-0.224-0.5-0.5-0.5h-28C6.224,25,6,25.224,6,25.5S6.224,26,6.5,26h28C34.776,26,35,25.776,35,25.5z M35,28.5
	c0-0.276-0.224-0.5-0.5-0.5h-28C6.224,28,6,28.224,6,28.5S6.224,29,6.5,29h28C34.776,29,35,28.776,35,28.5z M14,31.5
	c0-0.276-0.224-0.5-0.5-0.5h-7C6.224,31,6,31.224,6,31.5S6.224,32,6.5,32h7C13.776,32,14,31.776,14,31.5z M35,12.5
	c0-0.276-0.224-0.5-0.5-0.5h-7c-0.276,0-0.5,0.224-0.5,0.5s0.224,0.5,0.5,0.5h7C34.776,13,35,12.776,35,12.5z M27,45H6.5
	C6.224,45,6,45.224,6,45.5S6.224,46,6.5,46H27c0.276,0,0.5-0.224,0.5-0.5S27.276,45,27,45z M6.5,42C6.224,42,6,42.224,6,42.5
	S6.224,43,6.5,43H27c0.276,0,0.5-0.224,0.5-0.5S27.276,42,27,42H6.5z M24,48.5c0-0.276-0.224-0.5-0.5-0.5h-17
	C6.224,48,6,48.224,6,48.5S6.224,49,6.5,49h17C23.776,49,24,48.776,24,48.5z M45,38.672c3.86,0,7,3.14,7,7s-3.14,7-7,7s-7-3.14-7-7
	S41.14,38.672,45,38.672 M45,37.672c-4.418,0-8,3.582-8,8s3.582,8,8,8s8-3.582,8-8S49.418,37.672,45,37.672L45,37.672z M34,37.699v2
	h-4v-2H34 M34,36.699h-4c-0.552,0-1,0.448-1,1v2c0,0.552,0.448,1,1,1h4c0.552,0,1-0.448,1-1v-2C35,37.147,34.552,36.699,34,36.699
	L34,36.699z"/>
<path class="frame" d="M60,34.672h-7.93c-0.669,0-1.293-0.334-1.664-0.891l-0.516-0.773c-0.556-0.835-1.493-1.336-2.496-1.336
	h-4.789c-1.003,0-1.94,0.501-2.496,1.336L40,33.172V7c0-1.657-1.343-3-3-3h-1V1.5C36,1.224,35.776,1,35.5,1S35,1.224,35,1.5V4h-1
	V1.5C34,1.224,33.776,1,33.5,1S33,1.224,33,1.5V4h-4V1.5C29,1.224,28.776,1,28.5,1S28,1.224,28,1.5V4h-1V1.5
	C27,1.224,26.776,1,26.5,1S26,1.224,26,1.5V4h-4V1.5C22,1.224,21.776,1,21.5,1S21,1.224,21,1.5V4h-1V1.5C20,1.224,19.776,1,19.5,1
	S19,1.224,19,1.5V4h-4V1.5C15,1.224,14.776,1,14.5,1S14,1.224,14,1.5V4h-1V1.5C13,1.224,12.776,1,12.5,1S12,1.224,12,1.5V4H8V1.5
	C8,1.224,7.776,1,7.5,1S7,1.224,7,1.5V4H6V1.5C6,1.224,5.776,1,5.5,1S5,1.224,5,1.5V4H4C2.343,4,1,5.343,1,7v53c0,1.657,1.343,3,3,3
	h33c1.657,0,3-1.343,3-3v-3.328h20c1.657,0,3-1.343,3-3v-16C63,36.015,61.657,34.672,60,34.672z M39,60c0,1.103-0.897,2-2,2H4
	c-1.103,0-2-0.897-2-2V7c0-1.103,0.897-2,2-2h1v2.5C5,7.776,5.224,8,5.5,8S6,7.776,6,7.5V5h1v2.5C7,7.776,7.224,8,7.5,8
	S8,7.776,8,7.5V5h4v2.5C12,7.776,12.224,8,12.5,8S13,7.776,13,7.5V5h1v2.5C14,7.776,14.224,8,14.5,8S15,7.776,15,7.5V5h4v2.5
	C19,7.776,19.224,8,19.5,8S20,7.776,20,7.5V5h1v2.5C21,7.776,21.224,8,21.5,8S22,7.776,22,7.5V5h4v2.5C26,7.776,26.224,8,26.5,8
	S27,7.776,27,7.5V5h1v2.5C28,7.776,28.224,8,28.5,8S29,7.776,29,7.5V5h4v2.5C33,7.776,33.224,8,33.5,8S34,7.776,34,7.5V5h1v2.5
	C35,7.776,35.224,8,35.5,8S36,7.776,36,7.5V5h1c1.103,0,2,0.897,2,2v27.346c-0.317,0.203-0.683,0.326-1.07,0.326H30
	c-1.657,0-3,1.343-3,3v16c0,1.657,1.343,3,3,3h9V60z M62,53.672c0,1.103-0.897,2-2,2H30c-1.103,0-2-0.897-2-2v-16
	c0-1.103,0.897-2,2-2h7.93c1.005,0,1.938-0.499,2.496-1.336l0.516-0.773c0.372-0.558,0.994-0.891,1.664-0.891h4.789
	c0.67,0,1.292,0.333,1.664,0.891l0.516,0.774c0.558,0.836,1.491,1.336,2.496,1.336H60c1.103,0,2,0.897,2,2V53.672z"/>
</svg>
