<?xml version="1.0" encoding="utf-8"?>
<!-- Generator: Adobe Illustrator 22.0.1, SVG Export Plug-In . SVG Version: 6.00 Build 0)  -->
<svg version="1.1" id="icons" xmlns="http://www.w3.org/2000/svg" xmlns:xlink="http://www.w3.org/1999/xlink" x="0px" y="0px"
	 width="64px" height="64px" viewBox="0 0 64 64" style="enable-background:new 0 0 64 64;" xml:space="preserve">
<style type="text/css">
	.frame{fill:#FFFFFF;}
	.content{opacity:0.5;fill:#FFFFFF;}
</style>
<path class="frame" d="M60,3H4C2.343,3,1,4.343,1,6v45c0,1.657,1.343,3,3,3h21v6h-4.5c-0.276,0-0.5,0.224-0.5,0.5
	c0,0.276,0.224,0.5,0.5,0.5H25h14h4.5c0.276,0,0.5-0.224,0.5-0.5c0-0.276-0.224-0.5-0.5-0.5H39v-6h21c1.657,0,3-1.343,3-3V6
	C63,4.343,61.657,3,60,3z M38,60H26v-6h12V60z M62,51c0,1.103-0.897,2-2,2H39H25H4c-1.103,0-2-0.897-2-2v-6h60V51z M62,44H2V6
	c0-1.103,0.897-2,2-2h56c1.103,0,2,0.897,2,2V44z"/>
<path class="content" d="M36,10H23c-1.105,0-2,0.895-2,2v1c0,1.105,0.895,2,2,2h13c1.105,0,2-0.895,2-2v-1
	C38,10.895,37.105,10,36,10z M37,13c0,0.551-0.449,1-1,1H23c-0.551,0-1-0.449-1-1v-1c0-0.551,0.449-1,1-1h13c0.551,0,1,0.449,1,1V13
	z M36,17H23c-1.105,0-2,0.895-2,2v1c0,1.105,0.895,2,2,2h13c1.105,0,2-0.895,2-2v-1C38,17.895,37.105,17,36,17z M37,20
	c0,0.551-0.449,1-1,1H23c-0.551,0-1-0.449-1-1v-1c0-0.551,0.449-1,1-1h13c0.551,0,1,0.449,1,1V20z M36,24H23c-1.105,0-2,0.895-2,2v1
	c0,1.105,0.895,2,2,2h13c1.105,0,2-0.895,2-2v-1C38,24.895,37.105,24,36,24z M37,27c0,0.551-0.449,1-1,1H23c-0.551,0-1-0.449-1-1v-1
	c0-0.551,0.449-1,1-1h13c0.551,0,1,0.449,1,1V27z M55,10H42c-1.105,0-2,0.895-2,2v1c0,1.105,0.895,2,2,2h13c1.105,0,2-0.895,2-2v-1
	C57,10.895,56.105,10,55,10z M56,13c0,0.551-0.449,1-1,1H42c-0.551,0-1-0.449-1-1v-1c0-0.551,0.449-1,1-1h13c0.551,0,1,0.449,1,1V13
	z M55,17H42c-1.105,0-2,0.895-2,2v1c0,1.105,0.895,2,2,2h13c1.105,0,2-0.895,2-2v-1C57,17.895,56.105,17,55,17z M56,20
	c0,0.551-0.449,1-1,1H42c-0.551,0-1-0.449-1-1v-1c0-0.551,0.449-1,1-1h13c0.551,0,1,0.449,1,1V20z M55,24H42c-1.105,0-2,0.895-2,2v1
	c0,1.105,0.895,2,2,2h13c1.105,0,2-0.895,2-2v-1C57,24.895,56.105,24,55,24z M56,27c0,0.551-0.449,1-1,1H42c-0.551,0-1-0.449-1-1v-1
	c0-0.551,0.449-1,1-1h13c0.551,0,1,0.449,1,1V27z M52,26.5c0,0.276-0.224,0.5-0.5,0.5h-5c-0.276,0-0.5-0.224-0.5-0.5
	s0.224-0.5,0.5-0.5h5C51.776,26,52,26.224,52,26.5z M52,19.5c0,0.276-0.224,0.5-0.5,0.5h-5c-0.276,0-0.5-0.224-0.5-0.5
	s0.224-0.5,0.5-0.5h5C51.776,19,52,19.224,52,19.5z M52,12.5c0,0.276-0.224,0.5-0.5,0.5h-5c-0.276,0-0.5-0.224-0.5-0.5
	s0.224-0.5,0.5-0.5h5C51.776,12,52,12.224,52,12.5z M33,12.5c0,0.276-0.224,0.5-0.5,0.5h-5c-0.276,0-0.5-0.224-0.5-0.5
	s0.224-0.5,0.5-0.5h5C32.776,12,33,12.224,33,12.5z M15,10.5c0,0.276-0.224,0.5-0.5,0.5h-8C6.224,11,6,10.776,6,10.5
	S6.224,10,6.5,10h8C14.776,10,15,10.224,15,10.5z M6,12.5C6,12.224,6.224,12,6.5,12h6c0.276,0,0.5,0.224,0.5,0.5S12.776,13,12.5,13
	h-6C6.224,13,6,12.776,6,12.5z M15,17.5c0,0.276-0.224,0.5-0.5,0.5h-8C6.224,18,6,17.776,6,17.5S6.224,17,6.5,17h8
	C14.776,17,15,17.224,15,17.5z M6,19.5C6,19.224,6.224,19,6.5,19h4c0.276,0,0.5,0.224,0.5,0.5S10.776,20,10.5,20h-4
	C6.224,20,6,19.776,6,19.5z M15,24.5c0,0.276-0.224,0.5-0.5,0.5h-8C6.224,25,6,24.776,6,24.5S6.224,24,6.5,24h8
	C14.776,24,15,24.224,15,24.5z M6,26.5C6,26.224,6.224,26,6.5,26h5c0.276,0,0.5,0.224,0.5,0.5S11.776,27,11.5,27h-5
	C6.224,27,6,26.776,6,26.5z M15,32.5c0,0.276-0.224,0.5-0.5,0.5h-8C6.224,33,6,32.776,6,32.5S6.224,32,6.5,32h8
	C14.776,32,15,32.224,15,32.5z M10,34.5c0,0.276-0.224,0.5-0.5,0.5h-3C6.224,35,6,34.776,6,34.5S6.224,34,6.5,34h3
	C9.776,34,10,34.224,10,34.5z M33,19.5c0,0.276-0.224,0.5-0.5,0.5h-5c-0.276,0-0.5-0.224-0.5-0.5s0.224-0.5,0.5-0.5h5
	C32.776,19,33,19.224,33,19.5z M33,26.5c0,0.276-0.224,0.5-0.5,0.5h-5c-0.276,0-0.5-0.224-0.5-0.5s0.224-0.5,0.5-0.5h5
	C32.776,26,33,26.224,33,26.5z M25,32c-2.209,0-4,1.791-4,4c0,2.209,1.791,4,4,4c2.209,0,4-1.791,4-4C29,33.791,27.209,32,25,32z
	 M26.733,33.56L25,35.293l-1.733-1.733C23.758,33.211,24.353,33,25,33S26.242,33.211,26.733,33.56z M22.56,34.267L24.293,36
	l-1.733,1.733C22.211,37.242,22,36.647,22,36S22.211,34.758,22.56,34.267z M23.267,38.44L25,36.707l1.733,1.733
	C26.242,38.789,25.647,39,25,39S23.758,38.789,23.267,38.44z M27.44,37.733L25.707,36l1.733-1.733C27.789,34.758,28,35.353,28,36
	S27.789,37.242,27.44,37.733z M44,32c-2.209,0-4,1.791-4,4c0,2.209,1.791,4,4,4c2.209,0,4-1.791,4-4C48,33.791,46.209,32,44,32z
	 M45.733,33.56L44,35.293l-1.733-1.733C42.758,33.211,43.353,33,44,33S45.242,33.211,45.733,33.56z M41.56,34.267L43.293,36
	l-1.733,1.733C41.211,37.242,41,36.647,41,36S41.211,34.758,41.56,34.267z M42.267,38.44L44,36.707l1.733,1.733
	C45.242,38.789,44.647,39,44,39S42.758,38.789,42.267,38.44z M46.44,37.733L44.707,36l1.733-1.733C46.789,34.758,47,35.353,47,36
	S46.789,37.242,46.44,37.733z"/>
</svg>
