<svg xmlns="http://www.w3.org/2000/svg" width="64" height="64" viewBox="0 0 64 64"><style type="text/css">.frame{fill:#FFFFFF;} .content{opacity:0.5;fill:#FFFFFF;}</style><path class="frame" d="M60 5c1.103 0 2 .897 2 2v50c0 1.103-.897 2-2 2h-56c-1.103 0-2-.897-2-2v-50c0-1.103.897-2 2-2h56m0-1h-56c-1.657 0-3 1.343-3 3v50c0 1.657 1.343 3 3 3h56c1.657 0 3-1.343 3-3v-50c0-1.657-1.343-3-3-3z"/><path class="content" d="M21.071 19.917h-13.163c-.276 0-.5-.224-.5-.5s.224-.5.5-.5h13.163c.276 0 .5.224.5.5s-.224.5-.5.5zm.5 1.5c0-.276-.224-.5-.5-.5h-13.163c-.276 0-.5.224-.5.5s.224.5.5.5h13.163c.276 0 .5-.223.5-.5zm0 2c0-.276-.224-.5-.5-.5h-13.163c-.276 0-.5.224-.5.5s.224.5.5.5h13.163c.276 0 .5-.223.5-.5zm0 2c0-.276-.224-.5-.5-.5h-13.163c-.276 0-.5.224-.5.5s.224.5.5.5h13.163c.276 0 .5-.223.5-.5zm17.511-6c0-.276-.224-.5-.5-.5h-13.164c-.276 0-.5.224-.5.5s.224.5.5.5h13.163c.277 0 .501-.223.501-.5zm0 2c0-.276-.224-.5-.5-.5h-13.164c-.276 0-.5.224-.5.5s.224.5.5.5h13.163c.277 0 .501-.223.501-.5zm0 2c0-.276-.224-.5-.5-.5h-13.164c-.276 0-.5.224-.5.5s.224.5.5.5h13.163c.277 0 .501-.223.501-.5zm0 2c0-.276-.224-.5-.5-.5h-13.164c-.276 0-.5.224-.5.5s.224.5.5.5h13.163c.277 0 .501-.223.501-.5zm17-6c0-.276-.224-.5-.5-.5h-13.164c-.276 0-.5.224-.5.5s.224.5.5.5h13.163c.277 0 .501-.223.501-.5zm0 2c0-.276-.224-.5-.5-.5h-13.164c-.276 0-.5.224-.5.5s.224.5.5.5h13.163c.277 0 .501-.223.501-.5zm0 2c0-.276-.224-.5-.5-.5h-13.164c-.276 0-.5.224-.5.5s.224.5.5.5h13.163c.277 0 .501-.223.501-.5zm0 2c0-.276-.224-.5-.5-.5h-13.164c-.276 0-.5.224-.5.5s.224.5.5.5h13.163c.277 0 .501-.223.501-.5zm-34.511 18c0-.276-.224-.5-.5-.5h-13.163c-.276 0-.5.224-.5.5s.224.5.5.5h13.163c.276 0 .5-.223.5-.5zm0 2c0-.276-.224-.5-.5-.5h-13.163c-.276 0-.5.224-.5.5s.224.5.5.5h13.163c.276 0 .5-.223.5-.5zm0 2c0-.276-.224-.5-.5-.5h-13.163c-.276 0-.5.224-.5.5s.224.5.5.5h13.163c.276 0 .5-.223.5-.5zm0 2c0-.276-.224-.5-.5-.5h-13.163c-.276 0-.5.224-.5.5s.224.5.5.5h13.163c.276 0 .5-.223.5-.5zm17.511-6c0-.276-.224-.5-.5-.5h-13.164c-.276 0-.5.224-.5.5s.224.5.5.5h13.163c.277 0 .501-.223.501-.5zm0 2c0-.276-.224-.5-.5-.5h-13.164c-.276 0-.5.224-.5.5s.224.5.5.5h13.163c.277 0 .501-.223.501-.5zm0 2c0-.276-.224-.5-.5-.5h-13.164c-.276 0-.5.224-.5.5s.224.5.5.5h13.163c.277 0 .501-.223.501-.5zm0 2c0-.276-.224-.5-.5-.5h-13.164c-.276 0-.5.224-.5.5s.224.5.5.5h13.163c.277 0 .501-.223.501-.5zm17-6c0-.276-.224-.5-.5-.5h-13.164c-.276 0-.5.224-.5.5s.224.5.5.5h13.163c.277 0 .501-.223.501-.5zm0 2c0-.276-.224-.5-.5-.5h-13.164c-.276 0-.5.224-.5.5s.224.5.5.5h13.163c.277 0 .501-.223.501-.5zm0 2c0-.276-.224-.5-.5-.5h-13.164c-.276 0-.5.224-.5.5s.224.5.5.5h13.163c.277 0 .501-.223.501-.5zm0 2c0-.276-.224-.5-.5-.5h-13.164c-.276 0-.5.224-.5.5s.224.5.5.5h13.163c.277 0 .501-.223.501-.5zm-38.511-22c0-.276-.224-.5-.5-.5h-9.163c-.276 0-.5.224-.5.5s.224.5.5.5h9.163c.276 0 .5-.223.5-.5zm17.511 0c0-.276-.224-.5-.5-.5h-9.163c-.276 0-.5.224-.5.5s.224.5.5.5h9.163c.276 0 .5-.223.5-.5zm17 0c0-.276-.224-.5-.5-.5h-9.163c-.276 0-.5.224-.5.5s.224.5.5.5h9.163c.276 0 .5-.223.5-.5zm-34.511 24c0-.276-.224-.5-.5-.5h-9.163c-.276 0-.5.224-.5.5s.224.5.5.5h9.163c.276 0 .5-.223.5-.5zm17.511 0c0-.276-.224-.5-.5-.5h-9.163c-.276 0-.5.224-.5.5s.224.5.5.5h9.163c.276 0 .5-.223.5-.5zm17 0c0-.276-.224-.5-.5-.5h-9.163c-.276 0-.5.224-.5.5s.224.5.5.5h9.163c.276 0 .5-.223.5-.5zm-41.832-35.167v-4.5c0-.202-.122-.385-.309-.462-.187-.078-.401-.035-.545.108l-1.5 1.5c-.195.195-.195.512 0 .707s.512.195.707 0l.646-.646v3.293c0 .276.224.5.5.5s.501-.224.501-.5zm18.75 0c0-.276-.224-.5-.5-.5h-1.793l2.146-2.146c.085-.085.137-.198.145-.318.006-.087.045-.871-.5-1.458-.357-.384-.861-.578-1.498-.578s-1.141.194-1.498.578c-.546.586-.507 1.37-.5 1.458.02.275.246.483.534.463.275-.02.483-.259.463-.534 0-.004-.019-.432.235-.705.319-.343 1.206-.345 1.528-.004.158.167.212.393.23.545l-2.846 2.846c-.143.143-.186.358-.108.545.077.187.26.309.462.309h3c.276-.001.5-.225.5-.501zm16.522-.067c.313-.276.478-.644.478-1.065 0-.486-.181-.896-.522-1.185-.292-.248-.665-.375-1.026-.435l1.402-1.402c.143-.143.186-.358.108-.545-.077-.187-.26-.309-.462-.309h-3c-.276 0-.5.224-.5.5s.224.5.5.5h1.793l-1.396 1.396c-.154.154-.19.389-.091.583.099.193.312.3.526.264.343-.056 1.157-.08 1.5.21.078.068.168.176.168.423 0 .134-.042.229-.139.315-.431.382-1.639.396-2.299.314-.274-.034-.523.162-.558.435-.034.274.16.523.434.558.083.01.41.047.834.047.707 0 1.683-.103 2.25-.604zm-34.897 24.067v-4.5c0-.276-.224-.5-.5-.5s-.5.224-.5.5v4.5c0 .276.224.5.5.5s.5-.224.5-.5zm1-1.5c0-.276-.224-.5-.5-.5h-2.609l.594-2.379c.067-.268-.096-.539-.364-.606-.27-.069-.54.096-.606.364l-.75 3c-.038.149-.004.308.091.429.095.122.24.192.394.192h3.25c.276 0 .5-.224.5-.5zm17.375 0c0-1.791-1.555-1.978-3-1.998v-.502h2.5c.276 0 .5-.224.5-.5s-.224-.5-.5-.5h-3c-.276 0-.5.224-.5.5v1.5c0 .276.224.5.5.5 2.155 0 2.5.237 2.5 1 0 .785-.538 1-2.5 1-.276 0-.5.224-.5.5s.224.5.5.5c1.394 0 3.5 0 3.5-2zm13.5.375.073.495c.273-.041.462-.295.421-.568-.136-.917 0-1.621.405-2.095.584-.684 1.576-.707 1.602-.707.275-.001.498-.225.498-.5 0-.276-.224-.5-.5-.5-.059 0-1.458.012-2.352 1.048-.607.704-.823 1.68-.643 2.9.037.249.25.427.494.427l.075-.005zm3.427-.479c0-.902-.878-1.609-2-1.609s-2 .707-2 1.609.878 1.609 2 1.609 2-.707 2-1.609zm-1 0c0 .288-.411.609-1 .609s-1-.321-1-.609.411-.609 1-.609 1 .321 1 .609z"/></svg>