<?xml version="1.0" encoding="utf-8"?>
<!-- Generator: Adobe Illustrator 19.2.1, SVG Export Plug-In . SVG Version: 6.00 Build 0)  -->
<svg version="1.1" id="icons" xmlns="http://www.w3.org/2000/svg" xmlns:xlink="http://www.w3.org/1999/xlink" x="0px" y="0px"
	 width="64px" height="64px" viewBox="0 0 64 64" style="enable-background:new 0 0 64 64;" xml:space="preserve">
<style type="text/css">
	.frame{fill:#FFFFFF;}
	.content{opacity:0.5;fill:#FFFFFF;}
</style>
<path class="frame" d="M60,4H46c-1.657,0-3,1.343-3,3v42.48c0,0.625,0.195,1.235,0.559,1.744l7.814,10.939
	C51.771,62.721,52.386,63,53,63s1.229-0.279,1.627-0.838l7.814-10.939C62.805,50.714,63,50.105,63,49.48V7C63,5.343,61.657,4,60,4z
	 M46,5h14c1.103,0,2,0.897,2,2v7H44V7C44,5.897,44.897,5,46,5z M44,49V21h18v28H44z M44,20v-5h18v5H44z M53.814,61.581
	C53.624,61.847,53.327,62,53,62s-0.624-0.153-0.814-0.419L51.5,60.62c0.361-0.474,0.897-0.752,1.5-0.752
	c0.602,0,1.137,0.277,1.5,0.753L53.814,61.581z M55.094,59.789c-0.543-0.575-1.288-0.921-2.094-0.921s-1.551,0.346-2.094,0.921
	l-6.533-9.147c-0.14-0.196-0.23-0.414-0.292-0.642h17.838c-0.062,0.228-0.152,0.446-0.292,0.642L55.094,59.789z M37,4h-1V1.5
	C36,1.224,35.776,1,35.5,1S35,1.224,35,1.5V4h-1V1.5C34,1.224,33.776,1,33.5,1S33,1.224,33,1.5V4h-4V1.5C29,1.224,28.776,1,28.5,1
	S28,1.224,28,1.5V4h-1V1.5C27,1.224,26.776,1,26.5,1S26,1.224,26,1.5V4h-4V1.5C22,1.224,21.776,1,21.5,1S21,1.224,21,1.5V4h-1V1.5
	C20,1.224,19.776,1,19.5,1S19,1.224,19,1.5V4h-4V1.5C15,1.224,14.776,1,14.5,1S14,1.224,14,1.5V4h-1V1.5C13,1.224,12.776,1,12.5,1
	S12,1.224,12,1.5V4H8V1.5C8,1.224,7.776,1,7.5,1S7,1.224,7,1.5V4H6V1.5C6,1.224,5.776,1,5.5,1S5,1.224,5,1.5V4H4
	C2.343,4,1,5.343,1,7v53c0,1.657,1.343,3,3,3h33c1.657,0,3-1.343,3-3V7C40,5.343,38.657,4,37,4z M39,60c0,1.103-0.897,2-2,2H4
	c-1.103,0-2-0.897-2-2V7c0-1.103,0.897-2,2-2h1v2.5C5,7.776,5.224,8,5.5,8S6,7.776,6,7.5V5h1v2.5C7,7.776,7.224,8,7.5,8
	S8,7.776,8,7.5V5h4v2.5C12,7.776,12.224,8,12.5,8S13,7.776,13,7.5V5h1v2.5C14,7.776,14.224,8,14.5,8S15,7.776,15,7.5V5h4v2.5
	C19,7.776,19.224,8,19.5,8S20,7.776,20,7.5V5h1v2.5C21,7.776,21.224,8,21.5,8S22,7.776,22,7.5V5h4v2.5C26,7.776,26.224,8,26.5,8
	S27,7.776,27,7.5V5h1v2.5C28,7.776,28.224,8,28.5,8S29,7.776,29,7.5V5h4v2.5C33,7.776,33.224,8,33.5,8S34,7.776,34,7.5V5h1v2.5
	C35,7.776,35.224,8,35.5,8S36,7.776,36,7.5V5h1c1.103,0,2,0.897,2,2V60z"/>
<path class="content" d="M17,12H7c-1.105,0-2,0.895-2,2v18c0,1.105,0.895,2,2,2h10c1.105,0,2-0.895,2-2V14
	C19,12.895,18.105,12,17,12z M18,14v18c0,0.007-0.004,0.014-0.004,0.021L12.583,23l5.413-9.021C17.996,13.986,18,13.993,18,14z
	 M17,13c0.132,0,0.256,0.029,0.372,0.075L12,22.028l-5.372-8.953C6.744,13.029,6.868,13,7,13H17z M6.004,32.021
	C6.004,32.014,6,32.007,6,32V14c0-0.007,0.004-0.014,0.004-0.021L11.417,23L6.004,32.021z M7,33c-0.132,0-0.256-0.029-0.372-0.075
	L12,23.972l5.372,8.953C17.256,32.971,17.132,33,17,33H7z M34,12H24c-1.105,0-2,0.895-2,2v18c0,1.105,0.895,2,2,2h10
	c1.105,0,2-0.895,2-2V14C36,12.895,35.105,12,34,12z M35,14v18c0,0.007-0.004,0.014-0.004,0.021L29.583,23l5.413-9.021
	C34.996,13.986,35,13.993,35,14z M34,13c0.132,0,0.256,0.029,0.372,0.075L29,22.028l-5.372-8.953C23.744,13.029,23.868,13,24,13H34z
	 M23.004,32.021C23.004,32.014,23,32.007,23,32V14c0-0.007,0.004-0.014,0.004-0.021L28.417,23L23.004,32.021z M24,33
	c-0.132,0-0.256-0.029-0.372-0.075L29,23.972l5.372,8.953C34.256,32.971,34.132,33,34,33H24z M17,37H7c-1.105,0-2,0.895-2,2v18
	c0,1.105,0.895,2,2,2h10c1.105,0,2-0.895,2-2V39C19,37.895,18.105,37,17,37z M18,39v18c0,0.007-0.004,0.014-0.004,0.021L12.583,48
	l5.413-9.021C17.996,38.986,18,38.993,18,39z M17,38c0.132,0,0.256,0.029,0.372,0.075L12,47.028l-5.372-8.953
	C6.744,38.029,6.868,38,7,38H17z M6.004,57.021C6.004,57.014,6,57.007,6,57V39c0-0.007,0.004-0.014,0.004-0.021L11.417,48
	L6.004,57.021z M7,58c-0.132,0-0.256-0.029-0.372-0.075L12,48.972l5.372,8.953C17.256,57.971,17.132,58,17,58H7z M34,37H24
	c-1.105,0-2,0.895-2,2v18c0,1.105,0.895,2,2,2h10c1.105,0,2-0.895,2-2V39C36,37.895,35.105,37,34,37z M35,39v18
	c0,0.007-0.004,0.014-0.004,0.021L29.583,48l5.413-9.021C34.996,38.986,35,38.993,35,39z M34,38c0.132,0,0.256,0.029,0.372,0.075
	L29,47.028l-5.372-8.953C23.744,38.029,23.868,38,24,38H34z M23.004,57.021C23.004,57.014,23,57.007,23,57V39
	c0-0.007,0.004-0.014,0.004-0.021L28.417,48L23.004,57.021z M24,58c-0.132,0-0.256-0.029-0.372-0.075L29,48.972l5.372,8.953
	C34.256,57.971,34.132,58,34,58H24z"/>
</svg>
