<?xml version="1.0" encoding="utf-8"?>
<!-- Generator: Adobe Illustrator 19.2.1, SVG Export Plug-In . SVG Version: 6.00 Build 0)  -->
<svg version="1.1" id="icons" xmlns="http://www.w3.org/2000/svg" xmlns:xlink="http://www.w3.org/1999/xlink" x="0px" y="0px"
	 width="64px" height="64px" viewBox="0 0 64 64" style="enable-background:new 0 0 64 64;" xml:space="preserve">
<style type="text/css">
	.frame{fill:#FFFFFF;}
	.content{opacity:0.5;fill:#FFFFFF;}
</style>
<path class="frame" d="M60,4H4C2.343,4,1,5.343,1,7v43.375V50.9v2.475V53.9v3c0,1.657,1.343,3,3,3h56c1.657,0,3-1.343,3-3v-3v-0.525
	V50.9v-0.525V7C63,5.343,61.657,4,60,4z M2,7c0-1.103,0.897-2,2-2h56c1.103,0,2,0.897,2,2v43.9c0,1.103-0.897,2-2,2H4
	c-1.103,0-2-0.897-2-2V7z M2,53.121C2.532,53.6,3.228,53.9,4,53.9h56c0.772,0,1.468-0.3,2-0.779V53.9c0,1.103-0.897,2-2,2H4
	c-1.103,0-2-0.897-2-2V53.121z M60,58.9H4c-1.103,0-2-0.897-2-2v-0.779C2.532,56.6,3.228,56.9,4,56.9h56c0.772,0,1.468-0.3,2-0.779
	V56.9C62,58.003,61.103,58.9,60,58.9z"/>
<path class="content" d="M6,9.5C6,9.224,6.224,9,6.5,9h8C14.776,9,15,9.224,15,9.5S14.776,10,14.5,10h-8C6.224,10,6,9.776,6,9.5z
	 M11,12.5c0,0.276,0.224,0.5,0.5,0.5h47c0.276,0,0.5-0.224,0.5-0.5S58.776,12,58.5,12h-47C11.224,12,11,12.224,11,12.5z M11.5,14
	c-0.276,0-0.5,0.224-0.5,0.5s0.224,0.5,0.5,0.5h31c0.276,0,0.5-0.224,0.5-0.5S42.776,14,42.5,14H11.5z M58.5,17h-47
	c-0.276,0-0.5,0.224-0.5,0.5s0.224,0.5,0.5,0.5h47c0.276,0,0.5-0.224,0.5-0.5S58.776,17,58.5,17z M11.5,20h39
	c0.276,0,0.5-0.224,0.5-0.5S50.776,19,50.5,19h-39c-0.276,0-0.5,0.224-0.5,0.5S11.224,20,11.5,20z M58.5,22h-47
	c-0.276,0-0.5,0.224-0.5,0.5s0.224,0.5,0.5,0.5h47c0.276,0,0.5-0.224,0.5-0.5S58.776,22,58.5,22z M34.5,25
	c0.276,0,0.5-0.224,0.5-0.5S34.776,24,34.5,24h-23c-0.276,0-0.5,0.224-0.5,0.5s0.224,0.5,0.5,0.5H34.5z M6.5,32h8
	c0.276,0,0.5-0.224,0.5-0.5S14.776,31,14.5,31h-8C6.224,31,6,31.224,6,31.5S6.224,32,6.5,32z M58.5,34h-47
	c-0.276,0-0.5,0.224-0.5,0.5s0.224,0.5,0.5,0.5h47c0.276,0,0.5-0.224,0.5-0.5S58.776,34,58.5,34z M11.5,37h31
	c0.276,0,0.5-0.224,0.5-0.5S42.776,36,42.5,36h-31c-0.276,0-0.5,0.224-0.5,0.5S11.224,37,11.5,37z M58.5,39h-47
	c-0.276,0-0.5,0.224-0.5,0.5s0.224,0.5,0.5,0.5h47c0.276,0,0.5-0.224,0.5-0.5S58.776,39,58.5,39z M11.5,42h39
	c0.276,0,0.5-0.224,0.5-0.5S50.776,41,50.5,41h-39c-0.276,0-0.5,0.224-0.5,0.5S11.224,42,11.5,42z M58.5,44h-47
	c-0.276,0-0.5,0.224-0.5,0.5s0.224,0.5,0.5,0.5h47c0.276,0,0.5-0.224,0.5-0.5S58.776,44,58.5,44z M34.5,46h-23
	c-0.276,0-0.5,0.224-0.5,0.5s0.224,0.5,0.5,0.5h23c0.276,0,0.5-0.224,0.5-0.5S34.776,46,34.5,46z M6.854,13.854L7,13.707V14.5
	C7,14.776,7.224,15,7.5,15S8,14.776,8,14.5v-0.793l0.146,0.146C8.244,13.951,8.372,14,8.5,14s0.256-0.049,0.354-0.146
	c0.195-0.195,0.195-0.512,0-0.707l-0.999-0.999c-0.046-0.046-0.102-0.083-0.163-0.109c-0.122-0.051-0.26-0.051-0.382,0
	c-0.062,0.025-0.117,0.062-0.163,0.109l-0.999,0.999c-0.195,0.195-0.195,0.512,0,0.707S6.658,14.049,6.854,13.854z M6.854,18.854
	L7,18.707V19.5C7,19.776,7.224,20,7.5,20S8,19.776,8,19.5v-0.793l0.146,0.146C8.244,18.951,8.372,19,8.5,19s0.256-0.049,0.354-0.146
	c0.195-0.195,0.195-0.512,0-0.707l-0.999-0.999c-0.046-0.046-0.102-0.083-0.163-0.109c-0.122-0.051-0.26-0.051-0.382,0
	c-0.062,0.025-0.117,0.062-0.163,0.109l-0.999,0.999c-0.195,0.195-0.195,0.512,0,0.707S6.658,19.049,6.854,18.854z M7.854,34.147
	c-0.046-0.046-0.102-0.083-0.163-0.109c-0.122-0.051-0.26-0.051-0.382,0c-0.062,0.025-0.117,0.062-0.163,0.109l-0.999,0.999
	c-0.195,0.195-0.195,0.512,0,0.707s0.512,0.195,0.707,0L7,35.707V36.5C7,36.776,7.224,37,7.5,37S8,36.776,8,36.5v-0.793l0.146,0.146
	C8.244,35.951,8.372,36,8.5,36s0.256-0.049,0.354-0.146c0.195-0.195,0.195-0.512,0-0.707L7.854,34.147z M7.854,44.147
	c-0.046-0.046-0.102-0.083-0.163-0.109c-0.122-0.051-0.26-0.051-0.382,0c-0.062,0.025-0.117,0.062-0.163,0.109l-0.999,0.999
	c-0.195,0.195-0.195,0.512,0,0.707s0.512,0.195,0.707,0L7,45.707V46.5C7,46.776,7.224,47,7.5,47S8,46.776,8,46.5v-0.793l0.146,0.146
	C8.244,45.951,8.372,46,8.5,46s0.256-0.049,0.354-0.146c0.195-0.195,0.195-0.512,0-0.707L7.854,44.147z M7.146,24.853
	c0.046,0.046,0.102,0.083,0.163,0.109C7.37,24.987,7.435,25,7.5,25s0.13-0.013,0.191-0.038c0.062-0.025,0.117-0.062,0.163-0.109
	l0.999-0.999c0.195-0.195,0.195-0.512,0-0.707s-0.512-0.195-0.707,0L8,23.293V22.5C8,22.224,7.776,22,7.5,22S7,22.224,7,22.5v0.793
	l-0.146-0.146c-0.195-0.195-0.512-0.195-0.707,0s-0.195,0.512,0,0.707L7.146,24.853z M8.146,40.146L8,40.293V39.5
	C8,39.224,7.776,39,7.5,39S7,39.224,7,39.5v0.793l-0.146-0.146c-0.195-0.195-0.512-0.195-0.707,0s-0.195,0.512,0,0.707l0.999,0.999
	c0.046,0.046,0.102,0.083,0.163,0.109C7.37,41.987,7.435,42,7.5,42s0.13-0.013,0.191-0.038c0.062-0.025,0.117-0.062,0.163-0.109
	l0.999-0.999c0.195-0.195,0.195-0.512,0-0.707S8.342,39.951,8.146,40.146z"/>
</svg>
