<svg xmlns="http://www.w3.org/2000/svg" width="64" height="64" viewBox="0 0 64 64"><style type="text/css">.frame{fill:#FFFFFF;} .content{opacity:0.5;fill:#FFFFFF;}</style><path class="frame" d="M60 4h-56c-1.657 0-3 1.343-3 3v49.9c0 1.657 1.343 3 3 3h56c1.657 0 3-1.343 3-3v-49.9c0-1.657-1.343-3-3-3zm-58 3c0-1.103.897-2 2-2h56c1.103 0 2 .897 2 2v43.9c0 1.103-.897 2-2 2h-56c-1.103 0-2-.897-2-2v-43.9zm0 46.121c.532.479 1.228.779 2 .779h56c.772 0 1.468-.3 2-.779v.779c0 1.103-.897 2-2 2h-56c-1.103 0-2-.897-2-2v-.779zm58 5.779h-56c-1.103 0-2-.897-2-2v-.779c.532.479 1.228.779 2 .779h56c.772 0 1.468-.3 2-.779v.779c0 1.103-.897 2-2 2z"/><path class="content" d="M6 9.5c0-.276.224-.5.5-.5h8c.276 0 .5.224.5.5s-.224.5-.5.5h-8c-.276 0-.5-.224-.5-.5zm5 3c0 .276.224.5.5.5h47c.276 0 .5-.224.5-.5s-.224-.5-.5-.5h-47c-.276 0-.5.224-.5.5zm.5 1.5c-.276 0-.5.224-.5.5s.224.5.5.5h31c.276 0 .5-.224.5-.5s-.224-.5-.5-.5h-31zm47 3h-47c-.276 0-.5.224-.5.5s.224.5.5.5h47c.276 0 .5-.224.5-.5s-.224-.5-.5-.5zm-47 3h39c.276 0 .5-.224.5-.5s-.224-.5-.5-.5h-39c-.276 0-.5.224-.5.5s.224.5.5.5zm47 2h-47c-.276 0-.5.224-.5.5s.224.5.5.5h47c.276 0 .5-.224.5-.5s-.224-.5-.5-.5zm-24 3c.276 0 .5-.224.5-.5s-.224-.5-.5-.5h-23c-.276 0-.5.224-.5.5s.224.5.5.5h23zm-28 7h8c.276 0 .5-.224.5-.5s-.224-.5-.5-.5h-8c-.276 0-.5.224-.5.5s.224.5.5.5zm52 2h-47c-.276 0-.5.224-.5.5s.224.5.5.5h47c.276 0 .5-.224.5-.5s-.224-.5-.5-.5zm-47 3h31c.276 0 .5-.224.5-.5s-.224-.5-.5-.5h-31c-.276 0-.5.224-.5.5s.224.5.5.5zm47 2h-47c-.276 0-.5.224-.5.5s.224.5.5.5h47c.276 0 .5-.224.5-.5s-.224-.5-.5-.5zm-47 3h39c.276 0 .5-.224.5-.5s-.224-.5-.5-.5h-39c-.276 0-.5.224-.5.5s.224.5.5.5zm47 2h-47c-.276 0-.5.224-.5.5s.224.5.5.5h47c.276 0 .5-.224.5-.5s-.224-.5-.5-.5zm-24 2h-23c-.276 0-.5.224-.5.5s.224.5.5.5h23c.276 0 .5-.224.5-.5s-.224-.5-.5-.5zm-27.646-32.146l.146-.147v.793c0 .276.224.5.5.5s.5-.224.5-.5v-.793l.146.146c.098.098.226.147.354.147s.256-.049.354-.146c.195-.195.195-.512 0-.707l-.999-.999-.163-.109c-.122-.051-.26-.051-.382 0l-.163.109-.999.999c-.195.195-.195.512 0 .707s.51.195.706 0zm0 5l.146-.147v.793c0 .276.224.5.5.5s.5-.224.5-.5v-.793l.146.146c.098.098.226.147.354.147s.256-.049.354-.146c.195-.195.195-.512 0-.707l-.999-.999-.163-.109c-.122-.051-.26-.051-.382 0l-.163.109-.999.999c-.195.195-.195.512 0 .707s.51.195.706 0zm1 15.293l-.163-.109c-.122-.051-.26-.051-.382 0l-.163.109-.999.999c-.195.195-.195.512 0 .707s.512.195.707 0l.146-.146v.793c0 .276.224.5.5.5s.5-.224.5-.5v-.793l.146.146c.098.098.226.147.354.147s.256-.049.354-.146c.195-.195.195-.512 0-.707l-1-1zm0 10l-.163-.109c-.122-.051-.26-.051-.382 0l-.163.109-.999.999c-.195.195-.195.512 0 .707s.512.195.707 0l.146-.146v.793c0 .276.224.5.5.5s.5-.224.5-.5v-.793l.146.146c.098.098.226.147.354.147s.256-.049.354-.146c.195-.195.195-.512 0-.707l-1-1zm-.708-19.294l.163.109.191.038.191-.038.163-.109.999-.999c.195-.195.195-.512 0-.707s-.512-.195-.707 0l-.146.146v-.793c0-.276-.224-.5-.5-.5s-.5.224-.5.5v.793l-.146-.146c-.195-.195-.512-.195-.707 0s-.195.512 0 .707l.999.999zm1 15.293l-.146.147v-.793c0-.276-.224-.5-.5-.5s-.5.224-.5.5v.793l-.146-.146c-.195-.195-.512-.195-.707 0s-.195.512 0 .707l.999.999.163.109.191.038.191-.038.163-.109.999-.999c.195-.195.195-.512 0-.707s-.511-.196-.707-.001z"/></svg>