<?xml version="1.0" encoding="utf-8"?>
<!-- Generator: Adobe Illustrator 22.0.1, SVG Export Plug-In . SVG Version: 6.00 Build 0)  -->
<svg version="1.1" id="icons" xmlns="http://www.w3.org/2000/svg" xmlns:xlink="http://www.w3.org/1999/xlink" x="0px" y="0px"
	 width="64px" height="64px" viewBox="0 0 64 64" style="enable-background:new 0 0 64 64;" xml:space="preserve">
<style type="text/css">
	.frame{fill:#FFFFFF;}
	.content{opacity:0.5;fill:#FFFFFF;}
</style>
<path class="frame" d="M60,4H4C2.343,4,1,5.343,1,7v43.375V50.9v2.475V53.9v3c0,1.657,1.343,3,3,3h56c1.657,0,3-1.343,3-3v-3v-0.525
	V50.9v-0.525V7C63,5.343,61.657,4,60,4z M2,7c0-1.103,0.897-2,2-2h56c1.103,0,2,0.897,2,2v43.9c0,1.103-0.897,2-2,2H4
	c-1.103,0-2-0.897-2-2V7z M2,53.121C2.532,53.6,3.228,53.9,4,53.9h56c0.772,0,1.468-0.3,2-0.779V53.9c0,1.103-0.897,2-2,2H4
	c-1.103,0-2-0.897-2-2V53.121z M60,58.9H4c-1.103,0-2-0.897-2-2v-0.779C2.532,56.6,3.228,56.9,4,56.9h56c0.772,0,1.468-0.3,2-0.779
	V56.9C62,58.003,61.103,58.9,60,58.9z"/>
<path class="content" d="M57,12.5c0,0.276-0.224,0.5-0.5,0.5h-36c-0.276,0-0.5-0.224-0.5-0.5s0.224-0.5,0.5-0.5h36
	C56.776,12,57,12.224,57,12.5z M46.5,15h-26c-0.276,0-0.5,0.224-0.5,0.5s0.224,0.5,0.5,0.5h26c0.276,0,0.5-0.224,0.5-0.5
	S46.776,15,46.5,15z M57,22.5c0,0.276-0.224,0.5-0.5,0.5h-36c-0.276,0-0.5-0.224-0.5-0.5s0.224-0.5,0.5-0.5h36
	C56.776,22,57,22.224,57,22.5z M51.5,25h-31c-0.276,0-0.5,0.224-0.5,0.5s0.224,0.5,0.5,0.5h31c0.276,0,0.5-0.224,0.5-0.5
	S51.776,25,51.5,25z M57,32.5c0,0.276-0.224,0.5-0.5,0.5h-36c-0.276,0-0.5-0.224-0.5-0.5s0.224-0.5,0.5-0.5h36
	C56.776,32,57,32.224,57,32.5z M41.5,35h-21c-0.276,0-0.5,0.224-0.5,0.5s0.224,0.5,0.5,0.5h21c0.276,0,0.5-0.224,0.5-0.5
	S41.776,35,41.5,35z M57,42.5c0,0.276-0.224,0.5-0.5,0.5h-36c-0.276,0-0.5-0.224-0.5-0.5s0.224-0.5,0.5-0.5h36
	C56.776,42,57,42.224,57,42.5z M46.5,45h-26c-0.276,0-0.5,0.224-0.5,0.5s0.224,0.5,0.5,0.5h26c0.276,0,0.5-0.224,0.5-0.5
	S46.776,45,46.5,45z M8,18h6c0.552,0,1-0.448,1-1v-4.293l1.354-1.354c0.195-0.195,0.195-0.512,0-0.707s-0.512-0.195-0.707,0
	L15,11.293V11c0-0.552-0.448-1-1-1H8c-0.552,0-1,0.448-1,1v6C7,17.552,7.448,18,8,18z M8,11h6v1.293l-2.5,2.5l-1.646-1.646
	c-0.195-0.195-0.512-0.195-0.707,0s-0.195,0.512,0,0.707l2,2C11.244,15.951,11.372,16,11.5,16s0.256-0.049,0.354-0.146L14,13.707V17
	H8V11z M15.646,20.646L15,21.293V21c0-0.552-0.448-1-1-1H8c-0.552,0-1,0.448-1,1v6c0,0.552,0.448,1,1,1h6c0.552,0,1-0.448,1-1
	v-4.293l1.354-1.354c0.195-0.195,0.195-0.512,0-0.707S15.842,20.451,15.646,20.646z M14,27H8v-6h6v1.293l-2.5,2.5l-1.646-1.646
	c-0.195-0.195-0.512-0.195-0.707,0s-0.195,0.512,0,0.707l2,2C11.244,25.951,11.372,26,11.5,26s0.256-0.049,0.354-0.146L14,23.707V27
	z M8,38h6c0.552,0,1-0.448,1-1v-6c0-0.552-0.448-1-1-1H8c-0.552,0-1,0.448-1,1v6C7,37.552,7.448,38,8,38z M8,31h6v6H8V31z
	 M15.646,40.646L15,41.293V41c0-0.552-0.448-1-1-1H8c-0.552,0-1,0.448-1,1v6c0,0.552,0.448,1,1,1h6c0.552,0,1-0.448,1-1v-4.293
	l1.354-1.354c0.195-0.195,0.195-0.512,0-0.707S15.842,40.451,15.646,40.646z M14,47H8v-6h6v1.293l-2.5,2.5l-1.646-1.646
	c-0.195-0.195-0.512-0.195-0.707,0s-0.195,0.512,0,0.707l2,2C11.244,45.951,11.372,46,11.5,46s0.256-0.049,0.354-0.146L14,43.707V47
	z"/>
</svg>
