<svg xmlns="http://www.w3.org/2000/svg" width="64" height="64" viewBox="0 0 64 64"><style type="text/css">.frame{fill:#FFFFFF;} .content{opacity:0.5;fill:#FFFFFF;}</style><path class="frame" d="M60 3h-56c-1.657 0-3 1.343-3 3v45c0 1.657 1.343 3 3 3h21v6h-4.5c-.276 0-.5.224-.5.5s.224.5.5.5h23c.276 0 .5-.224.5-.5s-.224-.5-.5-.5h-4.5v-6h21c1.657 0 3-1.343 3-3v-45c0-1.657-1.343-3-3-3zm-22 57h-12v-6h12v6zm24-9c0 1.103-.897 2-2 2h-56c-1.103 0-2-.897-2-2v-6h60v6zm0-7h-60v-38c0-1.103.897-2 2-2h56c1.103 0 2 .897 2 2v38z"/><path class="content" d="M29 7h-22c-1.105 0-2 .895-2 2v12c0 1.105.895 2 2 2h22c1.105 0 2-.895 2-2v-12c0-1.105-.895-2-2-2zm-22 1h22l.005.001-11.005 6.42-11.005-6.42.005-.001zm-1 13v-12c0-.133.029-.26.076-.376l10.931 6.376-10.931 6.376c-.047-.116-.076-.243-.076-.376zm23 1h-22l-.005-.001 11.005-6.42 11.005 6.42-.005.001zm1-1c0 .133-.029.26-.076.376l-10.931-6.376 10.931-6.376c.047.116.076.243.076.376v12zm27-14h-22c-1.105 0-2 .895-2 2v12c0 1.105.895 2 2 2h22c1.105 0 2-.895 2-2v-12c0-1.105-.895-2-2-2zm-22 1h22l.005.001-11.005 6.42-11.005-6.42.005-.001zm-1 13v-12c0-.133.029-.26.076-.376l10.931 6.376-10.931 6.376c-.047-.116-.076-.243-.076-.376zm23 1h-22l-.005-.001 11.005-6.42 11.005 6.42-.005.001zm1-1c0 .133-.029.26-.076.376l-10.931-6.376 10.931-6.376c.047.116.076.243.076.376v12zm-29 4h-22c-1.105 0-2 .895-2 2v12c0 1.105.895 2 2 2h22c1.105 0 2-.895 2-2v-12c0-1.105-.895-2-2-2zm-22 1h22l.005.001-11.005 6.42-11.005-6.42.005-.001zm-1 13v-12c0-.133.029-.26.076-.376l10.931 6.376-10.931 6.376c-.047-.116-.076-.243-.076-.376zm23 1h-22l-.005-.001 11.005-6.42 11.005 6.42-.005.001zm1-1c0 .133-.029.26-.076.376l-10.931-6.376 10.931-6.376c.047.116.076.243.076.376v12zm27-14h-22c-1.105 0-2 .895-2 2v12c0 1.105.895 2 2 2h22c1.105 0 2-.895 2-2v-12c0-1.105-.895-2-2-2zm-22 1h22l.005.001-11.005 6.42-11.005-6.42.005-.001zm-1 13v-12c0-.133.029-.26.076-.376l10.931 6.376-10.931 6.376c-.047-.116-.076-.243-.076-.376zm23 1h-22l-.005-.001 11.005-6.42 11.005 6.42-.005.001zm1-1c0 .133-.029.26-.076.376l-10.931-6.376 10.931-6.376c.047.116.076.243.076.376v12z"/></svg>