<svg xmlns="http://www.w3.org/2000/svg" width="64" height="64" viewBox="0 0 64 64"><style type="text/css">.frame{fill:#FFFFFF;} .content{opacity:0.5;fill:#FFFFFF;}</style><path class="frame" d="M60 4h-14c-1.657 0-3 1.343-3 3v42.48c0 .625.195 1.235.559 1.744l7.814 10.939c.398.558 1.013.837 1.627.837s1.229-.279 1.627-.838l7.814-10.939c.364-.509.559-1.118.559-1.743v-42.48c0-1.657-1.343-3-3-3zm-14 1h14c1.103 0 2 .897 2 2v7h-18v-7c0-1.103.897-2 2-2zm-2 44v-28h18v28h-18zm0-29v-5h18v5h-18zm9.814 41.581c-.19.266-.487.419-.814.419s-.624-.153-.814-.419l-.686-.961c.361-.474.897-.752 1.5-.752.602 0 1.137.277 1.5.753l-.686.96zm1.28-1.792c-.543-.575-1.288-.921-2.094-.921s-1.551.346-2.094.921l-6.533-9.147c-.14-.196-.23-.414-.292-.642h17.838c-.062.228-.152.446-.292.642l-6.533 9.147zm-18.094-55.789h-1v-2.5c0-.276-.224-.5-.5-.5s-.5.224-.5.5v2.5h-1v-2.5c0-.276-.224-.5-.5-.5s-.5.224-.5.5v2.5h-4v-2.5c0-.276-.224-.5-.5-.5s-.5.224-.5.5v2.5h-1v-2.5c0-.276-.224-.5-.5-.5s-.5.224-.5.5v2.5h-4v-2.5c0-.276-.224-.5-.5-.5s-.5.224-.5.5v2.5h-1v-2.5c0-.276-.224-.5-.5-.5s-.5.224-.5.5v2.5h-4v-2.5c0-.276-.224-.5-.5-.5s-.5.224-.5.5v2.5h-1v-2.5c0-.276-.224-.5-.5-.5s-.5.224-.5.5v2.5h-4v-2.5c0-.276-.224-.5-.5-.5s-.5.224-.5.5v2.5h-1v-2.5c0-.276-.224-.5-.5-.5s-.5.224-.5.5v2.5h-1c-1.657 0-3 1.343-3 3v53c0 1.657 1.343 3 3 3h33c1.657 0 3-1.343 3-3v-53c0-1.657-1.343-3-3-3zm2 56c0 1.103-.897 2-2 2h-33c-1.103 0-2-.897-2-2v-53c0-1.103.897-2 2-2h1v2.5c0 .276.224.5.5.5s.5-.224.5-.5v-2.5h1v2.5c0 .276.224.5.5.5s.5-.224.5-.5v-2.5h4v2.5c0 .276.224.5.5.5s.5-.224.5-.5v-2.5h1v2.5c0 .276.224.5.5.5s.5-.224.5-.5v-2.5h4v2.5c0 .276.224.5.5.5s.5-.224.5-.5v-2.5h1v2.5c0 .276.224.5.5.5s.5-.224.5-.5v-2.5h4v2.5c0 .276.224.5.5.5s.5-.224.5-.5v-2.5h1v2.5c0 .276.224.5.5.5s.5-.224.5-.5v-2.5h4v2.5c0 .276.224.5.5.5s.5-.224.5-.5v-2.5h1v2.5c0 .276.224.5.5.5s.5-.224.5-.5v-2.5h1c1.103 0 2 .897 2 2v53z"/><path class="content" d="M17 12h-10c-1.105 0-2 .895-2 2v18c0 1.105.895 2 2 2h10c1.105 0 2-.895 2-2v-18c0-1.105-.895-2-2-2zm1 2v18l-.004.021-5.413-9.021 5.413-9.021.004.021zm-1-1c.132 0 .256.029.372.075l-5.372 8.953-5.372-8.953c.116-.046.24-.075.372-.075h10zm-10.996 19.021l-.004-.021v-18l.004-.021 5.413 9.021-5.413 9.021zm.996.979c-.132 0-.256-.029-.372-.075l5.372-8.953 5.372 8.953c-.116.046-.24.075-.372.075h-10zm27-21h-10c-1.105 0-2 .895-2 2v18c0 1.105.895 2 2 2h10c1.105 0 2-.895 2-2v-18c0-1.105-.895-2-2-2zm1 2v18l-.004.021-5.413-9.021 5.413-9.021.004.021zm-1-1c.132 0 .256.029.372.075l-5.372 8.953-5.372-8.953c.116-.046.24-.075.372-.075h10zm-10.996 19.021l-.004-.021v-18l.004-.021 5.413 9.021-5.413 9.021zm.996.979c-.132 0-.256-.029-.372-.075l5.372-8.953 5.372 8.953c-.116.046-.24.075-.372.075h-10zm-7 4h-10c-1.105 0-2 .895-2 2v18c0 1.105.895 2 2 2h10c1.105 0 2-.895 2-2v-18c0-1.105-.895-2-2-2zm1 2v18l-.004.021-5.413-9.021 5.413-9.021.004.021zm-1-1c.132 0 .256.029.372.075l-5.372 8.953-5.372-8.953c.116-.046.24-.075.372-.075h10zm-10.996 19.021l-.004-.021v-18l.004-.021 5.413 9.021-5.413 9.021zm.996.979c-.132 0-.256-.029-.372-.075l5.372-8.953 5.372 8.953c-.116.046-.24.075-.372.075h-10zm27-21h-10c-1.105 0-2 .895-2 2v18c0 1.105.895 2 2 2h10c1.105 0 2-.895 2-2v-18c0-1.105-.895-2-2-2zm1 2v18l-.004.021-5.413-9.021 5.413-9.021.004.021zm-1-1c.132 0 .256.029.372.075l-5.372 8.953-5.372-8.953c.116-.046.24-.075.372-.075h10zm-10.996 19.021l-.004-.021v-18l.004-.021 5.413 9.021-5.413 9.021zm.996.979c-.132 0-.256-.029-.372-.075l5.372-8.953 5.372 8.953c-.116.046-.24.075-.372.075h-10z"/></svg>