<?xml version="1.0" encoding="utf-8"?>
<!-- Generator: Adobe Illustrator 22.0.1, SVG Export Plug-In . SVG Version: 6.00 Build 0)  -->
<svg version="1.1" id="icons" xmlns="http://www.w3.org/2000/svg" xmlns:xlink="http://www.w3.org/1999/xlink" x="0px" y="0px"
	 width="64px" height="64px" viewBox="0 0 64 64" style="enable-background:new 0 0 64 64;" xml:space="preserve">
<style type="text/css">
	.frame{fill:#FFFFFF;}
	.content{opacity:0.5;fill:#FFFFFF;}
</style>
<path class="frame" d="M60,3H4C2.343,3,1,4.343,1,6v45c0,1.657,1.343,3,3,3h21v6h-4.5c-0.276,0-0.5,0.224-0.5,0.5
	c0,0.276,0.224,0.5,0.5,0.5H25h14h4.5c0.276,0,0.5-0.224,0.5-0.5c0-0.276-0.224-0.5-0.5-0.5H39v-6h21c1.657,0,3-1.343,3-3V6
	C63,4.343,61.657,3,60,3z M38,60H26v-6h12V60z M62,51c0,1.103-0.897,2-2,2H39H25H4c-1.103,0-2-0.897-2-2v-6h60V51z M62,44H2V6
	c0-1.103,0.897-2,2-2h56c1.103,0,2,0.897,2,2V44z"/>
<path class="content" d="M41,13v22c0,1.105-0.895,2-2,2H27c-1.105,0-2-0.895-2-2V13c0-1.105,0.895-2,2-2h12
	C40.105,11,41,11.895,41,13z M26.624,12.076L33,23.007l6.376-10.931C39.26,12.029,39.133,12,39,12H27
	C26.867,12,26.74,12.029,26.624,12.076z M26.001,35.005L32.421,24l-6.42-11.005C26.001,12.997,26,12.998,26,13v22
	C26,35.002,26.001,35.003,26.001,35.005z M39.376,35.924L33,24.993l-6.376,10.931C26.74,35.971,26.867,36,27,36h12
	C39.133,36,39.26,35.971,39.376,35.924z M40,13c0-0.002-0.001-0.003-0.001-0.005L33.579,24l6.42,11.005
	C39.999,35.003,40,35.002,40,35V13z M23,21.5c0-0.276-0.224-0.5-0.5-0.5H21v-9h1.5c0.276,0,0.5-0.224,0.5-0.5S22.776,11,22.5,11h-2
	c-0.276,0-0.5,0.224-0.5,0.5v10c0,0.276,0.224,0.5,0.5,0.5h2C22.776,22,23,21.776,23,21.5z M23,31.5c0-0.276-0.224-0.5-0.5-0.5H21
	v-3h1.5c0.276,0,0.5-0.224,0.5-0.5S22.776,27,22.5,27h-2c-0.276,0-0.5,0.224-0.5,0.5v4c0,0.276,0.224,0.5,0.5,0.5h2
	C22.776,32,23,31.776,23,31.5z M46,27.5v-6c0-0.276-0.224-0.5-0.5-0.5h-2c-0.276,0-0.5,0.224-0.5,0.5s0.224,0.5,0.5,0.5H45v5h-1.5
	c-0.276,0-0.5,0.224-0.5,0.5s0.224,0.5,0.5,0.5h2C45.776,28,46,27.776,46,27.5z M46,36.5v-5c0-0.276-0.224-0.5-0.5-0.5h-2
	c-0.276,0-0.5,0.224-0.5,0.5s0.224,0.5,0.5,0.5H45v4h-1.5c-0.276,0-0.5,0.224-0.5,0.5s0.224,0.5,0.5,0.5h2
	C45.776,37,46,36.776,46,36.5z M59,22.5c0-0.276-0.224-0.5-0.5-0.5h-10c-0.276,0-0.5,0.224-0.5,0.5s0.224,0.5,0.5,0.5h10
	C58.776,23,59,22.776,59,22.5z M59,24.5c0-0.276-0.224-0.5-0.5-0.5h-10c-0.276,0-0.5,0.224-0.5,0.5s0.224,0.5,0.5,0.5h10
	C58.776,25,59,24.776,59,24.5z M59,26.5c0-0.276-0.224-0.5-0.5-0.5h-10c-0.276,0-0.5,0.224-0.5,0.5s0.224,0.5,0.5,0.5h10
	C58.776,27,59,26.776,59,26.5z M59,31.5c0-0.276-0.224-0.5-0.5-0.5h-10c-0.276,0-0.5,0.224-0.5,0.5s0.224,0.5,0.5,0.5h10
	C58.776,32,59,31.776,59,31.5z M59,33.5c0-0.276-0.224-0.5-0.5-0.5h-10c-0.276,0-0.5,0.224-0.5,0.5s0.224,0.5,0.5,0.5h10
	C58.776,34,59,33.776,59,33.5z M59,35.5c0-0.276-0.224-0.5-0.5-0.5h-10c-0.276,0-0.5,0.224-0.5,0.5s0.224,0.5,0.5,0.5h10
	C58.776,36,59,35.776,59,35.5z M18,27.5c0-0.276-0.224-0.5-0.5-0.5h-10C7.224,27,7,27.224,7,27.5S7.224,28,7.5,28h10
	C17.776,28,18,27.776,18,27.5z M18,29.5c0-0.276-0.224-0.5-0.5-0.5h-10C7.224,29,7,29.224,7,29.5S7.224,30,7.5,30h10
	C17.776,30,18,29.776,18,29.5z M18,31.5c0-0.276-0.224-0.5-0.5-0.5h-10C7.224,31,7,31.224,7,31.5S7.224,32,7.5,32h10
	C17.776,32,18,31.776,18,31.5z M18,14.5c0-0.276-0.224-0.5-0.5-0.5h-10C7.224,14,7,14.224,7,14.5S7.224,15,7.5,15h10
	C17.776,15,18,14.776,18,14.5z M18,16.5c0-0.276-0.224-0.5-0.5-0.5h-10C7.224,16,7,16.224,7,16.5S7.224,17,7.5,17h10
	C17.776,17,18,16.776,18,16.5z M17,18.5c0-0.276-0.224-0.5-0.5-0.5h-9C7.224,18,7,18.224,7,18.5S7.224,19,7.5,19h9
	C16.776,19,17,18.776,17,18.5z"/>
</svg>
