<?xml version="1.0" encoding="utf-8"?>
<!-- Generator: Adobe Illustrator 19.2.1, SVG Export Plug-In . SVG Version: 6.00 Build 0)  -->
<svg version="1.1" id="icons" xmlns="http://www.w3.org/2000/svg" xmlns:xlink="http://www.w3.org/1999/xlink" x="0px" y="0px"
	 width="64px" height="64px" viewBox="0 0 64 64" style="enable-background:new 0 0 64 64;" xml:space="preserve">
<style type="text/css">
	.frame{fill:#FFFFFF;}
	.content{opacity:0.5;fill:#FFFFFF;}
</style>
<path class="content" d="M15.5,35h17c0.276,0,0.5-0.224,0.5-0.5S32.776,34,32.5,34h-17c-0.276,0-0.5,0.224-0.5,0.5
	S15.224,35,15.5,35z M48.5,39h-33c-0.276,0-0.5,0.224-0.5,0.5s0.224,0.5,0.5,0.5h33c0.276,0,0.5-0.224,0.5-0.5S48.776,39,48.5,39z
	 M15.5,43h33c0.276,0,0.5-0.224,0.5-0.5S48.776,42,48.5,42h-33c-0.276,0-0.5,0.224-0.5,0.5S15.224,43,15.5,43z M48.5,45h-33
	c-0.276,0-0.5,0.224-0.5,0.5s0.224,0.5,0.5,0.5h33c0.276,0,0.5-0.224,0.5-0.5S48.776,45,48.5,45z M15.5,49h33
	c0.276,0,0.5-0.224,0.5-0.5S48.776,48,48.5,48h-33c-0.276,0-0.5,0.224-0.5,0.5S15.224,49,15.5,49z M48.5,51h-33
	c-0.276,0-0.5,0.224-0.5,0.5s0.224,0.5,0.5,0.5h33c0.276,0,0.5-0.224,0.5-0.5S48.776,51,48.5,51z M43.5,54h-28
	c-0.276,0-0.5,0.224-0.5,0.5s0.224,0.5,0.5,0.5h28c0.276,0,0.5-0.224,0.5-0.5S43.776,54,43.5,54z M31,13H17c-1.105,0-2,0.895-2,2v14
	c0,1.105,0.895,2,2,2h14c1.105,0,2-0.895,2-2V15C33,13.895,32.105,13,31,13z M17,14h14c0.086,0,0.164,0.029,0.244,0.049L24,21.293
	l-7.244-7.244C16.836,14.029,16.914,14,17,14z M16,29V15c0-0.086,0.029-0.164,0.049-0.244L23.293,22l-7.244,7.244
	C16.029,29.164,16,29.086,16,29z M31,30H17c-0.086,0-0.164-0.029-0.244-0.049L24,22.707l7.244,7.244C31.164,29.971,31.086,30,31,30z
	 M32,29c0,0.086-0.029,0.164-0.049,0.244L24.707,22l7.244-7.244C31.971,14.836,32,14.914,32,15V29z"/>
<path class="frame" d="M54,4H42.723C42.376,3.405,41.738,3,41,3h-4l-1.406-2.109C35.223,0.334,34.598,0,33.93,0H30.07
	c-0.669,0-1.293,0.334-1.664,0.891L27,3h-4c-0.738,0-1.376,0.405-1.723,1H10C8.343,4,7,5.343,7,7v54c0,1.657,1.343,3,3,3h44
	c1.657,0,3-1.343,3-3V7C57,5.343,55.657,4,54,4z M22,5c0-0.551,0.449-1,1-1h4h0.535l0.297-0.445l1.406-2.109
	C29.424,1.166,29.735,1,30.07,1h3.859c0.335,0,0.646,0.166,0.832,0.445l1.406,2.109L36.465,4H37h4c0.551,0,1,0.449,1,1v3
	c0,0.551-0.449,1-1,1H23c-0.551,0-1-0.449-1-1V5z M23,10h18c1.105,0,2-0.895,2-2h9c0.551,0,1,0.449,1,1v50c0,0.551-0.449,1-1,1H12
	c-0.551,0-1-0.449-1-1V9c0-0.551,0.449-1,1-1h9C21,9.105,21.895,10,23,10z M56,61c0,1.103-0.897,2-2,2H10c-1.103,0-2-0.897-2-2V7
	c0-1.103,0.897-2,2-2h11v2h-9c-1.105,0-2,0.895-2,2v50c0,1.105,0.895,2,2,2h40c1.105,0,2-0.895,2-2V9c0-1.105-0.895-2-2-2h-9V5h11
	c1.103,0,2,0.897,2,2V61z"/>
</svg>
