<?xml version="1.0" encoding="utf-8"?>
<!-- Generator: Adobe Illustrator 22.0.1, SVG Export Plug-In . SVG Version: 6.00 Build 0)  -->
<svg version="1.1" id="icons" xmlns="http://www.w3.org/2000/svg" xmlns:xlink="http://www.w3.org/1999/xlink" x="0px" y="0px"
	 width="64px" height="64px" viewBox="0 0 64 64" style="enable-background:new 0 0 64 64;" xml:space="preserve">
<style type="text/css">
	.frame{fill:#FFFFFF;}
	.content{opacity:0.5;fill:#FFFFFF;}
</style>
<path class="frame" d="M60,4H4C2.343,4,1,5.343,1,7v43.375V50.9v2.475V53.9v3c0,1.657,1.343,3,3,3h56c1.657,0,3-1.343,3-3v-3v-0.525
	V50.9v-0.525V7C63,5.343,61.657,4,60,4z M2,7c0-1.103,0.897-2,2-2h56c1.103,0,2,0.897,2,2v43.9c0,1.103-0.897,2-2,2H4
	c-1.103,0-2-0.897-2-2V7z M2,53.121C2.532,53.6,3.228,53.9,4,53.9h56c0.772,0,1.468-0.3,2-0.779V53.9c0,1.103-0.897,2-2,2H4
	c-1.103,0-2-0.897-2-2V53.121z M60,58.9H4c-1.103,0-2-0.897-2-2v-0.779C2.532,56.6,3.228,56.9,4,56.9h56c0.772,0,1.468-0.3,2-0.779
	V56.9C62,58.003,61.103,58.9,60,58.9z"/>
<path class="content" d="M54,12.965v-0.208l-10,10l-4.707-4.707H26.707L9.708,35h43.585l-0.147-0.147
	c-0.098-0.097-0.146-0.225-0.146-0.353s0.048-0.256,0.146-0.353c0.195-0.196,0.512-0.196,0.707,0l1,0.999l0.108,0.163
	C54.987,35.37,55,35.435,55,35.5s-0.013,0.13-0.038,0.191l-0.108,0.163l-1,0.999c-0.195,0.196-0.512,0.196-0.707,0
	c-0.098-0.097-0.146-0.225-0.146-0.353s0.048-0.256,0.146-0.353L53.294,36H9c-0.552,0-1-0.448-1-1V12.757l-0.147,0.147
	C7.756,13.002,7.628,13.05,7.5,13.05s-0.256-0.048-0.353-0.146c-0.196-0.195-0.196-0.512,0-0.707l0.999-1l0.163-0.108
	c0.061-0.025,0.126-0.038,0.191-0.038s0.13,0.013,0.191,0.038l0.163,0.108l0.999,1c0.196,0.195,0.196,0.512,0,0.707
	C9.756,13.002,9.628,13.05,9.5,13.05s-0.256-0.048-0.353-0.146L9,12.757v21.537L26.293,17.05h13.414L44,21.343l9.293-9.293h-0.207
	c-0.276,0-0.5-0.224-0.5-0.5c0-0.276,0.224-0.5,0.5-0.5H54.5c0.276,0,0.5,0.224,0.5,0.5v1.414c0,0.138-0.056,0.263-0.146,0.354
	c-0.09,0.09-0.215,0.146-0.354,0.146C54.224,13.465,54,13.241,54,12.965z M15.5,45h-9C6.224,45,6,45.224,6,45.5S6.224,46,6.5,46h9
	c0.276,0,0.5-0.224,0.5-0.5S15.776,45,15.5,45z M15.5,47h-9C6.224,47,6,47.224,6,47.5S6.224,48,6.5,48h9c0.276,0,0.5-0.224,0.5-0.5
	S15.776,47,15.5,47z M15.5,43h-9C6.224,43,6,43.224,6,43.5S6.224,44,6.5,44h9c0.276,0,0.5-0.224,0.5-0.5S15.776,43,15.5,43z
	 M15.5,41h-9C6.224,41,6,41.224,6,41.5S6.224,42,6.5,42h9c0.276,0,0.5-0.224,0.5-0.5S15.776,41,15.5,41z M29.5,45h-9
	c-0.276,0-0.5,0.224-0.5,0.5s0.224,0.5,0.5,0.5h9c0.276,0,0.5-0.224,0.5-0.5S29.776,45,29.5,45z M29.5,47h-9
	c-0.276,0-0.5,0.224-0.5,0.5s0.224,0.5,0.5,0.5h9c0.276,0,0.5-0.224,0.5-0.5S29.776,47,29.5,47z M29.5,43h-9
	c-0.276,0-0.5,0.224-0.5,0.5s0.224,0.5,0.5,0.5h9c0.276,0,0.5-0.224,0.5-0.5S29.776,43,29.5,43z M29.5,41h-9
	c-0.276,0-0.5,0.224-0.5,0.5s0.224,0.5,0.5,0.5h9c0.276,0,0.5-0.224,0.5-0.5S29.776,41,29.5,41z M43.5,45h-9
	c-0.276,0-0.5,0.224-0.5,0.5s0.224,0.5,0.5,0.5h9c0.276,0,0.5-0.224,0.5-0.5S43.776,45,43.5,45z M43.5,47h-9
	c-0.276,0-0.5,0.224-0.5,0.5s0.224,0.5,0.5,0.5h9c0.276,0,0.5-0.224,0.5-0.5S43.776,47,43.5,47z M43.5,43h-9
	c-0.276,0-0.5,0.224-0.5,0.5s0.224,0.5,0.5,0.5h9c0.276,0,0.5-0.224,0.5-0.5S43.776,43,43.5,43z M57.5,45h-9
	c-0.276,0-0.5,0.224-0.5,0.5s0.224,0.5,0.5,0.5h9c0.276,0,0.5-0.224,0.5-0.5S57.776,45,57.5,45z M54.5,47h-6
	c-0.276,0-0.5,0.224-0.5,0.5s0.224,0.5,0.5,0.5h6c0.276,0,0.5-0.224,0.5-0.5S54.776,47,54.5,47z M57.5,43h-9
	c-0.276,0-0.5,0.224-0.5,0.5s0.224,0.5,0.5,0.5h9c0.276,0,0.5-0.224,0.5-0.5S57.776,43,57.5,43z M43.5,41h-9
	c-0.276,0-0.5,0.224-0.5,0.5s0.224,0.5,0.5,0.5h9c0.276,0,0.5-0.224,0.5-0.5S43.776,41,43.5,41z M57.5,41h-9
	c-0.276,0-0.5,0.224-0.5,0.5s0.224,0.5,0.5,0.5h9c0.276,0,0.5-0.224,0.5-0.5S57.776,41,57.5,41z"/>
</svg>
