<?xml version="1.0" encoding="utf-8"?>
<!-- Generator: Adobe Illustrator 22.0.1, SVG Export Plug-In . SVG Version: 6.00 Build 0)  -->
<svg version="1.1" id="icons" xmlns="http://www.w3.org/2000/svg" xmlns:xlink="http://www.w3.org/1999/xlink" x="0px" y="0px"
	 width="64px" height="64px" viewBox="0 0 64 64" style="enable-background:new 0 0 64 64;" xml:space="preserve">
<style type="text/css">
	.frame{fill:#FFFFFF;}
	.content{opacity:0.5;fill:#FFFFFF;}
</style>
<path class="content" d="M32,9.051c0.065,0,0.13,0.013,0.191,0.038l0.163,0.108l0.999,1c0.196,0.195,0.196,0.512,0,0.707
	C33.256,11.002,33.128,11.05,33,11.05s-0.256-0.048-0.353-0.146L32.5,10.757v17.794h23.793l-0.146-0.147
	c-0.195-0.195-0.195-0.512,0-0.707c0.097-0.098,0.225-0.146,0.353-0.146c0.128,0,0.256,0.048,0.354,0.146l0.999,1l0.109,0.163
	c0.05,0.122,0.05,0.259,0,0.382l-0.109,0.163l-0.999,0.999c-0.098,0.098-0.226,0.147-0.354,0.147c-0.128,0-0.256-0.049-0.353-0.147
	C56.049,30.306,56,30.179,56,30.051s0.049-0.256,0.147-0.354l0.146-0.146H32.5v17.793l0.147-0.147
	c0.097-0.097,0.225-0.146,0.353-0.146s0.256,0.049,0.353,0.146c0.196,0.196,0.196,0.512,0,0.708l-0.999,0.999l-0.163,0.108
	C32.13,49.038,32.065,49.05,32,49.05c-0.065,0-0.13-0.012-0.191-0.038l-0.163-0.108l-0.999-0.999c-0.196-0.196-0.196-0.512,0-0.708
	c0.097-0.097,0.225-0.146,0.353-0.146c0.128,0,0.256,0.049,0.353,0.146l0.147,0.147V29.551H7.707l0.146,0.146
	c0.195,0.195,0.195,0.512,0,0.707c-0.097,0.098-0.225,0.147-0.353,0.147s-0.256-0.049-0.354-0.147l-0.999-0.999l-0.109-0.163
	c-0.05-0.123-0.05-0.26,0-0.382l0.109-0.163l0.999-1c0.098-0.098,0.226-0.146,0.354-0.146s0.256,0.048,0.353,0.146
	C7.951,27.795,8,27.923,8,28.051c0,0.128-0.049,0.255-0.147,0.353l-0.146,0.147H31.5V10.757l-0.147,0.147
	C31.256,11.002,31.128,11.05,31,11.05c-0.128,0-0.256-0.048-0.353-0.146c-0.196-0.195-0.196-0.512,0-0.707l0.999-1l0.163-0.108
	C31.87,9.064,31.935,9.051,32,9.051 M38.5,36.05c0.828,0,1.5,0.672,1.5,1.5c0,0.828-0.672,1.5-1.5,1.5c-0.828,0-1.5-0.672-1.5-1.5
	C37,36.722,37.672,36.05,38.5,36.05 M38.5,38.05c0.276,0,0.5-0.224,0.5-0.5s-0.224-0.5-0.5-0.5c-0.276,0-0.5,0.224-0.5,0.5
	S38.224,38.05,38.5,38.05 M51.5,36.05h-10c-0.276,0-0.5,0.224-0.5,0.5s0.224,0.5,0.5,0.5h10c0.276,0,0.5-0.224,0.5-0.5
	S51.776,36.05,51.5,36.05 M51.5,38.05h-10c-0.276,0-0.5,0.224-0.5,0.5s0.224,0.5,0.5,0.5h10c0.276,0,0.5-0.224,0.5-0.5
	S51.776,38.05,51.5,38.05 M44.5,44.05c0.828,0,1.5,0.672,1.5,1.5c0,0.828-0.672,1.5-1.5,1.5c-0.828,0-1.5-0.672-1.5-1.5
	C43,44.722,43.672,44.05,44.5,44.05 M44.5,46.05c0.276,0,0.5-0.224,0.5-0.5c0-0.276-0.224-0.5-0.5-0.5c-0.276,0-0.5,0.224-0.5,0.5
	C44,45.826,44.224,46.05,44.5,46.05 M57.5,44.05h-10c-0.276,0-0.5,0.224-0.5,0.5c0,0.276,0.224,0.5,0.5,0.5h10
	c0.276,0,0.5-0.224,0.5-0.5C58,44.274,57.776,44.05,57.5,44.05 M57.5,46.05h-10c-0.276,0-0.5,0.224-0.5,0.5
	c0,0.276,0.224,0.5,0.5,0.5h10c0.276,0,0.5-0.224,0.5-0.5C58,46.274,57.776,46.05,57.5,46.05 M38.5,22.05c0.828,0,1.5,0.672,1.5,1.5
	c0,0.828-0.672,1.5-1.5,1.5c-0.828,0-1.5-0.672-1.5-1.5C37,22.722,37.672,22.05,38.5,22.05 M38.5,24.05c0.276,0,0.5-0.224,0.5-0.5
	c0-0.276-0.224-0.5-0.5-0.5c-0.276,0-0.5,0.224-0.5,0.5C38,23.826,38.224,24.05,38.5,24.05 M51.5,22.05h-10
	c-0.276,0-0.5,0.224-0.5,0.5c0,0.276,0.224,0.5,0.5,0.5h10c0.276,0,0.5-0.224,0.5-0.5C52,22.274,51.776,22.05,51.5,22.05
	 M51.5,24.05h-10c-0.276,0-0.5,0.224-0.5,0.5c0,0.276,0.224,0.5,0.5,0.5h10c0.276,0,0.5-0.224,0.5-0.5
	C52,24.274,51.776,24.05,51.5,24.05 M15.5,13.05c0.828,0,1.5,0.672,1.5,1.5c0,0.828-0.672,1.5-1.5,1.5c-0.828,0-1.5-0.672-1.5-1.5
	C14,13.722,14.672,13.05,15.5,13.05 M15.5,15.05c0.276,0,0.5-0.224,0.5-0.5c0-0.276-0.224-0.5-0.5-0.5c-0.276,0-0.5,0.224-0.5,0.5
	C15,14.826,15.224,15.05,15.5,15.05 M28.5,13.05h-10c-0.276,0-0.5,0.224-0.5,0.5c0,0.276,0.224,0.5,0.5,0.5h10
	c0.276,0,0.5-0.224,0.5-0.5C29,13.274,28.776,13.05,28.5,13.05 M28.5,15.05h-10c-0.276,0-0.5,0.224-0.5,0.5
	c0,0.276,0.224,0.5,0.5,0.5h10c0.276,0,0.5-0.224,0.5-0.5C29,15.274,28.776,15.05,28.5,15.05 M11.5,24.05c0.828,0,1.5,0.672,1.5,1.5
	c0,0.828-0.672,1.5-1.5,1.5c-0.828,0-1.5-0.672-1.5-1.5C10,24.722,10.672,24.05,11.5,24.05 M11.5,26.05c0.276,0,0.5-0.224,0.5-0.5
	c0-0.276-0.224-0.5-0.5-0.5c-0.276,0-0.5,0.224-0.5,0.5C11,25.826,11.224,26.05,11.5,26.05 M24.5,24.05h-10
	c-0.276,0-0.5,0.224-0.5,0.5c0,0.276,0.224,0.5,0.5,0.5h10c0.276,0,0.5-0.224,0.5-0.5C25,24.274,24.776,24.05,24.5,24.05
	 M24.5,26.05h-10c-0.276,0-0.5,0.224-0.5,0.5c0,0.276,0.224,0.5,0.5,0.5h10c0.276,0,0.5-0.224,0.5-0.5
	C25,26.274,24.776,26.05,24.5,26.05 M16.5,34.05c0.828,0,1.5,0.672,1.5,1.5c0,0.828-0.672,1.5-1.5,1.5c-0.828,0-1.5-0.672-1.5-1.5
	C15,34.722,15.672,34.05,16.5,34.05 M16.5,36.05c0.276,0,0.5-0.224,0.5-0.5s-0.224-0.5-0.5-0.5c-0.276,0-0.5,0.224-0.5,0.5
	S16.224,36.05,16.5,36.05 M29.5,34.05h-10c-0.276,0-0.5,0.224-0.5,0.5s0.224,0.5,0.5,0.5h10c0.276,0,0.5-0.224,0.5-0.5
	S29.776,34.05,29.5,34.05 M29.5,36.05h-10c-0.276,0-0.5,0.224-0.5,0.5s0.224,0.5,0.5,0.5h10c0.276,0,0.5-0.224,0.5-0.5
	S29.776,36.05,29.5,36.05 M12.5,42.05c0.828,0,1.5,0.672,1.5,1.5c0,0.828-0.672,1.5-1.5,1.5c-0.828,0-1.5-0.672-1.5-1.5
	C11,42.722,11.672,42.05,12.5,42.05 M12.5,44.05c0.276,0,0.5-0.224,0.5-0.5s-0.224-0.5-0.5-0.5c-0.276,0-0.5,0.224-0.5,0.5
	S12.224,44.05,12.5,44.05 M25.5,42.05h-10c-0.276,0-0.5,0.224-0.5,0.5s0.224,0.5,0.5,0.5h10c0.276,0,0.5-0.224,0.5-0.5
	S25.776,42.05,25.5,42.05 M25.5,44.05h-10c-0.276,0-0.5,0.224-0.5,0.5c0,0.276,0.224,0.5,0.5,0.5h10c0.276,0,0.5-0.224,0.5-0.5
	C26,44.274,25.776,44.05,25.5,44.05"/>
<path class="frame" d="M60,58.95H4c-1.103,0-2-0.897-2-2v-0.779c0.532,0.479,1.228,0.779,2,0.779h56c0.772,0,1.468-0.3,2-0.779
	v0.779C62,58.053,61.103,58.95,60,58.95 M2,53.171c0.532,0.479,1.228,0.779,2,0.779h56c0.772,0,1.468-0.3,2-0.779v0.779
	c0,1.103-0.897,2-2,2H4c-1.103,0-2-0.897-2-2V53.171z M2,7.05c0-1.103,0.897-2,2-2h56c1.103,0,2,0.897,2,2v43.9c0,1.103-0.897,2-2,2
	H4c-1.103,0-2-0.897-2-2V7.05z M60,4.05H4c-1.657,0-3,1.343-3,3v43.375v0.525v2.475v0.525v3c0,1.657,1.343,3,3,3h56
	c1.657,0,3-1.343,3-3v-3v-0.525V50.95v-0.525V7.05C63,5.393,61.657,4.05,60,4.05"/>
</svg>
