<svg xmlns="http://www.w3.org/2000/svg" width="64" height="64" viewBox="0 0 64 64"><style type="text/css">.frame{fill:#FFFFFF;} .content{opacity:0.5;fill:#FFFFFF;}</style><path class="frame" d="M60 4h-56c-1.657 0-3 1.343-3 3v49.9c0 1.657 1.343 3 3 3h56c1.657 0 3-1.343 3-3v-49.9c0-1.657-1.343-3-3-3zm-58 3c0-1.103.897-2 2-2h56c1.103 0 2 .897 2 2v43.9c0 1.103-.897 2-2 2h-56c-1.103 0-2-.897-2-2v-43.9zm0 46.121c.532.479 1.228.779 2 .779h56c.772 0 1.468-.3 2-.779v.779c0 1.103-.897 2-2 2h-56c-1.103 0-2-.897-2-2v-.779zm58 5.779h-56c-1.103 0-2-.897-2-2v-.779c.532.479 1.228.779 2 .779h56c.772 0 1.468-.3 2-.779v.779c0 1.103-.897 2-2 2z"/><path class="content" d="M19 11h-12c-1.105 0-2 .895-2 2v3c0 1.105.895 2 2 2h5.5v2h-5.5c-1.105 0-2 .895-2 2v3c0 1.105.895 2 2 2h5.5v2h-5.5c-1.105 0-2 .895-2 2v3c0 1.105.895 2 2 2h5.5v2h-5.5c-1.105 0-2 .895-2 2v3c0 1.105.895 2 2 2h12c1.105 0 2-.895 2-2v-3c0-1.105-.895-2-2-2h-5.5v-2h5.5c1.105 0 2-.895 2-2v-3c0-1.105-.895-2-2-2h-5.5v-2h5.5c1.105 0 2-.895 2-2v-3c0-1.105-.895-2-2-2h-5.5v-2h5.5c1.105 0 2-.895 2-2v-3c0-1.105-.895-2-2-2zm1 29v3c0 .551-.449 1-1 1h-12c-.551 0-1-.449-1-1v-3c0-.551.449-1 1-1h12c.551 0 1 .449 1 1zm0-9v3c0 .551-.449 1-1 1h-12c-.551 0-1-.449-1-1v-3c0-.551.449-1 1-1h12c.551 0 1 .449 1 1zm0-9v3c0 .551-.449 1-1 1h-12c-.551 0-1-.449-1-1v-3c0-.551.449-1 1-1h12c.551 0 1 .449 1 1zm0-6c0 .551-.449 1-1 1h-12c-.551 0-1-.449-1-1v-3c0-.551.449-1 1-1h12c.551 0 1 .449 1 1v3zm-2-2.5c0 .276-.224.5-.5.5h-9c-.276 0-.5-.224-.5-.5s.224-.5.5-.5h9c.276 0 .5.224.5.5zm-2 2c0 .276-.224.5-.5.5h-5c-.276 0-.5-.224-.5-.5s.224-.5.5-.5h5c.276 0 .5.224.5.5zm-8 7c0-.276.224-.5.5-.5h9c.276 0 .5.224.5.5s-.224.5-.5.5h-9c-.276 0-.5-.224-.5-.5zm8 2c0 .276-.224.5-.5.5h-5c-.276 0-.5-.224-.5-.5s.224-.5.5-.5h5c.276 0 .5.224.5.5zm-8 7c0-.276.224-.5.5-.5h9c.276 0 .5.224.5.5s-.224.5-.5.5h-9c-.276 0-.5-.224-.5-.5zm8 2c0 .276-.224.5-.5.5h-5c-.276 0-.5-.224-.5-.5s.224-.5.5-.5h5c.276 0 .5.224.5.5zm-8 7c0-.276.224-.5.5-.5h9c.276 0 .5.224.5.5s-.224.5-.5.5h-9c-.276 0-.5-.224-.5-.5zm8 2c0 .276-.224.5-.5.5h-5c-.276 0-.5-.224-.5-.5s.224-.5.5-.5h5c.276 0 .5.224.5.5zm22-31.5h-12c-1.105 0-2 .895-2 2v3c0 1.105.895 2 2 2h5.5v2h-5.5c-1.105 0-2 .895-2 2v3c0 1.105.895 2 2 2h12c1.105 0 2-.895 2-2v-3c0-1.105-.895-2-2-2h-5.5v-2h5.5c1.105 0 2-.895 2-2v-3c0-1.105-.895-2-2-2zm1 11v3c0 .551-.449 1-1 1h-12c-.551 0-1-.449-1-1v-3c0-.551.449-1 1-1h12c.551 0 1 .449 1 1zm0-6c0 .551-.449 1-1 1h-12c-.551 0-1-.449-1-1v-3c0-.551.449-1 1-1h12c.551 0 1 .449 1 1v3zm-2-2.5c0 .276-.224.5-.5.5h-9c-.276 0-.5-.224-.5-.5s.224-.5.5-.5h9c.276 0 .5.224.5.5zm-2 2c0 .276-.224.5-.5.5h-5c-.276 0-.5-.224-.5-.5s.224-.5.5-.5h5c.276 0 .5.224.5.5zm-8 7c0-.276.224-.5.5-.5h9c.276 0 .5.224.5.5s-.224.5-.5.5h-9c-.276 0-.5-.224-.5-.5zm8 2c0 .276-.224.5-.5.5h-5c-.276 0-.5-.224-.5-.5s.224-.5.5-.5h5c.276 0 .5.224.5.5zm22-6.5c1.105 0 2-.895 2-2v-3c0-1.105-.895-2-2-2h-12c-1.105 0-2 .895-2 2v3c0 1.105.895 2 2 2h5.5v2h-5.5c-1.105 0-2 .895-2 2v3c0 1.105.895 2 2 2h5.5v2h-5.5c-1.105 0-2 .895-2 2v3c0 1.105.895 2 2 2h12c1.105 0 2-.895 2-2v-3c0-1.105-.895-2-2-2h-5.5v-2h5.5c1.105 0 2-.895 2-2v-3c0-1.105-.895-2-2-2h-5.5v-2h5.5zm1 13v3c0 .551-.449 1-1 1h-12c-.551 0-1-.449-1-1v-3c0-.551.449-1 1-1h12c.551 0 1 .449 1 1zm0-9v3c0 .551-.449 1-1 1h-12c-.551 0-1-.449-1-1v-3c0-.551.449-1 1-1h12c.551 0 1 .449 1 1zm-14-6v-3c0-.551.449-1 1-1h12c.551 0 1 .449 1 1v3c0 .551-.449 1-1 1h-12c-.551 0-1-.449-1-1zm12-2.5c0 .276-.224.5-.5.5h-9c-.276 0-.5-.224-.5-.5s.224-.5.5-.5h9c.276 0 .5.224.5.5zm-2 2c0 .276-.224.5-.5.5h-5c-.276 0-.5-.224-.5-.5s.224-.5.5-.5h5c.276 0 .5.224.5.5zm-8 7c0-.276.224-.5.5-.5h9c.276 0 .5.224.5.5s-.224.5-.5.5h-9c-.276 0-.5-.224-.5-.5zm8 2c0 .276-.224.5-.5.5h-5c-.276 0-.5-.224-.5-.5s.224-.5.5-.5h5c.276 0 .5.224.5.5zm-8 7c0-.276.224-.5.5-.5h9c.276 0 .5.224.5.5s-.224.5-.5.5h-9c-.276 0-.5-.224-.5-.5zm8 2c0 .276-.224.5-.5.5h-5c-.276 0-.5-.224-.5-.5s.224-.5.5-.5h5c.276 0 .5.224.5.5z"/></svg>