<?xml version="1.0" encoding="utf-8"?>
<!-- Generator: Adobe Illustrator 19.2.1, SVG Export Plug-In . SVG Version: 6.00 Build 0)  -->
<svg version="1.1" id="icons" xmlns="http://www.w3.org/2000/svg" xmlns:xlink="http://www.w3.org/1999/xlink" x="0px" y="0px"
	 width="64px" height="64px" viewBox="0 0 64 64" style="enable-background:new 0 0 64 64;" xml:space="preserve">
<style type="text/css">
	.frame{fill:#FFFFFF;}
	.content{opacity:0.5;fill:#FFFFFF;}
</style>
<path class="frame" d="M60,3H4C2.343,3,1,4.343,1,6v45c0,1.657,1.343,3,3,3h21v6h-4.5c-0.276,0-0.5,0.224-0.5,0.5
	c0,0.276,0.224,0.5,0.5,0.5H25h14h4.5c0.276,0,0.5-0.224,0.5-0.5c0-0.276-0.224-0.5-0.5-0.5H39v-6h21c1.657,0,3-1.343,3-3V6
	C63,4.343,61.657,3,60,3z M38,60H26v-6h12V60z M62,51c0,1.103-0.897,2-2,2H39H25H4c-1.103,0-2-0.897-2-2v-6h60V51z M62,44H2V6
	c0-1.103,0.897-2,2-2h56c1.103,0,2,0.897,2,2V44z"/>
<path class="content" d="M29,17H9c-1.105,0-2,0.895-2,2v18c0,1.105,0.895,2,2,2h20c1.105,0,2-0.895,2-2V19
	C31,17.895,30.105,17,29,17z M30,19v18c0,0.097-0.03,0.185-0.055,0.274L19.744,28l10.201-9.274C29.97,18.815,30,18.903,30,19z
	 M29,18c0.074,0,0.14,0.027,0.21,0.042L19,27.324L8.79,18.042C8.86,18.027,8.926,18,9,18H29z M8.055,37.274
	C8.03,37.185,8,37.097,8,37V19c0-0.097,0.03-0.185,0.055-0.274L18.256,28L8.055,37.274z M9,38c-0.074,0-0.14-0.027-0.21-0.042
	L19,28.676l10.21,9.282C29.14,37.973,29.074,38,29,38H9z M38.854,17.854L37.707,19l1.146,1.146c0.195,0.195,0.195,0.512,0,0.707
	C38.756,20.951,38.628,21,38.5,21s-0.256-0.049-0.354-0.146L37,19.707l-1.146,1.146C35.756,20.951,35.628,21,35.5,21
	s-0.256-0.049-0.354-0.146c-0.195-0.195-0.195-0.512,0-0.707L36.293,19l-1.146-1.146c-0.195-0.195-0.195-0.512,0-0.707
	s0.512-0.195,0.707,0L37,18.293l1.146-1.146c0.195-0.195,0.512-0.195,0.707,0S39.049,17.658,38.854,17.854z M38.854,23.854
	L37.707,25l1.146,1.146c0.195,0.195,0.195,0.512,0,0.707C38.756,26.951,38.628,27,38.5,27s-0.256-0.049-0.354-0.146L37,25.707
	l-1.146,1.146C35.756,26.951,35.628,27,35.5,27s-0.256-0.049-0.354-0.146c-0.195-0.195-0.195-0.512,0-0.707L36.293,25l-1.146-1.146
	c-0.195-0.195-0.195-0.512,0-0.707s0.512-0.195,0.707,0L37,24.293l1.146-1.146c0.195-0.195,0.512-0.195,0.707,0
	S39.049,23.658,38.854,23.854z M38.854,33.854L37.707,35l1.146,1.146c0.195,0.195,0.195,0.512,0,0.707
	C38.756,36.951,38.628,37,38.5,37s-0.256-0.049-0.354-0.146L37,35.707l-1.146,1.146C35.756,36.951,35.628,37,35.5,37
	s-0.256-0.049-0.354-0.146c-0.195-0.195-0.195-0.512,0-0.707L36.293,35l-1.146-1.146c-0.195-0.195-0.195-0.512,0-0.707
	s0.512-0.195,0.707,0L37,34.293l1.146-1.146c0.195-0.195,0.512-0.195,0.707,0S39.049,33.658,38.854,33.854z M57,33.5
	c0,0.276-0.224,0.5-0.5,0.5h-15c-0.276,0-0.5-0.224-0.5-0.5s0.224-0.5,0.5-0.5h15C56.776,33,57,33.224,57,33.5z M57,35.5
	c0,0.276-0.224,0.5-0.5,0.5h-15c-0.276,0-0.5-0.224-0.5-0.5s0.224-0.5,0.5-0.5h15C56.776,35,57,35.224,57,35.5z M57,17.5
	c0,0.276-0.224,0.5-0.5,0.5h-15c-0.276,0-0.5-0.224-0.5-0.5s0.224-0.5,0.5-0.5h15C56.776,17,57,17.224,57,17.5z M39,9.5
	c0,0.276-0.224,0.5-0.5,0.5h-31C7.224,10,7,9.776,7,9.5S7.224,9,7.5,9h31C38.776,9,39,9.224,39,9.5z M7.5,12
	C7.224,12,7,11.776,7,11.5S7.224,11,7.5,11h15c0.276,0,0.5,0.224,0.5,0.5S22.776,12,22.5,12H7.5z M41,19.5
	c0-0.276,0.224-0.5,0.5-0.5h13c0.276,0,0.5,0.224,0.5,0.5S54.776,20,54.5,20h-13C41.224,20,41,19.776,41,19.5z M57,23.5
	c0,0.276-0.224,0.5-0.5,0.5h-15c-0.276,0-0.5-0.224-0.5-0.5s0.224-0.5,0.5-0.5h15C56.776,23,57,23.224,57,23.5z M57,25.5
	c0,0.276-0.224,0.5-0.5,0.5h-15c-0.276,0-0.5-0.224-0.5-0.5s0.224-0.5,0.5-0.5h15C56.776,25,57,25.224,57,25.5z M57,27.5
	c0,0.276-0.224,0.5-0.5,0.5h-15c-0.276,0-0.5-0.224-0.5-0.5s0.224-0.5,0.5-0.5h15C56.776,27,57,27.224,57,27.5z M41,29.5
	c0-0.276,0.224-0.5,0.5-0.5h10c0.276,0,0.5,0.224,0.5,0.5S51.776,30,51.5,30h-10C41.224,30,41,29.776,41,29.5z M45,13
	c1.105,0,2-0.895,2-2s-0.895-2-2-2s-2,0.895-2,2S43.895,13,45,13z M45,10c0.551,0,1,0.449,1,1s-0.449,1-1,1s-1-0.449-1-1
	S44.449,10,45,10z M50,13c1.105,0,2-0.895,2-2s-0.895-2-2-2s-2,0.895-2,2S48.895,13,50,13z M50,10c0.551,0,1,0.449,1,1s-0.449,1-1,1
	s-1-0.449-1-1S49.449,10,50,10z M55,13c1.105,0,2-0.895,2-2s-0.895-2-2-2s-2,0.895-2,2S53.895,13,55,13z M55,10c0.551,0,1,0.449,1,1
	s-0.449,1-1,1s-1-0.449-1-1S54.449,10,55,10z"/>
</svg>
