<?xml version="1.0" encoding="utf-8"?>
<!-- Generator: Adobe Illustrator 19.2.1, SVG Export Plug-In . SVG Version: 6.00 Build 0)  -->
<svg version="1.1" id="icons" xmlns="http://www.w3.org/2000/svg" xmlns:xlink="http://www.w3.org/1999/xlink" x="0px" y="0px"
	 width="64px" height="64px" viewBox="0 0 64 64" style="enable-background:new 0 0 64 64;" xml:space="preserve">
<style type="text/css">
	.frame{fill:#FFFFFF;}
	.content{opacity:0.5;fill:#FFFFFF;}
</style>
<path class="frame" d="M27,4c1.103,0,2,0.897,2,2v21c0,1.103-0.897,2-2,2H4c-1.103,0-2-0.897-2-2V6c0-1.103,0.897-2,2-2H27 M27,3H4
	C2.343,3,1,4.343,1,6v21c0,1.657,1.343,3,3,3h23c1.657,0,3-1.343,3-3V6C30,4.343,28.657,3,27,3L27,3z M27,35c1.103,0,2,0.897,2,2v21
	c0,1.103-0.897,2-2,2H4c-1.103,0-2-0.897-2-2V37c0-1.103,0.897-2,2-2H27 M27,34H4c-1.657,0-3,1.343-3,3v21c0,1.657,1.343,3,3,3h23
	c1.657,0,3-1.343,3-3V37C30,35.343,28.657,34,27,34L27,34z M60,4c1.103,0,2,0.897,2,2v21c0,1.103-0.897,2-2,2H37
	c-1.103,0-2-0.897-2-2V6c0-1.103,0.897-2,2-2H60 M60,3H37c-1.657,0-3,1.343-3,3v21c0,1.657,1.343,3,3,3h23c1.657,0,3-1.343,3-3V6
	C63,4.343,61.657,3,60,3L60,3z M60,35c1.103,0,2,0.897,2,2v21c0,1.103-0.897,2-2,2H37c-1.103,0-2-0.897-2-2V37c0-1.103,0.897-2,2-2
	H60 M60,34H37c-1.657,0-3,1.343-3,3v21c0,1.657,1.343,3,3,3h23c1.657,0,3-1.343,3-3V37C63,35.343,61.657,34,60,34L60,34z"/>
<path class="content" d="M58,55.5c0,0.276-0.224,0.5-0.5,0.5h-18c-0.276,0-0.5-0.224-0.5-0.5V41.404c0-0.276,0.224-0.5,0.5-0.5
	s0.5,0.224,0.5,0.5V47h2.325l4.863-3.891c0.153-0.122,0.362-0.143,0.536-0.057l3.854,1.927l5.84-0.973
	c0.272-0.047,0.53,0.139,0.575,0.411c0.045,0.272-0.139,0.53-0.411,0.575l-6,1c-0.105,0.016-0.212,0-0.306-0.046l-3.714-1.857
	l-4.75,3.8C42.724,47.961,42.614,48,42.5,48H40v1.14l2.44,0.813l4.803-2.882c0.146-0.088,0.328-0.095,0.481-0.019l3.815,1.907
	l5.803-1.934c0.264-0.087,0.545,0.054,0.632,0.316c0.087,0.262-0.054,0.545-0.316,0.632l-6,2c-0.125,0.044-0.263,0.033-0.382-0.027
	l-3.754-1.877l-4.765,2.859C42.679,50.976,42.59,51,42.5,51c-0.053,0-0.106-0.008-0.158-0.026L40,50.194v0.946l2.532,0.844
	l4.87-0.974c0.073-0.014,0.147-0.013,0.219,0.005l3.899,0.975l5.897-0.983c0.272-0.047,0.53,0.139,0.575,0.411
	c0.045,0.272-0.139,0.53-0.411,0.575l-6,1c-0.068,0.01-0.138,0.008-0.203-0.008l-3.891-0.973l-4.89,0.978
	C42.565,52.997,42.533,53,42.5,53c-0.054,0-0.107-0.009-0.158-0.026L40,52.194V55h17.5C57.776,55,58,55.224,58,55.5z M25,24.5
	c0,0.276-0.224,0.5-0.5,0.5h-18C6.224,25,6,24.776,6,24.5S6.224,24,6.5,24H8V14c0-0.552,0.448-1,1-1h1c0.552,0,1,0.448,1,1v10h1V12
	c0-0.552,0.448-1,1-1h1c0.552,0,1,0.448,1,1v12h1v-6c0-0.552,0.448-1,1-1h1c0.552,0,1,0.448,1,1v6h1v-8c0-0.552,0.448-1,1-1h1
	c0.552,0,1,0.448,1,1v8h1.5C24.776,24,25,24.224,25,24.5z M10,14H9v10h1V14z M14,12h-1v12h1V12z M18,18h-1v6h1V18z M22,16h-1v8h1V16
	z M57.5,24h-18c-0.276,0-0.5,0.224-0.5,0.5s0.224,0.5,0.5,0.5h18c0.276,0,0.5-0.224,0.5-0.5S57.776,24,57.5,24z M40,19
	c0.158,0,0.302-0.044,0.435-0.109l1.577,1.051C42.01,19.962,42,19.979,42,20c0,0.552,0.448,1,1,1s1-0.448,1-1
	c0-0.2-0.074-0.376-0.175-0.532l1.24-2.481c0.497-0.034,0.887-0.424,0.921-0.921l2.481-1.24C48.624,14.926,48.8,15,49,15
	c0.086,0,0.164-0.029,0.244-0.049l2.805,2.805C52.029,17.836,52,17.914,52,18c0,0.552,0.448,1,1,1s1-0.448,1-1
	c0-0.086-0.029-0.164-0.049-0.244l2.805-2.805C56.836,14.971,56.914,15,57,15c0.552,0,1-0.448,1-1c0-0.552-0.448-1-1-1s-1,0.448-1,1
	c0,0.086,0.029,0.164,0.049,0.244l-2.805,2.805C53.164,17.029,53.086,17,53,17s-0.164,0.029-0.244,0.049l-2.805-2.805
	C49.971,14.164,50,14.086,50,14c0-0.552-0.448-1-1-1c-0.529,0-0.951,0.414-0.987,0.934l-2.481,1.241C45.376,15.074,45.2,15,45,15
	c-0.552,0-1,0.448-1,1c0,0.2,0.074,0.376,0.175,0.532l-1.24,2.481c-0.132,0.009-0.256,0.041-0.369,0.096l-1.577-1.051
	C40.99,18.038,41,18.021,41,18c0-0.552-0.448-1-1-1s-1,0.448-1,1C39,18.552,39.448,19,40,19z M24,47.5c0,4.694-3.806,8.5-8.5,8.5
	S7,52.194,7,47.5c0-4.694,3.806-8.5,8.5-8.5S24,42.806,24,47.5z M16.752,54.887l-1.738-7.271c-0.006-0.024-0.002-0.047-0.005-0.071
	C15.008,47.53,15,47.516,15,47.5v-7.475c-3.902,0.259-7,3.508-7,7.475c0,4.135,3.365,7.5,7.5,7.5
	C15.927,55,16.344,54.956,16.752,54.887z M19.789,53.643l-3.285-4.093l1.222,5.113C18.471,54.43,19.164,54.081,19.789,53.643z
	 M22.975,48h-6.432l4.024,5.014C21.943,51.748,22.843,49.98,22.975,48z M22.975,47c-0.248-3.736-3.238-6.726-6.975-6.975V47H22.975z
	"/>
</svg>
