<?xml version="1.0" encoding="utf-8"?>
<!-- Generator: Adobe Illustrator 22.0.1, SVG Export Plug-In . SVG Version: 6.00 Build 0)  -->
<svg version="1.1" id="icons" xmlns="http://www.w3.org/2000/svg" xmlns:xlink="http://www.w3.org/1999/xlink" x="0px" y="0px"
	 width="64px" height="64px" viewBox="0 0 64 64" style="enable-background:new 0 0 64 64;" xml:space="preserve">
<style type="text/css">
	.frame{fill:#FFFFFF;}
	.content{opacity:0.5;fill:#FFFFFF;}
</style>
<path class="frame" d="M60,5c1.103,0,2,0.897,2,2v50c0,1.103-0.897,2-2,2H4c-1.103,0-2-0.897-2-2V7c0-1.103,0.897-2,2-2H60 M60,4H4
	C2.343,4,1,5.343,1,7v50c0,1.657,1.343,3,3,3h56c1.657,0,3-1.343,3-3V7C63,5.343,61.657,4,60,4L60,4z"/>
<path class="content" d="M21.663,19H10.5c-0.276,0-0.5-0.224-0.5-0.5s0.224-0.5,0.5-0.5h11.163c0.276,0,0.5,0.224,0.5,0.5
	S21.939,19,21.663,19z M21.663,17H10.5c-0.276,0-0.5-0.224-0.5-0.5s0.224-0.5,0.5-0.5h11.163c0.276,0,0.5,0.224,0.5,0.5
	S21.939,17,21.663,17z M21.663,15H10.5c-0.276,0-0.5-0.224-0.5-0.5s0.224-0.5,0.5-0.5h11.163c0.276,0,0.5,0.224,0.5,0.5
	S21.939,15,21.663,15z M22.163,20.5c0-0.276-0.224-0.5-0.5-0.5H10.5c-0.276,0-0.5,0.224-0.5,0.5s0.224,0.5,0.5,0.5h11.163
	C21.939,21,22.163,20.776,22.163,20.5z M22.163,22.5c0-0.276-0.224-0.5-0.5-0.5H10.5c-0.276,0-0.5,0.224-0.5,0.5s0.224,0.5,0.5,0.5
	h11.163C21.939,23,22.163,22.776,22.163,22.5z M22.163,24.5c0-0.276-0.224-0.5-0.5-0.5H10.5c-0.276,0-0.5,0.224-0.5,0.5
	s0.224,0.5,0.5,0.5h11.163C21.939,25,22.163,24.776,22.163,24.5z M34,44.417c0-0.276-0.224-0.5-0.5-0.5H22.337
	c-0.276,0-0.5,0.224-0.5,0.5s0.224,0.5,0.5,0.5H33.5C33.776,44.917,34,44.694,34,44.417z M34,42.417c0-0.276-0.224-0.5-0.5-0.5
	H22.337c-0.276,0-0.5,0.224-0.5,0.5s0.224,0.5,0.5,0.5H33.5C33.776,42.917,34,42.694,34,42.417z M34,40.417
	c0-0.276-0.224-0.5-0.5-0.5H22.337c-0.276,0-0.5,0.224-0.5,0.5s0.224,0.5,0.5,0.5H33.5C33.776,40.917,34,40.694,34,40.417z
	 M34,46.417c0-0.276-0.224-0.5-0.5-0.5H22.337c-0.276,0-0.5,0.224-0.5,0.5s0.224,0.5,0.5,0.5H33.5
	C33.776,46.917,34,46.694,34,46.417z M34,48.417c0-0.276-0.224-0.5-0.5-0.5H22.337c-0.276,0-0.5,0.224-0.5,0.5s0.224,0.5,0.5,0.5
	H33.5C33.776,48.917,34,48.694,34,48.417z M34,50.417c0-0.276-0.224-0.5-0.5-0.5H22.337c-0.276,0-0.5,0.224-0.5,0.5
	s0.224,0.5,0.5,0.5H33.5C33.776,50.917,34,50.694,34,50.417z M18.163,26.5c0-0.276-0.224-0.5-0.5-0.5H10.5
	c-0.276,0-0.5,0.224-0.5,0.5s0.224,0.5,0.5,0.5h7.163C17.939,27,18.163,26.776,18.163,26.5z M45.663,19H34.5
	c-0.276,0-0.5-0.224-0.5-0.5s0.224-0.5,0.5-0.5h11.163c0.276,0,0.5,0.224,0.5,0.5S45.939,19,45.663,19z M45.663,17H34.5
	c-0.276,0-0.5-0.224-0.5-0.5s0.224-0.5,0.5-0.5h11.163c0.276,0,0.5,0.224,0.5,0.5S45.939,17,45.663,17z M45.663,15H34.5
	c-0.276,0-0.5-0.224-0.5-0.5s0.224-0.5,0.5-0.5h11.163c0.276,0,0.5,0.224,0.5,0.5S45.939,15,45.663,15z M46.163,20.5
	c0-0.276-0.224-0.5-0.5-0.5H34.5c-0.276,0-0.5,0.224-0.5,0.5s0.224,0.5,0.5,0.5h11.163C45.939,21,46.163,20.776,46.163,20.5z
	 M46.163,22.5c0-0.276-0.224-0.5-0.5-0.5H34.5c-0.276,0-0.5,0.224-0.5,0.5s0.224,0.5,0.5,0.5h11.163
	C45.939,23,46.163,22.776,46.163,22.5z M46.163,24.5c0-0.276-0.224-0.5-0.5-0.5H34.5c-0.276,0-0.5,0.224-0.5,0.5s0.224,0.5,0.5,0.5
	h11.163C45.939,25,46.163,24.776,46.163,24.5z M42.163,26.5c0-0.276-0.224-0.5-0.5-0.5H34.5c-0.276,0-0.5,0.224-0.5,0.5
	s0.224,0.5,0.5,0.5h7.163C41.939,27,42.163,26.776,42.163,26.5z M30,52.417c0-0.276-0.224-0.5-0.5-0.5h-7.163
	c-0.276,0-0.5,0.224-0.5,0.5s0.224,0.5,0.5,0.5H29.5C29.776,52.917,30,52.694,30,52.417z M58,44.417c0-0.276-0.224-0.5-0.5-0.5
	H46.337c-0.276,0-0.5,0.224-0.5,0.5s0.224,0.5,0.5,0.5H57.5C57.776,44.917,58,44.694,58,44.417z M58,42.417
	c0-0.276-0.224-0.5-0.5-0.5H46.337c-0.276,0-0.5,0.224-0.5,0.5s0.224,0.5,0.5,0.5H57.5C57.776,42.917,58,42.694,58,42.417z
	 M58,40.417c0-0.276-0.224-0.5-0.5-0.5H46.337c-0.276,0-0.5,0.224-0.5,0.5s0.224,0.5,0.5,0.5H57.5
	C57.776,40.917,58,40.694,58,40.417z M58,46.417c0-0.276-0.224-0.5-0.5-0.5H46.337c-0.276,0-0.5,0.224-0.5,0.5s0.224,0.5,0.5,0.5
	H57.5C57.776,46.917,58,46.694,58,46.417z M58,48.417c0-0.276-0.224-0.5-0.5-0.5H46.337c-0.276,0-0.5,0.224-0.5,0.5
	s0.224,0.5,0.5,0.5H57.5C57.776,48.917,58,48.694,58,48.417z M58,50.417c0-0.276-0.224-0.5-0.5-0.5H46.337
	c-0.276,0-0.5,0.224-0.5,0.5s0.224,0.5,0.5,0.5H57.5C57.776,50.917,58,50.694,58,50.417z M54,52.417c0-0.276-0.224-0.5-0.5-0.5
	h-7.163c-0.276,0-0.5,0.224-0.5,0.5s0.224,0.5,0.5,0.5H53.5C53.776,52.917,54,52.694,54,52.417z M55.5,32
	c-0.658,0-1.212,0.427-1.414,1.017C54.057,33.012,54.031,33,54,33h-9c-0.031,0-0.057,0.012-0.086,0.017
	C44.712,32.427,44.158,32,43.5,32s-1.212,0.427-1.414,1.017C42.057,33.012,42.031,33,42,33h-9c-0.031,0-0.057,0.012-0.086,0.017
	C32.712,32.427,32.158,32,31.5,32s-1.212,0.427-1.414,1.017C30.057,33.012,30.031,33,30,33h-9c-0.031,0-0.057,0.012-0.086,0.017
	C20.712,32.427,20.158,32,19.5,32s-1.212,0.427-1.414,1.017C18.057,33.012,18.031,33,18,33H9c-0.031,0-0.057,0.012-0.086,0.017
	C8.712,32.427,8.158,32,7.5,32C6.672,32,6,32.672,6,33.5S6.672,35,7.5,35c0.658,0,1.212-0.427,1.414-1.017
	C8.943,33.988,8.969,34,9,34h9c0.031,0,0.057-0.012,0.086-0.017C18.288,34.573,18.842,35,19.5,35s1.212-0.427,1.414-1.017
	C20.943,33.988,20.969,34,21,34h9c0.031,0,0.057-0.012,0.086-0.017C30.288,34.573,30.842,35,31.5,35s1.212-0.427,1.414-1.017
	C32.943,33.988,32.969,34,33,34h9c0.031,0,0.057-0.012,0.086-0.017C42.288,34.573,42.842,35,43.5,35s1.212-0.427,1.414-1.017
	C44.943,33.988,44.969,34,45,34h9c0.031,0,0.057-0.012,0.086-0.017C54.288,34.573,54.842,35,55.5,35c0.828,0,1.5-0.672,1.5-1.5
	S56.328,32,55.5,32z M7.5,34C7.224,34,7,33.776,7,33.5S7.224,33,7.5,33S8,33.224,8,33.5S7.776,34,7.5,34z M19.5,34
	c-0.276,0-0.5-0.224-0.5-0.5s0.224-0.5,0.5-0.5s0.5,0.224,0.5,0.5S19.776,34,19.5,34z M31.5,34c-0.276,0-0.5-0.224-0.5-0.5
	s0.224-0.5,0.5-0.5s0.5,0.224,0.5,0.5S31.776,34,31.5,34z M43.5,34c-0.276,0-0.5-0.224-0.5-0.5s0.224-0.5,0.5-0.5s0.5,0.224,0.5,0.5
	S43.776,34,43.5,34z M55.5,34c-0.276,0-0.5-0.224-0.5-0.5s0.224-0.5,0.5-0.5s0.5,0.224,0.5,0.5S55.776,34,55.5,34z M32,30.5v-16
	c0-0.276-0.224-0.5-0.5-0.5S31,14.224,31,14.5v16c0,0.276,0.224,0.5,0.5,0.5S32,30.776,32,30.5z M20,52.5v-16
	c0-0.276-0.224-0.5-0.5-0.5S19,36.224,19,36.5v16c0,0.276,0.224,0.5,0.5,0.5S20,52.776,20,52.5z M44,52.5v-16
	c0-0.276-0.224-0.5-0.5-0.5S43,36.224,43,36.5v16c0,0.276,0.224,0.5,0.5,0.5S44,52.776,44,52.5z M8,30.5v-16
	C8,14.224,7.776,14,7.5,14S7,14.224,7,14.5v16C7,30.776,7.224,31,7.5,31S8,30.776,8,30.5z"/>
</svg>
