<svg xmlns="http://www.w3.org/2000/svg" width="64" height="64" viewBox="0 0 64 64"><style type="text/css">.frame{fill:#FFFFFF;} .content{opacity:0.5;fill:#FFFFFF;}</style><path class="frame" d="M60 3h-56c-1.657 0-3 1.343-3 3v45c0 1.657 1.343 3 3 3h21v6h-4.5c-.276 0-.5.224-.5.5s.224.5.5.5h23c.276 0 .5-.224.5-.5s-.224-.5-.5-.5h-4.5v-6h21c1.657 0 3-1.343 3-3v-45c0-1.657-1.343-3-3-3zm-22 57h-12v-6h12v6zm24-9c0 1.103-.897 2-2 2h-56c-1.103 0-2-.897-2-2v-6h60v6zm0-7h-60v-38c0-1.103.897-2 2-2h56c1.103 0 2 .897 2 2v38z"/><path class="content" d="M19 16h-12c-1.105 0-2 .895-2 2v16c0 1.105.895 2 2 2h12c1.105 0 2-.895 2-2v-16c0-1.105-.895-2-2-2zm-12 1h12c.112 0 .216.03.317.064l-6.317 8.122-6.317-8.121c.101-.035.205-.065.317-.065zm-1 17v-16l.03-.147 6.337 8.147-6.337 8.147-.03-.147zm13 1h-12c-.112 0-.216-.03-.317-.064l6.317-8.122 6.317 8.121c-.101.035-.205.065-.317.065zm1-1l-.03.147-6.337-8.147 6.337-8.147.03.147v16zm18-18h-12c-1.105 0-2 .895-2 2v16c0 1.105.895 2 2 2h12c1.105 0 2-.895 2-2v-16c0-1.105-.895-2-2-2zm-12 1h12c.112 0 .216.03.317.064l-6.317 8.122-6.317-8.121c.101-.035.205-.065.317-.065zm-1 17v-16l.03-.147 6.337 8.147-6.337 8.147-.03-.147zm13 1h-12c-.112 0-.216-.03-.317-.064l6.317-8.122 6.317 8.121c-.101.035-.205.065-.317.065zm1-1l-.03.147-6.337-8.147 6.337-8.147.03.147v16zm18-18h-12c-1.105 0-2 .895-2 2v16c0 1.105.895 2 2 2h12c1.105 0 2-.895 2-2v-16c0-1.105-.895-2-2-2zm-12 1h12c.112 0 .216.03.317.064l-6.317 8.122-6.317-8.121c.101-.035.205-.065.317-.065zm-1 17v-16l.03-.147 6.337 8.147-6.337 8.147-.03-.147zm13 1h-12c-.112 0-.216-.03-.317-.064l6.317-8.122 6.317 8.121c-.101.035-.205.065-.317.065zm1-1l-.03.147-6.337-8.147 6.337-8.147.03.147v16zm-48.5-25h-4c-.276 0-.5-.224-.5-.5s.224-.5.5-.5h4c.276 0 .5.224.5.5s-.224.5-.5.5zm0-2h-4c-.276 0-.5-.224-.5-.5s.224-.5.5-.5h4c.276 0 .5.224.5.5s-.224.5-.5.5zm0 4h-4c-.276 0-.5-.224-.5-.5s.224-.5.5-.5h4c.276 0 .5.224.5.5s-.224.5-.5.5zm49.271-.937c.195.195.195.512 0 .707-.098.098-.226.146-.354.146s-.256-.049-.354-.146l-1.605-1.605-1.605 1.605c-.098.098-.226.146-.354.146s-.256-.049-.354-.146c-.195-.195-.195-.512 0-.707l1.605-1.605-1.605-1.605c-.195-.195-.195-.512 0-.707s.512-.195.707 0l1.605 1.605 1.605-1.605c.195-.195.512-.195.707 0s.195.512 0 .707l-1.605 1.605 1.607 1.605zm-6 0c.195.195.195.512 0 .707-.098.098-.226.146-.354.146s-.256-.049-.354-.146l-1.605-1.605-1.605 1.605c-.098.098-.226.146-.354.146s-.256-.049-.354-.146c-.195-.195-.195-.512 0-.707l1.605-1.605-1.605-1.605c-.195-.195-.195-.512 0-.707s.512-.195.707 0l1.605 1.605 1.605-1.605c.195-.195.512-.195.707 0s.195.512 0 .707l-1.605 1.605 1.607 1.605zm-6 0c.195.195.195.512 0 .707-.098.098-.226.146-.354.146s-.256-.049-.354-.146l-1.605-1.605-1.605 1.605c-.098.098-.226.146-.354.146s-.256-.049-.354-.146c-.195-.195-.195-.512 0-.707l1.605-1.605-1.605-1.605c-.195-.195-.195-.512 0-.707s.512-.195.707 0l1.605 1.605 1.605-1.605c.195-.195.512-.195.707 0s.195.512 0 .707l-1.605 1.605 1.607 1.605zm-3.771 34.437v-3.5c0-1.105.895-2 2-2h12c1.105 0 2 .895 2 2v3.5h-1v-3.5l-.03-.147-2.837 3.647h-1.267l3.45-4.436c-.1-.034-.204-.064-.316-.064h-12c-.112 0-.216.03-.317.064l3.45 4.436h-1.267l-2.837-3.647-.029.147v3.5h-1zm-19 0v-3.5c0-1.105.895-2 2-2h12c1.105 0 2 .895 2 2v3.5h-1v-3.5l-.03-.147-2.837 3.647h-1.267l3.45-4.436c-.1-.034-.204-.064-.316-.064h-12c-.112 0-.216.03-.317.064l3.45 4.436h-1.267l-2.837-3.647-.029.147v3.5h-1zm-19 0v-3.5c0-1.105.895-2 2-2h12c1.105 0 2 .895 2 2v3.5h-1v-3.5l-.03-.147-2.837 3.647h-1.267l3.45-4.436c-.1-.034-.204-.064-.316-.064h-12c-.112 0-.216.03-.317.064l3.45 4.436h-1.266l-2.837-3.647-.03.147v3.5h-1z"/></svg>