<?xml version="1.0" encoding="utf-8"?>
<!-- Generator: Adobe Illustrator 19.2.1, SVG Export Plug-In . SVG Version: 6.00 Build 0)  -->
<svg version="1.1" id="icons" xmlns="http://www.w3.org/2000/svg" xmlns:xlink="http://www.w3.org/1999/xlink" x="0px" y="0px"
	 width="64px" height="64px" viewBox="0 0 64 64" style="enable-background:new 0 0 64 64;" xml:space="preserve">
<style type="text/css">
	.frame{fill:#FFFFFF;}
	.content{opacity:0.5;fill:#FFFFFF;}
</style>
<path class="content" d="M37.976,23.244l-16.488,0.162l-0.29,8.458l-0.998-0.099l0.286-8.349l-16.34,0.161l-0.089-0.999
	l16.464-0.162l0.287-8.372l0.999,0.061l-0.284,8.301l16.4-0.161L37.976,23.244z M59.834,11.245l-16.311,0.16l0.287-8.387
	l-1.001-0.014l-0.288,8.41l-16.296,0.16l-0.08,1.001l16.342-0.161l-0.293,8.557l-0.018,0.521l1.016-0.442l0.296-8.645l16.45-0.162
	L59.834,11.245z M58.426,51.231l-0.69-1.136l-11.877-2.084l-1.503,0.752L58.426,51.231z M34.017,46.949l-4.477-2.238l0.33,0.496
	L4.058,40.678L4.3,41.736l26.336,4.62l9.005,13.507l1.448,0.37l-9.092-13.638L34.017,46.949z M58.426,41.231l-0.69-1.136
	l-26.505-4.65l-4.059-6.089l-0.901,0.451l3.6,5.399L4.058,30.678L4.3,31.736l26.336,4.62l9.005,13.507l1.448,0.37l-9.092-13.638
	L58.426,41.231z"/>
<path class="frame" d="M59.425,10.211L44.791,2.894c-0.563-0.281-1.176-0.422-1.789-0.422s-1.226,0.141-1.789,0.422L26.58,10.211
	c-1.474,0.737-1.474,2.841,0,3.578l14.633,7.317c0.563,0.282,1.176,0.422,1.789,0.422s1.226-0.141,1.789-0.422l14.633-7.317
	C60.899,13.052,60.899,10.948,59.425,10.211z M58.977,12.894l-14.633,7.317c-0.414,0.207-0.878,0.317-1.342,0.317
	c-0.463,0-0.927-0.109-1.342-0.317l-14.633-7.317c-0.346-0.173-0.553-0.507-0.553-0.894c0-0.387,0.207-0.721,0.553-0.894
	l14.633-7.317c0.415-0.207,0.878-0.317,1.342-0.317c0.463,0,0.927,0.11,1.342,0.317l14.634,7.317
	c0.346,0.173,0.553,0.507,0.553,0.894C59.53,12.387,59.324,12.721,58.977,12.894z M57.422,39.211L33.001,27.001l4.424-2.212
	c1.474-0.737,1.474-2.841,0-3.578l-14.633-7.317c-0.563-0.281-1.176-0.422-1.789-0.422c-0.613,0-1.226,0.141-1.789,0.422
	L4.58,21.211c-1.474,0.737-1.474,2.841,0,3.578l4.421,2.211l-4.424,2.212c-1.474,0.737-1.474,2.841,0,3.578L11,36l-6.422,3.211
	c-1.474,0.737-1.474,2.841,0,3.578l34.633,17.317c0.563,0.282,1.176,0.422,1.789,0.422s1.226-0.141,1.789-0.422l14.633-7.317
	c1.474-0.737,1.474-2.841,0-3.578L51,46l6.422-3.211C58.896,42.052,58.896,39.948,57.422,39.211z M4.475,23
	c0-0.387,0.207-0.721,0.553-0.894l14.633-7.317c0.414-0.207,0.878-0.317,1.342-0.317c0.463,0,0.927,0.11,1.342,0.317l14.633,7.317
	c0.346,0.173,0.553,0.507,0.553,0.894c0,0.387-0.207,0.721-0.553,0.894l-14.633,7.317c-0.414,0.207-0.878,0.317-1.342,0.317
	c-0.463,0-0.927-0.109-1.342-0.317L5.027,23.894C4.681,23.721,4.475,23.387,4.475,23z M56.975,50.106
	c0.346,0.173,0.553,0.507,0.553,0.894c0,0.387-0.207,0.721-0.553,0.894l-14.633,7.317c-0.414,0.207-0.878,0.317-1.342,0.317
	s-0.927-0.109-1.342-0.317L5.025,41.894C4.679,41.721,4.472,41.387,4.472,41c0-0.387,0.207-0.721,0.553-0.894l7.093-3.547
	l27.093,13.547c0.563,0.282,1.176,0.422,1.789,0.422s1.226-0.141,1.789-0.422l7.093-3.547L56.975,50.106z M56.975,41.894
	l-14.633,7.317c-0.414,0.207-0.878,0.317-1.342,0.317s-0.927-0.109-1.342-0.317L5.025,31.894C4.679,31.721,4.472,31.387,4.472,31
	c0-0.387,0.207-0.721,0.553-0.894l5.094-2.547l9.094,4.547c0.563,0.282,1.176,0.422,1.789,0.422c0.613,0,1.226-0.141,1.789-0.422
	l9.092-4.546l25.092,12.546c0.346,0.173,0.553,0.507,0.553,0.894C57.528,41.387,57.321,41.721,56.975,41.894z"/>
</svg>
