<svg xmlns="http://www.w3.org/2000/svg" width="64" height="64" viewBox="0 0 64 64"><style type="text/css">.frame{fill:#FFFFFF;} .content{opacity:0.5;fill:#FFFFFF;}</style><path class="content" d="M38 9h-12c-1.105 0-2 .895-2 2v16c0 1.105.895 2 2 2h12c1.105 0 2-.895 2-2v-16c0-1.105-.895-2-2-2zm1 2v16l-.03.147-6.337-8.147 6.337-8.147.03.147zm-1-1c.112 0 .216.03.317.064l-6.317 8.122-6.317-8.121c.101-.035.205-.065.317-.065h12zm-12.97 17.147l-.03-.147v-16l.03-.147 6.337 8.147-6.337 8.147zm.97.853c-.112 0-.216-.03-.317-.064l6.317-8.122 6.317 8.121c-.101.035-.205.065-.317.065h-12zm-7-19h-12c-1.105 0-2 .895-2 2v16c0 1.105.895 2 2 2h12c1.105 0 2-.895 2-2v-16c0-1.105-.895-2-2-2zm1 2v16l-.03.147-6.337-8.147 6.337-8.147.03.147zm-1-1c.112 0 .216.03.317.064l-6.317 8.122-6.317-8.121c.101-.035.205-.065.317-.065h12zm-12.97 17.147l-.03-.147v-16l.03-.147 6.337 8.147-6.337 8.147zm.97.853c-.112 0-.216-.03-.317-.064l6.317-8.122 6.317 8.121c-.101.035-.205.065-.317.065h-12zm14 5.5c0 .276-.224.5-.5.5h-15c-.276 0-.5-.224-.5-.5s.224-.5.5-.5h15c.276 0 .5.224.5.5zm0 3c0 .276-.224.5-.5.5h-15c-.276 0-.5-.224-.5-.5s.224-.5.5-.5h15c.276 0 .5.224.5.5zm0 3c0 .276-.224.5-.5.5h-15c-.276 0-.5-.224-.5-.5s.224-.5.5-.5h15c.276 0 .5.224.5.5zm0 3c0 .276-.224.5-.5.5h-15c-.276 0-.5-.224-.5-.5s.224-.5.5-.5h15c.276 0 .5.224.5.5zm-4 3c0 .276-.224.5-.5.5h-11c-.276 0-.5-.224-.5-.5s.224-.5.5-.5h11c.276 0 .5.224.5.5zm23-12c0 .276-.224.5-.5.5h-15c-.276 0-.5-.224-.5-.5s.224-.5.5-.5h15c.276 0 .5.224.5.5zm0 3c0 .276-.224.5-.5.5h-15c-.276 0-.5-.224-.5-.5s.224-.5.5-.5h15c.276 0 .5.224.5.5zm0 3c0 .276-.224.5-.5.5h-15c-.276 0-.5-.224-.5-.5s.224-.5.5-.5h15c.276 0 .5.224.5.5zm0 3c0 .276-.224.5-.5.5h-15c-.276 0-.5-.224-.5-.5s.224-.5.5-.5h15c.276 0 .5.224.5.5zm-4 3c0 .276-.224.5-.5.5h-11c-.276 0-.5-.224-.5-.5s.224-.5.5-.5h11c.276 0 .5.224.5.5zm21-36.5h-12c-1.105 0-2 .895-2 2v16c0 1.105.895 2 2 2h12c1.105 0 2-.895 2-2v-16c0-1.105-.895-2-2-2zm1 2v16l-.03.147-6.337-8.147 6.337-8.147.03.147zm-1-1c.112 0 .216.03.317.064l-6.317 8.122-6.317-8.121c.101-.035.205-.065.317-.065h12zm-12.97 17.147l-.03-.147v-16l.03-.147 6.337 8.147-6.337 8.147zm.97.853c-.112 0-.216-.03-.317-.064l6.317-8.122 6.317 8.121c-.101.035-.205.065-.317.065h-12zm14 5.5c0 .276-.224.5-.5.5h-15c-.276 0-.5-.224-.5-.5s.224-.5.5-.5h15c.276 0 .5.224.5.5zm0 3c0 .276-.224.5-.5.5h-15c-.276 0-.5-.224-.5-.5s.224-.5.5-.5h15c.276 0 .5.224.5.5zm0 3c0 .276-.224.5-.5.5h-15c-.276 0-.5-.224-.5-.5s.224-.5.5-.5h15c.276 0 .5.224.5.5zm0 3c0 .276-.224.5-.5.5h-15c-.276 0-.5-.224-.5-.5s.224-.5.5-.5h15c.276 0 .5.224.5.5zm-4 3c0 .276-.224.5-.5.5h-11c-.276 0-.5-.224-.5-.5s.224-.5.5-.5h11c.276 0 .5.224.5.5zm-31.646-26.854c.195.195.195.512 0 .707l-1 1c-.098.098-.226.147-.354.147s-.256-.049-.354-.146c-.195-.195-.195-.512 0-.707l.647-.647-.646-.646c-.195-.195-.195-.512 0-.707s.512-.195.707 0l1 .999zm19 0c.195.195.195.512 0 .707l-1 1c-.098.098-.226.147-.354.147s-.256-.049-.354-.146c-.195-.195-.195-.512 0-.707l.647-.647-.646-.646c-.195-.195-.195-.512 0-.707s.512-.195.707 0l1 .999z"/><path class="frame" d="M60 4h-56c-1.657 0-3 1.343-3 3v49.9c0 1.657 1.343 3 3 3h56c1.657 0 3-1.343 3-3v-49.9c0-1.657-1.343-3-3-3zm-58 3c0-1.103.897-2 2-2h56c1.103 0 2 .897 2 2v43.9c0 1.103-.897 2-2 2h-56c-1.103 0-2-.897-2-2v-43.9zm0 46.121c.532.479 1.228.779 2 .779h56c.772 0 1.468-.3 2-.779v.779c0 1.103-.897 2-2 2h-56c-1.103 0-2-.897-2-2v-.779zm58 5.779h-56c-1.103 0-2-.897-2-2v-.779c.532.479 1.228.779 2 .779h56c.772 0 1.468-.3 2-.779v.779c0 1.103-.897 2-2 2z"/></svg>