<svg xmlns="http://www.w3.org/2000/svg" width="64" height="64" viewBox="0 0 64 64"><style type="text/css">.frame{fill:#FFFFFF;} .content{opacity:0.5;fill:#FFFFFF;}</style><path class="frame" d="M63 25v-20c0-1.657-1.343-3-3-3h-56c-1.657 0-3 1.343-3 3v20c0 1.657 1.343 3 3 3h16l-16 8c-1.657 0-3 1.343-3 3v20c0 1.657 1.343 3 3 3h56c1.657 0 3-1.343 3-3v-20c0-1.657-1.343-3-3-3h-16l16-8c1.657 0 3-1.343 3-3zm-3 12c1.103 0 2 .897 2 2v20c0 1.103-.897 2-2 2h-56c-1.103 0-2-.897-2-2v-20c0-1.103.897-2 2-2h56zm-18.236-1h-35.528l16-8h35.528l-16 8zm-19.764-9h-18c-1.103 0-2-.897-2-2v-20c0-1.103.897-2 2-2h56c1.103 0 2 .897 2 2v20c0 1.103-.897 2-2 2h-38z"/><path class="content" d="M15 8h-8c-1.105 0-2 .895-2 2v10c0 1.105.895 2 2 2h8c1.105 0 2-.895 2-2v-10c0-1.105-.895-2-2-2zm1 2v10l-.036.176-4.313-5.176 4.313-5.176.036.176zm-1-1c.106 0 .203.03.298.06l-4.298 5.159-4.298-5.159c.095-.03.192-.06.298-.06h8zm-8.964 11.176l-.036-.176v-10l.036-.176 4.313 5.176-4.313 5.176zm.964.824c-.106 0-.203-.03-.298-.06l4.298-5.159 4.298 5.158c-.095.031-.192.061-.298.061h-8zm14 1h8c1.105 0 2-.895 2-2v-10c0-1.105-.895-2-2-2h-8c-1.105 0-2 .895-2 2v10c0 1.105.895 2 2 2zm-1-2v-10l.036-.176 4.313 5.176-4.313 5.176-.036-.176zm1 1c-.106 0-.203-.03-.298-.06l4.298-5.159 4.298 5.158c-.095.031-.192.061-.298.061h-8zm8.964-11.176l.036.176v10l-.036.176-4.313-5.176 4.313-5.176zm-.964-.824c.106 0 .203.03.298.06l-4.298 5.159-4.298-5.159c.095-.03.192-.06.298-.06h8zm14-1h-8c-1.105 0-2 .895-2 2v10c0 1.105.895 2 2 2h8c1.105 0 2-.895 2-2v-10c0-1.105-.895-2-2-2zm1 2v10l-.036.176-4.313-5.176 4.313-5.176.036.176zm-1-1c.106 0 .203.03.298.06l-4.298 5.159-4.298-5.159c.095-.03.192-.06.298-.06h8zm-8.964 11.176l-.036-.176v-10l.036-.176 4.313 5.176-4.313 5.176zm.964.824c-.106 0-.203-.03-.298-.06l4.298-5.159 4.298 5.158c-.095.031-.192.061-.298.061h-8zm14 1h8c1.105 0 2-.895 2-2v-10c0-1.105-.895-2-2-2h-8c-1.105 0-2 .895-2 2v10c0 1.105.895 2 2 2zm-1-2v-10l.036-.176 4.313 5.176-4.313 5.176-.036-.176zm1 1c-.106 0-.203-.03-.298-.06l4.298-5.159 4.298 5.158c-.095.031-.192.061-.298.061h-8zm8.964-11.176l.036.176v10l-.036.176-4.313-5.176 4.313-5.176zm-.964-.824c.106 0 .203.03.298.06l-4.298 5.159-4.298-5.159c.095-.03.192-.06.298-.06h8zm-54-4c0-.552.448-1 1-1s1 .448 1 1-.448 1-1 1-1-.448-1-1zm4 0c0-.552.448-1 1-1s1 .448 1 1-.448 1-1 1-1-.448-1-1zm4 0c0-.552.448-1 1-1s1 .448 1 1-.448 1-1 1-1-.448-1-1zm6 0c0 .552-.448 1-1 1s-1-.448-1-1 .448-1 1-1 1 .448 1 1zm2 0c0-.552.448-1 1-1s1 .448 1 1-.448 1-1 1-1-.448-1-1zm4 0c0-.552.448-1 1-1s1 .448 1 1-.448 1-1 1-1-.448-1-1zm4 0c0-.552.448-1 1-1s1 .448 1 1-.448 1-1 1-1-.448-1-1zm4 0c0-.552.448-1 1-1s1 .448 1 1-.448 1-1 1-1-.448-1-1zm4 0c0-.552.448-1 1-1s1 .448 1 1-.448 1-1 1-1-.448-1-1zm4 0c0-.552.448-1 1-1s1 .448 1 1-.448 1-1 1-1-.448-1-1zm6 0c0 .552-.448 1-1 1s-1-.448-1-1 .448-1 1-1 1 .448 1 1zm2 0c0-.552.448-1 1-1s1 .448 1 1-.448 1-1 1-1-.448-1-1zm4 0c0-.552.448-1 1-1s1 .448 1 1-.448 1-1 1-1-.448-1-1zm4 0c0-.552.448-1 1-1s1 .448 1 1-.448 1-1 1-1-.448-1-1zm4 0c0-.552.448-1 1-1s1 .448 1 1-.448 1-1 1-1-.448-1-1zm-56 20c0-.552.448-1 1-1s1 .448 1 1-.448 1-1 1-1-.448-1-1zm4 0c0-.552.448-1 1-1s1 .448 1 1-.448 1-1 1-1-.448-1-1zm4 0c0-.552.448-1 1-1s1 .448 1 1-.448 1-1 1-1-.448-1-1zm6 0c0 .552-.448 1-1 1s-1-.448-1-1 .448-1 1-1 1 .448 1 1zm2 0c0-.552.448-1 1-1s1 .448 1 1-.448 1-1 1-1-.448-1-1zm6 0c0 .552-.448 1-1 1s-1-.448-1-1 .448-1 1-1 1 .448 1 1zm4 0c0 .552-.448 1-1 1s-1-.448-1-1 .448-1 1-1 1 .448 1 1zm4 0c0 .552-.448 1-1 1s-1-.448-1-1 .448-1 1-1 1 .448 1 1zm2 0c0-.552.448-1 1-1s1 .448 1 1-.448 1-1 1-1-.448-1-1zm4 0c0-.552.448-1 1-1s1 .448 1 1-.448 1-1 1-1-.448-1-1zm6 0c0 .552-.448 1-1 1s-1-.448-1-1 .448-1 1-1 1 .448 1 1zm2 0c0-.552.448-1 1-1s1 .448 1 1-.448 1-1 1-1-.448-1-1zm6 0c0 .552-.448 1-1 1s-1-.448-1-1 .448-1 1-1 1 .448 1 1zm4 0c0 .552-.448 1-1 1s-1-.448-1-1 .448-1 1-1 1 .448 1 1zm4 0c0 .552-.448 1-1 1s-1-.448-1-1 .448-1 1-1 1 .448 1 1zm-46 17h-8c-1.105 0-2 .895-2 2v10c0 1.105.895 2 2 2h8c1.105 0 2-.895 2-2v-10c0-1.105-.895-2-2-2zm1 2v10l-.036.176-4.313-5.176 4.313-5.176.036.176zm-1-1c.106 0 .203.03.298.06l-4.298 5.159-4.298-5.159c.095-.03.192-.06.298-.06h8zm-8.964 11.176l-.036-.176v-10l.036-.176 4.313 5.176-4.313 5.176zm.964.824c-.106 0-.203-.03-.298-.06l4.298-5.159 4.298 5.158c-.095.031-.192.061-.298.061h-8zm24-11c0-1.105-.895-2-2-2h-8c-1.105 0-2 .895-2 2v10c0 1.105.895 2 2 2h8c1.105 0 2-.895 2-2v-10zm-1 0v10l-.036.176-4.313-5.176 4.313-5.176.036.176zm-1-1c.106 0 .203.03.298.06l-4.298 5.159-4.298-5.158c.095-.031.192-.061.298-.061h8zm-8.964 11.176l-.036-.176v-10l.036-.176 4.313 5.176-4.313 5.176zm.964.824c-.106 0-.203-.03-.298-.06l4.298-5.159 4.298 5.158c-.095.031-.192.061-.298.061h-8zm22-13h-8c-1.105 0-2 .895-2 2v10c0 1.105.895 2 2 2h8c1.105 0 2-.895 2-2v-10c0-1.105-.895-2-2-2zm1 2v10l-.036.176-4.313-5.176 4.313-5.176.036.176zm-1-1c.106 0 .203.03.298.06l-4.298 5.159-4.298-5.158c.095-.031.192-.061.298-.061h8zm-8.964 11.176l-.036-.176v-10l.036-.176 4.313 5.176-4.313 5.176zm.964.824c-.106 0-.203-.03-.298-.06l4.298-5.159 4.298 5.158c-.095.031-.192.061-.298.061h-8zm24-11c0-1.105-.895-2-2-2h-8c-1.105 0-2 .895-2 2v10c0 1.105.895 2 2 2h8c1.105 0 2-.895 2-2v-10zm-1 0v10l-.036.176-4.313-5.176 4.313-5.176.036.176zm-1-1c.106 0 .203.03.298.06l-4.298 5.159-4.298-5.158c.095-.031.192-.061.298-.061h8zm-8.964 11.176l-.036-.176v-10l.036-.176 4.313 5.176-4.313 5.176zm.964.824c-.106 0-.203-.03-.298-.06l4.298-5.159 4.298 5.158c-.095.031-.192.061-.298.061h-8zm-46-16c0-.552.448-1 1-1s1 .448 1 1-.448 1-1 1-1-.448-1-1zm4 0c0-.552.448-1 1-1s1 .448 1 1-.448 1-1 1-1-.448-1-1zm4 0c0-.552.448-1 1-1s1 .448 1 1-.448 1-1 1-1-.448-1-1zm6 0c0 .552-.448 1-1 1s-1-.448-1-1 .448-1 1-1 1 .448 1 1zm2 0c0-.552.448-1 1-1s1 .448 1 1-.448 1-1 1-1-.448-1-1zm6 0c0 .552-.448 1-1 1s-1-.448-1-1 .448-1 1-1 1 .448 1 1zm4 0c0 .552-.448 1-1 1s-1-.448-1-1 .448-1 1-1 1 .448 1 1zm4 0c0 .552-.448 1-1 1s-1-.448-1-1 .448-1 1-1 1 .448 1 1zm2 0c0-.552.448-1 1-1s1 .448 1 1-.448 1-1 1-1-.448-1-1zm4 0c0-.552.448-1 1-1s1 .448 1 1-.448 1-1 1-1-.448-1-1zm6 0c0 .552-.448 1-1 1s-1-.448-1-1 .448-1 1-1 1 .448 1 1zm2 0c0-.552.448-1 1-1s1 .448 1 1-.448 1-1 1-1-.448-1-1zm6 0c0 .552-.448 1-1 1s-1-.448-1-1 .448-1 1-1 1 .448 1 1zm4 0c0 .552-.448 1-1 1s-1-.448-1-1 .448-1 1-1 1 .448 1 1zm4 0c0 .552-.448 1-1 1s-1-.448-1-1 .448-1 1-1 1 .448 1 1zm-56 20c0 .552-.448 1-1 1s-1-.448-1-1 .448-1 1-1 1 .448 1 1zm4 0c0 .552-.448 1-1 1s-1-.448-1-1 .448-1 1-1 1 .448 1 1zm4 0c0 .552-.448 1-1 1s-1-.448-1-1 .448-1 1-1 1 .448 1 1zm4 0c0 .552-.448 1-1 1s-1-.448-1-1 .448-1 1-1 1 .448 1 1zm4 0c0 .552-.448 1-1 1s-1-.448-1-1 .448-1 1-1 1 .448 1 1zm4 0c0 .552-.448 1-1 1s-1-.448-1-1 .448-1 1-1 1 .448 1 1zm4 0c0 .552-.448 1-1 1s-1-.448-1-1 .448-1 1-1 1 .448 1 1zm4 0c0 .552-.448 1-1 1s-1-.448-1-1 .448-1 1-1 1 .448 1 1zm4 0c0 .552-.448 1-1 1s-1-.448-1-1 .448-1 1-1 1 .448 1 1zm4 0c0 .552-.448 1-1 1s-1-.448-1-1 .448-1 1-1 1 .448 1 1zm4 0c0 .552-.448 1-1 1s-1-.448-1-1 .448-1 1-1 1 .448 1 1zm4 0c0 .552-.448 1-1 1s-1-.448-1-1 .448-1 1-1 1 .448 1 1zm4 0c0 .552-.448 1-1 1s-1-.448-1-1 .448-1 1-1 1 .448 1 1zm4 0c0 .552-.448 1-1 1s-1-.448-1-1 .448-1 1-1 1 .448 1 1zm4 0c0 .552-.448 1-1 1s-1-.448-1-1 .448-1 1-1 1 .448 1 1z"/></svg>