<?xml version="1.0" encoding="utf-8"?>
<!-- Generator: Adobe Illustrator 19.2.1, SVG Export Plug-In . SVG Version: 6.00 Build 0)  -->
<svg version="1.1" id="icons" xmlns="http://www.w3.org/2000/svg" xmlns:xlink="http://www.w3.org/1999/xlink" x="0px" y="0px"
	 width="64px" height="64px" viewBox="0 0 64 64" style="enable-background:new 0 0 64 64;" xml:space="preserve">
<style type="text/css">
	.frame{fill:#FFFFFF;}
	.content{opacity:0.5;fill:#FFFFFF;}
</style>
<path class="frame" d="M60,3H4C2.343,3,1,4.343,1,6v45c0,1.657,1.343,3,3,3h21v6h-4.5c-0.276,0-0.5,0.224-0.5,0.5
	c0,0.276,0.224,0.5,0.5,0.5H25h14h4.5c0.276,0,0.5-0.224,0.5-0.5c0-0.276-0.224-0.5-0.5-0.5H39v-6h21c1.657,0,3-1.343,3-3V6
	C63,4.343,61.657,3,60,3z M38,60H26v-6h12V60z M62,51c0,1.103-0.897,2-2,2H39H25H4c-1.103,0-2-0.897-2-2v-6h60V51z M62,44H2V6
	c0-1.103,0.897-2,2-2h56c1.103,0,2,0.897,2,2V44z"/>
<path class="content" d="M29,7H7C5.895,7,5,7.895,5,9v12c0,1.105,0.895,2,2,2h22c1.105,0,2-0.895,2-2V9C31,7.895,30.105,7,29,7z
	 M7,8h22c0.002,0,0.003,0.001,0.005,0.001L18,14.421L6.995,8.001C6.997,8.001,6.998,8,7,8z M6,21V9c0-0.133,0.029-0.26,0.076-0.376
	L17.007,15L6.076,21.376C6.029,21.26,6,21.133,6,21z M29,22H7c-0.002,0-0.003-0.001-0.005-0.001L18,15.579l11.005,6.42
	C29.003,21.999,29.002,22,29,22z M30,21c0,0.133-0.029,0.26-0.076,0.376L18.993,15l10.931-6.376C29.971,8.74,30,8.867,30,9V21z
	 M57,7H35c-1.105,0-2,0.895-2,2v12c0,1.105,0.895,2,2,2h22c1.105,0,2-0.895,2-2V9C59,7.895,58.105,7,57,7z M35,8h22
	c0.002,0,0.003,0.001,0.005,0.001L46,14.421l-11.005-6.42C34.997,8.001,34.998,8,35,8z M34,21V9c0-0.133,0.029-0.26,0.076-0.376
	L45.007,15l-10.931,6.376C34.029,21.26,34,21.133,34,21z M57,22H35c-0.002,0-0.003-0.001-0.005-0.001L46,15.579l11.005,6.42
	C57.003,21.999,57.002,22,57,22z M58,21c0,0.133-0.029,0.26-0.076,0.376L46.993,15l10.931-6.376C57.971,8.74,58,8.867,58,9V21z
	 M29,25H7c-1.105,0-2,0.895-2,2v12c0,1.105,0.895,2,2,2h22c1.105,0,2-0.895,2-2V27C31,25.895,30.105,25,29,25z M7,26h22
	c0.002,0,0.003,0.001,0.005,0.001L18,32.421l-11.005-6.42C6.997,26.001,6.998,26,7,26z M6,39V27c0-0.133,0.029-0.26,0.076-0.376
	L17.007,33L6.076,39.376C6.029,39.26,6,39.133,6,39z M29,40H7c-0.002,0-0.003-0.001-0.005-0.001L18,33.579l11.005,6.42
	C29.003,39.999,29.002,40,29,40z M30,39c0,0.133-0.029,0.26-0.076,0.376L18.993,33l10.931-6.376C29.971,26.74,30,26.867,30,27V39z
	 M57,25H35c-1.105,0-2,0.895-2,2v12c0,1.105,0.895,2,2,2h22c1.105,0,2-0.895,2-2V27C59,25.895,58.105,25,57,25z M35,26h22
	c0.002,0,0.003,0.001,0.005,0.001L46,32.421l-11.005-6.42C34.997,26.001,34.998,26,35,26z M34,39V27c0-0.133,0.029-0.26,0.076-0.376
	L45.007,33l-10.931,6.376C34.029,39.26,34,39.133,34,39z M57,40H35c-0.002,0-0.003-0.001-0.005-0.001L46,33.579l11.005,6.42
	C57.003,39.999,57.002,40,57,40z M58,39c0,0.133-0.029,0.26-0.076,0.376L46.993,33l10.931-6.376C57.971,26.74,58,26.867,58,27V39z"
	/>
</svg>
