<svg xmlns="http://www.w3.org/2000/svg" width="64" height="64" viewBox="0 0 64 64"><style type="text/css">.frame{fill:#FFFFFF;} .content{opacity:0.5;fill:#FFFFFF;}</style><path class="content" d="M15.5 35h17c.276 0 .5-.224.5-.5s-.224-.5-.5-.5h-17c-.276 0-.5.224-.5.5s.224.5.5.5zm33 4h-33c-.276 0-.5.224-.5.5s.224.5.5.5h33c.276 0 .5-.224.5-.5s-.224-.5-.5-.5zm-33 4h33c.276 0 .5-.224.5-.5s-.224-.5-.5-.5h-33c-.276 0-.5.224-.5.5s.224.5.5.5zm33 2h-33c-.276 0-.5.224-.5.5s.224.5.5.5h33c.276 0 .5-.224.5-.5s-.224-.5-.5-.5zm-33 4h33c.276 0 .5-.224.5-.5s-.224-.5-.5-.5h-33c-.276 0-.5.224-.5.5s.224.5.5.5zm33 2h-33c-.276 0-.5.224-.5.5s.224.5.5.5h33c.276 0 .5-.224.5-.5s-.224-.5-.5-.5zm-5 3h-28c-.276 0-.5.224-.5.5s.224.5.5.5h28c.276 0 .5-.224.5-.5s-.224-.5-.5-.5zm-12.5-41h-14c-1.105 0-2 .895-2 2v14c0 1.105.895 2 2 2h14c1.105 0 2-.895 2-2v-14c0-1.105-.895-2-2-2zm-14 1h14l.244.049-7.244 7.244-7.244-7.244.244-.049zm-1 15v-14l.049-.244 7.244 7.244-7.244 7.244-.049-.244zm15 1h-14l-.244-.049 7.244-7.244 7.244 7.244-.244.049zm1-1l-.049.244-7.244-7.244 7.244-7.244.049.244v14z"/><path class="frame" d="M54 4h-11.277c-.347-.595-.985-1-1.723-1h-4l-1.406-2.109c-.371-.557-.996-.891-1.664-.891h-3.86c-.669 0-1.293.334-1.664.891l-1.406 2.109h-4c-.738 0-1.376.405-1.723 1h-11.277c-1.657 0-3 1.343-3 3v54c0 1.657 1.343 3 3 3h44c1.657 0 3-1.343 3-3v-54c0-1.657-1.343-3-3-3zm-32 1c0-.551.449-1 1-1h4.535l.297-.445 1.406-2.109c.186-.28.497-.446.832-.446h3.859c.335 0 .646.166.832.445l1.406 2.109.298.446h4.535c.551 0 1 .449 1 1v3c0 .551-.449 1-1 1h-18c-.551 0-1-.449-1-1v-3zm1 5h18c1.105 0 2-.895 2-2h9c.551 0 1 .449 1 1v50c0 .551-.449 1-1 1h-40c-.551 0-1-.449-1-1v-50c0-.551.449-1 1-1h9c0 1.105.895 2 2 2zm33 51c0 1.103-.897 2-2 2h-44c-1.103 0-2-.897-2-2v-54c0-1.103.897-2 2-2h11v2h-9c-1.105 0-2 .895-2 2v50c0 1.105.895 2 2 2h40c1.105 0 2-.895 2-2v-50c0-1.105-.895-2-2-2h-9v-2h11c1.103 0 2 .897 2 2v54z"/></svg>