<svg xmlns="http://www.w3.org/2000/svg" width="64" height="64" viewBox="0 0 64 64"><style type="text/css">.frame{fill:#FFFFFF;} .content{opacity:0.5;fill:#FFFFFF;}</style><path class="content" d="M19 11h-12c-1.105 0-2 .895-2 2v16c0 1.105.895 2 2 2h12c1.105 0 2-.895 2-2v-16c0-1.105-.895-2-2-2zm1 2v16l-.03.147-6.337-8.147 6.337-8.147.03.147zm-1-1c.112 0 .216.03.317.064l-6.317 8.122-6.317-8.121c.101-.035.205-.065.317-.065h12zm-12.97 17.147l-.03-.147v-16l.03-.147 6.337 8.147-6.337 8.147zm.97.853c-.112 0-.216-.03-.317-.064l6.317-8.122 6.317 8.121c-.101.035-.205.065-.317.065h-12zm14 5.5c0 .276-.224.5-.5.5h-15c-.276 0-.5-.224-.5-.5s.224-.5.5-.5h15c.276 0 .5.224.5.5zm0 3c0 .276-.224.5-.5.5h-15c-.276 0-.5-.224-.5-.5s.224-.5.5-.5h15c.276 0 .5.224.5.5zm-4 3c0 .276-.224.5-.5.5h-11c-.276 0-.5-.224-.5-.5s.224-.5.5-.5h11c.276 0 .5.224.5.5zm34-30.5h-12c-1.105 0-2 .895-2 2v16c0 1.105.895 2 2 2h12c1.105 0 2-.895 2-2v-16c0-1.105-.895-2-2-2zm1 2v16l-.03.147-6.337-8.147 6.337-8.147.03.147zm-1-1c.112 0 .216.03.317.064l-6.317 8.122-6.317-8.121c.101-.035.205-.065.317-.065h12zm-12.97 17.147l-.03-.147v-16l.03-.147 6.337 8.147-6.337 8.147zm.97.853c-.112 0-.216-.03-.317-.064l6.317-8.122 6.317 8.121c-.101.035-.205.065-.317.065h-12zm14 5.5c0 .276-.224.5-.5.5h-15c-.276 0-.5-.224-.5-.5s.224-.5.5-.5h15c.276 0 .5.224.5.5zm0 3c0 .276-.224.5-.5.5h-15c-.276 0-.5-.224-.5-.5s.224-.5.5-.5h15c.276 0 .5.224.5.5zm-4 3c0 .276-.224.5-.5.5h-11c-.276 0-.5-.224-.5-.5s.224-.5.5-.5h11c.276 0 .5.224.5.5z"/><path class="frame" d="M22 8c1.103 0 2 .897 2 2v38c0 1.103-.897 2-2 2h-18c-1.103 0-2-.897-2-2v-38c0-1.103.897-2 2-2h18m0-1h-18c-1.657 0-3 1.343-3 3v38c0 1.657 1.343 3 3 3h18c1.657 0 3-1.343 3-3v-38c0-1.657-1.343-3-3-3zm3 3h-.5v1h.5c1.103 0 2 .897 2 2v38c0 1.103-.897 2-2 2h-18c-1.103 0-2-.897-2-2v-.5h-1v.5c0 1.657 1.343 3 3 3h18c1.657 0 3-1.343 3-3v-38c0-1.657-1.343-3-3-3zm3 3h-.5v1h.5c1.103 0 2 .897 2 2v38c0 1.103-.897 2-2 2h-18c-1.103 0-2-.897-2-2v-.5h-1v.5c0 1.657 1.343 3 3 3h18c1.657 0 3-1.343 3-3v-38c0-1.657-1.343-3-3-3zm26-5c1.103 0 2 .897 2 2v38c0 1.103-.897 2-2 2h-18c-1.103 0-2-.897-2-2v-38c0-1.103.897-2 2-2h18m0-1h-18c-1.657 0-3 1.343-3 3v38c0 1.657 1.343 3 3 3h18c1.657 0 3-1.343 3-3v-38c0-1.657-1.343-3-3-3zm3 3h-.5v1h.5c1.103 0 2 .897 2 2v38c0 1.103-.897 2-2 2h-18c-1.103 0-2-.897-2-2v-.5h-1v.5c0 1.657 1.343 3 3 3h18c1.657 0 3-1.343 3-3v-38c0-1.657-1.343-3-3-3zm3 3h-.5v1h.5c1.103 0 2 .897 2 2v38c0 1.103-.897 2-2 2h-18c-1.103 0-2-.897-2-2v-.5h-1v.5c0 1.657 1.343 3 3 3h18c1.657 0 3-1.343 3-3v-38c0-1.657-1.343-3-3-3z"/></svg>