<svg xmlns="http://www.w3.org/2000/svg" width="64" height="64" viewBox="0 0 64 64"><style type="text/css">.frame{fill:#FFFFFF;} .content{opacity:0.5;fill:#FFFFFF;}</style><path class="frame" d="M60 3h-56c-1.657 0-3 1.343-3 3v45c0 1.657 1.343 3 3 3h21v6h-4.5c-.276 0-.5.224-.5.5s.224.5.5.5h23c.276 0 .5-.224.5-.5s-.224-.5-.5-.5h-4.5v-6h21c1.657 0 3-1.343 3-3v-45c0-1.657-1.343-3-3-3zm-22 57h-12v-6h12v6zm24-9c0 1.103-.897 2-2 2h-56c-1.103 0-2-.897-2-2v-6h60v6zm0-7h-60v-38c0-1.103.897-2 2-2h56c1.103 0 2 .897 2 2v38z"/><path class="content" d="M14 8h-6c-1.105 0-2 .895-2 2v6c0 1.105.895 2 2 2h6c1.105 0 2-.895 2-2v-6c0-1.105-.895-2-2-2zm1 2v6l-.049.244-3.244-3.244 3.244-3.244.049.244zm-1-1l.244.049-3.244 3.244-3.244-3.244.244-.049h6zm-6.951 7.244l-.049-.244v-6l.049-.244 3.244 3.244-3.244 3.244zm.951.756l-.244-.049 3.244-3.244 3.244 3.244-.244.049h-6zm20-9h-6c-1.105 0-2 .895-2 2v6c0 1.105.895 2 2 2h6c1.105 0 2-.895 2-2v-6c0-1.105-.895-2-2-2zm1 2v6l-.049.244-3.244-3.244 3.244-3.244.049.244zm-1-1l.244.049-3.244 3.244-3.244-3.244.244-.049h6zm-6.951 7.244l-.049-.244v-6l.049-.244 3.244 3.244-3.244 3.244zm.951.756l-.244-.049 3.244-3.244 3.244 3.244-.244.049h-6zm20-9h-6c-1.105 0-2 .895-2 2v6c0 1.105.895 2 2 2h6c1.105 0 2-.895 2-2v-6c0-1.105-.895-2-2-2zm1 2v6l-.049.244-3.244-3.244 3.244-3.244.049.244zm-1-1l.244.049-3.244 3.244-3.244-3.244.244-.049h6zm-6.951 7.244l-.049-.244v-6l.049-.244 3.244 3.244-3.244 3.244zm.951.756l-.244-.049 3.244-3.244 3.244 3.244-.244.049h-6zm20-9h-6c-1.105 0-2 .895-2 2v6c0 1.105.895 2 2 2h6c1.105 0 2-.895 2-2v-6c0-1.105-.895-2-2-2zm1 2v6l-.049.244-3.244-3.244 3.244-3.244.049.244zm-1-1l.244.049-3.244 3.244-3.244-3.244.244-.049h6zm-6.951 7.244l-.049-.244v-6l.049-.244 3.244 3.244-3.244 3.244zm.951.756l-.244-.049 3.244-3.244 3.244 3.244-.244.049h-6zm-36 9h-6c-1.105 0-2 .895-2 2v6c0 1.105.895 2 2 2h6c1.105 0 2-.895 2-2v-6c0-1.105-.895-2-2-2zm1 2v6l-.049.244-3.244-3.244 3.244-3.244.049.244zm-1-1l.244.049-3.244 3.244-3.244-3.244.244-.049h6zm-6.951 7.244l-.049-.244v-6l.049-.244 3.244 3.244-3.244 3.244zm.951.756l-.244-.049 3.244-3.244 3.244 3.244-.244.049h-6zm20-9h-6c-1.105 0-2 .895-2 2v6c0 1.105.895 2 2 2h6c1.105 0 2-.895 2-2v-6c0-1.105-.895-2-2-2zm1 2v6l-.049.244-3.244-3.244 3.244-3.244.049.244zm-1-1l.244.049-3.244 3.244-3.244-3.244.244-.049h6zm-6.951 7.244l-.049-.244v-6l.049-.244 3.244 3.244-3.244 3.244zm.951.756l-.244-.049 3.244-3.244 3.244 3.244-.244.049h-6zm20-9h-6c-1.105 0-2 .895-2 2v6c0 1.105.895 2 2 2h6c1.105 0 2-.895 2-2v-6c0-1.105-.895-2-2-2zm1 2v6l-.049.244-3.244-3.244 3.244-3.244.049.244zm-1-1l.244.049-3.244 3.244-3.244-3.244.244-.049h6zm-6.951 7.244l-.049-.244v-6l.049-.244 3.244 3.244-3.244 3.244zm.951.756l-.244-.049 3.244-3.244 3.244 3.244-.244.049h-6zm20-9h-6c-1.105 0-2 .895-2 2v6c0 1.105.895 2 2 2h6c1.105 0 2-.895 2-2v-6c0-1.105-.895-2-2-2zm1 2v6l-.049.244-3.244-3.244 3.244-3.244.049.244zm-1-1l.244.049-3.244 3.244-3.244-3.244.244-.049h6zm-6.951 7.244l-.049-.244v-6l.049-.244 3.244 3.244-3.244 3.244zm.951.756l-.244-.049 3.244-3.244 3.244 3.244-.244.049h-6zm-43.5-14c-.276 0-.5-.224-.5-.5s.224-.5.5-.5h6c.276 0 .5.224.5.5s-.224.5-.5.5h-6zm14 0c-.276 0-.5-.224-.5-.5s.224-.5.5-.5h6c.276 0 .5.224.5.5s-.224.5-.5.5h-6zm14 0c-.276 0-.5-.224-.5-.5s.224-.5.5-.5h6c.276 0 .5.224.5.5s-.224.5-.5.5h-6zm14 0c-.276 0-.5-.224-.5-.5s.224-.5.5-.5h6c.276 0 .5.224.5.5s-.224.5-.5.5h-6zm-35.5 17.5c0 .276-.224.5-.5.5h-6c-.276 0-.5-.224-.5-.5s.224-.5.5-.5h6c.276 0 .5.224.5.5zm14 0c0 .276-.224.5-.5.5h-6c-.276 0-.5-.224-.5-.5s.224-.5.5-.5h6c.276 0 .5.224.5.5zm14 0c0 .276-.224.5-.5.5h-6c-.276 0-.5-.224-.5-.5s.224-.5.5-.5h6c.276 0 .5.224.5.5zm14 0c0 .276-.224.5-.5.5h-6c-.276 0-.5-.224-.5-.5s.224-.5.5-.5h6c.276 0 .5.224.5.5z"/></svg>