<?xml version="1.0" encoding="utf-8"?>
<!-- Generator: Adobe Illustrator 22.0.1, SVG Export Plug-In . SVG Version: 6.00 Build 0)  -->
<svg version="1.1" id="icons" xmlns="http://www.w3.org/2000/svg" xmlns:xlink="http://www.w3.org/1999/xlink" x="0px" y="0px"
	 width="64px" height="64px" viewBox="0 0 64 64" style="enable-background:new 0 0 64 64;" xml:space="preserve">
<style type="text/css">
	.frame{fill:#FFFFFF;}
	.content{opacity:0.5;fill:#FFFFFF;}
</style>
<path class="frame" d="M59.958,4c1.103,0,2,0.897,2,2v51.9c0,1.103-0.897,2-2,2h-56c-1.103,0-2-0.897-2-2V6c0-1.103,0.897-2,2-2
	H59.958 M59.958,3h-56c-1.657,0-3,1.343-3,3v51.9c0,1.657,1.343,3,3,3h56c1.657,0,3-1.343,3-3V6C62.958,4.343,61.615,3,59.958,3
	L59.958,3z"/>
<path class="content" d="M8.958,21h1.5v2.793L9.665,23c-0.195-0.195-0.512-0.195-0.707,0l0,0c-0.195,0.195-0.195,0.512,0,0.707
	l1.646,1.646c0.195,0.195,0.512,0.195,0.707,0l1.646-1.646c0.195-0.195,0.195-0.512,0-0.707l0,0c-0.195-0.195-0.512-0.195-0.707,0
	l-0.793,0.793V21h1.5c1.105,0,2-0.895,2-2v-8c0-1.105-0.895-2-2-2h-4c-1.105,0-2,0.895-2,2v8C6.958,20.105,7.854,21,8.958,21z
	 M7.958,19v-8c0-0.007,0.004-0.014,0.004-0.021L10.375,15l-2.413,4.021C7.962,19.014,7.958,19.007,7.958,19z M8.958,20
	c-0.132,0-0.256-0.029-0.372-0.075l2.372-3.953l2.372,3.953C13.215,19.971,13.09,20,12.958,20H8.958z M13.954,10.979
	c0,0.007,0.004,0.014,0.004,0.021v8c0,0.007-0.004,0.014-0.004,0.021L11.541,15L13.954,10.979z M12.958,10
	c0.132,0,0.256,0.029,0.372,0.075l-2.372,3.953l-2.372-3.953C8.702,10.029,8.826,10,8.958,10H12.958z M22.958,21h1.5v2.793
	L23.665,23c-0.195-0.195-0.512-0.195-0.707,0l0,0c-0.195,0.195-0.195,0.512,0,0.707l1.646,1.646c0.195,0.195,0.512,0.195,0.707,0
	l1.646-1.646c0.195-0.195,0.195-0.512,0-0.707l0,0c-0.195-0.195-0.512-0.195-0.707,0l-0.793,0.793V21h1.5c1.105,0,2-0.895,2-2v-8
	c0-1.105-0.895-2-2-2h-4c-1.105,0-2,0.895-2,2v8C20.958,20.105,21.854,21,22.958,21z M21.958,19v-8c0-0.007,0.004-0.014,0.004-0.021
	L24.375,15l-2.413,4.021C21.962,19.014,21.958,19.007,21.958,19z M22.958,20c-0.132,0-0.256-0.029-0.372-0.075l2.372-3.953
	l2.372,3.953C27.215,19.971,27.09,20,26.958,20H22.958z M27.954,10.979c0,0.007,0.004,0.014,0.004,0.021v8
	c0,0.007-0.004,0.014-0.004,0.021L25.541,15L27.954,10.979z M26.958,10c0.132,0,0.256,0.029,0.372,0.075l-2.372,3.953l-2.372-3.953
	C22.702,10.029,22.826,10,22.958,10H26.958z M54.958,9h-4c-1.105,0-2,0.895-2,2v8c0,1.105,0.895,2,2,2h1.5v2.793L51.665,23
	c-0.195-0.195-0.512-0.195-0.707,0l0,0c-0.195,0.195-0.195,0.512,0,0.707l1.646,1.646c0.195,0.195,0.512,0.195,0.707,0l1.646-1.646
	c0.195-0.195,0.195-0.512,0-0.707l0,0c-0.195-0.195-0.512-0.195-0.707,0l-0.793,0.793V21h1.5c1.105,0,2-0.895,2-2v-8
	C56.958,9.895,56.063,9,54.958,9z M55.958,11v8c0,0.007-0.004,0.014-0.004,0.021L53.541,15l2.413-4.021
	C55.954,10.986,55.958,10.993,55.958,11z M54.958,10c0.132,0,0.256,0.029,0.372,0.075l-2.372,3.953l-2.372-3.953
	C50.702,10.029,50.826,10,50.958,10H54.958z M49.963,19.021c0-0.007-0.004-0.014-0.004-0.021v-8c0-0.007,0.004-0.014,0.004-0.021
	L52.375,15L49.963,19.021z M50.958,20c-0.132,0-0.256-0.029-0.372-0.075l2.372-3.953l2.372,3.953C55.215,19.971,55.09,20,54.958,20
	H50.958z M54.958,26h-4c-1.105,0-2,0.895-2,2v8c0,1.105,0.895,2,2,2h4c1.105,0,2-0.895,2-2v-8C56.958,26.895,56.063,26,54.958,26z
	 M55.958,28v8c0,0.007-0.004,0.014-0.004,0.021L53.541,32l2.413-4.021C55.954,27.986,55.958,27.993,55.958,28z M54.958,27
	c0.132,0,0.256,0.029,0.372,0.075l-2.372,3.953l-2.372-3.953C50.702,27.029,50.826,27,50.958,27H54.958z M49.963,36.021
	c0-0.007-0.004-0.014-0.004-0.021v-8c0-0.007,0.004-0.014,0.004-0.021L52.375,32L49.963,36.021z M50.958,37
	c-0.132,0-0.256-0.029-0.372-0.075l2.372-3.953l2.372,3.953C55.215,36.971,55.09,37,54.958,37H50.958z M12.958,43h-4
	c-1.105,0-2,0.895-2,2v8c0,1.105,0.895,2,2,2h4c1.105,0,2-0.895,2-2v-8C14.958,43.895,14.063,43,12.958,43z M13.958,45v8
	c0,0.007-0.004,0.014-0.004,0.021L11.541,49l2.413-4.021C13.954,44.986,13.958,44.993,13.958,45z M12.958,44
	c0.132,0,0.256,0.029,0.372,0.075l-2.372,3.953l-2.372-3.953C8.702,44.029,8.826,44,8.958,44H12.958z M7.963,53.021
	c0-0.007-0.004-0.014-0.004-0.021v-8c0-0.007,0.004-0.014,0.004-0.021L10.375,49L7.963,53.021z M8.958,54
	c-0.132,0-0.256-0.029-0.372-0.075l2.372-3.953l2.372,3.953C13.215,53.971,13.09,54,12.958,54H8.958z M26.958,43h-4
	c-1.105,0-2,0.895-2,2v3.5h-2.793l0.793-0.793c0.195-0.195,0.195-0.512,0-0.707l0,0c-0.195-0.195-0.512-0.195-0.707,0l-1.646,1.646
	c-0.195,0.195-0.195,0.512,0,0.707L18.251,51c0.195,0.195,0.512,0.195,0.707,0l0,0c0.195-0.195,0.195-0.512,0-0.707L18.165,49.5
	h2.793V53c0,1.105,0.895,2,2,2h4c1.105,0,2-0.895,2-2v-8C28.958,43.895,28.063,43,26.958,43z M27.958,45v8
	c0,0.007-0.004,0.014-0.004,0.021L25.541,49l2.413-4.021C27.954,44.986,27.958,44.993,27.958,45z M26.958,44
	c0.132,0,0.256,0.029,0.372,0.075l-2.372,3.953l-2.372-3.953C22.702,44.029,22.826,44,22.958,44H26.958z M21.963,53.021
	c0-0.007-0.004-0.014-0.004-0.021v-8c0-0.007,0.004-0.014,0.004-0.021L24.375,49L21.963,53.021z M22.958,54
	c-0.132,0-0.256-0.029-0.372-0.075l2.372-3.953l2.372,3.953C27.215,53.971,27.09,54,26.958,54H22.958z M54.958,43h-4
	c-1.105,0-2,0.895-2,2v8c0,1.105,0.895,2,2,2h4c1.105,0,2-0.895,2-2v-8C56.958,43.895,56.063,43,54.958,43z M55.958,45v8
	c0,0.007-0.004,0.014-0.004,0.021L53.541,49l2.413-4.021C55.954,44.986,55.958,44.993,55.958,45z M54.958,44
	c0.132,0,0.256,0.029,0.372,0.075l-2.372,3.953l-2.372-3.953C50.702,44.029,50.826,44,50.958,44H54.958z M49.963,53.021
	c0-0.007-0.004-0.014-0.004-0.021v-8c0-0.007,0.004-0.014,0.004-0.021L52.375,49L49.963,53.021z M50.958,54
	c-0.132,0-0.256-0.029-0.372-0.075l2.372-3.953l2.372,3.953C55.215,53.971,55.09,54,54.958,54H50.958z M16.958,34L16.958,34
	c0.195,0.195,0.512,0.195,0.707,0l1.646-1.646c0.195-0.195,0.195-0.512,0-0.707L17.665,30c-0.195-0.195-0.512-0.195-0.707,0l0,0
	c-0.195,0.195-0.195,0.512,0,0.707l0.793,0.793h-2.793V28c0-1.105-0.895-2-2-2h-4c-1.105,0-2,0.895-2,2v8c0,1.105,0.895,2,2,2h4
	c1.105,0,2-0.895,2-2v-3.5h2.793l-0.793,0.793C16.763,33.488,16.763,33.805,16.958,34z M13.958,28v8
	c0,0.007-0.004,0.014-0.004,0.021L11.541,32l2.413-4.021C13.954,27.986,13.958,27.993,13.958,28z M12.958,27
	c0.132,0,0.256,0.029,0.372,0.075l-2.372,3.953l-2.372-3.953C8.702,27.029,8.826,27,8.958,27H12.958z M7.963,36.021
	c0-0.007-0.004-0.014-0.004-0.021v-8c0-0.007,0.004-0.014,0.004-0.021L10.375,32L7.963,36.021z M8.958,37
	c-0.132,0-0.256-0.029-0.372-0.075l2.372-3.953l2.372,3.953C13.215,36.971,13.09,37,12.958,37H8.958z M44.958,13.707l0.793,0.793
	h-2.793V11c0-1.105-0.895-2-2-2h-4c-1.105,0-2,0.895-2,2v8c0,1.105,0.895,2,2,2h4c1.105,0,2-0.895,2-2v-3.5h2.793l-0.793,0.793
	c-0.195,0.195-0.195,0.512,0,0.707l0,0c0.195,0.195,0.512,0.195,0.707,0l1.646-1.646c0.195-0.195,0.195-0.512,0-0.707L45.665,13
	c-0.195-0.195-0.512-0.195-0.707,0l0,0C44.763,13.195,44.763,13.512,44.958,13.707z M41.958,11v8c0,0.007-0.004,0.014-0.004,0.021
	L39.541,15l2.413-4.021C41.954,10.986,41.958,10.993,41.958,11z M40.958,10c0.132,0,0.256,0.029,0.372,0.075l-2.372,3.953
	l-2.372-3.953C36.702,10.029,36.826,10,36.958,10H40.958z M35.963,19.021c0-0.007-0.004-0.014-0.004-0.021v-8
	c0-0.007,0.004-0.014,0.004-0.021L38.375,15L35.963,19.021z M36.958,20c-0.132,0-0.256-0.029-0.372-0.075l2.372-3.953l2.372,3.953
	C41.215,19.971,41.09,20,40.958,20H36.958z M44.958,47.707l0.793,0.793h-2.793V45c0-1.105-0.895-2-2-2h-4c-1.105,0-2,0.895-2,2v3.5
	h-2.793l0.793-0.793c0.195-0.195,0.195-0.512,0-0.707l0,0c-0.195-0.195-0.512-0.195-0.707,0l-1.646,1.646
	c-0.195,0.195-0.195,0.512,0,0.707L32.251,51c0.195,0.195,0.512,0.195,0.707,0l0,0c0.195-0.195,0.195-0.512,0-0.707L32.165,49.5
	h2.793V53c0,1.105,0.895,2,2,2h4c1.105,0,2-0.895,2-2v-3.5h2.793l-0.793,0.793c-0.195,0.195-0.195,0.512,0,0.707l0,0
	c0.195,0.195,0.512,0.195,0.707,0l1.646-1.646c0.195-0.195,0.195-0.512,0-0.707L45.665,47c-0.195-0.195-0.512-0.195-0.707,0l0,0
	C44.763,47.195,44.763,47.512,44.958,47.707z M41.958,45v8c0,0.007-0.004,0.014-0.004,0.021L39.541,49l2.413-4.021
	C41.954,44.986,41.958,44.993,41.958,45z M40.958,44c0.132,0,0.256,0.029,0.372,0.075l-2.372,3.953l-2.372-3.953
	C36.702,44.029,36.826,44,36.958,44H40.958z M35.963,53.021c0-0.007-0.004-0.014-0.004-0.021v-8c0-0.007,0.004-0.014,0.004-0.021
	L38.375,49L35.963,53.021z M36.958,54c-0.132,0-0.256-0.029-0.372-0.075l2.372-3.953l2.372,3.953C41.215,53.971,41.09,54,40.958,54
	H36.958z M38.458,40.793L37.665,40c-0.195-0.195-0.512-0.195-0.707,0l0,0c-0.195,0.195-0.195,0.512,0,0.707l1.646,1.646
	c0.195,0.195,0.512,0.195,0.707,0l1.646-1.646c0.195-0.195,0.195-0.512,0-0.707l0,0c-0.195-0.195-0.512-0.195-0.707,0l-0.793,0.793
	V32.5V32v-8.793L40.251,24c0.195,0.195,0.512,0.195,0.707,0l0,0c0.195-0.195,0.195-0.512,0-0.707l-1.646-1.646
	c-0.195-0.195-0.512-0.195-0.707,0l-1.646,1.646c-0.195,0.195-0.195,0.512,0,0.707l0,0c0.195,0.195,0.512,0.195,0.707,0l0.793-0.793
	V31.5h-9.5V28c0-1.105-0.895-2-2-2h-4c-1.105,0-2,0.895-2,2v8c0,1.105,0.895,2,2,2h4c1.105,0,2-0.895,2-2v-3.5h9.5V40.793z
	 M27.958,28v8c0,0.007-0.004,0.014-0.004,0.021L25.541,32l2.413-4.021C27.954,27.986,27.958,27.993,27.958,28z M26.958,27
	c0.132,0,0.256,0.029,0.372,0.075l-2.372,3.953l-2.372-3.953C22.702,27.029,22.826,27,22.958,27H26.958z M21.963,36.021
	c0-0.007-0.004-0.014-0.004-0.021v-8c0-0.007,0.004-0.014,0.004-0.021L24.375,32L21.963,36.021z M22.958,37
	c-0.132,0-0.256-0.029-0.372-0.075l2.372-3.953l2.372,3.953C27.215,36.971,27.09,37,26.958,37H22.958z"/>
</svg>
