<?xml version="1.0" encoding="utf-8"?>
<!-- Generator: Adobe Illustrator 19.2.1, SVG Export Plug-In . SVG Version: 6.00 Build 0)  -->
<svg version="1.1" id="icons" xmlns="http://www.w3.org/2000/svg" xmlns:xlink="http://www.w3.org/1999/xlink" x="0px" y="0px"
	 width="64px" height="64px" viewBox="0 0 64 64" style="enable-background:new 0 0 64 64;" xml:space="preserve">
<style type="text/css">
	.frame{fill:#FFFFFF;}
	.content{opacity:0.5;fill:#FFFFFF;}
</style>
<path class="frame" d="M60,3H4C2.343,3,1,4.343,1,6v45c0,1.657,1.343,3,3,3h21v6h-4.5c-0.276,0-0.5,0.224-0.5,0.5
	c0,0.276,0.224,0.5,0.5,0.5H25h14h4.5c0.276,0,0.5-0.224,0.5-0.5c0-0.276-0.224-0.5-0.5-0.5H39v-6h21c1.657,0,3-1.343,3-3V6
	C63,4.343,61.657,3,60,3z M38,60H26v-6h12V60z M62,51c0,1.103-0.897,2-2,2H39H25H4c-1.103,0-2-0.897-2-2v-6h60V51z M62,44H2V6
	c0-1.103,0.897-2,2-2h56c1.103,0,2,0.897,2,2V44z"/>
<path class="content" d="M19,16H7c-1.105,0-2,0.895-2,2v16c0,1.105,0.895,2,2,2h12c1.105,0,2-0.895,2-2V18
	C21,16.895,20.105,16,19,16z M7,17h12c0.112,0,0.216,0.03,0.317,0.064L13,25.186l-6.317-8.121C6.784,17.03,6.888,17,7,17z M6,34V18
	c0-0.052,0.022-0.097,0.03-0.147L12.367,26L6.03,34.147C6.022,34.097,6,34.052,6,34z M19,35H7c-0.112,0-0.216-0.03-0.317-0.064
	L13,26.814l6.317,8.121C19.216,34.97,19.112,35,19,35z M20,34c0,0.052-0.022,0.097-0.03,0.147L13.633,26l6.337-8.147
	C19.978,17.903,20,17.948,20,18V34z M38,16H26c-1.105,0-2,0.895-2,2v16c0,1.105,0.895,2,2,2h12c1.105,0,2-0.895,2-2V18
	C40,16.895,39.105,16,38,16z M26,17h12c0.112,0,0.216,0.03,0.317,0.064L32,25.186l-6.317-8.121C25.784,17.03,25.888,17,26,17z
	 M25,34V18c0-0.052,0.022-0.097,0.03-0.147L31.367,26l-6.337,8.147C25.022,34.097,25,34.052,25,34z M38,35H26
	c-0.112,0-0.216-0.03-0.317-0.064L32,26.814l6.317,8.121C38.216,34.97,38.112,35,38,35z M39,34c0,0.052-0.022,0.097-0.03,0.147
	L32.633,26l6.337-8.147C38.978,17.903,39,17.948,39,18V34z M57,16H45c-1.105,0-2,0.895-2,2v16c0,1.105,0.895,2,2,2h12
	c1.105,0,2-0.895,2-2V18C59,16.895,58.105,16,57,16z M45,17h12c0.112,0,0.216,0.03,0.317,0.064L51,25.186l-6.317-8.121
	C44.784,17.03,44.888,17,45,17z M44,34V18c0-0.052,0.022-0.097,0.03-0.147L50.367,26l-6.337,8.147C44.022,34.097,44,34.052,44,34z
	 M57,35H45c-0.112,0-0.216-0.03-0.317-0.064L51,26.814l6.317,8.121C57.216,34.97,57.112,35,57,35z M58,34
	c0,0.052-0.022,0.097-0.03,0.147L51.633,26l6.337-8.147C57.978,17.903,58,17.948,58,18V34z M9.5,9h-4C5.224,9,5,8.776,5,8.5
	S5.224,8,5.5,8h4C9.776,8,10,8.224,10,8.5S9.776,9,9.5,9z M9.5,7h-4C5.224,7,5,6.776,5,6.5S5.224,6,5.5,6h4C9.776,6,10,6.224,10,6.5
	S9.776,7,9.5,7z M9.5,11h-4C5.224,11,5,10.776,5,10.5S5.224,10,5.5,10h4c0.276,0,0.5,0.224,0.5,0.5S9.776,11,9.5,11z M58.771,10.063
	c0.195,0.195,0.195,0.512,0,0.707c-0.098,0.098-0.226,0.146-0.354,0.146s-0.256-0.049-0.354-0.146l-1.605-1.605l-1.605,1.605
	c-0.098,0.098-0.226,0.146-0.354,0.146s-0.256-0.049-0.354-0.146c-0.195-0.195-0.195-0.512,0-0.707l1.605-1.605l-1.605-1.605
	c-0.195-0.195-0.195-0.512,0-0.707s0.512-0.195,0.707,0l1.605,1.605l1.605-1.605c0.195-0.195,0.512-0.195,0.707,0
	s0.195,0.512,0,0.707l-1.605,1.605L58.771,10.063z M52.771,10.063c0.195,0.195,0.195,0.512,0,0.707
	c-0.098,0.098-0.226,0.146-0.354,0.146s-0.256-0.049-0.354-0.146l-1.605-1.605l-1.605,1.605c-0.098,0.098-0.226,0.146-0.354,0.146
	s-0.256-0.049-0.354-0.146c-0.195-0.195-0.195-0.512,0-0.707l1.605-1.605l-1.605-1.605c-0.195-0.195-0.195-0.512,0-0.707
	s0.512-0.195,0.707,0l1.605,1.605l1.605-1.605c0.195-0.195,0.512-0.195,0.707,0s0.195,0.512,0,0.707l-1.605,1.605L52.771,10.063z
	 M46.771,10.063c0.195,0.195,0.195,0.512,0,0.707c-0.098,0.098-0.226,0.146-0.354,0.146s-0.256-0.049-0.354-0.146l-1.605-1.605
	l-1.605,1.605c-0.098,0.098-0.226,0.146-0.354,0.146s-0.256-0.049-0.354-0.146c-0.195-0.195-0.195-0.512,0-0.707l1.605-1.605
	l-1.605-1.605c-0.195-0.195-0.195-0.512,0-0.707s0.512-0.195,0.707,0l1.605,1.605l1.605-1.605c0.195-0.195,0.512-0.195,0.707,0
	s0.195,0.512,0,0.707l-1.605,1.605L46.771,10.063z M43,44.5V41c0-1.105,0.895-2,2-2h12c1.105,0,2,0.895,2,2v3.5h-1V41
	c0-0.052-0.022-0.097-0.03-0.147L55.133,44.5h-1.267l3.45-4.436C57.216,40.03,57.112,40,57,40H45c-0.112,0-0.216,0.03-0.317,0.064
	l3.45,4.436h-1.267l-2.837-3.647C44.022,40.903,44,40.948,44,41v3.5H43z M24,44.5V41c0-1.105,0.895-2,2-2h12c1.105,0,2,0.895,2,2
	v3.5h-1V41c0-0.052-0.022-0.097-0.03-0.147L36.133,44.5h-1.267l3.45-4.436C38.216,40.03,38.112,40,38,40H26
	c-0.112,0-0.216,0.03-0.317,0.064l3.45,4.436h-1.267l-2.837-3.647C25.022,40.903,25,40.948,25,41v3.5H24z M5,44.5V41
	c0-1.105,0.895-2,2-2h12c1.105,0,2,0.895,2,2v3.5h-1V41c0-0.052-0.022-0.097-0.03-0.147L17.133,44.5h-1.267l3.45-4.436
	C19.216,40.03,19.112,40,19,40H7c-0.112,0-0.216,0.03-0.317,0.064l3.45,4.436H8.867L6.03,40.853C6.022,40.903,6,40.948,6,41v3.5H5z"
	/>
</svg>
