<svg xmlns="http://www.w3.org/2000/svg" width="64" height="64" viewBox="0 0 64 64"><style type="text/css">.frame{fill:#FFFFFF;} .content{opacity:0.5;fill:#FFFFFF;}</style><path class="content" d="M8 13.5c0-.276.224-.5.5-.5h4c.276 0 .5.224.5.5s-.224.5-.5.5h-4c-.276 0-.5-.224-.5-.5zm.5 2.5h4c.276 0 .5-.224.5-.5s-.224-.5-.5-.5h-4c-.276 0-.5.224-.5.5s.224.5.5.5zm0 2h4c.276 0 .5-.224.5-.5s-.224-.5-.5-.5h-4c-.276 0-.5.224-.5.5s.224.5.5.5zm11.5 15v12.5h-1v-12.5l-.009-.043-4.401 7.043 3.438 5.5h-1.179l-2.849-4.557-2.848 4.557h-1.179l3.437-5.5-4.402-7.043-.008.043v12.5h-1v-12.5c0-1.105.895-2 2-2h8c1.105 0 2 .895 2 2zm-1.636-.926c-.113-.045-.235-.074-.364-.074h-8c-.129 0-.251.029-.364.074l4.364 6.983 4.364-6.983zm32.136-4.074v1h2.5v-1h-2.5zm-21 13.457l-.91-1.457.91-1.457v-1.887l-1.5 2.4-4.364-6.983c.113-.044.235-.073.364-.073h5.5v-1h-5.5c-1.105 0-2 .895-2 2v12.5h1v-12.5l.009-.043 4.401 7.043-3.438 5.5h1.179l2.849-4.557 1.5 2.4v-1.886zm0-13.457h-24v1h24v-1zm18 12h-15v1h15v-1zm-12.5 8.5v-4.5l.009-.043 2.839 4.543h1.179l-3.391-5.426c.113-.045.235-.074.364-.074h8c.129 0 .251.029.364.074l-3.391 5.426h1.179l2.839-4.543.009.043v4.5h1v-4.5c0-1.105-.895-2-2-2h-8c-1.105 0-2 .895-2 2v4.5h1zm-1-21c0-.276.224-.5.5-.5h2c.276 0 .5.224.5.5s-.224.5-.5.5h-2c-.276 0-.5-.224-.5-.5zm.5 2.5h2c.276 0 .5-.224.5-.5s-.224-.5-.5-.5h-2c-.276 0-.5.224-.5.5s.224.5.5.5zm2.5 8c-.276 0-.5.224-.5.5s.224.5.5.5.5-.224.5-.5-.224-.5-.5-.5zm2 0c-.276 0-.5.224-.5.5s.224.5.5.5.5-.224.5-.5-.224-.5-.5-.5zm2 0c-.276 0-.5.224-.5.5s.224.5.5.5.5-.224.5-.5-.224-.5-.5-.5zm2 0c-.276 0-.5.224-.5.5s.224.5.5.5.5-.224.5-.5-.224-.5-.5-.5z"/><path class="frame" d="M40.135 51c-1.105 0-2 .895-2 2s.895 2 2 2 2-.895 2-2-.895-2-2-2zm0 3c-.551 0-1-.449-1-1s.449-1 1-1 1 .449 1 1-.448 1-1 1zm6.865-29h-14c-.552 0-1 .448-1 1v22c0 .552.448 1 1 1h14c.552 0 1-.448 1-1v-22c0-.552-.448-1-1-1zm0 23h-14v-22h14v22zm13-42h-56c-1.657 0-3 1.343-3 3v38c0 1.657 1.343 3 3 3h25v5c0 1.657 1.343 3 3 3h16c1.657 0 3-1.343 3-3v-5h9c1.657 0 3-1.343 3-3v-38c0-1.657-1.343-3-3-3zm-10 49c0 1.103-.897 2-2 2h-16c-1.103 0-2-.897-2-2v-30c0-1.103.897-2 2-2h16c1.103 0 2 .897 2 2v30zm-2-33h-16c-1.657 0-3 1.343-3 3v20h-23v-34h47v34h-2v-20c0-1.657-1.343-3-3-3zm14 25c0 1.103-.897 2-2 2h-9v-3h2c.552 0 1-.448 1-1v-34c0-.552-.448-1-1-1h-47c-.552 0-1 .448-1 1v34c0 .552.448 1 1 1h23v3h-25c-1.103 0-2-.897-2-2v-38c0-1.103.897-2 2-2h56c1.103 0 2 .897 2 2v38zm-4-21c-1.105 0-2 .895-2 2s.895 2 2 2 2-.895 2-2-.895-2-2-2zm0 3c-.551 0-1-.449-1-1s.449-1 1-1 1 .449 1 1-.449 1-1 1z"/></svg>