<?xml version="1.0" encoding="utf-8"?>
<!-- Generator: Adobe Illustrator 22.0.1, SVG Export Plug-In . SVG Version: 6.00 Build 0)  -->
<svg version="1.1" id="icons" xmlns="http://www.w3.org/2000/svg" xmlns:xlink="http://www.w3.org/1999/xlink" x="0px" y="0px"
	 width="64px" height="64px" viewBox="0 0 64 64" style="enable-background:new 0 0 64 64;" xml:space="preserve">
<style type="text/css">
	.frame{fill:#FFFFFF;}
	.content{opacity:0.5;fill:#FFFFFF;}
</style>
<path class="frame" d="M60,3H4C2.343,3,1,4.343,1,6v45c0,1.657,1.343,3,3,3h21v6h-4.5c-0.276,0-0.5,0.224-0.5,0.5
	c0,0.276,0.224,0.5,0.5,0.5H25h14h4.5c0.276,0,0.5-0.224,0.5-0.5c0-0.276-0.224-0.5-0.5-0.5H39v-6h21c1.657,0,3-1.343,3-3V6
	C63,4.343,61.657,3,60,3z M38,60H26v-6h12V60z M62,51c0,1.103-0.897,2-2,2H39H25H4c-1.103,0-2-0.897-2-2v-6h60V51z M62,44H2V6
	c0-1.103,0.897-2,2-2h56c1.103,0,2,0.897,2,2V44z"/>
<path class="content" d="M46.849,11.222C44.701,9.074,41.886,8,39.071,8C36.554,8,34.04,8.865,32,10.583
	C29.96,8.865,27.446,8,24.929,8c-2.815,0-5.63,1.074-7.778,3.222c-4.135,4.135-4.278,10.736-0.452,15.056
	c0.025,0.054,0.056,0.104,0.098,0.147l14.85,14.849c0.098,0.098,0.226,0.146,0.354,0.146s0.256-0.049,0.354-0.146l14.85-14.849
	c0.042-0.043,0.072-0.093,0.096-0.144C51.127,21.961,50.985,15.358,46.849,11.222z M46.142,11.929
	c1.889,1.889,2.929,4.4,2.929,7.071c0,2.671-1.04,5.182-2.929,7.071C44.253,27.96,41.742,29,39.071,29
	c-2.336,0-4.549-0.796-6.331-2.258c4.249-4.287,4.249-11.197,0-15.484C34.522,9.796,36.735,9,39.071,9
	C41.742,9,44.253,10.04,46.142,11.929z M17.858,26.071l10.916-10.916c-1.451,3.896-0.628,8.444,2.487,11.587
	C29.478,28.204,27.265,29,24.929,29C22.258,29,19.747,27.96,17.858,26.071C17.858,26.071,17.858,26.071,17.858,26.071z M29.071,19
	c0-2.671,1.04-5.182,2.929-7.071c1.889,1.889,2.929,4.4,2.929,7.071c0,2.671-1.04,5.182-2.929,7.071
	C30.111,24.182,29.071,21.671,29.071,19z M17.858,11.929C19.747,10.04,22.258,9,24.929,9c2.335,0,4.547,0.795,6.329,2.257
	L17.186,25.329c-1.462-1.782-2.257-3.994-2.257-6.329C14.929,16.329,15.969,13.818,17.858,11.929z M32,40.213L21.083,29.297
	C22.322,29.759,23.624,30,24.929,30c2.517,0,5.031-0.865,7.071-2.583C34.04,29.135,36.554,30,39.071,30
	c1.305,0,2.607-0.241,3.845-0.703L32,40.213z M25.5,41.5c0,0.276-0.224,0.5-0.5,0.5h-1c-0.276,0-0.5-0.224-0.5-0.5S23.724,41,24,41
	h1C25.276,41,25.5,41.224,25.5,41.5z M29.5,41.5c0,0.276-0.224,0.5-0.5,0.5h-1c-0.276,0-0.5-0.224-0.5-0.5S27.724,41,28,41h1
	C29.276,41,29.5,41.224,29.5,41.5z M21.5,41.5c0,0.276-0.224,0.5-0.5,0.5h-1c-0.276,0-0.5-0.224-0.5-0.5S19.724,41,20,41h1
	C21.276,41,21.5,41.224,21.5,41.5z M35.521,13.771c0.195-0.195,0.512-0.195,0.707,0l0.707,0.707c0.195,0.195,0.195,0.512,0,0.707
	c-0.098,0.098-0.226,0.146-0.354,0.146s-0.256-0.049-0.354-0.146l-0.707-0.707C35.326,14.283,35.326,13.967,35.521,13.771z
	 M38.35,17.307c-0.195-0.195-0.195-0.512,0-0.707s0.512-0.195,0.707,0l0.707,0.707c0.195,0.195,0.195,0.512,0,0.707
	c-0.098,0.098-0.226,0.146-0.354,0.146s-0.256-0.049-0.354-0.146L38.35,17.307z M44.007,22.964c-0.195-0.195-0.195-0.512,0-0.707
	s0.512-0.195,0.707,0l0.707,0.707c0.195,0.195,0.195,0.512,0,0.707c-0.098,0.098-0.226,0.146-0.354,0.146s-0.256-0.049-0.354-0.146
	L44.007,22.964z M41.179,20.135c-0.195-0.195-0.195-0.512,0-0.707s0.512-0.195,0.707,0l0.707,0.707c0.195,0.195,0.195,0.512,0,0.707
	c-0.098,0.098-0.226,0.146-0.354,0.146s-0.256-0.049-0.354-0.146L41.179,20.135z"/>
</svg>
