<svg xmlns="http://www.w3.org/2000/svg" width="64" height="64" viewBox="0 0 64 64"><style type="text/css">.frame{fill:#FFFFFF;} .content{opacity:0.5;fill:#FFFFFF;}</style><path class="content" d="M59.5 35c-.276 0-.5-.224-.5-.5s.224-.5.5-.5h1c.276 0 .5.224.5.5s-.224.5-.5.5h-1zm-3 0c.276 0 .5-.224.5-.5s-.224-.5-.5-.5h-1c-.276 0-.5.224-.5.5s.224.5.5.5h1zm3-21h1c.276 0 .5-.224.5-.5s-.224-.5-.5-.5h-1c-.276 0-.5.224-.5.5s.224.5.5.5zm-7 21c.276 0 .5-.224.5-.5s-.224-.5-.5-.5h-1c-.276 0-.5.224-.5.5s.224.5.5.5h1zm-7.5-17c0-1.105.895-2 2-2h10c1.105 0 2 .895 2 2v12c0 1.105-.895 2-2 2h-10c-1.105 0-2-.895-2-2v-12zm12.291 12.941l-5.291-6.173-5.291 6.173c.094.029.188.059.291.059h10c.103 0 .197-.03.291-.059zm.671-13.128l-5.303 6.187 5.303 6.187.038-.187v-12l-.038-.187zm-11.253-.754l5.291 6.173 5.291-6.173c-.094-.029-.188-.059-.291-.059h-10c-.103 0-.197.03-.291.059zm-.709 12.941l.038.187 5.303-6.187-5.303-6.187-.038.187v12zm-2.5-16h1c.276 0 .5-.224.5-.5s-.224-.5-.5-.5h-1c-.276 0-.5.224-.5.5s.224.5.5.5zm-15 21c.276 0 .5-.224.5-.5s-.224-.5-.5-.5h-1c-.276 0-.5.224-.5.5s.224.5.5.5h1zm19-21h1c.276 0 .5-.224.5-.5s-.224-.5-.5-.5h-1c-.276 0-.5.224-.5.5s.224.5.5.5zm4 0h1c.276 0 .5-.224.5-.5s-.224-.5-.5-.5h-1c-.276 0-.5.224-.5.5s.224.5.5.5zm4 0h1c.276 0 .5-.224.5-.5s-.224-.5-.5-.5h-1c-.276 0-.5.224-.5.5s.224.5.5.5zm-7 21c.276 0 .5-.224.5-.5s-.224-.5-.5-.5h-1c-.276 0-.5.224-.5.5s.224.5.5.5h1zm-28-1h-1c-.276 0-.5.224-.5.5s.224.5.5.5h1c.276 0 .5-.224.5-.5s-.224-.5-.5-.5zm20 1c.276 0 .5-.224.5-.5s-.224-.5-.5-.5h-1c-.276 0-.5.224-.5.5s.224.5.5.5h1zm18.5 4v5.5h-1v-5.5l-.038-.187-4.875 5.687h-2.175l-4.875-5.687-.037.187v5.5h-1v-5.5c0-1.105.895-2 2-2h10c1.105 0 2 .895 2 2zm-1.709-.941c-.094-.029-.188-.059-.291-.059h-10c-.103 0-.197.03-.291.059l5.291 6.173 5.291-6.173zm-24.791-3.059c.276 0 .5-.224.5-.5s-.224-.5-.5-.5h-1c-.276 0-.5.224-.5.5s.224.5.5.5h1zm-5.5 2h10c1.105 0 2 .895 2 2v5.5h-1v-5.5l-.038-.187-4.875 5.687h-2.175l-4.875-5.687-.037.187v5.5h-1v-5.5c0-1.105.895-2 2-2zm10 1h-10c-.103 0-.197.03-.291.059l5.291 6.173 5.291-6.173c-.094-.029-.188-.059-.291-.059zm-.5-3c.276 0 .5-.224.5-.5s-.224-.5-.5-.5h-1c-.276 0-.5.224-.5.5s.224.5.5.5h1zm-21-1c-.276 0-.5.224-.5.5s.224.5.5.5h1c.276 0 .5-.224.5-.5s-.224-.5-.5-.5h-1zm-7-20c.276 0 .5-.224.5-.5s-.224-.5-.5-.5h-1c-.276 0-.5.224-.5.5s.224.5.5.5h1zm4 0c.276 0 .5-.224.5-.5s-.224-.5-.5-.5h-1c-.276 0-.5.224-.5.5s.224.5.5.5h1zm-5 20c-.276 0-.5.224-.5.5s.224.5.5.5h1c.276 0 .5-.224.5-.5s-.224-.5-.5-.5h-1zm-.5-18h10c1.105 0 2 .895 2 2v12c0 1.105-.895 2-2 2h-10c-1.105 0-2-.895-2-2v-12c0-1.105.895-2 2-2zm-.962 14.187l5.303-6.187-5.303-6.187-.038.187v12l.038.187zm11.253.754l-5.291-6.173-5.291 6.173c.094.029.188.059.291.059h10c.103 0 .197-.03.291-.059zm.671-13.128l-5.303 6.187 5.303 6.187.038-.187v-12l-.038-.187zm-.962-.813h-10c-.103 0-.197.03-.291.059l5.291 6.173 5.291-6.173c-.094-.029-.188-.059-.291-.059zm-.5-3c.276 0 .5-.224.5-.5s-.224-.5-.5-.5h-1c-.276 0-.5.224-.5.5s.224.5.5.5h1zm-11.5 25c0-1.105.895-2 2-2h10c1.105 0 2 .895 2 2v5.5h-1v-5.5l-.038-.187-4.875 5.687h-2.175l-4.875-5.687-.037.187v5.5h-1v-5.5zm1.709-.941l5.291 6.173 5.291-6.173c-.094-.029-.188-.059-.291-.059h-10c-.103 0-.197.03-.291.059zm4.791-4.059c-.276 0-.5.224-.5.5s.224.5.5.5h1c.276 0 .5-.224.5-.5s-.224-.5-.5-.5h-1zm10.5-9c.276 0 .5-.224.5-.5v-1c0-.276-.224-.5-.5-.5s-.5.224-.5.5v1c0 .276.224.5.5.5zm0 3c.276 0 .5-.224.5-.5v-1c0-.276-.224-.5-.5-.5s-.5.224-.5.5v1c0 .276.224.5.5.5zm0 3c.276 0 .5-.224.5-.5v-1c0-.276-.224-.5-.5-.5s-.5.224-.5.5v1c0 .276.224.5.5.5zm0-9c.276 0 .5-.224.5-.5v-1c0-.276-.224-.5-.5-.5s-.5.224-.5.5v1c0 .276.224.5.5.5zm0-3c.276 0 .5-.224.5-.5v-1c0-.276-.224-.5-.5-.5s-.5.224-.5.5v1c0 .276.224.5.5.5zm0 15c.276 0 .5-.224.5-.5v-1c0-.276-.224-.5-.5-.5s-.5.224-.5.5v1c0 .276.224.5.5.5zm0-24c.276 0 .5-.224.5-.5v-1c0-.276-.224-.5-.5-.5s-.5.224-.5.5v1c0 .276.224.5.5.5zm0 3c.276 0 .5-.224.5-.5v-1c0-.276-.224-.5-.5-.5s-.5.224-.5.5v1c0 .276.224.5.5.5zm0 3c.276 0 .5-.224.5-.5v-1c0-.276-.224-.5-.5-.5s-.5.224-.5.5v1c0 .276.224.5.5.5zm-2.5-2h1c.276 0 .5-.224.5-.5s-.224-.5-.5-.5h-1c-.276 0-.5.224-.5.5s.224.5.5.5zm24 21h1c.276 0 .5-.224.5-.5s-.224-.5-.5-.5h-1c-.276 0-.5.224-.5.5s.224.5.5.5zm-21.5 2c.276 0 .5-.224.5-.5v-1c0-.276-.224-.5-.5-.5s-.5.224-.5.5v1c0 .276.224.5.5.5zm-16.5-29h13c.276 0 .5-.224.5-.5s-.224-.5-.5-.5h-13c-.276 0-.5.224-.5.5s.224.5.5.5zm-2 27h1c.276 0 .5-.224.5-.5s-.224-.5-.5-.5h-1c-.276 0-.5.224-.5.5s.224.5.5.5zm0-21h1c.276 0 .5-.224.5-.5s-.224-.5-.5-.5h-1c-.276 0-.5.224-.5.5s.224.5.5.5zm18.5-7c.276 0 .5-.224.5-.5v-1c0-.276-.224-.5-.5-.5s-.5.224-.5.5v1c0 .276.224.5.5.5zm0 33c.276 0 .5-.224.5-.5v-1c0-.276-.224-.5-.5-.5s-.5.224-.5.5v1c0 .276.224.5.5.5zm0 3c.276 0 .5-.224.5-.5v-1c0-.276-.224-.5-.5-.5s-.5.224-.5.5v1c0 .276.224.5.5.5zm-16.5-33h13c.276 0 .5-.224.5-.5s-.224-.5-.5-.5h-13c-.276 0-.5.224-.5.5s.224.5.5.5zm36.5 18c.276 0 .5-.224.5-.5v-1c0-.276-.224-.5-.5-.5s-.5.224-.5.5v1c0 .276.224.5.5.5zm0 3c.276 0 .5-.224.5-.5v-1c0-.276-.224-.5-.5-.5s-.5.224-.5.5v1c0 .276.224.5.5.5zm0 6c.276 0 .5-.224.5-.5v-1c0-.276-.224-.5-.5-.5s-.5.224-.5.5v1c0 .276.224.5.5.5zm0-3c.276 0 .5-.224.5-.5v-1c0-.276-.224-.5-.5-.5s-.5.224-.5.5v1c0 .276.224.5.5.5zm0-9c.276 0 .5-.224.5-.5v-1c0-.276-.224-.5-.5-.5s-.5.224-.5.5v1c0 .276.224.5.5.5zm-18.5 10h1c.276 0 .5-.224.5-.5s-.224-.5-.5-.5h-1c-.276 0-.5.224-.5.5s.224.5.5.5zm18.5-16c.276 0 .5-.224.5-.5v-1c0-.276-.224-.5-.5-.5s-.5.224-.5.5v1c0 .276.224.5.5.5zm0 3c.276 0 .5-.224.5-.5v-1c0-.276-.224-.5-.5-.5s-.5.224-.5.5v1c0 .276.224.5.5.5zm0-6c.276 0 .5-.224.5-.5v-1c0-.276-.224-.5-.5-.5s-.5.224-.5.5v1c0 .276.224.5.5.5zm-14.5-2h1c.276 0 .5-.224.5-.5s-.224-.5-.5-.5h-1c-.276 0-.5.224-.5.5s.224.5.5.5zm4 0h1c.276 0 .5-.224.5-.5s-.224-.5-.5-.5h-1c-.276 0-.5.224-.5.5s.224.5.5.5zm-6.5 4c0-1.105.895-2 2-2h10c1.105 0 2 .895 2 2v12c0 1.105-.895 2-2 2h-10c-1.105 0-2-.895-2-2v-12zm12.291 12.941l-5.291-6.173-5.291 6.173c.094.029.188.059.291.059h10c.103 0 .197-.03.291-.059zm.671-13.128l-5.303 6.187 5.303 6.187.038-.187v-12l-.038-.187zm-11.253-.754l5.291 6.173 5.291-6.173c-.094-.029-.188-.059-.291-.059h-10c-.103 0-.197.03-.291.059zm-.709 12.941l.038.187 5.303-6.187-5.303-6.187-.038.187v12zm-2.5-16h1c.276 0 .5-.224.5-.5s-.224-.5-.5-.5h-1c-.276 0-.5.224-.5.5s.224.5.5.5zm12 0h1c.276 0 .5-.224.5-.5s-.224-.5-.5-.5h-1c-.276 0-.5.224-.5.5s.224.5.5.5zm6.5 29c.276 0 .5-.224.5-.5v-1c0-.276-.224-.5-.5-.5s-.5.224-.5.5v1c0 .276.224.5.5.5zm-2.5-29h1c.276 0 .5-.224.5-.5s-.224-.5-.5-.5h-1c-.276 0-.5.224-.5.5s.224.5.5.5zm2.5 26c.276 0 .5-.224.5-.5v-1c0-.276-.224-.5-.5-.5s-.5.224-.5.5v1c0 .276.224.5.5.5z"/><path class="frame" d="M60 3h-56c-1.657 0-3 1.343-3 3v45c0 1.657 1.343 3 3 3h21v6h-4.5c-.276 0-.5.224-.5.5s.224.5.5.5h23c.276 0 .5-.224.5-.5s-.224-.5-.5-.5h-4.5v-6h21c1.657 0 3-1.343 3-3v-45c0-1.657-1.343-3-3-3zm-22 57h-12v-6h12v6zm24-9c0 1.103-.897 2-2 2h-56c-1.103 0-2-.897-2-2v-6h60v6zm0-7h-60v-38c0-1.103.897-2 2-2h56c1.103 0 2 .897 2 2v38z"/></svg>