<svg xmlns="http://www.w3.org/2000/svg" width="64" height="64" viewBox="0 0 64 64"><style type="text/css">.frame{fill:#FFFFFF;} .content{opacity:0.5;fill:#FFFFFF;}</style><path class="frame" d="M60 6h-28c0-1.657-1.343-3-3-3h-25c-1.657 0-3 1.343-3 3v49c0 1.657 1.343 3 3 3h14c0 1.657 1.343 3 3 3h39c1.657 0 3-1.343 3-3v-49c0-1.657-1.343-3-3-3zm-56 51c-1.104 0-2-.895-2-2v-49c0-1.105.896-2 2-2h25c1.104 0 2 .895 2 2v49c0 1.105-.896 2-2 2h-25zm15 1h7.242l-5.314 1.993c-1.07-.039-1.928-.913-1.928-1.993zm43 0c0 1.105-.896 2-2 2h-36.242l5.367-2.013c1.597-.066 2.875-1.373 2.875-2.987v-48h28c1.104 0 2 .895 2 2v49z"/><path class="content" d="M6 17h6c1.105 0 2-.895 2-2v-2.5h2.793l-.793.793c-.195.195-.195.512 0 .707.195.195.512.195.707 0l1.646-1.646c.195-.195.195-.512 0-.707l-1.646-1.647c-.195-.195-.512-.195-.707 0-.195.195-.195.512 0 .707l.793.793h-2.793v-2.5c0-1.105-.895-2-2-2h-6c-1.105 0-2 .895-2 2v6c0 1.105.895 2 2 2zm-1-2v-6l.049-.244 3.244 3.244-3.244 3.244-.049-.244zm1 1l-.244-.049 3.244-3.244 3.244 3.244-.244.049h-6zm6.951-7.244l.049.244v6l-.049.244-3.244-3.244 3.244-3.244zm-.951-.756l.244.049-3.244 3.244-3.244-3.244.244-.049h6zm9 9h6c1.105 0 2-.895 2-2v-6c0-1.105-.895-2-2-2h-6c-1.105 0-2 .895-2 2v6c0 1.105.895 2 2 2zm-1-2v-6l.049-.244 3.244 3.244-3.244 3.244-.049-.244zm1 1l-.244-.049 3.244-3.244 3.244 3.244-.244.049h-6zm6.951-7.244l.049.244v6l-.049.244-3.244-3.244 3.244-3.244zm-.951-.756l.244.049-3.244 3.244-3.244-3.244.244-.049h6zm30 2h-6c-1.105 0-2 .895-2 2v6c0 1.105.895 2 2 2h6c1.105 0 2-.895 2-2v-6c0-1.105-.895-2-2-2zm1 2v6l-.049.244-3.244-3.244 3.244-3.244.049.244zm-1-1l.244.049-3.244 3.244-3.244-3.244.244-.049h6zm-6.951 7.244l-.049-.244v-6l.049-.244 3.244 3.244-3.244 3.244zm.951.756l-.244-.049 3.244-3.244 3.244 3.244-.244.049h-6zm6 5h-6c-1.105 0-2 .895-2 2v6c0 1.105.895 2 2 2h6c1.105 0 2-.895 2-2v-6c0-1.105-.895-2-2-2zm1 2v6l-.049.244-3.244-3.244 3.244-3.244.049.244zm-1-1l.244.049-3.244 3.244-3.244-3.244.244-.049h6zm-6.951 7.244l-.049-.244v-6l.049-.244 3.244 3.244-3.244 3.244zm.951.756l-.244-.049 3.244-3.244 3.244 3.244-.244.049h-6zm-45-2h6c1.105 0 2-.895 2-2v-2.5h17.5v-1h-17.5v-2.5c0-1.105-.895-2-2-2h-6c-1.105 0-2 .895-2 2v6c0 1.105.895 2 2 2zm-1-2v-6l.049-.244 3.244 3.244-3.244 3.244-.049-.244zm1 1l-.244-.049 3.244-3.244 3.244 3.244-.244.049h-6zm6.951-7.244l.049.244v6l-.049.244-3.244-3.244 3.244-3.244zm-.951-.756l.244.049-3.244 3.244-3.244-3.244.244-.049h6zm45 16h-6c-1.105 0-2 .895-2 2v6c0 1.105.895 2 2 2h6c1.105 0 2-.895 2-2v-6c0-1.105-.895-2-2-2zm1 2v6l-.049.244-3.244-3.244 3.244-3.244.049.244zm-1-1l.244.049-3.244 3.244-3.244-3.244.244-.049h6zm-6.951 7.244l-.049-.244v-6l.049-.244 3.244 3.244-3.244 3.244zm.951.756l-.244-.049 3.244-3.244 3.244 3.244-.244.049h-6zm-37 3.5c0 .276-.224.5-.5.5h-9c-.276 0-.5-.224-.5-.5s.224-.5.5-.5h9c.276 0 .5.224.5.5zm15 0c0 .276-.224.5-.5.5h-9c-.276 0-.5-.224-.5-.5s.224-.5.5-.5h9c.276 0 .5.224.5.5zm30 3c0 .276-.224.5-.5.5h-9c-.276 0-.5-.224-.5-.5s.224-.5.5-.5h9c.276 0 .5.224.5.5zm-48-1c0 .276-.224.5-.5.5h-6c-.276 0-.5-.224-.5-.5s.224-.5.5-.5h6c.276 0 .5.224.5.5zm15 0c0 .276-.224.5-.5.5h-6c-.276 0-.5-.224-.5-.5s.224-.5.5-.5h6c.276 0 .5.224.5.5zm30 3c0 .276-.224.5-.5.5h-6c-.276 0-.5-.224-.5-.5s.224-.5.5-.5h6c.276 0 .5.224.5.5zm-11-2c0 .276-.224.5-.5.5h-9c-.276 0-.5-.224-.5-.5s.224-.5.5-.5h9c.276 0 .5.224.5.5zm-3 2c0 .276-.224.5-.5.5h-6c-.276 0-.5-.224-.5-.5s.224-.5.5-.5h6c.276 0 .5.224.5.5zm-26-16.793l.793.793h-2.793v-2.5c0-1.105-.895-2-2-2h-6c-1.105 0-2 .895-2 2v6c0 1.105.895 2 2 2h6c1.105 0 2-.895 2-2v-2.5h2.793l-.793.793c-.195.195-.195.512 0 .707.195.195.512.195.707 0l1.646-1.646c.195-.195.195-.512 0-.707l-1.646-1.647c-.195-.195-.512-.195-.707 0-.195.195-.195.512 0 .707zm-3-1.707v6l-.049.244-3.244-3.244 3.244-3.244.049.244zm-1-1l.244.049-3.244 3.244-3.244-3.244.244-.049h6zm-6.951 7.244l-.049-.244v-6l.049-.244 3.244 3.244-3.244 3.244zm.951.756l-.244-.049 3.244-3.244 3.244 3.244-.244.049h-6zm40.707-3l1.646 1.646c.195.195.195.512 0 .707l-1.646 1.647c-.195.195-.512.195-.707 0-.195-.195-.195-.512 0-.707l.793-.793h-15.293v-1h15.293l-.793-.793c-.195-.195-.195-.512 0-.707.195-.195.512-.195.707 0zm-.707-27.293l.793.793h-2.793v-2.5c0-1.105-.895-2-2-2h-6c-1.105 0-2 .895-2 2v6c0 1.105.895 2 2 2h6c1.105 0 2-.895 2-2v-2.5h2.793l-.793.793c-.195.195-.195.512 0 .707.195.195.512.195.707 0l1.646-1.646c.195-.195.195-.512 0-.707l-1.646-1.647c-.195-.195-.512-.195-.707 0-.195.195-.195.512 0 .707zm-3-1.707v6l-.049.244-3.244-3.244 3.244-3.244.049.244zm-1-1l.244.049-3.244 3.244-3.244-3.244.244-.049h6zm-6.951 7.244l-.049-.244v-6l.049-.244 3.244 3.244-3.244 3.244zm.951.756l-.244-.049 3.244-3.244 3.244 3.244-.244.049h-6zm10 8.707l.793.793h-2.793v-2.5c0-1.105-.895-2-2-2h-6c-1.105 0-2 .895-2 2v6c0 1.105.895 2 2 2h6c1.105 0 2-.895 2-2v-2.5h2.793l-.793.793c-.195.195-.195.512 0 .707.195.195.512.195.707 0l1.646-1.646c.195-.195.195-.512 0-.707l-1.646-1.647c-.195-.195-.512-.195-.707 0-.195.195-.195.512 0 .707zm-3-1.707v6l-.049.244-3.244-3.244 3.244-3.244.049.244zm-1-1l.244.049-3.244 3.244-3.244-3.244.244-.049h6zm-6.951 7.244l-.049-.244v-6l.049-.244 3.244 3.244-3.244 3.244zm.951.756l-.244-.049 3.244-3.244 3.244 3.244-.244.049h-6zm-4.5 6.5h-2.5v-2.5c0-1.105-.895-2-2-2h-6c-1.105 0-2 .895-2 2v6c0 1.105.895 2 2 2h6c1.105 0 2-.895 2-2v-2.5h2.5v-1zm-3.5-2.5v6l-.049.244-3.244-3.244 3.244-3.244.049.244zm-1-1l.244.049-3.244 3.244-3.244-3.244.244-.049h6zm-6.951 7.244l-.049-.244v-6l.049-.244 3.244 3.244-3.244 3.244zm.951.756l-.244-.049 3.244-3.244 3.244 3.244-.244.049h-6zm10.5-14.207l.293-.293h-.293v-1h.293l-.293-.293v-1.414l1.854 1.854c.195.195.195.512 0 .707l-1.854 1.853v-1.414z"/></svg>