<svg xmlns="http://www.w3.org/2000/svg" width="64" height="64" viewBox="0 0 64 64"><style type="text/css">.frame{fill:#FFFFFF;} .content{opacity:0.5;fill:#FFFFFF;}</style><path class="content" d="M37.976 23.244l-16.488.162-.29 8.458-.998-.099.286-8.349-16.34.161-.089-.999 16.464-.162.287-8.372.999.061-.284 8.301 16.4-.161.053.999zm21.858-11.999l-16.311.16.287-8.387-1.001-.014-.288 8.41-16.296.16-.08 1.001 16.342-.161-.293 8.557-.018.521 1.016-.442.296-8.645 16.45-.162-.104-.998zm-1.408 39.986l-.69-1.136-11.877-2.084-1.503.752 14.07 2.468zm-24.409-4.282l-4.477-2.238.33.496-25.812-4.529.242 1.058 26.336 4.62 9.005 13.507 1.448.37-9.092-13.638 2.02.354zm24.409-5.718l-.69-1.136-26.505-4.65-4.059-6.089-.901.451 3.6 5.399-25.813-4.528.242 1.058 26.336 4.62 9.005 13.507 1.448.37-9.092-13.638 26.429 4.636z"/><path class="frame" d="M59.425 10.211l-14.634-7.317c-.563-.281-1.176-.422-1.789-.422s-1.226.141-1.789.422l-14.633 7.317c-1.474.737-1.474 2.841 0 3.578l14.633 7.317c.563.282 1.176.422 1.789.422s1.226-.141 1.789-.422l14.633-7.317c1.475-.737 1.475-2.841.001-3.578zm-.448 2.683l-14.633 7.317c-.414.207-.878.317-1.342.317-.463 0-.927-.109-1.342-.317l-14.633-7.317c-.346-.173-.553-.507-.553-.894s.207-.721.553-.894l14.633-7.317c.415-.207.878-.317 1.342-.317.463 0 .927.11 1.342.317l14.634 7.317c.346.173.553.507.553.894-.001.387-.207.721-.554.894zm-1.555 26.317l-24.421-12.21 4.424-2.212c1.474-.737 1.474-2.841 0-3.578l-14.633-7.317c-.563-.281-1.176-.422-1.789-.422s-1.226.141-1.789.422l-14.634 7.317c-1.474.737-1.474 2.841 0 3.578l4.421 2.211-4.424 2.212c-1.474.737-1.474 2.841 0 3.578l6.423 3.21-6.422 3.211c-1.474.737-1.474 2.841 0 3.578l34.633 17.317c.563.282 1.176.422 1.789.422s1.226-.141 1.789-.422l14.633-7.317c1.474-.737 1.474-2.841 0-3.578l-6.422-3.211 6.422-3.211c1.474-.737 1.474-2.841 0-3.578zm-52.947-16.211c0-.387.207-.721.553-.894l14.633-7.317c.414-.207.878-.317 1.342-.317.463 0 .927.11 1.342.317l14.633 7.317c.346.173.553.507.553.894s-.207.721-.553.894l-14.633 7.317c-.414.207-.878.317-1.342.317-.463 0-.927-.109-1.342-.317l-14.634-7.317c-.346-.173-.552-.507-.552-.894zm52.5 27.106c.346.173.553.507.553.894s-.207.721-.553.894l-14.633 7.317c-.414.207-.878.317-1.342.317s-.927-.109-1.342-.317l-34.633-17.317c-.346-.173-.553-.507-.553-.894s.207-.721.553-.894l7.093-3.547 27.093 13.547c.563.282 1.176.422 1.789.422s1.226-.141 1.789-.422l7.093-3.547 7.093 3.547zm0-8.212l-14.633 7.317c-.414.207-.878.317-1.342.317s-.927-.109-1.342-.317l-34.633-17.317c-.346-.173-.553-.507-.553-.894s.207-.721.553-.894l5.094-2.547 9.094 4.547c.563.282 1.176.422 1.789.422s1.226-.141 1.789-.422l9.092-4.546 25.092 12.546c.346.173.553.507.553.894s-.207.721-.553.894z"/></svg>