<?xml version="1.0" encoding="utf-8"?>
<!-- Generator: Adobe Illustrator 22.0.1, SVG Export Plug-In . SVG Version: 6.00 Build 0)  -->
<svg version="1.1" id="icons" xmlns="http://www.w3.org/2000/svg" xmlns:xlink="http://www.w3.org/1999/xlink" x="0px" y="0px"
	 width="64px" height="64px" viewBox="0 0 64 64" style="enable-background:new 0 0 64 64;" xml:space="preserve">
<style type="text/css">
	.frame{fill:#FFFFFF;}
	.content{opacity:0.5;fill:#FFFFFF;}
</style>
<path class="frame" d="M60,5c1.103,0,2,0.897,2,2v50c0,1.103-0.897,2-2,2H4c-1.103,0-2-0.897-2-2V7c0-1.103,0.897-2,2-2H60 M60,4H4
	C2.343,4,1,5.343,1,7v50c0,1.657,1.343,3,3,3h56c1.657,0,3-1.343,3-3V7C63,5.343,61.657,4,60,4L60,4z"/>
<path class="content" d="M22,37.5c0-0.276,0.224-0.5,0.5-0.5h9c0.276,0,0.5,0.224,0.5,0.5S31.776,38,31.5,38h-9
	C22.224,38,22,37.776,22,37.5z M22.5,42h9c0.276,0,0.5-0.224,0.5-0.5S31.776,41,31.5,41h-9c-0.276,0-0.5,0.224-0.5,0.5
	S22.224,42,22.5,42z M22.5,40h9c0.276,0,0.5-0.224,0.5-0.5S31.776,39,31.5,39h-9c-0.276,0-0.5,0.224-0.5,0.5S22.224,40,22.5,40z
	 M22.5,44h5.163c0.276,0,0.5-0.224,0.5-0.5s-0.224-0.5-0.5-0.5H22.5c-0.276,0-0.5,0.224-0.5,0.5S22.224,44,22.5,44z M22.5,36h9
	c0.276,0,0.5-0.224,0.5-0.5S31.776,35,31.5,35h-9c-0.276,0-0.5,0.224-0.5,0.5S22.224,36,22.5,36z M7.5,48C7.776,48,8,47.776,8,47.5
	v-35C8,12.224,7.776,12,7.5,12S7,12.224,7,12.5v35C7,47.776,7.224,48,7.5,48z M19.5,48c0.276,0,0.5-0.224,0.5-0.5v-12
	c0-0.276-0.224-0.5-0.5-0.5S19,35.224,19,35.5v12C19,47.776,19.224,48,19.5,48z M46.5,38h9c0.276,0,0.5-0.224,0.5-0.5
	S55.776,37,55.5,37h-9c-0.276,0-0.5,0.224-0.5,0.5S46.224,38,46.5,38z M46.5,42h9c0.276,0,0.5-0.224,0.5-0.5S55.776,41,55.5,41h-9
	c-0.276,0-0.5,0.224-0.5,0.5S46.224,42,46.5,42z M46.5,40h9c0.276,0,0.5-0.224,0.5-0.5S55.776,39,55.5,39h-9
	c-0.276,0-0.5,0.224-0.5,0.5S46.224,40,46.5,40z M46.5,44h5.163c0.276,0,0.5-0.224,0.5-0.5s-0.224-0.5-0.5-0.5H46.5
	c-0.276,0-0.5,0.224-0.5,0.5S46.224,44,46.5,44z M46.5,36h9c0.276,0,0.5-0.224,0.5-0.5S55.776,35,55.5,35h-9
	c-0.276,0-0.5,0.224-0.5,0.5S46.224,36,46.5,36z M43.5,48c0.276,0,0.5-0.224,0.5-0.5v-12c0-0.276-0.224-0.5-0.5-0.5
	S43,35.224,43,35.5v12C43,47.776,43.224,48,43.5,48z M57.854,50.854L56.207,52.5c-0.195,0.195-0.512,0.195-0.707,0
	s-0.195-0.512,0-0.707L56.293,51H45c-0.031,0-0.057-0.012-0.086-0.017C44.712,51.573,44.158,52,43.5,52s-1.212-0.427-1.414-1.017
	C42.057,50.988,42.031,51,42,51h-6c-0.031,0-0.057-0.012-0.086-0.017C35.712,51.573,35.158,52,34.5,52s-1.212-0.427-1.414-1.017
	C33.057,50.988,33.031,51,33,51H21c-0.031,0-0.057-0.012-0.086-0.017C20.712,51.573,20.158,52,19.5,52s-1.212-0.427-1.414-1.017
	C18.057,50.988,18.031,51,18,51H9c-0.031,0-0.057-0.012-0.086-0.017C8.712,51.573,8.158,52,7.5,52C6.672,52,6,51.328,6,50.5
	S6.672,49,7.5,49c0.658,0,1.212,0.427,1.414,1.017C8.943,50.012,8.969,50,9,50h9c0.031,0,0.057,0.012,0.086,0.017
	C18.288,49.427,18.842,49,19.5,49s1.212,0.427,1.414,1.017C20.943,50.012,20.969,50,21,50h12c0.031,0,0.057,0.012,0.086,0.017
	C33.288,49.427,33.842,49,34.5,49s1.212,0.427,1.414,1.017C35.943,50.012,35.969,50,36,50h6c0.031,0,0.057,0.012,0.086,0.017
	C42.288,49.427,42.842,49,43.5,49s1.212,0.427,1.414,1.017C44.943,50.012,44.969,50,45,50h11.293L55.5,49.207
	c-0.195-0.195-0.195-0.512,0-0.707s0.512-0.195,0.707,0l1.646,1.646C58.049,50.342,58.049,50.658,57.854,50.854z M8,50.5
	C8,50.224,7.776,50,7.5,50S7,50.224,7,50.5S7.224,51,7.5,51S8,50.776,8,50.5z M20,50.5c0-0.276-0.224-0.5-0.5-0.5S19,50.224,19,50.5
	s0.224,0.5,0.5,0.5S20,50.776,20,50.5z M35,50.5c0-0.276-0.224-0.5-0.5-0.5S34,50.224,34,50.5s0.224,0.5,0.5,0.5S35,50.776,35,50.5z
	 M44,50.5c0-0.276-0.224-0.5-0.5-0.5S43,50.224,43,50.5s0.224,0.5,0.5,0.5S44,50.776,44,50.5z M9.837,20v-6c0-1.105,0.895-2,2-2h6
	c1.105,0,2,0.895,2,2v6c0,1.105-0.895,2-2,2h-6C10.732,22,9.837,21.105,9.837,20z M18.081,20.951l-3.244-3.244l-3.244,3.244
	C11.673,20.971,11.751,21,11.837,21h6C17.923,21,18.001,20.971,18.081,20.951z M18.788,13.756L15.544,17l3.244,3.244
	c0.021-0.08,0.049-0.157,0.049-0.244v-6C18.837,13.914,18.808,13.836,18.788,13.756z M11.593,13.049l3.244,3.244l3.244-3.244
	C18.001,13.029,17.923,13,17.837,13h-6C11.751,13,11.673,13.029,11.593,13.049z M10.837,20c0,0.086,0.029,0.164,0.049,0.244
	L14.13,17l-3.244-3.244c-0.021,0.08-0.049,0.157-0.049,0.244V20z M19.663,26H10.5c-0.276,0-0.5,0.224-0.5,0.5s0.224,0.5,0.5,0.5
	h9.163c0.276,0,0.5-0.224,0.5-0.5S19.939,26,19.663,26z M10.5,24c-0.276,0-0.5,0.224-0.5,0.5s0.224,0.5,0.5,0.5h9.163
	c0.276,0,0.5-0.224,0.5-0.5s-0.224-0.5-0.5-0.5H10.5z M20.163,28.5c0-0.276-0.224-0.5-0.5-0.5H10.5c-0.276,0-0.5,0.224-0.5,0.5
	s0.224,0.5,0.5,0.5h9.163C19.939,29,20.163,28.776,20.163,28.5z M10.5,30c-0.276,0-0.5,0.224-0.5,0.5s0.224,0.5,0.5,0.5h5.163
	c0.276,0,0.5-0.224,0.5-0.5s-0.224-0.5-0.5-0.5H10.5z M34.5,48c0.276,0,0.5-0.224,0.5-0.5v-35c0-0.276-0.224-0.5-0.5-0.5
	S34,12.224,34,12.5v35C34,47.776,34.224,48,34.5,48z M36.837,20v-6c0-1.105,0.895-2,2-2h6c1.105,0,2,0.895,2,2v6
	c0,1.105-0.895,2-2,2h-6C37.732,22,36.837,21.105,36.837,20z M45.081,20.951l-3.244-3.244l-3.244,3.244
	C38.673,20.971,38.751,21,38.837,21h6C44.923,21,45.001,20.971,45.081,20.951z M45.788,13.756L42.544,17l3.244,3.244
	c0.021-0.08,0.049-0.157,0.049-0.244v-6C45.837,13.914,45.808,13.836,45.788,13.756z M38.593,13.049l3.244,3.244l3.244-3.244
	C45.001,13.029,44.923,13,44.837,13h-6C38.751,13,38.673,13.029,38.593,13.049z M37.837,20c0,0.086,0.029,0.164,0.049,0.244
	L41.13,17l-3.244-3.244c-0.021,0.08-0.049,0.157-0.049,0.244V20z M46.663,26H37.5c-0.276,0-0.5,0.224-0.5,0.5s0.224,0.5,0.5,0.5
	h9.163c0.276,0,0.5-0.224,0.5-0.5S46.939,26,46.663,26z M37.5,24c-0.276,0-0.5,0.224-0.5,0.5s0.224,0.5,0.5,0.5h9.163
	c0.276,0,0.5-0.224,0.5-0.5s-0.224-0.5-0.5-0.5H37.5z M47.163,28.5c0-0.276-0.224-0.5-0.5-0.5H37.5c-0.276,0-0.5,0.224-0.5,0.5
	s0.224,0.5,0.5,0.5h9.163C46.939,29,47.163,28.776,47.163,28.5z M37.5,30c-0.276,0-0.5,0.224-0.5,0.5s0.224,0.5,0.5,0.5h5.163
	c0.276,0,0.5-0.224,0.5-0.5s-0.224-0.5-0.5-0.5H37.5z"/>
</svg>
