<svg xmlns="http://www.w3.org/2000/svg" width="64" height="64" viewBox="0 0 64 64"><style type="text/css">.frame{fill:#FFFFFF;} .content{opacity:0.5;fill:#FFFFFF;}</style><path class="frame" d="M22 37h-7.071c.042-.161.071-.326.071-.5 0-1.105-.895-2-2-2s-2 .895-2 2c0 .174.029.339.071.5h-7.071c-1.657 0-3 1.343-3 3v19c0 1.657 1.343 3 3 3h18c1.657 0 3-1.343 3-3v-19c0-1.657-1.343-3-3-3zm-9-1.5c.551 0 1 .449 1 1s-.449 1-1 1-1-.449-1-1 .449-1 1-1zm11 23.5c0 1.103-.897 2-2 2h-18c-1.103 0-2-.897-2-2v-19c0-1.103.897-2 2-2h7.69c.23.201.505.35.81.429v1.571h1v-1.571c.305-.079.58-.228.81-.429h7.69c1.103 0 2 .897 2 2v19zm36-47h-11.071c.042-.161.071-.326.071-.5 0-1.105-.895-2-2-2s-2 .895-2 2c0 .174.029.339.071.5h-8.071v-5c0-1.657-1.343-3-3-3h-13.071c.042-.161.071-.326.071-.5 0-1.105-.895-2-2-2s-2 .895-2 2c0 .174.029.339.071.5h-13.071c-1.657 0-3 1.343-3 3v23c0 1.657 1.343 3 3 3h27v4h-1c-1.657 0-3 1.343-3 3v19c0 1.657 1.343 3 3 3h18c1.657 0 3-1.343 3-3v-11h9c1.657 0 3-1.343 3-3v-30c0-1.657-1.343-3-3-3zm-13-1.5c.551 0 1 .449 1 1s-.449 1-1 1-1-.449-1-1 .449-1 1-1zm-28-8c.551 0 1 .449 1 1s-.449 1-1 1-1-.449-1-1 .449-1 1-1zm-15 29.5c-1.103 0-2-.897-2-2v-23c0-1.103.897-2 2-2h13.69c.23.201.505.35.81.429v1.571h1v-1.571c.305-.079.58-.228.81-.429h13.69c1.103 0 2 .897 2 2v5h-2c-1.657 0-3 1.343-3 3v17h-27zm46 27c0 1.103-.897 2-2 2h-18c-1.103 0-2-.897-2-2v-19c0-1.103.897-2 2-2h7.69c.23.201.505.35.81.429v1.571h1v-1.571c.305-.079.58-.228.81-.429h7.69c1.103 0 2 .897 2 2v19zm-12-22.5c0-.551.449-1 1-1s1 .449 1 1-.449 1-1 1-1-.449-1-1zm24 8.5c0 1.103-.897 2-2 2h-9v-7c0-1.657-1.343-3-3-3h-7.071c.042-.161.071-.326.071-.5 0-1.105-.895-2-2-2s-2 .895-2 2c0 .174.029.339.071.5h-5.071v-22c0-1.103.897-2 2-2h11.69c.23.201.505.35.81.429v1.571h1v-1.571c.305-.079.58-.228.81-.429h11.69c1.103 0 2 .897 2 2v30z"/><path class="content" d="M20 41h-14c-1.105 0-2 .895-2 2v14c0 1.105.895 2 2 2h14c1.105 0 2-.895 2-2v-14c0-1.105-.895-2-2-2zm-14 1h14l.244.049-7.244 7.244-7.244-7.244.244-.049zm-1 15v-14l.049-.244 7.244 7.244-7.244 7.244-.049-.244zm15 1h-14l-.244-.049 7.244-7.244 7.244 7.244-.244.049zm1-1l-.049.244-7.244-7.244 7.244-7.244.049.244v14zm25-16h-14c-1.105 0-2 .895-2 2v14c0 1.105.895 2 2 2h14c1.105 0 2-.895 2-2v-14c0-1.105-.895-2-2-2zm-14 1h14l.244.049-7.244 7.244-7.244-7.244.244-.049zm-1 15v-14l.049-.244 7.244 7.244-7.244 7.244-.049-.244zm15 1h-14l-.244-.049 7.244-7.244 7.244 7.244-.244.049zm1-1l-.049.244-7.244-7.244 7.244-7.244.049.244v14zm-41-27h25.5v-1h-25.5l-.109-.022 13.109-9.364 12.5 8.929v-1.229l-11.64-8.314 13.072-9.337c.038.106.068.218.068.337v2.5h1v-2.5c0-1.105-.895-2-2-2h-26c-1.105 0-2 .895-2 2v18c0 1.105.895 2 2 2zm0-21h26l.109.022-13.109 9.364-13.109-9.364.109-.022zm-1 1c0-.119.03-.231.068-.337l13.072 9.337-13.072 9.337c-.038-.106-.068-.218-.068-.337v-18zm53 6h-22c-1.105 0-2 .895-2 2v19.5h1v-19.5l.041-.202 11.29 12.702-6.222 7h1.337l5.554-6.248 11.281 12.691c-.091.027-.181.057-.281.057h-7.5v1h7.5c1.105 0 2-.895 2-2v-25c0-1.105-.895-2-2-2zm-22.281 1.057c.091-.027.181-.057.281-.057h22c.1 0 .19.03.281.057l-11.281 12.691-11.281-12.691zm23.281 25.943l-.041.202-11.29-12.702 11.29-12.702.041.202v25z"/></svg>