<?xml version="1.0" encoding="utf-8"?>
<!-- Generator: Adobe Illustrator 22.0.1, SVG Export Plug-In . SVG Version: 6.00 Build 0)  -->
<svg version="1.1" id="icons" xmlns="http://www.w3.org/2000/svg" xmlns:xlink="http://www.w3.org/1999/xlink" x="0px" y="0px"
	 width="64px" height="64px" viewBox="0 0 64 64" style="enable-background:new 0 0 64 64;" xml:space="preserve">
<style type="text/css">
	.frame{fill:#FFFFFF;}
	.content{opacity:0.5;fill:#FFFFFF;}
</style>
<path class="frame" d="M60,4H4C2.343,4,1,5.343,1,7v43.375V50.9v2.475V53.9v3c0,1.657,1.343,3,3,3h56c1.657,0,3-1.343,3-3v-3v-0.525
	V50.9v-0.525V7C63,5.343,61.657,4,60,4z M2,7c0-1.103,0.897-2,2-2h56c1.103,0,2,0.897,2,2v43.9c0,1.103-0.897,2-2,2H4
	c-1.103,0-2-0.897-2-2V7z M2,53.121C2.532,53.6,3.228,53.9,4,53.9h56c0.772,0,1.468-0.3,2-0.779V53.9c0,1.103-0.897,2-2,2H4
	c-1.103,0-2-0.897-2-2V53.121z M60,58.9H4c-1.103,0-2-0.897-2-2v-0.779C2.532,56.6,3.228,56.9,4,56.9h56c0.772,0,1.468-0.3,2-0.779
	V56.9C62,58.003,61.103,58.9,60,58.9z"/>
<path class="content" d="M58,11.5c0,0.276-0.224,0.5-0.5,0.5h-36c-0.276,0-0.5-0.224-0.5-0.5s0.224-0.5,0.5-0.5h36
	C57.776,11,58,11.224,58,11.5z M57.5,14h-36c-0.276,0-0.5,0.224-0.5,0.5s0.224,0.5,0.5,0.5h36c0.276,0,0.5-0.224,0.5-0.5
	S57.776,14,57.5,14z M47.5,17h-26c-0.276,0-0.5,0.224-0.5,0.5s0.224,0.5,0.5,0.5h26c0.276,0,0.5-0.224,0.5-0.5S47.776,17,47.5,17z
	 M15,10H9c-1.105,0-2,0.895-2,2v6c0,1.105,0.895,2,2,2h6c1.105,0,2-0.895,2-2v-6C17,10.895,16.105,10,15,10z M9,11h6
	c0.086,0,0.164,0.029,0.244,0.049L12,14.293l-3.244-3.244C8.836,11.029,8.914,11,9,11z M8,18v-6c0-0.086,0.029-0.164,0.049-0.244
	L11.293,15l-3.244,3.244C8.029,18.164,8,18.086,8,18z M15,19H9c-0.086,0-0.164-0.029-0.244-0.049L12,15.707l3.244,3.244
	C15.164,18.971,15.086,19,15,19z M16,18c0,0.086-0.029,0.164-0.049,0.244L12.707,15l3.244-3.244C15.971,11.836,16,11.914,16,12V18z
	 M58,25.5c0,0.276-0.224,0.5-0.5,0.5h-36c-0.276,0-0.5-0.224-0.5-0.5s0.224-0.5,0.5-0.5h36C57.776,25,58,25.224,58,25.5z M57.5,28
	h-36c-0.276,0-0.5,0.224-0.5,0.5s0.224,0.5,0.5,0.5h36c0.276,0,0.5-0.224,0.5-0.5S57.776,28,57.5,28z M47.5,31h-26
	c-0.276,0-0.5,0.224-0.5,0.5s0.224,0.5,0.5,0.5h26c0.276,0,0.5-0.224,0.5-0.5S47.776,31,47.5,31z M15,24H9c-1.105,0-2,0.895-2,2v6
	c0,1.105,0.895,2,2,2h6c1.105,0,2-0.895,2-2v-6C17,24.895,16.105,24,15,24z M9,25h6c0.086,0,0.164,0.029,0.244,0.049L12,28.293
	l-3.244-3.244C8.836,25.029,8.914,25,9,25z M8,32v-6c0-0.086,0.029-0.164,0.049-0.244L11.293,29l-3.244,3.244
	C8.029,32.164,8,32.086,8,32z M15,33H9c-0.086,0-0.164-0.029-0.244-0.049L12,29.707l3.244,3.244C15.164,32.971,15.086,33,15,33z
	 M16,32c0,0.086-0.029,0.164-0.049,0.244L12.707,29l3.244-3.244C15.971,25.836,16,25.914,16,26V32z M58,39.5
	c0,0.276-0.224,0.5-0.5,0.5h-36c-0.276,0-0.5-0.224-0.5-0.5s0.224-0.5,0.5-0.5h36C57.776,39,58,39.224,58,39.5z M57.5,42h-36
	c-0.276,0-0.5,0.224-0.5,0.5s0.224,0.5,0.5,0.5h36c0.276,0,0.5-0.224,0.5-0.5S57.776,42,57.5,42z M47.5,45h-26
	c-0.276,0-0.5,0.224-0.5,0.5s0.224,0.5,0.5,0.5h26c0.276,0,0.5-0.224,0.5-0.5S47.776,45,47.5,45z M15,38H9c-1.105,0-2,0.895-2,2v6
	c0,1.105,0.895,2,2,2h6c1.105,0,2-0.895,2-2v-6C17,38.895,16.105,38,15,38z M9,39h6c0.086,0,0.164,0.029,0.244,0.049L12,42.293
	l-3.244-3.244C8.836,39.029,8.914,39,9,39z M8,46v-6c0-0.086,0.029-0.164,0.049-0.244L11.293,43l-3.244,3.244
	C8.029,46.164,8,46.086,8,46z M15,47H9c-0.086,0-0.164-0.029-0.244-0.049L12,43.707l3.244,3.244C15.164,46.971,15.086,47,15,47z
	 M16,46c0,0.086-0.029,0.164-0.049,0.244L12.707,43l3.244-3.244C15.971,39.836,16,39.914,16,40V46z"/>
</svg>
