<svg xmlns="http://www.w3.org/2000/svg" width="64" height="64" viewBox="0 0 64 64"><style type="text/css">.frame{fill:#FFFFFF;} .content{opacity:0.5;fill:#FFFFFF;}</style><path class="content" d="M57 9h-6c-1.105 0-2 .895-2 2v4c0 1.105.895 2 2 2h6c1.105 0 2-.895 2-2v-4c0-1.105-.895-2-2-2zm1 2v4c0 .115-.03.222-.066.326l-3.101-2.326 3.101-2.326c.036.104.066.211.066.326zm-1-1l.131.027-3.131 2.348-3.131-2.349.131-.026h6zm-6.934 5.326c-.036-.104-.066-.211-.066-.326v-4c0-.115.03-.222.066-.326l3.101 2.326-3.101 2.326zm.934.674l-.131-.027 3.131-2.348 3.131 2.349-.131.026h-6zm-2-9.5c0-.276.224-.5.5-.5h8c.276 0 .5.224.5.5s-.224.5-.5.5h-8c-.276 0-.5-.224-.5-.5zm10 14c0 .276-.224.5-.5.5h-9c-.276 0-.5-.224-.5-.5s.224-.5.5-.5h9c.276 0 .5.224.5.5zm0 3c0 .276-.224.5-.5.5h-9c-.276 0-.5-.224-.5-.5s.224-.5.5-.5h9c.276 0 .5.224.5.5zm-10 3c0-.276.224-.5.5-.5h6c.276 0 .5.224.5.5s-.224.5-.5.5h-6c-.276 0-.5-.224-.5-.5zm-14 12.5h-6c-1.105 0-2 .895-2 2v4c0 1.105.895 2 2 2h6c1.105 0 2-.895 2-2v-4c0-1.105-.895-2-2-2zm1 2v4c0 .115-.03.222-.066.326l-3.101-2.326 3.101-2.326c.036.104.066.211.066.326zm-1-1l.131.027-3.131 2.348-3.131-2.349.131-.026h6zm-6.934 5.326c-.036-.104-.066-.211-.066-.326v-4c0-.115.03-.222.066-.326l3.101 2.326-3.101 2.326zm.934.674l-.131-.027 3.131-2.348 3.131 2.349-.131.026h-6zm-2-9.5c0-.276.224-.5.5-.5h8c.276 0 .5.224.5.5s-.224.5-.5.5h-8c-.276 0-.5-.224-.5-.5zm10 14c0 .276-.224.5-.5.5h-9c-.276 0-.5-.224-.5-.5s.224-.5.5-.5h9c.276 0 .5.224.5.5zm0 3c0 .276-.224.5-.5.5h-9c-.276 0-.5-.224-.5-.5s.224-.5.5-.5h9c.276 0 .5.224.5.5zm-3 3c0 .276-.224.5-.5.5h-6c-.276 0-.5-.224-.5-.5s.224-.5.5-.5h6c.276 0 .5.224.5.5zm23-17.5h-6c-1.105 0-2 .895-2 2v4c0 1.105.895 2 2 2h6c1.105 0 2-.895 2-2v-4c0-1.105-.895-2-2-2zm1 2v4c0 .115-.03.222-.066.326l-3.101-2.326 3.101-2.326c.036.104.066.211.066.326zm-1-1l.131.027-3.131 2.348-3.131-2.349.131-.026h6zm-6.934 5.326c-.036-.104-.066-.211-.066-.326v-4c0-.115.03-.222.066-.326l3.101 2.326-3.101 2.326zm.934.674l-.131-.027 3.131-2.348 3.131 2.349-.131.026h-6zm-2-9.5c0-.276.224-.5.5-.5h8c.276 0 .5.224.5.5s-.224.5-.5.5h-8c-.276 0-.5-.224-.5-.5zm10 14c0 .276-.224.5-.5.5h-9c-.276 0-.5-.224-.5-.5s.224-.5.5-.5h9c.276 0 .5.224.5.5zm0 3c0 .276-.224.5-.5.5h-9c-.276 0-.5-.224-.5-.5s.224-.5.5-.5h9c.276 0 .5.224.5.5zm-3 3c0 .276-.224.5-.5.5h-6c-.276 0-.5-.224-.5-.5s.224-.5.5-.5h6c.276 0 .5.224.5.5zm-43-47.5h-6c-1.105 0-2 .895-2 2v4c0 1.105.895 2 2 2h6c1.105 0 2-.895 2-2v-4c0-1.105-.895-2-2-2zm1 2v4c0 .115-.03.222-.066.326l-3.101-2.326 3.101-2.326c.036.104.066.211.066.326zm-1-1l.131.027-3.131 2.348-3.131-2.349.131-.026h6zm-6.934 5.326c-.036-.104-.066-.211-.066-.326v-4c0-.115.03-.222.066-.326l3.101 2.326-3.101 2.326zm.934.674l-.131-.027 3.131-2.348 3.131 2.349-.131.026h-6zm-2-9.5c0-.276.224-.5.5-.5h8c.276 0 .5.224.5.5s-.224.5-.5.5h-8c-.276 0-.5-.224-.5-.5zm10 14c0 .276-.224.5-.5.5h-9c-.276 0-.5-.224-.5-.5s.224-.5.5-.5h9c.276 0 .5.224.5.5zm0 3c0 .276-.224.5-.5.5h-9c-.276 0-.5-.224-.5-.5s.224-.5.5-.5h9c.276 0 .5.224.5.5zm-3 3c0 .276-.224.5-.5.5h-6c-.276 0-.5-.224-.5-.5s.224-.5.5-.5h6c.276 0 .5.224.5.5z"/><path class="frame" d="M48 31h12c1.657 0 3-1.343 3-3v-22c0-1.657-1.343-3-3-3h-12c-1.657 0-3 1.343-3 3v10.5h-26v-10.5c0-1.657-1.343-3-3-3h-12c-1.657 0-3 1.343-3 3v22c0 1.657 1.343 3 3 3h12c1.657 0 3-1.343 3-3v-10.5h12.5v15.5h-5.5c-1.657 0-3 1.343-3 3v22c0 1.657 1.343 3 3 3h12c1.657 0 3-1.343 3-3v-10.5h4v10.5c0 1.657 1.343 3 3 3h12c1.657 0 3-1.343 3-3v-22c0-1.657-1.343-3-3-3h-12c-1.657 0-3 1.343-3 3v10.5h-4v-10.5c0-1.657-1.343-3-3-3h-5.5v-15.5h12.5v10.5c0 1.657 1.343 3 3 3zm-2-25c0-1.103.897-2 2-2h12c1.103 0 2 .897 2 2v22c0 1.103-.897 2-2 2h-12c-1.103 0-2-.897-2-2v-22zm-28 22c0 1.103-.897 2-2 2h-12c-1.103 0-2-.897-2-2v-22c0-1.103.897-2 2-2h12c1.103 0 2 .897 2 2v22zm28 8c0-1.103.897-2 2-2h12c1.103 0 2 .897 2 2v22c0 1.103-.897 2-2 2h-12c-1.103 0-2-.897-2-2v-22zm-8-2c1.103 0 2 .897 2 2v22c0 1.103-.897 2-2 2h-12c-1.103 0-2-.897-2-2v-22c0-1.103.897-2 2-2h12z"/></svg>