<?xml version="1.0" encoding="utf-8"?>
<!-- Generator: Adobe Illustrator 22.0.1, SVG Export Plug-In . SVG Version: 6.00 Build 0)  -->
<svg version="1.1" id="icons" xmlns="http://www.w3.org/2000/svg" xmlns:xlink="http://www.w3.org/1999/xlink" x="0px" y="0px"
	 width="64px" height="64px" viewBox="0 0 64 64" style="enable-background:new 0 0 64 64;" xml:space="preserve">
<style type="text/css">
	.frame{fill:#FFFFFF;}
	.content{opacity:0.5;fill:#FFFFFF;}
</style>
<path class="content" d="M8,13.5C8,13.224,8.224,13,8.5,13h4c0.276,0,0.5,0.224,0.5,0.5S12.776,14,12.5,14h-4
	C8.224,14,8,13.776,8,13.5z M8.5,16h4c0.276,0,0.5-0.224,0.5-0.5S12.776,15,12.5,15h-4C8.224,15,8,15.224,8,15.5S8.224,16,8.5,16z
	 M8.5,18h4c0.276,0,0.5-0.224,0.5-0.5S12.776,17,12.5,17h-4C8.224,17,8,17.224,8,17.5S8.224,18,8.5,18z M20,33v12.5h-1V33
	c0-0.015-0.008-0.028-0.009-0.043L14.59,40l3.438,5.5h-1.179L14,40.943L11.152,45.5H9.973L13.41,40l-4.402-7.043
	C9.008,32.972,9,32.985,9,33v12.5H8V33c0-1.105,0.895-2,2-2h8C19.105,31,20,31.895,20,33z M18.364,32.074
	C18.251,32.029,18.129,32,18,32h-8c-0.129,0-0.251,0.029-0.364,0.074L14,39.057L18.364,32.074z M50.5,28v1H53v-1H50.5z M29.5,41.457
	L28.59,40l0.91-1.457v-1.887l-1.5,2.4l-4.364-6.983C23.749,32.029,23.871,32,24,32h5.5v-1H24c-1.105,0-2,0.895-2,2v12.5h1V33
	c0-0.015,0.008-0.028,0.009-0.043L27.41,40l-3.438,5.5h1.179L28,40.943l1.5,2.4V41.457z M29.5,28h-24v1h24V28z M47.5,40h-15v1h15V40
	z M35,48.5V44c0-0.015,0.008-0.028,0.009-0.043l2.839,4.543h1.179l-3.391-5.426C35.749,43.029,35.871,43,36,43h8
	c0.129,0,0.251,0.029,0.364,0.074L40.973,48.5h1.179l2.839-4.543C44.992,43.972,45,43.985,45,44v4.5h1V44c0-1.105-0.895-2-2-2h-8
	c-1.105,0-2,0.895-2,2v4.5H35z M34,27.5c0-0.276,0.224-0.5,0.5-0.5h2c0.276,0,0.5,0.224,0.5,0.5S36.776,28,36.5,28h-2
	C34.224,28,34,27.776,34,27.5z M34.5,30h2c0.276,0,0.5-0.224,0.5-0.5S36.776,29,36.5,29h-2c-0.276,0-0.5,0.224-0.5,0.5
	S34.224,30,34.5,30z M37,38c-0.276,0-0.5,0.224-0.5,0.5S36.724,39,37,39s0.5-0.224,0.5-0.5S37.276,38,37,38z M39,38
	c-0.276,0-0.5,0.224-0.5,0.5S38.724,39,39,39s0.5-0.224,0.5-0.5S39.276,38,39,38z M41,38c-0.276,0-0.5,0.224-0.5,0.5
	S40.724,39,41,39s0.5-0.224,0.5-0.5S41.276,38,41,38z M43,38c-0.276,0-0.5,0.224-0.5,0.5S42.724,39,43,39s0.5-0.224,0.5-0.5
	S43.276,38,43,38z"/>
<path class="frame" d="M40.135,51c-1.105,0-2,0.895-2,2s0.895,2,2,2s2-0.895,2-2S41.24,51,40.135,51z M40.135,54
	c-0.551,0-1-0.449-1-1s0.449-1,1-1s1,0.449,1,1S40.687,54,40.135,54z M47,25H33c-0.552,0-1,0.448-1,1v22c0,0.552,0.448,1,1,1h14
	c0.552,0,1-0.448,1-1V26C48,25.448,47.552,25,47,25z M47,48H33V26h14V48z M60,6H4C2.343,6,1,7.343,1,9v38c0,1.657,1.343,3,3,3h25v5
	c0,1.657,1.343,3,3,3h16c1.657,0,3-1.343,3-3v-5h9c1.657,0,3-1.343,3-3V9C63,7.343,61.657,6,60,6z M50,55c0,1.103-0.897,2-2,2H32
	c-1.103,0-2-0.897-2-2V25c0-1.103,0.897-2,2-2h16c1.103,0,2,0.897,2,2V55z M48,22H32c-1.657,0-3,1.343-3,3v20H6V11h47v34h-2V25
	C51,23.343,49.657,22,48,22z M62,47c0,1.103-0.897,2-2,2h-9v-3h2c0.552,0,1-0.448,1-1V11c0-0.552-0.448-1-1-1H6
	c-0.552,0-1,0.448-1,1v34c0,0.552,0.448,1,1,1h23v3H4c-1.103,0-2-0.897-2-2V9c0-1.103,0.897-2,2-2h56c1.103,0,2,0.897,2,2V47z
	 M58,26c-1.105,0-2,0.895-2,2c0,1.105,0.895,2,2,2s2-0.895,2-2C60,26.895,59.105,26,58,26z M58,29c-0.551,0-1-0.449-1-1s0.449-1,1-1
	s1,0.449,1,1S58.551,29,58,29z"/>
</svg>
