<?xml version="1.0" encoding="utf-8"?>
<!-- Generator: Adobe Illustrator 22.0.1, SVG Export Plug-In . SVG Version: 6.00 Build 0)  -->
<svg version="1.1" id="icons" xmlns="http://www.w3.org/2000/svg" xmlns:xlink="http://www.w3.org/1999/xlink" x="0px" y="0px"
	 width="64px" height="64px" viewBox="0 0 64 64" style="enable-background:new 0 0 64 64;" xml:space="preserve">
<style type="text/css">
	.frame{fill:#FFFFFF;}
	.content{opacity:0.5;fill:#FFFFFF;}
</style>
<path class="frame" d="M60,3H4C2.343,3,1,4.343,1,6v45c0,1.657,1.343,3,3,3h21v6h-4.5c-0.276,0-0.5,0.224-0.5,0.5
	c0,0.276,0.224,0.5,0.5,0.5H25h14h4.5c0.276,0,0.5-0.224,0.5-0.5c0-0.276-0.224-0.5-0.5-0.5H39v-6h21c1.657,0,3-1.343,3-3V6
	C63,4.343,61.657,3,60,3z M38,60H26v-6h12V60z M62,51c0,1.103-0.897,2-2,2H39H25H4c-1.103,0-2-0.897-2-2v-6h60V51z M62,44H2V6
	c0-1.103,0.897-2,2-2h56c1.103,0,2,0.897,2,2V44z"/>
<path class="content" d="M5,9c0-0.552,0.448-1,1-1s1,0.448,1,1c0,0.552-0.448,1-1,1S5,9.552,5,9z M9,9c0-0.552,0.448-1,1-1
	s1,0.448,1,1c0,0.552-0.448,1-1,1S9,9.552,9,9z M13,9c0-0.552,0.448-1,1-1s1,0.448,1,1c0,0.552-0.448,1-1,1S13,9.552,13,9z M19,9
	c0,0.552-0.448,1-1,1s-1-0.448-1-1c0-0.552,0.448-1,1-1S19,8.448,19,9z M21,9c0-0.552,0.448-1,1-1s1,0.448,1,1c0,0.552-0.448,1-1,1
	S21,9.552,21,9z M25,9c0-0.552,0.448-1,1-1s1,0.448,1,1c0,0.552-0.448,1-1,1S25,9.552,25,9z M29,9c0-0.552,0.448-1,1-1s1,0.448,1,1
	c0,0.552-0.448,1-1,1S29,9.552,29,9z M33,9c0-0.552,0.448-1,1-1s1,0.448,1,1c0,0.552-0.448,1-1,1S33,9.552,33,9z M37,9
	c0-0.552,0.448-1,1-1s1,0.448,1,1c0,0.552-0.448,1-1,1S37,9.552,37,9z M41,9c0-0.552,0.448-1,1-1s1,0.448,1,1c0,0.552-0.448,1-1,1
	S41,9.552,41,9z M47,9c0,0.552-0.448,1-1,1s-1-0.448-1-1c0-0.552,0.448-1,1-1S47,8.448,47,9z M49,9c0-0.552,0.448-1,1-1s1,0.448,1,1
	c0,0.552-0.448,1-1,1S49,9.552,49,9z M53,9c0-0.552,0.448-1,1-1s1,0.448,1,1c0,0.552-0.448,1-1,1S53,9.552,53,9z M57,9
	c0-0.552,0.448-1,1-1s1,0.448,1,1c0,0.552-0.448,1-1,1S57,9.552,57,9z M5,39c0-0.552,0.448-1,1-1s1,0.448,1,1c0,0.552-0.448,1-1,1
	S5,39.552,5,39z M9,39c0-0.552,0.448-1,1-1s1,0.448,1,1c0,0.552-0.448,1-1,1S9,39.552,9,39z M13,39c0-0.552,0.448-1,1-1s1,0.448,1,1
	c0,0.552-0.448,1-1,1S13,39.552,13,39z M19,39c0,0.552-0.448,1-1,1s-1-0.448-1-1c0-0.552,0.448-1,1-1S19,38.448,19,39z M21,39
	c0-0.552,0.448-1,1-1s1,0.448,1,1c0,0.552-0.448,1-1,1S21,39.552,21,39z M27,39c0,0.552-0.448,1-1,1s-1-0.448-1-1
	c0-0.552,0.448-1,1-1S27,38.448,27,39z M31,39c0,0.552-0.448,1-1,1s-1-0.448-1-1c0-0.552,0.448-1,1-1S31,38.448,31,39z M35,39
	c0,0.552-0.448,1-1,1s-1-0.448-1-1c0-0.552,0.448-1,1-1S35,38.448,35,39z M37,39c0-0.552,0.448-1,1-1s1,0.448,1,1
	c0,0.552-0.448,1-1,1S37,39.552,37,39z M41,39c0-0.552,0.448-1,1-1s1,0.448,1,1c0,0.552-0.448,1-1,1S41,39.552,41,39z M47,39
	c0,0.552-0.448,1-1,1s-1-0.448-1-1c0-0.552,0.448-1,1-1S47,38.448,47,39z M49,39c0-0.552,0.448-1,1-1s1,0.448,1,1
	c0,0.552-0.448,1-1,1S49,39.552,49,39z M55,39c0,0.552-0.448,1-1,1s-1-0.448-1-1c0-0.552,0.448-1,1-1S55,38.448,55,39z M59,39
	c0,0.552-0.448,1-1,1s-1-0.448-1-1c0-0.552,0.448-1,1-1S59,38.448,59,39z M28.001,17.673c0.158,0,0.319,0.038,0.473,0.121
	l9.891,5.326c0.701,0.378,0.701,1.383,0,1.761l-9.891,5.326c-0.154,0.083-0.316,0.121-0.473,0.121c-0.523,0-1.001-0.42-1.001-1.001
	V18.674C27,18.093,27.477,17.673,28.001,17.673 M28.001,16.673L28.001,16.673c-1.103,0-2.001,0.898-2.001,2.001v10.652
	c0,1.104,0.898,2.001,2.001,2.001c0.328,0,0.655-0.083,0.947-0.24l9.891-5.326c0.649-0.349,1.052-1.024,1.052-1.761
	s-0.403-1.412-1.052-1.761l-9.891-5.326C28.656,16.756,28.329,16.673,28.001,16.673L28.001,16.673z"/>
</svg>
