<?xml version="1.0" encoding="utf-8"?>
<!-- Generator: Adobe Illustrator 22.0.1, SVG Export Plug-In . SVG Version: 6.00 Build 0)  -->
<svg version="1.1" id="icons" xmlns="http://www.w3.org/2000/svg" xmlns:xlink="http://www.w3.org/1999/xlink" x="0px" y="0px"
	 width="64px" height="64px" viewBox="0 0 64 64" style="enable-background:new 0 0 64 64;" xml:space="preserve">
<style type="text/css">
	.frame{fill:#FFFFFF;}
	.content{opacity:0.5;fill:#FFFFFF;}
</style>
<path class="frame" d="M16,4H4C2.343,4,1,5.343,1,7v20c0,1.657,1.343,3,3,3h12c1.657,0,3-1.343,3-3V7C19,5.343,17.657,4,16,4z
	 M18,27c0,1.103-0.897,2-2,2H4c-1.103,0-2-0.897-2-2V7c0-1.103,0.897-2,2-2h12c1.103,0,2,0.897,2,2V27z M16,34H4
	c-1.657,0-3,1.343-3,3v20c0,1.657,1.343,3,3,3h12c1.657,0,3-1.343,3-3V37C19,35.343,17.657,34,16,34z M18,57c0,1.103-0.897,2-2,2H4
	c-1.103,0-2-0.897-2-2V37c0-1.103,0.897-2,2-2h12c1.103,0,2,0.897,2,2V57z M38,34H26c-1.657,0-3,1.343-3,3v20c0,1.657,1.343,3,3,3
	h12c1.657,0,3-1.343,3-3V37C41,35.343,39.657,34,38,34z M40,57c0,1.103-0.897,2-2,2H26c-1.103,0-2-0.897-2-2V37c0-1.103,0.897-2,2-2
	h12c1.103,0,2,0.897,2,2V57z M60,4H48c-1.657,0-3,1.343-3,3v20c0,1.657,1.343,3,3,3h12c1.657,0,3-1.343,3-3V7
	C63,5.343,61.657,4,60,4z M62,27c0,1.103-0.897,2-2,2H48c-1.103,0-2-0.897-2-2V7c0-1.103,0.897-2,2-2h12c1.103,0,2,0.897,2,2V27z
	 M60,34H48c-1.657,0-3,1.343-3,3v20c0,1.657,1.343,3,3,3h12c1.657,0,3-1.343,3-3V37C63,35.343,61.657,34,60,34z M62,57
	c0,1.103-0.897,2-2,2H48c-1.103,0-2-0.897-2-2V37c0-1.103,0.897-2,2-2h12c1.103,0,2,0.897,2,2V57z M38,4H26c-1.657,0-3,1.343-3,3v20
	c0,1.657,1.343,3,3,3h12c1.657,0,3-1.343,3-3V7C41,5.343,39.657,4,38,4z M40,27c0,1.103-0.897,2-2,2H26c-1.103,0-2-0.897-2-2V7
	c0-1.103,0.897-2,2-2h12c1.103,0,2,0.897,2,2V27z"/>
<path class="content" d="M60,6H48c-0.552,0-1,0.448-1,1v10c0,0.552,0.448,1,1,1h12c0.552,0,1-0.448,1-1V7C61,6.448,60.552,6,60,6z
	 M59.219,7L54,11.349L48.781,7H59.219z M48,7.651L53.219,12L48,16.349V7.651z M48.781,17L54,12.651L59.219,17H48.781z M60,16.349
	L54.781,12L60,7.651V16.349z M61,23.5c0,0.276-0.224,0.5-0.5,0.5h-13c-0.276,0-0.5-0.224-0.5-0.5s0.224-0.5,0.5-0.5h13
	C60.776,23,61,23.224,61,23.5z M57,26.5c0,0.276-0.224,0.5-0.5,0.5h-9c-0.276,0-0.5-0.224-0.5-0.5s0.224-0.5,0.5-0.5h9
	C56.776,26,57,26.224,57,26.5z M61,20.5c0,0.276-0.224,0.5-0.5,0.5h-13c-0.276,0-0.5-0.224-0.5-0.5s0.224-0.5,0.5-0.5h13
	C60.776,20,61,20.224,61,20.5z M38,6H26c-0.552,0-1,0.448-1,1v10c0,0.552,0.448,1,1,1h12c0.552,0,1-0.448,1-1V7
	C39,6.448,38.552,6,38,6z M37.219,7L32,11.349L26.781,7H37.219z M26,7.651L31.219,12L26,16.349V7.651z M26.781,17L32,12.651
	L37.219,17H26.781z M38,16.349L32.781,12L38,7.651V16.349z M39,23.5c0,0.276-0.224,0.5-0.5,0.5h-13c-0.276,0-0.5-0.224-0.5-0.5
	s0.224-0.5,0.5-0.5h13C38.776,23,39,23.224,39,23.5z M35,26.5c0,0.276-0.224,0.5-0.5,0.5h-9c-0.276,0-0.5-0.224-0.5-0.5
	s0.224-0.5,0.5-0.5h9C34.776,26,35,26.224,35,26.5z M39,20.5c0,0.276-0.224,0.5-0.5,0.5h-13c-0.276,0-0.5-0.224-0.5-0.5
	s0.224-0.5,0.5-0.5h13C38.776,20,39,20.224,39,20.5z M38,36H26c-0.552,0-1,0.448-1,1v10c0,0.552,0.448,1,1,1h12c0.552,0,1-0.448,1-1
	V37C39,36.448,38.552,36,38,36z M37.219,37L32,41.349L26.781,37H37.219z M26,37.651L31.219,42L26,46.349V37.651z M26.781,47
	L32,42.651L37.219,47H26.781z M38,46.349L32.781,42L38,37.651V46.349z M39,53.5c0,0.276-0.224,0.5-0.5,0.5h-13
	c-0.276,0-0.5-0.224-0.5-0.5s0.224-0.5,0.5-0.5h13C38.776,53,39,53.224,39,53.5z M35,56.5c0,0.276-0.224,0.5-0.5,0.5h-9
	c-0.276,0-0.5-0.224-0.5-0.5s0.224-0.5,0.5-0.5h9C34.776,56,35,56.224,35,56.5z M39,50.5c0,0.276-0.224,0.5-0.5,0.5h-13
	c-0.276,0-0.5-0.224-0.5-0.5s0.224-0.5,0.5-0.5h13C38.776,50,39,50.224,39,50.5z M60,36H48c-0.552,0-1,0.448-1,1v10
	c0,0.552,0.448,1,1,1h12c0.552,0,1-0.448,1-1V37C61,36.448,60.552,36,60,36z M59.219,37L54,41.349L48.781,37H59.219z M48,37.651
	L53.219,42L48,46.349V37.651z M48.781,47L54,42.651L59.219,47H48.781z M60,46.349L54.781,42L60,37.651V46.349z M61,53.5
	c0,0.276-0.224,0.5-0.5,0.5h-13c-0.276,0-0.5-0.224-0.5-0.5s0.224-0.5,0.5-0.5h13C60.776,53,61,53.224,61,53.5z M57,56.5
	c0,0.276-0.224,0.5-0.5,0.5h-9c-0.276,0-0.5-0.224-0.5-0.5s0.224-0.5,0.5-0.5h9C56.776,56,57,56.224,57,56.5z M61,50.5
	c0,0.276-0.224,0.5-0.5,0.5h-13c-0.276,0-0.5-0.224-0.5-0.5s0.224-0.5,0.5-0.5h13C60.776,50,61,50.224,61,50.5z M16,6H4
	C3.448,6,3,6.448,3,7v10c0,0.552,0.448,1,1,1h12c0.552,0,1-0.448,1-1V7C17,6.448,16.552,6,16,6z M15.219,7L10,11.349L4.781,7H15.219
	z M4,7.651L9.219,12L4,16.349V7.651z M4.781,17L10,12.651L15.219,17H4.781z M16,16.349L10.781,12L16,7.651V16.349z M17,23.5
	c0,0.276-0.224,0.5-0.5,0.5h-13C3.224,24,3,23.776,3,23.5S3.224,23,3.5,23h13C16.776,23,17,23.224,17,23.5z M13,26.5
	c0,0.276-0.224,0.5-0.5,0.5h-9C3.224,27,3,26.776,3,26.5S3.224,26,3.5,26h9C12.776,26,13,26.224,13,26.5z M17,20.5
	c0,0.276-0.224,0.5-0.5,0.5h-13C3.224,21,3,20.776,3,20.5S3.224,20,3.5,20h13C16.776,20,17,20.224,17,20.5z M16,36H4
	c-0.552,0-1,0.448-1,1v10c0,0.552,0.448,1,1,1h12c0.552,0,1-0.448,1-1V37C17,36.448,16.552,36,16,36z M15.219,37L10,41.349L4.781,37
	H15.219z M4,37.651L9.219,42L4,46.349V37.651z M4.781,47L10,42.651L15.219,47H4.781z M16,46.349L10.781,42L16,37.651V46.349z
	 M17,53.5c0,0.276-0.224,0.5-0.5,0.5h-13C3.224,54,3,53.776,3,53.5S3.224,53,3.5,53h13C16.776,53,17,53.224,17,53.5z M13,56.5
	c0,0.276-0.224,0.5-0.5,0.5h-9C3.224,57,3,56.776,3,56.5S3.224,56,3.5,56h9C12.776,56,13,56.224,13,56.5z M17,50.5
	c0,0.276-0.224,0.5-0.5,0.5h-13C3.224,51,3,50.776,3,50.5S3.224,50,3.5,50h13C16.776,50,17,50.224,17,50.5z"/>
</svg>
