<?xml version="1.0" encoding="utf-8"?>
<!-- Generator: Adobe Illustrator 22.0.1, SVG Export Plug-In . SVG Version: 6.00 Build 0)  -->
<svg version="1.1" id="icons" xmlns="http://www.w3.org/2000/svg" xmlns:xlink="http://www.w3.org/1999/xlink" x="0px" y="0px"
	 width="64px" height="64px" viewBox="0 0 64 64" style="enable-background:new 0 0 64 64;" xml:space="preserve">
<style type="text/css">
	.frame{fill:#FFFFFF;}
	.content{opacity:0.5;fill:#FFFFFF;}
</style>
<path class="frame" d="M60,6H44c0-1.657-1.343-3-3-3H4C2.343,3,1,4.343,1,6v49c0,1.657,1.343,3,3,3h26c0,1.657,1.343,3,3,3h27
	c1.657,0,3-1.343,3-3V9C63,7.343,61.657,6,60,6z M4,57c-1.104,0-2-0.895-2-2V6c0-1.105,0.896-2,2-2h37c1.104,0,2,0.895,2,2v49
	c0,1.105-0.896,2-2,2H4z M31,58h7.242l-5.314,1.993C31.858,59.954,31,59.08,31,58z M62,58c0,1.105-0.896,2-2,2H35.758l5.367-2.013
	C42.722,57.921,44,56.614,44,55V7h16c1.104,0,2,0.895,2,2V58z"/>
<path class="content" d="M43.5,42H38c-0.086,0-0.164-0.029-0.244-0.049L41,38.707l2.5,2.5v-1.414L41.707,38l1.793-1.793v-1.414
	l-2.5,2.5l-3.244-3.244C37.836,34.029,37.914,34,38,34h5.5v-1H38c-1.105,0-2,0.895-2,2v6c0,1.105,0.895,2,2,2h5.5V42z M37,41v-6
	c0-0.086,0.029-0.164,0.049-0.244L40.293,38l-3.244,3.244C37.029,41.164,37,41.086,37,41z M14,49.5c0,0.276-0.224,0.5-0.5,0.5h-9
	C4.224,50,4,49.776,4,49.5S4.224,49,4.5,49h9C13.776,49,14,49.224,14,49.5z M38,17h5.5v-1H38c-0.086,0-0.164-0.029-0.244-0.049
	L41,12.707l2.5,2.5v-1.414L41.707,12l1.793-1.793V8.793l-2.5,2.5l-3.244-3.244C37.836,8.029,37.914,8,38,8h5.5V7H38
	c-1.105,0-2,0.895-2,2v6C36,16.105,36.895,17,38,17z M37,9c0-0.086,0.029-0.164,0.049-0.244L40.293,12l-3.244,3.244
	C37.029,15.164,37,15.086,37,15V9z M11,51.5c0,0.276-0.224,0.5-0.5,0.5h-6C4.224,52,4,51.776,4,51.5S4.224,51,4.5,51h6
	C10.776,51,11,51.224,11,51.5z M30,49.5c0,0.276-0.224,0.5-0.5,0.5h-9c-0.276,0-0.5-0.224-0.5-0.5s0.224-0.5,0.5-0.5h9
	C29.776,49,30,49.224,30,49.5z M16.707,10C16.512,9.805,16.195,9.805,16,10s-0.195,0.512,0,0.707l0.793,0.793H14V9
	c0-1.105-0.895-2-2-2H6C4.895,7,4,7.895,4,9v6c0,1.105,0.895,2,2,2h6c1.105,0,2-0.895,2-2v-2.5h2.793L16,13.293
	c-0.195,0.195-0.195,0.512,0,0.707s0.512,0.195,0.707,0l1.646-1.646c0.195-0.195,0.195-0.512,0-0.707L16.707,10z M6,8h6
	c0.086,0,0.164,0.029,0.244,0.049L9,11.293L5.756,8.049C5.836,8.029,5.914,8,6,8z M5,15V9c0-0.086,0.029-0.164,0.049-0.244L8.293,12
	l-3.244,3.244C5.029,15.164,5,15.086,5,15z M12,16H6c-0.086,0-0.164-0.029-0.244-0.049L9,12.707l3.244,3.244
	C12.164,15.971,12.086,16,12,16z M13,15c0,0.086-0.029,0.164-0.049,0.244L9.707,12l3.244-3.244C12.971,8.836,13,8.914,13,9V15z
	 M27,51.5c0,0.276-0.224,0.5-0.5,0.5h-6c-0.276,0-0.5-0.224-0.5-0.5s0.224-0.5,0.5-0.5h6C26.776,51,27,51.224,27,51.5z M59,52.5
	c0,0.276-0.224,0.5-0.5,0.5h-9c-0.276,0-0.5-0.224-0.5-0.5s0.224-0.5,0.5-0.5h9C58.776,52,59,52.224,59,52.5z M56,54.5
	c0,0.276-0.224,0.5-0.5,0.5h-6c-0.276,0-0.5-0.224-0.5-0.5s0.224-0.5,0.5-0.5h6C55.776,54,56,54.224,56,54.5z M43.5,50h-7
	c-0.276,0-0.5-0.224-0.5-0.5s0.224-0.5,0.5-0.5h7V50z M14,47.5c0,0.276-0.224,0.5-0.5,0.5h-9C4.224,48,4,47.776,4,47.5
	S4.224,47,4.5,47h9C13.776,47,14,47.224,14,47.5z M30,47.5c0,0.276-0.224,0.5-0.5,0.5h-9c-0.276,0-0.5-0.224-0.5-0.5
	s0.224-0.5,0.5-0.5h9C29.776,47,30,47.224,30,47.5z M59,50.5c0,0.276-0.224,0.5-0.5,0.5h-9c-0.276,0-0.5-0.224-0.5-0.5
	s0.224-0.5,0.5-0.5h9C58.776,50,59,50.224,59,50.5z M43.5,48h-7c-0.276,0-0.5-0.224-0.5-0.5s0.224-0.5,0.5-0.5h7V48z M42,51.5
	c0,0.276-0.224,0.5-0.5,0.5h-5c-0.276,0-0.5-0.224-0.5-0.5s0.224-0.5,0.5-0.5h5C41.776,51,42,51.224,42,51.5z M14,23.5
	c0,0.276-0.224,0.5-0.5,0.5h-9C4.224,24,4,23.776,4,23.5S4.224,23,4.5,23h9C13.776,23,14,23.224,14,23.5z M11,25.5
	c0,0.276-0.224,0.5-0.5,0.5h-6C4.224,26,4,25.776,4,25.5S4.224,25,4.5,25h6C10.776,25,11,25.224,11,25.5z M30,23.5
	c0,0.276-0.224,0.5-0.5,0.5h-9c-0.276,0-0.5-0.224-0.5-0.5s0.224-0.5,0.5-0.5h9C29.776,23,30,23.224,30,23.5z M27,25.5
	c0,0.276-0.224,0.5-0.5,0.5h-6c-0.276,0-0.5-0.224-0.5-0.5s0.224-0.5,0.5-0.5h6C26.776,25,27,25.224,27,25.5z M59,26.5
	c0,0.276-0.224,0.5-0.5,0.5h-9c-0.276,0-0.5-0.224-0.5-0.5s0.224-0.5,0.5-0.5h9C58.776,26,59,26.224,59,26.5z M56,28.5
	c0,0.276-0.224,0.5-0.5,0.5h-6c-0.276,0-0.5-0.224-0.5-0.5s0.224-0.5,0.5-0.5h6C55.776,28,56,28.224,56,28.5z M43.5,24h-7
	c-0.276,0-0.5-0.224-0.5-0.5s0.224-0.5,0.5-0.5h7V24z M14,21.5c0,0.276-0.224,0.5-0.5,0.5h-9C4.224,22,4,21.776,4,21.5
	S4.224,21,4.5,21h9C13.776,21,14,21.224,14,21.5z M30,21.5c0,0.276-0.224,0.5-0.5,0.5h-9c-0.276,0-0.5-0.224-0.5-0.5
	s0.224-0.5,0.5-0.5h9C29.776,21,30,21.224,30,21.5z M59,24.5c0,0.276-0.224,0.5-0.5,0.5h-9c-0.276,0-0.5-0.224-0.5-0.5
	s0.224-0.5,0.5-0.5h9C58.776,24,59,24.224,59,24.5z M43.5,22h-7c-0.276,0-0.5-0.224-0.5-0.5s0.224-0.5,0.5-0.5h7V22z M42,25.5
	c0,0.276-0.224,0.5-0.5,0.5h-5c-0.276,0-0.5-0.224-0.5-0.5s0.224-0.5,0.5-0.5h5C41.776,25,42,25.224,42,25.5z M32.707,36
	c-0.195-0.195-0.512-0.195-0.707,0s-0.195,0.512,0,0.707l0.793,0.793H30V35c0-1.105-0.895-2-2-2h-6c-1.105,0-2,0.895-2,2v6
	c0,1.105,0.895,2,2,2h6c1.105,0,2-0.895,2-2v-2.5h2.793L32,39.293c-0.195,0.195-0.195,0.512,0,0.707s0.512,0.195,0.707,0
	l1.646-1.646c0.195-0.195,0.195-0.512,0-0.707L32.707,36z M22,34h6c0.086,0,0.164,0.029,0.244,0.049L25,37.293l-3.244-3.244
	C21.836,34.029,21.914,34,22,34z M21,41v-6c0-0.086,0.029-0.164,0.049-0.244L24.293,38l-3.244,3.244C21.029,41.164,21,41.086,21,41z
	 M28,42h-6c-0.086,0-0.164-0.029-0.244-0.049L25,38.707l3.244,3.244C28.164,41.971,28.086,42,28,42z M29,41
	c0,0.086-0.029,0.164-0.049,0.244L25.707,38l3.244-3.244C28.971,34.836,29,34.914,29,35V41z M32.707,10
	C32.512,9.805,32.195,9.805,32,10s-0.195,0.512,0,0.707l0.793,0.793H30V9c0-1.105-0.895-2-2-2h-6c-1.105,0-2,0.895-2,2v6
	c0,1.105,0.895,2,2,2h6c1.105,0,2-0.895,2-2v-2.5h2.793L32,13.293c-0.195,0.195-0.195,0.512,0,0.707s0.512,0.195,0.707,0
	l1.646-1.646c0.195-0.195,0.195-0.512,0-0.707L32.707,10z M22,8h6c0.086,0,0.164,0.029,0.244,0.049L25,11.293l-3.244-3.244
	C21.836,8.029,21.914,8,22,8z M21,15V9c0-0.086,0.029-0.164,0.049-0.244L24.293,12l-3.244,3.244C21.029,15.164,21,15.086,21,15z
	 M28,16h-6c-0.086,0-0.164-0.029-0.244-0.049L25,12.707l3.244,3.244C28.164,15.971,28.086,16,28,16z M29,15
	c0,0.086-0.029,0.164-0.049,0.244L25.707,12l3.244-3.244C28.971,8.836,29,8.914,29,9V15z M16.707,36
	c-0.195-0.195-0.512-0.195-0.707,0s-0.195,0.512,0,0.707l0.793,0.793H14V35c0-1.105-0.895-2-2-2H6c-1.105,0-2,0.895-2,2v6
	c0,1.105,0.895,2,2,2h6c1.105,0,2-0.895,2-2v-2.5h2.793L16,39.293c-0.195,0.195-0.195,0.512,0,0.707s0.512,0.195,0.707,0
	l1.646-1.646c0.195-0.195,0.195-0.512,0-0.707L16.707,36z M6,34h6c0.086,0,0.164,0.029,0.244,0.049L9,37.293l-3.244-3.244
	C5.836,34.029,5.914,34,6,34z M5,41v-6c0-0.086,0.029-0.164,0.049-0.244L8.293,38l-3.244,3.244C5.029,41.164,5,41.086,5,41z M12,42
	H6c-0.086,0-0.164-0.029-0.244-0.049L9,38.707l3.244,3.244C12.164,41.971,12.086,42,12,42z M13,41c0,0.086-0.029,0.164-0.049,0.244
	L9.707,38l3.244-3.244C12.971,34.836,13,34.914,13,35V41z M57,10h-6c-1.105,0-2,0.895-2,2v6c0,1.105,0.895,2,2,2h6
	c1.105,0,2-0.895,2-2v-6C59,10.895,58.105,10,57,10z M51,11h6c0.086,0,0.164,0.029,0.244,0.049L54,14.293l-3.244-3.244
	C50.836,11.029,50.914,11,51,11z M50,18v-6c0-0.086,0.029-0.164,0.049-0.244L53.293,15l-3.244,3.244C50.029,18.164,50,18.086,50,18z
	 M57,19h-6c-0.086,0-0.164-0.029-0.244-0.049L54,15.707l3.244,3.244C57.164,18.971,57.086,19,57,19z M58,18
	c0,0.086-0.029,0.164-0.049,0.244L54.707,15l3.244-3.244C57.971,11.836,58,11.914,58,12V18z M57,36h-6c-1.105,0-2,0.895-2,2v6
	c0,1.105,0.895,2,2,2h6c1.105,0,2-0.895,2-2v-6C59,36.895,58.105,36,57,36z M51,37h6c0.086,0,0.164,0.029,0.244,0.049L54,40.293
	l-3.244-3.244C50.836,37.029,50.914,37,51,37z M50,44v-6c0-0.086,0.029-0.164,0.049-0.244L53.293,41l-3.244,3.244
	C50.029,44.164,50,44.086,50,44z M57,45h-6c-0.086,0-0.164-0.029-0.244-0.049L54,41.707l3.244,3.244C57.164,44.971,57.086,45,57,45z
	 M58,44c0,0.086-0.029,0.164-0.049,0.244L54.707,41l3.244-3.244C57.971,37.836,58,37.914,58,38V44z M46.707,39l1.646,1.646
	c0.195,0.195,0.195,0.512,0,0.707L46.707,43c-0.195,0.195-0.512,0.195-0.707,0l0,0c-0.195-0.195-0.195-0.512,0-0.707l0.793-0.793
	H43.5v-1h3.293L46,39.707c-0.195-0.195-0.195-0.512,0-0.707l0,0C46.195,38.805,46.512,38.805,46.707,39z M46.707,13l1.646,1.646
	c0.195,0.195,0.195,0.512,0,0.707L46.707,17c-0.195,0.195-0.512,0.195-0.707,0l0,0c-0.195-0.195-0.195-0.512,0-0.707l0.793-0.793
	H43.5v-1h3.293L46,13.707c-0.195-0.195-0.195-0.512,0-0.707l0,0C46.195,12.805,46.512,12.805,46.707,13z"/>
</svg>
