<svg xmlns="http://www.w3.org/2000/svg" width="64" height="64" viewBox="0 0 64 64"><style type="text/css">.frame{fill:#FFFFFF;} .content{opacity:0.5;fill:#FFFFFF;}</style><path class="frame" d="M60 3h-56c-1.657 0-3 1.343-3 3v45c0 1.657 1.343 3 3 3h21v6h-4.5c-.276 0-.5.224-.5.5s.224.5.5.5h23c.276 0 .5-.224.5-.5s-.224-.5-.5-.5h-4.5v-6h21c1.657 0 3-1.343 3-3v-45c0-1.657-1.343-3-3-3zm-22 57h-12v-6h12v6zm24-9c0 1.103-.897 2-2 2h-56c-1.103 0-2-.897-2-2v-6h60v6zm0-7h-60v-38c0-1.103.897-2 2-2h56c1.103 0 2 .897 2 2v38z"/><path class="content" d="M29 17h-20c-1.105 0-2 .895-2 2v18c0 1.105.895 2 2 2h20c1.105 0 2-.895 2-2v-18c0-1.105-.895-2-2-2zm1 2v18l-.055.274-10.201-9.274 10.201-9.274.055.274zm-1-1l.21.042-10.21 9.282-10.21-9.282.21-.042h20zm-20.945 19.274l-.055-.274v-18l.055-.274 10.201 9.274-10.201 9.274zm.945.726l-.21-.042 10.21-9.282 10.21 9.282-.21.042h-20zm29.854-20.146l-1.147 1.146 1.146 1.146c.195.195.195.512 0 .707-.097.098-.225.147-.353.147s-.256-.049-.354-.146l-1.146-1.147-1.146 1.146c-.098.098-.226.147-.354.147s-.256-.049-.354-.146c-.195-.195-.195-.512 0-.707l1.147-1.147-1.146-1.146c-.195-.195-.195-.512 0-.707s.512-.195.707 0l1.146 1.146 1.146-1.146c.195-.195.512-.195.707 0s.196.511.001.707zm0 6l-1.147 1.146 1.146 1.146c.195.195.195.512 0 .707-.097.098-.225.147-.353.147s-.256-.049-.354-.146l-1.146-1.147-1.146 1.146c-.098.098-.226.147-.354.147s-.256-.049-.354-.146c-.195-.195-.195-.512 0-.707l1.147-1.147-1.146-1.146c-.195-.195-.195-.512 0-.707s.512-.195.707 0l1.146 1.146 1.146-1.146c.195-.195.512-.195.707 0s.196.511.001.707zm0 10l-1.147 1.146 1.146 1.146c.195.195.195.512 0 .707-.097.098-.225.147-.353.147s-.256-.049-.354-.146l-1.146-1.147-1.146 1.146c-.098.098-.226.147-.354.147s-.256-.049-.354-.146c-.195-.195-.195-.512 0-.707l1.147-1.147-1.146-1.146c-.195-.195-.195-.512 0-.707s.512-.195.707 0l1.146 1.146 1.146-1.146c.195-.195.512-.195.707 0s.196.511.001.707zm18.146-.354c0 .276-.224.5-.5.5h-15c-.276 0-.5-.224-.5-.5s.224-.5.5-.5h15c.276 0 .5.224.5.5zm0 2c0 .276-.224.5-.5.5h-15c-.276 0-.5-.224-.5-.5s.224-.5.5-.5h15c.276 0 .5.224.5.5zm0-18c0 .276-.224.5-.5.5h-15c-.276 0-.5-.224-.5-.5s.224-.5.5-.5h15c.276 0 .5.224.5.5zm-18-8c0 .276-.224.5-.5.5h-31c-.276 0-.5-.224-.5-.5s.224-.5.5-.5h31c.276 0 .5.224.5.5zm-31.5 2.5c-.276 0-.5-.224-.5-.5s.224-.5.5-.5h15c.276 0 .5.224.5.5s-.224.5-.5.5h-15zm33.5 7.5c0-.276.224-.5.5-.5h13c.276 0 .5.224.5.5s-.224.5-.5.5h-13c-.276 0-.5-.224-.5-.5zm16 4c0 .276-.224.5-.5.5h-15c-.276 0-.5-.224-.5-.5s.224-.5.5-.5h15c.276 0 .5.224.5.5zm0 2c0 .276-.224.5-.5.5h-15c-.276 0-.5-.224-.5-.5s.224-.5.5-.5h15c.276 0 .5.224.5.5zm0 2c0 .276-.224.5-.5.5h-15c-.276 0-.5-.224-.5-.5s.224-.5.5-.5h15c.276 0 .5.224.5.5zm-16 2c0-.276.224-.5.5-.5h10c.276 0 .5.224.5.5s-.224.5-.5.5h-10c-.276 0-.5-.224-.5-.5zm4-16.5c1.105 0 2-.895 2-2s-.895-2-2-2-2 .895-2 2 .895 2 2 2zm0-3c.551 0 1 .449 1 1s-.449 1-1 1-1-.449-1-1 .449-1 1-1zm5 3c1.105 0 2-.895 2-2s-.895-2-2-2-2 .895-2 2 .895 2 2 2zm0-3c.551 0 1 .449 1 1s-.449 1-1 1-1-.449-1-1 .449-1 1-1zm5 3c1.105 0 2-.895 2-2s-.895-2-2-2-2 .895-2 2 .895 2 2 2zm0-3c.551 0 1 .449 1 1s-.449 1-1 1-1-.449-1-1 .449-1 1-1z"/></svg>