<?xml version="1.0" encoding="utf-8"?>
<!-- Generator: Adobe Illustrator 22.0.1, SVG Export Plug-In . SVG Version: 6.00 Build 0)  -->
<svg version="1.1" id="icons" xmlns="http://www.w3.org/2000/svg" xmlns:xlink="http://www.w3.org/1999/xlink" x="0px" y="0px"
	 width="64px" height="64px" viewBox="0 0 64 64" style="enable-background:new 0 0 64 64;" xml:space="preserve">
<style type="text/css">
	.frame{fill:#FFFFFF;}
	.content{opacity:0.5;fill:#FFFFFF;}
</style>
<path class="frame" d="M60,4H4C2.343,4,1,5.343,1,7v43.375V50.9v2.475V53.9v3c0,1.657,1.343,3,3,3h56c1.657,0,3-1.343,3-3v-3v-0.525
	V50.9v-0.525V7C63,5.343,61.657,4,60,4z M2,7c0-1.103,0.897-2,2-2h56c1.103,0,2,0.897,2,2v43.9c0,1.103-0.897,2-2,2H4
	c-1.103,0-2-0.897-2-2V7z M2,53.121C2.532,53.6,3.228,53.9,4,53.9h56c0.772,0,1.468-0.3,2-0.779V53.9c0,1.103-0.897,2-2,2H4
	c-1.103,0-2-0.897-2-2V53.121z M60,58.9H4c-1.103,0-2-0.897-2-2v-0.779C2.532,56.6,3.228,56.9,4,56.9h56c0.772,0,1.468-0.3,2-0.779
	V56.9C62,58.003,61.103,58.9,60,58.9z"/>
<path class="content" d="M57.854,17.404l-1,1c-0.098,0.098-0.226,0.146-0.354,0.146s-0.256-0.049-0.354-0.146
	c-0.195-0.195-0.195-0.512,0-0.707l0.146-0.146H7.707l0.146,0.146c0.195,0.195,0.195,0.512,0,0.707
	C7.756,18.501,7.628,18.55,7.5,18.55s-0.256-0.049-0.354-0.146l-1-1c-0.195-0.195-0.195-0.512,0-0.707l1-1
	c0.195-0.195,0.512-0.195,0.707,0s0.195,0.512,0,0.707L7.707,16.55h48.586l-0.146-0.146c-0.195-0.195-0.195-0.512,0-0.707
	s0.512-0.195,0.707,0l1,1C58.049,16.892,58.049,17.208,57.854,17.404z M6,30v-6c0-1.105,0.895-2,2-2h6c1.105,0,2,0.895,2,2v6
	c0,1.105-0.895,2-2,2H8C6.895,32,6,31.105,6,30z M14.244,30.951L11,27.707l-3.244,3.244C7.836,30.971,7.914,31,8,31h6
	C14.086,31,14.164,30.971,14.244,30.951z M14.951,23.756L11.707,27l3.244,3.244C14.971,30.164,15,30.086,15,30v-6
	C15,23.914,14.971,23.836,14.951,23.756z M7.756,23.049L11,26.293l3.244-3.244C14.164,23.029,14.086,23,14,23H8
	C7.914,23,7.836,23.029,7.756,23.049z M7,30c0,0.086,0.029,0.164,0.049,0.244L10.293,27l-3.244-3.244C7.029,23.836,7,23.914,7,24V30
	z M43.5,37h-9c-0.276,0-0.5,0.224-0.5,0.5s0.224,0.5,0.5,0.5h9c0.276,0,0.5-0.224,0.5-0.5S43.776,37,43.5,37z M34.5,35
	c-0.276,0-0.5,0.224-0.5,0.5s0.224,0.5,0.5,0.5h9c0.276,0,0.5-0.224,0.5-0.5S43.776,35,43.5,35H34.5z M44,39.5
	c0-0.276-0.224-0.5-0.5-0.5h-9c-0.276,0-0.5,0.224-0.5,0.5s0.224,0.5,0.5,0.5h9C43.776,40,44,39.776,44,39.5z M44,41.5
	c0-0.276-0.224-0.5-0.5-0.5h-9c-0.276,0-0.5,0.224-0.5,0.5s0.224,0.5,0.5,0.5h9C43.776,42,44,41.776,44,41.5z M44,43.5
	c0-0.276-0.224-0.5-0.5-0.5h-9c-0.276,0-0.5,0.224-0.5,0.5s0.224,0.5,0.5,0.5h9C43.776,44,44,43.776,44,43.5z M42,45.5
	c0-0.276-0.224-0.5-0.5-0.5h-7c-0.276,0-0.5,0.224-0.5,0.5s0.224,0.5,0.5,0.5h7C41.776,46,42,45.776,42,45.5z M20,30v-6
	c0-1.105,0.895-2,2-2h6c1.105,0,2,0.895,2,2v6c0,1.105-0.895,2-2,2h-6C20.895,32,20,31.105,20,30z M28.244,30.951L25,27.707
	l-3.244,3.244C21.836,30.971,21.914,31,22,31h6C28.086,31,28.164,30.971,28.244,30.951z M28.951,23.756L25.707,27l3.244,3.244
	C28.971,30.164,29,30.086,29,30v-6C29,23.914,28.971,23.836,28.951,23.756z M21.756,23.049L25,26.293l3.244-3.244
	C28.164,23.029,28.086,23,28,23h-6C21.914,23,21.836,23.029,21.756,23.049z M21,30c0,0.086,0.029,0.164,0.049,0.244L24.293,27
	l-3.244-3.244C21.029,23.836,21,23.914,21,24V30z M29.5,37h-9c-0.276,0-0.5,0.224-0.5,0.5s0.224,0.5,0.5,0.5h9
	c0.276,0,0.5-0.224,0.5-0.5S29.776,37,29.5,37z M20.5,35c-0.276,0-0.5,0.224-0.5,0.5s0.224,0.5,0.5,0.5h9c0.276,0,0.5-0.224,0.5-0.5
	S29.776,35,29.5,35H20.5z M30,39.5c0-0.276-0.224-0.5-0.5-0.5h-9c-0.276,0-0.5,0.224-0.5,0.5s0.224,0.5,0.5,0.5h9
	C29.776,40,30,39.776,30,39.5z M25,41.5c0-0.276-0.224-0.5-0.5-0.5h-4c-0.276,0-0.5,0.224-0.5,0.5s0.224,0.5,0.5,0.5h4
	C24.776,42,25,41.776,25,41.5z M34,30v-6c0-1.105,0.895-2,2-2h6c1.105,0,2,0.895,2,2v6c0,1.105-0.895,2-2,2h-6
	C34.895,32,34,31.105,34,30z M42.244,30.951L39,27.707l-3.244,3.244C35.836,30.971,35.914,31,36,31h6
	C42.086,31,42.164,30.971,42.244,30.951z M42.951,23.756L39.707,27l3.244,3.244C42.971,30.164,43,30.086,43,30v-6
	C43,23.914,42.971,23.836,42.951,23.756z M35.756,23.049L39,26.293l3.244-3.244C42.164,23.029,42.086,23,42,23h-6
	C35.914,23,35.836,23.029,35.756,23.049z M35,30c0,0.086,0.029,0.164,0.049,0.244L38.293,27l-3.244-3.244
	C35.029,23.836,35,23.914,35,24V30z M15.5,37h-9C6.224,37,6,37.224,6,37.5S6.224,38,6.5,38h9c0.276,0,0.5-0.224,0.5-0.5
	S15.776,37,15.5,37z M6.5,35C6.224,35,6,35.224,6,35.5S6.224,36,6.5,36h9c0.276,0,0.5-0.224,0.5-0.5S15.776,35,15.5,35H6.5z
	 M16,39.5c0-0.276-0.224-0.5-0.5-0.5h-9C6.224,39,6,39.224,6,39.5S6.224,40,6.5,40h9C15.776,40,16,39.776,16,39.5z M16,41.5
	c0-0.276-0.224-0.5-0.5-0.5h-9C6.224,41,6,41.224,6,41.5S6.224,42,6.5,42h9C15.776,42,16,41.776,16,41.5z M13,43.5
	c0-0.276-0.224-0.5-0.5-0.5h-6C6.224,43,6,43.224,6,43.5S6.224,44,6.5,44h6C12.776,44,13,43.776,13,43.5z M48,30v-6
	c0-1.105,0.895-2,2-2h6c1.105,0,2,0.895,2,2v6c0,1.105-0.895,2-2,2h-6C48.895,32,48,31.105,48,30z M56.244,30.951L53,27.707
	l-3.244,3.244C49.836,30.971,49.914,31,50,31h6C56.086,31,56.164,30.971,56.244,30.951z M56.951,23.756L53.707,27l3.244,3.244
	C56.971,30.164,57,30.086,57,30v-6C57,23.914,56.971,23.836,56.951,23.756z M49.756,23.049L53,26.293l3.244-3.244
	C56.164,23.029,56.086,23,56,23h-6C49.914,23,49.836,23.029,49.756,23.049z M49,30c0,0.086,0.029,0.164,0.049,0.244L52.293,27
	l-3.244-3.244C49.029,23.836,49,23.914,49,24V30z M57.5,37h-9c-0.276,0-0.5,0.224-0.5,0.5s0.224,0.5,0.5,0.5h9
	c0.276,0,0.5-0.224,0.5-0.5S57.776,37,57.5,37z M48.5,35c-0.276,0-0.5,0.224-0.5,0.5s0.224,0.5,0.5,0.5h9c0.276,0,0.5-0.224,0.5-0.5
	S57.776,35,57.5,35H48.5z M58,39.5c0-0.276-0.224-0.5-0.5-0.5h-9c-0.276,0-0.5,0.224-0.5,0.5s0.224,0.5,0.5,0.5h9
	C57.776,40,58,39.776,58,39.5z M53,41.5c0-0.276-0.224-0.5-0.5-0.5h-4c-0.276,0-0.5,0.224-0.5,0.5s0.224,0.5,0.5,0.5h4
	C52.776,42,53,41.776,53,41.5z"/>
</svg>
