<svg xmlns="http://www.w3.org/2000/svg" width="64" height="64" viewBox="0 0 64 64"><style type="text/css">.frame{fill:#FFFFFF;} .content{opacity:0.5;fill:#FFFFFF;}</style><path class="content" d="M47.5 40h-15v1h15v-1zm-12.5 8.5v-4.5l.009-.043 2.839 4.543h1.179l-3.391-5.426c.113-.045.235-.074.364-.074h8c.129 0 .251.029.364.074l-3.391 5.426h1.179l2.839-4.543.009.043v4.5h1v-4.5c0-1.105-.895-2-2-2h-8c-1.105 0-2 .895-2 2v4.5h1zm-1-21c0-.276.224-.5.5-.5h2c.276 0 .5.224.5.5s-.224.5-.5.5h-2c-.276 0-.5-.224-.5-.5zm.5 2.5h2c.276 0 .5-.224.5-.5s-.224-.5-.5-.5h-2c-.276 0-.5.224-.5.5s.224.5.5.5zm2.5 8c-.276 0-.5.224-.5.5s.224.5.5.5.5-.224.5-.5-.224-.5-.5-.5zm2 0c-.276 0-.5.224-.5.5s.224.5.5.5.5-.224.5-.5-.224-.5-.5-.5zm2 0c-.276 0-.5.224-.5.5s.224.5.5.5.5-.224.5-.5-.224-.5-.5-.5zm2 0c-.276 0-.5.224-.5.5s.224.5.5.5.5-.224.5-.5-.224-.5-.5-.5zm-38.5-19h9c.276 0 .5-.224.5-.5s-.224-.5-.5-.5h-9c-.276 0-.5.224-.5.5s.224.5.5.5zm0 2h9c.276 0 .5-.224.5-.5s-.224-.5-.5-.5h-9c-.276 0-.5.224-.5.5s.224.5.5.5zm0 12h19c.276 0 .5-.224.5-.5s-.224-.5-.5-.5h-19c-.276 0-.5.224-.5.5s.224.5.5.5zm0 8h9c.276 0 .5-.224.5-.5s-.224-.5-.5-.5h-9c-.276 0-.5.224-.5.5s.224.5.5.5zm25-14h-25c-.276 0-.5-.224-.5-.5s.224-.5.5-.5h25v1zm0 2h-25c-.276 0-.5-.224-.5-.5s.224-.5.5-.5h25v1zm0 2h-25c-.276 0-.5-.224-.5-.5s.224-.5.5-.5h25v1zm0 6h-25c-.276 0-.5-.224-.5-.5s.224-.5.5-.5h25v1zm0 2h-25c-.276 0-.5-.224-.5-.5s.224-.5.5-.5h25v1zm1.5-22h6c1.105 0 2-.895 2-2v-6c0-1.105-.895-2-2-2h-6c-1.105 0-2 .895-2 2v6c0 1.105.895 2 2 2zm-1-2v-6l.049-.244 3.244 3.244-3.244 3.244-.049-.244zm1 1l-.244-.049 3.244-3.244 3.244 3.244-.244.049h-6zm6.951-7.244l.049.244v6l-.049.244-3.244-3.244 3.244-3.244zm-.951-.756l.244.049-3.244 3.244-3.244-3.244.244-.049h6zm-22.293 46l3.646 3.646-.707.707-3.646-3.646-3.646 3.646-.707-.707 3.646-3.646-3.646-3.646.707-.707 3.646 3.646 3.646-3.646.707.707-3.646 3.646zm47.793-25v1h-12v-1h10.635l-11.135-7.887-1.958 1.387h-1.731l2.824-2-7.635-5.408v-1.226l8.5 6.021 11.711-8.295.578.816-11.424 8.092 11.424 8.092-.289.408h.5zm-3 15h-9v1h9c.276 0 .5-.224.5-.5s-.224-.5-.5-.5zm0 2h-9v1h9c.276 0 .5-.224.5-.5s-.224-.5-.5-.5zm-4 2h-5v1h5c.276 0 .5-.224.5-.5s-.224-.5-.5-.5zm-5-13h9c.276 0 .5-.224.5-.5s-.224-.5-.5-.5h-9v1zm9 3h-9v1h9c.276 0 .5-.224.5-.5s-.224-.5-.5-.5zm0-2h-9v1h9c.276 0 .5-.224.5-.5s-.224-.5-.5-.5zm0 4h-9v1h9c.276 0 .5-.224.5-.5s-.224-.5-.5-.5zm0 2h-9v1h9c.276 0 .5-.224.5-.5s-.224-.5-.5-.5z"/><path class="frame" d="M40.135 51c-1.105 0-2 .895-2 2s.895 2 2 2 2-.895 2-2-.895-2-2-2zm0 3c-.551 0-1-.449-1-1s.449-1 1-1 1 .449 1 1-.448 1-1 1zm6.865-29h-14c-.552 0-1 .448-1 1v22c0 .552.448 1 1 1h14c.552 0 1-.448 1-1v-22c0-.552-.448-1-1-1zm0 23h-14v-22h14v22zm13-37h-18v-4c0-1.657-1.343-3-3-3h-35c-1.657 0-3 1.343-3 3v45c0 1.657 1.343 3 3 3h4.09c.477 2.837 2.938 5 5.91 5s5.433-2.163 5.91-5h9.09c0 1.657 1.343 3 3 3h16c1.657 0 3-1.343 3-3h9c1.657 0 3-1.343 3-3v-38c0-1.657-1.343-3-3-3zm-46 48c-2.757 0-5-2.243-5-5s2.243-5 5-5 5 2.243 5 5-2.243 5-5 5zm15-34v29h-9c0-3.314-2.686-6-6-6s-6 2.686-6 6h-4c-1.103 0-2-.897-2-2v-45c0-1.103.897-2 2-2h35c1.103 0 2 .897 2 2v15h-9c-1.657 0-3 1.343-3 3zm21 30c0 1.103-.897 2-2 2h-16c-1.103 0-2-.897-2-2v-30c0-1.103.897-2 2-2h16c1.103 0 2 .897 2 2v30zm12-3c0 1.103-.897 2-2 2h-9v-29c0-1.657-1.343-3-3-3h-6v-10h18c1.103 0 2 .897 2 2v38z"/></svg>