<svg xmlns="http://www.w3.org/2000/svg" width="64" height="64" viewBox="0 0 64 64"><style type="text/css">.frame{fill:#FFFFFF;} .content{opacity:0.5;fill:#FFFFFF;}</style><path class="frame" d="M60 4h-56c-1.657 0-3 1.343-3 3v49.9c0 1.657 1.343 3 3 3h56c1.657 0 3-1.343 3-3v-49.9c0-1.657-1.343-3-3-3zm-58 3c0-1.103.897-2 2-2h56c1.103 0 2 .897 2 2v43.9c0 1.103-.897 2-2 2h-56c-1.103 0-2-.897-2-2v-43.9zm0 46.121c.532.479 1.228.779 2 .779h56c.772 0 1.468-.3 2-.779v.779c0 1.103-.897 2-2 2h-56c-1.103 0-2-.897-2-2v-.779zm58 5.779h-56c-1.103 0-2-.897-2-2v-.779c.532.479 1.228.779 2 .779h56c.772 0 1.468-.3 2-.779v.779c0 1.103-.897 2-2 2z"/><path class="content" d="M55.5 16h-32c-.276 0-.5-.224-.5-.5s.224-.5.5-.5h32c.276 0 .5.224.5.5s-.224.5-.5.5zm0-3h-32c-.276 0-.5-.224-.5-.5s.224-.5.5-.5h32c.276 0 .5.224.5.5s-.224.5-.5.5zm.5 5.5c0-.276-.224-.5-.5-.5h-32c-.276 0-.5.224-.5.5s.224.5.5.5h32c.276 0 .5-.224.5-.5zm0 3c0-.276-.224-.5-.5-.5h-32c-.276 0-.5.224-.5.5s.224.5.5.5h32c.276 0 .5-.224.5-.5zm0 3c0-.276-.224-.5-.5-.5h-32c-.276 0-.5.224-.5.5s.224.5.5.5h32c.276 0 .5-.224.5-.5zm0 3c0-.276-.224-.5-.5-.5h-32c-.276 0-.5.224-.5.5s.224.5.5.5h32c.276 0 .5-.224.5-.5zm0 3c0-.276-.224-.5-.5-.5h-32c-.276 0-.5.224-.5.5s.224.5.5.5h32c.276 0 .5-.224.5-.5zm0 3c0-.276-.224-.5-.5-.5h-32c-.276 0-.5.224-.5.5s.224.5.5.5h32c.276 0 .5-.224.5-.5zm0 3c0-.276-.224-.5-.5-.5h-32c-.276 0-.5.224-.5.5s.224.5.5.5h32c.276 0 .5-.224.5-.5zm0 3c0-.276-.224-.5-.5-.5h-32c-.276 0-.5.224-.5.5s.224.5.5.5h32c.276 0 .5-.224.5-.5zm0 3c0-.276-.224-.5-.5-.5h-32c-.276 0-.5.224-.5.5s.224.5.5.5h32c.276 0 .5-.224.5-.5zm-7 3c0-.276-.224-.5-.5-.5h-25c-.276 0-.5.224-.5.5s.224.5.5.5h25c.276 0 .5-.224.5-.5zm-30-22.894v3.394c0 1.105-.895 2-2 2h-8c-1.105 0-2-.895-2-2v-3.394c0-1.003.501-1.94 1.336-2.496l1.874-1.249c-.745-.727-1.21-1.739-1.21-2.861 0-2.209 1.791-4 4-4s4 1.791 4 4c0 1.122-.465 2.134-1.21 2.86l1.874 1.249c.835.557 1.336 1.493 1.336 2.497zm-6-3.606c1.654 0 3-1.346 3-3s-1.346-3-3-3-3 1.346-3 3 1.346 3 3 3zm5 3.606c0-.67-.333-1.292-.891-1.664l-2.184-1.456c-.573.317-1.223.514-1.925.514s-1.352-.197-1.926-.514l-2.184 1.456c-.557.371-.89.993-.89 1.664v3.394c0 .551.449 1 1 1h8c.551 0 1-.449 1-1v-3.394z"/></svg>