<?xml version="1.0" encoding="utf-8"?>
<!-- Generator: Adobe Illustrator 22.0.1, SVG Export Plug-In . SVG Version: 6.00 Build 0)  -->
<svg version="1.1" id="icons" xmlns="http://www.w3.org/2000/svg" xmlns:xlink="http://www.w3.org/1999/xlink" x="0px" y="0px"
	 width="64px" height="64px" viewBox="0 0 64 64" style="enable-background:new 0 0 64 64;" xml:space="preserve">
<style type="text/css">
	.frame{fill:#FFFFFF;}
	.content{opacity:0.5;fill:#FFFFFF;}
</style>
<path class="frame" d="M45,2H19c-1.657,0-3,1.343-3,3v54c0,1.657,1.343,3,3,3h26c1.657,0,3-1.343,3-3V5C48,3.343,46.657,2,45,2z
	 M47,59c0,1.103-0.897,2-2,2H19c-1.103,0-2-0.897-2-2V5c0-1.103,0.897-2,2-2h26c1.103,0,2,0.897,2,2V59z M44,9H20
	c-0.552,0-1,0.448-1,1v42c0,0.552,0.448,1,1,1h24c0.552,0,1-0.448,1-1V10C45,9.448,44.552,9,44,9z M44,52H20V10h24V52z M32,55
	c-1.105,0-2,0.895-2,2s0.895,2,2,2s2-0.895,2-2S33.105,55,32,55z M32,58c-0.551,0-1-0.449-1-1s0.449-1,1-1s1,0.449,1,1
	S32.551,58,32,58z"/>
<path class="content" d="M16.5,53H8c-1.657,0-3-1.343-3-3V12c0-1.657,1.343-3,3-3h8.5v1H8c-1.103,0-2,0.897-2,2v4h10.5v1H6v5h10.5v1
	H6v5h10.5v1H6v5h10.5v1H6v15c0,1.103,0.897,2,2,2h8.5V53z M21.5,17h4c0.276,0,0.5-0.224,0.5-0.5S25.776,16,25.5,16h-4
	c-0.276,0-0.5,0.224-0.5,0.5S21.224,17,21.5,17z M41,49H23c-1.105,0-2,0.895-2,2v1.5h1V51c0-0.551,0.449-1,1-1h18
	c0.551,0,1,0.449,1,1v1.5h1V51C43,49.895,42.105,49,41,49z M21.5,15h4c0.276,0,0.5-0.224,0.5-0.5S25.776,14,25.5,14h-4
	c-0.276,0-0.5,0.224-0.5,0.5S21.224,15,21.5,15z M21.5,13h4c0.276,0,0.5-0.224,0.5-0.5S25.776,12,25.5,12h-4
	c-0.276,0-0.5,0.224-0.5,0.5S21.224,13,21.5,13z M56,9h-8.5v1H56c1.103,0,2,0.897,2,2v4H47.5v1H58v5H47.5v1H58v5H47.5v1H58v5H47.5v1
	H58v15c0,1.103-0.897,2-2,2h-8.5v1H56c1.657,0,3-1.343,3-3V12C59,10.343,57.657,9,56,9z M43,41v4c0,1.105-0.895,2-2,2H23
	c-1.105,0-2-0.895-2-2v-4c0-1.105,0.895-2,2-2h18C42.105,39,43,39.895,43,41z M42,41c0-0.551-0.449-1-1-1H23c-0.551,0-1,0.449-1,1v4
	c0,0.551,0.449,1,1,1h18c0.551,0,1-0.449,1-1V41z M43,21v4c0,1.105-0.895,2-2,2H23c-1.105,0-2-0.895-2-2v-4c0-1.105,0.895-2,2-2h18
	C42.105,19,43,19.895,43,21z M42,21c0-0.551-0.449-1-1-1H23c-0.551,0-1,0.449-1,1v4c0,0.551,0.449,1,1,1h18c0.551,0,1-0.449,1-1V21z
	 M43,31v4c0,1.105-0.895,2-2,2H23c-1.105,0-2-0.895-2-2v-4c0-1.105,0.895-2,2-2h18C42.105,29,43,29.895,43,31z M42,31
	c0-0.551-0.449-1-1-1H23c-0.551,0-1,0.449-1,1v4c0,0.551,0.449,1,1,1h18c0.551,0,1-0.449,1-1V31z M40,17
	c-0.128,0-0.256-0.049-0.354-0.146c-0.195-0.195-0.195-0.512,0-0.707l1.646-1.647l-1.646-1.646c-0.195-0.195-0.195-0.512,0-0.707
	s0.512-0.195,0.707,0l2,1.999c0.195,0.195,0.195,0.512,0,0.707l-2,2.001C40.256,16.951,40.128,17,40,17z"/>
</svg>
