<?xml version="1.0" encoding="utf-8"?>
<!-- Generator: Adobe Illustrator 22.0.1, SVG Export Plug-In . SVG Version: 6.00 Build 0)  -->
<svg version="1.1" id="icons" xmlns="http://www.w3.org/2000/svg" xmlns:xlink="http://www.w3.org/1999/xlink" x="0px" y="0px"
	 width="64px" height="64px" viewBox="0 0 64 64" style="enable-background:new 0 0 64 64;" xml:space="preserve">
<style type="text/css">
	.frame{fill:#FFFFFF;}
	.content{opacity:0.5;fill:#FFFFFF;}
</style>
<path class="content" d="M45.5,25h-20v-1h20c0.276,0,0.5,0.224,0.5,0.5S45.776,25,45.5,25z M42,37.5c0-0.276-0.224-0.5-0.5-0.5h-16
	v1h16C41.776,38,42,37.776,42,37.5z M38,31.5c0-0.276-0.224-0.5-0.5-0.5h-12v1h12C37.776,32,38,31.776,38,31.5z M25.5,17h26
	c0.276,0,0.5-0.224,0.5-0.5S51.776,16,51.5,16h-26V17z M18,50h19.5c0.276,0,0.5-0.224,0.5-0.5S37.776,49,37.5,49H18
	c-0.276,0-0.5,0.224-0.5,0.5S17.724,50,18,50z M42,18.5c0-0.276-0.224-0.5-0.5-0.5h-16v1h16C41.776,19,42,18.776,42,18.5z M46,43.5
	c0-0.276-0.224-0.5-0.5-0.5h-20v1h20C45.776,44,46,43.776,46,43.5z M51.5,35h-26v1h26c0.276,0,0.5-0.224,0.5-0.5S51.776,35,51.5,35z
	 M51.5,29h-26v1h26c0.276,0,0.5-0.224,0.5-0.5S51.776,29,51.5,29z M41.5,55H18c-0.276,0-0.5,0.224-0.5,0.5S17.724,56,18,56h23.5
	c0.276,0,0.5-0.224,0.5-0.5S41.776,55,41.5,55z M51.5,22h-26v1h26c0.276,0,0.5-0.224,0.5-0.5S51.776,22,51.5,22z M51.5,41h-26v1h26
	c0.276,0,0.5-0.224,0.5-0.5S51.776,41,51.5,41z M51.5,53H18c-0.276,0-0.5,0.224-0.5,0.5S17.724,54,18,54h33.5
	c0.276,0,0.5-0.224,0.5-0.5S51.776,53,51.5,53z M51.5,47h-26c-0.276,0-0.5,0.224-0.5,0.5s0.224,0.5,0.5,0.5h26
	c0.276,0,0.5-0.224,0.5-0.5S51.776,47,51.5,47z M22.5,33h-15v-1h15V33z M9,40.5V36c0-1.105,0.895-2,2-2h8c1.105,0,2,0.895,2,2v4.5
	h-1V36c0-0.015-0.008-0.028-0.009-0.043L17.152,40.5h-1.179l3.391-5.426C19.251,35.029,19.129,35,19,35h-8
	c-0.129,0-0.251,0.029-0.364,0.074l3.391,5.426h-1.179l-2.839-4.543C10.008,35.972,10,35.985,10,36v4.5H9z M9.5,20h2
	c0.276,0,0.5-0.224,0.5-0.5S11.776,19,11.5,19h-2C9.224,19,9,19.224,9,19.5S9.224,20,9.5,20z M9,21.5C9,21.224,9.224,21,9.5,21h2
	c0.276,0,0.5,0.224,0.5,0.5S11.776,22,11.5,22h-2C9.224,22,9,21.776,9,21.5z M12.5,30.5c0,0.276-0.224,0.5-0.5,0.5
	s-0.5-0.224-0.5-0.5S11.724,30,12,30S12.5,30.224,12.5,30.5z M14.5,30.5c0,0.276-0.224,0.5-0.5,0.5s-0.5-0.224-0.5-0.5
	S13.724,30,14,30S14.5,30.224,14.5,30.5z M16.5,30.5c0,0.276-0.224,0.5-0.5,0.5s-0.5-0.224-0.5-0.5S15.724,30,16,30
	S16.5,30.224,16.5,30.5z M18.5,30.5c0,0.276-0.224,0.5-0.5,0.5s-0.5-0.224-0.5-0.5S17.724,30,18,30S18.5,30.224,18.5,30.5z"/>
<path class="frame" d="M23,18c0-0.552-0.448-1-1-1H8c-0.552,0-1,0.448-1,1v22c0,0.552,0.448,1,1,1h14c0.552,0,1-0.448,1-1V18z
	 M22,40H8V18h14V40z M15.135,43c-1.105,0-2,0.895-2,2s0.895,2,2,2s2-0.895,2-2S16.24,43,15.135,43z M15.135,46c-0.551,0-1-0.449-1-1
	s0.449-1,1-1s1,0.449,1,1S15.687,46,15.135,46z M57,4H45.723C45.376,3.405,44.738,3,44,3h-4l-1.406-2.109
	C38.223,0.334,37.598,0,36.93,0H33.07c-0.669,0-1.293,0.334-1.664,0.891L30,3h-4c-0.738,0-1.376,0.405-1.723,1H13
	c-1.657,0-3,1.343-3,3v7H7c-1.657,0-3,1.343-3,3v30c0,1.657,1.343,3,3,3h3v11c0,1.657,1.343,3,3,3h44c1.657,0,3-1.343,3-3V7
	C60,5.343,58.657,4,57,4z M25,5c0-0.551,0.449-1,1-1h4h0.535l0.297-0.445l1.406-2.109C32.424,1.166,32.735,1,33.07,1h3.859
	c0.335,0,0.646,0.166,0.832,0.445l1.406,2.109L39.465,4H40h4c0.551,0,1,0.449,1,1v3c0,0.551-0.449,1-1,1H26c-0.551,0-1-0.449-1-1V5z
	 M26,10h18c1.104,0,2-0.895,2-2h9c0.551,0,1,0.449,1,1v50c0,0.551-0.449,1-1,1H15c-0.551,0-1-0.449-1-1v-9h9c1.657,0,3-1.343,3-3V17
	c0-1.657-1.343-3-3-3h-9V9c0-0.551,0.449-1,1-1h9C24,9.105,24.895,10,26,10z M11,7c0-1.103,0.897-2,2-2h11v2h-9
	c-1.105,0-2,0.895-2,2v5h-2V7z M5,47V17c0-1.103,0.897-2,2-2h16c1.103,0,2,0.897,2,2v30c0,1.103-0.897,2-2,2H7
	C5.897,49,5,48.103,5,47z M59,61c0,1.103-0.897,2-2,2H13c-1.103,0-2-0.897-2-2V50h2v9c0,1.105,0.895,2,2,2h40c1.104,0,2-0.895,2-2V9
	c0-1.105-0.896-2-2-2h-9V5h11c1.103,0,2,0.897,2,2V61z"/>
</svg>
