<svg xmlns="http://www.w3.org/2000/svg" width="64" height="64" viewBox="0 0 64 64"><style type="text/css">.frame{fill:#FFFFFF;} .content{opacity:0.5;fill:#FFFFFF;}</style><path class="content" d="M30 37.5c0 .276-.224.5-.5.5h-22c-.276 0-.5-.224-.5-.5s.224-.5.5-.5h22c.276 0 .5.224.5.5zm-.5 2.5h-22c-.276 0-.5.224-.5.5s.224.5.5.5h22c.276 0 .5-.224.5-.5s-.224-.5-.5-.5zm0 3h-22c-.276 0-.5.224-.5.5s.224.5.5.5h22c.276 0 .5-.224.5-.5s-.224-.5-.5-.5zm-4 3h-18c-.276 0-.5.224-.5.5s.224.5.5.5h18c.276 0 .5-.224.5-.5s-.224-.5-.5-.5zm30-9h-22c-.276 0-.5.224-.5.5s.224.5.5.5h22c.276 0 .5-.224.5-.5s-.224-.5-.5-.5zm0 3h-22c-.276 0-.5.224-.5.5s.224.5.5.5h22c.276 0 .5-.224.5-.5s-.224-.5-.5-.5zm0 3h-22c-.276 0-.5.224-.5.5s.224.5.5.5h22c.276 0 .5-.224.5-.5s-.224-.5-.5-.5zm-4 3h-18c-.276 0-.5.224-.5.5s.224.5.5.5h18c.276 0 .5-.224.5-.5s-.224-.5-.5-.5zm-44.5-28v-6c0-1.105.895-2 2-2h6c1.105 0 2 .895 2 2v6c0 1.105-.895 2-2 2h-6c-1.105 0-2-.895-2-2zm1.049.244l3.244-3.244-3.244-3.244-.049.244v6l.049.244zm6.951.756l.244-.049-3.244-3.244-3.244 3.244.244.049h6zm-2.293-4l3.244 3.244.049-.244v-6l-.049-.244-3.244 3.244zm-3.707-4l-.244.049 3.244 3.244 3.244-3.244-.244-.049h-6zm21 1v6c0 1.105-.895 2-2 2h-6c-1.105 0-2-.895-2-2v-6c0-1.105.895-2 2-2h6c1.105 0 2 .895 2 2zm-1.049-.244l-3.244 3.244 3.244 3.244.049-.244v-6l-.049-.244zm-6.951-.756l-.244.049 3.244 3.244 3.244-3.244-.244-.049h-6zm2.293 4l-3.244-3.244-.049.244v6l.049.244 3.244-3.244zm3.707 4l.244-.049-3.244-3.244-3.244 3.244.244.049h6zm-21 12v-6c0-1.105.895-2 2-2h6c1.105 0 2 .895 2 2v6c0 1.105-.895 2-2 2h-6c-1.105 0-2-.895-2-2zm1.049.244l3.244-3.244-3.244-3.244-.049.244v6l.049.244zm6.951.756l.244-.049-3.244-3.244-3.244 3.244.244.049h6zm-2.293-4l3.244 3.244.049-.244v-6l-.049-.244-3.244 3.244zm-3.707-4l-.244.049 3.244 3.244 3.244-3.244-.244-.049h-6zm21 1v6c0 1.105-.895 2-2 2h-6c-1.105 0-2-.895-2-2v-6c0-1.105.895-2 2-2h6c1.105 0 2 .895 2 2zm-1.049-.244l-3.244 3.244 3.244 3.244.049-.244v-6l-.049-.244zm-6.951-.756l-.244.049 3.244 3.244 3.244-3.244-.244-.049h-6zm2.293 4l-3.244-3.244-.049.244v6l.049.244 3.244-3.244zm3.707 4l.244-.049-3.244-3.244-3.244 3.244.244.049h6zm5-14v-6c0-1.105.895-2 2-2h6c1.105 0 2 .895 2 2v6c0 1.105-.895 2-2 2h-6c-1.105 0-2-.895-2-2zm1.049.244l3.244-3.244-3.244-3.244-.049.244v6l.049.244zm6.951.756l.244-.049-3.244-3.244-3.244 3.244.244.049h6zm-2.293-4l3.244 3.244.049-.244v-6l-.049-.244-3.244 3.244zm-3.707-4l-.244.049 3.244 3.244 3.244-3.244-.244-.049h-6zm-2 20v-6c0-1.105.895-2 2-2h6c1.105 0 2 .895 2 2v6c0 1.105-.895 2-2 2h-6c-1.105 0-2-.895-2-2zm1.049.244l3.244-3.244-3.244-3.244-.049.244v6l.049.244zm6.951.756l.244-.049-3.244-3.244-3.244 3.244.244.049h6zm-2.293-4l3.244 3.244.049-.244v-6l-.049-.244-3.244 3.244zm-3.707-4l-.244.049 3.244 3.244 3.244-3.244-.244-.049h-6zm21-12v6c0 1.105-.895 2-2 2h-6c-1.105 0-2-.895-2-2v-6c0-1.105.895-2 2-2h6c1.105 0 2 .895 2 2zm-1.049-.244l-3.244 3.244 3.244 3.244.049-.244v-6l-.049-.244zm-6.951-.756l-.244.049 3.244 3.244 3.244-3.244-.244-.049h-6zm2.293 4l-3.244-3.244-.049.244v6l.049.244 3.244-3.244zm3.707 4l.244-.049-3.244-3.244-3.244 3.244.244.049h6zm2 6v6c0 1.105-.895 2-2 2h-6c-1.105 0-2-.895-2-2v-6c0-1.105.895-2 2-2h6c1.105 0 2 .895 2 2zm-1.049-.244l-3.244 3.244 3.244 3.244.049-.244v-6l-.049-.244zm-6.951-.756l-.244.049 3.244 3.244 3.244-3.244-.244-.049h-6zm2.293 4l-3.244-3.244-.049.244v6l.049.244 3.244-3.244zm3.707 4l.244-.049-3.244-3.244-3.244 3.244.244.049h6z"/><path class="frame" d="M60 4h-56c-1.657 0-3 1.343-3 3v49.9c0 1.657 1.343 3 3 3h56c1.657 0 3-1.343 3-3v-49.9c0-1.657-1.343-3-3-3zm-58 3c0-1.103.897-2 2-2h56c1.103 0 2 .897 2 2v43.9c0 1.103-.897 2-2 2h-56c-1.103 0-2-.897-2-2v-43.9zm0 46.121c.532.479 1.228.779 2 .779h56c.772 0 1.468-.3 2-.779v.779c0 1.103-.897 2-2 2h-56c-1.103 0-2-.897-2-2v-.779zm58 5.779h-56c-1.103 0-2-.897-2-2v-.779c.532.479 1.228.779 2 .779h56c.772 0 1.468-.3 2-.779v.779c0 1.103-.897 2-2 2z"/></svg>