<?xml version="1.0" encoding="utf-8"?>
<!-- Generator: Adobe Illustrator 22.0.1, SVG Export Plug-In . SVG Version: 6.00 Build 0)  -->
<svg version="1.1" id="icons" xmlns="http://www.w3.org/2000/svg" xmlns:xlink="http://www.w3.org/1999/xlink" x="0px" y="0px"
	 width="64px" height="64px" viewBox="0 0 64 64" style="enable-background:new 0 0 64 64;" xml:space="preserve">
<style type="text/css">
	.frame{fill:#FFFFFF;}
	.content{opacity:0.5;fill:#FFFFFF;}
</style>
<path class="frame" d="M60.24,52.393l-9.201-6.134C54.77,41.502,57,35.513,57,29C57,13.536,44.464,1,29,1S1,13.536,1,29
	s12.536,28,28,28c6.513,0,12.502-2.23,17.259-5.96l6.134,9.201c0.5,0.75,1.302,1.232,2.2,1.321c0.1,0.01,0.2,0.015,0.299,0.015
	c0.792,0,1.551-0.312,2.118-0.879l3.688-3.688c0.638-0.638,0.953-1.519,0.864-2.417C61.472,53.695,60.991,52.893,60.24,52.393z
	 M2,29C2,14.112,14.112,2,29,2s27,12.112,27,27S43.888,56,29,56S2,43.888,2,29z M50.408,47.039l1.735,1.157l-3.947,3.947
	l-1.157-1.735C48.255,49.382,49.382,48.255,50.408,47.039z M59.99,56.303l-3.688,3.688c-0.425,0.425-1.01,0.641-1.611,0.576
	c-0.599-0.059-1.133-0.38-1.467-0.88l-4.463-6.694l4.23-4.23l6.694,4.463c0.5,0.333,0.821,0.868,0.88,1.467
	C60.625,55.29,60.416,55.877,59.99,56.303z"/>
<path class="content" d="M31,50c-0.276,0-0.5-0.224-0.5-0.5S30.724,49,31,49s0.5,0.224,0.5,0.5S31.276,50,31,50z M52.167,42V25
	c0-0.495,0.187-0.943,0.486-1.292l3.735,2.881c-0.041-0.464-0.093-0.925-0.156-1.383l-2.709-2.09C53.726,23.046,53.94,23,54.167,23
	h1.666c-0.075-0.335-0.152-0.67-0.239-1h-1.427c-1.657,0-3,1.343-3,3v17c0,0.799,0.318,1.521,0.827,2.059
	c0.194-0.295,0.385-0.591,0.568-0.893C52.32,42.836,52.167,42.439,52.167,42z M35.5,49.5c0-0.276-0.224-0.5-0.5-0.5
	s-0.5,0.224-0.5,0.5S34.724,50,35,50S35.5,49.776,35.5,49.5z M33.5,49.5c0-0.276-0.224-0.5-0.5-0.5s-0.5,0.224-0.5,0.5
	S32.724,50,33,50S33.5,49.776,33.5,49.5z M15.167,42V25c0-1.657-1.343-3-3-3H2.406c-0.087,0.33-0.164,0.665-0.239,1h9.999
	c0.227,0,0.441,0.046,0.644,0.116L1.637,31.735c0.038,0.387,0.089,0.77,0.143,1.152l11.9-9.179c0.299,0.35,0.486,0.797,0.486,1.292
	v17c0,0.495-0.187,0.943-0.486,1.292L2.017,34.296c0.101,0.513,0.212,1.023,0.34,1.525l10.453,8.063
	C12.607,43.954,12.393,44,12.167,44H5.969c0.221,0.339,0.45,0.672,0.686,1h5.512C13.824,45,15.167,43.657,15.167,42z M7.342,12.083
	h3.574c0.276,0,0.5-0.224,0.5-0.5s-0.224-0.5-0.5-0.5H8.164C7.882,11.41,7.609,11.744,7.342,12.083z M11.417,13.583
	c0-0.276-0.224-0.5-0.5-0.5H6.596c-0.234,0.328-0.461,0.661-0.68,1h5.001C11.193,14.083,11.417,13.86,11.417,13.583z M10.917,15.083
	h-5.25c-0.276,0-0.5,0.224-0.5,0.5s0.224,0.5,0.5,0.5h5.25c0.276,0,0.5-0.224,0.5-0.5S11.193,15.083,10.917,15.083z M48.167,25v17
	c0,1.657-1.343,3-3,3h-24c-1.657,0-3-1.343-3-3V25c0-1.657,1.343-3,3-3h24C46.824,22,48.167,23.343,48.167,25z M20.523,23.116
	l12.644,9.753l12.644-9.753C45.607,23.046,45.393,23,45.167,23h-24C20.94,23,20.726,23.046,20.523,23.116z M19.653,43.292
	L32.348,33.5l-12.695-9.792c-0.299,0.35-0.486,0.797-0.486,1.292v17C19.167,42.495,19.354,42.943,19.653,43.292z M45.811,43.884
	l-12.644-9.753l-12.644,9.753C20.726,43.954,20.94,44,21.167,44h24C45.393,44,45.607,43.954,45.811,43.884z M47.167,25
	c0-0.495-0.187-0.943-0.486-1.292L33.985,33.5l12.695,9.792c0.299-0.35,0.486-0.797,0.486-1.292V25z M54.235,18.083H3.765
	c-0.143,0.33-0.277,0.664-0.408,1h51.285C54.512,18.747,54.378,18.413,54.235,18.083z M20.167,13.583c0,0.276,0.224,0.5,0.5,0.5h25
	c0.276,0,0.5-0.224,0.5-0.5s-0.224-0.5-0.5-0.5h-25C20.39,13.083,20.167,13.307,20.167,13.583z"/>
</svg>
