<svg xmlns="http://www.w3.org/2000/svg" width="64" height="64" viewBox="0 0 64 64"><style type="text/css">.frame{fill:#FFFFFF;} .content{opacity:0.5;fill:#FFFFFF;}</style><path class="frame" d="M60 4c1.103 0 2 .897 2 2v51.9c0 1.103-.897 2-2 2h-56c-1.103 0-2-.897-2-2v-51.9c0-1.103.897-2 2-2h56m0-1h-56c-1.657 0-3 1.343-3 3v51.9c0 1.657 1.343 3 3 3h56c1.657 0 3-1.343 3-3v-51.9c0-1.657-1.343-3-3-3z"/><path class="content" d="M9 21h1.5v2.793l-.793-.793c-.195-.195-.512-.195-.707 0-.195.195-.195.512 0 .707l1.646 1.646c.195.195.512.195.707 0l1.647-1.646c.195-.195.195-.512 0-.707-.195-.195-.512-.195-.707 0l-.793.793v-2.793h1.5c1.105 0 2-.895 2-2v-8c0-1.105-.895-2-2-2h-4c-1.105 0-2 .895-2 2v8c0 1.105.895 2 2 2zm-1-2v-8l.004-.021 2.413 4.021-2.413 4.021-.004-.021zm1 1c-.132 0-.256-.029-.372-.075l2.372-3.953 2.372 3.953c-.116.046-.24.075-.372.075h-4zm4.996-9.021l.004.021v8l-.004.021-2.413-4.021 2.413-4.021zm-.996-.979c.132 0 .256.029.372.075l-2.372 3.953-2.372-3.953c.116-.046.24-.075.372-.075h4zm10 11h1.5v2.793l-.793-.793c-.195-.195-.512-.195-.707 0-.195.195-.195.512 0 .707l1.646 1.646c.195.195.512.195.707 0l1.647-1.646c.195-.195.195-.512 0-.707-.195-.195-.512-.195-.707 0l-.793.793v-2.793h1.5c1.105 0 2-.895 2-2v-8c0-1.105-.895-2-2-2h-4c-1.105 0-2 .895-2 2v8c0 1.105.895 2 2 2zm-1-2v-8l.004-.021 2.413 4.021-2.413 4.021-.004-.021zm1 1c-.132 0-.256-.029-.372-.075l2.372-3.953 2.372 3.953c-.116.046-.24.075-.372.075h-4zm4.996-9.021l.004.021v8l-.004.021-2.413-4.021 2.413-4.021zm-.996-.979c.132 0 .256.029.372.075l-2.372 3.953-2.372-3.953c.116-.046.24-.075.372-.075h4zm28-1h-4c-1.105 0-2 .895-2 2v8c0 1.105.895 2 2 2h1.5v2.793l-.793-.793c-.195-.195-.512-.195-.707 0-.195.195-.195.512 0 .707l1.646 1.646c.195.195.512.195.707 0l1.647-1.646c.195-.195.195-.512 0-.707-.195-.195-.512-.195-.707 0l-.793.793v-2.793h1.5c1.105 0 2-.895 2-2v-8c0-1.105-.895-2-2-2zm1 2v8l-.004.021-2.413-4.021 2.413-4.021.004.021zm-1-1c.132 0 .256.029.372.075l-2.372 3.953-2.372-3.953c.116-.046.24-.075.372-.075h4zm-4.996 9.021l-.004-.021v-8l.004-.021 2.413 4.021-2.413 4.021zm.996.979c-.132 0-.256-.029-.372-.075l2.372-3.953 2.372 3.953c-.116.046-.24.075-.372.075h-4zm4 6h-4c-1.105 0-2 .895-2 2v8c0 1.105.895 2 2 2h4c1.105 0 2-.895 2-2v-8c0-1.105-.895-2-2-2zm1 2v8l-.004.021-2.413-4.021 2.413-4.021.004.021zm-1-1c.132 0 .256.029.372.075l-2.372 3.953-2.372-3.953c.116-.046.24-.075.372-.075h4zm-4.996 9.021l-.004-.021v-8l.004-.021 2.413 4.021-2.413 4.021zm.996.979c-.132 0-.256-.029-.372-.075l2.372-3.953 2.372 3.953c-.116.046-.24.075-.372.075h-4zm-38 6h-4c-1.105 0-2 .895-2 2v8c0 1.105.895 2 2 2h4c1.105 0 2-.895 2-2v-8c0-1.105-.895-2-2-2zm1 2v8l-.004.021-2.413-4.021 2.413-4.021.004.021zm-1-1c.132 0 .256.029.372.075l-2.372 3.953-2.372-3.953c.116-.046.24-.075.372-.075h4zm-4.996 9.021l-.004-.021v-8l.004-.021 2.413 4.021-2.413 4.021zm.996.979c-.132 0-.256-.029-.372-.075l2.372-3.953 2.372 3.953c-.116.046-.24.075-.372.075h-4zm18-11h-4c-1.105 0-2 .895-2 2v3.5h-2.793l.793-.793c.195-.195.195-.512 0-.707-.195-.195-.512-.195-.707 0l-1.646 1.646c-.195.195-.195.512 0 .707l1.646 1.647c.195.195.512.195.707 0 .195-.195.195-.512 0-.707l-.793-.793h2.793v3.5c0 1.105.895 2 2 2h4c1.105 0 2-.895 2-2v-8c0-1.105-.895-2-2-2zm1 2v8l-.004.021-2.413-4.021 2.413-4.021.004.021zm-1-1c.132 0 .256.029.372.075l-2.372 3.953-2.372-3.953c.116-.046.24-.075.372-.075h4zm-4.996 9.021l-.004-.021v-8l.004-.021 2.413 4.021-2.413 4.021zm.996.979c-.132 0-.256-.029-.372-.075l2.372-3.953 2.372 3.953c-.116.046-.24.075-.372.075h-4zm32-11h-4c-1.105 0-2 .895-2 2v8c0 1.105.895 2 2 2h4c1.105 0 2-.895 2-2v-8c0-1.105-.895-2-2-2zm1 2v8l-.004.021-2.413-4.021 2.413-4.021.004.021zm-1-1c.132 0 .256.029.372.075l-2.372 3.953-2.372-3.953c.116-.046.24-.075.372-.075h4zm-4.996 9.021l-.004-.021v-8l.004-.021 2.413 4.021-2.413 4.021zm.996.979c-.132 0-.256-.029-.372-.075l2.372-3.953 2.372 3.953c-.116.046-.24.075-.372.075h-4zm-34-20c.195.195.512.195.707 0l1.646-1.646c.195-.195.195-.512 0-.707l-1.646-1.647c-.195-.195-.512-.195-.707 0-.195.195-.195.512 0 .707l.793.793h-2.793v-3.5c0-1.105-.895-2-2-2h-4c-1.105 0-2 .895-2 2v8c0 1.105.895 2 2 2h4c1.105 0 2-.895 2-2v-3.5h2.793l-.793.793c-.195.195-.195.512 0 .707zm-3-6v8l-.004.021-2.413-4.021 2.413-4.021.004.021zm-1-1c.132 0 .256.029.372.075l-2.372 3.953-2.372-3.953c.116-.046.24-.075.372-.075h4zm-4.996 9.021l-.004-.021v-8l.004-.021 2.413 4.021-2.413 4.021zm.996.979c-.132 0-.256-.029-.372-.075l2.372-3.953 2.372 3.953c-.116.046-.24.075-.372.075h-4zm36-23.293l.793.793h-2.793v-3.5c0-1.105-.895-2-2-2h-4c-1.105 0-2 .895-2 2v8c0 1.105.895 2 2 2h4c1.105 0 2-.895 2-2v-3.5h2.793l-.793.793c-.195.195-.195.512 0 .707.195.195.512.195.707 0l1.646-1.646c.195-.195.195-.512 0-.707l-1.646-1.647c-.195-.195-.512-.195-.707 0-.195.195-.195.512 0 .707zm-3-2.707v8l-.004.021-2.413-4.021 2.413-4.021.004.021zm-1-1c.132 0 .256.029.372.075l-2.372 3.953-2.372-3.953c.116-.046.24-.075.372-.075h4zm-4.996 9.021l-.004-.021v-8l.004-.021 2.413 4.021-2.413 4.021zm.996.979c-.132 0-.256-.029-.372-.075l2.372-3.953 2.372 3.953c-.116.046-.24.075-.372.075h-4zm8 27.707l.793.793h-2.793v-3.5c0-1.105-.895-2-2-2h-4c-1.105 0-2 .895-2 2v3.5h-2.793l.793-.793c.195-.195.195-.512 0-.707-.195-.195-.512-.195-.707 0l-1.646 1.646c-.195.195-.195.512 0 .707l1.646 1.647c.195.195.512.195.707 0 .195-.195.195-.512 0-.707l-.793-.793h2.793v3.5c0 1.105.895 2 2 2h4c1.105 0 2-.895 2-2v-3.5h2.793l-.793.793c-.195.195-.195.512 0 .707.195.195.512.195.707 0l1.646-1.646c.195-.195.195-.512 0-.707l-1.646-1.647c-.195-.195-.512-.195-.707 0-.195.195-.195.512 0 .707zm-3-2.707v8l-.004.021-2.413-4.021 2.413-4.021.004.021zm-1-1c.132 0 .256.029.372.075l-2.372 3.953-2.372-3.953c.116-.046.24-.075.372-.075h4zm-4.996 9.021l-.004-.021v-8l.004-.021 2.413 4.021-2.413 4.021zm.996.979c-.132 0-.256-.029-.372-.075l2.372-3.953 2.372 3.953c-.116.046-.24.075-.372.075h-4zm1.5-13.207l-.793-.793c-.195-.195-.512-.195-.707 0-.195.195-.195.512 0 .707l1.646 1.646c.195.195.512.195.707 0l1.647-1.646c.195-.195.195-.512 0-.707-.195-.195-.512-.195-.707 0l-.793.793v-17.586l.793.793c.195.195.512.195.707 0 .195-.195.195-.512 0-.707l-1.646-1.646c-.195-.195-.512-.195-.707 0l-1.647 1.646c-.195.195-.195.512 0 .707.195.195.512.195.707 0l.793-.793v8.293h-9.5v-3.5c0-1.105-.895-2-2-2h-4c-1.105 0-2 .895-2 2v8c0 1.105.895 2 2 2h4c1.105 0 2-.895 2-2v-3.5h9.5v8.293zm-10.5-12.793v8l-.004.021-2.413-4.021 2.413-4.021.004.021zm-1-1c.132 0 .256.029.372.075l-2.372 3.953-2.372-3.953c.116-.046.24-.075.372-.075h4zm-4.996 9.021l-.004-.021v-8l.004-.021 2.413 4.021-2.413 4.021zm.996.979c-.132 0-.256-.029-.372-.075l2.372-3.953 2.372 3.953c-.116.046-.24.075-.372.075h-4z"/></svg>