<?xml version="1.0" encoding="utf-8"?>
<!-- Generator: Adobe Illustrator 17.1.0, SVG Export Plug-In . SVG Version: 6.00 Build 0)  -->
<!DOCTYPE svg PUBLIC "-//W3C//DTD SVG 1.1//EN" "http://www.w3.org/Graphics/SVG/1.1/DTD/svg11.dtd" [
	<!ENTITY ns_flows "http://ns.adobe.com/Flows/1.0/">
	<!ENTITY ns_extend "http://ns.adobe.com/Extensibility/1.0/">
	<!ENTITY ns_ai "http://ns.adobe.com/AdobeIllustrator/10.0/">
	<!ENTITY ns_graphs "http://ns.adobe.com/Graphs/1.0/">
]>
<svg version="1.1" id="Layer_1" xmlns:x="&ns_extend;" xmlns:i="&ns_ai;" xmlns:graph="&ns_graphs;"
	 xmlns="http://www.w3.org/2000/svg" xmlns:xlink="http://www.w3.org/1999/xlink" xmlns:a="http://ns.adobe.com/AdobeSVGViewerExtensions/3.0/"
	 x="0px" y="0px" viewBox="0 0 63.913 135.258" enable-background="new 0 0 63.913 135.258" xml:space="preserve">
<g>
	<g>
		<g>
			<circle fill="none" cx="31.895" cy="9.104" r="2.787"/>
			<circle fill="none" cx="31.275" cy="125.72" r="5.945"/>
			<path fill="#191617" d="M0,75.121l0,51.033c0,5.028,4.076,9.104,9.104,9.104h45.705c1.542,0,2.992-0.386,4.265-1.063
				l-18.26-18.26H4.459V79.58L0,75.121z M25.33,125.72c0-3.283,2.662-5.945,5.945-5.945c3.285,0,5.945,2.662,5.945,5.945
				c0,3.284-2.661,5.945-5.945,5.945C27.992,131.665,25.33,129.004,25.33,125.72z"/>
			<path fill="#333333" d="M40.814,115.935l18.26,18.26c2.878-1.53,4.839-4.555,4.839-8.041V9.104C63.913,4.076,59.837,0,54.809,0
				L9.104,0C4.076,0,0,4.076,0,9.104l0,66.017l4.459,4.459V19.323h54.252v96.613H40.814z M34.682,9.104
				c0,1.539-1.248,2.787-2.787,2.787c-1.539,0-2.787-1.248-2.787-2.787c0-1.539,1.248-2.787,2.787-2.787
				C33.434,6.317,34.682,7.565,34.682,9.104z"/>
			<polygon fill="#01A59C" points="4.459,115.935 4.459,79.58 40.814,115.935 			"/>
			<polygon fill="#61C6C7" points="58.711,19.323 58.711,115.935 40.814,115.935 4.459,79.58 4.459,19.323 			"/>
		</g>
		<circle fill="#E5E3E3" cx="31.275" cy="125.72" r="5.945"/>
		<g>
			<g>
				<g>
					<path fill-rule="evenodd" clip-rule="evenodd" fill="#0074ED" d="M11.087,73.962c0,1.473,1.194,2.666,2.666,2.666H50.16
						c1.473,0,2.666-1.194,2.666-2.666V39.295c0-1.473-1.194-2.666-2.666-2.666H13.753c-1.473,0-2.666,1.194-2.666,2.666V73.962z"/>
				</g>
			</g>
		</g>
	</g>
	<g>
		<path fill-rule="evenodd" clip-rule="evenodd" fill="#FFFFFF" d="M44.515,56.585c0,2.204-1.786,3.99-3.99,3.99h-18.5
			c-2.204,0-3.99-1.786-3.99-3.99l0,0c0-2.204,1.786-3.99,3.99-3.99h18.5C42.729,52.595,44.515,54.382,44.515,56.585L44.515,56.585z
			"/>
		<circle fill-rule="evenodd" clip-rule="evenodd" fill="#FFFFFF" cx="34.405" cy="53.24" r="7.353"/>
		<circle fill-rule="evenodd" clip-rule="evenodd" fill="#FFFFFF" cx="27.393" cy="54.748" r="5.528"/>
	</g>
	<path fill-rule="evenodd" clip-rule="evenodd" fill="#3FA9F5" d="M27.174,66.546c-0.502,0.841-1.59,1.116-2.431,0.614
		s-1.116-1.59-0.614-2.431c0.502-0.841,3.498-2.402,3.498-2.402S27.676,65.705,27.174,66.546z"/>
	<path fill-rule="evenodd" clip-rule="evenodd" fill="#3FA9F5" d="M30.958,71.63c-0.502,0.841-1.59,1.116-2.431,0.614
		c-0.841-0.502-1.116-1.59-0.614-2.431c0.502-0.841,3.498-2.402,3.498-2.402S31.46,70.789,30.958,71.63z"/>
	<path fill-rule="evenodd" clip-rule="evenodd" fill="#3FA9F5" d="M38.642,66.581c-0.502,0.841-1.59,1.116-2.431,0.614
		c-0.841-0.502-1.116-1.59-0.614-2.431c0.502-0.841,3.498-2.402,3.498-2.402S39.143,65.74,38.642,66.581z"/>
	<g>
		<g>
			<path fill-rule="evenodd" clip-rule="evenodd" fill="#FFFFFF" d="M30.056,41.225c0.845-1.463,2.956-1.463,3.801,0l2.45,4.243
				l2.45,4.243c0.845,1.463-0.211,3.292-1.9,3.292h-4.9h-4.9c-1.689,0-2.745-1.829-1.9-3.292l2.45-4.243L30.056,41.225z"/>
			<path fill="#E54D2E" d="M31.957,42.422l2.406,4.168l2.406,4.168h-4.813l-4.813,0l2.406-4.168L31.957,42.422 M31.956,40.127
				c-0.739,0-1.478,0.366-1.9,1.097l-2.45,4.243l-2.45,4.243c-0.845,1.463,0.211,3.292,1.9,3.292h4.9h4.9
				c1.689,0,2.745-1.829,1.9-3.292l-2.45-4.243l-2.45-4.243C33.435,40.493,32.696,40.127,31.956,40.127L31.956,40.127z"/>
		</g>
		<g>
			<path d="M31.357,49.203c0-0.355,0.248-0.609,0.602-0.609c0.355,0,0.59,0.254,0.596,0.609c0,0.348-0.235,0.609-0.596,0.609
				C31.598,49.812,31.357,49.551,31.357,49.203z M31.578,48.259l-0.154-3.033h1.065l-0.147,3.033H31.578z"/>
		</g>
	</g>
</g>
</svg>
