<?xml version="1.0" encoding="utf-8"?>
<!-- Generator: Adobe Illustrator 17.1.0, SVG Export Plug-In . SVG Version: 6.00 Build 0)  -->
<!DOCTYPE svg PUBLIC "-//W3C//DTD SVG 1.1//EN" "http://www.w3.org/Graphics/SVG/1.1/DTD/svg11.dtd" [
	<!ENTITY ns_flows "http://ns.adobe.com/Flows/1.0/">
	<!ENTITY ns_extend "http://ns.adobe.com/Extensibility/1.0/">
	<!ENTITY ns_ai "http://ns.adobe.com/AdobeIllustrator/10.0/">
	<!ENTITY ns_graphs "http://ns.adobe.com/Graphs/1.0/">
]>
<svg version="1.1" id="Layer_1" xmlns:x="&ns_extend;" xmlns:i="&ns_ai;" xmlns:graph="&ns_graphs;"
	 xmlns="http://www.w3.org/2000/svg" xmlns:xlink="http://www.w3.org/1999/xlink" xmlns:a="http://ns.adobe.com/AdobeSVGViewerExtensions/3.0/"
	 x="0px" y="0px" viewBox="95.581 99.997 208.841 400.006" enable-background="new 95.581 99.997 208.841 400.006"
	 xml:space="preserve">
<g>
	<g>
		<path fill="none" d="M182.078,119.073h35.937c1.461,0,2.639-0.591,2.639-2.048c0-1.453-1.178-2.048-2.639-2.048h-35.937
			c-1.461,0-2.639,0.591-2.639,2.048C179.439,118.486,180.621,119.073,182.078,119.073z"/>
		<path fill="none" d="M219.479,477.759c-0.029,0.004-0.018-0.437-0.018-0.437h-0.716h-0.165h-2.474H183.99h-2.474h-0.165h-0.716
			c0,0-0.161,0.437-0.305,0.429c-0.932,0.077-2.272,0.932-2.272,2.61c0,2.639,0,5.278,0,5.278s1.178,5.34,7.139,6.012
			c0.04,0,0.176,0,0.422,0c0.191,0,0.418,0,0.719,0c4.5,0,20.818,0,27.421,0c0.22,0,0.444,0,0.646,0
			c5.957-0.672,6.643-6.012,6.643-6.012s0-2.639,0-5.278C221.046,478.739,220.187,477.855,219.479,477.759z"/>
		<path fill="#E5E3E3" d="M109.702,454.805l-0.371-315.259h40.201h120.781h20.451l-0.202,171.443l13.771-13.771l0.073-150.268
			c0.253-22.47-2.496-42.018-29.08-43.887c-1.674-0.117-3.101-0.231-5.15-0.345v-0.026c-22.518-2.107-46.463-2.819-70.104-2.672
			c-16.95-0.117-34.303,0.206-50.677,1.164v0.349c-8.189,0.448-16.902,0.962-24.944,1.527
			c-26.584,1.865-29.106,21.417-28.856,43.887l0.184,301.076c-0.529,17.489,0.206,35.54,13.907,43.843l37.06-37.06H109.702z
			 M182.078,114.98h35.937c1.461,0,2.639,0.591,2.639,2.048c0,1.457-1.178,2.048-2.639,2.048h-35.937
			c-1.461,0-2.639-0.591-2.639-2.048C179.439,115.571,180.621,114.98,182.078,114.98z"/>
		<path fill="#333333" d="M214.931,491.651c-0.136,0-0.286,0-0.455,0c-0.022,0-0.051,0-0.073,0c-0.004,0-0.007,0-0.007,0.004
			C214.351,491.695,214.931,491.651,214.931,491.651z"/>
		<path fill="#333333" d="M185.205,491.655c-0.004,0-0.007,0-0.007-0.004c-0.007,0-0.033,0-0.033,0S185.242,491.695,185.205,491.655
			z"/>
		<path fill="#CCC9CA" d="M304.334,297.218l-13.771,13.771l-0.169,143.816h-20.081H149.533h-2.786l-37.06,37.06
			c3.902,2.364,8.802,3.979,15.093,4.515c8.038,0.683,16.429,1.292,24.617,1.813v0.455c16.377,1.068,33.521,1.446,50.148,1.332
			c23.421,0.176,48.115-0.642,70.632-2.966v-0.253c2.048-0.128,3.377-0.25,4.995-0.385c28.376-2.404,29.767-25.883,29.088-48.35
			L304.334,297.218z M221.046,485.639c0,0-0.686,5.34-6.643,6.012c0.022,0,0.051,0,0.073,0c0.169,0,0.319,0,0.455,0
			c0,0-0.584,0.04-0.54,0.004c0.004,0,0.007,0,0.007-0.004c-0.202,0-0.426,0-0.646,0c-6.603,0-22.921,0-27.421,0
			c-0.301,0-0.529,0-0.719,0c-0.246,0-0.382,0-0.422,0c0.004,0,0.007,0,0.007,0.004c0.04,0.04-0.04-0.004-0.04-0.004
			s0.026,0,0.033,0c-5.961-0.672-7.139-6.012-7.139-6.012s0-2.639,0-5.278c0-1.677,1.34-2.536,2.272-2.61
			c0.143,0.007,0.305-0.429,0.305-0.429h0.716h0.165h2.474h32.116h2.474h0.165h0.716c0,0-0.011,0.44,0.018,0.437
			c0.712,0.095,1.571,0.98,1.571,2.602C221.046,483,221.046,485.639,221.046,485.639z"/>
		<polygon fill="#4E5826" points="149.533,454.805 270.313,454.805 290.394,454.805 290.563,310.989 146.747,454.805 		"/>
		<polygon fill="#889B3B" points="270.167,139.48 149.386,139.594 109.184,139.63 109.849,454.889 146.894,454.852 290.574,310.904 
			290.618,139.462 		"/>
	</g>
	<g>
		<path fill="#E5E3E3" d="M273.411,357.87c0,8.581-6.959,15.54-15.54,15.54H142.133c-8.581,0-15.54-6.959-15.54-15.54V242.133
			c0-8.581,6.959-15.54,15.54-15.54h115.734c8.581,0,15.54,6.959,15.54,15.54V357.87H273.411z"/>
		<g id="a6JKeS_2_">
			<g>
				<path fill="#E54D2E" d="M165.598,316.597c0-4.375,0.007-8.75-0.004-13.125c-0.004-2.547-0.334-2.767-2.455-1.505
					c-6.254,3.722-15.595,2-19.534-2.547c-0.76-0.877-1.67-1.622-2.422-2.507c-1.556-1.824-1.461-4.162,0.195-5.906
					c2.584-2.723,5.153-5.465,7.792-8.141c0.885-0.896,1.274-1.861,1.263-3.105c-0.033-3.758-0.022-7.521,0.007-11.279
					c0.007-0.811,0.059-1.652,0.264-2.43c0.393-1.487,1.141-2.514,2.969-2.496c7.029,0.081,14.061,0.033,21.094,0.114
					c0.991,0.011,2.136,0.242,2.936,0.778c2.466,1.655,4.727,2.074,7.183-0.055c0.642-0.558,1.809-0.719,2.731-0.708
					c3.538,0.044,7.076,0.239,10.615,0.352c0.609,0.018,1.285,0.099,1.817-0.121c3.78-1.556,7.642-1.108,11.521-0.606
					c1.351,0.176,2.716,0.294,4.078,0.297c7.109,0.026,14.219-0.015,21.328,0.018c2.544,0.011,5.069,0.562,6.467,2.837
					c0.925,1.505,1.38,3.402,1.644,5.186c0.275,1.876,0.125,3.821,0.059,5.733c-0.099,2.947-1.362,4.192-4.302,4.368
					c-0.407,0.026-0.822,0-1.23,0.033c-1.644,0.136-2.184,0.62-2.21,2.316c-0.051,3.281-0.011,6.563-0.011,9.844
					c0,1.072,0.462,1.832,1.479,2.224c0.573,0.22,1.134,0.477,1.714,0.668c3.182,1.053,4.36,2.422,4.529,5.777
					c0.139,2.727,0.11,5.469,0.015,8.2c-0.092,2.734-1.365,3.949-4.074,4.159c-0.407,0.033-0.822,0.011-1.23,0.033
					c-1.887,0.114-2.408,0.595-2.433,2.522c-0.044,3.347-0.015,6.698-0.018,10.049c0,0.818,0.022,1.641-0.022,2.459
					c-0.235,4.225-1.975,6.181-6.174,6.82c-1.343,0.206-2.716,0.257-4.078,0.268c-4.445,0.033-8.886,0.029-13.331,0.004
					c-2.624-0.015-4.984-0.426-6.295-3.241c-0.701-1.501-2.026-1.567-2.859-0.136c-1.765,3.032-4.507,3.41-7.565,3.395
					c-7.315-0.037-14.63,0.004-21.941-0.026c-1.222-0.004-2.459-0.117-3.663-0.33c-4.034-0.708-5.773-2.727-5.832-6.867
					c-0.062-4.441-0.015-8.886-0.015-13.331C165.602,316.597,165.598,316.597,165.598,316.597z M168.659,268.831
					c0,6.599-0.154,12.949,0.062,19.291c0.114,3.307,1.78,6.06,4.915,7.524c4.793,2.243,9.668,2.228,14.443-0.07
					c2.415-1.163,3.88-3.212,4.426-5.836c0.25-1.197,0.393-2.437,0.404-3.656c0.044-5.128,0.026-10.255,0.018-15.383
					c0-0.598-0.088-1.193-0.139-1.835c-2.36,0-4.57,0-6.981,0c0,0.885,0,1.622,0,2.364c-0.007,4.581,0.018,9.161-0.051,13.738
					c-0.015,1.072-0.22,2.184-0.573,3.197c-0.591,1.707-1.894,2.599-3.718,2.742c-3.358,0.261-5.45-1.263-5.652-4.713
					c-0.286-4.907-0.209-9.833-0.305-14.751c-0.015-0.859-0.106-1.714-0.165-2.617C173.027,268.831,170.935,268.831,168.659,268.831
					z M220.624,330.038c-0.161-0.767-0.191-1.108-0.308-1.417c-3.226-8.479-6.475-16.946-9.668-25.436
					c-0.385-1.028-0.98-1.318-1.989-1.277c-1.431,0.059-2.878,0.121-4.298-0.015c-1.56-0.147-2.276,0.484-2.819,1.923
					c-2.76,7.267-5.634,14.494-8.46,21.736c-0.536,1.369-1.05,2.749-1.699,4.456c2.496,0,4.658,0.059,6.812-0.048
					c0.459-0.022,1.2-0.609,1.274-1.031c0.628-3.608,2.988-4.254,6.104-3.777c0.532,0.081,1.09,0.011,1.637,0.011
					c3.865,0,3.836,0.011,5.37,3.531c0.235,0.536,0.837,1.252,1.307,1.281C216.036,330.115,218.202,330.038,220.624,330.038z
					 M171.984,302.051c0,9.304,0,18.48,0,27.821c5.818,0,11.507,0,17.497,0c0-1.472-0.055-2.819,0.015-4.159
					c0.073-1.373-0.565-1.776-1.843-1.743c-2.32,0.059-4.643,0.026-6.966,0.004c-0.73-0.007-1.622,0.103-1.663-1.009
					c-0.044-1.255-0.011-2.511-0.011-3.968c3.09,0,5.792,0,8.578,0c0-2.074,0-3.935,0-6.118c-2.914,0-5.667,0-8.412,0
					c0-1.78,0-3.234,0-4.959c3.494,0,6.801,0,10.079,0c0-2.14,0-3.997,0-5.865C183.388,302.051,177.747,302.051,171.984,302.051z
					 M214.384,270.306c-4.096-1.949-8.001-2.874-12.142-1.714c-3.949,1.105-6.218,4.349-6.258,8.592
					c-0.04,4.217,1.435,6.056,6.045,7.521c0.844,0.268,1.718,0.455,2.551,0.756c0.763,0.279,1.553,0.573,2.217,1.024
					c1.652,1.119,1.604,3.307-0.202,4.118c-0.969,0.433-2.272,0.507-3.325,0.286c-1.575-0.327-3.068-1.057-4.753-1.674
					c-1.178,1.582-2.338,3.142-3.483,4.68c4.316,4.001,12.953,4.456,17.302,1.013c2.947-2.334,3.549-5.583,3.116-9.051
					c-0.382-3.061-2.558-4.694-5.271-5.693c-1.215-0.448-2.474-0.771-3.696-1.197c-0.639-0.224-1.299-0.466-1.854-0.841
					c-1.527-1.039-1.475-2.811,0.202-3.557c0.87-0.385,1.964-0.268,2.962-0.356c0.661-0.059,1.494,0.173,1.953-0.15
					C211.279,272.982,212.681,271.709,214.384,270.306z M215.82,274.821c0.984,0,1.854-0.029,2.716,0.007
					c1.619,0.07,3.817-0.418,4.694,0.437c0.866,0.844,0.488,3.057,0.503,4.669c0.048,4.783,0.007,9.569,0.026,14.351
					c0.004,0.789,0.11,1.578,0.173,2.426c2.356,0,4.5,0,6.882,0c0-7.286,0-14.428,0-21.831c2.727,0,5.223,0,7.851,0
					c0-2.188,0-4.107,0-5.986c-7.737,0-15.28,0-22.848,0C215.82,270.894,215.82,272.711,215.82,274.821z M230.886,330.001
					c0-7.458,0-14.652,0-22.004c2.753,0,5.197,0,7.774,0c0-2.088,0-4.004,0-5.884c-7.741,0-15.283,0-22.837,0
					c0,2.004,0,3.821,0,5.88c2.621,0,5.113,0,7.77,0c0.062,1.035,0.15,1.835,0.15,2.639c0.011,5.81-0.004,11.62,0.018,17.427
					c0.004,0.756-0.29,1.854,0.94,1.916C226.662,330.075,228.625,330.001,230.886,330.001z M151.247,288.812
					c-0.954,1.05-1.872,2.052-2.782,3.061c-0.36,0.396-0.705,0.807-1.039,1.189c1.828,3.072,4.962,4.555,8.343,4.107
					c3.817-0.503,6.544-2.32,7.565-6.17c0.312-1.175,0.451-2.426,0.462-3.641c0.048-5.469,0.026-10.941,0.015-16.41
					c0-0.664-0.073-1.325-0.117-2.092c-2.378,0-4.592,0-7.029,0c0,0.87,0,1.604,0,2.342c0,5.333,0.011,10.666-0.011,15.999
					c-0.004,0.811-0.022,1.666-0.275,2.419c-0.529,1.589-1.916,1.967-3.248,0.947C152.542,290.112,152.036,289.554,151.247,288.812z
					"/>
				<path fill="#E54D2E" d="M211.331,318.961c-1.446,0-2.301,0-3.292,0c0.147,1.149,0.275,2.132,0.418,3.259
					c-0.554,0.136-1.05,0.253-1.659,0.404c-0.286-1.075-0.54-2.041-0.848-3.197c-0.907,0.327-1.762,0.639-3.024,1.094
					c0.602-3.96,1.163-7.638,1.721-11.316c0.169-0.055,0.334-0.11,0.503-0.161C207.124,312.204,209.092,315.364,211.331,318.961z"/>
			</g>
		</g>
	</g>
	<path fill="#F2F2F2" d="M221.046,485.639c0,0-0.686,5.34-6.643,6.012c0.022,0,0.051,0,0.073,0c0.169,0,0.319,0,0.455,0
		c0,0-0.584,0.04-0.54,0.004c0.004,0,0.007,0,0.007-0.004c-0.202,0-0.426,0-0.646,0c-6.603,0-22.921,0-27.421,0
		c-0.301,0-0.529,0-0.719,0c-0.246,0-0.382,0-0.422,0c0.004,0,0.007,0,0.007,0.004c0.04,0.04-0.04-0.004-0.04-0.004s0.026,0,0.033,0
		c-5.961-0.672-7.139-6.012-7.139-6.012s0-2.639,0-5.278c0-1.677,1.34-2.536,2.272-2.61c0.143,0.007,0.305-0.429,0.305-0.429h0.716
		h0.165h2.474h32.116h2.474h0.165h0.716c0,0-0.011,0.44,0.018,0.437c0.712,0.095,1.571,0.98,1.571,2.602
		C221.046,483,221.046,485.639,221.046,485.639z"/>
	<path fill="#E5E3E3" d="M182.078,114.98h35.937c1.461,0,2.639,0.591,2.639,2.048c0,1.457-1.178,2.048-2.639,2.048h-35.937
		c-1.461,0-2.639-0.591-2.639-2.048C179.439,115.571,180.621,114.98,182.078,114.98z"/>
</g>
</svg>
