<?xml version="1.0" encoding="utf-8"?>
<!-- Generator: Adobe Illustrator 17.1.0, SVG Export Plug-In . SVG Version: 6.00 Build 0)  -->
<!DOCTYPE svg PUBLIC "-//W3C//DTD SVG 1.1//EN" "http://www.w3.org/Graphics/SVG/1.1/DTD/svg11.dtd" [
	<!ENTITY ns_flows "http://ns.adobe.com/Flows/1.0/">
	<!ENTITY ns_extend "http://ns.adobe.com/Extensibility/1.0/">
	<!ENTITY ns_ai "http://ns.adobe.com/AdobeIllustrator/10.0/">
	<!ENTITY ns_graphs "http://ns.adobe.com/Graphs/1.0/">
]>
<svg version="1.1" id="Layer_1" xmlns:x="&ns_extend;" xmlns:i="&ns_ai;" xmlns:graph="&ns_graphs;"
	 xmlns="http://www.w3.org/2000/svg" xmlns:xlink="http://www.w3.org/1999/xlink" xmlns:a="http://ns.adobe.com/AdobeSVGViewerExtensions/3.0/"
	 x="0px" y="0px" viewBox="67.902 383.571 61.83 61.681" enable-background="new 67.902 383.571 61.83 61.681" xml:space="preserve"
	>
<g>
	<g>
		<path fill="#61C6C7" d="M93.595,385.755c-0.099-0.056-0.203-0.104-0.304-0.157c-0.103,0.021-0.207,0.042-0.31,0.062
			L93.595,385.755z"/>
		<path fill="#61C6C7" d="M70.128,408.918c-0.02,0.105-0.033,0.212-0.052,0.318c0.055,0.098,0.102,0.198,0.158,0.294L70.128,408.918
			z"/>
		<path fill="#61C6C7" d="M127.489,419.888c0.021-0.108,0.034-0.218,0.054-0.327c-0.054-0.097-0.102-0.198-0.16-0.295
			L127.489,419.888z"/>
		<path fill="#61C6C7" d="M103.649,442.849c0.099,0.058,0.2,0.107,0.297,0.163c0.11-0.02,0.218-0.033,0.326-0.053L103.649,442.849z"
			/>
		<path fill="#61C6C7" d="M127.543,419.56c-0.02,0.109-0.033,0.219-0.054,0.327l-0.105-0.622
			C127.441,419.362,127.489,419.463,127.543,419.56c0.318-1.737,0.486-3.515,0.486-5.292c0-3.942-0.772-7.766-2.296-11.364
			c-1.471-3.477-3.574-6.6-6.258-9.281c-2.679-2.681-5.803-4.785-9.279-6.256c-3.598-1.523-7.422-2.294-11.363-2.294
			c-1.858,0-3.718,0.175-5.529,0.522c-0.004,0.001-0.009,0.001-0.013,0.002c0.101,0.054,0.205,0.101,0.304,0.157l-0.614-0.096
			c0.103-0.02,0.207-0.041,0.31-0.062c-2.484-1.321-5.277-2.026-8.106-2.026c-4.617,0-8.957,1.798-12.222,5.063
			c-3.264,3.264-5.062,7.605-5.062,12.222c0,2.939,0.755,5.827,2.174,8.38c0.018-0.106,0.032-0.213,0.052-0.318l0.106,0.611
			c-0.055-0.096-0.103-0.196-0.158-0.294c-0.288,1.654-0.44,3.344-0.44,5.032c0,3.942,0.772,7.765,2.296,11.365
			c1.469,3.478,3.574,6.599,6.255,9.28c2.682,2.68,5.803,4.788,9.282,6.255c3.598,1.526,7.423,2.298,11.365,2.298
			c1.716,0,3.435-0.156,5.113-0.454c-0.098-0.055-0.198-0.105-0.297-0.163l0.623,0.109c-0.108,0.021-0.216,0.034-0.326,0.053
			c2.586,1.463,5.514,2.24,8.503,2.24c4.617,0,8.955-1.795,12.22-5.062c3.266-3.263,5.062-7.604,5.062-12.221
			C129.731,425.021,128.972,422.123,127.543,419.56z"/>
	</g>
</g>
<path fill="#FFFFFF" d="M98.95,432.149c-10.373,0-15.013-5.099-15.013-8.922c0-1.96,1.447-3.334,3.442-3.334
	c4.439,0,3.289,6.374,11.571,6.374c4.239,0,6.581-2.302,6.581-4.658c0-1.417-0.699-2.987-3.491-3.675l-9.226-2.303
	c-7.43-1.863-8.778-5.879-8.778-9.655c0-7.84,7.381-10.783,14.313-10.783c6.385,0,13.912,3.528,13.912,8.232
	c0,2.015-1.745,3.187-3.739,3.187c-3.789,0-3.091-5.243-10.721-5.243c-3.787,0-5.885,1.715-5.885,4.169
	c0,2.449,2.991,3.231,5.587,3.823l6.829,1.516c7.48,1.666,9.376,6.033,9.376,10.147C113.709,427.392,108.819,432.149,98.95,432.149z
	"/>
</svg>
