<?xml version="1.0" encoding="utf-8"?>
<!-- Generator: Adobe Illustrator 17.1.0, SVG Export Plug-In . SVG Version: 6.00 Build 0)  -->
<!DOCTYPE svg PUBLIC "-//W3C//DTD SVG 1.1//EN" "http://www.w3.org/Graphics/SVG/1.1/DTD/svg11.dtd" [
	<!ENTITY ns_flows "http://ns.adobe.com/Flows/1.0/">
	<!ENTITY ns_extend "http://ns.adobe.com/Extensibility/1.0/">
	<!ENTITY ns_ai "http://ns.adobe.com/AdobeIllustrator/10.0/">
	<!ENTITY ns_graphs "http://ns.adobe.com/Graphs/1.0/">
]>
<svg version="1.1" id="Layer_1" xmlns:x="&ns_extend;" xmlns:i="&ns_ai;" xmlns:graph="&ns_graphs;"
	 xmlns="http://www.w3.org/2000/svg" xmlns:xlink="http://www.w3.org/1999/xlink" xmlns:a="http://ns.adobe.com/AdobeSVGViewerExtensions/3.0/"
	 x="0px" y="0px" viewBox="95.138 101.068 208.005 398.404" enable-background="new 95.138 101.068 208.005 398.404"
	 xml:space="preserve">
<g>
	<g>
		<path fill="none" d="M181.288,120.068h35.793c1.455,0,2.628-0.589,2.628-2.04c0-1.448-1.173-2.04-2.628-2.04h-35.793
			c-1.455,0-2.628,0.589-2.628,2.04C178.659,119.483,179.837,120.068,181.288,120.068z"/>
		<path fill="none" d="M218.539,477.318c-0.029,0.004-0.018-0.435-0.018-0.435h-0.713h-0.165h-2.464h-31.987h-2.464h-0.165h-0.713
			c0,0-0.161,0.435-0.303,0.428c-0.929,0.077-2.263,0.929-2.263,2.599c0,2.628,0,5.257,0,5.257s1.173,5.319,7.11,5.988
			c0.04,0,0.175,0,0.42,0c0.19,0,0.417,0,0.717,0c4.482,0,20.735,0,27.312,0c0.219,0,0.442,0,0.643,0
			c5.933-0.669,6.617-5.988,6.617-5.988s0-2.628,0-5.257C220.1,478.294,219.245,477.413,218.539,477.318z"/>
		<path fill="#E5E3E3" d="M109.202,454.456l-0.369-313.997h40.041H269.17h20.369l-0.201,170.756l13.716-13.716l0.073-149.667
			c0.252-22.38-2.486-41.85-28.964-43.711c-1.667-0.117-3.089-0.23-5.129-0.344v-0.026c-22.428-2.098-46.277-2.808-69.823-2.661
			c-16.882-0.117-34.166,0.205-50.474,1.159v0.347c-8.156,0.446-16.834,0.958-24.844,1.521
			c-26.478,1.857-28.989,21.331-28.741,43.711L95.336,447.7c-0.526,17.419,0.205,35.398,13.851,43.667l36.911-36.911H109.202z
			 M181.288,115.992h35.793c1.455,0,2.628,0.589,2.628,2.04c0,1.451-1.173,2.04-2.628,2.04h-35.793c-1.455,0-2.628-0.589-2.628-2.04
			S179.837,115.992,181.288,115.992z"/>
		<path fill="#333333" d="M214.01,491.155c-0.135,0-0.285,0-0.453,0c-0.022,0-0.051,0-0.073,0c-0.004,0-0.007,0-0.007,0.004
			C213.432,491.199,214.01,491.155,214.01,491.155z"/>
		<path fill="#333333" d="M184.403,491.158c-0.004,0-0.007,0-0.007-0.004c-0.007,0-0.033,0-0.033,0S184.439,491.199,184.403,491.158
			z"/>
		<path fill="#CCC9CA" d="M303.055,297.499l-13.716,13.716l-0.168,143.24h-20H148.873h-2.775l-36.911,36.911
			c3.886,2.354,8.766,3.963,15.032,4.496c8.006,0.68,16.363,1.287,24.519,1.806v0.453c16.312,1.064,33.387,1.44,49.947,1.327
			c23.327,0.175,47.922-0.64,70.35-2.954v-0.252c2.04-0.128,3.363-0.249,4.975-0.384c28.262-2.394,29.647-25.78,28.971-48.156
			L303.055,297.499z M220.1,485.167c0,0-0.684,5.319-6.617,5.988c0.022,0,0.051,0,0.073,0c0.168,0,0.318,0,0.453,0
			c0,0-0.581,0.04-0.537,0.004c0.004,0,0.007,0,0.007-0.004c-0.201,0-0.424,0-0.643,0c-6.577,0-22.83,0-27.312,0
			c-0.3,0-0.526,0-0.717,0c-0.245,0-0.38,0-0.42,0c0.004,0,0.007,0,0.007,0.004c0.04,0.04-0.04-0.004-0.04-0.004s0.026,0,0.033,0
			c-5.937-0.669-7.11-5.988-7.11-5.988s0-2.628,0-5.257c0-1.671,1.334-2.526,2.263-2.599c0.143,0.007,0.303-0.428,0.303-0.428h0.713
			h0.165h2.464h31.987h2.464h0.165h0.713c0,0-0.011,0.439,0.018,0.435c0.709,0.095,1.565,0.976,1.565,2.592
			C220.1,482.538,220.1,485.167,220.1,485.167z"/>
		<polygon fill="#CB1F4C" points="148.873,454.456 269.17,454.456 289.17,454.456 289.339,311.215 146.098,454.456 		"/>
		<polygon fill="#EE4270" points="269.024,140.393 148.727,140.507 108.686,140.543 109.348,454.54 146.245,454.503 
			289.349,311.131 289.393,140.375 		"/>
	</g>
	<g>
		<path fill="#F1688D" d="M272.256,357.909c0,8.547-6.931,15.478-15.478,15.478H141.503c-8.547,0-15.478-6.931-15.478-15.478
			V242.635c0-8.547,6.931-15.478,15.478-15.478h115.271c8.547,0,15.478,6.931,15.478,15.478v115.274H272.256z"/>
		<g id="hwvbWG_1_">
			<g>
				<path fill="#FFFFFF" d="M167.455,274.936c3.221-9.183,11.252-11.826,16.568-11.121c10.093,1.342,14.085,8.445,14.034,15.211
					c-0.062,7.922-4.811,13.786-13.234,15.259c-6.014,1.053-14.166-1.736-17.255-10.96c-1.163-0.278-7.75-0.475-8.708-0.26
					c-1.502,0.336-2.68,1.78-2.925,3.656c-0.069,0.545-0.029,1.108-0.029,1.663c0,8.002,0,16.008,0,24.01
					c0,0.395-0.04,0.797,0.011,1.188c0.366,2.87,1.813,4.277,4.405,4.197c4.434-0.139,8.876-0.102,13.31-0.004
					c1.561,0.033,2.749-0.563,3.868-1.466c0.552-0.446,1.024-0.991,1.528-1.495c11.826-11.819,23.674-23.619,35.46-35.482
					c1.897-1.908,4.05-3.257,6.551-4.113c0.585-0.201,1.239-0.263,1.861-0.267c5.707-0.018,11.417-0.135,17.116,0.026
					c4.672,0.132,8.649,3.071,9.962,7.75c0.358,1.272,0.515,2.643,0.519,3.966c0.044,9.114-0.015,18.227,0.044,27.341
					c0.018,2.987-0.844,5.622-2.672,7.918c-2.054,2.581-4.935,3.634-8.116,3.82c-2.292,0.135-4.595,0.062-6.891,0.015
					c-1.232-0.026-1.934,0.281-2.475,1.598c-1.996,4.855-5.641,8.061-10.792,9.084c-11.457,2.274-20.209-6.357-18.867-16.988
					c1.013-8.032,7.527-13.102,15.2-13.208c6.796-0.091,12.941,4.244,14.754,10.181c0.113,0.366,0.358,0.695,0.654,1.247
					c2.614,0,5.297,0.102,7.966-0.037c1.667-0.088,2.877-1.678,3.129-3.685c0.058-0.468,0.026-0.951,0.026-1.426
					c0-8.163,0-16.326,0-24.486c0-0.475,0.077-0.976-0.044-1.422c-0.589-2.179-1.396-3.718-4.167-3.67
					c-4.277,0.073-8.565,0.15-12.835-0.037c-2.12-0.091-3.656,0.724-5.048,2.058c-2.329,2.234-4.606,4.515-6.891,6.796
					c-9.98,9.969-19.971,19.927-29.925,29.922c-2.778,2.789-6.036,4.167-9.984,4.105c-4.833-0.077-9.669-0.026-14.502-0.015
					c-1.773,0.004-3.433-0.428-5.027-1.177c-4.007-1.875-6.028-5.253-6.116-9.435c-0.208-9.903-0.249-19.814,0-29.713
					c0.15-6.068,4.676-10.404,10.938-10.536C161.69,274.885,164.534,274.936,167.455,274.936z M216.031,330.576
					c5.359-0.062,9.249-3.996,9.179-9.121c-0.073-5.345-4.102-8.96-9.092-8.949c-5.268,0.007-9.212,3.838-9.187,9.121
					C206.954,327.019,211.096,330.503,216.031,330.576z M182.823,270.151c-5.162-0.018-9.209,3.952-9.366,8.923
					c-0.143,4.566,4.014,9.073,9.011,9.117c4.862,0.044,9.157-4.127,9.205-8.909C191.721,274.406,187.17,269.716,182.823,270.151z"
					/>
			</g>
		</g>
	</g>
	<path fill="#F2F2F2" d="M220.1,485.167c0,0-0.684,5.319-6.617,5.988c0.022,0,0.051,0,0.073,0c0.168,0,0.318,0,0.453,0
		c0,0-0.581,0.04-0.537,0.004c0.004,0,0.007,0,0.007-0.004c-0.201,0-0.424,0-0.643,0c-6.577,0-22.83,0-27.312,0
		c-0.3,0-0.526,0-0.717,0c-0.245,0-0.38,0-0.42,0c0.004,0,0.007,0,0.007,0.004c0.04,0.04-0.04-0.004-0.04-0.004s0.026,0,0.033,0
		c-5.937-0.669-7.11-5.988-7.11-5.988s0-2.628,0-5.257c0-1.671,1.334-2.526,2.263-2.599c0.143,0.007,0.303-0.428,0.303-0.428h0.713
		h0.165h2.464h31.987h2.464h0.165h0.713c0,0-0.011,0.439,0.018,0.435c0.709,0.095,1.565,0.976,1.565,2.592
		C220.1,482.538,220.1,485.167,220.1,485.167z"/>
	<path fill="#E5E3E3" d="M181.288,115.992h35.793c1.455,0,2.628,0.589,2.628,2.04c0,1.451-1.173,2.04-2.628,2.04h-35.793
		c-1.455,0-2.628-0.589-2.628-2.04S179.837,115.992,181.288,115.992z"/>
</g>
</svg>
