<?xml version="1.0" encoding="utf-8"?>
<!-- Generator: Adobe Illustrator 17.1.0, SVG Export Plug-In . SVG Version: 6.00 Build 0)  -->
<!DOCTYPE svg PUBLIC "-//W3C//DTD SVG 1.1//EN" "http://www.w3.org/Graphics/SVG/1.1/DTD/svg11.dtd" [
	<!ENTITY ns_flows "http://ns.adobe.com/Flows/1.0/">
	<!ENTITY ns_extend "http://ns.adobe.com/Extensibility/1.0/">
	<!ENTITY ns_ai "http://ns.adobe.com/AdobeIllustrator/10.0/">
	<!ENTITY ns_graphs "http://ns.adobe.com/Graphs/1.0/">
]>
<svg version="1.1" id="Layer_1" xmlns:x="&ns_extend;" xmlns:i="&ns_ai;" xmlns:graph="&ns_graphs;"
	 xmlns="http://www.w3.org/2000/svg" xmlns:xlink="http://www.w3.org/1999/xlink" xmlns:a="http://ns.adobe.com/AdobeSVGViewerExtensions/3.0/"
	 x="0px" y="0px" viewBox="105.495 100 189.011 400" enable-background="new 105.495 100 189.011 400" xml:space="preserve">
<g>
	<g>
		<circle fill="none" cx="200.182" cy="126.923" r="8.242"/>
		<circle fill="none" cx="202.015" cy="471.793" r="17.581"/>
		<path fill="#191617" d="M281.319,335.343v107.513H173.806l-54.001,54c3.765,2.002,8.053,3.144,12.613,3.144h135.164
			c14.869,0,26.923-12.054,26.923-26.923v-150.92L281.319,335.343z M202.015,489.374c-9.715,0-17.581-7.869-17.581-17.581
			c0-9.709,7.869-17.581,17.581-17.581c9.709,0,17.581,7.872,17.581,17.581C219.597,481.505,211.724,489.374,202.015,489.374z"/>
		<path fill="#333333" d="M120.879,442.856V157.141h160.44v178.202l13.187-13.187V126.923c0-14.869-12.054-26.923-26.923-26.923
			H132.418c-14.869,0-26.923,12.054-26.923,26.923v346.153c0,10.309,5.799,19.258,14.31,23.78l54.001-54H120.879z M200.182,118.681
			c4.551,0,8.242,3.691,8.242,8.242c0,4.551-3.691,8.242-8.242,8.242s-8.242-3.691-8.242-8.242
			C191.94,122.372,195.631,118.681,200.182,118.681z"/>
		<polygon fill="#7F1C17" points="281.319,442.856 281.319,335.343 173.806,442.856 		"/>
		<polygon fill="#B13125" points="120.879,157.144 120.879,442.856 173.806,442.856 281.319,335.343 281.319,157.144 		"/>
	</g>
	<circle fill="#E5E3E3" cx="202.015" cy="471.793" r="17.581"/>
	<g>
		<g>
			<g>
				<path fill="#F27261" d="M261.716,351.261c0,4.356-3.531,7.884-7.884,7.884H146.168c-4.356,0-7.884-3.531-7.884-7.884V248.739
					c0-4.356,3.531-7.884,7.884-7.884h107.664c4.356,0,7.884,3.531,7.884,7.884V351.261z"/>
			</g>
		</g>
	</g>
	<g>
		<g>
			<path fill="#7F1C17" d="M181.607,314.648c-14.473,0-26.246-11.773-26.246-26.246v-3.046h63.032
				c14.473,0,26.246,11.773,26.246,26.246v3.046H181.607L181.607,314.648z"/>
			<path fill="#61C6C7" d="M218.393,288.165c12.944,0,23.437,10.493,23.437,23.437v0.237h-60.223
				c-12.944,0-23.437-10.493-23.437-23.437v-0.237L218.393,288.165 M218.393,282.546H158.17h-5.619v5.619v0.237
				c0,16.02,13.033,29.056,29.056,29.056h60.223h5.619v-5.619v-0.237C247.449,295.582,234.416,282.546,218.393,282.546
				L218.393,282.546z"/>
		</g>
		<g>
			<path fill="#FFFFFF" d="M175.796,304.084h1.357v-6.119h-1.443v-1.289h1.443v-0.429c0-2.786,2.097-3.129,3.129-3.129
				c0.464,0,0.79,0.05,0.79,0.05v1.375c0,0-0.225-0.05-0.618-0.05c-0.55,0-1.632,0.154-1.632,1.718v0.464h2.097v1.289h-2.097v6.119
				h1.597v1.289h-4.622V304.084z"/>
			<path fill="#FFFFFF" d="M183.219,297.965h-1.461v-1.289h3.129v5.226c0,1.204,0.24,2.165,1.632,2.165
				c1.736,0,2.818-1.668,2.818-3.386v-2.715h-1.461v-1.289h3.129v7.047c0,0.24,0.136,0.379,0.379,0.379h0.911v1.272h-1.804
				c-0.757,0-1.1-0.343-1.1-0.961v-0.379c0-0.293,0.035-0.515,0.035-0.515h-0.038c-0.172,0.464-1.15,2.061-3.318,2.061
				c-1.872,0-2.854-1.032-2.854-3.333v-4.282H183.219z"/>
			<path fill="#FFFFFF" d="M193.667,304.084h1.357v-5.74c0-0.257-0.139-0.379-0.379-0.379h-1.065v-1.289h1.958
				c0.757,0,1.1,0.325,1.1,0.961v0.447c0,0.275-0.05,0.5-0.05,0.5h0.035c0.172-0.464,1.186-2.114,3.386-2.114
				c1.993,0,2.886,1.118,2.886,3.333v4.279h1.375v1.289h-3.043v-5.19c0-1.221-0.24-2.182-1.632-2.182
				c-1.754,0-2.904,1.597-2.904,3.333v2.75h1.375v1.289h-4.4L193.667,304.084L193.667,304.084z"/>
			<path fill="#FFFFFF" d="M209.358,296.469c1.975,0,2.682,1.461,2.682,1.461h0.035c0,0-0.05-0.275-0.05-0.654v-2.75h-1.443v-1.286
				h3.111v10.466c0,0.257,0.139,0.379,0.379,0.379h0.875v1.289h-1.736c-0.772,0-1.082-0.379-1.082-0.946v-0.121
				c0-0.293,0.05-0.464,0.05-0.464h-0.035c0,0-0.704,1.736-2.94,1.736c-2.336,0-3.797-1.857-3.797-4.554
				C205.404,298.255,207.022,296.469,209.358,296.469z M209.565,304.134c1.289,0,2.511-0.929,2.511-3.093
				c0-1.597-0.807-3.111-2.458-3.111c-1.393,0-2.511,1.118-2.511,3.093C207.108,302.913,208.122,304.134,209.565,304.134z"/>
			<path fill="#FFFFFF" d="M221.131,300.027h0.55v-0.328c0-1.375-0.79-1.857-1.857-1.857c-1.375,0-2.493,0.843-2.493,0.843
				l-0.671-1.186c0,0,1.272-1.032,3.3-1.032c2.218,0,3.386,1.15,3.386,3.351v3.883c0,0.257,0.139,0.379,0.379,0.379h0.875v1.289
				h-1.736c-0.775,0-1.082-0.379-1.082-0.946V304.3c0-0.343,0.068-0.568,0.068-0.568h-0.035c0,0-0.757,1.839-2.869,1.839
				c-1.443,0-2.886-0.843-2.886-2.629C216.06,300.216,219.688,300.027,221.131,300.027z M219.31,304.288
				c1.479,0,2.39-1.511,2.39-2.818v-0.361h-0.432c-0.79,0-3.522,0.035-3.522,1.7C217.745,303.584,218.313,304.288,219.31,304.288z"
				/>
		</g>
	</g>
</g>
</svg>
