<?xml version="1.0" encoding="utf-8"?>
<!-- Generator: Adobe Illustrator 17.1.0, SVG Export Plug-In . SVG Version: 6.00 Build 0)  -->
<!DOCTYPE svg PUBLIC "-//W3C//DTD SVG 1.1//EN" "http://www.w3.org/Graphics/SVG/1.1/DTD/svg11.dtd" [
	<!ENTITY ns_flows "http://ns.adobe.com/Flows/1.0/">
	<!ENTITY ns_extend "http://ns.adobe.com/Extensibility/1.0/">
	<!ENTITY ns_ai "http://ns.adobe.com/AdobeIllustrator/10.0/">
	<!ENTITY ns_graphs "http://ns.adobe.com/Graphs/1.0/">
]>
<svg version="1.1" id="Layer_1" xmlns:x="&ns_extend;" xmlns:i="&ns_ai;" xmlns:graph="&ns_graphs;"
	 xmlns="http://www.w3.org/2000/svg" xmlns:xlink="http://www.w3.org/1999/xlink" xmlns:a="http://ns.adobe.com/AdobeSVGViewerExtensions/3.0/"
	 x="0px" y="0px" viewBox="0 0 120 120" enable-background="new 0 0 120 120" xml:space="preserve">
<circle fill="#003878" cx="60" cy="60" r="60"/>
<path fill="#06315B" d="M60,0C26.863,0,0,26.863,0,60c0,20.411,10.201,38.431,25.774,49.269L70.407,0.918
	C67.025,0.326,63.552,0,60,0z"/>
<polygon fill="none" points="47.497,56.534 47.534,56.445 47.497,56.445 "/>
<polygon fill="#FFFFFF" points="51.782,56.445 51.782,52.889 48.998,52.889 47.534,56.445 "/>
<path fill="#FFFFFF" d="M47.497,61.641v-5.107l-4.224,10.254c0.011,0.016,0.02,0.033,0.03,0.049
	c1.185,1.641,2.917,2.462,5.288,2.462c1.732,0,2.644-0.365,3.282-0.821v-3.282c-0.091,0-0.821,0.729-1.915,0.729
	C47.952,65.926,47.497,65.105,47.497,61.641z"/>
<path fill="#E6E6E6" d="M47.497,56.445h0.037l1.464-3.555h-1.501v-6.564l-5.196,2.461v13.219c0,2.694,0.268,3.707,0.972,4.783
	l4.224-10.254V56.445z"/>
<path fill-rule="evenodd" clip-rule="evenodd" fill="#FFFFFF" d="M63.998,52.433c5.196,0,9.208,3.647,9.208,8.478
	c0,5.014-3.738,8.387-9.208,8.387c-5.47,0-9.299-3.373-9.299-8.387C54.699,56.08,58.71,52.433,63.998,52.433L63.998,52.433z
	 M63.907,66.199c2.461,0,3.829-2.006,3.829-5.288c0-3.373-1.459-5.288-3.829-5.288c-2.279,0-3.738,1.914-3.738,5.288
	C60.169,64.194,61.536,66.199,63.907,66.199L63.907,66.199z"/>
<path fill-rule="evenodd" clip-rule="evenodd" fill="#FFFFFF" d="M88.703,53.254c0,0-2.006-0.821-5.379-0.821
	c-4.011,0-7.02,1.823-7.02,5.196c0,3.191,3.829,4.558,4.832,4.923c1.732,0.638,3.1,1.094,3.008,2.188
	c-0.182,1.185-1.368,1.55-3.282,1.459c-1.368-0.091-4.194-1.185-4.194-1.185l-0.638,3.191c0,0,2.553,1.094,6.017,1.094
	c4.285,0,7.749-1.641,7.749-5.561c0-3.191-3.829-4.558-4.832-4.923c-1.823-0.547-3.282-0.912-3.1-2.097
	c0.091-1.003,1.55-1.368,3.282-1.185c1.55,0.091,3.1,0.729,3.1,0.729L88.703,53.254L88.703,53.254z"/>
<path fill-rule="evenodd" clip-rule="evenodd" fill="#E6E6E6" d="M23.429,67.111c-1.641-1.459-2.644-3.282-2.917-5.379
	c-0.456,0.365-0.912,0.547-1.459,0.547c-1.276,0-2.279-1.003-2.279-2.279c0-1.276,1.003-2.279,2.279-2.279
	c0.547,0,1.094,0.273,1.55,0.638c0.821-4.376,4.467-7.476,9.208-7.476c3.191,0,5.835,1.459,7.476,3.829
	c-2.279-7.931-9.572-13.766-18.233-13.766C8.478,40.947,0,49.516,0,60c0,10.484,8.478,19.053,19.054,19.053
	c7.475,0,13.857-4.285,17.048-10.575c-1.55,0.821-3.373,1.185-5.288,1.185C27.623,69.664,25.344,68.843,23.429,67.111L23.429,67.111
	z"/>
<path fill-rule="evenodd" clip-rule="evenodd" fill="#FFFFFF" d="M32.09,65.379c1.641,0,3.464-0.638,5.196-1.823
	c0.182-0.638,0.273-1.276,0.273-1.914H26.985C27.258,63.829,29.264,65.379,32.09,65.379L32.09,65.379z"/>
<path fill-rule="evenodd" clip-rule="evenodd" fill="#FFFFFF" d="M33.275,58.815c0-1.459-0.456-4.011-3.282-4.011
	c-2.826,0-3.373,2.553-3.373,4.011H33.275L33.275,58.815z"/>
<line fill="none" x1="54.699" y1="39.051" x2="41.393" y2="71.353"/>
</svg>
