<?xml version="1.0" encoding="utf-8"?>
<!-- Generator: Adobe Illustrator 17.1.0, SVG Export Plug-In . SVG Version: 6.00 Build 0)  -->
<!DOCTYPE svg PUBLIC "-//W3C//DTD SVG 1.1//EN" "http://www.w3.org/Graphics/SVG/1.1/DTD/svg11.dtd" [
	<!ENTITY ns_flows "http://ns.adobe.com/Flows/1.0/">
	<!ENTITY ns_extend "http://ns.adobe.com/Extensibility/1.0/">
	<!ENTITY ns_ai "http://ns.adobe.com/AdobeIllustrator/10.0/">
	<!ENTITY ns_graphs "http://ns.adobe.com/Graphs/1.0/">
]>
<svg version="1.1" id="Layer_1" xmlns:x="&ns_extend;" xmlns:i="&ns_ai;" xmlns:graph="&ns_graphs;"
	 xmlns="http://www.w3.org/2000/svg" xmlns:xlink="http://www.w3.org/1999/xlink" xmlns:a="http://ns.adobe.com/AdobeSVGViewerExtensions/3.0/"
	 x="0px" y="0px" viewBox="0 0 120 120" enable-background="new 0 0 120 120" xml:space="preserve">
<path fill="#0078AA" d="M34.048,39.043c-1.573,0.9-3.04,2.471-3.709,4.698l-9.375,32.561c-1.123,3.894,1.073,7.978,4.908,9.122
	l8.704,2.476L60.86,24.094L34.048,39.043z"/>
<g>
	<g id="g3928_1_" transform="matrix(15.504137,0,0,15.504137,-5866.0511,-7379.7381)">
		<path id="path3307_1_" fill="#00A0E2" d="M384.699,479.737l-1.231-2.293c-0.13-0.241-0.427-0.329-0.664-0.197l-2.253,1.256
			c-0.101,0.058-0.196,0.159-0.239,0.303l-0.605,2.1c-0.072,0.251,0.069,0.515,0.317,0.588l3.552,1.01
			c0.247,0.074,0.506-0.071,0.579-0.322l0.588-2.059C384.78,480.003,384.758,479.854,384.699,479.737z"/>
		<path id="path3309_1_" fill="#FFFFFF" d="M381.937,480.179c0,0-0.391-0.762-0.643-0.762c-0.196,0-0.213,0.207-0.212,0.705
			c0.001,0.499,0.028,0.693,0.212,0.693C381.543,480.815,381.937,480.179,381.937,480.179z M382.439,479.543
			c0.2-0.288,0.381-0.573,0.72-0.573c0.375,0,0.578,0.313,0.579,0.577c0,0.003-0.002,1.69-0.002,1.69h-0.421l-0.002-1.599
			c0-0.22-0.177-0.219-0.179-0.219c-0.142,0-0.404,0.357-0.695,0.753v1.066l-0.425,0l-0.001-0.494c0,0-0.281,0.494-0.703,0.494
			c-0.478,0-0.64-0.328-0.641-1.116c-0.001-0.75,0.106-1.151,0.618-1.152c0.39,0,0.724,0.567,0.724,0.567l0-0.36l0.427-0.576
			C382.44,478.603,382.438,479.546,382.439,479.543L382.439,479.543z"/>
	</g>
	<path fill="#499595" d="M25.805,109.292L70.445,0.925C67.051,0.329,63.565,0,60,0C26.863,0,0,26.863,0,60
		C0,80.425,10.214,98.456,25.805,109.292z"/>
	<circle fill="#61C6C7" cx="60" cy="60" r="60"/>
	<path fill="#44B2AF" d="M60,0C26.863,0,0,26.863,0,60c0,20.411,10.201,38.431,25.774,49.269L70.407,0.918
		C67.025,0.326,63.552,0,60,0z"/>
	<g id="layer1" transform="translate(-23.868215,305.62409)">
		<g id="g3928" transform="matrix(15.504137,0,0,15.504137,-5866.0511,-7379.7381)">
			<path id="path3307" fill="#00A0E2" d="M386.238,460.025l-1.231-2.293c-0.13-0.241-0.427-0.329-0.664-0.197l-2.253,1.256
				c-0.101,0.058-0.196,0.159-0.239,0.303l-0.605,2.1c-0.072,0.251,0.069,0.515,0.317,0.588l3.552,1.01
				c0.247,0.074,0.506-0.071,0.579-0.322l0.588-2.059C386.319,460.291,386.298,460.141,386.238,460.025z"/>
			<path fill="#FFFFFF" d="M384.698,459.257c-0.338,0-0.519,0.285-0.719,0.573v0h0c0,0,0,0,0,0c-0.002,0.001,0-0.94,0-0.94
				l-0.427,0.576l0,0.36c0,0-0.156-0.264-0.379-0.432l-0.165,0.399c0.226,0.201,0.468,0.673,0.468,0.673s-0.394,0.636-0.644,0.636
				c-0.14,0-0.189-0.113-0.205-0.385l-0.245,0.596c0.101,0.146,0.252,0.213,0.468,0.213c0.421-0.001,0.703-0.494,0.703-0.494
				l-0.011,0.494l0.414,0v-1.066c0.322-0.396,0.564-0.753,0.706-0.753c0.002,0,0.185-0.014,0.185,0.206l0.007,1.586h0.421
				c0,0,0.002-1.673,0.002-1.676C385.276,459.557,385.073,459.257,384.698,459.257z"/>
			<path fill="#E6E6E6" d="M382.621,460.41c-0.001-0.498,0.016-0.705,0.212-0.705c0.054,0,0.114,0.035,0.175,0.089l0.165-0.399
				c-0.104-0.078-0.222-0.136-0.346-0.136c-0.512,0-0.619,0.402-0.618,1.152c0.001,0.432,0.05,0.725,0.173,0.902l0.245-0.596
				C382.623,460.631,382.621,460.529,382.621,460.41z"/>
		</g>
	</g>
</g>
<g>
	<path fill="none" d="M45.572,74.885c3.876-0.003,9.983-9.864,9.983-9.864s-3.751-7.312-7.258-10.429L42.4,68.908
		C42.645,73.138,43.404,74.885,45.572,74.885z"/>
	<polygon fill="#FFFFFF" points="63.343,55.166 63.343,55.166 63.342,55.166 	"/>
</g>
</svg>
