<?xml version="1.0" encoding="utf-8"?>
<!-- Generator: Adobe Illustrator 17.1.0, SVG Export Plug-In . SVG Version: 6.00 Build 0)  -->
<!DOCTYPE svg PUBLIC "-//W3C//DTD SVG 1.1//EN" "http://www.w3.org/Graphics/SVG/1.1/DTD/svg11.dtd" [
	<!ENTITY ns_flows "http://ns.adobe.com/Flows/1.0/">
	<!ENTITY ns_extend "http://ns.adobe.com/Extensibility/1.0/">
	<!ENTITY ns_ai "http://ns.adobe.com/AdobeIllustrator/10.0/">
	<!ENTITY ns_graphs "http://ns.adobe.com/Graphs/1.0/">
]>
<svg version="1.1" id="Layer_1" xmlns:x="&ns_extend;" xmlns:i="&ns_ai;" xmlns:graph="&ns_graphs;"
	 xmlns="http://www.w3.org/2000/svg" xmlns:xlink="http://www.w3.org/1999/xlink" xmlns:a="http://ns.adobe.com/AdobeSVGViewerExtensions/3.0/"
	 x="0px" y="0px" viewBox="0 0 120 120" enable-background="new 0 0 120 120" xml:space="preserve">
<g>
	<circle fill="#003878" cx="60" cy="60" r="60"/>
	<path fill="#082F56" d="M60,0C26.863,0,0,26.863,0,60c0,20.411,10.201,38.431,25.774,49.269L70.407,0.918
		C67.025,0.326,63.552,0,60,0z"/>
	<path fill="#E6E6E6" d="M10.73,53.303v13.439c0,0.603,0.488,1.091,1.091,1.091h15.479V57.067h-6.32v2.492h3.839l-0.009,5.801
		h-6.242V54.635h8.743l-0.006-2.425l-15.483,0.002C11.218,52.212,10.73,52.7,10.73,53.303z"/>
	<path fill="#FFFFFF" d="M47.792,53.303v14.53H32.314c-0.603,0-1.091-0.488-1.091-1.091v-8.583c0-0.603,0.488-1.091,1.091-1.091
		h5.229v2.492h-3.839l0.009,5.801h6.242V54.635h-4.847l0.006-2.425l11.587,0.002C47.304,52.212,47.792,52.7,47.792,53.303z"/>
	<path fill="#FFFFFF" d="M109.27,53.303v14.53H93.792c-0.603,0-1.091-0.488-1.091-1.091v-8.583c0-0.603,0.488-1.091,1.091-1.091
		h5.229v2.492h-3.839l0.009,5.801h6.242V54.635h-4.847l0.006-2.425l11.587,0.002C108.782,52.212,109.27,52.7,109.27,53.303z"/>
	<path fill="#FFFFFF" d="M51.73,53.258v14.56h7.804V54.675h1.924v4.81h2.473v-4.832h1.836v13.166h2.508v-14.56
		c0-0.603-0.488-1.091-1.091-1.091H52.821C52.218,52.167,51.73,52.656,51.73,53.258z"/>
	<path fill="#FFFFFF" d="M72.218,53.258v14.56h7.804V54.675h1.924v4.81h2.473v-4.832h1.836v13.166h2.508v-14.56
		c0-0.603-0.488-1.091-1.091-1.091H73.309C72.707,52.167,72.218,52.656,72.218,53.258z"/>
	<path fill="#E6E6E6"  a:adobe-blending-mode="multiply" d="M47.792,53.303c0-0.602-0.489-1.091-1.091-1.091L35.115,52.21
		l-0.006,2.425h4.847V65.36h-6.242l-0.009-5.801h3.839v-2.492h-5.229c-0.603,0-1.091,0.489-1.091,1.091v8.583
		c0,0.602,0.488,1.091,1.091,1.091h10.529l4.95-12.015V53.303z"/>
</g>
</svg>
