<?xml version="1.0" encoding="utf-8"?>
<!-- Generator: Adobe Illustrator 17.1.0, SVG Export Plug-In . SVG Version: 6.00 Build 0)  -->
<!DOCTYPE svg PUBLIC "-//W3C//DTD SVG 1.1//EN" "http://www.w3.org/Graphics/SVG/1.1/DTD/svg11.dtd" [
	<!ENTITY ns_flows "http://ns.adobe.com/Flows/1.0/">
	<!ENTITY ns_extend "http://ns.adobe.com/Extensibility/1.0/">
	<!ENTITY ns_ai "http://ns.adobe.com/AdobeIllustrator/10.0/">
	<!ENTITY ns_graphs "http://ns.adobe.com/Graphs/1.0/">
]>
<svg version="1.1" id="Layer_1" xmlns:x="&ns_extend;" xmlns:i="&ns_ai;" xmlns:graph="&ns_graphs;"
	 xmlns="http://www.w3.org/2000/svg" xmlns:xlink="http://www.w3.org/1999/xlink" xmlns:a="http://ns.adobe.com/AdobeSVGViewerExtensions/3.0/"
	 x="0px" y="0px" viewBox="0 0 120 120" enable-background="new 0 0 120 120" xml:space="preserve">
<g>
	<circle fill="#333333" cx="60" cy="60" r="60"/>
	<path fill="#1A1A1A" d="M60,0C26.863,0,0,26.863,0,60c0,20.411,10.201,38.431,25.774,49.269L70.407,0.918
		C67.025,0.326,63.552,0,60,0z"/>
	<path fill="#FFFFFF" d="M30.469,49.286c3.314-0.033,6.629,0,9.943-0.033c0,0.263,0.033,0.755,0.033,1.017
		c-0.722,0.033-1.411,0.066-2.1,0.164c-0.23,0.098-0.623,0.295-0.82,0.361c-0.066,0.427-0.098,0.853,0.098,1.214
		c1.903,4.528,3.971,8.991,5.972,13.487c1.87-4.594,4.036-9.09,6.071-13.651c0-0.23,0-0.755,0-1.017
		c-0.984-0.525-2.133-0.623-3.249-0.525c-0.098-0.328-0.197-0.656-0.295-0.984c3.052-0.098,6.136-0.033,9.188-0.066
		c0,0.328-0.033,0.656-0.033,0.984c-1.739,0.164-3.117,1.542-3.938,2.986c-2.691,5.71-5.349,11.42-7.974,17.129
		c-0.492,0-0.984,0-1.477,0.033c-2.625-5.874-5.119-11.781-7.712-17.622c-0.623-1.411-1.969-2.592-3.577-2.494
		C30.568,49.942,30.502,49.614,30.469,49.286L30.469,49.286z"/>
	<path fill="#FFFFFF" d="M89.372,57.391c-0.427-3.15-2.789-5.808-5.71-6.957c-2.264-0.984-4.758-1.247-7.219-1.214
		c-2.789,0.033-5.546,0-8.302,0.033c-0.033,0.197-0.033,0.591-0.066,0.788c0.952,0.328,2.133,0.295,2.724,1.214
		c0.788,1.838,0.197,3.872,0.427,5.808c0,2.855-0.131,5.71,0,8.565c0.098,1.214-0.066,2.953-1.575,3.281
		c-1.903,0.492-3.478-0.984-4.66-2.297c1.706-2.166,3.249-4.758,3.117-7.646c-1.509,0.066-3.019,0-4.496,0.066
		c-0.361,0.131-0.361,0.492-0.427,0.82c0.197,0.066,0.558,0.164,0.722,0.23c0.591,0.066,1.181,0.263,1.739,0.492
		c0.361,1.28-0.328,2.494-0.919,3.577c-1.181,2.199-3.052,4.299-5.611,4.857c-1.608,0.164-3.511-0.361-4.233-1.936
		c-1.05-1.87-0.525-4.988,1.674-5.71c1.149,1.411,2.363,2.789,3.643,4.102c0.492,0.295,0.722-0.394,1.05-0.623
		c0.263-0.394,0.886-0.788,0.623-1.313c-1.017-1.116-2.067-2.166-2.986-3.38c1.378-0.82,2.986-1.674,3.577-3.281
		c0.689-1.706-0.23-3.872-2.002-4.43c-2.363-0.952-5.841-0.263-6.826,2.33c-0.788,2.199,0.82,4.135,2.133,5.677
		c-1.444,0.984-3.085,1.903-3.872,3.544c-0.722,1.575-0.591,3.577,0.591,4.922c1.181,1.411,3.15,1.903,4.922,1.87
		c2.067,0.066,4.036-0.886,5.611-2.199c0.755,0.689,1.411,1.739,2.56,1.739c3.085,0.098,6.169,0,9.221,0.033
		c2.264,0,4.561,0.131,6.727-0.525c3.15-0.788,6.071-2.953,7.285-6.005C89.701,61.821,89.602,59.524,89.372,57.391z M57.542,53.322
		c0.656-0.164,1.313-0.066,1.969-0.033c1.477,0.82,1.641,2.626,0.984,4.037C60.003,58.048,59.281,59,58.526,59
		c-0.131,0-0.361,0-0.459,0c-0.689-1-1.575-1.805-1.87-3.052C55.967,54.898,56.492,53.748,57.542,53.322z M85.566,60.705
		c0.066,2.428-0.755,4.955-2.592,6.596c-0.952,0.919-2.264,1.345-3.511,1.674c-1.509,0.131-3.216,0.23-4.496-0.788
		c-0.131-0.492-0.328-1.017-0.328-1.575c0.033-5.382,0-10.763,0.033-16.145c2.756-0.164,5.841,0.066,8.007,2.034
		C85.008,54.503,85.73,57.752,85.566,60.705z"/>
	<g>
		<path fill="none" d="M49.666,51.845c0-0.131,0-0.357,0-0.576l-2.556,6.206C47.965,55.601,48.826,53.729,49.666,51.845z"/>
		<path fill="#1A1A1A" d="M30.601,50.27c-0.033-0.328-0.099-0.656-0.131-0.984c3.314-0.033,6.629,0,9.943-0.033
			c0,0.263,0.033,0.755,0.033,1.017c-0.722,0.033-1.411,0.066-2.101,0.164c-0.229,0.099-0.623,0.295-0.82,0.361
			c-0.065,0.427-0.098,0.853,0.099,1.214c1.903,4.528,3.971,8.991,5.972,13.487c1.098-2.697,2.299-5.36,3.515-8.022l2.556-6.206
			c0-0.165,0-0.328,0-0.441c-0.984-0.525-2.133-0.624-3.249-0.525c-0.099-0.328-0.197-0.656-0.295-0.984
			c1.452-0.047,2.911-0.056,4.371-0.056L70.407,0.918C67.025,0.326,63.552,0,60,0C26.863,0,0,26.863,0,60
			c0,20.411,10.201,38.431,25.773,49.269l16.065-38.999c-2.606-5.836-5.085-11.704-7.661-17.507
			C33.554,51.353,32.208,50.172,30.601,50.27z"/>
		<path fill="#FFFFFF" d="M46.417,50.303c1.116-0.099,2.264,0,3.249,0.525c0,0.113,0,0.276,0,0.441l0.827-2.007
			c-1.459,0.001-2.919,0.01-4.371,0.056C46.221,49.646,46.319,49.975,46.417,50.303z"/>
		<path fill="#E6E6E6" d="M43.595,65.496c-2.001-4.496-4.069-8.958-5.972-13.487c-0.197-0.361-0.164-0.788-0.099-1.214
			c0.197-0.066,0.591-0.263,0.82-0.361c0.689-0.098,1.378-0.131,2.101-0.164c0-0.262-0.033-0.755-0.033-1.017
			c-3.314,0.033-6.628,0-9.943,0.033c0.033,0.328,0.099,0.656,0.131,0.984c1.608-0.098,2.953,1.083,3.577,2.494
			c2.575,5.803,5.055,11.671,7.661,17.507l5.271-12.796C45.895,60.136,44.693,62.799,43.595,65.496z"/>
	</g>
</g>
</svg>
