<?xml version="1.0" encoding="utf-8"?>
<!-- Generator: Adobe Illustrator 17.1.0, SVG Export Plug-In . SVG Version: 6.00 Build 0)  -->
<!DOCTYPE svg PUBLIC "-//W3C//DTD SVG 1.1//EN" "http://www.w3.org/Graphics/SVG/1.1/DTD/svg11.dtd" [
	<!ENTITY ns_flows "http://ns.adobe.com/Flows/1.0/">
	<!ENTITY ns_extend "http://ns.adobe.com/Extensibility/1.0/">
	<!ENTITY ns_ai "http://ns.adobe.com/AdobeIllustrator/10.0/">
	<!ENTITY ns_graphs "http://ns.adobe.com/Graphs/1.0/">
]>
<svg version="1.1" id="Layer_1" xmlns:x="&ns_extend;" xmlns:i="&ns_ai;" xmlns:graph="&ns_graphs;"
	 xmlns="http://www.w3.org/2000/svg" xmlns:xlink="http://www.w3.org/1999/xlink" xmlns:a="http://ns.adobe.com/AdobeSVGViewerExtensions/3.0/"
	 x="0px" y="0px" viewBox="0 0 120 120" enable-background="new 0 0 120 120" xml:space="preserve">
<g>
	<circle fill="#EE4270" cx="60" cy="60" r="60"/>
	<g>
		<path fill="none" d="M92.222,62.279c1.062-0.043,2.061,0.108,3.121-0.117c-1.486-2.445-2.604-3.948-3.111-4.175
			C92.544,59.409,92.478,60.815,92.222,62.279z"/>
		<path fill="none" d="M81.427,62.469c1.408,0.002,2.455-1.052,2.461-2.478c0.006-1.376-1.042-2.446-2.413-2.465
			c-1.411-0.019-2.499,1.045-2.499,2.446C78.976,61.397,80.027,62.468,81.427,62.469z"/>
		<path fill="#E23067" d="M36.903,68.218c0.223,0.328,0.445,0.656,0.667,0.985c0.227,0.336,0.454,0.673,0.722,1.072
			c-0.26,0.017-0.42,0.036-0.581,0.036c-3.026,0.001-6.052-0.01-9.077,0.012c-0.455,0.003-0.736-0.159-0.963-0.514
			c-0.431-0.671-0.87-1.338-1.351-2.075c-0.633,0.911-1.218,1.754-1.799,2.589c-3.385,0-6.74,0-10.26,0
			c2.35-3.411,4.624-6.712,6.93-10.06c-2.386-3.517-4.775-7.039-7.215-10.637c3.391,0,6.692,0,10.057,0
			c0.713,1.025,1.454,2.09,2.259,3.246c0.79-1.119,1.535-2.174,2.302-3.261c3.312,0,6.638,0,10.037,0
			c-0.443,0.664-0.851,1.276-1.288,1.93c4.463-3.047,8.646-3.361,12.624-1.004l20.44-49.621C67.025,0.326,63.552,0,60,0
			C26.863,0,0,26.863,0,60c0,20.411,10.201,38.431,25.773,49.269l15.911-38.625c-1.69-0.456-3.244-1.318-4.685-2.504
			C36.968,68.167,36.936,68.192,36.903,68.218z"/>
		<path fill="#E5336A" d="M33.807,56.746c-0.791,1.158-1.579,2.317-2.393,3.512c0.927,1.344,1.819,2.639,2.711,3.934
			c0.041-0.018,0.081-0.035,0.122-0.053c-0.38-1.204-0.663-2.426-0.732-3.687c-0.072-1.297,0.183-2.556,0.534-3.925
			C33.894,56.665,33.839,56.698,33.807,56.746z"/>
		<path fill="#CB1F4C" d="M105.477,62.051c-0.456-0.939-1.115-1.784-1.716-2.648c-0.579-0.831-1.25-1.601-1.792-2.455
			c-0.435-0.685-0.679-1.469-0.516-2.312c0.31-1.606,1.461-2.547,3.109-2.548c0.466,0,0.932,0,1.386,0c0-0.886,0-1.666,0-2.443
			c-0.098-0.021-0.158-0.044-0.218-0.045c-3.191-0.008-6.384-0.073-9.574,0c-2.546,0.058-4.47,1.832-4.891,4.306
			c-0.043,0.251-0.054,0.508-0.08,0.763c-0.059-0.011-0.087-0.008-0.096-0.019c-0.061-0.083-0.119-0.168-0.175-0.255
			c-2.221-3.435-5.242-5.432-9.466-5.285c-0.426,0.015-0.864-0.118-1.281-0.064c-3.009,0.389-5.482,1.759-7.391,4.129
			c-0.151,0.187-0.304,0.372-0.454,0.555c-0.43-0.534-0.799-1.059-1.235-1.521c-1.542-1.632-3.384-2.622-5.691-2.618
			c-3.709,0.006-7.419-0.009-11.128-0.015c-0.386-0.001-0.772,0-1.193,0c0,0.641,0,1.179,0,1.716c0,0.545,0,1.089,0,1.661
			c-1.023-0.996-2.06-1.794-3.11-2.416l-0.399,0.969c2.083,1.22,3.525,3.076,4.365,5.465c0.046-0.014,0.092-0.028,0.138-0.042
			c0.031-0.189,0.088-0.377,0.089-0.566c0.006-1.595,0-3.191,0.005-4.786c0.001-0.263,0.037-0.526,0.063-0.873
			c0.296,0,0.538,0,0.779,0c3.439,0.001,6.879,0.029,10.318-0.01c1.507-0.017,2.815,0.468,3.97,1.356
			c1.417,1.09,2.406,2.498,2.831,4.386c1.134-2.528,2.793-4.431,5.307-5.517c2.522-1.09,5.063-1.132,7.609-0.164
			c2.473,0.941,4.272,2.669,5.389,5.05c1.117,2.38,1.187,4.866,0.403,7.404c0.224,0.021,0.365,0.047,0.506,0.047
			c1.45,0.001,2.9,0.001,4.351-0.008c0.388-0.003,0.837,0.05,1.038-0.383c0.187-0.403-0.047-0.758-0.275-1.086
			c-1.107-1.599-2.171-3.229-3.332-4.788c-1.619-2.173-0.711-5.476,2.366-6.225c0.258-0.063,0.535-0.059,0.803-0.06
			c2.631-0.005,5.263-0.006,7.895-0.003c0.19,0,0.381,0.032,0.571,0.049c-0.005,0.044-0.01,0.087-0.015,0.131
			c-0.559,0.112-1.133,0.176-1.674,0.345c-1.742,0.546-2.929,2.448-2.723,4.262c0.159,1.401,0.897,2.502,1.75,3.564
			c0.854,1.062,1.754,2.094,2.356,3.337c1.118,2.308,0.143,4.866-1.861,6.116c-0.844,0.526-1.775,0.757-2.771,0.755
			c-3.066-0.006-6.133-0.002-9.2-0.002c-0.185,0-0.369,0-0.642,0c0-1.344,0-2.651,0-3.958c-2.361,3.223-5.432,4.908-9.403,4.572
			c-3.953-0.335-6.663-2.53-8.414-6.048c0,1.774,0,3.548,0,5.431c-2.042,0.008-4.037,0.001-6.106,0.004
			c-0.026-0.327-0.066-0.606-0.067-0.885c-0.005-3.212-0.036-6.424,0.013-9.635c0.017-1.104-0.538-1.753-1.803-1.755
			c-1.098-0.002-2.196-0.001-3.294,0.001c-0.183,0-0.365,0.017-0.642,0.032c0,2.049,0,4.072,0,6.095c0,2.023,0,4.047,0,6.109
			c-2.055,0-4.032,0-6.078,0c0-2.276,0-4.525,0-6.828c-3.064,0-6.086,0-9.102,0l-0.5,1.212c0.082,0.005,0.16,0.017,0.243,0.017
			c2.777-0.016,5.553-0.004,8.33-0.003c0.141,0,0.282,0,0.434,0c-0.613,2.5-3.688,5.754-7.89,6.23
			c-1.256,0.142-2.467,0.059-3.6-0.215l-0.415,1.008c1.115,0.301,2.288,0.43,3.532,0.343c3.13-0.219,5.712-1.576,7.784-3.948
			c0.032,0.026,0.064,0.052,0.096,0.078c0,1.049,0,2.098,0,3.185c2.779,0,5.501,0,8.298,0c0-4.081,0-8.128,0-12.205
			c0.633,0,1.191-0.021,1.748,0.006c0.563,0.027,1.15-0.138,1.769,0.177c0,4.002,0,8.008,0,12.003
			c1.177,0.139,7.889,0.084,8.385-0.084c0-0.861,0-1.749,0-2.738c2.167,2.189,4.654,3.406,7.626,3.549
			c2.987,0.143,5.582-0.871,7.947-2.858c0,0.807,0,1.462,0,2.152c0.231,0.014,0.413,0.035,0.594,0.035
			c3.544,0.002,7.088,0.003,10.632-0.002c0.289,0,0.579-0.031,0.865-0.074C104.806,69.681,107.149,65.497,105.477,62.051z
			 M95.343,62.162c-1.061,0.225-2.059,0.074-3.121,0.117c0.256-1.464,0.323-2.871,0.01-4.292
			C92.739,58.215,93.856,59.718,95.343,62.162z"/>
		<path fill="#CB1F4C" d="M42.061,62.522c0.197,0.157,0.38,0.338,0.594,0.468c0.595,0.361,1.229,0.578,1.928,0.618l0.5-1.212
			c-0.984,0-1.971,0-2.954,0C42.106,62.438,42.083,62.48,42.061,62.522z"/>
		<path fill="#BC194B" d="M35.054,62.958c-1.462-4.749,0.729-9.768,5.188-11.887c2.691-1.278,5.458-1.319,8.179-0.151
			c0.405,0.174,0.783,0.374,1.147,0.588l0.399-0.969c-3.979-2.357-8.161-2.043-12.624,1.004c0.437-0.655,0.845-1.267,1.288-1.93
			c-3.399,0-6.726,0-10.037,0c-0.767,1.087-1.513,2.142-2.302,3.261c-0.805-1.156-1.546-2.221-2.259-3.246
			c-3.364,0-6.666,0-10.057,0c2.44,3.598,4.829,7.12,7.215,10.637c-2.306,3.348-4.58,6.649-6.93,10.06c3.52,0,6.875,0,10.26,0
			c0.581-0.836,1.167-1.679,1.799-2.589c0.481,0.738,0.92,1.404,1.351,2.075c0.228,0.355,0.508,0.517,0.963,0.514
			c3.025-0.022,6.051-0.011,9.077-0.012c0.161,0,0.321-0.019,0.581-0.036c-0.269-0.399-0.495-0.736-0.722-1.072
			c-0.222-0.329-0.444-0.657-0.667-0.985c0.032-0.026,0.064-0.051,0.097-0.077c1.44,1.186,2.994,2.048,4.685,2.504l0.415-1.008
			C38.75,68.826,36.092,66.331,35.054,62.958z"/>
		<path fill="#CB1F4C" d="M28.638,69.233c-0.749-1.109-1.497-2.218-2.309-3.421c-0.822,1.177-1.598,2.288-2.389,3.419
			c-2.485,0-4.966,0-7.578,0c2.031-3.031,4.113-5.939,6.144-8.978c-2.122-3.129-4.238-6.25-6.408-9.45
			c0.243-0.046,0.373-0.091,0.502-0.091c2.134-0.005,4.268,0.005,6.401-0.014c0.363-0.003,0.567,0.135,0.755,0.416
			c0.68,1.013,1.375,2.017,2.067,3.022c0.127,0.186,0.264,0.366,0.469,0.648c0.331-0.465,0.606-0.846,0.875-1.232
			c0.556-0.798,1.117-1.592,1.658-2.4c0.216-0.324,0.468-0.454,0.872-0.45c2.009,0.021,4.019,0.006,6.028,0.007
			c0.218,0,0.437,0.021,0.819,0.041c-2.18,3.223-4.281,6.328-6.44,9.52c2.03,2.952,4.071,5.919,6.165,8.964
			C33.647,69.233,31.149,69.233,28.638,69.233z"/>
		<path fill="#E23067" d="M34.247,64.139c-0.041,0.018-0.081,0.035-0.122,0.053c-0.893-1.295-1.785-2.59-2.711-3.934
			c0.813-1.195,1.602-2.354,2.393-3.512c0.033-0.048,0.087-0.08,0.242-0.218c-0.351,1.369-0.605,2.628-0.534,3.925
			C33.584,61.713,33.867,62.934,34.247,64.139z"/>
		<path fill="#FFFFFF" d="M45.7,69.852c4.202-0.476,7.277-3.731,7.89-6.23c-0.152,0-0.293,0-0.434,0
			c-2.776-0.001-5.553-0.013-8.33,0.003c-0.083,0-0.162-0.012-0.243-0.017L42.1,69.637C43.232,69.911,44.444,69.994,45.7,69.852z"/>
		<path fill="#FFFFFF" d="M47.596,58.288c-0.274,0-0.547,0-0.821,0l-1.692,4.108c3.015,0,6.038,0,9.102,0c0,2.303,0,4.552,0,6.828
			c2.046,0,4.023,0,6.078,0c0-2.062,0-4.085,0-6.109c0-2.023,0-4.046,0-6.095c0.277-0.014,0.459-0.031,0.642-0.032
			c1.098-0.003,2.197-0.003,3.294-0.001c1.265,0.003,1.819,0.651,1.803,1.755c-0.049,3.211-0.018,6.423-0.013,9.635
			c0,0.279,0.041,0.557,0.067,0.885c2.069-0.003,4.065,0.004,6.106-0.004c0-1.883,0-3.657,0-5.431
			c1.751,3.518,4.461,5.713,8.414,6.048c3.972,0.337,7.042-1.349,9.403-4.572c0,1.307,0,2.615,0,3.958c0.273,0,0.458,0,0.642,0
			c3.066,0,6.133-0.004,9.2,0.002c0.997,0.002,1.928-0.229,2.771-0.755c2.004-1.25,2.979-3.809,1.861-6.116
			c-0.602-1.243-1.503-2.275-2.356-3.337c-0.853-1.062-1.59-2.163-1.75-3.564c-0.206-1.814,0.981-3.716,2.723-4.262
			c0.541-0.17,1.115-0.233,1.674-0.345c0.005-0.044,0.01-0.087,0.015-0.131c-0.19-0.017-0.381-0.049-0.571-0.049
			c-2.632-0.002-5.263-0.002-7.895,0.003c-0.268,0-0.545-0.003-0.803,0.06c-3.078,0.75-3.985,4.052-2.366,6.225
			c1.161,1.558,2.225,3.189,3.332,4.788c0.228,0.329,0.462,0.683,0.275,1.086c-0.201,0.433-0.65,0.38-1.038,0.383
			c-1.451,0.01-2.901,0.009-4.351,0.008c-0.142,0-0.283-0.025-0.506-0.047c0.784-2.537,0.713-5.024-0.403-7.404
			c-1.117-2.381-2.916-4.109-5.389-5.05c-2.545-0.968-5.087-0.926-7.609,0.164c-2.513,1.086-4.173,2.989-5.307,5.517
			c-0.425-1.888-1.413-3.296-2.831-4.386c-1.155-0.888-2.463-1.373-3.97-1.356c-3.439,0.039-6.879,0.011-10.318,0.01
			c-0.242,0-0.483,0-0.779,0c-0.026,0.347-0.062,0.61-0.063,0.873c-0.005,1.595,0.001,3.191-0.005,4.786
			c-0.001,0.189-0.058,0.378-0.089,0.566c-0.046,0.014-0.092,0.028-0.138,0.042c-0.84-2.389-2.283-4.245-4.365-5.465l-2.476,6.01
			C47.309,57.749,47.485,58.007,47.596,58.288z M81.38,56.422c1.828-0.036,3.667,1.565,3.611,3.565
			c-0.015,2.062-1.558,3.652-3.629,3.601c-2.056-0.05-3.492-1.53-3.5-3.559C77.851,57.62,79.837,56.452,81.38,56.422z"/>
		<path fill="#E6E6E6" d="M40.242,51.071c-4.459,2.119-6.649,7.138-5.188,11.887c1.038,3.373,3.696,5.868,7.045,6.679l2.483-6.029
			c-0.699-0.04-1.333-0.257-1.928-0.618c-0.214-0.13-0.397-0.311-0.594-0.468c0.022-0.042,0.045-0.084,0.067-0.126
			c0.983,0,1.97,0,2.954,0l1.692-4.108c-1.732,0-3.46,0-5.222,0c0.496-1.211,2.04-1.903,3.158-1.849
			c0.895,0.043,1.797,0.457,2.381,1.079l2.476-6.01c-0.365-0.214-0.743-0.414-1.147-0.588
			C45.699,49.752,42.933,49.793,40.242,51.071z"/>
		<path fill="#F2F2F2" d="M36.544,50.749c-0.382-0.02-0.601-0.041-0.819-0.041c-2.009-0.001-4.019,0.013-6.028-0.007
			c-0.403-0.004-0.655,0.127-0.872,0.45c-0.541,0.808-1.102,1.602-1.658,2.4c-0.269,0.386-0.543,0.767-0.875,1.232
			c-0.205-0.283-0.342-0.462-0.469-0.648c-0.692-1.006-1.388-2.009-2.067-3.022c-0.188-0.281-0.393-0.419-0.755-0.416
			c-2.133,0.019-4.267,0.009-6.401,0.014c-0.129,0-0.259,0.045-0.502,0.091c2.17,3.2,4.287,6.322,6.408,9.45
			c-2.031,3.039-4.113,5.947-6.144,8.978c2.612,0,5.092,0,7.578,0c0.791-1.131,1.566-2.241,2.389-3.419
			c0.812,1.203,1.56,2.312,2.309,3.421c2.512,0,5.01,0,7.631,0c-2.094-3.044-4.134-6.011-6.165-8.964
			C32.264,57.076,34.364,53.971,36.544,50.749z"/>
		<path fill="#CB1F4C" d="M81.362,63.587c2.071,0.051,3.614-1.539,3.629-3.601c0.056-2-1.783-3.601-3.611-3.565
			c-1.543,0.031-3.529,1.198-3.519,3.607C77.87,62.057,79.306,63.537,81.362,63.587z M81.475,57.527
			c1.372,0.019,2.419,1.088,2.413,2.465c-0.006,1.425-1.053,2.48-2.461,2.478c-1.4-0.002-2.451-1.072-2.451-2.497
			C78.976,58.572,80.063,57.507,81.475,57.527z"/>
		<path fill="#CB1F4C" d="M47.092,57.518l-0.317,0.77c0.274,0,0.547,0,0.821,0C47.485,58.007,47.309,57.749,47.092,57.518z"/>
		<path fill="#CB1F4C" d="M44.71,56.439c-1.119-0.054-2.663,0.638-3.158,1.849c1.762,0,3.49,0,5.222,0l0.317-0.77
			C46.508,56.896,45.605,56.482,44.71,56.439z"/>
	</g>
	<path fill="#CB1F4C" d="M47.092,57.518l-0.317,0.77c0.274,0,0.547,0,0.821,0C47.485,58.007,47.309,57.749,47.092,57.518z"/>
	<path fill="#E5336A" d="M33.807,56.746c-0.791,1.158-1.579,2.317-2.393,3.512c0.926,1.344,1.819,2.639,2.711,3.934
		c0.041-0.018,0.081-0.035,0.122-0.053c-0.38-1.204-0.662-2.426-0.732-3.687c-0.072-1.297,0.183-2.556,0.534-3.925
		C33.894,56.665,33.839,56.698,33.807,56.746z"/>
	<path fill="#CB1F4C" d="M14.261,70.323c2.35-3.411,4.623-6.712,6.929-10.06c-2.385-3.517-4.775-7.039-7.215-10.637
		c3.391,0,6.693,0,10.057,0c0.713,1.025,1.454,2.09,2.259,3.246c0.79-1.119,1.535-2.174,2.303-3.261c3.311,0,6.637,0,10.037,0
		c-0.443,0.664-0.851,1.276-1.288,1.93c5.641-3.851,10.836-3.355,15.734,1.412c0-0.572,0-1.117,0-1.662c0-0.537,0-1.075,0-1.716
		c0.421,0,0.807-0.001,1.193,0c3.71,0.006,7.419,0.021,11.129,0.015c2.307-0.004,4.149,0.986,5.691,2.618
		c0.436,0.462,0.805,0.987,1.235,1.521c0.15-0.183,0.303-0.368,0.454-0.555c1.909-2.37,4.381-3.741,7.391-4.129
		c0.417-0.054,0.855,0.079,1.281,0.064c4.224-0.147,7.245,1.851,9.466,5.285c0.056,0.086,0.114,0.172,0.175,0.255
		c0.008,0.012,0.037,0.008,0.096,0.019c0.026-0.255,0.037-0.512,0.08-0.763c0.421-2.474,2.344-4.248,4.891-4.306
		c3.19-0.072,6.382-0.007,9.574,0c0.06,0,0.12,0.024,0.218,0.045c0,0.777,0,1.557,0,2.443c-0.454,0-0.92,0-1.386,0
		c-1.648,0.001-2.799,0.942-3.11,2.548c-0.163,0.843,0.081,1.627,0.516,2.312c0.542,0.853,1.213,1.623,1.792,2.455
		c0.601,0.864,1.261,1.708,1.716,2.648c1.672,3.445-0.671,7.63-4.517,8.21c-0.286,0.043-0.577,0.074-0.865,0.074
		c-3.544,0.005-7.088,0.004-10.632,0.002c-0.181,0-0.363-0.021-0.594-0.035c0-0.69,0-1.345,0-2.152
		c-2.365,1.987-4.959,3.001-7.947,2.858c-2.972-0.143-5.459-1.36-7.626-3.549c0,0.99,0,1.878,0,2.738
		c-0.495,0.168-7.208,0.224-8.385,0.084c0-3.995,0-8.001,0-12.003c-0.619-0.315-1.205-0.149-1.769-0.177
		c-0.556-0.027-1.115-0.006-1.748-0.006c0,4.077,0,8.125,0,12.205c-2.797,0-5.519,0-8.298,0c0-1.086,0-2.135,0-3.185
		c-0.032-0.026-0.064-0.052-0.096-0.078c-2.072,2.372-4.654,3.729-7.784,3.948c-3.132,0.219-5.827-0.879-8.217-2.846
		c-0.032,0.026-0.064,0.051-0.097,0.077c0.222,0.328,0.445,0.656,0.667,0.985c0.227,0.336,0.454,0.673,0.722,1.072
		c-0.26,0.017-0.421,0.036-0.581,0.036c-3.026,0.001-6.052-0.011-9.077,0.012c-0.455,0.003-0.735-0.159-0.963-0.514
		c-0.431-0.671-0.87-1.338-1.351-2.075c-0.633,0.911-1.218,1.754-1.799,2.589C21.136,70.323,17.78,70.323,14.261,70.323z
		 M104.744,50.884c0.005-0.044,0.01-0.087,0.015-0.131c-0.19-0.017-0.381-0.049-0.571-0.049c-2.631-0.002-5.263-0.002-7.894,0.003
		c-0.268,0.001-0.546-0.003-0.803,0.06c-3.078,0.75-3.985,4.053-2.366,6.225c1.161,1.558,2.225,3.189,3.332,4.788
		c0.228,0.329,0.462,0.683,0.275,1.086c-0.201,0.433-0.65,0.38-1.038,0.383c-1.45,0.01-2.901,0.009-4.351,0.008
		c-0.141,0-0.283-0.025-0.506-0.047c0.784-2.537,0.713-5.024-0.403-7.404c-1.117-2.381-2.916-4.109-5.389-5.05
		c-2.545-0.968-5.087-0.926-7.609,0.164c-2.513,1.086-4.173,2.989-5.306,5.517c-0.425-1.888-1.413-3.296-2.831-4.386
		c-1.155-0.888-2.464-1.373-3.97-1.356c-3.439,0.039-6.879,0.011-10.319,0.01c-0.242,0-0.483,0-0.779,0
		c-0.026,0.347-0.062,0.61-0.063,0.873c-0.005,1.595,0.001,3.191-0.005,4.786c-0.001,0.189-0.058,0.378-0.088,0.566
		c-0.046,0.014-0.092,0.028-0.138,0.042c-0.987-2.807-2.798-4.887-5.513-6.052c-2.721-1.168-5.488-1.127-8.179,0.151
		c-4.459,2.119-6.649,7.138-5.188,11.887c1.389,4.514,5.677,7.457,10.645,6.894c4.202-0.476,7.277-3.731,7.89-6.23
		c-0.152,0-0.293,0-0.434,0c-2.777-0.001-5.553-0.013-8.33,0.003c-0.798,0.005-1.506-0.232-2.171-0.635
		c-0.214-0.13-0.397-0.311-0.594-0.468c0.022-0.042,0.045-0.084,0.067-0.126c3.996,0,7.991,0,12.056,0c0,2.303,0,4.552,0,6.828
		c2.046,0,4.023,0,6.077,0c0-2.062,0-4.085,0-6.109c0-2.023,0-4.046,0-6.095c0.277-0.014,0.46-0.031,0.642-0.032
		c1.098-0.003,2.196-0.003,3.295-0.001c1.265,0.003,1.819,0.651,1.802,1.755c-0.049,3.211-0.018,6.423-0.013,9.635
		c0,0.279,0.041,0.557,0.067,0.885c2.069-0.003,4.065,0.004,6.106-0.004c0-1.883,0-3.657,0-5.431
		c1.751,3.518,4.461,5.713,8.414,6.048c3.972,0.337,7.042-1.349,9.403-4.572c0,1.307,0,2.615,0,3.958c0.274,0,0.458,0,0.642,0
		c3.067,0,6.133-0.004,9.2,0.002c0.996,0.002,1.928-0.229,2.772-0.755c2.004-1.25,2.979-3.809,1.861-6.116
		c-0.602-1.243-1.503-2.275-2.356-3.337c-0.853-1.062-1.591-2.163-1.75-3.564c-0.206-1.814,0.981-3.716,2.723-4.262
		C103.611,51.06,104.185,50.996,104.744,50.884z M26.294,54.783c-0.205-0.283-0.342-0.462-0.47-0.648
		c-0.692-1.006-1.387-2.009-2.067-3.022c-0.188-0.281-0.392-0.419-0.755-0.416c-2.133,0.019-4.267,0.009-6.401,0.014
		c-0.129,0-0.259,0.045-0.502,0.091c2.17,3.2,4.286,6.322,6.408,9.45c-2.031,3.039-4.113,5.947-6.144,8.978c2.612,0,5.092,0,7.578,0
		c0.79-1.131,1.566-2.241,2.389-3.419c0.812,1.203,1.56,2.312,2.308,3.421c2.512,0,5.01,0,7.631,0
		c-2.094-3.044-4.134-6.011-6.165-8.964c2.16-3.193,4.26-6.298,6.44-9.52c-0.382-0.02-0.601-0.041-0.819-0.041
		c-2.009-0.001-4.019,0.013-6.028-0.007c-0.403-0.004-0.655,0.127-0.872,0.45c-0.541,0.808-1.102,1.602-1.657,2.4
		C26.899,53.936,26.624,54.317,26.294,54.783z M31.414,60.258c0.926,1.344,1.819,2.639,2.711,3.934
		c0.041-0.018,0.081-0.035,0.122-0.053c-0.38-1.204-0.662-2.426-0.732-3.687c-0.071-1.297,0.183-2.556,0.534-3.925
		c-0.155,0.138-0.209,0.171-0.242,0.218C33.016,57.903,32.227,59.063,31.414,60.258z M95.343,62.162
		c-1.487-2.445-2.604-3.947-3.111-4.175c0.313,1.421,0.247,2.827-0.009,4.292C93.284,62.236,94.282,62.387,95.343,62.162z"/>
	<path fill="#E6E6E6" d="M26.294,54.783c0.331-0.465,0.606-0.847,0.874-1.232c0.556-0.798,1.117-1.592,1.657-2.4
		c0.217-0.324,0.469-0.454,0.872-0.45c2.009,0.021,4.019,0.006,6.028,0.007c0.218,0,0.437,0.021,0.819,0.041
		c-2.18,3.223-4.281,6.328-6.44,9.52c2.03,2.952,4.071,5.919,6.165,8.964c-2.621,0-5.119,0-7.631,0
		c-0.748-1.109-1.497-2.218-2.308-3.421c-0.822,1.177-1.598,2.288-2.389,3.419c-2.486,0-4.966,0-7.578,0
		c2.031-3.031,4.113-5.939,6.144-8.978c-2.121-3.129-4.238-6.25-6.408-9.45c0.243-0.046,0.372-0.091,0.502-0.091
		c2.134-0.005,4.267,0.005,6.401-0.014c0.363-0.003,0.567,0.135,0.755,0.416c0.68,1.013,1.376,2.017,2.067,3.022
		C25.952,54.32,26.088,54.5,26.294,54.783z"/>
	<path fill="#CB1F4C" d="M41.552,58.288c0.496-1.211,2.04-1.903,3.158-1.849c1.227,0.06,2.476,0.81,2.885,1.849
		C45.587,58.288,43.593,58.288,41.552,58.288z"/>
</g>
</svg>
