<?xml version="1.0" encoding="utf-8"?>
<!-- Generator: Adobe Illustrator 17.1.0, SVG Export Plug-In . SVG Version: 6.00 Build 0)  -->
<!DOCTYPE svg PUBLIC "-//W3C//DTD SVG 1.1//EN" "http://www.w3.org/Graphics/SVG/1.1/DTD/svg11.dtd" [
	<!ENTITY ns_flows "http://ns.adobe.com/Flows/1.0/">
	<!ENTITY ns_extend "http://ns.adobe.com/Extensibility/1.0/">
	<!ENTITY ns_ai "http://ns.adobe.com/AdobeIllustrator/10.0/">
	<!ENTITY ns_graphs "http://ns.adobe.com/Graphs/1.0/">
]>
<svg version="1.1" id="Layer_1" xmlns:x="&ns_extend;" xmlns:i="&ns_ai;" xmlns:graph="&ns_graphs;"
	 xmlns="http://www.w3.org/2000/svg" xmlns:xlink="http://www.w3.org/1999/xlink" xmlns:a="http://ns.adobe.com/AdobeSVGViewerExtensions/3.0/"
	 x="0px" y="0px" viewBox="0 0 120 120" enable-background="new 0 0 120 120" xml:space="preserve">
<path fill="#FFDA24" d="M0.71,69.242c-0.02-0.127-0.035-0.255-0.054-0.382C0.675,68.987,0.69,69.115,0.71,69.242z"/>
<path fill="#FFDA24" d="M0.096,63.328c-0.01-0.188-0.018-0.376-0.026-0.565C0.078,62.951,0.086,63.14,0.096,63.328z"/>
<path fill="#FFDA24" d="M0.352,66.465c-0.018-0.168-0.039-0.335-0.055-0.503C0.313,66.13,0.334,66.297,0.352,66.465z"/>
<path fill="#FFDA24" d="M1.295,72.42c-0.045-0.216-0.09-0.432-0.133-0.648C1.205,71.988,1.249,72.204,1.295,72.42z"/>
<path fill="#FFDA24" d="M1.989,75.346c-0.042-0.159-0.088-0.316-0.129-0.476C1.901,75.03,1.947,75.187,1.989,75.346z"/>
<path fill="#FFDA24" d="M67.975,0.544c0.815,0.11,1.626,0.233,2.431,0.374C69.601,0.777,68.791,0.652,67.975,0.544z"/>
<path fill="#FFDA24" d="M62.808,0.071c0.56,0.027,1.115,0.07,1.671,0.113C63.923,0.143,63.369,0.097,62.808,0.071z"/>
<path fill="#FFDA24" d="M60,0C60,0,60,0,60,0C34.112,0,12.053,16.396,3.641,39.37C12.053,16.396,34.112,0,60,0z"/>
<path fill="#FFDA24" d="M65.457,0.258c0.734,0.068,1.464,0.15,2.19,0.244C66.92,0.409,66.192,0.325,65.457,0.258z"/>
<path fill="#FFDA24" d="M22.771,107.035c-1.31-1.038-2.577-2.13-3.795-3.272C20.194,104.906,21.461,105.996,22.771,107.035z"/>
<path fill="#FFDA24" d="M2.777,78.077c-0.07-0.22-0.134-0.442-0.201-0.663C2.643,77.635,2.708,77.857,2.777,78.077z"/>
<path fill="#FFDA24" d="M12.575,96.733c-0.44-0.567-0.87-1.143-1.29-1.727C11.705,95.59,12.135,96.165,12.575,96.733z"/>
<path fill="#FFDA24" d="M10.639,94.097c-0.247-0.356-0.49-0.716-0.73-1.078C10.148,93.382,10.392,93.741,10.639,94.097z"/>
<path fill="#FFDA24" d="M16.651,101.458c0.654,0.684,1.324,1.351,2.009,2.004C17.974,102.81,17.305,102.142,16.651,101.458z"/>
<path fill="#FFDA24" d="M16.236,101.023c-1.084-1.156-2.122-2.355-3.113-3.594C14.113,98.669,15.152,99.867,16.236,101.023z"/>
<path fill="#FFDA24" d="M4.917,83.802c-0.128-0.296-0.254-0.594-0.378-0.893C4.663,83.208,4.789,83.505,4.917,83.802z"/>
<path fill="#FFDA24" d="M6.117,86.404c-0.147-0.299-0.289-0.601-0.432-0.902C5.828,85.803,5.97,86.105,6.117,86.404z"/>
<path fill="#FFDA24" d="M9.108,91.77c-0.279-0.446-0.552-0.896-0.819-1.35C8.556,90.874,8.829,91.324,9.108,91.77z"/>
<path fill="#FFDA24" d="M7.602,89.227c-0.175-0.313-0.352-0.626-0.522-0.943C7.25,88.601,7.427,88.913,7.602,89.227z"/>
<path fill="#FFDA24" d="M3.821,81.086c-0.097-0.259-0.195-0.517-0.289-0.778C3.626,80.569,3.723,80.827,3.821,81.086z"/>
<path fill="#FFDA24" d="M76.887,54.016v1.879c0.245-0.056,0.492-0.13,0.669-0.234c0.591-0.333,0.878-0.925,0.913-1.565
	c-0.305-0.079-0.638-0.131-1.019-0.131C77.237,53.965,77.103,54.016,76.887,54.016z"/>
<path fill="#FFDA24" d="M77.393,60.484C77.247,60.48,77,60.486,77,60.5v4.045c0-0.102,0.572-0.305,0.924-0.629
	c0.615-0.563,0.834-1.374,0.834-2.283c0-0.231-0.04-0.45-0.073-0.665c-0.021-0.047-0.008-0.1-0.03-0.145
	C78.223,60.588,77.833,60.493,77.393,60.484z"/>
<path fill="#FFDA24" d="M95.401,60.89c0,1.539,0.064,2.832,0.232,3.946c0.154,0.088,0.321,0.1,0.503,0.1
	c1.278,0,1.873-1.995,1.873-6.545c0-1.94-0.109-3.392-0.33-4.392h-0.05C95.838,54,95.401,56.786,95.401,60.89z"/>
<path fill="#FFDA24" d="M70.407,0.918L50.189,50h1.243l0.985,2.12l0.272,0.279l1.969,4.234L58.094,50H66v1.558l1,0.839V69h-7.568
	L58,67.563v-4.94L54.901,69h-2.389l-1.468-1.481L48,61.001V69h-3.077L43,67.563V67h0.186l-17.412,42.269
	c-0.915-0.637-1.809-1.3-2.686-1.986C33.269,115.243,46.075,120,60,120c33.137,0,60-26.863,60-60
	C120,30.415,98.581,5.848,70.407,0.918z M77.73,69h-8.254L68,67.59V51l0,0v-1h8.219c3.514,0,8.139,0.223,8.405,3.872l0.271,0.278
	c0.566,0.582,0.875,1.345,0.875,2.33c0,1.023-0.263,1.891-1.053,2.493c0.289,0.544,0.426,1.155,0.482,1.792l0.137,0.138
	c0.906,0.842,1.04,1.969,1.032,3.228C86.358,67.195,83.776,69,77.73,69z M97.629,69.438c-2.962,0-5.613-1.143-7.429-2.958
	l-1.43-1.471c-0.996-0.986-1.74-2.169-2.149-3.472c-0.459-1.026-0.719-2.139-0.719-3.306c0-4.99,4.593-9.05,10.238-9.05
	c4.939,0,9.072,3.106,10.031,7.224c0.844,1.279,1.334,2.759,1.334,4.346C107.504,65.548,103.083,69.438,97.629,69.438z"/>
<path fill="#D5B129" d="M77,64.545V60.5c0-0.014,0.247-0.019,0.393-0.016c0.44,0.01,0.822,0.105,1.254,0.339
	c0.023,0.046,0.017,0.099,0.037,0.145c-0.125-0.818-0.485-1.519-1.107-2.007C77.01,58.508,76,58.315,76,58.315v6.307
	C76.378,64.632,77,64.607,77,64.545z"/>
<polygon fill="#D5B129" points="54.658,56.634 52.689,52.4 52.417,52.12 54.582,56.781 "/>
<polygon fill="#D5B129" points="58,67 58,58.554 53.642,67 50.803,67 47,58.432 47,67 43,67 43,67.563 44.923,69 48,69 48,61.001 
	51.044,67.519 52.511,69 54.901,69 58,62.622 58,67.563 59.432,69 67,69 67,52.397 66,51.558 66,67 "/>
<path fill="#D5B129" d="M82.537,57.235c1.129,0.386,1.791,1.003,2.182,1.739c0.789-0.602,1.053-1.47,1.053-2.493
	c0-0.985-0.31-1.748-0.875-2.33l-0.271-0.278c0.008,0.109,0.026,0.211,0.026,0.326C84.65,55.845,83.971,56.675,82.537,57.235z"/>
<polygon fill="#D5B129" points="76,57.986 76,58 76.002,58 "/>
<path fill="#D5B129" d="M77,54.016c0,0,0.293-0.051,0.507-0.051c0.381,0,0.686,0.052,0.991,0.131c0.002-0.043,0-0.083,0-0.126
	c0-1.396-0.82-2.164-2.406-2.164c-0.077,0-0.091,0.008-0.091,0.017v4.229c0-0.019,0-0.055,1-0.156V54.016z"/>
<path fill="#D5B129" d="M95.634,64.765c-0.169-1.114-0.232-2.336-0.232-3.875c0-4.104,0.437-6.89,2.228-6.89h0.05
	c-0.3-2-0.808-2.313-1.542-2.313c-1.274,0-1.868,2.053-1.868,6.615C94.27,62.203,94.707,64.24,95.634,64.765z"/>
<path fill="#D5B129" d="M106.17,56.404c0.137,0.59,0.21,1.201,0.21,1.827c0,4.984-4.594,9.04-10.241,9.04
	c-4.323,0-8.02-2.381-9.519-5.733c0.409,1.302,1.153,2.486,2.149,3.472l1.43,1.471c1.816,1.815,4.467,2.958,7.429,2.958
	c5.454,0,9.875-3.889,9.875-8.687C107.504,59.164,107.014,57.683,106.17,56.404z"/>
<path fill="#D5B129" d="M85.2,60.766c0.027,0.305,0.042,0.614,0.039,0.926C85.236,65.198,82.21,67,76.249,67H68V51l0,0v16.59
	L69.477,69h8.254c6.046,0,8.628-1.805,8.639-4.868c0.008-1.259-0.125-2.414-1.032-3.256L85.2,60.766z"/>
<path fill="#FFFFFF" d="M83.46,52.732l1.165,1.168C84.358,50.25,79.733,50,76.219,50H68v1h8.219
	C79.418,51,82.146,51.324,83.46,52.732z"/>
<path fill="#FFFFFF" d="M83.891,59.452l1.31,1.314c-0.056-0.637-0.193-1.248-0.482-1.792c-0.23,0.176-0.5,0.332-0.828,0.459V59.452z
	"/>
<path fill="#FFFFFF" d="M77.613,55.661C77.436,55.765,77,55.839,77,55.895v1.364c0-0.063,0.419-0.153,0.647-0.288
	c0.745-0.42,1.168-1.201,1.168-2.001c0-0.292-0.04-0.572-0.119-0.824c-0.065-0.022-0.121-0.032-0.191-0.05
	C78.47,54.736,78.204,55.327,77.613,55.661z"/>
<path fill="#FFFFFF" d="M77.924,63.917C77.572,64.24,77,64.443,77,64.545v1.294c0-0.127,0.669-0.336,1.018-0.657
	c0.681-0.623,1.038-1.527,1.038-2.548c0-0.609-0.147-1.161-0.372-1.665c0.033,0.215,0.08,0.434,0.08,0.665
	C78.765,62.542,78.539,63.354,77.924,63.917z"/>
<path fill="#FFFFFF" d="M76.249,67c5.962,0,8.987-1.802,8.991-5.308c0.002-0.312,0.042-0.621,0.015-0.926L84,59.452v-0.019
	c0-0.127,0.542-0.283,0.773-0.459c-0.391-0.737-1.08-1.354-2.209-1.739c1.434-0.56,2.1-1.389,2.1-3.036
	c0-0.115-0.024-0.217-0.032-0.326l-1.168-1.141C82.149,51.324,79.418,51,76.219,51H68v16H76.249z M76,51.823
	c0-0.009,0.007-0.017,0.084-0.017c1.586,0,2.399,0.768,2.399,2.164c0,0.043-0.012,0.084-0.014,0.126
	c0.069,0.018,0.146,0.028,0.212,0.05c0.079,0.252,0.105,0.532,0.105,0.824c0,0.801-0.394,1.582-1.14,2.001
	C77.419,57.106,77,57.196,77,57.259v-1.364c-1,0.101-1,0.137-1,0.156V51.823z M76,58v-0.014L76.002,58C76.002,58,76,58,76,58v0.315
	c0,0,1.003,0.193,1.571,0.646c0.621,0.488,0.975,1.189,1.1,2.007c0.225,0.504,0.358,1.056,0.358,1.665
	c0,1.022-0.329,1.925-1.01,2.548C77.669,65.502,77,65.712,77,65.839v-1.294c0,0.062-0.622,0.087-1,0.078v-6.307V58z"/>
<path fill="#FFFFFF" d="M96.137,64.901c-0.182,0-0.349-0.049-0.503-0.136c0.085,0.562,0.195,1.065,0.341,1.485
	c0.055,0.007,0.106,0.011,0.162,0.011c1.779,0,2.233-2.788,2.233-6.888c0-2.316-0.14-4.374-0.585-5.374h-0.106
	c0.222,1,0.33,2.434,0.33,4.374C98.009,62.925,97.415,64.901,96.137,64.901z"/>
<path fill="#FFFFFF" d="M96.136,50.544c3.115,0,5.882,1.263,7.699,3.243l1.099,1.121c0.473,0.456,0.882,0.96,1.236,1.497
	c-0.959-4.118-5.092-7.224-10.031-7.224c-5.646,0-10.238,4.06-10.238,9.05c0,1.168,0.26,2.281,0.719,3.306
	c-0.231-0.735-0.359-1.508-0.359-2.306C86.261,54.435,90.682,50.544,96.136,50.544z"/>
<path fill="#FFFFFF" d="M96.139,67.271c5.647,0,10.241-4.055,10.241-9.04c0-0.626-0.072-1.236-0.21-1.827
	c-0.354-0.536-0.764-1.041-1.236-1.497l-1.099-1.121c-1.817-1.981-4.584-3.243-7.699-3.243c-5.455,0-9.875,3.892-9.875,8.687
	c0,0.799,0.128,1.571,0.359,2.306C88.119,64.889,91.816,67.271,96.139,67.271z M96.137,51.687c0.735,0,1.242,0.313,1.542,2.313
	h0.106c0.444,1,0.585,3.057,0.585,5.374c0,4.1-0.454,6.959-2.233,6.959c-0.056,0-0.107-0.039-0.162-0.047
	c-0.146-0.42-0.256-0.941-0.341-1.503c-0.926-0.525-1.364-2.572-1.365-6.472C94.269,53.749,94.862,51.687,96.137,51.687z"/>
<polygon fill="#FFFFFF" points="43.186,67 43.434,67 43.434,66.399 "/>
<polygon fill="#FFFFFF" points="51.202,51 52.417,52.183 51.432,50 50.189,50 49.828,51 "/>
<polygon fill="#FFFFFF" points="58.314,51 65.334,51 66,51.558 66,50 58.094,50 54.658,56.634 54.976,57.381 "/>
<polygon fill="#FFFFFF" points="49.828,51 43,66.399 43,67 47,67 47,58.432 50.803,67 53.642,67 58,58.554 58,67 66,67 66,51.558 
	65.334,51 58.314,51 54.976,57.381 54.658,56.665 54.582,56.797 52.417,52.191 51.202,51 "/>
<path fill="#E5E3E3"  a:adobe-blending-mode="multiply" d="M8.289,90.42c-0.233-0.395-0.462-0.793-0.686-1.194
	C7.827,89.628,8.055,90.025,8.289,90.42z"/>
<path fill="#E5E3E3"  a:adobe-blending-mode="multiply" d="M7.08,88.284c-0.332-0.62-0.652-1.247-0.963-1.88
	C6.428,87.037,6.748,87.664,7.08,88.284z"/>
<path fill="#E5E3E3"  a:adobe-blending-mode="multiply" d="M4.539,82.909c-0.249-0.603-0.489-1.211-0.719-1.823
	C4.051,81.698,4.29,82.306,4.539,82.909z"/>
<path fill="#E5E3E3"  a:adobe-blending-mode="multiply" d="M3.532,80.308c-0.265-0.737-0.518-1.481-0.755-2.231
	C3.014,78.828,3.267,79.571,3.532,80.308z"/>
<path fill="#E5E3E3"  a:adobe-blending-mode="multiply" d="M5.686,85.501c-0.264-0.562-0.521-1.128-0.768-1.699
	C5.165,84.373,5.421,84.94,5.686,85.501z"/>
<path fill="#E5E3E3"  a:adobe-blending-mode="multiply" d="M18.976,103.763c-0.106-0.1-0.211-0.201-0.316-0.301
	C18.765,103.562,18.87,103.664,18.976,103.763z"/>
<path fill="#E5E3E3"  a:adobe-blending-mode="multiply" d="M16.651,101.458c-0.139-0.145-0.278-0.289-0.415-0.435
	C16.373,101.169,16.512,101.314,16.651,101.458z"/>
<path fill="#E5E3E3"  a:adobe-blending-mode="multiply" d="M9.909,93.02c-0.273-0.413-0.539-0.83-0.801-1.25
	C9.371,92.19,9.636,92.607,9.909,93.02z"/>
<path fill="#E5E3E3"  a:adobe-blending-mode="multiply" d="M23.088,107.284c-0.106-0.083-0.211-0.165-0.317-0.249
	C22.876,107.118,22.982,107.201,23.088,107.284z"/>
<path fill="#E5E3E3"  a:adobe-blending-mode="multiply" d="M13.123,97.43c-0.184-0.231-0.366-0.463-0.548-0.697
	C12.756,96.966,12.938,97.199,13.123,97.43z"/>
<path fill="#E5E3E3"  a:adobe-blending-mode="multiply" d="M11.285,95.006c-0.217-0.302-0.434-0.603-0.646-0.909
	C10.85,94.403,11.068,94.704,11.285,95.006z"/>
<path fill="#E5E3E3"  a:adobe-blending-mode="multiply" d="M0.656,68.86c-0.117-0.793-0.218-1.592-0.304-2.395
	C0.438,67.268,0.539,68.067,0.656,68.86z"/>
<path fill="#E5E3E3"  a:adobe-blending-mode="multiply" d="M0.07,62.763C0.028,61.847,0,60.927,0,60
	C0,60.927,0.028,61.847,0.07,62.763z"/>
<path fill="#E5E3E3"  a:adobe-blending-mode="multiply" d="M2.576,77.414c-0.207-0.684-0.404-1.373-0.587-2.067
	C2.172,76.041,2.368,76.73,2.576,77.414z"/>
<path fill="#E5E3E3"  a:adobe-blending-mode="multiply" d="M60,0C60,0,60,0,60,0c0.942,0,1.877,0.028,2.808,0.071
	C61.878,0.026,60.942,0,60,0z"/>
<path fill="#E5E3E3"  a:adobe-blending-mode="multiply" d="M64.479,0.184c0.326,0.024,0.653,0.045,0.978,0.074
	C65.133,0.228,64.805,0.209,64.479,0.184z"/>
<polygon fill="#E5E3E3"  a:adobe-blending-mode="multiply" points="70.407,0.918 70.406,0.918 70.407,0.918 "/>
<path fill="#E5E3E3"  a:adobe-blending-mode="multiply" d="M1.86,74.871c-0.207-0.81-0.392-1.628-0.566-2.45
	C1.468,73.243,1.654,74.061,1.86,74.871z"/>
<path fill="#E5E3E3"  a:adobe-blending-mode="multiply" d="M0.297,65.962c-0.086-0.873-0.152-1.751-0.2-2.635
	C0.145,64.211,0.21,65.09,0.297,65.962z"/>
<path fill="#E5E3E3"  a:adobe-blending-mode="multiply" d="M1.162,71.772c-0.167-0.838-0.32-1.68-0.452-2.53
	C0.842,70.092,0.995,70.934,1.162,71.772z"/>
<path fill="#E5E3E3"  a:adobe-blending-mode="multiply" d="M67.647,0.502c0.109,0.014,0.219,0.027,0.328,0.042
	C67.866,0.529,67.756,0.516,67.647,0.502z"/>
<path fill="#FFDA24" d="M43.186,67H43V50h7.189L70.407,1c0,0-0.001,0-0.001,0c-0.805,0-1.616-0.305-2.431-0.415
	c-0.109-0.015-0.219-0.048-0.328-0.062c-0.726-0.094-1.456-0.186-2.19-0.254c-0.325-0.029-0.652-0.055-0.978-0.079
	c-0.556-0.042-1.111-0.089-1.671-0.115C61.877,0.031,60.942,0.001,60,0.001c-25.888,0-47.947,16.395-56.359,39.369
	C1.285,45.803,0,52.752,0,60c0,0.927,0.028,1.846,0.07,2.763c0.009,0.188,0.016,0.377,0.026,0.564
	c0.048,0.883,0.114,1.762,0.2,2.635c0.017,0.168,0.037,0.335,0.055,0.503c0.086,0.803,0.187,1.601,0.304,2.395
	c0.019,0.127,0.034,0.255,0.054,0.382c0.131,0.85,0.285,1.692,0.452,2.53c0.043,0.217,0.087,0.433,0.133,0.648
	c0.173,0.823,0.359,1.641,0.566,2.45c0.041,0.159,0.087,0.317,0.129,0.476c0.183,0.694,0.38,1.383,0.587,2.067
	c0.067,0.221,0.132,0.443,0.201,0.663c0.237,0.75,0.49,1.494,0.755,2.231c0.094,0.26,0.191,0.519,0.289,0.778
	c0.23,0.612,0.469,1.22,0.719,1.823c0.124,0.299,0.25,0.597,0.378,0.893c0.247,0.571,0.504,1.138,0.768,1.699
	c0.142,0.302,0.285,0.603,0.432,0.902c0.311,0.633,0.631,1.26,0.963,1.88c0.17,0.317,0.347,0.629,0.522,0.943
	c0.224,0.401,0.453,0.799,0.686,1.194c0.268,0.454,0.54,0.904,0.819,1.35c0.263,0.42,0.529,0.837,0.801,1.25
	c0.239,0.362,0.483,0.721,0.73,1.078c0.212,0.306,0.429,0.607,0.646,0.909c0.42,0.583,0.85,1.159,1.29,1.727
	c0.181,0.233,0.363,0.466,0.548,0.697c0.991,1.239,2.029,2.438,3.113,3.594c0.137,0.146,0.276,0.29,0.415,0.435
	c0.654,0.683,1.324,1.352,2.009,2.004c0.105,0.1,0.21,0.202,0.316,0.301c1.218,1.142,2.485,2.233,3.795,3.272
	c0.105,0.083,0.211,0.166,0.317,0.249c0.877,0.685,1.771,1.349,2.686,1.986L43.186,67z M26,50h8v1.084l1,1.327v12.315
	c0,0.019,0.331,0.047,0.44,0.047c0.566,0,1.042-0.241,1.317-0.738C36.989,63.619,37,63.03,37,62.377V50h4v1.144l1,1.267v11.222
	c0,3.862-1.513,5.827-7.004,5.827c-2.906,0-4.822-0.706-5.958-2.066l-1.158-1.191l-0.136-0.159
	c-0.388-0.419-0.666-0.919-0.881-1.473C26.288,63.644,26,62.49,26,61.097V50z M25,64.656c0,2.949-4.255,4.781-7.887,4.781
	c-1.589,0-2.658-0.307-3.484-0.663c0,0-0.628-1.328-1.628-1.522v-0.58c0-0.029,0.107-0.059,0.038-0.088L12,66.491v-2.633
	l0.548,0.263c0.523,0.264,0.958,0.381,1.351,0.381c1.471,0,2.101-0.62,2.101-1.894V50h8v0.948l1,1.462V64.656z"/>
<path fill="#F2C433" d="M43.186,67H43V50h7.189L70.407,1c0,0-0.001,0-0.001,0c-0.805,0-1.616-0.305-2.431-0.415
	c-0.109-0.015-0.219-0.048-0.328-0.062c-0.726-0.094-1.456-0.186-2.19-0.254c-0.325-0.029-0.652-0.055-0.978-0.079
	c-0.556-0.042-1.111-0.089-1.671-0.115C61.877,0.031,60.942,0.001,60,0.001c-25.888,0-47.947,16.395-56.359,39.369
	C1.285,45.803,0,52.752,0,60c0,0.927,0.028,1.846,0.07,2.763c0.009,0.188,0.016,0.377,0.026,0.564
	c0.048,0.883,0.114,1.762,0.2,2.635c0.017,0.168,0.037,0.335,0.055,0.503c0.086,0.803,0.187,1.601,0.304,2.395
	c0.019,0.127,0.034,0.255,0.054,0.382c0.131,0.85,0.285,1.692,0.452,2.53c0.043,0.217,0.087,0.433,0.133,0.648
	c0.173,0.823,0.359,1.641,0.566,2.45c0.041,0.159,0.087,0.317,0.129,0.476c0.183,0.694,0.38,1.383,0.587,2.067
	c0.067,0.221,0.132,0.443,0.201,0.663c0.237,0.75,0.49,1.494,0.755,2.231c0.094,0.26,0.191,0.519,0.289,0.778
	c0.23,0.612,0.469,1.22,0.719,1.823c0.124,0.299,0.25,0.597,0.378,0.893c0.247,0.571,0.504,1.138,0.768,1.699
	c0.142,0.302,0.285,0.603,0.432,0.902c0.311,0.633,0.631,1.26,0.963,1.88c0.17,0.317,0.347,0.629,0.522,0.943
	c0.224,0.401,0.453,0.799,0.686,1.194c0.268,0.454,0.54,0.904,0.819,1.35c0.263,0.42,0.529,0.837,0.801,1.25
	c0.239,0.362,0.483,0.721,0.73,1.078c0.212,0.306,0.429,0.607,0.646,0.909c0.42,0.583,0.85,1.159,1.29,1.727
	c0.181,0.233,0.363,0.466,0.548,0.697c0.991,1.239,2.029,2.438,3.113,3.594c0.137,0.146,0.276,0.29,0.415,0.435
	c0.654,0.683,1.324,1.352,2.009,2.004c0.105,0.1,0.21,0.202,0.316,0.301c1.218,1.142,2.485,2.233,3.795,3.272
	c0.105,0.083,0.211,0.166,0.317,0.249c0.877,0.685,1.771,1.349,2.686,1.986L43.186,67z M26,50h8v1.084l1,1.327v12.315
	c0,0.019,0.331,0.047,0.44,0.047c0.566,0,1.042-0.241,1.317-0.738C36.989,63.619,37,63.03,37,62.377V50h4v1.144l1,1.267v11.222
	c0,3.862-1.513,5.827-7.004,5.827c-2.906,0-4.822-0.706-5.958-2.066l-1.158-1.191l-0.136-0.159
	c-0.388-0.419-0.666-0.919-0.881-1.473C26.288,63.644,26,62.49,26,61.097V50z M25,64.656c0,2.949-4.255,4.781-7.887,4.781
	c-1.589,0-2.658-0.307-3.484-0.663c0,0-0.628-1.328-1.628-1.522v-0.58c0-0.029,0.107-0.059,0.038-0.088L12,66.491v-2.633
	l0.548,0.263c0.523,0.264,0.958,0.381,1.351,0.381c1.471,0,2.101-0.62,2.101-1.894V50h8v0.948l1,1.462V64.656z"/>
<path fill="#D5B129" d="M33.53,67.306c-3.315,0-5.534-0.921-6.659-2.735c0.216,0.554,0.5,1.054,0.889,1.473l0.151,0.159l1.188,1.191
	c1.137,1.36,2.993,2.066,5.899,2.066c5.491,0,7.004-1.965,7.004-5.827V52.41l-1-1.267v9.953C41,65.507,38.848,67.306,33.53,67.306z"
	/>
<path fill="#D5B129" d="M33.53,67.306c-3.315,0-5.534-0.921-6.659-2.735c0.216,0.554,0.5,1.054,0.889,1.473l0.151,0.159l1.188,1.191
	c1.137,1.36,2.993,2.066,5.899,2.066c5.491,0,7.004-1.965,7.004-5.827V52.41l-1-1.267v9.953C41,65.507,38.848,67.306,33.53,67.306z"
	/>
<path fill="#D5B129" d="M24,62.134c0,3.351-5.047,5.136-8.597,5.136c-1.57,0-2.403-0.294-3.403-0.598v0.58
	c1,0.194,1.736,1.522,1.736,1.522c0.826,0.356,1.663,0.663,3.252,0.663c3.632,0,8.012-1.832,8.012-4.781V52.41l-1-1.462V62.134z"/>
<path fill="#D5B129" d="M24,62.134c0,3.351-5.047,5.136-8.597,5.136c-1.57,0-2.403-0.294-3.403-0.598v0.58
	c1,0.194,1.736,1.522,1.736,1.522c0.826,0.356,1.663,0.663,3.252,0.663c3.632,0,8.012-1.832,8.012-4.781V52.41l-1-1.462V62.134z"/>
<path fill="#D5B129" d="M35,64.725V52.41l-1-1.327v11.303C34,62.906,34,64.492,35,64.725z"/>
<path fill="#D5B129" d="M35,64.725V52.41l-1-1.327v11.303C34,62.906,34,64.492,35,64.725z"/>
<path fill="#FFFFFF" d="M13.972,65.863c1.692,0,3.028-0.803,3.028-2.255V51h6.944L24,50.948V50h-8v12.608
	c0,1.274-0.63,1.894-2.101,1.894c-0.393,0-0.827-0.117-1.351-0.381L12,63.858v2.633l0.038,0.093C12.107,66.614,12,66.643,12,66.673
	v-1.23C13,65.69,13.458,65.863,13.972,65.863z"/>
<path fill="#FFFFFF" d="M24,62.134V50.948L23.944,51H17v12.608c0,1.452-1.336,2.255-3.028,2.255c-0.514,0-0.972-0.173-1.972-0.42
	v1.23c1,0.304,1.833,0.598,3.403,0.598C18.953,67.271,24,65.485,24,62.134z"/>
<path fill="#E6E6E6"  a:adobe-blending-mode="multiply" d="M16,50v12.608c0,1.274-0.63,1.894-2.101,1.894
	c-0.393,0-0.827-0.117-1.351-0.381L12,63.858v1.585v1.049v0.181c1,0.304,1.833,0.598,3.403,0.598c3.549,0,8.597-1.785,8.597-5.136
	V50.948V50H16z"/>
<path fill="#FFFFFF" d="M35.297,66.095c0.105,0.025,0.419,0.035,0.528,0.035c1.55,0,2.174-1.54,2.174-2.753V51h2.753L41,51.144V50
	h-4v12.377c0,0.653,0.063,1.242-0.168,1.657c-0.276,0.497-0.826,0.738-1.392,0.738c-0.109,0-0.44-0.028-0.44-0.047v0.179
	C35,65.293,35.193,65.711,35.297,66.095z"/>
<path fill="#FFFFFF" d="M26,62.097V51h7.811L34,51.084V50h-8v11.097c0,1.393,0.076,2.547,0.651,3.473
	C26.372,63.853,26,63.036,26,62.097z"/>
<path fill="#FFFFFF" d="M26,51v11.097c0,0.939,0.372,1.756,0.651,2.474c1.126,1.814,3.454,2.735,6.769,2.735
	c5.319,0,7.58-1.799,7.58-6.208v-9.953L40.753,51H38v12.377c0,1.213-0.549,2.753-2.1,2.753c-0.109,0-0.432-0.01-0.538-0.035
	C35.258,65.711,35,65.293,35,64.904v-0.179c-1-0.234-1-1.82-1-2.338V51.084L33.811,51H26z"/>
<path fill="#E6E6E6"  a:adobe-blending-mode="multiply" d="M37,50v12.377c0,0.653,0.063,1.242-0.168,1.657
	c-0.276,0.497-0.826,0.738-1.392,0.738c-0.109,0-0.44-0.028-0.44-0.047c-1-0.234-1-1.82-1-2.338V51.084V50h-8v1v10.097v1
	c0,0.296,0.044,0.575,0.103,0.847c0.089,0.603,0.25,1.147,0.547,1.626c1.126,1.814,3.454,2.735,6.769,2.735
	c5.319,0,7.58-1.799,7.58-6.208v-9.953V50H37z"/>
<polygon fill="#FFFFFF" points="43,67 43.186,67 43,66.399 43,51 49.828,51 50.189,50 43,50 "/>
<polygon fill="#FFFFFF" points="43,51 43,66.399 49.828,51 "/>
<g>
	<polygon fill="#E6E6E6"  a:adobe-blending-mode="multiply" points="50.189,50 43,50 43,51 43,66.399 49.828,51 	"/>
	<polygon fill="#E6E6E6"  a:adobe-blending-mode="multiply" points="43.186,67 43,66.399 43,67 	"/>
</g>
</svg>
