<?xml version="1.0" encoding="utf-8"?>
<!-- Generator: Adobe Illustrator 17.1.0, SVG Export Plug-In . SVG Version: 6.00 Build 0)  -->
<!DOCTYPE svg PUBLIC "-//W3C//DTD SVG 1.1//EN" "http://www.w3.org/Graphics/SVG/1.1/DTD/svg11.dtd" [
	<!ENTITY ns_flows "http://ns.adobe.com/Flows/1.0/">
	<!ENTITY ns_extend "http://ns.adobe.com/Extensibility/1.0/">
	<!ENTITY ns_ai "http://ns.adobe.com/AdobeIllustrator/10.0/">
	<!ENTITY ns_graphs "http://ns.adobe.com/Graphs/1.0/">
]>
<svg version="1.1" id="Layer_1" xmlns:x="&ns_extend;" xmlns:i="&ns_ai;" xmlns:graph="&ns_graphs;"
	 xmlns="http://www.w3.org/2000/svg" xmlns:xlink="http://www.w3.org/1999/xlink" xmlns:a="http://ns.adobe.com/AdobeSVGViewerExtensions/3.0/"
	 x="0px" y="0px" viewBox="0 0 460 278" enable-background="new 0 0 460 278" xml:space="preserve">
<g>
	<g>
		
			<rect x="38.736" y="244.919" transform="matrix(0.7071 0.7071 -0.7071 0.7071 186.5002 43.9749)" fill="#666163" width="2.864" height="4.387"/>
		
			<rect x="37.932" y="245.723" transform="matrix(0.7071 0.7071 -0.7071 0.7071 186.8332 44.7788)" fill="#979496" width="2.864" height="4.387"/>
		<path fill="#352F31" d="M89.064,112.038c19.83,0,39.66,7.565,54.789,22.694c30.259,30.259,30.259,79.319,0,109.578
			c-15.13,15.13-34.959,22.694-54.789,22.694s-39.66-7.565-54.789-22.694c-30.259-30.259-30.259-79.319,0-109.578
			C49.404,119.603,69.234,112.038,89.064,112.038 M89.064,101.932c-23.396,0-45.392,9.111-61.936,25.655
			c-34.151,34.151-34.151,89.72,0,123.871c16.544,16.544,38.539,25.655,61.936,25.655s45.392-9.111,61.936-25.655
			c34.151-34.151,34.151-89.72,0-123.871C134.456,111.043,112.46,101.932,89.064,101.932L89.064,101.932z"/>
		<path fill="#666163" d="M89.064,112.038c19.83,0,39.66,7.565,54.789,22.694c30.259,30.259,30.259,79.319,0,109.578
			c-15.13,15.13-34.959,22.694-54.789,22.694s-39.66-7.565-54.789-22.694c-30.259-30.259-30.259-79.319,0-109.578
			C49.404,119.603,69.234,112.038,89.064,112.038 M89.064,110.017c-21.237,0-41.202,8.27-56.219,23.287
			c-30.999,30.999-30.999,81.438,0,112.437c15.017,15.017,34.982,23.287,56.219,23.287c21.237,0,41.202-8.27,56.219-23.287
			c15.017-15.016,23.286-34.982,23.286-56.218s-8.27-41.202-23.286-56.219C130.266,118.287,110.3,110.017,89.064,110.017
			L89.064,110.017z"/>
		
			<rect x="107.898" y="117.197" transform="matrix(0.8666 0.4991 -0.4991 0.8666 92.2939 -33.292)" fill="#979496" width="1.011" height="77.497"/>
		
			<rect x="115.958" y="123.374" transform="matrix(0.7066 0.7076 -0.7076 0.7066 148.8851 -34.8449)" fill="#979496" width="1.011" height="77.497"/>
		
			<rect x="122.136" y="131.434" transform="matrix(0.4995 0.8663 -0.8663 0.4995 208.8139 -21.069)" fill="#979496" width="1.01" height="77.497"/>
		
			<rect x="126.007" y="140.822" transform="matrix(0.2563 0.9666 -0.9666 0.2563 267.6653 11.2646)" fill="#979496" width="1.011" height="77.497"/>
		
			<rect x="89.063" y="189.137" transform="matrix(1 0.0031 -0.0031 1 0.5864 -0.3939)" fill="#979496" width="77.498" height="1.011"/>
		
			<rect x="87.702" y="199.2" transform="matrix(0.9649 0.2628 -0.2628 0.9649 56.9255 -26.2111)" fill="#979496" width="77.498" height="1.011"/>
		
			<rect x="83.772" y="208.564" transform="matrix(0.8634 0.5044 -0.5044 0.8634 122.1952 -33.2554)" fill="#979496" width="77.497" height="1.011"/>
		
			<rect x="77.545" y="216.585" transform="matrix(0.7027 0.7115 -0.7115 0.7027 189.0209 -18.2033)" fill="#979496" width="77.497" height="1.01"/>
		
			<rect x="69.447" y="222.713" transform="matrix(0.4938 0.8696 -0.8696 0.4938 248.8854 18.9167)" fill="#979496" width="77.497" height="1.01"/>
		
			<rect x="60.036" y="226.526" transform="matrix(0.2509 0.968 -0.968 0.2509 293.7748 74.4525)" fill="#979496" width="77.497" height="1.011"/>
		
			<rect x="88.199" y="189.521" transform="matrix(1 0.0097 -0.0097 1 2.229 -0.8537)" fill="#979496" width="1.011" height="77.497"/>
		
			<rect x="78.145" y="188.097" transform="matrix(0.9631 0.2691 -0.2691 0.9631 63.9331 -12.7962)" fill="#979496" width="1.011" height="77.497"/>
		
			<rect x="68.806" y="184.11" transform="matrix(0.8608 0.5089 -0.5089 0.8608 123.0571 -4.2566)" fill="#979496" width="1.011" height="77.497"/>
		
			<rect x="60.823" y="177.833" transform="matrix(0.6983 0.7158 -0.7158 0.6983 173.5396 21.4474)" fill="#979496" width="1.01" height="77.497"/>
		
			<rect x="54.745" y="169.697" transform="matrix(0.488 0.8728 -0.8728 0.488 210.2219 58.4923)" fill="#979496" width="1.011" height="77.497"/>
		
			<rect x="50.99" y="160.262" transform="matrix(0.2448 0.9696 -0.9696 0.2448 231.8418 100.3596)" fill="#979496" width="1.01" height="77.497"/>
		
			<rect x="11.571" y="188.419" transform="matrix(0.9999 0.0154 -0.0154 0.9999 2.9217 -0.7541)" fill="#979496" width="77.497" height="1.011"/>
		
			<rect x="13.057" y="178.373" transform="matrix(0.9615 0.2747 -0.2747 0.9615 51.1294 -7.3496)" fill="#979496" width="77.497" height="1.01"/>
		
			<rect x="17.102" y="169.058" transform="matrix(0.8571 0.5151 -0.5151 0.8571 95.3167 -4.5442)" fill="#979496" width="77.497" height="1.011"/>
		
			<rect x="23.428" y="161.115" transform="matrix(0.6939 0.7201 -0.7201 0.6939 135.4122 4.7014)" fill="#979496" width="77.497" height="1.011"/>
		
			<rect x="31.6" y="155.087" transform="matrix(0.483 0.8756 -0.8756 0.483 172.6147 18.8454)" fill="#979496" width="77.498" height="1.011"/>
		
			<rect x="41.058" y="151.39" transform="matrix(0.2389 0.971 -0.971 0.2389 208.2399 38.1131)" fill="#979496" width="77.497" height="1.011"/>
		
			<rect x="89.396" y="112.034" transform="matrix(0.9998 0.0214 -0.0214 0.9998 3.2531 -1.8926)" fill="#979496" width="1.011" height="77.497"/>
		
			<rect x="99.432" y="113.582" transform="matrix(0.9598 0.2806 -0.2806 0.9598 46.7655 -21.9245)" fill="#979496" width="1.011" height="77.497"/>
		<path fill="#352F31" d="M43.893,245.592l0.92-0.92c0.608-0.608,0.608-1.595,0-2.204s-1.595-0.609-2.204,0l-0.92,0.92l-0.595-0.595
			l-1.072,1.072l0.595,0.595l2.204,2.204l0.595,0.595l1.072-1.072L43.893,245.592z"/>
		<path fill="#979496" d="M89.064,114.06c20.157,0,39.107,7.849,53.36,22.102c14.253,14.253,22.102,33.203,22.102,53.36
			c0,20.157-7.849,39.107-22.102,53.36c-14.253,14.253-33.203,22.102-53.36,22.102s-39.107-7.849-53.36-22.102
			c-29.423-29.423-29.423-77.297,0-106.72C49.957,121.909,68.907,114.06,89.064,114.06 M89.064,112.038
			c-19.83,0-39.66,7.565-54.789,22.694c-30.259,30.259-30.259,79.319,0,109.578c15.13,15.13,34.959,22.694,54.789,22.694
			s39.66-7.565,54.789-22.694c30.259-30.259,30.259-79.319,0-109.578C128.723,119.603,108.894,112.038,89.064,112.038
			L89.064,112.038z"/>
	</g>
	<g>
		<rect x="443.999" y="181.953" fill="#666163" width="4.387" height="2.864"/>
		<rect x="445.136" y="181.953" fill="#979496" width="4.387" height="2.864"/>
		<path fill="#352F31" d="M370.895,112.049c42.793,0,77.484,34.691,77.484,77.484c0,42.793-34.691,77.484-77.484,77.484
			s-77.484-34.691-77.484-77.484C293.411,146.74,328.102,112.049,370.895,112.049 M370.895,101.943
			c-48.297,0-87.59,39.293-87.59,87.59c0,48.297,39.293,87.59,87.59,87.59c48.297,0,87.59-39.293,87.59-87.59
			C458.485,141.235,419.193,101.943,370.895,101.943L370.895,101.943z"/>
		<path fill="#666163" d="M370.895,112.049c42.793,0,77.484,34.691,77.484,77.484c0,42.793-34.691,77.484-77.484,77.484
			s-77.484-34.691-77.484-77.484C293.411,146.74,328.102,112.049,370.895,112.049 M370.895,110.028
			c-43.839,0-79.505,35.666-79.505,79.505c0,43.839,35.666,79.505,79.505,79.505s79.505-35.666,79.505-79.505
			C450.4,145.694,414.734,110.028,370.895,110.028L370.895,110.028z"/>
		
			<rect x="332.972" y="160.852" transform="matrix(0.2604 0.9655 -0.9655 0.2604 439.3566 -174.3475)" fill="#979496" width="1.01" height="77.497"/>
		<rect x="293.398" y="189.028" fill="#979496" width="77.497" height="1.011"/>
		
			<rect x="294.728" y="178.96" transform="matrix(0.9657 0.2598 -0.2598 0.9657 58.0806 -80.4799)" fill="#979496" width="77.498" height="1.01"/>
		
			<rect x="298.629" y="169.584" transform="matrix(0.865 0.5018 -0.5018 0.865 130.899 -146.3291)" fill="#979496" width="77.497" height="1.011"/>
		
			<rect x="304.832" y="161.543" transform="matrix(0.7049 0.7093 -0.7093 0.7049 216.3277 -195.8815)" fill="#979496" width="77.497" height="1.012"/>
		
			<rect x="312.911" y="155.391" transform="matrix(0.4964 0.8681 -0.8681 0.4964 312.4166 -226.7625)" fill="#979496" width="77.497" height="1.011"/>
		
			<rect x="322.31" y="151.549" transform="matrix(0.2538 0.9672 -0.9672 0.2538 416.4795 -235.7766)" fill="#979496" width="77.497" height="1.01"/>
		
			<rect x="370.629" y="112.037" transform="matrix(1 0.0058 -0.0058 1 0.8881 -2.1678)" fill="#979496" width="1.011" height="77.497"/>
		
			<rect x="380.688" y="113.429" transform="matrix(0.9641 0.2654 -0.2654 0.9641 54.0655 -95.721)" fill="#979496" width="1.01" height="77.498"/>
		
			<rect x="390.04" y="117.387" transform="matrix(0.8619 0.507 -0.507 0.8619 133.0851 -176.457)" fill="#979496" width="1.01" height="77.498"/>
		
			<rect x="398.042" y="123.639" transform="matrix(0.7002 0.7139 -0.7139 0.7002 235.3949 -235.8467)" fill="#979496" width="1.01" height="77.498"/>
		
			<rect x="404.144" y="131.756" transform="matrix(0.4911 0.8711 -0.8711 0.4911 354.4567 -265.7223)" fill="#979496" width="1.011" height="77.498"/>
		
			<rect x="407.929" y="141.18" transform="matrix(0.2476 0.9689 -0.9689 0.2476 481.642 -260.3369)" fill="#979496" width="1.011" height="77.497"/>
		
			<rect x="370.892" y="189.506" transform="matrix(0.9999 0.0123 -0.0123 0.9999 2.3767 -5.042)" fill="#979496" width="77.498" height="1.011"/>
		
			<rect x="369.437" y="199.556" transform="matrix(0.9624 0.2717 -0.2717 0.9624 69.7175 -103.3843)" fill="#979496" width="77.497" height="1.011"/>
		
			<rect x="365.421" y="208.884" transform="matrix(0.8587 0.5124 -0.5124 0.8587 164.3895 -177.525)" fill="#979496" width="77.497" height="1.01"/>
		
			<rect x="359.12" y="216.847" transform="matrix(0.6961 0.7179 -0.7179 0.6961 276.9495 -219.5917)" fill="#979496" width="77.497" height="1.01"/>
		
			<rect x="350.966" y="222.9" transform="matrix(0.4857 0.8741 -0.8741 0.4857 395.7239 -225.7621)" fill="#979496" width="77.497" height="1.01"/>
		
			<rect x="341.52" y="226.625" transform="matrix(0.2419 0.9703 -0.9703 0.2419 508.6684 -196.786)" fill="#979496" width="77.497" height="1.011"/>
		
			<rect x="369.672" y="189.526" transform="matrix(0.9998 0.0185 -0.0185 0.9998 4.29 -6.8148)" fill="#979496" width="1.011" height="77.498"/>
		
			<rect x="359.631" y="188.01" transform="matrix(0.9609 0.2768 -0.2768 0.9609 76.8314 -90.8199)" fill="#979496" width="1.011" height="77.496"/>
		
			<rect x="350.329" y="183.936" transform="matrix(0.8553 0.5182 -0.5182 0.8553 166.1818 -149.5743)" fill="#979496" width="1.011" height="77.497"/>
		
			<rect x="342.405" y="177.586" transform="matrix(0.6923 0.7216 -0.7216 0.6923 261.6064 -180.8781)" fill="#979496" width="1.01" height="77.497"/>
		
			<rect x="336.403" y="169.394" transform="matrix(0.4797 0.8774 -0.8774 0.4797 357.9372 -187.3166)" fill="#979496" width="1.011" height="77.497"/>
		<path fill="#352F31" d="M442.483,181.826h-1.302c-0.861,0-1.558,0.698-1.558,1.558c0,0.861,0.698,1.558,1.558,1.558h1.302v0.842
			h1.516v-0.842v-3.116v-0.842h-1.516V181.826z"/>
		<path fill="#979496" d="M370.895,114.07c41.61,0,75.462,33.852,75.462,75.462c0,41.61-33.852,75.462-75.462,75.462
			s-75.462-33.852-75.462-75.462C295.433,147.923,329.285,114.07,370.895,114.07 M370.895,112.049
			c-42.793,0-77.484,34.691-77.484,77.484c0,42.793,34.691,77.484,77.484,77.484s77.484-34.691,77.484-77.484
			C448.379,146.74,413.688,112.049,370.895,112.049L370.895,112.049z"/>
	</g>
	<g>
		
			<rect x="97.478" y="205.178" transform="matrix(0.9767 0.2145 -0.2145 0.9767 49.4303 -27.5018)" fill="#352F31" width="107.865" height="17.571"/>
		<path fill="#CCC9CA" d="M203.357,235.921L95.043,212.129l4.42-20.123l108.314,23.791L203.357,235.921z M98.654,209.818
			l102.391,22.491l3.12-14.2l-102.391-22.491L98.654,209.818z"/>
	</g>
	<path fill="#991C3B" d="M130.055,101.928c-0.217,0-0.437-0.02-0.659-0.062l-34.599-6.518L6.638,92.528
		c-1.953-0.063-3.485-1.696-3.422-3.649c0.062-1.953,1.661-3.484,3.649-3.423l88.705,2.838l0.269,0.051l34.868,6.569
		c1.92,0.362,3.183,2.211,2.821,4.131C133.207,100.744,131.722,101.928,130.055,101.928z"/>
	<path fill="#991C3B" d="M83.561,197.435h-9.677L40.804,91.242c-0.581-1.865,0.46-3.848,2.325-4.429
		c1.867-0.583,3.849,0.46,4.429,2.325l31.531,101.224h4.472c1.954,0,3.537,1.583,3.537,3.537
		C87.098,195.852,85.515,197.435,83.561,197.435z"/>
	<g>
		<circle fill="#F4E4D2" cx="88.668" cy="190.991" r="8.139"/>
		<path fill="#991C3B" d="M88.668,189.926c0.587,0,1.065,0.478,1.065,1.065s-0.478,1.065-1.065,1.065
			c-0.587,0-1.065-0.478-1.065-1.065S88.081,189.926,88.668,189.926 M88.668,182.852c-4.495,0-8.139,3.644-8.139,8.139
			c0,4.495,3.644,8.139,8.139,8.139c4.495,0,8.139-3.644,8.139-8.139C96.808,186.496,93.163,182.852,88.668,182.852L88.668,182.852z
			"/>
	</g>
	
		<rect x="132.882" y="56.103" transform="matrix(0.3961 0.9182 -0.9182 0.3961 139.9743 -94.5462)" fill="#CCCCCC" width="17.958" height="6.064"/>
	<path fill="#CCCCCC" d="M303.245,69.516l-19.526-48.83c-0.496-1.24-0.122-2.659,0.921-3.493l4.36-3.489
		c-2.794-3.116-7.621-7.275-12.217-6.995l-12.678,4.898l-2.186-5.656l13.079-5.054c0.243-0.095,0.498-0.157,0.758-0.185
		c10.752-1.2,19.62,11.18,19.993,11.708c0.925,1.31,0.67,3.114-0.583,4.116l-4.982,3.986l18.692,46.742L303.245,69.516z"/>
	<g>
		<line fill="#F4E4D2" x1="91.157" y1="183.242" x2="144.705" y2="69.082"/>
		<path fill="#991C3B" d="M91.154,186.78c-0.503,0-1.014-0.107-1.5-0.335c-1.768-0.83-2.529-2.936-1.7-4.705l53.549-114.161
			c0.829-1.768,2.934-2.532,4.705-1.7c1.768,0.83,2.529,2.936,1.7,4.705L94.359,184.745C93.758,186.028,92.484,186.78,91.154,186.78
			z"/>
	</g>
	<polygon fill="#991C3B" points="208.862,212.197 139.477,62.994 145.891,60.011 210.924,199.855 315.484,91.238 320.581,96.144 	
		"/>
	<path fill="#991C3B" d="M376.347,197.031c-0.831,0-1.666-0.292-2.339-0.885l-26.741-23.577l-8.595-11.279l-0.179-0.456
		L297.056,55.725c-0.716-1.818,0.176-3.872,1.994-4.589c1.819-0.715,3.872,0.176,4.588,1.994l41.258,104.652l7.576,9.943
		l26.217,23.114c1.465,1.292,1.606,3.527,0.313,4.993C378.302,196.625,377.326,197.031,376.347,197.031z"/>
	<polygon fill="#DFD7D5" points="309.274,47.858 313.822,47.858 319.128,42.552 314.327,37.752 	"/>
	<path fill="#991C3B" d="M193.476,173.685c-1.732,0-3.245-1.274-3.497-3.039c-0.276-1.933,1.069-3.724,3.002-4.001
		c0.517-0.074,51.938-7.691,69.032-33.808c17.811-27.212,37.467-72.801,37.664-73.258c0.77-1.796,2.851-2.625,4.646-1.854
		s2.626,2.851,1.854,4.646c-0.199,0.463-20.094,46.61-38.245,74.34c-7.984,12.2-22.915,22.13-44.377,29.517
		c-15.737,5.417-29.02,7.342-29.578,7.421C193.81,173.674,193.642,173.685,193.476,173.685z"/>
	<polygon fill="#991C3B" points="305.528,60.374 301.902,58.587 308.186,45.837 315.844,45.837 315.844,49.879 310.7,49.879 	"/>
	<g>
		<path fill="#352F31" d="M88.668,206.097c-8.091-2.035-15.106-6.763-15.106-15.106s6.763-15.106,15.106-15.106l122.298,0.856
			c0.315-0.01,0.63-0.024,0.948-0.024c0.508,0,1.012,0.015,1.514,0.041h0.002v0c14.924,0.788,26.782,13.137,26.782,28.257
			c0,15.12-12.099,31.039-26.782,28.257C183.737,227.646,107.143,210.742,88.668,206.097z"/>
		<path fill="#666163" d="M216.794,235.108c-1.209,0-2.436-0.116-3.646-0.346c-29.792-5.645-106.454-22.57-124.849-27.195
			c-10.329-2.597-16.253-8.638-16.253-16.576c0-9.165,7.457-16.622,16.622-16.622l122.309,0.855l0.147-0.006
			c0.794-0.026,1.595-0.016,2.384,0.026c15.826,0.836,28.221,13.913,28.221,29.771C241.729,219.22,231.065,235.108,216.794,235.108z
			 M88.657,177.402c-7.482,0-13.579,6.096-13.579,13.59c0,8.811,8.746,12.325,13.959,13.636
			c18.367,4.618,94.922,21.518,124.675,27.156c1.024,0.194,2.061,0.293,3.081,0.293c12.536,0,21.903-14.286,21.903-27.06
			c0-14.246-11.133-25.992-25.346-26.743c-0.706-0.037-1.418-0.048-2.123-0.024l-0.214,0.007L88.657,177.402z"/>
	</g>
	
		<rect x="261.657" y="138.768" transform="matrix(0.7071 0.7072 -0.7072 0.7071 177.5678 -147.0619)" fill="#991C3B" width="9.255" height="4.043"/>
	<path fill="#191617" d="M239.003,21.919c-1.631,0-3.167-0.994-3.78-2.609c-0.793-2.087,0.257-4.422,2.344-5.214l27.282-10.36
		c2.084-0.791,4.422,0.257,5.214,2.344c0.793,2.087-0.257,4.422-2.344,5.214l-27.282,10.36
		C239.965,21.834,239.48,21.919,239.003,21.919z"/>
	<g>
		<path fill="#352F31" d="M325.325,24.138c-9.215,0.283-16.557,5.131-16.557,11.087c0,5.957,7.342,10.805,16.557,11.087V24.138z"/>
		<path fill="#FDE466" d="M327.472,46.313c1.877-0.283,3.373-5.131,3.373-11.087c0-5.957-1.496-10.805-3.373-11.087V46.313z"/>
		<path fill="#DFD7D5" d="M325.325,24.138c-3.308,0.102-6.365,0.799-8.937,1.917c2.572,1.118,5.63,1.815,8.937,1.917v18.342h2.146
			V24.138H325.325z"/>
	</g>
	<g>
		<circle fill="#F4E4D2" cx="209.694" cy="206.026" r="8.139"/>
		<path fill="#CCC9CA" d="M209.694,204.961c0.587,0,1.065,0.478,1.065,1.065s-0.478,1.065-1.065,1.065s-1.065-0.478-1.065-1.065
			S209.107,204.961,209.694,204.961 M209.694,197.886c-4.495,0-8.139,3.644-8.139,8.139c0,4.495,3.644,8.139,8.139,8.139
			c4.495,0,8.139-3.644,8.139-8.139C217.834,201.531,214.19,197.886,209.694,197.886L209.694,197.886z"/>
	</g>
	<g>
		<line fill="#F4E4D2" x1="209.893" y1="206.026" x2="256.636" y2="213.606"/>
		<path fill="#CCC9CA" d="M256.64,217.144c-0.188,0-0.379-0.015-0.57-0.046l-46.743-7.58c-1.928-0.312-3.238-2.129-2.926-4.058
			c0.312-1.928,2.13-3.238,4.057-2.925l46.743,7.58c1.928,0.312,3.238,2.129,2.926,4.058
			C259.846,215.909,258.344,217.144,256.64,217.144z"/>
	</g>
	<g>
		<path fill="#666163" d="M252.049,212.822c0.333,0.899-0.126,1.897-1.026,2.23l-2.201,0.814c-0.899,0.333-1.897-0.126-2.23-1.026
			l0,0c-0.333-0.899,0.126-1.897,1.026-2.23l2.201-0.814C250.718,211.463,251.716,211.923,252.049,212.822L252.049,212.822z"/>
		<path fill="#666163" d="M257.277,210.934c0.333,0.899-0.126,1.897-1.026,2.23l-2.201,0.814c-0.899,0.333-1.897-0.126-2.23-1.026
			l0,0c-0.333-0.899,0.126-1.897,1.026-2.23l2.201-0.814C255.946,209.576,256.944,210.035,257.277,210.934L257.277,210.934z"/>
		<path fill="#666163" d="M262.505,209.047c0.333,0.899-0.126,1.897-1.026,2.23l-2.201,0.814c-0.899,0.333-1.897-0.126-2.23-1.026
			l0,0c-0.333-0.899,0.126-1.897,1.026-2.23l2.201-0.814C261.174,207.688,262.173,208.148,262.505,209.047L262.505,209.047z"/>
		<path fill="#666163" d="M267.734,207.159c0.333,0.899-0.126,1.897-1.026,2.23l-2.201,0.814c-0.899,0.333-1.897-0.126-2.23-1.026
			l0,0c-0.333-0.899,0.126-1.897,1.026-2.23l2.201-0.814C266.403,205.801,267.401,206.26,267.734,207.159L267.734,207.159z"/>
	</g>
	<g>
		<line fill="#F4E4D2" x1="250.937" y1="218.046" x2="266.443" y2="211.973"/>
		<path fill="#191617" d="M250.939,223.101c-2.019,0-3.926-1.219-4.707-3.212c-1.018-2.599,0.264-5.531,2.862-6.549l15.506-6.074
			c2.598-1.019,5.53,0.264,6.548,2.862c1.018,2.599-0.264,5.531-2.862,6.549l-15.506,6.074
			C252.175,222.989,251.551,223.101,250.939,223.101z"/>
	</g>
	<path fill="#666163" d="M131.3,30.843c5.438,0.268,16.26,1.59,21.698,1.855c3.608,0.176,14.448,0,14.448,0
		c4.186,0,7.58,3.394,7.58,7.58s-3.394,7.58-7.58,7.58h-10.558c0,0-14.203,0.442-19.681,4.892l-0.82,0.757
		c-2.105,1.61-4.177,2.183-7.032,2.183c-2.7,0-8.1,0-10.799,0c-6.907,0-12.507-5.6-12.507-12.507s5.6-12.507,12.507-12.507
		C118.555,30.677,128.117,30.687,131.3,30.843z"/>
	<polygon fill="#979496" points="208.627,207.874 207.56,206.026 208.627,204.178 210.761,204.178 211.828,206.026 210.761,207.874 
			"/>
	<circle fill="#CCC9CA" cx="258.69" cy="215.009" r="3.037"/>
	<polygon fill="#979496" points="257.623,216.857 256.557,215.009 257.623,213.161 259.757,213.161 260.824,215.009 
		259.757,216.857 	"/>
</g>
</svg>
