<?xml version="1.0" encoding="utf-8"?>
<!-- Generator: Adobe Illustrator 17.1.0, SVG Export Plug-In . SVG Version: 6.00 Build 0)  -->
<!DOCTYPE svg PUBLIC "-//W3C//DTD SVG 1.1//EN" "http://www.w3.org/Graphics/SVG/1.1/DTD/svg11.dtd" [
	<!ENTITY ns_flows "http://ns.adobe.com/Flows/1.0/">
	<!ENTITY ns_extend "http://ns.adobe.com/Extensibility/1.0/">
	<!ENTITY ns_ai "http://ns.adobe.com/AdobeIllustrator/10.0/">
	<!ENTITY ns_graphs "http://ns.adobe.com/Graphs/1.0/">
]>
<svg version="1.1" id="Layer_1" xmlns:x="&ns_extend;" xmlns:i="&ns_ai;" xmlns:graph="&ns_graphs;"
	 xmlns="http://www.w3.org/2000/svg" xmlns:xlink="http://www.w3.org/1999/xlink" xmlns:a="http://ns.adobe.com/AdobeSVGViewerExtensions/3.0/"
	 x="0px" y="0px" viewBox="-481.098 0 1562.196 400" enable-background="new -481.098 0 1562.196 400" xml:space="preserve">
<g>
	<path fill="#FFFFFF" d="M599.999,200.009c0,0-134.31,166.168-300.008,166.168c-165.68,0-299.99-166.168-299.99-166.168
		s134.31-166.187,299.99-166.187C465.689,33.823,599.999,200.009,599.999,200.009z"/>
	<circle fill="#0C6667" cx="296.18" cy="198.813" r="153.482"/>
	<circle fill="#404041" cx="294.045" cy="196.668" r="111.212"/>
</g>
<g>
	<ellipse fill="#01A59C" cx="812.563" cy="365.779" rx="50.997" ry="12.643"/>
	<ellipse fill="#01A59C" cx="968.549" cy="365.779" rx="50.997" ry="12.643"/>
	<g>
		<path fill="#A163A7" d="M925.098,112.542C925.098,50.387,874.718,0,812.549,0c-62.154,0-112.549,50.387-112.549,112.542
			c0,20.526,5.592,39.706,15.181,56.275h-0.124l97.478,196.962l97.52-196.962h-0.138
			C919.534,152.248,925.098,133.069,925.098,112.542z"/>
		<path fill="#722D80" d="M812.563,168.803c-31.078,0-56.275-25.197-56.275-56.268c0-31.078,25.197-56.275,56.275-56.275
			c31.092,0,56.275,25.197,56.275,56.275C868.837,143.606,843.654,168.803,812.563,168.803z"/>
		<path fill="#EE4270" d="M1081.098,112.542C1081.098,50.387,1030.718,0,968.549,0c-62.154,0-112.549,50.387-112.549,112.542
			c0,20.526,5.592,39.706,15.181,56.275h-0.124l97.478,196.962l97.52-196.962h-0.138
			C1075.534,152.248,1081.098,133.069,1081.098,112.542z"/>
		<path fill="#CB1F4C" d="M968.563,168.803c-31.078,0-56.275-25.197-56.275-56.268c0-31.078,25.197-56.275,56.275-56.275
			c31.092,0,56.275,25.197,56.275,56.275C1024.837,143.606,999.654,168.803,968.563,168.803z"/>
	</g>
</g>
<g>
	<ellipse fill="#01A59C" cx="-368.534" cy="365.779" rx="50.997" ry="12.643"/>
	<ellipse fill="#01A59C" cx="-212.549" cy="365.779" rx="50.997" ry="12.643"/>
	<g>
		<path fill="#01A59C" d="M-255.999,112.542C-255.999,50.387-306.379,0-368.549,0c-62.154,0-112.549,50.387-112.549,112.542
			c0,20.526,5.592,39.706,15.181,56.275h-0.124l97.478,196.962l97.52-196.962h-0.138
			C-261.563,152.248-255.999,133.069-255.999,112.542z"/>
		<path fill="#0D7C60" d="M-368.534,168.803c-31.078,0-56.275-25.197-56.275-56.268c0-31.078,25.197-56.275,56.275-56.275
			c31.092,0,56.275,25.197,56.275,56.275C-312.26,143.606-337.443,168.803-368.534,168.803z"/>
		<path fill="#F27261" d="M-99.999,112.542C-99.999,50.387-150.379,0-212.549,0c-62.154,0-112.549,50.387-112.549,112.542
			c0,20.526,5.592,39.706,15.181,56.275h-0.124l97.478,196.962l97.52-196.962h-0.138
			C-105.563,152.248-99.999,133.069-99.999,112.542z"/>
		<path fill="#E54D2E" d="M-212.534,168.803c-31.078,0-56.275-25.197-56.275-56.268c0-31.078,25.197-56.275,56.275-56.275
			c31.092,0,56.275,25.197,56.275,56.275C-156.26,143.606-181.443,168.803-212.534,168.803z"/>
	</g>
</g>
</svg>
