<?xml version="1.0" encoding="utf-8"?>
<!-- Generator: Adobe Illustrator 17.1.0, SVG Export Plug-In . SVG Version: 6.00 Build 0)  -->
<!DOCTYPE svg PUBLIC "-//W3C//DTD SVG 1.1//EN" "http://www.w3.org/Graphics/SVG/1.1/DTD/svg11.dtd" [
	<!ENTITY ns_flows "http://ns.adobe.com/Flows/1.0/">
	<!ENTITY ns_extend "http://ns.adobe.com/Extensibility/1.0/">
	<!ENTITY ns_ai "http://ns.adobe.com/AdobeIllustrator/10.0/">
	<!ENTITY ns_graphs "http://ns.adobe.com/Graphs/1.0/">
]>
<svg version="1.1" id="Layer_1" xmlns:x="&ns_extend;" xmlns:i="&ns_ai;" xmlns:graph="&ns_graphs;"
	 xmlns="http://www.w3.org/2000/svg" xmlns:xlink="http://www.w3.org/1999/xlink" xmlns:a="http://ns.adobe.com/AdobeSVGViewerExtensions/3.0/"
	 x="0px" y="0px" viewBox="0 0 121.69 416.451" enable-background="new 0 0 121.69 416.451" xml:space="preserve">
<g>
	<path opacity="0.2" fill-rule="evenodd" clip-rule="evenodd" fill="#2D3842" d="M78.309,394.821C72.036,365.814,4.04,0,4.04,0
		h58.825c0,0,57.196,388.432,58.356,394.506c1.108,5.823,0.449,10.713-4.115,15.274c-5.018,5.017-11.366,6.816-18.67,6.661
		c-0.392-0.004-0.785-0.186-1.177-0.189c-4.636-0.132-8.345-1.64-11.887-4.15C80.171,407.11,79.852,401.071,78.309,394.821z"/>
	<path fill-rule="evenodd" clip-rule="evenodd" fill="#E9C3BB" d="M74.271,392.955C59.557,324.91,47.854,256.095,34.937,187.694
		c-8.059-42.676-16.093-85.357-24.052-128.051C8.208,45.277,0,0,0,0s-1.442,3.148,0,0c5.155,0,42.634,0,42.634,0
		s1.277,7.692,1.907,10.953c2.991,15.492,5.947,30.991,8.905,46.489c9.715,50.89,19.392,101.787,29.068,152.685
		c8.984,47.26,17.961,94.522,26.936,141.785c2.336,12.3,4.67,24.6,7.006,36.899c0.993,5.227,2.198,10.649-0.663,15.612
		c-4.761,8.26-13.913,10.042-22.572,9.964C79.893,414.006,76.969,403.883,74.271,392.955
		C67.999,363.949,75.814,399.205,74.271,392.955z"/>
	<g>
		<path fill="#E3B5AC" d="M82.527,402.586c-0.012-0.012-0.026-0.021-0.039-0.035c0,0-0.004-0.003-0.006-0.006L82.527,402.586z"/>
		<path fill="#E3B5AC" d="M81.901,402.001c-0.004-0.006-0.01-0.013-0.013-0.02c-0.006-0.007-0.013-0.013-0.02-0.02L81.901,402.001z"
			/>
		<path fill="#E3B5AC" d="M81.901,401.132c-0.01-0.012-0.023-0.023-0.033-0.035c-0.006-0.004-0.01-0.004-0.013-0.005L81.901,401.132
			z"/>
		<path fill="#E3B5AC" d="M81.275,400.543c-0.004-0.007-0.007-0.01-0.01-0.017c-0.004-0.008-0.013-0.013-0.023-0.022L81.275,400.543
			z"/>
		<path fill="#E3B5AC" d="M79.732,397.741c-1.635-4.378-1.31-8.798,1.055-13.263c5.418-9.053,17.457-10.334,25.48-4.575
			c2.311,1.578,3.594,2.918,4.524,4.945c-1.046-2.563-1.537-4.692-4.755-6.825c-7.947-5.721-20.458-4.051-25.875,5.002
			C77.532,387.982,77.433,392.886,79.732,397.741z"/>
	</g>
	<path fill="none" stroke="#E3B5AC" stroke-width="1.7674" stroke-miterlimit="10" d="M102.128,353.119
		c-6.75,8.824-24.411,7.951-27.738,5.721"/>
	<path fill="none" stroke="#E3B5AC" stroke-width="1.7674" stroke-miterlimit="10" d="M99.325,345.456
		c-15.169-5.43-25.348,2.785-28.985,7.663"/>
	<line fill="none" stroke="#E3B5AC" stroke-width="1.7674" stroke-miterlimit="10" x1="98.079" y1="350.985" x2="82.6" y2="353.7"/>
	
		<line fill="none" stroke="#E3B5AC" stroke-width="1.7674" stroke-miterlimit="10" x1="94.441" y1="348.268" x2="75.022" y2="351.879"/>
	<g>
		<path fill="#FFFFFF" d="M98.527,405.163c-7.601,1.717-15.155-1.525-19.312-7.58c2.385,8.863,11.345,14.349,20.38,12.308
			c9.035-2.041,14.767-10.847,13.11-19.874C111.554,397.27,106.128,403.445,98.527,405.163z"/>
		<path fill="#EDD6D2" d="M103.529,377.741c-2.359,3.039-5.746,5.309-9.791,6.223c-4.045,0.914-8.079,0.32-11.515-1.41
			c-3.045,3.922-4.378,9.125-3.198,14.347c0.052,0.232,0.129,0.452,0.19,0.68c4.157,6.055,11.711,9.298,19.312,7.58
			c7.601-1.717,13.027-7.892,14.178-15.146c-0.043-0.232-0.068-0.464-0.121-0.696C111.405,384.098,107.965,379.974,103.529,377.741z
			"/>
		<path fill="#FFFFFF" d="M103.529,377.741c-3.436-1.729-7.47-2.324-11.515-1.41c-4.045,0.914-7.432,3.184-9.791,6.223
			c3.436,1.729,7.47,2.324,11.515,1.41C97.783,383.05,101.17,380.78,103.529,377.741z"/>
	</g>
</g>
</svg>
