<?xml version="1.0" encoding="utf-8"?>
<!-- Generator: Adobe Illustrator 17.1.0, SVG Export Plug-In . SVG Version: 6.00 Build 0)  -->
<!DOCTYPE svg PUBLIC "-//W3C//DTD SVG 1.1//EN" "http://www.w3.org/Graphics/SVG/1.1/DTD/svg11.dtd" [
	<!ENTITY ns_flows "http://ns.adobe.com/Flows/1.0/">
	<!ENTITY ns_extend "http://ns.adobe.com/Extensibility/1.0/">
	<!ENTITY ns_ai "http://ns.adobe.com/AdobeIllustrator/10.0/">
	<!ENTITY ns_graphs "http://ns.adobe.com/Graphs/1.0/">
]>
<svg version="1.1" id="Layer_1" xmlns:x="&ns_extend;" xmlns:i="&ns_ai;" xmlns:graph="&ns_graphs;"
	 xmlns="http://www.w3.org/2000/svg" xmlns:xlink="http://www.w3.org/1999/xlink" xmlns:a="http://ns.adobe.com/AdobeSVGViewerExtensions/3.0/"
	 x="0px" y="0px" viewBox="0 275.31 400 182.046" enable-background="new 0 275.31 400 182.046" xml:space="preserve">
<g>
	<g>
		<g>
			
				<rect x="69.846" y="291.693" transform="matrix(-0.7071 -0.7071 0.7071 -0.7071 -97.2215 705.2404)" fill="#FFFFFF" width="55.206" height="162.125"/>
			<path fill="#CB1F4C" d="M65.905,455.854c2.002,2.002,5.247,2.002,7.247,0l107.394-107.393c2.002-2.002,2.002-5.247,0-7.247
				l-6.259-6.259L59.645,449.596L65.905,455.854z"/>
			<path fill="#CB1F4C" d="M116.143,276.81c-2.002-2.001-5.247-2.001-7.247,0L1.501,384.203c-2.002,2.002-2.002,5.247,0,7.247
				l19.107,19.107L135.25,295.915L116.143,276.81z"/>
		</g>
		<g>
			<path fill="#FFFFFF" d="M48.694,370.726l1.208-1.208l-7.562-7.562l-1.208,1.208l-1.057-1.057l3.801-3.801l1.057,1.057
				l-1.221,1.221l3.225,3.225l5.023-5.023l-3.225-3.225l-1.221,1.221l-1.057-1.057l3.801-3.801l1.057,1.057l-1.208,1.208
				l7.562,7.562l1.208-1.208l1.07,1.07l-3.801,3.801l-1.07-1.07l1.221-1.221l-3.212-3.212l-5.023,5.023l3.212,3.212l1.221-1.221
				l1.07,1.07l-3.801,3.801L48.694,370.726z"/>
			<path fill="#FFFFFF" d="M60.334,359.086l1.208-1.208l-7.562-7.562l-1.208,1.208l-1.057-1.057l7.012-7.012l2.251,2.251
				l-1.194,1.194l-1.126-1.126l-3.239,3.239l3.116,3.116l3.431-3.431l1.126,1.126l-3.431,3.431l3.198,3.198l3.472-3.472
				l-1.166-1.166l1.194-1.194l2.292,2.292l-7.246,7.246L60.334,359.086z"/>
			<path fill="#FFFFFF" d="M69.023,350.397l1.208-1.208l-7.493-7.493l-1.208,1.208l-1.126-1.126l3.801-3.801l1.126,1.126
				l-1.221,1.221l7.438,7.438l3.376-3.376l-1.564-1.564l1.208-1.208l2.69,2.69l-7.164,7.164L69.023,350.397z"/>
			<path fill="#FFFFFF" d="M77.313,342.108l1.208-1.208l-7.493-7.493l-1.208,1.208l-1.126-1.126l3.801-3.801l1.126,1.126
				l-1.221,1.221l7.438,7.438l3.376-3.376l-1.564-1.564l1.208-1.208l2.69,2.69l-7.164,7.164L77.313,342.108z"/>
			<path fill="#FFFFFF" d="M81.719,320.135c2.8-2.8,7.137-2.827,9.922-0.041c2.855,2.855,2.895,7.26,0.096,10.06
				c-2.813,2.813-7.205,2.759-10.059-0.096C78.892,327.271,78.906,322.948,81.719,320.135z M90.516,328.931
				c1.962-1.962,1.88-5.229-0.302-7.411c-2.113-2.113-5.325-2.141-7.287-0.178c-1.976,1.976-1.948,5.187,0.165,7.301
				C85.274,330.825,88.54,330.908,90.516,328.931z"/>
		</g>
	</g>
	<g>
		<g>
			
				<rect x="178.822" y="291.693" transform="matrix(-0.7071 -0.7071 0.7071 -0.7071 88.8123 782.2982)" fill="#FFFFFF" width="55.206" height="162.125"/>
			<path fill="#0D7C60" d="M174.882,455.854c2.002,2.002,5.247,2.002,7.247,0L289.522,348.46c2.002-2.002,2.002-5.247,0-7.247
				l-6.259-6.259L168.622,449.596L174.882,455.854z"/>
			<path fill="#0D7C60" d="M225.12,276.81c-2.002-2.001-5.247-2.001-7.247,0L110.478,384.203c-2.002,2.002-2.002,5.247,0,7.247
				l19.107,19.107l114.641-114.641L225.12,276.81z"/>
		</g>
		<g>
			<path fill="#FFFFFF" d="M157.671,370.726l1.208-1.208l-7.562-7.562l-1.208,1.208l-1.057-1.057l3.801-3.801l1.057,1.057
				l-1.221,1.221l3.225,3.225l5.023-5.023l-3.225-3.225l-1.221,1.221l-1.057-1.057l3.801-3.801l1.057,1.057l-1.208,1.208
				l7.562,7.562l1.208-1.208l1.07,1.07l-3.801,3.801l-1.07-1.07l1.221-1.221l-3.212-3.212l-5.023,5.023l3.212,3.212l1.221-1.221
				l1.07,1.07l-3.801,3.801L157.671,370.726z"/>
			<path fill="#FFFFFF" d="M169.31,359.086l1.208-1.208l-7.562-7.562l-1.208,1.208l-1.057-1.057l7.012-7.012l2.251,2.251
				l-1.194,1.194l-1.126-1.126l-3.239,3.239l3.116,3.116l3.431-3.431l1.126,1.126l-3.431,3.431l3.198,3.198l3.472-3.472
				l-1.166-1.166l1.194-1.194l2.292,2.292l-7.246,7.246L169.31,359.086z"/>
			<path fill="#FFFFFF" d="M177.999,350.397l1.208-1.208l-7.493-7.493l-1.208,1.208l-1.126-1.126l3.801-3.801l1.126,1.126
				l-1.221,1.221l7.438,7.438l3.376-3.376l-1.564-1.564l1.208-1.208l2.69,2.69l-7.164,7.164L177.999,350.397z"/>
			<path fill="#FFFFFF" d="M186.289,342.108l1.208-1.208l-7.493-7.493l-1.208,1.208l-1.126-1.126l3.801-3.801l1.126,1.126
				l-1.221,1.221l7.438,7.438l3.376-3.376l-1.566-1.565l1.208-1.208l2.69,2.69l-7.164,7.164L186.289,342.108z"/>
			<path fill="#FFFFFF" d="M190.697,320.135c2.8-2.8,7.137-2.827,9.922-0.041c2.855,2.855,2.895,7.26,0.096,10.06
				c-2.813,2.813-7.205,2.759-10.059-0.096C187.868,327.271,187.883,322.948,190.697,320.135z M199.492,328.931
				c1.962-1.962,1.88-5.229-0.302-7.411c-2.113-2.113-5.325-2.141-7.287-0.178c-1.976,1.976-1.948,5.187,0.165,7.301
				C194.25,330.825,197.516,330.908,199.492,328.931z"/>
		</g>
	</g>
	<g>
		<g>
			
				<rect x="287.799" y="291.692" transform="matrix(-0.7071 -0.7071 0.7071 -0.7071 274.8478 859.3555)" fill="#FFFFFF" width="55.206" height="162.125"/>
			<path fill="#61C6C7" d="M283.858,455.854c2.002,2.002,5.247,2.002,7.247,0L398.499,348.46c2.002-2.002,2.002-5.247,0-7.247
				l-6.259-6.259L277.599,449.596L283.858,455.854z"/>
			<path fill="#61C6C7" d="M334.095,276.81c-2.002-2.001-5.247-2.001-7.247,0L219.454,384.203c-2.002,2.002-2.002,5.247,0,7.247
				l19.107,19.107l114.642-114.642L334.095,276.81z"/>
		</g>
		<g>
			<path fill="#FFFFFF" d="M266.647,370.726l1.208-1.208l-7.562-7.562l-1.208,1.208l-1.057-1.057l3.801-3.801l1.057,1.057
				l-1.221,1.221l3.225,3.225l5.023-5.023l-3.225-3.225l-1.221,1.221l-1.057-1.057l3.801-3.801l1.057,1.057l-1.208,1.208
				l7.562,7.562l1.208-1.208l1.07,1.07l-3.801,3.801l-1.07-1.07l1.221-1.221l-3.212-3.212l-5.023,5.023l3.212,3.212l1.221-1.221
				l1.07,1.07l-3.801,3.801L266.647,370.726z"/>
			<path fill="#FFFFFF" d="M278.286,359.086l1.208-1.208l-7.562-7.562l-1.208,1.208l-1.057-1.057l7.012-7.012l2.251,2.251
				l-1.194,1.194l-1.126-1.126l-3.239,3.239l3.116,3.116l3.431-3.431l1.126,1.126l-3.431,3.431l3.198,3.198l3.472-3.472
				l-1.166-1.166l1.194-1.194l2.292,2.292l-7.246,7.246L278.286,359.086z"/>
			<path fill="#FFFFFF" d="M286.975,350.397l1.208-1.208l-7.493-7.493l-1.208,1.208l-1.126-1.126l3.801-3.801l1.126,1.126
				l-1.221,1.221l7.438,7.438l3.376-3.376l-1.564-1.564l1.208-1.208l2.69,2.69l-7.164,7.164L286.975,350.397z"/>
			<path fill="#FFFFFF" d="M295.267,342.108l1.208-1.208l-7.493-7.493l-1.208,1.208l-1.126-1.126l3.801-3.801l1.126,1.126
				l-1.221,1.221l7.438,7.438l3.376-3.376l-1.564-1.564l1.208-1.208l2.69,2.69l-7.164,7.164L295.267,342.108z"/>
			<path fill="#FFFFFF" d="M299.672,320.135c2.8-2.8,7.137-2.827,9.922-0.041c2.855,2.855,2.895,7.26,0.096,10.06
				c-2.813,2.813-7.204,2.759-10.059-0.096C296.845,327.271,296.859,322.948,299.672,320.135z M308.47,328.931
				c1.962-1.962,1.88-5.229-0.302-7.411c-2.113-2.113-5.325-2.141-7.287-0.178c-1.976,1.976-1.948,5.187,0.165,7.301
				C303.227,330.825,306.493,330.908,308.47,328.931z"/>
		</g>
	</g>
</g>
</svg>
