<?xml version="1.0" encoding="utf-8"?>
<!-- Generator: Adobe Illustrator 17.1.0, SVG Export Plug-In . SVG Version: 6.00 Build 0)  -->
<!DOCTYPE svg PUBLIC "-//W3C//DTD SVG 1.1//EN" "http://www.w3.org/Graphics/SVG/1.1/DTD/svg11.dtd" [
	<!ENTITY ns_flows "http://ns.adobe.com/Flows/1.0/">
	<!ENTITY ns_extend "http://ns.adobe.com/Extensibility/1.0/">
	<!ENTITY ns_ai "http://ns.adobe.com/AdobeIllustrator/10.0/">
	<!ENTITY ns_graphs "http://ns.adobe.com/Graphs/1.0/">
]>
<svg version="1.1" id="Layer_1" xmlns:x="&ns_extend;" xmlns:i="&ns_ai;" xmlns:graph="&ns_graphs;"
	 xmlns="http://www.w3.org/2000/svg" xmlns:xlink="http://www.w3.org/1999/xlink" xmlns:a="http://ns.adobe.com/AdobeSVGViewerExtensions/3.0/"
	 x="0px" y="0px" viewBox="67.902 352.029 184.304 215.871" enable-background="new 67.902 352.029 184.304 215.871"
	 xml:space="preserve">
<pattern  x="0" y="600" width="2.734" height="3.364" patternUnits="userSpaceOnUse" id="SVGID_1_" viewBox="0 -3.364 2.734 3.364" overflow="visible">
	<g>
		<polygon fill="none" points="0,0 2.734,0 2.734,-3.364 0,-3.364 		"/>
		<g>
			<polygon fill="none" points="0,-3.364 2.734,-3.364 2.734,0 0,0 			"/>
			<g>
				<polygon fill="none" points="0,0 2.734,0 2.734,-3.364 0,-3.364 				"/>
				<g>
					<polygon fill="none" points="0,-3.364 2.734,-3.364 2.734,0 0,0 					"/>
					<path fill="none" d="M1.236,0v-0.74c0-0.191-0.153-0.345-0.344-0.345c-0.19,0-0.345,0.154-0.345,0.345V0H0v-3.364h0.503v0.836
						c0,0.215,0.175,0.389,0.389,0.389s0.39-0.174,0.39-0.389v-0.836h1.454v1.258c0-0.191-0.153-0.345-0.344-0.345
						c-0.19,0-0.345,0.154-0.345,0.345v1.481c0,0.19,0.155,0.345,0.345,0.345c0.19,0,0.344-0.154,0.344-0.345V0H1.236z"/>
					<path fill="#262626" d="M2.391-0.281c-0.19,0-0.345-0.154-0.345-0.345v-1.481c0-0.191,0.155-0.345,0.345-0.345
						s0.344,0.154,0.344,0.345v1.481C2.734-0.436,2.58-0.281,2.391-0.281z"/>
					<path fill="#262626" d="M0.892-2.139c-0.215,0-0.389-0.174-0.389-0.389v-0.837h0.778v0.836
						C1.282-2.313,1.107-2.139,0.892-2.139z"/>
					<path fill="#262626" d="M0.892-1.226c0.219,0,0.397,0.174,0.397,0.389v0.836H0.496v-0.836C0.496-1.052,0.674-1.226,0.892-1.226
						z"/>
				</g>
			</g>
		</g>
	</g>
</pattern>
<pattern  x="0" y="600" width="2.734" height="3.364" patternUnits="userSpaceOnUse" id="SVGID_52_" viewBox="0 -3.364 2.734 3.364" overflow="visible">
	<g>
		<polygon fill="none" points="0,0 2.734,0 2.734,-3.364 0,-3.364 		"/>
		<g>
			<polygon fill="none" points="0,-3.364 2.734,-3.364 2.734,0 0,0 			"/>
			<g>
				<polygon fill="none" points="0,0 2.734,0 2.734,-3.364 0,-3.364 				"/>
				<g>
					<polygon fill="none" points="0,-3.364 2.734,-3.364 2.734,0 0,0 					"/>
					<path fill="none" d="M1.236,0v-0.74c0-0.191-0.153-0.345-0.344-0.345c-0.19,0-0.345,0.154-0.345,0.345V0H0v-3.364h0.503v0.836
						c0,0.215,0.175,0.389,0.389,0.389s0.39-0.174,0.39-0.389v-0.836h1.454v1.258c0-0.191-0.153-0.345-0.344-0.345
						c-0.19,0-0.345,0.154-0.345,0.345v1.481c0,0.19,0.155,0.345,0.345,0.345c0.19,0,0.344-0.154,0.344-0.345V0H1.236z"/>
					<path fill="#262626" d="M2.391-0.281c-0.19,0-0.345-0.154-0.345-0.345v-1.481c0-0.191,0.155-0.345,0.345-0.345
						s0.344,0.154,0.344,0.345v1.481C2.734-0.436,2.58-0.281,2.391-0.281z"/>
					<path fill="#262626" d="M0.892-2.139c-0.215,0-0.389-0.174-0.389-0.389v-0.837h0.778v0.836
						C1.282-2.313,1.107-2.139,0.892-2.139z"/>
					<path fill="#262626" d="M0.892-1.226c0.219,0,0.397,0.174,0.397,0.389v0.836H0.496v-0.836C0.496-1.052,0.674-1.226,0.892-1.226
						z"/>
				</g>
			</g>
		</g>
	</g>
</pattern>
<g>
	<g>
		<ellipse fill="#F27261" cx="106.553" cy="390.677" rx="28.332" ry="29.351"/>
		<path fill="#F27261" d="M146.677,426.149c-1.76-0.447-3.43-1.348-4.807-2.723l-10.968-10.968
			c-4.074-4.074-4.074-10.68-0.001-14.752c4.074-4.075,10.68-4.075,14.754,0l1.024,1.024L146.677,426.149z"/>
		<path fill="#F27261" d="M66.43,426.149c1.76-0.447,3.43-1.348,4.807-2.723l10.968-10.968c4.075-4.074,4.075-10.68,0.001-14.752
			c-4.074-4.075-10.68-4.075-14.754,0l-1.026,1.024L66.43,426.149z"/>
		<path fill="#E9C3BB" d="M106.535,421.397c14.066,0,25.466-11.356,25.466-25.374c0-14.013-11.4-25.383-25.466-25.383
			c-14.038,0-25.429,11.369-25.429,25.383C81.106,410.04,92.498,421.397,106.535,421.397z"/>
		<path fill="#F27261" d="M106.535,367.563c-13.535,0-24.755,11.373-26.939,26.276h53.918
			C131.324,378.935,120.099,367.563,106.535,367.563z"/>
		<path fill="#EE4270" d="M106.553,454.9c21.196,0,38.378-11.148,38.378-24.899c0-0.562-0.038-1.12-0.098-1.676
			c-4.39-0.95-9.052-0.944-13.995-1.126c-12.015-0.446-24.158-0.083-36.165,0.02c-7.399,0.055-14.818,0.007-22.23,0.007
			c-1.457,0.146-2.82,0.377-4.121,0.664c-0.092,0.695-0.147,1.398-0.147,2.11C68.177,443.753,85.357,454.9,106.553,454.9z"/>
		<rect x="90.969" y="424.25" fill="#CB1F4C" width="31.169" height="6.762"/>
		<path fill="#EE4270" d="M139.987,398.334c1.967,0.027,7.593-1.248,3.061-3.27c-3.957-1.765-8.206-1.119-9.214-0.925l0.954-0.932
			c0.348-0.342,0.354-0.899,0.015-1.246c-0.343-0.351-0.898-0.358-1.248-0.017l-0.908,0.884c0.237-1.132,0.908-5.25-0.722-9.154
			c-1.913-4.582-3.319,1.014-3.339,2.98c-0.026,1.967-1.425,2.143-0.718,3.446c0.702,1.306,2.411,3.054,2.411,3.054
			s-3.046-2.053-4.1-2.065c-1.056-0.012-1.919,3.863-1.119,5.166c0.492,0.8,3.268-0.284,4.844-0.746l-1.673,1.954
			c-0.349,0.341-0.514,0.736-0.178,1.084c0.344,0.349,0.74,0.191,1.092-0.15l2.05-1.681c-0.507,1.565-1.692,4.396-0.89,4.915
			c1.285,0.826,5.181,0.065,5.194-0.998c0.01-1.054-1.965-4.147-1.965-4.147s1.705,1.745,2.993,2.482
			C137.812,399.702,138.019,398.314,139.987,398.334z"/>
		<polygon fill="#CB1F4C" points="113.468,437.521 119.516,439.22 119.712,439.108 111.828,425.075 103.69,429.646 111.576,443.68 
			111.772,443.569 		"/>
		<polygon fill="#CB1F4C" points="99.641,437.521 93.592,439.22 93.396,439.108 101.281,425.075 109.419,429.646 101.533,443.68 
			101.337,443.569 		"/>
	</g>
	<g>
		<path fill="#A163A7" d="M106.554,567.9c21.347,0,38.649-11.228,38.649-25.076c0-0.567-0.038-1.129-0.098-1.687
			c-4.421-0.957-9.116-0.952-14.095-1.135c-12.099-0.448-24.328-0.085-36.422,0.021c-7.451,0.055-14.923,0.009-22.388,0.009
			c-1.467,0.146-2.842,0.38-4.151,0.668c-0.092,0.702-0.149,1.409-0.149,2.125C67.904,556.673,85.208,567.9,106.554,567.9z"/>
		<path fill="#B13125" d="M130.869,513.549l2.537-9.014c0-15.401-11.272-27.89-26.677-27.89h-1.288
			c-15.404,0-25.463,12.488-25.463,27.89l1.805,8.998L130.869,513.549z"/>
		<path fill="#E54D2E" d="M132.718,521.574c0,14.374-11.651,26.023-26.026,26.023l0,0c-14.372,0-26.023-11.649-26.023-26.023
			v-10.618c0-14.374,11.651-26.026,26.023-26.026l0,0c14.375,0,26.026,11.652,26.026,26.026V521.574z"/>
		<path fill="#E9C3BB" d="M132.404,505.855c0,14.197-11.508,25.708-25.721,25.708c-14.186,0-25.702-11.511-25.702-25.708
			c0-14.206,11.515-25.717,25.702-25.717C120.895,480.139,132.404,491.648,132.404,505.855z"/>
		<path fill="#61C6C7" d="M133.197,503.414c-3.278-0.7-7.129-1.448-11.355-1.448c-3.028,0-5.974,0.371-9.012,1.134
			c-1.958,0.492-4.031,0.946-5.921,0.946l-0.323-0.005c-1.125-0.037-2.21-0.29-3.261-0.536l-0.159-0.038
			c-4.966-1.157-8.93-1.67-12.851-1.67c-3.344,0-6.656,0.387-10.125,1.183l-0.548,0.127l0.702,4.587l0.512,0.01
			c0.809,0.015,0.828,0.453,0.834,0.615c0.309,7.756,2.213,12.482,10.645,12.27c10.482-0.275,12.642-9.337,12.968-11.152
			c0.203-1.136,0.631-1.202,1.438-1.225c0.836,0,1.018,0.405,1.27,1.12c0.038,0.106,0.073,0.207,0.111,0.297
			c3.336,8.438,5.546,10.39,12.452,10.992c0.584,0.051,1.132,0.077,1.645,0.077c7.326,0,8.194-4.924,8.891-8.881
			c0.177-1.012,0.347-1.97,0.608-2.799c0.229-0.732,0.367-0.862,0.928-0.878l0.52-0.011l0.573-4.597L133.197,503.414z
			 M120.881,503.825v0.605c3.516,0,5.614,0.461,6.6,1.449c0.963,0.966,0.959,2.494,0.956,4.614l0.001,0.367
			c-0.738,6.496-2.187,7.205-7.563,7.205c-5.48-0.149-7.539-2.94-8.946-7.087c-0.631-1.859-0.64-3.217-0.032-4.149
			c1.116-1.709,4.289-1.989,7.647-2.283l1.269-0.117L120.881,503.825L120.881,503.825z M84.902,510.581
			c-0.003-2.12-0.007-3.649,0.954-4.614c0.988-0.988,3.082-1.449,6.59-1.449v-0.605l0,0l0.022,0.604l1.323,0.119
			c3.36,0.293,6.532,0.571,7.648,2.281c0.608,0.934,0.598,2.292-0.031,4.151c-1.406,4.145-3.463,6.937-8.932,7.082
			c-5.39,0-6.839-0.707-7.575-7.134C84.902,511.016,84.902,510.581,84.902,510.581z"/>
		<g>
			<path fill="#B13125" d="M100.096,478.217c0,0,11.174,21.073,31.657,20.236l-0.127,2.067l2.825-2.067
				C134.451,498.453,125.561,470.945,100.096,478.217z"/>
			<path fill="#B13125" d="M102.87,476.992l-12.026,6.88c0,0-1.14,0.111-2.54,0.437c-1.438,1.713-2.914,3.396-4.383,5.084
				c-0.048,0.144-0.093,0.289-0.137,0.431c0.027,0.049,0.057,0.096,0.092,0.147c3.587,5.085,22.677-6.097,22.677-6.097v-0.605
				L102.87,476.992z"/>
		</g>
		<path fill="#E54D2E" d="M131.918,516.263l-9.635,7.429c-13.987-4.814-27.923-1.014-31.172,0.006l-9.644-7.435l4.967,16.003
			l19.881,6.198l0.218,0.169l0.16-0.049l0.16,0.049l0.22-0.169l19.883-6.198L131.918,516.263z M112.907,532.266l-5.373-3.657
			l-0.682-0.681l-0.16,0.109l-0.16-0.109l-0.679,0.681l-5.375,3.657h-9.252v-3.624c0.269,0,0.541-0.045,0.809-0.14
			c0.15-0.054,15.055-5.207,29.291-0.009c0.275,0.099,0.554,0.137,0.832,0.137v3.635L112.907,532.266L112.907,532.266z"/>
		<pattern  id="SVGID_2_" xlink:href="#SVGID_1_" patternTransform="matrix(0.5533 0 0 -0.5533 -11557.2246 -21776.5508)">
		</pattern>
		<path fill="url(#SVGID_2_)" d="M79.309,510.221"/>
	</g>
	<g>
		<g>
			<g>
				<g>
					<path id="SVGID_4_" fill="#F27261" d="M212.816,567.9c21.634,0,39.171-11.377,39.171-25.413c0-0.576-0.039-1.145-0.097-1.709
						c-4.48-0.97-9.242-0.964-14.284-1.151c-12.264-0.454-24.659-0.085-36.914,0.022c-7.552,0.055-15.125,0.007-22.69,0.007
						c-1.485,0.149-2.878,0.386-4.208,0.678c-0.092,0.71-0.149,1.428-0.149,2.153C173.645,556.523,191.182,567.9,212.816,567.9z"/>
				</g>
				<g>
					<g>
						<g>
							<defs>
								<path id="SVGID_3_" d="M212.816,567.9c21.634,0,39.171-11.377,39.171-25.413c0-0.576-0.039-1.145-0.097-1.709
									c-4.48-0.97-9.242-0.964-14.284-1.151c-12.264-0.454-24.659-0.085-36.914,0.022c-7.552,0.055-15.125,0.007-22.69,0.007
									c-1.485,0.149-2.878,0.386-4.208,0.678c-0.092,0.71-0.149,1.428-0.149,2.153C173.645,556.523,191.182,567.9,212.816,567.9z"
									/>
							</defs>
							<clipPath id="SVGID_5_">
								<use xlink:href="#SVGID_3_"  overflow="visible"/>
							</clipPath>
							<g clip-path="url(#SVGID_5_)">
								<rect x="244.874" y="537.205" fill="#F27261" width="11.059" height="11.059"/>
								<rect x="244.874" y="537.205" fill="#F27261" width="5.528" height="5.53"/>
								<rect x="250.402" y="537.205" fill="#F27261" width="5.529" height="5.53"/>
								<rect x="250.402" y="542.735" fill="#F27261" width="5.529" height="5.528"/>
								<rect x="244.874" y="542.735" fill="#F27261" width="5.528" height="5.528"/>
							</g>
						</g>
					</g>
				</g>
				<g>
					<g>
						<g>
							<defs>
								<path id="SVGID_6_" d="M212.816,567.9c21.634,0,39.171-11.377,39.171-25.413c0-0.576-0.039-1.145-0.097-1.709
									c-4.48-0.97-9.242-0.964-14.284-1.151c-12.264-0.454-24.659-0.085-36.914,0.022c-7.552,0.055-15.125,0.007-22.69,0.007
									c-1.485,0.149-2.878,0.386-4.208,0.678c-0.092,0.71-0.149,1.428-0.149,2.153C173.645,556.523,191.182,567.9,212.816,567.9z"
									/>
							</defs>
							<clipPath id="SVGID_7_">
								<use xlink:href="#SVGID_6_"  overflow="visible"/>
							</clipPath>
							<g clip-path="url(#SVGID_7_)">
								<rect x="244.874" y="548.265" fill="#F27261" width="11.059" height="11.056"/>
								<rect x="244.874" y="548.265" fill="#F27261" width="5.528" height="5.528"/>
								<rect x="250.402" y="548.265" fill="#F27261" width="5.529" height="5.528"/>
								<rect x="250.402" y="553.794" fill="#F27261" width="5.529" height="5.527"/>
								<rect x="244.874" y="553.794" fill="#F27261" width="5.528" height="5.527"/>
							</g>
						</g>
					</g>
				</g>
				<g>
					<g>
						<g>
							<defs>
								<path id="SVGID_8_" d="M212.816,567.9c21.634,0,39.171-11.377,39.171-25.413c0-0.576-0.039-1.145-0.097-1.709
									c-4.48-0.97-9.242-0.964-14.284-1.151c-12.264-0.454-24.659-0.085-36.914,0.022c-7.552,0.055-15.125,0.007-22.69,0.007
									c-1.485,0.149-2.878,0.386-4.208,0.678c-0.092,0.71-0.149,1.428-0.149,2.153C173.645,556.523,191.182,567.9,212.816,567.9z"
									/>
							</defs>
							<clipPath id="SVGID_9_">
								<use xlink:href="#SVGID_8_"  overflow="visible"/>
							</clipPath>
							<g clip-path="url(#SVGID_9_)">
								<rect x="244.874" y="559.32" fill="#F27261" width="11.059" height="11.059"/>
								<rect x="244.874" y="559.32" fill="#F27261" width="5.528" height="5.529"/>
								<rect x="250.402" y="559.32" fill="#F27261" width="5.529" height="5.529"/>
								<rect x="250.402" y="564.851" fill="#F27261" width="5.529" height="5.528"/>
								<rect x="244.874" y="564.851" fill="#F27261" width="5.528" height="5.528"/>
							</g>
						</g>
					</g>
				</g>
				<g>
					<g>
						<g>
							<defs>
								<path id="SVGID_10_" d="M212.816,567.9c21.634,0,39.171-11.377,39.171-25.413c0-0.576-0.039-1.145-0.097-1.709
									c-4.48-0.97-9.242-0.964-14.284-1.151c-12.264-0.454-24.659-0.085-36.914,0.022c-7.552,0.055-15.125,0.007-22.69,0.007
									c-1.485,0.149-2.878,0.386-4.208,0.678c-0.092,0.71-0.149,1.428-0.149,2.153C173.645,556.523,191.182,567.9,212.816,567.9z"
									/>
							</defs>
							<clipPath id="SVGID_11_">
								<use xlink:href="#SVGID_10_"  overflow="visible"/>
							</clipPath>
							<g clip-path="url(#SVGID_11_)">
								<rect x="233.818" y="537.205" fill="#F27261" width="11.056" height="11.059"/>
								<rect x="233.818" y="537.205" fill="#F27261" width="5.528" height="5.53"/>
								<rect x="239.346" y="537.205" fill="#F27261" width="5.527" height="5.53"/>
								<rect x="239.346" y="542.735" fill="#F27261" width="5.527" height="5.528"/>
								<rect x="233.818" y="542.735" fill="#F27261" width="5.528" height="5.528"/>
							</g>
						</g>
					</g>
				</g>
				<g>
					<g>
						<g>
							<defs>
								<path id="SVGID_12_" d="M212.816,567.9c21.634,0,39.171-11.377,39.171-25.413c0-0.576-0.039-1.145-0.097-1.709
									c-4.48-0.97-9.242-0.964-14.284-1.151c-12.264-0.454-24.659-0.085-36.914,0.022c-7.552,0.055-15.125,0.007-22.69,0.007
									c-1.485,0.149-2.878,0.386-4.208,0.678c-0.092,0.71-0.149,1.428-0.149,2.153C173.645,556.523,191.182,567.9,212.816,567.9z"
									/>
							</defs>
							<clipPath id="SVGID_13_">
								<use xlink:href="#SVGID_12_"  overflow="visible"/>
							</clipPath>
							<g clip-path="url(#SVGID_13_)">
								<rect x="233.818" y="548.265" fill="#F27261" width="11.056" height="11.056"/>
								<rect x="233.818" y="548.265" fill="#F27261" width="5.528" height="5.528"/>
								<rect x="239.346" y="548.265" fill="#F27261" width="5.527" height="5.528"/>
								<rect x="239.346" y="553.794" fill="#F27261" width="5.527" height="5.527"/>
								<rect x="233.818" y="553.794" fill="#F27261" width="5.528" height="5.527"/>
							</g>
						</g>
					</g>
				</g>
				<g>
					<g>
						<g>
							<defs>
								<path id="SVGID_14_" d="M212.816,567.9c21.634,0,39.171-11.377,39.171-25.413c0-0.576-0.039-1.145-0.097-1.709
									c-4.48-0.97-9.242-0.964-14.284-1.151c-12.264-0.454-24.659-0.085-36.914,0.022c-7.552,0.055-15.125,0.007-22.69,0.007
									c-1.485,0.149-2.878,0.386-4.208,0.678c-0.092,0.71-0.149,1.428-0.149,2.153C173.645,556.523,191.182,567.9,212.816,567.9z"
									/>
							</defs>
							<clipPath id="SVGID_15_">
								<use xlink:href="#SVGID_14_"  overflow="visible"/>
							</clipPath>
							<g clip-path="url(#SVGID_15_)">
								<rect x="233.818" y="559.32" fill="#F27261" width="11.056" height="11.059"/>
								<rect x="233.818" y="559.32" fill="#F27261" width="5.528" height="5.529"/>
								<rect x="239.346" y="559.32" fill="#F27261" width="5.527" height="5.529"/>
								<rect x="239.346" y="564.851" fill="#F27261" width="5.527" height="5.528"/>
								<rect x="233.818" y="564.851" fill="#F27261" width="5.528" height="5.528"/>
							</g>
						</g>
					</g>
				</g>
				<g>
					<g>
						<g>
							<defs>
								<path id="SVGID_16_" d="M212.816,567.9c21.634,0,39.171-11.377,39.171-25.413c0-0.576-0.039-1.145-0.097-1.709
									c-4.48-0.97-9.242-0.964-14.284-1.151c-12.264-0.454-24.659-0.085-36.914,0.022c-7.552,0.055-15.125,0.007-22.69,0.007
									c-1.485,0.149-2.878,0.386-4.208,0.678c-0.092,0.71-0.149,1.428-0.149,2.153C173.645,556.523,191.182,567.9,212.816,567.9z"
									/>
							</defs>
							<clipPath id="SVGID_17_">
								<use xlink:href="#SVGID_16_"  overflow="visible"/>
							</clipPath>
							<g clip-path="url(#SVGID_17_)">
								<rect x="222.759" y="537.205" fill="#F27261" width="11.059" height="11.059"/>
								<rect x="222.759" y="537.205" fill="#F27261" width="5.529" height="5.53"/>
								<rect x="228.29" y="537.205" fill="#F27261" width="5.528" height="5.53"/>
								<rect x="228.29" y="542.735" fill="#F27261" width="5.528" height="5.528"/>
								<rect x="222.759" y="542.735" fill="#F27261" width="5.529" height="5.528"/>
							</g>
						</g>
					</g>
				</g>
				<g>
					<g>
						<g>
							<defs>
								<path id="SVGID_18_" d="M212.816,567.9c21.634,0,39.171-11.377,39.171-25.413c0-0.576-0.039-1.145-0.097-1.709
									c-4.48-0.97-9.242-0.964-14.284-1.151c-12.264-0.454-24.659-0.085-36.914,0.022c-7.552,0.055-15.125,0.007-22.69,0.007
									c-1.485,0.149-2.878,0.386-4.208,0.678c-0.092,0.71-0.149,1.428-0.149,2.153C173.645,556.523,191.182,567.9,212.816,567.9z"
									/>
							</defs>
							<clipPath id="SVGID_19_">
								<use xlink:href="#SVGID_18_"  overflow="visible"/>
							</clipPath>
							<g clip-path="url(#SVGID_19_)">
								<rect x="222.759" y="548.265" fill="#F27261" width="11.059" height="11.056"/>
								<rect x="222.759" y="548.265" fill="#F27261" width="5.529" height="5.528"/>
								<rect x="228.29" y="548.265" fill="#F27261" width="5.528" height="5.528"/>
								<rect x="228.29" y="553.794" fill="#F27261" width="5.528" height="5.527"/>
								<rect x="222.759" y="553.794" fill="#F27261" width="5.529" height="5.527"/>
							</g>
						</g>
					</g>
				</g>
				<g>
					<g>
						<g>
							<defs>
								<path id="SVGID_20_" d="M212.816,567.9c21.634,0,39.171-11.377,39.171-25.413c0-0.576-0.039-1.145-0.097-1.709
									c-4.48-0.97-9.242-0.964-14.284-1.151c-12.264-0.454-24.659-0.085-36.914,0.022c-7.552,0.055-15.125,0.007-22.69,0.007
									c-1.485,0.149-2.878,0.386-4.208,0.678c-0.092,0.71-0.149,1.428-0.149,2.153C173.645,556.523,191.182,567.9,212.816,567.9z"
									/>
							</defs>
							<clipPath id="SVGID_21_">
								<use xlink:href="#SVGID_20_"  overflow="visible"/>
							</clipPath>
							<g clip-path="url(#SVGID_21_)">
								<rect x="222.759" y="559.32" fill="#F27261" width="11.059" height="11.059"/>
								<rect x="222.759" y="559.32" fill="#F27261" width="5.529" height="5.529"/>
								<rect x="228.29" y="559.32" fill="#F27261" width="5.528" height="5.529"/>
								<rect x="228.29" y="564.851" fill="#F27261" width="5.528" height="5.528"/>
								<rect x="222.759" y="564.851" fill="#F27261" width="5.529" height="5.528"/>
							</g>
						</g>
					</g>
				</g>
				<g>
					<g>
						<g>
							<defs>
								<path id="SVGID_22_" d="M212.816,567.9c21.634,0,39.171-11.377,39.171-25.413c0-0.576-0.039-1.145-0.097-1.709
									c-4.48-0.97-9.242-0.964-14.284-1.151c-12.264-0.454-24.659-0.085-36.914,0.022c-7.552,0.055-15.125,0.007-22.69,0.007
									c-1.485,0.149-2.878,0.386-4.208,0.678c-0.092,0.71-0.149,1.428-0.149,2.153C173.645,556.523,191.182,567.9,212.816,567.9z"
									/>
							</defs>
							<clipPath id="SVGID_23_">
								<use xlink:href="#SVGID_22_"  overflow="visible"/>
							</clipPath>
							<g clip-path="url(#SVGID_23_)">
								<rect x="211.702" y="537.205" fill="#F27261" width="11.058" height="11.059"/>
								<rect x="211.702" y="537.205" fill="#F27261" width="5.528" height="5.53"/>
								<rect x="217.231" y="537.205" fill="#F27261" width="5.528" height="5.53"/>
								<rect x="217.231" y="542.735" fill="#F27261" width="5.528" height="5.528"/>
								<rect x="211.702" y="542.735" fill="#F27261" width="5.528" height="5.528"/>
							</g>
						</g>
					</g>
				</g>
				<g>
					<g>
						<g>
							<defs>
								<path id="SVGID_24_" d="M212.816,567.9c21.634,0,39.171-11.377,39.171-25.413c0-0.576-0.039-1.145-0.097-1.709
									c-4.48-0.97-9.242-0.964-14.284-1.151c-12.264-0.454-24.659-0.085-36.914,0.022c-7.552,0.055-15.125,0.007-22.69,0.007
									c-1.485,0.149-2.878,0.386-4.208,0.678c-0.092,0.71-0.149,1.428-0.149,2.153C173.645,556.523,191.182,567.9,212.816,567.9z"
									/>
							</defs>
							<clipPath id="SVGID_25_">
								<use xlink:href="#SVGID_24_"  overflow="visible"/>
							</clipPath>
							<g clip-path="url(#SVGID_25_)">
								<rect x="211.702" y="548.265" fill="#F27261" width="11.058" height="11.056"/>
								<rect x="211.702" y="548.265" fill="#F27261" width="5.528" height="5.528"/>
								<rect x="217.231" y="548.265" fill="#F27261" width="5.528" height="5.528"/>
								<rect x="217.231" y="553.794" fill="#F27261" width="5.528" height="5.527"/>
								<rect x="211.702" y="553.794" fill="#F27261" width="5.528" height="5.527"/>
							</g>
						</g>
					</g>
				</g>
				<g>
					<g>
						<g>
							<defs>
								<path id="SVGID_26_" d="M212.816,567.9c21.634,0,39.171-11.377,39.171-25.413c0-0.576-0.039-1.145-0.097-1.709
									c-4.48-0.97-9.242-0.964-14.284-1.151c-12.264-0.454-24.659-0.085-36.914,0.022c-7.552,0.055-15.125,0.007-22.69,0.007
									c-1.485,0.149-2.878,0.386-4.208,0.678c-0.092,0.71-0.149,1.428-0.149,2.153C173.645,556.523,191.182,567.9,212.816,567.9z"
									/>
							</defs>
							<clipPath id="SVGID_27_">
								<use xlink:href="#SVGID_26_"  overflow="visible"/>
							</clipPath>
							<g clip-path="url(#SVGID_27_)">
								<rect x="211.702" y="559.32" fill="#F27261" width="11.058" height="11.059"/>
								<rect x="211.702" y="559.32" fill="#F27261" width="5.528" height="5.529"/>
								<rect x="217.231" y="559.32" fill="#F27261" width="5.528" height="5.529"/>
								<rect x="217.231" y="564.851" fill="#F27261" width="5.528" height="5.528"/>
								<rect x="211.702" y="564.851" fill="#F27261" width="5.528" height="5.528"/>
							</g>
						</g>
					</g>
				</g>
				<g>
					<g>
						<g>
							<defs>
								<path id="SVGID_28_" d="M212.816,567.9c21.634,0,39.171-11.377,39.171-25.413c0-0.576-0.039-1.145-0.097-1.709
									c-4.48-0.97-9.242-0.964-14.284-1.151c-12.264-0.454-24.659-0.085-36.914,0.022c-7.552,0.055-15.125,0.007-22.69,0.007
									c-1.485,0.149-2.878,0.386-4.208,0.678c-0.092,0.71-0.149,1.428-0.149,2.153C173.645,556.523,191.182,567.9,212.816,567.9z"
									/>
							</defs>
							<clipPath id="SVGID_29_">
								<use xlink:href="#SVGID_28_"  overflow="visible"/>
							</clipPath>
							<g clip-path="url(#SVGID_29_)">
								<rect x="200.644" y="537.205" fill="#F27261" width="11.059" height="11.059"/>
								<rect x="200.644" y="537.205" fill="#F27261" width="5.528" height="5.53"/>
								<rect x="206.172" y="537.205" fill="#F27261" width="5.529" height="5.53"/>
								<rect x="206.172" y="542.735" fill="#F27261" width="5.529" height="5.528"/>
								<rect x="200.644" y="542.735" fill="#F27261" width="5.528" height="5.528"/>
							</g>
						</g>
					</g>
				</g>
				<g>
					<g>
						<g>
							<defs>
								<path id="SVGID_30_" d="M212.816,567.9c21.634,0,39.171-11.377,39.171-25.413c0-0.576-0.039-1.145-0.097-1.709
									c-4.48-0.97-9.242-0.964-14.284-1.151c-12.264-0.454-24.659-0.085-36.914,0.022c-7.552,0.055-15.125,0.007-22.69,0.007
									c-1.485,0.149-2.878,0.386-4.208,0.678c-0.092,0.71-0.149,1.428-0.149,2.153C173.645,556.523,191.182,567.9,212.816,567.9z"
									/>
							</defs>
							<clipPath id="SVGID_31_">
								<use xlink:href="#SVGID_30_"  overflow="visible"/>
							</clipPath>
							<g clip-path="url(#SVGID_31_)">
								<rect x="200.644" y="548.265" fill="#F27261" width="11.059" height="11.056"/>
								<rect x="200.644" y="548.265" fill="#F27261" width="5.528" height="5.528"/>
								<rect x="206.172" y="548.265" fill="#F27261" width="5.529" height="5.528"/>
								<rect x="206.172" y="553.794" fill="#F27261" width="5.529" height="5.527"/>
								<rect x="200.644" y="553.794" fill="#F27261" width="5.528" height="5.527"/>
							</g>
						</g>
					</g>
				</g>
				<g>
					<g>
						<g>
							<defs>
								<path id="SVGID_32_" d="M212.816,567.9c21.634,0,39.171-11.377,39.171-25.413c0-0.576-0.039-1.145-0.097-1.709
									c-4.48-0.97-9.242-0.964-14.284-1.151c-12.264-0.454-24.659-0.085-36.914,0.022c-7.552,0.055-15.125,0.007-22.69,0.007
									c-1.485,0.149-2.878,0.386-4.208,0.678c-0.092,0.71-0.149,1.428-0.149,2.153C173.645,556.523,191.182,567.9,212.816,567.9z"
									/>
							</defs>
							<clipPath id="SVGID_33_">
								<use xlink:href="#SVGID_32_"  overflow="visible"/>
							</clipPath>
							<g clip-path="url(#SVGID_33_)">
								<rect x="200.644" y="559.32" fill="#F27261" width="11.059" height="11.059"/>
								<rect x="200.644" y="559.32" fill="#F27261" width="5.528" height="5.529"/>
								<rect x="206.172" y="559.32" fill="#F27261" width="5.529" height="5.529"/>
								<rect x="206.172" y="564.851" fill="#F27261" width="5.529" height="5.528"/>
								<rect x="200.644" y="564.851" fill="#F27261" width="5.528" height="5.528"/>
							</g>
						</g>
					</g>
				</g>
				<g>
					<g>
						<g>
							<defs>
								<path id="SVGID_34_" d="M212.816,567.9c21.634,0,39.171-11.377,39.171-25.413c0-0.576-0.039-1.145-0.097-1.709
									c-4.48-0.97-9.242-0.964-14.284-1.151c-12.264-0.454-24.659-0.085-36.914,0.022c-7.552,0.055-15.125,0.007-22.69,0.007
									c-1.485,0.149-2.878,0.386-4.208,0.678c-0.092,0.71-0.149,1.428-0.149,2.153C173.645,556.523,191.182,567.9,212.816,567.9z"
									/>
							</defs>
							<clipPath id="SVGID_35_">
								<use xlink:href="#SVGID_34_"  overflow="visible"/>
							</clipPath>
							<g clip-path="url(#SVGID_35_)">
								<rect x="189.587" y="537.205" fill="#F27261" width="11.058" height="11.059"/>
								<rect x="189.587" y="537.205" fill="#F27261" width="5.528" height="5.53"/>
								<rect x="195.115" y="537.205" fill="#F27261" width="5.528" height="5.53"/>
								<rect x="195.115" y="542.735" fill="#F27261" width="5.528" height="5.528"/>
								<rect x="189.587" y="542.735" fill="#F27261" width="5.528" height="5.528"/>
							</g>
						</g>
					</g>
				</g>
				<g>
					<g>
						<g>
							<defs>
								<path id="SVGID_36_" d="M212.816,567.9c21.634,0,39.171-11.377,39.171-25.413c0-0.576-0.039-1.145-0.097-1.709
									c-4.48-0.97-9.242-0.964-14.284-1.151c-12.264-0.454-24.659-0.085-36.914,0.022c-7.552,0.055-15.125,0.007-22.69,0.007
									c-1.485,0.149-2.878,0.386-4.208,0.678c-0.092,0.71-0.149,1.428-0.149,2.153C173.645,556.523,191.182,567.9,212.816,567.9z"
									/>
							</defs>
							<clipPath id="SVGID_37_">
								<use xlink:href="#SVGID_36_"  overflow="visible"/>
							</clipPath>
							<g clip-path="url(#SVGID_37_)">
								<rect x="189.587" y="548.265" fill="#F27261" width="11.058" height="11.056"/>
								<rect x="189.587" y="548.265" fill="#F27261" width="5.528" height="5.528"/>
								<rect x="195.115" y="548.265" fill="#F27261" width="5.528" height="5.528"/>
								<rect x="195.115" y="553.794" fill="#F27261" width="5.528" height="5.527"/>
								<rect x="189.587" y="553.794" fill="#F27261" width="5.528" height="5.527"/>
							</g>
						</g>
					</g>
				</g>
				<g>
					<g>
						<g>
							<defs>
								<path id="SVGID_38_" d="M212.816,567.9c21.634,0,39.171-11.377,39.171-25.413c0-0.576-0.039-1.145-0.097-1.709
									c-4.48-0.97-9.242-0.964-14.284-1.151c-12.264-0.454-24.659-0.085-36.914,0.022c-7.552,0.055-15.125,0.007-22.69,0.007
									c-1.485,0.149-2.878,0.386-4.208,0.678c-0.092,0.71-0.149,1.428-0.149,2.153C173.645,556.523,191.182,567.9,212.816,567.9z"
									/>
							</defs>
							<clipPath id="SVGID_39_">
								<use xlink:href="#SVGID_38_"  overflow="visible"/>
							</clipPath>
							<g clip-path="url(#SVGID_39_)">
								<rect x="189.587" y="559.32" fill="#F27261" width="11.058" height="11.059"/>
								<rect x="189.587" y="559.32" fill="#F27261" width="5.528" height="5.529"/>
								<rect x="195.115" y="559.32" fill="#F27261" width="5.528" height="5.529"/>
								<rect x="195.115" y="564.851" fill="#F27261" width="5.528" height="5.528"/>
								<rect x="189.587" y="564.851" fill="#F27261" width="5.528" height="5.528"/>
							</g>
						</g>
					</g>
				</g>
				<g>
					<g>
						<g>
							<defs>
								<path id="SVGID_40_" d="M212.816,567.9c21.634,0,39.171-11.377,39.171-25.413c0-0.576-0.039-1.145-0.097-1.709
									c-4.48-0.97-9.242-0.964-14.284-1.151c-12.264-0.454-24.659-0.085-36.914,0.022c-7.552,0.055-15.125,0.007-22.69,0.007
									c-1.485,0.149-2.878,0.386-4.208,0.678c-0.092,0.71-0.149,1.428-0.149,2.153C173.645,556.523,191.182,567.9,212.816,567.9z"
									/>
							</defs>
							<clipPath id="SVGID_41_">
								<use xlink:href="#SVGID_40_"  overflow="visible"/>
							</clipPath>
							<g clip-path="url(#SVGID_41_)">
								<rect x="178.529" y="537.205" fill="#F27261" width="11.058" height="11.059"/>
								<rect x="178.529" y="537.205" fill="#F27261" width="5.528" height="5.53"/>
								<rect x="184.059" y="537.205" fill="#F27261" width="5.528" height="5.53"/>
								<rect x="184.059" y="542.735" fill="#F27261" width="5.528" height="5.528"/>
								<rect x="178.529" y="542.735" fill="#F27261" width="5.528" height="5.528"/>
							</g>
						</g>
					</g>
				</g>
				<g>
					<g>
						<g>
							<defs>
								<path id="SVGID_42_" d="M212.816,567.9c21.634,0,39.171-11.377,39.171-25.413c0-0.576-0.039-1.145-0.097-1.709
									c-4.48-0.97-9.242-0.964-14.284-1.151c-12.264-0.454-24.659-0.085-36.914,0.022c-7.552,0.055-15.125,0.007-22.69,0.007
									c-1.485,0.149-2.878,0.386-4.208,0.678c-0.092,0.71-0.149,1.428-0.149,2.153C173.645,556.523,191.182,567.9,212.816,567.9z"
									/>
							</defs>
							<clipPath id="SVGID_43_">
								<use xlink:href="#SVGID_42_"  overflow="visible"/>
							</clipPath>
							<g clip-path="url(#SVGID_43_)">
								<rect x="178.529" y="548.265" fill="#F27261" width="11.058" height="11.056"/>
								<rect x="178.529" y="548.265" fill="#F27261" width="5.528" height="5.528"/>
								<rect x="184.059" y="548.265" fill="#F27261" width="5.528" height="5.528"/>
								<rect x="184.059" y="553.794" fill="#F27261" width="5.528" height="5.527"/>
								<rect x="178.529" y="553.794" fill="#F27261" width="5.528" height="5.527"/>
							</g>
						</g>
					</g>
				</g>
				<g>
					<g>
						<g>
							<defs>
								<path id="SVGID_44_" d="M212.816,567.9c21.634,0,39.171-11.377,39.171-25.413c0-0.576-0.039-1.145-0.097-1.709
									c-4.48-0.97-9.242-0.964-14.284-1.151c-12.264-0.454-24.659-0.085-36.914,0.022c-7.552,0.055-15.125,0.007-22.69,0.007
									c-1.485,0.149-2.878,0.386-4.208,0.678c-0.092,0.71-0.149,1.428-0.149,2.153C173.645,556.523,191.182,567.9,212.816,567.9z"
									/>
							</defs>
							<clipPath id="SVGID_45_">
								<use xlink:href="#SVGID_44_"  overflow="visible"/>
							</clipPath>
							<g clip-path="url(#SVGID_45_)">
								<rect x="178.529" y="559.32" fill="#F27261" width="11.058" height="11.059"/>
								<rect x="178.529" y="559.32" fill="#F27261" width="5.528" height="5.529"/>
								<rect x="184.059" y="559.32" fill="#F27261" width="5.528" height="5.529"/>
								<rect x="184.059" y="564.851" fill="#F27261" width="5.528" height="5.528"/>
								<rect x="178.529" y="564.851" fill="#F27261" width="5.528" height="5.528"/>
							</g>
						</g>
					</g>
				</g>
				<g>
					<g>
						<g>
							<defs>
								<path id="SVGID_46_" d="M212.816,567.9c21.634,0,39.171-11.377,39.171-25.413c0-0.576-0.039-1.145-0.097-1.709
									c-4.48-0.97-9.242-0.964-14.284-1.151c-12.264-0.454-24.659-0.085-36.914,0.022c-7.552,0.055-15.125,0.007-22.69,0.007
									c-1.485,0.149-2.878,0.386-4.208,0.678c-0.092,0.71-0.149,1.428-0.149,2.153C173.645,556.523,191.182,567.9,212.816,567.9z"
									/>
							</defs>
							<clipPath id="SVGID_47_">
								<use xlink:href="#SVGID_46_"  overflow="visible"/>
							</clipPath>
							<g clip-path="url(#SVGID_47_)">
								<rect x="167.472" y="537.205" fill="#F27261" width="11.059" height="11.059"/>
								<rect x="167.472" y="537.205" fill="#F27261" width="5.528" height="5.53"/>
								<rect x="173" y="537.205" fill="#F27261" width="5.529" height="5.53"/>
								<rect x="173" y="542.735" fill="#F27261" width="5.529" height="5.528"/>
								<rect x="167.472" y="542.735" fill="#F27261" width="5.528" height="5.528"/>
							</g>
						</g>
					</g>
				</g>
				<g>
					<g>
						<g>
							<defs>
								<path id="SVGID_48_" d="M212.816,567.9c21.634,0,39.171-11.377,39.171-25.413c0-0.576-0.039-1.145-0.097-1.709
									c-4.48-0.97-9.242-0.964-14.284-1.151c-12.264-0.454-24.659-0.085-36.914,0.022c-7.552,0.055-15.125,0.007-22.69,0.007
									c-1.485,0.149-2.878,0.386-4.208,0.678c-0.092,0.71-0.149,1.428-0.149,2.153C173.645,556.523,191.182,567.9,212.816,567.9z"
									/>
							</defs>
							<clipPath id="SVGID_49_">
								<use xlink:href="#SVGID_48_"  overflow="visible"/>
							</clipPath>
							<g clip-path="url(#SVGID_49_)">
								<rect x="167.472" y="548.265" fill="#F27261" width="11.059" height="11.056"/>
								<rect x="167.472" y="548.265" fill="#F27261" width="5.528" height="5.528"/>
								<rect x="173" y="548.265" fill="#F27261" width="5.529" height="5.528"/>
								<rect x="173" y="553.794" fill="#F27261" width="5.529" height="5.527"/>
								<rect x="167.472" y="553.794" fill="#F27261" width="5.528" height="5.527"/>
							</g>
						</g>
					</g>
				</g>
				<g>
					<g>
						<g>
							<defs>
								<path id="SVGID_50_" d="M212.816,567.9c21.634,0,39.171-11.377,39.171-25.413c0-0.576-0.039-1.145-0.097-1.709
									c-4.48-0.97-9.242-0.964-14.284-1.151c-12.264-0.454-24.659-0.085-36.914,0.022c-7.552,0.055-15.125,0.007-22.69,0.007
									c-1.485,0.149-2.878,0.386-4.208,0.678c-0.092,0.71-0.149,1.428-0.149,2.153C173.645,556.523,191.182,567.9,212.816,567.9z"
									/>
							</defs>
							<clipPath id="SVGID_51_">
								<use xlink:href="#SVGID_50_"  overflow="visible"/>
							</clipPath>
							<g clip-path="url(#SVGID_51_)">
								<rect x="167.472" y="559.32" fill="#F27261" width="11.059" height="11.059"/>
								<rect x="167.472" y="559.32" fill="#F27261" width="5.528" height="5.529"/>
								<rect x="173" y="559.32" fill="#F27261" width="5.529" height="5.529"/>
								<rect x="173" y="564.851" fill="#F27261" width="5.529" height="5.528"/>
								<rect x="167.472" y="564.851" fill="#F27261" width="5.528" height="5.528"/>
							</g>
						</g>
					</g>
				</g>
			</g>
		</g>
		<g>
			<path fill="#E9C3BB" d="M239.193,518.492c0,14.566-11.808,26.374-26.377,26.374l0,0c-14.566,0-26.375-11.808-26.375-26.374
				v-10.76c0-14.569,11.809-26.378,26.375-26.378l0,0c14.569,0,26.377,11.809,26.377,26.378V518.492z"/>
		</g>
		<g>
			<path fill="#FDE466" d="M237.319,512.817l2.57-9.138c0-15.608-11.423-28.264-27.035-28.264h-1.306
				c-15.611,0-25.807,12.656-25.807,28.264l1.831,9.122L237.319,512.817z"/>
		</g>
		<g>
			<path fill="#E9C3BB" d="M186.76,505.019c0,14.39,11.669,26.055,26.046,26.055c14.406,0,26.068-11.665,26.068-26.055
				c0-2.431-0.357-4.774-0.979-7.007H187.74C187.117,500.246,186.76,502.588,186.76,505.019z"/>
		</g>
		<g>
			<g>
				<path fill="#FDE466" d="M217.821,480.449l0.155-0.614c-1.645-1.228-2.964-2.315-5.336-2.303
					c-2.015,0.009-4.065,0.409-6.067,0.578c-4.11,0.351-9.025,0.748-12.217,3.564c-1.503,1.326-2.863,2.656-4.106,4.158
					c0.042,0.172,0.07,0.348,0.07,0.53c0,0.46-0.144,0.883-0.385,1.243c-0.083,0.199-0.188,0.391-0.329,0.564
					c-0.187,0.435-0.573,0.829-0.946,1.048c-0.237,0.139-0.497,0.224-0.762,0.271c-0.55,1.243-0.964,2.532-1.529,3.833
					c-0.87,2.005-1.513,3.625-1.577,5.875c-0.042,1.473-0.602,3.905,0.01,5.168c1.202-0.88,0.434-2.265,1.336-2.974
					c0.794,1.628,1.665,3.006,2.145,4.812c1.186-2.75,2.464-5.053,4.913-7.056c1.425-1.167,3.095-1.39,4.385-2.789
					c1.043-1.13,3.012-2.707,3.36-4.235c0.172,1.983-1.042,5.114-2.183,6.692c2.097-0.679,4.17-2.698,6.166-3.742
					c2.066-1.081,4.308-1.766,6.385-2.825c2.776-1.415,4.533-3.421,5.677-6.321C217.484,484.67,218.443,481.736,217.821,480.449z"/>
			</g>
			<g>
				<path fill="#FDE466" d="M239.023,500.233c-0.6-2.135-1.872-4.035-2.271-6.226c1.344-0.288,2.413,1.19,3.637,0.561
					c-1.075-2.002-3.227-3.646-4.425-5.691c-1.295-0.192-2.502-0.654-3.411-1.765c-0.328-0.401-0.54-0.862-0.616-1.337
					c-0.481-0.258-0.968-0.512-1.441-0.794c-2.943-1.755-4.355-4.291-6.867-6.416c-1.948-1.647-5.383-1.615-7.82-1.495
					c-0.892,0.047-3.048,0.165-3.224,1.418c-0.103,0.749,1.626,3.185,2.165,3.807c1.034,0.674,1.643,3.068,2.417,4.148
					c0.988,1.381,2.104,2.678,3.146,4.013c1.052,1.35,2.079,2.771,2.926,4.269c0.861,1.527,1.317,3.23,2.608,4.473
					c2.709,2.608,5.404,1.167,8.562,1.989c1.706,0.444,2.466,1.842,3.474,3.194c1.098,1.475,1.482,1.288,3.233,1.835
					C239.84,505.022,239.483,501.865,239.023,500.233z"/>
			</g>
		</g>
		<g>
			<path fill="#0C6667" d="M212.108,472.215c-10.463,0-19.527,6.529-24.02,16.068h48.059
				C231.656,478.746,222.591,472.215,212.108,472.215z"/>
		</g>
		<g>
			<path fill="#D5B129" d="M227.338,523.271c0,0,0.77,2.333-2.464,2.725c-3.201,0.393-4.036-1.521-7.058-2.226
				c-2.107-0.492-3.982-0.484-5,0.371c-1.018-0.855-2.897-0.862-5.002-0.371c-3.02,0.704-3.854,2.618-7.056,2.226
				c-3.236-0.393-2.464-2.725-2.464-2.725s-2.65,5.764,7.842,5.757c3.131,0,5.511-0.446,6.68-1.438
				c1.17,0.992,3.549,1.438,6.682,1.438C229.99,529.035,227.338,523.271,227.338,523.271z"/>
		</g>
		<g>
			<rect x="188.139" y="487.054" fill="#4DC7E5" width="47.958" height="2.457"/>
		</g>
		<g>
			<g>
				<path fill="#352F31" d="M230.726,489.226c-1.136-7.782-9.032-13.811-18.608-13.811c-9.577,0-17.473,6.029-18.609,13.811H230.726
					z"/>
			</g>
		</g>
	</g>
	<g>
		<ellipse fill="#A163A7" cx="212.282" cy="366.71" rx="16.132" ry="14.681"/>
		<path fill="#991C3B" d="M213.142,454.067c21.574,0,39.063-11.346,39.063-25.344c0-0.573-0.039-1.141-0.097-1.706
			c-4.469-0.966-9.216-0.96-14.246-1.145c-12.229-0.455-24.589-0.085-36.811,0.021c-7.53,0.055-15.083,0.009-22.628,0.009
			c-1.481,0.147-2.869,0.385-4.195,0.673c-0.092,0.71-0.15,1.426-0.15,2.149C174.079,442.721,191.568,454.067,213.142,454.067z"/>
		<g>
			<polygon fill="#EE4270" points="234.912,434.993 234.912,423.494 191.373,423.494 191.373,434.993 213.142,454.9 			"/>
		</g>
		<path fill="#61C6C7" d="M207.665,427.919c0.016,0,0.049,0,0.065,0c0.017,0.023,0.037,0.047,0.055,0.07
			c-0.01,0.038-0.022,0.074-0.037,0.112c-0.037,0.053-0.074,0.111-0.127,0.151c-0.108,0.087-0.182,0.21-0.278,0.309
			c-0.215,0.253-0.437,0.507-0.627,0.784c-0.013,0.031-0.026,0.063-0.039,0.092c0.01,0.021,0.022,0.042,0.032,0.064
			c0.029,0.01,0.059,0.023,0.093,0.029c0.102-0.017,0.205-0.049,0.3-0.09c0.051-0.023,0.101-0.044,0.151-0.063
			c0.073-0.033,0.183-0.119,0.241-0.022c-0.054,0.102-0.16,0.155-0.264,0.192c-0.031,0.009-0.059,0.016-0.087,0.026
			c-0.167,0.038-0.341,0.055-0.503,0.115c-0.047,0.015-0.077,0.053-0.103,0.092c-0.054,0.214-0.033,0.437-0.029,0.654
			c0.028,0.182,0.083,0.36,0.149,0.53c0.06,0.128,0.15,0.239,0.237,0.351c0.108,0.117,0.242,0.205,0.381,0.283
			c0.054,0.025,0.143,0.059,0.182-0.005c0.032-0.117-0.031-0.231-0.053-0.342c-0.051-0.201-0.111-0.408-0.063-0.614
			c0.019-0.035,0.041-0.074,0.061-0.108c0.019,0,0.054,0,0.073,0c0.017,0.048,0.035,0.095,0.035,0.145
			c0.019,0.194,0.025,0.387,0.076,0.573c0.031,0.093,0.061,0.185,0.097,0.271c0.057,0.085,0.102,0.181,0.198,0.224
			c0.015,0.007,0.042,0.022,0.055,0.029c0.125,0.003,0.265,0.026,0.374-0.053c0.161-0.107,0.272-0.275,0.363-0.445
			c0.016-0.032,0.032-0.064,0.049-0.098c0.029-0.067,0.059-0.137,0.075-0.21c0.007-0.102,0.007-0.205,0.033-0.305
			c0.013-0.041,0.059-0.038,0.095-0.045c0.14,0.171,0.047,0.399-0.007,0.583c-0.026,0.057-0.049,0.115-0.077,0.172
			c-0.02,0.049-0.041,0.099-0.064,0.147c-0.003,0.044-0.003,0.087-0.003,0.129c0.085,0.058,0.178,0,0.261-0.029
			c0.033-0.015,0.067-0.035,0.099-0.051c0.011-0.005,0.037-0.016,0.047-0.022c0.243-0.153,0.46-0.341,0.668-0.535
			c0.067-0.049,0.124-0.113,0.146-0.195c0.017-0.137,0.003-0.274-0.049-0.402c-0.069-0.125-0.176-0.223-0.3-0.297
			c-0.051-0.029-0.099-0.058-0.15-0.086c-0.022-0.01-0.047-0.022-0.069-0.037c-0.015-0.005-0.037-0.016-0.049-0.023
			c-0.032-0.017-0.064-0.032-0.096-0.049c-0.015-0.006-0.037-0.017-0.049-0.023c-0.067-0.035-0.134-0.071-0.201-0.111
			c-0.099-0.064-0.187-0.149-0.249-0.247c-0.039-0.061-0.069-0.129-0.055-0.204c0.019-0.003,0.055-0.006,0.073-0.007
			c0.048,0.035,0.083,0.083,0.117,0.133c0.016,0.026,0.033,0.051,0.049,0.074c0.042,0.079,0.113,0.134,0.188,0.181
			c0.183,0.08,0.381,0.128,0.577,0.172c0.033,0.009,0.065-0.016,0.099-0.025c0.013-0.119-0.089-0.203-0.155-0.284
			c-0.09-0.108-0.147-0.235-0.198-0.363c-0.057-0.117-0.191-0.166-0.278-0.259c-0.123-0.138-0.235-0.283-0.317-0.445
			c-0.017-0.041-0.035-0.081-0.054-0.122c-0.003-0.011-0.006-0.032-0.01-0.044c-0.023-0.049-0.021-0.108-0.016-0.16
			c0.038-0.032,0.089-0.012,0.113,0.026c0.069,0.092,0.123,0.195,0.16,0.3c0.033,0.067,0.065,0.131,0.096,0.198
			c0.042,0.07,0.095,0.16,0.188,0.157c0.099-0.095,0.019-0.229,0.035-0.345c0.013-0.095,0.007-0.21,0.103-0.265
			c0.057-0.01,0.081,0.055,0.112,0.089c-0.007,0.099-0.041,0.197-0.074,0.293c-0.015,0.119-0.007,0.245,0.029,0.361
			c0.007,0.025,0.017,0.049,0.025,0.074c0.017,0.041,0.032,0.081,0.048,0.122c0.032,0.081,0.108,0.213,0.208,0.134
			c0.042,0,0.101-0.02,0.122,0.033c0.037,0.107,0.058,0.22,0.108,0.323c0.011,0.023,0.025,0.045,0.037,0.069
			c0.035,0.076,0.081,0.149,0.122,0.221c0.016,0.039,0.033,0.081,0.051,0.123c0.093,0.261,0.011,0.538-0.099,0.781
			c-0.15,0.313-0.456,0.502-0.74,0.676c-0.24,0.157-0.507,0.3-0.67,0.545c0.003,0.057-0.021,0.134,0.048,0.16
			c0.06,0.045,0.13,0.003,0.185-0.022c0.051-0.021,0.099-0.044,0.15-0.063c0.029-0.013,0.063-0.023,0.093-0.038
			c0.172-0.049,0.348-0.089,0.526-0.095c0.138,0.006,0.274,0.025,0.406,0.07c0.058,0.025,0.117,0.051,0.155,0.107
			c0.012,0.051-0.007,0.101-0.027,0.147c-0.129,0.245-0.316,0.469-0.568,0.589c-0.041,0.017-0.081,0.033-0.121,0.051
			c-0.163,0.054-0.333,0.065-0.502,0.081c-0.011,0.006-0.035,0.022-0.044,0.029c-0.041,0.111,0,0.223-0.003,0.337
			c0.019,0.208,0.032,0.417,0.077,0.622c0.035,0.127,0.092,0.263,0.223,0.325c0.037,0.006,0.073,0.021,0.108,0.026
			c0.348,0.022,0.696-0.009,1.042,0.016c0.224,0.009,0.424,0.147,0.647,0.135c0.29,0.003,0.577,0.011,0.862-0.044
			c0.313-0.049,0.627-0.107,0.941-0.153c0.341-0.039,0.685-0.016,1.026-0.022c0.163,0.017,0.327,0.026,0.488,0.025
			c0.584,0.045,1.173,0.083,1.747,0.208c0.011,0.003,0.035,0.007,0.045,0.009c0.041,0.017,0.081,0.035,0.121,0.053
			c0.09,0.051,0.182,0.099,0.267,0.157c0.053,0.032,0.101,0.064,0.149,0.098c0.117,0.083,0.235,0.167,0.339,0.268
			c0.173,0.127,0.307,0.299,0.439,0.466c0.074,0.101,0.14,0.204,0.198,0.315c0.017,0.039,0.038,0.08,0.057,0.117
			c0.027,0.057,0.051,0.113,0.077,0.171c0.019,0.065,0.041,0.129,0.06,0.197c0.045,0.163,0.069,0.332,0.074,0.502
			c-0.011,0.181-0.022,0.361-0.006,0.544c0.071,0.373,0.163,0.744,0.297,1.104c0.016,0.039,0.033,0.081,0.049,0.121
			c0.017,0.042,0.033,0.083,0.048,0.124c0.016,0.032,0.033,0.065,0.049,0.099c0.149,0.283,0.337,0.554,0.592,0.75
			c0.125,0.124,0.124,0.313,0.14,0.473c0.022,0.14,0.01,0.279,0.032,0.419c0.006,0.188,0,0.375,0.026,0.561
			c-0.001,0.153,0.021,0.303,0.039,0.456c0.025,0.127,0.074,0.246,0.089,0.374c0.045,0.332,0.125,0.682,0.012,1.011
			c-0.051,0.113-0.153,0.208-0.277,0.231c-0.137,0.015-0.279,0.005-0.406-0.053c-0.054-0.037-0.107-0.113-0.075-0.179
			c0.039-0.127,0.204-0.15,0.229-0.289c0.025-0.105,0.085-0.199,0.127-0.299c0.017-0.102-0.026-0.201-0.02-0.301
			c0.064-0.192-0.016-0.386-0.032-0.577c-0.044-0.21-0.074-0.422-0.123-0.631c-0.017-0.041-0.032-0.085-0.049-0.124
			c-0.007-0.011-0.02-0.037-0.025-0.049c-0.007-0.011-0.019-0.037-0.025-0.048c-0.006-0.011-0.02-0.038-0.025-0.047
			c-0.007-0.015-0.017-0.038-0.023-0.053c-0.007-0.011-0.021-0.037-0.026-0.048c-0.004-0.013-0.017-0.037-0.023-0.048
			c-0.007-0.013-0.017-0.038-0.025-0.049c-0.029-0.057-0.063-0.117-0.096-0.172c-0.035-0.059-0.081-0.113-0.135-0.157
			c-0.017,0.003-0.054,0.003-0.071,0.003c-0.009,0.013-0.023,0.044-0.033,0.055c-0.009,0.233-0.01,0.469,0.019,0.7
			c-0.009,0.401,0.041,0.798,0.103,1.195c0.045,0.312,0.109,0.631,0.037,0.941c-0.009,0.023-0.019,0.047-0.026,0.07
			c-0.051,0.115-0.15,0.208-0.275,0.235c-0.139,0.011-0.281,0.003-0.408-0.055c-0.061-0.041-0.111-0.127-0.065-0.195
			c0.023-0.071,0.091-0.105,0.149-0.146c0.038-0.032,0.049-0.083,0.073-0.124c0.026-0.109,0.085-0.203,0.128-0.301
			c0.01-0.096-0.017-0.185-0.026-0.278c0.041-0.153,0.037-0.316,0.009-0.471c-0.032-0.329-0.124-0.647-0.246-0.954
			c-0.027-0.067-0.055-0.135-0.085-0.201c-0.177-0.335-0.415-0.638-0.7-0.89c-0.157-0.128-0.323-0.253-0.5-0.355
			c-0.051-0.029-0.101-0.058-0.151-0.089c-0.023-0.011-0.047-0.023-0.069-0.037c-0.013-0.006-0.037-0.016-0.049-0.022
			c-0.058-0.025-0.117-0.045-0.172-0.074c-0.041-0.015-0.081-0.031-0.121-0.047c-0.105-0.041-0.213-0.089-0.279-0.179
			c-0.124-0.153-0.289-0.269-0.402-0.433c-0.047-0.073-0.149-0.069-0.221-0.041c-0.049,0.023-0.101,0.044-0.151,0.064
			c-0.045,0.023-0.095,0.041-0.141,0.061c-0.447,0.151-0.916,0.195-1.382,0.218c-0.211-0.023-0.427-0.023-0.637-0.053
			c-0.226-0.033-0.447-0.065-0.663-0.127c-0.06-0.016-0.123-0.009-0.181-0.01c-0.031,0.038-0.065,0.073-0.058,0.125
			c-0.031,0.637-0.129,1.269-0.179,1.905c-0.023,0.144-0.015,0.293-0.023,0.438c-0.029,0.233-0.026,0.471,0.001,0.702
			c0.003,0.187,0.025,0.371,0.069,0.552c0.035,0.159,0.051,0.322,0.079,0.482c0.027,0.243,0.054,0.5-0.032,0.734
			c-0.053,0.115-0.15,0.21-0.277,0.235c-0.109,0.005-0.229,0.013-0.332-0.031c-0.044-0.027-0.076-0.071-0.109-0.111
			c0-0.038,0-0.077,0.001-0.117c0.045-0.08,0.129-0.133,0.165-0.217c0.055-0.293,0.029-0.593,0.038-0.888
			c0.029-0.227,0.031-0.46,0.001-0.686c-0.003-0.525-0.079-1.046-0.159-1.563c-0.015-0.083-0.038-0.165-0.099-0.225
			c-0.032,0.026-0.061,0.057-0.087,0.087c-0.121,0.461-0.077,0.938-0.087,1.409c-0.005,0.195,0.035,0.389,0.027,0.584
			c0,0.269-0.007,0.538,0.006,0.807c0.033,0.272,0.093,0.546,0.071,0.826c-0.021,0.053-0.038,0.107-0.053,0.161
			c-0.053,0.123-0.153,0.227-0.285,0.253c-0.138,0.013-0.281,0.003-0.409-0.054c-0.059-0.041-0.109-0.125-0.064-0.195
			c0.023-0.071,0.092-0.107,0.145-0.149c0.041-0.031,0.054-0.081,0.076-0.123c0.055-0.195,0.032-0.403,0.025-0.6
			c-0.033-0.208-0.019-0.423-0.013-0.634c-0.006-0.373,0.017-0.746-0.047-1.114c-0.054-0.476-0.159-0.946-0.267-1.412
			c-0.059-0.262-0.107-0.525-0.179-0.784c-0.001-0.011-0.005-0.035-0.006-0.047c-0.037-0.045-0.08-0.089-0.133-0.118
			c-0.057-0.023-0.112-0.048-0.171-0.07c-0.023-0.011-0.048-0.025-0.07-0.035c-0.081-0.033-0.166-0.073-0.23-0.137
			c-0.121-0.146-0.225-0.307-0.365-0.437c-0.073-0.073-0.122-0.161-0.172-0.251c-0.031-0.058-0.064-0.115-0.096-0.172
			c-0.022-0.049-0.044-0.097-0.063-0.149c-0.026-0.057-0.049-0.113-0.073-0.171c-0.017-0.041-0.033-0.083-0.048-0.122
			c-0.028-0.055-0.051-0.112-0.073-0.17c-0.007-0.015-0.019-0.038-0.026-0.053c-0.123-0.23-0.299-0.431-0.486-0.612
			c-0.081-0.118-0.198-0.21-0.283-0.328c-0.077-0.093-0.135-0.198-0.193-0.299c-0.028-0.057-0.053-0.113-0.074-0.172
			c-0.085-0.283-0.124-0.574-0.13-0.871c-0.015-0.096-0.025-0.193-0.015-0.291c0.048-0.331-0.003-0.666,0.041-0.996
			c0-0.133,0.017-0.269-0.053-0.387c-0.035-0.016-0.069-0.033-0.106-0.049c-0.198-0.033-0.401-0.074-0.583-0.167
			c-0.296-0.139-0.518-0.406-0.634-0.707c-0.023-0.067-0.037-0.16,0.042-0.194c0.309-0.069,0.632-0.045,0.932,0.042
			c0.039,0.019,0.081,0.035,0.122,0.053c0.074,0.041,0.147,0.091,0.219,0.139c0.041,0.006,0.083,0.022,0.124,0.006
			c0.096-0.037,0.199-0.085,0.258-0.175c-0.023-0.037-0.031-0.079-0.064-0.108c-0.139-0.129-0.303-0.223-0.462-0.326
			c-0.106-0.065-0.213-0.129-0.317-0.195c-0.21-0.133-0.428-0.278-0.545-0.506c-0.025-0.057-0.048-0.112-0.074-0.171
			c-0.061-0.197-0.119-0.396-0.133-0.604c-0.031-0.192,0.005-0.386,0.06-0.57c0.013-0.031,0.026-0.063,0.039-0.095
			c0.053-0.118,0.02-0.251,0.029-0.379c0.011-0.012,0.038-0.033,0.053-0.045c0.015,0.006,0.048,0.019,0.064,0.025
			c0.064,0.109,0.07,0.243,0.033,0.363c-0.026,0.141-0.091,0.274-0.119,0.415c-0.01,0.054,0.022,0.105,0.041,0.151
			c0.103-0.057,0.128-0.185,0.153-0.291c0.041-0.157,0.086-0.312,0.149-0.463c0.015-0.041,0.032-0.081,0.051-0.119
			c0.015-0.058,0.054-0.117,0.032-0.178c-0.051-0.201-0.095-0.408-0.051-0.61c0.013-0.101,0.033-0.214,0.124-0.272
			c0.013,0.007,0.039,0.02,0.053,0.026c0.007,0.013,0.021,0.035,0.029,0.048c0.027,0.208-0.043,0.412-0.025,0.62
			c0.031,0.049,0.045,0.131,0.113,0.14c0.06,0.025,0.115-0.009,0.169-0.029c0.215-0.155,0.373-0.373,0.526-0.583
			C207.479,428.145,207.554,428.019,207.665,427.919z"/>
		<circle fill="#352F31" cx="212.618" cy="391.534" r="28.839"/>
		<path fill="#E9C3BB" d="M213.125,427.006c14.316,0,25.921-11.56,25.921-25.83c0-14.262-11.604-25.836-25.921-25.836
			c-14.288,0-25.884,11.573-25.884,25.836C187.241,415.446,198.837,427.006,213.125,427.006z"/>
		<path fill="#E9C3BB" d="M212.6,422.445c14.317,0,25.921-11.56,25.921-25.83c0-14.262-11.603-25.836-25.921-25.836
			c-14.288,0-25.885,11.573-25.885,25.836C186.715,410.885,198.311,422.445,212.6,422.445z"/>
		<path fill="#352F31" d="M192.951,394.989c0.48-4.394,0.048-10.039,4.233-13.084c3.159,4.806,9.692,3.897,15.026,4.846
			c-1.362-2.276-2.716-4.457-3.223-7.14c2.784,0.057,5.693,4.833,8.212,6.372c2.991,1.827,6.127,2.399,9.195,4.083
			c-1.228-2.63-3.066-5.219-4.833-7.535c3.955,5.767,7.839,12.039,14.214,15.523c-0.434-3.176-1.976-6.541-1.895-10.021
			c1.236,2.325,2.805,5.038,5.572,5.608c-0.962-6.573-1.436-11.789-6.631-16.67c-4.051-3.807-12.261-6.498-17.595-7.98
			c-6.166-1.711-13.264-1.021-18.93,1.989c-3.561,1.896-8.406,6.179-9.309,10.287C186.092,385.331,189.372,392.803,192.951,394.989z
			"/>
		<pattern  id="SVGID_53_" xlink:href="#SVGID_52_" patternTransform="matrix(0.5533 0 0 -0.5533 -11557.2246 -21778.2832)">
		</pattern>
		<path fill="url(#SVGID_53_)" d="M186.091,400.287"/>
		<path fill="#F27261" d="M173.428,397.618c0,4.683,3.312,8.592,7.719,9.519v-19.039
			C176.739,389.025,173.428,392.934,173.428,397.618z"/>
		<path fill="#889B3B" d="M186.352,386.147h-1.334c-1.07,0-1.935,0.866-1.935,1.937v0.016v19.039v0.016
			c0,1.071,0.866,1.937,1.935,1.937h1.334c1.069,0,1.937-0.866,1.937-1.937V406.8v-18.36v-0.355
			C188.289,387.013,187.422,386.147,186.352,386.147z"/>
		<path fill="#F27261" d="M251.202,397.618c0-4.684-3.31-8.594-7.719-9.519v19.039C247.892,406.211,251.202,402.301,251.202,397.618
			z"/>
		<path fill="#889B3B" d="M238.278,409.09h1.333c1.07,0,1.935-0.866,1.935-1.937v-0.016V388.1v-0.016
			c0-1.071-0.866-1.937-1.935-1.937h-1.333c-1.07,0-1.937,0.866-1.937,1.937v0.355v18.36v0.355
			C236.342,408.225,237.209,409.09,238.278,409.09z"/>
		<path fill="#889B3B" d="M188.205,393.486c0.604-13.808,11.172-24.841,24.076-24.841c12.904,0,23.47,11.032,24.075,24.841h3.871
			c-0.615-15.943-12.912-28.714-27.946-28.714c-15.036,0-27.334,12.771-27.948,28.714H188.205z"/>
	</g>
</g>
</svg>
