<?xml version="1.0" encoding="utf-8"?>
<!-- Generator: Adobe Illustrator 17.1.0, SVG Export Plug-In . SVG Version: 6.00 Build 0)  -->
<!DOCTYPE svg PUBLIC "-//W3C//DTD SVG 1.1//EN" "http://www.w3.org/Graphics/SVG/1.1/DTD/svg11.dtd" [
	<!ENTITY ns_flows "http://ns.adobe.com/Flows/1.0/">
	<!ENTITY ns_extend "http://ns.adobe.com/Extensibility/1.0/">
	<!ENTITY ns_ai "http://ns.adobe.com/AdobeIllustrator/10.0/">
	<!ENTITY ns_graphs "http://ns.adobe.com/Graphs/1.0/">
]>
<svg version="1.1" id="Layer_1" xmlns:x="&ns_extend;" xmlns:i="&ns_ai;" xmlns:graph="&ns_graphs;"
	 xmlns="http://www.w3.org/2000/svg" xmlns:xlink="http://www.w3.org/1999/xlink" xmlns:a="http://ns.adobe.com/AdobeSVGViewerExtensions/3.0/"
	 x="0px" y="0px" viewBox="0 248.79 238.493 96.895" enable-background="new 0 248.79 238.493 96.895" xml:space="preserve">
<g>
	<g>
		<g>
			<path fill="#FFDA24" d="M156.325,262.882c-18.799,18.799-18.799,49.277,0,68.076c18.799,18.799,49.277,18.799,68.076,0
				c15.119-15.119,18.068-37.79,8.867-55.867l-4.929,2.508l-1.91,0.972c2.809,5.509,4.403,11.741,4.403,18.349
				c0,22.35-18.118,40.468-40.468,40.468c-22.35,0-40.468-18.118-40.468-40.468c0-22.35,18.118-40.468,40.468-40.468
				c6.608,0,12.84,1.594,18.349,4.403l0.972-1.91l2.508-4.929C194.115,244.814,171.445,247.762,156.325,262.882z"/>
		</g>
		<g>
			<path fill="#FDE466" d="M148.395,296.919c0,23.178,18.79,41.968,41.968,41.968c23.178,0,41.968-18.79,41.968-41.968
				c0-6.853-1.653-13.316-4.566-19.029l-37.402,19.029l19.029-37.402c-5.713-2.913-12.176-4.566-19.029-4.566
				C167.185,254.952,148.395,273.741,148.395,296.919z"/>
		</g>
	</g>
	<g>
		<circle fill="#D5B129" cx="163.212" cy="313.358" r="5.736"/>
	</g>
	<g>
		<circle fill="#D5B129" cx="166.996" cy="288.829" r="3.128"/>
	</g>
	<g>
		<circle fill="#D5B129" cx="187.88" cy="281.172" r="3.128"/>
	</g>
	<g>
		<circle fill="#D5B129" cx="188.414" cy="259.649" r="3.128"/>
	</g>
	<g>
		<circle fill="#D5B129" cx="169.186" cy="299.865" r="3.128"/>
	</g>
	<g>
		<circle fill="#D5B129" cx="194.581" cy="336.615" r="3.128"/>
	</g>
	<g>
		<circle fill="#D5B129" cx="218.952" cy="312.244" r="3.128"/>
	</g>
	<g>
		<circle fill="#D5B129" cx="204.872" cy="296.393" r="3.128"/>
	</g>
	<g>
		<circle fill="#D5B129" cx="218.719" cy="291.392" r="3.128"/>
	</g>
	<g>
		<circle fill="#D5B129" cx="153.702" cy="285.723" r="2.192"/>
	</g>
	<g>
		<circle fill="#D5B129" cx="162.058" cy="327.469" r="2.192"/>
	</g>
	<g>
		<circle fill="#D5B129" cx="233.023" cy="305.696" r="2.192"/>
	</g>
	<g>
		<circle fill="#D5B129" cx="221.362" cy="286.79" r="4.106"/>
	</g>
</g>
<g>
	<g>
		<g>
			<polygon fill="#B13125" points="16.731,333.613 0,333.613 0,248.79 25.641,248.79 			"/>
		</g>
		<g>
			<polygon fill="#B13125" points="28.931,333.613 45.662,333.613 45.662,248.79 20.02,248.79 			"/>
		</g>
		<g>
			<rect y="248.79" fill="#7F1C17" width="45.662" height="5.707"/>
		</g>
		<g>
			<circle fill="#F27261" cx="24.61" cy="251.643" r="1.779"/>
		</g>
		<g>
			<rect x="20.534" y="254.497" fill="#7F1C17" width="4.594" height="21.048"/>
		</g>
		<g>
			<rect x="19.646" y="273.248" fill="#7F1C17" width="6.369" height="4.594"/>
		</g>
		<g>
			<path fill="#7F1C17" d="M0,266.551v-4.594c2.506,0,4.545-2.039,4.545-4.545h4.594C9.139,262.451,5.039,266.551,0,266.551z"/>
		</g>
		<g>
			<path fill="#7F1C17" d="M45.703,266.551c-5.039,0-9.139-4.1-9.139-9.139h4.594c0,2.506,2.039,4.545,4.545,4.545V266.551z"/>
		</g>
	</g>
	<g>
		<g>
			<polygon fill="#FFDA24" points="48.737,344.774 32.006,344.774 32.006,259.951 57.647,259.951 			"/>
		</g>
		<g>
			<polygon fill="#FFDA24" points="60.937,344.774 77.667,344.774 77.667,259.951 52.026,259.951 			"/>
		</g>
		<g>
			<rect x="32.006" y="259.951" fill="#D5B129" width="45.662" height="5.707"/>
		</g>
		<g>
			<circle fill="#FFDA24" cx="56.616" cy="262.804" r="1.779"/>
		</g>
		<g>
			<rect x="52.54" y="265.658" fill="#D5B129" width="4.594" height="21.048"/>
		</g>
		<g>
			<rect x="51.652" y="284.409" fill="#D5B129" width="6.368" height="4.594"/>
		</g>
		<g>
			<path fill="#D5B129" d="M32.006,277.712v-4.594c2.506,0,4.545-2.039,4.545-4.546h4.594
				C41.145,273.612,37.045,277.712,32.006,277.712z"/>
		</g>
		<g>
			<path fill="#D5B129" d="M77.709,277.712c-5.039,0-9.139-4.1-9.139-9.14h4.594c0,2.506,2.039,4.546,4.545,4.546V277.712z"/>
		</g>
	</g>
</g>
<g>
	<g>
		<polygon fill="#01A59C" points="123.683,281.607 105.531,281.607 107.666,250.676 121.548,250.676 		"/>
	</g>
	<g>
		<path fill="#01A59C" d="M114.47,276.326h0.274c7.493,0,13.566,6.437,13.566,14.377v48.05c0,3.854-2.948,6.931-6.585,6.931h-14.236
			c-3.637,0-6.585-3.077-6.585-6.931v-48.05C100.904,282.763,106.977,276.326,114.47,276.326z"/>
	</g>
	<g>
		<rect x="107.145" y="248.79" fill="#075943" width="14.925" height="4.11"/>
	</g>
	<g>
		<rect x="113.533" y="263.891" fill="#FFFFFF" width="2.148" height="15.817"/>
	</g>
	<g>
		<g>
			<path fill="#FFFFFF" d="M122.069,317.644c0,4.368-3.341,7.908-7.462,7.908l0,0c-4.121,0-7.462-3.541-7.462-7.908v-13.983
				c0-4.368,3.341-7.908,7.462-7.908l0,0c4.121,0,7.462,3.541,7.462,7.908V317.644z"/>
		</g>
		<g>
			<path fill="#075943" d="M114.607,295.752c4.121,0,7.462,3.541,7.462,7.909v13.983c0,4.368-3.341,7.908-7.462,7.908
				c-4.121,0-7.462-3.541-7.462-7.908v-13.983C107.145,299.293,110.486,295.752,114.607,295.752 M114.607,291.226
				c-6.47,0-11.734,5.578-11.734,12.435v13.983c0,6.857,5.264,12.435,11.734,12.435c6.47,0,11.734-5.578,11.734-12.435v-13.983
				C126.341,296.804,121.077,291.226,114.607,291.226L114.607,291.226z"/>
		</g>
	</g>
	<g>
		<path fill="#FFFFFF" d="M114.607,330.365c-6.619,0-12.004-5.707-12.004-12.722v-13.982c0-7.015,5.385-12.722,12.004-12.722
			s12.004,5.707,12.004,12.722v13.982C126.611,324.658,121.226,330.365,114.607,330.365z M114.607,291.513
			c-6.321,0-11.463,5.45-11.463,12.148v13.982c0,6.698,5.142,12.148,11.463,12.148c6.321,0,11.463-5.45,11.463-12.148v-13.982
			C126.07,296.963,120.928,291.513,114.607,291.513z"/>
	</g>
	<g>
		<rect x="103.351" y="305.56" fill="#191617" width="22.513" height="9.807"/>
	</g>
	<g>
		<rect x="100.904" y="303.297" fill="#01A59C" width="27.407" height="2.263"/>
	</g>
	<g>
		<rect x="100.904" y="315.367" fill="#01A59C" width="27.407" height="2.263"/>
	</g>
	<g>
		<polygon fill="#FF101F" points="114.607,297.334 115.399,299.035 117.17,299.308 115.889,300.632 116.191,302.501 
			114.607,301.619 113.023,302.501 113.325,300.632 112.044,299.308 113.815,299.035 		"/>
	</g>
	<g>
		<polygon fill="#FF101F" points="114.607,259.196 114.92,259.868 115.62,259.976 115.113,260.499 115.233,261.238 114.607,260.889 
			113.981,261.238 114.101,260.499 113.594,259.976 114.294,259.868 		"/>
	</g>
</g>
</svg>
