<?xml version="1.0" encoding="utf-8"?>
<!-- Generator: Adobe Illustrator 17.1.0, SVG Export Plug-In . SVG Version: 6.00 Build 0)  -->
<!DOCTYPE svg PUBLIC "-//W3C//DTD SVG 1.1//EN" "http://www.w3.org/Graphics/SVG/1.1/DTD/svg11.dtd" [
	<!ENTITY ns_flows "http://ns.adobe.com/Flows/1.0/">
	<!ENTITY ns_extend "http://ns.adobe.com/Extensibility/1.0/">
	<!ENTITY ns_ai "http://ns.adobe.com/AdobeIllustrator/10.0/">
	<!ENTITY ns_graphs "http://ns.adobe.com/Graphs/1.0/">
]>
<svg version="1.1" id="Layer_1" xmlns:x="&ns_extend;" xmlns:i="&ns_ai;" xmlns:graph="&ns_graphs;"
	 xmlns="http://www.w3.org/2000/svg" xmlns:xlink="http://www.w3.org/1999/xlink" xmlns:a="http://ns.adobe.com/AdobeSVGViewerExtensions/3.0/"
	 x="0px" y="0px" viewBox="0 0 120 120" enable-background="new 0 0 120 120" xml:space="preserve">
<g>
	<defs>
		<circle id="SVGID_1_" cx="60" cy="60" r="60"/>
	</defs>
	<clipPath id="SVGID_2_">
		<use xlink:href="#SVGID_1_"  overflow="visible"/>
	</clipPath>
	
		<linearGradient id="SVGID_3_" gradientUnits="userSpaceOnUse" x1="-34.7469" y1="-275.2906" x2="-34.7469" y2="-412.4647" gradientTransform="matrix(1 0 0 1.5457 40.1711 587.7246)">
		<stop  offset="0" style="stop-color:#01A59C"/>
		<stop  offset="0.4224" style="stop-color:#02A199"/>
		<stop  offset="0.8167" style="stop-color:#04968F"/>
		<stop  offset="1" style="stop-color:#058E88"/>
		<a:midPointStop  offset="0" style="stop-color:#01A59C"/>
		<a:midPointStop  offset="0.7208" style="stop-color:#01A59C"/>
		<a:midPointStop  offset="1" style="stop-color:#058E88"/>
	</linearGradient>
	<rect x="-49.445" y="-49.82" clip-path="url(#SVGID_2_)" fill="url(#SVGID_3_)" width="109.739" height="212.029"/>
	
		<linearGradient id="SVGID_4_" gradientUnits="userSpaceOnUse" x1="74.9923" y1="-412.4647" x2="74.9923" y2="-275.2906" gradientTransform="matrix(1 0 0 1.5457 40.1711 587.7246)">
		<stop  offset="0.0368" style="stop-color:#E54D2E"/>
		<stop  offset="0.3089" style="stop-color:#E65032"/>
		<stop  offset="0.5765" style="stop-color:#E9583E"/>
		<stop  offset="0.8417" style="stop-color:#EE6751"/>
		<stop  offset="1" style="stop-color:#F27261"/>
		<a:midPointStop  offset="0.0368" style="stop-color:#E54D2E"/>
		<a:midPointStop  offset="0.7105" style="stop-color:#E54D2E"/>
		<a:midPointStop  offset="1" style="stop-color:#F27261"/>
	</linearGradient>
	<rect x="60.294" y="-49.82" clip-path="url(#SVGID_2_)" fill="url(#SVGID_4_)" width="109.739" height="212.029"/>
	<g clip-path="url(#SVGID_2_)">
		<circle fill="#352F31" cx="60" cy="28.333" r="15.777"/>
		<rect x="39.715" y="28.333" fill="#5D595A" width="40.57" height="10.825"/>
		<polygon fill="#352F31" points="76.791,39.158 60,39.158 43.209,39.158 36.334,270.512 60,270.512 83.666,270.512 		"/>
		<g>
			<g>
				
					<rect x="50.655" y="56.77" transform="matrix(0.7071 0.7071 -0.7071 0.7071 59.3409 -25.9661)" fill="#CCC9CA" width="20.719" height="3.756"/>
				
					<rect x="50.655" y="56.77" transform="matrix(-0.7071 0.7071 -0.7071 -0.7071 145.6281 56.9744)" fill="#CCC9CA" width="20.719" height="3.756"/>
			</g>
			<g>
				
					<rect x="50.655" y="84.192" transform="matrix(0.7071 0.7071 -0.7071 0.7071 78.7313 -17.9343)" fill="#CCC9CA" width="20.719" height="3.756"/>
				
					<rect x="50.655" y="84.192" transform="matrix(-0.7071 0.7071 -0.7071 -0.7071 165.0185 103.787)" fill="#CCC9CA" width="20.719" height="3.756"/>
			</g>
			<g>
				
					<rect x="50.655" y="111.614" transform="matrix(0.7071 0.7071 -0.7071 0.7071 98.1217 -9.9025)" fill="#CCC9CA" width="20.719" height="3.756"/>
				
					<rect x="50.655" y="111.614" transform="matrix(-0.7071 0.7071 -0.7071 -0.7071 184.4089 150.5997)" fill="#CCC9CA" width="20.719" height="3.756"/>
			</g>
		</g>
		<linearGradient id="SVGID_5_" gradientUnits="userSpaceOnUse" x1="61.8816" y1="39.1585" x2="61.8816" y2="119.8858">
			<stop  offset="0" style="stop-color:#191617;stop-opacity:0.4"/>
			<stop  offset="1" style="stop-color:#352F31;stop-opacity:0"/>
			<a:midPointStop  offset="0" style="stop-color:#191617;stop-opacity:0.4"/>
			<a:midPointStop  offset="0.5" style="stop-color:#191617;stop-opacity:0.4"/>
			<a:midPointStop  offset="1" style="stop-color:#352F31;stop-opacity:0"/>
		</linearGradient>
		<polygon fill="url(#SVGID_5_)" points="79.222,119.886 44.542,39.158 76.904,39.158 		"/>
		<linearGradient id="SVGID_6_" gradientUnits="userSpaceOnUse" x1="59.9799" y1="28.3331" x2="59.9799" y2="15.1765">
			<stop  offset="0" style="stop-color:#191617;stop-opacity:0.4"/>
			<stop  offset="1" style="stop-color:#352F31;stop-opacity:0"/>
			<a:midPointStop  offset="0" style="stop-color:#191617;stop-opacity:0.4"/>
			<a:midPointStop  offset="0.5" style="stop-color:#191617;stop-opacity:0.4"/>
			<a:midPointStop  offset="1" style="stop-color:#352F31;stop-opacity:0"/>
		</linearGradient>
		<path opacity="0.5" fill="url(#SVGID_6_)" d="M75.737,27.532c-0.26-5.162-2.984-9.67-7.037-12.356H51.301
			c-4.263,2.825-7.078,7.66-7.078,13.157H75.7L75.737,27.532z"/>
	</g>
</g>
</svg>
