<svg version="1.1" xmlns="http://www.w3.org/2000/svg" viewBox="0 0 1500 640">
  <style type="text/css">
    .darkestGrass{
      fill:none;
      stroke-linecap:round;
      stroke-linejoin:round;
      stroke-miterlimit:1000;
      stroke-linecap:round;
      stroke-width:4px;
      stroke:#3f7f19;
    }
    .palestGrass{
      fill:none;
      stroke-linecap:round;
      stroke-linejoin:round;
      stroke-miterlimit:1000;
      stroke-linecap:round;
      stroke-width:2px;
      stroke:#c3f2aa;
    }
    .Grass{
      fill:#76cc4a;
    }
    .darkGrass{
      fill:#76cc4a;
    }

    .path01-co, .path01-th, .path02-co, .path02-th {
      animation-iteration-count:infinite;
      animation-duration:6s;
      stroke-dasharray:8000;
      stroke-dashoffset:8000;
      animation-timing-function: ease-in;
      animation-direction:alternate-reverse;
      animation-delay:0.4s;
    }
    .path01-co {animation-name:draw-01-co;}
    .path01-th {animation-name:draw-01-th;}
    .path02-co {animation-name:draw-02-co;}
    .path02-th {animation-name:draw-02-th;}
    @keyframes draw-01-co {
      0% {stroke-dashoffset:0;}
      20% {stroke-dashoffset:0;}
      80% {stroke-dashoffset:8000;}
      100% {stroke-dashoffset:8000;}
    }
    @keyframes draw-01-th {
      0% {stroke-dashoffset:0;}
      20% {stroke-dashoffset:0;}
      80% {stroke-dashoffset:8000;}
      100% {stroke-dashoffset:8000;}
    }
    @keyframes draw-02-co {
      0% {stroke-dashoffset:0;}
      20% {stroke-dashoffset:0;}
      80% {stroke-dashoffset:8000;}
      100% {stroke-dashoffset:8000;}
    }
    @keyframes draw-02-th {
      0% {stroke-dashoffset:0;}
      20% {stroke-dashoffset:0;}
      80% {stroke-dashoffset:8000;}
      100% {stroke-dashoffset:8000;}
    }

    .fill-co, .fill-th {
      animation-iteration-count:infinite;
      animation-duration:6s;
      animation-timing-function: ease-in;
      animation-timing-function: ease-in;
      animation-direction:alternate;
      animation-delay:0.4s;
    }
    .fill-co {animation-name:filli-co;}
    .fill-th {animation-name:filli-th;}

    @keyframes filli-co {
      0% {fill:#76cc4a;}
      80% {fill:#76cc4a;}
      90% {fill:#59a532;}
      100% {fill:#59a532;}
    }

    @keyframes filli-th {
    0% {fill:#76cc4a;}
    80% {fill:#76cc4a;}
    90% {fill:#59a532;}
    100% {fill:#59a532;}
    }

  </style>
  <path d="M0 0h1500v640H0z" class="Grass"/>
  <g class="logo">
    <g class="fill-th darkGrass">
        <path d="M1125.41 442.45c-5.36-6.45-13.84-11.61-25.42-15.47-2.89-.96-5.82-1.87-8.77-2.71-2.96-.84-5.61-1.83-7.97-2.98-2.35-1.14-4.25-2.5-5.69-4.07-1.45-1.57-2.18-3.55-2.18-5.97 0-3.49 1.45-6.33 4.34-8.5 2.89-2.17 6.63-3.26 11.22-3.26 3.61 0 7.36.75 11.22 2.26l.13.05c7.07 2.78 15.09-.26 18.54-7.02l.19-.37c3.91-7.67.1-17.07-8.08-19.78-2.06-.68-4.15-1.29-6.27-1.83-7.36-1.87-14.41-2.8-21.17-2.8-7.24 0-13.78 1.08-19.63 3.26-5.85 2.17-10.8 5.22-14.84 9.13-4.04 3.92-7.17 8.62-9.4 14.11-2.23 5.49-3.35 11.61-3.35 18.36 0 6.76 1.05 12.33 3.16 16.74 2.11 4.4 4.89 8.05 8.33 10.95s7.36 5.22 11.76 6.97c4.4 1.75 8.89 3.34 13.48 4.79 3.86 1.33 7.15 2.53 9.86 3.62 2.71 1.08 4.91 2.26 6.6 3.53 1.69 1.27 2.9 2.65 3.62 4.16s1.08 3.28 1.08 5.34c-.01 3.9-3.18 7.05-7.08 7.05h-69.39c1.5-2.58 2.92-5.22 4.09-8 .85-2.01 1.61-4.82 2.28-7.96 2.64-12.39-6.93-24.04-19.59-24.04h-26.66c-7.33 0-13.27 5.94-13.27 13.27v5.46c0 7.33 5.94 13.27 13.27 13.27-6.12 4.9-13.76 7.96-22.2 8-19.36.1-35.79-15.92-36.17-35.28-.39-20.21 15.87-36.72 35.99-36.72 3.7 0 7.27.57 10.62 1.61 6.37 1.98 13.3.27 18.01-4.45l.03-.03c9.47-9.47 5.72-25.81-7.05-29.83-6.82-2.15-14.08-3.31-21.61-3.31h-108c-11.05 0-20 8.95-20 20v60.63c0 3.81-4.81 5.46-7.15 2.46l-58.39-74.82c-4.08-5.22-10.33-8.27-16.95-8.27-11.88 0-21.5 9.63-21.5 21.5V476c0 1.1-.9 2-2 2h-44c-1.1 0-2-.9-2-2v-86c0-11.05-8.95-20-20-20h-72c-11.05 0-20 8.95-20 20v32c0 2.21-1.79 4-4 4h-48c-2.21 0-4-1.79-4-4v-32c0-11.05-8.95-20-20-20h-106c-9.94 0-18 8.06-18 18s8.06 18 18 18h18c2.21 0 4 1.79 4 4v88c0 8.84 7.16 16 16 16s16-7.16 16-16v-88c0-2.21 1.79-4 4-4h32c2.21 0 4 1.79 4 4v88c0 8.84 7.16 16 16 16s16-7.16 16-16v-36c0-2.21 1.79-4 4-4h48c2.21 0 4 1.79 4 4v36c0 8.84 7.16 16 16 16s16-7.16 16-16v-88c0-2.21 1.79-4 4-4h40c2.21 0 4 1.79 4 4v84c0 11.05 8.95 20 20 20h72c11.05 0 20-8.95 20-20v-60.99c0-3.81 4.82-5.46 7.16-2.45L823 505.7c4.07 5.24 10.33 8.3 16.96 8.3h.01c11.86 0 21.48-9.62 21.48-21.48V410c0-2.21 1.79-4 4-4h23.15c2.93 0 4.84 3.04 3.59 5.69-4.3 9.21-6.74 19.47-6.74 30.31 0 39.76 32.24 72 72 72 5.23 0 127.29-.29 127.29-.29 6.62-.32 12.79-1.21 18.23-3.05 6.57-2.23 12.12-5.37 16.64-9.41 4.53-4.04 7.97-8.89 10.32-14.56 2.34-5.67 3.53-12 3.53-19 .01-10.37-2.68-18.78-8.05-25.24z"/>
      <circle cx="661.47" cy="346" r="16"/>
    </g>
    <g class="fill-co darkGrass">
        <path d="M1264.57 252.73c0 7.33 5.94 13.27 13.27 13.27-6.81 5.45-15.52 8.63-25.1 7.9-17.8-1.37-32.14-15.86-33.2-33.69-1.25-20.88 15.32-38.21 35.93-38.21 3.67 0 7.2.55 10.53 1.58 6.35 1.96 13.25.44 17.95-4.26l.18-.18c9.55-9.55 5.6-25.9-7.3-29.91-6.75-2.1-13.92-3.23-21.36-3.23h-108c-11.05 0-20 8.95-20 20v66.44c0 1.9-2.41 2.73-3.58 1.23l-61.97-79.4c-4.08-5.22-10.33-8.27-16.95-8.27-11.88 0-21.5 9.63-21.5 21.5V270c0 2.21-1.79 4-4 4h-24c-2.21 0-4-1.79-4-4v-84c0-11.05-8.95-20-20-20h-124c-39.76 0-72 32.24-72 72 0 11.94 2.95 23.17 8.11 33.08.69 1.33-.26 2.92-1.76 2.92h-84.35c-5.52 0-10-4.48-10-10s4.48-10 10-10h22c8.84 0 16-7.16 16-16s-7.16-16-16-16h-22c-5.52 0-10-4.48-10-10v-4c0-5.52 4.48-10 10-10h22c8.84 0 16-7.16 16-16s-7.16-16-16-16h-44c-11.05 0-20 8.95-20 20v60.63c0 3.81-4.81 5.46-7.15 2.46l-58.39-74.82c-4.08-5.22-10.33-8.27-16.95-8.27-11.88 0-21.5 9.63-21.5 21.5v59.12c0 3.81-4.81 5.46-7.15 2.46l-58.39-74.82c-4.08-5.22-10.33-8.27-16.95-8.27-11.88 0-21.5 9.63-21.5 21.5V258c0 8.84-7.16 16-16 16s-16-7.16-16-16v-19.09c0-38.96-30.6-71.56-69.53-72.86-40.89-1.37-74.47 31.38-74.47 71.96 0 10.88 2.45 21.16 6.78 30.4 1.23 2.61-.64 5.6-3.52 5.6h-26.6c-19.14 0-35.44-14.67-36.59-33.78-1.02-17.02 9.79-31.68 24.98-36.53 6.48-2.07 10.95-8 10.95-14.81v-1.55c0-12.73-12.4-21.38-24.16-17.19-28.93 10.3-49.33 38.58-47.75 71.4 1.85 38.52 34.37 68.45 72.93 68.45h67.32c18.8 0 27.66-8.87 27.66-19.82v-.17c0-8.24-5.22-15.44-12.91-18.39-14.25-5.48-24.13-19.75-23-36.17 1.22-17.75 15.6-32.13 33.36-33.36 21.04-1.45 38.56 15.18 38.56 35.91v36c0 19.88 16.12 36 36 36h28c19.88 0 36-16.12 36-36v-56.65l65.55 84.35c4.07 5.24 10.33 8.3 16.96 8.3h.01c11.86 0 21.48-9.62 21.48-21.48v-71.17l65.99 84.92c3.79 4.88 9.62 7.73 15.79 7.73h192.21c9.94 0 18-8.06 18-18s-8.06-18-18-18h-10.24c-15.47 0-29.48-9.85-34.02-24.64-7.58-24.71 10.7-47.35 34.26-47.35h44c2.21 0 4 1.79 4 4v88c0 8.84 7.16 16 16 16s16-7.16 16-16v-88c0-2.21 1.79-4 4-4h24c2.21 0 4 1.79 4 4v84c0 11.05 8.95 20 20 20h56c11.05 0 20-8.95 20-20v-66.82c0-1.9 2.41-2.73 3.58-1.23l61.97 79.75c4.07 5.24 10.33 8.3 16.96 8.3h.01c11.86 0 21.48-9.62 21.48-21.48V206c0-2.21 1.79-4 4-4h29.71c-7.02 12.12-10.68 26.43-9.49 41.7 2.85 36.46 33.17 65.25 69.73 66.27 30.7.85 57.22-17.53 68.4-43.97.84-1.99 1.59-4.76 2.25-7.85 2.66-12.43-6.86-24.15-19.57-24.15h-26.66c-7.33 0-13.27 5.94-13.27 13.27v5.46z"/>
      <circle cx="975.47" cy="142" r="16"/>
    </g>
    <g class="path02-th palestGrass">
      <path d="M1085.53 378c6.05 0 12.51.86 19.2 2.56 1.92.49 3.85 1.05 5.73 1.67 2.27.75 3.27 2.47 3.66 3.43.4.98.91 2.94-.2 5.12l-.19.37c-1.16 2.27-3.46 3.69-6.02 3.69-.84 0-1.67-.16-2.46-.47l-.16-.07c-4.78-1.86-9.53-2.81-14.12-2.81-6.34 0-11.73 1.64-16.02 4.86-4.94 3.7-7.54 8.85-7.54 14.9 0 4.43 1.49 8.37 4.29 11.39 2.12 2.3 4.84 4.27 8.07 5.84 2.78 1.36 5.91 2.53 9.26 3.48 2.91.84 5.76 1.72 8.45 2.61 10.09 3.37 17.43 7.74 21.8 13 4.18 5.02 6.21 11.6 6.21 20.12 0 5.89-.98 11.26-2.91 15.93-1.91 4.59-4.61 8.4-8.26 11.66-3.69 3.3-8.36 5.92-13.88 7.8-4.27 1.45-9.47 2.31-15.86 2.63-5.42.01-122.02.29-127.09.29-35.29 0-64-28.71-64-64 0-9.36 2.01-18.42 5.99-26.92 1.75-3.75 1.48-8.06-.74-11.55-2.21-3.47-5.98-5.54-10.1-5.54h-23.15c-6.62 0-12 5.38-12 12v82.52c0 7.43-6.05 13.48-13.49 13.48-4.19 0-8.07-1.9-10.64-5.21l-58.39-75.14c-2.29-2.95-5.73-4.64-9.44-4.64-6.64 0-12.04 5.39-12.04 12.01V494c0 6.62-5.38 12-12 12h-72c-6.62 0-12-5.38-12-12v-84c0-6.62-5.38-12-12-12h-40c-6.62 0-12 5.38-12 12v88c0 4.41-3.59 8-8 8s-8-3.59-8-8v-36c0-6.62-5.38-12-12-12h-48c-6.62 0-12 5.38-12 12v36c0 4.41-3.59 8-8 8s-8-3.59-8-8v-88c0-6.62-5.38-12-12-12h-32c-6.62 0-12 5.38-12 12v88c0 4.41-3.59 8-8 8s-8-3.59-8-8v-88c0-6.62-5.38-12-12-12h-18c-5.51 0-10-4.49-10-10s4.49-10 10-10h106c6.62 0 12 5.38 12 12v32c0 6.62 5.38 12 12 12h48c6.62 0 12-5.38 12-12v-32c0-6.62 5.38-12 12-12h72c6.62 0 12 5.38 12 12v86c0 5.51 4.49 10 10 10h44c5.51 0 10-4.49 10-10v-84.5c0-7.45 6.06-13.5 13.5-13.5 4.19 0 8.07 1.89 10.65 5.2l58.39 74.82c2.29 2.94 5.73 4.62 9.42 4.62 6.64 0 12.04-5.39 12.04-12.01V390c0-6.62 5.38-12 12-12h108c6.56 0 13.02.99 19.21 2.94 3.27 1.03 5.62 3.56 6.45 6.96.85 3.49-.14 7.07-2.68 9.61-1.88 1.88-4.38 2.91-7.03 2.91-1 0-1.99-.15-2.95-.45-4.2-1.31-8.58-1.97-13-1.97-11.92 0-23.07 4.69-31.42 13.19-8.34 8.51-12.81 19.76-12.57 31.68.22 11.44 4.95 22.25 13.31 30.44 8.35 8.18 19.25 12.69 30.69 12.69h.21c9.85-.05 19.24-3.42 27.15-9.75 2.65-2.12 3.68-5.69 2.55-8.89-1.12-3.21-4.15-5.35-7.55-5.35-2.9 0-5.27-2.36-5.27-5.27v-5.46c0-2.9 2.36-5.27 5.27-5.27h26.66c3.65 0 7.07 1.63 9.37 4.48 2.27 2.8 3.14 6.41 2.4 9.9-.78 3.66-1.42 5.56-1.82 6.51-.88 2.08-2 4.27-3.64 7.1-1.43 2.47-1.44 5.53-.01 8.01 1.43 2.48 4.07 4.01 6.93 4.01h69.39c8.29 0 15.05-6.74 15.08-15.05 0-3.24-.63-6.2-1.87-8.79-1.28-2.68-3.31-5.07-6.04-7.11-2.28-1.71-5.04-3.2-8.42-4.55-2.79-1.12-6.13-2.35-10.23-3.76-.06-.02-.13-.04-.19-.06-4.37-1.38-8.72-2.93-12.93-4.6-3.57-1.42-6.79-3.32-9.55-5.65-2.59-2.18-4.64-4.89-6.27-8.29-1.58-3.29-2.38-7.75-2.38-13.27 0-5.68.93-10.85 2.76-15.35 1.83-4.5 4.3-8.22 7.56-11.38 3.22-3.13 7.27-5.61 12.06-7.38 4.89-1.85 10.55-2.78 16.81-2.78m0-8c-7.24 0-13.78 1.08-19.63 3.26-5.85 2.17-10.8 5.22-14.84 9.13-4.04 3.92-7.17 8.62-9.4 14.11-2.23 5.49-3.35 11.61-3.35 18.36 0 6.76 1.05 12.33 3.16 16.74 2.11 4.4 4.89 8.05 8.33 10.95s7.36 5.22 11.76 6.97c4.4 1.75 8.89 3.34 13.47 4.79 3.86 1.33 7.15 2.53 9.86 3.62 2.71 1.08 4.91 2.26 6.6 3.53 1.69 1.27 2.9 2.65 3.62 4.16s1.08 3.28 1.08 5.34c-.01 3.9-3.18 7.05-7.08 7.05h-69.39c1.5-2.58 2.92-5.22 4.09-8 .85-2.01 1.61-4.82 2.28-7.96 2.64-12.39-6.93-24.04-19.59-24.04h-26.66c-7.33 0-13.27 5.94-13.27 13.27v5.46c0 7.33 5.94 13.27 13.27 13.27-6.12 4.9-13.76 7.96-22.2 8h-.17c-19.29 0-35.62-15.98-35.99-35.28-.39-20.21 15.87-36.72 35.99-36.72 3.7 0 7.27.57 10.62 1.61 1.75.55 3.55.81 5.33.81 4.69 0 9.27-1.84 12.68-5.26l.03-.03c9.47-9.47 5.72-25.81-7.05-29.83-6.82-2.15-14.08-3.31-21.61-3.31h-108c-11.05 0-20 8.95-20 20v60.63c0 2.45-1.99 4.01-4.04 4.01-1.13 0-2.28-.48-3.11-1.55l-58.39-74.82c-4.08-5.22-10.33-8.27-16.95-8.27-11.88 0-21.5 9.63-21.5 21.5V476c0 1.1-.9 2-2 2h-44c-1.1 0-2-.9-2-2v-86c0-11.05-8.95-20-20-20h-72c-11.05 0-20 8.95-20 20v32c0 2.21-1.79 4-4 4h-48c-2.21 0-4-1.79-4-4v-32c0-11.05-8.95-20-20-20h-106c-9.94 0-18 8.06-18 18s8.06 18 18 18h18c2.21 0 4 1.79 4 4v88c0 8.84 7.16 16 16 16s16-7.16 16-16v-88c0-2.21 1.79-4 4-4h32c2.21 0 4 1.79 4 4v88c0 8.84 7.16 16 16 16s16-7.16 16-16v-36c0-2.21 1.79-4 4-4h48c2.21 0 4 1.79 4 4v36c0 8.84 7.16 16 16 16s16-7.16 16-16v-88c0-2.21 1.79-4 4-4h40c2.21 0 4 1.79 4 4v84c0 11.05 8.96 20 20 20h72c11.05 0 20-8.95 20-20v-60.99c0-2.45 1.99-4.01 4.04-4.01 1.14 0 2.29.48 3.12 1.55l58.39 75.14c4.07 5.24 10.33 8.3 16.96 8.3h.01c11.86 0 21.48-9.62 21.48-21.48V410c0-2.21 1.79-4 4-4h23.15c2.93 0 4.84 3.04 3.59 5.69-4.3 9.21-6.74 19.47-6.74 30.31 0 39.76 32.24 72 72 72 5.23 0 127.29-.29 127.29-.29 6.62-.32 12.79-1.21 18.23-3.05 6.57-2.23 12.12-5.37 16.64-9.41 4.53-4.04 7.97-8.89 10.32-14.56 2.34-5.67 3.53-12 3.53-19 0-10.37-2.69-18.78-8.05-25.24-5.36-6.45-13.84-11.61-25.42-15.47-2.89-.96-5.82-1.87-8.77-2.71-2.96-.84-5.61-1.83-7.97-2.98-2.35-1.14-4.25-2.5-5.69-4.07-1.45-1.57-2.18-3.55-2.18-5.97 0-3.49 1.45-6.33 4.34-8.5 2.89-2.17 6.63-3.26 11.22-3.26 3.61 0 7.36.75 11.22 2.26l.13.05c1.77.7 3.6 1.03 5.4 1.03 5.4 0 10.56-2.98 13.14-8.05l.19-.37c3.91-7.67.1-17.07-8.08-19.78-2.06-.68-4.15-1.29-6.27-1.83-7.37-1.86-14.42-2.8-21.17-2.8zm-424.06-32c4.41 0 8 3.59 8 8s-3.59 8-8 8-8-3.59-8-8 3.58-8 8-8m0-8c-8.84 0-16 7.16-16 16s7.16 16 16 16 16-7.16 16-16-7.17-16-16-16z"/>
    </g>
    <g class="path02-co palestGrass">
      <path d="M1255.47 174c6.48 0 12.86.96 18.99 2.87 3.38 1.05 5.81 3.64 6.66 7.09.87 3.5-.1 6.97-2.64 9.52l-.19.18c-1.77 1.77-4.18 2.75-6.79 2.75-1.06 0-2.12-.16-3.15-.48-4.17-1.28-8.5-1.93-12.88-1.93-12.07 0-23.75 5.04-32.03 13.83-8.4 8.92-12.62 20.58-11.89 32.85 1.3 21.81 18.75 39.51 40.58 41.19 1.11.08 2.23.13 3.34.13 9.93 0 19.4-3.37 27.37-9.75 2.65-2.12 3.68-5.69 2.55-8.89-1.12-3.21-4.15-5.35-7.55-5.35-2.9 0-5.27-2.36-5.27-5.27v-5.46c0-2.9 2.36-5.27 5.27-5.27h26.66c3.65 0 7.05 1.63 9.35 4.46 2.28 2.82 3.16 6.47 2.4 10.01-.77 3.6-1.4 5.48-1.8 6.41-10.04 23.76-33.19 39.11-58.98 39.11-.6 0-1.22-.01-1.82-.03-15.71-.44-30.7-6.7-42.22-17.64-11.52-10.94-18.54-25.59-19.76-41.25-1.02-12.97 1.9-25.79 8.43-37.07 1.43-2.47 1.44-5.53.01-8s-4.07-4.01-6.93-4.01h-29.71c-6.62 0-12 5.38-12 12v82.52c0 7.43-6.05 13.48-13.49 13.48-4.19 0-8.07-1.9-10.64-5.21l-61.97-79.75c-1.91-2.46-4.78-3.87-7.88-3.87-5.52 0-10.02 4.49-10.02 10v66.82c0 6.62-5.38 12-12 12h-56c-6.62 0-12-5.38-12-12v-84c0-6.62-5.38-12-12-12h-24c-6.62 0-12 5.38-12 12v88c0 4.41-3.59 8-8 8s-8-3.59-8-8v-88c0-6.62-5.38-12-12-12h-44c-13.9 0-27.13 6.68-35.4 17.86-8.41 11.38-10.79 25.9-6.51 39.84 2.73 8.9 8.22 16.52 15.89 22.02 7.54 5.41 16.45 8.28 25.76 8.28h10.26c5.51 0 10 4.49 10 10 0 2.67-1.04 5.18-2.93 7.07-1.89 1.89-4.4 2.93-7.07 2.93H665.26c-3.73 0-7.19-1.69-9.48-4.64l-65.99-84.92c-1.55-1.99-3.89-3.09-6.32-3.09-.87 0-1.74.14-2.59.43-3.23 1.11-5.41 4.15-5.41 7.57v71.17c0 7.43-6.05 13.48-13.49 13.48-4.19 0-8.07-1.9-10.64-5.21l-65.55-84.35c-1.55-1.99-3.89-3.09-6.32-3.09-.87 0-1.74.14-2.59.43-3.23 1.11-5.41 4.15-5.41 7.57V274c0 15.44-12.56 28-28 28h-28c-15.44 0-28-12.56-28-28v-36c0-24.26-19.74-44-44-44-1.03 0-2.07.04-3.11.11-21.75 1.5-39.29 19.04-40.79 40.79-1.34 19.45 9.96 37.21 28.11 44.19 4.73 1.82 7.78 6.1 7.78 10.93v.17c0 10.67-13.75 11.82-19.66 11.82h-67.32c-16.69 0-32.59-6.26-44.78-17.63-12.21-11.39-19.37-26.74-20.17-43.2-.68-14.11 3.14-27.68 11.05-39.24 7.61-11.13 18.76-19.74 31.4-24.24 1.12-.4 2.28-.6 3.42-.6 4.83 0 10.05 3.92 10.05 10.26v1.55c0 3.27-2.16 6.16-5.38 7.18-19.19 6.12-31.75 24.47-30.54 44.63 1.39 23.16 20.97 41.29 44.57 41.29h26.6c4.1 0 7.85-2.06 10.04-5.51 2.2-3.47 2.47-7.76.72-11.49-4-8.52-6.03-17.61-6.03-27 0-17.1 6.66-33.17 18.74-45.26 12.13-12.09 28.2-18.75 45.3-18.75.73 0 1.47.01 2.2.04 16.66.56 32.23 7.6 43.83 19.82 11.59 12.2 17.97 28.2 17.97 45.05V258c0 13.23 10.77 24 24 24s24-10.77 24-24v-70.5c0-7.45 6.06-13.5 13.5-13.5 4.19 0 8.07 1.89 10.65 5.2l58.39 74.82c2.29 2.94 5.73 4.63 9.42 4.63 6.64 0 12.04-5.39 12.04-12.01V187.5c0-7.45 6.06-13.5 13.5-13.5 4.19 0 8.07 1.89 10.65 5.2l58.39 74.82c2.29 2.94 5.73 4.63 9.42 4.63 6.64 0 12.04-5.39 12.04-12.01V186c0-6.62 5.38-12 12-12h44c4.41 0 8 3.59 8 8s-3.59 8-8 8h-22c-9.92 0-18 8.07-18 18v4c0 9.92 8.07 18 18 18h22c4.41 0 8 3.59 8 8s-3.59 8-8 8h-22c-9.92 0-18 8.07-18 18 0 9.92 8.07 18 18 18h84.35c3.52 0 6.71-1.8 8.54-4.8 1.83-3.01 1.95-6.68.32-9.81-4.78-9.19-7.21-19.08-7.21-29.39 0-35.29 28.71-64 64-64h124c6.62 0 12 5.38 12 12v84c0 6.62 5.38 12 12 12h24c6.62 0 12-5.38 12-12v-82.5c0-7.45 6.06-13.5 13.5-13.5 4.19 0 8.07 1.89 10.65 5.2l61.97 79.4c1.91 2.45 4.78 3.85 7.86 3.85 5.52 0 10.02-4.49 10.02-10V186c0-6.62 5.38-12 12-12h108m0-8h-108c-11.05 0-20 8.95-20 20v66.44c0 1.22-1 2-2.02 2-.57 0-1.14-.24-1.56-.77l-61.97-79.4c-4.08-5.22-10.33-8.27-16.95-8.27-11.88 0-21.5 9.63-21.5 21.5V270c0 2.21-1.79 4-4 4h-24c-2.21 0-4-1.79-4-4v-84c0-11.05-8.95-20-20-20h-124c-39.76 0-72 32.24-72 72 0 11.94 2.95 23.17 8.11 33.08.69 1.33-.26 2.92-1.76 2.92h-84.35c-5.52 0-10-4.48-10-10s4.48-10 10-10h22c8.84 0 16-7.16 16-16s-7.16-16-16-16h-22c-5.52 0-10-4.48-10-10v-4c0-5.52 4.48-10 10-10h22c8.84 0 16-7.16 16-16s-7.16-16-16-16h-44c-11.05 0-20 8.95-20 20v60.63c0 2.45-1.99 4.01-4.04 4.01-1.13 0-2.28-.48-3.11-1.55l-58.39-74.82c-4.08-5.22-10.33-8.27-16.95-8.27-11.88 0-21.5 9.63-21.5 21.5v59.12c0 2.45-1.99 4.01-4.04 4.01-1.13 0-2.28-.48-3.11-1.55l-58.39-74.82c-4.08-5.22-10.33-8.27-16.95-8.27-11.88 0-21.5 9.63-21.5 21.5V258c0 8.84-7.16 16-16 16s-16-7.16-16-16v-19.09c0-38.96-30.6-71.56-69.53-72.86-.82-.03-1.65-.04-2.47-.04-39.77 0-72 32.23-72 72 0 10.88 2.45 21.16 6.78 30.4 1.23 2.61-.64 5.6-3.52 5.6h-26.6c-19.14 0-35.44-14.67-36.59-33.78-1.02-17.02 9.79-31.68 24.98-36.53 6.48-2.07 10.95-8 10.95-14.81v-1.55c0-10.52-8.47-18.25-18.05-18.26-2.01 0-4.07.34-6.11 1.07-28.93 10.3-49.33 38.58-47.75 71.4 1.85 38.52 34.37 68.45 72.93 68.45h67.32c18.8 0 27.66-8.87 27.66-19.82v-.17c0-8.24-5.22-15.44-12.91-18.39-14.25-5.48-24.13-19.75-23-36.17 1.22-17.75 15.6-32.13 33.36-33.36.86-.06 1.71-.09 2.56-.09 19.88 0 36 16.12 36 36v36c0 19.88 16.12 36 36 36h28c19.88 0 36-16.12 36-36v-56.65l65.55 84.35c4.07 5.24 10.33 8.3 16.96 8.3h.01c11.86 0 21.48-9.62 21.48-21.48v-71.17l65.99 84.92c3.79 4.88 9.62 7.73 15.79 7.73h192.21c9.94 0 18-8.06 18-18s-8.06-18-18-18h-10.24c-15.47 0-29.48-9.85-34.02-24.64-7.58-24.71 10.7-47.35 34.26-47.35h44c2.21 0 4 1.79 4 4v88c0 8.84 7.16 16 16 16s16-7.16 16-16v-88c0-2.21 1.79-4 4-4h24c2.21 0 4 1.79 4 4v84c0 11.05 8.95 20 20 20h56c11.05 0 20-8.95 20-20v-66.82c0-1.22 1-2 2.02-2 .57 0 1.14.24 1.56.78l61.97 79.75c4.07 5.24 10.33 8.3 16.96 8.3h.01c11.86 0 21.48-9.62 21.48-21.48V206c0-2.21 1.79-4 4-4h29.71c-7.02 12.12-10.68 26.43-9.49 41.7 2.85 36.46 33.17 65.25 69.73 66.27.68.02 1.37.03 2.05.03 29.84 0 55.43-18.14 66.35-44 .84-1.99 1.59-4.76 2.25-7.85 2.66-12.43-6.86-24.15-19.57-24.15h-26.66c-7.33 0-13.27 5.94-13.27 13.27v5.46c0 7.33 5.94 13.27 13.27 13.27-6.16 4.93-13.87 8-22.37 8-.9 0-1.81-.03-2.73-.1-17.8-1.37-32.14-15.86-33.2-33.69-1.25-20.88 15.32-38.21 35.93-38.21 3.66 0 7.2.55 10.52 1.58 1.81.56 3.67.83 5.5.83 4.61 0 9.09-1.73 12.45-5.09l.18-.18c9.55-9.55 5.6-25.9-7.3-29.91-6.76-2.1-13.94-3.23-21.37-3.23zm-280-32c4.41 0 8 3.59 8 8s-3.59 8-8 8-8-3.59-8-8 3.59-8 8-8m0-8c-8.84 0-16 7.16-16 16s7.16 16 16 16 16-7.16 16-16-7.17-16-16-16z"/>
    </g>
    <g class="path01-co darkestGrass">
      <path d="M1255.47 170c6.88 0 13.67 1.02 20.17 3.05 4.68 1.45 8.18 5.18 9.36 9.96 1.19 4.82-.19 9.8-3.7 13.31l-.18.18c-2.53 2.53-5.94 3.92-9.62 3.92-1.46 0-2.91-.22-4.33-.66-3.78-1.17-7.72-1.76-11.7-1.76-10.98 0-21.59 4.58-29.12 12.58-7.64 8.1-11.47 18.71-10.81 29.87 1.18 19.82 17.04 35.91 36.89 37.44 1.01.08 2.03.12 3.03.12 9.01 0 17.61-3.07 24.87-8.88 1.33-1.06 1.84-2.84 1.28-4.45-.56-1.6-2.08-2.68-3.77-2.68-5.11 0-9.27-4.16-9.27-9.27v-5.46c0-5.11 4.16-9.27 9.27-9.27h26.66c4.86 0 9.4 2.17 12.46 5.95 3.04 3.77 4.21 8.63 3.2 13.36-.67 3.14-1.35 5.54-2.03 7.13-10.67 25.24-35.26 41.56-62.67 41.56-.64 0-1.29-.01-1.93-.03-16.7-.46-32.63-7.12-44.86-18.74-12.24-11.62-19.69-27.19-20.99-43.84-1.08-13.78 2.02-27.4 8.96-39.39.72-1.24.72-2.76 0-4-.71-1.24-2.04-2-3.47-2h-29.71c-4.41 0-8 3.59-8 8v82.52c0 9.64-7.84 17.48-17.49 17.48-5.44 0-10.47-2.46-13.8-6.75l-61.97-79.75c-1.15-1.48-2.87-2.32-4.72-2.32-3.32 0-6.02 2.69-6.02 6V290c0 8.82-7.18 16-16 16h-56c-8.82 0-16-7.18-16-16v-84c0-4.41-3.59-8-8-8h-24c-4.41 0-8 3.59-8 8v88c0 6.62-5.38 12-12 12s-12-5.38-12-12v-88c0-4.41-3.59-8-8-8h-44c-12.63 0-24.66 6.07-32.18 16.24-7.65 10.35-9.8 23.57-5.91 36.29 2.47 8.06 7.45 14.96 14.4 19.95 6.85 4.92 14.96 7.53 23.44 7.53h10.25c7.72 0 14 6.28 14 14 0 3.74-1.46 7.26-4.1 9.9-2.64 2.64-6.16 4.1-9.9 4.1h-192.2c-4.98 0-9.58-2.25-12.63-6.18l-65.99-84.92c-.77-.99-1.95-1.55-3.16-1.55-.43 0-.87.07-1.3.22-1.62.55-2.7 2.07-2.7 3.78v71.17c0 9.64-7.84 17.48-17.49 17.48-5.44 0-10.47-2.46-13.8-6.75l-65.55-84.35c-.77-.99-1.95-1.55-3.16-1.55-.43 0-.87.07-1.3.22-1.62.55-2.7 2.07-2.7 3.78V274c0 17.64-14.36 32-32 32h-28c-17.64 0-32-14.36-32-32v-36c0-22.06-17.94-40-40-40-.94 0-1.89.03-2.83.1-19.77 1.36-35.71 17.3-37.07 37.07-1.22 17.69 9.05 33.83 25.56 40.18 6.28 2.41 10.34 8.17 10.34 14.66v.17c0 9.9-8.85 15.82-23.66 15.82H248.5c-17.7 0-34.57-6.64-47.5-18.71-12.98-12.11-20.59-28.42-21.43-45.93-.72-14.98 3.34-29.4 11.74-41.69 8.08-11.82 19.93-20.96 33.36-25.75 1.56-.55 3.16-.84 4.77-.84 7.75 0 14.05 6.4 14.05 14.26v1.55c0 5.02-3.28 9.44-8.16 10.99-17.45 5.56-28.86 22.25-27.76 40.58 1.27 21.05 19.09 37.53 40.58 37.53h26.6c2.72 0 5.21-1.37 6.67-3.66 1.46-2.3 1.64-5.16.48-7.64-4.25-9.06-6.4-18.71-6.4-28.7 0-18.16 7.07-35.24 19.92-48.08C308.23 177.07 325.3 170 343.47 170c.77 0 1.56.01 2.33.04 17.72.59 34.27 8.07 46.6 21.07 12.3 12.95 19.07 29.93 19.07 47.8V258c0 11.03 8.97 20 20 20s20-8.97 20-20v-70.5c0-9.65 7.85-17.5 17.5-17.5 5.43 0 10.46 2.45 13.8 6.73l58.39 74.82c1.53 1.96 3.82 3.09 6.27 3.09 4.51 0 8.04-3.52 8.04-8.01V187.5c0-9.65 7.85-17.5 17.5-17.5 5.43 0 10.46 2.45 13.8 6.73l58.39 74.82c1.53 1.96 3.82 3.09 6.27 3.09 4.51 0 8.04-3.52 8.04-8.01V186c0-8.82 7.18-16 16-16h44c6.62 0 12 5.38 12 12s-5.38 12-12 12h-22c-7.72 0-14 6.28-14 14v4c0 7.72 6.28 14 14 14h22c6.62 0 12 5.38 12 12s-5.38 12-12 12h-22c-7.72 0-14 6.28-14 14s6.28 14 14 14h84.35c2.11 0 4.02-1.08 5.12-2.88 1.1-1.81 1.17-4.01.19-5.88-5.08-9.77-7.66-20.28-7.66-31.24 0-37.5 30.5-68 68-68h124c8.82 0 16 7.18 16 16v84c0 4.41 3.59 8 8 8h24c4.41 0 8-3.59 8-8v-82.5c0-9.65 7.85-17.5 17.5-17.5 5.43 0 10.46 2.45 13.8 6.73l61.97 79.4c1.15 1.47 2.86 2.31 4.71 2.31 3.32 0 6.02-2.69 6.02-6V186c0-8.82 7.18-16 16-16h108m0-4h-108c-11.05 0-20 8.95-20 20v66.44c0 1.22-1 2-2.02 2-.57 0-1.14-.24-1.56-.77l-61.97-79.4c-4.08-5.22-10.33-8.27-16.95-8.27-11.88 0-21.5 9.63-21.5 21.5V270c0 2.21-1.79 4-4 4h-24c-2.21 0-4-1.79-4-4v-84c0-11.05-8.95-20-20-20h-124c-39.76 0-72 32.24-72 72 0 11.94 2.95 23.17 8.11 33.08.69 1.33-.26 2.92-1.76 2.92h-84.35c-5.52 0-10-4.48-10-10s4.48-10 10-10h22c8.84 0 16-7.16 16-16s-7.16-16-16-16h-22c-5.52 0-10-4.48-10-10v-4c0-5.52 4.48-10 10-10h22c8.84 0 16-7.16 16-16s-7.16-16-16-16h-44c-11.05 0-20 8.95-20 20v60.63c0 2.45-1.99 4.01-4.04 4.01-1.13 0-2.28-.48-3.11-1.55l-58.39-74.82c-4.08-5.22-10.33-8.27-16.95-8.27-11.88 0-21.5 9.63-21.5 21.5v59.12c0 2.45-1.99 4.01-4.04 4.01-1.13 0-2.28-.48-3.11-1.55l-58.39-74.82c-4.08-5.22-10.33-8.27-16.95-8.27-11.88 0-21.5 9.63-21.5 21.5V258c0 8.84-7.16 16-16 16s-16-7.16-16-16v-19.09c0-38.96-30.6-71.56-69.53-72.86-.82-.03-1.65-.04-2.47-.04-39.77 0-72 32.23-72 72 0 10.88 2.45 21.16 6.78 30.4 1.23 2.61-.64 5.6-3.52 5.6h-26.6c-19.14 0-35.44-14.67-36.59-33.78-1.02-17.02 9.79-31.68 24.98-36.53 6.48-2.07 10.95-8 10.95-14.81v-1.55c0-10.52-8.47-18.25-18.05-18.26-2.01 0-4.07.34-6.11 1.07-28.93 10.3-49.33 38.58-47.75 71.4 1.85 38.52 34.37 68.45 72.93 68.45h67.32c18.8 0 27.66-8.87 27.66-19.82v-.17c0-8.24-5.22-15.44-12.91-18.39-14.25-5.48-24.13-19.75-23-36.17 1.22-17.75 15.6-32.13 33.36-33.36.86-.06 1.71-.09 2.56-.09 19.88 0 36 16.12 36 36v36c0 19.88 16.12 36 36 36h28c19.88 0 36-16.12 36-36v-56.65l65.55 84.35c4.07 5.24 10.33 8.3 16.96 8.3h.01c11.86 0 21.48-9.62 21.48-21.48v-71.17l65.99 84.92c3.79 4.88 9.62 7.73 15.79 7.73h192.21c9.94 0 18-8.06 18-18s-8.06-18-18-18h-10.24c-15.47 0-29.48-9.85-34.02-24.64-7.58-24.71 10.7-47.35 34.26-47.35h44c2.21 0 4 1.79 4 4v88c0 8.84 7.16 16 16 16s16-7.16 16-16v-88c0-2.21 1.79-4 4-4h24c2.21 0 4 1.79 4 4v84c0 11.05 8.95 20 20 20h56c11.05 0 20-8.95 20-20v-66.82c0-1.22 1-2 2.02-2 .57 0 1.14.24 1.56.78l61.97 79.75c4.07 5.24 10.33 8.3 16.96 8.3h.01c11.86 0 21.48-9.62 21.48-21.48V206c0-2.21 1.79-4 4-4h29.71c-7.02 12.12-10.68 26.43-9.49 41.7 2.85 36.46 33.17 65.25 69.73 66.27.68.02 1.37.03 2.05.03 29.84 0 55.43-18.14 66.35-44 .84-1.99 1.59-4.76 2.25-7.85 2.66-12.43-6.86-24.15-19.57-24.15h-26.66c-7.33 0-13.27 5.94-13.27 13.27v5.46c0 7.33 5.94 13.27 13.27 13.27-6.16 4.93-13.87 8-22.37 8-.9 0-1.81-.03-2.73-.1-17.8-1.37-32.14-15.86-33.2-33.69-1.25-20.88 15.32-38.21 35.93-38.21 3.67 0 7.2.55 10.52 1.58 1.81.56 3.67.83 5.5.83 4.61 0 9.09-1.73 12.45-5.09l.18-.18c9.55-9.55 5.6-25.9-7.3-29.91-6.76-2.1-13.94-3.23-21.37-3.23zm-280-36c6.62 0 12 5.38 12 12s-5.38 12-12 12-12-5.38-12-12 5.38-12 12-12m0-4c-8.84 0-16 7.16-16 16s7.16 16 16 16 16-7.16 16-16-7.17-16-16-16z"/>
    </g>
    <g class="path01-th darkestGrass">
      <path d="M1085.53 374c6.38 0 13.17.9 20.18 2.68 2.01.51 4.03 1.1 6 1.75 2.77.91 4.99 2.99 6.11 5.7 1.13 2.74 1 5.82-.34 8.46l-.19.37c-1.85 3.62-5.52 5.87-9.58 5.87-1.35 0-2.67-.25-3.93-.75l-.15-.06c-4.31-1.68-8.58-2.53-12.67-2.53-5.45 0-10.04 1.37-13.62 4.06-3.89 2.92-5.94 6.96-5.94 11.7 0 3.45 1.09 6.37 3.23 8.68 1.78 1.93 4.1 3.6 6.88 4.96 2.57 1.25 5.47 2.34 8.62 3.23 2.97.85 5.86 1.75 8.61 2.66 10.81 3.61 18.75 8.39 23.61 14.23 4.73 5.69 7.13 13.32 7.13 22.68 0 6.42-1.08 12.3-3.22 17.46-2.11 5.09-5.24 9.5-9.29 13.11-4.09 3.66-9.23 6.55-15.26 8.6-4.65 1.58-10.23 2.51-17.04 2.84-3.97.01-122.09.29-127.19.29-37.5 0-68-30.5-68-68 0-9.95 2.14-19.58 6.36-28.61 1.17-2.5.99-5.38-.49-7.7-1.47-2.31-3.98-3.69-6.73-3.69h-23.15c-4.41 0-8 3.59-8 8v82.52c0 9.64-7.84 17.48-17.49 17.48-5.44 0-10.47-2.46-13.8-6.75l-58.39-75.14c-1.53-1.97-3.82-3.1-6.28-3.1-4.51 0-8.04 3.52-8.04 8.01V494c0 8.82-7.18 16-16 16h-72c-8.82 0-16-7.18-16-16v-84c0-4.41-3.59-8-8-8h-40c-4.41 0-8 3.59-8 8v88c0 6.62-5.38 12-12 12s-12-5.38-12-12v-36c0-4.41-3.59-8-8-8h-48c-4.41 0-8 3.59-8 8v36c0 6.62-5.38 12-12 12s-12-5.38-12-12v-88c0-4.41-3.59-8-8-8h-32c-4.41 0-8 3.59-8 8v88c0 6.62-5.38 12-12 12s-12-5.38-12-12v-88c0-4.41-3.59-8-8-8h-18c-7.72 0-14-6.28-14-14s6.28-14 14-14h106c8.82 0 16 7.18 16 16v32c0 4.41 3.59 8 8 8h48c4.41 0 8-3.59 8-8v-32c0-8.82 7.18-16 16-16h72c8.82 0 16 7.18 16 16v86c0 3.31 2.69 6 6 6h44c3.31 0 6-2.69 6-6v-84.5c0-9.65 7.85-17.5 17.5-17.5 5.43 0 10.46 2.45 13.8 6.73l58.39 74.82c1.53 1.96 3.82 3.09 6.27 3.09 4.51 0 8.04-3.52 8.04-8.01V390c0-8.82 7.18-16 16-16h108c6.97 0 13.83 1.05 20.41 3.12 4.57 1.44 7.98 5.11 9.14 9.82 1.19 4.86-.2 9.85-3.74 13.39-2.63 2.63-6.13 4.09-9.86 4.09-1.4 0-2.8-.21-4.14-.63-3.82-1.19-7.79-1.79-11.81-1.79-10.83 0-20.97 4.26-28.56 11.99-7.58 7.73-11.64 17.96-11.43 28.8.2 10.39 4.5 20.21 12.11 27.66 7.6 7.45 17.5 11.55 27.89 11.55h.19c8.94-.04 17.47-3.11 24.68-8.88 1.33-1.06 1.84-2.84 1.28-4.45-.56-1.6-2.08-2.68-3.77-2.68-5.11 0-9.27-4.16-9.27-9.27v-5.46c0-5.11 4.16-9.27 9.27-9.27h26.66c4.87 0 9.41 2.17 12.48 5.96 3.03 3.74 4.19 8.57 3.2 13.25-.68 3.19-1.37 5.62-2.05 7.24-.95 2.24-2.14 4.57-3.87 7.55-.72 1.24-.72 2.76-.01 4 .71 1.24 2.04 2 3.47 2h69.39c6.09 0 11.06-4.95 11.08-11.05 0-2.64-.5-5.02-1.48-7.06-1-2.09-2.63-3.99-4.83-5.64-1.96-1.47-4.49-2.83-7.51-4.04-2.72-1.09-6.01-2.3-10.05-3.69-.03-.01-.06-.02-.1-.03-4.46-1.41-8.9-2.99-13.2-4.7-3.97-1.58-7.56-3.7-10.66-6.31-2.99-2.52-5.45-5.75-7.3-9.62-1.84-3.83-2.77-8.88-2.77-15 0-6.2 1.03-11.87 3.05-16.85 2.02-4.95 4.87-9.24 8.48-12.75 3.62-3.52 8.15-6.29 13.45-8.26 5.37-1.98 11.5-2.99 18.24-2.99m0-4c-7.24 0-13.78 1.08-19.63 3.26-5.85 2.17-10.8 5.22-14.84 9.13-4.04 3.92-7.17 8.62-9.4 14.11-2.23 5.49-3.35 11.61-3.35 18.36 0 6.76 1.05 12.33 3.16 16.74 2.11 4.4 4.89 8.05 8.33 10.95 3.44 2.89 7.36 5.22 11.76 6.97 4.4 1.75 8.89 3.34 13.48 4.79 3.86 1.33 7.15 2.53 9.86 3.62 2.71 1.08 4.91 2.26 6.6 3.53 1.69 1.27 2.9 2.65 3.62 4.16.72 1.51 1.08 3.28 1.08 5.34-.01 3.9-3.18 7.05-7.08 7.05h-69.39c1.5-2.58 2.92-5.22 4.09-8 .85-2.01 1.61-4.82 2.28-7.96 2.64-12.39-6.93-24.04-19.59-24.04h-26.66c-7.33 0-13.27 5.94-13.27 13.27v5.46c0 7.33 5.94 13.27 13.27 13.27-6.12 4.9-13.76 7.96-22.2 8h-.17c-19.29 0-35.62-15.98-35.99-35.28-.39-20.21 15.87-36.72 35.99-36.72 3.7 0 7.27.57 10.62 1.61 1.75.55 3.55.81 5.33.81 4.69 0 9.27-1.84 12.68-5.26l.03-.03c9.47-9.47 5.72-25.81-7.05-29.83-6.82-2.15-14.08-3.31-21.61-3.31h-108c-11.05 0-20 8.95-20 20v60.63c0 2.45-1.99 4.01-4.04 4.01-1.13 0-2.28-.48-3.11-1.55l-58.39-74.82c-4.08-5.22-10.33-8.27-16.95-8.27-11.88 0-21.5 9.63-21.5 21.5V476c0 1.1-.9 2-2 2h-44c-1.1 0-2-.9-2-2v-86c0-11.05-8.95-20-20-20h-72c-11.05 0-20 8.95-20 20v32c0 2.21-1.79 4-4 4h-48c-2.21 0-4-1.79-4-4v-32c0-11.05-8.95-20-20-20h-106c-9.94 0-18 8.06-18 18s8.06 18 18 18h18c2.21 0 4 1.79 4 4v88c0 8.84 7.16 16 16 16s16-7.16 16-16v-88c0-2.21 1.79-4 4-4h32c2.21 0 4 1.79 4 4v88c0 8.84 7.16 16 16 16s16-7.16 16-16v-36c0-2.21 1.79-4 4-4h48c2.21 0 4 1.79 4 4v36c0 8.84 7.16 16 16 16s16-7.16 16-16v-88c0-2.21 1.79-4 4-4h40c2.21 0 4 1.79 4 4v84c0 11.05 8.96 20 20 20h72c11.05 0 20-8.95 20-20v-60.99c0-2.45 1.99-4.01 4.04-4.01 1.13 0 2.29.48 3.12 1.55l58.39 75.14c4.07 5.24 10.33 8.3 16.96 8.3h.01c11.86 0 21.48-9.62 21.48-21.48V410c0-2.21 1.79-4 4-4h23.15c2.93 0 4.84 3.04 3.59 5.69-4.3 9.21-6.74 19.47-6.74 30.31 0 39.76 32.24 72 72 72 5.23 0 127.29-.29 127.29-.29 6.62-.32 12.79-1.21 18.23-3.05 6.57-2.23 12.12-5.37 16.64-9.41 4.53-4.04 7.97-8.89 10.32-14.56 2.34-5.67 3.53-12 3.53-19 0-10.37-2.69-18.78-8.05-25.24-5.36-6.45-13.84-11.61-25.42-15.47-2.89-.96-5.82-1.87-8.77-2.71-2.96-.84-5.61-1.83-7.97-2.98-2.35-1.14-4.25-2.5-5.69-4.07-1.45-1.57-2.18-3.55-2.18-5.97 0-3.49 1.45-6.33 4.34-8.5 2.89-2.17 6.63-3.26 11.22-3.26 3.61 0 7.36.75 11.22 2.26l.13.05c1.77.7 3.6 1.03 5.4 1.03 5.4 0 10.56-2.98 13.14-8.05l.19-.37c3.91-7.67.1-17.07-8.08-19.78-2.06-.68-4.15-1.29-6.27-1.83-7.38-1.86-14.43-2.8-21.18-2.8zm-424.06-36c6.62 0 12 5.38 12 12s-5.38 12-12 12-12-5.38-12-12 5.38-12 12-12m0-4c-8.84 0-16 7.16-16 16s7.16 16 16 16 16-7.16 16-16-7.17-16-16-16z"/>
    </g>
  </g>
</svg>
