<?xml version="1.0" encoding="utf-8"?>
<!-- Generator: Adobe Illustrator 22.1.0, SVG Export Plug-In . SVG Version: 6.00 Build 0)  -->
<svg version="1.1" id="Layer_1" xmlns="http://www.w3.org/2000/svg" xmlns:xlink="http://www.w3.org/1999/xlink" x="0px" y="0px"
	 width="124px" height="124px" viewBox="0 0 124 124" style="enable-background:new 0 0 124 124;" xml:space="preserve">
<style type="text/css">
	.st0{fill:none;stroke:#757F7E;stroke-miterlimit:10;}
	.st1{fill:none;stroke:#FFFFFF;stroke-miterlimit:10;}
</style>
<g>
	<circle class="st0" cx="62" cy="38" r="36"/>
	<circle class="st0" cx="62" cy="86" r="36"/>
	<circle class="st0" cx="41.215" cy="50" r="36"/>
	<circle class="st0" cx="82.785" cy="74" r="36"/>
	<circle class="st0" cx="41.215" cy="74" r="36"/>
	<circle class="st0" cx="82.785" cy="50" r="36"/>
	<path class="st1" d="M75.152,62c-0.725-2.044-1.636-4.054-2.76-6c-1.123-1.946-2.409-3.739-3.816-5.39
		C66.443,50.216,64.247,50,62,50c-2.247,0-4.443,0.216-6.576,0.61c-1.408,1.65-2.693,3.444-3.816,5.39
		c-1.124,1.946-2.034,3.956-2.76,6c0.725,2.044,1.636,4.054,2.76,6c1.123,1.946,2.409,3.739,3.816,5.39
		C57.557,73.784,59.753,74,62,74c2.247,0,4.443-0.216,6.576-0.61c1.408-1.65,2.693-3.444,3.816-5.39
		C73.516,66.054,74.427,64.044,75.152,62z"/>
</g>
</svg>
