<?xml version="1.0" encoding="utf-8"?>
<!-- Generator: Adobe Illustrator 22.1.0, SVG Export Plug-In . SVG Version: 6.00 Build 0)  -->
<svg version="1.1" id="Layer_1" xmlns="http://www.w3.org/2000/svg" xmlns:xlink="http://www.w3.org/1999/xlink" x="0px" y="0px"
	 width="140px" height="140px" viewBox="0 0 140 140" style="enable-background:new 0 0 140 140;" xml:space="preserve">
<style type="text/css">
	.st0{fill:none;stroke:#FFFFFF;stroke-miterlimit:10;}
</style>
<circle class="st0" cx="100" cy="70" r="5"/>
<circle class="st0" cx="70" cy="70" r="5"/>
<circle class="st0" cx="40" cy="70" r="5"/>
<circle class="st0" cx="10" cy="70" r="5"/>
<circle class="st0" cx="100" cy="100" r="5"/>
<circle class="st0" cx="70" cy="100" r="5"/>
<circle class="st0" cx="70" cy="130" r="5"/>
<circle class="st0" cx="70" cy="10" r="5"/>
<circle class="st0" cx="40" cy="100" r="5"/>
<circle class="st0" cx="100" cy="40" r="5"/>
<circle class="st0" cx="70" cy="40" r="5"/>
<circle class="st0" cx="40" cy="40" r="5"/>
<circle class="st0" cx="130" cy="70" r="5"/>
<circle class="st0" cx="85" cy="55" r="5"/>
<circle class="st0" cx="55" cy="55" r="5"/>
<circle class="st0" cx="85" cy="25" r="5"/>
<circle class="st0" cx="55" cy="25" r="5"/>
<circle class="st0" cx="85" cy="115" r="5"/>
<circle class="st0" cx="55" cy="115" r="5"/>
<circle class="st0" cx="25" cy="55" r="5"/>
<circle class="st0" cx="115" cy="55" r="5"/>
<circle class="st0" cx="85" cy="85" r="5"/>
<circle class="st0" cx="55" cy="85" r="5"/>
<circle class="st0" cx="25" cy="85" r="5"/>
<circle class="st0" cx="115" cy="85" r="5"/>
</svg>
