<?xml version="1.0" encoding="utf-8"?>
<!-- Generator: Adobe Illustrator 22.1.0, SVG Export Plug-In . SVG Version: 6.00 Build 0)  -->
<svg version="1.1" id="Layer_1" xmlns="http://www.w3.org/2000/svg" xmlns:xlink="http://www.w3.org/1999/xlink" x="0px" y="0px"
	 width="124px" height="124px" viewBox="0 0 124 124" style="enable-background:new 0 0 124 124;" xml:space="preserve">
<style type="text/css">
	.st0{fill:none;stroke:#757F7E;stroke-miterlimit:10;}
	.st1{fill:none;stroke:#FFFFFF;stroke-miterlimit:10;}
</style>
<g>
	<circle class="st0" cx="62" cy="7" r="5"/>
	<circle class="st0" cx="62" cy="117" r="5"/>
	<circle class="st0" cx="34.5" cy="14.369" r="5"/>
	<circle class="st0" cx="89.5" cy="109.631" r="5"/>
	<circle class="st0" cx="14.369" cy="34.5" r="5"/>
	<circle class="st0" cx="109.631" cy="89.5" r="5"/>
	<circle class="st0" cx="7" cy="62" r="5"/>
	<circle class="st0" cx="117" cy="62" r="5"/>
	<circle class="st0" cx="14.369" cy="89.5" r="5"/>
	<circle class="st0" cx="109.631" cy="34.5" r="5"/>
	<circle class="st0" cx="34.5" cy="109.631" r="5"/>
	<circle class="st0" cx="89.5" cy="14.369" r="5"/>
	<line class="st0" x1="62" y1="12" x2="62" y2="42"/>
	<line class="st0" x1="62" y1="82.679" x2="62" y2="112.679"/>
	<line class="st0" x1="36.83" y1="18.744" x2="51.83" y2="44.725"/>
	<line class="st0" x1="72.17" y1="79.954" x2="87.17" y2="105.935"/>
	<line class="st0" x1="18.405" y1="37.17" x2="44.386" y2="52.17"/>
	<line class="st0" x1="79.614" y1="72.509" x2="105.595" y2="87.509"/>
	<line class="st0" x1="11.661" y1="62.339" x2="41.661" y2="62.339"/>
	<line class="st0" x1="82.339" y1="62.339" x2="112.339" y2="62.339"/>
	<line class="st0" x1="18.405" y1="87.509" x2="44.386" y2="72.509"/>
	<line class="st0" x1="79.614" y1="52.17" x2="105.595" y2="37.17"/>
	<line class="st0" x1="36.83" y1="105.935" x2="51.83" y2="79.954"/>
	<line class="st0" x1="72.17" y1="44.725" x2="87.17" y2="18.744"/>
	<circle class="st1" cx="62" cy="62" r="20"/>
</g>
</svg>
