<?xml version="1.0" encoding="utf-8"?>
<!-- Generator: Adobe Illustrator 22.1.0, SVG Export Plug-In . SVG Version: 6.00 Build 0)  -->
<svg version="1.1" id="Layer_1" xmlns="http://www.w3.org/2000/svg" xmlns:xlink="http://www.w3.org/1999/xlink" x="0px" y="0px"
	 width="960px" height="200px" viewBox="0 0 960 200" style="enable-background:new 0 0 960 200;" xml:space="preserve">
<style type="text/css">
	.st0{fill:none;stroke:#FFFFFF;stroke-miterlimit:10;}
</style>
<g>
	<path class="st0" d="M163.085,118.762c0.338,7.978-11.988,12.115-17.313,6.166s-1.555-16.791,6.023-19.307
		c7.578-2.516,16.356,2.522,19.353,9.923c2.997,7.401,0.903,16.197-3.919,22.562c-13.56,17.9-46.893,11.773-54.14-9.482
		c-7.247-21.255,13.79-46.109,36.095-43.506s37.214,30.098,28.224,50.677c-10.272,23.516-43.692,29.972-66.056,17.386
		C88.196,140.149,76.651,106.382,92.955,85.4c15.844-20.392,47.289-19.453,71.55-10.606c14.08,5.135,27.779,12.53,37.36,24.054
		s14.411,27.758,9.574,41.942c-4.784,14.029-18.412,23.94-32.975,26.703c-14.563,2.763-29.782-0.851-43.03-7.498
		c-31.188-15.649-52.978-50.094-50.356-84.889s31.679-66.722,66.466-69.461c4.988-0.393,10.528-0.037,14.154,3.411
		c3.222,3.063,4.111,7.779,4.821,12.168c3.868,23.885,7.413,48.221,4.088,72.187s-14.469,47.896-34.54,61.408
		c-20.071,13.512-49.808,13.707-66.84-3.479c-6.76-6.821-11.268-16.453-9.935-25.964c2.112-15.065,17.218-24.496,31.343-30.144
		c18.513-7.402,38.13-12.034,57.999-13.695c17.675-1.477,36.581-0.281,51.265,9.667c14.684,9.948,22.964,30.947,13.957,46.226
		c-6.526,11.07-20.257,16.326-33.101,15.92c-12.844-0.407-25.032-5.559-36.576-11.203c-23.067-11.277-55.498-25.892-67.501-50.485
		c-19.671-40.304,50.851-55.005,77.421-59.26c10.845-1.737,21.897-2.587,32.822-1.463c30.934,3.182,59.594,23.284,73.119,51.286
		c13.525,28.002,11.453,62.948-5.285,89.156c-6.123,9.586-16.629,18.847-27.59,15.808c-6.316-1.751-10.926-7.282-13.765-13.19
		c-11.008-22.909,0.75-51.779,20.879-67.296s46.406-20.378,71.736-22.469c5.706-0.471,11.663-0.789,16.947,1.416
		c15.272,6.373,15.425,27.642,13.011,44.014c-0.575,3.898-1.56,8.387-5.096,10.126c-3.197,1.572-6.997,0.123-10.207-1.423
		c-25.116-12.092-47.226-30.371-63.823-52.767c-1.934-2.609-3.872-5.511-3.843-8.759c0.055-6.126,6.686-9.816,12.465-11.849
		c24.567-8.642,51.736-11.224,76.791-4.119c25.055,7.105,47.649,24.573,58.036,48.455c3.791,8.716,5.79,19.267,0.889,27.41
		c-3.514,5.838-9.9,9.281-16.207,11.863c-25.474,10.428-54.826,11.035-80.709,1.668c-9.674-3.501-20.555-12.29-16.771-21.857
		c1.793-4.532,6.389-7.222,10.747-9.404c24.284-12.159,51.932-19.273,78.742-14.943c25.368,4.097,63.251,24.045,57.824,55.166
		c-1.575,9.031-7.738,17.376-16.319,20.602s-19.284,0.634-24.703-6.76c-2.751-3.754-4.047-8.355-5.151-12.876
		c-0.975-3.992-1.848-8.039-1.957-12.147c-0.26-9.817,4.001-19.501,10.798-26.588c18.19-18.967,52.076-24.272,76.912-26.085
		c6.762-0.493,13.919-0.576,19.875,2.664c12.045,6.555,13.141,25.658,3.335,35.243c-9.807,9.585-26.637,9.404-37.917,1.607
		c-11.281-7.797-17.326-21.617-18.391-35.288c-0.252-3.234-0.211-6.671,1.43-9.469c2.335-3.981,7.254-5.607,11.829-6.209
		c27.245-3.59,54.19,22.784,51.185,50.1c-0.286,2.603-0.849,5.295-2.486,7.339c-1.685,2.103-4.339,3.258-7.009,3.623
		c-11.184,1.53-20.895-11.871-17.041-22.48c3.854-10.61,18.26-15.154,28.202-9.809c9.942,5.346,14.336,18.459,11.014,29.247
		c-0.65,2.112-1.596,4.21-3.229,5.699c-4.529,4.125-12.528,1.373-15.428-4.023c-2.901-5.396-1.91-12.073,0.205-17.822
		c5.958-16.193,20.671-28.855,37.571-32.333c16.9-3.478,35.418,2.345,47.285,14.87c6.214,6.558,10.767,15.869,8.198,24.53
		c-2.57,8.661-14.886,13.868-21.212,7.418c-5.485-5.593-2.667-15.824,3.775-20.28c4.827-3.339,11.443-4.91,17.256-4.183
		c2.936,0.368,5.906,1.226,7.421,3.872c1.894,3.307,3.527,6.955,3.394,10.847c-0.175,5.11-4.858,10.356-9.806,9.069
		c-2.365-0.615-4.19-2.53-5.443-4.627c-9.621-16.111,12.967-35.362,28.247-26.949c6.842,3.767,10.089,13.623,5.567,19.99
		c-1.076,1.516-2.641,2.834-4.492,3.001c-2.954,0.266-5.47-2.644-5.706-5.6c-0.236-2.956,1.231-5.788,2.992-8.174
		c2.042-2.768,4.642-5.264,7.88-6.425c5.459-1.959,12.283-0.036,16.747-3.74c4.624-3.838,2.54-12.787-3.304-14.187
		c-5.844-1.4-11.757,5.634-9.373,11.15c1.393,3.225,4.642,5.167,7.641,6.996c3.919,2.389,7.851,5.048,10.348,8.899
		c2.497,3.85,3.231,9.187,0.624,12.964c-2.607,3.777-9.038,4.614-11.729,0.897c-2.493-3.444-0.674-8.485,2.391-11.432
		c5.436-5.226,14.533-6.11,20.873-2.028c6.34,4.081,9.302,12.728,6.796,19.84c-2.67,2.598-7.807,0.415-8.59-3.228
		c-2.672-12.443,12.594-8.223,17.672-5.929c9.488,4.286,15.737,9.365,27.039,8.824c4.882-0.234,10.188-1.66,12.923-5.711
		c2.734-4.051,0.826-11.019-4.039-11.486c-4.532-0.435-7.831,5.371-6.134,9.596c1.696,4.225,6.665,6.374,11.215,6.192
		c4.55-0.182,8.798-2.199,12.898-4.178c3.979-1.92,7.959-3.841,11.938-5.761c6.533-3.153,13.587-6.391,20.754-5.264
		s13.704,8.754,10.869,15.432c-2.182,2.848-7.432,0.564-7.86-2.997c-0.428-3.562,2.538-6.772,5.876-8.086
		c3.338-1.314,7.028-1.263,10.592-1.665c5.45-0.616,12.139-5.677,9.003-10.176c-2.762-3.961-9.992,0.268-9.162,5.025
		s6.544,7.258,11.32,6.544c4.776-0.714,8.868-3.648,13.02-6.113c4.152-2.466,8.992-4.588,13.687-3.46
		c8.559,2.056,12.439,13.724,21.151,14.991c8.284,1.204,14.101-7.466,20.689-12.63c9.645-7.561,24.415-7.676,34.178-0.267"/>
	<path class="st0" d="M125.182,66.582c-6.651-6.348-18.661-2.179-23.216,5.807s-3.716,17.865-2.21,26.935
		c2.855,17.195,7.627,34.071,14.198,50.215c3.027,7.437,6.713,15.063,13.268,19.7c5.912,4.183,13.562,5.391,20.752,4.513
		c25.801-3.151,42.075-29.861,48.038-55.161c4.376-18.565,4.792-39.843-7.013-54.824c-10.613-13.469-28.546-18.651-45.512-21.141
		c-4.39-0.644-9.14-1.101-13.024,1.045c-3.591,1.983-5.722,5.806-7.45,9.526c-6.756,14.54-10.229,30.594-10.086,46.626
		c0.044,4.936,0.572,10.245,3.784,13.993c2.804,3.272,7.14,4.738,11.311,5.818c26.038,6.746,54.486,3.722,78.524-8.347
		c2.244-1.127,4.577-2.453,5.741-4.679c1.786-3.416,0.185-7.6-1.831-10.885c-12.846-20.943-39.952-28.134-64.513-28.747
		c-7.936-0.198-16.425,0.273-22.849,4.935c-6.881,4.994-9.882,13.686-11.888,21.949c-3.812,15.696-5.457,31.917-4.876,48.058
		c0.43,11.949,2.314,24.455,9.536,33.985c9.705,12.807,26.883,17.432,42.925,18.363c40.02,2.322,80.734-14.189,107.832-43.731
		c5.885-6.416,11.261-13.615,13.651-21.986c2.391-8.371,1.335-18.129-4.465-24.622c-5.972-6.686-15.587-8.713-24.547-9.02
		c-7.124-0.244-14.621,0.472-20.579,4.385c-5.958,3.913-9.776,11.798-7.117,18.412c2.31,5.746,8.645,8.908,14.767,9.845
		c20.796,3.183,41.08-16.011,41.883-37.034c0.804-21.023-15.271-40.564-35.312-46.965c-10.554-3.371-23.46-3.035-31.119,4.971
		c-3.823,3.997-5.829,9.364-7.436,14.656c-3.338,10.995-5.376,22.384-6.059,33.855c-0.727,12.207,0.637,25.778,9.492,34.212
		c10.709,10.2,30.84,7.319,38.093-5.569c7.253-12.889-0.94-31.735-15.355-35.039c-2.13-0.488-4.643-0.578-6.207,0.949
		c-0.8,0.781-1.216,1.868-1.56,2.932c-5.129,15.892,2.153,34.881,16.592,43.269c14.439,8.388,34.542,5.307,45.807-7.02
		c9.913-10.848,12.489-26.717,11.034-41.339c-0.444-4.456-1.283-9.045-3.851-12.713c-6.658-9.508-22.791-7.798-29.933,1.353
		s-6.597,22.443-2.042,33.119c3.005,7.044,7.91,13.686,14.951,16.697c11.348,4.853,24.293-0.911,34.772-7.43
		c11.272-7.013,23.265-18.677,19.457-31.394c-2.683-8.96-13.444-14.116-22.494-11.757c-9.05,2.36-15.685,11.047-16.948,20.314
		c-1.995,14.641,10.373,30.045,25.149,29.94c14.776-0.105,27.06-17.351,21.207-30.919s-28.454-15.521-35.613-2.595
		c-6.134,11.074,0.973,25.959,12.216,31.777c11.243,5.818,24.879,4.533,37.043,1.029c4.928-1.419,10.094-3.427,12.95-7.686
		c2.455-3.66,2.747-8.319,2.757-12.726c0.04-17.51-3.169-35.023-9.414-51.381c-2.636-6.905-6.704-14.38-13.887-16.123
		c-10.407-2.526-19.28,9.071-20.209,19.741c-0.782,8.984,1.714,17.927,4.783,26.408c3.307,9.14,7.486,18.284,14.56,24.95
		c7.074,6.666,17.628,10.389,26.778,7.109c9.15-3.281,15.07-14.952,10.363-23.456c-5.252-9.49-21.173-8.953-27.076,0.147
		s-1.579,22.548,7.752,28.077c9.331,5.529,21.843,3.773,30.625-2.592s14.152-16.603,16.634-27.161
		c2.482-10.558,2.352-21.538,1.999-32.379c-0.165-5.046-1.238-11.286-6.062-12.775c-2.207-0.681-4.598-0.077-6.763,0.727
		c-18.144,6.74-28.597,27.437-27.391,46.754c1.206,19.318,12.134,36.939,25.99,50.454c3.952,3.855,8.364,7.558,13.706,8.954
		c4.109,1.073,8.51,0.682,12.561-0.592c10.953-3.443,19.551-14.086,19.557-25.568s-9.373-22.527-20.82-23.404
		c-11.448-0.878-22.754,9.566-21.876,21.014c1.089,14.194,17.74,22.298,31.951,21.465c11.702-0.686,23.429-5.737,30.673-14.953
		c8.056-10.25,9.606-25.196,3.824-36.881c-5.782-11.685-18.604-19.519-31.64-19.333c-2.748,0.039-5.72,0.516-7.627,2.494
		c-2.174,2.256-2.312,5.755-2.019,8.875c0.726,7.718,3.582,15.641,9.648,20.468c6.066,4.827,15.791,5.447,21.222-0.085
		c4.214-4.292,4.931-10.968,4.069-16.92c-1.318-9.108-8.364-19.079-17.432-17.512c-5.485,0.948-9.41,5.849-11.857,10.849
		c-7.244,14.802-5.563,33.565,4.196,46.844c5.696,7.751,14.486,13.797,24.104,13.914c8.459,0.103,16.354-4.297,22.928-9.622
		c5.84-4.731,11.159-10.55,13.396-17.725c2.237-7.175,0.728-15.888-5.14-20.585c-8.41-6.732-22.178-1.886-27.298,7.592
		c-5.12,9.478-3.277,21.378,1.386,31.088c2.909,6.057,7.377,12.008,13.868,13.748c3.256,0.873,6.744,0.586,9.982-0.351
		c11.733-3.392,20.009-16.037,18.422-28.147c-1.587-12.11-12.841-22.196-25.051-22.451c-4.445-0.093-9.557,1.525-11.129,5.685
		c-0.755,1.998-0.54,4.224-0.149,6.323c3.965,21.318,27.23,36.967,48.47,32.603c21.24-4.365,36.449-27.92,31.686-49.074
		c-1.163-5.164-3.735-10.515-8.561-12.688c-6.416-2.889-14.236,1.29-17.816,7.347c-3.58,6.057-4.002,13.405-4.333,20.433
		c-0.11,2.328-0.115,4.947,1.515,6.612c1.267,1.294,3.193,1.645,4.993,1.831c8.836,0.917,18.5-0.864,24.729-7.196
		c6.229-6.333,7.313-17.934,0.624-23.78c-6.512-5.691-17.865-3.14-22.417,4.213s-2.61,17.619,3.367,23.87
		c5.976,6.251,15.169,8.746,23.781,7.951c5.26-0.485,10.682-2.27,14.115-6.285c3.433-4.014,4.124-10.625,0.477-14.445
		c-6.047-6.334-18.117,1.365-17.385,10.091c0.732,8.726,9.68,14.753,18.364,15.877c6.335,0.82,13.596-1.309,17.263-6.966
		c2.603-4.016,1.32-10.731-3.358-11.741c-5.507-1.189-9.176,5.915-8.933,11.543c0.081,1.885,0.373,3.797,1.216,5.485
		c1.954,3.915,6.607,5.914,10.982,5.855c4.375-0.059,8.537-1.82,12.454-3.77c5.314-2.645,11.231-7.44,9.751-13.189
		c-1.086-4.22-6.418-6.502-10.471-4.903c-4.053,1.6-6.4,6.302-5.892,10.63c0.239,2.04,1.045,4.038,2.435,5.549
		c2.839,3.089,7.431,3.645,11.611,4.005c4.18,0.36,8.771,0.908,11.618,3.99c2.848,3.081,1.875,9.473-2.301,9.881
		c-2.44,0.239-4.701-1.785-5.337-4.152c-0.636-2.367,0.056-4.916,1.224-7.072c4.536-8.376,16.864-11.242,24.63-5.727
		c2.479,1.76,4.432,4.15,6.702,6.171c6.482,5.774,15.695,8.336,24.227,6.739c8.532-1.597,16.194-7.32,20.149-15.047"/>
</g>
</svg>
