<?xml version="1.0" encoding="utf-8"?>
<!-- Generator: Adobe Illustrator 22.1.0, SVG Export Plug-In . SVG Version: 6.00 Build 0)  -->
<svg version="1.1" id="content" xmlns="http://www.w3.org/2000/svg" xmlns:xlink="http://www.w3.org/1999/xlink" x="0px" y="0px"
	 width="120px" height="120px" viewBox="0 0 120 120" style="enable-background:new 0 0 120 120;" xml:space="preserve">
<style type="text/css">
	.svg_x002D_opaque{fill:none;stroke:#FFFFFF;stroke-miterlimit:10;}
	.st0{opacity:0.3;fill:none;stroke:#FFFFFF;stroke-miterlimit:10;}
	.st1{fill:none;stroke:#757F7E;stroke-miterlimit:10;}
	.st2{fill:none;stroke:#FFFFFF;stroke-miterlimit:10;}
</style>
<line class="svg_x002D_opaque" x1="70" y1="85" x2="70" y2="75"/>
<line class="svg_x002D_opaque" x1="30" y1="75" x2="30" y2="85"/>
<line class="svg_x002D_opaque" x1="45" y1="70" x2="35" y2="70"/>
<line class="svg_x002D_opaque" x1="35" y1="50" x2="45" y2="50"/>
<line class="svg_x002D_opaque" x1="30" y1="35" x2="30" y2="45"/>
<line class="svg_x002D_opaque" x1="45" y1="30" x2="35" y2="30"/>
<line class="svg_x002D_opaque" x1="65" y1="50" x2="55" y2="50"/>
<line class="svg_x002D_opaque" x1="50" y1="65" x2="50" y2="55"/>
<line class="svg_x002D_opaque" x1="55" y1="70" x2="65" y2="70"/>
<line class="svg_x002D_opaque" x1="85" y1="50" x2="75" y2="50"/>
<line class="svg_x002D_opaque" x1="90" y1="35" x2="90" y2="45"/>
<line class="svg_x002D_opaque" x1="90" y1="55" x2="90" y2="65"/>
<line class="svg_x002D_opaque" x1="75" y1="70" x2="85" y2="70"/>
<line class="svg_x002D_opaque" x1="90" y1="75" x2="90" y2="85"/>
<circle class="svg_x002D_opaque" cx="70" cy="90" r="5"/>
<circle class="svg_x002D_opaque" cx="30" cy="90" r="5"/>
<circle class="svg_x002D_opaque" cx="90" cy="70" r="5"/>
<circle class="svg_x002D_opaque" cx="90" cy="50" r="5"/>
<circle class="svg_x002D_opaque" cx="70" cy="70" r="5"/>
<circle class="svg_x002D_opaque" cx="50" cy="70" r="5"/>
<circle class="svg_x002D_opaque" cx="30" cy="70" r="5"/>
<circle class="svg_x002D_opaque" cx="30" cy="50" r="5"/>
<circle class="svg_x002D_opaque" cx="50" cy="50" r="5"/>
<circle class="svg_x002D_opaque" cx="50" cy="30" r="5"/>
<circle class="svg_x002D_opaque" cx="30" cy="30" r="5"/>
<circle class="svg_x002D_opaque" cx="90" cy="30" r="5"/>
<circle class="svg_x002D_opaque" cx="70" cy="50" r="5"/>
<circle class="svg_x002D_opaque" cx="90" cy="90" r="5"/>
</svg>
