<?xml version="1.0" encoding="utf-8"?>
<!-- Generator: Adobe Illustrator 22.1.0, SVG Export Plug-In . SVG Version: 6.00 Build 0)  -->
<svg version="1.1" id="content" xmlns="http://www.w3.org/2000/svg" xmlns:xlink="http://www.w3.org/1999/xlink" x="0px" y="0px"
	 width="120px" height="120px" viewBox="0 0 120 120" style="enable-background:new 0 0 120 120;" xml:space="preserve">
<style type="text/css">
	.svg_x002D_opaque{fill:none;stroke:#FFFFFF;stroke-miterlimit:10;}
	.svg_x002D_transparent{opacity:0.3;fill:none;stroke:#FFFFFF;stroke-miterlimit:10;}
	.st0{fill:none;stroke:#757F7E;stroke-miterlimit:10;}
	.st1{fill:none;stroke:#FFFFFF;stroke-miterlimit:10;}
</style>
<circle class="svg_x002D_transparent" cx="38.787" cy="38.787" r="5"/>
<circle class="svg_x002D_transparent" cx="81.213" cy="81.213" r="5"/>
<circle class="svg_x002D_transparent" cx="38.787" cy="81.213" r="5"/>
<circle class="svg_x002D_transparent" cx="81.213" cy="38.787" r="5"/>
<circle class="svg_x002D_opaque" cx="30" cy="90" r="2"/>
<circle class="svg_x002D_opaque" cx="70" cy="70" r="2"/>
<circle class="svg_x002D_opaque" cx="50" cy="70" r="2"/>
<circle class="svg_x002D_opaque" cx="50" cy="50" r="2"/>
<circle class="svg_x002D_opaque" cx="30" cy="30" r="2"/>
<circle class="svg_x002D_opaque" cx="90" cy="30" r="2"/>
<circle class="svg_x002D_opaque" cx="70" cy="50" r="2"/>
<circle class="svg_x002D_transparent" cx="60" cy="30" r="5"/>
<circle class="svg_x002D_transparent" cx="60" cy="90" r="5"/>
<circle class="svg_x002D_opaque" cx="90" cy="90" r="2"/>
<line class="svg_x002D_opaque" x1="31.333" y1="31.333" x2="48.625" y2="48.625"/>
<line class="svg_x002D_opaque" x1="88.833" y1="31.167" x2="71.583" y2="48.417"/>
<line class="svg_x002D_opaque" x1="48.542" y1="71.458" x2="31.458" y2="88.542"/>
<line class="svg_x002D_opaque" x1="71.333" y1="71.333" x2="88.625" y2="88.625"/>
<circle class="svg_x002D_transparent" cx="30" cy="60" r="5"/>
<circle class="svg_x002D_transparent" cx="90" cy="60" r="5"/>
</svg>
