<?xml version="1.0" encoding="utf-8"?>
<!-- Generator: Adobe Illustrator 22.0.1, SVG Export Plug-In . SVG Version: 6.00 Build 0)  -->
<svg version="1.1" id="Layer_1" xmlns="http://www.w3.org/2000/svg" xmlns:xlink="http://www.w3.org/1999/xlink" x="0px" y="0px"
	 width="280px" height="200px" viewBox="0 0 280 200" enable-background="new 0 0 280 200" xml:space="preserve">
<path fill="#FFFFFF" d="M80.344,142.859l-18.053-10.423c-0.154-0.09-0.346-0.09-0.5,0l-3.058,1.765v-3.747
	c0-0.179-0.095-0.344-0.25-0.433l-11.785-6.804v-20.479c0-0.179-0.095-0.344-0.25-0.433l-6.018-3.475
	c-0.154-0.089-0.346-0.089-0.5,0l-5.664,3.27L29.933,99.6V92.94c0-0.179-0.095-0.344-0.25-0.433l-6.018-3.475
	c-0.152-0.088-0.341-0.089-0.495-0.002l-6.184,3.479c-0.002,0.001-0.002,0.003-0.004,0.004c-0.002,0.001-0.004,0.001-0.006,0.002
	l-5.847,3.466c0,0,0,0,0,0s0,0,0,0l-0.005,0.003c-0.04,0.024-0.063,0.064-0.095,0.096c-0.028,0.029-0.064,0.051-0.084,0.086
	c-0.025,0.043-0.028,0.095-0.039,0.144c-0.008,0.035-0.028,0.067-0.028,0.104v6.949c0,0.179,0.095,0.344,0.25,0.433l5.768,3.33
	v34.454c0,0.179,0.095,0.344,0.25,0.433l12.036,6.948c0.077,0.045,0.164,0.067,0.25,0.067s0.173-0.022,0.25-0.067l3.979-2.297v4.715
	c0,0.179,0.095,0.344,0.25,0.433l6.018,3.475c0.077,0.045,0.164,0.067,0.25,0.067s0.173-0.022,0.25-0.067l5.268-3.042v6.083
	c0,0.179,0.095,0.344,0.25,0.433l6.018,3.475c0.077,0.045,0.164,0.067,0.25,0.067s0.173-0.022,0.25-0.067l3.058-1.766v3.668
	c0,0.179,0.095,0.344,0.25,0.433l18.053,10.423c0.077,0.045,0.164,0.067,0.25,0.067s0.173-0.022,0.25-0.067l6.018-3.474
	c0.155-0.089,0.25-0.254,0.25-0.433v-6.949c0-0.179-0.095-0.344-0.25-0.433l-5.268-3.041l5.268-3.042
	c0.155-0.089,0.25-0.254,0.25-0.433v-13.896C80.594,143.113,80.499,142.948,80.344,142.859z M27.76,140.037l-3.345-1.932
	l5.018-2.896l4.229,2.441v0.911l-4.229,2.442L27.76,140.037z M33.662,103.818l-4.229,2.441l-1.673-0.966l-3.345-1.931l2.778-1.604
	l2.24-1.293l4.229,2.442V103.818z M29.933,134.344v-20.269l3.729-2.153v24.575L29.933,134.344z M62.041,133.446l17.053,9.846
	l-5.018,2.896l-15.343-8.859v-1.974L62.041,133.446z M52.215,133.353l-3.678-2.124l-7.356-4.248l5.017-2.897l11.035,6.371
	L52.215,133.353z M40.18,99.842l5.018,2.897l-5.018,2.897l-4.282-2.473c-0.042-0.095-0.104-0.18-0.197-0.233l-0.435-0.251
	L40.18,99.842z M23.412,90.042l5.021,2.899l-5.022,2.899l-5.159-2.895L23.412,90.042z M16.752,93.811l0.125,5.199l-4.506-2.602
	L16.752,93.811z M17.647,106.404l-5.768-3.33v-5.793l5.268,3.041c0.078,0.044,0.164,0.067,0.25,0.067c0.001,0,0.001,0,0.002,0
	c0.088,0,0.175-0.023,0.253-0.069c0.155-0.092,0.249-0.261,0.245-0.442l-0.145-6.066l5.163,2.896v6.656
	c0,0.179,0.095,0.344,0.25,0.433l5.768,3.33v5.794l-5.268-3.041c-0.154-0.09-0.346-0.09-0.5,0c-0.155,0.089-0.25,0.254-0.25,0.433
	v27.794c0,0.179,0.095,0.344,0.25,0.433l5.768,3.331v5.793l-11.036-6.371v-34.454C17.897,106.658,17.802,106.493,17.647,106.404z
	 M46.697,151.379v-13.975c0-0.179-0.095-0.344-0.25-0.433l-6.018-3.475c-0.154-0.09-0.346-0.09-0.5,0
	c-0.155,0.089-0.25,0.254-0.25,0.433v20.058l-5.018-2.897v-5.003l1.039-0.599c0.155-0.089,0.25-0.254,0.25-0.433v-6.949
	c0-0.179-0.095-0.344-0.25-0.433l-1.039-0.599v-25.73l1.039-0.6c0.155-0.089,0.25-0.254,0.25-0.433v-5.962l3.729,2.153v20.479
	c0,0.179,0.095,0.344,0.25,0.433l11.785,6.805v26.717l-5.018-2.897V151.379z M56.523,159.891l1.959-1.131
	c0.155-0.089,0.25-0.254,0.25-0.433v-19.842l14.843,8.57v12.742l-5.268-3.041l-6.018-3.474c-0.154-0.09-0.346-0.09-0.5,0
	c-0.155,0.089-0.25,0.254-0.25,0.433v6.948c0,0.179,0.095,0.344,0.25,0.433l11.785,6.805v5.793l-17.053-9.846V159.891z
	 M74.076,167.034l-3.678-2.124l-7.356-4.248l5.017-2.897l5.768,3.33c0,0,0.001,0,0.001,0l5.267,3.041L74.076,167.034z
	 M271.63,66.877l-6.217-3.59V26.237c0-0.179-0.096-0.344-0.25-0.433l-6.468-3.734c-0.154-0.089-0.346-0.089-0.5,0l-6.467,3.734
	c-0.154,0.089-0.25,0.254-0.25,0.433v26.877l-4.044-2.335c-0.154-0.089-0.346-0.089-0.5,0l-16.547,9.553V53.59
	c0-0.179-0.096-0.344-0.25-0.433l-6.467-3.734c-0.154-0.089-0.346-0.089-0.5,0l-6.468,3.734c-0.154,0.089-0.25,0.254-0.25,0.433
	v7.468c0,0.179,0.096,0.344,0.25,0.433l5.718,3.301l-5.718,3.301c-0.154,0.089-0.25,0.254-0.25,0.433v3.279l-2.619-1.512
	c-0.154-0.089-0.346-0.089-0.5,0l-16.247,9.38v-6.823c0-0.179-0.096-0.344-0.25-0.433l-6.467-3.734c-0.154-0.089-0.346-0.089-0.5,0
	l-3.273,1.889l-5.871-3.389c-0.154-0.089-0.346-0.089-0.5,0l-12.935,7.468c-0.154,0.089-0.25,0.254-0.25,0.433v14.647l-3.285,1.897
	l-5.078-2.931c-0.154-0.089-0.346-0.089-0.5,0l-6.467,3.734c-0.154,0.089-0.25,0.254-0.25,0.433v3.189l-2.002-1.156l-6.467-3.734
	c-0.154-0.089-0.346-0.089-0.5,0l-6.468,3.734c-0.155,0.089-0.25,0.254-0.25,0.433v7.18l-6.217,3.589
	c-0.155,0.089-0.25,0.254-0.25,0.433v7.468c0,0.179,0.095,0.344,0.25,0.433l6.217,3.59v3.428l-2.638-1.523
	c-0.154-0.09-0.346-0.09-0.5,0l-6.467,3.734c-0.008,0.004-0.011,0.013-0.018,0.018c-0.066,0.043-0.125,0.095-0.165,0.165
	l-2.984,5.168l-2.8-1.617c-0.154-0.09-0.346-0.09-0.5,0l-6.467,3.733c-0.155,0.089-0.25,0.254-0.25,0.433v3.326l-3.073-1.774
	c-0.154-0.09-0.346-0.09-0.5,0l-19.399,11.201c-0.001,0-0.002,0-0.002,0.001c-0.077,0.045-0.14,0.108-0.183,0.183
	c-0.016,0.028-0.015,0.063-0.025,0.093c-0.018,0.051-0.042,0.1-0.042,0.155l-0.025,7.434c0,0.179,0.094,0.345,0.249,0.435
	l5.747,3.335l-5.72,3.302c0,0-0.001,0-0.001,0c-0.154,0.089-0.25,0.254-0.25,0.433v14.936c0,0.179,0.095,0.344,0.25,0.433
	l6.466,3.733c0,0,0,0,0.001,0.001c0.078,0.045,0.164,0.067,0.25,0.067s0.172-0.022,0.25-0.066c0.001,0,0.001-0.001,0.002-0.002
	l19.401-11.201c0.155-0.089,0.25-0.254,0.25-0.433v-3.326l3.073,1.774c0.077,0.045,0.164,0.067,0.25,0.067s0.173-0.022,0.25-0.067
	l6.467-3.734c0.155-0.089,0.25-0.254,0.25-0.433V146.63l6.333-10.969l2.521-1.456v13.414c0,0.179,0.095,0.344,0.25,0.433
	l6.468,3.734c0.077,0.045,0.164,0.067,0.25,0.067s0.173-0.022,0.25-0.067l12.935-7.468c0.154-0.089,0.25-0.254,0.25-0.433v-3.205
	l2.001,1.156c0.077,0.045,0.164,0.067,0.25,0.067s0.173-0.022,0.25-0.067l6.468-3.734c0.154-0.089,0.25-0.254,0.25-0.433v-3.506
	l1.896,1.095c0.077,0.045,0.164,0.067,0.25,0.067s0.173-0.022,0.25-0.067l12.935-7.468c0.154-0.089,0.25-0.254,0.25-0.433V97.774
	l2.176-1.256v21.137c0,0.179,0.096,0.344,0.25,0.433l6.468,3.734c0.077,0.045,0.164,0.067,0.25,0.067s0.173-0.022,0.25-0.067
	l6.467-3.734c0.154-0.089,0.25-0.254,0.25-0.433v-3.602l3.312,1.912c0.077,0.045,0.164,0.067,0.25,0.067s0.173-0.022,0.25-0.067
	l19.402-11.202c0.154-0.089,0.25-0.254,0.25-0.433v-3.278l2.619,1.512c0.077,0.045,0.164,0.067,0.25,0.067s0.173-0.022,0.25-0.067
	l6.467-3.733c0.154-0.089,0.25-0.254,0.25-0.433v-4.03L234,96.453c0.077,0.044,0.164,0.067,0.25,0.067s0.173-0.022,0.25-0.067
	l19.402-11.202c0.154-0.089,0.25-0.254,0.25-0.433v-4.473l4.043,2.334c0.077,0.044,0.164,0.067,0.25,0.067s0.173-0.022,0.25-0.067
	l12.935-7.468c0.154-0.089,0.25-0.254,0.25-0.433v-7.468C271.88,67.132,271.784,66.967,271.63,66.877z M270.38,67.31l-4.967,2.868
	v-5.735L270.38,67.31z M103.181,152.804l0.474,0.272l5.006,2.874l-3.407,1.967l-8.508,4.912l-4.911-2.819l-0.572-0.328
	L103.181,152.804z M158.929,96.885l1.646-0.951v5.285c0,0.179,0.096,0.344,0.25,0.433l0.39,0.225l-2.286,1.32V96.885z
	 M163.215,94.41l1.181-0.682v1.364L163.215,94.41z M163.896,92.862l-1.681,0.971l-0.14-0.081l1.681-0.971L163.896,92.862z
	 M157.429,104.064l-1.252,0.723v-1.445L157.429,104.064z M158.429,104.641l5.468,3.157l-5.468,3.156l-4.707-2.717l2.206-1.274
	c0.154-0.089,0.25-0.254,0.25-0.433v-0.59L158.429,104.641z M151.675,138.065l-1.965,1.135v-5.735l1.752,1.011v3.194
	C151.462,137.83,151.547,137.972,151.675,138.065z M151.462,133.321l-1.752-1.011v-21.756l1.752-1.012V133.321z M165.396,107.798
	c0-0.179-0.096-0.344-0.25-0.433l-5.718-3.302l2.787-1.609l4.827,2.787v14.359l-1.646,0.95V107.798z M167.542,120.467l5.468,3.156
	l-3.645,2.105l-1.823,1.052l-2.146-1.239v-3.836L167.542,120.467z M164.396,124.964l-2.321-1.341l2.321-1.34V124.964z
	 M196.087,73.715v6.313l-5.467,3.156v-6.313l4.111-2.374L196.087,73.715z M185.597,86.084l-2.195,1.267
	c-0.154,0.089-0.25,0.254-0.25,0.433v0.112l-2.176,1.256v-5.735L185.597,86.084z M185,87.984l1.445-0.834v1.668L185,87.984z
	 M187.444,86.284c0-0.035-0.019-0.064-0.026-0.097l2.702-1.56l3.562,2.057v2.2l-3.562,2.056l-2.676-1.545V86.284z M191.12,84.05
	l2.561-1.479v2.958L191.12,84.05z M185,73.049l1.445-0.834v1.668L185,73.049z M183.999,81.094l5.121,2.956l-2.522,1.456
	l-5.121-2.956L183.999,81.094z M229.388,54.456v6.313l-5.467,3.156v-6.313l4.111-2.374L229.388,54.456z M227.269,66.436
	l-2.848-1.644l2.859-1.651L227.269,66.436z M227.265,67.589l-0.006,1.877l-3.838,2.216l-5.468-3.156l5.468-3.157L227.265,67.589z
	 M216.453,94.208l-2.619-1.512c-0.154-0.089-0.346-0.089-0.5,0l-5.718,3.301v-6.313l8.837-5.101V94.208z M207.616,97.151
	l5.968-3.445l2.869,1.656v3l-8.837,5.101V97.151z M233.253,73.616l-2.865,1.653v-3.316L233.253,73.616z M240.701,70.471l5.481,3.146
	l-5.632,3.251l-6.283,3.627l-0.614-0.352l-3.266-1.875v-1.845L240.701,70.471z M229.388,77.695l-0.603-0.346l0.603-0.348V77.695z
	 M258.445,23.081l5.468,3.157l-5.468,3.156l-5.467-3.156L258.445,23.081z M247.185,51.79l4.294,2.479v1.355L234.25,65.57
	l-5.468-3.156L247.185,51.79z M223.421,50.433l5.467,3.157l-5.467,3.156l-5.468-3.156L223.421,50.433z M213.584,71.302l2.869,1.656
	v3.001l-15.804,9.124l-5.468-3.157L213.584,71.302z M190.12,69.692l5.467,3.157l-5.467,3.156l-2.676-1.545v-3.112
	c0-0.035-0.019-0.064-0.026-0.097L190.12,69.692z M180.477,68.192l5.121,2.956l-2.195,1.267c-0.154,0.089-0.25,0.254-0.25,0.433
	v0.112l-9.143,5.278l-5.468-3.156L180.477,68.192z M167.542,90.595l5.468,3.157l-1.011,0.584l-4.456,2.573l-2.146-1.239v-2.808
	c0-0.179-0.096-0.344-0.25-0.433l-0.39-0.225L167.542,90.595z M158.429,89.705l4.328,2.499l-1.931,1.115
	c-0.154,0.089-0.25,0.254-0.25,0.433v1.027l-2.146,1.239l-5.467-3.156L158.429,89.705z M151.712,100.763l0.01,0.006l-2.012,1.162
	v-5.736l1.752,1.011v3.124C151.462,100.509,151.558,100.674,151.712,100.763z M142.743,92.172l5.467,3.157l-5.467,3.156
	l-5.468-3.156L142.743,92.172z M136.275,103.374l5.468,3.156l-3.645,2.105l-1.823,1.052l-5.467-3.157L136.275,103.374z
	 M132.888,120.936l2.888,1.667v2.98l-2.888,1.667l-5.467-3.157L132.888,120.936z M119.953,128.404l2.551,1.472l-2.734,4.735
	l-5.284-3.051L119.953,128.404z M109.663,134.122l3.323,1.919v2.477l-16.257,9.386l-5.467-3.156L109.663,134.122z M115.63,166.861
	L97.23,177.485l0.017-13.79l12.666-7.314c0,0,0.001,0,0.001,0c0.154-0.089,0.25-0.254,0.25-0.433v-7.468
	c0-0.179-0.095-0.344-0.25-0.433c-0.077-0.045-0.164-0.067-0.25-0.067c-0.086,0-0.173,0.022-0.25,0.067l-12.185,7.034v-6.312
	l15.757-9.097v21.759c0,0.179,0.095,0.344,0.25,0.433l2.395,1.383V166.861z M132.638,134.862c-0.076,0.044-0.139,0.106-0.183,0.183
	l-6.467,11.201c-0.044,0.076-0.067,0.162-0.067,0.25v14.646l-5.467,3.157v-28.139l5.717,3.3c0.007,0.004,0.015,0.002,0.022,0.006
	c0.032,0.017,0.062,0.035,0.098,0.045c0.018,0.005,0.035-0.006,0.054-0.004c0.026,0.004,0.05,0.02,0.075,0.02
	c0.047,0,0.089-0.022,0.133-0.035c0.027-0.008,0.053-0.009,0.078-0.021c0.089-0.042,0.169-0.103,0.222-0.194l6.4-11.085l2.521-1.456
	v6.313L132.638,134.862z M155.178,143.597l-11.935,6.891v-36.489c0-0.179-0.096-0.344-0.25-0.433
	c-0.077-0.045-0.164-0.067-0.25-0.067s-0.173,0.022-0.25,0.067l-5.718,3.301v-6.312l6.218-3.591c0.154-0.089,0.25-0.254,0.25-0.433
	v-7.179l4.111-2.374l1.356-0.783v6.602c0,0.179,0.096,0.344,0.25,0.433c0.077,0.045,0.164,0.067,0.25,0.067s0.173-0.022,0.25-0.067
	l3.262-1.883l2.456,1.417v2.6l-3.466,2.001c-0.154,0.089-0.25,0.254-0.25,0.433v0.589l-2.502,1.445
	c-0.154,0.089-0.25,0.254-0.25,0.433v22.333v7.468v0.086c0,0.179,0.096,0.344,0.25,0.433c0.154,0.09,0.346,0.09,0.5,0l3.276-1.891
	l2.442,1.41V143.597z M164.396,137.38l-5.468,3.157V111.82l5.468-3.156v12.465l-3.571,2.062c-0.154,0.089-0.25,0.254-0.25,0.433
	v7.468c0,0.179,0.096,0.344,0.25,0.433l3.571,2.062V137.38z M180.227,97.053c-0.154,0.089-0.25,0.254-0.25,0.433v29.583
	l-11.935,6.891v-6.312l6.218-3.591c0.154-0.089,0.25-0.254,0.25-0.433V101.22c0-0.179-0.096-0.344-0.25-0.433
	c-0.154-0.089-0.346-0.089-0.5,0l-5.718,3.301v-6.313l6.218-3.59c0.154-0.089,0.25-0.254,0.25-0.433V79.105l8.064-4.656l0.579-0.334
	v6.201c0,0.035,0.019,0.064,0.026,0.097l-2.952,1.704c-0.154,0.089-0.25,0.254-0.25,0.433v7.468c0,0.179,0.096,0.344,0.25,0.433
	c0.077,0.044,0.164,0.067,0.25,0.067s0.173-0.022,0.25-0.067l2.426-1.4v6.313L180.227,97.053z M196.087,117.366l-5.467,3.157V91.807
	l3.062-1.768v21.76c0,0.179,0.096,0.344,0.25,0.433l2.155,1.244V117.366z M219.552,104.041l-18.402,10.625V85.95l12.736-7.353
	l2.568-1.483v6.313l-9.587,5.534c-0.154,0.089-0.25,0.254-0.25,0.433v7.468v7.467c0,0.179,0.096,0.344,0.25,0.433
	c0.077,0.045,0.164,0.067,0.25,0.067s0.173-0.022,0.25-0.067l9.807-5.661l2.378,1.373V104.041z M229.388,98.108l-5.467,3.156V72.548
	l3.755-2.168l1.711,0.993v4.473l-1.855,1.071c0,0,0,0,0,0c0,0,0,0-0.001,0c-0.069,0.04-0.12,0.099-0.162,0.163
	c-0.005,0.008-0.015,0.012-0.02,0.02c-0.043,0.075-0.067,0.161-0.067,0.25v14.936c0,0.179,0.096,0.344,0.25,0.433l1.855,1.071
	V98.108z M253.152,84.529l-18.401,10.623l0.004-3.009l0.014-10.781l12.666-7.313c0,0,0,0,0,0c0,0,0,0,0.001,0
	c0.069-0.04,0.12-0.099,0.162-0.163c0.005-0.008,0.015-0.012,0.02-0.02c0.043-0.075,0.067-0.161,0.067-0.25v-7.468
	c0-0.179-0.096-0.344-0.25-0.433c-0.154-0.089-0.346-0.089-0.5,0L234.75,72.75v-6.313l12.056-6.96l4.672-2.698v21.733
	c0,0.179,0.096,0.344,0.25,0.433l1.424,0.822V84.529z M270.88,74.49l-11.935,6.89V30.26l3.387-1.956l2.08-1.201v36.473v7.468
	c0,0.179,0.096,0.344,0.25,0.433c0.077,0.044,0.164,0.067,0.25,0.067s0.173-0.022,0.25-0.067l5.717-3.301V74.49z"/>
</svg>
