<?xml version="1.0" encoding="utf-8"?>
<!-- Generator: Adobe Illustrator 18.1.1, SVG Export Plug-In . SVG Version: 6.00 Build 0)  -->
<!DOCTYPE svg PUBLIC "-//W3C//DTD SVG 1.1//EN" "http://www.w3.org/Graphics/SVG/1.1/DTD/svg11.dtd">
<svg version="1.1" id="Layer_1" xmlns="http://www.w3.org/2000/svg" xmlns:xlink="http://www.w3.org/1999/xlink" x="0px" y="0px"
	 width="100%" viewBox="-19 185 280 200" enable-background="new -19 185 280 200" xml:space="preserve">
<g>
	<g>
		<g>
			<path fill="#FFFFFF" d="M20.5,225.1c0,2.2,0,6.6,0,8.4c0,0.8,0.3,0.9,0.8,0.9c0.2,0,0.5,0,0.7,0v1.3c-0.3,0.1-0.8,0.1-1.3,0.1
				c-0.9,0-1.7-0.5-1.7-2c0-2.2,0-5.9,0-8.7h-0.9v-1.3H19v-1.9l1.4-0.1c0,0,0,1.9,0,2H22v1.3H20.5L20.5,225.1z"/>
			<path fill="#FFFFFF" d="M26.8,235.7c0,0,0-0.2,0-9.6c0-0.6-0.2-1-1-1c-0.7,0-1.2,0.5-1.2,1.6v9.1h-1.5v-17.4h1.4v6.4
				c0.2-0.7,0.9-1.1,1.9-1.1c1.1,0,1.9,0.7,1.9,2.2c0,9.7,0,9.9,0,9.9L26.8,235.7L26.8,235.7z"/>
			<path fill="#FFFFFF" d="M32.1,235.8c-1.1,0-1.8-0.3-2.3-1.2c-0.4-0.9-0.6-2.4-0.6-4.8c0-2.5,0.2-4.2,0.7-5.2
				c0.4-0.8,1.1-1.1,2-1.1c2.1,0,2.7,1.5,2.7,4.3v2.4h-4c0,3.1,0.2,4.2,1.3,4.2s1.3-0.7,1.3-2.4h1.5
				C34.7,234.8,33.8,235.8,32.1,235.8z M33.3,227.6c0-1.7-0.2-2.6-1.3-2.6c-1,0-1.3,0.5-1.3,4.1h2.6V227.6z"/>
		</g>
		<path fill="#FFFFFF" d="M52.8,216.8c1,0,1.9,0.9,2.3,2.1c0.4,1.3,0.3,2.8,0.1,4.4c-0.1,0.7-0.1,1.5-0.1,2.2
			c-0.1,3.8-0.7,7.9-1.7,12.2c-0.1,0.6-0.3,1.1-0.5,1.8l-0.2,0.7l-0.1,0.5c-0.7,2.4-1.6,4.9-2.9,8.2l-0.1,0.1
			c-0.7,1.8-6.8,19.2-9,18.2c-1.2-0.6,0.5-2.9,0.8-3.5c0.9-1.6,1.5-3.4,2.2-5.2c1.5-3.5,2.8-7.1,4.1-10.6c1.1-3.1,2-6.1,2.8-9.3
			l0.1-0.4l0.3-0.8c1.5-3.8,2.4-8.6,2.8-15.2c0.1-0.8,0.1-2-0.1-3.2C53.4,218,53.1,217.3,52.8,216.8 M120.3,224.1
			c-0.3,0.5-0.5,1-0.7,1.4s-0.3,0.7-0.5,0.9c-2.7,4.8-4.7,10-6.5,14.8c-1.7,4.6-3.3,9.2-4.9,13.9c-0.7,1.9-1.3,3.8-2.3,5.5
			c-0.1,0.2-1.9,2.7-2.4,1.8c-0.8-1.5,0.9-3.8,1.5-5.1c1.1-2.6,1.9-5.2,2.8-7.8c0.8-2.2,1.6-4.5,2.4-6.8l0.1-0.3
			c2-5.4,4-10.9,7.2-15.5C117.8,226,119,224.9,120.3,224.1 M230.9,228c-2.6,2-4.8,5-6.3,7.1l-0.2,0.3c-0.9,1.3-1.9,2.7-2.9,4.3
			l-0.2,0.4l-0.2,0.4l-1.6,2.7h0.1c-0.6,1-1.1,2-1.6,3c-0.9,1.7-1.8,3.4-2.8,5l-0.5,0.8c-1.8,3.2-3.7,6.5-5.5,9.8
			c-1.2,2.2-2.4,4.3-3.4,6.5c-0.6,1.3-1.3,3.9-3.1,4.1c-1.6,0.2,0.4-2.8,0.6-3c0.8-1.4,1.4-2.8,2.2-4.2c1.8-3.2,3.5-6.4,5.4-9.5
			c2.6-4.4,5.4-8.8,7.7-12.6l1.2-2l0.2-0.4c1-1.7,2.1-3.3,3.1-5c0.7-1.1,2.2-3.4,4.5-5.4C228.4,229.5,229.6,228.6,230.9,228
			 M84.6,228.9c-0.2,3.3-1,6.6-1.8,9.9v0.1c-0.4,1.7-1,3.5-1.6,5.5l-0.3,1l-0.4,1c-0.4,1.2-0.9,2.3-1.4,3.6l-0.1,0.1
			c-0.6,1.5-1.2,3.1-2.1,4.5c-0.3,0.5-1.2,2.3-2.1,2.2c-0.8-0.1-0.5-0.9-0.2-1.5c0.7-1.7,1.4-3.5,2.1-5.2l1.5-4.1h-0.1
			c0.8-2.5,1.5-4.9,2.1-7.4c0.7-2.9,1.4-6.1,1.5-9.5C82.6,229,83.6,228.9,84.6,228.9 M16.4,249.6c-2.5,3.1-4.9,7.4-7,13.3
			c-0.5,1.3-1.6,8-3.9,7.2c-2.8-0.9,2.7-9.9,3.4-11.1C11.1,255.1,13.6,252,16.4,249.6 M133.7,252.1c-1.5,2.3-2.6,4.7-3.7,7.1
			c-0.8,1.8-2.2,6.3-4.4,6.8c-1.5,0.4-1.2-1.3-0.8-2c0.8-1.6,1.7-3.1,2.5-4.7c0.5-1.1,1.1-2.2,1.7-3.3
			C130.5,253.1,131.2,252.5,133.7,252.1 M94.5,252.9c-1.1,2.1-2,4.4-2.9,6.5c-0.4,1.1-2.4,8.2-4.5,7.1c-1.1-0.6,2-5.9,2.3-6.7
			c0.4-1,0.9-2.1,1.3-3.1C91.9,254.1,92.5,253.4,94.5,252.9 M171.4,252.9c-0.5,0.7-0.9,1.4-1.3,2.2c-0.3,0.5-0.5,0.9-0.8,1.4
			c-1.4,2.2-2.6,4.5-3.8,6.7c-0.7,1.3-2.4,6.3-4.6,5.3c-0.2-1.1,1.6-3.1,2.1-4.1c2.1-3.9,4.4-7.9,7.1-11.3
			C170.3,253,170.9,253,171.4,252.9 M184.3,253.8c-2.2,2.4-3.9,4.7-5.3,7.1c-1.1,1.8-2,3.6-2.9,5.5c-0.5,1.1-1.2,3.5-2.7,3.7
			c-2.1,0.4,1.7-5.4,1.8-5.6c1.8-3.1,3.8-6,6.4-8.5C182.5,255.2,183.4,254.4,184.3,253.8 M146.8,255.3c-0.3,0.3-0.6,0.7-0.8,1
			c-0.4,0.4-0.7,0.9-1,1.2c-0.7,0.8-7.2,10-8.3,9.1c-0.8-0.6,3.2-4.3,3.6-4.8C141.8,260.1,144.2,257.4,146.8,255.3 M52.5,308.3
			c-1.9,3-3.1,7.2-1.5,10.8c0.1,0.2,0.2,0.5,0.4,0.7c-1.2-0.7-2.3-1.7-2.9-2.8c-0.7-1.2-0.9-2.4-0.6-3.7c0.4-1.7,1.8-3.2,4.1-4.7
			C52.1,308.5,52.3,308.4,52.5,308.3 M105.1,332.5c-0.2,0.2-0.4,0.4-0.6,0.6c-3.2,3.5-5,8.4-4.8,12.6c0.1,1.8,0.6,3.3,1.3,4.6
			c-2.9-2.4-3.7-5.9-3.4-8.7C98,338.2,100.2,333.9,105.1,332.5 M52.7,214.6c-0.7,0-1.4,0.2-2.1,0.5c-4,2.1-6.5,6.1-6.7,10.6
			c-0.2,4.2,2.2,8.9,4.5,12.2c-0.8,3.1-1.7,6.1-2.8,9.1c-2.9,8-5.9,16.2-10.2,23.4c-2.1,3.5-4.3,7-6.4,10.5
			c-1.1,1.9-2.3,5.6-5.1,5.6c-0.1,0-0.2,0-0.2,0c-3.3-0.2-1-6.2-0.4-7.8c1.2-3.6,2.8-7.2,4.5-10.5c1.2-2.3,2.3-4.6,3.5-6.9
			c0.5-0.9,1-2,1.6-2.9c0.3-0.4,1.5-1.3,1.1-1.8c-0.8-1.2-4,1.2-4.7,1.7c-1.3,1.1-2.3,2.3-3.3,3.7c-3,4.2-4.7,9-6.9,13.6
			c-1.3,2.8-2.4,5.7-3.9,8.4c-0.8,1.4-2,3-3.7,3c-0.2,0-0.4,0-0.6-0.1c-3.6-0.7-3.2-6.2-2.8-8.8c0.2-2.1,0.5-4.1,0.9-6.2
			c0.6-2.8,1.5-5.6,2.5-8.3c2.7-7.8,8-17.2,16.3-20c0.4-0.1,0.7-0.2,1-0.2c2.1,0,3.5,2.2,3.9,4.2c0.2,1.2,0,3-0.8,4
			c-0.2,0.3-0.7,0.5-1.1,0.5c-0.3,0-0.6-0.1-0.8-0.5c-0.5-1,0.8-1.6,1-2.4c0.2-1-1.4-2.3-2.2-2.4c-0.1,0-0.1,0-0.2,0
			c-1.1,0-2.2,0.9-2.9,1.7c-1.3,1.7-1.2,4.7,0.8,6c1,0.6,1.9,0.9,2.8,0.9c4.3,0,6.4-7.2,4.2-10.9c-1.2-2-3.4-2.8-5.6-2.8
			c-1,0-2,0.2-2.9,0.4c-8.2,2.4-13.9,8.4-18,15.5c-2,3.5-3.8,7.2-4.7,11.2c-1.4,6-4,16.2,4.2,18.7c1.3,0.4,3,0.7,4.6,0.7
			c0.5,0,1,0,1.5-0.1c1.4-0.2,2.7-0.7,4-1.1c0.8-0.3,1.7-0.9,2.6-0.9c0.2,0,0.5,0,0.7,0.1c0.5,0.2,0.6,0.5,1,0.8
			c1.3,0.9,2.7,1.3,4.2,1.3c3.3,0,6.6-2,8.6-4.4c2.9-3.7,5.6-8.1,8-12.1c4.2-7.1,7.2-14.7,10.1-22.4c1.1-2.7,2.1-5.5,2.9-8.3
			c1.3,0.1,2.7,0.2,3.5,1.2c1.3,1.6-0.4,4.3-1,5.9c-2.5,5.9-5,11.8-7.5,17.7c-2.1,4.9-3.8,10.2-4.4,15.5c-0.3,2.5,0.7,4.9,2.9,6.1
			c2.7,1.4,5.9,0.7,8.7,0.1c2.3-0.5,4.2-1.7,6-3.2c0.2,1,0.8,1.9,1.7,2.5c1.4,1,3,1.4,4.5,1.4c2.7,0,5.5-1.3,8.1-3.1
			c1.7,1.8,4.9,2.6,7.4,2.6c0.3,0,0.6,0,0.8,0c1.7-0.1,5.9-0.6,7-2.2c-0.7,0.9-1,1.9-1.4,2.9c-0.5,1.2-1,2.4-1.6,3.6
			c-1.1,2.4-2.3,4.8-3.6,7.1c-5.9,0-11.9,0.5-17.7,1.5c-5.8,0.9-12.2,2.9-17.1,6.1c-2.2,1.4-4.3,3.4-5,6c-1.4,5.2,3.6,9.3,8,10.3
			c1.5,0.4,3.1,0.5,4.6,0.5c3.5,0,7-0.8,10.2-1.8c6.6-2.1,13.5-7.9,17.8-13.2c1.8-2.3,3.5-4.7,5-7.2c0.1-0.2,0.7-0.3,1.5-0.3
			c3.2,0,10.6,1.5,11.8,1.7c4.4,0.7,8.7,1.7,13,2.7c8.2,2.1,16.9,5.7,22,12.9c3.4,4.8,5.4,12.3,2.6,18c-0.7,1.3-2.2,2.3-3.2,3.4
			c-1.5,1.3-2.9,2.6-4.4,3.8c-5.7,4.7-12.5,9-20,10c-0.7,0.1-1.4,0.2-2.1,0.2c-5,0-10-2.5-10.4-8.2c-0.2-3.9,1.6-8.1,4.2-11
			c1-1.1,2.8-2.6,4.4-2.6c0.6,0,1.1,0.2,1.7,0.6c2.3,1.9-0.4,3.8-1.7,5.1c-2.4,2.4-3.8,6.4,1.2,6.4c0,0,0,0,0.1,0
			c4.8,0,7.4-5,5.7-9.1c-1.6-3.8-5-5.2-8.7-5.2c-1.2,0-2.5,0.2-3.7,0.4c-11.3,2.5-13.4,18.5-2.7,23.4c2.7,1.2,5.7,1.7,8.8,1.7
			c4.4,0,8.8-0.9,12.6-2.1c8.3-2.5,15.5-8.1,21.9-13.8c6.6-5.8,12.8-12.1,19.2-18.1c8.3-7.9,16.5-15.9,25.1-23.5
			c2.1-1.9,4.4-3.7,6.5-5.6c0.9-0.8,1.8-1.5,1.8-1.5s1.5,0.6,2.6,0.9c0.8,0.2,1.7,0.3,2.7,0.3c1.7,0,3.4-0.3,4.8-0.5
			c4.8-0.9,11.2-4,13.7-8.5c1-1.9,0.8-5.3-1.3-6.6c-1.1-0.7-2.5-1-3.9-1c-3.3,0-7,1.5-9.4,2.9c-1.6,0.9-3.2,2-4.7,3.2
			c0.3-0.9,0.6-1.7,0.8-2.5c1.9-5.6,4.7-11,7.5-16.2c1.9-3.5,4-7,6-10.5c1.9-3.3,3.6-6.7,5.5-10c1.3,0,2.6-0.1,3.9-0.2
			c3.2-0.3,7.1-1.4,9.6-3.4c3.7-3,7.7-10.5,1.4-13.1c-1-0.4-2.1-0.6-3.1-0.6c-3,0-5.9,1.7-8.4,3.9c-2,1.8-3.7,4-4.9,5.9
			c-1.2,2-2.4,3.9-3.7,5.9c-1.7-0.2-3.3-0.5-4.9-0.9c-7.9-1.9-15.2-5.9-22.9-8.5c-2.8-0.9-5.8-1.8-8.8-1.8c-0.9,0-1.9,0.1-2.8,0.3
			c-2.6,0.5-5.5,1.9-7.1,4.1c-1.5,2-1.4,5.5,0.7,7.2c1.1,0.9,3,1.6,4.7,1.6c1.4,0,2.8-0.4,3.7-1.4s1.5-3,1-4.3
			c-0.3-0.8-0.9-1.1-1.7-1.3c-0.6-0.2-2.4-0.5-2.8-1c-0.4-0.6-0.1-1.5,0.3-2c0.5-0.7,1.4-0.9,2.2-1.1c0.9-0.2,1.8-0.3,2.7-0.3
			c4.9,0,9.7,2.6,14.1,4.5c6.7,2.9,13.5,5.4,20.7,6.3c-2.6,4.2-5.2,8.4-7.7,12.7c-3.4,5.6-6.6,11.4-9.4,17.3
			c-1.9,3.9-3.8,8.2-4.4,12.6c-0.3,0.4-0.6,0.7-0.9,1c-1,0.9-2.3,1.8-3.6,1.8c-0.5,0-1.1-0.1-1.6-0.5c-2-1.3-1.3-5-0.8-6.9
			c0.8-2.8,1.9-5.6,3-8.3c1-2.3,1.9-4.6,3.4-6.7c0.7-0.9,1.4-1.9,2.2-2.7c0.2-0.2,1.6-1.5,0.4-1.7h-0.1c-0.5,0-1,0.2-1.5,0.3
			c-0.9,0.1-1.7,0-2.5,0.3c-2.4,1-3.5,3.1-4.6,5.3c-1.8,3.4-3.2,7-5,10.4c-1.3,2.4-2.7,5.1-4.5,7.1c-1.5,1.7-4.4,3.4-6.9,3.4
			c-0.3,0-0.5,0-0.8-0.1c-1.2-0.2-2.3-0.9-3.1-1.8c-0.1-0.2-0.3-0.5-0.5-0.9c1.3-1.3,2.4-2.9,3.4-4.3c3.9-5.8,6.2-12.5,9.7-18.4
			c1.7-2.9,3.8-5.4,6.1-7.8c1.7-1.8,3.9-3.6,6.4-3.9c0.2,0,0.5,0,0.7,0c2.2,0,4.6,1,5,3.3c0.3,2-1.1,4.2-3,5
			c-0.4,0.2-0.9,0.3-1.3,0.3c-1.4,0-2.5-1.1-1.5-2.9c0.5-0.9,1-1.9,0.2-2.8c-0.2-0.2-0.7-0.3-1.3-0.3c-0.5,0-1,0.1-1.2,0.2
			c-0.8,0.4-1.1,1.4-1,2.3c0,2.9,2.4,4.6,4.8,4.6c0.9,0,1.7-0.2,2.5-0.7c2.2-1.3,3.4-4.2,2.5-6.6c-0.9-2.5-4.1-3.4-6.5-3.5
			c-0.3,0-0.6,0-0.9,0c-4.6,0-9.1,2.2-12.4,5.4c-5,4.9-8.1,11-11.2,17.3c-1.9,3.9-3.7,7.7-6.3,11.3c-1.5,2.1-3.9,4.3-6.5,4.3
			c-1.1,0-2.3-0.4-3.4-1.6c-0.1-0.1-0.3-0.3-0.5-0.6c5.1-3.9,8.7-10,11.9-15.3c2.4-4,4.4-8.2,6.9-12.2c1.2-1.9,2.2-3.9,3.7-5.5
			c0.1-0.1,2.6-2.5,1-2.5h-0.1c-0.8,0-1.5,0.7-2.3,0.9c-1.2,0.3-4.2,0-5,1c-3.9,4.7-6.7,10.5-9.7,15.8c-3.5,6-7.1,12.2-12.2,17
			c-1.9,1.7-3.8,3.1-5.7,3.1c-1.3,0-2.6-0.6-3.8-2c-3.1-3.5-1-9.2,0.6-12.9c2.2-5,5.5-9.5,9.1-13.6c0.9-1.1,2.1-2.6,3.3-3.9
			c0.9,2.3,2.2,4.7,4.7,4.7c0.2,0,0.5,0,0.7-0.1c3.5-0.6,3.9-6.2,1.2-8c-1.2-0.8-2.5-1.2-3.8-1.2c-0.9,0-1.8,0.2-2.6,0.5
			c-0.3-0.9-0.6-1.7-1-2.6c-2.2-5.6-4.9-13.6-10.9-16.3c-0.9-0.4-2.1-0.7-3.2-0.7c-1.4,0-2.8,0.4-3.5,1.7c-1.6,2.6,0.8,6,3.5,6l0,0
			c1.9,0,3.7-0.6,5.3-0.6c1.5,0,2.9,0.5,4.1,2.7c1.9,3.2,3.3,6.8,4.4,10.3c-4.1,1.9-7.9,6.3-10.1,8.9c-3.8,4.5-7.3,9.6-9.4,15.2
			c-1.4,3.9-2.1,9.1,1.8,11.7c2,1.3,4.6,1.7,7,1.7c0.3,0,0.6,0,0.9,0c3.6-0.1,7.4-0.5,10.6-2.2c0.6-0.3,1.1-0.6,1.7-1
			c0.3,0.6,0.7,1.1,0.8,1.2c1.1,1.4,3.1,1.8,5.1,1.8c2.7,0,5.5-0.8,7.2-1.6c0.9-0.4,1.7-1,2.4-1.7c1.7,2.2,4,3.1,6.5,3.1
			c1,0,2.1-0.1,3.2-0.4c2.1-0.5,4.3-1.5,6.3-2.3c0.6-0.2,1.2-0.4,1.6-0.4c0.9,0,1.6,0.5,2.4,1.5c0.8,1.1,2.1,1.6,3.4,1.6
			c0.6,0,1.1-0.1,1.7-0.3c1-0.3,2-1,2.8-1.7c0,0.4,0,0.8,0.1,1.1c-5.8,5-11.6,10-17.3,15.2c-8.4,7.6-16.4,15.6-24.6,23.2
			c-1.3,1.2-2.6,2.5-3.9,3.7c0.1-0.2,0.1-0.4,0.2-0.7c1.4-6.2-1.9-11.4-6.3-15.7c-1.2-1.2-2.6-2.3-4-3.3c-11-7.7-27.2-9.4-39.8-10.7
			c-2.3-0.2-4.5-0.4-6.8-0.4c1.8-3.3,3.4-6.8,4.9-10.2c0.3-0.8,0.7-1.6,1-2.4c2.2,2.1,6.8,2.3,9.4,1.6c3.7-1.1,6.9-3.7,9.6-6.3
			c1.5-1.4,3-2.8,4.3-4.4c3.5-4.3,6.2-9.1,8.6-14.1c2.3-4.6,4.1-9.6,7.6-13.4c0.2-0.2,0.7-0.8,0.6-1.1c-0.1-0.2-0.3-0.3-0.6-0.3
			c-0.2,0-0.3,0-0.4,0c-0.7,0.1-1.3,0.3-2,0.5c-0.6,0.2-1.2,0.6-1.8,0.6c-3.7,0.5-5,1.7-6.7,5.1c-2.1,4.1-4.3,8.1-6.3,12.3
			c-1.8,3.8-3.7,7.7-6,11.2c-1.8,2.7-4.3,6.4-7.3,8c-1.5,0.8-4.6,0.7-6.2,0.4c-2.6-0.5-1.7-3-1-4.7c0.8-2,1.8-3.1,3.2-4.7
			c3.6-3.8,6.2-8.7,8.9-13.1c3.1-4.9,6-9.9,8.3-15.2c2.3-5.4,5.1-10.6,6.5-16.3c0.9-3.6,3.1-10.4-2.1-11.9c-0.5-0.2-1-0.2-1.5-0.2
			c-3.2,0-6.7,2.6-8.3,4.9c-3.4,4.8-5.6,10.7-7.6,16.2c-1.9,5-3.5,10.1-5.4,15.1c-1,2.7-2,5.4-3,8.1c-1.8,5-2.9,10.2-5,15.1
			c-1.8,4.2-5,6.2-9.6,6.4c-0.2,0-0.4,0-0.7,0c-1.2,0-2.4-0.2-3.6-0.7c-0.8-0.4-1.5-1.1-2.2-1.7c6.7-5.4,10.8-13.1,14.1-20.9
			c1.9-4.4,3.2-9.1,6.2-12.9c0.2-0.2,0.6-0.8,0.5-1.1c-0.1-0.2-0.3-0.2-0.4-0.2c-0.2,0-0.4,0-0.5,0.1c-0.6,0.1-1.2,0.3-1.8,0.6
			c-0.5,0.2-1.1,0.6-1.6,0.7c-3.4,0.7-4.5,1.9-5.9,5.2c-1.9,4.4-3.7,8.9-5.8,13.2c-1.1,2.2-2.4,4.3-3.5,6.5c-0.5,1-1.1,1.9-1.7,2.9
			c-1.7,2.7-4,6.1-7,7.5c-1.7,0.8-5.4,1.2-6.7-0.8c-0.3-0.5-0.3-1.1-0.3-1.6c3-3,5.2-7.1,7.2-10.4c4.2-7.1,7.2-14.7,10.1-22.4
			c0.5-1.2,0.9-2.4,1.4-3.7c0.4-0.1,0.7-0.2,1.1-0.3c6.3-2.2,14.4-4.9,17.3-11.6c1-2.3,1.2-5.2-1.5-6.3c-0.6-0.2-1.3-0.4-2-0.4
			c-1.7,0-3.5,0.7-4.7,1.8c-1.7,1.5-2.2,3.6-0.2,5c1.2,0.9,3.1,1.4,2.5,3.3c-0.5,1.5-2.5,2.6-3.8,3.3c-2.6,1.3-5.3,2.1-8.1,3
			c0.6-1.9,1.2-3.7,1.7-5.6c1-4.1,2.1-8.3,1.9-12.5c0-0.1-0.6-0.2-1.4-0.2c-2.1,0-5.8,0.4-5.8,0.8c0.2,3.6-0.6,7.1-1.4,10.6
			c-0.8,3.3-1.7,6.4-2.8,9.6c-0.4,0.1-0.7,0.3-1.1,0.4c-2.3,1-4.8,1.6-6.3,3.9c-1.2,1.8-1.2,5.2,0.3,6.9c0.4,0.5,1.4,0.9,2.4,1.2
			c-1.2,2.8-2.4,5.5-3.7,8.1c-1.6,3.1-3.3,6-5.1,8.9c-1.6,2.5-2.8,5.2-4.6,7.5c-1.3,1.6-3.2,2.4-5.3,2.3c-5.3-0.4-0.3-8.5,0.4-10.8
			c1.1-3.7,2.7-7.3,4.1-10.9c1.8-4.9,3.8-9.8,6.3-14.5c1-2,1.8-4.2,3.2-6c0.7-0.9,2.7-2.3,2.3-3.6c-0.1-0.4-0.8-0.6-1.6-0.6
			c-1.3,0-2.8,0.3-3.4,0.4c-1,0.2-2,0.3-3.1,0.3c-1.2,0-2.4-0.1-3.5-0.5c-0.5-0.2-1-0.3-1.5-0.6c0.2-0.6,0.4-1.3,0.5-1.9
			c1-4.1,1.7-8.4,1.8-12.7c0-2.4,0.6-4.9-0.1-7.2C56.5,216.2,54.7,214.6,52.7,214.6z M48.9,236.5c-2.4-2.4-3.6-6.3-3.9-9.6
			c0-0.3-0.1-0.6-0.1-1c0-2,1.8-8.5,4.8-8.5c0.1,0,0.2,0,0.3,0c1.8,0.3,1.7,3.2,1.6,4.5C51.3,226.6,50.6,232.1,48.9,236.5
			L48.9,236.5z M102.7,276c4.1-11.5,7.8-22.5,12-33.9c1.8-5,3.7-9.9,6.3-14.5c0.8-1.4,1.6-4,3.4-4.6c0.3-0.1,0.6-0.1,0.8-0.1
			c1.7,0,1.8,2.5,1.6,3.8c-0.4,2.3-0.9,4.7-1.5,6.9c-1.1,3.7-2.7,7.4-4.3,11c-1.7,4-3.6,8.2-5.8,11.9c-0.1,0.1-0.2,0.3-0.2,0.4
			c-0.7,1.2-1.4,2.4-2.1,3.6s-1.4,2.4-2.1,3.7c-0.7,1.2-1.4,2.4-2.1,3.6s-1.5,2.4-2.2,3.5s-1.5,2.2-2.3,3.2
			C103.6,274.9,103.1,275.4,102.7,276L102.7,276z M223.4,240.8c0.9-1.4,1.8-2.8,2.8-4.2c1.9-2.6,5.4-7.5,8.6-8.3
			c0.2-0.1,0.5-0.1,0.7-0.1c1.2,0,2.2,0.9,2.2,2.4c0.1,1.7-1.9,4.7-2.9,5.9c-1.4,1.8-3.4,2.8-5.5,3.4
			C227.4,240.5,225.4,240.7,223.4,240.8L223.4,240.8z M71.2,258.8c-2.5-0.3-3.7-2.9-2.1-5.6c1.2-2.1,3.5-3,5.7-3.7
			C73.6,252.5,72.4,255.6,71.2,258.8L71.2,258.8z M153.8,256.8c-0.6,0-1.8-0.6-2-1.1s-0.4-1.1-0.7-1.6c0.6-0.5,1.3-0.9,2-1.1
			c0.3-0.1,0.5-0.1,0.7-0.1c1.2,0,1.9,1,1.5,2.3c-0.2,0.6-0.7,1.4-1.4,1.6C153.9,256.8,153.9,256.8,153.8,256.8L153.8,256.8z
			 M208.5,288.9c-1.9,0-3.6-0.6-5.5-1.8c1.3-1.3,2.5-2.7,3.9-3.9c1.8-1.6,7-6.3,10.6-6.3c0.1,0,0.2,0,0.3,0c1.2,0.1,2.1,0.7,2.7,2.2
			c0.7,1.8-0.2,4-1.5,5.3c-1.8,1.9-4.7,3.4-7.2,4.1C210.5,288.8,209.5,288.9,208.5,288.9L208.5,288.9z M70.6,301.9
			c0.1,0,1.1-0.1,1.3-0.1c0.6,0,1.3-0.1,1.9-0.1c2.9-0.2,5.8-0.3,8.7-0.4c0.6,0,1.3,0,1.9,0c-1.2,2-2.5,4-4,5.9
			c-3.8,5.2-8.9,10.7-14.8,13.5c-1.6,0.7-3.4,1.3-5.2,1.3c-0.6,0-1.2-0.1-1.8-0.2c-1.6-0.4-4.9-1.9-5.6-3.5
			c-1.4-3.1-0.1-6.9,1.8-9.5c2.8-3.8,8.1-5.4,12.5-6.3C68.4,302.2,69.5,302,70.6,301.9L70.6,301.9L70.6,301.9z"/>
	</g>
</g>
</svg>
