<?xml version="1.0" encoding="utf-8"?>
<!-- Generator: Adobe Illustrator 18.1.1, SVG Export Plug-In . SVG Version: 6.00 Build 0)  -->
<!DOCTYPE svg PUBLIC "-//W3C//DTD SVG 1.1//EN" "http://www.w3.org/Graphics/SVG/1.1/DTD/svg11.dtd">
<svg version="1.1" id="Layer_1" xmlns="http://www.w3.org/2000/svg" xmlns:xlink="http://www.w3.org/1999/xlink" x="0px" y="0px"
	 width="300px" height="240px" viewBox="0 0 300 240" enable-background="new 0 0 300 240" xml:space="preserve">
<g>
	<rect x="50.61" y="143.725" fill="#18140C" width="3.514" height="10.469"/>
	<rect x="76.505" y="145.85" fill="#18140C" width="9.656" height="3.218"/>
	<polygon fill="#18140C" points="127.938,142.473 127.938,139.253 124.424,139.253 124.424,163.212 127.938,163.212 
		127.938,152.973 127.938,149.755 	"/>
	<path fill="#18140C" d="M210.634,153.661c-0.83,0-1.542-0.181-2.137-0.543c-0.606-0.307-1.095-0.708-1.467-1.202
		c-0.363-0.409-0.624-0.922-0.793-1.532h-3.684c0.012,0.093,0.024,0.188,0.037,0.268c0.085,0.515,0.192,0.942,0.318,1.282
		c0.138,0.329,0.292,0.674,0.462,1.035c0.562,1.107,1.463,2.082,2.705,2.925c1.219,0.877,2.741,1.336,4.566,1.38
		c2.017,0,3.763-0.59,5.239-1.772c1.432-1.192,2.404-2.898,2.914-5.119h-3.726C214.09,152.569,212.612,153.661,210.634,153.661z"/>
	<polygon fill="#18140C" points="239.309,147.017 240.822,142.293 240.886,142.293 242.4,147.017 245.707,147.017 242.318,137.392 
		239.374,137.392 235.985,147.017 	"/>
	<g>
		<path fill="#18140C" d="M36.36,80.204H30v-3.219h16.239v3.219h-6.365v20.739H36.36V80.204z"/>
		<path fill="#18140C" d="M117.397,95.585h-8.801l-1.782,5.358h-3.725l8.435-23.959h2.944l8.435,23.959h-3.708L117.397,95.585z
			 M116.395,92.367l-3.358-10.481h-0.063l-3.358,10.481H116.395z"/>
		<path fill="#18140C" d="M150.46,80.204h-6.36v-3.219h16.239v3.219h-6.365v20.739h-3.514V80.204z"/>
		<path fill="#18140C" d="M164.707,76.985h3.514v23.959h-3.514V76.985z"/>
		<path fill="#18140C" d="M174.177,76.985h14.825v3.417h-11.311v7.085h9.656v3.218h-9.656v10.239h-3.514V76.985z"/>
		<path fill="#18140C" d="M193.488,76.985h3.514v23.959h-3.514V76.985z"/>
		<path fill="#18140C" d="M223.184,76.985h3.513v23.959h-3.513V76.985z"/>
		<path fill="#18140C" d="M255.175,76.985h3.513v20.542H270v3.417h-14.825V76.985z"/>
		<polygon fill="#18140C" points="63.329,76.985 63.329,87.257 54.124,87.257 54.124,76.985 50.61,76.985 50.61,90.475 
			54.124,90.475 54.344,90.475 63.329,90.475 63.329,100.944 66.843,100.944 66.843,76.985 		"/>
		<polygon fill="#18140C" points="72.992,76.985 72.992,100.944 87.817,100.944 87.817,97.527 76.505,97.527 76.505,91.349 
			76.505,90.475 76.505,87.257 76.505,84.483 76.505,80.402 87.817,80.402 87.817,76.985 		"/>
		<polygon fill="#18140C" points="72.992,76.985 72.992,100.944 87.817,100.944 87.817,97.527 76.505,97.527 76.505,91.349 
			76.505,90.475 76.505,87.257 76.505,84.483 76.505,80.402 87.817,80.402 87.817,76.985 		"/>
		<path fill="#18140C" d="M136.044,90.312c2.945-1.172,4.439-3.385,4.481-6.639c-0.064-2.213-0.831-3.916-2.301-5.111
			c-1.222-1.052-2.799-1.578-4.733-1.578h-5.554v3.219h5.521c1.128,0,1.989,0.247,2.585,0.741c0.755,0.56,1.143,1.466,1.165,2.718
			c0,1.043-0.324,1.922-0.973,2.637c-0.66,0.769-1.649,1.164-2.968,1.186h-5.33v3.218h4.5l4.803,10.239h4.174L136.044,90.312z"/>
		<path fill="#18140C" d="M206.237,94.25c-0.044-0.159-0.086-0.321-0.117-0.494c-0.17-0.834-0.255-2.431-0.255-4.792
			c0-2.36,0.085-3.968,0.255-4.825c0.149-0.813,0.452-1.477,0.909-1.993c0.372-0.494,0.86-0.905,1.466-1.235
			c0.595-0.318,1.307-0.488,2.136-0.51c1.126,0.022,2.083,0.357,2.869,1.004c0.754,0.681,1.275,1.504,1.562,2.47h3.73
			c-0.372-2.002-1.262-3.681-2.674-5.037c-1.411-1.345-3.236-2.029-5.475-2.051c-1.825,0.022-3.348,0.471-4.568,1.347
			c-1.242,0.866-2.144,1.852-2.706,2.958c-0.35,0.581-0.61,1.342-0.78,2.284c-0.159,0.942-0.239,2.805-0.239,5.587
			c0,2.511,0.068,4.267,0.201,5.286H206.237z"/>
		<polygon fill="#18140C" points="242.4,86.61 244.244,92.367 237.464,92.367 239.309,86.61 235.985,86.61 230.939,100.944 
			234.663,100.944 236.446,95.585 245.247,95.585 247.045,100.944 250.753,100.944 245.707,86.61 		"/>
	</g>
</g>
</svg>
