<?xml version="1.0" encoding="utf-8"?>
<!-- Generator: Adobe Illustrator 18.1.1, SVG Export Plug-In . SVG Version: 6.00 Build 0)  -->
<!DOCTYPE svg PUBLIC "-//W3C//DTD SVG 1.1//EN" "http://www.w3.org/Graphics/SVG/1.1/DTD/svg11.dtd">
<svg version="1.1" id="Layer_1" xmlns="http://www.w3.org/2000/svg" xmlns:xlink="http://www.w3.org/1999/xlink" x="0px" y="0px"
	 width="280px" height="200px" viewBox="-19 185 280 200" enable-background="new -19 185 280 200" xml:space="preserve">
<g>
	<g>
		<path fill="#FFFFFF" d="M104.7,271.8c-0.2-0.2-0.4-0.5-0.6-0.8s-0.3-0.6-0.5-0.9c-0.1,0.3-0.3,0.6-0.5,0.9s-0.4,0.5-0.6,0.8
			c-0.4,0.4-0.8,0.7-1.2,0.9c-0.2,0.1-0.5,0.2-0.7,0.3c0.6,1.1,1.8,1.8,3.1,1.8c1.3,0,2.5-0.7,3.1-1.8c-0.3-0.1-0.6-0.2-0.8-0.3
			C105.5,272.5,105.1,272.2,104.7,271.8z"/>
		<path fill="#FFFFFF" d="M94,270.2c-0.1,0.1-0.1,0.3-0.2,0.4c-0.2,0.4-0.5,0.8-0.9,1.2c-0.4,0.4-0.8,0.7-1.2,0.9
			c-0.2,0.1-0.5,0.2-0.7,0.3c0.6,1.1,1.8,1.8,3.1,1.8c1.3,0,2.5-0.7,3.1-1.8C95.8,272.7,94.6,271.5,94,270.2z"/>
		<path fill="#FFFFFF" d="M104.7,265.7c-0.2-0.2-0.4-0.5-0.6-0.8s-0.3-0.6-0.5-0.9c-0.1,0.3-0.3,0.6-0.5,0.9s-0.4,0.5-0.6,0.8
			c-0.4,0.4-0.8,0.7-1.2,0.9c-0.2,0.1-0.5,0.2-0.7,0.3c0.6,1.1,1.8,1.8,3.1,1.8c1.3,0,2.5-0.7,3.1-1.8c-0.3-0.1-0.6-0.2-0.8-0.3
			C105.5,266.2,105.1,266,104.7,265.7z"/>
		<path fill="#FFFFFF" d="M104.7,259.2c-0.2-0.2-0.4-0.5-0.6-0.8s-0.3-0.6-0.5-0.9c-0.1,0.3-0.3,0.6-0.5,0.9s-0.4,0.5-0.6,0.8
			c-0.4,0.4-0.8,0.7-1.2,0.9c-0.2,0.1-0.5,0.2-0.7,0.3c0.6,1.1,1.8,1.8,3.1,1.8c1.3,0,2.5-0.7,3.1-1.8c-0.3-0.1-0.6-0.2-0.8-0.3
			C105.5,259.8,105.1,259.5,104.7,259.2z"/>
		<path fill="#FFFFFF" d="M109.7,268.7c-0.2-0.2-0.4-0.5-0.6-0.8s-0.3-0.6-0.5-0.9c-0.1,0.3-0.3,0.6-0.5,0.9s-0.4,0.5-0.6,0.8
			c-0.4,0.4-0.8,0.7-1.2,0.9c-0.2,0.1-0.5,0.2-0.7,0.3c0.6,1.1,1.8,1.8,3.1,1.8c1.3,0,2.5-0.7,3.1-1.8c-0.3-0.1-0.6-0.2-0.8-0.3
			C110.4,269.3,110,269,109.7,268.7z"/>
		<path fill="#FFFFFF" d="M99,267c-0.1,0.1-0.1,0.3-0.2,0.4c-0.2,0.4-0.5,0.8-0.9,1.2c-0.4,0.4-0.8,0.7-1.2,0.9
			c-0.2,0.1-0.5,0.2-0.7,0.3c0.6,1.1,1.8,1.8,3.1,1.8c1.3,0,2.5-0.7,3.1-1.8C100.7,269.5,99.5,268.3,99,267z"/>
		<path fill="#FFFFFF" d="M109.7,275.2c-0.2-0.2-0.4-0.5-0.6-0.8s-0.3-0.6-0.5-0.9c-0.1,0.3-0.3,0.6-0.5,0.9s-0.4,0.5-0.6,0.8
			c-0.4,0.4-0.8,0.7-1.2,0.9c-0.2,0.1-0.5,0.2-0.7,0.3c0.6,1.1,1.8,1.8,3.1,1.8c1.3,0,2.5-0.7,3.1-1.8c-0.3-0.1-0.6-0.2-0.8-0.3
			C110.4,275.8,110,275.5,109.7,275.2z"/>
		<path fill="#FFFFFF" d="M99,273.5c-0.1,0.1-0.1,0.3-0.2,0.4c-0.2,0.4-0.5,0.8-0.9,1.2c-0.4,0.4-0.8,0.7-1.2,0.9
			c-0.2,0.1-0.5,0.2-0.7,0.3c0.6,1.1,1.8,1.8,3.1,1.8c1.3,0,2.5-0.7,3.1-1.8C100.7,276,99.5,275,99,273.5z"/>
		<path fill="#FFFFFF" d="M89.4,273.5c-0.6,1.3-1.7,2.4-3.1,2.9c0.6,1.1,1.8,1.8,3.1,1.8c1.3,0,2.5-0.7,3.1-1.8
			C91.1,276,89.9,275,89.4,273.5z"/>
		<path fill="#FFFFFF" d="M113.2,276.7c-0.6,1.3-1.7,2.4-3.1,2.9c0.6,1.1,1.8,1.8,3.1,1.8s2.5-0.7,3.1-1.8
			C114.9,279,113.8,278,113.2,276.7z"/>
		<path fill="#FFFFFF" d="M104.7,278.2c-0.2-0.2-0.4-0.5-0.6-0.8s-0.3-0.6-0.5-0.9c-0.1,0.3-0.3,0.6-0.5,0.9s-0.4,0.5-0.6,0.8
			c-0.4,0.4-0.8,0.7-1.2,0.9c-0.2,0.1-0.5,0.2-0.7,0.3c0.6,1.1,1.8,1.8,3.1,1.8c1.3,0,2.5-0.7,3.1-1.8c-0.3-0.1-0.6-0.2-0.8-0.3
			C105.5,279,105.1,278.7,104.7,278.2z"/>
		<path fill="#FFFFFF" d="M94,276.7c-0.1,0.1-0.1,0.3-0.2,0.4c-0.2,0.4-0.5,0.8-0.9,1.2s-0.8,0.7-1.2,0.9c-0.2,0.1-0.5,0.2-0.7,0.3
			c0.6,1.1,1.8,1.8,3.1,1.8c1.3,0,2.5-0.7,3.1-1.8C95.8,279,94.6,278,94,276.7z"/>
		<path fill="#FFFFFF" d="M109.7,281.3c-0.2-0.2-0.4-0.5-0.6-0.8s-0.3-0.6-0.5-0.9c-0.1,0.3-0.3,0.6-0.5,0.9s-0.4,0.5-0.6,0.8
			c-0.4,0.4-0.8,0.7-1.2,0.9c-0.2,0.1-0.5,0.2-0.7,0.3c0.6,1.1,1.8,1.8,3.1,1.8c1.3,0,2.5-0.7,3.1-1.8c-0.3-0.1-0.6-0.2-0.8-0.3
			C110.4,282,110,281.7,109.7,281.3z"/>
		<path fill="#FFFFFF" d="M99,279.7c-0.1,0.1-0.1,0.3-0.2,0.4c-0.2,0.4-0.5,0.8-0.9,1.2s-0.8,0.7-1.2,0.9c-0.2,0.1-0.5,0.2-0.7,0.3
			c0.6,1.1,1.8,1.8,3.1,1.8c1.3,0,2.5-0.7,3.1-1.8C100.7,282.2,99.5,281,99,279.7z"/>
		<path fill="#FFFFFF" d="M89.4,279.7c-0.6,1.3-1.7,2.4-3.1,2.9c0.6,1.1,1.8,1.8,3.1,1.8c1.3,0,2.5-0.7,3.1-1.8
			C91.1,282.2,89.9,281,89.4,279.7z"/>
		<path fill="#FFFFFF" d="M98.9,260.8c-0.1,0.2-0.1,0.3-0.2,0.4c-0.2,0.4-0.5,0.8-0.9,1.2c-0.4,0.4-0.8,0.7-1.2,0.9
			c-0.2,0.1-0.5,0.2-0.7,0.3c0.6,1.1,1.8,1.8,3.1,1.8c1.3,0,2.5-0.7,3.1-1.8C100.6,263.2,99.5,262.2,98.9,260.8z"/>
		<path fill="#FFFFFF" d="M89.4,271.8c1.3,0,2.5-0.7,3.1-1.8c-0.8-0.3-1.5-0.7-2.1-1.3l-1.7,3C88.9,271.7,89.2,271.8,89.4,271.8z"/>
		<path fill="#FFFFFF" d="M113.3,275c0.8,0,1.5-0.3,2.1-0.7l-2.2-3.8c-0.6,1.3-1.7,2.2-3,2.7C110.8,274.2,111.9,275,113.3,275z"/>
		<path fill="#FFFFFF" d="M108.5,265.5c0.6,0,1.1-0.1,1.6-0.4l-2-3.5c0,0,0,0.1-0.1,0.1c-0.2,0.3-0.4,0.5-0.6,0.8
			c-0.4,0.4-0.8,0.7-1.2,0.9c-0.2,0.1-0.5,0.2-0.7,0.3C106,264.8,107.2,265.5,108.5,265.5z"/>
		<path fill="#FFFFFF" d="M101.8,250.1L101.8,250.1l-0.5-0.7l-1.4,2.2C100.6,251.4,101.3,251.1,101.8,250.1z"/>
		<path fill="#FFFFFF" d="M103.7,255.7c0.3,0,0.6,0,0.9-0.1l-1.9-3.2c-0.1,0.1-0.1,0.2-0.2,0.3c-0.4,0.4-0.8,0.7-1.2,0.9
			c-0.2,0.1-0.5,0.2-0.7,0.3C101.2,254.9,102.3,255.7,103.7,255.7z"/>
		<path fill="#FFFFFF" d="M98.9,259c1.3,0,2.5-0.7,3.1-1.8c-1.4-0.5-2.6-1.5-3.1-2.9c-0.1,0.2-0.1,0.3-0.2,0.4
			c-0.2,0.4-0.5,0.8-0.9,1.2l-0.1,0.1l-1.1,2C97.1,258.7,98,259,98.9,259z"/>
		<path fill="#FFFFFF" d="M94.1,268.7c1.3,0,2.5-0.7,3.1-1.8c-1.4-0.5-2.6-1.5-3.1-2.9c-0.1,0.1-0.1,0.3-0.2,0.4
			c-0.2,0.4-0.5,0.8-0.9,1.2c-0.4,0.4-0.8,0.7-1.2,0.9h-0.1l-0.4,0.7C91.9,268,92.9,268.7,94.1,268.7z"/>
		<path fill="#FFFFFF" d="M97.2,260.5c-0.6-0.2-1.1-0.5-1.5-0.8l-1.5,2.6C95.4,262.2,96.5,261.5,97.2,260.5z"/>
		<path fill="#FFFFFF" d="M106,258l-0.5-0.8h-0.1C105.6,257.5,105.8,257.8,106,258z"/>
		<path fill="#FFFFFF" d="M112,268.5l-1.1-1.9c-0.2,0.1-0.5,0.2-0.7,0.3C110.6,267.5,111.2,268.2,112,268.5z"/>
		<path fill="#FFFFFF" d="M116.3,275.8c-0.4,0.2-0.8,0.5-1.2,0.6c0.5,0.9,1.5,1.6,2.6,1.8L116.3,275.8z"/>
		<path fill="#FFFFFF" d="M120.6,283l-1-1.5c-0.7-0.5-1.2-1.1-1.5-1.9c-0.6,1.3-1.7,2-3.1,2.5c0.3,0.5,0.7,0.9,1.2,0.9h3.9
			C120.3,283,120.5,283.2,120.6,283z"/>
		<path fill="#FFFFFF" d="M114,283.8c-0.3-0.5-0.6-0.8-0.8-1.2c-0.2,0.5-0.5,0.7-0.8,1.2H114z"/>
		<path fill="#FFFFFF" d="M104.4,283.8c-0.1,0-0.2-0.2-0.3-0.3c-0.2-0.3-0.3-0.5-0.5-0.9c-0.1,0.3-0.3,0.6-0.5,0.8
			c-0.1,0.1-0.2,0.3-0.3,0.3L104.4,283.8L104.4,283.8z"/>
		<path fill="#FFFFFF" d="M94.8,283.8c-0.3-0.5-0.6-0.8-0.8-1.2c-0.1,0.1-0.1,0.3-0.2,0.4c-0.2,0.3-0.3,0.8-0.5,0.8L94.8,283.8
			L94.8,283.8z"/>
		<path fill="#FFFFFF" d="M85.2,283.8c-0.3-0.5-0.6-0.8-0.8-1.2c-0.2,0.5-0.5,0.7-0.8,1.2H85.2z"/>
		<path fill="#FFFFFF" d="M84.5,281.3c1.3,0,2.5-0.7,3.1-1.8c-1-0.3-1.8-0.9-2.4-1.7l-1.9,3.3C83.6,281.2,84,281.3,84.5,281.3z"/>
	</g>
	
		<linearGradient id="SVGID_1_" gradientUnits="userSpaceOnUse" x1="34.0993" y1="269.8783" x2="15.8748" y2="301.4442" gradientTransform="matrix(1 0 0 -1 0 576)">
		<stop  offset="0" style="stop-color:#FFFFFF;stop-opacity:0"/>
		<stop  offset="1" style="stop-color:#FFFFFF;stop-opacity:0.5"/>
	</linearGradient>
	<polygon opacity="0.2" fill="url(#SVGID_1_)" enable-background="new    " points="20.8,313.8 30.6,298.5 40.4,283 20.8,283 
		1.1,283 10.9,298.5 	"/>
	
		<linearGradient id="SVGID_2_" gradientUnits="userSpaceOnUse" x1="74.3368" y1="269.9" x2="56.1" y2="301.4871" gradientTransform="matrix(1 0 0 -1 0 576)">
		<stop  offset="0" style="stop-color:#FFFFFF;stop-opacity:0"/>
		<stop  offset="1" style="stop-color:#FFFFFF;stop-opacity:0.5"/>
	</linearGradient>
	<polygon opacity="0.2" fill="url(#SVGID_2_)" enable-background="new    " points="61,313.8 70.8,298.5 80.6,283 61,283 41.4,283 
		51.2,298.5 	"/>
	
		<linearGradient id="SVGID_3_" gradientUnits="userSpaceOnUse" x1="114.5959" y1="269.8842" x2="96.3591" y2="301.4712" gradientTransform="matrix(1 0 0 -1 0 576)">
		<stop  offset="0" style="stop-color:#FFFFFF;stop-opacity:0"/>
		<stop  offset="1" style="stop-color:#FFFFFF;stop-opacity:0.5"/>
	</linearGradient>
	<polygon opacity="0.2" fill="url(#SVGID_3_)" enable-background="new    " points="101.2,313.8 111.1,298.5 120.9,283 101.2,283 
		81.6,283 91.4,298.5 	"/>
	
		<linearGradient id="SVGID_4_" gradientUnits="userSpaceOnUse" x1="154.3584" y1="269.8624" x2="136.1217" y2="301.4495" gradientTransform="matrix(1 0 0 -1 0 576)">
		<stop  offset="0" style="stop-color:#FFFFFF;stop-opacity:0"/>
		<stop  offset="1" style="stop-color:#FFFFFF;stop-opacity:0.5"/>
	</linearGradient>
	<polygon opacity="0.2" fill="url(#SVGID_4_)" enable-background="new    " points="141,313.8 150.8,298.5 160.6,283 141,283 
		121.4,283 131.2,298.5 	"/>
	
		<linearGradient id="SVGID_5_" gradientUnits="userSpaceOnUse" x1="194.4368" y1="269.9" x2="176.2" y2="301.4871" gradientTransform="matrix(1 0 0 -1 0 576)">
		<stop  offset="0" style="stop-color:#FFFFFF;stop-opacity:0"/>
		<stop  offset="1" style="stop-color:#FFFFFF;stop-opacity:0.5"/>
	</linearGradient>
	<polygon opacity="0.2" fill="url(#SVGID_5_)" enable-background="new    " points="181.1,313.8 190.9,298.5 200.7,283 181.1,283 
		161.5,283 171.3,298.5 	"/>
	
		<linearGradient id="SVGID_6_" gradientUnits="userSpaceOnUse" x1="234.4993" y1="269.8783" x2="216.2748" y2="301.4442" gradientTransform="matrix(1 0 0 -1 0 576)">
		<stop  offset="0" style="stop-color:#FFFFFF;stop-opacity:0"/>
		<stop  offset="1" style="stop-color:#FFFFFF;stop-opacity:0.5"/>
	</linearGradient>
	<polygon opacity="0.2" fill="url(#SVGID_6_)" enable-background="new    " points="221.2,313.8 231,298.5 240.8,283 221.2,283 
		201.5,283 211.4,298.5 	"/>
	<g>
		<g>
			<path fill="#FFFFFF" d="M60.4,314H49.5l-2.6,6.3H45l9.2-21.5h1.5l9.2,21.5H63L60.4,314z M59.7,312.5l-3.8-9.1
				c-0.4-1.1-0.9-2.5-0.9-2.5l0,0c0,0-0.5,1.4-0.9,2.5l-3.8,9.1H59.7z"/>
			<path fill="#FFFFFF" d="M65,320.5h-2v-0.1l-2.6-6.2H49.6l-2.6,6.3h-2v-0.1l9.2-21.5h1.6l0,0L65,320.5z M63.1,320.2h1.7L55.7,299
				h-1.4l-9.1,21.3h1.7l2.6-6.3h11v0.1L63.1,320.2z M59.8,312.7H50l3.8-9.2c0.2-0.6,0.5-1.3,0.7-1.7c0.3-0.8,0.3-0.8,0.4-0.8l0,0
				c0.1,0,0.1,0,0.4,0.8c0.2,0.5,0.4,1.2,0.7,1.7L59.8,312.7z M50.3,312.5h9.3l-3.8-8.9c-0.2-0.6-0.5-1.3-0.7-1.7
				c-0.1-0.2-0.2-0.5-0.2-0.6c-0.1,0.1-0.1,0.4-0.2,0.6c-0.2,0.5-0.4,1.2-0.7,1.8L50.3,312.5z"/>
		</g>
		<g>
			<path fill="#FFFFFF" d="M80.4,320.3l-4.9-8.4c-0.4,0.1-0.9,0.1-1.4,0.1h-4.2v8.3h-1.7v-21.5h5.9c4.7,0,7.6,2.5,7.6,6.6
				c0,3.1-1.7,5.3-4.5,6.1l5.1,8.7L80.4,320.3L80.4,320.3z M74.2,310.5c3.7,0,5.7-2.1,5.7-5c0-3.2-2.2-4.9-5.7-4.9h-4.3v9.9H74.2z"
				/>
			<path fill="#FFFFFF" d="M82.4,320.5h-2.1l0,0l-4.9-8.3c-0.4,0.1-0.9,0.1-1.3,0.1H70v8.3h-1.8v-21.7h5.9c4.7,0,7.7,2.6,7.7,6.7
				c0,3.1-1.6,5.3-4.4,6.2L82.4,320.5z M80.4,320.2h1.7l-5.1-8.7h0.1c2.9-0.9,4.4-3,4.4-6.1c0-4-2.9-6.6-7.5-6.6h-5.8v21.3h1.5v-8.3
				H74c0.5,0,0.9,0,1.4-0.1h0.1l0,0L80.4,320.2z M74.2,310.5h-4.4v-10.1h4.4c3.7,0,5.8,1.9,5.8,5C80,308.7,77.8,310.5,74.2,310.5z
				 M70,310.5h4.2c3.5,0,5.7-1.8,5.7-4.9c0-3-2.1-4.9-5.7-4.9H70V310.5z"/>
		</g>
		<g>
			<path fill="#FFFFFF" d="M99.8,298.8v1.7h-7.1v19.8H91v-19.8h-7v-1.7H99.8L99.8,298.8z"/>
			<path fill="#FFFFFF" d="M92.8,320.5h-1.9v-19.8h-7v-1.9h16v1.9h-7.1V320.5z M91.1,320.2h1.5v-19.8h7.1V299H84v1.5h7
				C91.1,300.5,91.1,320.2,91.1,320.2z"/>
		</g>
		<g>
			<path fill="#FFFFFF" d="M103.5,320.3v-21.5h1.7v21.5H103.5z"/>
			<path fill="#FFFFFF" d="M105.2,320.5h-1.8v-21.7h1.8V320.5z M103.5,320.2h1.5V299h-1.5V320.2z"/>
		</g>
		<g>
			<path fill="#FFFFFF" d="M112.6,300.5v8.1h9.2v1.6h-9.2v10.1h-1.7v-21.5H124v1.7L112.6,300.5L112.6,300.5z"/>
			<path fill="#FFFFFF" d="M112.7,320.5h-1.8v-21.7h13.3v1.9h-11.4v7.9h9.2v1.8h-9.2L112.7,320.5L112.7,320.5L112.7,320.5z
				 M111,320.2h1.5v-10.1h9.2v-1.5h-9.2v-8.3h11.4v-1.5h-13L111,320.2L111,320.2z"/>
		</g>
		<g>
			<path fill="#FFFFFF" d="M127.9,320.3v-21.5h1.7v21.5H127.9z"/>
			<path fill="#FFFFFF" d="M129.7,320.5h-1.8v-21.7h1.8V320.5z M128,320.2h1.5V299H128V320.2z"/>
		</g>
		<g>
			<path fill="#FFFFFF" d="M152,304.5c-1.5-2.7-4.4-4.4-7.7-4.4c-5.1,0-9,3.8-9,9.5c0,5.6,3.9,9.4,9,9.4c3.5,0,6.5-2,8-5l1.7,0.5
				c-1.7,3.8-5.4,6.2-9.7,6.2c-5.9,0-10.7-4.7-10.7-11.2s4.8-11.2,10.7-11.2c4,0,7.5,2.2,9.4,5.6L152,304.5z"/>
			<path fill="#FFFFFF" d="M144.4,320.8c-6.1,0-10.8-4.8-10.8-11.3c0-6.4,4.6-11.3,10.8-11.3c4,0,7.5,2.1,9.4,5.7l0.1,0.1l-1.9,0.5
				v-0.1c-1.5-2.7-4.4-4.3-7.6-4.3c-5.1,0-8.9,3.9-8.9,9.4c0,5.4,3.7,9.3,8.9,9.3c3.4,0,6.4-1.9,7.9-4.9v-0.1l1.8,0.5v0.1
				C152.4,318.5,148.6,320.8,144.4,320.8z M144.4,298.5c-6.1,0-10.6,4.8-10.6,11.1c0,6.3,4.6,11.1,10.6,11.1c4.2,0,7.8-2.3,9.6-6.1
				l-1.5-0.4c-1.5,3.1-4.6,5-8,5c-5.2,0-9-4-9-9.5s3.8-9.5,9-9.5c3.3,0,6.1,1.6,7.7,4.3l1.5-0.4
				C151.7,300.5,148.3,298.5,144.4,298.5z"/>
		</g>
		<g>
			<path fill="#FFFFFF" d="M157.4,320.3v-21.5h1.7v21.5H157.4z"/>
			<path fill="#FFFFFF" d="M159.2,320.5h-1.8v-21.7h1.8V320.5z M157.5,320.2h1.5V299h-1.5V320.2z"/>
		</g>
		<g>
			<path fill="#FFFFFF" d="M177.8,314h-10.9l-2.6,6.3h-1.9l9.2-21.5h1.5l9.2,21.5h-1.9L177.8,314z M177.1,312.5l-3.8-9.1
				c-0.4-1.1-0.9-2.5-0.9-2.5l0,0c0,0-0.5,1.4-0.9,2.5l-3.8,9.1H177.1z"/>
			<path fill="#FFFFFF" d="M182.4,320.5h-2v-0.1l-2.6-6.2H167l-2.6,6.3h-2v-0.1l9.2-21.5h1.6l0,0L182.4,320.5z M180.4,320.2h1.7
				L173,299h-1.4l-9.1,21.3h1.7l2.6-6.3h11v0.1L180.4,320.2z M177.2,312.7h-9.8l3.9-9.2c0.2-0.6,0.5-1.3,0.7-1.7
				c0.3-0.8,0.3-0.8,0.4-0.8l0,0c0.1,0,0.1,0,0.4,0.8c0.2,0.5,0.4,1.2,0.7,1.7L177.2,312.7z M167.7,312.5h9.3l-3.8-8.9
				c-0.2-0.6-0.5-1.3-0.7-1.7c-0.1-0.2-0.2-0.5-0.2-0.6c-0.1,0.1-0.1,0.4-0.2,0.6c-0.2,0.5-0.4,1.2-0.7,1.8L167.7,312.5z"/>
		</g>
		<g>
			<path fill="#FFFFFF" d="M198.7,318.7v1.7h-13.1v-21.5h1.7v19.8H198.7L198.7,318.7z"/>
			<path fill="#FFFFFF" d="M198.8,320.5h-13.3v-21.7h1.8v19.8h11.4L198.8,320.5L198.8,320.5z M185.7,320.2h13v-1.5h-11.4V299h-1.5
				L185.7,320.2L185.7,320.2z"/>
		</g>
	</g>
	<g>
		<g>
			<polygon fill="#FFFFFF" points="15.6,268.3 12.5,262.8 1,283 7.2,283 			"/>
		</g>
		<g>
			<polygon fill="#FFFFFF" points="28.7,262.8 17.3,283 40.2,283 			"/>
		</g>
		<g>
			<polygon fill="#FFFFFF" points="23.7,268.3 20.6,262.8 9.1,283 15.4,283 			"/>
		</g>
		<g>
			<path fill="#FFFFFF" d="M20.6,257c0.2,3.9,3.4,5,7.3,5l-3.7-6.4l-2.7-4.7l-1-1.7l-1,1.7l-2.7,4.7l-3.7,6.4l0,0
				C17.2,262,20.4,260.8,20.6,257z"/>
		</g>
	</g>
	<g>
		<g>
			<g>
				<polygon fill="#FFFFFF" points="241,283.5 237.7,277.8 237.7,277.8 				"/>
			</g>
			<g>
				<path fill="#FFFFFF" d="M237.7,278h-1c-5.9,0-10.2-1.6-13.1-3.9l-5.5,8.9h6.6l0,0h4.8H241L237.7,278z"/>
			</g>
			<g>
				<path fill="#191617" d="M216.7,274c-0.7,0.4-1.4,0.7-2.2,1C215.3,274.8,216,274.5,216.7,274z"/>
			</g>
			<g>
				<path fill="#FFFFFF" d="M205.1,278l-3.3,5h11.5h2.9l0.5-0.5l3.8-6.3l-1.2-1.9c-2.8,2.4-7.2,3.7-13.1,3.7L205.1,278L205.1,278z"
					/>
			</g>
			<g>
				<g>
					<path fill="#FFFFFF" d="M221.4,250.1L221.4,250.1c-3.6,6-13.4,23.5-15.4,26.1l0,0c4,0,7.5-0.3,10.7-2.2c3-1.8,4.6-4.8,4.7-8.3
						c0.1,3.3,1.6,6.3,4.5,8.1c3.2,2,7.2,2.3,10.8,2.3C236.7,276.2,222.8,252.1,221.4,250.1z"/>
				</g>
			</g>
			<g>
				<path fill="#FFFFFF" d="M230.8,275.7c-0.9-0.2-1.7-0.4-2.5-0.7C229.1,275.2,230,275.5,230.8,275.7z"/>
			</g>
			<g>
				<path fill="#FFFFFF" d="M236.6,276.2L236.6,276.2c-2,0-4-0.2-5.8-0.5C232.6,276,234.6,276.2,236.6,276.2z"/>
			</g>
		</g>
	</g>
	<g>
		<g>
			<g>
				<path fill="#FFFFFF" d="M70.5,266.8c-3.3-5.6-6.5-11.3-9.8-16.9c-3.4,6-6.9,11.9-10.3,17.9c-1.6,2.8-3.3,5.7-4.9,8.5
					c8.5-0.8,14.9-4.3,15.3-13.2c0.2,3.6,1.5,7.1,4.4,9.5c3,2.5,7.1,3.4,10.9,3.7L70.5,266.8z"/>
			</g>
			<g>
				<path fill="#FFFFFF" d="M60.8,270.3c0.2,4.4,2.1,8.3,6,10.6c4,2.3,8.9,2.8,13.5,2.8L77,278c-8.3-0.6-13.7-3.3-16.2-8.2l0,0"/>
			</g>
			<g>
				<path fill="#FFFFFF" d="M60.7,270.3c-0.2,4.4-2.1,8.3-6,10.6c-4,2.3-8.9,2.8-13.5,2.8l3.3-5.7c8.3-0.6,13.7-3.3,16.2-8.2l0,0"/>
			</g>
		</g>
	</g>
	<g>
		<g>
			<path fill="#FFFFFF" d="M184.5,255.7L184.5,255.7l-3.2-5.6l-4.4,7.7c0.9,1.5,2.6,2.4,4.4,2.4s3.5-1,4.4-2.5L184.5,255.7z"/>
		</g>
		<g>
			<path fill="#FFFFFF" d="M195,273.3c-1.3,1.2-2.9,2.2-4.8,2.2c-0.1,0-0.2,0.1-0.4,0.1l4.3,7l0.5,0.4h6.2L195,273.3z"/>
		</g>
		<g>
			<path fill="#FFFFFF" d="M185.3,273.8c-1,1-2.3,1.6-3.7,1.9l4.4,7.1l0.5,0.3h6.2l-5.1-8.3C186.8,274.5,186,274.5,185.3,273.8z"/>
		</g>
		<g>
			<path fill="#FFFFFF" d="M175.7,273.8l-0.1,0.1c-0.8,0.8-1.8,1.3-2.8,1.6c-0.6,0.2-1.2,0.3-1.8,0.3c-1.5,0-2.8-0.9-3.9-1.7l-5.5,9
				h0.1l5.4-9.3l-5.4,9.3h6.1h1.9h3.3h8.1h3.3l-4.8-7.9C178.2,275,176.8,274.8,175.7,273.8z"/>
		</g>
		<g>
			<path fill="#FFFFFF" d="M171,273c0.4,0,0.8,0.5,1.2,0.4c0.8-0.2,1.5-0.3,2.1-0.9v0.2c0.5-0.4,0.9-0.9,1.2-1.4
				c0.9,1.7,2.6,2.9,4.8,2.9c2.4,0,4.2-1.4,5-3.4c0.8,1.9,2.6,3.2,4.9,3.2c0,0,1.7-0.3,2.3-0.5c0.7-0.2,1.2-0.7,1.7-1.2l0,0l0,0l0,0
				l-3-5.2l-4.5-7.8c-1.3,1.6-3.2,2.5-5.3,2.5s-4.1-1-5.3-2.5l-1.9,3.2l-0.9,1.6l-5.1,8.4C168.8,273.2,169.8,273,171,273L171,273
				L171,273z"/>
		</g>
	</g>
	<g>
		<path fill="#FFFFFF" d="M145.1,256.8l-4.1-7l-4.3,7.4c1,1.1,2.5,1.8,4,1.8C142.5,259,144.1,258.2,145.1,256.8z"/>
		<path fill="#FFFFFF" d="M148.2,262l-2.3-3.7c-1.3,1.4-3.1,2.3-5.1,2.3c-1.8,0-3.5-0.9-4.8-2.1l-2.1,3.5L148.2,262L148.2,262z"/>
		<polygon fill="#FFFFFF" points="130,268 152.1,268 149.3,264 132.9,264 		"/>
		<polygon fill="#FFFFFF" points="127.6,273 154.5,273 153.1,270 129.1,270 		"/>
		<polygon fill="#FFFFFF" points="121.5,283 160.7,283 155.5,274 126.7,274 		"/>
	</g>
	<g>
		<g>
			<path fill="#FFFFFF" d="M31,298.8v0.6h-2v5.1h-0.7v-5.1h-1.9v-0.6H31z"/>
		</g>
		<g>
			<path fill="#FFFFFF" d="M36.4,298.8v5.7h-0.7v-2.7h-3.1v2.7h-0.7v-5.7h0.7v2.5h3.1v-2.5H36.4z"/>
		</g>
		<g>
			<path fill="#FFFFFF" d="M41.8,303.8v0.6h-3.9v-5.7h3.8v0.6h-3.2v1.8H41v0.6h-2.5v2.1H41.8L41.8,303.8z"/>
		</g>
	</g>
</g>
</svg>
