<?xml version="1.0" encoding="utf-8"?>
<!-- Generator: Adobe Illustrator 18.1.1, SVG Export Plug-In . SVG Version: 6.00 Build 0)  -->
<!DOCTYPE svg PUBLIC "-//W3C//DTD SVG 1.1//EN" "http://www.w3.org/Graphics/SVG/1.1/DTD/svg11.dtd">
<svg version="1.1" id="Layer_1" xmlns="http://www.w3.org/2000/svg" xmlns:xlink="http://www.w3.org/1999/xlink" x="0px" y="0px"
	 width="280px" height="200px" viewBox="-19 185 280 200" enable-background="new -19 185 280 200" xml:space="preserve">
<g>
	<rect x="123" y="240.5" fill="#FFFFFF" width="4" height="5"/>
	<rect x="18" y="294.5" fill="#FFFFFF" width="5" height="4"/>
	<rect x="62" y="294.5" fill="#FFFFFF" width="4" height="4"/>
	<rect x="79" y="294.5" fill="#FFFFFF" width="5" height="4"/>
	<polygon fill="#FFFFFF" points="92,294.5 92,298.5 97,298.5 97,302.8 97,307.5 92,307.5 92,311.5 97,311.5 97,316.5 101,316.5 
		101,311.5 101,307.2 101,302.8 101,298.5 101,294.5 97,294.5 	"/>
	<rect x="110" y="294.5" fill="#FFFFFF" width="4" height="4"/>
	<polygon fill="#FFFFFF" points="123,294.5 123,298.5 123,303.5 127.5,303.5 132,303.5 132,298.5 132,294.5 127.5,294.5 	"/>
	<polygon fill="#FFFFFF" points="140,298.5 136,298.5 136,302.8 136,307.5 140,307.5 140,303.5 145,303.5 145,298.5 145,294.5 
		140,294.5 	"/>
	<rect x="149" y="294.5" fill="#FFFFFF" width="4" height="4"/>
	<polygon fill="#FFFFFF" points="167,294.5 167,298.5 162.5,298.5 158.1,298.5 153,298.5 153,302.8 153,307.5 158,307.5 158,303.5 
		162.5,303.5 166.8,303.5 171.2,303.5 175,303.5 175,298.5 175,294.5 171.2,294.5 	"/>
	<polygon fill="#FFFFFF" points="180,294.5 180,298.5 184.3,298.5 188,298.5 188,294.5 184.3,294.5 	"/>
	<polygon fill="#FFFFFF" points="197,298.5 193,298.5 193,302.8 193,307.5 197.4,307.5 201,307.5 201,302.8 201,298.5 201,294.5 
		197,294.5 	"/>
	<polygon fill="#FFFFFF" points="210,294.5 210,298.5 206,298.5 206,303.5 210.5,303.5 215,303.5 215,307.2 215,311.5 219,311.5 
		219,307.2 219,302.8 219,298.5 219,294.5 214.8,294.5 	"/>
	<polygon fill="#FFFFFF" points="88,249.5 88,245.5 92.6,245.5 97,245.5 97,240.5 92.6,240.5 88.3,240.5 84,240.5 84,245.5 
		79,245.5 79,249.5 83.9,249.5 	"/>
	<polygon fill="#FFFFFF" points="114,245 114,240.5 110,240.5 110,245.5 105,245.5 105,249.4 105,253.5 110.1,253.5 114,253.5 
		114,249.4 	"/>
	<rect x="127" y="245.5" fill="#FFFFFF" width="5" height="4"/>
	<polygon fill="#FFFFFF" points="145,249.5 149,249.5 149,245.5 153.7,245.5 158.1,245.5 162,245.5 162,240.5 158.1,240.5 
		153.7,240.5 149.4,240.5 145,240.5 140,240.5 140,245.5 136,245.5 136,249.5 140.6,249.5 	"/>
	<rect x="14" y="298.5" fill="#FFFFFF" width="4" height="5"/>
	<rect x="31" y="298.5" fill="#FFFFFF" width="5" height="5"/>
	<polygon fill="#FFFFFF" points="49,303.5 49,307.5 53,307.5 53,302.8 53,298.5 49,298.5 49,294.5 44,294.5 44,298.5 40,298.5 
		40,303.5 44.6,303.5 	"/>
	<rect x="66" y="298.5" fill="#FFFFFF" width="5" height="5"/>
	<rect x="75" y="298.5" fill="#FFFFFF" width="4" height="5"/>
	<rect x="84" y="298.5" fill="#FFFFFF" width="4" height="5"/>
	<polygon fill="#FFFFFF" points="228,298.5 232,298.5 232,294.5 227.9,294.5 223,294.5 223,298.5 223,303.5 228,303.5 	"/>
	<rect x="88" y="249.5" fill="#FFFFFF" width="4" height="4"/>
	<path fill="#FFFFFF" d="M127,253.5v-4h-4v4h-4.2H114v5h5v4h4v4.3v4.7h4v4h5v-4.3v-4.4v-4.3v-4.4v-4.6L127,253.5L127,253.5z
		 M127,262.5h-4v-4h4V262.5z"/>
	<polygon fill="#FFFFFF" points="71,307.2 71,311.5 75,311.5 75,307.2 75,303.5 71,303.5 	"/>
	<rect x="110" y="303.5" fill="#FFFFFF" width="4" height="4"/>
	<polygon fill="#FFFFFF" points="23,311.5 23,315.9 23,320.5 27,320.5 27,315.9 27,311.5 27,307.5 23,307.5 	"/>
	<polygon fill="#FFFFFF" points="40,307.2 40,303.5 36,303.5 36,307.2 36,311.5 40,311.5 	"/>
	<rect x="149" y="307.5" fill="#FFFFFF" width="4" height="4"/>
	<polygon fill="#FFFFFF" points="180,307.5 180,311.5 180,316.5 184,316.5 184,320.5 188,320.5 188,315.9 188,311.5 188,307.5 
		184.3,307.5 	"/>
	<polygon fill="#FFFFFF" points="228,307.5 223,307.5 223,311.5 223,316.5 228,316.5 228,311.5 	"/>
	<polygon fill="#FFFFFF" points="9,311.5 9,307.2 9,302.8 9,298.5 5.4,298.5 1,298.5 1,303.5 5,303.5 5,307.5 1,307.5 1,311.5 
		5,311.5 5,316.5 1,316.5 1,320.3 1,324.6 1,329.5 5,329.5 5,324.5 9,324.5 9,320.3 9,316.5 14,316.5 14,320.5 18,320.5 18,315.9 
		18,311.5 14.1,311.5 	"/>
	<polygon fill="#FFFFFF" points="36,311.5 31,311.5 31,315.9 31,320.3 31,324.6 31,329.5 36,329.5 36,324.5 40,324.5 40,320.3 
		40,316.5 36,316.5 	"/>
	<rect x="40" y="311.5" fill="#FFFFFF" width="4" height="5"/>
	<polygon fill="#FFFFFF" points="119,311.5 114.5,311.5 110.1,311.5 105,311.5 105,315.9 105,320.5 110,320.5 110,316.5 114,316.5 
		114,320.5 118.8,320.5 123,320.5 123,316.5 119,316.5 	"/>
	<polygon fill="#FFFFFF" points="140,316.5 145,316.5 145,311.5 145,307.5 140,307.5 140,311.5 	"/>
	<polygon fill="#FFFFFF" points="197,315.9 197,320.5 201,320.5 201,315.9 201,311.5 197,311.5 	"/>
	<rect x="206" y="311.5" fill="#FFFFFF" width="4" height="5"/>
	<rect x="44" y="316.5" fill="#FFFFFF" width="5" height="4"/>
	<rect x="92" y="316.5" fill="#FFFFFF" width="5" height="4"/>
	<rect x="149" y="316.5" fill="#FFFFFF" width="4" height="4"/>
	<rect x="84" y="267.5" fill="#FFFFFF" width="4" height="4"/>
	<polygon fill="#FFFFFF" points="110,271.5 114,271.5 114,266.8 114,262.5 110.1,262.5 105,262.5 105,267.5 110,267.5 	"/>
	<polygon fill="#FFFFFF" points="149,267.5 145,267.5 145,262.5 149.4,262.5 153,262.5 153,258.1 153,253.5 149,253.5 149,258.5 
		145,258.5 140,258.5 140,262.5 140,267.5 136,267.5 136,271.2 136,275.5 140.6,275.5 145,275.5 145,271.5 149,271.5 	"/>
	<rect x="158" y="267.5" fill="#FFFFFF" width="4" height="4"/>
	<polygon fill="#FFFFFF" points="49,320.5 49,324.5 53,324.5 53,329.5 57,329.5 57,324.6 57,320.5 53.4,320.5 	"/>
	<polygon fill="#FFFFFF" points="71,320.5 71,324.6 71,329.5 75,329.5 75,324.5 79,324.5 79,320.5 75.2,320.5 	"/>
	<polygon fill="#FFFFFF" points="110,324.6 110,329.5 114,329.5 114,324.6 114,320.5 110,320.5 	"/>
	<polygon fill="#FFFFFF" points="136,320.5 136,324.6 136,329.5 140.6,329.5 145,329.5 145,324.6 145,320.5 140.6,320.5 	"/>
	<rect x="171" y="320.5" fill="#FFFFFF" width="4" height="4"/>
	<polygon fill="#FFFFFF" points="180,324.6 180,329.5 184.3,329.5 188,329.5 188,324.5 184,324.5 184,320.5 180,320.5 	"/>
	<polygon fill="#FFFFFF" points="210,320.5 210,324.6 210,329.5 215,329.5 215,324.5 219,324.5 219,320.5 214.8,320.5 	"/>
	<polygon fill="#FFFFFF" points="236.6,320.5 232,320.5 232,316.5 228,316.5 228,320.3 228,324.6 228,329.5 232.3,329.5 
		236.6,329.5 241,329.5 241,324.6 241,320.5 	"/>
	<rect x="88" y="271.5" fill="#FFFFFF" width="4" height="4"/>
	<rect x="149" y="271.5" fill="#FFFFFF" width="4" height="4"/>
	<polygon fill="#FFFFFF" points="92,324.5 92,329.5 97,329.5 101,329.5 101,324.6 101,320.5 97,320.5 97,324.5 	"/>
	<polygon fill="#FFFFFF" points="162.5,324.5 158,324.5 158,320.5 153,320.5 153,324.5 149,324.5 149,329.5 153.7,329.5 
		158.1,329.5 162.5,329.5 166.8,329.5 171,329.5 171,324.5 166.8,324.5 	"/>
	<rect x="197" y="324.5" fill="#FFFFFF" width="4" height="5"/>
</g>
</svg>
