<?xml version="1.0" encoding="utf-8"?>
<!-- Generator: Adobe Illustrator 18.1.1, SVG Export Plug-In . SVG Version: 6.00 Build 0)  -->
<!DOCTYPE svg PUBLIC "-//W3C//DTD SVG 1.1//EN" "http://www.w3.org/Graphics/SVG/1.1/DTD/svg11.dtd">
<svg version="1.1" id="Layer_1" xmlns="http://www.w3.org/2000/svg" xmlns:xlink="http://www.w3.org/1999/xlink" x="0px" y="0px"
	 viewBox="-149 181 300 240" enable-background="new -149 181 300 240" xml:space="preserve">
<rect x="-116.5" y="348.6" fill="#FFFFFF" width="4.2" height="12.4"/>
<rect x="-85.9" y="344.7" fill="#FFFFFF" width="11.4" height="3.8"/>
<polygon fill="#FFFFFF" points="-25.1,240.8 -25.1,237 -29.2,237 -29.2,265.3 -25.1,265.3 -25.1,253.2 -25.1,249.4 "/>
<path fill="#FFFFFF" d="M72.7,356.7c-1,0-1.8-0.2-2.5-0.6c-0.7-0.4-1.3-0.8-1.7-1.4c-0.4-0.5-0.7-1.1-0.9-1.8h-4.4
	c0,0.1,0,0.2,0,0.3c0.1,0.6,0.2,1.1,0.4,1.5c0.2,0.4,0.3,0.8,0.5,1.2c0.7,1.3,1.7,2.5,3.2,3.5c1.4,1,3.2,1.6,5.4,1.6
	c2.4,0,4.4-0.7,6.2-2.1c1.7-1.4,2.8-3.4,3.4-6.1h-4.4C76.8,355.4,75,356.7,72.7,356.7z"/>
<polygon fill="#FFFFFF" points="106.6,256.8 108.4,251.3 108.4,251.3 110.2,256.8 114.1,256.8 110.1,245.5 106.6,245.5 102.6,256.8 
	"/>
<g>
	<path fill="#FFFFFF" d="M-133.3,292h-7.5v-3.8h19.2v3.8h-7.5v24.5h-4.2V292z"/>
	<path fill="#FFFFFF" d="M-37.5,310.1h-10.4l-2.1,6.3h-4.4l10-28.3h3.5l10,28.3h-4.4L-37.5,310.1z M-38.7,306.3l-4-12.4h-0.1
		l-4,12.4H-38.7z"/>
	<path fill="#FFFFFF" d="M1.5,292H-6v-3.8h19.2v3.8H5.7v24.5H1.5V292z"/>
	<path fill="#FFFFFF" d="M18.4,288.2h4.2v28.3h-4.2V288.2z"/>
	<path fill="#FFFFFF" d="M29.6,288.2h17.5v4H33.7v8.4h11.4v3.8H33.7v12.1h-4.2V288.2z"/>
	<path fill="#FFFFFF" d="M52.4,288.2h4.2v28.3h-4.2V288.2z"/>
	<path fill="#FFFFFF" d="M87.5,288.2h4.2v28.3h-4.2V288.2z"/>
	<path fill="#FFFFFF" d="M125.3,288.2h4.2v24.3h13.4v4h-17.5V288.2z"/>
	<polygon fill="#FFFFFF" points="-101.4,288.2 -101.4,300.3 -112.3,300.3 -112.3,288.2 -116.5,288.2 -116.5,304.1 -112.3,304.1 
		-112.1,304.1 -101.4,304.1 -101.4,316.5 -97.3,316.5 -97.3,288.2 	"/>
	<polygon fill="#FFFFFF" points="-90,288.2 -90,316.5 -72.5,316.5 -72.5,312.4 -85.9,312.4 -85.9,305.1 -85.9,304.1 -85.9,300.3 
		-85.9,297 -85.9,292.2 -72.5,292.2 -72.5,288.2 	"/>
	<polygon fill="#FFFFFF" points="-90,288.2 -90,316.5 -72.5,316.5 -72.5,312.4 -85.9,312.4 -85.9,305.1 -85.9,304.1 -85.9,300.3 
		-85.9,297 -85.9,292.2 -72.5,292.2 -72.5,288.2 	"/>
	<path fill="#FFFFFF" d="M-15.5,303.9c3.5-1.4,5.2-4,5.3-7.8c-0.1-2.6-1-4.6-2.7-6c-1.4-1.2-3.3-1.9-5.6-1.9h-6.6v3.8h6.5
		c1.3,0,2.4,0.3,3.1,0.9c0.9,0.7,1.4,1.7,1.4,3.2c0,1.2-0.4,2.3-1.2,3.1c-0.8,0.9-1.9,1.4-3.5,1.4h-6.3v3.8h5.3l5.7,12.1h4.9
		L-15.5,303.9z"/>
	<path fill="#FFFFFF" d="M67.5,308.6c-0.1-0.2-0.1-0.4-0.1-0.6c-0.2-1-0.3-2.9-0.3-5.7c0-2.8,0.1-4.7,0.3-5.7c0.2-1,0.5-1.7,1.1-2.4
		c0.4-0.6,1-1.1,1.7-1.5c0.7-0.4,1.5-0.6,2.5-0.6c1.3,0,2.5,0.4,3.4,1.2c0.9,0.8,1.5,1.8,1.8,2.9h4.4c-0.4-2.4-1.5-4.4-3.2-6
		c-1.7-1.6-3.8-2.4-6.5-2.4c-2.2,0-4,0.6-5.4,1.6c-1.5,1-2.5,2.2-3.2,3.5c-0.4,0.7-0.7,1.6-0.9,2.7c-0.2,1.1-0.3,3.3-0.3,6.6
		c0,3,0.1,5,0.2,6.2H67.5z"/>
	<polygon fill="#FFFFFF" points="110.2,299.5 112.4,306.3 104.4,306.3 106.6,299.5 102.6,299.5 96.7,316.5 101.1,316.5 103.2,310.1 
		113.6,310.1 115.7,316.5 120.1,316.5 114.1,299.5 	"/>
</g>
</svg>
