<?xml version="1.0" encoding="utf-8"?>
<!-- Generator: Adobe Illustrator 22.0.1, SVG Export Plug-In . SVG Version: 6.00 Build 0)  -->
<svg version="1.1" id="Layer_1" xmlns="http://www.w3.org/2000/svg" xmlns:xlink="http://www.w3.org/1999/xlink" x="0px" y="0px"
	 width="280px" height="200px" viewBox="0 0 280 200" enable-background="new 0 0 280 200" xml:space="preserve">
<path fill="#FFFFFF" d="M107.599,108.472c7.873,0.074,4.538,9.741-1.885,9.744C102.343,118.217,100.559,108.405,107.599,108.472z
	 M181.66,135.883c-3.903,4.435-3.495,11.986,2.045,17.526c8.725,8.725,7.205,28.237-10.321,28.237
	c-21.76,0-48.295-26.867-75.744-26.867c-19.288,0-12.414,19.194-10.33,17.111c1.129-1.13-7.205-13.863,10.887-13.863
	c23.582,0,48.751,31.973,77.135,31.973c25.9,0,32.654-32.743,25.316-47.107C196.07,133.935,185.819,131.156,181.66,135.883z
	 M104.611,39.365c0.627,0,1.284,0.179,1.961,0.47c0.388-5.365,1.794-8.987,6.159-8.987c3.897,0,3.862,6.595,3.585,13.453
	c3.377-0.674,3.89-5.537,5.561-4.841c1.678,0.699,1.054,7.139-5.66,7.202c-0.275,6.619-0.38,12.804,3.034,12.804
	c2.662,0,4.707-2.068,6.125-4.251c-1.072-8.526,1.211-22.565-1.13-23.935c-1.934-1.132-1.904-2.922,2.084-2.534
	c4.387,0.426,6.282,6.57,6.745,13.43c2.153-3.282,5.674-5.066,8.79-4.648c12.385,1.664,0.573,18.379,6.583,20.325
	c1.843,0.597,3.29,0.017,4.473-0.914c-0.814-2.133-1.265-4.789-1.265-8.049c0-16.321,16.605-14.397,16.605-5.836
	c0,4.052-4.283,8.527-7.727,10.869c0.949,4.149,2.859,7.664,5.424,7.664c6.632,0,0.644-10.076,6.056-10.076
	c4.987,0,1.592,12.84-7.428,12.84c-4.568,0-8.438-1.539-10.722-5.432c-2.321,1.718-5.301,3.013-7.96,2.418
	c-10.758-2.406-0.998-19.272-7.611-19.834c-3.714-0.316-4.7,3.925-5.011,6.808c0.235,6.802,0.468,13.836-4.091,13.393
	c-1.714-0.167-2.742-1.68-3.343-3.951c-1.416,2.72-3.88,5.13-8.167,5.13c-7.587,0-11.24-7.684-11.24-18.729
	c0-0.634,0.006-1.254,0.02-1.859c-0.52-0.247-1.029-0.398-1.543-0.398c-2.3,0-3.09,2.157-4.007,1.658
	C99.543,42.811,101.688,39.365,104.611,39.365z M160.146,51.837c4.264-2.789,8.313-11.176,3.169-11.176
	C160.194,40.661,159.348,46.379,160.146,51.837z M211.189,12.855c-18.909,7.443-33.142,22.249-32.823,44.107
	c0.041,2.796,1.733,3.573,2.842,1.129c4.853-10.695,19.084-34.301,26.099-35.92c-0.601,3.72-0.583,7.591-1.057,11.528
	c-1.161,9.651-8.184,15.696-15.983,20.583c-2.091,1.31-1.646,2.438,0.771,1.605c9.369-3.23,15.605-6.868,18.567-14.928
	c2.862-7.788-0.811-19.673,4.148-26.614C215.197,12.325,213.792,11.83,211.189,12.855z M84.317,50.709
	c2.141,0.892,2.608-0.103,0.789-1.409c-6.783-4.87-12.797-10.744-13.298-19.549c-0.204-3.592,0.032-7.096-0.299-10.499
	c6.259,1.865,17.798,24.051,21.583,34.012c0.865,2.277,2.441,1.67,2.638-0.86c1.535-19.773-10.508-33.99-27.205-41.808
	c-2.298-1.076-3.599-0.709-2.407,1.202c4.095,6.568,0.091,17.12,2.238,24.335C70.578,43.6,76.018,47.25,84.317,50.709z
	 M83.781,54.209c0.813-1.058-4.942-4.305-8.244-4.456c-3.302-0.152-4.423,5.476,1.857,4.653
	C80.834,53.954,82.998,55.228,83.781,54.209z M80.214,56.324c-2.109,0.925-6.825,0.778-6.123,2.603
	c0.436,1.133,3.138,1.81,6.255,0.56C82.978,58.432,83.696,54.797,80.214,56.324z M198.936,56.555
	c-3.463,0.041-10.004,3.352-9.191,4.489c0.784,1.095,3.496-0.278,7.081,0.317C203.372,62.447,202.399,56.514,198.936,56.555z
	 M197.326,64.31c-2.994-1.751-6.704-1.731-7.275-0.698c-0.423,0.765,3.313,2.111,5.864,3.584
	C200.773,70.001,199.854,65.788,197.326,64.31z M86.93,150.809c-20.641,0-22.504-36.692-0.447-36.692
	c5.665,0,9.481,4.689,9.481,9.548c0,2.223-1.297,4.258-3.393,4.258c-3.094,0-2.595-3.46-1.272-4.042
	c1.535-0.676,1.139-6.339-3.219-6.339c-11.373,0-7.557,28.412,2.162,28.412c4.268,0,6.866-4.663,8.939-9.323
	c-0.78-7.693,1.583-15.736,7.468-15.736c14.71,0-1.626,23.736,7.002,23.736c3.011,0,5.099-2.36,6.403-4.211
	c0.596-5.756,4.078-10.915,11.123-10.915c3.04,0,5.542,1.366,7.06,3.587c0.447-6.421,0.647-13.369-2.619-14.419
	c-4.876-1.567-5.654,4.208-4.437,5.19c0.204,0.164,0.355,0.411,0.451,0.703c0.028,0.08,0.052,0.164,0.068,0.252
	c0.275,1.325-0.503,3.234-2.798,2.615c-2.024-0.543-2.62-2.816-2.168-4.994c1.166-5.611,7.29-8.451,13.541-6.659
	c14.272,4.092,0.926,39.538,10.368,39.538c1.987,0,3.428-1.129,4.458-2.479c-1.976-13.331,0.816-27.819,7.41-27.819
	c12.376,0-4.083,45.868,10.523,46.006c1.075,0.01,1.922-0.305,2.569-0.785c0.151-0.131,0.29-0.272,0.417-0.423
	c-0.061,0.088-0.129,0.171-0.201,0.251c1.544-1.326,1.788-3.63,1.183-4.262c-1.114-1.164-1.777-5.081,0.591-5.081
	c2.091,0,2.891,3.385,2.828,5.38c-0.067,2.096-1.597,8.608-9.287,8.608c-8.536,0-13.58-9.045-15.611-19.417
	c-1.42,2.049-3.877,3.673-8.122,3.673c-4.325,0-6.831-2.857-8.195-6.961c-1.946,2.237-4.821,3.894-8.971,3.894
	c-5.979,0-9.652-5.849-10.202-12.041c-2.049,3.315-5.843,6.525-11.023,6.569c-4.783,0.041-7.924-4.661-9.252-10.325
	C97.152,145.595,93.246,150.809,86.93,150.809z M127.706,142.546c0,4.81,1.764,9.789,6.439,9.652
	c1.94-0.057,3.407-0.932,4.502-2.205c-0.633-2.759-0.87-5.898-0.87-9.038c0-1.366,0.108-3.037,0.24-4.845
	C135.645,131.571,127.706,133.377,127.706,142.546z M98.719,98.594c6.18,0,6.02-21.494,13.533-21.494
	c2.071,0,3.975,1.813,5.516,4.55c2.097-3.519,5.493-6.606,9.934-6.389c0.748,0.037,1.473,0.142,2.181,0.304
	c1.484-4.63,3.98-7.777,7.412-7.777c3.508,0,4.163,6.108,4.15,13.631c2.641,1.425,5.508,2.587,8.914,2.784
	c6.801,0.394,6.724-4.84,5.101-4.934c-2.692-0.156-1.514-7.187,4.001-6.766c4.078,0.312,5.599,3.555,5.416,6.708
	c-0.169,2.919-1.896,9.312-13.541,8.637c-4.047-0.235-7.189-1.31-9.942-2.613c-0.249,11.31-1.133,23.949,3.856,23.949
	c2.828,0,5.234-2.73,6.878-5.313c0.286-5.875,2.776-11.204,7.093-11.204c10.6,0-0.9,22.179,7.164,22.179
	c2.752,0,5.356-1.622,7.713-3.765c-3.204-17.323-5.996-41.253,8.711-43.762c16.591-2.831,19.011,18.963,9.41,19.729
	c-4.942,0.391-5.026-6.312-3.409-6.475c3.254-0.327,3.459-11.175-4.088-9.665c-5.321,1.065-3.804,16.362-2.276,30.948
	c5.324-5.4,6.194-8.601,10.829-8.601c10.893,0,1.992,26.004,5.82,26.004c1.865,0,2.628-2.213,3.042-1.799
	c0.319,0.319-1.129,5.398-6.213,5.398c-10.337,0-4.318-26.821-9.503-21.637c-1.013,1.013-2.231,2.414-3.625,3.989
	c0.868,8.383,1.561,16.134,0.729,20.295c-0.931,4.658-4.712,6.011-6.521,6.254c-1.122,0.152-2.196-0.499-2.121-0.848
	c0.131-0.611,1.663,0.84,2.195-2.32c0.286-1.7-1.077-7.585-2.522-15.085c-3.823,3.165-8.168,5.615-12.804,5.615
	c-5.869,0-8.908-5.646-9.531-11.721c-1.653,2.875-4.521,5.417-9.5,5.417c-11.936,0-16.136-19.77-13.834-33.111
	c-0.505-0.078-1.024-0.132-1.56-0.158c-4.569-0.225-6.528,3.014-7.765,6.143c3.137,8.941,3.108,21.653-3.776,21.653
	c-6.547,0-2.108-23.29-5.509-23.29c-4.447,0-3.585,20.312-15.577,20.312c-2.466,0-3.92-1.367-4.719-3.61
	c-1.951,1.932-4.486,3.266-7.735,3.266c-13.56,0-15.959-27.949,0.944-27.949c3.155,0,5.59,1.02,7.165,3.003
	c0.864-8.752,1.144-16.603-3.639-17.424c-3.925-0.674-4.404,4.311-3.063,5.223c1.283,0.873,0.51,4.267-2.279,3.569
	c-2.033-0.508-2.747-2.846-2.168-4.994c1.265-4.691,6.052-7.692,11.641-6.751C106.41,61.321,93.689,98.594,98.719,98.594z
	 M90.043,82.095c-3.121-4.545-11.345-2.049-11.345,7.636c0,6.121,1.996,9.841,7.427,9.841c1.251,0,2.344-0.425,3.29-1.131
	C88.744,94.152,89.41,88.078,90.043,82.095z"/>
</svg>
