<?xml version="1.0" encoding="utf-8"?>
<!-- Generator: Adobe Illustrator 22.0.1, SVG Export Plug-In . SVG Version: 6.00 Build 0)  -->
<svg version="1.1" id="Layer_1" xmlns="http://www.w3.org/2000/svg" xmlns:xlink="http://www.w3.org/1999/xlink" x="0px" y="0px"
	 width="280px" height="200px" viewBox="0 0 280 200" enable-background="new 0 0 280 200" xml:space="preserve">
<path fill="#FFFFFF" d="M78.335,156.299l6.224-3.592c0.104-0.06,0.168-0.171,0.168-0.292v-15.53c0-0.12-0.064-0.232-0.169-0.292
	l-20.197-11.645c-0.104-0.06-0.232-0.06-0.336,0l-2.861,1.65v-3.3c0-0.12-0.064-0.231-0.169-0.292l-13.296-7.668V92.238
	c0-0.12-0.064-0.231-0.168-0.292L40.8,88.064c-0.104-0.06-0.232-0.06-0.336,0l-6.562,3.784l-3.03-1.747l-0.003-7.572
	c0-0.12-0.064-0.231-0.168-0.291l-6.732-3.883c-0.104-0.06-0.232-0.06-0.336,0l-13.465,7.765C10.064,86.18,10,86.291,10,86.411
	l0.003,7.767c0,0.12,0.064,0.231,0.168,0.291l6.561,3.787l0.012,38.696c0,0.121,0.065,0.232,0.169,0.292l13.453,7.701
	c0.104,0.06,0.232,0.059,0.335-0.001l2.861-1.653v3.302c0,0.12,0.064,0.232,0.168,0.292l6.735,3.881c0.104,0.06,0.232,0.06,0.336,0
	l6.225-3.59v7.182c0,0.12,0.064,0.232,0.168,0.292l6.735,3.881c0.104,0.06,0.232,0.06,0.336,0l2.861-1.65l-0.002,3.301
	c0,0.12,0.064,0.232,0.168,0.292l20.199,11.646c0.052,0.03,0.11,0.045,0.168,0.045c0.058,0,0.116-0.015,0.168-0.045l6.73-3.884
	c0.104-0.06,0.168-0.171,0.168-0.291l0.003-7.764c0-0.12-0.064-0.232-0.168-0.292L78.335,156.299z M33.563,92.432v3.494
	l-3.029,1.744l-6.058-3.494l6.058-3.491L33.563,92.432z M23.804,79.036l6.056,3.495l-6.059,3.491l-6.056-3.492L23.804,79.036z
	 M16.735,83.113l-0.002,6.601l-5.72-3.301L16.735,83.113z M30.197,144.068l-12.791-7.374V97.864l-6.73-3.881v-6.988l6.73,3.884
	v-7.766l6.061,3.493l-0.003,7.767l6.732,3.879v6.988l-6.732-3.883v31.838l6.735,3.884L30.197,144.068z M33.563,134.749l-3.03,1.747
	l-6.056-3.493l6.056-3.495l3.03,1.75V134.749z M33.563,130.478l-2.69-1.552l-0.003-22.908l2.696-1.552L33.563,130.478z
	 M30.87,105.244v-6.991l2.693-1.551l0.002,6.987L30.87,105.244z M64.195,125.629l19.523,11.259l-6.058,3.494l-19.523-11.259
	L64.195,125.629z M40.679,88.761l6.056,3.495l-6.059,3.491l-6.056-3.493L40.679,88.761z M53.76,157.657l-6.057-3.493l-0.003-23.294
	l-7.406-4.274v23.299l-6.059-3.497l0.003-53.578l6.056,3.495v23.293l13.467,7.767L53.76,157.657z M54.099,126.791l-12.791-7.377
	l6.056-3.495l12.793,7.378L54.099,126.791z M77.323,171.249l-19.521-11.261l-0.003-30.282l19.524,11.259v14.753l-13.465-7.768v8.546
	l13.465,7.765V171.249z M77.659,163.678l-12.791-7.377l6.061-3.496l12.788,7.378L77.659,163.678z M269.832,66.705l-6.564-3.785
	V32.053c0-0.12-0.064-0.231-0.168-0.292l-6.732-3.883c-0.105-0.06-0.232-0.06-0.337,0l-6.732,3.883
	c-0.104,0.06-0.168,0.171-0.168,0.292v18.83l-2.861-1.65c-0.105-0.06-0.232-0.06-0.337,0l-16.326,9.415v-7.183
	c0-0.12-0.064-0.231-0.168-0.292l-6.732-3.883c-0.105-0.06-0.232-0.06-0.337,0l-6.732,3.883c-0.104,0.06-0.168,0.171-0.168,0.292
	v7.765c0,0.12,0.064,0.231,0.168,0.292l6.227,3.591l-6.227,3.591c-0.104,0.06-0.168,0.171-0.168,0.292v3.3l-2.861-1.65
	c-0.105-0.06-0.232-0.06-0.337,0l-16.662,9.609l-6.058-3.494l6.227-3.591c0.104-0.06,0.168-0.171,0.168-0.292v-7.765
	c0-0.12-0.064-0.231-0.168-0.292l-6.732-3.883c-0.105-0.06-0.232-0.06-0.337,0l-13.465,7.765c-0.104,0.06-0.168,0.171-0.168,0.292
	v15.336l-3.029,1.747l-6.564-3.786c-0.105-0.06-0.232-0.06-0.337,0l-6.732,3.883c-0.104,0.06-0.168,0.171-0.168,0.292v3.3
	l-9.594-5.533c-0.104-0.06-0.232-0.06-0.337,0l-6.732,3.883c-0.104,0.06-0.168,0.171-0.168,0.292v7.571l-6.564,3.786
	c-0.104,0.06-0.168,0.171-0.168,0.292v7.765c0,0.12,0.064,0.231,0.168,0.292l6.564,3.785v3.106l-2.861-1.65
	c-0.104-0.06-0.232-0.06-0.337,0l-6.732,3.883c-0.051,0.03-0.094,0.072-0.123,0.123l-3.198,5.533l-3.075-1.773
	c-0.105-0.06-0.232-0.06-0.337,0l-6.732,3.883c-0.104,0.06-0.168,0.171-0.168,0.292v3.3l-2.861-1.65c-0.105-0.06-0.232-0.06-0.337,0
	l-20.197,11.648c-0.104,0.06-0.168,0.171-0.168,0.292v7.765c0,0.12,0.064,0.231,0.168,0.292l6.227,3.591l-6.227,3.591
	c-0.104,0.06-0.168,0.171-0.168,0.292v15.53c0,0.12,0.064,0.231,0.168,0.292l6.732,3.883c0.052,0.03,0.11,0.045,0.168,0.045
	c0.058,0,0.116-0.015,0.168-0.045l20.197-11.648c0.104-0.06,0.168-0.171,0.168-0.292v-3.3l2.861,1.65c0.104,0.06,0.232,0.06,0.337,0
	l6.732-3.883c0.104-0.06,0.168-0.171,0.168-0.292v-15.44l6.642-11.491l2.783-1.605v14.948c0,0.12,0.064,0.231,0.168,0.292
	l6.732,3.883c0.105,0.06,0.232,0.06,0.337,0l13.465-7.765c0.104-0.06,0.168-0.171,0.168-0.292v-3.3l2.861,1.65
	c0.105,0.06,0.232,0.06,0.337,0l6.732-3.883c0.104-0.06,0.168-0.171,0.168-0.292v-3.3l2.861,1.65c0.105,0.06,0.232,0.06,0.337,0
	l13.465-7.765c0.104-0.06,0.168-0.171,0.168-0.292V90.486l2.693-1.553v22.713c0,0.12,0.064,0.231,0.168,0.292l6.732,3.883
	c0.104,0.06,0.232,0.06,0.336,0l20.197-11.619c0.104-0.06,0.169-0.171,0.169-0.292v-3.328l2.861,1.65c0.104,0.06,0.232,0.06,0.337,0
	l6.732-3.883c0.104-0.06,0.168-0.171,0.168-0.292v-3.3l2.861,1.65c0.105,0.06,0.232,0.06,0.337,0l20.197-11.648
	c0.104-0.06,0.168-0.171,0.168-0.292v-3.3l2.861,1.65c0.104,0.06,0.232,0.06,0.337,0l13.465-7.765
	c0.104-0.06,0.168-0.171,0.168-0.292v-7.765C270,66.876,269.936,66.765,269.832,66.705z M194.935,78.644l-5.722,3.3v-6.6
	L194.935,78.644z M188.876,59.62l6.058,3.494l-12.791,7.377l-6.058-3.494L188.876,59.62z M172.382,84.662l3.03-1.747l6.058,3.494
	l-6.058,3.494l-3.03-1.747V84.662z M165.313,80.974l6.058,3.494l-6.058,3.494l-6.058-3.494L165.313,80.974z M171.709,85.051v6.988
	l-6.059,3.494v-6.988L171.709,85.051z M164.639,96.116l-2.356,1.359v-2.717L164.639,96.116z M155.552,86.992l5.722,3.3l-5.722,3.3
	V86.992z M148.483,82.915l6.058,3.494l-6.058,3.494l-6.058-3.494L148.483,82.915z M135.692,98.057l6.058-3.494l6.058,3.494
	l-6.058,3.494L135.692,98.057z M138.384,112.035l6.058,3.494l-6.058,3.494l-6.058-3.494L138.384,112.035z M95.298,136.883
	l19.523-11.259l6.058,3.494l-19.523,11.259L95.298,136.883z M101.357,155.908l-6.059-3.494l12.791-7.377l6.058,3.494
	L101.357,155.908z M121.217,159.984l-19.524,11.26v-14.753l13.465-7.765v-8.542l-13.465,7.765v-6.988l19.524-11.26V159.984z
	 M124.92,126.788l-6.058-3.494l6.058-3.494l6.058,3.494L124.92,126.788z M144.78,123.1l-6.642,3.831l-6.823,11.804v15.426
	l-6.059,3.495v-30.284l6.059-3.495v7.183l0.628,0.168l6.687-11.57l6.149-3.546V123.1z M161.611,136.689l-12.791,7.377V105.24
	l-6.732,3.883v-6.988l6.732-3.883v-7.765l6.059-3.494v7.765l6.732-3.883v6.988l-6.732,3.883v31.838l6.732-3.883V136.689z
	 M158.244,126.594l-2.693-1.553v-22.907l2.693-1.553V126.594z M161.273,129.118l-5.722,3.3v-6.6L161.273,129.118z M165.323,103.498
	l-6.069-3.5l6.058-3.494l6.059,3.495L165.323,103.498z M171.709,130.865l-6.059,3.494l0.01-30.278l6.049-3.499V130.865z
	 M165.987,96.116l2.692-1.553l6.396,3.689v15.141l-2.693,1.553V99.804L165.987,96.116z M175.412,120.964l-3.03-1.747v-3.494
	l3.03-1.747l6.058,3.494L175.412,120.964z M195.272,86.215l-6.732,3.883v31.061l-12.791,7.377v-6.988l6.732-3.883V93.592
	l-6.732,3.883v-6.988l6.732-3.883v-15.53l12.791-7.377v6.988l-6.732,3.883v8.542l6.732-3.883V86.215z M263.268,63.696l5.722,3.3
	l-5.722,3.3V63.696z M222.874,62.531v-6.988l6.059-3.495v6.988L222.874,62.531z M225.567,61.755v2.717l-2.356-1.359L225.567,61.755z
	 M216.479,51.466l6.058-3.494l6.058,3.494l-6.058,3.494L216.479,51.466z M198.975,84.079l-3.029-1.747v-3.494l16.494-9.512
	l6.058,3.494L198.975,84.079z M218.835,80.391l-13.464,7.765l0.014,16.315l13.45-7.772l-0.01,6.993l-19.513,11.253V84.662
	l19.524-11.26V80.391z M212.439,92.622l6.059,3.494l-12.443,7.19l-0.012-6.996L212.439,92.622z M206.044,95.533v-6.988l9.425-5.436
	v10.482l-3.03-1.747L206.044,95.533z M222.538,70.49l-6.058-3.494l6.058-3.494l6.058,3.494L222.538,70.49z M228.933,97.863
	l-6.059,3.494V71.073l6.059-3.495V97.863z M226.578,61.172L246.1,49.913l6.058,3.494l-19.523,11.259L226.578,61.172z M231.962,72.82
	l-2.356,1.359v-2.717L231.962,72.82z M232.636,80.197l-3.029-1.747v-3.494l9.762-5.63l6.058,3.494L232.636,80.197z M252.496,84.274
	l-19.524,11.259V80.78l13.465-7.765v-8.542l-13.465,7.765v-6.988l19.524-11.259V84.274z M256.199,35.547l-6.058-3.494l6.058-3.494
	l6.058,3.494L256.199,35.547z M269.327,74.567l-12.791,7.377V36.13l6.059-3.494v38.826l6.732-3.883V74.567z"/>
</svg>
