<?xml version="1.0" encoding="utf-8"?>
<!-- Generator: Adobe Illustrator 22.0.1, SVG Export Plug-In . SVG Version: 6.00 Build 0)  -->
<svg version="1.1" id="Layer_1" xmlns="http://www.w3.org/2000/svg" xmlns:xlink="http://www.w3.org/1999/xlink" x="0px" y="0px"
	 width="280px" height="200px" viewBox="0 0 280 200" enable-background="new 0 0 280 200" xml:space="preserve">
<path fill="#FFFFFF" d="M171.111,88.333h2.593v-1.296h-15.556v11.667h1.296V100h-1.296v12.963h12.963v-10.37l2.593-5.185h-2.593
	v-3.889h2.593V89.63h-2.593V88.333z M159.444,90.926h3.889v1.296h-3.889V90.926z M163.333,96.111h3.889v1.296h-3.889V96.111z
	 M171.111,100h-3.889v-1.296h3.889V100z M93.333,98.704h2.593V87.037H80.37v11.667h1.296V100H80.37v12.963h5.185v-2.593h5.185v2.593
	h5.185V100h-2.593V98.704z M81.667,94.815v-1.296h3.889v1.296H81.667z M89.444,97.407h-3.889v-1.296h3.889V97.407z M89.444,92.222
	v-1.296h3.889v1.296H89.444z M136.111,90.926h1.296v-3.889h-15.556v6.481h2.593v2.593h3.889v1.296h-3.889v15.556h10.37V97.407
	h-2.593v-1.296h2.593v-2.593h2.593v-1.296h-1.296V90.926z M132.222,102.593h-3.889v-1.296h3.889V102.593z M151.667,96.111h1.296
	v-9.074h-10.37v6.481h5.185v1.296h-5.185v18.148h10.37V97.407h-1.296V96.111z M151.667,100h-3.889v-1.296h3.889V100z
	 M186.667,90.926h2.593v-3.889h-10.37v9.074h3.889v1.296h-3.889v15.556h10.37V92.222h-2.593V90.926z M186.667,94.815h-3.889v-1.296
	h3.889V94.815z M221.667,93.519h3.889v-6.481h-10.37v11.667h2.593V100h-2.593v12.963h10.37V94.815h-3.889V93.519z M217.778,90.926
	h3.889v1.296h-3.889V90.926z M245,90.926h1.296v-3.889h-15.556v9.074h2.593v1.296h-2.593v15.556h5.185v-2.593h5.185v2.593h5.185
	V92.222H245V90.926z M233.333,92.222v-1.296h3.889v1.296H233.333z M241.111,100h-3.889v-1.296h3.889V100z M245,97.407h-3.889v-1.296
	H245V97.407z M260.556,98.704h3.889V87.037h-12.963v3.889h1.296v1.296h-1.296v20.741h15.556v-6.481h-2.593V100h-3.889V98.704z
	 M252.778,93.519h3.889v1.296h-3.889V93.519z M256.667,96.111h3.889v1.296h-3.889V96.111z M46.667,90.926h2.593v-3.889h-5.185v2.593
	h-5.185v-2.593h-5.185v11.667H35V100h-1.296v12.963h5.185v-2.593h5.185v2.593h5.185V92.222h-2.593V90.926z M38.889,97.407H35v-1.296
	h3.889V97.407z M38.889,90.926h3.889v1.296h-3.889V90.926z M46.667,94.815h-3.889v-1.296h3.889V94.815z M23.333,97.407h2.593v15.556
	h-10.37V100h7.778v-1.296h-7.778v-5.185h-2.593v-6.481h15.556v6.481h-2.593v2.593h-2.593V97.407z M207.407,94.815h-1.296v-1.296
	h1.296v-1.296H210v-5.185h-15.556v11.667h3.889V100h-3.889v12.963H210v-5.185h-2.593V94.815z M198.333,96.111h3.889v1.296h-3.889
	V96.111z M206.111,100h-3.889v-1.296h3.889V100z M70,97.407h-2.593v-5.185H70v-5.185H54.444v9.074h3.889v1.296h-3.889v15.556H70
	v-5.185h-2.593v-2.593h-5.185v-1.296h5.185v-1.296L70,97.407z M62.222,94.815h-3.889v-1.296h3.889V94.815z M112.778,98.704h3.889
	V87.037h-15.556v6.481H105v1.296h-3.889v18.148h5.185v-2.593h5.185v2.593h5.185v-5.185h-2.593l2.593-5.185V100h-3.889V98.704z
	 M105,89.63v-1.296h3.889v1.296H105z M108.889,94.815v-1.296h3.889v1.296H108.889z M3.889,98.704h3.889V100H3.889V98.704z
	 M11.667,92.222H7.778v-1.296h3.889V92.222z M15.556,98.704V100h-3.889v-1.296H15.556z M31.111,97.407h-5.185v-1.296h5.185V97.407z
	 M33.704,98.704V100h-2.593v-1.296H33.704z M50.556,92.222h-1.296v-1.296h1.296V92.222z M73.889,94.815H70v-1.296h3.889V94.815z
	 M80.37,98.704V100h-0.778h-1.815v-1.296h1.815H80.37z M95.926,98.704h1.296V100h-1.296V98.704z M116.667,98.704h3.889V100h-3.889
	V98.704z M134.815,97.407v-1.296h1.296v1.296H134.815z M142.593,93.519v1.296H140v-1.296H142.593z M158.148,98.704V100h-2.593
	v-1.296H158.148z M175,89.63h-1.296v-1.296H175V89.63z M190.556,92.222h-1.296v-1.296h1.296V92.222z M213.889,97.407H210v-1.296
	h3.889V97.407z M229.444,94.815h-3.889v-1.296h3.889V94.815z M251.481,90.926v1.296h-2.593h-2.593v-1.296h2.593H251.481z
	 M264.444,98.704h3.889V100h-3.889V98.704z M207.407,94.815v-1.296H210v1.296H207.407z M215.185,98.704V100h-1.296v-1.296H215.185z
	 M230.741,96.111v1.296h-1.296v-1.296H230.741z M272.222,92.222h-3.889v-1.296h3.889V92.222z M194.444,98.704V100h-3.889v-1.296
	H194.444z M178.889,96.111v1.296H175v-1.296H178.889z M155.556,97.407h-2.593v-1.296h2.593V97.407z M140,92.222h-2.593v-1.296H140
	V92.222z M124.444,96.111v1.296h-3.889v-1.296H124.444z M101.111,93.519v1.296h-3.889v-1.296H101.111z M77.778,97.407h-3.889v-1.296
	h3.889V97.407z M67.407,105.185v-1.296H70v1.296H67.407z M54.444,96.111v1.296h-3.889v-1.296H54.444z M0,101.296h3.889v1.296H0
	V101.296z M276.111,97.407h-3.889v-1.296h3.889V97.407z M280,101.296v1.296h-3.889v-1.296H280z"/>
</svg>
