<?xml version="1.0" encoding="utf-8"?>
<!-- Generator: Adobe Illustrator 22.0.1, SVG Export Plug-In . SVG Version: 6.00 Build 0)  -->
<svg version="1.1" id="Layer_1" xmlns="http://www.w3.org/2000/svg" xmlns:xlink="http://www.w3.org/1999/xlink" x="0px" y="0px"
	 width="280px" height="200px" viewBox="0 0 280 200" enable-background="new 0 0 280 200" xml:space="preserve">
<path fill="#FFFFFF" d="M77.662,172.166c-0.058,0-0.116-0.015-0.168-0.045l-20.199-11.646c-0.104-0.06-0.169-0.171-0.168-0.292
	l0.002-3.301l-2.861,1.65c-0.104,0.06-0.232,0.06-0.336,0l-6.735-3.881c-0.104-0.06-0.168-0.171-0.168-0.292v-7.182l-6.225,3.59
	c-0.104,0.06-0.232,0.06-0.336,0l-6.735-3.881c-0.104-0.06-0.168-0.171-0.168-0.292v-3.303l-2.861,1.653
	c-0.103,0.06-0.231,0.06-0.335,0.001l-13.453-7.701c-0.105-0.06-0.169-0.171-0.169-0.292l-0.012-38.696l-6.561-3.787
	c-0.104-0.06-0.168-0.171-0.168-0.291L10,86.411c0-0.12,0.064-0.232,0.168-0.292l13.465-7.765c0.104-0.06,0.232-0.06,0.336,0
	l6.732,3.883c0.104,0.06,0.168,0.171,0.168,0.291l0.003,7.572l3.03,1.747l6.561-3.784c0.104-0.06,0.232-0.06,0.336,0l6.732,3.883
	c0.104,0.06,0.168,0.171,0.168,0.292v23.101l13.296,7.668c0.104,0.06,0.168,0.171,0.168,0.292v3.3l2.861-1.65
	c0.104-0.06,0.232-0.06,0.336,0l20.197,11.645c0.105,0.06,0.169,0.171,0.169,0.292v15.53c0,0.12-0.064,0.231-0.168,0.292
	l-6.224,3.592l6.227,3.591c0.104,0.06,0.168,0.171,0.168,0.292l-0.003,7.764c0,0.12-0.064,0.231-0.168,0.291l-6.73,3.884
	C77.778,172.151,77.72,172.166,77.662,172.166z M33.563,130.478l0.003-26.012l-2.696,1.552l0.003,22.908L33.563,130.478z
	 M30.197,144.068l0.002-6.987l-6.735-3.884v-31.838l6.732,3.883v-6.988l-6.732-3.879l0.003-7.767l-6.062-3.493v7.766l-6.73-3.884
	v6.988l6.73,3.881v38.829L30.197,144.068z M53.76,157.657l0.002-30.282l-13.467-7.767V96.315l-6.056-3.495l-0.003,53.578
	l6.059,3.497v-23.299l7.405,4.274l0.003,23.294L53.76,157.657z M23.801,86.022l6.059-3.491l-6.056-3.495l-6.059,3.494L23.801,86.022
	z M40.676,95.747l6.059-3.491l-6.056-3.495l-6.059,3.494L40.676,95.747z M16.732,89.714l0.002-6.601l-5.722,3.3L16.732,89.714z
	 M30.534,97.67l3.029-1.744v-3.494l-3.03-1.747l-6.058,3.491L30.534,97.67z M30.533,136.496l3.03-1.747v-3.491l-3.03-1.75
	l-6.056,3.495L30.533,136.496z M77.659,140.382l6.058-3.494l-19.523-11.259l-6.059,3.494L77.659,140.382z M77.323,171.249v-6.988
	l-13.465-7.765v-8.546l13.465,7.768v-14.753l-19.524-11.259l0.003,30.282L77.323,171.249z M77.659,163.678l6.059-3.494
	l-12.788-7.378l-6.061,3.496L77.659,163.678z M54.099,126.791l6.059-3.494l-12.793-7.378l-6.056,3.495L54.099,126.791z
	 M101.357,172.163c-0.058,0-0.116-0.015-0.168-0.045l-6.732-3.883c-0.104-0.06-0.168-0.171-0.168-0.292v-15.53
	c0-0.12,0.064-0.231,0.168-0.292l6.227-3.591l-6.227-3.591c-0.104-0.06-0.168-0.171-0.168-0.292v-7.765
	c0-0.12,0.064-0.231,0.168-0.292l20.197-11.648c0.105-0.06,0.232-0.06,0.337,0l2.861,1.65v-3.3c0-0.12,0.064-0.231,0.168-0.292
	l6.732-3.883c0.105-0.06,0.232-0.06,0.337,0l3.075,1.773l3.198-5.533c0.03-0.051,0.072-0.094,0.123-0.123l6.732-3.883
	c0.105-0.06,0.232-0.06,0.337,0l2.861,1.65v-3.106l-6.564-3.785c-0.104-0.06-0.168-0.171-0.168-0.292v-7.765
	c0-0.12,0.064-0.231,0.168-0.292l6.564-3.786v-7.571c0-0.12,0.064-0.231,0.168-0.292l6.732-3.883c0.105-0.06,0.232-0.06,0.337,0
	l9.593,5.533v-3.3c0-0.12,0.064-0.231,0.168-0.292l6.732-3.883c0.105-0.06,0.232-0.06,0.337,0l6.564,3.786l3.03-1.747V66.996
	c0-0.12,0.064-0.231,0.168-0.292l13.465-7.765c0.105-0.06,0.232-0.06,0.337,0l6.732,3.883c0.104,0.06,0.168,0.171,0.168,0.292v7.765
	c0,0.12-0.064,0.231-0.168,0.292l-6.227,3.591l6.058,3.494l16.662-9.609c0.105-0.06,0.232-0.06,0.337,0l2.861,1.65v-3.3
	c0-0.12,0.064-0.231,0.168-0.292l6.227-3.591l-6.227-3.591c-0.104-0.06-0.168-0.171-0.168-0.292v-7.765
	c0-0.12,0.064-0.231,0.168-0.292l6.732-3.883c0.105-0.06,0.232-0.06,0.337,0l6.732,3.883c0.104,0.06,0.168,0.171,0.168,0.292v7.183
	l16.326-9.415c0.105-0.06,0.232-0.06,0.337,0l2.861,1.65v-18.83c0-0.12,0.064-0.231,0.168-0.292l6.732-3.883
	c0.105-0.06,0.232-0.06,0.337,0l6.732,3.883c0.104,0.06,0.168,0.171,0.168,0.292v30.866l6.564,3.785
	c0.104,0.06,0.168,0.171,0.168,0.292v7.765c0,0.12-0.064,0.231-0.168,0.292l-13.465,7.765c-0.105,0.06-0.232,0.06-0.337,0
	l-2.861-1.65v3.3c0,0.12-0.064,0.231-0.168,0.292l-20.197,11.648c-0.105,0.06-0.232,0.06-0.337,0l-2.861-1.65v3.3
	c0,0.12-0.064,0.231-0.168,0.292l-6.732,3.883c-0.105,0.06-0.232,0.06-0.337,0l-2.861-1.65v3.328c0,0.12-0.064,0.232-0.169,0.292
	l-20.197,11.619c-0.105,0.06-0.232,0.06-0.336,0l-6.732-3.883c-0.104-0.06-0.168-0.171-0.168-0.292V88.933l-2.693,1.553v30.866
	c0,0.12-0.064,0.231-0.168,0.292l-13.465,7.765c-0.105,0.06-0.232,0.06-0.337,0l-2.861-1.65v3.3c0,0.12-0.064,0.231-0.168,0.292
	l-6.732,3.883c-0.105,0.06-0.232,0.06-0.337,0l-2.861-1.65v3.3c0,0.12-0.064,0.231-0.168,0.292l-13.465,7.765
	c-0.105,0.06-0.232,0.06-0.337,0l-6.732-3.883c-0.104-0.06-0.168-0.171-0.168-0.292v-14.948l-2.783,1.605l-6.642,11.491v15.44
	c0,0.12-0.064,0.231-0.168,0.292l-6.732,3.883c-0.105,0.06-0.232,0.06-0.337,0l-2.861-1.65v3.3c0,0.12-0.064,0.231-0.168,0.292
	l-20.197,11.648C101.473,172.148,101.415,172.163,101.357,172.163z M101.693,171.244l19.524-11.26v-30.284l-19.524,11.26v6.988
	l13.465-7.765v8.542l-13.465,7.765V171.244z M101.357,155.908l12.791-7.377l-6.058-3.494l-12.791,7.377L101.357,155.908z
	 M101.357,140.377l19.523-11.259l-6.058-3.494l-19.523,11.259L101.357,140.377z M124.92,126.788l6.058-3.494l-6.058-3.494
	l-6.058,3.494L124.92,126.788z M138.384,119.023l6.058-3.494l-6.058-3.494l-6.058,3.494L138.384,119.023z M141.75,101.551
	l6.058-3.494l-6.058-3.494l-6.058,3.494L141.75,101.551z M148.483,89.903l6.058-3.494l-6.058-3.494l-6.058,3.494L148.483,89.903z
	 M155.552,93.592l5.722-3.3l-5.722-3.3V93.592z M165.313,87.962l6.058-3.494l-6.058-3.494l-6.058,3.494L165.313,87.962z
	 M165.324,103.498l6.049-3.499l-6.059-3.495l-6.058,3.494L165.324,103.498z M155.552,132.418l5.722-3.3l-5.722-3.3V132.418z
	 M175.412,120.964l6.058-3.494l-6.058-3.494l-3.03,1.747v3.494L175.412,120.964z M175.412,89.903l6.058-3.494l-6.058-3.494
	l-3.03,1.747v3.494L175.412,89.903z M189.213,81.944l5.722-3.3l-5.722-3.3V81.944z M182.144,70.49l12.791-7.377l-6.058-3.494
	l-12.791,7.377L182.144,70.49z M198.975,84.079l19.523-11.259l-6.058-3.494l-16.494,9.512v3.494L198.975,84.079z M206.056,103.306
	l12.443-7.19l-6.059-3.494l-6.395,3.688L206.056,103.306z M222.538,70.49l6.058-3.494l-6.058-3.494l-6.058,3.494L222.538,70.49z
	 M222.538,54.96l6.058-3.494l-6.058-3.494l-6.058,3.494L222.538,54.96z M232.636,64.666l19.523-11.259l-6.058-3.494l-19.523,11.259
	L232.636,64.666z M232.636,80.197l12.791-7.377l-6.058-3.494l-9.762,5.63v3.494L232.636,80.197z M256.199,35.547l6.058-3.494
	l-6.058-3.494l-6.058,3.494L256.199,35.547z M263.268,70.296l5.722-3.3l-5.722-3.3V70.296z M125.256,157.655l6.059-3.495v-15.426
	l6.823-11.804l6.642-3.831v-6.988l-6.149,3.546l-6.687,11.57l-0.628-0.168v-7.183l-6.059,3.494V157.655z M148.819,144.066
	l12.791-7.377v-6.988l-6.732,3.883v-31.838l6.732-3.883v-6.988l-6.732,3.883v-7.765l-6.059,3.494v7.765l-6.732,3.883v6.988
	l6.732-3.883V144.066z M165.65,95.533l6.059-3.494v-6.988l-6.059,3.494V95.533z M165.65,134.359l6.059-3.494v-30.283l-6.049,3.499
	L165.65,134.359z M175.748,128.535l12.791-7.377V90.097l6.732-3.883v-6.988l-6.732,3.883v-8.542l6.732-3.883v-6.988l-12.791,7.377
	v15.53l-6.732,3.883v6.988l6.732-3.883v24.073l-6.732,3.883V128.535z M199.311,114.946l19.513-11.253l0.01-6.993l-13.45,7.772
	l-0.014-16.315l13.465-7.765v-6.988l-19.524,11.26V114.946z M222.874,101.357l6.059-3.494V67.579l-6.059,3.494V101.357z
	 M222.874,62.531l6.059-3.494v-6.988l-6.059,3.494V62.531z M232.973,95.533l19.524-11.259V53.99l-19.524,11.259v6.988l13.465-7.765
	v8.542l-13.465,7.765V95.533z M256.535,81.944l12.791-7.377v-6.988l-6.732,3.883V32.636l-6.059,3.494V81.944z M158.244,126.594
	v-26.013l-2.693,1.553v22.907L158.244,126.594z M172.382,114.946l2.693-1.553V98.252l-6.396-3.689l-2.692,1.553l6.395,3.688V114.946
	z M206.044,95.533l6.396-3.688l3.03,1.747V83.109l-9.425,5.436V95.533z M225.567,64.472v-2.717l-2.356,1.359L225.567,64.472z
	 M229.606,74.179l2.356-1.359l-2.356-1.359V74.179z M162.284,97.474l2.356-1.359l-2.356-1.359V97.474z"/>
</svg>
