<?xml version="1.0" encoding="utf-8"?>
<!-- Generator: Adobe Illustrator 21.0.0, SVG Export Plug-In . SVG Version: 6.00 Build 0)  -->
<svg version="1.1" xmlns="http://www.w3.org/2000/svg" xmlns:xlink="http://www.w3.org/1999/xlink" x="0px" y="0px" width="280px"
	 height="200px" viewBox="0 0 280 200" style="enable-background:new 0 0 280 200;" xml:space="preserve">
<style type="text/css">
	.st0{fill:#FFFFFF;}
	.st1{opacity:0.2;fill:#FFFFFF;}
</style>
<g id="Layer_1">
</g>
<g id="Layer_2">
	<g>
		<g>
			<path class="st0" d="M116,85.8c-0.7,1.1-1.8,1.9-3.2,2.1c0.3,1.5,1.6,2.6,3.2,2.6s2.9-1.1,3.2-2.6
				C117.8,87.7,116.7,86.9,116,85.8z"/>
			<path class="st0" d="M116,77.8c-0.7,1.1-1.8,1.9-3.2,2.1c0.3,1.5,1.6,2.6,3.2,2.6s2.9-1.1,3.2-2.6
				C117.8,79.7,116.7,78.9,116,77.8z"/>
			<path class="st0" d="M124,77.8c-0.7,1.1-1.8,1.9-3.2,2.1c0.3,1.5,1.6,2.6,3.2,2.6s2.9-1.1,3.2-2.6
				C125.8,79.7,124.7,78.9,124,77.8z"/>
			<path class="st0" d="M120,81.8c-0.7,1.1-1.8,1.9-3.2,2.1c0.3,1.5,1.6,2.6,3.2,2.6s2.9-1.1,3.2-2.6
				C121.8,83.7,120.7,82.9,120,81.8z"/>
			<path class="st0" d="M108,90.5c1.6,0,2.9-1.1,3.2-2.6c-1.3-0.2-2.4-1-3.1-2.1l-2,4C106.6,90.3,107.3,90.5,108,90.5z"/>
			<path class="st0" d="M123.2,92c-1.3-0.2-2.5-1-3.2-2.1c-0.7,1.1-1.8,1.9-3.2,2.1c0.3,1.5,1.6,2.6,3.2,2.6S122.9,93.4,123.2,92z"
				/>
			<path class="st0" d="M112,94.5c1.6,0,2.9-1.1,3.2-2.6c-1.3-0.2-2.5-1-3.2-2.1c-0.7,1.1-1.8,1.9-3.2,2.1
				C109.1,93.4,110.4,94.5,112,94.5z"/>
			<path class="st0" d="M128,81.8c-0.7,1.1-1.8,1.9-3.2,2.1c0.3,1.5,1.6,2.6,3.2,2.6c1.5,0,2.7-1,3.1-2.3l-0.2-0.3
				C129.7,83.6,128.7,82.9,128,81.8z"/>
			<path class="st0" d="M124,85.8c-0.7,1.1-1.8,1.9-3.2,2.1c0.3,1.5,1.6,2.6,3.2,2.6s2.9-1.1,3.2-2.6
				C125.8,87.7,124.7,86.9,124,85.8z"/>
			<path class="st0" d="M112,78.5c1.6,0,2.9-1.1,3.2-2.6c-0.6-0.1-1.3-0.4-1.8-0.7l-1.6,3.2C111.8,78.5,111.9,78.5,112,78.5z"/>
			<path class="st0" d="M116,74.5c1.6,0,2.9-1.1,3.2-2.6c-1.3-0.2-2.4-1-3.1-2.1l-2,4C114.6,74.3,115.3,74.5,116,74.5z"/>
			<path class="st0" d="M103.2,96c0,0-0.1,0-0.1,0l-0.9,1.8C102.7,97.3,103,96.7,103.2,96z"/>
			<path class="st0" d="M124,74.5c0.7,0,1.4-0.3,1.9-0.7l-2-4c-0.7,1.1-1.8,1.8-3.1,2.1C121.1,73.4,122.4,74.5,124,74.5z"/>
			<path class="st0" d="M124,98.5c1.6,0,2.9-1.1,3.2-2.6c-1.3-0.2-2.5-1-3.2-2.1c-0.7,1.1-1.8,1.9-3.2,2.1
				C121.1,97.4,122.4,98.5,124,98.5z"/>
			<path class="st0" d="M128,78.5c0.1,0,0.2,0,0.3,0l-1.6-3.3c-0.5,0.4-1.1,0.6-1.8,0.7C125.1,77.4,126.4,78.5,128,78.5z"/>
			<path class="st0" d="M112,86.5c1.6,0,2.9-1.1,3.2-2.6c-1.3-0.2-2.5-1-3.2-2.1c-0.7,1-1.7,1.8-3,2.1l-0.2,0.3
				C109.3,85.6,110.5,86.5,112,86.5z"/>
			<path class="st0" d="M116,98.5c1.6,0,2.9-1.1,3.2-2.6c-1.3-0.2-2.5-1-3.2-2.1c-0.7,1.1-1.8,1.9-3.2,2.1
				C113.1,97.4,114.4,98.5,116,98.5z"/>
			<path class="st0" d="M136.3,94.5l-1.6-3.3c-0.5,0.4-1.1,0.6-1.8,0.7c0.3,1.5,1.6,2.6,3.2,2.6C136.1,94.5,136.2,94.5,136.3,94.5z"
				/>
			<path class="st0" d="M137.9,97.7l-0.9-1.8c0,0-0.1,0-0.1,0C137,96.7,137.3,97.3,137.9,97.7z"/>
			<path class="st0" d="M120,97.8c-0.7,1.1-1.9,2-3.3,2.2h6.7C121.9,99.8,120.7,99,120,97.8z"/>
			<path class="st0" d="M128,97.8c-0.7,1.1-1.9,2-3.3,2.2h6.7C129.9,99.8,128.7,99,128,97.8z"/>
			<path class="st0" d="M135.2,96c-1.3-0.2-2.5-1-3.2-2.1c-0.7,1.1-1.8,1.9-3.2,2.1c0.3,1.5,1.6,2.6,3.2,2.6S134.9,97.4,135.2,96z"
				/>
			<path class="st0" d="M136,97.8c-0.7,1.1-1.9,2-3.3,2.2h6.3l0-0.1C137.7,99.6,136.7,98.9,136,97.8z"/>
			<path class="st0" d="M104,97.8c-0.7,1-1.7,1.8-3,2.1l0,0.1h6.3C105.9,99.8,104.7,99,104,97.8z"/>
			<path class="st0" d="M120,70.5c1.5,0,2.7-1,3.1-2.3L120,62l-3.1,6.2C117.3,69.6,118.5,70.5,120,70.5z"/>
			<path class="st0" d="M112,97.8c-0.7,1.1-1.9,2-3.3,2.2h6.7C113.9,99.8,112.7,99,112,97.8z"/>
			<path class="st0" d="M129.9,81.7l-0.9-1.8c0,0-0.1,0-0.1,0C129,80.7,129.3,81.3,129.9,81.7z"/>
			<path class="st0" d="M133.9,89.9l-2-4c-0.7,1.1-1.8,1.8-3.1,2.1c0.3,1.5,1.6,2.6,3.2,2.6C132.7,90.5,133.4,90.3,133.9,89.9z"/>
			<path class="st0" d="M120,73.8c-0.7,1.1-1.8,1.9-3.2,2.1c0.3,1.5,1.6,2.6,3.2,2.6s2.9-1.1,3.2-2.6
				C121.8,75.7,120.7,74.9,120,73.8z"/>
			<path class="st0" d="M131.2,92c-1.3-0.2-2.5-1-3.2-2.1c-0.7,1.1-1.8,1.9-3.2,2.1c0.3,1.5,1.6,2.6,3.2,2.6S130.9,93.4,131.2,92z"
				/>
			<path class="st0" d="M111.2,80c0,0-0.1,0-0.1,0l-0.9,1.8C110.7,81.3,111,80.7,111.2,80z"/>
			<path class="st0" d="M108,98.5c1.6,0,2.9-1.1,3.2-2.6c-1.3-0.2-2.5-1-3.2-2.1c-0.7,1.1-1.8,1.9-3.2,2.1
				C105.1,97.4,106.4,98.5,108,98.5z"/>
			<path class="st0" d="M104,94.5c1.6,0,2.9-1.1,3.2-2.6c-0.7-0.1-1.3-0.4-1.8-0.7l-1.6,3.3C103.8,94.5,103.9,94.5,104,94.5z"/>
		</g>
		<g>
			<path class="st0" d="M204.8,100h7.4l-3.9-7.5c-1.3-0.3-2.5-1-3.4-2c-1,1.1-2.4,1.8-3.8,2.1L204.8,100L204.8,100z"/>
			<path class="st0" d="M189.9,91.2c1.8,0,3.4-0.9,4.4-2.4l0.6-0.9l0.6,0.9c1,1.5,2.6,2.4,4.4,2.4c1.8,0,3.4-0.9,4.4-2.4l0.6-0.9
				l0.6,0.9c1,1.5,2.6,2.4,4.4,2.4c1.5,0,2.9-0.7,3.8-1.7l-8.6-17.3c-1.2,1.5-3.1,2.5-5.2,2.5c-2,0-3.8-0.9-5.1-2.3l-8.6,17.3
				C187.1,90.6,188.5,91.2,189.9,91.2z"/>
			<path class="st0" d="M199.9,73.2c1.9,0,3.5-1,4.4-2.5L200,62l-4.4,8.9C196.5,72.2,198.1,73.2,199.9,73.2z"/>
			<path class="st0" d="M199.4,92.6c-1.7-0.1-3.4-0.9-4.5-2.2c-1.3,1.4-3.1,2.2-5,2.2c-1.7,0-3.2-0.6-4.4-1.6l-4.5,9h22.2
				L199.4,92.6z"/>
			<path class="st0" d="M219,100l-4.6-9.1c-1.1,1-2.7,1.7-4.3,1.8l3.7,7.3l-0.1,0.1H219z"/>
		</g>
		<g>
			<polygon class="st0" points="148.9,84.3 171.1,84.3 169.4,80.8 150.6,80.8 			"/>
			<polygon class="st0" points="174.4,90.8 145.6,90.8 141,100 179,100 			"/>
			<polygon class="st0" points="146.4,89.3 173.6,89.3 171.9,85.8 148.1,85.8 			"/>
			<path class="st0" d="M159.9,73.2c1.9,0,3.5-1,4.4-2.5L160,62l-4.4,8.9C156.5,72.2,158.1,73.2,159.9,73.2z"/>
			<path class="st0" d="M168.6,79.3l-3.5-7c-1.2,1.5-3.1,2.5-5.2,2.5c-2,0-3.8-0.9-5.1-2.3l-3.5,6.9H168.6z"/>
		</g>
		<g>
			<polygon class="st0" points="35.9,100 35.8,100 43.3,85.2 40.1,78.9 29.5,100 			"/>
			<polygon class="st0" points="37.4,78.7 37.4,78.7 37.4,78.7 			"/>
			<path class="st0" d="M33.9,78.1c2.9,0,5.2-2.4,5.2-5.2h1.5c0,0,0,0,0,0h0c0,2.9,2.4,5.2,5.2,5.2c0.7,0,1.4-0.1,2-0.4L40,62
				l-7.9,15.8C32.7,78,33.3,78.1,33.9,78.1z"/>
			<path class="st0" d="M27.8,100l7.5-14.8l-2.9-5.7c-0.3-0.1-0.6-0.2-0.9-0.3L21,100L27.8,100L27.8,100z"/>
			<path class="st0" d="M48.5,79.1c-0.2,0.1-0.4,0.2-0.6,0.3L37.5,100H59L48.5,79.1z"/>
		</g>
		<g>
			<path class="st0" d="M78.9,88.3c-2.2,3.8-6.3,6.4-11,6.4c-1.4,0-2.7-0.2-3.9-0.6l-3,6h5.9C73,99.1,77.9,94.4,78.9,88.3z"/>
			<path class="st0" d="M67.9,93.2c6.2,0,11.2-5,11.2-11.2h1.5c0,6.2,5,11.2,11.2,11.2c1.2,0,2.3-0.2,3.4-0.5L80,62L64.7,92.7
				C65.7,93,66.8,93.2,67.9,93.2z"/>
			<path class="st0" d="M91.9,94.7c-4.7,0-8.8-2.6-11-6.4c1,6.1,5.9,10.9,12.1,11.7H99l-3-6C94.7,94.4,93.3,94.7,91.9,94.7z"/>
		</g>
		<g>
			<path class="st0" d="M227.9,93.2c6.2,0,11.2-5,11.2-11.2h1.5c0,6.2,5,11.2,11.2,11.2c1.2,0,2.3-0.2,3.4-0.5L240,62l-15.3,30.7
				C225.7,93,226.8,93.2,227.9,93.2z"/>
			<path class="st0" d="M235.8,100l3.1-6.1l-1.7-3.3c-2.3,2.5-5.6,4.1-9.3,4.1c-1.4,0-2.7-0.2-3.9-0.6l-3,6L235.8,100L235.8,100z"/>
			<path class="st0" d="M251.9,94.7c-3.8,0-7.2-1.7-9.5-4.3l-4.9,9.6H259l-3-6C254.7,94.4,253.3,94.7,251.9,94.7z"/>
		</g>
		<polygon class="st1" points="221,100 240,138 259,100 		"/>
		<polygon class="st1" points="181,100 200,138 219,100 		"/>
		<polygon class="st1" points="141,100 160,138 179,100 		"/>
		<polygon class="st1" points="101,100 120,138 139,100 		"/>
		<polygon class="st1" points="61,100 80,138 99,100 		"/>
		<polygon class="st1" points="21,100 40,138 59,100 		"/>
		<path class="st0" d="M79.5,130.9H68.6l-2.6,6.3h-1.9l9.2-21.5h1.5l9.2,21.5h-1.9L79.5,130.9z M78.8,129.4l-3.8-9.1
			c-0.4-1.1-0.9-2.5-0.9-2.5l0,0c0,0-0.5,1.4-0.9,2.5l-3.8,9.1H78.8z"/>
		<path class="st0" d="M99.5,137.2l-4.9-8.4c-0.4,0.1-0.9,0.1-1.4,0.1H89v8.3h-1.7v-21.5h5.9c4.7,0,7.6,2.5,7.6,6.6
			c0,3.1-1.7,5.3-4.5,6.1l5.1,8.7L99.5,137.2L99.5,137.2z M93.3,127.4c3.7,0,5.7-2.1,5.7-5c0-3.2-2.2-4.9-5.7-4.9H89v9.9H93.3z"/>
		<path class="st0" d="M118.9,115.7v1.7h-7.1v19.8h-1.7v-19.8h-7v-1.7H118.9L118.9,115.7z"/>
		<path class="st0" d="M122.6,137.2v-21.5h1.7v21.5H122.6z"/>
		<path class="st0" d="M131.7,117.4v8.1h9.2v1.6h-9.2v10.1H130v-21.5h13.1v1.7L131.7,117.4L131.7,117.4z"/>
		<path class="st0" d="M147,137.2v-21.5h1.7v21.5H147z"/>
		<path class="st0" d="M171.1,121.4c-1.5-2.7-4.4-4.4-7.7-4.4c-5.1,0-9,3.8-9,9.5c0,5.6,3.9,9.4,9,9.4c3.5,0,6.5-2,8-5l1.7,0.5
			c-1.7,3.8-5.4,6.2-9.7,6.2c-5.9,0-10.7-4.7-10.7-11.2s4.8-11.2,10.7-11.2c4,0,7.5,2.2,9.4,5.6L171.1,121.4z"/>
		<path class="st0" d="M176.5,137.2v-21.5h1.7v21.5H176.5z"/>
		<path class="st0" d="M196.9,130.9H186l-2.6,6.3h-1.9l9.2-21.5h1.5l9.2,21.5h-1.9L196.9,130.9z M196.2,129.4l-3.8-9.1
			c-0.4-1.1-0.9-2.5-0.9-2.5l0,0c0,0-0.5,1.4-0.9,2.5l-3.8,9.1H196.2z"/>
		<path class="st0" d="M217.8,135.6v1.7h-13.1v-21.5h1.7v19.8H217.8L217.8,135.6z"/>
		<g>
			<g>
				<path class="st0" d="M50.1,115.7v0.6h-2v5.1h-0.7v-5.1h-1.9v-0.6H50.1z"/>
			</g>
			<g>
				<path class="st0" d="M55.5,115.7v5.7h-0.7v-2.7h-3.1v2.7H51v-5.7h0.7v2.5h3.1v-2.5H55.5z"/>
			</g>
			<g>
				<path class="st0" d="M60.9,120.7v0.6H57v-5.7h3.8v0.6h-3.2v1.8h2.5v0.6h-2.5v2.1H60.9L60.9,120.7z"/>
			</g>
		</g>
	</g>
</g>
</svg>
