<?xml version="1.0" encoding="utf-8"?>
<!-- Generator: Adobe Illustrator 21.1.0, SVG Export Plug-In . SVG Version: 6.00 Build 0)  -->
<svg version="1.1" id="Layer_1" xmlns="http://www.w3.org/2000/svg" xmlns:xlink="http://www.w3.org/1999/xlink" x="0px" y="0px"
	 width="280px" height="200px" viewBox="0 0 280 200" style="enable-background:new 0 0 280 200;" xml:space="preserve">
<style type="text/css">
	.st0{fill:#FFFFFF;}
</style>
<path class="st0" d="M58.5,73.6c0,0.9,5.2,29,10.3,53.9c4.2,20.6,6.4,32.4,7.5,41.1c-4.6-1.5-7.7-3.9-10.2-5.9
	c-1.4-6.4-2.9-14.1-3.8-18.3c-2.9-2-6.1-3.3-10.4-7.9c0,2.3-0.9,11.8-1.1,15.7c-1.5-1.9-8.8-7.3-10.7-9.3c0.2-2.1,5.6-48.8,7.9-78.4
	C50.3,67.2,55.2,71.2,58.5,73.6z M54,93.8c-0.3,10.4-1.4,30.2-1.5,32.3c0.6,0.8,4.5,4.6,7.5,5.8c-0.3-2.6-4.6-30.9-5.3-37.4
	C54.3,94.2,54.4,94.2,54,93.8z M91,85.6c11.7,1.8,12.4,14.4,12.4,15.9c0,1.5,0.1,15.2,0.1,17.5c0,3.5-2.6,10-6.3,11.4
	c5.4,2.8,6.7,8.7,6.7,10.2s0.4,15.1,0.2,19.1c-0.2,4,1.3,7.2,2.5,8.4c0,1,0,2,0,3.4c-2.8,1.2-5.7,1.6-8,0.5
	c-2.3-1.1-3.3-4.3-3.6-7.5c-0.2-1.8-0.5-13.8-0.7-20.8c-0.2-5.5-1.5-8.2-4.5-8.1c-1.7,0.1-3.5-0.4-4-0.4c0,0.8,2.4,36.8,1.7,36.8
	c-2.8,0-4.8-0.5-7.4-1.8c-2.8-43.3-5.2-68.8-7.2-89.8C77.1,82.9,82.4,84.3,91,85.6z M83.7,96.8c0.2,5.5,1.6,26.9,1.6,27.4
	c1.5,0.2,3.4,0.6,4.9,0.7c0.7,0,2.8-1,2.8-4.4c0-3.2-0.7-17.2-0.7-18.2c0-1-0.7-4.9-4-4.9C85.9,97.5,85.1,97.3,83.7,96.8z
	 M107.2,85.6c0,1.6,0,11.9,0,12.3c3.4-0.6,7.6-2.1,11.6-5.8c0.1,3.4-2.5,74.5-2.5,75c2.9-1.2,4.3-4.9,7.4-6.8
	c0.1-1.3,3.3-67.6,3.6-75.2c1.3-1.1,3-3.3,4.2-4.9c0-1.5-0.1-11.7,0-12.7C126.5,73.7,116.2,84.1,107.2,85.6z M134.9,65.6
	c-0.1,5.9-3,85.7-3.5,88.1c1.6-1.6,3.5-3.2,5.9-4.5c0-0.6,1.5-61.7,2.5-86.2C138.1,62.8,136.5,65.1,134.9,65.6z M143.4,62
	c-0.7,19.4-2.3,79.6-2.4,85.7c0.6-0.3,3.8-2.2,6.5-1.6c-0.1-1.7-0.1-35.3-0.1-36.5c1.1-0.3,3.7,1.3,5.7,2.5
	c-0.1-1.4-0.3-9.4-0.5-11.9c-0.8-1.1-3.5-2.1-5.4-2.3c0-1.8-0.1-23.8-0.1-24.6c2,0.2,4.9,2.4,6.3,2.4c0-0.6-0.4-10.4-0.4-11.5
	C149.9,62.7,147.2,61.4,143.4,62z M156.5,64.7c0.3,23.8,3.5,77.8,5,84.4c3.3,1.9,7,3.7,11.1,3.9c-4-10.3-11.3-61-12.5-88.3
	C158.7,64.9,157.7,64.9,156.5,64.7z M164.8,85c2,19.2,6.6,42.1,7.8,47.8c1.5,7.5,6.5,19.6,16.3,21.5c6.3,1.2,14.8-0.7,15.3-8.7
	c0.2-4-0.5-8.1-1.2-11.5c-1-4.7-1.5-8.6-4.9-18.7c-1.8,0.7-5.1,0.7-7.7,2.4c0.6,1.3,4.9,12.8,5.3,13.7c0.6,1.8,1.8,6.5-1.6,7.6
	c-3.4,1.1-7.8,0.3-10.4-6.1c-2.8-6.7-8.4-27.7-10.8-41.9c-1.1-6.2-3.6-15.8,0.8-16.5c4.4-0.7,5.3,4.9,5.7,7.2
	c0.4,2.3,2.4,11.4,2.7,12c0.3,0.5,6.9-2.8,7.3-3.6c0.4-0.8-5.4-16.6-7.1-19.7c-1.8-3.1-4.8-8.4-10.5-7.8
	C165.3,63.4,163.4,72,164.8,85z M209.8,153.7c1.1,0.3,2.6,0.4,4.2,0.3c-0.6-2.2-14.2-86.6-21.6-99.9c-4.5,1.6-6.5,4.1-7.8,5.6
	C195.2,84.5,200.6,105.3,209.8,153.7z M202,50.7c1.9-0.5,4.4,0,6,0.4c4.2,11,18.8,91.3,18.7,98.8c-1.9,0.6-2.9,1.3-3.4,1.5
	c-0.1-1.1-2.4-16.5-2.7-18.7c-1.1,0.2-2.2,0.1-3.4,0.2c-0.1,1.3,1.7,18.1,1.7,19.8c-0.5,0.4-2,1-3.4,1.3
	C214.6,140.6,206,65.9,202,50.7z M216,120.3c1-0.3,1.6-0.3,2.5-0.3c-0.3-1.6-6.8-38-7.2-39.8c-0.2,0.1-0.5,0-0.7,0.2
	C210.7,81.5,216,119.4,216,120.3z M229.1,149.5c1.5-0.5,7-2,10.9-1.9c-0.1-0.8-0.4-10.4-0.9-12.4c-5.8,0.1-6.2,0.8-7.7,0.9
	c-0.5-12.5-11-81.2-11.2-81.9c-1.1-0.6-2.6-1.7-4.4-1.9C216.9,58.2,228.3,139.3,229.1,149.5z M81.3,40.6v12.9c0,2.8,0.2,4.9,0.9,6.9
	h-4.4c-0.7-1.8-1-3.7-1-6.9V40.6h-2.2v-3.9h2.4v-3.9l4.2-1.2v5.2h2.6v3.9H81.3z M93.9,60.5V42.2c0-1.2-0.7-2.1-1.7-2.1
	c-1.2,0-2,1.5-2,2.7v17.7h-4.4V27.4h4.4v11.9c0.8-1.9,2.3-3,4.1-3c2.5,0,4.1,2.1,4.1,5.2v19H93.9z M106.8,60.9
	c-3.6,0-6.2-2.7-6.2-6.8V43c0-4,2.6-6.8,6.2-6.8c3.6,0,5.9,2.7,5.9,6.8v6.1H105v5.7c0,1.3,0.6,2.2,1.9,2.2c1.3,0,1.9-0.9,1.9-2.2
	v-2.9h4v2.3C112.7,58.2,110.4,60.9,106.8,60.9z M108.7,42.4c0-1.3-0.6-2.2-1.8-2.2c-1.2,0-1.9,0.9-1.9,2.2v4.2h3.7V42.4z"/>
</svg>
