<?xml version="1.0" encoding="utf-8"?>
<!-- Generator: Adobe Illustrator 19.0.0, SVG Export Plug-In . SVG Version: 6.00 Build 0)  -->
<svg version="1.1" id="Layer_1" xmlns="http://www.w3.org/2000/svg" xmlns:xlink="http://www.w3.org/1999/xlink" x="0px" y="0px"
	 viewBox="-159 -64 280 200" style="enable-background:new -159 -64 280 200;" xml:space="preserve">
<style type="text/css">
	.st0{display:none;}
	.st1{display:inline;fill:#7A9982;}
	.st2{fill:#FFFFFF;}
	.st3{fill:#FFFFFF;stroke:#8B89AC;stroke-width:2;stroke-miterlimit:10;}
</style>
<g>
	<g id="bg" class="st0">
		<rect x="-89" y="-53.2" class="st1" width="240" height="66.8"/>
	</g>
	<g id="white_letters">
	</g>
	<g id="black_letters">
		<g>
			<rect x="-85.8" y="15.2" class="st2" width="3.7" height="42.1"/>
		</g>
		<g>
			<rect x="-81.6" y="14.7" class="st2" width="1.1" height="42.6"/>
		</g>
		<g>
			<polygon class="st2" points="-50.6,57.3 -51.6,57.3 -51.6,14.7 -45.3,14.7 -45.3,15.7 -50.6,15.7 			"/>
		</g>
		<g>
			<path class="st3" d="M-15.1,15"/>
		</g>
		<g>
			<path class="st2" d="M-80.7,52.1V51c10.1,0,18-7.7,18-17.5c0-9.9-7.8-17.7-17.9-17.7v-1.1c10.6,0,18.9,8.3,18.9,18.8
				C-61.6,43.9-70,52.1-80.7,52.1z"/>
		</g>
		<g>
			<rect x="-88.5" y="14.7" class="st2" width="6.3" height="1.1"/>
		</g>
		<g>
			<rect x="-55.8" y="15.2" class="st2" width="3.7" height="42.1"/>
		</g>
		<g>
			<rect x="-62.2" y="14.7" class="st2" width="10" height="1.1"/>
		</g>
		<g>
			<rect x="-43.2" y="14.7" class="st2" width="6.3" height="1.1"/>
		</g>
		<g>
			<rect x="-24.3" y="23.6" class="st2" width="5.8" height="1.1"/>
		</g>
		<g>
			<rect x="-33.2" y="23.6" class="st2" width="5.8" height="1.1"/>
		</g>
		<g>
			<rect x="4.2" y="19.3" class="st2" width="1.1" height="33.3"/>
		</g>
		<g>
			<path class="st2" d="M-3.2,36c0,6.1,2.6,11.5,6.8,15.2V20.8C-0.6,24.5-3.2,29.9-3.2,36z"/>
		</g>
		<g>
			<g>
				<g>
					<g>
						<rect x="-126.9" y="14.7" class="st2" width="1.6" height="10"/>
					</g>
				</g>
				<g>
					<g>
						<rect x="-117.9" y="14.7" class="st2" width="1.1" height="10"/>
					</g>
				</g>
				<g>
					<g>
						<rect x="-122.7" y="14.7" class="st2" width="1.6" height="10"/>
					</g>
				</g>
				<g>
					<g>
						<polygon class="st2" points="-124.3,24.7 -124.8,24.7 -124.8,14.7 -123.2,14.7 -123.2,15.2 -124.3,15.2 						"/>
					</g>
				</g>
				<g>
					<g>
						<polygon class="st2" points="-119,24.7 -119.5,24.7 -119.5,14.7 -119,14.7 -119,14.7 						"/>
					</g>
				</g>
				<g>
					<g>
						<polygon class="st2" points="-116.4,24.7 -116.9,24.7 -116.9,14.7 -116.4,14.7 -116.4,14.7 						"/>
					</g>
				</g>
				<g>
					<g>
						<rect x="-128.5" y="14.7" class="st2" width="5.3" height="0.5"/>
					</g>
				</g>
				<g>
					<g>
						<rect x="-117.4" y="14.7" class="st2" width="3.2" height="0.5"/>
					</g>
				</g>
				<g>
					<g>
						<rect x="-117.4" y="24.2" class="st2" width="3.2" height="0.5"/>
					</g>
				</g>
				<g>
					<g>
						<rect x="-118.5" y="16.8" class="st2" width="4.2" height="0.5"/>
					</g>
				</g>
				<g>
					<g>
						<rect x="-123.2" y="16.8" class="st2" width="4.2" height="0.5"/>
					</g>
				</g>
			</g>
		</g>
		<g>
			<path class="st2" d="M-92.5,30.8"/>
		</g>
		<g>
			<g>
				<rect x="-120" y="51" class="st2" width="22.6" height="1.1"/>
			</g>
			<g>
				<rect x="-120" y="51" class="st2" width="25.2" height="1.1"/>
			</g>
			<g>
				<polygon class="st2" points="-91.9,57.3 -87.9,57.3 -103.2,16.4 -103.7,14.9 -105.7,20.2 -105.2,21.7 				"/>
			</g>
			<g>
				<polygon class="st2" points="-118.4,57.3 -105.9,23.9 -106.5,22.4 -119.5,57.3 				"/>
			</g>
			<g>
				<polygon class="st2" points="-92.4,57.3 -106,20.9 -106.5,22.4 -93.6,57.3 				"/>
			</g>
		</g>
		<g>
			<polygon class="st2" points="-23.7,57.3 -24.8,57.3 -24.8,14.7 -16.4,14.7 -16.4,15.7 -23.7,15.7 			"/>
		</g>
		<g>
			<rect x="-29" y="14.7" class="st2" width="3.7" height="42.6"/>
		</g>
		<g>
			<rect x="-36.4" y="14.7" class="st2" width="1.1" height="42.6"/>
		</g>
		<g>
			<rect x="-40.6" y="15.2" class="st2" width="3.7" height="42.1"/>
		</g>
		<g>
			<rect x="-14.3" y="14.7" class="st2" width="6.3" height="1.1"/>
		</g>
		<g>
			<rect x="-7.4" y="14.7" class="st2" width="1.1" height="42.6"/>
		</g>
		<g>
			<rect x="-11.6" y="15.2" class="st2" width="3.7" height="42.1"/>
		</g>
		<g>
			<rect x="33.1" y="14.7" class="st2" width="6.3" height="1.1"/>
		</g>
		<g>
			<rect x="39.9" y="14.7" class="st2" width="1.1" height="42.6"/>
		</g>
		<g>
			<rect x="35.7" y="15.2" class="st2" width="3.7" height="42.1"/>
		</g>
		<g>
			<rect x="75.2" y="14.7" class="st2" width="6.3" height="1.1"/>
		</g>
		<g>
			<polygon class="st2" points="90.5,57.3 82.1,57.3 82.1,14.7 83.1,14.7 83.1,56.3 90.5,56.3 			"/>
		</g>
		<g>
			<rect x="77.8" y="15.2" class="st2" width="3.7" height="42.1"/>
		</g>
		<g>
			<path class="st2" d="M70.6,30.8"/>
		</g>
		<g>
			<g>
				<rect x="43.2" y="51" class="st2" width="22.6" height="1.1"/>
			</g>
			<g>
				<rect x="43.2" y="51" class="st2" width="25.2" height="1.1"/>
			</g>
			<g>
				<polygon class="st2" points="71.3,57.3 75.2,57.3 60,16.4 59.4,14.9 57.5,20.2 58,21.7 				"/>
			</g>
			<g>
				<polygon class="st2" points="44.8,57.3 57.2,23.9 56.6,22.4 43.6,57.3 				"/>
			</g>
			<g>
				<polygon class="st2" points="70.7,57.3 57.2,20.9 56.6,22.4 69.6,57.3 				"/>
			</g>
		</g>
		<g>
			<polygon class="st2" points="-63.2,57.3 -75.5,50.5 -76.1,51.4 -65.3,57.3 			"/>
		</g>
		<g>
			<path class="st2" d="M29.8,51.7c-3.6,2.9-8.1,4.5-12.7,4.5c-4.4,0-8.5-1.4-11.8-3.8v1.3c3.4,2.3,7.5,3.6,11.8,3.6
				c5.1,0,9.7-1.8,13.4-4.7c0.1-0.1,0.2-0.2,0.3-0.3l-0.7-0.7C29.9,51.6,29.8,51.7,29.8,51.7z"/>
		</g>
		<g>
			<path class="st2" d="M17.1,15.7c4.6,0,9.2,1.6,12.7,4.5c0.1,0.1,0.1,0.1,0.2,0.2l0.7-0.7c-0.1-0.1-0.2-0.2-0.3-0.2
				c-3.7-2.9-8.3-4.7-13.4-4.7c-4.4,0-8.5,1.3-11.8,3.6v1.3C8.5,17.2,12.6,15.7,17.1,15.7z"/>
		</g>
		<g>
			<path class="st2" d="M-3.2,36c0-6.1,2.6-11.5,6.8-15.2v-1.4C0,22.4-2.7,26.5-3.7,31.3c-0.3,1.5-0.5,3.1-0.5,4.7
				c0,1.6,0.2,3.2,0.5,4.7c1.1,4.7,3.7,8.9,7.4,11.8v-1.4C-0.6,47.5-3.2,42.1-3.2,36z"/>
		</g>
		<g>
			<g>
				<path class="st2" d="M4.2,51.6V53c0.4,0.3,0.7,0.5,1.1,0.7v-1.3C4.8,52.2,4.5,51.9,4.2,51.6z"/>
			</g>
			<g>
				<path class="st2" d="M5.2,19.6v-1.3c-0.4,0.3-0.7,0.5-1.1,0.7v1.4C4.5,20.1,4.8,19.8,5.2,19.6z"/>
			</g>
		</g>
	</g>
	<g id="s_logo">
	</g>
	<g id="shapes_used" class="st0">
	</g>
	<g id="guides">
	</g>
	<g id="marks" class="st0">
	</g>
</g>
</svg>
