<?xml version="1.0" encoding="utf-8"?>
<!-- Generator: Adobe Illustrator 18.1.1, SVG Export Plug-In . SVG Version: 6.00 Build 0)  -->
<!DOCTYPE svg PUBLIC "-//W3C//DTD SVG 1.1//EN" "http://www.w3.org/Graphics/SVG/1.1/DTD/svg11.dtd">
<svg version="1.1" id="Layer_1" xmlns="http://www.w3.org/2000/svg" xmlns:xlink="http://www.w3.org/1999/xlink" x="0px" y="0px"
	 width="280px" height="200px" viewBox="-19 185 280 200" enable-background="new -19 185 280 200" xml:space="preserve">
<g>
	<path fill="#FFFFFF" d="M39.4,295.2c-0.4,0-0.8-0.4-0.8-0.8c0-9.9-8.1-18-18-18c-0.4,0-0.8-0.4-0.8-0.8c0-0.4,0.4-0.8,0.8-0.8
		c10.8,0,19.6,8.8,19.6,19.6C40.2,294.8,39.9,295.2,39.4,295.2z"/>
	<path fill="#FFFFFF" d="M1.8,295.2c-0.4,0-0.8-0.4-0.8-0.8c0-10.8,8.8-19.6,19.6-19.6c0.4,0,0.8,0.4,0.8,0.8c0,0.4-0.4,0.8-0.8,0.8
		c-9.9,0-18,8.1-18,18C2.6,294.8,2.2,295.2,1.8,295.2z"/>
	<path fill="#FFFFFF" d="M20.6,314C9.8,314,1,305.2,1,294.5c0-0.4,0.4-0.8,0.8-0.8s0.8,0.4,0.8,0.8c0,9.9,8.1,18,18,18
		c0.4,0,0.8,0.4,0.8,0.8C21.4,313.8,21,314,20.6,314z"/>
	<path fill="#FFFFFF" d="M20.6,314c-0.4,0-0.8-0.4-0.8-0.8c0-0.4,0.4-0.8,0.8-0.8c9.9,0,18-8.1,18-18c0-0.4,0.4-0.8,0.8-0.8
		s0.8,0.4,0.8,0.8C40.2,305.2,31.4,314,20.6,314z"/>
	<path fill="#FFFFFF" d="M39.4,314c-0.4,0-0.8-0.4-0.8-0.8v-37.6c0-0.4,0.4-0.8,0.8-0.8s0.8,0.4,0.8,0.8v37.6
		C40.2,313.8,39.9,314,39.4,314z"/>
	<path fill="#FFFFFF" d="M45.7,295.2c-0.4,0-0.8-0.4-0.8-0.8c0-10.8,8.8-19.6,19.6-19.6c0.4,0,0.8,0.4,0.8,0.8
		c0,0.4-0.4,0.8-0.8,0.8c-9.9,0-18,8.1-18,18C46.5,294.8,46.1,295.2,45.7,295.2z"/>
	<path fill="#FFFFFF" d="M45.7,314c-0.4,0-0.8-0.4-0.8-0.8v-37.6c0-0.4,0.4-0.8,0.8-0.8s0.8,0.4,0.8,0.8v37.6
		C46.5,313.8,46.1,314,45.7,314z"/>
	<path fill="#FFFFFF" d="M80.2,314c-0.4,0-0.8-0.4-0.8-0.8v-37.6c0-0.4,0.4-0.8,0.8-0.8s0.8,0.4,0.8,0.8v37.6
		C81,313.8,80.6,314,80.2,314z"/>
	<rect x="70.8" y="274.8" fill="#FFFFFF" width="18.8" height="1.6"/>
	<path fill="#FFFFFF" d="M95.9,314c-0.4,0-0.8-0.4-0.8-0.8v-37.6c0-0.4,0.4-0.8,0.8-0.8s0.8,0.4,0.8,0.8v37.6
		C96.7,313.8,96.3,314,95.9,314z"/>
	<path fill="#FFFFFF" d="M102.2,295.2c-0.4,0-0.8-0.4-0.8-0.8c0-10.8,8.8-19.6,19.6-19.6c0.4,0,0.8,0.4,0.8,0.8
		c0,0.4-0.4,0.8-0.8,0.8c-9.9,0-18,8.1-18,18C103,294.8,102.6,295.2,102.2,295.2z"/>
	<path fill="#FFFFFF" d="M102.2,314c-0.4,0-0.8-0.4-0.8-0.8v-18.8c0-0.4,0.4-0.8,0.8-0.8s0.8,0.4,0.8,0.8v18.8
		C103,313.8,102.6,314,102.2,314z"/>
	<path fill="#FFFFFF" d="M95.9,270.3c-0.4,0-0.8-0.4-0.8-0.8v-0.2c0-0.4,0.4-0.8,0.8-0.8s0.8,0.4,0.8,0.8v0.2
		C96.7,270,96.3,270.3,95.9,270.3z"/>
	<path fill="#FFFFFF" d="M111.6,295.2h-9.4c-0.4,0-0.8-0.4-0.8-0.8c0-0.4,0.4-0.8,0.8-0.8h9.4c0.4,0,0.8,0.4,0.8,0.8
		S112,295.2,111.6,295.2z"/>
	<path fill="#FFFFFF" d="M127.3,314c-0.4,0-0.8-0.4-0.8-0.8v-37.6c0-0.4,0.4-0.8,0.8-0.8s0.8,0.4,0.8,0.8v37.6
		C128.1,313.8,127.7,314,127.3,314z"/>
	<path fill="#FFFFFF" d="M127.3,270.3c-0.4,0-0.8-0.4-0.8-0.8v-0.2c0-0.4,0.4-0.8,0.8-0.8s0.8,0.4,0.8,0.8v0.2
		C128.1,270,127.7,270.3,127.3,270.3z"/>
	<path fill="#FFFFFF" d="M164.9,281.2c-0.2,0-0.4-0.1-0.5-0.2c-3.3-3-7.6-4.6-12-4.6c-0.4,0-0.8-0.4-0.8-0.8c0-0.4,0.4-0.8,0.8-0.8
		c4.8,0,9.5,1.8,13.1,5c0.3,0.3,0.4,0.8,0.1,1.1C165.4,281.2,165.1,281.2,164.9,281.2z"/>
	<path fill="#FFFFFF" d="M133.5,295.2c-0.4,0-0.8-0.4-0.8-0.8c0-10.8,8.8-19.6,19.6-19.6c0.4,0,0.8,0.4,0.8,0.8
		c0,0.4-0.4,0.8-0.8,0.8c-9.9,0-18,8.1-18,18C134.3,294.8,134,295.2,133.5,295.2z"/>
	<path fill="#FFFFFF" d="M152.4,314c-10.8,0-19.6-8.8-19.6-19.6c0-0.4,0.4-0.8,0.8-0.8s0.8,0.4,0.8,0.8c0,9.9,8.1,18,18,18
		c0.4,0,0.8,0.4,0.8,0.8C153.2,313.8,152.8,314,152.4,314z"/>
	<path fill="#FFFFFF" d="M152.4,314c-0.4,0-0.8-0.4-0.8-0.8c0-0.4,0.4-0.8,0.8-0.8c4.4,0,8.7-1.6,12-4.6c0.3-0.3,0.8-0.3,1.1,0.1
		c0.3,0.3,0.3,0.8-0.1,1.1C161.8,312.2,157.2,314,152.4,314z"/>
	<path fill="#FFFFFF" d="M171.2,314c-0.4,0-0.8-0.4-0.8-0.8v-37.6c0-0.4,0.4-0.8,0.8-0.8s0.8,0.4,0.8,0.8v37.6
		C172,313.8,171.6,314,171.2,314z"/>
	<path fill="#FFFFFF" d="M171.2,270.3c-0.4,0-0.8-0.4-0.8-0.8v-0.2c0-0.4,0.4-0.8,0.8-0.8s0.8,0.4,0.8,0.8v0.2
		C172,270,171.6,270.3,171.2,270.3z"/>
	<path fill="#FFFFFF" d="M215.1,295.2c-0.4,0-0.8-0.4-0.8-0.8c0-9.9-8.1-18-18-18c-0.4,0-0.8-0.4-0.8-0.8c0-0.4,0.4-0.8,0.8-0.8
		c10.8,0,19.6,8.8,19.6,19.6C215.9,294.8,215.6,295.2,215.1,295.2z"/>
	<path fill="#FFFFFF" d="M177.5,295.2c-0.4,0-0.8-0.4-0.8-0.8c0-10.8,8.8-19.6,19.6-19.6c0.4,0,0.8,0.4,0.8,0.8
		c0,0.4-0.4,0.8-0.8,0.8c-9.9,0-18,8.1-18,18C178.3,294.8,177.9,295.2,177.5,295.2z"/>
	<path fill="#FFFFFF" d="M196.3,314c-10.8,0-19.6-8.8-19.6-19.6c0-0.4,0.4-0.8,0.8-0.8s0.8,0.4,0.8,0.8c0,9.9,8.1,18,18,18
		c0.4,0,0.8,0.4,0.8,0.8C197.1,313.8,196.7,314,196.3,314z"/>
	<path fill="#FFFFFF" d="M196.3,314c-0.4,0-0.8-0.4-0.8-0.8c0-0.4,0.4-0.8,0.8-0.8c9.9,0,18-8.1,18-18c0-0.4,0.4-0.8,0.8-0.8
		s0.8,0.4,0.8,0.8C215.9,305.2,207.1,314,196.3,314z"/>
	<path fill="#FFFFFF" d="M215.1,314c-0.4,0-0.8-0.4-0.8-0.8v-37.6c0-0.4,0.4-0.8,0.8-0.8s0.8,0.4,0.8,0.8v37.6
		C215.9,313.8,215.6,314,215.1,314z"/>
	<path fill="#FFFFFF" d="M221.4,314c-0.4,0-0.8-0.4-0.8-0.8v-37.6c0-0.4,0.4-0.8,0.8-0.8s0.8,0.4,0.8,0.8v37.6
		C222.2,313.8,221.8,314,221.4,314z"/>
	<path fill="#FFFFFF" d="M240.2,314h-18.8c-0.4,0-0.8-0.4-0.8-0.8c0-0.4,0.4-0.8,0.8-0.8h18.8c0.4,0,0.8,0.4,0.8,0.8
		C241,313.8,240.6,314,240.2,314z"/>
	<path fill="#FFFFFF" d="M4.9,270.2c-0.4,0-0.8-0.4-0.8-0.8V257c0-0.4,0.4-0.8,0.8-0.8s0.8,0.4,0.8,0.8v12.5
		C5.7,269.8,5.4,270.2,4.9,270.2z"/>
	<path fill="#FFFFFF" d="M8.1,257.5H1.8c-0.4,0-0.8-0.4-0.8-0.8c0-0.4,0.4-0.8,0.8-0.8h6.3c0.4,0,0.8,0.4,0.8,0.8
		C8.8,257.2,8.5,257.5,8.1,257.5z"/>
	<path fill="#FFFFFF" d="M11.2,270.2c-0.4,0-0.8-0.4-0.8-0.8V257c0-0.4,0.4-0.8,0.8-0.8s0.8,0.4,0.8,0.8v12.5
		C12,269.8,11.6,270.2,11.2,270.2z"/>
	<path fill="#FFFFFF" d="M17.5,263.8h-6.3c-0.4,0-0.8-0.4-0.8-0.8c0-0.4,0.4-0.8,0.8-0.8h6.3c0.4,0,0.8,0.4,0.8,0.8
		C18.3,263.5,17.9,263.8,17.5,263.8z"/>
	<path fill="#FFFFFF" d="M17.5,270.2c-0.4,0-0.8-0.4-0.8-0.8V257c0-0.4,0.4-0.8,0.8-0.8s0.8,0.4,0.8,0.8v12.5
		C18.3,269.8,17.9,270.2,17.5,270.2z"/>
	<path fill="#FFFFFF" d="M20.6,263.8c-0.4,0-0.8-0.4-0.8-0.8c0-3.9,3.2-7.1,7.1-7.1c0.4,0,0.8,0.4,0.8,0.8c0,0.4-0.4,0.8-0.8,0.8
		c-3,0-5.5,2.5-5.5,5.5C21.4,263.5,21,263.8,20.6,263.8z"/>
	<path fill="#FFFFFF" d="M26.9,270.2c-3.9,0-7.1-3.2-7.1-7.1c0-0.4,0.4-0.8,0.8-0.8s0.8,0.4,0.8,0.8c0,3,2.5,5.5,5.5,5.5
		c0.4,0,0.8,0.4,0.8,0.8C27.7,269.8,27.3,270.2,26.9,270.2z"/>
	<path fill="#FFFFFF" d="M26.9,263.8h-6.3c-0.4,0-0.8-0.4-0.8-0.8c0-0.4,0.4-0.8,0.8-0.8h6.3c0.4,0,0.8,0.4,0.8,0.8
		C27.7,263.5,27.3,263.8,26.9,263.8z"/>
</g>
</svg>
