<?xml version="1.0" encoding="utf-8"?>
<!-- Generator: Adobe Illustrator 18.1.1, SVG Export Plug-In . SVG Version: 6.00 Build 0)  -->
<!DOCTYPE svg PUBLIC "-//W3C//DTD SVG 1.1//EN" "http://www.w3.org/Graphics/SVG/1.1/DTD/svg11.dtd">
<svg version="1.1" id="Layer_1" xmlns="http://www.w3.org/2000/svg" xmlns:xlink="http://www.w3.org/1999/xlink" x="0px" y="0px"
	 width="280px" height="200px" viewBox="-19 185 280 200" enable-background="new -19 185 280 200" xml:space="preserve">
<g>
	<rect x="21.6" y="326.9" fill="#FFFFFF" width="3.6" height="10.5"/>
	<rect x="47.4" y="323.6" fill="#FFFFFF" width="9.6" height="3.2"/>
	<polygon fill="#FFFFFF" points="98.9,235.7 98.9,232.5 95.4,232.5 95.4,256.4 98.9,256.4 98.9,246.2 98.9,242.9 	"/>
	<path fill="#FFFFFF" d="M181.6,333.7c-0.8,0-1.5-0.2-2.1-0.5s-1.1-0.7-1.4-1.2c-0.3-0.4-0.6-0.9-0.8-1.5h-3.7c0,0.1,0,0.2,0,0.3
		c0.1,0.5,0.2,0.9,0.3,1.3c0.1,0.4,0.3,0.7,0.4,1c0.6,1.1,1.4,2.1,2.7,3c1.2,0.8,2.7,1.4,4.6,1.4c2,0,3.7-0.6,5.2-1.8
		c1.4-1.2,2.4-2.9,2.9-5.2H186C185.1,332.6,183.6,333.7,181.6,333.7z"/>
	<polygon fill="#FFFFFF" points="210.3,249.2 211.8,244.5 211.8,244.5 213.3,249.2 216.6,249.2 213.3,239.6 210.3,239.6 
		206.9,249.2 	"/>
	<g>
		<path fill="#FFFFFF" d="M7.3,279H1v-3.2h16.2v3.2h-6.3v20.7H7.3V279z"/>
		<path fill="#FFFFFF" d="M88.4,294.3h-8.8l-1.8,5.3h-3.7l8.5-23.9h3l8.5,23.9h-3.7L88.4,294.3z M87.4,291.1L84,280.6h-0.1
			l-3.4,10.5H87.4z"/>
		<path fill="#FFFFFF" d="M121.4,279H115v-3.2h16.2v3.2h-6.3v20.7h-3.6V279H121.4z"/>
		<path fill="#FFFFFF" d="M135.7,275.8h3.6v23.9h-3.6V275.8z"/>
		<path fill="#FFFFFF" d="M145.2,275.8H160v3.4h-11.3v7.1h9.6v3.2h-9.6v10.2h-3.6L145.2,275.8L145.2,275.8z"/>
		<path fill="#FFFFFF" d="M164.4,275.8h3.6v23.9h-3.6V275.8z"/>
		<path fill="#FFFFFF" d="M194.1,275.8h3.6v23.9h-3.6V275.8z"/>
		<path fill="#FFFFFF" d="M226.1,275.8h3.6v20.6H241v3.4h-14.8L226.1,275.8L226.1,275.8z"/>
		<polygon fill="#FFFFFF" points="34.3,275.8 34.3,286 25.1,286 25.1,275.8 21.6,275.8 21.6,289.2 25.1,289.2 25.3,289.2 
			34.3,289.2 34.3,299.7 37.8,299.7 37.8,275.8 		"/>
		<polygon fill="#FFFFFF" points="44,275.8 44,299.7 58.8,299.7 58.8,296.2 47.4,296.2 47.4,290.1 47.4,289.2 47.4,286 47.4,283.2 
			47.4,279.1 58.8,279.1 58.8,275.8 		"/>
		<polygon fill="#FFFFFF" points="44,275.8 44,299.7 58.8,299.7 58.8,296.2 47.4,296.2 47.4,290.1 47.4,289.2 47.4,286 47.4,283.2 
			47.4,279.1 58.8,279.1 58.8,275.8 		"/>
		<path fill="#FFFFFF" d="M107,289c3-1.2,4.4-3.4,4.5-6.6c-0.1-2.2-0.8-3.9-2.3-5.1c-1.2-1-2.8-1.6-4.7-1.6h-5.6v3.2h5.5
			c1.1,0,2,0.3,2.6,0.8c0.8,0.6,1.2,1.4,1.2,2.7c0,1-0.3,1.9-1,2.6c-0.7,0.8-1.6,1.2-3,1.2h-5.3v3.2h4.5l4.8,10.2h4.1L107,289z"/>
		<path fill="#FFFFFF" d="M177.2,293c-0.1-0.2-0.1-0.3-0.1-0.5c-0.2-0.8-0.3-2.5-0.3-4.8c0-2.4,0.1-4,0.3-4.8s0.4-1.4,0.9-2
			c0.3-0.5,0.8-0.9,1.4-1.3c0.6-0.3,1.3-0.5,2.1-0.5c1.1,0,2.1,0.3,2.9,1c0.8,0.7,1.3,1.5,1.5,2.5h3.7c-0.3-2-1.3-3.7-2.7-5.1
			c-1.4-1.4-3.2-2-5.5-2c-1.9,0-3.4,0.5-4.6,1.4c-1.3,0.8-2.1,1.9-2.7,3c-0.3,0.6-0.6,1.4-0.8,2.3c-0.2,0.9-0.3,2.8-0.3,5.6
			c0,2.5,0.1,4.2,0.2,5.2h3.8l0,0L177.2,293L177.2,293z"/>
		<polygon fill="#FFFFFF" points="213.3,285.3 215.2,291.1 208.4,291.1 210.3,285.3 206.9,285.3 201.9,299.7 205.6,299.7 
			207.4,294.3 216.2,294.3 218,299.7 221.7,299.7 216.6,285.3 		"/>
	</g>
</g>
</svg>