<?xml version="1.0" encoding="utf-8"?>
<!-- Generator: Adobe Illustrator 21.1.0, SVG Export Plug-In . SVG Version: 6.00 Build 0)  -->
<svg version="1.1" id="Layer_1" xmlns="http://www.w3.org/2000/svg" xmlns:xlink="http://www.w3.org/1999/xlink" x="0px" y="0px"
	 viewBox="0 0 280 200" style="enable-background:new 0 0 280 200;" xml:space="preserve">
<style type="text/css">
	.st0{fill:#FFFFFF;}
</style>
<g>
	<path class="st0" d="M162.976,67.749c-1.292,0-2.376,0.896-2.671,2.098h-27.434c-0.295-1.202-1.379-2.098-2.671-2.098
		c-1.518,0-2.753,1.235-2.753,2.753c0,1.518,1.235,2.753,2.753,2.753c1.292,0,2.376-0.896,2.671-2.098h22.894v42.559
		c-1.202,0.295-2.098,1.379-2.098,2.671c0,1.518,1.235,2.753,2.753,2.753s2.753-1.235,2.753-2.753c0-1.292-0.896-2.376-2.098-2.671
		V71.158h3.229c0.295,1.202,1.379,2.098,2.671,2.098c1.518,0,2.753-1.235,2.753-2.753C165.729,68.984,164.494,67.749,162.976,67.749
		z M130.2,71.944c-0.795,0-1.442-0.647-1.442-1.442s0.647-1.442,1.442-1.442s1.442,0.647,1.442,1.442S130.995,71.944,130.2,71.944z
		 M157.863,116.388c0,0.795-0.647,1.442-1.442,1.442s-1.442-0.647-1.442-1.442s0.647-1.442,1.442-1.442
		S157.863,115.593,157.863,116.388z M162.976,71.944c-0.795,0-1.442-0.647-1.442-1.442s0.647-1.442,1.442-1.442
		c0.795,0,1.442,0.647,1.442,1.442S163.771,71.944,162.976,71.944z"/>
	<path class="st0" d="M52.195,113.717V93.969h11.799v22.156c0,0.362,0.293,0.656,0.656,0.656h10.388
		c0.192,1.332,1.337,2.36,2.722,2.36c1.518,0,2.753-1.235,2.753-2.753s-1.235-2.753-2.753-2.753c-1.196,0-2.213,0.768-2.593,1.835
		h-9.862v-11.275h3.307c0.379,1.068,1.397,1.835,2.593,1.835c1.518,0,2.753-1.235,2.753-2.753c0-1.518-1.235-2.753-2.753-2.753
		c-1.384,0-2.53,1.028-2.722,2.36h-3.178v-9.57c0-0.362-0.293-0.656-0.656-0.656H52.195v-6.375c1.202-0.295,2.098-1.379,2.098-2.671
		c0-1.518-1.235-2.753-2.753-2.753s-2.753,1.235-2.753,2.753c0,1.292,0.895,2.376,2.098,2.671v27.433
		c-1.202,0.295-2.098,1.379-2.098,2.671c0,1.518,1.235,2.753,2.753,2.753s2.753-1.235,2.753-2.753
		C54.292,115.096,53.397,114.012,52.195,113.717z M77.759,114.946c0.795,0,1.442,0.647,1.442,1.442s-0.647,1.442-1.442,1.442
		s-1.442-0.647-1.442-1.442S76.964,114.946,77.759,114.946z M71.204,101.835c0.795,0,1.442,0.647,1.442,1.442
		s-0.647,1.442-1.442,1.442s-1.442-0.647-1.442-1.442S70.409,101.835,71.204,101.835z M50.097,83.612
		c0-0.795,0.647-1.442,1.442-1.442c0.795,0,1.442,0.647,1.442,1.442s-0.647,1.442-1.442,1.442
		C50.744,85.054,50.097,84.407,50.097,83.612z M51.539,117.83c-0.795,0-1.442-0.647-1.442-1.442s0.647-1.442,1.442-1.442
		c0.795,0,1.442,0.647,1.442,1.442S52.334,117.83,51.539,117.83z"/>
	<path class="st0" d="M45.639,126.827V71.158h9.784c0.295,1.202,1.379,2.098,2.671,2.098c1.518,0,2.753-1.235,2.753-2.753
		c0-1.518-1.235-2.753-2.753-2.753c-1.292,0-2.376,0.896-2.671,2.098H27.924c-0.295-1.202-1.379-2.098-2.671-2.098
		c-1.518,0-2.753,1.235-2.753,2.753c0,1.518,1.235,2.753,2.753,2.753c1.292,0,2.376-0.896,2.671-2.098h16.404v55.669
		c-1.202,0.295-2.098,1.379-2.098,2.671c0,1.518,1.235,2.753,2.753,2.753c1.518,0,2.753-1.235,2.753-2.753
		C47.737,128.206,46.842,127.122,45.639,126.827z M25.253,71.944c-0.795,0-1.442-0.647-1.442-1.442s0.647-1.442,1.442-1.442
		s1.442,0.647,1.442,1.442S26.048,71.944,25.253,71.944z M58.094,69.06c0.795,0,1.442,0.647,1.442,1.442s-0.647,1.442-1.442,1.442
		c-0.795,0-1.442-0.647-1.442-1.442S57.299,69.06,58.094,69.06z M44.984,130.94c-0.795,0-1.442-0.647-1.442-1.442
		c0-0.795,0.647-1.442,1.442-1.442c0.795,0,1.442,0.647,1.442,1.442C46.426,130.293,45.779,130.94,44.984,130.94z"/>
	<path class="st0" d="M117.745,120.272v-49.77c0-0.362-0.293-0.656-0.656-0.656h-6.555c-0.174,0-0.341,0.069-0.463,0.192
		l-26.22,26.22c-0.123,0.123-0.192,0.29-0.192,0.463v23.549c-1.202,0.295-2.098,1.379-2.098,2.671c0,1.518,1.235,2.753,2.753,2.753
		c1.518,0,2.753-1.235,2.753-2.753c0-1.292-0.896-2.376-2.098-2.671V96.994l6.424-6.424v0.253h18.616v35.973
		c-1.268,0.246-2.229,1.363-2.229,2.702c0,1.518,1.235,2.753,2.753,2.753c1.518,0,2.753-1.235,2.753-2.753
		c0-1.245-0.831-2.298-1.967-2.637V90.167c0-0.362-0.293-0.656-0.656-0.656H92.452l18.354-18.354h5.628v49.114
		c-1.202,0.295-2.098,1.379-2.098,2.671c0,1.518,1.235,2.753,2.753,2.753s2.753-1.235,2.753-2.753
		C119.843,121.651,118.948,120.567,117.745,120.272z M85.757,122.943c0,0.795-0.647,1.442-1.442,1.442s-1.442-0.647-1.442-1.442
		s0.647-1.442,1.442-1.442S85.757,122.148,85.757,122.943z M111.977,129.498c0,0.795-0.647,1.442-1.442,1.442
		s-1.442-0.647-1.442-1.442c0-0.795,0.647-1.442,1.442-1.442S111.977,128.703,111.977,129.498z M117.09,124.385
		c-0.795,0-1.442-0.647-1.442-1.442s0.647-1.442,1.442-1.442s1.442,0.647,1.442,1.442S117.885,124.385,117.09,124.385z"/>
	<path class="st0" d="M149.865,126.745c-0.522,0-1.008,0.149-1.425,0.402l-17.585-17.585v-5.628h19.01
		c0.362,0,0.656-0.293,0.656-0.656v-26.22c0-0.362-0.293-0.656-0.656-0.656h-26.22c-0.362,0-0.656,0.293-0.656,0.656v10.439
		c-1.202,0.295-2.098,1.379-2.098,2.671c0,1.518,1.235,2.753,2.753,2.753c1.518,0,2.753-1.235,2.753-2.753
		c0-1.292-0.896-2.376-2.098-2.671v-9.784h24.909v24.909H130.2c-0.362,0-0.656,0.293-0.656,0.656v6.555
		c0,0.174,0.069,0.341,0.192,0.463l17.777,17.777c-0.253,0.416-0.402,0.903-0.402,1.425c0,1.518,1.235,2.753,2.753,2.753
		c1.518,0,2.753-1.235,2.753-2.753C152.619,127.98,151.384,126.745,149.865,126.745z M125.087,90.167
		c0,0.795-0.647,1.442-1.442,1.442s-1.442-0.647-1.442-1.442s0.647-1.442,1.442-1.442S125.087,89.372,125.087,90.167z
		 M149.865,130.94c-0.795,0-1.442-0.647-1.442-1.442c0-0.795,0.647-1.442,1.442-1.442c0.795,0,1.442,0.647,1.442,1.442
		C151.308,130.293,150.66,130.94,149.865,130.94z"/>
	<path class="st0" d="M84.315,126.745c-1.292,0-2.376,0.896-2.671,2.098H65.305v-3.229c1.202-0.295,2.098-1.379,2.098-2.671
		c0-1.518-1.235-2.753-2.753-2.753c-1.518,0-2.753,1.235-2.753,2.753c0,1.292,0.896,2.376,2.098,2.671v3.884
		c0,0.362,0.293,0.656,0.656,0.656h16.994c0.295,1.202,1.379,2.098,2.671,2.098c1.518,0,2.753-1.235,2.753-2.753
		C87.068,127.98,85.833,126.745,84.315,126.745z M63.207,122.943c0-0.795,0.647-1.442,1.442-1.442s1.442,0.647,1.442,1.442
		s-0.647,1.442-1.442,1.442S63.207,123.738,63.207,122.943z M84.315,130.94c-0.795,0-1.442-0.647-1.442-1.442
		c0-0.795,0.647-1.442,1.442-1.442s1.442,0.647,1.442,1.442C85.757,130.293,85.11,130.94,84.315,130.94z"/>
	<path class="st0" d="M165.729,83.612c0-1.518-1.235-2.753-2.753-2.753c-1.518,0-2.753,1.235-2.753,2.753
		c0,1.292,0.895,2.376,2.098,2.671v40.544c-1.202,0.295-2.098,1.379-2.098,2.671c0,1.518,1.235,2.753,2.753,2.753
		c1.518,0,2.753-1.235,2.753-2.753c0-1.292-0.895-2.376-2.098-2.671V86.283C164.833,85.988,165.729,84.904,165.729,83.612z
		 M161.533,83.612c0-0.795,0.647-1.442,1.442-1.442c0.795,0,1.442,0.647,1.442,1.442s-0.647,1.442-1.442,1.442
		C162.181,85.054,161.533,84.407,161.533,83.612z M164.418,129.498c0,0.795-0.647,1.442-1.442,1.442
		c-0.795,0-1.442-0.647-1.442-1.442c0-0.795,0.647-1.442,1.442-1.442C163.771,128.056,164.418,128.703,164.418,129.498z"/>
	<path class="st0" d="M185.394,96.722c0-1.518-1.235-2.753-2.753-2.753c-1.518,0-2.753,1.235-2.753,2.753
		c0,1.292,0.896,2.376,2.098,2.671v20.878c-1.202,0.295-2.098,1.379-2.098,2.671c0,1.518,1.235,2.753,2.753,2.753
		c1.518,0,2.753-1.235,2.753-2.753c0-1.292-0.895-2.376-2.098-2.671V99.393C184.499,99.098,185.394,98.014,185.394,96.722z
		 M181.199,96.722c0-0.795,0.647-1.442,1.442-1.442s1.442,0.647,1.442,1.442s-0.647,1.442-1.442,1.442
		S181.199,97.518,181.199,96.722z M184.083,122.943c0,0.795-0.647,1.442-1.442,1.442s-1.442-0.647-1.442-1.442
		s0.647-1.442,1.442-1.442S184.083,122.148,184.083,122.943z"/>
	<path class="st0" d="M205.059,90.167c0-1.518-1.235-2.753-2.753-2.753s-2.753,1.235-2.753,2.753c0,1.292,0.896,2.376,2.098,2.671
		v27.433c-1.202,0.295-2.098,1.379-2.098,2.671c0,1.518,1.235,2.753,2.753,2.753s2.753-1.235,2.753-2.753
		c0-1.292-0.896-2.376-2.098-2.671V92.838C204.164,92.543,205.059,91.459,205.059,90.167z M200.864,90.167
		c0-0.795,0.647-1.442,1.442-1.442s1.442,0.647,1.442,1.442s-0.647,1.442-1.442,1.442S200.864,90.963,200.864,90.167z
		 M203.748,122.943c0,0.795-0.647,1.442-1.442,1.442s-1.442-0.647-1.442-1.442s0.647-1.442,1.442-1.442
		S203.748,122.148,203.748,122.943z"/>
	<path class="st0" d="M186.525,77.713c0.295,1.202,1.379,2.098,2.671,2.098c1.518,0,2.753-1.235,2.753-2.753
		s-1.235-2.753-2.753-2.753c-1.292,0-2.376,0.896-2.671,2.098h-16.994c-0.362,0-0.656,0.293-0.656,0.656v43.215
		c-1.202,0.295-2.098,1.379-2.098,2.671c0,1.518,1.235,2.753,2.753,2.753s2.753-1.235,2.753-2.753c0-1.292-0.896-2.376-2.098-2.671
		V97.125l11.112-11.112c0.398,0.223,0.855,0.352,1.343,0.352c1.518,0,2.753-1.235,2.753-2.753s-1.235-2.753-2.753-2.753
		c-1.518,0-2.753,1.235-2.753,2.753c0,0.556,0.167,1.073,0.451,1.506l-10.153,10.153V77.713H186.525z M189.196,75.615
		c0.795,0,1.442,0.647,1.442,1.442s-0.647,1.442-1.442,1.442s-1.442-0.647-1.442-1.442S188.401,75.615,189.196,75.615z
		 M182.641,82.17c0.795,0,1.442,0.647,1.442,1.442s-0.647,1.442-1.442,1.442s-1.442-0.647-1.442-1.442S181.846,82.17,182.641,82.17z
		 M170.973,122.943c0,0.795-0.647,1.442-1.442,1.442s-1.442-0.647-1.442-1.442s0.647-1.442,1.442-1.442
		S170.973,122.148,170.973,122.943z"/>
	<path class="st0" d="M208.861,126.745c-1.292,0-2.376,0.896-2.671,2.098h-16.339V90.439l19.281-19.281h5.628v3.229
		c-1.202,0.295-2.098,1.379-2.098,2.671c0,1.518,1.235,2.753,2.753,2.753s2.753-1.235,2.753-2.753c0-1.292-0.895-2.376-2.098-2.671
		v-3.884c0-0.362-0.293-0.656-0.656-0.656h-6.555c-0.174,0-0.341,0.069-0.463,0.192l-19.665,19.665
		c-0.123,0.123-0.192,0.29-0.192,0.463v39.331c0,0.362,0.293,0.656,0.656,0.656h16.994c0.295,1.202,1.379,2.098,2.671,2.098
		c1.518,0,2.753-1.235,2.753-2.753C211.614,127.98,210.379,126.745,208.861,126.745z M216.858,77.057
		c0,0.795-0.647,1.442-1.442,1.442s-1.442-0.647-1.442-1.442s0.647-1.442,1.442-1.442S216.858,76.262,216.858,77.057z
		 M208.861,130.94c-0.795,0-1.442-0.647-1.442-1.442c0-0.795,0.647-1.442,1.442-1.442s1.442,0.647,1.442,1.442
		C210.303,130.293,209.656,130.94,208.861,130.94z"/>
	<path class="st0" d="M235.868,126.861V90.167c0-0.362-0.293-0.656-0.656-0.656h-18.214l18.354-18.354h5.628v22.894
		c-1.202,0.295-2.098,1.379-2.098,2.671c0,1.518,1.235,2.753,2.753,2.753c1.518,0,2.753-1.235,2.753-2.753
		c0-1.292-0.895-2.376-2.098-2.671V70.502c0-0.362-0.293-0.656-0.656-0.656h-6.555c-0.174,0-0.341,0.069-0.463,0.192l-26.22,26.22
		c-0.123,0.123-0.192,0.29-0.192,0.463v23.549c-1.202,0.295-2.098,1.379-2.098,2.671c0,1.518,1.235,2.753,2.753,2.753
		c1.518,0,2.753-1.235,2.753-2.753c0-1.292-0.895-2.376-2.098-2.671V96.994l6.424-6.424v0.253h18.616v35.973
		c-1.268,0.246-2.229,1.363-2.229,2.702c0,1.518,1.235,2.753,2.753,2.753s2.753-1.235,2.753-2.753
		C237.835,128.253,237.004,127.2,235.868,126.861z M243.079,96.722c0,0.795-0.647,1.442-1.442,1.442
		c-0.795,0-1.442-0.647-1.442-1.442s0.647-1.442,1.442-1.442C242.432,95.28,243.079,95.927,243.079,96.722z M210.303,122.943
		c0,0.795-0.647,1.442-1.442,1.442s-1.442-0.647-1.442-1.442s0.647-1.442,1.442-1.442S210.303,122.148,210.303,122.943z
		 M235.082,130.94c-0.795,0-1.442-0.647-1.442-1.442c0-0.795,0.647-1.442,1.442-1.442s1.442,0.647,1.442,1.442
		C236.524,130.293,235.877,130.94,235.082,130.94z"/>
	<path class="st0" d="M126.398,96.722c0-1.518-1.235-2.753-2.753-2.753c-1.518,0-2.753,1.235-2.753,2.753
		c0,1.292,0.895,2.376,2.098,2.671v27.433c-1.202,0.295-2.098,1.379-2.098,2.671c0,1.518,1.235,2.753,2.753,2.753
		c1.518,0,2.753-1.235,2.753-2.753c0-1.292-0.896-2.376-2.098-2.671V99.393C125.503,99.098,126.398,98.014,126.398,96.722z
		 M122.203,96.722c0-0.795,0.647-1.442,1.442-1.442s1.442,0.647,1.442,1.442s-0.647,1.442-1.442,1.442
		S122.203,97.518,122.203,96.722z M125.087,129.498c0,0.795-0.647,1.442-1.442,1.442s-1.442-0.647-1.442-1.442
		c0-0.795,0.647-1.442,1.442-1.442S125.087,128.703,125.087,129.498z"/>
	<path class="st0" d="M254.747,126.745c-1.292,0-2.376,0.896-2.671,2.098h-9.784v-22.894c1.202-0.295,2.098-1.379,2.098-2.671
		c0-1.518-1.235-2.753-2.753-2.753c-1.518,0-2.753,1.235-2.753,2.753c0,1.292,0.895,2.376,2.098,2.671v23.549
		c0,0.362,0.293,0.656,0.656,0.656h10.439c0.295,1.202,1.379,2.098,2.671,2.098c1.518,0,2.753-1.235,2.753-2.753
		C257.5,127.98,256.265,126.745,254.747,126.745z M240.195,103.278c0-0.795,0.647-1.442,1.442-1.442
		c0.795,0,1.442,0.647,1.442,1.442s-0.647,1.442-1.442,1.442C240.842,104.72,240.195,104.073,240.195,103.278z M254.747,130.94
		c-0.795,0-1.442-0.647-1.442-1.442c0-0.795,0.647-1.442,1.442-1.442s1.442,0.647,1.442,1.442
		C256.189,130.293,255.542,130.94,254.747,130.94z"/>
</g>
</svg>
