<?xml version="1.0" encoding="utf-8"?>
<!-- Generator: Adobe Illustrator 21.0.0, SVG Export Plug-In . SVG Version: 6.00 Build 0)  -->
<svg version="1.1" id="Layer_1" xmlns="http://www.w3.org/2000/svg" xmlns:xlink="http://www.w3.org/1999/xlink" x="0px" y="0px"
	 viewBox="0 0 280 200" style="enable-background:new 0 0 280 200;" xml:space="preserve">
<style type="text/css">
	.Graphic_x0020_Style_x0020_2{fill:#020200;}
</style>
<path class="Graphic_x0020_Style_x0020_2" d="M49.2,70.6c0,1,5.8,32.2,11.5,60.1c4.7,23,7.1,36.1,8.4,45.8
	c-5.2-1.7-8.6-4.3-11.4-6.6c-1.5-7.1-3.2-15.7-4.3-20.4c-3.3-2.2-6.7-3.7-11.6-8.8c0,2.5-1,13.1-1.3,17.5
	c-1.7-2.1-9.8-8.1-11.9-10.4c0.2-2.4,6.2-54.4,8.8-87.3C40.1,63.4,45.5,67.9,49.2,70.6z M44.3,93.1c-0.3,11.6-1.6,33.6-1.7,36
	c0.7,0.9,5.1,5.1,8.4,6.5c-0.3-2.9-5.2-34.4-5.9-41.7C44.6,93.6,44.7,93.6,44.3,93.1z M85.4,84c13,2,13.8,16.1,13.8,17.7
	c0,1.7,0.1,16.9,0.1,19.5c0,3.9-2.9,11.1-7.1,12.7c6.1,3.2,7.4,9.7,7.4,11.4s0.5,16.8,0.2,21.3s1.4,8,2.7,9.3c0,1.1,0,2.2,0,3.8
	c-3.1,1.3-6.4,1.8-8.9,0.5s-3.7-4.8-4-8.4c-0.2-2-0.5-15.4-0.8-23.1c-0.2-6.1-1.6-9.1-5.1-9c-1.9,0.1-3.9-0.4-4.4-0.5
	c0,0.9,2.7,41,1.9,41c-3.1,0-5.3-0.6-8.2-2c-3.2-48.2-5.8-76.6-8.1-100C69.9,81,75.8,82.5,85.4,84z M77.3,96.5
	c0.2,6.1,1.8,29.9,1.8,30.5c1.6,0.2,3.8,0.7,5.5,0.8c0.8,0.1,3.1-1.1,3.1-4.9c0-3.5-0.7-19.2-0.7-20.2c0-1.1-0.8-5.4-4.4-5.5
	C79.7,97.2,78.9,97,77.3,96.5z M103.4,83.9c0,1.8,0,13.2,0,13.7c3.8-0.7,8.5-2.4,12.9-6.4c0.2,3.8-2.8,82.9-2.8,83.5
	c3.2-1.3,4.7-5.5,8.3-7.6c0.1-1.5,3.6-75.3,4.1-83.7c1.4-1.2,3.4-3.7,4.7-5.4c0-1.7-0.1-13,0-14.2C124.9,70.7,113.6,82.3,103.4,83.9
	z M134.3,61.7c-0.1,6.6-3.4,95.4-3.8,98.1c1.8-1.8,3.9-3.5,6.5-5c0-0.6,1.7-68.7,2.8-96C137.8,58.6,136.1,61.1,134.3,61.7z
	 M143.8,57.7c-0.8,21.6-2.5,88.6-2.6,95.4c0.7-0.3,4.2-2.4,7.2-1.7c-0.1-1.9-0.1-39.3-0.1-40.6c1.2-0.3,4.1,1.4,6.4,2.8
	c-0.1-1.6-0.3-10.5-0.5-13.2c-0.9-1.3-3.9-2.4-6-2.6c0-2-0.1-26.5-0.1-27.4c2.2,0.3,5.5,2.7,7,2.7c0-0.7-0.4-11.5-0.5-12.8
	C151,58.5,148,57,143.8,57.7z M158.3,60.7c0.3,26.5,3.9,86.7,5.6,94c3.7,2.1,7.8,4.1,12.4,4.3c-4.5-11.5-12.6-68-13.9-98.3
	C160.8,60.9,159.7,60.9,158.3,60.7z M167.6,83.3c2.2,21.3,7.4,46.8,8.7,53.3c1.7,8.4,7.2,21.9,18.2,23.9c7,1.3,16.5-0.8,17.1-9.7
	c0.3-4.5-0.5-9-1.4-12.9c-1.1-5.3-1.6-9.6-5.5-20.8c-2,0.8-5.6,0.8-8.6,2.6c0.7,1.5,5.5,14.2,5.9,15.3c0.7,2,2,7.2-1.8,8.5
	c-3.7,1.2-8.6,0.3-11.6-6.8c-3.1-7.5-9.3-30.9-12.1-46.6c-1.2-6.9-4-17.6,0.9-18.4s5.9,5.5,6.3,8c0.5,2.5,2.6,12.7,3,13.3
	c0.3,0.6,7.7-3.1,8.2-4s-6-18.5-7.9-21.9s-5.3-9.3-11.7-8.7C168.2,59.2,166.1,68.8,167.6,83.3z M189.7,55.2c1.5-1.7,3.7-4.5,8.7-6.3
	c8.3,14.9,23.4,108.9,24.1,111.3c-1.8,0.1-3.5,0-4.7-0.3C207.5,105.9,201.5,82.7,189.7,55.2z M209,45.1c2.1-0.5,4.9,0,6.7,0.5
	c4.7,12.2,21,101.6,20.8,110c-2.1,0.7-3.2,1.4-3.8,1.7c-0.1-1.2-2.7-18.4-3-20.8c-1.2,0.2-2.5,0.2-3.8,0.3c-0.1,1.5,1.9,20.2,1.9,22
	c-0.6,0.5-2.3,1.1-3.8,1.4C223.1,145.2,213.5,62.1,209,45.1z M224.6,122.6c1.1-0.3,1.8-0.3,2.8-0.4c-0.3-1.8-7.6-42.3-8-44.3
	c-0.2,0.1-0.6,0-0.8,0.2C218.7,79.4,224.6,121.6,224.6,122.6z M224.4,46.9c2,0.2,3.8,1.4,4.9,2.1c0.2,0.8,11.9,77.2,12.5,91.2
	c1.6-0.1,2.1-0.9,8.6-1c0.6,2.2,0.9,12.9,1,13.8c-4.4-0.1-10.5,1.6-12.2,2.1C238.3,143.8,225.6,53.5,224.4,46.9z M74.7,33.9v14.4
	c0,3.1,0.2,5.5,1.1,7.7h-4.9c-0.8-2-1.1-4.2-1.1-7.7V33.9h-2.4v-4.3H70v-4.4l4.7-1.4v5.8h2.9v4.3H74.7z M88.6,56V35.7
	c0-1.4-0.8-2.3-1.9-2.3c-1.3,0-2.2,1.7-2.2,3V56h-4.9V19.1h4.9v13.3c0.9-2.2,2.6-3.4,4.5-3.4c2.8,0,4.5,2.3,4.5,5.8V56H88.6z
	 M103,56.4c-4,0-6.9-3-6.9-7.5V36.6c0-4.5,2.9-7.5,6.9-7.5s6.6,3,6.6,7.5v6.8H101v6.3c0,1.4,0.7,2.4,2.1,2.4c1.5,0,2.1-1,2.1-2.4
	v-3.3h4.4V49C109.6,53.4,107.1,56.4,103,56.4z M105.1,35.8c0-1.5-0.7-2.5-2-2.5s-2.1,1-2.1,2.5v4.7h4.2L105.1,35.8L105.1,35.8z"/>
</svg>
