<?xml version="1.0" encoding="utf-8"?>
<!-- Generator: Adobe Illustrator 22.0.1, SVG Export Plug-In . SVG Version: 6.00 Build 0)  -->
<svg version="1.1" id="Layer_1" xmlns="http://www.w3.org/2000/svg" xmlns:xlink="http://www.w3.org/1999/xlink" x="0px" y="0px"
	 width="280px" height="200px" viewBox="0 0 280 200" style="enable-background:new 0 0 280 200;" xml:space="preserve">
<path fill="#FFFFFF" d="M75.127,172.276c-0.056,0-0.112-0.014-0.162-0.043l-19.443-11.21c-0.1-0.058-0.162-0.165-0.162-0.281
	l0.002-3.177l-2.754,1.588c-0.1,0.058-0.223,0.058-0.324,0l-6.483-3.736c-0.1-0.058-0.162-0.165-0.162-0.281v-6.913l-5.992,3.455
	c-0.1,0.058-0.223,0.058-0.324,0l-6.483-3.736c-0.1-0.058-0.162-0.165-0.162-0.281v-3.179l-2.754,1.591
	c-0.1,0.058-0.223,0.058-0.323,0.001l-12.949-7.413c-0.101-0.058-0.163-0.165-0.163-0.281l-0.011-37.246l-6.315-3.645
	c-0.1-0.058-0.162-0.165-0.162-0.28L10,89.734c0-0.116,0.062-0.223,0.162-0.281l12.96-7.474c0.1-0.058,0.224-0.058,0.324,0
	l6.48,3.737c0.1,0.058,0.162,0.165,0.162,0.28l0.003,7.289l2.916,1.682l6.316-3.642c0.1-0.058,0.224-0.058,0.324,0l6.48,3.737
	c0.1,0.058,0.162,0.165,0.162,0.281v22.236l12.798,7.381c0.1,0.058,0.162,0.165,0.162,0.281v3.176l2.754-1.589
	c0.1-0.058,0.223-0.058,0.324,0l19.44,11.209c0.101,0.058,0.162,0.165,0.162,0.281v14.949c0,0.116-0.062,0.223-0.162,0.281
	l-5.991,3.458l5.994,3.457c0.1,0.058,0.162,0.165,0.162,0.281l-0.003,7.473c0,0.116-0.062,0.223-0.162,0.281l-6.477,3.739
	C75.239,172.262,75.183,172.276,75.127,172.276z M32.68,132.15l0.003-25.037l-2.595,1.494l0.003,22.05L32.68,132.15z M29.44,145.23
	l0.002-6.725l-6.482-3.739v-30.645l6.48,3.737v-6.726l-6.48-3.734l0.003-7.476l-5.834-3.362v7.475l-6.477-3.739v6.726l6.477,3.736
	v37.374L29.44,145.23z M52.12,158.31l0.002-29.148l-12.963-7.476v-22.42l-5.829-3.365l-0.003,51.57l5.832,3.366v-22.426l7.128,4.114
	l0.003,22.421L52.12,158.31z M23.284,89.36l5.832-3.36l-5.829-3.364l-5.832,3.363L23.284,89.36z M39.527,98.72l5.832-3.36
	l-5.829-3.364l-5.832,3.363L39.527,98.72z M16.48,92.913l0.002-6.354l-5.508,3.176L16.48,92.913z M29.764,100.571l2.916-1.679V95.53
	l-2.916-1.682l-5.831,3.36L29.764,100.571z M29.764,137.942l2.916-1.682v-3.36l-2.916-1.684l-5.829,3.364L29.764,137.942z
	 M75.124,141.682l5.831-3.363l-18.791-10.837l-5.832,3.363L75.124,141.682z M74.8,171.393v-6.726l-12.96-7.474v-8.225l12.96,7.477
	v-14.201l-18.792-10.838l0.003,29.148L74.8,171.393z M75.124,164.105l5.832-3.363l-12.309-7.102l-5.834,3.365L75.124,164.105z
	 M52.447,128.601l5.832-3.363l-12.314-7.102l-5.829,3.365L52.447,128.601z M91.13,168.399v-15.322l6.156-3.55l-6.156-3.55v-7.848
	l19.764-11.398l2.916,1.682v-3.364l6.804-3.924l3.121,1.8l3.128-5.411l6.711-3.863l2.915,1.682v-2.989l-6.48-3.737v-7.848
	l6.48-3.737v-7.474l6.804-3.924l9.396,5.419v-3.364l6.804-3.924l6.48,3.737l2.916-1.682V70.859l13.284-7.661l6.433,3.71l3.259-1.919
	l6.851,3.951l0.002,7.047l15.831-9.13l2.871,1.656v-3.312l6.108-3.523l-6.108-3.525l-0.003-7.899l6.849-3.95l6.851,3.948
	l-0.002,7.05l15.834-9.132l2.869,1.657V31.611l6.849-3.934l6.849,3.931v29.857L270,65.201v7.9l-13.331,7.685l-2.869-1.654v3.312
	l-19.812,11.423l-2.869-1.655l-0.002,3.311l-6.849,3.95l-2.871-1.653v3.312l-19.809,11.421l-2.871-1.653v3.309l-6.849,3.953
	l-6.846-3.951l-0.048-21.983l-2.477,1.429v29.897l-13.284,7.661l-2.916-1.682v3.363l-6.804,3.924l-2.916-1.682v3.363l-13.284,7.661
	l-6.804-3.924v-14.575l-2.679,1.545l-6.393,11.061v15.049l-6.804,3.924l-2.916-1.682v3.364l-19.764,11.398L91.13,168.399z
	 M152.69,128.411v-25.038l-2.592,1.495v22.048L152.69,128.411z M166.298,102.625V117.2l2.592-1.495v-14.574l-6.156-3.55
	l-2.591,1.495L166.298,102.625z M156.578,100.383l2.267-1.308l-2.267-1.308V100.383z M194.917,79.133l-2.267,1.308l2.267,1.308
	V79.133z M208.44,92.865l6.109-3.54l2.874,1.611l-0.003-9.933l-8.98,5.179V92.865z M188.649,81.881l2.494-1.512l-5.761-3.325
	l-2.56,1.476L188.649,81.881z M231.12,72.25l2.131-1.229l-2.131-1.231V72.25z M227.142,62.908l-0.002-2.459l-2.133,1.23
	L227.142,62.908z M98.258,171.388l18.792-10.838v-29.149l-18.792,10.838v6.726l12.96-7.474v8.222l-12.96,7.474V171.388z
	 M97.934,156.626l12.311-7.1l-5.831-3.363l-12.312,7.1L97.934,156.626z M97.934,141.678l18.791-10.837l-5.831-3.363l-18.792,10.837
	L97.934,141.678z M120.614,128.598l5.831-3.363l-5.831-3.363l-5.831,3.363L120.614,128.598z M133.574,121.124l5.831-3.363
	l-5.831-3.363l-5.831,3.363L133.574,121.124z M136.814,104.307l5.831-3.363l-5.831-3.363l-5.831,3.363L136.814,104.307z
	 M143.294,93.095l5.831-3.363l-5.831-3.363l-5.831,3.363L143.294,93.095z M150.098,96.645l5.507-3.176l-5.507-3.176V96.645z
	 M159.494,91.227l5.831-3.363l-5.831-3.363l-5.831,3.363L159.494,91.227z M159.504,106.181l5.823-3.368l-5.832-3.364l-5.831,3.363
	L159.504,106.181z M150.098,134.017l5.507-3.176l-5.507-3.176V134.017z M169.214,122.992l5.831-3.363l-5.831-3.363l-2.916,1.682
	v3.363L169.214,122.992z M169.214,93.095l5.831-3.363l-5.831-3.363l-2.916,1.682v3.363L169.214,93.095z M182.498,85.434l5.507-3.176
	l-5.507-3.176V85.434z M175.694,74.41l12.311-7.1l-5.831-3.363l-12.311,7.1L175.694,74.41z M120.938,158.308l5.832-3.364v-14.848
	l6.567-11.362l6.393-3.687v-6.726l-5.919,3.414l-6.436,11.136l-0.605,1.19v-8.266l-5.832,3.364V158.308z M143.618,145.228
	l12.312-7.101v-6.726l-6.48,3.737v-30.645l6.48-3.737V94.03l-6.48,3.737v-7.474l-5.832,3.363v7.474l-6.48,3.737v6.726l6.48-3.737
	V145.228z M159.818,98.514l5.832-3.363v-6.726l-5.832,3.363V98.514z M159.818,135.885l5.832-3.363v-29.148l-5.822,3.368
	L159.818,135.885z M169.538,130.28l12.312-7.101V93.282l6.48-3.737v-6.726l-6.48,3.737v-8.222l6.48-3.737V67.87l-12.312,7.101
	v14.949l-6.48,3.737v6.726l6.48-3.737v23.171l-6.48,3.737V130.28z M191.871,72.463l5.739-3.31l-5.739-3.313L189,67.496l-0.003,3.31
	L191.871,72.463z M201.591,81.806l18.702-10.785l-5.744-3.31l-18.702,10.783L201.591,81.806z M201.957,111.492l18.705-10.787
	l-0.002-6.621l-12.958,7.473v-15.8l12.957-7.473l0.002-6.624L201.96,82.445L201.957,111.492z M256.671,35.092l5.739-3.31
	l-5.742-3.311l-5.739,3.31L256.671,35.092z M257.04,79.725l12.222-7.049v-6.623l-6.48,3.737l-0.003-37.37l-5.74,3.31V79.725z
	 M263.52,68.513l5.373-3.099l-5.373-3.099V68.513z M192.24,79.725l5.74-3.31v-6.623l-5.74,3.31V79.725z M208.44,100.279
	l11.851-6.835l-5.739-3.313l-6.114,3.526L208.44,100.279z M192.237,117.094l5.743-3.312V84.74l-5.74,3.31L192.237,117.094z
	 M191.871,87.411l5.739-3.31l-5.742-3.311L189,82.445l-0.003,3.312L191.871,87.411z M224.271,68.726l5.739-3.31l-5.739-3.313
	l-5.742,3.311L224.271,68.726z M224.268,53.779l5.744-3.313l-5.744-3.31l-5.739,3.31L224.268,53.779z M224.639,61.039l5.743-3.312
	v-6.623l-5.745,3.313L224.639,61.039z M224.64,98.41l5.74-3.31V66.054l-5.74,3.31V98.41z M233.988,78.07l12.222-7.049l-5.74-3.313
	l-9.351,5.393v3.311L233.988,78.07z M233.988,63.122l18.702-10.786l-5.742-3.311l-18.699,10.784L233.988,63.122z M234.359,92.804
	l18.703-10.786l-0.003-29.044L234.357,63.76l0.002,6.621l12.958-7.473v8.326l-12.96,7.474L234.359,92.804z"/>
</svg>
