<?xml version="1.0" encoding="utf-8"?>
<!-- Generator: Adobe Illustrator 22.0.1, SVG Export Plug-In . SVG Version: 6.00 Build 0)  -->
<svg version="1.1" id="Layer_1" xmlns="http://www.w3.org/2000/svg" xmlns:xlink="http://www.w3.org/1999/xlink" x="0px" y="0px"
	 width="280px" height="200px" viewBox="0 0 280 200" enable-background="new 0 0 280 200" xml:space="preserve">
<g>
	<g>
		<polygon fill="#FFFFFF" points="65.103,91.448 65.379,91.448 68.966,91.448 68.966,87.862 65.103,86.759 61.793,86.759 
			61.241,86.759 57.931,88.966 57.379,88.966 54.069,88.966 50.483,85.655 46.897,86.759 46.897,115.448 50.483,115.448 
			53.793,115.448 54.069,115.448 57.379,115.448 57.931,115.448 61.241,115.448 61.793,115.448 64.828,115.448 65.379,115.448 
			68.966,115.448 68.966,108.552 65.379,108.552 64.828,108.552 64.828,105.617 64.828,105.517 68.966,98.621 65.103,98.621 
			64.828,98.621 64.828,91.448 		"/>
		<polygon fill="#FFFFFF" points="12.69,85.655 9.379,86.759 6.345,86.759 3.034,87.862 0,86.759 0,91.448 3.034,91.448 
			4.138,91.448 4.138,115.448 6.345,115.448 9.379,115.448 12.69,115.448 15.172,115.448 15.172,91.448 15.856,91.448 19.31,91.448 
			19.31,86.759 15.856,86.759 		"/>
		<polygon fill="#FFFFFF" points="35.862,85.655 35.862,87.034 35.862,87.31 35.862,98.621 32.828,98.621 30.345,98.621 
			30.345,87.862 29.793,87.862 26.483,87.862 23.448,86.759 23.448,115.448 26.483,115.448 29.793,115.448 30.345,115.448 
			30.345,112.69 32.828,112.69 35.862,112.69 35.862,115.448 36.138,115.448 39.304,115.448 42.759,115.448 42.759,86.759 
			39.304,87.862 		"/>
	</g>
	<g>
		<polygon fill="#FFFFFF" points="157.793,87.862 153.931,90.069 150.345,88.966 150.345,115.448 153.931,115.448 157.793,115.448 
			161.379,115.448 161.379,85.655 		"/>
		<polygon fill="#FFFFFF" points="93.097,87.862 89.931,90.069 86.621,86.759 83.586,84.552 80.276,87.862 77.241,85.655 
			77.241,115.448 80.276,115.448 83.586,115.448 84.138,115.448 84.138,112.69 86.621,112.69 89.655,112.69 89.655,115.448 
			89.931,115.448 93.097,115.448 96.552,115.448 96.552,85.655 		"/>
		<polygon fill="#FFFFFF" points="122.759,98.721 122.759,86.759 119.172,86.759 115.586,88.966 111.724,85.655 107.862,86.759 
			104.276,87.862 100.69,85.655 100.69,115.448 104.276,115.448 107.862,115.448 108.966,115.448 108.966,112.69 111.724,112.69 
			114.483,112.69 114.483,115.448 115.586,115.448 119.172,115.448 122.759,115.448 122.759,105.517 119.172,105.517 
			118.684,105.517 119.172,104.703 		"/>
		<polygon fill="#FFFFFF" points="218.483,91.448 222.069,91.448 222.069,86.759 218.483,85.655 214.897,86.759 211.034,88.966 
			207.172,88.966 203.586,87.862 200,86.759 200,115.448 203.586,115.448 207.172,115.448 211.034,115.448 214.897,115.448 
			218.483,115.448 222.069,115.448 222.069,108.552 218.483,108.552 217.931,108.552 217.931,91.448 		"/>
		<polygon fill="#FFFFFF" points="142.753,86.759 139.586,87.862 136.276,86.759 133.241,84.552 129.931,85.655 126.897,86.759 
			126.897,91.448 129.931,91.448 131.034,91.448 131.034,115.448 133.241,115.448 136.276,115.448 139.586,115.448 142.069,115.448 
			142.069,91.448 142.753,91.448 146.207,91.448 146.207,89.241 		"/>
		<polygon fill="#FFFFFF" points="192.276,86.759 188.414,84.552 184.828,86.759 184.828,115.448 188.414,115.448 192.276,115.448 
			195.862,115.448 195.862,86.759 		"/>
		<polygon fill="#FFFFFF" points="233.655,85.655 229.793,87.862 226.207,86.759 226.207,115.448 229.793,115.448 233.655,115.448 
			237.241,115.448 237.241,85.655 		"/>
		<polygon fill="#FFFFFF" points="257.235,84.552 254.069,87.862 250.759,86.759 247.724,88.966 244.414,87.862 241.379,85.655 
			241.379,115.448 244.414,115.448 247.724,115.448 248.276,115.448 248.276,112.69 250.759,112.69 253.793,112.69 253.793,115.448 
			254.069,115.448 257.235,115.448 260.69,115.448 260.69,87.862 		"/>
		<polygon fill="#FFFFFF" points="276.138,108.552 275.862,108.552 275.862,84.552 272.276,84.552 268.414,87.862 264.828,87.862 
			264.828,115.448 268.414,115.448 272.276,115.448 275.862,115.448 276.138,115.448 280,115.448 280,108.552 		"/>
		<polygon fill="#FFFFFF" points="176.828,91.448 180.69,91.448 180.69,86.759 176.828,85.655 172.966,86.759 169.103,88.966 
			165.517,85.655 165.517,115.448 169.103,115.448 172.966,115.448 176.552,115.448 176.552,105.617 176.828,105.157 180.69,98.721 
			176.828,98.721 176.552,98.721 176.552,91.448 		"/>
	</g>
</g>
</svg>
