<?xml version="1.0" encoding="utf-8"?>
<!-- Generator: Adobe Illustrator 22.0.1, SVG Export Plug-In . SVG Version: 6.00 Build 0)  -->
<svg version="1.1" id="Layer_1" xmlns="http://www.w3.org/2000/svg" xmlns:xlink="http://www.w3.org/1999/xlink" x="0px" y="0px"
	 width="61px" height="61px" viewBox="0 0 61 61" style="enable-background:new 0 0 61 61;" xml:space="preserve">
<style type="text/css">
	.st0{fill:#F2F230;}
</style>
<path class="st0" d="M0,2v57c0,1.105,0.895,2,2,2h57c1.105,0,2-0.895,2-2V2c0-1.105-0.895-2-2-2H2C0.895,0,0,0.895,0,2z M51,31
	L51,31c-9.443,3.148-16.852,10.557-20,20l0,0h-1l0,0c-3.148-9.443-10.557-16.852-20-20l0,0v-1l0,0c9.443-3.148,16.852-10.557,20-20
	l0,0h1l0,0c3.148,9.443,10.557,16.852,20,20l0,0V31z"/>
</svg>
