<?xml version="1.0" encoding="utf-8"?>
<!-- Generator: Adobe Illustrator 22.0.1, SVG Export Plug-In . SVG Version: 6.00 Build 0)  -->
<svg version="1.1" id="Layer_1" xmlns="http://www.w3.org/2000/svg" xmlns:xlink="http://www.w3.org/1999/xlink" x="0px" y="0px"
	 width="16px" height="16px" viewBox="0 0 16 16" style="enable-background:new 0 0 16 16;" xml:space="preserve">
<style type="text/css">
	.on{fill:#3F7F19;}
</style>
<path class="on" d="M8,2.216C7.353,1.149,6.143,0,4.258,0C1.156,0,0,2.612,0,4.258c0,3.985,1.64,5.618,6.507,10.465
	c0.358,0.356,0.734,0.731,1.128,1.125C7.736,15.95,7.868,16,8,16c0.132,0,0.264-0.05,0.365-0.151
	c0.395-0.395,0.77-0.769,1.128-1.125C14.36,9.876,16,8.243,16,4.258C16,2.612,14.787,0,11.742,0C9.831,0,8.647,1.149,8,2.216z"/>
</svg>
