<?xml version="1.0" encoding="utf-8"?>
<!-- Generator: Adobe Illustrator 22.0.1, SVG Export Plug-In . SVG Version: 6.00 Build 0)  -->
<svg version="1.1" id="Layer_1" xmlns="http://www.w3.org/2000/svg" xmlns:xlink="http://www.w3.org/1999/xlink" x="0px" y="0px"
	 width="96px" height="16px" viewBox="0 0 96 16" style="enable-background:new 0 0 96 16;" xml:space="preserve">
<style type="text/css">
	.lime{fill:#F2F230;}
	.grass{fill:#3F7F19;}
	.st0{fill:#F2F230;}
</style>
<path class="st0" d="M48,2.216C47.353,1.149,46.143,0,44.258,0C41.156,0,40,2.612,40,4.258c0,3.985,1.64,5.618,6.507,10.465
	c0.358,0.356,0.734,0.731,1.128,1.125C47.736,15.95,47.868,16,48,16s0.264-0.05,0.365-0.151c0.395-0.395,0.77-0.769,1.128-1.125
	C54.36,9.876,56,8.243,56,4.258C56,2.612,54.787,0,51.742,0C49.831,0,48.647,1.149,48,2.216z"/>
<path class="st0" d="M28,2.216C27.353,1.149,26.143,0,24.258,0C21.156,0,20,2.612,20,4.258c0,3.985,1.64,5.618,6.507,10.465
	c0.358,0.356,0.734,0.731,1.128,1.125C27.736,15.95,27.868,16,28,16s0.264-0.05,0.365-0.151c0.395-0.395,0.77-0.769,1.128-1.125
	C34.36,9.876,36,8.243,36,4.258C36,2.612,34.787,0,31.742,0C29.831,0,28.647,1.149,28,2.216z"/>
<path class="grass" d="M8,2.216C7.353,1.149,6.143,0,4.258,0C1.156,0,0,2.612,0,4.258c0,3.985,1.64,5.618,6.507,10.465
	c0.358,0.356,0.734,0.731,1.128,1.125C7.736,15.95,7.868,16,8,16c0.132,0,0.264-0.05,0.365-0.151
	c0.395-0.395,0.77-0.769,1.128-1.125C14.36,9.876,16,8.243,16,4.258C16,2.612,14.787,0,11.742,0C9.831,0,8.647,1.149,8,2.216z"/>
<path class="st0" d="M68,2.216C67.353,1.149,66.143,0,64.258,0C61.156,0,60,2.612,60,4.258c0,3.985,1.64,5.618,6.507,10.465
	c0.358,0.356,0.734,0.731,1.128,1.125C67.736,15.95,67.868,16,68,16s0.264-0.05,0.365-0.151c0.395-0.395,0.77-0.769,1.128-1.125
	C74.36,9.876,76,8.243,76,4.258C76,2.612,74.787,0,71.742,0C69.831,0,68.647,1.149,68,2.216z"/>
<path class="lime" d="M88,2.216C87.353,1.149,86.143,0,84.258,0C81.156,0,80,2.612,80,4.258c0,3.985,1.64,5.618,6.507,10.465
	c0.358,0.356,0.734,0.731,1.128,1.125C87.736,15.95,87.868,16,88,16s0.264-0.05,0.365-0.151c0.395-0.395,0.77-0.769,1.128-1.125
	C94.36,9.876,96,8.243,96,4.258C96,2.612,94.787,0,91.742,0C89.831,0,88.647,1.149,88,2.216z"/>
</svg>
