<?xml version="1.0" encoding="utf-8"?>
<!-- Generator: Adobe Illustrator 18.1.1, SVG Export Plug-In . SVG Version: 6.00 Build 0)  -->
<!DOCTYPE svg PUBLIC "-//W3C//DTD SVG 1.1//EN" "http://www.w3.org/Graphics/SVG/1.1/DTD/svg11.dtd">
<svg version="1.1" id="Layer_1" xmlns="http://www.w3.org/2000/svg" xmlns:xlink="http://www.w3.org/1999/xlink" x="0px" y="0px"
	 width="300px" height="240px" viewBox="0 0 300 240" enable-background="new 0 0 300 240" xml:space="preserve">
<g>
	<path fill="#18140C" d="M123,186.913h30c8.271,0,15-6.729,15-15v-9c2.499,0,6.34-0.683,9-2.78c2.66,2.098,6.501,2.78,9,2.78h6v-3
		c0-9.278-3.379-12.82-6-14.168v-3.832c0-8.271-6.729-15-15-15h-48c-8.271,0-15,6.729-15,15v30
		C108,180.183,114.73,186.913,123,186.913z M150,132.913h6c0,6.087-2.991,9.072-6,10.55V132.913z M138,132.913h6v12h-6V132.913z
		 M126,132.913h6v12h-6V132.913z M114,141.913c0-3.906,2.516-7.205,6-8.447v11.447h-6V141.913z M114,150.913h30
		c6.226,0,18-3.762,18-18h9c4.963,0,9,4.037,9,9v8.994h2.833c0.914,0.123,2.505,1.582,3.009,6c-0.973-0.05-5.842-0.431-5.842-2.994
		h-6c0,2.569-4.894,2.944-5.842,2.994c0.504-4.418,1.928-5.877,2.842-6v-5.994c-0.368,0-9,0.17-9,15v12c0,4.963-4.037,9-9,9h-30
		c-4.963,0-9-4.037-9-9V150.913z M138,162.913h-6v-6h6V162.913z M126,162.913h-6v-6h6V162.913z"/>
	<g>
		<path fill="#18140C" d="M90.96,72.362h5.13l13.859,31.724h-5.85l-3.194-7.604H86.011l-3.24,7.604h-5.67L90.96,72.362z
			 M98.88,91.577l-5.444-12.6l-5.4,12.6H98.88z"/>
		<path fill="#18140C" d="M114.721,80.327h5.444v5.354c1.485-3.555,4.23-5.985,8.415-5.805v5.76h-0.315c-4.77,0-8.1,3.105-8.1,9.405
			v9.044h-5.444V80.327z"/>
		<path fill="#18140C" d="M133.396,71.507h5.85v5.175h-5.85V71.507z M133.62,80.327h5.445v23.759h-5.445V80.327z"/>
		<path fill="#18140C" d="M160.709,104.086v-2.925c-1.62,1.935-4.095,3.42-7.694,3.42c-4.5,0-8.46-2.565-8.46-7.335v-0.09
			c0-5.265,4.095-7.785,9.63-7.785c2.88,0,4.725,0.405,6.569,0.99v-0.45c0-3.285-2.069-5.085-5.85-5.085
			c-2.655,0-4.635,0.585-6.795,1.485l-1.484-4.365c2.609-1.17,5.175-1.98,9.044-1.98c7.021,0,10.44,3.69,10.44,10.035v14.084
			H160.709z M160.844,94.141c-1.395-0.54-3.329-0.945-5.444-0.945c-3.42,0-5.444,1.395-5.444,3.69v0.09
			c0,2.25,2.024,3.51,4.589,3.51c3.601,0,6.3-2.025,6.3-4.995V94.141z"/>
		<path fill="#18140C" d="M172.59,80.327h5.444v3.689c1.53-2.25,3.735-4.185,7.425-4.185c5.355,0,8.46,3.6,8.46,9.135v15.119h-5.444
			v-13.5c0-3.69-1.846-5.805-5.085-5.805c-3.15,0-5.355,2.205-5.355,5.895v13.41h-5.444V80.327z"/>
		<path fill="#18140C" d="M199.185,92.296v-0.09c0-6.795,4.814-12.375,11.609-12.375c7.56,0,11.385,5.939,11.385,12.779
			c0,0.495-0.045,0.99-0.091,1.53h-17.459c0.585,3.87,3.33,6.03,6.84,6.03c2.655,0,4.545-0.99,6.435-2.834l3.195,2.834
			c-2.25,2.7-5.355,4.455-9.72,4.455C204.494,104.626,199.185,99.631,199.185,92.296z M216.778,90.542
			c-0.359-3.51-2.43-6.255-6.029-6.255c-3.33,0-5.67,2.565-6.165,6.255H216.778z"/>
	</g>
</g>
</svg>
